<?xml version="1.0" encoding="UTF-8" standalone="no"?>
<!-- Created with Inkscape (http://www.inkscape.org/) -->
<svg
   xmlns:dc="http://purl.org/dc/elements/1.1/"
   xmlns:cc="http://web.resource.org/cc/"
   xmlns:rdf="http://www.w3.org/1999/02/22-rdf-syntax-ns#"
   xmlns:svg="http://www.w3.org/2000/svg"
   xmlns="http://www.w3.org/2000/svg"
   xmlns:xlink="http://www.w3.org/1999/xlink"
   xmlns:sodipodi="http://sodipodi.sourceforge.net/DTD/sodipodi-0.dtd"
   xmlns:inkscape="http://www.inkscape.org/namespaces/inkscape"
   width="40"
   height="40"
   id="svg2193"
   sodipodi:version="0.32"
   inkscape:version="0.45.1"
   version="1.0"
   sodipodi:docbase="/home/jra/Desktop"
   sodipodi:docname="10.svg"
   inkscape:output_extension="org.inkscape.output.svg.inkscape">
  <sodipodi:namedview
     id="base"
     pagecolor="#ffffff"
     bordercolor="#666666"
     borderopacity="1.0"
     inkscape:pageopacity="0.0"
     inkscape:pageshadow="2"
     inkscape:zoom="17.375"
     inkscape:cx="20"
     inkscape:cy="20"
     inkscape:current-layer="layer1"
     showgrid="false"
     inkscape:grid-bbox="false"
     inkscape:document-units="px"
     width="40px"
     height="40px"
     gridempspacing="2"
     inkscape:window-width="1167"
     inkscape:window-height="914"
     inkscape:window-x="99"
     inkscape:window-y="80" />
  <defs
     id="defs2195">
    <linearGradient
       id="linearGradient2486">
      <stop
         id="stop2488"
         style="stop-color:#282828;stop-opacity:1;"
         offset="0" />
      <stop
         offset="0.18196203"
         style="stop-color:#818181;stop-opacity:1;"
         id="stop2492" />
      <stop
         id="stop2496"
         style="stop-color:#1d1d1d;stop-opacity:1;"
         offset="0.625" />
      <stop
         id="stop2494"
         style="stop-color:#bababa;stop-opacity:1;"
         offset="0.8291139" />
      <stop
         id="stop2490"
         style="stop-color:#191919;stop-opacity:1;"
         offset="1" />
    </linearGradient>
    <linearGradient
       id="linearGradient3463">
      <stop
         offset="0"
         style="stop-color:#ffffff;stop-opacity:0;"
         id="stop3465" />
      <stop
         id="stop3469"
         style="stop-color:#000000;stop-opacity:0;"
         offset="0.5" />
      <stop
         offset="1"
         style="stop-color:#000000;stop-opacity:1;"
         id="stop3467" />
    </linearGradient>
    <linearGradient
       id="linearGradient3474">
      <stop
         style="stop-color:#fffdf9;stop-opacity:1;"
         offset="0"
         id="stop3476" />
      <stop
         id="stop3451"
         offset="0.5"
         style="stop-color:#ffffff;stop-opacity:1;" />
      <stop
         style="stop-color:#ff8f00;stop-opacity:0.31874999;"
         offset="1"
         id="stop3478" />
    </linearGradient>
    <linearGradient
       id="linearGradient3464">
      <stop
         id="stop3466"
         offset="0"
         style="stop-color:#eb7331;stop-opacity:0;" />
      <stop
         style="stop-color:#ebaf31;stop-opacity:0.6875;"
         offset="0.5"
         id="stop3434" />
      <stop
         id="stop3468"
         offset="1"
         style="stop-color:#eb7331;stop-opacity:0.89999998;" />
    </linearGradient>
    <linearGradient
       inkscape:collect="always"
       id="linearGradient3395">
      <stop
         style="stop-color:#eb7331;stop-opacity:1;"
         offset="0"
         id="stop3397" />
      <stop
         style="stop-color:#eb7331;stop-opacity:0;"
         offset="1"
         id="stop3399" />
    </linearGradient>
    <linearGradient
       id="linearGradient3239"
       inkscape:collect="always">
      <stop
         offset="0"
         style="stop-color:#eeeeec;stop-opacity:1;"
         id="stop3241" />
      <stop
         offset="1"
         style="stop-color:#eeeeec;stop-opacity:0;"
         id="stop3243" />
    </linearGradient>
    <linearGradient
       id="linearGradient3220">
      <stop
         offset="0"
         style="stop-color:#000000;stop-opacity:1"
         id="stop3222" />
      <stop
         offset="1"
         style="stop-color:#c1c3c0;stop-opacity:1"
         id="stop3224" />
    </linearGradient>
    <linearGradient
       id="linearGradient3291">
      <stop
         offset="0"
         style="stop-color:#000000;stop-opacity:1;"
         id="stop3293" />
      <stop
         offset="1"
         style="stop-color:#000000;stop-opacity:0;"
         id="stop3295" />
    </linearGradient>
    <radialGradient
       r="63.912209"
       id="radialGradient2595"
       fx="75.857941"
       fy="115.70919"
       gradientUnits="userSpaceOnUse"
       inkscape:collect="always"
       cy="115.70919"
       cx="63.912209"
       xlink:href="#linearGradient3291"
       gradientTransform="matrix(1,0,0,0.197802,0,92.82166)" />
    <linearGradient
       id="linearGradient2638">
      <stop
         id="stop2640"
         style="stop-color:#0e0000;stop-opacity:1;"
         offset="0" />
      <stop
         id="stop2642"
         style="stop-color:#0e0000;stop-opacity:0;"
         offset="1" />
    </linearGradient>
    <linearGradient
       id="linearGradient2624">
      <stop
         id="stop2626"
         style="stop-color:#000000;stop-opacity:1;"
         offset="0" />
      <stop
         id="stop2628"
         style="stop-color:#000000;stop-opacity:0;"
         offset="1" />
    </linearGradient>
    <linearGradient
       id="linearGradient2558">
      <stop
         id="stop2560"
         style="stop-color:#000000;stop-opacity:1"
         offset="0" />
      <stop
         id="stop2562"
         style="stop-color:#c1c3c0;stop-opacity:1"
         offset="1" />
    </linearGradient>
    <linearGradient
       inkscape:collect="always"
       xlink:href="#linearGradient2638"
       id="linearGradient4375"
       x1="24.884111"
       y1="31.609634"
       x2="22.828125"
       y2="22.92437"
       gradientUnits="userSpaceOnUse" />
    <linearGradient
       inkscape:collect="always"
       xlink:href="#linearGradient2638"
       id="linearGradient4377"
       x1="24.279856"
       y1="30.074266"
       x2="23.925377"
       y2="3.6848071"
       gradientUnits="userSpaceOnUse" />
    <linearGradient
       inkscape:collect="always"
       xlink:href="#linearGradient2638"
       id="linearGradient4379"
       x1="23.313473"
       y1="16"
       x2="21.191195"
       y2="9.0512838"
       gradientUnits="userSpaceOnUse" />
    <linearGradient
       inkscape:collect="always"
       xlink:href="#linearGradient2638"
       id="linearGradient4381"
       x1="19.274799"
       y1="2.4483645"
       x2="20.034491"
       y2="9.5379658"
       gradientUnits="userSpaceOnUse" />
    <linearGradient
       inkscape:collect="always"
       xlink:href="#linearGradient2638"
       id="linearGradient4397"
       x1="22.129667"
       y1="2.6805563"
       x2="27.248034"
       y2="12.669314"
       gradientUnits="userSpaceOnUse" />
    <linearGradient
       inkscape:collect="always"
       xlink:href="#linearGradient2638"
       id="linearGradient4399"
       x1="26.079006"
       y1="23.640205"
       x2="29.216784"
       y2="12.084154"
       gradientUnits="userSpaceOnUse" />
    <linearGradient
       inkscape:collect="always"
       xlink:href="#linearGradient2638"
       id="linearGradient4401"
       x1="29.623943"
       y1="11.574624"
       x2="29.342089"
       y2="10.340182"
       gradientUnits="userSpaceOnUse" />
    <linearGradient
       inkscape:collect="always"
       xlink:href="#linearGradient2638"
       id="linearGradient4403"
       x1="30.49115"
       y1="21.169714"
       x2="29.977743"
       y2="19.486345"
       gradientUnits="userSpaceOnUse" />
    <linearGradient
       inkscape:collect="always"
       xlink:href="#linearGradient2638"
       id="linearGradient4405"
       x1="7.5597115"
       y1="29.506096"
       x2="20.5625"
       y2="10.096061"
       gradientUnits="userSpaceOnUse" />
    <linearGradient
       inkscape:collect="always"
       xlink:href="#linearGradient3220"
       id="linearGradient4407"
       x1="30.382356"
       y1="10.467934"
       x2="31.587575"
       y2="10.467934"
       gradientUnits="userSpaceOnUse" />
    <linearGradient
       inkscape:collect="always"
       xlink:href="#linearGradient3220"
       id="linearGradient4409"
       x1="30.21875"
       y1="19.999733"
       x2="31.504033"
       y2="19.999733"
       gradientUnits="userSpaceOnUse" />
    <linearGradient
       inkscape:collect="always"
       xlink:href="#linearGradient2486"
       id="linearGradient4411"
       x1="32.741802"
       y1="8.6256723"
       x2="33.326241"
       y2="11.043759"
       gradientUnits="userSpaceOnUse" />
    <linearGradient
       inkscape:collect="always"
       xlink:href="#linearGradient2486"
       id="linearGradient4413"
       x1="32.726551"
       y1="17.968327"
       x2="33.538631"
       y2="20.236998"
       gradientUnits="userSpaceOnUse" />
    <linearGradient
       inkscape:collect="always"
       xlink:href="#linearGradient3395"
       id="linearGradient3401"
       x1="4.7238712"
       y1="16.46875"
       x2="18.17635"
       y2="17.106813"
       gradientUnits="userSpaceOnUse" />
    <linearGradient
       inkscape:collect="always"
       xlink:href="#linearGradient3395"
       id="linearGradient3403"
       x1="4.7238717"
       y1="19.536371"
       x2="15.786859"
       y2="27.25"
       gradientUnits="userSpaceOnUse" />
    <linearGradient
       inkscape:collect="always"
       xlink:href="#linearGradient3395"
       id="linearGradient3405"
       x1="7.4179201"
       y1="8.5064325"
       x2="14.773341"
       y2="15.028865"
       gradientUnits="userSpaceOnUse" />
    <linearGradient
       inkscape:collect="always"
       xlink:href="#linearGradient3395"
       id="linearGradient3408"
       x1="8.25"
       y1="28.230789"
       x2="18.15625"
       y2="28.230789"
       gradientUnits="userSpaceOnUse" />
    <linearGradient
       inkscape:collect="always"
       xlink:href="#linearGradient3395"
       id="linearGradient3410"
       x1="10.377788"
       y1="3.6948574"
       x2="21.771948"
       y2="34.180141"
       gradientUnits="userSpaceOnUse" />
    <linearGradient
       inkscape:collect="always"
       xlink:href="#linearGradient3395"
       id="linearGradient3418"
       x1="18.5849"
       y1="17.625"
       x2="14.398761"
       y2="17.625"
       gradientUnits="userSpaceOnUse" />
    <linearGradient
       inkscape:collect="always"
       xlink:href="#linearGradient3395"
       id="linearGradient3420"
       x1="16.032644"
       y1="21.5436"
       x2="21.204779"
       y2="26.293633"
       gradientUnits="userSpaceOnUse" />
    <linearGradient
       inkscape:collect="always"
       xlink:href="#linearGradient3395"
       id="linearGradient3422"
       x1="18.655796"
       y1="15.009336"
       x2="13.646426"
       y2="10.046616"
       gradientUnits="userSpaceOnUse" />
    <linearGradient
       inkscape:collect="always"
       xlink:href="#linearGradient3395"
       id="linearGradient3434"
       x1="13.543747"
       y1="15.379934"
       x2="12.834202"
       y2="13.182201"
       gradientUnits="userSpaceOnUse" />
    <linearGradient
       inkscape:collect="always"
       xlink:href="#linearGradient3395"
       id="linearGradient3436"
       x1="13.071409"
       y1="21.047144"
       x2="12.343629"
       y2="19.267527"
       gradientUnits="userSpaceOnUse" />
    <linearGradient
       inkscape:collect="always"
       xlink:href="#linearGradient3395"
       id="linearGradient3438"
       x1="31.631584"
       y1="21.068972"
       x2="30.739025"
       y2="18.980852"
       gradientUnits="userSpaceOnUse" />
    <linearGradient
       inkscape:collect="always"
       xlink:href="#linearGradient2558"
       id="linearGradient3442"
       x1="14.34375"
       y1="19.125"
       x2="19.786858"
       y2="18.132456"
       gradientUnits="userSpaceOnUse" />
    <radialGradient
       inkscape:collect="always"
       xlink:href="#linearGradient3464"
       id="radialGradient3462"
       cx="13.494871"
       cy="17.952013"
       fx="13.494871"
       fy="17.952013"
       r="2.8067961"
       gradientTransform="matrix(1,0,0,0.7394944,0,4.676599)"
       gradientUnits="userSpaceOnUse" />
    <radialGradient
       inkscape:collect="always"
       xlink:href="#linearGradient3464"
       id="radialGradient3470"
       cx="13.954291"
       cy="17.899726"
       fx="13.954291"
       fy="17.899726"
       r="2.1949933"
       gradientTransform="matrix(1,0,0,0.9227008,0,1.383634)"
       gradientUnits="userSpaceOnUse" />
    <radialGradient
       inkscape:collect="always"
       xlink:href="#linearGradient3464"
       id="radialGradient3472"
       cx="15.45533"
       cy="18.093132"
       fx="15.45533"
       fy="18.093132"
       r="0.99254417"
       gradientTransform="matrix(1.4168923,-0.1671063,0.2175883,1.5502527,-10.380063,-7.3731111)"
       gradientUnits="userSpaceOnUse" />
    <radialGradient
       inkscape:collect="always"
       xlink:href="#linearGradient3474"
       id="radialGradient3480"
       cx="13.612034"
       cy="17.703205"
       fx="13.612034"
       fy="17.703205"
       r="1.0634402"
       gradientTransform="matrix(1,0,0,1.0333333,0,-0.590106)"
       gradientUnits="userSpaceOnUse" />
    <radialGradient
       inkscape:collect="always"
       xlink:href="#linearGradient3474"
       id="radialGradient3484"
       gradientUnits="userSpaceOnUse"
       gradientTransform="matrix(1,0,0,1.0333333,0,-0.590106)"
       cx="13.612034"
       cy="17.703205"
       fx="13.612034"
       fy="17.703205"
       r="1.0634402" />
    <radialGradient
       inkscape:collect="always"
       xlink:href="#linearGradient3474"
       id="radialGradient3488"
       cx="8.8169088"
       cy="18.301678"
       fx="8.8169088"
       fy="18.301678"
       r="6.078125"
       gradientTransform="matrix(1,0,0,1.7989096,0,-15.97526)"
       gradientUnits="userSpaceOnUse" />
    <linearGradient
       inkscape:collect="always"
       xlink:href="#linearGradient3474"
       id="linearGradient3492"
       gradientUnits="userSpaceOnUse"
       x1="11.67231"
       y1="15.013766"
       x2="13.496785"
       y2="21.614311" />
    <linearGradient
       inkscape:collect="always"
       xlink:href="#linearGradient3395"
       id="linearGradient3508"
       gradientUnits="userSpaceOnUse"
       x1="31.574993"
       y1="21.113037"
       x2="30.002518"
       y2="18.471169" />
    <radialGradient
       inkscape:collect="always"
       xlink:href="#linearGradient3474"
       id="radialGradient3565"
       cx="14.054331"
       cy="18.574419"
       fx="14.054331"
       fy="18.574419"
       r="3.109375"
       gradientTransform="matrix(1.8892284,2.2800727e-2,-3.2989705e-2,2.7334692,-11.884745,-33.148095)"
       gradientUnits="userSpaceOnUse" />
    <radialGradient
       inkscape:collect="always"
       xlink:href="#linearGradient2624"
       id="radialGradient3449"
       gradientUnits="userSpaceOnUse"
       gradientTransform="matrix(1.4894594,-0.4306073,0.6108584,2.1129432,-17.470517,-12.898942)"
       cx="14.67224"
       cy="17.447012"
       fx="14.67224"
       fy="17.447012"
       r="3.4123631" />
    <linearGradient
       inkscape:collect="always"
       xlink:href="#linearGradient2638"
       id="linearGradient3455"
       x1="3.1123896"
       y1="31.061831"
       x2="19.58396"
       y2="9.6512346"
       gradientUnits="userSpaceOnUse" />
    <linearGradient
       inkscape:collect="always"
       xlink:href="#linearGradient2638"
       id="linearGradient3457"
       x1="20.119038"
       y1="36.835938"
       x2="5.65625"
       y2="7.414094"
       gradientUnits="userSpaceOnUse" />
    <radialGradient
       inkscape:collect="always"
       xlink:href="#linearGradient3463"
       id="radialGradient3460"
       gradientUnits="userSpaceOnUse"
       gradientTransform="matrix(0.9963289,-8.6272057e-2,0.1473867,1.7021215,-2.861828,-13.075244)"
       cx="12.229562"
       cy="19.721764"
       fx="12.229562"
       fy="19.721764"
       r="6.6372013" />
    <linearGradient
       inkscape:collect="always"
       xlink:href="#linearGradient3239"
       id="linearGradient2491"
       x1="7.71875"
       y1="19.906007"
       x2="26.6875"
       y2="19.906007"
       gradientUnits="userSpaceOnUse" />
    <linearGradient
       inkscape:collect="always"
       xlink:href="#linearGradient3239"
       id="linearGradient3470"
       x1="21.5625"
       y1="7.5730946"
       x2="26.59375"
       y2="7.5730946"
       gradientUnits="userSpaceOnUse" />
  </defs>
  <metadata
     id="metadata2198">
    <rdf:RDF>
      <cc:Work
         rdf:about="">
        <dc:format>image/svg+xml</dc:format>
        <dc:type
           rdf:resource="http://purl.org/dc/dcmitype/StillImage" />
        <dc:creator>
          <cc:Agent>
            <dc:title>Jarle Akselsen</dc:title>
          </cc:Agent>
        </dc:creator>
        <cc:license
           rdf:resource="http://creativecommons.org/licenses/GPL/2.0/" />
      </cc:Work>
      <cc:License
         rdf:about="http://creativecommons.org/licenses/GPL/2.0/">
        <cc:permits
           rdf:resource="http://web.resource.org/cc/Reproduction" />
        <cc:permits
           rdf:resource="http://web.resource.org/cc/Distribution" />
        <cc:requires
           rdf:resource="http://web.resource.org/cc/Notice" />
        <cc:permits
           rdf:resource="http://web.resource.org/cc/DerivativeWorks" />
        <cc:requires
           rdf:resource="http://web.resource.org/cc/ShareAlike" />
        <cc:requires
           rdf:resource="http://web.resource.org/cc/SourceCode" />
      </cc:License>
    </rdf:RDF>
  </metadata>
  <g
     inkscape:label="Layer 1"
     id="layer1"
     inkscape:groupmode="layer">
    <path
       style="opacity:0.38139535;fill:url(#radialGradient2595);fill-opacity:1;fill-rule:nonzero;stroke:none;stroke-width:0;stroke-linecap:round;stroke-linejoin:round;stroke-miterlimit:4;stroke-dasharray:none;stroke-dashoffset:4;stroke-opacity:1"
       id="path2593"
       sodipodi:cx="63.912209"
       sodipodi:cy="115.70919"
       sodipodi:type="arc"
       d="M 127.82442 115.70919 A 63.912209 12.641975 0 1 1  0,115.70919 A 63.912209 12.641975 0 1 1  127.82442 115.70919 z"
       transform="matrix(0.2586648,-8.1046162e-2,6.8382719e-2,0.380834,-1.0428127,-7.7139947)"
       sodipodi:rx="63.912209"
       sodipodi:ry="12.641975" />
    <path
       style="opacity:1;fill:#eeeeec;fill-opacity:1;fill-rule:nonzero;stroke:none;stroke-width:0.53149605;stroke-linecap:round;stroke-linejoin:miter;stroke-miterlimit:4;stroke-opacity:1"
       d="M 14.15625 5.4375 C 14.057164 5.4358863 13.969088 5.4508219 13.875 5.46875 C 13.80097 5.4828562 13.726884 5.5055661 13.65625 5.53125 C 13.65625 5.53125 8.2450786 6.774724 7.71875 6.90625 C 7.6351396 6.9221745 7.5483884 6.9387431 7.46875 6.96875 C 7.3506154 7.0131923 7.233184 7.0825322 7.125 7.15625 C 7.0711346 7.1939792 7.0198615 7.236537 6.96875 7.28125 C 6.8796572 7.3573146 6.7988682 7.4351069 6.71875 7.53125 C 6.5745703 7.70572 6.4547395 7.8908882 6.34375 8.125 C 6.1945126 8.4355792 6.0789859 8.7843073 6 9.1875 C 5.9939478 9.2175299 6.0056234 9.2507554 6 9.28125 C 5.9962987 9.3018265 5.9722546 9.3229641 5.96875 9.34375 C 5.9523885 9.3800738 5.9529231 9.4310268 5.9375 9.46875 C 5.9339585 9.477412 5.9409912 9.4912652 5.9375 9.5 C 5.9292956 9.5205269 5.9141746 9.5415746 5.90625 9.5625 C 5.9025331 9.5712947 5.9099872 9.5848866 5.90625 9.59375 C 5.8716147 9.6869396 5.8101763 9.7742531 5.78125 9.875 C 5.7697614 9.9151781 5.7605499 9.958677 5.75 10 C 5.7020358 10.186937 5.6838151 10.384633 5.65625 10.59375 C 5.6241803 10.844687 5.59375 11.127822 5.59375 11.40625 C 5.59375 11.40625 5.59375 22.8125 5.59375 22.8125 C 5.59375 23.090928 5.6241803 23.347541 5.65625 23.625 C 5.657394 23.635205 5.6550644 23.646052 5.65625 23.65625 C 5.7952117 24.817821 6.1915563 25.949865 6.75 26.78125 C 7.2280172 27.736028 7.8526953 28.474865 8.5625 28.8125 C 8.5625 28.8125 17.5 33.0625 17.5 33.0625 C 17.620896 33.120007 17.726893 33.155526 17.84375 33.1875 C 18.346275 33.337892 18.81839 33.296224 19.21875 33.0625 L 24.90625 31.15625 C 25.017432 31.108626 25.117034 31.041686 25.21875 30.96875 C 25.322701 30.895236 25.438188 30.816822 25.53125 30.71875 C 25.712769 30.524933 25.868087 30.282149 26 30 C 26.067323 29.856287 26.135027 29.696046 26.1875 29.53125 C 26.237483 29.369819 26.277688 29.179954 26.3125 29 C 26.329866 28.911633 26.361558 28.811481 26.375 28.71875 C 26.388444 28.622153 26.397145 28.507271 26.40625 28.40625 C 26.425061 28.20276 26.4375 28.00235 26.4375 27.78125 C 26.4375 27.78125 26.4375 26.131048 26.4375 25.46875 L 27.96875 24 C 27.96875 24 28.376398 23.581627 28.5625 23.15625 C 28.748602 22.730873 28.718749 22.3125 28.71875 22.3125 L 28.71875 21.71875 L 30.5625 21.03125 C 30.634115 21.052567 30.705266 21.068234 30.78125 21.0625 C 30.891004 21.054217 31.002662 21.029614 31.09375 20.96875 L 34.3125 19.78125 C 34.312502 19.781249 34.72948 19.21409 34.375 18.59375 C 33.99647 17.931319 33.46875 18.03125 33.46875 18.03125 L 30.625 18.9375 C 30.43463 18.951867 30.282705 19.05853 30.15625 19.21875 L 28.71875 19.6875 L 28.6875 12.46875 C 28.6875 12.46875 28.668818 12.176099 28.65625 12 L 30.5625 11.46875 L 30.59375 11.46875 C 30.654007 11.491491 30.715126 11.529996 30.78125 11.53125 C 30.891296 11.533335 30.997337 11.52077 31.09375 11.46875 L 34.40625 10.59375 C 34.406253 10.593749 34.85701 10.057205 34.5625 9.40625 C 34.248009 8.7111273 33.71875 8.78125 33.71875 8.78125 L 30.8125 9.40625 C 30.734198 9.4047663 30.665993 9.4417996 30.59375 9.46875 C 30.558116 9.4820431 30.533569 9.4805437 30.5 9.5 C 30.448807 9.527621 30.420453 9.5845569 30.375 9.625 L 28.3125 10.0625 L 28.0625 10.125 L 26.625 7.5625 C 26.625 7.5625 26.453825 7.231344 26.25 7.125 C 26.148087 7.071828 26.022797 7.080457 25.9375 7.09375 C 25.852203 7.107043 25.8125 7.125 25.8125 7.125 L 21.5625 7.96875 C 19.251296 7.1567024 14.6875 5.5624999 14.6875 5.5625 C 14.50372 5.4979291 14.328821 5.4403104 14.15625 5.4375 z "
       id="path3684" />
    <path
       style="opacity:0.5;fill:url(#radialGradient3565);fill-opacity:1;fill-rule:nonzero;stroke:none;stroke-width:0.53149605;stroke-linecap:round;stroke-linejoin:miter;stroke-miterlimit:4;stroke-opacity:1"
       d="M 11.9375,10.4375 C 11.9375,10.483256 11.9375,12.491542 11.9375,14.28125 L 14.6875,13.6875 C 14.6875,13.6875 15.083166,13.643634 15.3125,14.1875 C 15.366191,14.314827 15.379581,14.422415 15.375,14.53125 C 15.374908,14.540223 15.375385,14.553675 15.375,14.5625 C 15.350002,14.872015 15.156251,15.093749 15.15625,15.09375 L 11.9375,15.90625 C 11.9375,16.107448 11.9375,16.114408 11.9375,16.3125 C 12.147496,16.19215 12.380431,16.054674 12.59375,15.96875 C 12.660306,15.934486 12.743196,15.888702 12.8125,15.875 C 12.881804,15.861298 12.929648,15.865949 13,15.875 C 13.070351,15.884051 13.12392,15.907407 13.1875,15.9375 C 13.496382,16.032112 15.447227,16.645439 15.53125,16.65625 C 15.667101,16.673729 15.76823,16.711914 15.875,16.8125 C 16.203179,17.10119 16.373137,17.72331 16.28125,18.4375 C 16.280007,18.448054 16.282612,18.458164 16.28125,18.46875 C 16.218324,18.921659 16.051102,19.312664 15.84375,19.59375 C 15.83881,19.600372 15.848746,19.618509 15.84375,19.625 C 15.822724,19.65259 15.771978,19.662414 15.75,19.6875 C 15.735753,19.703483 15.733356,19.735066 15.71875,19.75 C 15.698128,19.770415 15.678008,19.79297 15.65625,19.8125 C 15.544915,19.912281 15.435848,19.967593 15.3125,20 C 15.326777,20.121191 15.30988,20.218124 15.28125,20.3125 C 15.27558,20.33119 15.287736,20.357647 15.28125,20.375 C 15.278562,20.383528 15.2841,20.398022 15.28125,20.40625 C 15.221123,20.546791 15.125001,20.65625 15.125,20.65625 L 11.96875,21.625 C 12.185541,23.375961 13.081475,25.020013 14.15625,25.53125 C 14.15625,25.53125 16.170077,26.492725 18.15625,27.4375 C 18.15625,27.213393 18.15625,25.88046 18.15625,24.9375 L 18.03125,25.1875 L 16.8125,21 L 16.8125,14.46875 L 17.25,13.28125 C 16.809403,12.535577 16.247255,11.968631 15.625,11.75 C 15.625,11.75 13.78722,11.087402 11.9375,10.4375 z M 11.9375,18.59375 C 11.9375,19.051328 11.9375,19.765631 11.9375,19.96875 L 13.625,19.5 C 13.145376,19.324861 12.61465,19.127689 12.59375,19.125 C 12.52601,19.116285 12.4749,19.106655 12.40625,19.0625 C 12.222046,18.975871 12.047701,18.817621 11.9375,18.59375 z "
       id="path3537" />
    <path
       style="opacity:0.41148329;fill:url(#radialGradient3488);fill-opacity:1;fill-rule:nonzero;stroke:none;stroke-width:0.53149605;stroke-linecap:round;stroke-linejoin:miter;stroke-miterlimit:4;stroke-opacity:1"
       d="M 7.78125,9.0625 C 6.759439,9.045859 6,10.276799 6,12.0625 C 6,12.0625 6,22.500001 6,22.5 C 6,24.540802 7.006372,26.658438 8.25,27.25 C 8.25,27.25 15.625,30.749999 15.625,30.75 C 17.023789,31.41537 18.15625,30.184044 18.15625,27.96875 C 18.15625,27.96875 18.15625,27.485123 18.15625,27.4375 C 16.170077,26.492725 14.15625,25.53125 14.15625,25.53125 C 12.913759,24.940236 11.9375,22.851426 11.9375,20.8125 C 11.9375,20.8125 11.9375,10.561005 11.9375,10.4375 C 10.092679,9.78932 8.25,9.15625 8.25,9.15625 C 8.094546,9.101631 7.927223,9.064877 7.78125,9.0625 z "
       id="path3486" />
    <path
       style="opacity:1;color:#000000;fill:url(#linearGradient4413);fill-opacity:1;fill-rule:evenodd;stroke:none;stroke-width:1px;stroke-linecap:butt;stroke-linejoin:miter;marker:none;marker-start:none;marker-mid:none;marker-end:none;stroke-miterlimit:4;stroke-dasharray:none;stroke-dashoffset:0;stroke-opacity:1;visibility:visible;display:inline;overflow:visible;enable-background:accumulate"
       d="M 33.46875,18.03125 L 30.625,18.9375 C 31.064016,18.904367 31.455822,19.352146 31.5,19.9375 C 31.533133,20.376516 31.367015,20.786157 31.09375,20.96875 L 34.3125,19.78125 C 34.312502,19.781249 34.72948,19.21409 34.375,18.59375 C 33.99647,17.931319 33.46875,18.03125 33.46875,18.03125 z "
       id="path3626" />
    <path
       style="opacity:0.75;fill:url(#linearGradient4409);fill-opacity:1;fill-rule:nonzero;stroke:none;stroke-width:0.53149605;stroke-linecap:round;stroke-linejoin:miter;stroke-miterlimit:4;stroke-dasharray:none;stroke-opacity:1"
       d="M 30.625,18.9375 C 30.460369,18.949925 30.337058,19.063543 30.21875,19.1875 L 30.3125,19.15625 C 30.394468,19.10148 30.463735,19.069954 30.5625,19.0625 C 30.957561,19.032685 31.335245,19.442002 31.375,19.96875 C 31.414755,20.495497 31.113811,20.938934 30.71875,20.96875 L 30.5625,21.03125 C 30.634115,21.052567 30.705266,21.068234 30.78125,21.0625 C 31.220266,21.029367 31.544177,20.522854 31.5,19.9375 C 31.455822,19.352146 31.064016,18.904367 30.625,18.9375 z "
       id="path3665" />
    <path
       id="path3672"
       d="M 33.726768,8.768247 L 30.810336,9.4027784 C 31.250522,9.411119 31.598436,9.8937927 31.587316,10.480706 C 31.578975,10.920892 31.375033,11.313077 31.085794,11.469135 L 34.402035,10.589904 C 34.402038,10.589903 34.870553,10.064514 34.576043,9.4135592 C 34.261551,8.7184363 33.726768,8.768247 33.726768,8.768247 z "
       style="opacity:1;color:#000000;fill:url(#linearGradient4411);fill-opacity:1;fill-rule:evenodd;stroke:none;stroke-width:1px;stroke-linecap:butt;stroke-linejoin:miter;marker:none;marker-start:none;marker-mid:none;marker-end:none;stroke-miterlimit:4;stroke-dasharray:none;stroke-dashoffset:0;stroke-opacity:1;visibility:visible;display:inline;overflow:visible;enable-background:accumulate" />
    <path
       id="path3682"
       d="M 30.810336,9.4027784 C 30.645266,9.3996508 30.511808,9.5011565 30.382356,9.6134263 L 30.478632,9.5911402 C 30.565391,9.5443293 30.637319,9.5194637 30.736347,9.52134 C 31.13246,9.5288463 31.469936,9.9718993 31.459929,10.500051 C 31.449923,11.028201 31.108572,11.44134 30.712459,11.433835 L 30.551019,11.481348 C 30.620309,11.509312 30.68967,11.531607 30.765856,11.533052 C 31.206042,11.541392 31.576195,11.06762 31.587316,10.480706 C 31.598436,9.8937927 31.250522,9.411119 30.810336,9.4027784 z "
       style="opacity:0.75;fill:url(#linearGradient4407);fill-opacity:1;fill-rule:nonzero;stroke:none;stroke-width:0.53149605;stroke-linecap:round;stroke-linejoin:miter;stroke-miterlimit:4;stroke-dasharray:none;stroke-opacity:1" />
    <path
       style="opacity:0.4;fill:url(#linearGradient4401);fill-opacity:1;fill-rule:nonzero;stroke:none;stroke-width:0.53149605;stroke-linecap:round;stroke-linejoin:miter;stroke-miterlimit:4;stroke-dasharray:none;stroke-opacity:1"
       d="M 30.75,9.53125 C 30.650972,9.5293736 30.555509,9.546939 30.46875,9.59375 L 28.0625,10.125 L 28.40625,10.71875 C 28.40625,10.71875 28.522854,11.034512 28.59375,11.46875 C 28.631497,11.699951 28.641939,11.799474 28.65625,12 L 30.71875,11.4375 C 31.114862,11.445005 31.458744,11.02815 31.46875,10.5 C 31.478757,9.9718485 31.146113,9.538756 30.75,9.53125 z "
       id="path2272"
       sodipodi:nodetypes="ccccsccsc" />
    <path
       style="opacity:0.7;fill:url(#linearGradient4403);fill-opacity:1;fill-rule:nonzero;stroke:none;stroke-width:0.53149605;stroke-linecap:round;stroke-linejoin:miter;stroke-miterlimit:4;stroke-dasharray:none;stroke-opacity:1"
       d="M 30.5625,19.0625 C 30.463735,19.069954 30.394468,19.10148 30.3125,19.15625 L 28.71875,19.6875 L 28.71875,21.71875 L 30.71875,20.96875 C 31.113811,20.938934 31.414755,20.495497 31.375,19.96875 C 31.335245,19.442002 30.957561,19.032685 30.5625,19.0625 z "
       id="path2274"
       sodipodi:nodetypes="cccccsc" />
    <path
       style="opacity:0.5;fill:url(#linearGradient3457);fill-opacity:1;fill-rule:nonzero;stroke:none;stroke-width:0.53149605;stroke-linecap:round;stroke-linejoin:miter;stroke-miterlimit:4;stroke-opacity:1"
       d="M 7.9375,7.84375 C 7.9375,7.84375 7.512367,8.055293 7.15625,8.21875 C 7.424536,8.146316 7.725253,8.111237 8.03125,8.21875 C 8.03125,8.21875 16.09375,11.0625 16.09375,11.0625 C 17.620453,11.598911 18.875,13.988375 18.875,16.40625 C 18.875001,16.406249 18.875,28.78125 18.875,28.78125 C 18.875,30.159896 18.444769,31.158311 17.8125,31.65625 L 18.5625,31.28125 L 18.53125,31.25 C 19.173105,30.768102 19.593749,29.760906 19.59375,28.375 C 19.59375,28.375 19.593749,16.0625 19.59375,16.0625 C 19.59375,13.658987 18.361383,11.314475 16.84375,10.78125 C 16.84375,10.78125 8.84375,7.9375 8.84375,7.9375 C 8.675089,7.878241 8.502125,7.846329 8.34375,7.84375 L 7.9375,7.84375 z M 6.65625,8.4375 L 6.5625,8.5 L 6.5625,8.53125 C 6.594916,8.502414 6.622579,8.463222 6.65625,8.4375 z M 6.28125,8.84375 C 6.207792,8.942198 6.125648,9.039139 6.0625,9.15625 C 6.125312,9.038595 6.208129,8.942845 6.28125,8.84375 z M 5.9375,9.46875 C 5.884437,9.597463 5.822718,9.730571 5.78125,9.875 C 5.822152,9.731957 5.885263,9.596515 5.9375,9.46875 z M 5.75,10 C 5.702036,10.186937 5.683815,10.384633 5.65625,10.59375 C 5.68383,10.377944 5.700836,10.192571 5.75,10 z "
       id="path3579" />
    <path
       style="opacity:0.8;fill:url(#linearGradient3410);fill-opacity:1;fill-rule:nonzero;stroke:none;stroke-width:0.53149605;stroke-linecap:round;stroke-linejoin:miter;stroke-miterlimit:4;stroke-opacity:1"
       d="M 11.9375,10.4375 C 11.9375,10.561005 11.9375,20.8125 11.9375,20.8125 C 11.9375,22.851426 12.913759,24.940236 14.15625,25.53125 C 14.15625,25.53125 16.170077,26.492725 18.15625,27.4375 C 18.15625,27.213393 18.15625,25.88046 18.15625,24.9375 L 18.03125,25.1875 L 16.8125,21 L 16.8125,14.46875 L 17.25,13.28125 C 16.809403,12.535577 16.247255,11.968631 15.625,11.75 C 15.625,11.75 13.78722,11.087402 11.9375,10.4375 z "
       id="path2317" />
    <path
       style="opacity:1;fill:url(#linearGradient3403);fill-opacity:1;fill-rule:nonzero;stroke:none;stroke-width:0.53149605;stroke-linecap:round;stroke-linejoin:miter;stroke-miterlimit:4;stroke-opacity:1"
       d="M 6,22.5 C 6,24.540802 7.0063717,26.658438 8.25,27.25 C 8.25,27.25 14.15625,25.53125 14.15625,25.53125 C 12.913759,24.940236 11.9375,22.851426 11.9375,20.8125 C 11.9375,20.8125 6,22.500001 6,22.5 z "
       id="path2335"
       sodipodi:nodetypes="ccccs" />
    <path
       id="path2337"
       d="M 6,12.0625 C 6,12.0625 5.999999,22.5 6,22.5 L 11.9375,20.8125 C 11.9375,20.8125 11.9375,10.561005 11.9375,10.4375 L 6,12.0625 z "
       style="opacity:1;fill:url(#linearGradient3401);fill-opacity:1;fill-rule:nonzero;stroke:none;stroke-width:0.53149605;stroke-linecap:round;stroke-linejoin:miter;stroke-miterlimit:4;stroke-opacity:1"
       sodipodi:nodetypes="csccc" />
    <path
       style="opacity:0.98999999;color:#000000;fill:#eeeeec;fill-opacity:1;fill-rule:evenodd;stroke:none;stroke-width:1px;stroke-linecap:butt;stroke-linejoin:miter;marker:none;marker-start:none;marker-mid:none;marker-end:none;stroke-miterlimit:4;stroke-dasharray:none;stroke-dashoffset:0;stroke-opacity:1;visibility:visible;display:inline;overflow:visible;enable-background:accumulate"
       d="M 14.6875,13.6875 L 11.71875,14.34375 L 11.6875,14.34375 C 11.360156,14.349913 11.082225,14.715915 11.0625,15.15625 C 11.042178,15.609928 11.284741,15.984759 11.625,16 C 11.710065,16.00381 11.799398,15.975805 11.875,15.9375 L 15.15625,15.09375 C 15.156252,15.093749 15.527264,14.69681 15.3125,14.1875 C 15.083166,13.643634 14.6875,13.6875 14.6875,13.6875 z M 11.75,14.375 C 11.817269,14.387745 11.87981,14.398296 11.9375,14.4375 C 11.878018,14.400332 11.818884,14.384557 11.75,14.375 z "
       id="path3424" />
    <path
       style="opacity:1;fill:url(#linearGradient3405);fill-opacity:1;fill-rule:nonzero;stroke:none;stroke-width:0.53149605;stroke-linecap:round;stroke-linejoin:miter;stroke-miterlimit:4;stroke-opacity:1"
       d="M 7.78125,9.0625 C 6.759439,9.045859 6,10.276799 6,12.0625 C 6,12.0625 11.9375,10.561005 11.9375,10.4375 C 10.092679,9.78932 8.25,9.15625 8.25,9.15625 C 8.094546,9.101631 7.927223,9.064877 7.78125,9.0625 z "
       id="path2339"
       sodipodi:nodetypes="ccccc" />
    <path
       style="opacity:0.41148329;fill:url(#linearGradient3408);fill-opacity:1;fill-rule:nonzero;stroke:none;stroke-width:0.53149605;stroke-linecap:round;stroke-linejoin:miter;stroke-miterlimit:4;stroke-opacity:1"
       d="M 8.25,27.25 C 8.25,27.25 15.625,30.749999 15.625,30.75 C 17.023789,31.41537 18.15625,30.184044 18.15625,27.96875 C 18.15625,27.96875 18.15625,27.485123 18.15625,27.4375 C 16.170077,26.492725 14.15625,25.53125 14.15625,25.53125 L 8.25,27.25 z "
       id="path2341"
       sodipodi:nodetypes="cscccc" />
    <path
       style="opacity:0.75;color:#000000;fill:url(#linearGradient3434);fill-opacity:1;fill-rule:evenodd;stroke:none;stroke-width:1px;stroke-linecap:butt;stroke-linejoin:miter;marker:none;marker-start:none;marker-mid:none;marker-end:none;stroke-miterlimit:4;stroke-dasharray:none;stroke-dashoffset:0;stroke-opacity:1;visibility:visible;display:inline;overflow:visible;enable-background:accumulate"
       d="M 14.675877,13.678713 L 11.701035,14.343504 C 12.041294,14.358746 12.300721,14.738978 12.280399,15.192656 C 12.265157,15.532916 12.099602,15.832144 11.872797,15.94706 L 15.161725,15.10101 C 15.161727,15.101009 15.534555,14.704047 15.319791,14.194737 C 15.090457,13.650871 14.675877,13.678713 14.675877,13.678713 z "
       id="path2305"
       sodipodi:nodetypes="ccsccsc" />
    <path
       transform="matrix(0.7728511,3.4619356e-2,-3.4619356e-2,0.7728511,-11.428042,-1.382298)"
       d="M 31.584173 20.042772 A 0.79758012 1.0634402 0 1 1  29.989012,20.042772 A 0.79758012 1.0634402 0 1 1  31.584173 20.042772 z"
       sodipodi:ry="1.0634402"
       sodipodi:rx="0.79758012"
       sodipodi:cy="20.042772"
       sodipodi:cx="30.786592"
       id="path2309"
       style="opacity:1;fill:url(#linearGradient3438);fill-opacity:1;fill-rule:nonzero;stroke:none;stroke-width:0.53149605;stroke-linecap:round;stroke-linejoin:miter;stroke-miterlimit:4;stroke-dasharray:none;stroke-opacity:1"
       sodipodi:type="arc" />
    <path
       style="opacity:1;color:#000000;fill:#eeeeec;fill-opacity:1;fill-rule:evenodd;stroke:none;stroke-width:1px;stroke-linecap:butt;stroke-linejoin:miter;marker:none;marker-start:none;marker-mid:none;marker-end:none;stroke-miterlimit:4;stroke-dasharray:none;stroke-dashoffset:0;stroke-opacity:1;visibility:visible;display:inline;overflow:visible;enable-background:accumulate"
       d="M 14.5625,19.28125 L 11.6875,20.03125 C 11.346913,20.034188 11.058582,20.389635 11.0625,20.84375 C 11.066418,21.297866 11.346912,21.690438 11.6875,21.6875 C 11.857794,21.686031 12.014607,21.587368 12.125,21.4375 C 12.070339,21.514484 12.01095,21.582715 11.9375,21.625 L 15.125,20.65625 C 15.125002,20.656251 15.491639,20.247122 15.25,19.75 C 14.991969,19.219148 14.5625,19.28125 14.5625,19.28125 z M 11.90625,20.09375 C 11.987275,20.138533 12.065477,20.197606 12.125,20.28125 C 12.068519,20.20728 11.980419,20.134761 11.90625,20.09375 z "
       id="path3429" />
    <path
       id="path2313"
       d="M 14.565851,19.268777 L 11.67231,20.022208 C 12.012898,20.019269 12.292246,20.385115 12.296165,20.839231 C 12.299102,21.179818 12.149752,21.487457 11.929403,21.614311 L 15.12691,20.663119 C 15.126912,20.663119 15.478024,20.246827 15.236385,19.749705 C 14.978354,19.218852 14.565851,19.268777 14.565851,19.268777 z "
       style="opacity:0.75;color:#000000;fill:url(#linearGradient3436);fill-opacity:1;fill-rule:evenodd;stroke:none;stroke-width:1px;stroke-linecap:butt;stroke-linejoin:miter;marker:none;marker-start:none;marker-mid:none;marker-end:none;stroke-miterlimit:4;stroke-dasharray:none;stroke-dashoffset:0;stroke-opacity:1;visibility:visible;display:inline;overflow:visible;enable-background:accumulate"
       sodipodi:nodetypes="ccsccsc" />
    <path
       sodipodi:type="arc"
       style="opacity:1;fill:url(#linearGradient3508);fill-opacity:1;fill-rule:nonzero;stroke:none;stroke-width:0.53149605;stroke-linecap:round;stroke-linejoin:miter;stroke-miterlimit:4;stroke-dasharray:none;stroke-opacity:1"
       id="path2315"
       sodipodi:cx="30.786592"
       sodipodi:cy="20.042772"
       sodipodi:rx="0.79758012"
       sodipodi:ry="1.0634402"
       d="M 31.584173 20.042772 A 0.79758012 1.0634402 0 1 1  29.989012,20.042772 A 0.79758012 1.0634402 0 1 1  31.584173 20.042772 z"
       transform="matrix(0.7735973,-6.67437e-3,6.67437e-3,0.7735973,-12.26304,5.553135)" />
    <path
       style="opacity:1;fill:url(#linearGradient3422);fill-opacity:1;fill-rule:nonzero;stroke:none;stroke-width:0.53149605;stroke-linecap:round;stroke-linejoin:miter;stroke-miterlimit:4;stroke-opacity:1"
       d="M 17.25,13.28125 L 16.8125,14.46875 L 17.6875,14.25 C 17.557511,13.907635 17.423776,13.575351 17.25,13.28125 z "
       id="path2433" />
    <path
       style="opacity:1;fill:url(#linearGradient3420);fill-opacity:1;fill-rule:nonzero;stroke:none;stroke-width:0.53149605;stroke-linecap:round;stroke-linejoin:miter;stroke-miterlimit:4;stroke-opacity:1"
       d="M 18.15625,20.59375 L 16.8125,21 L 18.03125,25.1875 L 18.15625,24.9375 C 18.15625,23.299108 18.15625,22.31357 18.15625,20.59375 z "
       id="path2421" />
    <path
       style="opacity:1;fill:url(#linearGradient3418);fill-opacity:1;fill-rule:nonzero;stroke:none;stroke-width:0.53149605;stroke-linecap:round;stroke-linejoin:miter;stroke-miterlimit:4;stroke-opacity:1"
       d="M 17.6875,14.25 L 16.8125,14.46875 L 16.8125,21 L 18.15625,20.59375 C 18.15625,19.034776 18.15625,16.65625 18.15625,16.65625 C 18.15625,15.815119 17.968804,14.990896 17.6875,14.25 z "
       id="path2425" />
    <path
       style="opacity:0.41148329;fill:#555753;fill-opacity:1;fill-rule:nonzero;stroke:none;stroke-width:0.53149605;stroke-linecap:round;stroke-linejoin:miter;stroke-miterlimit:4;stroke-opacity:1"
       d="M 7.5625,9.09375 C 6.65969,9.249553 6,10.413933 6,12.0625 C 6,12.0625 6,22.5 6,22.5 C 6,24.540802 7.006372,26.658437 8.25,27.25 C 8.25,27.25 15.625,30.75 15.625,30.75 C 16.308629,31.075186 16.916654,30.944918 17.375,30.46875 C 16.97147,30.704327 16.489895,30.716646 15.96875,30.46875 C 15.96875,30.46875 8.625,27 8.625,27 C 7.389433,26.412272 6.40625,24.308822 6.40625,22.28125 C 6.40625,22.28125 6.40625,11.90625 6.40625,11.90625 C 6.40625,10.512295 6.871692,9.469362 7.5625,9.09375 z "
       id="path3408" />
    <path
       style="opacity:0.2;fill:url(#linearGradient4381);fill-opacity:1.0;fill-rule:nonzero;stroke:none;stroke-width:0.53149605;stroke-linecap:round;stroke-linejoin:miter;stroke-miterlimit:4;stroke-opacity:1"
       d="M 14.15625,5.4375 C 14.057164,5.4358863 13.969088,5.4508219 13.875,5.46875 C 13.80097,5.4828562 13.726884,5.5055661 13.65625,5.53125 C 13.65625,5.53125 8.245079,6.774724 7.71875,6.90625 C 7.985423,6.8554595 8.264439,6.8640261 8.5625,6.96875 C 8.562501,6.9687499 17.5,10.09375 17.5,10.09375 L 23.4375,8.625 C 23.4375,8.625 14.6875,5.5624999 14.6875,5.5625 C 14.50372,5.4979291 14.328821,5.4403104 14.15625,5.4375 z "
       id="path3411"
       sodipodi:nodetypes="cscsscccc" />
    <path
       style="opacity:0.2;fill:url(#linearGradient4405);fill-opacity:1;fill-rule:nonzero;stroke:none;stroke-width:0.53149605;stroke-linecap:round;stroke-linejoin:miter;stroke-miterlimit:4;stroke-opacity:1"
       d="M 8.03125,6.875 C 7.030089,6.8586954 6.262462,7.8283706 6,9.34375 C 6.022658,9.2810805 6.032877,9.2117374 6.0625,9.15625 C 6.125648,9.0391388 6.207792,8.9421984 6.28125,8.84375 C 6.32706,8.7816667 6.387951,8.7418809 6.4375,8.6875 C 6.48224,8.6389124 6.514918,8.5733329 6.5625,8.53125 L 6.5625,8.5 L 6.65625,8.4375 C 6.785567,8.3387115 6.916629,8.268956 7.0625,8.21875 C 7.091165,8.2088842 7.127018,8.2266424 7.15625,8.21875 C 7.167293,8.2157684 7.176378,8.1901968 7.1875,8.1875 C 7.533528,8.0298185 7.9375,7.84375 7.9375,7.84375 L 8.34375,7.84375 C 8.502125,7.8463292 8.675089,7.8782406 8.84375,7.9375 C 8.84375,7.9375 16.84375,10.78125 16.84375,10.78125 C 17.412863,10.981209 17.934327,11.409542 18.375,12.03125 C 18.379819,12.037954 18.370203,12.055757 18.375,12.0625 C 19.101159,13.097749 19.59375,14.570426 19.59375,16.0625 C 19.593749,16.0625 19.59375,28.375 19.59375,28.375 C 19.59375,28.975878 19.515173,29.516031 19.375,29.96875 C 19.35551,30.028721 19.334236,30.099356 19.3125,30.15625 C 19.12941,30.648438 18.851064,31.005683 18.53125,31.25 L 18.5625,31.28125 L 18.375,31.375 L 17.8125,31.65625 L 17.78125,31.6875 C 17.590489,31.830381 17.381831,31.957573 17.15625,32 C 17.021436,32.025355 16.894526,32.013358 16.75,32 C 16.719823,31.998188 16.686813,32.003618 16.65625,32 C 16.60517,31.992121 16.552036,31.95032 16.5,31.9375 C 16.481634,31.932975 16.455978,31.942648 16.4375,31.9375 C 16.328486,31.908694 16.206491,31.866128 16.09375,31.8125 C 16.09375,31.812501 8.03125,27.96875 8.03125,27.96875 C 7.588174,27.75799 7.16694,27.378984 6.8125,26.875 C 7.284452,27.780753 7.878257,28.487024 8.5625,28.8125 C 8.5625,28.8125 17.500002,33.0625 17.5,33.0625 C 19.189945,33.866368 20.562499,32.363908 20.5625,29.6875 C 20.5625,29.6875 20.562499,16.000001 20.5625,16 C 20.5625,13.323609 19.189947,10.687509 17.5,10.09375 C 17.5,10.09375 8.562501,6.9687499 8.5625,6.96875 C 8.37469,6.9027627 8.207606,6.8778721 8.03125,6.875 z "
       id="path3416" />
    <path
       sodipodi:nodetypes="cssssssss"
       id="path2690"
       d="M 13.014492,15.879618 C 12.559183,15.821038 11.621764,16.582641 11.384103,16.552065 C 11.034772,16.50712 10.732385,16.719694 10.692434,17.030212 C 10.652483,17.340729 10.891213,17.622924 11.240545,17.667868 C 11.455298,17.695498 12.053863,19.06432 12.595779,19.134043 C 12.646432,19.14056 14.960694,20.005448 15.096545,20.022927 C 15.63995,20.092841 16.156848,19.3734 16.276701,18.441848 C 16.396554,17.510296 16.074614,16.714438 15.531209,16.644524 C 15.440641,16.632871 13.02434,15.880885 13.014492,15.879618 z "
       style="opacity:0.6;fill:url(#radialGradient3462);fill-opacity:1;fill-rule:nonzero;stroke:none;stroke-width:1;stroke-linecap:round;stroke-linejoin:miter;stroke-miterlimit:4;stroke-dasharray:none;stroke-opacity:1" />
    <path
       transform="matrix(0.9918247,0.1276077,-0.1276077,0.9918247,2.2625448,-1.44656)"
       d="M 14.675474 17.703205 A 1.0634402 1.0988882 0 1 1  12.548594,17.703205 A 1.0634402 1.0988882 0 1 1  14.675474 17.703205 z"
       sodipodi:ry="1.0988882"
       sodipodi:rx="1.0634402"
       sodipodi:cy="17.703205"
       sodipodi:cx="13.612034"
       id="path2692"
       style="opacity:0.6;fill:url(#radialGradient3480);fill-opacity:1;fill-rule:nonzero;stroke:none;stroke-width:0.2;stroke-linecap:round;stroke-linejoin:miter;stroke-miterlimit:4;stroke-dasharray:none;stroke-opacity:1"
       sodipodi:type="arc" />
    <path
       style="color:#000000;fill:url(#linearGradient3442);fill-opacity:1;fill-rule:evenodd;stroke:none;stroke-width:0.2;stroke-linecap:butt;stroke-linejoin:miter;marker:none;stroke-miterlimit:4;stroke-dasharray:none;stroke-dashoffset:0;stroke-opacity:1;visibility:visible;display:inline;overflow:visible;enable-background:accumulate"
       d="M 18.09375,15.78125 C 17.854269,15.957079 17.63057,16.14511 17.53125,16.34375 C 17.454712,16.496825 17.29631,16.757898 17.125,17 C 16.95369,17.242102 16.752607,17.460286 16.59375,17.5 C 16.31374,17.570002 15.789676,17.634918 15.5,17.5625 C 15.34918,17.524795 15.134813,17.51227 14.9375,17.5 C 14.740187,17.48773 14.570312,17.484884 14.46875,17.5 L 14.5,17.6875 C 14.557693,17.678913 14.747508,17.675685 14.9375,17.6875 C 15.127492,17.699315 15.342956,17.718551 15.46875,17.75 C 15.836033,17.84182 16.355914,17.762584 16.65625,17.6875 C 16.915071,17.622794 17.099447,17.381931 17.28125,17.125 C 17.463053,16.868069 17.60908,16.59434 17.6875,16.4375 C 17.74007,16.332359 17.92475,16.180774 18.125,16.03125 C 18.116245,15.948701 18.10567,15.863068 18.09375,15.78125 z M 14.375,18.5625 C 14.374798,18.562608 14.343867,18.593593 14.34375,18.59375 L 14.5,18.71875 C 14.500117,18.718593 14.468548,18.750108 14.46875,18.75 C 14.482535,18.765644 14.480134,18.80293 14.5,18.8125 C 14.56887,18.845675 14.652828,18.887197 14.75,18.9375 C 14.944344,19.038105 15.150723,19.153487 15.21875,19.1875 C 15.512359,19.334305 15.953239,19.417997 16.15625,19.46875 C 16.166691,19.47136 16.210002,19.480473 16.25,19.53125 C 16.289998,19.582027 16.337822,19.675929 16.375,19.75 C 16.449355,19.898143 16.519982,20.048679 16.53125,20.09375 C 16.618294,20.441926 16.759315,20.634315 16.96875,20.84375 C 17.190948,21.065947 17.258291,21.289542 17.46875,21.5 C 17.625044,21.656294 17.731421,21.933561 17.96875,22.25 C 18.029623,22.331164 18.091494,22.398209 18.15625,22.46875 C 18.15625,22.381705 18.15625,22.276058 18.15625,22.1875 C 18.146799,22.175559 18.134144,22.168442 18.125,22.15625 C 17.910515,21.870271 17.834916,21.553666 17.625,21.34375 C 17.449147,21.167898 17.37548,20.969229 17.125,20.71875 C 16.923699,20.517449 16.797137,20.376047 16.71875,20.0625 C 16.699318,19.984774 16.644557,19.819738 16.5625,19.65625 C 16.521472,19.574506 16.459439,19.473772 16.40625,19.40625 C 16.353061,19.338728 16.305512,19.30294 16.21875,19.28125 C 16.007093,19.228335 15.562053,19.124777 15.3125,19 C 15.254947,18.971223 15.039627,18.851399 14.84375,18.75 C 14.745812,18.699301 14.666184,18.659892 14.59375,18.625 C 14.557533,18.607554 14.524721,18.572652 14.5,18.5625 C 14.48764,18.557424 14.481824,18.566204 14.46875,18.5625 C 14.462213,18.560648 14.451182,18.563554 14.4375,18.5625 C 14.43408,18.562236 14.406617,18.562488 14.40625,18.5625 C 14.405965,18.56256 14.375202,18.562392 14.375,18.5625 z "
       id="path2698"
       sodipodi:nodetypes="csssssccssssscccccsssssssssssssssssssssssssssc" />
    <path
       transform="matrix(0.9918247,0.1276077,-0.1392084,1.0819906,2.4905315,-3.218575)"
       d="M 16.447874 18.093132 A 0.99254417 1.5597123 0 1 1  14.462786,18.093132 A 0.99254417 1.5597123 0 1 1  16.447874 18.093132 z"
       sodipodi:ry="1.5597123"
       sodipodi:rx="0.99254417"
       sodipodi:cy="18.093132"
       sodipodi:cx="15.45533"
       id="path2694"
       style="opacity:0.6;fill:url(#radialGradient3472);fill-opacity:1;fill-rule:nonzero;stroke:none;stroke-width:1;stroke-linecap:round;stroke-linejoin:miter;stroke-miterlimit:4;stroke-dasharray:none;stroke-opacity:1"
       sodipodi:type="arc" />
    <path
       id="path2696"
       d="M 13.014492,15.879618 C 12.451679,15.807207 11.895181,16.497995 11.780322,17.390732 C 11.665463,18.28347 12.032966,19.061631 12.595779,19.134043 C 12.640934,19.139852 14.329519,19.763378 14.82557,19.925048 C 14.434301,19.67488 14.224168,18.966913 14.324046,18.19062 C 14.443901,17.259068 14.987804,16.574609 15.531209,16.644524 C 15.447186,16.633713 13.505353,16.029151 13.196471,15.934539 C 13.132891,15.904446 13.084843,15.888669 13.014492,15.879618 z M 16.022226,16.991266 C 16.066794,17.058678 16.114563,17.146071 16.149284,17.228166 C 16.112646,17.139158 16.070796,17.062504 16.022226,16.991266 z M 15.842228,19.614744 C 15.787858,19.685377 15.719522,19.757832 15.659342,19.811767 C 15.724616,19.753177 15.783979,19.693707 15.842228,19.614744 z "
       style="opacity:0.6;fill:url(#radialGradient3470);fill-opacity:1;fill-rule:nonzero;stroke:none;stroke-width:1;stroke-linecap:round;stroke-linejoin:miter;stroke-miterlimit:4;stroke-dasharray:none;stroke-opacity:1" />
    <path
       style="opacity:0.15;fill:url(#linearGradient3455);fill-opacity:1;fill-rule:nonzero;stroke:none;stroke-width:0.53149605;stroke-linecap:round;stroke-linejoin:miter;stroke-miterlimit:4;stroke-opacity:1"
       d="M 7.59375,8.15625 C 7.446785,8.160635 7.290393,8.182533 7.15625,8.21875 C 6.9607,8.308507 6.771441,8.369799 6.71875,8.40625 L 6.5625,8.5 L 6.5625,8.53125 C 6.462465,8.619723 6.368297,8.727089 6.28125,8.84375 C 6.268,8.861707 6.26371,8.888363 6.25,8.90625 C 6.22332,8.944317 6.181514,8.959317 6.15625,9 C 6.142635,9.018576 6.138054,9.043125 6.125,9.0625 C 6.103752,9.094124 6.081148,9.121667 6.0625,9.15625 C 5.95854,9.34905 5.885036,9.573749 5.8125,9.8125 C 5.804957,9.835029 5.787876,9.851921 5.78125,9.875 C 5.769827,9.914787 5.760499,9.95908 5.75,10 C 5.734454,10.060894 5.729216,10.126856 5.71875,10.1875 C 5.69057,10.319197 5.674929,10.452048 5.65625,10.59375 C 5.622378,10.850712 5.59375,11.119881 5.59375,11.40625 C 5.59375,11.40625 5.59375,22.8125 5.59375,22.8125 C 5.59375,25.039926 6.673896,27.323089 8.03125,27.96875 C 8.03125,27.96875 16.09375,31.812501 16.09375,31.8125 C 16.544715,32.027013 16.968553,32.033753 17.34375,31.90625 L 17.8125,31.65625 C 18.444769,31.158311 18.875,30.159896 18.875,28.78125 C 18.875,28.78125 18.875001,16.406249 18.875,16.40625 C 18.875,13.988375 17.620453,11.598911 16.09375,11.0625 C 16.09375,11.0625 8.03125,8.21875 8.03125,8.21875 C 7.878252,8.164994 7.740715,8.151865 7.59375,8.15625 z M 7.78125,9.0625 C 7.927223,9.064877 8.094546,9.101631 8.25,9.15625 C 8.25,9.15625 10.092679,9.78932 11.9375,10.4375 C 13.78722,11.087402 15.625,11.75 15.625,11.75 C 16.247255,11.968631 16.809403,12.535577 17.25,13.28125 C 17.423776,13.575351 17.557511,13.907635 17.6875,14.25 C 17.968804,14.990896 18.15625,15.815119 18.15625,16.65625 C 18.15625,16.65625 18.15625,19.034776 18.15625,20.59375 C 18.15625,22.31357 18.15625,23.299108 18.15625,24.9375 C 18.15625,25.88046 18.15625,27.213393 18.15625,27.4375 C 18.15625,27.485123 18.15625,27.96875 18.15625,27.96875 C 18.15625,30.184044 17.023789,31.41537 15.625,30.75 C 15.625,30.749999 8.25,27.25 8.25,27.25 C 7.006372,26.658438 6,24.540802 6,22.5 C 5.999999,22.5 6,12.0625 6,12.0625 C 6,10.276799 6.759439,9.045859 7.78125,9.0625 z "
       id="path2716" />
    <path
       style="opacity:0.5;fill:#ff6308;fill-opacity:1;fill-rule:nonzero;stroke:none;stroke-width:0.53149605;stroke-linecap:round;stroke-linejoin:miter;stroke-miterlimit:4;stroke-opacity:1"
       d="M 7.9375,7.84375 C 7.9375,7.84375 6.867396,8.303417 6.71875,8.40625 L 6.5625,8.5 L 6.5625,8.53125 C 5.97203,9.053475 5.59375,10.085447 5.59375,11.40625 C 5.59375,11.40625 5.59375,22.8125 5.59375,22.8125 C 5.59375,25.039926 6.673896,27.323089 8.03125,27.96875 C 8.03125,27.96875 16.09375,31.812501 16.09375,31.8125 C 16.544715,32.027013 16.968553,32.033753 17.34375,31.90625 L 18.5625,31.28125 L 18.53125,31.25 C 19.173105,30.768102 19.593749,29.760906 19.59375,28.375 C 19.59375,28.375 19.593749,16.0625 19.59375,16.0625 C 19.59375,13.658987 18.361383,11.314475 16.84375,10.78125 C 16.84375,10.78125 8.84375,7.9375 8.84375,7.9375 C 8.675089,7.878241 8.502125,7.846329 8.34375,7.84375 L 7.9375,7.84375 z "
       id="path3554"
       sodipodi:nodetypes="cscccccsccccsccsc" />
    <path
       style="opacity:0.6;fill:url(#linearGradient4375);fill-opacity:1.0;fill-rule:nonzero;stroke:none;stroke-width:0.53149605;stroke-linecap:round;stroke-linejoin:miter;stroke-miterlimit:4;stroke-opacity:1"
       d="M 20.5625,29.6875 C 20.562499,31.360255 20.036591,32.585056 19.21875,33.0625 L 24.90625,31.15625 C 25.814407,30.773858 26.437501,29.550053 26.4375,27.78125 C 26.4375,27.78125 20.5625,29.6875 20.5625,29.6875 z "
       id="path3376"
       sodipodi:nodetypes="ccccc" />
    <path
       style="opacity:0.4;fill:url(#linearGradient4377);fill-opacity:1.0;fill-rule:nonzero;stroke:none;stroke-width:0.53149605;stroke-linecap:round;stroke-linejoin:miter;stroke-miterlimit:4;stroke-opacity:1"
       d="M 20.5625,16 C 20.562499,16 20.5625,29.6875 20.5625,29.6875 L 26.4375,27.78125 C 26.4375,27.78125 26.437501,14.40625 26.4375,14.40625 L 20.5625,16 z "
       id="path3378"
       sodipodi:nodetypes="cccss" />
    <path
       style="opacity:0.2;fill:url(#linearGradient4379);fill-opacity:1.0;fill-rule:nonzero;stroke:none;stroke-width:0.53149605;stroke-linecap:round;stroke-linejoin:miter;stroke-miterlimit:4;stroke-opacity:1"
       d="M 17.5,10.09375 C 19.189947,10.687509 20.5625,13.323609 20.5625,16 C 20.562499,16.000001 26.437501,14.40625 26.4375,14.40625 C 26.4375,11.787307 25.091169,9.2060134 23.4375,8.625 C 23.4375,8.625 17.5,10.09375 17.5,10.09375 z "
       id="path3380"
       sodipodi:nodetypes="csscc" />
    <path
       style="opacity:0.25;color:#000000;fill:url(#linearGradient4397);fill-opacity:1;fill-rule:evenodd;stroke:none;stroke-width:1px;stroke-linecap:butt;stroke-linejoin:miter;marker:none;marker-start:none;marker-mid:none;marker-end:none;stroke-miterlimit:4;stroke-dasharray:none;stroke-dashoffset:0;stroke-opacity:1;visibility:visible;display:inline;overflow:visible;enable-background:accumulate"
       d="M 25.9375,7.09375 C 25.852203,7.107043 25.8125,7.125 25.8125,7.125 L 21.5625,7.96875 C 22.193878,8.1897321 23.4375,8.625 23.4375,8.625 C 24.574397,9.0244467 25.553755,10.378673 26.0625,12.03125 L 28.59375,11.53125 C 28.58972,11.503503 28.598142,11.495653 28.59375,11.46875 C 28.522854,11.034512 28.40625,10.71875 28.40625,10.71875 L 26.625,7.5625 C 26.625,7.5625 26.453825,7.231344 26.25,7.125 C 26.148087,7.071828 26.022797,7.080457 25.9375,7.09375 z "
       id="path4383" />
    <path
       style="opacity:0.52427183;color:#000000;fill:url(#linearGradient4399);fill-opacity:1;fill-rule:evenodd;stroke:none;stroke-width:1px;stroke-linecap:butt;stroke-linejoin:miter;marker:none;marker-start:none;marker-mid:none;marker-end:none;stroke-miterlimit:4;stroke-dasharray:none;stroke-dashoffset:0;stroke-opacity:1;visibility:visible;display:inline;overflow:visible;enable-background:accumulate"
       d="M 23.4375,8.625 C 23.635689,8.6946334 23.812428,8.8137828 24,8.9375 C 23.811871,8.8121305 23.637025,8.6951029 23.4375,8.625 z M 24.625,9.4375 C 24.784262,9.602482 24.950224,9.8004858 25.09375,10 C 24.950357,9.7975092 24.784487,9.6049231 24.625,9.4375 z M 28.59375,11.53125 L 26.0625,12.03125 C 26.293748,12.782422 26.4375,13.58783 26.4375,14.40625 C 26.437501,14.40625 26.4375,22.304792 26.4375,25.46875 L 27.96875,24 C 27.96875,24 28.376398,23.581627 28.5625,23.15625 C 28.748602,22.730873 28.718749,22.3125 28.71875,22.3125 L 28.6875,12.46875 C 28.6875,12.46875 28.654759,11.951361 28.59375,11.53125 z "
       id="path4392" />
    <path
       sodipodi:type="arc"
       style="opacity:0.6;fill:url(#radialGradient3484);fill-opacity:1;fill-rule:nonzero;stroke:none;stroke-width:0.2;stroke-linecap:round;stroke-linejoin:miter;stroke-miterlimit:4;stroke-dasharray:none;stroke-opacity:1"
       id="path3482"
       sodipodi:cx="13.612034"
       sodipodi:cy="17.703205"
       sodipodi:rx="1.0634402"
       sodipodi:ry="1.0988882"
       d="M 14.675474 17.703205 A 1.0634402 1.0988882 0 1 1  12.548594,17.703205 A 1.0634402 1.0988882 0 1 1  14.675474 17.703205 z"
       transform="matrix(0.978136,1.1320002,-0.9911495,0.7819652,18.338949,-11.474094)" />
    <path
       sodipodi:nodetypes="ccsccsc"
       style="opacity:0.75;color:#000000;fill:url(#linearGradient3492);fill-opacity:1;fill-rule:evenodd;stroke:none;stroke-width:1px;stroke-linecap:butt;stroke-linejoin:miter;marker:none;marker-start:none;marker-mid:none;marker-end:none;stroke-miterlimit:4;stroke-dasharray:none;stroke-dashoffset:0;stroke-opacity:1;visibility:visible;display:inline;overflow:visible;enable-background:accumulate"
       d="M 14.565851,19.268777 L 11.67231,20.022208 C 12.012898,20.019269 12.292246,20.385115 12.296165,20.839231 C 12.299102,21.179818 12.149752,21.487457 11.929403,21.614311 L 15.12691,20.663119 C 15.126912,20.663119 15.478024,20.246827 15.236385,19.749705 C 14.978354,19.218852 14.565851,19.268777 14.565851,19.268777 z "
       id="path3490" />
    <path
       style="opacity:0.25;color:#000000;fill:url(#radialGradient3449);fill-opacity:1;fill-rule:evenodd;stroke:none;stroke-width:1px;stroke-linecap:butt;stroke-linejoin:miter;marker:none;marker-start:none;marker-mid:none;marker-end:none;stroke-miterlimit:4;stroke-dasharray:none;stroke-dashoffset:0;stroke-opacity:1;visibility:visible;display:inline;overflow:visible;enable-background:accumulate"
       d="M 11.9375,10.4375 C 11.9375,10.472468 11.9375,12.178785 11.9375,13.375 C 12.283533,13.151344 12.793879,13.023154 13.53125,13.34375 C 13.923915,13.514474 14.166468,13.670982 14.3125,13.78125 C 14.318074,13.785459 14.338463,13.77712 14.34375,13.78125 L 14.6875,13.6875 C 14.6875,13.6875 15.047321,13.65786 15.28125,14.125 C 15.289903,14.098676 15.303891,14.090788 15.3125,14.0625 C 15.541726,13.309329 16.049582,12.783844 16.5625,12.40625 C 16.268337,12.106329 15.965109,11.869498 15.625,11.75 C 15.625,11.75 13.78722,11.087402 11.9375,10.4375 z M 16.25,11.125 C 16.633251,11.292266 17.016057,11.568534 17.34375,11.9375 C 17.606909,11.802165 17.813538,11.697225 17.875,11.65625 C 18.006967,11.568272 17.087633,11.324539 16.25,11.125 z M 11.71875,14.34375 C 11.378491,14.328508 11.082823,14.702571 11.0625,15.15625 C 11.042178,15.609928 11.284741,15.984759 11.625,16 C 11.737653,16.005046 11.84344,15.941388 11.9375,15.875 C 11.977647,15.84597 12.024462,15.828664 12.0625,15.78125 C 12.098757,15.740181 12.127566,15.707069 12.15625,15.65625 C 12.177207,15.617725 12.203321,15.57576 12.21875,15.53125 C 12.221884,15.522721 12.215828,15.508687 12.21875,15.5 C 12.221787,15.491654 12.213926,15.476971 12.21875,15.46875 C 12.221948,15.458304 12.247112,15.44815 12.25,15.4375 C 12.271208,15.359803 12.277439,15.272565 12.28125,15.1875 C 12.286058,15.080168 12.276352,14.968699 12.25,14.875 C 12.236599,14.825142 12.207703,14.794719 12.1875,14.75 C 12.166929,14.707055 12.151285,14.662208 12.125,14.625 C 12.111887,14.60578 12.108223,14.579936 12.09375,14.5625 C 12.05059,14.511469 11.989649,14.472269 11.9375,14.4375 C 11.865626,14.392589 11.803815,14.34756 11.71875,14.34375 z M 11.6875,20.03125 C 11.346913,20.034188 11.058582,20.389634 11.0625,20.84375 C 11.063479,20.957279 11.092831,21.055632 11.125,21.15625 C 11.127606,21.165037 11.122177,21.178863 11.125,21.1875 C 11.191218,21.376106 11.295884,21.542063 11.4375,21.625 C 11.443509,21.628628 11.462642,21.621623 11.46875,21.625 C 11.535708,21.659258 11.61237,21.688148 11.6875,21.6875 C 11.77167,21.686774 11.861441,21.637394 11.9375,21.59375 C 11.944725,21.589591 11.961673,21.598264 11.96875,21.59375 C 12.011489,21.565481 12.057322,21.540709 12.09375,21.5 C 12.108731,21.482666 12.111335,21.456746 12.125,21.4375 C 12.150038,21.403509 12.167199,21.351877 12.1875,21.3125 C 12.210302,21.264664 12.23462,21.209945 12.25,21.15625 C 12.256428,21.135375 12.27611,21.115446 12.28125,21.09375 C 12.287637,21.064231 12.27725,21.030626 12.28125,21 C 12.289012,20.946391 12.31299,20.900515 12.3125,20.84375 C 12.310541,20.616692 12.237963,20.429191 12.125,20.28125 C 12.119726,20.273756 12.130862,20.257132 12.125,20.25 C 12.07389,20.183064 12.003376,20.134016 11.9375,20.09375 C 11.858525,20.046064 11.779659,20.030455 11.6875,20.03125 z M 15.3125,20.21875 C 15.2753,20.479041 15.125001,20.65625 15.125,20.65625 L 14.375,20.875 L 14.3125,23.28125 C 14.24558,23.583033 14.456966,23.951789 14.78125,24.0625 C 14.862323,24.090179 14.921805,24.065638 15,24.0625 C 15.006789,24.062409 15.024522,24.094078 15.03125,24.09375 C 15.179017,24.082641 15.318468,24.010566 15.40625,23.90625 C 15.410048,23.901849 15.402609,23.879555 15.40625,23.875 C 15.444223,23.824438 15.485235,23.785317 15.5,23.71875 C 15.516725,23.643306 15.515995,23.545365 15.5,23.46875 L 15.46875,20.40625 C 15.46875,20.406251 15.400428,20.307228 15.3125,20.21875 z "
       id="path3494" />
    <path
       style="opacity:0.2;fill:url(#radialGradient3460);fill-opacity:1;fill-rule:nonzero;stroke:none;stroke-width:0.53149605;stroke-linecap:round;stroke-linejoin:miter;stroke-miterlimit:4;stroke-opacity:1"
       d="M 7.78125,9.0625 C 6.759439,9.045859 6,10.276799 6,12.0625 C 6,12.0625 6,22.500001 6,22.5 C 6,24.540802 7.00637,26.658438 8.25,27.25 C 8.25,27.25 15.624999,30.749999 15.625,30.75 C 17.023789,31.41537 18.15625,30.184044 18.15625,27.96875 C 18.15625,27.96875 18.15625,16.65625 18.15625,16.65625 C 18.15625,14.440956 17.023788,12.241468 15.625,11.75 C 15.625,11.75 8.249999,9.15625 8.25,9.15625 C 8.094546,9.101631 7.927223,9.064877 7.78125,9.0625 z "
       id="path3448" />
    <rect
       style="opacity:0.61162792;fill:#555753;fill-opacity:1;fill-rule:nonzero;stroke:none;stroke-width:0.69999999;stroke-linecap:round;stroke-linejoin:miter;stroke-miterlimit:4;stroke-dasharray:none;stroke-opacity:1"
       id="rect1951"
       width="40.001965"
       y="30"
       x="-0.0019644466"
       height="10.004759" />
    <text
       xml:space="preserve"
       style="font-size:12px;font-style:normal;font-weight:normal;fill:#eeeeec;fill-opacity:1;stroke:none;stroke-width:1px;stroke-linecap:butt;stroke-linejoin:miter;stroke-opacity:1;font-family:Bitstream Vera Sans"
       id="text2840"
       y="39.168156"
       x="11.595457"><tspan
         sodipodi:role="line"
         id="tspan2842"
         y="39.168156"
         x="11.595457">Ne</tspan></text>
    <path
       style="opacity:0.5;fill:url(#linearGradient2491);fill-opacity:1;fill-rule:nonzero;stroke:none;stroke-width:0.53149605;stroke-linecap:round;stroke-linejoin:miter;stroke-miterlimit:4;stroke-opacity:1"
       d="M 8.34375,6.75 C 8.191148,6.7859616 7.774377,6.8923491 7.71875,6.90625 C 7.985423,6.8554595 8.264439,6.8640261 8.5625,6.96875 C 8.562501,6.9687499 17.5,10.09375 17.5,10.09375 C 19.189947,10.687509 20.5625,13.323609 20.5625,16 C 20.562499,16.000001 20.5625,29.6875 20.5625,29.6875 C 20.562499,31.151161 20.148552,32.266596 19.5,32.84375 C 20.273282,32.335534 20.781252,31.150391 20.78125,29.53125 C 20.78125,29.53125 20.781252,15.843751 20.78125,15.84375 C 20.78125,13.167359 19.4087,10.531259 17.71875,9.9375 C 17.71875,9.9375 8.781254,6.8124997 8.78125,6.8125 C 8.642652,6.7638034 8.506036,6.7608135 8.375,6.75 C 8.367599,6.7517425 8.350963,6.7483003 8.34375,6.75 z "
       id="path3468" />
    <path
       style="opacity:0.5;fill:url(#linearGradient3470);fill-opacity:1;fill-rule:nonzero;stroke:none;stroke-width:0.53149605;stroke-linecap:round;stroke-linejoin:miter;stroke-miterlimit:4;stroke-opacity:1"
       d="M 25.9375,7.09375 C 25.852203,7.107043 25.8125,7.125 25.8125,7.125 L 21.5625,7.96875 C 21.666089,8.0050062 21.746646,8.0175761 21.875,8.0625 L 25.875,7.28125 C 25.875,7.28125 25.914707,7.2632932 26,7.25 C 26.085297,7.236707 26.210591,7.2280782 26.3125,7.28125 C 26.414412,7.334422 26.525479,7.435168 26.59375,7.53125 C 26.565155,7.4783356 26.434226,7.2211186 26.25,7.125 C 26.148087,7.071828 26.022797,7.080457 25.9375,7.09375 z "
       id="path3466" />
    <path
       style="opacity:0.5;fill:url(#linearGradient2491);fill-opacity:1;fill-rule:nonzero;stroke:none;stroke-width:0.53149605;stroke-linecap:round;stroke-linejoin:miter;stroke-miterlimit:4;stroke-opacity:1"
       d="M 26.625,7.5625 C 26.67091,7.6328879 26.687501,7.7187501 26.6875,7.71875 L 26.625,7.5625 z "
       id="path3464" />
    <path
       style="opacity:0.5;fill:url(#linearGradient2491);fill-opacity:1;fill-rule:nonzero;stroke:none;stroke-width:0.53149605;stroke-linecap:round;stroke-linejoin:miter;stroke-miterlimit:4;stroke-opacity:1"
       d="M 25.125,31 L 19.4375,32.90625 C 19.365814,32.964262 19.295816,33.01751 19.21875,33.0625 L 24.90625,31.15625 C 24.98972,31.121104 25.046608,31.049132 25.125,31 z "
       id="path2480" />
  </g>
</svg>
