<?xml version="1.0" encoding="UTF-8" standalone="no"?>
<!-- Created with Inkscape (http://www.inkscape.org/) -->
<svg
   xmlns:dc="http://purl.org/dc/elements/1.1/"
   xmlns:cc="http://web.resource.org/cc/"
   xmlns:rdf="http://www.w3.org/1999/02/22-rdf-syntax-ns#"
   xmlns:svg="http://www.w3.org/2000/svg"
   xmlns="http://www.w3.org/2000/svg"
   xmlns:xlink="http://www.w3.org/1999/xlink"
   xmlns:sodipodi="http://sodipodi.sourceforge.net/DTD/sodipodi-0.dtd"
   xmlns:inkscape="http://www.inkscape.org/namespaces/inkscape"
   width="40"
   height="40"
   id="svg2193"
   sodipodi:version="0.32"
   inkscape:version="0.45.1"
   version="1.0"
   sodipodi:docbase="/home/jra/Desktop/radioactive"
   sodipodi:docname="101.svg"
   inkscape:output_extension="org.inkscape.output.svg.inkscape">
  <defs
     id="defs2195">
    <linearGradient
       id="linearGradient4506">
      <stop
         style="stop-color:#000000;stop-opacity:0;"
         offset="0"
         id="stop4508" />
      <stop
         style="stop-color:#000000;stop-opacity:0.78750002;"
         offset="1"
         id="stop4510" />
    </linearGradient>
    <linearGradient
       id="linearGradient4444">
      <stop
         id="stop4446"
         offset="0"
         style="stop-color:#000000;stop-opacity:1;" />
      <stop
         style="stop-color:#ffffff;stop-opacity:1;"
         offset="0.5"
         id="stop4450" />
      <stop
         id="stop4448"
         offset="1"
         style="stop-color:#000000;stop-opacity:1;" />
    </linearGradient>
    <linearGradient
       id="linearGradient4387">
      <stop
         style="stop-color:#000000;stop-opacity:1;"
         offset="0"
         id="stop4389" />
      <stop
         id="stop4421"
         offset="0.94"
         style="stop-color:#000000;stop-opacity:0.49803922;" />
      <stop
         style="stop-color:#000000;stop-opacity:0;"
         offset="1"
         id="stop4391" />
    </linearGradient>
    <linearGradient
       id="linearGradient3325">
      <stop
         style="stop-color:#ffffff;stop-opacity:1;"
         offset="0"
         id="stop3327" />
      <stop
         style="stop-color:#d3d7cf;stop-opacity:0;"
         offset="1"
         id="stop3329" />
    </linearGradient>
    <linearGradient
       id="linearGradient3291">
      <stop
         id="stop3293"
         offset="0"
         style="stop-color:#000000;stop-opacity:1;" />
      <stop
         id="stop3295"
         offset="1"
         style="stop-color:#000000;stop-opacity:0;" />
    </linearGradient>
    <radialGradient
       inkscape:collect="always"
       xlink:href="#linearGradient3291"
       id="radialGradient2595"
       gradientUnits="userSpaceOnUse"
       gradientTransform="matrix(1,0,0,0.197802,0,92.82166)"
       cx="63.912209"
       cy="115.70919"
       fx="75.857941"
       fy="115.70919"
       r="63.912209" />
    <linearGradient
       inkscape:collect="always"
       xlink:href="#linearGradient3325"
       id="linearGradient4613"
       x1="76.047768"
       y1="-15.629025"
       x2="47.75"
       y2="-31.224443"
       gradientUnits="userSpaceOnUse"
       gradientTransform="translate(-40.939396,40)" />
    <radialGradient
       inkscape:collect="always"
       xlink:href="#linearGradient4387"
       id="radialGradient2295"
       gradientUnits="userSpaceOnUse"
       gradientTransform="matrix(1.07679,0,0,1.0992262,-45.592397,31.215531)"
       cx="60.59375"
       cy="-13.902055"
       fx="60.59375"
       fy="-13.902055"
       r="12.5625" />
    <linearGradient
       inkscape:collect="always"
       xlink:href="#linearGradient4444"
       id="linearGradient2299"
       gradientUnits="userSpaceOnUse"
       gradientTransform="translate(-40.939396,40)"
       x1="44.494144"
       y1="-28.567741"
       x2="75.567909"
       y2="-32.265625" />
    <linearGradient
       inkscape:collect="always"
       xlink:href="#linearGradient4506"
       id="linearGradient2311"
       gradientUnits="userSpaceOnUse"
       gradientTransform="translate(-40.939396,40)"
       x1="53.305214"
       y1="-33.06604"
       x2="85.08548"
       y2="-18.91762" />
  </defs>
  <sodipodi:namedview
     id="base"
     pagecolor="#ffffff"
     bordercolor="#666666"
     borderopacity="1.0"
     inkscape:pageopacity="0.0"
     inkscape:pageshadow="2"
     inkscape:zoom="18.268332"
     inkscape:cx="19.999018"
     inkscape:cy="18.935121"
     inkscape:current-layer="layer1"
     showgrid="true"
     inkscape:grid-bbox="false"
     inkscape:document-units="px"
     width="40px"
     height="40px"
     gridempspacing="2"
     inkscape:window-width="1167"
     inkscape:window-height="914"
     inkscape:window-x="43"
     inkscape:window-y="53" />
  <metadata
     id="metadata2198">
    <rdf:RDF>
      <cc:Work
         rdf:about="">
        <dc:format>image/svg+xml</dc:format>
        <dc:type
           rdf:resource="http://purl.org/dc/dcmitype/StillImage" />
        <dc:creator>
          <cc:Agent>
            <dc:title>Jarle Akselsen</dc:title>
          </cc:Agent>
        </dc:creator>
        <cc:license
           rdf:resource="http://creativecommons.org/licenses/GPL/2.0/" />
      </cc:Work>
      <cc:License
         rdf:about="http://creativecommons.org/licenses/GPL/2.0/">
        <cc:permits
           rdf:resource="http://web.resource.org/cc/Reproduction" />
        <cc:permits
           rdf:resource="http://web.resource.org/cc/Distribution" />
        <cc:requires
           rdf:resource="http://web.resource.org/cc/Notice" />
        <cc:permits
           rdf:resource="http://web.resource.org/cc/DerivativeWorks" />
        <cc:requires
           rdf:resource="http://web.resource.org/cc/ShareAlike" />
        <cc:requires
           rdf:resource="http://web.resource.org/cc/SourceCode" />
      </cc:License>
    </rdf:RDF>
  </metadata>
  <g
     id="layer1"
     inkscape:label="Layer 1"
     inkscape:groupmode="layer">
    <path
       transform="matrix(0.2772262,0,0,0.5613587,4.3497065,-37.15889)"
       d="M 127.82442 115.70919 A 63.912209 12.641975 0 1 1  0,115.70919 A 63.912209 12.641975 0 1 1  127.82442 115.70919 z"
       sodipodi:ry="12.641975"
       sodipodi:rx="63.912209"
       sodipodi:cy="115.70919"
       sodipodi:cx="63.912209"
       id="path2593"
       style="opacity:0.38139535;fill:url(#radialGradient2595);fill-opacity:1;fill-rule:nonzero;stroke:none;stroke-width:0;stroke-linecap:round;stroke-linejoin:round;stroke-miterlimit:4;stroke-dasharray:none;stroke-dashoffset:4;stroke-opacity:1"
       sodipodi:type="arc" />
    <path
       sodipodi:nodetypes="ccc"
       id="path2276"
       d="M 10.956528,1.0198748 L 10.956528,-1.7748336 L 10.956528,1.0198748 z "
       style="fill:#ffffff;fill-opacity:0.75688076;fill-rule:nonzero;stroke:none;stroke-width:0.5;stroke-linecap:round;stroke-linejoin:round;stroke-miterlimit:4;stroke-dasharray:none;stroke-dashoffset:4;stroke-opacity:1" />
    <path
       sodipodi:nodetypes="ccssscc"
       id="path2277"
       d="M 19.654354,2.125 C 13.238571,2.124997 7.957824,6.905688 7.123102,13.09375 C 6.916225,14.007509 6.810602,14.961917 6.810602,15.9375 C 6.810603,23.021664 12.57019,28.75 19.654354,28.75 C 26.73851,28.75 32.4981,23.021664 32.4981,15.9375 C 32.4981,14.961917 32.39248,14.007509 32.1856,13.09375 C 31.35088,6.905687 26.07014,2.125 19.654354,2.125 z "
       style="opacity:1;fill:#000000;fill-opacity:1;fill-rule:nonzero;stroke:none;stroke-width:0.2;stroke-linecap:round;stroke-linejoin:round;stroke-miterlimit:4;stroke-dasharray:none;stroke-opacity:1" />
    <path
       id="path2281"
       d="M 19.654354,4.46875 C 13.319191,4.46875 8.185601,9.602338 8.185602,15.9375 C 8.185602,22.272663 13.319193,27.406249 19.654354,27.40625 C 25.989517,27.40625 31.1231,22.272664 31.123104,15.9375 C 31.123104,9.602337 25.989518,4.468752 19.654354,4.46875 z "
       style="opacity:1;fill:#ffaa00;fill-opacity:1;fill-rule:nonzero;stroke:none;stroke-width:0.2;stroke-linecap:round;stroke-linejoin:round;stroke-miterlimit:4;stroke-dasharray:none;stroke-opacity:1"
       sodipodi:nodetypes="csssc" />
    <path
       id="path2283"
       d="M 19.654354,2.125 C 13.151207,2.124997 7.814596,7.033108 7.091852,13.34375 C 8.289189,7.497429 13.455709,3.09375 19.654354,3.09375 C 25.852998,3.09375 31.019514,7.497428 32.216854,13.34375 C 31.49411,7.033107 26.157503,2.125 19.654354,2.125 z "
       style="opacity:0.60700001;fill:url(#radialGradient2295);fill-opacity:1;fill-rule:nonzero;stroke:none;stroke-width:0.2;stroke-linecap:round;stroke-linejoin:round;stroke-miterlimit:4;stroke-dasharray:none;stroke-opacity:1" />
    <path
       style="opacity:0.5;fill:url(#linearGradient2299);fill-opacity:1;fill-rule:nonzero;stroke:none;stroke-width:0.2;stroke-linecap:round;stroke-linejoin:round;stroke-miterlimit:4;stroke-dasharray:none;stroke-opacity:1"
       d="M 19.654354,2.125 C 13.151207,2.124997 7.814596,7.033108 7.091852,13.34375 C 8.289189,7.497429 13.455709,3.09375 19.654354,3.09375 C 25.852998,3.09375 31.019514,7.497428 32.216854,13.34375 C 31.49411,7.033107 26.157503,2.125 19.654354,2.125 z "
       id="path2287" />
    <path
       id="path2289"
       d="M 19.654354,4.46875 C 13.319194,4.46875 8.185602,9.602338 8.185602,15.9375 C 8.185602,22.272663 13.319194,27.406249 19.654354,27.40625 C 25.989514,27.40625 31.123104,22.272664 31.123104,15.9375 C 31.123104,9.602337 25.989514,4.468752 19.654354,4.46875 z M 24.248104,6.9375 C 26.906404,8.30202 28.907794,10.786447 29.560604,13.78125 C 29.562724,13.790972 29.558514,13.802767 29.560604,13.8125 C 29.707154,14.494623 29.779354,15.211311 29.779354,15.9375 C 29.779354,16.085828 29.754424,16.22822 29.748104,16.375 L 22.685604,16.40625 C 22.708754,16.25437 22.716854,16.095816 22.716854,15.9375 C 22.716854,15.705853 22.671924,15.498167 22.623104,15.28125 C 22.620944,15.271652 22.625354,15.259564 22.623104,15.25 C 22.386984,14.246441 21.669104,13.417649 20.716854,13.0625 L 21.185604,12.25 L 24.248104,6.9375 z M 14.873104,7 L 18.029354,12.28125 L 18.498104,13.09375 C 17.621114,13.454472 16.966314,14.226775 16.716854,15.15625 C 16.718834,15.166203 16.715094,15.17761 16.716854,15.1875 C 16.708554,15.219723 16.692874,15.248632 16.685604,15.28125 C 16.637534,15.496811 16.591854,15.707771 16.591854,15.9375 C 16.591854,16.096865 16.630904,16.253412 16.654354,16.40625 L 9.560603,16.4375 C 9.552363,16.270106 9.529353,16.106926 9.529353,15.9375 C 9.529353,15.246692 9.615833,14.590246 9.748103,13.9375 C 10.210774,11.654227 11.443154,9.640308 13.154354,8.1875 C 13.406114,7.975554 13.663934,7.780633 13.935604,7.59375 C 14.238644,7.384107 14.547064,7.175436 14.873104,7 z M 19.654354,14.1875 C 20.329254,14.187499 20.900194,14.59229 21.185604,15.15625 C 21.304244,15.390684 21.373104,15.65695 21.373104,15.9375 C 21.373104,16.892945 20.609804,17.65625 19.654354,17.65625 C 18.698914,17.656251 17.935604,16.892946 17.935604,15.9375 C 17.935604,15.65695 18.004464,15.390684 18.123104,15.15625 C 18.408514,14.59229 18.979454,14.1875 19.654354,14.1875 z M 17.716854,18.28125 C 18.247494,18.71923 18.913094,19 19.654354,19 C 20.395604,19 21.061214,18.71923 21.591854,18.28125 L 24.623104,23.40625 L 25.216854,24.375 C 23.618634,25.429938 21.711294,26.0625 19.654354,26.0625 C 17.621784,26.0625 15.741014,25.438347 14.154354,24.40625 L 14.716854,23.4375 L 17.716854,18.28125 z "
       style="opacity:0.75242716;fill:url(#linearGradient2311);fill-opacity:1;fill-rule:nonzero;stroke:none;stroke-width:0.2;stroke-linecap:round;stroke-linejoin:round;stroke-miterlimit:4;stroke-dasharray:none;stroke-opacity:1" />
    <path
       style="opacity:1;fill:#000000;fill-opacity:1;fill-rule:nonzero;stroke:none;stroke-width:0.2;stroke-linecap:round;stroke-linejoin:round;stroke-miterlimit:4;stroke-dasharray:none;stroke-opacity:1"
       d="M 19.65625,3.09375 C 12.572085,3.093749 6.8125,8.853336 6.8125,15.9375 C 6.812503,23.021662 12.572086,28.75 19.65625,28.75 C 26.740413,28.749999 32.5,23.021664 32.5,15.9375 C 32.500001,8.853333 26.740414,3.09375 19.65625,3.09375 z M 19.65625,4.46875 C 25.991414,4.468752 31.125,9.602337 31.125,15.9375 C 31.125,22.272664 25.991413,27.40625 19.65625,27.40625 C 13.321089,27.406249 8.1875,22.272663 8.1875,15.9375 C 8.187501,9.602338 13.321087,4.46875 19.65625,4.46875 z M 24.25,6.9375 L 20.71875,13.0625 C 21.885166,13.497524 22.71875,14.620051 22.71875,15.9375 C 22.71875,16.095816 22.710651,16.25437 22.6875,16.40625 L 29.75,16.375 C 29.756327,16.22822 29.78125,16.085828 29.78125,15.9375 C 29.781254,12.009232 27.52176,8.616909 24.25,6.9375 z M 14.875,7 C 11.697864,8.709571 9.53125,12.079112 9.53125,15.9375 C 9.531249,16.106926 9.554262,16.270106 9.5625,16.4375 L 16.65625,16.40625 C 16.632797,16.253412 16.59375,16.096865 16.59375,15.9375 C 16.59375,14.655854 17.383353,13.553048 18.5,13.09375 L 14.875,7 z M 19.65625,14.1875 C 18.98135,14.1875 18.41041,14.59229 18.125,15.15625 C 18.006364,15.390684 17.9375,15.65695 17.9375,15.9375 C 17.937504,16.892946 18.70081,17.656251 19.65625,17.65625 C 20.6117,17.65625 21.375,16.892945 21.375,15.9375 C 21.375,15.65695 21.30614,15.390684 21.1875,15.15625 C 20.90209,14.59229 20.33115,14.187499 19.65625,14.1875 z M 17.71875,18.28125 L 14.15625,24.40625 C 15.742911,25.438347 17.623682,26.0625 19.65625,26.0625 C 21.713187,26.0625 23.620533,25.429938 25.21875,24.375 L 21.59375,18.28125 C 21.063113,18.71923 20.397505,19 19.65625,19 C 18.914995,19 18.249387,18.71923 17.71875,18.28125 z "
       id="path2291" />
    <path
       style="opacity:0.25;fill:url(#linearGradient4613);fill-opacity:1;fill-rule:nonzero;stroke:none;stroke-width:0.2;stroke-linecap:round;stroke-linejoin:round;stroke-miterlimit:4;stroke-dasharray:none;stroke-opacity:1"
       d="M 19.654354,3.09375 C 12.570189,3.093749 6.810602,8.853336 6.810602,15.9375 C 6.810603,23.021664 12.57019,28.75 19.654354,28.75 C 26.738514,28.75 32.498104,23.021664 32.498104,15.9375 C 32.498104,8.853335 26.738514,3.09375 19.654354,3.09375 z M 19.654354,4.46875 C 25.989514,4.468752 31.123104,9.602337 31.123104,15.9375 C 31.123104,22.272664 25.989514,27.40625 19.654354,27.40625 C 13.319193,27.406249 8.185602,22.272663 8.185602,15.9375 C 8.185601,9.602338 13.319191,4.46875 19.654354,4.46875 z "
       id="path2354"
       sodipodi:nodetypes="csssccsssc" />
    <rect
       y="30"
       x="-0.0019645691"
       height="10.004759"
       width="40.001965"
       id="rect2377"
       style="opacity:0.61162792;fill:#555753;fill-opacity:1;fill-rule:nonzero;stroke:none;stroke-width:0.69999999;stroke-linecap:round;stroke-linejoin:miter;stroke-miterlimit:4;stroke-dasharray:none;stroke-opacity:1" />
    <text
       id="text2379"
       y="39.168152"
       x="11.045553"
       style="font-size:12px;font-style:normal;font-weight:normal;fill:#eeeeec;fill-opacity:1;stroke:none;stroke-width:1px;stroke-linecap:butt;stroke-linejoin:miter;stroke-opacity:1;font-family:Bitstream Vera Sans"
       xml:space="preserve"><tspan
         y="39.168152"
         x="11.045553"
         id="tspan2381"
         sodipodi:role="line">Md</tspan></text>
  </g>
</svg>
