<?xml version="1.0" encoding="UTF-8" standalone="no"?>
<!-- Created with Inkscape (http://www.inkscape.org/) -->
<svg
   xmlns:dc="http://purl.org/dc/elements/1.1/"
   xmlns:cc="http://web.resource.org/cc/"
   xmlns:rdf="http://www.w3.org/1999/02/22-rdf-syntax-ns#"
   xmlns:svg="http://www.w3.org/2000/svg"
   xmlns="http://www.w3.org/2000/svg"
   xmlns:xlink="http://www.w3.org/1999/xlink"
   xmlns:sodipodi="http://sodipodi.sourceforge.net/DTD/sodipodi-0.dtd"
   xmlns:inkscape="http://www.inkscape.org/namespaces/inkscape"
   width="40"
   height="40"
   id="svg2193"
   sodipodi:version="0.32"
   inkscape:version="0.45.1"
   version="1.0"
   sodipodi:docbase="/home/jra/Desktop/send-now"
   sodipodi:docname="11.svg"
   inkscape:output_extension="org.inkscape.output.svg.inkscape">
  <defs
     id="defs2195">
    <linearGradient
       id="linearGradient3633">
      <stop
         style="stop-color:#00583f;stop-opacity:0;"
         offset="0"
         id="stop3635" />
      <stop
         id="stop3641"
         offset="0.5"
         style="stop-color:#00583f;stop-opacity:0;" />
      <stop
         style="stop-color:#00583f;stop-opacity:1;"
         offset="1"
         id="stop3637" />
    </linearGradient>
    <linearGradient
       id="linearGradient3623">
      <stop
         style="stop-color:#ffffff;stop-opacity:0;"
         offset="0"
         id="stop3625" />
      <stop
         id="stop3631"
         offset="0.5"
         style="stop-color:#ffffff;stop-opacity:1;" />
      <stop
         style="stop-color:#ffffff;stop-opacity:0;"
         offset="1"
         id="stop3627" />
    </linearGradient>
    <linearGradient
       id="linearGradient3291">
      <stop
         id="stop3293"
         offset="0"
         style="stop-color:#000000;stop-opacity:1;" />
      <stop
         id="stop3295"
         offset="1"
         style="stop-color:#000000;stop-opacity:0;" />
    </linearGradient>
    <radialGradient
       inkscape:collect="always"
       xlink:href="#linearGradient3291"
       id="radialGradient2595"
       gradientUnits="userSpaceOnUse"
       gradientTransform="matrix(1,0,0,0.197802,0,92.82166)"
       cx="63.912209"
       cy="115.70919"
       fx="75.857941"
       fy="115.70919"
       r="63.912209" />
    <linearGradient
       id="linearGradient3342">
      <stop
         id="stop3344"
         offset="0"
         style="stop-color:#ffffff;stop-opacity:1;" />
      <stop
         id="stop3346"
         offset="1"
         style="stop-color:#ffffff;stop-opacity:0;" />
    </linearGradient>
    <linearGradient
       id="linearGradient3350">
      <stop
         id="stop3352"
         offset="0"
         style="stop-color:#babdb6;stop-opacity:1;" />
      <stop
         id="stop3354"
         offset="1"
         style="stop-color:#babdb6;stop-opacity:0;" />
    </linearGradient>
    <linearGradient
       id="linearGradient3386">
      <stop
         id="stop3388"
         offset="0"
         style="stop-color:#ffffff;stop-opacity:1;" />
      <stop
         id="stop3390"
         offset="1"
         style="stop-color:#555753;stop-opacity:1;" />
    </linearGradient>
    <linearGradient
       id="linearGradient3415">
      <stop
         id="stop3417"
         offset="0"
         style="stop-color:#555753;stop-opacity:1;" />
      <stop
         id="stop3419"
         offset="1"
         style="stop-color:#b5b5b5;stop-opacity:1;" />
    </linearGradient>
    <linearGradient
       id="linearGradient2400">
      <stop
         id="stop2402"
         offset="0"
         style="stop-color:#000000;stop-opacity:1;" />
      <stop
         style="stop-color:#dddddd;stop-opacity:1;"
         offset="0.5"
         id="stop2406" />
      <stop
         id="stop3408"
         offset="0.625"
         style="stop-color:#b1b1b1;stop-opacity:1;" />
      <stop
         id="stop2408"
         offset="0.75"
         style="stop-color:#fefefe;stop-opacity:1;" />
      <stop
         id="stop2404"
         offset="1"
         style="stop-color:#010101;stop-opacity:1;" />
    </linearGradient>
    <radialGradient
       inkscape:collect="always"
       xlink:href="#linearGradient3386"
       id="radialGradient3719"
       gradientUnits="userSpaceOnUse"
       gradientTransform="matrix(1.736424,-4.6311527e-2,2.9972229e-2,1.1237915,-14.470428,3.033369)"
       cx="18.584425"
       cy="4.6153393"
       fx="18.584425"
       fy="4.6153393"
       r="5.4691105" />
    <linearGradient
       inkscape:collect="always"
       xlink:href="#linearGradient2400"
       id="linearGradient3721"
       gradientUnits="userSpaceOnUse"
       gradientTransform="matrix(0.4706618,0,0,0.9694995,10.20401,12.462947)"
       x1="35.916622"
       y1="-1.8605834"
       x2="1.717591"
       y2="-1.9451227" />
    <linearGradient
       inkscape:collect="always"
       xlink:href="#linearGradient3291"
       id="linearGradient3723"
       gradientUnits="userSpaceOnUse"
       gradientTransform="translate(-100,40)"
       x1="126.57536"
       y1="-27.119764"
       x2="113.29772"
       y2="-26.955843" />
    <linearGradient
       inkscape:collect="always"
       xlink:href="#linearGradient3415"
       id="linearGradient3725"
       gradientUnits="userSpaceOnUse"
       gradientTransform="matrix(0.9694995,0,0,0.9694995,-10.771675,3.542563)"
       x1="30.718488"
       y1="3.3746071"
       x2="32.281519"
       y2="3.3746071" />
    <linearGradient
       inkscape:collect="always"
       xlink:href="#linearGradient3415"
       id="linearGradient3727"
       gradientUnits="userSpaceOnUse"
       gradientTransform="matrix(0.9694995,0,0,0.9694995,-13.065242,3.542563)"
       x1="30.718488"
       y1="3.3746071"
       x2="32.281519"
       y2="3.3746071" />
    <linearGradient
       inkscape:collect="always"
       xlink:href="#linearGradient3415"
       id="linearGradient3729"
       gradientUnits="userSpaceOnUse"
       gradientTransform="matrix(0.9694995,0,0,0.9694995,-10.771675,2.3127)"
       x1="30.718488"
       y1="3.3746071"
       x2="32.281519"
       y2="3.3746071" />
    <linearGradient
       inkscape:collect="always"
       xlink:href="#linearGradient3415"
       id="linearGradient3731"
       gradientUnits="userSpaceOnUse"
       gradientTransform="matrix(0.9694995,0,0,0.9694995,-10.771675,4.772425)"
       x1="30.718488"
       y1="3.3746071"
       x2="32.281519"
       y2="3.3746071" />
    <linearGradient
       inkscape:collect="always"
       xlink:href="#linearGradient3415"
       id="linearGradient3733"
       gradientUnits="userSpaceOnUse"
       gradientTransform="matrix(0.9694995,0,0,0.9694995,-8.478108,3.542562)"
       x1="30.718488"
       y1="3.3746071"
       x2="32.281519"
       y2="3.3746071" />
    <linearGradient
       inkscape:collect="always"
       xlink:href="#linearGradient2400"
       id="linearGradient3735"
       gradientUnits="userSpaceOnUse"
       x1="88.920525"
       y1="-27.703901"
       x2="71.586143"
       y2="-28.195665"
       gradientTransform="translate(-60,40)" />
    <linearGradient
       inkscape:collect="always"
       xlink:href="#linearGradient3350"
       id="linearGradient3739"
       gradientUnits="userSpaceOnUse"
       gradientTransform="matrix(0.9694995,0,0,0.9694995,19.649543,3.542563)"
       x1="-7.683004"
       y1="17.235836"
       x2="-1.7281928"
       y2="18.345324" />
    <linearGradient
       inkscape:collect="always"
       xlink:href="#linearGradient3350"
       id="linearGradient3741"
       gradientUnits="userSpaceOnUse"
       gradientTransform="matrix(0.9694995,0,0,0.9694995,19.649543,3.542563)"
       x1="-3"
       y1="19.133996"
       x2="4.7396588"
       y2="19.133995" />
    <linearGradient
       inkscape:collect="always"
       xlink:href="#linearGradient3342"
       id="linearGradient3743"
       gradientUnits="userSpaceOnUse"
       gradientTransform="matrix(0.9694995,0,0,0.9694995,19.649543,-35.237415)"
       x1="-9.46875"
       y1="19.734375"
       x2="9.8125"
       y2="19.734375" />
    <radialGradient
       inkscape:collect="always"
       xlink:href="#linearGradient3633"
       id="radialGradient2253"
       gradientUnits="userSpaceOnUse"
       gradientTransform="matrix(1.2032394,2.9034197e-2,-1.3352876e-2,0.5533718,-100.55167,33.048314)"
       cx="99.828125"
       cy="-19.670994"
       fx="99.828125"
       fy="-19.670994"
       r="7.984375" />
    <linearGradient
       inkscape:collect="always"
       xlink:href="#linearGradient3623"
       id="linearGradient2267"
       gradientUnits="userSpaceOnUse"
       gradientTransform="translate(-100,40)"
       x1="110.8125"
       y1="-12.703125"
       x2="119.07608"
       y2="-12.703125" />
    <radialGradient
       inkscape:collect="always"
       xlink:href="#linearGradient2400"
       id="radialGradient3260"
       cx="20.369068"
       cy="17.237885"
       fx="20.369068"
       fy="17.237885"
       r="6.6378803"
       gradientTransform="matrix(1.5060375,0,0,0.8479271,-10.157026,2.6214151)"
       gradientUnits="userSpaceOnUse" />
    <linearGradient
       inkscape:collect="always"
       xlink:href="#linearGradient3623"
       id="linearGradient3289"
       x1="10.868423"
       y1="20.328125"
       x2="23.391468"
       y2="21.196543"
       gradientUnits="userSpaceOnUse" />
  </defs>
  <sodipodi:namedview
     id="base"
     pagecolor="#ffffff"
     bordercolor="#666666"
     borderopacity="1.0"
     inkscape:pageopacity="0.0"
     inkscape:pageshadow="2"
     inkscape:zoom="17.3"
     inkscape:cx="20"
     inkscape:cy="20"
     inkscape:current-layer="layer1"
     showgrid="false"
     inkscape:grid-bbox="true"
     inkscape:document-units="px"
     width="40px"
     height="40px"
     gridempspacing="2"
     inkscape:window-width="1167"
     inkscape:window-height="914"
     inkscape:window-x="69"
     inkscape:window-y="59" />
  <metadata
     id="metadata2198">
    <rdf:RDF>
      <cc:Work
         rdf:about="">
        <dc:format>image/svg+xml</dc:format>
        <dc:type
           rdf:resource="http://purl.org/dc/dcmitype/StillImage" />
        <dc:creator>
          <cc:Agent>
            <dc:title>Jarle Akselsen</dc:title>
          </cc:Agent>
        </dc:creator>
        <cc:license
           rdf:resource="http://creativecommons.org/licenses/GPL/2.0/" />
      </cc:Work>
      <cc:License
         rdf:about="http://creativecommons.org/licenses/GPL/2.0/">
        <cc:permits
           rdf:resource="http://web.resource.org/cc/Reproduction" />
        <cc:permits
           rdf:resource="http://web.resource.org/cc/Distribution" />
        <cc:requires
           rdf:resource="http://web.resource.org/cc/Notice" />
        <cc:permits
           rdf:resource="http://web.resource.org/cc/DerivativeWorks" />
        <cc:requires
           rdf:resource="http://web.resource.org/cc/ShareAlike" />
        <cc:requires
           rdf:resource="http://web.resource.org/cc/SourceCode" />
      </cc:License>
    </rdf:RDF>
  </metadata>
  <g
     id="layer1"
     inkscape:label="Layer 1"
     inkscape:groupmode="layer">
    <path
       style="opacity:0.2;fill:#2e3436;fill-opacity:1;fill-rule:evenodd;stroke:none;stroke-width:1px;stroke-linecap:butt;stroke-linejoin:miter;stroke-opacity:1"
       d="M 25.4375,12.53125 C 25.391937,12.823454 25.264931,13.103195 25.09375,13.375 C 25.069461,13.585823 25.03125,13.9375 25.03125,13.9375 L 25.5625,15.28125 L 28.15625,22.40625 C 28.236098,22.565907 28.312119,22.712503 28.375,22.875 C 28.37501,24.37759 28.375019,24.781256 28.375,26.21875 C 27.325674,28.890397 23.890022,30.874999 19.8125,30.875 C 15.743284,30.875 12.303843,28.884351 11.25,26.21875 L 11.25,22.625 L 14.375,14.21875 L 14.46875,13.9375 L 14.5,13.59375 C 14.496025,13.586821 14.503894,13.569447 14.5,13.5625 C 14.395088,13.375349 14.324376,13.166251 14.28125,12.96875 L 14.1875,13.78125 L 14.09375,14.0625 L 10.8125,22.90625 L 10.8125,26.6875 C 11.92032,29.489629 15.53486,31.5625 19.8125,31.5625 C 24.09887,31.5625 27.70943,29.495988 28.8125,26.6875 C 28.81252,25.176375 28.81251,24.735804 28.8125,23.15625 C 28.7464,22.985433 28.67769,22.824083 28.59375,22.65625 L 25.84375,15.1875 L 25.3125,13.78125 C 25.3125,13.781249 25.40662,13.099594 25.4375,12.53125 z M 23.65625,14.6875 C 22.67883,15.253875 21.379116,15.641163 19.9375,15.71875 C 18.578961,15.791865 17.32857,15.548274 16.34375,15.09375 C 17.304441,15.578357 18.563711,15.855185 19.9375,15.78125 C 21.410288,15.701985 22.707814,15.292929 23.65625,14.6875 z "
       id="path2612" />
    <path
       transform="matrix(0.2425201,0,0,0.6885476,5,-48.966683)"
       d="M 127.82442 115.70919 A 63.912209 12.641975 0 1 1  0,115.70919 A 63.912209 12.641975 0 1 1  127.82442 115.70919 z"
       sodipodi:ry="12.641975"
       sodipodi:rx="63.912209"
       sodipodi:cy="115.70919"
       sodipodi:cx="63.912209"
       id="path2593"
       style="opacity:0.38139535;fill:url(#radialGradient2595);fill-opacity:1;fill-rule:nonzero;stroke:none;stroke-width:0;stroke-linecap:round;stroke-linejoin:round;stroke-miterlimit:4;stroke-dasharray:none;stroke-dashoffset:4;stroke-opacity:1"
       sodipodi:type="arc" />
    <path
       id="path3665"
       d="M 19.84375,4.59375 C 17.284771,4.59375 15.122053,5.526651 14.625,6.78125 C 14.621709,6.768273 14.595955,6.762035 14.59375,6.75 L 14.5625,6.75 L 14.5625,7.03125 C 14.540296,7.133322 14.53125,7.238563 14.53125,7.34375 C 14.53125,7.364629 14.530356,7.385472 14.53125,7.40625 L 14.4375,7.71875 L 14.4375,8 C 14.306,8.282836 14.24359,8.574325 14.25,8.875 C 14.25469,9.09554 14.29581,9.295757 14.375,9.5 C 14.34704,9.458085 14.30606,9.41742 14.28125,9.375 C 14.31291,9.519995 14.37232,9.672397 14.4375,9.8125 L 14.4375,9.9375 C 14.306,10.220336 14.24359,10.511824 14.25,10.8125 C 14.25469,11.03304 14.29581,11.233257 14.375,11.4375 C 14.34704,11.395585 14.30606,11.35492 14.28125,11.3125 C 14.31291,11.457495 14.37232,11.609897 14.4375,11.75 L 14.4375,11.875 C 14.30483,12.159076 14.24356,12.447927 14.25,12.75 C 14.251881,12.838434 14.267548,12.916531 14.28125,13 C 14.284633,13.02061 14.277138,13.042074 14.28125,13.0625 L 14.1875,13.78125 L 14.09375,14.0625 L 10.8125,22.90625 L 10.8125,26.6875 C 10.979296,27.111539 11.189661,27.518204 11.46875,27.90625 C 11.473939,27.913544 11.463525,27.930221 11.46875,27.9375 C 11.724627,28.290498 12.03833,28.624317 12.375,28.9375 C 12.546005,29.096849 12.71628,29.258609 12.90625,29.40625 C 13.861063,30.151492 15.038444,30.716091 16.375,31.09375 C 16.905607,31.243772 17.458571,31.358732 18.03125,31.4375 C 18.604239,31.516302 19.208147,31.5625 19.8125,31.5625 C 20.12443,31.5625 20.44504,31.552355 20.75,31.53125 C 21.11849,31.504522 21.48897,31.462657 21.84375,31.40625 C 22.39617,31.318419 22.92627,31.185421 23.4375,31.03125 C 23.51144,31.008953 23.58329,30.992353 23.65625,30.96875 C 23.86075,30.902985 24.05356,30.825691 24.25,30.75 C 24.38721,30.696886 24.52327,30.65153 24.65625,30.59375 C 24.67769,30.584494 24.69742,30.571875 24.71875,30.5625 C 24.99033,30.442374 25.24779,30.294939 25.5,30.15625 C 25.5279,30.140907 25.5661,30.140561 25.59375,30.125 C 25.64761,30.09494 25.69709,30.062124 25.75,30.03125 C 25.99402,29.887886 26.21506,29.753689 26.4375,29.59375 C 26.64699,29.445041 26.84222,29.287212 27.03125,29.125 C 27.08348,29.07999 27.13691,29.045989 27.1875,29 C 27.32314,28.877491 27.43903,28.754236 27.5625,28.625 C 27.64906,28.533919 27.7322,28.437953 27.8125,28.34375 C 27.89047,28.252638 27.95937,28.156424 28.03125,28.0625 C 28.14313,27.91615 28.24719,27.777692 28.34375,27.625 C 28.49642,27.383571 28.63802,27.1306 28.75,26.875 C 28.77718,26.812789 28.78929,26.748855 28.8125,26.6875 C 28.81252,25.176375 28.81251,24.735804 28.8125,23.15625 C 28.75111,22.985145 28.67769,22.824083 28.59375,22.65625 L 25.84375,15.1875 L 25.3125,13.78125 C 25.3125,13.78125 25.34938,13.410086 25.375,13.1875 C 25.37839,13.177289 25.37178,13.166485 25.375,13.15625 C 25.40683,13.060268 25.42058,12.972917 25.4375,12.875 C 25.43918,12.864254 25.43601,12.854516 25.4375,12.84375 C 25.45275,12.745963 25.46907,12.661724 25.46875,12.5625 C 25.46854,12.552517 25.46913,12.541193 25.46875,12.53125 C 25.46291,12.250606 25.37617,11.970606 25.25,11.71875 L 25.25,11.46875 C 25.38769,11.177861 25.47518,10.902514 25.46875,10.59375 C 25.46291,10.313106 25.37617,10.033106 25.25,9.78125 L 25.25,9.53125 C 25.38769,9.240361 25.47518,8.965014 25.46875,8.65625 C 25.46296,8.378143 25.37409,8.09356 25.25,7.84375 L 25.25,7.71875 L 25.125,7.46875 C 25.12851,7.427408 25.125,7.385508 25.125,7.34375 C 25.125,7.216183 25.09456,7.091639 25.0625,6.96875 L 25.0625,6.75 C 25.06029,6.762035 25.03454,6.768273 25.03125,6.78125 C 24.54018,5.526651 22.40273,4.59375 19.84375,4.59375 z "
       style="opacity:0.5;fill:#1d3a32;fill-opacity:1;fill-rule:nonzero;stroke:none;stroke-width:1;stroke-linecap:round;stroke-linejoin:round;stroke-miterlimit:4;stroke-dasharray:none;stroke-opacity:1" />
    <path
       sodipodi:type="arc"
       style="fill:#ffffff;fill-opacity:1;fill-rule:nonzero;stroke:none;stroke-width:1;stroke-linecap:round;stroke-linejoin:round;stroke-miterlimit:4;stroke-dasharray:none;stroke-opacity:1"
       id="path3667"
       sodipodi:cx="20.071686"
       sodipodi:cy="17.237885"
       sodipodi:rx="6.6378803"
       sodipodi:ry="3.911608"
       d="M 26.709566 17.237885 A 6.6378803 3.911608 0 1 1  13.433805,17.237885 A 6.6378803 3.911608 0 1 1  26.709566 17.237885 z"
       transform="matrix(0.9694995,0,0,0.9694995,0.41278,3.542563)" />
    <path
       style="fill:#888a85;fill-opacity:1;fill-rule:nonzero;stroke:none;stroke-width:1;stroke-linecap:round;stroke-linejoin:round;stroke-miterlimit:4;stroke-dasharray:none;stroke-opacity:1"
       d="M 19.84375,4.59375 C 17.284771,4.59375 15.122053,5.526651 14.625,6.78125 C 14.621709,6.768273 14.595955,6.762035 14.59375,6.75 L 14.5625,6.75 L 14.5625,7.03125 C 14.540296,7.133322 14.53125,7.238563 14.53125,7.34375 C 14.53125,7.364629 14.530356,7.385472 14.53125,7.40625 L 14.4375,7.71875 L 14.4375,8 C 14.306,8.282836 14.24359,8.574325 14.25,8.875 C 14.25469,9.09554 14.29581,9.295757 14.375,9.5 C 14.34704,9.458085 14.30606,9.41742 14.28125,9.375 C 14.31291,9.519995 14.37232,9.672397 14.4375,9.8125 L 14.4375,9.9375 C 14.306,10.220336 14.24359,10.511824 14.25,10.8125 C 14.25469,11.03304 14.29581,11.233257 14.375,11.4375 C 14.34704,11.395585 14.30606,11.35492 14.28125,11.3125 C 14.31291,11.457495 14.37232,11.609897 14.4375,11.75 L 14.4375,11.875 C 14.30483,12.159076 14.24356,12.447927 14.25,12.75 C 14.251881,12.838434 14.267548,12.916531 14.28125,13 C 14.648789,14.567468 17.066609,15.873258 19.9375,15.71875 C 22.84377,15.562337 25.18365,14.159243 25.4375,12.53125 C 25.42206,12.815422 25.40144,12.91675 25.375,13.15625 C 25.40683,13.060268 25.42058,12.972917 25.4375,12.875 C 25.43918,12.864254 25.43601,12.854516 25.4375,12.84375 C 25.45275,12.745963 25.46907,12.661724 25.46875,12.5625 C 25.46854,12.552517 25.46913,12.541193 25.46875,12.53125 C 25.46291,12.250606 25.37617,11.970606 25.25,11.71875 L 25.25,11.46875 C 25.38769,11.177861 25.47518,10.902514 25.46875,10.59375 C 25.46291,10.313106 25.37617,10.033106 25.25,9.78125 L 25.25,9.53125 C 25.38769,9.240361 25.47518,8.965014 25.46875,8.65625 C 25.46296,8.378143 25.37409,8.09356 25.25,7.84375 L 25.25,7.71875 L 25.125,7.46875 C 25.12851,7.427408 25.125,7.385508 25.125,7.34375 C 25.125,7.216183 25.09456,7.091639 25.0625,6.96875 L 25.0625,6.75 C 25.06029,6.762035 25.03454,6.768273 25.03125,6.78125 C 24.54018,5.526651 22.40273,4.59375 19.84375,4.59375 z "
       id="path3669"
       sodipodi:nodetypes="cccccscccsssccsssccssscsssssccsccscccscccc" />
    <path
       sodipodi:nodetypes="csssc"
       id="path3671"
       d="M 19.771,6.54495 C 19.351279,6.54495 19.008975,6.720702 19.008975,6.939114 C 19.008975,7.157527 19.351279,7.336383 19.771,7.336383 C 20.19072,7.336383 20.53092,7.157527 20.53092,6.939114 C 20.53092,6.720702 20.19072,6.54495 19.771,6.54495 z "
       style="fill:#2e3436;fill-opacity:1;fill-rule:nonzero;stroke:none;stroke-width:1;stroke-linecap:round;stroke-linejoin:round;stroke-miterlimit:4;stroke-dasharray:none;stroke-opacity:1" />
    <path
       id="path3673"
       d="M 19.84375,4.59375 C 16.9192,4.59375 14.53125,5.821895 14.53125,7.34375 C 14.53125,8.865606 16.9192,10.125 19.84375,10.125 C 22.7683,10.125 25.125,8.865606 25.125,7.34375 C 25.125,5.821895 22.7683,4.59375 19.84375,4.59375 z M 19.78125,5.3125 C 20.20097,5.3125 20.53125,5.500338 20.53125,5.71875 C 20.53125,5.937163 20.20097,6.09375 19.78125,6.09375 C 19.36153,6.09375 19,5.937163 19,5.71875 C 19,5.500338 19.36153,5.3125 19.78125,5.3125 z M 17.46875,6.53125 C 17.88847,6.53125 18.25,6.719088 18.25,6.9375 C 18.25,7.155913 17.88847,7.34375 17.46875,7.34375 C 17.04903,7.34375 16.71875,7.155912 16.71875,6.9375 C 16.71875,6.719088 17.04903,6.53125 17.46875,6.53125 z M 19.78125,6.53125 C 20.20097,6.53125 20.53125,6.719088 20.53125,6.9375 C 20.53125,7.155913 20.20097,7.34375 19.78125,7.34375 C 19.36153,7.34375 19,7.155913 19,6.9375 C 19,6.719088 19.36153,6.53125 19.78125,6.53125 z M 22.0625,6.53125 C 22.48222,6.53125 22.8125,6.719088 22.8125,6.9375 C 22.8125,7.155913 22.48222,7.34375 22.0625,7.34375 C 21.64278,7.34375 21.3125,7.155913 21.3125,6.9375 C 21.3125,6.719088 21.64278,6.53125 22.0625,6.53125 z M 19.78125,7.78125 C 20.20097,7.78125 20.53125,7.937838 20.53125,8.15625 C 20.53125,8.374663 20.20097,8.5625 19.78125,8.5625 C 19.36153,8.5625 19,8.374663 19,8.15625 C 19,7.937838 19.36153,7.78125 19.78125,7.78125 z "
       style="opacity:1;fill:url(#radialGradient3719);fill-opacity:1;fill-rule:nonzero;stroke:none;stroke-width:1;stroke-linecap:round;stroke-linejoin:round;stroke-miterlimit:4;stroke-dasharray:none;stroke-opacity:1" />
    <path
       sodipodi:nodetypes="csssc"
       id="use3675"
       d="M 17.47743,6.5449498 C 17.05771,6.5449498 16.7154,6.7207021 16.7154,6.9391145 C 16.7154,7.1575271 17.05771,7.3363828 17.47743,7.3363828 C 17.89715,7.3363828 18.23735,7.1575271 18.23735,6.9391145 C 18.23735,6.7207021 17.89715,6.5449498 17.47743,6.5449498 z "
       style="fill:#2e3436;fill-opacity:1;fill-rule:nonzero;stroke:none;stroke-width:1;stroke-linecap:round;stroke-linejoin:round;stroke-miterlimit:4;stroke-dasharray:none;stroke-opacity:1" />
    <path
       id="path3677"
       d="M 14.5625,6.75 L 14.5625,7.03125 C 14.57496,6.9792 14.607,6.926088 14.625,6.875 C 14.61617,6.836025 14.60096,6.789344 14.59375,6.75 L 14.5625,6.75 z M 25.0625,6.75 C 25.05529,6.789344 25.04007,6.836025 25.03125,6.875 C 25.04229,6.906504 25.05355,6.936874 25.0625,6.96875 L 25.0625,6.75 z M 14.53125,7.40625 L 14.4375,7.71875 L 14.4375,8.03125 C 14.31489,8.305757 14.24378,8.582995 14.25,8.875 C 14.25582,9.14847 14.31953,9.408329 14.4375,9.65625 L 14.4375,9.9375 C 14.30644,10.22081 14.24357,10.510761 14.25,10.8125 C 14.25591,11.090381 14.34716,11.342313 14.46875,11.59375 L 14.46875,11.84375 C 14.32598,12.13879 14.24329,12.435285 14.25,12.75 C 14.2561,13.036703 14.33976,13.304083 14.46875,13.5625 L 14.46875,13.8125 C 14.47513,13.824431 14.49338,13.831872 14.5,13.84375 C 15.23035,15.155151 17.41022,16.167265 19.9375,16.03125 C 22.4921,15.893765 24.59862,14.807409 25.25,13.4375 L 25.25,13.0625 C 25.3469,12.869052 25.40277,12.670489 25.4375,12.46875 C 25.38469,12.572259 25.31937,12.681114 25.25,12.78125 L 25.25,11.125 C 25.3469,10.931552 25.40277,10.732989 25.4375,10.53125 C 25.38469,10.634759 25.31937,10.743614 25.25,10.84375 L 25.25,9.1875 C 25.3469,8.994052 25.40277,8.795489 25.4375,8.59375 C 25.38469,8.697259 25.31937,8.806114 25.25,8.90625 L 25.25,7.71875 L 25.09375,7.4375 C 25.0334,8.755128 23.25823,9.824669 20.84375,10.0625 C 20.52554,10.093845 20.1793,10.125 19.84375,10.125 C 19.50821,10.125 19.19355,10.093845 18.875,10.0625 C 16.43546,9.82246 14.55891,8.740184 14.53125,7.40625 z M 14.46875,11.90625 L 14.46875,12.375 C 14.45449,12.288965 14.43938,12.213435 14.4375,12.125 C 14.43586,12.047483 14.45813,11.978294 14.46875,11.90625 z "
       style="opacity:0.5;fill:url(#linearGradient3721);fill-opacity:1;fill-rule:nonzero;stroke:none;stroke-width:1;stroke-linecap:round;stroke-linejoin:round;stroke-miterlimit:4;stroke-opacity:1" />
    <path
       sodipodi:nodetypes="csssc"
       id="use3679"
       d="M 19.771,5.3150868 C 19.35128,5.3150868 19.00897,5.4908391 19.00897,5.7092515 C 19.00897,5.9276641 19.35128,6.1065198 19.771,6.1065198 C 20.19072,6.1065198 20.53092,5.9276641 20.53092,5.7092515 C 20.53092,5.4908391 20.19072,5.3150868 19.771,5.3150868 z "
       style="fill:#2e3436;fill-opacity:1;fill-rule:nonzero;stroke:none;stroke-width:1;stroke-linecap:round;stroke-linejoin:round;stroke-miterlimit:4;stroke-dasharray:none;stroke-opacity:1" />
    <path
       id="path3681"
       d="M 25.1875,7.71875 C 25.20892,7.825125 25.2477,7.952227 25.25,8.0625 C 25.28672,9.826869 22.78752,11.395661 19.6875,11.5625 C 17.16873,11.698058 15.01971,10.637572 14.28125,9.375 C 14.62626,10.955015 17.01794,12.311694 19.90625,12.15625 C 22.38627,12.022779 24.47157,10.969438 25.1875,9.65625 C 25.36648,9.327953 25.47609,9.009124 25.46875,8.65625 C 25.462,8.331792 25.35179,8.005376 25.1875,7.71875 z M 25.1875,9.65625 C 25.20892,9.762626 25.2477,9.889727 25.25,10 C 25.28672,11.76437 22.78752,13.333161 19.6875,13.5 C 17.16873,13.635556 15.01971,12.575072 14.28125,11.3125 C 14.62626,12.892514 17.01794,14.249194 19.90625,14.09375 C 22.37077,13.961112 24.45907,12.926536 25.1875,11.625 C 25.37533,11.289384 25.47628,10.955445 25.46875,10.59375 C 25.462,10.269292 25.35179,9.942876 25.1875,9.65625 z M 25.1875,11.625 C 25.20892,11.731374 25.2477,11.858478 25.25,11.96875 C 25.28671,13.733121 22.78752,15.30191 19.6875,15.46875 C 17.16873,15.604307 15.01973,14.543824 14.28125,13.28125 C 14.62626,14.861267 17.01794,16.217942 19.90625,16.0625 C 23.00627,15.895658 25.50546,14.326871 25.46875,12.5625 C 25.462,12.238043 25.3518,11.911626 25.1875,11.625 z "
       style="opacity:0.5;fill:url(#linearGradient3723);fill-opacity:1;fill-rule:nonzero;stroke:none;stroke-width:1;stroke-linecap:round;stroke-linejoin:round;stroke-miterlimit:4;stroke-dasharray:none;stroke-opacity:1" />
    <path
       style="fill:#2e3436;fill-opacity:1;fill-rule:nonzero;stroke:none;stroke-width:1;stroke-linecap:round;stroke-linejoin:round;stroke-miterlimit:4;stroke-dasharray:none;stroke-opacity:1"
       d="M 19.771,7.7748123 C 19.35128,7.7748123 19.00897,7.9505646 19.00897,8.168977 C 19.00897,8.3873896 19.35128,8.5662453 19.771,8.5662453 C 20.19072,8.5662453 20.53092,8.3873896 20.53092,8.168977 C 20.53092,7.9505646 20.19072,7.7748123 19.771,7.7748123 z "
       id="use3683"
       sodipodi:nodetypes="csssc" />
    <path
       style="fill:url(#linearGradient3725);fill-opacity:1;fill-rule:nonzero;stroke:none;stroke-width:1;stroke-linecap:round;stroke-linejoin:round;stroke-miterlimit:4;stroke-dasharray:none;stroke-opacity:1"
       d="M 19.76756,6.541952 C 19.34784,6.541952 19.00988,6.726056 19.00988,6.944468 C 19.00988,6.999072 19.01859,7.039051 19.05724,7.086533 C 19.17318,6.94496 19.45277,6.849759 19.76756,6.849759 C 20.08235,6.849759 20.36253,6.94496 20.47789,7.086533 C 20.51633,7.039051 20.52524,6.999072 20.52524,6.944468 C 20.52524,6.726056 20.18728,6.541952 19.76756,6.541952 z "
       id="path3685" />
    <path
       sodipodi:nodetypes="csssc"
       id="use3687"
       d="M 22.06457,6.544949 C 21.64485,6.544949 21.30254,6.7207013 21.30254,6.9391137 C 21.30254,7.1575263 21.64485,7.336382 22.06457,7.336382 C 22.48429,7.336382 22.82449,7.1575263 22.82449,6.9391137 C 22.82449,6.7207013 22.48429,6.544949 22.06457,6.544949 z "
       style="fill:#2e3436;fill-opacity:1;fill-rule:nonzero;stroke:none;stroke-width:1;stroke-linecap:round;stroke-linejoin:round;stroke-miterlimit:4;stroke-dasharray:none;stroke-opacity:1" />
    <path
       style="fill:url(#linearGradient3727);fill-opacity:1;fill-rule:nonzero;stroke:none;stroke-width:1;stroke-linecap:round;stroke-linejoin:round;stroke-miterlimit:4;stroke-dasharray:none;stroke-opacity:1"
       d="M 17.47399,6.541952 C 17.05427,6.541952 16.71631,6.726056 16.71631,6.944468 C 16.71631,6.999072 16.72502,7.039051 16.76367,7.086533 C 16.87962,6.94496 17.1592,6.849759 17.47399,6.849759 C 17.78878,6.849759 18.06896,6.94496 18.18432,7.086533 C 18.22277,7.039051 18.23167,6.999072 18.23167,6.944468 C 18.23167,6.726056 17.89371,6.541952 17.47399,6.541952 z "
       id="path3689" />
    <path
       style="fill:url(#linearGradient3729);fill-opacity:1;fill-rule:nonzero;stroke:none;stroke-width:1;stroke-linecap:round;stroke-linejoin:round;stroke-miterlimit:4;stroke-dasharray:none;stroke-opacity:1"
       d="M 19.76756,5.312089 C 19.34784,5.312089 19.00988,5.496193 19.00988,5.714605 C 19.00988,5.769209 19.01859,5.809188 19.05724,5.85667 C 19.17318,5.715097 19.45277,5.619896 19.76756,5.619896 C 20.08235,5.619896 20.36253,5.715097 20.47789,5.85667 C 20.51633,5.809188 20.52524,5.769209 20.52524,5.714605 C 20.52524,5.496193 20.18728,5.312089 19.76756,5.312089 z "
       id="path3691" />
    <path
       style="fill:url(#linearGradient3731);fill-opacity:1;fill-rule:nonzero;stroke:none;stroke-width:1;stroke-linecap:round;stroke-linejoin:round;stroke-miterlimit:4;stroke-dasharray:none;stroke-opacity:1"
       d="M 19.76756,7.771814 C 19.34784,7.771814 19.00988,7.955919 19.00988,8.174331 C 19.00988,8.228934 19.01859,8.268914 19.05724,8.316396 C 19.17318,8.174823 19.45277,8.079621 19.76756,8.079621 C 20.08235,8.079621 20.36253,8.174823 20.47789,8.316396 C 20.51633,8.268914 20.52524,8.228934 20.52524,8.174331 C 20.52524,7.955919 20.18728,7.771814 19.76756,7.771814 z "
       id="path3693" />
    <path
       style="fill:url(#linearGradient3733);fill-opacity:1;fill-rule:nonzero;stroke:none;stroke-width:1;stroke-linecap:round;stroke-linejoin:round;stroke-miterlimit:4;stroke-dasharray:none;stroke-opacity:1"
       d="M 22.06113,6.541951 C 21.64141,6.541951 21.30345,6.726055 21.30345,6.944468 C 21.30345,6.999071 21.31216,7.039051 21.3508,7.086532 C 21.46675,6.944959 21.74634,6.849758 22.06113,6.849758 C 22.37592,6.849758 22.6561,6.944959 22.77145,7.086532 C 22.8099,7.039051 22.81881,6.999071 22.81881,6.944468 C 22.81881,6.726055 22.48085,6.541951 22.06113,6.541951 z "
       id="path3695" />
    <path
       style="fill:url(#linearGradient3735);fill-opacity:1;fill-rule:nonzero;stroke:none;stroke-width:1;stroke-linecap:round;stroke-linejoin:round;stroke-miterlimit:4;stroke-dasharray:none;stroke-opacity:1"
       d="M 14.46875,7.9375 C 14.31688,8.241333 14.24309,8.55055 14.25,8.875 C 14.28754,10.639323 16.80631,11.951854 19.90625,11.78125 C 22.79449,11.622298 25.1597,10.20766 25.4375,8.59375 C 24.7538,9.933726 22.6437,11.017635 20.125,11.15625 C 17.02506,11.326853 14.47505,10.014323 14.4375,8.25 C 14.43516,8.139729 14.45185,8.045962 14.46875,7.9375 z M 14.46875,9.875 C 14.31688,10.178833 14.24309,10.488049 14.25,10.8125 C 14.28754,12.576823 16.80631,13.889353 19.90625,13.71875 C 22.79449,13.559798 25.1597,12.145161 25.4375,10.53125 C 24.7538,11.871226 22.6437,12.955134 20.125,13.09375 C 17.02506,13.264353 14.47505,11.951822 14.4375,10.1875 C 14.43516,10.077229 14.45185,9.983461 14.46875,9.875 z M 14.46875,11.8125 C 14.31688,12.116333 14.24309,12.425551 14.25,12.75 C 14.28754,14.514323 16.80631,15.826852 19.90625,15.65625 C 22.79449,15.497298 25.1597,14.082661 25.4375,12.46875 C 24.7538,13.808726 22.6437,14.892633 20.125,15.03125 C 17.02506,15.201853 14.47505,13.889324 14.4375,12.125 C 14.43516,12.014729 14.45185,11.92096 14.46875,11.8125 z "
       id="path3697" />
    <path
       sodipodi:type="arc"
       style="opacity:0.3;fill:url(#radialGradient3260);fill-opacity:1.0;fill-rule:nonzero;stroke:none;stroke-width:1;stroke-linecap:round;stroke-linejoin:round;stroke-miterlimit:4;stroke-dasharray:none;stroke-opacity:1"
       id="path3250"
       sodipodi:cx="20.071686"
       sodipodi:cy="17.237885"
       sodipodi:rx="6.6378803"
       sodipodi:ry="3.911608"
       d="M 26.709566 17.237885 A 6.6378803 3.911608 0 1 1  13.433805,17.237885 A 6.6378803 3.911608 0 1 1  26.709566 17.237885 z"
       transform="matrix(0.9694995,0,0,0.9694995,0.41278,3.542563)" />
    <path
       sodipodi:nodetypes="ccccccsscccccsssc"
       style="fill:#ffffff;fill-opacity:1;fill-rule:evenodd;stroke:none;stroke-width:1px;stroke-linecap:butt;stroke-linejoin:miter;stroke-opacity:1"
       d="M 13.590173,19.387818 L 13.408393,19.509005 L 11.832955,23.811161 L 11.832955,24.720065 L 11.832955,25.295707 L 11.863253,25.295707 C 12.272557,28.166762 15.667253,29.836323 19.80103,29.836323 C 24.21039,29.836323 27.7994,27.864226 27.7994,24.720065 C 27.7994,24.443251 27.76211,24.168345 27.70851,23.90205 L 27.70851,23.811161 L 27.64791,23.689973 C 27.5701,23.383894 27.45819,23.098358 27.31465,22.811365 L 26.28456,20.054349 C 26.29107,20.1242 26.31485,20.195623 26.31485,20.266428 C 26.31485,22.359779 23.41398,24.053536 19.861623,24.053536 C 16.309271,24.053534 13.438689,22.359779 13.438689,20.266428 C 13.438689,19.973018 13.482991,19.662138 13.590173,19.387818 z "
       id="path3701" />
    <path
       style="fill:url(#linearGradient3739);fill-opacity:1;fill-rule:evenodd;stroke:none;stroke-width:1px;stroke-linecap:butt;stroke-linejoin:miter;stroke-opacity:1"
       d="M 14.597162,15.838727 C 14.597162,15.838727 15.031617,15.874201 15.312407,16.114559 C 15.593198,16.354919 15.720325,16.800161 15.720325,16.800161 L 13.883771,24.666665 C 13.883771,24.666665 13.155719,24.348384 12.734994,23.722774 C 12.314274,23.097168 12.200878,22.164232 12.200878,22.164232 L 14.597162,15.838727 z "
       id="path3703"
       sodipodi:nodetypes="csccscc" />
    <path
       style="fill:url(#linearGradient3741);fill-opacity:1;fill-rule:evenodd;stroke:none;stroke-width:1px;stroke-linecap:butt;stroke-linejoin:miter;stroke-opacity:1"
       d="M 17.710545,17.62777 C 17.710545,17.62777 18.680046,17.320442 19.649543,17.320442 C 20.61904,17.320442 21.58854,17.62777 21.58854,17.62777 L 22.65678,26.199601 C 22.65678,26.199601 21.17784,26.865477 19.698913,26.865477 C 18.219981,26.865477 16.741045,26.199601 16.741045,26.199601 L 17.710545,17.62777 z "
       id="path3705"
       sodipodi:nodetypes="csccscc" />
    <path
       style="fill:url(#linearGradient3743);fill-opacity:1;fill-rule:evenodd;stroke:none;stroke-width:1px;stroke-linecap:butt;stroke-linejoin:miter;stroke-opacity:1;opacity:0.75"
       d="M 14.802047,15.085666 L 12.166221,22.053941 C 12.166221,22.053941 12.193747,22.155568 12.196518,22.175128 L 14.589971,15.843086 C 14.589971,15.843086 15.036303,15.875399 15.317092,16.115758 C 15.597884,16.356117 15.710954,16.812587 15.710954,16.812587 L 13.89314,24.659471 C 13.89314,24.659471 13.488384,24.496551 13.105425,24.144425 C 13.546506,24.581974 14.014327,24.810957 14.014328,24.810957 L 16.044218,16.146055 C 16.044218,16.146055 15.899337,15.653629 15.589766,15.388635 C 15.280195,15.123638 14.80205,15.085667 14.802047,15.085666 z M 25.04238,15.085666 C 25.04238,15.085667 24.56424,15.123638 24.25467,15.388635 C 23.9451,15.653629 23.80021,16.146055 23.80021,16.146055 L 23.89111,16.600507 C 23.85225,16.69474 23.83051,16.812587 23.83051,16.812587 C 23.83051,16.812587 23.97388,16.356117 24.25467,16.115758 C 24.53546,15.875399 24.95149,15.843086 24.95149,15.843086 L 27.34495,22.175128 C 27.34495,22.175128 27.25062,23.094663 26.8299,23.720268 C 26.4561,24.276097 25.9028,24.536742 25.76951,24.598878 L 25.8301,24.810957 C 25.8301,24.810957 26.63872,24.470597 27.10257,23.780862 C 27.56642,23.09113 27.67821,22.053941 27.67821,22.053941 L 25.04238,15.085666 z M 19.80103,16.539913 C 18.732156,16.539913 17.64995,16.873181 17.649952,16.873181 L 16.589562,26.325798 C 16.589562,26.325798 18.231099,27.052922 19.861623,27.052923 C 21.49215,27.052923 23.10339,26.325797 23.10339,26.325798 L 21.92181,16.873181 C 21.92181,16.873181 20.8699,16.539912 19.80103,16.539913 z M 19.649543,17.327632 C 20.61904,17.327632 21.58854,17.630601 21.58854,17.630601 L 22.64893,26.20461 C 22.64893,26.204611 21.18907,26.871142 19.710137,26.871142 C 18.231205,26.871142 16.741045,26.20461 16.741045,26.20461 L 17.710545,17.630601 C 17.710545,17.630601 18.680046,17.327632 19.649543,17.327632 z "
       id="path3707" />
    <path
       sodipodi:nodetypes="csccscc"
       id="path3709"
       d="M 24.95803,15.838727 C 24.95803,15.838727 24.52358,15.874201 24.24279,16.114559 C 23.962,16.354919 23.83487,16.800161 23.83487,16.800161 L 25.67142,24.666665 C 25.67142,24.666665 26.39947,24.348384 26.8202,23.722774 C 27.24092,23.097168 27.35432,22.164232 27.35432,22.164232 L 24.95803,15.838727 z "
       style="opacity:0.4;fill:#555753;fill-opacity:1;fill-rule:evenodd;stroke:none;stroke-width:1px;stroke-linecap:butt;stroke-linejoin:miter;stroke-opacity:1" />
    <path
       style="opacity:0.1;fill:#00583f;fill-opacity:1;fill-rule:evenodd;stroke:none;stroke-width:1px;stroke-linecap:butt;stroke-linejoin:miter;stroke-opacity:1"
       d="M 14.28125,12.96875 L 14.1875,13.78125 L 14.09375,14.0625 L 10.8125,22.90625 L 10.8125,26.6875 C 11.92032,29.489629 15.53486,31.5625 19.8125,31.5625 C 24.09887,31.5625 27.70943,29.495988 28.8125,26.6875 C 28.81252,25.176375 28.81251,24.735804 28.8125,23.15625 C 28.7464,22.985433 28.67769,22.824083 28.59375,22.65625 L 25.84375,15.1875 L 25.3125,13.78125 C 25.3125,13.78125 25.353023,13.435763 25.375,13.25 C 24.860456,14.72213 22.602065,15.917412 19.90625,16.0625 C 17.01794,16.217942 14.62626,14.861267 14.28125,13.28125 C 14.33781,13.37795 14.42736,13.468617 14.5,13.5625 C 14.395088,13.375349 14.324376,13.166251 14.28125,12.96875 z "
       id="path3711" />
    <path
       style="opacity:0.25;fill:url(#radialGradient2253);fill-opacity:1;fill-rule:evenodd;stroke:none;stroke-width:1px;stroke-linecap:butt;stroke-linejoin:miter;stroke-opacity:1"
       d="M 11.875,23.375 L 11.875,25.28125 C 12.28431,28.152305 15.67872,29.84375 19.8125,29.84375 C 24.22186,29.84375 27.8125,27.862911 27.8125,24.71875 C 27.8125,24.712847 27.812667,23.617195 27.8125,23.46875 C 26.607487,25.936787 23.520397,27.6875 19.875,27.6875 C 16.188677,27.6875 13.053539,25.886316 11.875,23.375 z "
       id="path2246"
       sodipodi:nodetypes="ccsscsc" />
    <path
       style="opacity:0.5;fill:url(#linearGradient2267);fill-opacity:1;fill-rule:evenodd;stroke:none;stroke-width:1px;stroke-linecap:butt;stroke-linejoin:miter;stroke-opacity:1"
       d="M 11.375,21.375 L 10.8125,22.90625 L 10.8125,23.03125 L 10.8125,26.6875 C 11.92032,29.489629 15.53486,31.5625 19.8125,31.5625 C 20.348296,31.5625 20.8639,31.530742 21.375,31.46875 C 24.441598,31.096801 27.005258,29.670474 28.28125,27.71875 C 28.493915,27.393463 28.674616,27.038561 28.8125,26.6875 C 28.81252,25.229866 28.81251,24.72978 28.8125,23.28125 C 28.8125,23.228093 28.8125,23.212163 28.8125,23.15625 C 28.7464,22.985433 28.67769,22.824083 28.59375,22.65625 L 28.3125,21.90625 C 27.842376,25.160029 24.249476,27.6875 19.875,27.6875 C 15.264127,27.6875 11.50626,24.882266 11.375,21.375 z "
       id="path2260" />
    <path
       style="opacity:0.15;fill:#000000;fill-opacity:1;fill-rule:evenodd;stroke:none;stroke-width:1px;stroke-linecap:butt;stroke-linejoin:miter;stroke-opacity:1"
       d="M 25.375 13.25 C 24.942669 14.486917 23.275864 15.518958 21.15625 15.90625 C 22.925556 15.776186 24.485695 15.220453 25.53125 14.34375 L 25.3125 13.78125 C 25.3125 13.78125 25.353023 13.435763 25.375 13.25 z "
       id="path2274" />
    <path
       style="opacity:0.25;fill:url(#linearGradient3289);fill-opacity:1;fill-rule:evenodd;stroke:none;stroke-width:1px;stroke-linecap:butt;stroke-linejoin:miter;stroke-opacity:1"
       d="M 14.28125,12.96875 L 14.1875,13.78125 L 14.09375,14.0625 L 11.375,21.375 C 11.50626,24.882266 15.264127,27.6875 19.875,27.6875 C 24.249476,27.6875 27.842376,25.160029 28.3125,21.90625 L 25.84375,15.1875 L 25.3125,13.78125 C 25.3125,13.78125 25.353023,13.435763 25.375,13.25 C 24.860456,14.72213 22.602065,15.917412 19.90625,16.0625 C 17.01794,16.217942 14.62626,14.861267 14.28125,13.28125 C 14.33781,13.37795 14.42736,13.468617 14.5,13.5625 C 14.395088,13.375349 14.324376,13.166251 14.28125,12.96875 z M 14.59375,15.84375 C 14.593752,15.84375 15.03171,15.884642 15.3125,16.125 C 15.59329,16.36536 15.71875,16.8125 15.71875,16.8125 L 13.875,24.65625 C 13.875001,24.656251 13.170725,24.34436 12.75,23.71875 C 12.329281,23.093143 12.1875,22.15625 12.1875,22.15625 L 14.59375,15.84375 z M 24.96875,15.84375 L 27.34375,22.15625 C 27.34375,22.15625 27.233218,23.093143 26.8125,23.71875 C 26.39177,24.34436 25.656249,24.656251 25.65625,24.65625 L 23.84375,16.8125 C 23.84375,16.8125 23.96921,16.36536 24.25,16.125 C 24.53079,15.884642 24.968749,15.84375 24.96875,15.84375 z M 19.65625,17.3125 C 20.625746,17.3125 21.59375,17.625 21.59375,17.625 L 22.65625,26.1875 C 22.65625,26.187501 21.166427,26.875 19.6875,26.875 C 18.208567,26.875 16.75,26.1875 16.75,26.1875 L 17.71875,17.625 C 17.71875,17.625001 18.686753,17.3125 19.65625,17.3125 z "
       id="path3278" />
    <rect
       style="opacity:0.61162792;fill:#555753;fill-opacity:1;fill-rule:nonzero;stroke:none;stroke-width:0.69999999;stroke-linecap:round;stroke-linejoin:miter;stroke-miterlimit:4;stroke-dasharray:none;stroke-opacity:1"
       id="rect1951"
       width="40.001965"
       height="10.004759"
       x="-0.0019644466"
       y="30" />
    <text
       xml:space="preserve"
       style="font-size:12px;font-style:normal;font-weight:normal;fill:#eeeeec;fill-opacity:1;stroke:none;stroke-width:1px;stroke-linecap:butt;stroke-linejoin:miter;stroke-opacity:1;font-family:Bitstream Vera Sans"
       x="11.826154"
       y="39.168156"
       id="text2840"><tspan
         sodipodi:role="line"
         id="tspan2842"
         x="11.826154"
         y="39.168156">Na</tspan></text>
  </g>
</svg>
