<?xml version="1.0" encoding="UTF-8" standalone="no"?>
<!-- Created with Inkscape (http://www.inkscape.org/) -->
<svg
   xmlns:dc="http://purl.org/dc/elements/1.1/"
   xmlns:cc="http://creativecommons.org/ns#"
   xmlns:rdf="http://www.w3.org/1999/02/22-rdf-syntax-ns#"
   xmlns:svg="http://www.w3.org/2000/svg"
   xmlns="http://www.w3.org/2000/svg"
   xmlns:xlink="http://www.w3.org/1999/xlink"
   xmlns:sodipodi="http://sodipodi.sourceforge.net/DTD/sodipodi-0.dtd"
   xmlns:inkscape="http://www.inkscape.org/namespaces/inkscape"
   width="40"
   height="40"
   id="svg2193"
   sodipodi:version="0.32"
   inkscape:version="0.46"
   version="1.0"
   sodipodi:docbase="/home/jra/Desktop"
   sodipodi:docname="13.svg"
   inkscape:output_extension="org.inkscape.output.svg.inkscape">
  <defs
     id="defs2195">
    <linearGradient
       id="linearGradient3528">
      <stop
         style="stop-color:#000000;stop-opacity:0.8"
         offset="0"
         id="stop3530" />
      <stop
         style="stop-color:#ffffff;stop-opacity:1;"
         offset="1"
         id="stop3532" />
    </linearGradient>
    <linearGradient
       id="linearGradient3239">
      <stop
         style="stop-color:#ffffff;stop-opacity:1;"
         offset="0"
         id="stop3241" />
      <stop
         style="stop-color:#ffffff;stop-opacity:0;"
         offset="1"
         id="stop3243" />
    </linearGradient>
    <linearGradient
       id="linearGradient3220">
      <stop
         id="stop3222"
         offset="0"
         style="stop-color:#000000;stop-opacity:1" />
      <stop
         id="stop3224"
         offset="1"
         style="stop-color:#ffffff;stop-opacity:1;" />
    </linearGradient>
    <linearGradient
       id="linearGradient3291">
      <stop
         id="stop3293"
         offset="0"
         style="stop-color:#000000;stop-opacity:1;" />
      <stop
         id="stop3295"
         offset="1"
         style="stop-color:#000000;stop-opacity:0;" />
    </linearGradient>
    <radialGradient
       inkscape:collect="always"
       xlink:href="#linearGradient3291"
       id="radialGradient2595"
       gradientUnits="userSpaceOnUse"
       gradientTransform="matrix(1,0,0,0.197802,0,92.82166)"
       cx="63.912209"
       cy="115.70919"
       fx="75.857941"
       fy="115.70919"
       r="63.912209" />
    <linearGradient
       inkscape:collect="always"
       xlink:href="#linearGradient3220"
       id="linearGradient3581"
       gradientUnits="userSpaceOnUse"
       x1="14.99029"
       y1="13.479868"
       x2="25.3125"
       y2="19.328125"
       gradientTransform="translate(0,-2)" />
    <linearGradient
       inkscape:collect="always"
       xlink:href="#linearGradient3528"
       id="linearGradient3714"
       gradientUnits="userSpaceOnUse"
       x1="17.521065"
       y1="9.0161352"
       x2="23.093222"
       y2="11.881397"
       gradientTransform="translate(0,-2)" />
    <linearGradient
       inkscape:collect="always"
       xlink:href="#linearGradient3239"
       id="linearGradient3729"
       gradientUnits="userSpaceOnUse"
       x1="26.012693"
       y1="3.1994731"
       x2="2.9622734"
       y2="37.052208"
       gradientTransform="translate(0,-2)" />
    <linearGradient
       inkscape:collect="always"
       xlink:href="#linearGradient3220"
       id="linearGradient3805"
       x1="34.769581"
       y1="17.661388"
       x2="24.306915"
       y2="19.488895"
       gradientUnits="userSpaceOnUse"
       gradientTransform="translate(0,-2)" />
    <linearGradient
       inkscape:collect="always"
       xlink:href="#linearGradient3220"
       id="linearGradient3807"
       x1="17.75"
       y1="19.875"
       x2="22.9375"
       y2="19.0625"
       gradientUnits="userSpaceOnUse"
       gradientTransform="translate(0,-2)" />
    <linearGradient
       inkscape:collect="always"
       xlink:href="#linearGradient3220"
       id="linearGradient3844"
       gradientUnits="userSpaceOnUse"
       x1="23.453125"
       y1="11.780779"
       x2="25.828125"
       y2="28.614683"
       gradientTransform="translate(0,-2)" />
    <linearGradient
       inkscape:collect="always"
       xlink:href="#linearGradient3220"
       id="linearGradient3867"
       x1="14.483692"
       y1="19.528727"
       x2="25.045115"
       y2="21.915213"
       gradientUnits="userSpaceOnUse"
       gradientTransform="translate(0,-2)" />
    <linearGradient
       inkscape:collect="always"
       xlink:href="#linearGradient3220"
       id="linearGradient3875"
       x1="13.196922"
       y1="24.421034"
       x2="16.430838"
       y2="25.702665"
       gradientUnits="userSpaceOnUse"
       gradientTransform="translate(0,-2)" />
    <linearGradient
       inkscape:collect="always"
       xlink:href="#linearGradient3220"
       id="linearGradient3919"
       x1="23.489204"
       y1="24.8193"
       x2="23.157747"
       y2="25.890625"
       gradientUnits="userSpaceOnUse"
       gradientTransform="translate(0,-2)" />
    <linearGradient
       inkscape:collect="always"
       xlink:href="#linearGradient3239"
       id="linearGradient3959"
       x1="15.03125"
       y1="33.453125"
       x2="16.953125"
       y2="29.390625"
       gradientUnits="userSpaceOnUse"
       gradientTransform="translate(0,-2)" />
    <linearGradient
       inkscape:collect="always"
       xlink:href="#linearGradient3291"
       id="linearGradient3972"
       x1="15.4375"
       y1="29.34375"
       x2="14.359375"
       y2="32.359375"
       gradientUnits="userSpaceOnUse"
       gradientTransform="translate(0,-2)" />
    <linearGradient
       inkscape:collect="always"
       xlink:href="#linearGradient3239"
       id="linearGradient3980"
       x1="23.765625"
       y1="28.21875"
       x2="24.25"
       y2="26.875"
       gradientUnits="userSpaceOnUse"
       gradientTransform="translate(0,-2)" />
    <linearGradient
       inkscape:collect="always"
       xlink:href="#linearGradient3291"
       id="linearGradient3989"
       x1="22.890625"
       y1="25.515625"
       x2="22.359375"
       y2="29.15625"
       gradientUnits="userSpaceOnUse"
       gradientTransform="translate(0,-2)" />
    <linearGradient
       inkscape:collect="always"
       xlink:href="#linearGradient3220"
       id="linearGradient4007"
       gradientUnits="userSpaceOnUse"
       x1="23.460938"
       y1="12.780779"
       x2="23.401402"
       y2="12.138259"
       gradientTransform="translate(0,-2)" />
    <radialGradient
       inkscape:collect="always"
       xlink:href="#linearGradient3220"
       id="radialGradient4017"
       cx="23.757486"
       cy="12.238002"
       fx="23.757486"
       fy="12.238002"
       r="0.0859375"
       gradientTransform="matrix(2.181817,-5.5100769e-6,6.4284269e-6,2.5454546,-28.123629,-18.955835)"
       gradientUnits="userSpaceOnUse" />
    <radialGradient
       inkscape:collect="always"
       xlink:href="#linearGradient3220"
       id="radialGradient4021"
       gradientUnits="userSpaceOnUse"
       gradientTransform="matrix(2.181817,-5.5100769e-6,6.4284269e-6,2.5454546,-28.123629,-18.955835)"
       cx="23.757486"
       cy="12.238002"
       fx="23.757486"
       fy="12.238002"
       r="0.0859375" />
  </defs>
  <sodipodi:namedview
     id="base"
     pagecolor="#ffffff"
     bordercolor="#666666"
     borderopacity="1.0"
     inkscape:pageopacity="0.0"
     inkscape:pageshadow="2"
     inkscape:zoom="5.6568543"
     inkscape:cx="22.862514"
     inkscape:cy="9.5912882"
     inkscape:current-layer="layer1"
     showgrid="false"
     inkscape:grid-bbox="false"
     inkscape:document-units="px"
     width="40px"
     height="40px"
     inkscape:window-width="1795"
     inkscape:window-height="1039"
     inkscape:window-x="99"
     inkscape:window-y="49">
    <inkscape:grid
       id="GridFromPre046Settings"
       type="xygrid"
       originx="0px"
       originy="0px"
       spacingx="1px"
       spacingy="1px"
       color="#0000ff"
       empcolor="#0000ff"
       opacity="0.2"
       empopacity="0.4"
       empspacing="2" />
  </sodipodi:namedview>
  <metadata
     id="metadata2198">
    <rdf:RDF>
      <cc:Work
         rdf:about="">
        <dc:format>image/svg+xml</dc:format>
        <dc:type
           rdf:resource="http://purl.org/dc/dcmitype/StillImage" />
        <dc:creator>
          <cc:Agent>
            <dc:title>Jarle Akselsen</dc:title>
          </cc:Agent>
        </dc:creator>
        <cc:license
           rdf:resource="http://creativecommons.org/licenses/GPL/2.0/" />
      </cc:Work>
      <cc:License
         rdf:about="http://creativecommons.org/licenses/GPL/2.0/">
        <cc:permits
           rdf:resource="http://web.resource.org/cc/Reproduction" />
        <cc:permits
           rdf:resource="http://web.resource.org/cc/Distribution" />
        <cc:requires
           rdf:resource="http://web.resource.org/cc/Notice" />
        <cc:permits
           rdf:resource="http://web.resource.org/cc/DerivativeWorks" />
        <cc:requires
           rdf:resource="http://web.resource.org/cc/ShareAlike" />
        <cc:requires
           rdf:resource="http://web.resource.org/cc/SourceCode" />
      </cc:License>
    </rdf:RDF>
  </metadata>
  <g
     id="layer1"
     inkscape:label="Layer 1"
     inkscape:groupmode="layer">
    <path
       style="opacity:1;fill:#888888;fill-opacity:1;fill-rule:evenodd;stroke:none;stroke-width:1px;stroke-linecap:butt;stroke-linejoin:miter;marker:none;marker-start:none;marker-mid:none;marker-end:none;stroke-miterlimit:4;stroke-dasharray:none;stroke-dashoffset:0;stroke-opacity:1;visibility:visible;display:inline;overflow:visible;enable-background:accumulate"
       d="M 21,2.71875 C 20.905817,2.71875 20.652813,2.7491464 20.5,2.84375 C 20.350897,2.9360566 20.269613,3.0021855 20.15625,3.21875 L 15.15625,19 L 15.125,19 L 15.125,19.0625 L 12.65625,26.875 L 12.5625,26.84375 L 12.21875,27.96875 L 12.75,28.3125 L 13.875,27.90625 L 14.03125,27.34375 L 13.9375,27.3125 L 14.59375,25.15625 L 18.65625,27.1875 L 18,29.875 L 17.9375,29.84375 L 17.59375,31.25 L 18.125,31.5625 L 19.34375,31.03125 L 19.46875,30.375 L 19.40625,30.34375 L 20.375,26 L 20.875,25.8125 L 20.875,25.3125 L 20.5625,25.15625 L 21.3125,21.9375 L 21.625,24.25 L 21.53125,24.28125 L 21.625,24.875 L 22.09375,25.09375 L 22.96875,24.78125 L 22.875,24.1875 L 22.84375,24.1875 L 22.75,23.53125 L 26.84375,25.1875 L 27.15625,26.59375 L 27.0625,26.625 L 27.1875,27.25 L 27.6875,27.46875 L 28.65625,27.0625 C 28.65625,27.0625 28.549331,26.489879 28.53125,26.40625 C 28.53125,26.40625 28.484444,26.381425 28.46875,26.375 C 28.228225,25.237846 25.50408,12.395697 25.5,12.375 C 25.341539,11.57108 25.149335,11.021663 24.96875,10.65625 C 24.908555,10.534446 24.871739,10.430154 24.8125,10.34375 C 24.575543,9.998136 24.340889,9.92065 24.1875,9.875 C 24.13865,9.860642 24.106747,9.852755 24.0625,9.84375 L 25.3125,4.28125 C 25.305981,4.094925 25.188549,3.869751 25.03125,3.6875 C 24.996313,3.6470215 24.902455,3.5561653 24.8125,3.46875 C 24.683992,3.3438709 24.550713,3.2150071 24.5,3.15625 C 24.342648,2.9739396 24.047521,2.84375 23.78125,2.84375 C 23.48395,2.84375 21.311924,2.71875 21,2.71875 z M 21.46875,3.625 L 24.3125,3.8125 L 21.9375,13.65625 L 21.6875,13.59375 L 21.65625,13.59375 L 21.25,13.65625 L 20.90625,11.4375 C 20.67946,10.296257 20.132399,9.345129 19.5,9.15625 C 19.47118,9.141287 19.460269,9.133745 19.4375,9.125 L 21,3.96875 C 21.094075,3.737218 21.267232,3.616711 21.46875,3.625 z M 19.1875,10 C 19.55925,10.37873 19.810445,11.272624 19.96875,12.0625 L 20.21875,13.8125 L 17.9375,14.15625 L 19.1875,10 z M 23.78125,10.90625 C 24.028311,11.231381 24.233891,11.78011 24.375,12.375 L 24.75,14.3125 L 23.09375,13.9375 L 23.78125,10.90625 z M 17.625,15.09375 L 20.46875,15.90625 L 20.8125,18.3125 L 20.5,19.53125 L 17.46875,18.5 L 16.5625,18.6875 L 17.625,15.09375 z M 24.90625,15.125 L 26.65625,24.09375 L 22.59375,22.53125 L 22.34375,20.71875 L 22.375,20.71875 L 22.375,20.1875 L 22.25,20.15625 L 22.03125,18.75 L 22.75,15.53125 L 24.90625,15.125 z M 16.0625,20.28125 L 19.9375,21.8125 L 19.28125,24.59375 L 16,23.125 L 15.125,23.375 L 16.0625,20.28125 z"
       id="path3515"
       sodipodi:nodetypes="cscccccccccccccccccccccccccccccccccccccccccssssccssssccccccccscccccccccccccccccccccccccccccccccccc" />
    <path
       style="opacity:0.52427183;fill:url(#linearGradient3805);fill-opacity:1;fill-rule:evenodd;stroke:none;stroke-width:1px;stroke-linecap:butt;stroke-linejoin:miter;marker:none;marker-start:none;marker-mid:none;marker-end:none;stroke-miterlimit:4;stroke-dasharray:none;stroke-dashoffset:0;stroke-opacity:1;visibility:visible;display:inline;overflow:visible;enable-background:accumulate"
       d="M 23.78125,9.8125 C 23.543043,9.8125 23.375001,10.011793 23.375,10.25 C 23.375,10.451559 23.500598,10.608889 23.6875,10.65625 C 23.740837,10.650841 23.793528,10.671754 23.84375,10.6875 C 24.249991,10.814866 24.550481,11.596372 24.75,12.4375 L 27.71875,27.375 L 28.59375,27 C 28.59375,27 25.503186,12.391167 25.5,12.375 C 25.077437,10.231213 24.494279,9.9663 24.1875,9.875 C 24.13865,9.860642 24.106747,9.852755 24.0625,9.84375 C 23.964993,9.823905 23.863177,9.8125 23.78125,9.8125 z"
       id="path3540"
       sodipodi:nodetypes="cssscccsssc" />
    <path
       style="opacity:0.75;fill:url(#linearGradient3729);fill-opacity:1;fill-rule:nonzero;stroke:none;stroke-width:10;stroke-linecap:round;stroke-linejoin:round;stroke-miterlimit:4;stroke-dasharray:none;stroke-opacity:1"
       d="M 21,2.71875 C 20.905817,2.71875 20.652813,2.7491464 20.5,2.84375 C 20.350897,2.9360566 20.269613,3.0021855 20.15625,3.21875 L 12.3125,27.9375 L 12.71875,28.25 L 20.5,3.46875 C 20.594075,3.2372181 20.767232,3.1167108 20.96875,3.125 L 23.8125,3.28125 C 24.090443,3.3129151 24.332445,3.5190946 24.3125,3.8125 L 17.6875,31.1875 L 18.09375,31.5 L 23.125,10.46875 C 23.061008,10.393965 23.031251,10.304044 23.03125,10.1875 C 23.031251,9.98771 23.138859,9.85471 23.3125,9.8125 L 24.75,3.75 C 24.743481,3.5636755 24.657299,3.3385006 24.5,3.15625 C 24.342648,2.9739396 24.047521,2.84375 23.78125,2.84375 C 23.48395,2.84375 21.311924,2.71875 21,2.71875 z"
       id="path2376"
       sodipodi:nodetypes="csccccccccccsccssc" />
    <path
       style="opacity:0.52427183;fill:#2c72c7;fill-opacity:1;fill-rule:evenodd;stroke:none;stroke-width:1px;stroke-linecap:butt;stroke-linejoin:miter;marker:none;marker-start:none;marker-mid:none;marker-end:none;stroke-miterlimit:4;stroke-dasharray:none;stroke-dashoffset:0;stroke-opacity:1;visibility:visible;display:inline;overflow:visible;enable-background:accumulate"
       d="M 21.53125,24.28125 L 21.625,24.875 L 22.09375,25.09375 L 22,24.46875 L 21.53125,24.28125 z M 27.0625,26.625 L 27.1875,27.25 L 27.6875,27.46875 L 27.5625,26.8125 L 27.0625,26.625 z"
       id="path3478" />
    <path
       style="opacity:0.44672134;fill:url(#linearGradient3714);fill-opacity:1;fill-rule:evenodd;stroke:none;stroke-width:1px;stroke-linecap:butt;stroke-linejoin:miter;marker:none;marker-start:none;marker-mid:none;marker-end:none;stroke-miterlimit:4;stroke-dasharray:none;stroke-dashoffset:0;stroke-opacity:1;visibility:visible;display:inline;overflow:visible;enable-background:accumulate"
       d="M 20.96875,3.125 C 20.767232,3.116711 20.594075,3.237218 20.5,3.46875 L 12.71875,28.25 L 13.78125,27.875 L 21,3.96875 C 21.094075,3.737218 21.267232,3.616711 21.46875,3.625 L 24.3125,3.8125 C 24.332445,3.519095 24.090443,3.312915 23.8125,3.28125 L 20.96875,3.125 z"
       id="path3518"
       sodipodi:nodetypes="ccccccccc" />
    <path
       style="opacity:0.5;fill:url(#linearGradient3581);fill-opacity:1;fill-rule:evenodd;stroke:none;stroke-width:1px;stroke-linecap:butt;stroke-linejoin:miter;marker:none;marker-start:none;marker-mid:none;marker-end:none;stroke-miterlimit:4;stroke-dasharray:none;stroke-dashoffset:0;stroke-opacity:1;visibility:visible;display:inline;overflow:visible;enable-background:accumulate"
       d="M 24.5,3.15625 C 24.657299,3.338501 24.743481,3.563675 24.75,3.75 L 23.3125,9.8125 C 23.344071,9.804826 23.369925,9.78125 23.40625,9.78125 C 23.51528,9.78125 23.641529,9.774452 23.78125,9.8125 C 23.863177,9.8125 23.964993,9.823905 24.0625,9.84375 L 25.3125,4.28125 C 25.305981,4.094925 25.188549,3.869751 25.03125,3.6875 C 24.996313,3.6470215 24.902455,3.5561653 24.8125,3.46875 C 24.683992,3.3438709 24.550713,3.2150071 24.5,3.15625 z M 23.125,10.46875 L 18.09375,31.5 L 19.25,31 L 23.8125,10.9375 C 23.706897,10.790019 23.593181,10.664012 23.46875,10.625 C 23.41897,10.609392 23.365367,10.588389 23.3125,10.59375 C 23.235308,10.57419 23.170709,10.522168 23.125,10.46875 z"
       id="path3446" />
    <path
       style="opacity:0.5;fill:url(#linearGradient3844);fill-opacity:1;fill-rule:evenodd;stroke:none;stroke-width:1px;stroke-linecap:butt;stroke-linejoin:miter;marker:none;marker-start:none;marker-mid:none;marker-end:none;stroke-miterlimit:4;stroke-dasharray:none;stroke-dashoffset:0;stroke-opacity:1;visibility:visible;display:inline;overflow:visible;enable-background:accumulate"
       d="M 23.40625,9.78125 C 23.387086,9.775774 23.078298,9.831799 23.035156,10.105469 C 22.992186,10.378048 23.083117,10.501003 23.339538,10.594796 C 23.504806,10.655247 23.640424,10.704615 23.65625,10.75 C 23.675676,10.805709 23.740115,10.852117 23.78125,10.90625 C 23.790905,10.91915 23.802978,10.924203 23.8125,10.9375 C 24.04864,11.267284 24.238347,11.798896 24.375,12.375 L 27.25,27.1875 L 27.71875,27.375 L 24.75,12.4375 C 24.550481,11.596372 24.249991,10.814866 23.84375,10.6875 C 23.793528,10.671754 23.740837,10.650841 23.6875,10.65625 C 23.500598,10.608889 23.375,10.451559 23.375,10.25 C 23.375001,10.011793 23.543043,9.8125 23.78125,9.8125 C 23.641529,9.774452 23.51528,9.78125 23.40625,9.78125 z M 19.21875,9.90625 L 19.1875,10 C 19.55925,10.37873 19.810445,11.272624 19.96875,12.0625 L 20.1875,13.8125 L 20.21875,13.8125 L 20.4375,13.78125 L 20.53125,13.78125 L 20.3125,12.125 C 20.12515,11.190205 19.763696,10.116608 19.28125,9.90625 C 19.258897,9.896504 19.237708,9.911621 19.21875,9.90625 z M 20.5,15.90625 L 20.8125,18.28125 L 21.03125,17.3125 L 20.84375,15.90625 L 20.625,15.9375 L 20.5,15.90625 z M 21.53125,20.9375 L 21.3125,21.9375 L 21.6875,24.8125 L 22.125,25 L 21.5625,20.9375 L 21.53125,20.9375 z"
       id="path3544"
       sodipodi:nodetypes="csssssccccsssscccccccccsccccccccccccc" />
    <path
       style="opacity:1;fill:#888888;fill-opacity:1;fill-rule:evenodd;stroke:none;stroke-width:1px;stroke-linecap:butt;stroke-linejoin:miter;marker:none;marker-start:none;marker-mid:none;marker-end:none;stroke-miterlimit:4;stroke-dasharray:none;stroke-dashoffset:0;stroke-opacity:1;visibility:visible;display:inline;overflow:visible;enable-background:accumulate"
       d="M 21.65625,13.59375 L 21.40625,13.625 L 21.375,13.625 L 21.125,13.6875 L 21.0625,13.6875 L 20.75,13.75 L 20.4375,13.78125 L 20.1875,13.8125 L 20.15625,13.8125 L 19.84375,13.875 L 19.53125,13.9375 L 19.21875,13.96875 L 18.9375,14 L 18.90625,14 L 18.59375,14.0625 L 18.28125,14.125 L 18,14.15625 L 17.71875,14.1875 L 17.6875,14.1875 L 17.40625,14.25 L 17.375,14.25 L 17.0625,14.3125 L 16.75,14.34375 L 16.75,14.84375 L 18.6875,15.375 L 20.125,15.8125 L 20.625,15.9375 L 21.40625,15.78125 L 21.9375,13.65625 L 21.6875,13.59375 L 21.65625,13.59375 z M 23.125,13.9375 L 22.78125,15.53125 L 25.53125,15 L 25.53125,14.5 L 25.3125,14.4375 L 25.0625,14.375 L 25.03125,14.375 L 23.125,13.9375 z M 17.46875,18.5 L 17.1875,18.5625 L 17,18.59375 L 16.875,18.625 L 16.59375,18.6875 L 16.3125,18.75 L 16,18.8125 L 15.71875,18.875 L 15.40625,18.9375 L 15.125,19 L 15.125,19.5 L 15.59375,19.6875 L 15.59375,20.09375 L 19.96875,21.8125 L 20.03125,21.53125 L 20.0625,21.34375 L 20.5,19.53125 L 18.09375,18.71875 L 17.46875,18.5 z M 21.75,19.96875 L 21.53125,20.9375 L 22.375,20.71875 L 22.375,20.1875 L 21.75,19.96875 z M 16,23.125 L 15.71875,23.21875 L 15.53125,23.25 L 15.4375,23.28125 L 15.15625,23.375 L 15.03125,23.40625 L 14.875,23.4375 L 14.5625,23.53125 L 14.28125,23.625 L 14.03125,23.6875 L 14,23.6875 L 13.71875,23.78125 L 13.71875,24.25 L 14.125,24.4375 L 14.125,24.90625 L 18.65625,27.1875 L 18.8125,26.59375 L 19.28125,24.59375 L 16.625,23.40625 L 16,23.125 z M 20.5625,25.15625 L 20.375,26 L 20.875,25.8125 L 20.875,25.3125 L 20.5625,25.15625 z"
       id="path3792" />
    <path
       sodipodi:nodetypes="ccscccccccsccccccccccccccccccc"
       id="path3797"
       d="M 19.4375,9.125 L 19.21875,9.90625 C 19.237708,9.911621 19.258897,9.896504 19.28125,9.90625 C 19.763696,10.116608 20.12515,11.190205 20.3125,12.125 L 20.53125,13.78125 L 20.75,13.75 L 21.0625,13.6875 L 21.125,13.6875 L 21.25,13.65625 L 20.90625,11.4375 C 20.67946,10.296257 20.132399,9.345129 19.5,9.15625 C 19.47118,9.141287 19.460269,9.133745 19.4375,9.125 z M 21.40625,15.78125 L 20.84375,15.90625 L 21.03125,17.3125 L 21.40625,15.78125 z M 22.03125,18.75 L 21.75,19.96875 L 22.25,20.125 L 22.03125,18.75 z M 22.3125,20.71875 L 21.5625,20.9375 L 22.125,25 L 22.9375,24.71875 L 22.75,23.53125 L 22.0625,23.25 L 21.96875,22.59375 L 22.4375,22.46875 L 22.59375,22.53125 L 22.3125,20.71875 z"
       style="opacity:0.52427183;fill:url(#linearGradient3807);fill-opacity:1;fill-rule:evenodd;stroke:none;stroke-width:1px;stroke-linecap:butt;stroke-linejoin:miter;marker:none;marker-start:none;marker-mid:none;marker-end:none;stroke-miterlimit:4;stroke-dasharray:none;stroke-dashoffset:0;stroke-opacity:1;visibility:visible;display:inline;overflow:visible;enable-background:accumulate" />
    <path
       style="opacity:0.35;fill:url(#linearGradient3919);fill-opacity:1;fill-rule:evenodd;stroke:none;stroke-width:1px;stroke-linecap:butt;stroke-linejoin:miter;marker:none;marker-start:none;marker-mid:none;marker-end:none;stroke-miterlimit:4;stroke-dasharray:none;stroke-dashoffset:0;stroke-opacity:1;visibility:visible;display:inline;overflow:visible;enable-background:accumulate"
       d="M 21.96875,22.59375 L 22.0625,23.25 L 26.84375,25.1875 L 26.71875,24.4375 L 21.96875,22.59375 z"
       id="path3829" />
    <path
       style="opacity:0.5;fill:#ffffff;fill-opacity:1;fill-rule:evenodd;stroke:none;stroke-width:1px;stroke-linecap:butt;stroke-linejoin:miter;marker:none;marker-start:none;marker-mid:none;marker-end:none;stroke-miterlimit:4;stroke-dasharray:none;stroke-dashoffset:0;stroke-opacity:1;visibility:visible;display:inline;overflow:visible;enable-background:accumulate"
       d="M 22.4375,22.46875 L 21.96875,22.59375 L 26.71875,24.4375 L 26.65625,24.09375 L 22.4375,22.46875 z"
       id="path3831" />
    <path
       style="opacity:0.52427183;fill:#555753;fill-opacity:1;fill-rule:evenodd;stroke:none;stroke-width:1px;stroke-linecap:butt;stroke-linejoin:miter;marker:none;marker-start:none;marker-mid:none;marker-end:none;stroke-miterlimit:4;stroke-dasharray:none;stroke-dashoffset:0;stroke-opacity:1;visibility:visible;display:inline;overflow:visible;enable-background:accumulate"
       d="M 21.90625,13.75 L 21.5625,13.8125 L 21.875,13.875 L 21.90625,13.75 z M 21.21875,13.84375 L 20.90625,13.90625 L 21.8125,14.125 L 21.84375,14 L 21.21875,13.84375 z M 20.65625,13.9375 L 20.3125,14 L 21.75,14.34375 L 21.78125,14.21875 L 20.65625,13.9375 z M 23.09375,14.03125 L 23.0625,14.1875 L 24.375,14.5 L 24.71875,14.4375 L 23.09375,14.03125 z M 19.96875,14.0625 L 19.71875,14.09375 L 21.71875,14.59375 L 21.71875,14.46875 L 19.96875,14.0625 z M 19.4375,14.125 L 19.09375,14.1875 L 21.65625,14.84375 L 21.6875,14.71875 L 19.4375,14.125 z M 18.75,14.25 L 18.46875,14.28125 L 21.375,15.03125 L 21.59375,15 L 21.59375,15.09375 L 21.625,14.96875 L 18.75,14.25 z M 23.0625,14.28125 L 23.03125,14.40625 L 23.8125,14.59375 L 24.125,14.53125 L 23.0625,14.28125 z M 18.1875,14.3125 L 17.84375,14.375 L 20.8125,15.125 L 21.0625,15.09375 L 18.1875,14.3125 z M 17.5,14.4375 L 17.25,14.46875 L 20.15625,15.25 L 20.46875,15.1875 L 17.5,14.4375 z M 23,14.53125 L 22.96875,14.625 L 23.25,14.6875 L 23.5,14.65625 L 23,14.53125 z M 17.8125,18.78125 L 17.5,18.84375 L 20.4375,19.875 L 20.46875,19.6875 L 17.8125,18.78125 z M 17.21875,18.90625 L 16.9375,18.96875 L 20.34375,20.1875 L 20.375,20.03125 L 17.21875,18.90625 z M 16.625,19.03125 L 16.3125,19.09375 L 20,20.4375 L 20.3125,20.34375 L 16.625,19.03125 z M 16,19.15625 L 15.75,19.21875 L 19.40625,20.59375 L 19.6875,20.53125 L 16,19.15625 z M 20.21875,20.75 L 20,20.8125 L 20.21875,20.78125 L 20.21875,20.75 z M 16.34375,23.5 L 16.0625,23.5625 L 19.1875,25 L 19.25,24.78125 L 16.34375,23.5 z M 15.75,23.65625 L 15.5,23.71875 L 19.09375,25.40625 L 19.125,25.21875 L 15.75,23.65625 z M 15.1875,23.8125 L 14.875,23.90625 L 18.5625,25.65625 L 18.84375,25.53125 L 15.1875,23.8125 z M 14.59375,23.96875 L 14.3125,24.0625 L 18,25.84375 L 18.28125,25.75 L 14.59375,23.96875 z"
       id="path3545" />
    <path
       style="opacity:0.52427183;fill:#babdb6;fill-opacity:1;fill-rule:evenodd;stroke:none;stroke-width:1px;stroke-linecap:butt;stroke-linejoin:miter;marker:none;marker-start:none;marker-mid:none;marker-end:none;stroke-miterlimit:4;stroke-dasharray:none;stroke-dashoffset:0;stroke-opacity:1;visibility:visible;display:inline;overflow:visible;enable-background:accumulate"
       d="M 21.5625,13.8125 L 21.21875,13.84375 L 21.84375,14 L 21.875,13.875 L 21.5625,13.8125 z M 20.90625,13.90625 L 20.65625,13.9375 L 21.78125,14.21875 L 21.8125,14.125 L 20.90625,13.90625 z M 23.125,13.9375 L 23.09375,14.03125 L 24.71875,14.4375 L 25.03125,14.375 L 23.125,13.9375 z M 20.3125,14 L 19.96875,14.0625 L 21.71875,14.46875 L 21.75,14.34375 L 20.3125,14 z M 19.71875,14.09375 L 19.4375,14.125 L 21.6875,14.71875 L 21.71875,14.59375 L 19.71875,14.09375 z M 19.09375,14.1875 L 18.75,14.25 L 21.625,14.96875 L 21.65625,14.84375 L 19.09375,14.1875 z M 23.0625,14.1875 L 23.0625,14.28125 L 24.125,14.53125 L 24.375,14.5 L 23.0625,14.1875 z M 18.46875,14.28125 L 18.1875,14.3125 L 21.0625,15.09375 L 21.375,15.03125 L 18.46875,14.28125 z M 17.84375,14.375 L 17.5,14.4375 L 20.46875,15.1875 L 20.8125,15.125 L 17.84375,14.375 z M 23.03125,14.40625 L 23,14.53125 L 23.5,14.65625 L 23.8125,14.59375 L 23.03125,14.40625 z M 22.96875,14.625 L 22.9375,14.75 L 23.25,14.6875 L 22.96875,14.625 z M 18.09375,18.71875 L 17.8125,18.78125 L 20.46875,19.6875 L 20.5,19.53125 L 18.09375,18.71875 z M 17.5,18.84375 L 17.21875,18.90625 L 20.375,20.03125 L 20.4375,19.875 L 17.5,18.84375 z M 16.9375,18.96875 L 16.625,19.03125 L 20.3125,20.34375 L 20.34375,20.1875 L 16.9375,18.96875 z M 16.3125,19.09375 L 16,19.15625 L 19.6875,20.53125 L 20,20.4375 L 16.3125,19.09375 z M 16.625,23.40625 L 16.34375,23.5 L 19.25,24.78125 L 19.28125,24.59375 L 16.625,23.40625 z M 16.0625,23.5625 L 15.75,23.65625 L 19.125,25.21875 L 19.1875,25 L 16.0625,23.5625 z M 15.5,23.71875 L 15.1875,23.8125 L 18.84375,25.53125 L 19.0625,25.46875 L 19.09375,25.40625 L 15.5,23.71875 z M 14.875,23.90625 L 14.59375,23.96875 L 18.28125,25.75 L 18.5625,25.65625 L 14.875,23.90625 z"
       id="path3581" />
    <path
       id="path2362"
       d="M 16.75,14.34375 L 16.75,14.84375 L 20.625,15.9375 L 20.625,15.375 L 16.75,14.34375 z M 15.125,19 L 15.125,19.5 L 20,21.375 L 20,20.8125 L 15.125,19 z M 13.71875,23.78125 L 13.71875,24.25 L 18.59375,26.65625 L 18.59375,26.125 L 13.71875,23.78125 z"
       style="opacity:0.8;fill:#ffffff;fill-opacity:1;fill-rule:evenodd;stroke:none;stroke-width:1px;stroke-linecap:butt;stroke-linejoin:miter;marker:none;marker-start:none;marker-mid:none;marker-end:none;stroke-miterlimit:4;stroke-dasharray:none;stroke-dashoffset:0;stroke-opacity:1;visibility:visible;display:inline;overflow:visible;enable-background:accumulate" />
    <path
       style="opacity:0.52427183;fill:url(#linearGradient3867);fill-opacity:1;fill-rule:evenodd;stroke:none;stroke-width:1px;stroke-linecap:butt;stroke-linejoin:miter;marker:none;marker-start:none;marker-mid:none;marker-end:none;stroke-miterlimit:4;stroke-dasharray:none;stroke-dashoffset:0;stroke-opacity:1;visibility:visible;display:inline;overflow:visible;enable-background:accumulate"
       d="M 25.53125,14.5 L 22.90625,14.96875 L 22.78125,15.53125 L 25.53125,15 L 25.53125,14.5 z M 21.5625,15.21875 L 20.625,15.375 L 20.625,15.9375 L 21.40625,15.78125 L 21.5625,15.21875 z M 22.375,20.1875 L 21.65625,20.375 L 21.53125,20.9375 L 22.375,20.71875 L 22.375,20.1875 z M 20.21875,20.75 L 20,20.8125 L 20,21.375 L 20.0625,21.34375 L 20.21875,20.75 z M 20.875,25.3125 L 20.5,25.4375 L 20.375,26 L 20.875,25.8125 L 20.875,25.3125 z M 18.9375,26 L 18.59375,26.125 L 18.59375,26.65625 L 18.8125,26.59375 L 18.9375,26 z"
       id="path3658" />
    <path
       style="opacity:0.25;fill:url(#linearGradient3875);fill-opacity:1;fill-rule:nonzero;stroke:none;stroke-width:10;stroke-linecap:round;stroke-linejoin:round;stroke-miterlimit:4;stroke-dasharray:none;stroke-opacity:1"
       d="M 15.59375,19.6875 L 15.59375,20.09375 L 19.96875,21.8125 L 20.0625,21.34375 L 20,21.375 L 15.59375,19.6875 z M 14.125,24.4375 L 14.125,24.90625 L 18.65625,27.1875 L 18.8125,26.59375 L 18.59375,26.65625 L 14.125,24.4375 z"
       id="rect3340" />
    <path
       style="opacity:0.64179107;fill:#000000;fill-opacity:1;fill-rule:evenodd;stroke:none;stroke-width:1px;stroke-linecap:butt;stroke-linejoin:miter;marker:none;marker-start:none;marker-mid:none;marker-end:none;stroke-miterlimit:4;stroke-dasharray:none;stroke-dashoffset:0;stroke-opacity:1;visibility:visible;display:inline;overflow:visible;enable-background:accumulate"
       d="M 16.75,14.34375 L 16.75,14.84375 L 17.25,14.96875 L 17.25,14.46875 L 16.75,14.34375 z M 20.125,15.25 L 20.125,15.78125 L 20.125,15.8125 L 20.625,15.9375 L 20.625,15.375 L 20.125,15.25 z M 15.125,19 L 15.125,19.5 L 15.75,19.75 L 15.75,19.21875 L 15.125,19 z M 19.375,20.59375 L 19.375,21.125 L 20,21.375 L 20,20.8125 L 19.375,20.59375 z M 13.71875,23.78125 L 13.71875,24.25 L 14.3125,24.53125 L 14.3125,24.0625 L 13.71875,23.78125 z M 18,25.84375 L 18,26.34375 L 18.59375,26.65625 L 18.59375,26.125 L 18,25.84375 z"
       id="path3621" />
    <path
       style="opacity:0.5;fill:#000000;fill-opacity:1;fill-rule:evenodd;stroke:none;stroke-width:1px;stroke-linecap:butt;stroke-linejoin:miter;marker:none;marker-start:none;marker-mid:none;marker-end:none;stroke-miterlimit:4;stroke-dasharray:none;stroke-dashoffset:0;stroke-opacity:1;visibility:visible;display:inline;overflow:visible;enable-background:accumulate"
       d="M 21.6875,13.59375 L 16.75,14.34375 L 17.25,14.46875 L 21.90625,13.75 L 21.9375,13.65625 L 21.6875,13.59375 z M 25.03125,14.375 L 22.9375,14.75 L 22.90625,14.96875 L 25.5625,14.5 L 25.0625,14.375 L 25.03125,14.375 z M 21.59375,15 L 20.15625,15.25 L 20.625,15.375 L 21.5625,15.21875 L 21.59375,15 z M 17.46875,18.5 L 15.125,19 L 15.75,19.21875 L 18.09375,18.71875 L 17.46875,18.5 z M 21.75,19.96875 L 21.65625,20.375 L 22.375,20.1875 L 21.75,19.96875 z M 20.3125,20.34375 L 19.40625,20.59375 L 20,20.8125 L 20.21875,20.75 L 20.3125,20.34375 z M 16,23.125 L 13.71875,23.78125 L 14.3125,24.0625 L 16.625,23.40625 L 16,23.125 z M 20.5625,25.15625 L 20.5,25.4375 L 20.90625,25.3125 L 20.5625,25.15625 z M 19.0625,25.46875 L 18,25.84375 L 18.59375,26.125 L 18.9375,26 L 19.0625,25.46875 z"
       id="path3905" />
    <path
       style="opacity:1;fill:#555555;fill-opacity:1;fill-rule:evenodd;stroke:none;stroke-width:1px;stroke-linecap:butt;stroke-linejoin:miter;marker:none;marker-start:none;marker-mid:none;marker-end:none;stroke-miterlimit:4;stroke-dasharray:none;stroke-dashoffset:0;stroke-opacity:1;visibility:visible;display:inline;overflow:visible;enable-background:accumulate"
       d="M 22.8125,24.15625 L 22.03125,24.40625 L 21.625,24.25 L 21.59375,24.25 L 21.53125,24.28125 L 21.625,24.875 L 22.09375,25.09375 L 22.96875,24.78125 L 22.875,24.1875 L 22.84375,24.15625 L 22.8125,24.15625 z M 28.46875,26.375 L 27.59375,26.75 L 27.125,26.59375 L 27.0625,26.625 L 27.1875,27.25 L 27.6875,27.46875 L 28.65625,27.0625 C 28.65625,27.0625 28.549331,26.489879 28.53125,26.40625 C 28.53125,26.40625 28.484444,26.381425 28.46875,26.375 z"
       id="path3933" />
    <path
       id="path3941"
       d="M 21.53125,24.28125 L 21.625,24.875 L 22.09375,25.09375 L 22,24.46875 L 21.53125,24.28125 z M 27.0625,26.625 L 27.1875,27.25 L 27.6875,27.46875 L 27.5625,26.8125 L 27.0625,26.625 z"
       style="opacity:0.1;fill:url(#linearGradient3980);fill-opacity:1;fill-rule:evenodd;stroke:none;stroke-width:1px;stroke-linecap:butt;stroke-linejoin:miter;marker:none;marker-start:none;marker-mid:none;marker-end:none;stroke-miterlimit:4;stroke-dasharray:none;stroke-dashoffset:0;stroke-opacity:1;visibility:visible;display:inline;overflow:visible;enable-background:accumulate" />
    <path
       style="opacity:0.52427183;fill:url(#linearGradient3989);fill-opacity:1;fill-rule:evenodd;stroke:none;stroke-width:1px;stroke-linecap:butt;stroke-linejoin:miter;marker:none;marker-start:none;marker-mid:none;marker-end:none;stroke-miterlimit:4;stroke-dasharray:none;stroke-dashoffset:0;stroke-opacity:1;visibility:visible;display:inline;overflow:visible;enable-background:accumulate"
       d="M 22.875,24.1875 L 22,24.46875 L 22.09375,25.09375 L 22.96875,24.78125 L 22.875,24.1875 z M 28.53125,26.40625 L 27.5625,26.8125 L 27.6875,27.46875 L 28.65625,27.0625 C 28.65625,27.0625 28.549331,26.489879 28.53125,26.40625 z"
       id="path3474" />
    <path
       style="opacity:1;fill:#555555;fill-opacity:1;fill-rule:evenodd;stroke:none;stroke-width:1px;stroke-linecap:butt;stroke-linejoin:miter;marker:none;marker-start:none;marker-mid:none;marker-end:none;stroke-miterlimit:4;stroke-dasharray:none;stroke-dashoffset:0;stroke-opacity:1;visibility:visible;display:inline;overflow:visible;enable-background:accumulate"
       d="M 12.5625,26.84375 L 12.21875,27.96875 L 12.75,28.3125 L 13.875,27.90625 L 14.03125,27.34375 L 13.125,27.125 L 12.5625,26.84375 z M 17.9375,29.84375 L 17.59375,31.25 L 18.125,31.5625 L 19.34375,31.03125 L 19.46875,30.375 L 18.53125,30.09375 L 17.9375,29.84375 z"
       id="path3943" />
    <path
       style="opacity:0.1;fill:url(#linearGradient3959);fill-opacity:1;fill-rule:evenodd;stroke:none;stroke-width:1px;stroke-linecap:butt;stroke-linejoin:miter;marker:none;marker-start:none;marker-mid:none;marker-end:none;stroke-miterlimit:4;stroke-dasharray:none;stroke-dashoffset:0;stroke-opacity:1;visibility:visible;display:inline;overflow:visible;enable-background:accumulate"
       d="M 12.5625,26.84375 L 12.21875,27.96875 L 12.75,28.3125 L 13.125,27.125 L 12.5625,26.84375 z M 17.9375,29.84375 L 17.59375,31.25 L 18.125,31.5625 L 18.53125,30.09375 L 17.9375,29.84375 z"
       id="path3948"
       sodipodi:nodetypes="cccccccccc" />
    <path
       style="opacity:0.52427183;fill:url(#linearGradient3972);fill-opacity:1;fill-rule:evenodd;stroke:none;stroke-width:1px;stroke-linecap:butt;stroke-linejoin:miter;marker:none;marker-start:none;marker-mid:none;marker-end:none;stroke-miterlimit:4;stroke-dasharray:none;stroke-dashoffset:0;stroke-opacity:1;visibility:visible;display:inline;overflow:visible;enable-background:accumulate"
       d="M 12.75,28.3125 L 13.875,27.90625 L 14.03125,27.34375 L 13.125,27.125 L 12.75,28.3125 z M 18.125,31.5625 L 19.34375,31.03125 L 19.46875,30.375 L 18.53125,30.09375 L 18.125,31.5625 z"
       id="path3961"
       sodipodi:nodetypes="cccccccccc" />
    <path
       transform="matrix(0.2273531,0,0,0.4961879,9.08076,-26.316862)"
       d="M 127.82442,115.70919 A 63.912209,12.641975 0 1 1 0,115.70919 A 63.912209,12.641975 0 1 1 127.82442,115.70919 z"
       sodipodi:ry="12.641975"
       sodipodi:rx="63.912209"
       sodipodi:cy="115.70919"
       sodipodi:cx="63.912209"
       id="path2593"
       style="opacity:0.15;fill:url(#radialGradient2595);fill-opacity:1;fill-rule:nonzero;stroke:none;stroke-width:0;stroke-linecap:round;stroke-linejoin:round;stroke-miterlimit:4;stroke-dasharray:none;stroke-dashoffset:4;stroke-opacity:1"
       sodipodi:type="arc" />
    <path
       style="opacity:0.85;fill:url(#linearGradient4007);fill-opacity:1;fill-rule:evenodd;stroke:none;stroke-width:1px;stroke-linecap:butt;stroke-linejoin:miter;marker:none;marker-start:none;marker-mid:none;marker-end:none;stroke-miterlimit:4;stroke-dasharray:none;stroke-dashoffset:0;stroke-opacity:1;visibility:visible;display:inline;overflow:visible;enable-background:accumulate"
       d="M 23.40625,9.78125 C 23.387086,9.775774 23.074392,9.82008 23.03125,10.09375 C 22.98828,10.366329 23.087329,10.499957 23.34375,10.59375 C 23.36797,10.602609 23.383742,10.616556 23.40625,10.625 L 23.6875,10.65625 C 23.500598,10.608889 23.375,10.451559 23.375,10.25 C 23.375001,10.011793 23.543043,9.8125 23.78125,9.8125 C 23.641529,9.774452 23.51528,9.78125 23.40625,9.78125 z"
       id="path3995" />
    <path
       sodipodi:type="arc"
       style="opacity:0.85;fill:url(#radialGradient4017);fill-opacity:1;stroke:none;stroke-width:0.80000001;stroke-miterlimit:4;stroke-dasharray:none;stroke-opacity:1"
       id="path4009"
       sodipodi:cx="23.796875"
       sodipodi:cy="12.265625"
       sodipodi:rx="0.0859375"
       sodipodi:ry="0.1171875"
       d="M 23.882812,12.265625 A 0.0859375,0.1171875 0 1 1 23.710938,12.265625 A 0.0859375,0.1171875 0 1 1 23.882812,12.265625 z"
       transform="translate(-3.90625e-2,-2.0546875)" />
    <path
       transform="matrix(0.7999999,0,0,0.7999999,-6.0937568e-2,-0.3984375)"
       d="M 23.882812,12.265625 A 0.0859375,0.1171875 0 1 1 23.710938,12.265625 A 0.0859375,0.1171875 0 1 1 23.882812,12.265625 z"
       sodipodi:ry="0.1171875"
       sodipodi:rx="0.0859375"
       sodipodi:cy="12.265625"
       sodipodi:cx="23.796875"
       id="path4019"
       style="opacity:0.85;fill:url(#radialGradient4021);fill-opacity:1;stroke:none;stroke-width:0.80000001;stroke-miterlimit:4;stroke-dasharray:none;stroke-opacity:1"
       sodipodi:type="arc" />
    <rect
       style="opacity:0.61162792;fill:#555753;fill-opacity:1;fill-rule:nonzero;stroke:none;stroke-width:0.69999999;stroke-linecap:round;stroke-linejoin:miter;stroke-miterlimit:4;stroke-dasharray:none;stroke-opacity:1"
       id="rect1951"
       width="40.001965"
       height="10.004759"
       x="-0.0019644466"
       y="30" />
    <text
       xml:space="preserve"
       style="font-size:12px;font-style:normal;font-weight:normal;fill:#eeeeec;fill-opacity:1;stroke:none;stroke-width:1px;stroke-linecap:butt;stroke-linejoin:miter;stroke-opacity:1;font-family:Bitstream Vera Sans"
       x="14.782969"
       y="39.168156"
       id="text2840"><tspan
         sodipodi:role="line"
         id="tspan2842"
         x="14.782969"
         y="39.168156">Al</tspan></text>
  </g>
</svg>
