<?xml version="1.0" encoding="UTF-8" standalone="no"?>
<!-- Created with Inkscape (http://www.inkscape.org/) -->
<svg
   xmlns:dc="http://purl.org/dc/elements/1.1/"
   xmlns:cc="http://web.resource.org/cc/"
   xmlns:rdf="http://www.w3.org/1999/02/22-rdf-syntax-ns#"
   xmlns:svg="http://www.w3.org/2000/svg"
   xmlns="http://www.w3.org/2000/svg"
   xmlns:xlink="http://www.w3.org/1999/xlink"
   xmlns:sodipodi="http://sodipodi.sourceforge.net/DTD/sodipodi-0.dtd"
   xmlns:inkscape="http://www.inkscape.org/namespaces/inkscape"
   width="40"
   height="40"
   id="svg2193"
   sodipodi:version="0.32"
   inkscape:version="0.45.1"
   version="1.0"
   sodipodi:docbase="/home/jra/Desktop"
   sodipodi:docname="glass49edited.svg"
   inkscape:output_extension="org.inkscape.output.svg.inkscape">
  <defs
     id="defs2195">
    <linearGradient
       id="linearGradient3462">
      <stop
         id="stop3464"
         offset="0"
         style="stop-color:#000000;stop-opacity:0.90909094;" />
      <stop
         style="stop-color:#000000;stop-opacity:0;"
         offset="0.5"
         id="stop3466" />
      <stop
         id="stop3468"
         offset="1"
         style="stop-color:#000000;stop-opacity:0;" />
    </linearGradient>
    <linearGradient
       id="linearGradient3414">
      <stop
         style="stop-color:#000000;stop-opacity:0.23232323;"
         offset="0"
         id="stop3417" />
      <stop
         id="stop3419"
         offset="0.18000001"
         style="stop-color:#ffffff;stop-opacity:0.36363637;" />
      <stop
         style="stop-color:#000000;stop-opacity:0.26262626;"
         offset="0.32875001"
         id="stop3421" />
      <stop
         style="stop-color:#000000;stop-opacity:0;"
         offset="0.75"
         id="stop3423" />
      <stop
         style="stop-color:#000000;stop-opacity:0.16161616;"
         offset="1"
         id="stop3425" />
    </linearGradient>
    <linearGradient
       id="linearGradient3406">
      <stop
         style="stop-color:#000000;stop-opacity:0;"
         offset="0"
         id="stop3408" />
      <stop
         id="stop3410"
         offset="0.18000001"
         style="stop-color:#ffffff;stop-opacity:0.27272728;" />
      <stop
         style="stop-color:#000000;stop-opacity:0.22352941;"
         offset="0.32249999"
         id="stop3418" />
      <stop
         id="stop3420"
         offset="0.36406249"
         style="stop-color:#ffffff;stop-opacity:0.2;" />
      <stop
         style="stop-color:#000000;stop-opacity:0.1882353;"
         offset="0.41453123"
         id="stop3422" />
      <stop
         style="stop-color:#ffffff;stop-opacity:0.18039216;"
         offset="0.465"
         id="stop3412" />
      <stop
         style="stop-color:#000000;stop-opacity:0.27058825;"
         offset="0.75"
         id="stop3414" />
      <stop
         style="stop-color:#000000;stop-opacity:0;"
         offset="1"
         id="stop3416" />
    </linearGradient>
    <linearGradient
       id="linearGradient3330">
      <stop
         style="stop-color:#ffffff;stop-opacity:0;"
         offset="0"
         id="stop3332" />
      <stop
         id="stop3338"
         offset="0.5"
         style="stop-color:#ffffff;stop-opacity:0;" />
      <stop
         style="stop-color:#ffffff;stop-opacity:0.4040404;"
         offset="1"
         id="stop3334" />
    </linearGradient>
    <linearGradient
       id="linearGradient3300">
      <stop
         style="stop-color:#0e0000;stop-opacity:0.34343433;"
         offset="0"
         id="stop3302" />
      <stop
         id="stop3306"
         offset="0.5"
         style="stop-color:#ffffff;stop-opacity:0.50505048;" />
      <stop
         style="stop-color:#0e0000;stop-opacity:0.5959596;"
         offset="1"
         id="stop3304" />
    </linearGradient>
    <linearGradient
       id="linearGradient3305">
      <stop
         id="stop3307"
         offset="0"
         style="stop-color:#a8a8a8;stop-opacity:1;" />
      <stop
         style="stop-color:#ffffff;stop-opacity:0.71717173;"
         offset="0.18000001"
         id="stop3311" />
      <stop
         id="stop3315"
         offset="0.465"
         style="stop-color:#000000;stop-opacity:0.18181819;" />
      <stop
         id="stop3313"
         offset="0.75"
         style="stop-color:#000000;stop-opacity:0;" />
      <stop
         id="stop3309"
         offset="1"
         style="stop-color:#000000;stop-opacity:0.47474748;" />
    </linearGradient>
    <linearGradient
       id="linearGradient3267">
      <stop
         style="stop-color:#0e0000;stop-opacity:0.49494949;"
         offset="0"
         id="stop3269" />
      <stop
         id="stop3273"
         offset="0.5"
         style="stop-color:#0e0000;stop-opacity:0.05050505;" />
      <stop
         style="stop-color:#0e0000;stop-opacity:0.09090909;"
         offset="0.75"
         id="stop3275" />
      <stop
         style="stop-color:#0e0000;stop-opacity:0.4040404;"
         offset="1"
         id="stop3271" />
    </linearGradient>
    <linearGradient
       inkscape:collect="always"
       id="linearGradient3239">
      <stop
         style="stop-color:#eeeeec;stop-opacity:1;"
         offset="0"
         id="stop3241" />
      <stop
         style="stop-color:#eeeeec;stop-opacity:0;"
         offset="1"
         id="stop3243" />
    </linearGradient>
    <linearGradient
       id="linearGradient3291">
      <stop
         id="stop3293"
         offset="0"
         style="stop-color:#000000;stop-opacity:1;" />
      <stop
         id="stop3295"
         offset="1"
         style="stop-color:#000000;stop-opacity:0;" />
    </linearGradient>
    <linearGradient
       id="linearGradient2308">
      <stop
         id="stop2310"
         offset="0"
         style="stop-color:#0e0000;stop-opacity:0.32323232;" />
      <stop
         id="stop2312"
         offset="1"
         style="stop-color:#0e0000;stop-opacity:0;" />
    </linearGradient>
    <radialGradient
       inkscape:collect="always"
       xlink:href="#linearGradient3291"
       id="radialGradient2595"
       gradientUnits="userSpaceOnUse"
       gradientTransform="matrix(1,0,0,0.197802,0,92.82166)"
       cx="63.912209"
       cy="115.70919"
       fx="75.857941"
       fy="115.70919"
       r="63.912209" />
    <radialGradient
       inkscape:collect="always"
       xlink:href="#linearGradient3305"
       id="radialGradient2488"
       gradientUnits="userSpaceOnUse"
       gradientTransform="matrix(4.7732319,1.3147587e-7,-3.520023e-8,1.2779445,-143.46339,-3.3858119)"
       cx="34.34375"
       cy="26.71875"
       fx="34.34375"
       fy="26.71875"
       r="5.65625" />
    <linearGradient
       inkscape:collect="always"
       xlink:href="#linearGradient3267"
       id="linearGradient2492"
       gradientUnits="userSpaceOnUse"
       x1="12.687034"
       y1="6.0625"
       x2="26.627377"
       y2="7.4663734"
       gradientTransform="matrix(0.9312436,0,0,0.9312436,1.52231,5.877607)" />
    <radialGradient
       inkscape:collect="always"
       xlink:href="#linearGradient3300"
       id="radialGradient2494"
       gradientUnits="userSpaceOnUse"
       gradientTransform="matrix(1,0,0,0.4248705,0,6.5294227)"
       cx="20.68549"
       cy="11.352961"
       fx="20.68549"
       fy="11.352961"
       r="7.0163431" />
    <radialGradient
       inkscape:collect="always"
       xlink:href="#linearGradient3267"
       id="radialGradient2496"
       gradientUnits="userSpaceOnUse"
       gradientTransform="matrix(4.7732319,1.3147587e-7,-3.520023e-8,1.2779445,-143.46339,-3.3858119)"
       cx="34.34375"
       cy="26.71875"
       fx="34.34375"
       fy="26.71875"
       r="5.65625" />
    <linearGradient
       inkscape:collect="always"
       xlink:href="#linearGradient3300"
       id="linearGradient2498"
       gradientUnits="userSpaceOnUse"
       x1="12.28125"
       y1="1.9298575"
       x2="26.959806"
       y2="8.0494299"
       gradientTransform="matrix(0.9312436,0,0,0.9312436,1.5223099,5.877607)" />
    <radialGradient
       inkscape:collect="always"
       xlink:href="#linearGradient3330"
       id="radialGradient2500"
       gradientUnits="userSpaceOnUse"
       gradientTransform="matrix(2.0026411,0.3296086,-8.8246324e-2,0.5361684,-19.982594,-0.1183558)"
       cx="20.990561"
       cy="8.4910765"
       fx="20.990561"
       fy="8.4910765"
       r="7.0163431" />
    <linearGradient
       inkscape:collect="always"
       xlink:href="#linearGradient3239"
       id="linearGradient2502"
       gradientUnits="userSpaceOnUse"
       x1="16.462814"
       y1="-6.6035352"
       x2="18.743139"
       y2="9.527873"
       gradientTransform="matrix(0.9312436,0,0,0.9312436,1.5223099,5.877607)" />
    <linearGradient
       inkscape:collect="always"
       xlink:href="#linearGradient3267"
       id="linearGradient2504"
       gradientUnits="userSpaceOnUse"
       x1="12.34375"
       y1="7.71875"
       x2="28.4375"
       y2="7.71875"
       gradientTransform="matrix(0.9312436,0,0,0.9312436,1.52231,5.877607)" />
    <radialGradient
       inkscape:collect="always"
       xlink:href="#linearGradient2308"
       id="radialGradient2506"
       gradientUnits="userSpaceOnUse"
       gradientTransform="matrix(0.9312436,0,0,0.2786297,1.5223099,20.146759)"
       cx="20.34375"
       cy="25.886766"
       fx="20.34375"
       fy="25.886766"
       r="7.125" />
    <linearGradient
       inkscape:collect="always"
       xlink:href="#linearGradient3414"
       id="linearGradient2508"
       gradientUnits="userSpaceOnUse"
       x1="12.34375"
       y1="18.06579"
       x2="28.4375"
       y2="16.65625"
       gradientTransform="matrix(0.9312436,0,0,0.9312436,1.52231,5.877607)" />
    <radialGradient
       inkscape:collect="always"
       xlink:href="#linearGradient3406"
       id="radialGradient2510"
       gradientUnits="userSpaceOnUse"
       gradientTransform="matrix(1.1740414,7.8034335e-8,-1.1091278e-8,0.1668704,-3.4474568,24.998748)"
       cx="20.46875"
       cy="27.637487"
       fx="20.46875"
       fy="27.637487"
       r="5.40625" />
    <linearGradient
       inkscape:collect="always"
       xlink:href="#linearGradient3406"
       id="linearGradient2512"
       gradientUnits="userSpaceOnUse"
       x1="14.96875"
       y1="27.953125"
       x2="25.6875"
       y2="27.953125"
       gradientTransform="matrix(0.9312436,0,0,0.9312436,1.5223099,5.877607)" />
    <linearGradient
       inkscape:collect="always"
       xlink:href="#linearGradient3305"
       id="linearGradient2514"
       gradientUnits="userSpaceOnUse"
       x1="14.96875"
       y1="27.953125"
       x2="25.6875"
       y2="27.953125"
       gradientTransform="matrix(0.9312436,0,0,0.9312436,1.5223099,5.877607)" />
    <linearGradient
       inkscape:collect="always"
       xlink:href="#linearGradient3462"
       id="linearGradient2516"
       gradientUnits="userSpaceOnUse"
       x1="27.419497"
       y1="16.65625"
       x2="25.696726"
       y2="16.421326"
       gradientTransform="matrix(0.9312436,0,0,0.9312436,1.52231,5.877607)" />
    <radialGradient
       inkscape:collect="always"
       xlink:href="#linearGradient3305"
       id="radialGradient2518"
       gradientUnits="userSpaceOnUse"
       gradientTransform="matrix(-1.220931,-1.1553834e-2,5.2302856e-3,-0.5527012,62.265386,43.706044)"
       cx="34.34375"
       cy="25.477354"
       fx="34.34375"
       fy="25.477354"
       r="5.65625" />
    <linearGradient
       inkscape:collect="always"
       xlink:href="#linearGradient3300"
       id="linearGradient2520"
       gradientUnits="userSpaceOnUse"
       gradientTransform="matrix(0.9312436,0,0,0.9312436,-7.790126,5.877607)"
       x1="25.625"
       y1="25.25"
       x2="36.326935"
       y2="25.25" />
  </defs>
  <sodipodi:namedview
     id="base"
     pagecolor="#ffffff"
     bordercolor="#666666"
     borderopacity="1.0"
     inkscape:pageopacity="0.0"
     inkscape:pageshadow="2"
     inkscape:zoom="17.3"
     inkscape:cx="20"
     inkscape:cy="20"
     inkscape:current-layer="layer1"
     showgrid="false"
     inkscape:grid-bbox="true"
     inkscape:document-units="px"
     width="40px"
     height="40px"
     gridempspacing="2"
     inkscape:window-width="1167"
     inkscape:window-height="914"
     inkscape:window-x="63"
     inkscape:window-y="59" />
  <metadata
     id="metadata2198">
    <rdf:RDF>
      <cc:Work
         rdf:about="">
        <dc:format>image/svg+xml</dc:format>
        <dc:type
           rdf:resource="http://purl.org/dc/dcmitype/StillImage" />
        <dc:creator>
          <cc:Agent>
            <dc:title>Jarle Akselsen</dc:title>
          </cc:Agent>
        </dc:creator>
        <cc:license
           rdf:resource="http://creativecommons.org/licenses/GPL/2.0/" />
      </cc:Work>
      <cc:License
         rdf:about="http://creativecommons.org/licenses/GPL/2.0/">
        <cc:permits
           rdf:resource="http://web.resource.org/cc/Reproduction" />
        <cc:permits
           rdf:resource="http://web.resource.org/cc/Distribution" />
        <cc:requires
           rdf:resource="http://web.resource.org/cc/Notice" />
        <cc:permits
           rdf:resource="http://web.resource.org/cc/DerivativeWorks" />
        <cc:requires
           rdf:resource="http://web.resource.org/cc/ShareAlike" />
        <cc:requires
           rdf:resource="http://web.resource.org/cc/SourceCode" />
      </cc:License>
    </rdf:RDF>
  </metadata>
  <g
     id="layer1"
     inkscape:label="Layer 1"
     inkscape:groupmode="layer">
    <path
       style="opacity:0.05;fill:#00484d;fill-opacity:1;fill-rule:evenodd;stroke:none;stroke-width:1px;stroke-linecap:butt;stroke-linejoin:miter;stroke-opacity:1"
       d="M 20.467297,6.837952 C 18.543454,6.837952 16.805007,7.1391264 15.520065,7.6236888 C 14.878886,7.8653213 14.352692,8.146854 13.977693,8.4676283 C 13.883701,8.5479434 13.790336,8.6453869 13.715781,8.7295405 C 13.641423,8.8135955 13.595037,8.8748695 13.541172,8.9623514 C 13.421017,9.1473942 13.357782,9.3177606 13.337463,9.5152773 L 13.337463,9.57348 C 13.336486,9.5924644 13.337463,9.6126072 13.337463,9.6316828 C 13.337463,9.7479432 13.360283,9.8683556 13.395666,9.9808996 L 14.1232,16.2086 L 15.432761,27.52903 C 16.060674,26.599014 18.07741,25.928455 20.467297,25.928455 C 22.880389,25.928456 24.89517,26.614248 25.501832,27.558131 L 26.840495,16.179498 L 27.568029,9.9226966 C 27.592445,9.8288702 27.59713,9.7280122 27.59713,9.6316828 L 27.626232,9.5152773 L 27.59713,9.5152773 C 27.568419,9.236178 27.441887,8.9817045 27.218813,8.7295405 C 27.144257,8.6453869 27.050893,8.5479434 26.9569,8.4676283 C 26.581902,8.146854 26.055707,7.8653213 25.414528,7.6236888 C 24.129585,7.1391264 22.391141,6.837952 20.467297,6.837952 z "
       id="path2249"
       sodipodi:nodetypes="cssssccscccsccccccsssc" />
    <path
       transform="matrix(0.1384214,0,0,0.247325,13.628477,2.1816993)"
       d="M 127.82442 115.70919 A 63.912209 12.641975 0 1 1  0,115.70919 A 63.912209 12.641975 0 1 1  127.82442 115.70919 z"
       sodipodi:ry="12.641975"
       sodipodi:rx="63.912209"
       sodipodi:cy="115.70919"
       sodipodi:cx="63.912209"
       id="path2593"
       style="opacity:0.38139535;fill:url(#radialGradient2595);fill-opacity:1;fill-rule:nonzero;stroke:none;stroke-width:0;stroke-linecap:round;stroke-linejoin:round;stroke-miterlimit:4;stroke-dasharray:none;stroke-dashoffset:4;stroke-opacity:1"
       sodipodi:type="arc" />
    <path
       id="path2440"
       d="M 20.467297,25.928455 C 17.576035,25.928455 15.229051,26.911745 15.229051,28.140158 C 15.229051,28.168505 15.226574,28.199367 15.229051,28.227462 L 15.19995,28.227462 L 15.520065,31.021193 L 15.549166,31.021193 C 15.540311,31.070158 15.520065,31.116832 15.520065,31.1667 C 15.520065,32.274954 17.754987,33.174694 20.496398,33.174694 C 23.237808,33.174694 25.443629,32.274954 25.44363,31.1667 C 25.44363,31.116832 25.423383,31.070158 25.414528,31.021193 C 25.411085,31.002149 25.419279,30.981885 25.414528,30.96299 L 25.734643,28.227462 L 25.705542,28.227462 C 25.708019,28.199367 25.705542,28.168505 25.705542,28.140158 C 25.705542,26.911745 23.358558,25.928455 20.467297,25.928455 z "
       style="opacity:0.25;fill:#797979;fill-opacity:1;fill-rule:nonzero;stroke:none;stroke-width:0.2;stroke-linecap:round;stroke-linejoin:round;stroke-miterlimit:4;stroke-dasharray:none;stroke-opacity:0.79187814" />
    <path
       sodipodi:nodetypes="ccc"
       id="path2276"
       d="M 10.956528,1.0198748 L 10.956528,-1.7748336 L 10.956528,1.0198748 z "
       style="fill:#ffffff;fill-opacity:0.75688076;fill-rule:nonzero;stroke:none;stroke-width:0.5;stroke-linecap:round;stroke-linejoin:round;stroke-miterlimit:4;stroke-dasharray:none;stroke-dashoffset:4;stroke-opacity:1" />
    <path
       style="opacity:0.56310676;fill:url(#radialGradient2488);fill-opacity:1;fill-rule:evenodd;stroke:none;stroke-width:1px;stroke-linecap:butt;stroke-linejoin:miter;stroke-opacity:1"
       d="M 15.19995,28.343868 L 15.520065,31.021193 L 15.549166,31.021193 C 15.540311,31.070156 15.520065,31.116828 15.520065,31.1667 C 15.520065,32.274956 17.754987,33.174693 20.496398,33.174694 C 23.237808,33.174694 25.443629,32.274955 25.44363,31.1667 C 25.44363,31.116828 25.423383,31.070156 25.414528,31.021193 C 25.411085,31.002152 25.419279,30.981881 25.414528,30.96299 L 25.734643,28.343868 L 25.705542,28.343868 C 25.467495,29.480312 23.229197,30.380963 20.496398,30.380963 C 17.763599,30.380964 15.525301,29.480311 15.287254,28.343868 L 15.19995,28.343868 z "
       id="path2442"
       sodipodi:nodetypes="cccsssscccscc" />
    <path
       sodipodi:nodetypes="cssssccscccsccccccsssc"
       id="path2446"
       d="M 20.467297,6.837952 C 18.543454,6.837952 16.805007,7.1391264 15.520065,7.6236888 C 14.878886,7.8653213 14.352692,8.146854 13.977693,8.4676283 C 13.883701,8.5479434 13.790336,8.6453869 13.715781,8.7295405 C 13.641423,8.8135955 13.595037,8.8748695 13.541172,8.9623514 C 13.421017,9.1473942 13.357782,9.3177606 13.337463,9.5152773 L 13.337463,9.57348 C 13.336486,9.5924644 13.337463,9.6126072 13.337463,9.6316828 C 13.337463,9.7479432 13.360283,9.8683556 13.395666,9.9808996 L 14.1232,16.2086 L 15.432761,27.52903 C 16.060674,26.599014 18.07741,25.928455 20.467297,25.928455 C 22.880389,25.928456 24.89517,26.614248 25.501832,27.558131 L 26.840495,16.179498 L 27.568029,9.9226966 C 27.592445,9.8288702 27.59713,9.7280122 27.59713,9.6316828 L 27.626232,9.5152773 L 27.59713,9.5152773 C 27.568419,9.236178 27.441887,8.9817045 27.218813,8.7295405 C 27.144257,8.6453869 27.050893,8.5479434 26.9569,8.4676283 C 26.581902,8.146854 26.055707,7.8653213 25.414528,7.6236888 C 24.129585,7.1391264 22.391141,6.837952 20.467297,6.837952 z "
       style="opacity:0.56310676;fill:url(#linearGradient2492);fill-opacity:1;fill-rule:evenodd;stroke:none;stroke-width:1px;stroke-linecap:butt;stroke-linejoin:miter;stroke-opacity:1" />
    <path
       transform="matrix(0.7465133,0,0,0.7465133,5.0197498,19.669018)"
       d="M 27.701833 11.352961 A 7.0163431 2.9810371 0 1 1  13.669147,11.352961 A 7.0163431 2.9810371 0 1 1  27.701833 11.352961 z"
       sodipodi:ry="2.9810371"
       sodipodi:rx="7.0163431"
       sodipodi:cy="11.352961"
       sodipodi:cx="20.68549"
       id="path2448"
       style="opacity:0.22815534;fill:url(#radialGradient2494);fill-opacity:1;fill-rule:nonzero;stroke:none;stroke-width:0.2;stroke-linecap:round;stroke-linejoin:round;stroke-miterlimit:4;stroke-dasharray:none;stroke-opacity:0.79187814"
       sodipodi:type="arc" />
    <path
       style="opacity:0.56310676;fill:url(#radialGradient2496);fill-opacity:1;fill-rule:evenodd;stroke:none;stroke-width:1px;stroke-linecap:butt;stroke-linejoin:miter;stroke-opacity:1"
       d="M 15.19995,28.343868 L 15.520065,31.021193 L 15.549166,31.021193 C 15.540311,31.070156 15.520065,31.116828 15.520065,31.1667 C 15.520065,32.274956 17.754987,33.174693 20.496398,33.174694 C 23.237808,33.174694 25.443629,32.274955 25.44363,31.1667 C 25.44363,31.116828 25.423383,31.070156 25.414528,31.021193 C 25.411085,31.002152 25.419279,30.981881 25.414528,30.96299 L 25.734643,28.343868 L 25.705542,28.343868 C 25.467495,29.480312 23.229197,30.380963 20.496398,30.380963 C 17.763599,30.380964 15.525301,29.480311 15.287254,28.343868 L 15.19995,28.343868 z "
       id="path2450"
       sodipodi:nodetypes="cccsssscccscc" />
    <path
       style="opacity:0.56310676;fill:#ffffff;fill-opacity:1;fill-rule:evenodd;stroke:none;stroke-width:1px;stroke-linecap:butt;stroke-linejoin:miter;stroke-opacity:1"
       d="M 20.874716,25.949508 C 21.228803,26.002717 21.549933,26.105466 21.835061,26.240522 C 21.933171,26.166322 22.041905,26.101084 22.155176,26.036812 C 21.736676,26.000036 21.31657,25.958746 20.874716,25.949508 z "
       id="path2452"
       sodipodi:nodetypes="cccc" />
    <path
       id="path2454"
       d="M 18.954026,6.8961547 C 18.63451,6.9212098 18.326156,6.9725018 18.022782,7.0125602 C 18.409062,6.9609646 18.809418,6.9269081 19.215938,6.8961547 C 19.130404,6.9016854 19.038554,6.8895261 18.954026,6.8961547 z M 16.655018,7.2453711 C 14.448661,7.7469445 12.959145,8.6659152 12.959145,9.7189872 C 12.959145,11.307438 16.318629,12.600022 20.467297,12.600022 C 24.615966,12.600022 27.975446,11.307438 27.975448,9.7189872 C 27.975448,8.6672357 26.481344,7.7473672 24.279575,7.2453711 C 26.200527,7.7235395 27.499931,8.5703966 27.59713,9.5152773 C 27.601014,9.5530569 27.59713,9.5935325 27.59713,9.6316828 C 27.59713,9.7280122 27.592444,9.8288702 27.568029,9.9226966 C 27.201799,11.330093 24.166056,12.425414 20.467297,12.425414 C 16.819553,12.425414 13.829356,11.360355 13.395666,9.9808996 C 13.360283,9.8683556 13.337463,9.7479432 13.337463,9.6316828 C 13.337463,9.6126072 13.336486,9.5924644 13.337463,9.57348 L 13.337463,9.5152773 C 13.434662,8.5703966 14.734067,7.7235395 16.655018,7.2453711 z "
       style="opacity:1;fill:url(#linearGradient2498);fill-opacity:1;fill-rule:nonzero;stroke:none;stroke-width:0.2;stroke-linecap:round;stroke-linejoin:round;stroke-miterlimit:4;stroke-dasharray:none;stroke-opacity:0.79187814" />
    <path
       sodipodi:type="arc"
       style="opacity:1;fill:url(#radialGradient2500);fill-opacity:1;fill-rule:nonzero;stroke:none;stroke-width:0.2;stroke-linecap:round;stroke-linejoin:round;stroke-miterlimit:4;stroke-dasharray:none;stroke-opacity:0.79187814"
       id="path2456"
       sodipodi:cx="20.68549"
       sodipodi:cy="11.352961"
       sodipodi:rx="7.0163431"
       sodipodi:ry="2.9810371"
       d="M 27.701833 11.352961 A 7.0163431 2.9810371 0 1 1  13.669147,11.352961 A 7.0163431 2.9810371 0 1 1  27.701833 11.352961 z"
       transform="matrix(0.7465133,0,0,0.7465133,5.0539115,19.576574)" />
    <g
       transform="matrix(0.9312436,0,0,0.9312436,1.5223099,7.7400942)"
       style="fill:#ffffff;fill-opacity:1"
       id="g2458">
      <path
         style="opacity:0.56310676;fill:#ffffff;fill-opacity:1;fill-rule:evenodd;stroke:none;stroke-width:1px;stroke-linecap:butt;stroke-linejoin:miter;stroke-opacity:1"
         d="M 20.78125,-0.9375 C 21.16148,-0.8803632 21.506321,-0.7700269 21.8125,-0.625 C 21.917854,-0.7046784 22.034616,-0.774733 22.15625,-0.84375 C 21.706851,-0.8832406 21.255728,-0.92758 20.78125,-0.9375 z "
         id="path2460"
         sodipodi:nodetypes="cccc" />
      <path
         style="opacity:0.56310676;fill:#ffffff;fill-opacity:1;fill-rule:evenodd;stroke:none;stroke-width:1px;stroke-linecap:butt;stroke-linejoin:miter;stroke-opacity:1"
         d="M 17.15625,4.9375 C 17.767717,5.1176124 18.242532,5.370705 18.59375,5.625 C 18.600327,5.6297621 18.618528,5.620217 18.625,5.625 C 18.786931,5.4584369 18.956363,5.3000469 19.15625,5.15625 C 18.459624,5.1079555 17.785907,5.0421742 17.15625,4.9375 z "
         id="path2462"
         sodipodi:nodetypes="csscc" />
    </g>
    <path
       id="path2464"
       d="M 20.467297,6.9834588 C 18.392962,6.9834588 16.529303,7.3056961 15.170849,7.8273983 C 15.020194,7.8940819 14.868721,7.9589272 14.734328,8.0311078 C 13.911027,8.4732912 13.3968,9.025757 13.337463,9.6025814 L 13.337463,9.6607841 C 13.336486,9.6797682 13.337463,9.6999122 13.337463,9.7189872 C 13.474244,8.645249 15.17681,7.7222032 17.55716,7.3035738 C 17.622809,7.2929045 17.69428,7.2844386 17.76087,7.2744724 C 17.844552,7.261002 17.937532,7.2576197 18.022782,7.2453711 C 18.795341,7.14218 19.602991,7.0707629 20.467297,7.0707629 C 20.948258,7.0707629 21.410068,7.0935523 21.864162,7.1289656 C 21.901917,7.1317025 21.943015,7.1260126 21.980568,7.1289656 C 22.301996,7.1562837 22.608235,7.2017535 22.911811,7.2453711 C 22.998575,7.2569604 23.08844,7.2617079 23.173723,7.2744724 C 23.244014,7.285787 23.308297,7.2914145 23.377433,7.3035738 C 25.757788,7.7222032 27.460348,8.645249 27.59713,9.7189872 C 27.59713,9.6808362 27.601014,9.640361 27.59713,9.6025814 C 27.537793,9.025757 27.023566,8.4732912 26.200265,8.0311078 C 26.180774,8.0221502 26.16183,8.0108719 26.142062,8.0020065 C 26.025174,7.9410044 25.892437,7.8843616 25.763745,7.8273983 C 24.405291,7.3056961 22.541633,6.9834588 20.467297,6.9834588 z M 12.988247,10.097305 C 13.302012,11.575584 16.526576,12.74553 20.467297,12.74553 C 24.40802,12.74553 27.63258,11.575584 27.946347,10.097305 C 27.607413,11.376955 25.066004,12.373635 21.805959,12.600022 C 21.36981,12.63031 20.926242,12.687327 20.467297,12.687327 C 20.008351,12.687327 19.564784,12.63031 19.128634,12.600022 C 18.691917,12.569695 18.284155,12.541602 17.877275,12.483617 C 15.24684,12.108745 13.281776,11.205532 12.988247,10.097305 z "
       style="opacity:1;fill:url(#linearGradient2502);fill-opacity:1;fill-rule:nonzero;stroke:none;stroke-width:0.2;stroke-linecap:round;stroke-linejoin:round;stroke-miterlimit:4;stroke-dasharray:none;stroke-opacity:0.79187814" />
    <path
       id="path2466"
       d="M 18.750316,6.9252561 C 18.324982,6.9635749 17.922188,7.005994 17.528059,7.0707629 C 17.913215,7.0083537 18.335578,6.9625515 18.750316,6.9252561 z M 22.155176,6.9252561 C 22.580571,6.9628737 22.982994,7.0067045 23.377433,7.0707629 C 22.984379,7.0070742 22.578969,6.9627647 22.155176,6.9252561 z M 27.975448,9.6025814 C 27.979534,9.6415176 27.975448,9.6796692 27.975448,9.7189872 L 28.004549,9.6025814 L 27.975448,9.6025814 z M 27.946347,10.010001 C 27.561241,11.460477 24.356675,12.600022 20.467297,12.600022 C 16.653917,12.600022 13.502082,11.506971 13.017348,10.097305 L 15.19995,28.343868 L 15.287254,28.343868 C 15.525301,29.480311 17.763599,30.380964 20.496398,30.380963 C 23.229197,30.380963 25.467495,29.480312 25.705542,28.343868 L 25.734643,28.343868 L 27.946347,10.010001 z "
       style="opacity:0.56310676;fill:url(#linearGradient2504);fill-opacity:1;fill-rule:evenodd;stroke:none;stroke-width:1px;stroke-linecap:butt;stroke-linejoin:miter;stroke-opacity:1"
       sodipodi:nodetypes="csccsccccccscccsccc" />
    <path
       style="opacity:0.83495148;fill:url(#radialGradient2506);fill-opacity:1;fill-rule:evenodd;stroke:none;stroke-width:1px;stroke-linecap:butt;stroke-linejoin:miter;stroke-opacity:1"
       d="M 13.832186,16.877931 L 15.19995,28.343868 L 15.287254,28.343868 C 15.525301,29.480311 17.763599,30.380964 20.496398,30.380963 C 23.229197,30.380963 25.467495,29.480312 25.705542,28.343868 L 25.734643,28.343868 L 27.102407,16.877931 L 27.073306,16.877931 C 26.523843,18.204736 23.779406,19.20604 20.496398,19.20604 C 17.210664,19.20604 14.494419,18.206529 13.948592,16.877931 L 13.832186,16.877931 z "
       id="path2468" />
    <path
       id="path2470"
       d="M 27.975448,9.6025814 C 27.979534,9.6415176 27.975448,9.6796692 27.975448,9.7189872 L 28.004549,9.6025814 L 27.975448,9.6025814 z M 27.946347,10.010001 C 27.561239,11.460477 24.356675,12.600022 20.467297,12.600022 C 16.631566,12.600022 13.473389,11.489885 13.017348,10.068203 L 15.520065,31.021193 L 15.549166,31.021193 C 15.540311,31.070156 15.520065,31.116828 15.520065,31.1667 C 15.520065,32.274956 17.754987,33.174693 20.496398,33.174694 C 23.237808,33.174694 25.443629,32.274955 25.44363,31.1667 C 25.44363,31.116828 25.423383,31.070156 25.414528,31.021193 C 25.411085,31.002152 25.419279,30.981881 25.414528,30.96299 L 27.946347,10.010001 z "
       style="opacity:0.56310676;fill:url(#linearGradient2508);fill-opacity:1;fill-rule:evenodd;stroke:none;stroke-width:1px;stroke-linecap:butt;stroke-linejoin:miter;stroke-opacity:1" />
    <path
       id="path2472"
       d="M 25.618238,28.270942 C 24.661742,29.003523 22.701516,29.522301 20.409094,29.522301 C 18.393527,29.522301 16.599397,29.124846 15.549166,28.532854 C 16.236903,29.421093 18.176551,30.075226 20.496398,30.075226 C 23.046055,30.075226 25.151444,29.296567 25.618238,28.270942 z "
       style="opacity:1;fill:url(#radialGradient2510);fill-opacity:1;fill-rule:nonzero;stroke:none;stroke-width:0.2;stroke-linecap:round;stroke-linejoin:round;stroke-miterlimit:4;stroke-dasharray:none;stroke-opacity:0.79187814" />
    <path
       style="opacity:0.56310676;fill:url(#linearGradient2512);fill-opacity:1;fill-rule:evenodd;stroke:none;stroke-width:1px;stroke-linecap:butt;stroke-linejoin:miter;stroke-opacity:1"
       d="M 15.461862,30.642875 L 15.520065,31.021193 L 15.549166,31.021193 C 15.540311,31.070156 15.520065,31.116828 15.520065,31.1667 C 15.520065,32.274956 17.754987,33.174693 20.496398,33.174694 C 23.237808,33.174694 25.443629,32.274955 25.44363,31.1667 C 25.44363,31.116828 25.423383,31.070156 25.414528,31.021193 C 25.411085,31.002152 25.419279,30.981881 25.414528,30.96299 L 25.44363,30.642875 L 25.181717,30.642875 C 24.940647,31.624997 22.94051,32.388956 20.496398,32.388957 C 18.052285,32.388956 16.026244,31.624997 15.781977,30.642875 L 15.461862,30.642875 z "
       id="path2474" />
    <path
       id="path2476"
       d="M 15.461862,30.642875 L 15.520065,31.021193 L 15.549166,31.021193 C 15.540311,31.070156 15.520065,31.116828 15.520065,31.1667 C 15.520065,32.274956 17.754987,33.174693 20.496398,33.174694 C 23.237808,33.174694 25.443629,32.274955 25.44363,31.1667 C 25.44363,31.116828 25.423383,31.070156 25.414528,31.021193 C 25.411085,31.002152 25.419279,30.981881 25.414528,30.96299 L 25.44363,30.642875 L 25.181717,30.642875 C 24.940647,31.624997 22.94051,32.388956 20.496398,32.388957 C 18.052285,32.388956 16.026244,31.624997 15.781977,30.642875 L 15.461862,30.642875 z "
       style="opacity:1;fill:url(#linearGradient2514);fill-opacity:1;fill-rule:evenodd;stroke:none;stroke-width:1px;stroke-linecap:butt;stroke-linejoin:miter;stroke-opacity:1" />
    <path
       id="path2478"
       d="M 27.975448,9.6025814 C 27.979534,9.6415176 27.975448,9.6796692 27.975448,9.7189872 L 28.004549,9.6025814 L 27.975448,9.6025814 z M 27.946347,10.010001 C 27.561239,11.460477 24.356675,12.600022 20.467297,12.600022 C 16.631566,12.600022 13.473389,11.489885 13.017348,10.068203 L 15.520065,31.021193 L 15.549166,31.021193 C 15.540311,31.070156 15.520065,31.116828 15.520065,31.1667 C 15.520065,32.274956 17.754987,33.174693 20.496398,33.174694 C 23.237808,33.174694 25.443629,32.274955 25.44363,31.1667 C 25.44363,31.116828 25.423383,31.070156 25.414528,31.021193 C 25.411085,31.002152 25.419279,30.981881 25.414528,30.96299 L 27.946347,10.010001 z "
       style="opacity:0.56310676;fill:url(#linearGradient2516);fill-opacity:1;fill-rule:evenodd;stroke:none;stroke-width:1px;stroke-linecap:butt;stroke-linejoin:miter;stroke-opacity:1" />
    <path
       style="opacity:0.42718446;fill:url(#radialGradient2518);fill-opacity:1;fill-rule:evenodd;stroke:none;stroke-width:1px;stroke-linecap:butt;stroke-linejoin:miter;stroke-opacity:1"
       d="M 15.19995,28.343868 L 15.520065,31.021193 L 15.549166,31.021193 C 15.540311,31.070156 15.520065,31.116828 15.520065,31.1667 C 15.520065,32.274956 17.754987,33.174693 20.496398,33.174694 C 23.237808,33.174694 25.443629,32.274955 25.44363,31.1667 C 25.44363,31.116828 25.423383,31.070156 25.414528,31.021193 C 25.411085,31.002152 25.419279,30.981881 25.414528,30.96299 L 25.734643,28.343868 L 25.705542,28.343868 C 25.467495,29.480312 23.229197,30.380963 20.496398,30.380963 C 17.763599,30.380964 15.525301,29.480311 15.287254,28.343868 L 15.19995,28.343868 z "
       id="path2480"
       sodipodi:nodetypes="cccsssscccscc" />
    <path
       id="path2482"
       d="M 25.385427,28.663983 C 24.468551,29.394187 22.59718,29.915341 20.409094,29.915341 C 18.650463,29.915341 17.097455,29.577757 16.072991,29.071402 C 17.000344,29.697155 18.628598,30.119051 20.496398,30.119051 C 22.740544,30.119051 24.640191,29.507276 25.385427,28.663983 z "
       style="opacity:1;fill:url(#linearGradient2520);fill-opacity:1;fill-rule:nonzero;stroke:none;stroke-width:0.2;stroke-linecap:round;stroke-linejoin:round;stroke-miterlimit:4;stroke-dasharray:none;stroke-opacity:0.79187814" />
    <path
       sodipodi:nodetypes="cccc"
       id="path2484"
       d="M 20.874716,29.923293 C 21.228803,29.870085 21.549933,29.767335 21.835061,29.632279 C 21.933171,29.706479 22.041905,29.771717 22.155176,29.835989 C 21.736676,29.872764 21.31657,29.914055 20.874716,29.923293 z "
       style="opacity:0.56310676;fill:#ffffff;fill-opacity:1;fill-rule:evenodd;stroke:none;stroke-width:1px;stroke-linecap:butt;stroke-linejoin:miter;stroke-opacity:1" />
    <path
       sodipodi:nodetypes="cccc"
       id="use2486"
       d="M 20.874716,33.06093 C 21.228803,33.007722 21.549933,32.904972 21.835061,32.769917 C 21.933171,32.844116 22.041905,32.909355 22.155176,32.973626 C 21.736676,33.010401 21.31657,33.051692 20.874716,33.06093 z "
       style="opacity:0.56310676;fill:#ffffff;fill-opacity:1;fill-rule:evenodd;stroke:none;stroke-width:1px;stroke-linecap:butt;stroke-linejoin:miter;stroke-opacity:1" />
    <rect
       style="opacity:0.61162792;fill:#555753;fill-opacity:1;fill-rule:nonzero;stroke:none;stroke-width:0.69999999;stroke-linecap:round;stroke-linejoin:miter;stroke-miterlimit:4;stroke-dasharray:none;stroke-opacity:1"
       id="rect1951"
       width="40.001965"
       height="10.004759"
       x="-0.0019644466"
       y="30" />
    <text
       xml:space="preserve"
       style="font-size:12px;font-style:normal;font-weight:normal;fill:#eeeeec;fill-opacity:1;stroke:none;stroke-width:1px;stroke-linecap:butt;stroke-linejoin:miter;stroke-opacity:1;font-family:Bitstream Vera Sans"
       x="14.66706"
       y="39.168156"
       id="text2840"><tspan
         sodipodi:role="line"
         id="tspan2842"
         x="14.66706"
         y="39.168156">Si</tspan></text>
  </g>
</svg>
