<?xml version="1.0" encoding="UTF-8" standalone="no"?>
<!-- Created with Inkscape (http://www.inkscape.org/) -->
<svg
   xmlns:dc="http://purl.org/dc/elements/1.1/"
   xmlns:cc="http://web.resource.org/cc/"
   xmlns:rdf="http://www.w3.org/1999/02/22-rdf-syntax-ns#"
   xmlns:svg="http://www.w3.org/2000/svg"
   xmlns="http://www.w3.org/2000/svg"
   xmlns:xlink="http://www.w3.org/1999/xlink"
   xmlns:sodipodi="http://sodipodi.sourceforge.net/DTD/sodipodi-0.dtd"
   xmlns:inkscape="http://www.inkscape.org/namespaces/inkscape"
   width="40"
   height="40"
   id="svg2193"
   sodipodi:version="0.32"
   inkscape:version="0.45.1"
   version="1.0"
   sodipodi:docbase="/home/jra/Desktop"
   sodipodi:docname="PVCpipe22offwhite.svg"
   inkscape:output_extension="org.inkscape.output.svg.inkscape">
  <defs
     id="defs2195">
    <linearGradient
       id="linearGradient3319">
      <stop
         id="stop3321"
         offset="0"
         style="stop-color:#000000;stop-opacity:0;" />
      <stop
         style="stop-color:#ffffff;stop-opacity:1;"
         offset="0.5"
         id="stop3331" />
      <stop
         id="stop3327"
         offset="1"
         style="stop-color:#000000;stop-opacity:1;" />
    </linearGradient>
    <linearGradient
       id="linearGradient3326">
      <stop
         id="stop3328"
         offset="0"
         style="stop-color:#000000;stop-opacity:0.41874999;" />
      <stop
         id="stop3330"
         offset="1"
         style="stop-color:#ffffff;stop-opacity:0.4375;" />
    </linearGradient>
    <linearGradient
       id="linearGradient4443">
      <stop
         id="stop4445"
         offset="0"
         style="stop-color:#ffffff;stop-opacity:0.0625;" />
      <stop
         style="stop-color:#ffffff;stop-opacity:0.64999998;"
         offset="0.5"
         id="stop4449" />
      <stop
         id="stop4451"
         offset="0.75"
         style="stop-color:#ededed;stop-opacity:0.38124999;" />
      <stop
         id="stop4447"
         offset="1"
         style="stop-color:#eeeeec;stop-opacity:0.4375;" />
    </linearGradient>
    <linearGradient
       id="linearGradient3239">
      <stop
         style="stop-color:#eeeeec;stop-opacity:1;"
         offset="0"
         id="stop3241" />
      <stop
         style="stop-color:#eeeeec;stop-opacity:0;"
         offset="1"
         id="stop3243" />
    </linearGradient>
    <linearGradient
       id="linearGradient2861">
      <stop
         style="stop-color:#0e0000;stop-opacity:1;"
         offset="0"
         id="stop2863" />
      <stop
         style="stop-color:#0e0000;stop-opacity:0;"
         offset="1"
         id="stop2865" />
    </linearGradient>
    <linearGradient
       inkscape:collect="always"
       xlink:href="#linearGradient2861"
       id="linearGradient3433"
       x1="6.2057896"
       y1="10.370797"
       x2="8.0285282"
       y2="17.0625"
       gradientUnits="userSpaceOnUse" />
    <linearGradient
       inkscape:collect="always"
       xlink:href="#linearGradient2861"
       id="linearGradient3437"
       x1="30.699345"
       y1="12.112173"
       x2="28.722162"
       y2="4.1110039"
       gradientUnits="userSpaceOnUse" />
    <linearGradient
       inkscape:collect="always"
       xlink:href="#linearGradient2861"
       id="linearGradient3439"
       x1="38.40625"
       y1="12.977252"
       x2="30.75"
       y2="12.977254"
       gradientUnits="userSpaceOnUse" />
    <linearGradient
       inkscape:collect="always"
       xlink:href="#linearGradient2861"
       id="linearGradient3441"
       x1="37.815189"
       y1="21.009907"
       x2="30.376169"
       y2="20.867214"
       gradientUnits="userSpaceOnUse" />
    <linearGradient
       inkscape:collect="always"
       xlink:href="#linearGradient2861"
       id="linearGradient3450"
       x1="39.551979"
       y1="31.865158"
       x2="30.5625"
       y2="31.865158"
       gradientUnits="userSpaceOnUse" />
    <radialGradient
       inkscape:collect="always"
       xlink:href="#linearGradient2861"
       id="radialGradient4433"
       cx="30.75"
       cy="11.491582"
       fx="30.75"
       fy="11.491582"
       r="3.828125"
       gradientTransform="matrix(1.223645,3.7274161e-2,-4.5406746e-2,1.4906234,-6.355287,-6.1546876)"
       gradientUnits="userSpaceOnUse" />
    <linearGradient
       inkscape:collect="always"
       xlink:href="#linearGradient4443"
       id="linearGradient4441"
       x1="3.0673361"
       y1="12.686646"
       x2="8.5718136"
       y2="14.256238"
       gradientUnits="userSpaceOnUse" />
    <linearGradient
       inkscape:collect="always"
       xlink:href="#linearGradient3326"
       id="linearGradient4455"
       x1="26.566509"
       y1="13.236004"
       x2="26.566509"
       y2="5.2047539"
       gradientUnits="userSpaceOnUse" />
    <linearGradient
       inkscape:collect="always"
       xlink:href="#linearGradient3326"
       id="linearGradient4457"
       x1="39.434223"
       y1="27.975428"
       x2="30.587435"
       y2="27.975428"
       gradientUnits="userSpaceOnUse" />
    <linearGradient
       inkscape:collect="always"
       xlink:href="#linearGradient2861"
       id="linearGradient4459"
       x1="40.121571"
       y1="37.163853"
       x2="29.5625"
       y2="37.163853"
       gradientUnits="userSpaceOnUse" />
    <radialGradient
       inkscape:collect="always"
       xlink:href="#linearGradient2861"
       id="radialGradient3296"
       cx="34.617367"
       cy="17.804855"
       fx="34.617367"
       fy="17.804855"
       r="3.2200947"
       gradientTransform="matrix(2.9943936,0.2658734,-0.1513964,1.7050992,-66.367333,-26.258245)"
       gradientUnits="userSpaceOnUse" />
    <linearGradient
       inkscape:collect="always"
       xlink:href="#linearGradient3319"
       id="linearGradient3317"
       gradientUnits="userSpaceOnUse"
       x1="15.704062"
       y1="4.9115806"
       x2="18.214624"
       y2="15.90527" />
    <linearGradient
       inkscape:collect="always"
       xlink:href="#linearGradient3319"
       id="linearGradient3335"
       gradientUnits="userSpaceOnUse"
       x1="29.924789"
       y1="11.256032"
       x2="28.436783"
       y2="3.397553" />
    <linearGradient
       inkscape:collect="always"
       xlink:href="#linearGradient2861"
       id="linearGradient3342"
       gradientUnits="userSpaceOnUse"
       x1="22.746901"
       y1="17.611004"
       x2="20.354977"
       y2="7.0584788" />
    <radialGradient
       inkscape:collect="always"
       xlink:href="#linearGradient3239"
       id="radialGradient3346"
       gradientUnits="userSpaceOnUse"
       gradientTransform="matrix(1.2242126,-5.1055273e-7,3.1081992e-7,0.7458321,-6.7276701,0.8968979)"
       cx="33.740704"
       cy="7.7792416"
       fx="33.740704"
       fy="7.7792416"
       r="3.828125" />
  </defs>
  <sodipodi:namedview
     id="base"
     pagecolor="#ffffff"
     bordercolor="#666666"
     borderopacity="1.0"
     inkscape:pageopacity="0.0"
     inkscape:pageshadow="2"
     inkscape:zoom="19.026018"
     inkscape:cx="19.999018"
     inkscape:cy="18.075746"
     inkscape:current-layer="layer1"
     showgrid="false"
     inkscape:grid-bbox="false"
     inkscape:document-units="px"
     width="40px"
     height="40px"
     gridempspacing="2"
     inkscape:window-width="1167"
     inkscape:window-height="914"
     inkscape:window-x="63"
     inkscape:window-y="63" />
  <metadata
     id="metadata2198">
    <rdf:RDF>
      <cc:Work
         rdf:about="">
        <dc:format>image/svg+xml</dc:format>
        <dc:type
           rdf:resource="http://purl.org/dc/dcmitype/StillImage" />
        <dc:creator>
          <cc:Agent>
            <dc:title>Jarle Akselsen</dc:title>
          </cc:Agent>
        </dc:creator>
        <cc:license
           rdf:resource="http://creativecommons.org/licenses/GPL/2.0/" />
      </cc:Work>
      <cc:License
         rdf:about="http://creativecommons.org/licenses/GPL/2.0/">
        <cc:permits
           rdf:resource="http://web.resource.org/cc/Reproduction" />
        <cc:permits
           rdf:resource="http://web.resource.org/cc/Distribution" />
        <cc:requires
           rdf:resource="http://web.resource.org/cc/Notice" />
        <cc:permits
           rdf:resource="http://web.resource.org/cc/DerivativeWorks" />
        <cc:requires
           rdf:resource="http://web.resource.org/cc/ShareAlike" />
        <cc:requires
           rdf:resource="http://web.resource.org/cc/SourceCode" />
      </cc:License>
    </rdf:RDF>
  </metadata>
  <g
     id="layer1"
     inkscape:label="Layer 1"
     inkscape:groupmode="layer">
    <path
       style="opacity:1;fill:#dddddd;fill-opacity:1;fill-rule:nonzero;stroke:none;stroke-width:0.2;stroke-linecap:round;stroke-linejoin:round;stroke-miterlimit:4;stroke-dasharray:none;stroke-opacity:1"
       d="M 32.84375,3.84375 C 32.238445,3.84375 31.665248,3.94533 31.125,4.125 L 25.5625,5.25 C 24.988383,5.33886 24.503006,5.717511 24.15625,6.28125 L 5.21875,10.0625 L 5.15625,10.0625 C 4.930178,10.0625 4.729532,10.133999 4.53125,10.21875 C 4.426277,10.263618 4.314628,10.3088 4.21875,10.375 C 3.387809,10.94873 2.913352,12.276562 3.09375,13.84375 C 3.153883,14.366146 3.290134,14.860059 3.46875,15.3125 C 3.647366,15.764941 3.890535,16.189193 4.15625,16.53125 C 4.418468,16.864902 4.715561,17.124672 5.03125,17.3125 C 5.352679,17.503743 5.685492,17.625 6.03125,17.625 C 6.182628,17.625001 12.797097,15.99556 19.25,14.40625 C 22.397346,13.630064 23.667462,13.308868 25.5625,12.84375 C 25.934912,13.090515 26.312836,13.25 26.71875,13.25 C 26.925681,13.25 27.125987,13.192722 27.3125,13.125 C 28.789876,12.764153 29.875055,12.519807 30.75,12.3125 L 30.75,16.25 C 30.899368,16.448285 31.110544,16.619561 31.375,16.78125 L 31.375,26.46875 C 31.191377,26.590521 31.027986,26.701713 30.90625,26.84375 C 30.784514,26.985787 30.704433,27.158669 30.65625,27.3125 C 30.623403,27.417368 30.588421,27.516068 30.59375,27.625 L 30.5625,27.625 L 30.5625,35.46875 C 29.96982,35.843742 29.598222,36.289368 29.5625,36.78125 L 29.5625,37.46875 C 29.563108,37.541436 29.573815,37.611857 29.59375,37.6875 C 29.93688,38.989519 32.446236,39.935124 35.1875,39.78125 C 37.684009,39.641112 39.513621,38.657746 39.5625,37.5 C 39.563938,37.465948 39.563376,36.833392 39.5625,36.8125 C 39.559386,36.738217 39.550441,36.666571 39.53125,36.59375 C 39.416182,36.15712 39.057487,35.764892 38.53125,35.4375 L 38.53125,27.8125 C 38.543691,27.759969 38.557411,27.708672 38.5625,27.65625 C 38.563784,27.636849 38.562477,27.613268 38.5625,27.59375 C 38.562793,27.56347 38.566319,27.530254 38.5625,27.5 C 38.557227,27.458221 38.542891,27.419173 38.53125,27.375 C 38.528906,27.366107 38.533851,27.352602 38.53125,27.34375 C 38.510115,27.271826 38.474961,27.194004 38.4375,27.125 C 38.409074,27.072637 38.380964,27.019233 38.34375,26.96875 C 38.326712,26.944819 38.300181,26.929713 38.28125,26.90625 C 38.15917,26.759674 38.000158,26.626396 37.8125,26.5 L 37.8125,16.78125 C 38.051764,16.630608 38.268241,16.461442 38.40625,16.28125 L 38.40625,8.5625 C 38.242508,7.62171 37.851303,6.750059 37.28125,6.03125 C 37.258602,6.001434 37.241979,5.966843 37.21875,5.9375 C 37.02841,5.707077 36.817934,5.509962 36.59375,5.3125 C 36.414403,5.15453 36.229715,5.009333 36.03125,4.875 C 36.019576,4.867098 36.011736,4.851566 36,4.84375 C 35.8637,4.748647 35.707311,4.676562 35.5625,4.59375 C 35.40401,4.507409 35.260928,4.41473 35.09375,4.34375 C 34.399127,4.030155 33.654644,3.84375 32.84375,3.84375 z "
       id="path3366"
       sodipodi:nodetypes="ccccccsssssssscscccccsscccccsssssccssssssssccccsssssssc" />
    <path
       style="opacity:0.25;fill:url(#linearGradient3335);fill-opacity:1;fill-rule:nonzero;stroke:none;stroke-width:0.2;stroke-linecap:round;stroke-linejoin:round;stroke-miterlimit:4;stroke-dasharray:none;stroke-opacity:1"
       d="M 31.125,4.111004 L 25.5625,5.236004 C 25.644517,5.22331 25.72694,5.204754 25.8125,5.204754 C 27.275572,5.204754 28.683052,7.025492 28.9375,9.236004 C 29.155846,11.13289 28.44368,12.698903 27.3125,13.111004 C 29.328767,12.618533 31.97379,11.986004 32,11.986004 C 33.444948,11.986004 34.501297,10.231627 34.25,8.048504 C 33.998705,5.865372 32.569949,4.111004 31.125,4.111004 z "
       id="path3333" />
    <path
       sodipodi:nodetypes="ccc"
       id="path2276"
       d="M 10.956528,1.0198748 L 10.956528,-1.7748336 L 10.956528,1.0198748 z "
       style="fill:#ffffff;fill-opacity:0.75688076;fill-rule:nonzero;stroke:none;stroke-width:0.5;stroke-linecap:round;stroke-linejoin:round;stroke-miterlimit:4;stroke-dasharray:none;stroke-dashoffset:4;stroke-opacity:1" />
    <path
       sodipodi:nodetypes="ccc"
       id="path2890"
       d="M 147.31207,2.9557889 L 147.31207,0.1610805 L 147.31207,2.9557889 z "
       style="fill:#ffffff;fill-opacity:0.75688076;fill-rule:nonzero;stroke:none;stroke-width:0.5;stroke-linecap:round;stroke-linejoin:round;stroke-miterlimit:4;stroke-dasharray:none;stroke-dashoffset:4;stroke-opacity:1" />
    <path
       style="opacity:0.5;fill:url(#linearGradient3342);fill-opacity:1;fill-rule:nonzero;stroke:none;stroke-width:0.2;stroke-linecap:round;stroke-linejoin:round;stroke-miterlimit:4;stroke-dasharray:none;stroke-opacity:1"
       d="M 25.90625,5.9375 L 25.34375,6.03125 C 25.322309,6.041473 25.302753,6.052333 25.28125,6.0625 L 25.21875,6.0625 L 24.15625,6.28125 L 5.21875,10.0625 C 6.5795355,10.110596 7.8567086,11.784476 8.09375,13.84375 C 8.2939411,15.582893 7.6927954,17.027389 6.6875,17.46875 C 7.7108838,17.245958 13.294779,15.872984 19.25,14.40625 C 22.397346,13.630064 23.667462,13.308868 25.5625,12.84375 C 25.871329,12.767784 26.336596,12.664627 26.625,12.59375 C 26.635026,12.591286 26.646216,12.596251 26.65625,12.59375 C 26.892702,12.53482 27.129661,12.458779 27.34375,12.40625 C 27.355683,12.399469 27.363211,12.382123 27.375,12.375 C 27.626532,12.171197 27.837691,11.875049 28,11.53125 C 28.003876,11.522828 27.996185,11.508492 28,11.5 C 28.050712,11.389814 28.116411,11.277854 28.15625,11.15625 C 28.159115,11.14725 28.153447,11.134057 28.15625,11.125 C 28.27948,10.73789 28.34797,10.286674 28.34375,9.8125 C 28.343597,9.80242 28.343967,9.791359 28.34375,9.78125 C 28.341289,9.619345 28.331931,9.481312 28.3125,9.3125 C 28.237614,8.661922 28.049106,8.044418 27.78125,7.53125 C 27.777133,7.523482 27.785403,7.507725 27.78125,7.5 C 27.602084,7.161958 27.361357,6.869166 27.125,6.625 C 27.00362,6.501399 26.881952,6.374975 26.75,6.28125 C 26.486095,6.0938 26.195186,5.984415 25.90625,5.9375 z M 5.96875,10.96875 C 6.1037296,11.049881 6.2498981,11.16618 6.375,11.28125 C 6.2448352,11.15954 6.1097804,11.053518 5.96875,10.96875 z "
       id="path3389" />
    <path
       style="opacity:0.25;fill:url(#linearGradient4441);fill-opacity:1;fill-rule:nonzero;stroke:none;stroke-width:0.2;stroke-linecap:round;stroke-linejoin:round;stroke-miterlimit:4;stroke-dasharray:none;stroke-opacity:1"
       d="M 5.16804,10.046918 C 3.78501,10.046918 2.86501,11.738584 3.10554,13.828168 C 3.34607,15.917752 4.66,17.609418 6.04304,17.609418 C 7.42607,17.609418 8.34607,15.917752 8.10554,13.828168 C 7.86501,11.738584 6.55107,10.046918 5.16804,10.046918 z M 5.13679,10.703168 C 6.29377,10.703168 7.40433,12.142622 7.60554,13.890668 C 7.80675,15.638713 7.01252,17.046918 5.85554,17.046918 C 4.69856,17.046917 3.61925,15.638714 3.41804,13.890668 C 3.21683,12.142622 3.97981,10.703168 5.13679,10.703168 z "
       id="path3395" />
    <path
       style="opacity:0.25;fill:url(#linearGradient4455);fill-opacity:1.0;fill-rule:nonzero;stroke:none;stroke-width:0.2;stroke-linecap:round;stroke-linejoin:round;stroke-miterlimit:4;stroke-dasharray:none;stroke-opacity:1"
       d="M 25.8125,5.204754 C 25.128019,5.204754 24.552543,5.622981 24.15625,6.267254 L 25.21875,6.048504 L 25.28125,6.048504 C 25.470867,5.95885 25.655887,5.861004 25.875,5.861004 C 25.926402,5.861004 25.980037,5.886948 26.03125,5.892254 C 26.175862,5.907238 26.327778,5.931441 26.46875,5.986004 C 26.326626,5.931249 26.177157,5.907372 26.03125,5.892254 L 25.90625,5.923504 C 27.061992,6.111165 28.109538,7.535266 28.3125,9.298504 C 28.467952,10.649001 28.063032,11.803528 27.375,12.361004 C 27.576065,12.245123 27.750043,12.093677 27.90625,11.892254 C 28.062457,11.690831 28.21171,11.44454 28.3125,11.173504 C 28.211998,11.451684 28.064109,11.686396 27.90625,11.892254 C 27.581039,12.316349 27.157662,12.579754 26.65625,12.579754 C 26.64581,12.579754 26.635431,12.579972 26.625,12.579754 C 26.336596,12.650631 25.871329,12.753788 25.5625,12.829754 C 25.934912,13.076519 26.312836,13.236004 26.71875,13.236004 C 28.181823,13.236004 29.191947,11.446517 28.9375,9.236004 C 28.683052,7.025492 27.275572,5.204754 25.8125,5.204754 z M 27.9375,7.423504 C 28.03496,7.602337 28.110893,7.786668 28.1875,7.986004 C 28.112598,7.792504 28.032288,7.59718 27.9375,7.423504 z "
       id="path2360" />
    <path
       style="opacity:0.6;fill:url(#linearGradient3441);fill-opacity:1;fill-rule:nonzero;stroke:none;stroke-width:0.5;stroke-linecap:round;stroke-linejoin:round;stroke-miterlimit:4;stroke-dasharray:none;stroke-opacity:1"
       d="M 31.375,16.78125 L 31.375,26.46875 L 31.375,26.96875 L 31.375,27.65625 C 31.66013,28.471101 33.226596,29.035292 34.96875,28.9375 C 36.554558,28.848483 37.72183,28.230817 37.8125,27.5 C 37.818885,27.448534 37.811803,27.395839 37.8125,27.34375 C 37.817608,27.302577 37.810132,27.260281 37.8125,27.21875 L 37.8125,27.0625 L 37.8125,26.5 L 37.8125,16.78125 C 37.165924,17.184837 36.201239,17.46733 35.0625,17.53125 C 33.590087,17.6139 32.223989,17.298863 31.375,16.78125 z "
       id="rect3427"
       sodipodi:nodetypes="ccccsssccccsc" />
    <path
       style="opacity:0.5;fill:url(#linearGradient3433);fill-opacity:1;fill-rule:nonzero;stroke:none;stroke-width:0.2;stroke-linecap:round;stroke-linejoin:round;stroke-miterlimit:4;stroke-dasharray:none;stroke-opacity:1"
       d="M 5.125,10.71875 C 3.96802,10.71875 3.205041,12.158204 3.40625,13.90625 C 3.60746,15.654296 4.68677,17.062498 5.84375,17.0625 C 7.00073,17.0625 7.79496,15.654295 7.59375,13.90625 C 7.39254,12.158204 6.28198,10.71875 5.125,10.71875 z "
       id="path3512"
       sodipodi:nodetypes="csssc" />
    <path
       id="path3518"
       d="M 31.125,4.111004 L 25.5625,5.236004 C 25.644517,5.22331 25.72694,5.204754 25.8125,5.204754 C 27.275572,5.204754 28.683052,7.025492 28.9375,9.236004 C 29.155846,11.13289 28.44368,12.698903 27.3125,13.111004 C 29.328767,12.618533 31.97379,11.986004 32,11.986004 C 33.444948,11.986004 34.501297,10.231627 34.25,8.048504 C 33.998705,5.865372 32.569949,4.111004 31.125,4.111004 z "
       style="opacity:0.4;fill:url(#linearGradient3437);fill-opacity:1;fill-rule:nonzero;stroke:none;stroke-width:0.2;stroke-linecap:round;stroke-linejoin:round;stroke-miterlimit:4;stroke-dasharray:none;stroke-opacity:1" />
    <path
       style="opacity:0.6;fill:url(#linearGradient3439);fill-opacity:1;fill-rule:nonzero;stroke:none;stroke-width:0.5;stroke-linecap:round;stroke-linejoin:round;stroke-miterlimit:4;stroke-dasharray:none;stroke-opacity:1"
       d="M 32.84375,3.84375 C 32.238445,3.84375 31.665248,3.94533 31.125,4.125 C 32.569949,4.125 33.998705,5.879368 34.25,8.0625 C 34.501297,10.245623 33.444948,12 32,12 C 31.992995,12 31.069147,12.236882 30.75,12.3125 L 30.75,16.25 C 31.377647,17.083198 33.135814,17.6394 35.0625,17.53125 C 36.638598,17.442779 37.89668,16.946575 38.40625,16.28125 L 38.40625,8.5625 C 38.242508,7.62171 37.851303,6.750059 37.28125,6.03125 C 37.258602,6.001434 37.241979,5.966843 37.21875,5.9375 C 37.02841,5.707077 36.817934,5.509962 36.59375,5.3125 C 36.414403,5.15453 36.229715,5.009333 36.03125,4.875 C 36.019576,4.867098 36.011736,4.851566 36,4.84375 C 35.8637,4.748647 35.707311,4.676562 35.5625,4.59375 C 35.40401,4.507409 35.260928,4.41473 35.09375,4.34375 C 34.399127,4.030155 33.654644,3.84375 32.84375,3.84375 z "
       id="path3522" />
    <path
       style="opacity:0.76699033;fill:url(#linearGradient4459);fill-opacity:1;fill-rule:nonzero;stroke:none;stroke-width:0.2;stroke-linecap:round;stroke-linejoin:round;stroke-miterlimit:4;stroke-dasharray:none;stroke-opacity:1"
       d="M 34.96875,34.515021 C 35.300217,34.528317 35.624733,34.565739 35.9375,34.608771 C 35.621959,34.564748 35.303881,34.528464 34.96875,34.515021 z M 36.84375,34.796271 C 37.130309,34.866244 37.403408,34.952152 37.65625,35.046271 C 37.39932,34.948236 37.136589,34.868895 36.84375,34.796271 z M 37.65625,35.046271 C 37.895238,35.135233 38.110159,35.219416 38.3125,35.327521 C 38.115355,35.220203 37.889137,35.135132 37.65625,35.046271 z M 29.5625,36.921271 L 29.5625,37.483771 C 29.563108,37.556458 29.573815,37.626878 29.59375,37.702521 C 29.93688,39.004541 32.446236,39.950145 35.1875,39.796271 C 37.684009,39.656134 39.513621,38.672767 39.5625,37.515021 C 39.56335,37.4949 39.562699,37.297163 39.5625,37.108771 C 39.382356,38.20929 37.586107,39.13038 35.1875,39.265021 C 32.446236,39.418895 29.93688,38.473288 29.59375,37.171271 C 29.572304,37.089895 29.566424,37.001485 29.5625,36.921271 z "
       id="path2397" />
    <path
       style="opacity:0.5;fill:url(#linearGradient4457);fill-opacity:1.0;fill-rule:nonzero;stroke:none;stroke-width:0.2;stroke-linecap:round;stroke-linejoin:round;stroke-miterlimit:4;stroke-dasharray:none;stroke-opacity:1"
       d="M 31.375,26.46875 C 31.191377,26.590521 31.027986,26.701713 30.90625,26.84375 C 30.784514,26.985787 30.704433,27.158669 30.65625,27.3125 C 30.623403,27.417368 30.588421,27.516068 30.59375,27.625 C 30.594687,27.63538 30.591114,27.646249 30.59375,27.65625 C 30.591798,27.707716 30.580572,27.762496 30.59375,27.8125 C 30.867854,28.852594 32.872691,29.59167 35.0625,29.46875 C 36.931612,29.363831 38.329839,28.662955 38.53125,27.8125 C 38.543691,27.759969 38.558351,27.707975 38.5625,27.65625 C 38.563784,27.636849 38.562477,27.613268 38.5625,27.59375 C 38.562793,27.56347 38.566319,27.530254 38.5625,27.5 C 38.557227,27.458221 38.542891,27.419173 38.53125,27.375 C 38.528906,27.366107 38.533851,27.352602 38.53125,27.34375 C 38.511834,27.270077 38.473686,27.195503 38.4375,27.125 C 38.409074,27.072637 38.380964,27.019233 38.34375,26.96875 C 38.326712,26.944819 38.300181,26.929713 38.28125,26.90625 C 38.15917,26.759674 38.000158,26.626396 37.8125,26.5 L 37.8125,27.0625 L 37.8125,27.21875 C 37.823683,27.261184 37.813057,27.302079 37.8125,27.34375 C 37.811803,27.395839 37.818885,27.448534 37.8125,27.5 C 37.72183,28.230817 36.554558,28.848483 34.96875,28.9375 C 33.181925,29.037799 31.56741,28.442437 31.34375,27.59375 C 31.322492,27.513085 31.310461,27.426593 31.3125,27.34375 C 31.313308,27.333371 31.311273,27.322835 31.3125,27.3125 C 31.313371,27.302486 31.310953,27.290996 31.3125,27.28125 C 31.321597,27.223953 31.354592,27.180074 31.375,27.125 L 31.375,26.96875 L 31.375,26.46875 z "
       id="path3481" />
    <rect
       style="opacity:0.61162792;fill:#555753;fill-opacity:1;fill-rule:nonzero;stroke:none;stroke-width:0.69999999;stroke-linecap:round;stroke-linejoin:miter;stroke-miterlimit:4;stroke-dasharray:none;stroke-opacity:1"
       id="rect1951"
       width="40.001965"
       height="10.004759"
       x="-0.0019644466"
       y="30" />
    <text
       xml:space="preserve"
       style="font-size:12px;font-style:normal;font-weight:normal;fill:#eeeeec;fill-opacity:1;stroke:none;stroke-width:1px;stroke-linecap:butt;stroke-linejoin:miter;stroke-opacity:1;font-family:Bitstream Vera Sans"
       x="14.725015"
       y="39.168156"
       id="text2840"><tspan
         sodipodi:role="line"
         id="tspan2842"
         x="14.725015"
         y="39.168156">Cl</tspan></text>
    <path
       style="opacity:0.6;fill:url(#linearGradient3450);fill-opacity:1;fill-rule:nonzero;stroke:none;stroke-width:0.2;stroke-linecap:round;stroke-linejoin:round;stroke-miterlimit:4;stroke-dasharray:none;stroke-opacity:1"
       d="M 30.5625,27.625 L 30.5625,36.28125 L 30.59375,36.28125 C 30.561115,36.424635 30.554348,36.569236 30.59375,36.71875 C 30.867854,37.758844 32.872691,38.49792 35.0625,38.375 C 37.252309,38.25208 38.805354,37.321344 38.53125,36.28125 L 38.53125,27.8125 C 38.329839,28.662955 36.931612,29.363831 35.0625,29.46875 C 32.872691,29.59167 30.867854,28.852594 30.59375,27.8125 C 30.580572,27.762496 30.591798,27.707716 30.59375,27.65625 C 30.591114,27.646249 30.594687,27.63538 30.59375,27.625 L 30.5625,27.625 z M 37.5625,28 C 37.48902,28.081034 37.381948,28.176559 37.28125,28.25 C 37.390999,28.169958 37.485218,28.088975 37.5625,28 z M 37.28125,28.25 C 37.079855,28.396881 36.826091,28.518231 36.53125,28.625 C 36.826091,28.518231 37.079855,28.396881 37.28125,28.25 z M 31.75,28.15625 C 31.859659,28.249181 31.97957,28.327061 32.125,28.40625 C 31.98807,28.331689 31.855366,28.243047 31.75,28.15625 z M 32.125,28.40625 C 32.293765,28.498146 32.47886,28.585871 32.6875,28.65625 C 32.476053,28.584073 32.296163,28.499451 32.125,28.40625 z "
       id="path3445" />
    <path
       style="opacity:0.39300005;fill:url(#radialGradient4433);fill-opacity:1;fill-rule:nonzero;stroke:none;stroke-width:0.5;stroke-linecap:round;stroke-linejoin:round;stroke-miterlimit:4;stroke-dasharray:none;stroke-opacity:1"
       d="M 32.84375,3.84375 C 32.238445,3.8437499 31.665248,3.94533 31.125,4.125 C 32.569949,4.125 33.998705,5.8793681 34.25,8.0625 C 34.501297,10.245623 33.444948,12 32,12 C 31.992995,12 31.069147,12.236882 30.75,12.3125 L 30.75,16.25 C 31.377647,17.083198 33.135814,17.6394 35.0625,17.53125 C 36.638598,17.442779 37.89668,16.946575 38.40625,16.28125 L 38.40625,8.5625 C 38.242508,7.6217101 37.851303,6.750059 37.28125,6.03125 C 37.258602,6.0014341 37.241979,5.966843 37.21875,5.9375 C 37.02841,5.7070771 36.817934,5.509962 36.59375,5.3125 C 36.414403,5.1545301 36.229715,5.009333 36.03125,4.875 C 36.019576,4.8670981 36.011736,4.851566 36,4.84375 C 35.8637,4.7486471 35.707311,4.676562 35.5625,4.59375 C 35.40401,4.5074091 35.260928,4.41473 35.09375,4.34375 C 34.399127,4.0301551 33.654644,3.84375 32.84375,3.84375 z "
       id="path4425" />
    <path
       sodipodi:nodetypes="ccccsssccccsc"
       id="path2325"
       d="M 31.375,16.78125 L 31.375,26.46875 L 31.375,26.96875 L 31.375,27.65625 C 31.66013,28.471101 33.226596,29.035292 34.96875,28.9375 C 36.554558,28.848483 37.72183,28.230817 37.8125,27.5 C 37.818885,27.448534 37.811803,27.395839 37.8125,27.34375 C 37.817608,27.302577 37.810132,27.260281 37.8125,27.21875 L 37.8125,27.0625 L 37.8125,26.5 L 37.8125,16.78125 C 37.165924,17.184837 36.201239,17.46733 35.0625,17.53125 C 33.590087,17.6139 32.223989,17.298863 31.375,16.78125 z "
       style="opacity:0.5;fill:url(#radialGradient3296);fill-opacity:1;fill-rule:nonzero;stroke:none;stroke-width:0.5;stroke-linecap:round;stroke-linejoin:round;stroke-miterlimit:4;stroke-dasharray:none;stroke-opacity:1" />
    <path
       style="opacity:0.25;fill:url(#linearGradient3317);fill-opacity:1.0;fill-rule:nonzero;stroke:none;stroke-width:0.2;stroke-linecap:round;stroke-linejoin:round;stroke-miterlimit:4;stroke-dasharray:none;stroke-opacity:1"
       d="M 25.90625 5.9375 L 25.34375 6.03125 C 25.322309 6.041473 25.302753 6.052333 25.28125 6.0625 L 25.21875 6.0625 L 24.15625 6.28125 L 5.21875 10.0625 C 6.5795355 10.110596 7.8567086 11.784476 8.09375 13.84375 C 8.2982005 15.619896 7.6691632 17.093368 6.625 17.5 C 7.5716824 17.296839 13.245362 15.885155 19.25 14.40625 C 22.397346 13.630064 23.667462 13.308868 25.5625 12.84375 C 25.871329 12.767784 26.336596 12.664627 26.625 12.59375 C 26.635026 12.591286 26.646216 12.596251 26.65625 12.59375 C 26.892702 12.53482 27.129661 12.458779 27.34375 12.40625 C 27.355683 12.399469 27.363211 12.382123 27.375 12.375 C 28.063032 11.817524 28.467952 10.662997 28.3125 9.3125 C 28.109538 7.549262 27.061992 6.125161 25.90625 5.9375 z M 5.96875 10.96875 C 6.1037296 11.049881 6.2498981 11.16618 6.375 11.28125 C 6.2448352 11.15954 6.1097804 11.053518 5.96875 10.96875 z M 3.53125 11.15625 C 3.4558968 11.289339 3.4025865 11.441291 3.34375 11.59375 C 3.4000187 11.44316 3.4591857 11.288489 3.53125 11.15625 z M 7.03125 12.125 C 7.3169524 12.63409 7.5182962 13.250733 7.59375 13.90625 C 7.5182962 13.250733 7.3169524 12.63409 7.03125 12.125 z M 3.125 12.40625 C 3.0913666 12.615786 3.0683766 12.835327 3.0625 13.0625 C 3.0669205 12.837515 3.0936165 12.614707 3.125 12.40625 z M 7.625 14.53125 C 7.6166141 14.896846 7.5605791 15.255288 7.46875 15.5625 C 7.564906 15.249309 7.6164008 14.906145 7.625 14.53125 z M 7.375 15.8125 C 7.2936624 16.018127 7.1787245 16.182113 7.0625 16.34375 C 7.1803347 16.183619 7.292043 16.017198 7.375 15.8125 z "
       id="path3304" />
    <path
       id="path3344"
       d="M 32.84375,3.84375 C 32.238445,3.8437499 31.665248,3.94533 31.125,4.125 C 32.569949,4.125 33.998705,5.8793681 34.25,8.0625 C 34.501297,10.245623 33.444948,12 32,12 C 31.992995,12 31.069147,12.236882 30.75,12.3125 L 30.75,16.25 C 31.377647,17.083198 33.135814,17.6394 35.0625,17.53125 C 36.638598,17.442779 37.89668,16.946575 38.40625,16.28125 L 38.40625,8.5625 C 38.242508,7.6217101 37.851303,6.750059 37.28125,6.03125 C 37.258602,6.0014341 37.241979,5.966843 37.21875,5.9375 C 37.02841,5.7070771 36.817934,5.509962 36.59375,5.3125 C 36.414403,5.1545301 36.229715,5.009333 36.03125,4.875 C 36.019576,4.8670981 36.011736,4.851566 36,4.84375 C 35.8637,4.7486471 35.707311,4.676562 35.5625,4.59375 C 35.40401,4.5074091 35.260928,4.41473 35.09375,4.34375 C 34.399127,4.0301551 33.654644,3.84375 32.84375,3.84375 z "
       style="opacity:0.15;fill:url(#radialGradient3346);fill-opacity:1;fill-rule:nonzero;stroke:none;stroke-width:0.5;stroke-linecap:round;stroke-linejoin:round;stroke-miterlimit:4;stroke-dasharray:none;stroke-opacity:1" />
  </g>
</svg>
