<?xml version="1.0" encoding="UTF-8" standalone="no"?>
<!-- Created with Inkscape (http://www.inkscape.org/) -->
<svg
   xmlns:dc="http://purl.org/dc/elements/1.1/"
   xmlns:cc="http://web.resource.org/cc/"
   xmlns:rdf="http://www.w3.org/1999/02/22-rdf-syntax-ns#"
   xmlns:svg="http://www.w3.org/2000/svg"
   xmlns="http://www.w3.org/2000/svg"
   xmlns:xlink="http://www.w3.org/1999/xlink"
   xmlns:sodipodi="http://sodipodi.sourceforge.net/DTD/sodipodi-0.dtd"
   xmlns:inkscape="http://www.inkscape.org/namespaces/inkscape"
   width="40"
   height="40"
   id="svg2193"
   sodipodi:version="0.32"
   inkscape:version="0.44.1"
   version="1.0"
   sodipodi:docbase="/home/carsten/svn/kalzium_www/files"
   sodipodi:docname="20.svg">
  <defs
     id="defs2195">
    <linearGradient
       inkscape:collect="always"
       id="linearGradient5049">
      <stop
         style="stop-color:#555753;stop-opacity:1;"
         offset="0"
         id="stop5051" />
      <stop
         style="stop-color:#555753;stop-opacity:0;"
         offset="1"
         id="stop5053" />
    </linearGradient>
    <linearGradient
       inkscape:collect="always"
       id="linearGradient5005">
      <stop
         style="stop-color:#ffffff;stop-opacity:1;"
         offset="0"
         id="stop5007" />
      <stop
         style="stop-color:#ffffff;stop-opacity:0;"
         offset="1"
         id="stop5009" />
    </linearGradient>
    <linearGradient
       inkscape:collect="always"
       id="linearGradient3615">
      <stop
         style="stop-color:#000000;stop-opacity:1;"
         offset="0"
         id="stop3617" />
      <stop
         style="stop-color:#000000;stop-opacity:0;"
         offset="1"
         id="stop3619" />
    </linearGradient>
    <linearGradient
       id="linearGradient3482"
       inkscape:collect="always">
      <stop
         id="stop3484"
         offset="0"
         style="stop-color:#ffffff;stop-opacity:1" />
      <stop
         id="stop3486"
         offset="1"
         style="stop-color:#eeeeec;stop-opacity:0;" />
    </linearGradient>
    <linearGradient
       id="linearGradient3462">
      <stop
         id="stop3464"
         offset="0"
         style="stop-color:#000000;stop-opacity:0.90909094;" />
      <stop
         style="stop-color:#000000;stop-opacity:0;"
         offset="0.5"
         id="stop3466" />
      <stop
         id="stop3468"
         offset="1"
         style="stop-color:#000000;stop-opacity:0;" />
    </linearGradient>
    <linearGradient
       id="linearGradient3414">
      <stop
         style="stop-color:#000000;stop-opacity:0.23232323;"
         offset="0"
         id="stop3417" />
      <stop
         id="stop3419"
         offset="0.18000001"
         style="stop-color:#ffffff;stop-opacity:0.36363637;" />
      <stop
         style="stop-color:#000000;stop-opacity:0.26262626;"
         offset="0.32875001"
         id="stop3421" />
      <stop
         style="stop-color:#000000;stop-opacity:0;"
         offset="0.75"
         id="stop3423" />
      <stop
         style="stop-color:#000000;stop-opacity:0.16161616;"
         offset="1"
         id="stop3425" />
    </linearGradient>
    <linearGradient
       id="linearGradient3318">
      <stop
         style="stop-color:#ffffff;stop-opacity:0.16161616;"
         offset="0"
         id="stop3320" />
      <stop
         id="stop3324"
         offset="0.125"
         style="stop-color:#000000;stop-opacity:0.5959596;" />
      <stop
         style="stop-color:#0e0000;stop-opacity:0;"
         offset="0.453125"
         id="stop3326" />
      <stop
         style="stop-color:#0e0000;stop-opacity:0;"
         offset="1"
         id="stop3322" />
    </linearGradient>
    <linearGradient
       id="linearGradient3300">
      <stop
         style="stop-color:#0e0000;stop-opacity:0.34343433;"
         offset="0"
         id="stop3302" />
      <stop
         id="stop3306"
         offset="0.5"
         style="stop-color:#ffffff;stop-opacity:0.50505048;" />
      <stop
         style="stop-color:#0e0000;stop-opacity:0.5959596;"
         offset="1"
         id="stop3304" />
    </linearGradient>
    <linearGradient
       id="linearGradient3267">
      <stop
         style="stop-color:#0e0000;stop-opacity:0.49494949;"
         offset="0"
         id="stop3269" />
      <stop
         id="stop3273"
         offset="0.5"
         style="stop-color:#0e0000;stop-opacity:0.05050505;" />
      <stop
         style="stop-color:#0e0000;stop-opacity:0.09090909;"
         offset="0.75"
         id="stop3275" />
      <stop
         style="stop-color:#0e0000;stop-opacity:0.4040404;"
         offset="1"
         id="stop3271" />
    </linearGradient>
    <linearGradient
       inkscape:collect="always"
       id="linearGradient3239">
      <stop
         style="stop-color:#eeeeec;stop-opacity:1;"
         offset="0"
         id="stop3241" />
      <stop
         style="stop-color:#eeeeec;stop-opacity:0;"
         offset="1"
         id="stop3243" />
    </linearGradient>
    <linearGradient
       inkscape:collect="always"
       xlink:href="#linearGradient3267"
       id="linearGradient3265"
       x1="12.687034"
       y1="6.0625"
       x2="28.03125"
       y2="6.0625"
       gradientUnits="userSpaceOnUse"
       gradientTransform="matrix(1.1554857,0,0,0.8870295,4.0445421,19.995638)" />
    <linearGradient
       inkscape:collect="always"
       xlink:href="#linearGradient3267"
       id="linearGradient3283"
       x1="12.34375"
       y1="7.71875"
       x2="28.4375"
       y2="7.71875"
       gradientUnits="userSpaceOnUse"
       gradientTransform="matrix(1.1554857,0,0,0.8870295,4.044542,19.995638)" />
    <linearGradient
       inkscape:collect="always"
       xlink:href="#linearGradient3300"
       id="linearGradient3298"
       x1="12.28125"
       y1="1.9298575"
       x2="26.959806"
       y2="8.0494299"
       gradientUnits="userSpaceOnUse"
       gradientTransform="matrix(1.1554857,0,0,0.8870295,4.044542,19.995638)" />
    <linearGradient
       inkscape:collect="always"
       xlink:href="#linearGradient3318"
       id="linearGradient3316"
       x1="-4.78125"
       y1="20.286415"
       x2="9.46875"
       y2="19.0625"
       gradientUnits="userSpaceOnUse"
       gradientTransform="matrix(1.1554857,0,0,0.8870295,24.843274,19.995638)" />
    <linearGradient
       inkscape:collect="always"
       xlink:href="#linearGradient3300"
       id="linearGradient3347"
       x1="10.659656"
       y1="10.057336"
       x2="29.534019"
       y2="14.3125"
       gradientUnits="userSpaceOnUse"
       gradientTransform="matrix(1.1554857,0,0,0.8870295,4.0445421,19.995638)" />
    <linearGradient
       inkscape:collect="always"
       xlink:href="#linearGradient3239"
       id="linearGradient3367"
       x1="16.462814"
       y1="-6.6035352"
       x2="18.743139"
       y2="9.527873"
       gradientUnits="userSpaceOnUse"
       gradientTransform="matrix(1.1554857,0,0,0.8870295,4.044542,19.995638)" />
    <linearGradient
       inkscape:collect="always"
       xlink:href="#linearGradient3414"
       id="linearGradient3412"
       gradientUnits="userSpaceOnUse"
       x1="12.34375"
       y1="18.06579"
       x2="28.4375"
       y2="16.65625"
       gradientTransform="matrix(1.1554857,0,0,0.8870295,4.0445421,19.995638)" />
    <linearGradient
       inkscape:collect="always"
       xlink:href="#linearGradient3462"
       id="linearGradient3460"
       gradientUnits="userSpaceOnUse"
       x1="27.419497"
       y1="16.65625"
       x2="25.696726"
       y2="16.421326"
       gradientTransform="matrix(1.1554857,0,0,0.8870295,4.044542,19.995638)" />
    <linearGradient
       inkscape:collect="always"
       xlink:href="#linearGradient3482"
       id="linearGradient3480"
       x1="20.931486"
       y1="14.0625"
       x2="20.375"
       y2="11.351463"
       gradientUnits="userSpaceOnUse"
       gradientTransform="matrix(1.1554857,0,0,0.8870295,4.0445421,19.995638)" />
    <linearGradient
       inkscape:collect="always"
       xlink:href="#linearGradient3300"
       id="linearGradient3499"
       x1="12.337482"
       y1="13.694005"
       x2="28.974068"
       y2="12.149745"
       gradientUnits="userSpaceOnUse"
       gradientTransform="matrix(1.1554857,0,0,0.8870295,4.0445421,19.995638)" />
    <linearGradient
       inkscape:collect="always"
       xlink:href="#linearGradient3615"
       id="linearGradient4594"
       x1="28.306023"
       y1="12.224522"
       x2="31.156527"
       y2="11.637248"
       gradientUnits="userSpaceOnUse"
       gradientTransform="matrix(1.3934581,0,0,1.3934581,-12.4543,-1.0319541)" />
    <linearGradient
       inkscape:collect="always"
       xlink:href="#linearGradient3615"
       id="linearGradient5565"
       x1="26.332485"
       y1="14.638659"
       x2="31.739014"
       y2="17.155546"
       gradientUnits="userSpaceOnUse"
       gradientTransform="matrix(1.3934581,0,0,1.3934581,-12.4543,-1.0319541)" />
    <linearGradient
       inkscape:collect="always"
       xlink:href="#linearGradient3615"
       id="linearGradient5567"
       x1="26.071648"
       y1="11.372051"
       x2="26.071651"
       y2="22.446978"
       gradientUnits="userSpaceOnUse"
       gradientTransform="matrix(1.3934581,0,0,1.3934581,-12.4543,-1.0319541)" />
    <linearGradient
       inkscape:collect="always"
       xlink:href="#linearGradient3615"
       id="linearGradient5569"
       x1="24.090372"
       y1="1.1675143"
       x2="24.761539"
       y2="3.8848538"
       gradientUnits="userSpaceOnUse"
       gradientTransform="matrix(1.3934581,0,0,1.3934581,-12.4543,-1.0319541)" />
    <linearGradient
       inkscape:collect="always"
       xlink:href="#linearGradient3615"
       id="linearGradient5575"
       x1="21.712273"
       y1="15.218751"
       x2="21.712273"
       y2="13.711569"
       gradientUnits="userSpaceOnUse"
       gradientTransform="matrix(1.3934581,0,0,1.3934581,-12.4543,-1.0319541)" />
    <radialGradient
       inkscape:collect="always"
       xlink:href="#linearGradient3267"
       id="radialGradient5033"
       cx="26.806074"
       cy="29.937412"
       fx="26.806074"
       fy="29.937412"
       r="3.7940905"
       gradientTransform="matrix(1.1956521,2.1797016e-7,-8.322498e-8,0.4565218,-5.2446625,16.270327)"
       gradientUnits="userSpaceOnUse" />
    <linearGradient
       inkscape:collect="always"
       xlink:href="#linearGradient5049"
       id="linearGradient5055"
       x1="24.3125"
       y1="27.055747"
       x2="26.628061"
       y2="27.055747"
       gradientUnits="userSpaceOnUse" />
    <linearGradient
       inkscape:collect="always"
       xlink:href="#linearGradient5005"
       id="linearGradient5089"
       gradientUnits="userSpaceOnUse"
       x1="25.939566"
       y1="27.983341"
       x2="24.614988"
       y2="30.037895" />
    <linearGradient
       inkscape:collect="always"
       xlink:href="#linearGradient3615"
       id="linearGradient4502"
       gradientUnits="userSpaceOnUse"
       gradientTransform="matrix(1.3934581,0,0,1.3934581,-12.4543,-1.0319541)"
       x1="20.972385"
       y1="-0.65602082"
       x2="20.195026"
       y2="2.4337504" />
  </defs>
  <sodipodi:namedview
     id="base"
     pagecolor="#ffffff"
     bordercolor="#666666"
     borderopacity="1.0"
     inkscape:pageopacity="0.0"
     inkscape:pageshadow="2"
     inkscape:zoom="17.197954"
     inkscape:cx="19.999018"
     inkscape:cy="19.968548"
     inkscape:current-layer="layer1"
     showgrid="false"
     inkscape:grid-bbox="false"
     inkscape:document-units="px"
     width="40px"
     height="40px"
     gridempspacing="2"
     inkscape:window-width="1167"
     inkscape:window-height="914"
     inkscape:window-x="56"
     inkscape:window-y="40" />
  <metadata
     id="metadata2198">
    <rdf:RDF>
      <cc:Work
         rdf:about="">
        <dc:format>image/svg+xml</dc:format>
        <dc:type
           rdf:resource="http://purl.org/dc/dcmitype/StillImage" />
        <dc:creator>
          <cc:Agent>
            <dc:title>Jarle Akselsen</dc:title>
          </cc:Agent>
        </dc:creator>
        <cc:license
           rdf:resource="http://creativecommons.org/licenses/GPL/2.0/" />
      </cc:Work>
      <cc:License
         rdf:about="http://creativecommons.org/licenses/GPL/2.0/">
        <cc:permits
           rdf:resource="http://web.resource.org/cc/Reproduction" />
        <cc:permits
           rdf:resource="http://web.resource.org/cc/Distribution" />
        <cc:requires
           rdf:resource="http://web.resource.org/cc/Notice" />
        <cc:permits
           rdf:resource="http://web.resource.org/cc/DerivativeWorks" />
        <cc:requires
           rdf:resource="http://web.resource.org/cc/ShareAlike" />
        <cc:requires
           rdf:resource="http://web.resource.org/cc/SourceCode" />
      </cc:License>
    </rdf:RDF>
  </metadata>
  <g
     id="layer1"
     inkscape:label="Layer 1"
     inkscape:groupmode="layer">
    <path
       sodipodi:nodetypes="ccc"
       id="path2276"
       d="M 10.956528,1.0198748 L 10.956528,-1.7748336 L 10.956528,1.0198748 z "
       style="fill:#ffffff;fill-opacity:0.75688076;fill-rule:nonzero;stroke:none;stroke-width:0.5;stroke-linecap:round;stroke-linejoin:round;stroke-miterlimit:4;stroke-dasharray:none;stroke-dashoffset:4;stroke-opacity:1" />
    <path
       style="opacity:0.56310676;fill:url(#linearGradient3265);fill-opacity:1;fill-rule:evenodd;stroke:none;stroke-width:1px;stroke-linecap:butt;stroke-linejoin:miter;stroke-opacity:1"
       d="M 27.551444,20.910389 C 22.777238,20.910389 18.894751,22.042739 18.704756,23.460596 L 18.704756,23.516037 C 18.703544,23.53412 18.704756,23.553308 18.704756,23.571477 C 18.704756,23.682217 18.733072,23.796911 18.776974,23.904112 L 19.679697,29.836123 L 19.715805,29.836123 C 19.857042,28.460264 23.336738,27.341352 27.587554,27.341352 C 31.847113,27.341352 35.33186,28.456843 35.459299,29.836123 L 36.362022,23.848674 C 36.392318,23.759301 36.398131,23.663233 36.398131,23.571477 L 36.434241,23.460596 L 36.398131,23.460596 C 36.208137,22.042739 32.325651,20.910389 27.551444,20.910389 z "
       id="path2253"
       sodipodi:nodetypes="cccscccscccccc" />
    <path
       style="opacity:1;fill:url(#linearGradient3298);fill-opacity:1;fill-rule:nonzero;stroke:none;stroke-width:0.2;stroke-linecap:round;stroke-linejoin:round;stroke-miterlimit:4;stroke-dasharray:none;stroke-opacity:0.79187814"
       d="M 25.673779,20.965827 C 25.277323,20.989692 24.89472,21.03855 24.518295,21.076707 C 24.997588,21.027559 25.494349,20.99512 25.99876,20.965827 C 25.892629,20.971094 25.778664,20.959513 25.673779,20.965827 z M 22.821173,21.298464 C 20.083529,21.776223 18.23534,22.651562 18.23534,23.654637 C 18.23534,25.167673 22.403783,26.398883 27.551444,26.398883 C 32.699109,26.398883 36.867548,25.167673 36.867549,23.654637 C 36.867549,22.652819 35.013667,21.776625 32.281713,21.298464 C 34.665229,21.753929 36.277527,22.560578 36.398131,23.460596 C 36.402951,23.496583 36.398131,23.535138 36.398131,23.571477 C 36.398131,23.663233 36.392318,23.759301 36.362022,23.848674 C 35.907606,25.189251 32.140859,26.232565 27.551444,26.232565 C 23.025329,26.232565 19.315097,25.218077 18.776974,23.904112 C 18.733072,23.796911 18.704756,23.682217 18.704756,23.571477 C 18.704756,23.553308 18.703544,23.53412 18.704756,23.516037 L 18.704756,23.460596 C 18.825361,22.560578 20.437661,21.753929 22.821173,21.298464 z "
       id="path2290" />
    <path
       style="opacity:1;fill:#ffffff;fill-opacity:1;fill-rule:evenodd;stroke:none;stroke-width:1px;stroke-linecap:butt;stroke-linejoin:miter;stroke-opacity:1"
       d="M 27.59375,27.34375 C 23.253616,27.34375 19.71875,28.490674 19.71875,29.90625 C 19.71875,30.083195 19.769955,30.270999 19.875,30.4375 C 19.5146,30.216929 19.3125,30.0625 19.3125,30.0625 L 19.3125,30.46875 L 20.8125,40 L 34.3125,40 L 35.78125,30.46875 L 35.75,30.46875 C 35.822003,30.334685 35.835113,30.202714 35.84375,30.0625 C 35.843749,30.062501 35.665387,30.209048 35.3125,30.4375 C 35.417543,30.271 35.46875,30.083196 35.46875,29.90625 C 35.468752,28.490674 31.933882,27.34375 27.59375,27.34375 z "
       id="path3254" />
    <path
       id="path3345"
       d="M 27.587554,27.313632 C 23.023748,27.313632 19.318611,28.513912 19.318609,30.002441 C 19.318609,31.490968 23.023748,32.691249 27.587554,32.69125 C 32.151357,32.69125 35.856497,31.490968 35.856498,30.002441 C 35.856498,28.513913 32.151356,27.313633 27.587554,27.313632 z M 27.587554,27.341352 C 31.927686,27.341354 35.459299,28.503707 35.459299,29.919282 C 35.4593,31.334856 31.927686,32.469491 27.587554,32.469491 C 23.247422,32.469493 19.715805,31.334856 19.715805,29.919282 C 19.715805,28.503706 23.247421,27.341352 27.587554,27.341352 z "
       style="opacity:1;fill:url(#linearGradient3347);fill-opacity:1;fill-rule:nonzero;stroke:none;stroke-width:0.2;stroke-linecap:round;stroke-linejoin:round;stroke-miterlimit:4;stroke-dasharray:none;stroke-opacity:0.79187814" />
    <path
       sodipodi:type="arc"
       style="opacity:1;fill:url(#radialGradient5033);fill-opacity:1.0;fill-rule:nonzero;stroke:none;stroke-width:0.2;stroke-linecap:round;stroke-linejoin:round;stroke-miterlimit:4;stroke-dasharray:none;stroke-opacity:1"
       id="path5025"
       sodipodi:cx="26.806074"
       sodipodi:cy="29.937412"
       sodipodi:rx="3.7940905"
       sodipodi:ry="1.2372035"
       d="M 30.600165 29.937412 A 3.7940905 1.2372035 0 1 1  23.011984,29.937412 A 3.7940905 1.2372035 0 1 1  30.600165 29.937412 z" />
    <path
       style="opacity:1;fill:url(#linearGradient5089);fill-opacity:1;fill-rule:nonzero;stroke:none;stroke-width:0.30000001;stroke-linecap:round;stroke-linejoin:round;stroke-miterlimit:4;stroke-dasharray:none;stroke-opacity:1"
       d="M 25.09375,26.09375 C 25.145193,26.265013 25.183796,26.4183 25.21875,26.59375 C 25.318723,26.877965 25.45468,27.191175 25.4375,27.5 C 25.479776,27.865226 25.574291,28.194208 25.59375,28.5625 C 25.574291,28.194208 25.335891,28.569906 25.34375,28.65625 C 24.610511,28.963687 24.125,29.448996 24.125,30 C 24.124999,30.935712 25.509667,31.6875 27.1875,31.6875 C 28.865335,31.6875 30.218751,30.935713 30.21875,30 C 30.218749,29.37619 29.58811,28.856826 28.6875,28.5625 C 28.687501,28.5625 28.443115,28.06368 27.875,26.96875 C 27.779973,26.782514 27.592911,26.404604 27.59375,26.40625 C 27.56841,26.356587 27.526841,26.271616 27.5,26.21875 C 26.900181,26.217482 26.314047,26.192438 25.75,26.15625 C 25.52618,26.14189 25.311205,26.112828 25.09375,26.09375 z "
       id="path5064" />
    <g
       id="g3369"
       style="fill:#ffffff;fill-opacity:1"
       transform="matrix(1.1554857,0,0,0.8870295,4.0445421,21.769698)">
      <path
         sodipodi:nodetypes="cccc"
         id="path2346"
         d="M 20.78125,-0.9375 C 21.16148,-0.8803632 21.506321,-0.7700269 21.8125,-0.625 C 21.917854,-0.7046784 22.034616,-0.774733 22.15625,-0.84375 C 21.706851,-0.8832406 21.255728,-0.92758 20.78125,-0.9375 z "
         style="opacity:0.56310676;fill:#ffffff;fill-opacity:1;fill-rule:evenodd;stroke:none;stroke-width:1px;stroke-linecap:butt;stroke-linejoin:miter;stroke-opacity:1" />
      <path
         sodipodi:nodetypes="csscc"
         id="path2355"
         d="M 17.15625,4.9375 C 17.767717,5.1176124 18.242532,5.370705 18.59375,5.625 C 18.600327,5.6297621 18.618528,5.620217 18.625,5.625 C 18.786931,5.4584369 18.956363,5.3000469 19.15625,5.15625 C 18.459624,5.1079555 17.785907,5.0421742 17.15625,4.9375 z "
         style="opacity:0.56310676;fill:#ffffff;fill-opacity:1;fill-rule:evenodd;stroke:none;stroke-width:1px;stroke-linecap:butt;stroke-linejoin:miter;stroke-opacity:1" />
    </g>
    <path
       style="opacity:1;fill:url(#linearGradient3367);fill-opacity:1;fill-rule:nonzero;stroke:none;stroke-width:0.2;stroke-linecap:round;stroke-linejoin:round;stroke-miterlimit:4;stroke-dasharray:none;stroke-opacity:0.79187814"
       d="M 27.551444,21.048986 C 24.977613,21.048986 22.665187,21.355924 20.979619,21.852856 C 20.792686,21.916374 20.604738,21.978139 20.437985,22.046894 C 19.416434,22.468084 18.778381,22.994319 18.704756,23.543756 L 18.704756,23.599196 C 18.703544,23.617279 18.704756,23.636467 18.704756,23.654637 C 18.874473,22.631876 20.987016,21.752655 23.940551,21.353902 C 24.022009,21.34374 24.11069,21.335676 24.193313,21.326182 C 24.297148,21.31335 24.412516,21.31013 24.518295,21.298464 C 25.476884,21.200171 26.479015,21.132145 27.551444,21.132145 C 28.148221,21.132145 28.721233,21.153853 29.284673,21.187584 C 29.331518,21.19019 29.382513,21.184773 29.429109,21.187584 C 29.827935,21.213605 30.207918,21.256915 30.584594,21.298464 C 30.69225,21.309501 30.803755,21.314024 30.909576,21.326182 C 30.996791,21.336961 31.076555,21.342321 31.162338,21.353902 C 34.115879,21.752655 36.228413,22.631876 36.398131,23.654637 C 36.398131,23.618296 36.402951,23.579742 36.398131,23.543756 C 36.324507,22.994319 35.686454,22.468084 34.664904,22.046894 C 34.640718,22.038361 34.617212,22.027619 34.592686,22.019174 C 34.447652,21.961068 34.28295,21.907115 34.12327,21.852856 C 32.437703,21.355924 30.125278,21.048986 27.551444,21.048986 z M 18.271449,24.014992 C 18.660769,25.423088 22.661803,26.537482 27.551444,26.537482 C 32.441087,26.537482 36.442118,25.423088 36.831439,24.014992 C 36.410891,25.233889 33.257514,26.183246 29.212454,26.398883 C 28.671281,26.427733 28.120904,26.482043 27.551444,26.482043 C 26.981986,26.482043 26.431608,26.427733 25.890432,26.398883 C 25.348554,26.369996 24.842605,26.343236 24.33775,26.288006 C 21.073908,25.930933 18.63566,25.070604 18.271449,24.014992 z "
       id="path2386" />
    <path
       sodipodi:nodetypes="cccc"
       id="path3404"
       d="M 28.05697,27.30924 C 28.49632,27.359921 28.894779,27.457791 29.248564,27.586436 C 29.370299,27.515759 29.505217,27.453617 29.645762,27.392398 C 29.126488,27.357369 28.605222,27.31804 28.05697,27.30924 z "
       style="opacity:0.56310676;fill:#ffffff;fill-opacity:1;fill-rule:evenodd;stroke:none;stroke-width:1px;stroke-linecap:butt;stroke-linejoin:miter;stroke-opacity:1" />
    <path
       sodipodi:nodetypes="csscc"
       id="path3406"
       d="M 29.411045,29.32345 C 29.31534,28.762813 29.360667,28.286811 29.465074,27.910626 C 29.467029,27.903583 29.448429,27.892248 29.450458,27.88528 C 29.198726,27.813744 28.952125,27.73319 28.706696,27.622692 C 28.981508,28.20507 29.227127,28.775147 29.411045,29.32345 z "
       style="opacity:0.56310676;fill:#ffffff;fill-opacity:1;fill-rule:evenodd;stroke:none;stroke-width:1px;stroke-linecap:butt;stroke-linejoin:miter;stroke-opacity:1" />
    <path
       style="opacity:0.56310676;fill:url(#linearGradient3283);fill-opacity:1;fill-rule:evenodd;stroke:none;stroke-width:1px;stroke-linecap:butt;stroke-linejoin:miter;stroke-opacity:1"
       d="M 25.421017,20.993547 C 24.893262,21.030047 24.393478,21.070452 23.904442,21.132145 C 24.382342,21.072699 24.906412,21.029071 25.421017,20.993547 z M 29.645762,20.993547 C 30.171604,21.029274 30.674637,21.071481 31.162338,21.132145 C 30.672918,21.071129 30.173592,21.029378 29.645762,20.993547 z M 36.867549,23.543756 C 36.872619,23.580844 36.867549,23.617184 36.867549,23.654637 L 36.903656,23.543756 L 36.867549,23.543756 z M 36.831439,23.931832 C 36.3536,25.313445 32.377379,26.398883 27.551444,26.398883 C 22.819807,26.398883 18.909016,25.357733 18.307558,24.014992 L 19.21028,29.752964 L 19.326041,30.424378 C 19.303059,30.506255 19.318609,29.918619 19.318609,30.002441 C 19.318609,31.490968 23.023748,32.69125 27.587554,32.69125 C 32.151357,32.69125 35.856497,31.490968 35.856498,30.002441 L 36.831439,23.931832 z "
       id="path2305"
       sodipodi:nodetypes="csccsccccccscccsscc" />
    <path
       style="opacity:0.56310676;fill:url(#linearGradient3316);fill-opacity:1;fill-rule:evenodd;stroke:none;stroke-width:1px;stroke-linecap:butt;stroke-linejoin:miter;stroke-opacity:1"
       d="M 19.3125 30.46875 L 20.8125 40 L 34.3125 40 L 35.78125 30.46875 L 35.75 30.46875 C 35.068226 31.732559 31.667302 32.6875 27.59375 32.6875 C 23.516813 32.6875 20.146013 31.734269 19.46875 30.46875 L 19.3125 30.46875 z "
       id="path3308" />
    <path
       style="opacity:0.56310676;fill:url(#linearGradient3412);fill-opacity:1;fill-rule:evenodd;stroke:none;stroke-width:1px;stroke-linecap:butt;stroke-linejoin:miter;stroke-opacity:1"
       d="M 36.875 23.53125 C 36.880069 23.568338 36.875 23.618797 36.875 23.65625 L 36.90625 23.53125 L 36.875 23.53125 z M 36.84375 23.9375 C 36.365908 25.319114 32.388435 26.40625 27.5625 26.40625 C 22.803132 26.406249 18.878355 25.354185 18.3125 24 L 20.78125 40 L 34.3125 40 L 36.84375 23.9375 z "
       id="path3410" />
    <path
       style="opacity:0.56310676;fill:url(#linearGradient3460);fill-opacity:1;fill-rule:evenodd;stroke:none;stroke-width:1px;stroke-linecap:butt;stroke-linejoin:miter;stroke-opacity:1"
       d="M 36.875,23.53125 C 36.880069,23.568338 36.875,23.618797 36.875,23.65625 L 36.90625,23.53125 L 36.875,23.53125 z M 36.84375,23.9375 C 36.365908,25.319114 32.388435,26.40625 27.5625,26.40625 C 22.803132,26.406249 18.878355,25.354185 18.3125,24 L 20.78125,40 L 34.3125,40 L 36.84375,23.9375 z "
       id="path3458" />
    <path
       style="opacity:1;fill:url(#linearGradient3480);fill-opacity:1;fill-rule:nonzero;stroke:none;stroke-width:0.2;stroke-linecap:round;stroke-linejoin:round;stroke-miterlimit:4;stroke-dasharray:none;stroke-opacity:0.79187814"
       d="M 19.860241,30.362796 C 19.993316,30.608188 20.251466,30.812203 20.582421,31.028068 C 20.255726,30.820855 20.003527,30.597964 19.860241,30.362796 z M 20.582421,31.028068 C 21.871671,31.868987 24.507753,32.469491 27.587554,32.469491 C 30.667352,32.469491 33.303435,31.868987 34.592686,31.028068 C 33.587727,31.665485 31.776549,32.114252 29.609652,32.303173 C 29.48513,32.248185 29.357409,32.20005 29.248564,32.136857 C 28.926676,32.253899 28.558295,32.332601 28.165296,32.386333 C 27.970304,32.391053 27.786168,32.414053 27.587554,32.414053 C 24.535898,32.414053 21.889207,31.856924 20.582421,31.028068 z M 34.592686,31.028068 C 34.923638,30.812203 35.181793,30.608188 35.314866,30.362796 C 35.171578,30.597964 34.919382,30.820855 34.592686,31.028068 z "
       id="path3470" />
    <path
       style="opacity:0.71844662;fill:url(#linearGradient3499);fill-opacity:1;fill-rule:nonzero;stroke:none;stroke-width:0.2;stroke-linecap:round;stroke-linejoin:round;stroke-miterlimit:4;stroke-dasharray:none;stroke-opacity:0.79187814"
       d="M 19.354716,30.224198 C 19.70063,31.609198 23.252503,32.69125 27.587554,32.69125 C 31.922601,32.69125 35.474475,31.609196 35.820389,30.224198 C 35.396747,31.583432 31.866118,32.63581 27.587554,32.63581 C 23.308985,32.63581 19.778359,31.583432 19.354716,30.224198 z "
       id="path3488" />
    <path
       sodipodi:nodetypes="ccc"
       id="path2782"
       d="M 53.842293,22.383829 L 53.842293,19.58912 L 53.842293,22.383829 z "
       style="fill:#ffffff;fill-opacity:0.75688076;fill-rule:nonzero;stroke:none;stroke-width:0.5;stroke-linecap:round;stroke-linejoin:round;stroke-miterlimit:4;stroke-dasharray:none;stroke-dashoffset:4;stroke-opacity:1" />
    <rect
       style="opacity:0.61162792;fill:#555753;fill-opacity:1;fill-rule:nonzero;stroke:none;stroke-width:0.69999999;stroke-linecap:round;stroke-linejoin:miter;stroke-miterlimit:4;stroke-dasharray:none;stroke-opacity:1"
       id="rect1951"
       width="40.001965"
       height="10.004759"
       x="-0.0019644466"
       y="30" />
    <text
       xml:space="preserve"
       style="font-size:12px;font-style:normal;font-weight:normal;fill:#eeeeec;fill-opacity:1;stroke:none;stroke-width:1px;stroke-linecap:butt;stroke-linejoin:miter;stroke-opacity:1;font-family:Bitstream Vera Sans"
       x="12.27318"
       y="39.168152"
       id="text2840"><tspan
         sodipodi:role="line"
         id="tspan2842"
         x="12.27318"
         y="39.168152">Ca</tspan></text>
    <path
       style="opacity:1;color:#000000;fill:#ffffff;fill-opacity:1;fill-rule:evenodd;stroke:none;stroke-width:1px;stroke-linecap:butt;stroke-linejoin:miter;marker:none;marker-start:none;marker-mid:none;marker-end:none;stroke-miterlimit:4;stroke-dasharray:none;stroke-dashoffset:0;stroke-opacity:1;visibility:visible;display:inline;overflow:visible;enable-background:accumulate"
       d="M 0,0 L 0,15.59375 L 10.28125,19.09375 L 10.3125,18.90625 L 10.40625,18.9375 L 24.15625,24.5625 L 28.375,18.25 L 29.5625,17.28125 L 25.8125,11.9375 L 27,4.3125 L 23.09375,3.3125 L 22.40625,1.65625 L 15.53125,0 L 0,0 z "
       id="path3487"
       sodipodi:nodetypes="cccccccccccccc" />
    <path
       style="opacity:1;fill:#00316e;fill-opacity:1;fill-rule:nonzero;stroke:none;stroke-width:0.2;stroke-linecap:round;stroke-linejoin:round;stroke-miterlimit:4;stroke-opacity:1"
       d="M 0,0 L 0,1.46875 L 10.8125,4.875 L 11.03125,3.875 C 11.1316,3.330164 10.779408,2.756979 10.25,2.59375 L 1.25,0 L 0,0 z M 0,2.3125 L 0,3.53125 C 2.033493,3.58006 3.6875,5.267332 3.6875,7.3125 C 3.687498,9.357423 2.033156,11.01331 0,11.0625 L 0,11.84375 L 3.40625,12.90625 L 8.78125,14.59375 L 9.03125,13.40625 L 3.65625,11.71875 L 3.8125,10.96875 L 9.1875,12.65625 L 9.4375,11.46875 L 4.03125,9.78125 L 4.1875,9.03125 L 9.59375,10.6875 L 9.84375,9.5 L 4.4375,7.8125 L 4.59375,7.09375 L 10,8.78125 L 10.25,7.59375 L 4.84375,5.90625 L 5,5.125 L 10.40625,6.8125 L 10.65625,5.625 L 5.21875,3.9375 L 0,2.3125 z M 0,5.4375 L 0,9.1875 C 0.993356,9.137441 1.812501,8.31822 1.8125,7.3125 C 1.8125,6.30678 0.993355,5.487559 0,5.4375 z M 0,12.65625 L 0,14.53125 L 7.3125,17.03125 C 7.841907,17.194479 8.33715,16.888585 8.4375,16.34375 L 8.625,15.34375 L 0,12.65625 z "
       id="path2531" />
    <path
       style="opacity:1;color:#000000;fill:#b3925d;fill-opacity:1;fill-rule:evenodd;stroke:none;stroke-width:1px;stroke-linecap:butt;stroke-linejoin:miter;marker:none;marker-start:none;marker-mid:none;marker-end:none;stroke-miterlimit:4;stroke-dasharray:none;stroke-dashoffset:0;stroke-opacity:1;visibility:visible;display:inline;overflow:visible;enable-background:accumulate"
       d="M 25.9375 12.125 L 24.5 13.6875 L 24.40625 13.9375 L 23.125 18.375 L 21.59375 19.3125 L 23.0625 22 L 24.34375 24.34375 L 28.375 18.25 L 29.5625 17.28125 L 25.9375 12.125 z "
       id="path2520" />
    <path
       style="opacity:0.5;color:#000000;fill:url(#linearGradient5565);fill-opacity:1;fill-rule:evenodd;stroke:none;stroke-width:1px;stroke-linecap:butt;stroke-linejoin:miter;marker:none;marker-start:none;marker-mid:none;marker-end:none;stroke-miterlimit:4;stroke-dasharray:none;stroke-dashoffset:0;stroke-opacity:1;visibility:visible;display:inline;overflow:visible;enable-background:accumulate"
       d="M 26.161596,18.123384 L 23.069861,21.998939 L 24.332683,24.350399 L 28.382421,18.254021 L 26.161596,18.123384 z "
       id="path2351"
       sodipodi:nodetypes="ccccc" />
    <path
       style="opacity:0.75;color:#000000;fill:url(#linearGradient5569);fill-opacity:1;fill-rule:evenodd;stroke:none;stroke-width:1px;stroke-linecap:butt;stroke-linejoin:miter;marker:none;marker-start:none;marker-mid:none;marker-end:none;stroke-miterlimit:4;stroke-dasharray:none;stroke-dashoffset:0;stroke-opacity:1;visibility:visible;display:inline;overflow:visible;enable-background:accumulate"
       d="M 22.547315,1.8808929 L 13.881746,2.0986208 L 13.925292,2.1421664 L 22.28604,3.5356244 L 22.242496,3.7968979 L 22.634405,3.4049877 L 22.547315,1.8808929 z "
       id="path2356" />
    <path
       style="opacity:0.55825243;color:#000000;fill:#000000;fill-opacity:1;fill-rule:evenodd;stroke:none;stroke-width:1px;stroke-linecap:butt;stroke-linejoin:miter;marker:none;marker-start:none;marker-mid:none;marker-end:none;stroke-miterlimit:4;stroke-dasharray:none;stroke-dashoffset:0;stroke-opacity:1;visibility:visible;display:inline;overflow:visible;enable-background:accumulate"
       d="M 10.833556,19.124932 L 24.1585,24.568127 L 24.332683,24.350399 L 24.332683,24.306855 L 21.676403,19.473296 L 10.833556,19.124932 z "
       id="path2364" />
    <path
       style="opacity:0.5;color:#000000;fill:url(#linearGradient5567);fill-opacity:1;fill-rule:evenodd;stroke:none;stroke-width:1px;stroke-linecap:butt;stroke-linejoin:miter;marker:none;marker-start:none;marker-mid:none;marker-end:none;stroke-miterlimit:4;stroke-dasharray:none;stroke-dashoffset:0;stroke-opacity:1;visibility:visible;display:inline;overflow:visible;enable-background:accumulate"
       d="M 24.419774,13.94301 L 23.113407,18.384657 L 21.589311,19.299113 L 23.069861,21.998939 L 26.161596,18.123384 L 24.419774,13.94301 z "
       id="path3341" />
    <path
       style="opacity:0.1;color:#000000;fill:#000000;fill-opacity:1;fill-rule:evenodd;stroke:none;stroke-width:1px;stroke-linecap:butt;stroke-linejoin:miter;marker:none;marker-start:none;marker-mid:none;marker-end:none;stroke-miterlimit:4;stroke-dasharray:none;stroke-dashoffset:0;stroke-opacity:1;visibility:visible;display:inline;overflow:visible;enable-background:accumulate"
       d="M 22.28604,3.5356244 L 21.066765,11.76573 L 25.290684,12.810824 L 25.943868,12.114093 L 25.813231,11.939911 L 26.945416,4.7113548 L 22.28604,3.5356244 z "
       id="path3357" />
    <path
       style="opacity:0.24299999;fill:url(#linearGradient5575);fill-opacity:1;fill-rule:nonzero;stroke:none;stroke-width:0.30000001;stroke-linecap:round;stroke-linejoin:round;stroke-miterlimit:4;stroke-dasharray:none;stroke-opacity:1"
       d="M 21.066765,11.76573 L 21.023219,11.939911 L 10.398101,18.384657 L 10.311011,18.907204 L 10.398101,18.950749 L 10.833556,19.124932 L 21.676403,19.473296 L 21.589311,19.299113 L 23.113407,18.384657 L 24.506865,13.681735 L 25.290684,12.810824 L 21.066765,11.76573 z "
       id="rect3368" />
    <path
       id="path3412"
       d="M 25.943868,12.114093 L 24.506865,13.681735 L 24.419774,13.94301 L 26.161596,18.123384 L 28.382421,18.254021 L 29.558151,17.296018 L 25.943868,12.114093 z "
       style="opacity:0.5;color:#000000;fill:url(#linearGradient4594);fill-opacity:1;fill-rule:evenodd;stroke:none;stroke-width:1px;stroke-linecap:butt;stroke-linejoin:miter;marker:none;marker-start:none;marker-mid:none;marker-end:none;stroke-miterlimit:4;stroke-dasharray:none;stroke-dashoffset:0;stroke-opacity:1;visibility:visible;display:inline;overflow:visible;enable-background:accumulate"
       sodipodi:nodetypes="ccccccc" />
    <path
       style="opacity:0.5;color:#000000;fill:url(#linearGradient4502);fill-opacity:1;fill-rule:evenodd;stroke:none;stroke-width:1px;stroke-linecap:butt;stroke-linejoin:miter;marker:none;marker-start:none;marker-mid:none;marker-end:none;stroke-miterlimit:4;stroke-dasharray:none;stroke-dashoffset:0;stroke-opacity:1;visibility:visible;display:inline;overflow:visible;enable-background:accumulate"
       d="M 6.0625,0 L 13.65625,2.09375 L 13.65625,2.15625 L 13.75,2.09375 L 13.875,2.09375 L 22.5,1.875 L 22.40625,1.65625 L 15.5625,0 L 6.0625,0 z M 22.5625,1.96875 L 22.625,3.40625 L 22.46875,3.59375 L 26.9375,4.71875 L 27,4.3125 L 23.125,3.3125 L 22.5625,1.96875 z "
       id="path3414"
       sodipodi:nodetypes="cccccccccccccccc" />
    <path
       style="opacity:1;fill:#ffffff;fill-opacity:1;fill-rule:nonzero;stroke:none;stroke-width:0.30000001;stroke-linecap:round;stroke-linejoin:round;stroke-miterlimit:4;stroke-dasharray:none;stroke-opacity:1"
       d="M 22.8125,21.5625 L 24.34375,24.3125 C 24.34375,24.3125 24.434042,24.50307 24.3125,24.03125 C 24.434042,24.50307 24.703848,24.909112 24.84375,25.375 C 24.935348,25.604743 25.022618,25.856942 25.09375,26.09375 C 25.311205,26.112828 25.52618,26.14189 25.75,26.15625 C 26.314047,26.192438 26.900181,26.217482 27.5,26.21875 C 27.142123,25.513872 26.928458,25.120235 26.25,23.71875 C 25.461167,22.089263 22.8125,21.5625 22.8125,21.5625 z M 27.59375,26.40625 C 27.592071,26.402959 28.352285,27.892845 27.59375,26.40625 z "
       id="path5059" />
    <path
       style="opacity:0.54854371;fill:url(#linearGradient5055);fill-opacity:1.0;fill-rule:nonzero;stroke:none;stroke-width:0.2;stroke-linecap:round;stroke-linejoin:round;stroke-miterlimit:4;stroke-dasharray:none;stroke-opacity:1"
       d="M 24.3125,24.03125 C 24.434042,24.50307 24.698892,24.921499 24.838794,25.387387 C 24.996638,25.783282 25.133622,26.188858 25.216908,26.606906 C 25.316881,26.891122 25.451862,27.175954 25.434682,27.484779 C 25.476959,27.850005 25.579752,28.20624 25.599211,28.574532 C 25.651613,28.93308 25.677098,29.297964 25.627465,29.657684 C 25.558197,29.855682 25.649443,30.009347 25.843419,30.046006 C 26.040878,30.191466 26.647014,29.843235 26.627605,29.569188 C 26.557943,28.585599 26.36736,28.216883 26.280378,27.793904 C 26.120126,27.232998 25.957834,26.728138 25.736769,26.131963 C 25.576921,25.649767 25.269273,25.237166 25.038355,24.789114 C 24.856566,24.494584 24.664423,24.139307 24.3125,24.03125 z "
       id="path5037"
       sodipodi:nodetypes="cccccccscccc" />
    <path
       style="opacity:0.1;color:#000000;fill:#000000;fill-opacity:1;fill-rule:evenodd;stroke:none;stroke-width:1px;stroke-linecap:butt;stroke-linejoin:miter;marker:none;marker-start:none;marker-mid:none;marker-end:none;stroke-miterlimit:4;stroke-dasharray:none;stroke-dashoffset:0;stroke-opacity:1;visibility:visible;display:inline;overflow:visible;enable-background:accumulate"
       d="M 0,0 L 0,15.59375 L 10.25,19.0625 L 13.65625,2.125 L 5.9375,0 L 0,0 z "
       id="path3485"
       sodipodi:nodetypes="cccccc" />
    <path
       style="opacity:0.0631068;color:#000000;fill:#ffffff;fill-opacity:1;fill-rule:evenodd;stroke:none;stroke-width:1px;stroke-linecap:butt;stroke-linejoin:miter;marker:none;marker-start:none;marker-mid:none;marker-end:none;stroke-miterlimit:4;stroke-dasharray:none;stroke-dashoffset:0;stroke-opacity:1;visibility:visible;display:inline;overflow:visible;enable-background:accumulate"
       d="M 19.65625 19.40625 L 21.78125 23.59375 L 24.15625 24.5625 L 24.34375 24.34375 L 24.34375 24.3125 L 21.6875 19.46875 L 19.65625 19.40625 z "
       id="path4478" />
    <path
       style="opacity:0.13592236;color:#000000;fill:#000000;fill-opacity:1;fill-rule:evenodd;stroke:none;stroke-width:1px;stroke-linecap:butt;stroke-linejoin:miter;marker:none;marker-start:none;marker-mid:none;marker-end:none;stroke-miterlimit:4;stroke-dasharray:none;stroke-dashoffset:0;stroke-opacity:1;visibility:visible;display:inline;overflow:visible;enable-background:accumulate"
       d="M 24.820329,4.2160314 L 24.638771,4.7670682 L 22.875448,4.2399247 L 22.943174,4.6139814 L 24.628891,5.0454576 L 24.340088,6.3359953 L 21.774357,5.5945492 L 21.592799,6.145586 L 24.236138,6.9826996 L 23.524941,11.045647 L 23.76764,11.054259 L 24.820329,4.2160314 z "
       id="path4483" />
    <path
       style="opacity:1;color:#000000;fill:#b8b8b8;fill-opacity:1;fill-rule:evenodd;stroke:none;stroke-width:1px;stroke-linecap:butt;stroke-linejoin:miter;marker:none;marker-start:none;marker-mid:none;marker-end:none;stroke-miterlimit:4;stroke-dasharray:none;stroke-dashoffset:0;stroke-opacity:1;visibility:visible;display:inline;overflow:visible;enable-background:accumulate"
       d="M 27.113625,4.5294351 L 25.999367,12.329245 L 25.627947,12.4221 L 27.113625,4.5294351 z "
       id="path4485" />
    <path
       id="path4492"
       d="M 13.75111,2.0986208 L 13.664019,2.1421664 L 10.398101,18.384657 L 21.023219,11.939911 L 22.28604,3.5356244 L 13.75111,2.0986208 z "
       style="opacity:0.35436893;color:#000000;fill:#000000;fill-opacity:1;fill-rule:evenodd;stroke:none;stroke-width:1px;stroke-linecap:butt;stroke-linejoin:miter;marker:none;marker-start:none;marker-mid:none;marker-end:none;stroke-miterlimit:4;stroke-dasharray:none;stroke-dashoffset:0;stroke-opacity:1;visibility:visible;display:inline;overflow:visible;enable-background:accumulate" />
    <path
       style="opacity:1;color:#000000;fill:#d3d3d3;fill-opacity:1;fill-rule:evenodd;stroke:none;stroke-width:1px;stroke-linecap:butt;stroke-linejoin:miter;marker:none;marker-start:none;marker-mid:none;marker-end:none;stroke-miterlimit:4;stroke-dasharray:none;stroke-dashoffset:0;stroke-opacity:1;visibility:visible;display:inline;overflow:visible;enable-background:accumulate"
       d="M 13.75 2.09375 L 13.71875 2.125 L 13.65625 2.15625 L 13.625 2.28125 L 13.65625 2.28125 L 22.0625 3.6875 L 20.84375 11.9375 L 10.4375 18.25 L 10.40625 18.375 L 21.03125 11.9375 L 22.28125 3.53125 L 13.75 2.09375 z "
       id="path3492" />
    <path
       style="opacity:0.90776699;color:#000000;fill:#eeeeec;fill-opacity:1;fill-rule:evenodd;stroke:none;stroke-width:1px;stroke-linecap:butt;stroke-linejoin:miter;marker:none;marker-start:none;marker-mid:none;marker-end:none;stroke-miterlimit:4;stroke-dasharray:none;stroke-dashoffset:0;stroke-opacity:1;visibility:visible;display:inline;overflow:visible;enable-background:accumulate"
       d="M 22.90625 4.46875 L 22.9375 4.625 L 24.34375 4.96875 L 24.34375 4.84375 L 22.90625 4.46875 z M 21.9375 5.90625 L 21.875 6.25 L 24.25 6.96875 L 24.25 7.03125 L 24.375 7.03125 L 24.375 6.96875 L 24.40625 6.96875 L 24.4375 6.6875 L 21.9375 5.90625 z M 24.375 7.03125 L 23.71875 11.0625 L 23.78125 11.0625 L 24.375 7.03125 z "
       id="path3526" />
  </g>
</svg>
