<?xml version="1.0" encoding="UTF-8" standalone="no"?>
<!-- Created with Inkscape (http://www.inkscape.org/) -->
<svg
   xmlns:dc="http://purl.org/dc/elements/1.1/"
   xmlns:cc="http://creativecommons.org/ns#"
   xmlns:rdf="http://www.w3.org/1999/02/22-rdf-syntax-ns#"
   xmlns:svg="http://www.w3.org/2000/svg"
   xmlns="http://www.w3.org/2000/svg"
   xmlns:xlink="http://www.w3.org/1999/xlink"
   xmlns:sodipodi="http://sodipodi.sourceforge.net/DTD/sodipodi-0.dtd"
   xmlns:inkscape="http://www.inkscape.org/namespaces/inkscape"
   width="40"
   height="40"
   id="svg2193"
   sodipodi:version="0.32"
   inkscape:version="0.46"
   version="1.0"
   sodipodi:docbase="/home/jra/Desktop"
   sodipodi:docname="briller-Ti27sample.svg"
   inkscape:output_extension="org.inkscape.output.svg.inkscape">
  <defs
     id="defs2195">
    <linearGradient
       id="linearGradient14443">
      <stop
         style="stop-color:#ffffff;stop-opacity:1;"
         offset="0"
         id="stop14445" />
      <stop
         style="stop-color:#000000;stop-opacity:1;"
         offset="1"
         id="stop14447" />
    </linearGradient>
    <linearGradient
       id="linearGradient12742">
      <stop
         id="stop12744"
         offset="0"
         style="stop-color:#000000;stop-opacity:1;" />
      <stop
         style="stop-color:#ffffff;stop-opacity:1;"
         offset="0.5"
         id="stop12746" />
      <stop
         id="stop12748"
         offset="1"
         style="stop-color:#000000;stop-opacity:1;" />
    </linearGradient>
    <linearGradient
       id="linearGradient10285">
      <stop
         style="stop-color:#000000;stop-opacity:0;"
         offset="0"
         id="stop10287" />
      <stop
         style="stop-color:#000000;stop-opacity:1;"
         offset="1"
         id="stop10289" />
    </linearGradient>
    <linearGradient
       id="linearGradient3533">
      <stop
         style="stop-color:#ffffff;stop-opacity:1;"
         offset="0"
         id="stop3535" />
      <stop
         id="stop3539"
         offset="0.5"
         style="stop-color:#000000;stop-opacity:1;" />
      <stop
         style="stop-color:#ffffff;stop-opacity:1;"
         offset="1"
         id="stop3537" />
    </linearGradient>
    <linearGradient
       id="linearGradient3239">
      <stop
         style="stop-color:#ffffff;stop-opacity:1;"
         offset="0"
         id="stop3241" />
      <stop
         style="stop-color:#ffffff;stop-opacity:0;"
         offset="1"
         id="stop3243" />
    </linearGradient>
    <linearGradient
       id="linearGradient3220">
      <stop
         id="stop3222"
         offset="0"
         style="stop-color:#000000;stop-opacity:1" />
      <stop
         id="stop3224"
         offset="1"
         style="stop-color:#ffffff;stop-opacity:1;" />
    </linearGradient>
    <linearGradient
       id="linearGradient3291">
      <stop
         id="stop3293"
         offset="0"
         style="stop-color:#000000;stop-opacity:1;" />
      <stop
         id="stop3295"
         offset="1"
         style="stop-color:#000000;stop-opacity:0;" />
    </linearGradient>
    <linearGradient
       id="linearGradient2308">
      <stop
         id="stop2310"
         offset="0"
         style="stop-color:#0e0000;stop-opacity:1;" />
      <stop
         id="stop2312"
         offset="1"
         style="stop-color:#0e0000;stop-opacity:0;" />
    </linearGradient>
    <radialGradient
       inkscape:collect="always"
       xlink:href="#linearGradient3291"
       id="radialGradient2595"
       gradientUnits="userSpaceOnUse"
       gradientTransform="matrix(1,0,0,0.197802,0,92.82166)"
       cx="63.912209"
       cy="115.70919"
       fx="75.857941"
       fy="115.70919"
       r="63.912209" />
    <linearGradient
       inkscape:collect="always"
       xlink:href="#linearGradient3533"
       id="linearGradient3529"
       x1="3.903604"
       y1="11.322673"
       x2="7.7161045"
       y2="2.3419337"
       gradientUnits="userSpaceOnUse"
       gradientTransform="translate(0,10)" />
    <linearGradient
       inkscape:collect="always"
       xlink:href="#linearGradient3533"
       id="linearGradient3531"
       x1="12.637115"
       y1="12.188485"
       x2="17.55637"
       y2="3.34375"
       gradientUnits="userSpaceOnUse"
       gradientTransform="translate(0,10)" />
    <linearGradient
       inkscape:collect="always"
       xlink:href="#linearGradient3533"
       id="linearGradient8677"
       x1="7.9185438"
       y1="5.9620075"
       x2="9.3260288"
       y2="5.9620075"
       gradientUnits="userSpaceOnUse"
       gradientTransform="translate(0,10)" />
    <linearGradient
       inkscape:collect="always"
       xlink:href="#linearGradient3220"
       id="linearGradient11470"
       x1="4.7504926"
       y1="4.0466056"
       x2="4.4672256"
       y2="2.7964151"
       gradientUnits="userSpaceOnUse"
       gradientTransform="translate(0,10)" />
    <linearGradient
       inkscape:collect="always"
       xlink:href="#linearGradient3533"
       id="linearGradient12718"
       x1="20.790728"
       y1="7.7137346"
       x2="20.929609"
       y2="6.8694043"
       gradientUnits="userSpaceOnUse"
       gradientTransform="translate(0,10)" />
    <linearGradient
       inkscape:collect="always"
       xlink:href="#linearGradient3533"
       id="linearGradient12720"
       x1="1.2458884"
       y1="4.4359188"
       x2="1.3939309"
       y2="3.7108397"
       gradientUnits="userSpaceOnUse"
       gradientTransform="translate(0,10)" />
    <linearGradient
       inkscape:collect="always"
       xlink:href="#linearGradient3220"
       id="linearGradient14929"
       x1="12.07501"
       y1="8.9118538"
       x2="13.984103"
       y2="10.489979"
       gradientUnits="userSpaceOnUse"
       gradientTransform="translate(0,10)" />
    <radialGradient
       inkscape:collect="always"
       xlink:href="#linearGradient12742"
       id="radialGradient15701"
       cx="9.3157854"
       cy="8.0072575"
       fx="9.3157854"
       fy="8.0072575"
       r="0.50077498"
       gradientTransform="matrix(1.2380137,0.4391591,-1.1765029,3.3166261,7.2913752,-12.604643)"
       gradientUnits="userSpaceOnUse" />
    <linearGradient
       inkscape:collect="always"
       xlink:href="#linearGradient3220"
       id="linearGradient15709"
       x1="9.0702896"
       y1="8.5"
       x2="9.2695198"
       y2="7.9018755"
       gradientUnits="userSpaceOnUse"
       gradientTransform="translate(0,10)" />
    <radialGradient
       inkscape:collect="always"
       xlink:href="#linearGradient3220"
       id="radialGradient15721"
       cx="11.721256"
       cy="9.0463953"
       fx="11.721256"
       fy="9.0463953"
       r="1.2629328"
       gradientTransform="matrix(1.909218,4.817022e-2,-8.7482687e-2,3.4673605,-10.073417,-12.290864)"
       gradientUnits="userSpaceOnUse" />
    <radialGradient
       inkscape:collect="always"
       xlink:href="#linearGradient3220"
       id="radialGradient15723"
       cx="8.6249361"
       cy="8.5240116"
       fx="8.6249361"
       fy="8.5240116"
       r="0.91497982"
       gradientTransform="matrix(2.3041195,0.1207521,-0.1547952,2.9537057,-9.9895677,-8.047186)"
       gradientUnits="userSpaceOnUse" />
    <linearGradient
       inkscape:collect="always"
       xlink:href="#linearGradient3220"
       id="linearGradient15760"
       x1="11.037731"
       y1="7.2278986"
       x2="7.4283562"
       y2="9.637207"
       gradientUnits="userSpaceOnUse"
       gradientTransform="translate(0,10)" />
    <linearGradient
       inkscape:collect="always"
       xlink:href="#linearGradient3220"
       id="linearGradient15768"
       x1="14.748964"
       y1="9.07864"
       x2="11.345655"
       y2="11.500515"
       gradientUnits="userSpaceOnUse"
       gradientTransform="translate(0,10)" />
    <linearGradient
       inkscape:collect="always"
       xlink:href="#linearGradient3220"
       id="linearGradient18612"
       gradientUnits="userSpaceOnUse"
       x1="23.774429"
       y1="13.566167"
       x2="32.286121"
       y2="6.671875"
       gradientTransform="translate(0,10)" />
    <radialGradient
       inkscape:collect="always"
       xlink:href="#linearGradient12742"
       id="radialGradient19024"
       gradientUnits="userSpaceOnUse"
       gradientTransform="matrix(3.226242,-0.6370529,0.1782525,0.902728,-76.923169,32.323954)"
       cx="34.013096"
       cy="6.7420335"
       fx="34.013096"
       fy="6.7420335"
       r="4.8568444" />
    <radialGradient
       inkscape:collect="always"
       xlink:href="#linearGradient12742"
       id="radialGradient19028"
       gradientUnits="userSpaceOnUse"
       gradientTransform="matrix(1.3255998,-0.1815845,5.2321772e-2,0.3819585,-6.5019319,16.266569)"
       cx="19.575325"
       cy="2.4504552"
       fx="19.575325"
       fy="2.4504552"
       r="9.981575" />
    <linearGradient
       inkscape:collect="always"
       xlink:href="#linearGradient3533"
       id="linearGradient19040"
       gradientUnits="userSpaceOnUse"
       gradientTransform="translate(0,10)"
       x1="22.716719"
       y1="6.6819491"
       x2="22.775887"
       y2="7.0359626" />
    <linearGradient
       inkscape:collect="always"
       xlink:href="#linearGradient3533"
       id="linearGradient19044"
       gradientUnits="userSpaceOnUse"
       gradientTransform="translate(0,10)"
       x1="22.775887"
       y1="7.1349373"
       x2="22.864275"
       y2="7.6104846" />
    <linearGradient
       inkscape:collect="always"
       xlink:href="#linearGradient3533"
       id="linearGradient19048"
       gradientUnits="userSpaceOnUse"
       gradientTransform="translate(0,10)"
       x1="26.161722"
       y1="6.566195"
       x2="26.23761"
       y2="7.0470109" />
    <linearGradient
       inkscape:collect="always"
       xlink:href="#linearGradient3533"
       id="linearGradient19052"
       gradientUnits="userSpaceOnUse"
       gradientTransform="translate(0,10)"
       x1="26.150673"
       y1="6.0362854"
       x2="26.226561"
       y2="6.4892759" />
    <radialGradient
       inkscape:collect="always"
       xlink:href="#linearGradient14443"
       id="radialGradient19054"
       gradientUnits="userSpaceOnUse"
       gradientTransform="matrix(1.3593816,0.3839493,-0.4796219,2.064245,5.6663627,-27.156556)"
       cx="12.628377"
       cy="20.701059"
       fx="12.628377"
       fy="20.701059"
       r="0.55043966" />
    <radialGradient
       inkscape:collect="always"
       xlink:href="#linearGradient3533"
       id="radialGradient19058"
       gradientUnits="userSpaceOnUse"
       gradientTransform="matrix(1.9939493,-0.1553755,0.206899,2.6551557,-13.828251,-1.376827)"
       cx="12.080984"
       cy="8.1048136"
       fx="12.080984"
       fy="8.1048136"
       r="0.45312786" />
    <linearGradient
       inkscape:collect="always"
       xlink:href="#linearGradient3220"
       id="linearGradient19060"
       gradientUnits="userSpaceOnUse"
       x1="11.353841"
       y1="20.678278"
       x2="16.226803"
       y2="23.772129" />
    <linearGradient
       inkscape:collect="always"
       xlink:href="#linearGradient12742"
       id="linearGradient19064"
       gradientUnits="userSpaceOnUse"
       gradientTransform="translate(0,10)"
       x1="21.429888"
       y1="6.0796885"
       x2="21.649731"
       y2="7.4828539" />
    <linearGradient
       inkscape:collect="always"
       xlink:href="#linearGradient3533"
       id="linearGradient19068"
       gradientUnits="userSpaceOnUse"
       gradientTransform="translate(0,10)"
       x1="22.677696"
       y1="7.1095548"
       x2="24.782551"
       y2="7.1187077" />
    <linearGradient
       inkscape:collect="always"
       xlink:href="#linearGradient12742"
       id="linearGradient19072"
       gradientUnits="userSpaceOnUse"
       gradientTransform="translate(0,10)"
       x1="20.727322"
       y1="6.7736673"
       x2="20.645796"
       y2="7.4375" />
    <linearGradient
       inkscape:collect="always"
       xlink:href="#linearGradient12742"
       id="linearGradient19076"
       gradientUnits="userSpaceOnUse"
       gradientTransform="translate(0,10)"
       x1="1.7549961"
       y1="3.6965446"
       x2="1.5782194"
       y2="4.2885809" />
    <linearGradient
       inkscape:collect="always"
       xlink:href="#linearGradient3533"
       id="linearGradient19080"
       gradientUnits="userSpaceOnUse"
       gradientTransform="translate(0,10)"
       x1="20.609375"
       y1="6.34375"
       x2="20.34375"
       y2="8.171875" />
    <linearGradient
       inkscape:collect="always"
       xlink:href="#linearGradient3533"
       id="linearGradient19084"
       gradientUnits="userSpaceOnUse"
       gradientTransform="translate(0,10)"
       x1="1.75"
       y1="3.53125"
       x2="1.5"
       y2="4.9375" />
    <linearGradient
       inkscape:collect="always"
       xlink:href="#linearGradient3220"
       id="linearGradient19086"
       gradientUnits="userSpaceOnUse"
       x1="23.566187"
       y1="18.313948"
       x2="23.84276"
       y2="18.666082" />
    <linearGradient
       inkscape:collect="always"
       xlink:href="#linearGradient3533"
       id="linearGradient19094"
       gradientUnits="userSpaceOnUse"
       gradientTransform="translate(0,10)"
       x1="10.0625"
       y1="10.369622"
       x2="17.882368"
       y2="2.654882" />
    <linearGradient
       inkscape:collect="always"
       xlink:href="#linearGradient3533"
       id="linearGradient19102"
       gradientUnits="userSpaceOnUse"
       gradientTransform="translate(0,10)"
       x1="-1.2500001"
       y1="9.1292982"
       x2="5.799221"
       y2="1.3417478" />
    <radialGradient
       inkscape:collect="always"
       xlink:href="#linearGradient3239"
       id="radialGradient19106"
       gradientUnits="userSpaceOnUse"
       gradientTransform="matrix(1.6289006,0,0,2.1832735,-2.0596845,-23.307747)"
       cx="3.2750559"
       cy="17.404633"
       fx="3.2750559"
       fy="17.404633"
       r="3.1801529" />
    <linearGradient
       inkscape:collect="always"
       xlink:href="#linearGradient3533"
       id="linearGradient19110"
       gradientUnits="userSpaceOnUse"
       gradientTransform="translate(0,10)"
       x1="19.870583"
       y1="4.3116302"
       x2="11.526833"
       y2="11.630912" />
    <linearGradient
       inkscape:collect="always"
       xlink:href="#linearGradient3533"
       id="linearGradient19114"
       gradientUnits="userSpaceOnUse"
       gradientTransform="translate(0,10)"
       x1="7.1908765"
       y1="2.5302596"
       x2="1.1735629"
       y2="8.7871618" />
    <radialGradient
       inkscape:collect="always"
       xlink:href="#linearGradient3239"
       id="radialGradient19118"
       gradientUnits="userSpaceOnUse"
       gradientTransform="matrix(2.1050018,-4.7804896e-3,6.2281077e-3,2.7424338,-7.8546903,-3.696315)"
       cx="7.0599198"
       cy="8.5846891"
       fx="7.0599198"
       fy="8.5846891"
       r="2.9974196" />
    <radialGradient
       inkscape:collect="always"
       xlink:href="#linearGradient3239"
       id="radialGradient19122"
       gradientUnits="userSpaceOnUse"
       gradientTransform="matrix(2.108308,-1.0962146e-2,1.0332969e-2,1.9873011,-21.256891,-0.209045)"
       cx="19.075424"
       cy="11.172515"
       fx="19.075424"
       fy="11.172515"
       r="4.3943052" />
    <linearGradient
       inkscape:collect="always"
       xlink:href="#linearGradient3220"
       id="linearGradient19130"
       gradientUnits="userSpaceOnUse"
       gradientTransform="translate(0,10)"
       x1="2.674937"
       y1="2.625"
       x2="9.36588"
       y2="4.8829637" />
    <radialGradient
       inkscape:collect="always"
       xlink:href="#linearGradient10285"
       id="radialGradient19412"
       gradientUnits="userSpaceOnUse"
       gradientTransform="matrix(1.2252117,0.4973145,-0.7673194,1.6164363,12.213408,-21.106276)"
       cx="16.652584"
       cy="20.804586"
       fx="16.652584"
       fy="20.804586"
       r="4.9927197" />
    <linearGradient
       inkscape:collect="always"
       xlink:href="#linearGradient3239"
       id="linearGradient20271"
       gradientUnits="userSpaceOnUse"
       gradientTransform="translate(0,10)"
       x1="19.276066"
       y1="1.1625515"
       x2="19.446699"
       y2="2.625" />
    <linearGradient
       inkscape:collect="always"
       xlink:href="#linearGradient3239"
       id="linearGradient21029"
       gradientUnits="userSpaceOnUse"
       gradientTransform="translate(0,10)"
       x1="32.885296"
       y1="4.0797491"
       x2="33.609375"
       y2="6.4220405" />
    <linearGradient
       inkscape:collect="always"
       xlink:href="#linearGradient3220"
       id="linearGradient4742"
       gradientUnits="userSpaceOnUse"
       gradientTransform="translate(0,10)"
       x1="25.343899"
       y1="2.370105"
       x2="24.509766"
       y2="9.9792366" />
    <radialGradient
       inkscape:collect="always"
       xlink:href="#linearGradient12742"
       id="radialGradient4756"
       gradientUnits="userSpaceOnUse"
       gradientTransform="matrix(1.4519605,0.2344558,-0.1243633,0.7701685,-3.4957742,8.508089)"
       cx="10.247449"
       cy="4.540668"
       fx="10.247449"
       fy="4.540668"
       r="1.8670441" />
    <radialGradient
       inkscape:collect="always"
       xlink:href="#linearGradient3533"
       id="radialGradient4765"
       gradientUnits="userSpaceOnUse"
       gradientTransform="matrix(1.4519605,0.2344558,-0.1243633,0.7701685,-3.4957742,8.5080889)"
       cx="9.1903067"
       cy="6.0187678"
       fx="9.1903067"
       fy="6.0187678"
       r="1.8670441" />
    <linearGradient
       inkscape:collect="always"
       xlink:href="#linearGradient10285"
       id="linearGradient4781"
       x1="9.3457012"
       y1="14.278769"
       x2="9.4351673"
       y2="16.567497"
       gradientUnits="userSpaceOnUse" />
    <radialGradient
       inkscape:collect="always"
       xlink:href="#linearGradient10285"
       id="radialGradient4785"
       gradientUnits="userSpaceOnUse"
       gradientTransform="matrix(1.7567151,0.3273911,-0.6948279,1.5565728,2.0733062,-17.273794)"
       cx="16.82498"
       cy="21.307463"
       fx="16.82498"
       fy="21.307463"
       r="4.9927197" />
    <radialGradient
       inkscape:collect="always"
       xlink:href="#linearGradient2308"
       id="radialGradient4853"
       cx="10.089546"
       cy="4.8982043"
       fx="10.089546"
       fy="4.8982043"
       r="9.5112009"
       gradientTransform="matrix(1.8816567,0.4924104,-0.1801724,0.6884964,-6.8754614,3.0011747)"
       gradientUnits="userSpaceOnUse" />
    <radialGradient
       inkscape:collect="always"
       xlink:href="#linearGradient3239"
       id="radialGradient4909"
       cx="10.480179"
       cy="14.866186"
       fx="10.480179"
       fy="14.866186"
       r="0.58557302"
       gradientTransform="matrix(0.7199996,0.17604,-4.1800739e-2,0.1709642,3.5654587,10.627039)"
       gradientUnits="userSpaceOnUse" />
    <radialGradient
       inkscape:collect="always"
       xlink:href="#linearGradient3239"
       id="radialGradient4921"
       cx="-25.068806"
       cy="16.640587"
       fx="-25.068806"
       fy="16.640587"
       r="1.203125"
       gradientTransform="matrix(0.1248954,-0.1206241,0.8500906,0.8801925,7.867782,-3.0731686)"
       gradientUnits="userSpaceOnUse" />
    <radialGradient
       inkscape:collect="always"
       xlink:href="#linearGradient3239"
       id="radialGradient4925"
       gradientUnits="userSpaceOnUse"
       gradientTransform="matrix(0.1089238,-5.6282104e-2,0.4649817,0.6672854,1.6382166,0.4753312)"
       cx="-25.068806"
       cy="16.640587"
       fx="-25.068806"
       fy="16.640587"
       r="1.203125" />
    <radialGradient
       inkscape:collect="always"
       xlink:href="#linearGradient3239"
       id="radialGradient4935"
       gradientUnits="userSpaceOnUse"
       gradientTransform="matrix(1.4292792,0,0,1.6549126,-6.0296052,-14.632619)"
       cx="14.045879"
       cy="18.755289"
       fx="14.045879"
       fy="18.755289"
       r="4.5133834" />
    <radialGradient
       inkscape:collect="always"
       xlink:href="#linearGradient3239"
       id="radialGradient4970"
       gradientUnits="userSpaceOnUse"
       gradientTransform="matrix(0.3209909,8.4813953e-2,-0.135961,0.5145646,12.01593,5.610435)"
       cx="13.185994"
       cy="17.888294"
       fx="13.185994"
       fy="17.888294"
       r="4.5133834" />
    <radialGradient
       inkscape:collect="always"
       xlink:href="#linearGradient3239"
       id="radialGradient4981"
       gradientUnits="userSpaceOnUse"
       gradientTransform="matrix(0.4160777,0.1043658,-0.1634897,0.6517882,5.1785624,2.798934)"
       cx="3.4096632"
       cy="16.694399"
       fx="3.4096632"
       fy="16.694399"
       r="3.1801529" />
  </defs>
  <sodipodi:namedview
     id="base"
     pagecolor="#ffffff"
     bordercolor="#666666"
     borderopacity="1.0"
     inkscape:pageopacity="0.0"
     inkscape:pageshadow="2"
     inkscape:zoom="5.656854"
     inkscape:cx="15.076107"
     inkscape:cy="23.955691"
     inkscape:current-layer="layer1"
     showgrid="false"
     inkscape:grid-bbox="false"
     inkscape:document-units="px"
     width="40px"
     height="40px"
     inkscape:window-width="1758"
     inkscape:window-height="1026"
     inkscape:window-x="110"
     inkscape:window-y="41"
     showguides="true"
     inkscape:guide-bbox="true">
    <inkscape:grid
       id="GridFromPre046Settings"
       type="xygrid"
       originx="0px"
       originy="0px"
       spacingx="1px"
       spacingy="1px"
       color="#0000ff"
       empcolor="#0000ff"
       opacity="0.2"
       empopacity="0.4"
       empspacing="2" />
  </sodipodi:namedview>
  <metadata
     id="metadata2198">
    <rdf:RDF>
      <cc:Work
         rdf:about="">
        <dc:format>image/svg+xml</dc:format>
        <dc:type
           rdf:resource="http://purl.org/dc/dcmitype/StillImage" />
        <dc:creator>
          <cc:Agent>
            <dc:title>Jarle Akselsen</dc:title>
          </cc:Agent>
        </dc:creator>
        <cc:license
           rdf:resource="http://creativecommons.org/licenses/GPL/2.0/" />
      </cc:Work>
      <cc:License
         rdf:about="http://creativecommons.org/licenses/GPL/2.0/">
        <cc:permits
           rdf:resource="http://web.resource.org/cc/Reproduction" />
        <cc:permits
           rdf:resource="http://web.resource.org/cc/Distribution" />
        <cc:requires
           rdf:resource="http://web.resource.org/cc/Notice" />
        <cc:permits
           rdf:resource="http://web.resource.org/cc/DerivativeWorks" />
        <cc:requires
           rdf:resource="http://web.resource.org/cc/ShareAlike" />
        <cc:requires
           rdf:resource="http://web.resource.org/cc/SourceCode" />
      </cc:License>
    </rdf:RDF>
  </metadata>
  <g
     id="layer1"
     inkscape:label="Layer 1"
     inkscape:groupmode="layer">
    <path
       transform="matrix(0.274806,0,0,0.4091614,5.0151192,-17.805893)"
       d="M 127.82442,115.70919 A 63.912209,12.641975 0 1 1 0,115.70919 A 63.912209,12.641975 0 1 1 127.82442,115.70919 z"
       sodipodi:ry="12.641975"
       sodipodi:rx="63.912209"
       sodipodi:cy="115.70919"
       sodipodi:cx="63.912209"
       id="path2593"
       style="opacity:0.1;fill:url(#radialGradient2595);fill-opacity:1;fill-rule:nonzero;stroke:none;stroke-width:0;stroke-linecap:round;stroke-linejoin:round;stroke-miterlimit:4;stroke-dasharray:none;stroke-dashoffset:4;stroke-opacity:1"
       sodipodi:type="arc" />
    <path
       style="fill:#888888;fill-opacity:1;fill-rule:evenodd;stroke:none;stroke-width:1px;stroke-linecap:butt;stroke-linejoin:miter;marker:none;marker-start:none;marker-mid:none;marker-end:none;stroke-miterlimit:4;stroke-dasharray:none;stroke-dashoffset:0;stroke-opacity:1;visibility:visible;display:inline;overflow:visible;enable-background:accumulate"
       d="M 11.65625,17.375 L 11.71875,18.25 C 11.745892,17.949614 11.85571,17.55693 12.09375,17.8125 C 12.188966,17.914728 12.227182,18.059849 12.28125,18.1875 C 12.085436,18.339697 12.019286,18.664164 12.125,19.03125 L 12.125,19.0625 C 12.256339,19.500418 12.583057,19.791784 12.875,19.71875 C 13.17008,19.644932 13.31534,19.225167 13.1875,18.78125 C 13.082671,18.417237 12.81168,18.168802 12.5625,18.125 C 12.37343,17.517626 12.187663,17.392413 11.65625,17.375 z"
       id="path2731" />
    <path
       style="fill:#888888;fill-opacity:1;fill-rule:nonzero;stroke:none;stroke-width:12;stroke-linecap:round;stroke-linejoin:round;stroke-miterlimit:4;stroke-dasharray:none;stroke-opacity:1"
       d="M 6.25,12.84375 L 2.6875,13.3125 C 2.672076,13.351752 2.670711,13.397152 2.65625,13.4375 C 2.618289,13.543414 2.561761,13.636052 2.53125,13.75 C 2.485535,13.920733 2.469501,14.120416 2.4375,14.3125 L 2.84375,14.28125 L 6.9375,13.75 C 6.750676,13.449548 6.556649,13.178312 6.34375,12.9375 C 6.313774,12.903594 6.280392,12.876368 6.25,12.84375 z"
       id="path2738" />
    <path
       transform="matrix(0.6114445,-0.180764,0.2423642,0.8903435,-9.859525,1.1829189)"
       sodipodi:open="true"
       sodipodi:end="9.4489673"
       sodipodi:start="3.1824811"
       d="M 11.66407,20.562472 A 4.9926682,5.9229794 0 1 1 11.661357,20.661327"
       sodipodi:ry="5.9229794"
       sodipodi:rx="4.9926682"
       sodipodi:cy="20.804586"
       sodipodi:cx="16.652565"
       id="path3282"
       style="opacity:0.15;fill:url(#radialGradient4785);fill-opacity:1;fill-rule:nonzero;stroke:none;stroke-width:12;stroke-linecap:round;stroke-linejoin:round;stroke-miterlimit:4;stroke-dasharray:none;stroke-opacity:1"
       sodipodi:type="arc" />
    <path
       sodipodi:type="arc"
       style="opacity:0.15;fill:url(#radialGradient19412);fill-opacity:1;fill-rule:nonzero;stroke:none;stroke-width:12;stroke-linecap:round;stroke-linejoin:round;stroke-miterlimit:4;stroke-dasharray:none;stroke-opacity:1"
       id="path2311"
       sodipodi:cx="16.652565"
       sodipodi:cy="20.804586"
       sodipodi:rx="4.9926682"
       sodipodi:ry="5.9229794"
       d="M 11.66407,20.562472 A 4.9926682,5.9229794 0 1 1 11.661357,20.661327"
       sodipodi:start="3.1824811"
       sodipodi:end="9.4489673"
       sodipodi:open="true"
       transform="matrix(0.8545923,-0.4128774,0.429757,0.9123556,-6.829467,6.3267959)" />
    <path
       style="fill:#888888;fill-opacity:1;fill-rule:evenodd;stroke:none;stroke-width:1px;stroke-linecap:butt;stroke-linejoin:miter;marker:none;marker-start:none;marker-mid:none;marker-end:none;stroke-miterlimit:4;stroke-dasharray:none;stroke-dashoffset:0;stroke-opacity:1;visibility:visible;display:inline;overflow:visible;enable-background:accumulate"
       d="M 21.625,11.03125 L 9.53125,12.5625 L 8.625,12.53125 L 6.90625,12.75 C 6.868825,12.705099 6.819337,12.668029 6.78125,12.625 C 6.730246,12.567355 6.677105,12.522941 6.625,12.46875 C 6.484609,12.32196 6.365765,12.182732 6.21875,12.0625 C 6.200483,12.04751 6.174602,12.045811 6.15625,12.03125 C 5.841433,11.781787 5.516709,11.61229 5.1875,11.5 C 4.914486,11.40526 4.645593,11.331498 4.375,11.34375 C 4.266058,11.348683 4.169756,11.351327 4.0625,11.375 C 3.986681,11.391734 3.915963,11.443192 3.84375,11.46875 C 3.116449,11.72616 2.582825,12.422195 2.28125,13.375 L 1.53125,13.5 L 1.28125,13.53125 L 1.25,13.53125 L 1.25,13.6875 C 1.241749,13.726691 1.254983,13.773309 1.25,13.8125 C 1.24863,13.823278 1.219873,13.832972 1.21875,13.84375 C 1.18611,13.898016 1.205102,13.945727 1.21875,14 C 1.229104,14.041173 1.222803,14.09694 1.25,14.125 C 1.255159,14.179306 1.238567,14.226944 1.25,14.28125 L 1.25,14.375 L 2.03125,14.59375 C 1.950824,15.447111 2.006117,16.386834 2.25,17.375 L 2.28125,17.46875 C 3.024678,20.359847 4.989649,22.374743 6.6875,22 C 7.801406,21.754144 8.509669,20.531283 8.6875,18.90625 C 8.749281,18.796292 8.831465,18.687275 8.875,18.59375 C 8.960237,18.550525 9.049492,18.550815 9.1875,18.53125 C 9.072411,18.822449 9.016452,19.097608 9.09375,19.1875 C 9.194725,19.304927 9.472053,19.104923 9.6875,18.71875 L 9.6875,18.6875 C 9.903589,18.295141 9.97706,17.899938 9.875,17.78125 C 9.795316,17.688583 9.644441,17.820849 9.46875,18.0625 C 9.409914,18.052254 9.337442,18.079945 9.28125,18.09375 C 9.344089,17.835472 9.436845,17.570778 9.53125,17.3125 C 9.569347,17.276304 9.585088,17.227619 9.59375,17.15625 C 9.62082,16.933222 9.267975,16.834487 8.9375,17.5 L 8.75,18.125 C 8.750409,17.751645 8.710945,17.366055 8.65625,16.96875 C 8.763963,16.980075 8.854672,16.969579 8.9375,16.90625 C 9.046313,16.695043 9.067905,15.579635 9,15 C 9.22589,15.058202 9.493263,15.163225 9.8125,15.28125 C 10.493652,15.533076 11.140113,15.557538 11.6875,15.59375 C 11.235752,16.970318 11.271227,18.666604 11.96875,20.28125 L 12,20.375 C 13.083371,22.794289 15.258023,24.281141 17.3125,24.21875 C 17.425778,24.215851 17.543799,24.199917 17.65625,24.1875 C 17.8325,24.166689 18.01475,24.13884 18.1875,24.09375 C 18.209629,24.088047 18.227946,24.068605 18.25,24.0625 C 18.403148,24.019638 18.569684,23.969012 18.71875,23.90625 C 19.329256,23.649205 19.813799,23.256721 20.21875,22.75 C 20.319415,22.625839 20.412679,22.511291 20.5,22.375 C 20.587275,22.238444 20.676411,22.08499 20.75,21.9375 C 21.339117,20.75989 21.477391,19.274403 21.09375,17.75 C 21.088296,17.728323 21.068168,17.709183 21.0625,17.6875 L 21.34375,17.75 L 23.34375,17.4375 C 23.34375,17.4375 23.546875,17.5625 23.71875,17.53125 C 23.890625,17.5 24.03125,17.3125 24.03125,17.3125 L 27.75,16.6875 L 27.84375,16.8125 C 28.257222,17.197786 28.680277,17.308244 29.09375,17.28125 C 29.610297,17.10696 29.581386,16.848995 29.53125,16.59375 C 29.477329,16.513491 29.402855,16.427008 29.34375,16.34375 L 36.53125,14.4375 C 37.210015,14.296061 37.48676,14.519407 37.59375,15.09375 L 37.75,18.96875 C 37.877572,19.593388 38.082194,19.931417 38.375,19.8125 C 39.217128,19.287603 38.767337,18.556161 38.59375,17.875 L 38.375,15.03125 C 38.325616,14.738351 38.237811,14.499687 38.125,14.3125 C 38.129069,14.319181 38.152258,14.305694 38.15625,14.3125 C 37.840621,13.630868 37.221291,13.544289 36.46875,13.59375 L 29.0625,15.5 L 28.6875,15.53125 C 28.358234,15.165542 27.968051,14.802337 27.53125,14.5 L 24.8125,11.9375 C 24.793321,11.923778 24.769336,11.919657 24.75,11.90625 L 24.6875,11.84375 C 23.832867,11.232276 22.80822,10.985553 21.625,11.03125 z M 4.1875,11.75 C 4.208925,11.750107 4.230314,11.749571 4.25,11.75 C 5.723302,11.782078 7.296329,13.591212 7.90625,16.0625 C 8.546386,18.656208 7.887815,21.029721 6.4375,21.53125 C 6.13204,21.592201 5.812727,21.563911 5.5,21.46875 C 4.284165,20.960209 3.114851,19.401512 2.59375,17.375 L 2.59375,17.3125 C 1.948016,14.696112 2.602417,12.298018 4.0625,11.78125 C 4.102689,11.772383 4.144641,11.756349 4.1875,11.75 z M 21.8125,11.78125 C 23.097968,11.712973 23.96025,12.173415 24.65625,12.8125 L 27.03125,15.78125 L 23.875,16.3125 L 23.03125,16.4375 L 21.5,16.5625 L 20.59375,16.34375 C 20.458367,16.060249 20.32031,15.786941 20.15625,15.53125 C 20.023686,15.323789 19.86751,15.125482 19.71875,14.9375 C 19.681836,14.89107 19.631578,14.857689 19.59375,14.8125 C 19.431093,14.616846 19.27169,14.421704 19.09375,14.25 C 18.937643,14.100085 18.79091,13.974291 18.625,13.84375 C 18.613381,13.834488 18.605412,13.821664 18.59375,13.8125 C 18.32625,13.605088 18.036304,13.404057 17.75,13.25 C 17.729185,13.238737 17.708394,13.229717 17.6875,13.21875 C 17.438255,13.088386 17.195177,12.993491 16.9375,12.90625 C 16.178535,12.645736 15.406928,12.557498 14.65625,12.71875 C 14.614484,12.726739 14.572787,12.740576 14.53125,12.75 C 14.49934,12.75799 14.469263,12.772418 14.4375,12.78125 C 14.360914,12.800837 14.294358,12.850006 14.21875,12.875 C 14.1392,12.902436 14.047097,12.904513 13.96875,12.9375 C 13.904178,12.964687 13.843634,13.000861 13.78125,13.03125 C 12.912659,13.454371 12.281248,14.18987 11.875,15.09375 C 11.28461,15.105261 10.38543,14.920361 9.78125,14.6875 C 9.148101,14.443474 8.791759,14.205035 8.21875,14.75 L 8.21875,15.15625 C 8.199979,15.102933 8.175846,15.05253 8.15625,15 C 8.152812,14.99067 8.159714,14.978055 8.15625,14.96875 C 8.042839,14.667748 7.919254,14.366017 7.78125,14.09375 C 7.763469,14.058481 7.736904,14.034746 7.71875,14 C 7.696404,13.957307 7.679142,13.916889 7.65625,13.875 C 7.614615,13.798712 7.57462,13.729784 7.53125,13.65625 L 8.75,13.5 L 9.65625,13.3125 L 21.25,11.84375 C 21.452169,11.811759 21.628862,11.791004 21.8125,11.78125 z M 14.90625,13.0625 C 14.975831,13.060106 15.056433,13.062936 15.125,13.0625 C 17.035087,13.050327 19.023619,14.458589 20,16.71875 C 21.216915,19.535691 20.399687,22.586683 18.15625,23.53125 C 17.860951,23.655582 17.559852,23.705055 17.25,23.75 C 17.041295,23.771338 16.835431,23.767703 16.625,23.75 C 14.932552,23.481924 13.263332,22.171235 12.375,20.1875 L 12.34375,20.09375 C 11.14681,17.323019 11.89939,14.319754 14.03125,13.28125 C 14.169767,13.22705 14.326708,13.192145 14.46875,13.15625 C 14.610797,13.12036 14.757844,13.075339 14.90625,13.0625 z M 8.4375,15.0625 C 8.504298,15.079555 8.578099,15.142003 8.625,15.21875 L 8.625,15.75 C 8.550008,15.928334 8.448123,15.705481 8.34375,15.53125 C 8.314206,15.434057 8.282251,15.344886 8.25,15.25 C 8.30626,15.162721 8.374736,15.109586 8.4375,15.0625 z"
       id="path2328" />
    <path
       style="opacity:0.52427183;fill:url(#linearGradient19130);fill-opacity:1;fill-rule:evenodd;stroke:none;stroke-width:1px;stroke-linecap:butt;stroke-linejoin:miter;marker:none;marker-start:none;marker-mid:none;marker-end:none;stroke-miterlimit:4;stroke-dasharray:none;stroke-dashoffset:0;stroke-opacity:1;visibility:visible;display:inline;overflow:visible;enable-background:accumulate"
       d="M 8.71875,12.625 L 6.96875,12.875 C 7.1622285,13.117537 7.3606675,13.367025 7.53125,13.65625 L 8.75,13.5 L 9.65625,13.3125 C 9.740492,13.181336 9.759403,12.670768 9.59375,12.625 L 8.71875,12.625 z M 6.65625,12.90625 C 6.8165874,13.106818 6.975413,13.330718 7.125,13.5625 C 6.9814453,13.329602 6.8462515,13.106432 6.6875,12.90625 C 6.6833693,12.901041 6.6603898,12.911435 6.65625,12.90625 z M 6.34375,12.9375 L 2.8125,13.40625 L 2.65625,13.4375 C 2.5628756,13.704059 2.4871531,14.003621 2.4375,14.3125 L 2.84375,14.28125 L 6.9375,13.75 C 6.7511578,13.450585 6.5560645,13.177828 6.34375,12.9375 z M 2.25,13.46875 L 1.4375,13.5625 L 2.15625,13.75 L 2.25,13.75 L 2.1875,13.65625 C 2.2050207,13.589203 2.2302759,13.533687 2.25,13.46875 z"
       id="path2297" />
    <path
       style="opacity:0.34999999999999998;fill:url(#radialGradient4765);fill-opacity:1;fill-rule:evenodd;stroke:none;stroke-width:1px;stroke-linecap:butt;stroke-linejoin:miter;marker:none;marker-start:none;marker-mid:none;marker-end:none;stroke-miterlimit:4;stroke-dasharray:none;stroke-dashoffset:0;stroke-opacity:1;visibility:visible;display:inline;overflow:visible;enable-background:accumulate"
       d="M 8.96875,14.40625 C 8.7240234,14.383359 8.5052547,14.477518 8.21875,14.75 L 8.21875,15.3125 C 8.5693149,14.685328 9.0300914,14.991988 9.8125,15.28125 C 10.493652,15.533076 11.140113,15.557538 11.6875,15.59375 C 11.742693,15.427162 11.773492,15.25054 11.84375,15.09375 C 11.25316,15.098996 10.375725,14.916621 9.78125,14.6875 C 9.4646757,14.565487 9.2134766,14.429141 8.96875,14.40625 z"
       id="path2232"
       sodipodi:nodetypes="cccsccsc" />
    <path
       style="opacity:0.1;fill:url(#radialGradient19118);fill-opacity:1;fill-rule:nonzero;stroke:none;stroke-width:12;stroke-linecap:round;stroke-linejoin:round;stroke-miterlimit:4;stroke-dasharray:none;stroke-opacity:1"
       d="M 4.1875,11.75 C 4.1446411,11.756349 4.1026892,11.772383 4.0625,11.78125 C 3.5149689,11.975038 3.0761084,12.427288 2.78125,13.0625 C 2.6829639,13.274237 2.5975985,13.502208 2.53125,13.75 C 2.4649015,13.997792 2.4074793,14.28515 2.375,14.5625 C 2.277562,15.394551 2.3515998,16.331354 2.59375,17.3125 L 2.59375,17.375 C 3.114851,19.401512 4.284165,20.960209 5.5,21.46875 C 5.812727,21.563911 6.13204,21.592201 6.4375,21.53125 C 7.887815,21.029721 8.546386,18.656208 7.90625,16.0625 C 7.296329,13.591212 5.723302,11.782078 4.25,11.75 C 4.2303145,11.749571 4.2089254,11.750107 4.1875,11.75 z"
       id="path2357" />
    <path
       style="opacity:0.7;fill:url(#linearGradient19114);fill-opacity:1;fill-rule:nonzero;stroke:none;stroke-width:12;stroke-linecap:round;stroke-linejoin:round;stroke-miterlimit:4;stroke-dasharray:none;stroke-opacity:1"
       d="M 4.125,11.75 C 4.024527,11.754393 3.942861,11.759382 3.84375,11.78125 C 2.374378,12.301305 1.693907,14.710716 2.34375,17.34375 L 2.375,17.4375 C 2.899418,19.476903 4.05768,21.019474 5.28125,21.53125 C 5.606768,21.630303 5.932681,21.663785 6.25,21.59375 C 6.316074,21.579167 6.374443,21.553056 6.4375,21.53125 C 6.13204,21.592201 5.812727,21.563911 5.5,21.46875 C 4.284165,20.960209 3.114851,19.401512 2.59375,17.375 L 2.59375,17.3125 C 1.948016,14.696112 2.602417,12.298018 4.0625,11.78125 C 4.12198,11.768127 4.191593,11.753919 4.25,11.75 C 4.210629,11.749143 4.164226,11.748284 4.125,11.75 z"
       id="path2350" />
    <path
       style="opacity:0.75;fill:url(#linearGradient3529);fill-opacity:1;fill-rule:nonzero;stroke:none;stroke-width:12;stroke-linecap:round;stroke-linejoin:round;stroke-miterlimit:4;stroke-dasharray:none;stroke-opacity:1"
       d="M 4.15625,11.4375 C 4.049425,11.442173 3.949127,11.445492 3.84375,11.46875 C 3.0481314,11.750339 2.4717239,12.568596 2.1875,13.65625 L 2.25,13.75 L 2.125,14.5625 L 2.03125,14.59375 C 1.9513648,15.43818 2.0081574,16.395099 2.25,17.375 L 2.28125,17.46875 C 2.838821,19.637073 4.074078,21.299624 5.375,21.84375 C 5.721099,21.949063 6.068871,21.980715 6.40625,21.90625 C 8.092278,21.534117 8.866446,18.908828 8.15625,16.03125 C 7.490441,13.333521 5.758623,11.367405 4.15625,11.4375 z M 4.125,11.75 C 5.632097,11.684075 7.28003,13.525172 7.90625,16.0625 C 8.574218,18.768978 7.835777,21.243747 6.25,21.59375 C 5.932681,21.663785 5.60677,21.630303 5.28125,21.53125 C 4.05768,21.019474 2.899418,19.476903 2.375,17.4375 L 2.34375,17.34375 C 1.693907,14.710716 2.374377,12.301305 3.84375,11.78125 C 3.942861,11.759382 4.024527,11.754393 4.125,11.75 z"
       id="path2696" />
    <path
       style="opacity:0.7;fill:url(#linearGradient19110);fill-opacity:1;fill-rule:nonzero;stroke:none;stroke-width:12;stroke-linecap:round;stroke-linejoin:round;stroke-miterlimit:4;stroke-dasharray:none;stroke-opacity:1"
       d="M 15.3125,12.9375 C 15.558143,12.931146 15.815464,12.960692 16.0625,13 C 15.815568,12.960435 15.558359,12.93114 15.3125,12.9375 z M 15.53125,12.9375 C 15.775704,12.931176 16.035729,12.960661 16.28125,13 C 16.035626,12.960916 15.775488,12.931182 15.53125,12.9375 z M 16.25,13.03125 C 16.438465,13.069239 16.626277,13.124458 16.8125,13.1875 C 16.62202,13.122124 16.442978,13.070198 16.25,13.03125 z M 16.46875,13.03125 C 16.660625,13.069975 16.810609,13.122498 17,13.1875 C 16.814841,13.124819 16.656138,13.069022 16.46875,13.03125 z M 14.65625,13.0625 C 14.506991,13.075412 14.361613,13.120154 14.21875,13.15625 C 14.07589,13.192351 13.951813,13.226739 13.8125,13.28125 C 11.668389,14.325722 10.889931,17.369597 12.09375,20.15625 L 12.125,20.25 C 13.018437,22.245134 14.704076,23.542884 16.40625,23.8125 C 16.896964,23.853783 17.403542,23.783521 17.875,23.625 C 17.465499,23.739706 17.045862,23.785407 16.625,23.75 C 14.932552,23.481924 13.263332,22.171235 12.375,20.1875 L 12.34375,20.09375 C 11.14681,17.323019 11.89939,14.319754 14.03125,13.28125 C 14.169767,13.22705 14.326708,13.192145 14.46875,13.15625 C 14.610797,13.12036 14.757844,13.075339 14.90625,13.0625 C 14.826728,13.065236 14.735855,13.055613 14.65625,13.0625 z M 19,14.59375 C 19.115022,14.711543 19.204723,14.840006 19.3125,14.96875 C 19.204716,14.839103 19.115059,14.712381 19,14.59375 z M 19.1875,14.59375 C 19.301901,14.711703 19.392833,14.839844 19.5,14.96875 C 19.392839,14.840742 19.301864,14.710868 19.1875,14.59375 z M 18.03125,23.71875 C 17.915352,23.744016 17.804941,23.767385 17.6875,23.78125 C 17.809218,23.767806 17.911185,23.744302 18.03125,23.71875 z M 17.84375,23.78125 C 17.722994,23.806949 17.591168,23.830229 17.46875,23.84375 C 17.586867,23.829806 17.727186,23.806662 17.84375,23.78125 z"
       id="path2345" />
    <path
       style="opacity:0.15;fill:url(#radialGradient19106);fill-opacity:1;fill-rule:nonzero;stroke:none;stroke-width:12;stroke-linecap:round;stroke-linejoin:round;stroke-miterlimit:4;stroke-dasharray:none;stroke-opacity:1"
       d="M 4.134598,11.74989 C 4.034125,11.754283 3.939791,11.757412 3.84068,11.77928 C 2.371307,12.299335 1.691851,14.701316 2.341694,17.33435 L 2.371086,17.42252 C 2.895504,19.461923 4.057312,21.025614 5.280882,21.53739 C 5.606402,21.636443 5.933495,21.666205 6.250814,21.59617 C 7.836591,21.246167 8.564727,18.776978 7.896759,16.0705 C 7.270539,13.533171 5.641695,11.683965 4.134598,11.74989 z M 5.10453,11.80868 C 5.235429,11.854095 5.357232,11.886232 5.486625,11.955636 C 5.360898,11.889587 5.231606,11.852024 5.10453,11.80868 z M 5.486625,11.955636 C 5.660387,12.04883 5.847626,12.175002 6.015679,12.30834 C 5.841101,12.169998 5.667244,12.050524 5.486625,11.955636 z M 8.190678,16.04111 C 8.360647,16.729794 8.4543,17.409399 8.455205,18.03975 C 8.455895,17.410096 8.360647,16.729794 8.190678,16.04111 z"
       id="path2329" />
    <path
       style="opacity:0.6;fill:url(#linearGradient19102);fill-opacity:1;fill-rule:nonzero;stroke:none;stroke-width:12;stroke-linecap:round;stroke-linejoin:round;stroke-miterlimit:4;stroke-dasharray:none;stroke-opacity:1"
       d="M 4.375,11.34375 C 4.2660577,11.348683 4.1697559,11.351327 4.0625,11.375 C 3.9866811,11.391734 3.9159629,11.443192 3.84375,11.46875 C 5.5297776,11.096618 7.4460541,13.153672 8.15625,16.03125 C 8.8664457,18.908828 8.0922776,21.534117 6.40625,21.90625 C 6.0688707,21.980715 5.7210987,21.949063 5.375,21.84375 C 5.8086407,22.025125 6.2630372,22.093686 6.6875,22 C 8.403595,21.621231 9.1916116,18.928896 8.46875,16 C 7.7910675,13.254161 6.009134,11.269761 4.375,11.34375 z"
       id="path2317" />
    <path
       style="opacity:0.6;fill:url(#linearGradient19094);fill-opacity:1;fill-rule:nonzero;stroke:none;stroke-width:12;stroke-linecap:round;stroke-linejoin:round;stroke-miterlimit:4;stroke-dasharray:none;stroke-opacity:1"
       d="M 15.375,12.65625 C 14.981035,12.666436 14.596401,12.750159 14.21875,12.875 C 16.354549,12.335318 18.790312,13.749008 20.0625,16.21875 L 20.59375,16.34375 C 19.492185,14.036886 17.378266,12.604454 15.375,12.65625 z M 14.21875,12.875 C 14.136839,12.902077 14.049313,12.90358 13.96875,12.9375 C 13.904178,12.964687 13.843634,13.000861 13.78125,13.03125 C 13.928523,12.973629 14.067727,12.913161 14.21875,12.875 z M 20.625,17.5625 C 21.398607,20.25942 20.506986,22.946106 18.375,23.84375 C 17.788398,24.090731 17.156325,24.208834 16.53125,24.15625 C 17.272194,24.27361 18.023109,24.19914 18.71875,23.90625 C 20.845226,23.010926 21.765907,20.377618 21.0625,17.6875 L 20.625,17.5625 z"
       id="path2322" />
    <path
       style="opacity:0.52427183;fill:url(#linearGradient8677);fill-opacity:1;fill-rule:evenodd;stroke:none;stroke-width:1px;stroke-linecap:butt;stroke-linejoin:miter;marker:none;marker-start:none;marker-mid:none;marker-end:none;stroke-miterlimit:4;stroke-dasharray:none;stroke-dashoffset:0;stroke-opacity:1;visibility:visible;display:inline;overflow:visible;enable-background:accumulate"
       d="M 8.65625,14.9375 C 8.5732393,14.948823 8.5095659,15.008436 8.4375,15.0625 C 8.504298,15.079555 8.5780994,15.142003 8.625,15.21875 L 8.625,15.75 C 8.5296832,15.976668 8.374292,15.527277 8.25,15.40625 C 8.3738896,15.921549 8.520988,16.422201 8.53125,16.9375 C 8.7047734,17.02317 8.821976,16.994577 8.9375,16.90625 C 9.0463128,16.695043 9.0679048,15.579635 9,15 C 8.8798737,14.969049 8.7563832,14.923842 8.65625,14.9375 z"
       id="path7888" />
    <path
       style="opacity:0.75;fill:url(#linearGradient11470);fill-opacity:1;fill-rule:evenodd;stroke:none;stroke-width:1px;stroke-linecap:butt;stroke-linejoin:miter;marker:none;marker-start:none;marker-mid:none;marker-end:none;stroke-miterlimit:4;stroke-dasharray:none;stroke-dashoffset:0;stroke-opacity:1;visibility:visible;display:inline;overflow:visible;enable-background:accumulate"
       d="M 8.625,12.53125 L 6.875,12.75 C 6.9030928,12.783468 6.9410473,12.809251 6.96875,12.84375 L 8.71875,12.625 L 9.59375,12.625 L 9.53125,12.5625 L 8.625,12.53125 z M 6.25,12.84375 L 2.6875,13.3125 C 2.6720764,13.351752 2.6707112,13.397152 2.65625,13.4375 L 2.8125,13.40625 L 6.34375,12.9375 C 6.3137742,12.903594 6.2803919,12.876368 6.25,12.84375 z M 2.28125,13.375 L 1.53125,13.5 L 1.28125,13.53125 L 2.15625,13.75 L 2.1875,13.75 C 2.1921232,13.730549 2.1826955,13.706778 2.1875,13.6875 L 2.1875,13.65625 L 1.75,13.5625 L 2.25,13.5 C 2.2622198,13.45754 2.2681146,13.416501 2.28125,13.375 z"
       id="path10259" />
    <path
       sodipodi:nodetypes="ccccccccccscccc"
       id="path2316"
       d="M 29.070312,15.515625 L 28.242187,15.570313 L 23.875,16.3125 L 23.03125,16.4375 L 21.491172,16.551451 L 20.070313,16.231694 L 19.863281,16.242072 L 19.867743,16.360485 L 21.34375,16.71875 L 23.3125,16.5625 C 23.3125,16.5625 23.539064,16.6875 23.71875,16.65625 C 23.898438,16.625 24.03125,16.4375 24.03125,16.4375 L 28.46875,15.6875 L 29.15625,15.59375 L 29.070312,15.515625 z"
       style="opacity:0.75000000000000000;fill:url(#linearGradient4742);fill-opacity:1;fill-rule:evenodd;stroke:none;stroke-width:1px;stroke-linecap:butt;stroke-linejoin:miter;marker:none;marker-start:none;marker-mid:none;marker-end:none;stroke-miterlimit:4;stroke-dasharray:none;stroke-dashoffset:0;stroke-opacity:1;visibility:visible;display:inline;overflow:visible;enable-background:accumulate" />
    <path
       sodipodi:type="arc"
       style="opacity:0.96000001;fill:url(#linearGradient19086);fill-opacity:1;fill-rule:nonzero;stroke:none;stroke-width:12;stroke-linecap:round;stroke-linejoin:round;stroke-miterlimit:4;stroke-dasharray:none;stroke-opacity:1"
       id="path2294"
       sodipodi:cx="23.660456"
       sodipodi:cy="18.477438"
       sodipodi:rx="0.18230097"
       sodipodi:ry="0.077339806"
       d="M 23.478307,18.474277 A 0.18230097,0.077339806 0 1 1 23.478208,18.475567"
       sodipodi:start="3.1824811"
       sodipodi:end="9.4489673"
       sodipodi:open="true"
       transform="matrix(1.2424216,0,0,1.2424216,-5.7579058,-6.479332)" />
    <path
       style="opacity:0.75;fill:url(#linearGradient19084);fill-opacity:1;fill-rule:evenodd;stroke:none;stroke-width:1px;stroke-linecap:butt;stroke-linejoin:miter;marker:none;marker-start:none;marker-mid:none;marker-end:none;stroke-miterlimit:4;stroke-dasharray:none;stroke-dashoffset:0;stroke-opacity:1;visibility:visible;display:inline;overflow:visible;enable-background:accumulate"
       d="M 1.25,13.53125 L 1.25,13.6875 C 1.2644574,13.684614 1.2661852,13.657715 1.28125,13.65625 C 1.3314661,13.651368 1.3837574,13.675053 1.4375,13.6875 C 1.5826052,13.721106 1.6749901,13.826435 1.71875,13.9375 L 1.90625,13.96875 C 2.0103529,14.074662 1.9784665,14.194257 1.90625,14.28125 L 1.6875,14.21875 C 1.6092718,14.315971 1.4737279,14.349839 1.3125,14.3125 C 1.2902617,14.30735 1.270563,14.289016 1.25,14.28125 L 1.25,14.375 L 2.03125,14.59375 L 2.125,14.5625 L 2.25,13.75 L 2.15625,13.75 L 1.25,13.53125 z"
       id="path2314" />
    <path
       style="opacity:0.75;fill:url(#linearGradient19080);fill-opacity:1;fill-rule:evenodd;stroke:none;stroke-width:1px;stroke-linecap:butt;stroke-linejoin:miter;marker:none;marker-start:none;marker-mid:none;marker-end:none;stroke-miterlimit:4;stroke-dasharray:none;stroke-dashoffset:0;stroke-opacity:1;visibility:visible;display:inline;overflow:visible;enable-background:accumulate"
       d="M 19.875,16.34375 L 20.3125,17.5 L 21.34375,17.75 L 21.34375,17.625 C 21.263014,17.627789 21.179181,17.6134 21.09375,17.59375 C 20.870121,17.542314 20.699704,17.417975 20.625,17.28125 L 20.40625,17.21875 C 20.299661,17.115341 20.320495,16.987119 20.40625,16.90625 L 20.65625,16.96875 C 20.74779,16.877603 20.912095,16.818776 21.09375,16.8125 C 21.174486,16.809711 21.258319,16.79285 21.34375,16.8125 L 21.34375,16.71875 L 19.875,16.34375 z"
       id="path2330" />
    <path
       style="opacity:0.7;fill:url(#linearGradient12720);fill-opacity:1;fill-rule:nonzero;stroke:none;stroke-width:12;stroke-linecap:round;stroke-linejoin:round;stroke-miterlimit:4;stroke-dasharray:none;stroke-opacity:1"
       d="M 1.28125,13.65625 C 1.2661852,13.657715 1.2644574,13.684614 1.25,13.6875 C 1.2417491,13.726691 1.2549832,13.773309 1.25,13.8125 L 1.71875,13.9375 C 1.6749901,13.826435 1.5826052,13.721106 1.4375,13.6875 C 1.3837574,13.675053 1.3314661,13.651368 1.28125,13.65625 z M 1.25,14.125 C 1.2551588,14.179306 1.2385672,14.226944 1.25,14.28125 C 1.270563,14.289016 1.2902617,14.30735 1.3125,14.3125 C 1.4737279,14.349839 1.6092718,14.315971 1.6875,14.21875 L 1.25,14.125 z"
       id="path12702" />
    <path
       style="opacity:0.7;fill:url(#linearGradient12718);fill-opacity:1;fill-rule:nonzero;stroke:none;stroke-width:12;stroke-linecap:round;stroke-linejoin:round;stroke-miterlimit:4;stroke-dasharray:none;stroke-opacity:1"
       d="M 21.09375,16.8125 C 20.912095,16.818776 20.74779,16.877603 20.65625,16.96875 L 21.3125,17.09375 C 21.318085,16.999755 21.332841,16.906495 21.34375,16.8125 C 21.258319,16.79285 21.174486,16.809711 21.09375,16.8125 z M 20.625,17.28125 C 20.699704,17.417975 20.870121,17.542314 21.09375,17.59375 C 21.179181,17.6134 21.263014,17.627789 21.34375,17.625 C 21.332073,17.562868 21.348725,17.499632 21.34375,17.4375 L 20.625,17.28125 z"
       id="path12707"
       sodipodi:nodetypes="cccsccsscc" />
    <path
       id="path2382"
       d="M 1.9112031,14.288581 C 1.9834196,14.201589 1.9993083,14.080596 1.8952054,13.974684 L 1.2466188,13.80703 C 1.1531923,13.907791 1.1810462,14.047002 1.2527477,14.120978 L 1.9112031,14.288581 z"
       style="opacity:0.75;fill:url(#linearGradient19076);fill-opacity:1;fill-rule:evenodd;stroke:none;stroke-width:1px;stroke-linecap:butt;stroke-linejoin:miter;marker:none;marker-start:none;marker-mid:none;marker-end:none;stroke-miterlimit:4;stroke-dasharray:none;stroke-dashoffset:0;stroke-opacity:1;visibility:visible;display:inline;overflow:visible;enable-background:accumulate"
       sodipodi:nodetypes="ccccc" />
    <path
       style="opacity:0.75;fill:url(#linearGradient19072);fill-opacity:1;fill-rule:evenodd;stroke:none;stroke-width:1px;stroke-linecap:butt;stroke-linejoin:miter;marker:none;marker-start:none;marker-mid:none;marker-end:none;stroke-miterlimit:4;stroke-dasharray:none;stroke-dashoffset:0;stroke-opacity:1;visibility:visible;display:inline;overflow:visible;enable-background:accumulate"
       d="M 20.40625,16.90625 C 20.320495,16.987119 20.291848,17.107528 20.398437,17.210937 L 21.34375,17.4375 C 21.246591,17.322441 21.255012,17.165072 21.375,17.09375 L 20.40625,16.90625 z"
       id="path2370"
       sodipodi:nodetypes="ccccc" />
    <path
       style="opacity:0.34999999999999998;fill:url(#radialGradient4756);fill-opacity:1;fill-rule:evenodd;stroke:none;stroke-width:1px;stroke-linecap:butt;stroke-linejoin:miter;marker:none;marker-start:none;marker-mid:none;marker-end:none;stroke-miterlimit:4;stroke-dasharray:none;stroke-dashoffset:0;stroke-opacity:1;visibility:visible;display:inline;overflow:visible;enable-background:accumulate"
       d="M 8.96875,14.40625 C 8.7240234,14.383359 8.5052547,14.477518 8.21875,14.75 L 8.21875,15.3125 C 8.5693149,14.685328 9.0300914,14.991988 9.8125,15.28125 C 10.493652,15.533076 11.140113,15.557538 11.6875,15.59375 C 11.742693,15.427162 11.773492,15.25054 11.84375,15.09375 C 11.25316,15.098996 10.375725,14.916621 9.78125,14.6875 C 9.4646757,14.565487 9.2134766,14.429141 8.96875,14.40625 z"
       id="path13122"
       sodipodi:nodetypes="cccsccsc" />
    <path
       style="opacity:0.75000000000000000;fill:url(#linearGradient18612);fill-opacity:1;fill-rule:evenodd;stroke:none;stroke-width:1px;stroke-linecap:butt;stroke-linejoin:miter;marker:none;marker-start:none;marker-mid:none;marker-end:none;stroke-miterlimit:4;stroke-dasharray:none;stroke-dashoffset:0;stroke-opacity:1;visibility:visible;display:inline;overflow:visible;enable-background:accumulate"
       d="M 29.15625,15.59375 L 28.46875,15.6875 L 24.03125,16.4375 L 24.03125,17.3125 L 28.5,16.5625 L 29.1875,16.375 C 29.323043,16.33843 29.30977,15.716257 29.15625,15.59375 z M 28.375,15.84375 L 28.375,16 L 24.0625,16.71875 L 24.0625,16.5625 L 28.375,15.84375 z M 28.375,16.34375 L 28.40625,16.46875 L 24.0625,17.25 L 24.0625,17.0625 L 28.375,16.34375 z M 23.3125,16.5625 L 21.34375,16.71875 L 21.34375,17.15625 C 21.358034,17.137949 21.352061,17.107385 21.375,17.09375 L 22.21875,16.96875 C 22.303875,17.077545 22.352272,17.187031 22.21875,17.28125 L 21.34375,17.4375 L 21.34375,17.75 L 23.34375,17.4375 L 23.3125,16.5625 z M 23.15625,16.6875 L 23.15625,16.84375 L 22.40625,16.9375 L 22.375,16.78125 L 23.15625,16.6875 z M 23.1875,17.21875 L 23.1875,17.375 L 22.4375,17.46875 L 22.40625,17.34375 L 23.1875,17.21875 z"
       id="path13126" />
    <path
       sodipodi:nodetypes="czcczcc"
       id="path2274"
       d="M 24.03125,16.4375 C 24.03125,16.4375 23.895757,16.62343 23.716069,16.65468 C 23.536382,16.68593 23.3125,16.5625 23.3125,16.5625 L 23.34375,17.4375 C 23.34375,17.4375 23.537722,17.56093 23.709597,17.52968 C 23.881472,17.49843 24.03125,17.3125 24.03125,17.3125 L 24.03125,16.4375 z"
       style="opacity:0.75;fill:url(#linearGradient19068);fill-opacity:1;fill-rule:evenodd;stroke:none;stroke-width:1px;stroke-linecap:butt;stroke-linejoin:miter;marker:none;marker-start:none;marker-mid:none;marker-end:none;stroke-miterlimit:4;stroke-dasharray:none;stroke-dashoffset:0;stroke-opacity:1;visibility:visible;display:inline;overflow:visible;enable-background:accumulate" />
    <path
       sodipodi:nodetypes="ccccc"
       id="path2377"
       d="M 21.345787,17.427611 L 22.22967,17.272932 C 22.363192,17.178713 22.314795,17.072367 22.22967,16.963572 L 21.367884,17.096155 C 21.247896,17.167477 21.248628,17.312552 21.345787,17.427611 z"
       style="opacity:0.75;fill:url(#linearGradient19064);fill-opacity:1;fill-rule:evenodd;stroke:none;stroke-width:1px;stroke-linecap:butt;stroke-linejoin:miter;marker:none;marker-start:none;marker-mid:none;marker-end:none;stroke-miterlimit:4;stroke-dasharray:none;stroke-dashoffset:0;stroke-opacity:1;visibility:visible;display:inline;overflow:visible;enable-background:accumulate" />
    <path
       style="opacity:0.75;fill:url(#radialGradient15701);fill-opacity:1;fill-rule:evenodd;stroke:none;stroke-width:1px;stroke-linecap:butt;stroke-linejoin:miter;marker:none;marker-start:none;marker-mid:none;marker-end:none;stroke-miterlimit:4;stroke-dasharray:none;stroke-dashoffset:0;stroke-opacity:1;visibility:visible;display:inline;overflow:visible;enable-background:accumulate"
       d="M 9.40625,17 C 9.2813713,17.029968 9.1027374,17.167243 8.9375,17.5 L 8.625,18.5625 L 8.59375,19.09375 C 8.7023436,18.918114 8.7775391,18.763976 8.84375,18.625 C 8.8490554,18.613864 8.8699142,18.604676 8.875,18.59375 C 8.9602372,18.550525 9.0494923,18.550815 9.1875,18.53125 C 9.1883542,18.521548 9.1865031,18.509711 9.1875,18.5 C 9.1761548,18.490428 9.1662502,18.479612 9.15625,18.46875 C 9.0380658,18.340386 9.0355554,18.17329 9.1875,18.09375 C 9.2122493,18.080794 9.2536648,18.100527 9.28125,18.09375 C 9.3502717,17.829454 9.4354963,17.574469 9.53125,17.3125 C 9.5535898,17.291275 9.5491636,17.249141 9.5625,17.21875 C 9.5719066,17.197314 9.5901673,17.185768 9.59375,17.15625 C 9.6072848,17.044736 9.5311287,16.970032 9.40625,17 z"
       id="path14409" />
    <path
       style="opacity:0.75;fill:url(#linearGradient15709);fill-opacity:1;fill-rule:nonzero;stroke:none;stroke-width:12;stroke-linecap:round;stroke-linejoin:round;stroke-miterlimit:4;stroke-dasharray:none;stroke-opacity:1"
       d="M 9.46875,18.0625 C 9.3810314,18.047225 9.2626647,18.054403 9.1875,18.09375 C 9.0355554,18.17329 9.0380658,18.340386 9.15625,18.46875 C 9.1726139,18.486524 9.1989583,18.48571 9.21875,18.5 C 9.252674,18.418218 9.2669106,18.332778 9.3125,18.25 C 9.3598758,18.163978 9.4194145,18.130358 9.46875,18.0625 z"
       id="path14414" />
    <path
       transform="matrix(-0.3065491,-0.4430867,-0.4761787,0.8377265,23.368379,6.4971556)"
       sodipodi:open="true"
       sodipodi:end="9.4489673"
       sodipodi:start="3.1824811"
       d="M 12.094501,20.956423 A 0.55043393,0.83727974 0 1 1 12.094202,20.970397"
       sodipodi:ry="0.83727974"
       sodipodi:rx="0.55043393"
       sodipodi:cy="20.990648"
       sodipodi:cx="12.644475"
       id="path2271"
       style="opacity:0.75;fill:url(#linearGradient19060);fill-opacity:1;fill-rule:nonzero;stroke:none;stroke-width:12;stroke-linecap:round;stroke-linejoin:round;stroke-miterlimit:4;stroke-dasharray:none;stroke-opacity:1"
       sodipodi:type="arc" />
    <path
       style="opacity:0.75;fill:url(#radialGradient19058);fill-opacity:1;fill-rule:evenodd;stroke:none;stroke-width:1px;stroke-linecap:butt;stroke-linejoin:miter;marker:none;marker-start:none;marker-mid:none;marker-end:none;stroke-miterlimit:4;stroke-dasharray:none;stroke-dashoffset:0;stroke-opacity:1;visibility:visible;display:inline;overflow:visible;enable-background:accumulate"
       d="M 11.78125,17.40625 C 11.780843,17.553571 11.802232,17.693912 11.8125,17.84375 C 11.868507,17.736939 11.97473,17.684715 12.09375,17.8125 C 12.331789,18.06807 12.40625,18.53125 12.40625,18.53125 L 12.6875,18.46875 C 12.483057,17.591035 12.291372,17.445527 11.78125,17.40625 z"
       id="path2265" />
    <path
       style="opacity:0.75;fill:url(#linearGradient14929);fill-opacity:1;fill-rule:nonzero;stroke:none;stroke-width:12;stroke-linecap:round;stroke-linejoin:round;stroke-miterlimit:4;stroke-dasharray:none;stroke-opacity:1"
       d="M 12.5625,18.09375 C 12.600028,18.207258 12.651039,18.312215 12.6875,18.46875 C 12.845841,18.477185 12.981421,18.536658 13,18.65625 C 13.024772,18.815706 12.854764,18.981991 12.625,19.03125 C 12.395235,19.080508 12.212272,19.003206 12.1875,18.84375 C 12.16831,18.720221 12.260615,18.605859 12.40625,18.53125 C 12.40625,18.53125 12.390945,18.352423 12.3125,18.15625 C 12.094745,18.292117 12.01314,18.642823 12.125,19.03125 L 12.125,19.0625 C 12.256339,19.500418 12.583057,19.791784 12.875,19.71875 C 13.17008,19.644932 13.31534,19.225167 13.1875,18.78125 C 13.082489,18.416603 12.815749,18.140951 12.5625,18.09375 z"
       id="path14425" />
    <path
       transform="matrix(0.1123728,0.5177383,-0.4945267,0.1205933,21.54975,9.664723)"
       sodipodi:open="true"
       sodipodi:end="9.4489673"
       sodipodi:start="3.1824811"
       d="M 12.094501,20.956423 A 0.55043393,0.83727974 0 1 1 12.094202,20.970397"
       sodipodi:ry="0.83727974"
       sodipodi:rx="0.55043393"
       sodipodi:cy="20.990648"
       sodipodi:cx="12.644475"
       id="path2269"
       style="opacity:0.75;fill:url(#radialGradient19054);fill-opacity:1;fill-rule:nonzero;stroke:none;stroke-width:12;stroke-linecap:round;stroke-linejoin:round;stroke-miterlimit:4;stroke-dasharray:none;stroke-opacity:1"
       sodipodi:type="arc" />
    <path
       style="opacity:0.5;fill:url(#radialGradient15721);fill-opacity:1;fill-rule:evenodd;stroke:none;stroke-width:1px;stroke-linecap:butt;stroke-linejoin:miter;marker:none;marker-start:none;marker-mid:none;marker-end:none;stroke-miterlimit:4;stroke-dasharray:none;stroke-dashoffset:0;stroke-opacity:1;visibility:visible;display:inline;overflow:visible;enable-background:accumulate"
       d="M 12.15625,17.21875 C 12.044116,17.21753 11.942118,17.242293 11.84375,17.28125 C 11.82054,17.290442 11.802471,17.302004 11.78125,17.3125 C 11.764897,18.212563 11.941607,19.162852 12.34375,20.09375 L 12.375,20.1875 C 12.551623,20.581917 12.767593,20.942951 13,21.28125 C 13.47894,21.308152 13.949879,20.826607 13.9375,20.15625 C 13.990136,18.214907 12.94119,17.227292 12.15625,17.21875 z"
       id="path15711" />
    <path
       style="opacity:0.5;fill:url(#radialGradient15723);fill-opacity:1;fill-rule:evenodd;stroke:none;stroke-width:1px;stroke-linecap:butt;stroke-linejoin:miter;marker:none;marker-start:none;marker-mid:none;marker-end:none;stroke-miterlimit:4;stroke-dasharray:none;stroke-dashoffset:0;stroke-opacity:1;visibility:visible;display:inline;overflow:visible;enable-background:accumulate"
       d="M 10.080156,16.879996 C 10.435253,16.901183 10.322788,18.077594 9.2474628,19.730949 C 8.6963443,20.61703 8.0467642,20.639468 8.7153501,19.195392 C 9.3137064,17.781698 9.725057,16.858809 10.080156,16.879996 z"
       id="path15713"
       sodipodi:nodetypes="cccz" />
    <path
       style="opacity:0.5;fill:url(#linearGradient15768);fill-opacity:1;fill-rule:evenodd;stroke:none;stroke-width:0.30000001;stroke-linecap:butt;stroke-linejoin:miter;marker:none;stroke-miterlimit:4;stroke-dasharray:none;stroke-dashoffset:0;stroke-opacity:1;visibility:visible;display:inline;overflow:visible;enable-background:accumulate"
       d="M 12.15625,17.21875 C 12.044116,17.21753 11.942118,17.242293 11.84375,17.28125 C 11.82054,17.290442 11.802471,17.302004 11.78125,17.3125 C 11.764897,18.212563 11.941607,19.162852 12.34375,20.09375 L 12.375,20.1875 C 12.551623,20.581917 12.767593,20.942951 13,21.28125 C 13.47894,21.308152 13.949879,20.826607 13.9375,20.15625 C 13.990136,18.214907 12.94119,17.227292 12.15625,17.21875 z M 12.15625,17.375 C 12.816846,17.382189 13.832385,18.270257 13.78125,20.15625 C 13.79165,20.719442 13.416952,21.067672 13.0625,21.09375 C 12.857716,20.787718 12.656246,20.473912 12.5,20.125 L 12.53125,20.125 L 12.5,20.03125 L 12.46875,20.03125 C 12.088931,19.152029 11.966252,18.257058 11.96875,17.40625 C 12.032142,17.386445 12.089109,17.374269 12.15625,17.375 z"
       id="path15732" />
    <path
       style="opacity:0.5;fill:url(#linearGradient15760);fill-opacity:1;fill-rule:evenodd;stroke:none;stroke-width:0.30000001;stroke-linecap:butt;stroke-linejoin:miter;marker:none;stroke-miterlimit:4;stroke-dasharray:none;stroke-dashoffset:0;stroke-opacity:1;visibility:visible;display:inline;overflow:visible;enable-background:accumulate"
       d="M 10.09375,16.875 C 9.738651,16.853813 9.3171062,17.773806 8.71875,19.1875 C 8.0501641,20.631576 8.6988811,20.604831 9.25,19.71875 C 10.325325,18.065395 10.448847,16.896187 10.09375,16.875 z M 10,17.03125 C 10.025869,17.018862 10.051286,17.030581 10.0625,17.03125 C 10.069664,17.040557 10.085092,17.071685 10.09375,17.125 C 10.111067,17.231631 10.118757,17.416538 10.0625,17.65625 C 9.9499869,18.135673 9.6551003,18.8412 9.125,19.65625 C 8.9940498,19.86679 8.8595805,20.004559 8.75,20.09375 C 8.6952098,20.138346 8.6554027,20.176534 8.625,20.1875 C 8.5945973,20.198466 8.5839859,20.18326 8.59375,20.1875 C 8.5869641,20.163408 8.5831828,20.111925 8.59375,20.03125 C 8.6148844,19.869901 8.680432,19.60275 8.84375,19.25 C 9.1426858,18.543726 9.409188,17.955968 9.625,17.5625 C 9.732906,17.365766 9.8231294,17.214731 9.90625,17.125 C 9.9478103,17.080135 9.9741309,17.043638 10,17.03125 z"
       id="path15734" />
    <path
       style="opacity:0.75;fill:url(#linearGradient19052);fill-opacity:1;fill-rule:evenodd;stroke:none;stroke-width:1px;stroke-linecap:butt;stroke-linejoin:miter;marker:none;marker-start:none;marker-mid:none;marker-end:none;stroke-miterlimit:4;stroke-dasharray:none;stroke-dashoffset:0;stroke-opacity:1;visibility:visible;display:inline;overflow:visible;enable-background:accumulate"
       d="M 24.062499,16.72143 L 24.062499,16.56518 L 28.374999,15.837277 L 28.390624,15.993527 L 24.062499,16.72143 z"
       id="path2340"
       sodipodi:nodetypes="ccccc" />
    <path
       style="opacity:0.75;fill:url(#linearGradient19048);fill-opacity:1;fill-rule:evenodd;stroke:none;stroke-width:1px;stroke-linecap:butt;stroke-linejoin:miter;marker:none;marker-start:none;marker-mid:none;marker-end:none;stroke-miterlimit:4;stroke-dasharray:none;stroke-dashoffset:0;stroke-opacity:1;visibility:visible;display:inline;overflow:visible;enable-background:accumulate"
       d="M 24.062499,17.237055 L 24.078124,17.06518 L 28.390624,16.337277 L 28.406249,16.477902 L 24.062499,17.237055 z"
       id="path2342"
       sodipodi:nodetypes="ccccc" />
    <path
       style="opacity:0.75;fill:url(#linearGradient19044);fill-opacity:1;fill-rule:evenodd;stroke:none;stroke-width:1px;stroke-linecap:butt;stroke-linejoin:miter;marker:none;marker-start:none;marker-mid:none;marker-end:none;stroke-miterlimit:4;stroke-dasharray:none;stroke-dashoffset:0;stroke-opacity:1;visibility:visible;display:inline;overflow:visible;enable-background:accumulate"
       d="M 23.172984,17.212277 L 23.188609,17.374603 L 22.422984,17.477902 L 22.407359,17.330333 L 23.172984,17.212277 z"
       id="path2346" />
    <path
       id="path2359"
       d="M 23.150887,16.681949 L 23.166512,16.844275 L 22.400887,16.925477 L 22.385262,16.777908 L 23.150887,16.681949 z"
       style="opacity:0.75;fill:url(#linearGradient19040);fill-opacity:1;fill-rule:evenodd;stroke:none;stroke-width:1px;stroke-linecap:butt;stroke-linejoin:miter;marker:none;marker-start:none;marker-mid:none;marker-end:none;stroke-miterlimit:4;stroke-dasharray:none;stroke-dashoffset:0;stroke-opacity:1;visibility:visible;display:inline;overflow:visible;enable-background:accumulate"
       sodipodi:nodetypes="ccccc" />
    <path
       style="opacity:1;fill:#000000;fill-opacity:1.0;fill-rule:evenodd;stroke:none;stroke-width:1px;stroke-linecap:butt;stroke-linejoin:miter;marker:none;marker-start:none;marker-mid:none;marker-end:none;stroke-miterlimit:4;stroke-dasharray:none;stroke-dashoffset:0;stroke-opacity:1;visibility:visible;display:inline;overflow:visible;enable-background:accumulate"
       d="M 21.625,11.03125 L 9.53125,12.5625 L 9.59375,12.625 C 9.759403,12.670768 9.740493,13.181336 9.65625,13.3125 L 21.25,11.84375 C 22.867355,11.587821 23.860822,12.082117 24.65625,12.8125 L 27.03125,15.78125 L 28.25,15.5625 L 28.6875,15.53125 C 28.3544,15.169281 27.96805,14.802338 27.53125,14.5 L 24.8125,11.9375 C 24.793726,11.924068 24.768918,11.919357 24.75,11.90625 C 24.726768,11.890153 24.71095,11.859358 24.6875,11.84375 C 24.515395,11.720612 24.3108,11.625395 24.125,11.53125 C 23.388157,11.157893 22.569945,10.994755 21.625,11.03125 z M 29.25,16.21875 C 29.235347,16.299181 29.22613,16.364578 29.1875,16.375 L 28.5,16.5625 L 27.75,16.6875 L 27.84375,16.8125 C 28.257222,17.197786 28.680277,17.308244 29.09375,17.28125 C 29.610297,17.10696 29.581386,16.848995 29.53125,16.59375 C 29.448098,16.469982 29.346372,16.348152 29.25,16.21875 z"
       id="path16958" />
    <path
       style="opacity:1;fill:#000000;fill-opacity:1.0;fill-rule:evenodd;stroke:none;stroke-width:1px;stroke-linecap:butt;stroke-linejoin:miter;marker:none;marker-start:none;marker-mid:none;marker-end:none;stroke-miterlimit:4;stroke-dasharray:none;stroke-dashoffset:0;stroke-opacity:1;visibility:visible;display:inline;overflow:visible;enable-background:accumulate"
       d="M 36.46875,13.59375 L 29.0625,15.5 L 29.15625,15.59375 C 29.30977,15.716257 29.323043,16.33843 29.1875,16.375 L 36.53125,14.4375 C 37.210015,14.296061 37.48676,14.519407 37.59375,15.09375 L 37.75,18.96875 C 37.877572,19.593388 38.082194,19.931417 38.375,19.8125 C 39.217128,19.287603 38.767337,18.556161 38.59375,17.875 L 38.375,15.03125 C 38.306357,14.62412 38.153928,14.337516 37.96875,14.125 C 38.027346,14.189436 38.10835,14.230828 38.15625,14.3125 C 37.840621,13.630868 37.221291,13.544289 36.46875,13.59375 z M 36.5,13.65625 C 36.736016,13.640738 36.94822,13.653944 37.15625,13.6875 C 36.951958,13.653013 36.734366,13.640846 36.5,13.65625 z"
       id="path16963" />
    <path
       style="opacity:0.52427182999999999;fill:url(#linearGradient20271);fill-opacity:1;fill-rule:evenodd;stroke:none;stroke-width:1px;stroke-linecap:butt;stroke-linejoin:miter;marker:none;marker-start:none;marker-mid:none;marker-end:none;stroke-miterlimit:4;stroke-dasharray:none;stroke-dashoffset:0;stroke-opacity:1;visibility:visible;display:inline;overflow:visible;enable-background:accumulate"
       d="M 21.625,11.03125 L 9.53125,12.5625 L 9.59375,12.625 L 21.75,11.09375 C 22.914505,11.048776 23.901974,11.318267 24.75,11.90625 L 24.6875,11.84375 C 23.832867,11.232276 22.80822,10.985553 21.625,11.03125 z"
       id="path2258" />
    <path
       style="opacity:0.52427182999999999;fill:url(#linearGradient21029);fill-opacity:1;fill-rule:evenodd;stroke:none;stroke-width:1px;stroke-linecap:butt;stroke-linejoin:miter;marker:none;marker-start:none;marker-mid:none;marker-end:none;stroke-miterlimit:4;stroke-dasharray:none;stroke-dashoffset:0;stroke-opacity:1;visibility:visible;display:inline;overflow:visible;enable-background:accumulate"
       d="M 36.46875,13.59375 L 29.0625,15.5 L 29.15625,15.59375 L 36.5,13.65625 C 37.208047,13.609713 37.820189,13.739503 38.15625,14.3125 C 37.840621,13.630868 37.221291,13.544289 36.46875,13.59375 z M 37.5625,15.03125 L 37.59375,15.09375 C 37.588674,15.0665 37.568322,15.056925 37.5625,15.03125 z"
       id="path2252" />
    <path
       style="opacity:0.15;fill:url(#radialGradient19028);fill-opacity:1;fill-rule:evenodd;stroke:none;stroke-width:1px;stroke-linecap:butt;stroke-linejoin:miter;marker:none;marker-start:none;marker-mid:none;marker-end:none;stroke-miterlimit:4;stroke-dasharray:none;stroke-dashoffset:0;stroke-opacity:1;visibility:visible;display:inline;overflow:visible;enable-background:accumulate"
       d="M 21.75,11.09375 L 9.59375,12.625 C 9.759403,12.670768 9.740493,13.181336 9.65625,13.3125 L 21.25,11.84375 C 22.867355,11.587821 23.860822,12.082117 24.65625,12.8125 L 27.03125,15.78125 L 28.25,15.5625 L 28.6875,15.53125 C 28.3544,15.169281 27.96805,14.802338 27.53125,14.5 L 24.8125,11.9375 C 23.952206,11.321973 22.941057,11.04775 21.75,11.09375 z M 29.25,16.21875 C 29.235347,16.299181 29.22613,16.364578 29.1875,16.375 L 28.5,16.5625 L 27.75,16.6875 L 27.84375,16.8125 C 28.257222,17.197786 28.680277,17.308244 29.09375,17.28125 C 29.610297,17.10696 29.581386,16.848995 29.53125,16.59375 C 29.448098,16.469982 29.346372,16.348152 29.25,16.21875 z"
       id="path3286" />
    <path
       style="opacity:0.15;fill:url(#radialGradient19024);fill-opacity:1;fill-rule:evenodd;stroke:none;stroke-width:1px;stroke-linecap:butt;stroke-linejoin:miter;marker:none;marker-start:none;marker-mid:none;marker-end:none;stroke-miterlimit:4;stroke-dasharray:none;stroke-dashoffset:0;stroke-opacity:1;visibility:visible;display:inline;overflow:visible;enable-background:accumulate"
       d="M 36.5,13.65625 L 29.15625,15.59375 C 29.30977,15.716257 29.323043,16.33843 29.1875,16.375 L 36.53125,14.4375 C 37.210015,14.296061 37.48676,14.519407 37.59375,15.09375 L 37.75,18.96875 C 37.877572,19.593388 38.082194,19.931417 38.375,19.8125 C 39.217128,19.287603 38.767337,18.556161 38.59375,17.875 L 38.375,15.03125 C 38.177465,13.859653 37.437464,13.594634 36.5,13.65625 z"
       id="path3284" />
    <path
       style="opacity:0.1;fill:url(#radialGradient19122);fill-opacity:1;fill-rule:nonzero;stroke:none;stroke-width:12;stroke-linecap:round;stroke-linejoin:round;stroke-miterlimit:4;stroke-dasharray:none;stroke-opacity:1"
       d="M 14.90625,13.0625 C 14.757844,13.075339 14.610797,13.12036 14.46875,13.15625 C 14.326708,13.192145 14.169767,13.22705 14.03125,13.28125 C 11.89939,14.319754 11.14681,17.323019 12.34375,20.09375 L 12.375,20.1875 C 13.263332,22.171235 14.932552,23.481924 16.625,23.75 C 16.835431,23.767703 17.041295,23.771338 17.25,23.75 C 17.21712,23.755188 17.189232,23.776946 17.15625,23.78125 C 17.502686,23.736294 17.82951,23.66882 18.15625,23.53125 C 20.399687,22.586683 21.216915,19.535691 20,16.71875 C 19.023619,14.458589 17.035087,13.050327 15.125,13.0625 C 15.056433,13.062936 14.975831,13.060106 14.90625,13.0625 z M 17.15625,23.78125 C 16.909334,23.81347 16.651607,23.833141 16.40625,23.8125 C 16.649371,23.832953 16.914342,23.812642 17.15625,23.78125 z M 18.03125,23.71875 C 17.911185,23.744302 17.809218,23.767806 17.6875,23.78125 C 17.804941,23.767385 17.915352,23.744016 18.03125,23.71875 z"
       id="path2355" />
    <path
       style="opacity:0.15;fill:url(#radialGradient4935);fill-opacity:1;fill-rule:nonzero;stroke:none;stroke-width:12;stroke-linecap:round;stroke-linejoin:round;stroke-miterlimit:4;stroke-dasharray:none;stroke-opacity:1"
       d="M 15.32258,12.93745 C 15.568223,12.931096 15.814564,12.957262 16.0616,12.99657 C 15.814668,12.957005 15.568439,12.93109 15.32258,12.93745 z M 16.23897,13.02613 C 16.427435,13.064119 16.614407,13.110888 16.80063,13.17393 C 16.610151,13.108554 16.431948,13.065078 16.23897,13.02613 z M 15.11565,13.05569 C 14.82179,13.057559 14.514545,13.072178 14.22882,13.14437 C 14.085961,13.180471 13.954283,13.237669 13.81497,13.29218 C 11.670859,14.336652 10.896611,17.363667 12.10043,20.15032 L 12.12999,20.239 C 13.023427,22.234134 14.714156,23.546264 16.41633,23.81588 C 17.007625,23.865624 17.605536,23.753901 18.16043,23.52027 C 20.403868,22.575702 21.210125,19.538191 19.99321,16.72125 C 19.016829,14.46109 17.025737,13.043517 15.11565,13.05569 z M 16.41633,23.81588 C 16.596568,23.844428 16.768451,23.870742 16.94843,23.875 C 16.772987,23.870324 16.591556,23.84363 16.41633,23.81588 z M 18.98814,14.59286 C 19.103162,14.710652 19.205533,14.848406 19.31331,14.97715 C 19.205527,14.847503 19.103199,14.711491 18.98814,14.59286 z M 17.83526,23.78632 C 17.714504,23.812019 17.602948,23.831919 17.48053,23.84544 C 17.598647,23.831496 17.718696,23.811732 17.83526,23.78632 z"
       id="path2327" />
    <rect
       style="opacity:0.61162792;fill:#555753;fill-opacity:1;fill-rule:nonzero;stroke:none;stroke-width:0.69999999;stroke-linecap:round;stroke-linejoin:miter;stroke-miterlimit:4;stroke-dasharray:none;stroke-opacity:1"
       id="rect1951"
       width="40.001965"
       height="10.004759"
       x="-0.0019644466"
       y="30" />
    <text
       xml:space="preserve"
       style="font-size:12px;font-style:normal;font-weight:normal;fill:#eeeeec;fill-opacity:1;stroke:none;stroke-width:1px;stroke-linecap:butt;stroke-linejoin:miter;stroke-opacity:1;font-family:Bitstream Vera Sans"
       x="15.362516"
       y="39.168156"
       id="text2840"><tspan
         sodipodi:role="line"
         id="tspan2842"
         x="15.362516"
         y="39.168156">Ti</tspan></text>
    <path
       style="opacity:0.50000000000000000;fill:url(#linearGradient4781);fill-opacity:1;fill-rule:evenodd;stroke:none;stroke-width:1px;stroke-linecap:butt;stroke-linejoin:miter;marker:none;marker-start:none;marker-mid:none;marker-end:none;stroke-miterlimit:4;stroke-dasharray:none;stroke-dashoffset:0;stroke-opacity:1;visibility:visible;display:inline;overflow:visible;enable-background:accumulate"
       d="M 8.78125,14.40625 C 8.603047,14.435848 8.433628,14.545639 8.21875,14.75 L 8.21875,15.3125 C 8.262571,15.234103 8.296158,15.176211 8.34375,15.125 C 8.370448,15.096272 8.409407,15.083576 8.4375,15.0625 C 8.504298,15.079555 8.578099,15.142003 8.625,15.21875 L 8.625,15.75 C 8.529683,15.976668 8.374292,15.527277 8.25,15.40625 C 8.37389,15.921549 8.520988,16.422201 8.53125,16.9375 C 8.704773,17.02317 8.821976,16.994577 8.9375,16.90625 C 9.046313,16.695043 9.067905,15.579635 9,15 C 9.22589,15.058202 9.493263,15.163225 9.8125,15.28125 C 10.493652,15.533076 11.140833,15.557753 11.6875,15.59375 C 11.742693,15.427162 11.773492,15.25054 11.84375,15.09375 C 11.716974,15.091709 11.584375,15.076898 11.4375,15.0625 C 11.256893,15.044795 11.068284,15.005479 10.875,14.96875 C 10.488432,14.895291 10.093046,14.807671 9.78125,14.6875 C 9.464676,14.565487 9.213477,14.429141 8.96875,14.40625 C 8.907568,14.400527 8.840651,14.396384 8.78125,14.40625 z M 8.8125,14.5 C 8.855462,14.492864 8.909845,14.49449 8.96875,14.5 C 9.183134,14.520053 9.426663,14.65663 9.75,14.78125 C 10.073047,14.905757 10.45514,14.988653 10.84375,15.0625 C 11.035897,15.099013 11.249315,15.137802 11.4375,15.15625 C 11.538886,15.166189 11.624879,15.181358 11.71875,15.1875 C 11.682346,15.296034 11.654634,15.398745 11.625,15.5 C 11.088861,15.465521 10.485697,15.424832 9.84375,15.1875 C 9.525576,15.069868 9.266823,14.966947 9.03125,14.90625 L 8.875,14.875 L 8.90625,15 C 8.939197,15.281238 8.947897,15.720163 8.9375,16.09375 C 8.932302,16.280543 8.922031,16.454688 8.90625,16.59375 C 8.894182,16.700092 8.888355,16.766518 8.875,16.8125 C 8.865213,16.819983 8.852929,16.806478 8.84375,16.8125 C 8.807035,16.836587 8.784296,16.871079 8.75,16.875 C 8.721033,16.878312 8.666394,16.857136 8.625,16.84375 C 8.607556,16.491883 8.489422,16.152231 8.40625,15.8125 C 8.431045,15.845934 8.450401,15.886111 8.5,15.90625 C 8.537659,15.921541 8.617169,15.90132 8.65625,15.875 C 8.695331,15.84868 8.702665,15.8195 8.71875,15.78125 L 8.71875,15.75 L 8.71875,15.21875 L 8.71875,15.1875 L 8.71875,15.15625 C 8.660096,15.06027 8.575134,14.995912 8.46875,14.96875 L 8.40625,14.96875 L 8.375,14.96875 C 8.369657,14.972758 8.34242,15.010537 8.3125,15.03125 L 8.3125,14.78125 C 8.499758,14.609762 8.673955,14.523011 8.8125,14.5 z"
       id="path4744" />
    <path
       style="opacity:0.61114747999999997;fill:url(#radialGradient4853);fill-opacity:1;fill-rule:nonzero;stroke:none;stroke-width:12;stroke-linecap:round;stroke-linejoin:round;stroke-miterlimit:4;stroke-dasharray:none;stroke-opacity:1"
       d="M 4.375,11.34375 C 4.2660577,11.348683 4.1697559,11.351327 4.0625,11.375 C 3.9805313,11.393092 3.9211506,11.440176 3.84375,11.46875 C 3.949127,11.445492 4.049425,11.442173 4.15625,11.4375 C 4.2094795,11.435172 4.2590286,11.466632 4.3125,11.46875 C 4.4602354,11.474601 4.6016771,11.461583 4.75,11.5 C 4.7719152,11.503914 4.790579,11.526627 4.8125,11.53125 C 5.0042317,11.571682 5.1850927,11.657738 5.375,11.75 C 6.6029155,12.346553 7.7658015,13.942751 8.28125,16.03125 C 8.968166,18.814499 8.7123795,17.346606 8.65625,16.96875 C 8.6149234,16.961572 8.5803604,16.961746 8.53125,16.9375 C 8.520988,16.422201 8.3738896,15.921549 8.25,15.40625 C 8.2737617,15.429387 8.2890643,15.489279 8.3125,15.53125 C 8.2881269,15.449657 8.2761981,15.361384 8.25,15.28125 C 8.2421575,15.294908 8.2271771,15.297424 8.21875,15.3125 L 8.21875,15.1875 C 8.0885964,14.802461 7.9509816,14.436118 7.78125,14.09375 C 7.7744761,14.080314 7.7568284,14.07586 7.75,14.0625 C 7.6535768,13.870253 7.5441629,13.708079 7.4375,13.53125 C 7.3804416,13.43898 7.3408746,13.337408 7.28125,13.25 C 6.4556137,12.039638 5.3802144,11.298237 4.375,11.34375 z M 3.84375,11.46875 C 3.6505909,11.540059 3.6524955,11.53644 3.84375,11.46875 z M 15.375,12.65625 C 14.981035,12.666436 14.596401,12.750159 14.21875,12.875 C 14.426406,12.822529 14.630945,12.797914 14.84375,12.78125 C 14.916163,12.77558 14.989687,12.782942 15.0625,12.78125 C 15.135528,12.774186 15.206629,12.752076 15.28125,12.75 C 17.213497,12.696251 19.277833,14.060448 20.375,16.28125 L 20.59375,16.34375 C 20.490937,16.132096 20.395142,15.913369 20.28125,15.71875 C 20.269355,15.698891 20.262051,15.675947 20.25,15.65625 C 19.962943,15.187084 19.61471,14.776502 19.25,14.40625 C 18.561761,13.707552 17.77059,13.18722 16.9375,12.90625 C 16.886499,12.888983 16.83237,12.890095 16.78125,12.875 C 16.759354,12.8685 16.740547,12.849819 16.71875,12.84375 C 16.268418,12.713469 15.824793,12.64462 15.375,12.65625 z M 14.21875,12.875 C 14.136839,12.902077 14.067727,12.913161 14.21875,12.875 z M 11.375,17.40625 C 11.372569,17.603289 11.39026,17.799164 11.40625,18 C 11.398551,17.906182 11.409998,17.811768 11.40625,17.71875 C 11.402074,17.615101 11.374326,17.508701 11.375,17.40625 z M 20.875,17.625 C 21.599588,20.294524 21.203151,18.091431 21.09375,17.6875 L 20.875,17.625 z M 11.40625,18.15625 C 11.436347,18.447465 11.492829,18.736085 11.5625,19.03125 C 11.525141,18.873097 11.526113,18.719881 11.5,18.5625 C 11.476999,18.423875 11.420668,18.293758 11.40625,18.15625 z M 11.625,19.21875 C 11.641307,19.280255 11.638189,19.344711 11.65625,19.40625 C 11.654439,19.400056 11.689293,19.381194 11.6875,19.375 C 11.672256,19.32235 11.638976,19.271399 11.625,19.21875 z"
       id="path4787"
       sodipodi:nodetypes="cssssssssccsssccssssccccssssccssssssccccsscccccssccssc" />
    <path
       style="opacity:0.75;fill:url(#linearGradient3531);fill-opacity:1;fill-rule:nonzero;stroke:none;stroke-width:12;stroke-linecap:round;stroke-linejoin:round;stroke-miterlimit:4;stroke-dasharray:none;stroke-opacity:1"
       d="M 16.34375,12.75 C 16.542985,12.790159 16.740637,12.839598 16.9375,12.90625 C 16.736141,12.837134 16.547758,12.791178 16.34375,12.75 z M 14.84375,12.78125 C 14.630945,12.797914 14.426406,12.822529 14.21875,12.875 C 14.067727,12.913161 13.928523,12.973629 13.78125,13.03125 C 11.514629,14.135402 10.696141,17.335377 11.96875,20.28125 L 12,20.375 C 12.944477,22.484124 14.731816,23.871234 16.53125,24.15625 C 17.156325,24.208834 17.788398,24.090731 18.375,23.84375 C 20.506986,22.946106 21.398607,20.25942 20.625,17.5625 L 20.3125,17.5 L 20,16.71875 C 21.216915,19.535691 20.399687,22.586683 18.15625,23.53125 C 17.601356,23.764881 16.997545,23.862244 16.40625,23.8125 C 14.704076,23.542884 13.018437,22.245134 12.125,20.25 L 12.09375,20.15625 C 10.889931,17.369597 11.668389,14.325722 13.8125,13.28125 C 13.951813,13.226739 14.075891,13.192351 14.21875,13.15625 C 14.361613,13.120154 14.506991,13.075412 14.65625,13.0625 C 14.805509,13.049588 14.97807,13.063435 15.125,13.0625 C 17.035087,13.050327 19.023619,14.458589 20,16.71875 L 19.875,16.34375 L 20.1875,16.4375 C 19.886057,15.798272 19.528594,15.208825 19.09375,14.71875 C 17.920073,13.396 16.333385,12.664605 14.84375,12.78125 z M 19.25,14.40625 C 19.371602,14.530772 19.479817,14.676396 19.59375,14.8125 C 19.479807,14.675443 19.371639,14.531661 19.25,14.40625 z M 18.03125,24.125 C 17.903594,24.152169 17.785668,24.173209 17.65625,24.1875 C 17.781117,24.172756 17.908026,24.15187 18.03125,24.125 z"
       id="path2704" />
    <path
       style="opacity:1;fill:url(#radialGradient4909);fill-opacity:1;fill-rule:nonzero;stroke:none;stroke-width:1;stroke-linecap:butt;stroke-linejoin:miter;marker:none;marker-start:none;marker-mid:none;marker-end:none;stroke-miterlimit:4;stroke-dasharray:none;stroke-dashoffset:0;stroke-opacity:1;visibility:visible;display:inline;overflow:visible;enable-background:accumulate"
       d="M 9.904193,14.886446 C 10.305624,15.184342 10.684957,15.190325 11.10296,15.096368 C 10.657016,15.058978 10.351548,14.907149 9.904193,14.886446 z"
       id="path4901"
       sodipodi:nodetypes="ccc" />
    <path
       style="opacity:1;fill:url(#radialGradient4921);fill-opacity:1;fill-rule:nonzero;stroke:none;stroke-width:1;stroke-linecap:butt;stroke-linejoin:miter;marker:none;marker-start:none;marker-mid:none;marker-end:none;stroke-miterlimit:4;stroke-dasharray:none;stroke-dashoffset:0;stroke-opacity:1;visibility:visible;display:inline;overflow:visible;enable-background:accumulate"
       d="M 17.679686,13.554686 C 18.259397,14.03191 18.870914,14.379011 20.085936,15.843749 C 19.5177,14.910919 18.762318,14.01044 17.679686,13.554686 z"
       id="path4913"
       sodipodi:nodetypes="ccc" />
    <path
       sodipodi:nodetypes="ccc"
       id="path4923"
       d="M 5.9541687,12.171062 C 6.291245,12.55016 6.6722104,12.853547 7.3032203,13.934906 C 7.0483743,13.276179 6.6544246,12.610165 5.9541687,12.171062 z"
       style="opacity:1;fill:url(#radialGradient4925);fill-opacity:1;fill-rule:nonzero;stroke:none;stroke-width:1;stroke-linecap:butt;stroke-linejoin:miter;marker:none;marker-start:none;marker-mid:none;marker-end:none;stroke-miterlimit:4;stroke-dasharray:none;stroke-dashoffset:0;stroke-opacity:1;visibility:visible;display:inline;overflow:visible;enable-background:accumulate" />
    <path
       style="opacity:0.14999999999999999;fill:url(#radialGradient4970);fill-opacity:1;fill-rule:nonzero;stroke:none;stroke-width:12;stroke-linecap:round;stroke-linejoin:round;stroke-miterlimit:4;stroke-dasharray:none;stroke-opacity:1"
       d="M 15.8125,14 C 15.41118,14.002554 14.983959,14.026408 14.59375,14.125 C 14.398651,14.174301 14.221507,14.269305 14.03125,14.34375 C 12.946046,14.872391 12.122764,15.757132 11.59375,16.875 C 11.587481,16.888247 11.568685,16.892942 11.5625,16.90625 C 11.464949,17.936158 11.623219,19.067045 12.09375,20.15625 L 12.125,20.25 C 13.018437,22.245134 14.704076,23.542884 16.40625,23.8125 C 16.997545,23.862244 17.601356,23.764881 18.15625,23.53125 C 20.399687,22.586683 21.216915,19.535691 20,16.71875 C 19.678698,15.974989 19.252022,15.3216 18.75,14.78125 C 18.745259,14.776147 18.723504,14.786333 18.71875,14.78125 C 17.788335,14.280608 16.790713,13.993766 15.8125,14 z M 17.84375,23.78125 C 17.722994,23.806949 17.591168,23.830229 17.46875,23.84375 C 17.586867,23.829806 17.727186,23.806662 17.84375,23.78125 z"
       id="path4963" />
    <path
       style="opacity:0.14999999999999999;fill:url(#radialGradient4981);fill-opacity:1;fill-rule:nonzero;stroke:none;stroke-width:12;stroke-linecap:round;stroke-linejoin:round;stroke-miterlimit:4;stroke-dasharray:none;stroke-opacity:1"
       d="M 4.71875,12.65625 C 4.5776256,12.662419 4.4204614,12.656784 4.28125,12.6875 C 3.2266287,13.060762 2.4678749,14.149463 2.09375,15.59375 C 2.1094968,16.153216 2.1947677,16.740104 2.34375,17.34375 L 2.375,17.4375 C 2.8994181,19.476903 4.05768,21.019474 5.28125,21.53125 C 5.6067701,21.630303 5.932681,21.663785 6.25,21.59375 C 7.835777,21.243747 8.574218,18.768978 7.90625,16.0625 C 7.6365745,14.969824 7.1767555,14.020708 6.625,13.28125 C 5.9982415,12.866334 5.3577877,12.628296 4.71875,12.65625 z"
       id="path4974" />
  </g>
</svg>
