<?xml version="1.0" encoding="UTF-8" standalone="no"?>
<!-- Created with Inkscape (http://www.inkscape.org/) -->
<svg
   xmlns:dc="http://purl.org/dc/elements/1.1/"
   xmlns:cc="http://creativecommons.org/ns#"
   xmlns:rdf="http://www.w3.org/1999/02/22-rdf-syntax-ns#"
   xmlns:svg="http://www.w3.org/2000/svg"
   xmlns="http://www.w3.org/2000/svg"
   xmlns:xlink="http://www.w3.org/1999/xlink"
   xmlns:sodipodi="http://sodipodi.sourceforge.net/DTD/sodipodi-0.dtd"
   xmlns:inkscape="http://www.inkscape.org/namespaces/inkscape"
   width="40"
   height="40"
   id="svg2193"
   sodipodi:version="0.32"
   inkscape:version="0.46"
   version="1.0"
   sodipodi:docbase="/home/jra/Desktop"
   sodipodi:docname="24.svg"
   inkscape:output_extension="org.inkscape.output.svg.inkscape">
  <defs
     id="defs2195">
    <inkscape:perspective
       sodipodi:type="inkscape:persp3d"
       inkscape:vp_x="0 : 20 : 1"
       inkscape:vp_y="0 : 1000 : 0"
       inkscape:vp_z="40 : 20 : 1"
       inkscape:persp3d-origin="20 : 13.333333 : 1"
       id="perspective129" />
    <linearGradient
       id="linearGradient4062">
      <stop
         style="stop-color:#000000;stop-opacity:0;"
         offset="0"
         id="stop4064" />
      <stop
         id="stop4068"
         offset="0.5"
         style="stop-color:#000000;stop-opacity:1;" />
      <stop
         style="stop-color:#000000;stop-opacity:0;"
         offset="1"
         id="stop4066" />
    </linearGradient>
    <linearGradient
       id="linearGradient3983">
      <stop
         id="stop3985"
         offset="0"
         style="stop-color:#ffffff;stop-opacity:0;" />
      <stop
         style="stop-color:#ffffff;stop-opacity:1;"
         offset="0.5"
         id="stop3989" />
      <stop
         id="stop3987"
         offset="1"
         style="stop-color:#ffffff;stop-opacity:0;" />
    </linearGradient>
    <linearGradient
       id="linearGradient3594">
      <stop
         id="stop3596"
         offset="0"
         style="stop-color:#000000;stop-opacity:1" />
      <stop
         id="stop3600"
         offset="0.6359359"
         style="stop-color:#000000;stop-opacity:1;" />
      <stop
         style="stop-color:#ffffff;stop-opacity:1;"
         offset="0.74801129"
         id="stop3602" />
      <stop
         id="stop3604"
         offset="0.80151922"
         style="stop-color:#434343;stop-opacity:1;" />
      <stop
         id="stop3606"
         offset="1"
         style="stop-color:#000000;stop-opacity:1;" />
    </linearGradient>
    <linearGradient
       id="linearGradient3529">
      <stop
         style="stop-color:#000000;stop-opacity:1"
         offset="0"
         id="stop3531" />
      <stop
         id="stop3535"
         offset="0.30631578"
         style="stop-color:#000000;stop-opacity:1;" />
      <stop
         style="stop-color:#b4b4b4;stop-opacity:1;"
         offset="0.6359359"
         id="stop3537" />
      <stop
         id="stop3539"
         offset="0.74801129"
         style="stop-color:#ffffff;stop-opacity:1;" />
      <stop
         style="stop-color:#eaeaea;stop-opacity:1;"
         offset="0.80151922"
         id="stop3541" />
      <stop
         style="stop-color:#000000;stop-opacity:1;"
         offset="1"
         id="stop3533" />
    </linearGradient>
    <linearGradient
       id="linearGradient3239">
      <stop
         style="stop-color:#ffffff;stop-opacity:1;"
         offset="0"
         id="stop3241" />
      <stop
         style="stop-color:#ffffff;stop-opacity:0;"
         offset="1"
         id="stop3243" />
    </linearGradient>
    <linearGradient
       id="linearGradient3220">
      <stop
         id="stop3222"
         offset="0"
         style="stop-color:#000000;stop-opacity:1" />
      <stop
         id="stop3224"
         offset="1"
         style="stop-color:#ffffff;stop-opacity:1;" />
    </linearGradient>
    <linearGradient
       id="linearGradient3291">
      <stop
         id="stop3293"
         offset="0"
         style="stop-color:#000000;stop-opacity:1;" />
      <stop
         id="stop3295"
         offset="1"
         style="stop-color:#000000;stop-opacity:0;" />
    </linearGradient>
    <radialGradient
       inkscape:collect="always"
       xlink:href="#linearGradient3291"
       id="radialGradient2595"
       gradientUnits="userSpaceOnUse"
       gradientTransform="matrix(1,0,0,0.197802,0,92.82166)"
       cx="63.912209"
       cy="115.70919"
       fx="75.857941"
       fy="115.70919"
       r="63.912209" />
    <radialGradient
       inkscape:collect="always"
       xlink:href="#linearGradient3239"
       id="radialGradient3481"
       cx="18.885988"
       cy="11.77625"
       fx="18.885988"
       fy="11.77625"
       r="1.5625"
       gradientTransform="matrix(1.0054309,-0.2395259,0.1883867,0.7907695,-2.3320444,6.9301354)"
       gradientUnits="userSpaceOnUse" />
    <radialGradient
       inkscape:collect="always"
       xlink:href="#linearGradient3529"
       id="radialGradient3527"
       cx="13.594779"
       cy="32.68161"
       fx="13.594779"
       fy="32.68161"
       r="10.6875"
       gradientTransform="matrix(1.3568995,-2.437662e-3,8.6949525e-3,4.8399948,0.2065858,-103.30193)"
       gradientUnits="userSpaceOnUse" />
    <linearGradient
       inkscape:collect="always"
       xlink:href="#linearGradient3291"
       id="linearGradient3545"
       x1="30.4375"
       y1="20.546875"
       x2="20.125"
       y2="29.421875"
       gradientUnits="userSpaceOnUse" />
    <linearGradient
       inkscape:collect="always"
       xlink:href="#linearGradient3291"
       id="linearGradient3553"
       x1="8.2459478"
       y1="29.828125"
       x2="29.625"
       y2="29.828125"
       gradientUnits="userSpaceOnUse" />
    <radialGradient
       inkscape:collect="always"
       xlink:href="#linearGradient3529"
       id="radialGradient3560"
       gradientUnits="userSpaceOnUse"
       gradientTransform="matrix(1.3568995,-2.437662e-3,8.6949525e-3,4.8399948,0.2065858,-101.30193)"
       cx="14.937078"
       cy="31.66214"
       fx="14.937078"
       fy="31.66214"
       r="10.6875" />
    <radialGradient
       inkscape:collect="always"
       xlink:href="#linearGradient3594"
       id="radialGradient3592"
       cx="18.747309"
       cy="12.662719"
       fx="18.747309"
       fy="12.662719"
       r="5.4739332"
       gradientTransform="matrix(1.2472233,0.1031484,-0.1676886,2.0276136,-2.554868,-14.765108)"
       gradientUnits="userSpaceOnUse" />
    <radialGradient
       inkscape:collect="always"
       xlink:href="#linearGradient3594"
       id="radialGradient3634"
       cx="18.609728"
       cy="16.413982"
       fx="18.609728"
       fy="16.413982"
       r="5.5553155"
       gradientTransform="matrix(1.2543876,-0.3106558,0.1684242,0.6800739,-7.6092947,11.271721)"
       gradientUnits="userSpaceOnUse" />
    <radialGradient
       inkscape:collect="always"
       xlink:href="#linearGradient3220"
       id="radialGradient3642"
       cx="-26.909761"
       cy="22.067738"
       fx="-26.909761"
       fy="22.067738"
       r="1.7898641"
       gradientTransform="matrix(2.5159928,-1.3223097,0.6224375,1.0663978,27.364319,-36.673586)"
       gradientUnits="userSpaceOnUse" />
    <radialGradient
       inkscape:collect="always"
       xlink:href="#linearGradient3220"
       id="radialGradient3650"
       cx="-25.477991"
       cy="21.754818"
       fx="-25.477991"
       fy="21.754818"
       r="1.7898641"
       gradientTransform="matrix(2.7699808,-1.2398971,1.7857826,0.9886082,6.9858496,-32.47395)"
       gradientUnits="userSpaceOnUse" />
    <linearGradient
       inkscape:collect="always"
       xlink:href="#linearGradient3529"
       id="linearGradient3658"
       x1="14.714767"
       y1="18.000523"
       x2="10.914069"
       y2="24.017197"
       gradientUnits="userSpaceOnUse" />
    <radialGradient
       inkscape:collect="always"
       xlink:href="#linearGradient3529"
       id="radialGradient3666"
       cx="9.7098761"
       cy="21.898869"
       fx="9.7098761"
       fy="21.898869"
       r="1.4498441"
       gradientTransform="matrix(2.3110156,-1.3680843e-2,2.5862543e-2,4.3687911,-12.924795,-70.822597)"
       gradientUnits="userSpaceOnUse" />
    <radialGradient
       inkscape:collect="always"
       xlink:href="#linearGradient3594"
       id="radialGradient3674"
       cx="-25.314417"
       cy="21.813839"
       fx="-25.314417"
       fy="21.813839"
       r="1.7898641"
       gradientTransform="matrix(1.5734935,0.1662087,-7.2008644e-2,1.3626699,16.427034,-3.6660825)"
       gradientUnits="userSpaceOnUse" />
    <linearGradient
       inkscape:collect="always"
       xlink:href="#linearGradient3220"
       id="linearGradient3682"
       x1="-22.65324"
       y1="31.823715"
       x2="-25.101534"
       y2="20.933771"
       gradientUnits="userSpaceOnUse" />
    <linearGradient
       inkscape:collect="always"
       xlink:href="#linearGradient3239"
       id="linearGradient3690"
       x1="9.90625"
       y1="18.71875"
       x2="10.359375"
       y2="17.484375"
       gradientUnits="userSpaceOnUse" />
    <linearGradient
       inkscape:collect="always"
       xlink:href="#linearGradient3239"
       id="linearGradient3698"
       x1="-26.170397"
       y1="21.215708"
       x2="-26.719774"
       y2="19.022354"
       gradientUnits="userSpaceOnUse" />
    <linearGradient
       inkscape:collect="always"
       xlink:href="#linearGradient3529"
       id="linearGradient3706"
       x1="10.46599"
       y1="15.856657"
       x2="9.5495605"
       y2="18.150658"
       gradientUnits="userSpaceOnUse" />
    <linearGradient
       inkscape:collect="always"
       xlink:href="#linearGradient3529"
       id="linearGradient3714"
       x1="11.817323"
       y1="15.697767"
       x2="10.348448"
       y2="19.212698"
       gradientUnits="userSpaceOnUse" />
    <linearGradient
       inkscape:collect="always"
       xlink:href="#linearGradient3220"
       id="linearGradient3722"
       x1="10.72032"
       y1="17.703585"
       x2="12.528759"
       y2="18.278109"
       gradientUnits="userSpaceOnUse" />
    <linearGradient
       inkscape:collect="always"
       xlink:href="#linearGradient3220"
       id="linearGradient3730"
       x1="10.673255"
       y1="18.18639"
       x2="16.224123"
       y2="18.296875"
       gradientUnits="userSpaceOnUse" />
    <linearGradient
       inkscape:collect="always"
       xlink:href="#linearGradient3529"
       id="linearGradient3746"
       x1="11.349874"
       y1="17.830803"
       x2="9.4261894"
       y2="22.471189"
       gradientUnits="userSpaceOnUse" />
    <linearGradient
       inkscape:collect="always"
       xlink:href="#linearGradient3239"
       id="linearGradient3752"
       x1="9.0760946"
       y1="21.919748"
       x2="10.558925"
       y2="18.85548"
       gradientUnits="userSpaceOnUse" />
    <radialGradient
       inkscape:collect="always"
       xlink:href="#linearGradient3594"
       id="radialGradient3760"
       cx="19.321999"
       cy="9.4523706"
       fx="19.321999"
       fy="9.4523706"
       r="4.8134546"
       gradientTransform="matrix(1.2758005,0.3506404,-0.419931,1.5279129,-1.4259745,-11.279355)"
       gradientUnits="userSpaceOnUse" />
    <radialGradient
       inkscape:collect="always"
       xlink:href="#linearGradient3291"
       id="radialGradient3782"
       cx="14.556529"
       cy="8.3739376"
       fx="14.556529"
       fy="8.3739376"
       r="0.68429339"
       gradientTransform="matrix(1.6053364,2.085502e-2,-1.6145664e-2,1.2428289,-8.7122018,-2.428038)"
       gradientUnits="userSpaceOnUse" />
    <radialGradient
       inkscape:collect="always"
       xlink:href="#linearGradient3239"
       id="radialGradient3810"
       cx="20.568136"
       cy="30.588659"
       fx="20.568136"
       fy="30.588659"
       r="10.692694"
       gradientTransform="matrix(1.1047613,-3.1445261e-2,4.5647944e-2,1.6037421,-3.6858248,-17.60453)"
       gradientUnits="userSpaceOnUse" />
    <radialGradient
       inkscape:collect="always"
       xlink:href="#linearGradient3529"
       id="radialGradient3845"
       cx="13.326519"
       cy="21.893072"
       fx="13.326519"
       fy="21.893072"
       r="1.6158504"
       gradientTransform="matrix(0.9482772,0.3174434,-0.4641519,1.3865296,10.859077,-12.658813)"
       gradientUnits="userSpaceOnUse" />
    <radialGradient
       inkscape:collect="always"
       xlink:href="#linearGradient3529"
       id="radialGradient3875"
       cx="24.333548"
       cy="16.775461"
       fx="24.333548"
       fy="16.775461"
       r="1.4948385"
       gradientTransform="matrix(0.5147099,0.364627,-0.9362141,1.3215659,23.03942,-14.738531)"
       gradientUnits="userSpaceOnUse" />
    <radialGradient
       inkscape:collect="always"
       xlink:href="#linearGradient3529"
       id="radialGradient3879"
       gradientUnits="userSpaceOnUse"
       gradientTransform="matrix(0.8997092,0.5696037,-1.3893817,2.1945764,22.654062,-33.977266)"
       cx="21.10688"
       cy="17.081486"
       fx="21.10688"
       fy="17.081486"
       r="1.4948385" />
    <linearGradient
       inkscape:collect="always"
       xlink:href="#linearGradient3291"
       id="linearGradient3887"
       x1="22.9375"
       y1="20.328125"
       x2="24.07387"
       y2="32.9375"
       gradientUnits="userSpaceOnUse" />
    <radialGradient
       inkscape:collect="always"
       xlink:href="#linearGradient3291"
       id="radialGradient3971"
       cx="17.739714"
       cy="25.122358"
       fx="17.739714"
       fy="25.122358"
       r="3.0535126"
       gradientTransform="matrix(3.6474122,0.4326738,-1.3677427,11.529975,-6.6967203,-266.63652)"
       gradientUnits="userSpaceOnUse" />
    <linearGradient
       inkscape:collect="always"
       xlink:href="#linearGradient3983"
       id="linearGradient3981"
       x1="11.515927"
       y1="31.633251"
       x2="14.901898"
       y2="18.155611"
       gradientUnits="userSpaceOnUse" />
    <linearGradient
       inkscape:collect="always"
       xlink:href="#linearGradient3220"
       id="linearGradient4009"
       x1="24.625"
       y1="15.511183"
       x2="16.255203"
       y2="15.069242"
       gradientUnits="userSpaceOnUse" />
    <linearGradient
       inkscape:collect="always"
       xlink:href="#linearGradient3291"
       id="linearGradient4034"
       x1="14.9375"
       y1="18.5625"
       x2="22.46875"
       y2="22.125"
       gradientUnits="userSpaceOnUse" />
    <linearGradient
       inkscape:collect="always"
       xlink:href="#linearGradient3291"
       id="linearGradient4043"
       gradientUnits="userSpaceOnUse"
       x1="25.387564"
       y1="17.766085"
       x2="18.144384"
       y2="16.327902" />
    <linearGradient
       inkscape:collect="always"
       xlink:href="#linearGradient3291"
       id="linearGradient4060"
       x1="13.965568"
       y1="15.5"
       x2="21.21875"
       y2="18.40625"
       gradientUnits="userSpaceOnUse" />
    <linearGradient
       inkscape:collect="always"
       xlink:href="#linearGradient3291"
       id="linearGradient4365"
       gradientUnits="userSpaceOnUse"
       x1="10.443893"
       y1="16.585861"
       x2="10.215603"
       y2="17.101046" />
    <radialGradient
       inkscape:collect="always"
       xlink:href="#linearGradient3529"
       id="radialGradient4377"
       gradientUnits="userSpaceOnUse"
       gradientTransform="matrix(0.9881128,0.4596112,-0.6027603,1.2958677,12.24921,-10.539849)"
       cx="9.8751869"
       cy="20.095163"
       fx="9.8751869"
       fy="20.095163"
       r="1.3944416" />
    <linearGradient
       inkscape:collect="always"
       xlink:href="#linearGradient3291"
       id="linearGradient4388"
       gradientUnits="userSpaceOnUse"
       gradientTransform="matrix(1.1298061,0,0,1.1298061,-3.1332944,-3.6204004)"
       x1="22.9375"
       y1="20.328125"
       x2="24.07387"
       y2="32.9375" />
    <radialGradient
       inkscape:collect="always"
       xlink:href="#linearGradient3291"
       id="radialGradient4490"
       cx="12.978249"
       cy="23.789253"
       fx="12.978249"
       fy="23.789253"
       r="7.0432749"
       gradientTransform="matrix(1.1419752,1.5634106e-3,-2.1139445e-3,1.5441062,-1.792299,-12.941456)"
       gradientUnits="userSpaceOnUse" />
    <radialGradient
       inkscape:collect="always"
       xlink:href="#linearGradient3291"
       id="radialGradient4837"
       gradientUnits="userSpaceOnUse"
       gradientTransform="matrix(0.9777462,-0.1169154,0.2235065,1.8691512,-8.235356,-31.033481)"
       cx="27.049961"
       cy="35.473297"
       fx="27.049961"
       fy="35.473297"
       r="10.6875" />
    <linearGradient
       inkscape:collect="always"
       xlink:href="#linearGradient3291"
       id="linearGradient4839"
       gradientUnits="userSpaceOnUse"
       x1="24.625"
       y1="18.78125"
       x2="1.21875"
       y2="9.578125" />
    <radialGradient
       inkscape:collect="always"
       xlink:href="#linearGradient3529"
       id="radialGradient5340"
       gradientUnits="userSpaceOnUse"
       gradientTransform="matrix(3.6474122,0.4326738,-1.3677427,11.529975,-6.69672,-266.63652)"
       cx="17.739714"
       cy="25.122358"
       fx="17.739714"
       fy="25.122358"
       r="3.0535126" />
  </defs>
  <sodipodi:namedview
     id="base"
     pagecolor="#ffffff"
     bordercolor="#666666"
     borderopacity="1.0"
     inkscape:pageopacity="0.0"
     inkscape:pageshadow="2"
     inkscape:zoom="11.313708"
     inkscape:cx="30.435134"
     inkscape:cy="11.601119"
     inkscape:current-layer="layer1"
     showgrid="false"
     inkscape:grid-bbox="false"
     inkscape:document-units="px"
     width="40px"
     height="40px"
     inkscape:window-width="1674"
     inkscape:window-height="1057"
     inkscape:window-x="211"
     inkscape:window-y="43">
    <inkscape:grid
       id="GridFromPre046Settings"
       type="xygrid"
       originx="0px"
       originy="0px"
       spacingx="1px"
       spacingy="1px"
       color="#0000ff"
       empcolor="#0000ff"
       opacity="0.2"
       empopacity="0.4"
       empspacing="2" />
  </sodipodi:namedview>
  <metadata
     id="metadata2198">
    <rdf:RDF>
      <cc:Work
         rdf:about="">
        <dc:format>image/svg+xml</dc:format>
        <dc:type
           rdf:resource="http://purl.org/dc/dcmitype/StillImage" />
        <dc:creator>
          <cc:Agent>
            <dc:title>Jarle Akselsen</dc:title>
          </cc:Agent>
        </dc:creator>
        <cc:license
           rdf:resource="http://creativecommons.org/licenses/GPL/2.0/" />
      </cc:Work>
      <cc:License
         rdf:about="http://creativecommons.org/licenses/GPL/2.0/">
        <cc:permits
           rdf:resource="http://web.resource.org/cc/Reproduction" />
        <cc:permits
           rdf:resource="http://web.resource.org/cc/Distribution" />
        <cc:requires
           rdf:resource="http://web.resource.org/cc/Notice" />
        <cc:permits
           rdf:resource="http://web.resource.org/cc/DerivativeWorks" />
        <cc:requires
           rdf:resource="http://web.resource.org/cc/ShareAlike" />
        <cc:requires
           rdf:resource="http://web.resource.org/cc/SourceCode" />
      </cc:License>
    </rdf:RDF>
  </metadata>
  <g
     id="layer1"
     inkscape:label="Layer 1"
     inkscape:groupmode="layer">
    <path
       style="opacity:1;fill:#000000;fill-opacity:1.0;stroke:none;stroke-width:0.44999999000000002;stroke-linecap:round;stroke-linejoin:miter;stroke-miterlimit:4;stroke-dasharray:none;stroke-opacity:1"
       d="M 19.46875,4.03125 C 17.825633,3.9945879 16.126999,4.9962815 14.6875,7.15625 C 14.491497,7.4956188 14.139037,7.8298397 14.53125,8.28125 C 13.310411,10.418764 13.16937,13.105134 13.625,16.125 C 13.522292,16.40853 13.400432,16.688504 13.3125,16.96875 C 13.071355,17.194749 12.830669,17.4394 12.59375,17.6875 L 11.84375,17.34375 L 11.21875,17.25 C 11.21875,17.25 10.771747,17.119977 10.40625,17 C 10.355817,16.962836 10.279114,16.941853 10.21875,16.9375 C 9.991641,16.856826 9.499735,16.686193 9.40625,16.65625 C 9.365957,16.626558 9.298228,16.597228 9.25,16.59375 C 9.105316,16.583316 8.952515,16.692955 8.84375,16.875 C 8.69873,17.117726 8.713827,17.412479 8.875,17.53125 C 8.93544,17.575789 9.016813,17.581431 9.09375,17.5625 C 9.170687,17.543569 9.243186,17.500063 9.3125,17.4375 C 9.244949,17.501631 9.167368,17.537979 9.09375,17.5625 C 9.061031,17.573398 9.031966,17.596376 9,17.59375 L 9.46875,17.90625 C 9.46875,17.90625 9.3125,18.518306 9.3125,18.5625 C 9.185745,18.590106 9.055044,18.631333 8.9375,18.6875 C 8.925181,18.692487 8.918531,18.713134 8.90625,18.71875 C 8.877677,18.733309 8.84017,18.733606 8.8125,18.75 C 8.744696,18.788882 8.688369,18.849051 8.625,18.90625 C 8.522199,18.995547 8.420271,19.094366 8.34375,19.21875 C 8.276457,19.328134 8.250934,19.436533 8.21875,19.5625 C 8.211959,19.584331 8.193221,19.603177 8.1875,19.625 C 8.168963,19.712886 8.160628,19.814693 8.15625,19.90625 C 8.15141,19.995135 8.142417,20.075098 8.15625,20.15625 C 8.192902,20.64685 8.410667,21.105953 8.65625,21.375 C 8.712869,21.497266 8.7781,21.599918 8.875,21.6875 C 8.956261,21.840077 9.053165,21.994757 9.1875,22.09375 C 9.282814,22.163988 9.391996,22.186698 9.5,22.21875 C 8.737092,23.913182 8.25,25.846942 8.25,28 C 8.25,30.111415 13.035133,31.84375 18.9375,31.84375 C 24.839867,31.843751 29.625,30.111416 29.625,28 C 29.625,22.862736 26.893884,18.957275 24.125,16.53125 C 24.195238,16.181088 24.501746,15.89598 24,14.65625 C 24.533975,12.122767 24.379885,9.9829712 23.875,8.03125 C 24.066499,7.766085 23.947582,7.4839151 23.90625,7.21875 C 22.703729,5.1391387 21.111867,4.0679121 19.46875,4.03125 z M 19.5,5.65625 C 20.597836,5.6148301 21.59486,6.3797948 22.5,7.8125 C 22.727779,8.0439391 22.890501,8.3918135 23.3125,8.3125 C 24.161333,11.760103 23.487251,13.553282 23.4375,14.625 C 23.347949,14.913852 23.768722,15.087502 23.65625,16.15625 C 22.241294,14.997362 20.847279,14.217911 19.875,13.875 C 20.226435,13.55975 20.4375,13.068595 20.4375,12.53125 C 20.4375,11.5825 19.737499,10.8125 18.875,10.8125 C 18.0125,10.8125 17.312499,11.5825 17.3125,12.53125 C 17.3125,13.090335 17.56133,13.5923 17.9375,13.90625 C 16.977496,14.251792 15.657634,15.007253 14.28125,16.125 C 14.251664,14.463142 13.460314,12.473395 15.03125,8.71875 C 15.459814,8.8947204 15.678047,8.6287012 15.875,8.3125 C 17.196593,6.5593386 18.402164,5.6976699 19.5,5.65625 z M 10.875,18.46875 C 10.882629,18.46665 10.898512,18.471241 10.90625,18.46875 C 10.919734,18.472394 10.924322,18.495652 10.9375,18.5 C 10.917856,18.494249 10.894971,18.504537 10.875,18.5 C 10.881237,18.4985 10.868698,18.470597 10.875,18.46875 z"
       id="path3466" />
    <path
       style="opacity:0.90000000000000002;fill:url(#radialGradient3560);fill-opacity:1.0;stroke:none;stroke-width:1.50000000000000000;stroke-linecap:round;stroke-linejoin:miter;stroke-miterlimit:4;stroke-opacity:1"
       d="M 19.875,13.875 C 19.875,13.875 19.649406,14 18.9375,14 C 18.225594,14 17.9375,13.90625 17.9375,13.90625 C 16.748762,14.346989 14.982493,15.390786 13.28125,17 C 13.261804,17.031987 13.25,17.060909 13.25,17.09375 C 13.25,17.6192 15.795131,18.03125 18.9375,18.03125 C 22.079869,18.03125 24.625,17.6192 24.625,17.09375 C 24.625,17.060909 24.613196,17.031987 24.59375,17 C 22.859732,15.359784 21.06384,14.299767 19.875,13.875 z"
       id="path3555"
       sodipodi:nodetypes="csccssscc" />
    <path
       transform="matrix(0.1989937,0,0,0.3366473,7.70576,-7.7628061)"
       d="M 127.82442,115.70919 A 63.912209,12.641975 0 1 1 0,115.70919 A 63.912209,12.641975 0 1 1 127.82442,115.70919 z"
       sodipodi:ry="12.641975"
       sodipodi:rx="63.912209"
       sodipodi:cy="115.70919"
       sodipodi:cx="63.912209"
       id="path2593"
       style="opacity:0.38139535;fill:url(#radialGradient2595);fill-opacity:1;fill-rule:nonzero;stroke:none;stroke-width:0;stroke-linecap:round;stroke-linejoin:round;stroke-miterlimit:4;stroke-dasharray:none;stroke-dashoffset:4;stroke-opacity:1"
       sodipodi:type="arc" />
    <path
       style="opacity:0.9;fill:url(#radialGradient3527);fill-opacity:1;stroke:none;stroke-width:1.50000000000000000;stroke-linecap:round;stroke-linejoin:miter;stroke-miterlimit:4;stroke-opacity:1"
       d="M 13.28125,17 C 10.689733,19.446934 8.25,23.157799 8.25,28 C 8.25,30.111415 13.035133,31.84375 18.9375,31.84375 C 24.839867,31.843751 29.625,30.111416 29.625,28 C 29.625,23.172906 27.185216,19.451281 24.59375,17 C 24.613196,17.031987 24.625,17.060909 24.625,17.09375 C 24.625,17.6192 22.079869,18.03125 18.9375,18.03125 C 15.795132,18.03125 13.25,17.6192 13.25,17.09375 C 13.25,17.06091 13.267297,17.030921 13.28125,17 z"
       id="path3287"
       sodipodi:nodetypes="cssscsssc" />
    <path
       sodipodi:nodetypes="csszc"
       id="path3281"
       d="M 8.240671,28.00332 C 8.240671,30.114736 13.030998,31.828349 18.933365,31.828349 C 24.835732,31.828349 29.626059,30.114736 29.626059,28.00332 C 29.626059,18.908159 20.981726,13.656697 18.933365,13.656697 C 16.885004,13.656697 8.240671,18.880639 8.240671,28.00332 z"
       style="opacity:1;fill:url(#radialGradient3810);fill-opacity:1;stroke:none;stroke-width:1.5;stroke-linecap:round;stroke-linejoin:miter;stroke-miterlimit:4;stroke-opacity:1" />
    <path
       style="opacity:1;fill:#000000;fill-opacity:1.0;stroke:none;stroke-width:0.44999999000000002;stroke-linecap:round;stroke-linejoin:miter;stroke-miterlimit:4;stroke-dasharray:none;stroke-opacity:1"
       d="M 9.25 16.59375 C 9.105316 16.583316 8.952515 16.692955 8.84375 16.875 C 8.69873 17.117726 8.705673 17.424426 8.875 17.53125 L 9.46875 17.90625 C 9.46875 17.906249 9.3125 18.5625 9.3125 18.5625 C 9.20538 18.595294 9.102522 18.642937 9 18.6875 C 8.982731 18.695006 8.954506 18.679374 8.9375 18.6875 C 8.925181 18.692487 8.918531 18.713134 8.90625 18.71875 C 8.877677 18.733309 8.84017 18.733606 8.8125 18.75 C 8.744696 18.788882 8.688369 18.849051 8.625 18.90625 C 8.522199 18.995547 8.420271 19.094366 8.34375 19.21875 C 8.276457 19.328134 8.250934 19.436533 8.21875 19.5625 C 8.211959 19.584331 8.193221 19.603177 8.1875 19.625 C 8.168963 19.712886 8.160628 19.814693 8.15625 19.90625 C 8.15141 19.995135 8.142417 20.075098 8.15625 20.15625 C 8.199606 20.736581 8.478375 21.28464 8.78125 21.5 C 8.865964 21.743171 8.996101 21.952707 9.1875 22.09375 C 9.414838 22.261277 9.687534 22.291833 9.96875 22.25 C 10.268681 22.410701 11.237451 22.939949 11.875 23.28125 C 11.881863 23.293586 11.8991 23.300393 11.90625 23.3125 C 12.025419 23.51429 12.178319 23.68995 12.375 23.8125 C 13.161725 24.3027 14.25288 23.85443 14.8125 22.8125 C 15.37212 21.770571 15.192975 20.521449 14.40625 20.03125 C 14.056762 19.813488 13.646692 19.8152 13.25 19.9375 L 12.5625 19.625 C 12.5625 19.625 12.562913 19.506709 12.625 19.40625 C 12.687087 19.305793 12.8125 19.25 12.8125 19.25 L 13.09375 18.125 C 13.122609 18.044228 13.107228 17.972304 13.0625 17.90625 L 11.84375 17.34375 L 11.21875 17.25 C 11.21875 17.25 9.320383 16.600226 9.28125 16.59375 C 9.273097 16.592401 9.258315 16.59435 9.25 16.59375 z "
       id="path3272" />
    <path
       style="opacity:0.75000000000000000;fill:url(#radialGradient3666);fill-opacity:1;stroke:none;stroke-width:0.44999999000000002;stroke-linecap:round;stroke-linejoin:miter;stroke-miterlimit:4;stroke-dasharray:none;stroke-opacity:1"
       d="M 9.3125 18.5625 C 8.9290047 18.646022 8.569894 18.851153 8.34375 19.21875 C 7.845785 20.028191 8.379224 21.411646 8.90625 21.59375 C 9.518227 21.805207 10.249746 21.659993 10.71875 20.875 C 11.187755 20.090007 11.146242 19.134106 10.625 18.75 C 10.586446 18.726439 10.544028 18.704645 10.5 18.6875 C 10.37338 18.679429 10.240213 18.701024 10.09375 18.71875 L 10.0625 18.71875 C 9.7925327 18.501723 9.5758085 18.571026 9.34375 18.5625 C 9.3339624 18.564464 9.3222582 18.560375 9.3125 18.5625 z "
       id="path3286" />
    <path
       transform="matrix(0.3508722,0.2585597,-0.2939338,0.4919718,24.564771,15.750505)"
       d="M -24.395183,21.769903 A 1.7898641,1.9224466 0 1 1 -27.974911,21.769903 A 1.7898641,1.9224466 0 1 1 -24.395183,21.769903 z"
       sodipodi:ry="1.9224466"
       sodipodi:rx="1.7898641"
       sodipodi:cy="21.769903"
       sodipodi:cx="-26.185047"
       id="path3288"
       style="opacity:1;fill:url(#linearGradient3682);fill-opacity:1;stroke:none;stroke-width:0.44999999000000002;stroke-linecap:round;stroke-linejoin:miter;stroke-miterlimit:4;stroke-dasharray:none;stroke-opacity:1"
       sodipodi:type="arc" />
    <path
       transform="matrix(0.1631295,0.1202119,-0.1366577,0.2287302,16.379478,15.250885)"
       d="M -24.395183,21.769903 A 1.7898641,1.9224466 0 1 1 -27.974911,21.769903 A 1.7898641,1.9224466 0 1 1 -24.395183,21.769903 z"
       sodipodi:ry="1.9224466"
       sodipodi:rx="1.7898641"
       sodipodi:cy="21.769903"
       sodipodi:cx="-26.185047"
       id="path3391"
       style="opacity:1;fill:url(#linearGradient3698);fill-opacity:1;stroke:none;stroke-width:0.44999999000000002;stroke-linecap:round;stroke-linejoin:miter;stroke-miterlimit:4;stroke-dasharray:none;stroke-opacity:1"
       sodipodi:type="arc" />
    <path
       sodipodi:nodetypes="csccssc"
       id="path3397"
       d="M 9.40625,16.65625 C 9.567423,16.77502 9.58252,17.069774 9.4375,17.3125 C 9.29248,17.555227 9.036173,17.65002 8.875,17.53125 L 9.8125,18.125 C 10.011345,18.208273 10.274767,18.084876 10.4375,17.8125 C 10.61901,17.508696 10.607979,17.148655 10.40625,17 C 10.388599,16.986993 9.521224,16.693076 9.40625,16.65625 z"
       style="opacity:0.75000000000000000;fill:url(#linearGradient3706);fill-opacity:1;fill-rule:nonzero;stroke:none;stroke-width:1;stroke-linecap:butt;stroke-linejoin:miter;marker:none;marker-start:none;marker-mid:none;marker-end:none;stroke-miterlimit:4;stroke-dasharray:none;stroke-dashoffset:0;stroke-opacity:1;visibility:visible;display:inline;overflow:visible;enable-background:accumulate" />
    <path
       id="path3399"
       d="M 10.46875,17.75 C 10.457517,17.77276 10.4508,17.790238 10.4375,17.8125 C 10.274767,18.084876 10.011345,18.208273 9.8125,18.125 L 9.46875,17.90625 C 9.46875,17.90625 9.3125,18.518306 9.3125,18.5625 C 9.55609,18.579328 9.780795,18.492287 10.0625,18.71875 L 10.09375,18.71875 L 10.5,17.75 L 10.46875,17.75 z"
       style="opacity:1;fill:url(#linearGradient3690);fill-opacity:1;fill-rule:nonzero;stroke:none;stroke-width:1;stroke-linecap:butt;stroke-linejoin:miter;marker:none;marker-start:none;marker-mid:none;marker-end:none;stroke-miterlimit:4;stroke-dasharray:none;stroke-dashoffset:0;stroke-opacity:1;visibility:visible;display:inline;overflow:visible;enable-background:accumulate"
       sodipodi:nodetypes="csccccccc" />
    <path
       id="path3401"
       d="M 10.40625,17 C 10.593197,17.137762 10.610819,17.462151 10.46875,17.75 L 10.5,17.75 L 10.09375,18.71875 C 10.314117,18.692079 10.508781,18.669938 10.6875,18.726562 L 10.84375,18.5 C 11.004842,18.472892 11.195534,18.320771 11.3125,18.125 C 11.498639,17.81345 11.456875,17.464945 11.25,17.3125 C 11.205244,17.279519 11.220747,17.25841 11.21875,17.25 C 11.21875,17.25 10.771747,17.119977 10.40625,17 z"
       style="opacity:0.75000000000000000;fill:url(#linearGradient3714);fill-opacity:1;fill-rule:nonzero;stroke:none;stroke-width:1;stroke-linecap:butt;stroke-linejoin:miter;marker:none;marker-start:none;marker-mid:none;marker-end:none;stroke-miterlimit:4;stroke-dasharray:none;stroke-dashoffset:0;stroke-opacity:1;visibility:visible;display:inline;overflow:visible;enable-background:accumulate"
       sodipodi:nodetypes="ccccccsscc" />
    <path
       style="opacity:1;fill:#555753;fill-opacity:0.60416667;fill-rule:nonzero;stroke:none;stroke-width:1;stroke-linecap:butt;stroke-linejoin:miter;marker:none;marker-start:none;marker-mid:none;marker-end:none;stroke-miterlimit:4;stroke-dasharray:none;stroke-dashoffset:0;stroke-opacity:1;visibility:visible;display:inline;overflow:visible;enable-background:accumulate"
       d="M 11.3125,18.625 C 11.267264,18.619693 11.254592,18.636266 11.25,18.65625 C 11.430369,18.789165 11.540548,18.963271 11.625,19.1875 L 12.5625,19.625 C 12.5625,19.625 12.562913,19.506709 12.625,19.40625 C 12.687086,19.305793 12.8125,19.25 12.8125,19.25 C 12.8125,19.25 11.629152,18.662147 11.3125,18.625 z"
       id="path3415" />
    <path
       style="opacity:1;fill:url(#linearGradient3722);fill-opacity:1;fill-rule:nonzero;stroke:none;stroke-width:1;stroke-linecap:butt;stroke-linejoin:miter;marker:none;marker-start:none;marker-mid:none;marker-end:none;stroke-miterlimit:4;stroke-dasharray:none;stroke-dashoffset:0;stroke-opacity:1;visibility:visible;display:inline;overflow:visible;enable-background:accumulate"
       d="M 11.21875 17.25 C 11.220747 17.25841 11.205244 17.279519 11.25 17.3125 C 11.456875 17.464945 11.498639 17.81345 11.3125 18.125 C 11.204306 18.306088 11.027579 18.426753 10.875 18.46875 C 11.012056 18.500275 11.132015 18.569305 11.25 18.65625 C 11.258496 18.61928 11.338281 18.647386 11.46875 18.6875 L 11.84375 17.34375 L 11.21875 17.25 z "
       id="path3429" />
    <path
       style="opacity:1;fill:#000000;fill-opacity:1;stroke:none;stroke-width:0.44999999000000002;stroke-linecap:round;stroke-linejoin:miter;stroke-miterlimit:4;stroke-dasharray:none;stroke-opacity:1"
       d="M 18.875,10.8125 C 18.0125,10.8125 17.312499,11.5825 17.3125,12.53125 C 17.3125,13.090335 17.56133,13.5923 17.9375,13.90625 C 17.9375,13.90625 18.225594,14 18.9375,14 C 19.649406,14 19.875,13.875 19.875,13.875 C 20.226435,13.55975 20.4375,13.068595 20.4375,12.53125 C 20.4375,11.5825 19.737499,10.8125 18.875,10.8125 z"
       id="path3468"
       sodipodi:nodetypes="csczcsc" />
    <path
       sodipodi:nodetypes="csczcsc"
       id="path3473"
       d="M 18.875,10.8125 C 18.0125,10.8125 17.312499,11.5825 17.3125,12.53125 C 17.3125,13.090335 17.56133,13.5923 17.9375,13.90625 C 17.9375,13.90625 18.225594,14 18.9375,14 C 19.649406,14 19.875,13.875 19.875,13.875 C 20.226435,13.55975 20.4375,13.068595 20.4375,12.53125 C 20.4375,11.5825 19.737499,10.8125 18.875,10.8125 z"
       style="opacity:0.20000000000000001;fill:url(#radialGradient3481);fill-opacity:1;stroke:none;stroke-width:0.44999999000000002;stroke-linecap:round;stroke-linejoin:miter;stroke-miterlimit:4;stroke-dasharray:none;stroke-opacity:1" />
    <path
       style="opacity:0.75000000000000000;fill:url(#linearGradient3658);fill-opacity:1;stroke:none;stroke-width:0.44999999000000002;stroke-linecap:round;stroke-linejoin:miter;stroke-miterlimit:4;stroke-dasharray:none;stroke-opacity:1"
       d="M 11.625,19.1875 C 11.835178,19.745544 11.747653,20.542722 11.34375,21.21875 C 10.982109,21.824042 10.46592,22.176041 9.96875,22.25 C 10.371199,22.465629 12.478883,23.603569 12.53125,23.625 C 13.180299,23.890623 14.000362,23.501388 14.4375,22.6875 C 14.913297,21.801636 14.762636,20.729275 14.09375,20.3125 L 11.625,19.1875 z"
       id="path3264" />
    <path
       sodipodi:type="arc"
       style="opacity:0.75819672000000005;fill:url(#radialGradient3674);fill-opacity:1;stroke:none;stroke-width:0.44999999000000002;stroke-linecap:round;stroke-linejoin:miter;stroke-miterlimit:4;stroke-dasharray:none;stroke-opacity:1"
       id="path3298"
       sodipodi:cx="-26.185047"
       sodipodi:cy="21.769903"
       sodipodi:rx="1.7898641"
       sodipodi:ry="1.9224466"
       d="M -24.395183,21.769903 A 1.7898641,1.9224466 0 1 1 -27.974911,21.769903 A 1.7898641,1.9224466 0 1 1 -24.395183,21.769903 z"
       transform="matrix(0.2588422,0.1907422,-0.2168368,0.3629318,20.454448,16.761782)" />
    <path
       transform="matrix(0.1631295,0.1202119,-0.1366577,0.2287302,21.613853,17.17276)"
       d="M -24.395183,21.769903 A 1.7898641,1.9224466 0 1 1 -27.974911,21.769903 A 1.7898641,1.9224466 0 1 1 -24.395183,21.769903 z"
       sodipodi:ry="1.9224466"
       sodipodi:rx="1.7898641"
       sodipodi:cy="21.769903"
       sodipodi:cx="-26.185047"
       id="path2523"
       style="opacity:0.59016394999999999;fill:url(#radialGradient3650);fill-opacity:1;stroke:none;stroke-width:0.44999999000000002;stroke-linecap:round;stroke-linejoin:miter;stroke-miterlimit:4;stroke-dasharray:none;stroke-opacity:1"
       sodipodi:type="arc" />
    <path
       sodipodi:type="arc"
       style="opacity:0.59016394999999999;fill:url(#radialGradient3642);fill-opacity:1;stroke:none;stroke-width:0.44999999000000002;stroke-linecap:round;stroke-linejoin:miter;stroke-miterlimit:4;stroke-dasharray:none;stroke-opacity:1"
       id="path2525"
       sodipodi:cx="-26.185047"
       sodipodi:cy="21.769903"
       sodipodi:rx="1.7898641"
       sodipodi:ry="1.9224466"
       d="M -24.395183,21.769903 A 1.7898641,1.9224466 0 1 1 -27.974911,21.769903 A 1.7898641,1.9224466 0 1 1 -24.395183,21.769903 z"
       transform="matrix(0.224788,0.1413121,-0.1883106,0.2688781,24.501301,16.937192)" />
    <path
       sodipodi:nodetypes="cccccccccc"
       id="path2532"
       d="M 19.46875,4.03125 C 17.825634,3.9945879 16.127,4.9962815 14.6875,7.15625 C 14.491497,7.4956188 14.139036,7.8298397 14.53125,8.28125 C 14.670888,8.105185 15.228333,8.4702546 15.03125,8.71875 C 15.459814,8.8947204 15.678046,8.6287012 15.875,8.3125 C 18.518186,4.8061772 20.68972,4.9470895 22.5,7.8125 C 22.727779,8.0439391 22.890501,8.3918135 23.3125,8.3125 C 23.594018,8.2557201 23.738543,8.1698595 23.875,8.03125 C 24.066499,7.766085 23.947582,7.4839151 23.90625,7.21875 C 22.703729,5.1391387 21.111866,4.0679121 19.46875,4.03125 z"
       style="opacity:0.25;fill:url(#radialGradient3760);fill-opacity:1;fill-rule:nonzero;stroke:none;stroke-width:1;stroke-linecap:butt;stroke-linejoin:miter;marker:none;marker-start:none;marker-mid:none;marker-end:none;stroke-miterlimit:4;stroke-dasharray:none;stroke-dashoffset:0;stroke-opacity:1;visibility:visible;display:inline;overflow:visible;enable-background:accumulate" />
    <path
       style="opacity:1;fill:url(#radialGradient3845);fill-opacity:1;stroke:none;stroke-width:0.44999999000000002;stroke-linecap:round;stroke-linejoin:miter;stroke-miterlimit:4;stroke-dasharray:none;stroke-opacity:1"
       d="M 13.78125,19.84375 C 13.608915,19.835457 13.423445,19.884027 13.25,19.9375 L 14.09375,20.3125 C 14.762636,20.729275 14.913297,21.801636 14.4375,22.6875 C 14.000362,23.501388 13.180299,23.890623 12.53125,23.625 C 12.518672,23.619853 12.103859,23.418218 11.90625,23.3125 C 12.025419,23.51429 12.178319,23.68995 12.375,23.8125 C 13.161725,24.3027 14.25288,23.85443 14.8125,22.8125 C 15.37212,21.770571 15.192975,20.521449 14.40625,20.03125 C 14.209569,19.9087 14.003067,19.854425 13.78125,19.84375 z"
       id="path2605" />
    <path
       style="opacity:0.64754100000000003;fill:url(#linearGradient3553);fill-opacity:1.0;stroke:none;stroke-width:1.50000000000000000;stroke-linecap:round;stroke-linejoin:miter;stroke-miterlimit:4;stroke-dasharray:none;stroke-opacity:1"
       d="M 8.25,27.8125 C 8.2408824,27.877221 8.25,27.934473 8.25,28 C 8.25,30.111416 13.035133,31.84375 18.9375,31.84375 C 24.839867,31.84375 29.625,30.111417 29.625,28 C 29.625,27.934018 29.602994,27.877665 29.59375,27.8125 C 29.327839,29.822935 24.669278,31.4375 18.9375,31.4375 C 13.204392,31.4375 8.5139227,29.82359 8.25,27.8125 z"
       id="path2638" />
    <path
       sodipodi:nodetypes="cssscsssc"
       id="path3543"
       d="M 13.28125,17 C 10.689733,19.446934 8.25,23.157799 8.25,28 C 8.25,30.111415 13.035133,31.84375 18.9375,31.84375 C 24.839867,31.843751 29.625,30.111416 29.625,28 C 29.625,23.172906 27.185216,19.451281 24.59375,17 C 24.613196,17.031987 24.625,17.060909 24.625,17.09375 C 24.625,17.6192 22.079869,18.03125 18.9375,18.03125 C 15.795132,18.03125 13.25,17.6192 13.25,17.09375 C 13.25,17.06091 13.267297,17.030921 13.28125,17 z"
       style="opacity:0.7;fill:url(#linearGradient3545);fill-opacity:1;stroke:none;stroke-width:1.50000000000000000;stroke-linecap:round;stroke-linejoin:miter;stroke-miterlimit:4;stroke-opacity:1" />
    <path
       sodipodi:nodetypes="csccssscc"
       id="path3562"
       d="M 19.875,13.875 C 19.875,13.875 19.649406,14 18.9375,14 C 18.225594,14 17.9375,13.90625 17.9375,13.90625 C 16.748762,14.346989 14.982493,15.390786 13.28125,17 C 13.261804,17.031987 13.25,17.060909 13.25,17.09375 C 13.25,17.6192 15.795131,18.03125 18.9375,18.03125 C 22.079869,18.03125 24.625,17.6192 24.625,17.09375 C 24.625,17.060909 24.613196,17.031987 24.59375,17 C 22.859732,15.359784 21.06384,14.299767 19.875,13.875 z"
       style="opacity:0.75;fill:url(#linearGradient4043);fill-opacity:1;stroke:none;stroke-width:1.5;stroke-linecap:round;stroke-linejoin:miter;stroke-miterlimit:4;stroke-opacity:1" />
    <path
       style="opacity:1;fill:url(#radialGradient3592);fill-opacity:1;fill-rule:nonzero;stroke:none;stroke-width:1;stroke-linecap:butt;stroke-linejoin:miter;marker:none;marker-start:none;marker-mid:none;marker-end:none;stroke-miterlimit:4;stroke-dasharray:none;stroke-dashoffset:0;stroke-opacity:1;visibility:visible;display:inline;overflow:visible;enable-background:accumulate"
       d="M 23.875 8.03125 C 23.738543 8.16986 23.594018 8.25572 23.3125 8.3125 C 24.161333 11.760103 23.487251 13.553282 23.4375 14.625 C 23.429013 14.905075 23.993834 14.859716 24 14.65625 C 24.533975 12.122767 24.379885 9.982971 23.875 8.03125 z M 14.59375 8.25 C 14.565528 8.256382 14.548705 8.259242 14.53125 8.28125 C 13.310411 10.418764 13.16937 13.105134 13.625 16.125 C 14.037512 16.100414 14.29635 16.279827 14.28125 16.53125 C 14.411121 14.777257 13.328558 12.7883 15.03125 8.71875 C 15.203698 8.501316 14.791301 8.205324 14.59375 8.25 z "
       id="path3574" />
    <path
       style="opacity:1;fill:url(#radialGradient3634);fill-opacity:1;fill-rule:nonzero;stroke:none;stroke-width:1;stroke-linecap:butt;stroke-linejoin:miter;marker:none;marker-start:none;marker-mid:none;marker-end:none;stroke-miterlimit:4;stroke-dasharray:none;stroke-dashoffset:0;stroke-opacity:1;visibility:visible;display:inline;overflow:visible;enable-background:accumulate"
       d="M 23.4375,14.625 C 23.347607,14.914955 23.776065,15.1077 23.65625,16.1875 C 23.805909,16.310895 23.943655,16.461607 24.09375,16.59375 C 24.128337,16.212515 24.532465,15.971882 24,14.65625 C 23.993834,14.859716 23.429013,14.905075 23.4375,14.625 z M 13.625,16.125 C 13.214167,17.25912 12.658473,18.425432 14.0625,19.15625 C 14.153469,19.259343 14.349195,19.307684 14.5,19.09375 C 14.740989,18.75188 14.3852,18.546766 14.3125,18.59375 C 13.494014,18.142152 13.845266,17.341269 14.28125,16.53125 C 14.29635,16.279827 14.037512,16.100414 13.625,16.125 z"
       id="path3581" />
    <path
       style="opacity:0.75;fill:url(#linearGradient3730);fill-opacity:1;fill-rule:nonzero;stroke:none;stroke-width:1;stroke-linecap:butt;stroke-linejoin:miter;marker:none;marker-start:none;marker-mid:none;marker-end:none;stroke-miterlimit:4;stroke-dasharray:none;stroke-dashoffset:0;stroke-opacity:1;visibility:visible;display:inline;overflow:visible;enable-background:accumulate"
       d="M 11.46875,18.6875 C 11.902472,18.820853 12.8125,19.25 12.8125,19.25 L 13.09375,18.125 C 13.122609,18.044228 13.107228,17.972304 13.0625,17.90625 L 11.84375,17.34375 L 11.46875,18.6875 z"
       id="path3424"
       sodipodi:nodetypes="cccccc" />
    <path
       style="opacity:0.75;fill:url(#radialGradient4377);fill-opacity:1;stroke:none;stroke-width:0.44999999;stroke-linecap:round;stroke-linejoin:miter;stroke-miterlimit:4;stroke-dasharray:none;stroke-opacity:1"
       d="M 10.8125,18.53125 L 10.6875,18.71875 C 10.648269,18.70632 10.603371,18.723787 10.5625,18.71875 C 10.581571,18.732221 10.605867,18.738308 10.625,18.75 C 11.146242,19.134106 11.187755,20.090007 10.71875,20.875 C 10.249746,21.659993 9.518227,21.805207 8.90625,21.59375 C 8.814796,21.56215 8.742668,21.469675 8.65625,21.375 C 8.712869,21.497266 8.7781,21.599918 8.875,21.6875 C 9.398977,22.16109 10.327402,21.88958 10.9375,21.0625 C 11.547599,20.235419 11.617727,19.161091 11.09375,18.6875 C 11.013026,18.614539 10.909319,18.567957 10.8125,18.53125 z"
       id="path2556" />
    <path
       style="opacity:0.75000000000000000;fill:url(#linearGradient3746);fill-opacity:1;stroke:none;stroke-width:0.44999999000000002;stroke-linecap:round;stroke-linejoin:miter;stroke-miterlimit:4;stroke-dasharray:none;stroke-opacity:1"
       d="M 10.84375 18.5 L 10.84375 18.53125 C 10.933939 18.569074 11.020547 18.621336 11.09375 18.6875 C 11.617727 19.161091 11.547599 20.235419 10.9375 21.0625 C 10.327401 21.88958 9.3989772 22.16109 8.875 21.6875 C 8.9562614 21.840077 9.0531644 21.994757 9.1875 22.09375 C 9.8167562 22.557454 10.777553 22.166414 11.34375 21.21875 C 11.909946 20.271085 11.879256 19.119954 11.25 18.65625 C 11.140062 18.575236 11.003469 18.528281 10.875 18.5 C 10.864383 18.497663 10.854446 18.502012 10.84375 18.5 z "
       id="path2561" />
    <path
       id="path3748"
       d="M 10.1875,18.53125 C 10.146237,18.546158 10.104159,18.548321 10.0625,18.5625 C 10.093856,18.568283 10.125093,18.587064 10.15625,18.59375 L 10.1875,18.53125 z M 10.8125,18.53125 L 10.6875,18.71875 C 10.637372,18.702868 10.584103,18.692627 10.53125,18.6875 C 10.565785,18.703475 10.593909,18.731 10.625,18.75 C 11.146242,19.134106 11.187755,20.090007 10.71875,20.875 C 10.249746,21.659993 9.518227,21.805207 8.90625,21.59375 C 8.814796,21.56215 8.742668,21.469675 8.65625,21.375 C 8.712869,21.497266 8.7781,21.599918 8.875,21.6875 C 9.398977,22.16109 10.327402,21.88958 10.9375,21.0625 C 11.547599,20.235419 11.617727,19.161091 11.09375,18.6875 C 11.013026,18.614539 10.909319,18.567957 10.8125,18.53125 z"
       style="opacity:1;fill:url(#linearGradient3752);fill-opacity:1;stroke:none;stroke-width:0.44999999;stroke-linecap:round;stroke-linejoin:miter;stroke-miterlimit:4;stroke-dasharray:none;stroke-opacity:1" />
    <path
       style="opacity:1;fill:url(#radialGradient3782);fill-opacity:1.0;fill-rule:nonzero;stroke:none;stroke-width:1;stroke-linecap:butt;stroke-linejoin:miter;marker:none;marker-start:none;marker-mid:none;marker-end:none;stroke-miterlimit:4;stroke-dasharray:none;stroke-dashoffset:0;stroke-opacity:1;visibility:visible;display:inline;overflow:visible;enable-background:accumulate"
       d="M 14.59375,7.59375 C 14.538676,7.5959084 14.464762,7.616289 14.40625,7.625 C 14.319547,7.8240225 14.313867,8.031058 14.53125,8.28125 C 14.670888,8.105185 15.228333,8.4702546 15.03125,8.71875 C 15.352673,8.8507278 15.554193,8.7312167 15.71875,8.53125 C 15.722156,8.0798245 15.308334,7.5657443 14.59375,7.59375 z"
       id="path3762" />
    <path
       style="opacity:1;fill:url(#linearGradient3887);fill-opacity:1;fill-rule:nonzero;stroke:none;stroke-width:1;stroke-linecap:butt;stroke-linejoin:miter;marker:none;marker-start:none;marker-mid:none;marker-end:none;stroke-miterlimit:4;stroke-dasharray:none;stroke-dashoffset:0;stroke-opacity:1;visibility:visible;display:inline;overflow:visible;enable-background:accumulate"
       d="M 22.5,24.65625 C 23.003319,26.915951 23.311311,29.17826 23.125,31.125 C 23.440332,31.076559 23.732549,30.996167 24.03125,30.9375 C 24.156857,29.219694 24.018048,26.883982 23.4375,24.9375 L 22.5,24.65625 z"
       id="path3820"
       sodipodi:nodetypes="ccccc" />
    <path
       id="path3877"
       d="M 19.875 13.875 C 19.875 13.875 19.643905 13.944707 19.125 13.96875 C 18.920099 15.131117 19.502763 14.922456 19.0625 15.46875 C 18.685817 15.854836 18.225189 16.16967 18.125 16.8125 C 18.085217 17.319026 17.363439 17.509876 17.6875 17.90625 L 17.875 18 C 18.000454 18.003985 18.121732 17.997379 18.25 18 C 18.294751 17.542129 18.921824 17.200557 18.8125 16.78125 C 18.89628 16.173559 19.336384 15.776424 19.875 15.4375 C 20.048685 15.336945 20.252495 14.851303 20.59375 14.1875 C 20.34509 14.07063 20.088407 13.951249 19.875 13.875 z "
       style="opacity:0.3;fill:url(#radialGradient3879);fill-opacity:1;fill-rule:nonzero;stroke:none;stroke-width:1;stroke-linecap:butt;stroke-linejoin:miter;marker:none;marker-start:none;marker-mid:none;marker-end:none;stroke-miterlimit:4;stroke-dasharray:none;stroke-dashoffset:0;stroke-opacity:1;visibility:visible;display:inline;overflow:visible;enable-background:accumulate" />
    <path
       style="opacity:0.40000000000000002;fill:url(#radialGradient3875);fill-opacity:1;fill-rule:nonzero;stroke:none;stroke-width:1;stroke-linecap:butt;stroke-linejoin:miter;marker:none;marker-start:none;marker-mid:none;marker-end:none;stroke-miterlimit:4;stroke-dasharray:none;stroke-dashoffset:0;stroke-opacity:1;visibility:visible;display:inline;overflow:visible;enable-background:accumulate"
       d="M 19.875 13.875 C 19.875 13.875 19.643905 13.944707 19.125 13.96875 C 19.643905 13.944707 19.875 13.875 19.875 13.875 z M 20.5 14.15625 C 20.198377 14.623632 19.738826 14.845606 19.09375 14.5625 C 19.137088 15.074284 19.404927 15.043855 19.0625 15.46875 C 18.685817 15.854836 18.225189 16.16967 18.125 16.8125 C 18.085217 17.319026 17.363439 17.509876 17.6875 17.90625 L 17.875 18 C 18.000454 18.003985 18.121732 17.997379 18.25 18 C 18.294751 17.542129 18.921824 17.200557 18.8125 16.78125 C 18.89628 16.173559 19.336384 15.776424 19.875 15.4375 C 20.048685 15.336945 20.252495 14.851303 20.59375 14.1875 C 20.562519 14.172822 20.531382 14.170917 20.5 14.15625 z "
       id="path3822" />
    <path
       style="opacity:0.75000000000000000;fill:url(#linearGradient3981);fill-opacity:1;fill-rule:nonzero;stroke:none;stroke-width:1;stroke-linecap:butt;stroke-linejoin:miter;marker:none;marker-start:none;marker-mid:none;marker-end:none;stroke-miterlimit:4;stroke-dasharray:none;stroke-dashoffset:0;stroke-opacity:1;visibility:visible;display:inline;overflow:visible;enable-background:accumulate"
       d="M 14.59375,18.15625 C 14.490494,18.151764 14.386538,18.171848 14.28125,18.1875 C 14.174723,18.203336 14.073029,18.246497 13.96875,18.28125 C 14.040407,18.384891 14.143424,18.478115 14.28125,18.5625 C 14.358944,18.513639 14.427658,18.494783 14.5,18.5 C 14.524114,18.501739 14.539997,18.523108 14.5625,18.53125 C 14.677803,18.506452 14.782462,18.504326 14.875,18.5625 C 15.097091,18.702117 15.106083,19.058419 14.90625,19.34375 C 14.706417,19.629081 14.378342,19.733367 14.15625,19.59375 C 14.056309,19.530922 14.016046,19.434329 14,19.3125 C 13.995721,19.280012 13.966949,19.25326 13.96875,19.21875 C 13.961507,19.178296 13.988387,19.137331 14,19.09375 C 13.720638,18.93731 13.50372,18.784665 13.375,18.59375 C 13.222291,18.711797 13.079937,18.840314 12.96875,19 C 12.918763,19.061702 12.861625,19.124664 12.8125,19.1875 L 12.8125,19.25 C 12.8125,19.25 12.798728,19.271508 12.78125,19.28125 C 12.777521,19.286085 12.753724,19.276409 12.75,19.28125 C 12.69625,19.351132 12.646475,19.428757 12.59375,19.5 C 12.582375,19.551114 12.5625,19.625 12.5625,19.625 L 13.25,19.9375 C 13.423445,19.884027 13.608915,19.835457 13.78125,19.84375 C 13.892159,19.849088 13.989812,19.876028 14.09375,19.90625 C 14.103738,19.909002 14.115069,19.903227 14.125,19.90625 C 14.219487,19.936091 14.316387,19.975257 14.40625,20.03125 C 15.192975,20.521449 15.37212,21.770571 14.8125,22.8125 C 14.25288,23.85443 13.161725,24.3027 12.375,23.8125 C 12.178319,23.68995 12.025419,23.51429 11.90625,23.3125 C 11.8991,23.300393 11.881863,23.293586 11.875,23.28125 C 11.496447,23.078598 11.152754,22.874932 10.75,22.65625 C 10.425291,23.53194 9.2038527,27.036324 9.375,29.3125 C 10.361945,30.012124 11.941663,30.596508 13.875,30.96875 C 13.567669,27.905552 15.469716,24.23459 15.8125,20.0625 C 15.943686,18.745243 15.316544,18.187651 14.59375,18.15625 z"
       id="path3818"
       sodipodi:nodetypes="csccsssssssccsccsssccssssssssccccc" />
    <path
       style="opacity:0.50000000000000000;fill:url(#radialGradient3971);fill-opacity:1.0;fill-rule:nonzero;stroke:none;stroke-width:1;stroke-linecap:butt;stroke-linejoin:miter;marker:none;marker-start:none;marker-mid:none;marker-end:none;stroke-miterlimit:4;stroke-dasharray:none;stroke-dashoffset:0;stroke-opacity:1;visibility:visible;display:inline;overflow:visible;enable-background:accumulate"
       d="M 13.875,17.53125 C 13.812517,17.814015 13.844396,18.061751 14,18.28125 C 14.927446,17.990187 15.979394,18.386696 15.8125,20.0625 C 15.469716,24.23459 13.567669,27.905552 13.875,30.96875 C 15.138976,31.212114 16.558511,31.361967 18.0625,31.40625 C 18.193355,27.212401 18.797334,23.007627 18.6875,18.03125 C 18.543339,18.023057 18.400017,18.003065 18.25,18 C 18.121736,17.997379 18.00045,18.003985 17.875,18 C 16.134651,17.944721 14.654251,17.784691 13.875,17.53125 z"
       id="path3897"
       sodipodi:nodetypes="ccccccssc" />
    <path
       style="opacity:0.5;fill:url(#linearGradient4009);fill-opacity:1;stroke:none;stroke-width:1.50000000000000000;stroke-linecap:round;stroke-linejoin:miter;stroke-miterlimit:4;stroke-opacity:1"
       d="M 19.875,13.875 C 19.875,13.875 19.649406,14 18.9375,14 C 18.225594,14 17.9375,13.90625 17.9375,13.90625 C 16.980844,14.260941 15.651095,15.038615 14.28125,16.15625 C 14.282209,16.258217 14.287093,16.368774 14.28125,16.46875 C 15.741915,15.193867 17.201857,14.345774 18.21875,13.96875 C 18.21875,13.96875 18.477536,14.03125 19.15625,14.03125 C 19.78406,14.03125 20.000115,13.952795 20.03125,13.9375 C 19.983687,13.919254 19.9208,13.891364 19.875,13.875 z M 13.3125,16.96875 C 13.301372,16.979223 13.292373,16.989479 13.28125,17 C 13.261804,17.031987 13.25,17.060909 13.25,17.09375 C 13.25,17.116738 13.27167,17.133721 13.28125,17.15625 C 13.298402,17.09312 13.292493,17.032514 13.3125,16.96875 z M 24.59375,17 C 24.59375,17.500952 22.152117,17.875001 19.15625,17.875 C 16.639722,17.875 14.577418,17.600123 13.96875,17.21875 C 13.92829,17.325416 13.89747,17.429565 13.875,17.53125 C 14.813539,17.836497 16.720829,18.03125 18.9375,18.03125 C 22.079869,18.03125 24.625,17.6192 24.625,17.09375 C 24.625,17.060909 24.613196,17.031987 24.59375,17 z"
       id="path3991" />
    <path
       style="opacity:0.50000000000000000;fill:url(#linearGradient4060);fill-opacity:1;stroke:none;stroke-width:1.50000000000000000;stroke-linecap:round;stroke-linejoin:miter;stroke-miterlimit:4;stroke-opacity:1"
       d="M 20.03125,13.9375 C 20.000115,13.952795 19.78406,14.03125 19.15625,14.03125 C 18.477536,14.03125 18.21875,13.96875 18.21875,13.96875 C 17.201857,14.345774 15.741915,15.193867 14.28125,16.46875 C 14.287093,16.368774 13.92829,17.325416 13.96875,17.21875 C 14.577418,17.600123 16.639722,17.875 19.15625,17.875 C 22.152117,17.875001 24.59375,17.500952 24.59375,17 C 22.926534,15.422973 21.218307,14.392884 20.03125,13.9375 z"
       id="path4045"
       sodipodi:nodetypes="cscccscc" />
    <path
       style="opacity:0.75;fill:url(#linearGradient4365);fill-opacity:1;fill-rule:nonzero;stroke:none;stroke-width:1;stroke-linecap:butt;stroke-linejoin:miter;marker:none;marker-start:none;marker-mid:none;marker-end:none;stroke-miterlimit:4;stroke-dasharray:none;stroke-dashoffset:0;stroke-opacity:1;visibility:visible;display:inline;overflow:visible;enable-background:accumulate"
       d="M 9.40625,16.65625 C 9.567423,16.77502 9.58252,17.069774 9.4375,17.3125 C 9.4375,17.3125 11.3125,18.125 11.3125,18.125 C 11.498639,17.81345 11.456875,17.464945 11.25,17.3125 C 11.205244,17.279519 11.220747,17.25841 11.21875,17.25 C 11.21875,17.25 10.771747,17.119977 10.40625,17 C 10.388599,16.986993 9.521224,16.693076 9.40625,16.65625 z"
       id="path4358"
       sodipodi:nodetypes="cssscsc" />
    <path
       style="opacity:0.36885245999999999;fill:url(#linearGradient4388);fill-opacity:1;fill-rule:nonzero;stroke:none;stroke-width:1;stroke-linecap:butt;stroke-linejoin:miter;marker:none;marker-start:none;marker-mid:none;marker-end:none;stroke-miterlimit:4;stroke-dasharray:none;stroke-dashoffset:0;stroke-opacity:1;visibility:visible;display:inline;overflow:visible;enable-background:accumulate"
       d="M 22.28125 24.25 C 22.818278 26.661093 23.171136 29.045392 23.03125 31.15625 C 23.064812 31.15124 23.091614 31.130129 23.125 31.125 C 23.311311 29.17826 23.003319 26.915951 22.5 24.65625 L 23.4375 24.9375 C 23.404176 24.813091 23.380107 24.684401 23.34375 24.5625 L 22.28125 24.25 z "
       id="path4379" />
    <path
       style="opacity:0.75;fill:url(#radialGradient4490);fill-opacity:1;fill-rule:nonzero;stroke:none;stroke-width:1;stroke-linecap:butt;stroke-linejoin:miter;marker:none;marker-start:none;marker-mid:none;marker-end:none;stroke-miterlimit:4;stroke-dasharray:none;stroke-dashoffset:0;stroke-opacity:1;visibility:visible;display:inline;overflow:visible;enable-background:accumulate"
       d="M 22.96875,17.75 C 21.939671,17.918694 20.508685,18.03125 18.9375,18.03125 C 18.849053,18.03125 18.774957,18.031896 18.6875,18.03125 C 18.797334,23.007627 18.193355,27.212401 18.0625,31.40625 C 18.177397,31.409613 18.290365,31.435445 18.40625,31.4375 C 18.880666,21.654845 23.401425,22.196743 23.03125,17.75 C 23.008993,17.753774 22.99139,17.746289 22.96875,17.75 z M 10.34375,22.46875 C 9.906331,23.703827 8.909559,26.747695 8.96875,29 C 9.088788,29.109932 9.22773,29.20774 9.375,29.3125 C 9.204947,27.050872 10.41607,23.590824 10.75,22.6875 C 10.60619,22.610919 10.455236,22.528229 10.34375,22.46875 z M 11.28125,30.25 C 11.556109,30.350571 11.851838,30.441882 12.15625,30.53125 C 11.855513,30.442094 11.553084,30.350182 11.28125,30.25 z"
       id="path4422"
       sodipodi:nodetypes="cscccccccccccsc" />
    <path
       style="opacity:0.7;fill:url(#radialGradient4837);fill-opacity:1;stroke:none;stroke-width:1.5;stroke-linecap:round;stroke-linejoin:miter;stroke-miterlimit:4;stroke-opacity:1"
       d="M 13.28125,17 C 10.689733,19.446934 8.25,23.157799 8.25,28 C 8.25,30.111415 13.035133,31.84375 18.9375,31.84375 C 24.839867,31.843751 29.625,30.111416 29.625,28 C 29.625,23.172906 27.185216,19.451281 24.59375,17 C 24.613196,17.031987 24.625,17.060909 24.625,17.09375 C 24.625,17.6192 22.079869,18.03125 18.9375,18.03125 C 15.795132,18.03125 13.25,17.6192 13.25,17.09375 C 13.25,17.06091 13.267297,17.030921 13.28125,17 z"
       id="path3975"
       sodipodi:nodetypes="cssscsssc" />
    <path
       style="opacity:0.5;fill:url(#linearGradient4839);fill-opacity:1;stroke:none;stroke-width:1.5;stroke-linecap:round;stroke-linejoin:miter;stroke-miterlimit:4;stroke-opacity:1"
       d="M 19.875,13.875 C 19.875,13.875 19.649406,14 18.9375,14 C 18.225594,14 17.9375,13.90625 17.9375,13.90625 C 16.980844,14.260941 15.651095,15.038615 14.28125,16.15625 C 14.282209,16.258217 14.287093,16.368774 14.28125,16.46875 C 15.741915,15.193867 17.201857,14.345774 18.21875,13.96875 C 18.21875,13.96875 18.477536,14.03125 19.15625,14.03125 C 19.78406,14.03125 20.000115,13.952795 20.03125,13.9375 C 19.983687,13.919254 19.9208,13.891364 19.875,13.875 z M 17.96875,13.96875 C 17.972088,13.969743 18.054021,13.966507 18.0625,13.96875 C 17.074039,14.352496 15.717859,15.139351 14.34375,16.3125 C 14.343376,16.280291 14.344347,16.249974 14.34375,16.21875 C 15.708378,15.105371 17.024358,14.318894 17.96875,13.96875 z M 13.3125,16.96875 C 13.301372,16.979223 13.292373,16.989479 13.28125,17 C 13.261804,17.031987 13.25,17.060909 13.25,17.09375 C 13.25,17.116738 13.27167,17.133721 13.28125,17.15625 C 13.298402,17.09312 13.292493,17.032514 13.3125,16.96875 z M 24.59375,17 C 24.59375,17.500952 22.152117,17.875001 19.15625,17.875 C 17.576765,17.875 16.224506,17.768686 15.25,17.59375 C 14.894003,17.533179 14.208918,17.544216 13.96875,17.46875 C 13.982467,17.417551 14.012867,17.365084 14.03125,17.3125 C 14.262835,17.441066 14.772431,17.502302 15.25,17.59375 C 14.671866,17.489968 14.195391,17.360756 13.96875,17.21875 C 13.92829,17.325416 13.89747,17.429565 13.875,17.53125 C 14.813539,17.836497 16.720829,18.03125 18.9375,18.03125 C 22.079869,18.03125 24.625,17.6192 24.625,17.09375 C 24.625,17.060909 24.613196,17.031987 24.59375,17 z M 17.90625,17.875 C 18.342956,17.893468 18.68058,17.9375 19.15625,17.9375 C 19.07101,17.938116 19.02368,17.96875 18.9375,17.96875 C 18.48443,17.96875 18.327914,17.890736 17.90625,17.875 z"
       id="path4076" />
    <path
       sodipodi:nodetypes="cccccscscccccccssccssc"
       id="path5338"
       d="M 13.28125,17.15625 C 13.17196,17.381549 13.04176,17.612783 12.9375,17.84375 L 13.0625,17.90625 C 13.10723,17.972304 13.12261,18.044228 13.09375,18.125 L 12.8125,19.1875 C 12.86218,19.124276 12.91838,19.062181 12.96875,19 C 13.08538,18.832491 13.24249,18.684658 13.40625,18.5625 C 13.13681,18.15653 13.14997,17.685161 13.28125,17.1875 C 13.27543,17.177935 13.2856,17.165481 13.28125,17.15625 z M 13.875,17.53125 C 13.81252,17.814015 13.8444,18.061751 14,18.28125 C 14.92745,17.990187 15.97939,18.386696 15.8125,20.0625 C 15.46972,24.23459 13.56767,27.905552 13.875,30.96875 C 15.13898,31.212114 16.55851,31.361967 18.0625,31.40625 C 18.19335,27.212401 18.79733,23.007627 18.6875,18.03125 C 18.54334,18.023057 18.40002,18.003065 18.25,18 C 18.12174,17.997379 18.00045,18.003985 17.875,18 C 16.13465,17.944721 14.65425,17.784691 13.875,17.53125 z M 12.75,19.28125 C 12.71089,19.307755 12.65604,19.356021 12.625,19.40625 C 12.59806,19.449845 12.60247,19.460813 12.59375,19.5 C 12.64725,19.428448 12.69559,19.351497 12.75,19.28125 z"
       style="opacity:0.58196721;fill:url(#radialGradient5340);fill-opacity:1;fill-rule:nonzero;stroke:none;stroke-width:1;stroke-linecap:butt;stroke-linejoin:miter;marker:none;marker-start:none;marker-mid:none;marker-end:none;stroke-miterlimit:4;stroke-dasharray:none;stroke-dashoffset:0;stroke-opacity:1;visibility:visible;display:inline;overflow:visible;enable-background:accumulate" />
    <path
       style="opacity:0.84999999999999998;fill:url(#linearGradient4034);fill-opacity:1;fill-rule:nonzero;stroke:none;stroke-width:1;stroke-linecap:butt;stroke-linejoin:miter;marker:none;marker-start:none;marker-mid:none;marker-end:none;stroke-miterlimit:4;stroke-dasharray:none;stroke-dashoffset:0;stroke-opacity:1;visibility:visible;display:inline;overflow:visible;enable-background:accumulate"
       d="M 19.875 13.875 C 19.875 13.875 19.649406 14 18.9375 14 C 18.595695 14 18.348931 13.95997 18.1875 13.9375 C 19.312216 15.043068 20.072895 14.818073 20.5 14.15625 C 20.286064 14.058485 20.061609 13.941674 19.875 13.875 z M 15 18.71875 C 15.086856 18.891236 15.056125 19.129752 14.90625 19.34375 C 14.806334 19.486415 14.666009 19.580714 14.53125 19.625 L 14.625 19.65625 C 15.882117 19.632362 15.418359 18.954113 15 18.71875 z M 14.84375 20.5 C 15.223107 21.107035 15.241183 22.014356 14.8125 22.8125 C 14.599844 23.208433 14.320292 23.544436 14 23.75 C 17.08264 23.668741 15.864286 21.234153 14.84375 20.5 z "
       id="path4011" />
    <rect
       style="opacity:0.61162792;fill:#555753;fill-opacity:1;fill-rule:nonzero;stroke:none;stroke-width:0.69999999;stroke-linecap:round;stroke-linejoin:miter;stroke-miterlimit:4;stroke-dasharray:none;stroke-opacity:1"
       id="rect1951"
       width="40.001965"
       height="10.004759"
       x="-0.0019644466"
       y="30" />
    <text
       xml:space="preserve"
       style="font-size:12px;font-style:normal;font-weight:normal;fill:#eeeeec;fill-opacity:1;stroke:none;stroke-width:1px;stroke-linecap:butt;stroke-linejoin:miter;stroke-opacity:1;font-family:Bitstream Vera Sans"
       x="13.044325"
       y="39.168156"
       id="text2840"><tspan
         sodipodi:role="line"
         id="tspan2842"
         x="13.044325"
         y="39.168156">Cr</tspan></text>
  </g>
</svg>
