<?xml version="1.0" encoding="UTF-8" standalone="no"?>
<!-- Created with Inkscape (http://www.inkscape.org/) -->
<svg
   xmlns:dc="http://purl.org/dc/elements/1.1/"
   xmlns:cc="http://creativecommons.org/ns#"
   xmlns:rdf="http://www.w3.org/1999/02/22-rdf-syntax-ns#"
   xmlns:svg="http://www.w3.org/2000/svg"
   xmlns="http://www.w3.org/2000/svg"
   xmlns:xlink="http://www.w3.org/1999/xlink"
   xmlns:sodipodi="http://sodipodi.sourceforge.net/DTD/sodipodi-0.dtd"
   xmlns:inkscape="http://www.inkscape.org/namespaces/inkscape"
   width="40"
   height="40"
   id="svg2193"
   sodipodi:version="0.32"
   inkscape:version="0.46"
   version="1.0"
   sodipodi:docbase="/home/jra/Desktop"
   sodipodi:docname="27.svg"
   inkscape:output_extension="org.inkscape.output.svg.inkscape">
  <sodipodi:namedview
     id="base"
     pagecolor="#ffffff"
     bordercolor="#666666"
     borderopacity="1.0"
     inkscape:pageopacity="0.0"
     inkscape:pageshadow="2"
     inkscape:zoom="11.175"
     inkscape:cx="14.233977"
     inkscape:cy="12.897292"
     inkscape:current-layer="layer1"
     showgrid="false"
     inkscape:grid-bbox="true"
     inkscape:document-units="px"
     width="40px"
     height="40px"
     inkscape:window-width="1604"
     inkscape:window-height="1119"
     inkscape:window-x="136"
     inkscape:window-y="15">
    <inkscape:grid
       id="GridFromPre046Settings"
       type="xygrid"
       originx="0px"
       originy="0px"
       spacingx="1px"
       spacingy="1px"
       color="#0000ff"
       empcolor="#0000ff"
       opacity="0.2"
       empopacity="0.4"
       empspacing="2" />
  </sodipodi:namedview>
  <defs
     id="defs2195">
    <inkscape:perspective
       sodipodi:type="inkscape:persp3d"
       inkscape:vp_x="0 : 20 : 1"
       inkscape:vp_y="0 : 1000 : 0"
       inkscape:vp_z="40 : 20 : 1"
       inkscape:persp3d-origin="20 : 13.333333 : 1"
       id="perspective91" />
    <linearGradient
       id="linearGradient3650">
      <stop
         id="stop3652"
         offset="0"
         style="stop-color:#000000;stop-opacity:1;" />
      <stop
         style="stop-color:#000000;stop-opacity:1;"
         offset="0.94627863"
         id="stop3656" />
      <stop
         id="stop3654"
         offset="1"
         style="stop-color:#000000;stop-opacity:0;" />
    </linearGradient>
    <linearGradient
       id="linearGradient3608">
      <stop
         id="stop3610"
         offset="0"
         style="stop-color:#000000;stop-opacity:1;" />
      <stop
         id="stop3612"
         offset="1"
         style="stop-color:#ffffff;stop-opacity:1;" />
    </linearGradient>
    <linearGradient
       id="linearGradient3530">
      <stop
         style="stop-color:#000000;stop-opacity:1;"
         offset="0"
         id="stop3532" />
      <stop
         id="stop3534"
         offset="0.79308778"
         style="stop-color:#ffffff;stop-opacity:0.66666669;" />
      <stop
         id="stop3536"
         offset="0.87429023"
         style="stop-color:#000000;stop-opacity:0.53801167;" />
      <stop
         style="stop-color:#000000;stop-opacity:1;"
         offset="0.92657268"
         id="stop3538" />
      <stop
         style="stop-color:#000000;stop-opacity:0;"
         offset="1"
         id="stop3540" />
    </linearGradient>
    <linearGradient
       id="linearGradient3501">
      <stop
         style="stop-color:#000000;stop-opacity:1;"
         offset="0"
         id="stop3503" />
      <stop
         style="stop-color:#000000;stop-opacity:0;"
         offset="1"
         id="stop3505" />
    </linearGradient>
    <linearGradient
       id="linearGradient3910">
      <stop
         style="stop-color:#ffffff;stop-opacity:0.46103895;"
         offset="0"
         id="stop3912" />
      <stop
         id="stop3918"
         offset="0.5"
         style="stop-color:#ffffff;stop-opacity:1;" />
      <stop
         style="stop-color:#ffffff;stop-opacity:0.50649351;"
         offset="1"
         id="stop3914" />
    </linearGradient>
    <linearGradient
       id="linearGradient3827">
      <stop
         style="stop-color:#000000;stop-opacity:1;"
         offset="0"
         id="stop3829" />
      <stop
         id="stop3839"
         offset="0.25"
         style="stop-color:#ffffff;stop-opacity:1;" />
      <stop
         id="stop3835"
         offset="0.5"
         style="stop-color:#000000;stop-opacity:1;" />
      <stop
         style="stop-color:#000000;stop-opacity:1;"
         offset="0.75"
         id="stop3837" />
      <stop
         style="stop-color:#a6a6a6;stop-opacity:1;"
         offset="1"
         id="stop3831" />
    </linearGradient>
    <linearGradient
       id="linearGradient3239"
       inkscape:collect="always">
      <stop
         offset="0"
         style="stop-color:#eeeeec;stop-opacity:1;"
         id="stop3241" />
      <stop
         offset="1"
         style="stop-color:#eeeeec;stop-opacity:0;"
         id="stop3243" />
    </linearGradient>
    <linearGradient
       id="linearGradient3291">
      <stop
         offset="0"
         style="stop-color:#000000;stop-opacity:1;"
         id="stop3293" />
      <stop
         offset="1"
         style="stop-color:#000000;stop-opacity:0;"
         id="stop3295" />
    </linearGradient>
    <radialGradient
       inkscape:collect="always"
       xlink:href="#linearGradient3291"
       id="radialGradient4172"
       gradientUnits="userSpaceOnUse"
       gradientTransform="matrix(1,0,0,0.197802,0,92.82166)"
       cx="63.912209"
       cy="115.70919"
       fx="75.857941"
       fy="115.70919"
       r="63.912209" />
    <radialGradient
       inkscape:collect="always"
       xlink:href="#linearGradient3530"
       id="radialGradient3762"
       cx="19.909052"
       cy="8.7020483"
       fx="19.909052"
       fy="8.7020483"
       r="13.125"
       gradientTransform="matrix(1.171911,5.2094446e-3,-2.2861486e-3,0.5142895,-3.3526279,6.6395458)"
       gradientUnits="userSpaceOnUse" />
    <radialGradient
       inkscape:collect="always"
       xlink:href="#linearGradient3530"
       id="radialGradient3770"
       cx="19.672842"
       cy="10.181451"
       fx="19.672842"
       fy="10.181451"
       r="11.657579"
       gradientTransform="matrix(1.1255055,0,0,0.3761439,-2.4415316,8.2775518)"
       gradientUnits="userSpaceOnUse" />
    <linearGradient
       inkscape:collect="always"
       xlink:href="#linearGradient3827"
       id="linearGradient3778"
       x1="7.46875"
       y1="7.125"
       x2="31.25"
       y2="7.125"
       gradientUnits="userSpaceOnUse"
       gradientTransform="translate(0,2)" />
    <linearGradient
       inkscape:collect="always"
       xlink:href="#linearGradient3608"
       id="linearGradient3786"
       x1="11.5"
       y1="7.671875"
       x2="33.21875"
       y2="7.671875"
       gradientUnits="userSpaceOnUse"
       gradientTransform="translate(0,2)" />
    <linearGradient
       inkscape:collect="always"
       xlink:href="#linearGradient3608"
       id="linearGradient3794"
       x1="12.90625"
       y1="10"
       x2="28.450113"
       y2="10"
       gradientUnits="userSpaceOnUse"
       gradientTransform="translate(0,2)" />
    <radialGradient
       inkscape:collect="always"
       xlink:href="#linearGradient3530"
       id="radialGradient3815"
       cx="19.359375"
       cy="8.1059418"
       fx="19.359375"
       fy="8.1059418"
       r="10.515625"
       gradientTransform="matrix(1.174502,-3.3452934e-8,2.3934805e-8,0.491227,-3.3782495,6.4517641)"
       gradientUnits="userSpaceOnUse" />
    <linearGradient
       inkscape:collect="always"
       xlink:href="#linearGradient3827"
       id="linearGradient3825"
       x1="8.84375"
       y1="10.734375"
       x2="29.875"
       y2="10.734375"
       gradientUnits="userSpaceOnUse"
       gradientTransform="translate(0,2)" />
    <linearGradient
       inkscape:collect="always"
       xlink:href="#linearGradient3910"
       id="linearGradient3885"
       x1="12.625"
       y1="7.625"
       x2="27.21875"
       y2="7.625"
       gradientUnits="userSpaceOnUse"
       gradientTransform="translate(0,2)" />
    <linearGradient
       inkscape:collect="always"
       xlink:href="#linearGradient3239"
       id="linearGradient3887"
       gradientUnits="userSpaceOnUse"
       x1="9.2234049"
       y1="0.90923434"
       x2="33.102066"
       y2="14.829905"
       gradientTransform="translate(0,2)" />
    <radialGradient
       inkscape:collect="always"
       xlink:href="#linearGradient3501"
       id="radialGradient3903"
       cx="23.745974"
       cy="9.4909496"
       fx="23.745974"
       fy="9.4909496"
       r="11.484375"
       gradientTransform="matrix(1.6965987,0,0,0.6816328,-14.077901,7.5271292)"
       gradientUnits="userSpaceOnUse" />
    <linearGradient
       inkscape:collect="always"
       xlink:href="#linearGradient3827"
       id="linearGradient3934"
       gradientUnits="userSpaceOnUse"
       x1="7.875"
       y1="18.65625"
       x2="30.843752"
       y2="18.65625"
       gradientTransform="translate(0,2)" />
    <linearGradient
       inkscape:collect="always"
       xlink:href="#linearGradient3291"
       id="linearGradient3614"
       x1="11.494082"
       y1="8.306124"
       x2="27.204865"
       y2="8.306124"
       gradientUnits="userSpaceOnUse"
       gradientTransform="translate(0,2)" />
    <radialGradient
       inkscape:collect="always"
       xlink:href="#linearGradient3650"
       id="radialGradient3661"
       gradientUnits="userSpaceOnUse"
       gradientTransform="matrix(0.9586298,0,0,0.3786112,0.8000455,7.6215555)"
       cx="19.59129"
       cy="9.3379974"
       fx="19.59129"
       fy="9.3379974"
       r="11.894573" />
    <linearGradient
       inkscape:collect="always"
       xlink:href="#linearGradient3501"
       id="linearGradient3667"
       x1="14.001187"
       y1="4.1875"
       x2="21.272371"
       y2="15.894645"
       gradientUnits="userSpaceOnUse"
       gradientTransform="translate(0,2)" />
    <linearGradient
       inkscape:collect="always"
       xlink:href="#linearGradient3608"
       id="linearGradient3807"
       x1="28.612297"
       y1="24.595812"
       x2="20.935837"
       y2="24.595812"
       gradientUnits="userSpaceOnUse"
       gradientTransform="translate(0,2)" />
    <linearGradient
       inkscape:collect="always"
       xlink:href="#linearGradient3827"
       id="linearGradient3759"
       x1="30.90016"
       y1="28.713821"
       x2="7.875"
       y2="28.713821"
       gradientUnits="userSpaceOnUse"
       gradientTransform="translate(0,12)" />
  </defs>
  <metadata
     id="metadata2198">
    <rdf:RDF>
      <cc:Work
         rdf:about="">
        <dc:format>image/svg+xml</dc:format>
        <dc:type
           rdf:resource="http://purl.org/dc/dcmitype/StillImage" />
        <dc:creator>
          <cc:Agent>
            <dc:title>Jarle Akselsen</dc:title>
          </cc:Agent>
        </dc:creator>
        <cc:license
           rdf:resource="http://creativecommons.org/licenses/GPL/2.0/" />
      </cc:Work>
      <cc:License
         rdf:about="http://creativecommons.org/licenses/GPL/2.0/">
        <cc:permits
           rdf:resource="http://web.resource.org/cc/Reproduction" />
        <cc:permits
           rdf:resource="http://web.resource.org/cc/Distribution" />
        <cc:requires
           rdf:resource="http://web.resource.org/cc/Notice" />
        <cc:permits
           rdf:resource="http://web.resource.org/cc/DerivativeWorks" />
        <cc:requires
           rdf:resource="http://web.resource.org/cc/ShareAlike" />
        <cc:requires
           rdf:resource="http://web.resource.org/cc/SourceCode" />
      </cc:License>
    </rdf:RDF>
  </metadata>
  <g
     inkscape:label="Layer 1"
     id="layer1"
     inkscape:groupmode="layer">
    <path
       sodipodi:ry="12.641975"
       sodipodi:rx="63.912209"
       transform="matrix(0.2097573,0,0,0.39775,6.877569,-12.723158)"
       d="M 127.82442,115.70919 A 63.912209,12.641975 0 1 1 0,115.70919 A 63.912209,12.641975 0 1 1 127.82442,115.70919 z"
       sodipodi:type="arc"
       sodipodi:cy="115.70919"
       sodipodi:cx="63.912209"
       id="path4170"
       style="opacity:0.38139535;fill:url(#radialGradient4172);fill-opacity:1;fill-rule:nonzero;stroke:none;stroke-width:0;stroke-linecap:round;stroke-linejoin:round;stroke-miterlimit:4;stroke-dasharray:none;stroke-dashoffset:4;stroke-opacity:1" />
    <path
       style="opacity:1;fill:#888888;fill-opacity:1;fill-rule:nonzero;stroke:none;stroke-width:1;stroke-linecap:round;stroke-linejoin:round;stroke-miterlimit:4;stroke-opacity:1"
       d="M 19.34375,5.5625 C 12.098577,5.5625 6.21875,8.324291 6.21875,11.75 C 6.21875,12.843266 6.8239997,13.888844 7.875,14.78125 C 7.875,19.645375 7.875,28.570208 7.875,29.65625 C 7.875,32.472943 13.005971,34.750001 19.34375,34.75 C 25.681529,34.75 30.843753,32.472944 30.84375,29.65625 C 30.84375,28.566943 30.84375,19.600885 30.84375,14.75 C 31.874505,13.864098 32.46875,12.8319 32.46875,11.75 C 32.46875,8.324291 26.588923,5.5624999 19.34375,5.5625 z"
       id="path3926" />
    <path
       style="opacity:1;fill:#ffffff;fill-opacity:1;fill-rule:nonzero;stroke:none;stroke-width:1;stroke-linecap:round;stroke-linejoin:round;stroke-miterlimit:4;stroke-opacity:1"
       d="M 30.84375,16.9375 C 28.61074,18.856701 26.257429,20.25 19.34375,20.25 C 12.430071,20.25 10.117272,18.872667 7.875,16.96875 C 7.875,21.832874 7.875,17.09375 7.875,17.09375 C 7.875,17.445837 7.941071,21.766814 8.09375,22.09375 C 10.271154,23.905373 12.65877,25.281249 19.34375,25.28125 C 26.063641,25.28125 28.475885,23.871853 30.65625,22.03125 C 30.79068,21.724137 30.84375,17.422657 30.84375,17.09375 C 30.84375,17.093751 30.84375,21.788385 30.84375,16.9375 z"
       id="path3682"
       sodipodi:nodetypes="cscccsccc" />
    <path
       style="opacity:1;fill:#323232;fill-opacity:1;fill-rule:nonzero;stroke:none;stroke-width:1;stroke-linecap:round;stroke-linejoin:round;stroke-miterlimit:4;stroke-opacity:1"
       d="M 28.59375,18.53125 C 26.910822,19.46567 24.666428,20.09185 20.8125,20.21875 L 20.8125,33.59375 C 24.663484,33.428065 26.911136,32.610188 28.59375,31.5625 L 28.59375,18.53125 z"
       id="path3771"
       sodipodi:nodetypes="ccccc" />
    <path
       style="opacity:1;fill:#000080;fill-opacity:1;fill-rule:nonzero;stroke:none;stroke-width:1;stroke-linecap:round;stroke-linejoin:round;stroke-miterlimit:4;stroke-opacity:1"
       d="M 28.59375,18.53125 C 26.910822,19.46567 24.666428,20.09185 20.8125,20.21875 L 20.8125,25.25 C 24.667395,25.11169 26.910486,24.429492 28.59375,23.46875 L 28.59375,18.53125 z"
       id="path3676"
       sodipodi:nodetypes="ccccc" />
    <path
       style="opacity:1;fill:#000000;fill-opacity:1;fill-rule:nonzero;stroke:none;stroke-width:1;stroke-linecap:round;stroke-linejoin:round;stroke-miterlimit:4;stroke-opacity:1"
       d="M 28.59375,18.53125 C 26.910822,19.46567 24.666428,20.09185 20.8125,20.21875 L 20.8125,21.15625 C 24.665685,21.029501 26.91077,20.403997 28.59375,19.46875 L 28.59375,18.53125 z"
       id="path3769" />
    <path
       style="opacity:1;fill:#000000;fill-opacity:1;fill-rule:nonzero;stroke:none;stroke-width:1;stroke-linecap:round;stroke-linejoin:round;stroke-miterlimit:4;stroke-opacity:1"
       d="M 28.59375,22.53125 C 26.910294,23.492364 24.669605,24.174258 20.8125,24.3125 L 20.8125,25.25 C 24.667395,25.11169 26.910486,24.429492 28.59375,23.46875 L 28.59375,22.53125 z"
       id="path3767" />
    <path
       style="opacity:1;fill:#000000;fill-opacity:1;fill-rule:nonzero;stroke:none;stroke-width:1;stroke-linecap:round;stroke-linejoin:round;stroke-miterlimit:4;stroke-opacity:1"
       d="M 28.59375,24.59375 C 26.910822,25.585665 24.666428,26.294065 20.8125,26.4375 L 20.8125,27.375 C 24.667395,27.226407 26.910486,26.493252 28.59375,25.5 L 28.59375,24.59375 z"
       id="path3765" />
    <path
       style="opacity:1;fill:#ffff00;fill-opacity:1;fill-rule:nonzero;stroke:none;stroke-width:1;stroke-linecap:round;stroke-linejoin:round;stroke-miterlimit:4;stroke-opacity:1"
       d="M 28.59375,26.59375 C 26.910822,27.602092 24.666428,28.348754 20.8125,28.5 L 20.8125,29.4375 C 24.663484,29.286013 26.911136,28.538269 28.59375,27.53125 L 28.59375,26.59375 z"
       id="path3763" />
    <path
       style="opacity:1;fill:#ff00bf;fill-opacity:1;fill-rule:nonzero;stroke:none;stroke-width:1;stroke-linecap:round;stroke-linejoin:round;stroke-miterlimit:4;stroke-opacity:1"
       d="M 28.59375,28.59375 C 26.910376,29.628447 24.669114,30.431101 20.8125,30.59375 L 20.8125,31.53125 C 24.663484,31.373405 26.911136,30.59392 28.59375,29.5625 L 28.59375,28.59375 z"
       id="path3761" />
    <path
       style="opacity:1;fill:#00c4cc;fill-opacity:1;fill-rule:nonzero;stroke:none;stroke-width:1;stroke-linecap:round;stroke-linejoin:round;stroke-miterlimit:4;stroke-opacity:1"
       d="M 28.59375,30.625 C 26.910376,31.676119 24.669114,32.49119 20.8125,32.65625 L 20.8125,33.59375 C 24.663484,33.428065 26.911136,32.610188 28.59375,31.5625 L 28.59375,30.625 z"
       id="path3670" />
    <g
       style="opacity:1;fill:#888888"
       id="g3713"
       transform="matrix(1.1431723,0,0,1.4335393,-2.770286,-0.982296)">
      <path
         style="opacity:1;fill:#888888;fill-opacity:1;fill-rule:nonzero;stroke:none;stroke-width:1;stroke-linecap:round;stroke-linejoin:round;stroke-miterlimit:4;stroke-opacity:1"
         d="M 30.830959,8.8863022 C 30.830959,11.275989 25.687255,13.215444 19.349476,13.215444 C 13.011697,13.215444 7.867992,11.275989 7.867992,8.8863022 C 7.867992,6.4966161 13.011697,4.5571608 19.349476,4.5571608 C 25.687255,4.5571608 30.830959,6.4966161 30.830959,8.8863022 z"
         id="path3715" />
    </g>
    <path
       style="opacity:0.85;fill:url(#radialGradient3762);fill-opacity:1;fill-rule:nonzero;stroke:none;stroke-width:1;stroke-linecap:round;stroke-linejoin:round;stroke-miterlimit:4;stroke-opacity:1"
       d="M 19.34375,5.5625 C 12.098577,5.5625 6.218749,8.3242915 6.21875,11.75 C 6.21875,15.17571 12.098577,17.96875 19.34375,17.96875 C 26.588923,17.96875 32.46875,15.17571 32.46875,11.75 C 32.46875,8.3242911 26.588923,5.5625 19.34375,5.5625 z M 19.34375,6.1875 C 25.909553,6.1874999 31.25,8.3855591 31.25,11.09375 C 31.25,13.801942 25.909554,16 19.34375,16 C 12.777945,16 7.46875,13.801942 7.46875,11.09375 C 7.468752,8.3855591 12.777946,6.1875 19.34375,6.1875 z"
       id="path3704" />
    <path
       style="opacity:1;fill:url(#radialGradient3770);fill-opacity:1;fill-rule:nonzero;stroke:none;stroke-width:1;stroke-linecap:round;stroke-linejoin:round;stroke-miterlimit:4;stroke-opacity:1"
       d="M 19.34375,8.125 C 13.598672,8.125 8.797227,9.796272 7.6875,12.03125 C 7.696037,12.049502 7.678473,12.07557 7.6875,12.09375 C 8.797226,14.328729 13.598671,16 19.34375,16 C 25.111314,16 29.914956,14.310548 31,12.0625 C 29.914956,9.8144526 25.111314,8.1250001 19.34375,8.125 z"
       id="path3730" />
    <path
       style="opacity:0.63117873;fill:url(#radialGradient3903);fill-opacity:1;fill-rule:nonzero;stroke:none;stroke-width:1;stroke-linecap:round;stroke-linejoin:round;stroke-miterlimit:4;stroke-opacity:1"
       d="M 7.875,14.75 C 7.875,14.861866 7.875,14.976103 7.875,15.09375 C 10.067868,17.064944 14.429933,18.40625 19.46875,18.40625 C 24.340011,18.40625 28.578995,17.149823 30.84375,15.28125 C 30.84375,15.094802 30.84375,14.922883 30.84375,14.75 C 28.610833,16.672973 24.300768,17.96875 19.34375,17.96875 C 14.39631,17.96875 10.101952,16.670329 7.875,14.75 z"
       id="path3891"
       sodipodi:nodetypes="ccsccsc" />
    <path
       style="opacity:0.76425859;fill:url(#radialGradient3661);fill-opacity:1;fill-rule:nonzero;stroke:none;stroke-width:1;stroke-linecap:round;stroke-linejoin:round;stroke-miterlimit:4;stroke-opacity:1"
       d="M 19.34375,6.1875 C 12.777946,6.1875 7.4687501,8.385559 7.46875,11.09375 C 7.46875,13.801942 12.777945,16 19.34375,16 C 25.909554,16 31.25,13.801942 31.25,11.09375 C 31.25,8.385559 25.909553,6.1875 19.34375,6.1875 z M 19.34375,6.34375 C 25.147769,6.34375 29.875,8.124069 29.875,10.3125 C 29.875,10.458989 29.875,11.041558 29.875,11.1875 C 29.875,13.375923 25.147769,15.15625 19.34375,15.15625 C 13.539731,15.15625 8.84375,13.375923 8.84375,11.1875 C 8.84375,11.042049 8.84375,10.458395 8.84375,10.3125 C 8.84375,8.124069 13.539731,6.34375 19.34375,6.34375 z"
       id="path3827" />
    <path
       style="opacity:0.28517109;fill:url(#linearGradient3778);fill-opacity:1;fill-rule:nonzero;stroke:none;stroke-width:1;stroke-linecap:round;stroke-linejoin:round;stroke-miterlimit:4;stroke-opacity:1"
       d="M 19.34375,6.1875 C 12.777946,6.1875 7.468752,8.3855591 7.46875,11.09375 C 7.46875,11.412999 7.546102,11.728947 7.6875,12.03125 C 8.797227,9.796272 13.598672,8.125 19.34375,8.125 C 25.111314,8.1250001 29.914956,9.8144526 31,12.0625 C 31.150172,11.751367 31.25,11.422999 31.25,11.09375 C 31.25,8.3855591 25.909553,6.1874999 19.34375,6.1875 z"
       id="path3724" />
    <path
       style="opacity:1;fill:#0000ff;fill-opacity:1;fill-rule:nonzero;stroke:none;stroke-width:1;stroke-linecap:round;stroke-linejoin:round;stroke-miterlimit:4;stroke-opacity:1"
       d="M 19.34375,6.34375 C 13.539731,6.34375 8.84375,8.1240693 8.84375,10.3125 C 8.84375,10.458395 8.84375,11.042049 8.84375,11.1875 C 8.84375,13.375923 13.539731,15.15625 19.34375,15.15625 C 25.147769,15.15625 29.875,13.375923 29.875,11.1875 C 29.875,11.041558 29.875,10.458989 29.875,10.3125 C 29.875,8.1240695 25.147769,6.3437501 19.34375,6.34375 z"
       id="path3636"
       sodipodi:nodetypes="csssssc" />
    <path
       style="opacity:0.45;fill:url(#linearGradient3825);fill-opacity:1;fill-rule:nonzero;stroke:none;stroke-width:1;stroke-linecap:round;stroke-linejoin:round;stroke-miterlimit:4;stroke-opacity:1"
       d="M 8.84375,10.3125 C 8.84375,10.458395 8.84375,11.042049 8.84375,11.1875 C 8.84375,13.375923 13.539731,15.15625 19.34375,15.15625 C 25.147769,15.15625 29.875,13.375923 29.875,11.1875 C 29.875,11.041558 29.875,10.458989 29.875,10.3125 C 29.875001,12.500927 25.147769,14.28125 19.34375,14.28125 C 13.539731,14.28125 8.84375,12.500927 8.84375,10.3125 z"
       id="path3644" />
    <path
       style="opacity:0.25;fill:url(#linearGradient3887);fill-opacity:1;fill-rule:nonzero;stroke:none;stroke-width:1;stroke-linecap:round;stroke-linejoin:round;stroke-miterlimit:4;stroke-opacity:1"
       d="M 19.34375,6.34375 C 13.539731,6.34375 8.84375,8.124071 8.84375,10.3125 C 8.84375,12.500927 13.539731,14.281251 19.34375,14.28125 C 25.147769,14.28125 29.875001,12.500928 29.875,10.3125 C 29.875,8.12407 25.147769,6.343749 19.34375,6.34375 z M 19.34375,7.34375 C 23.679929,7.343751 27.21875,8.677524 27.21875,10.3125 C 27.21875,11.947464 23.679929,13.28125 19.34375,13.28125 C 15.007571,13.28125 11.5,11.947463 11.5,10.3125 C 11.5,8.677525 15.007571,7.34375 19.34375,7.34375 z"
       id="path3668" />
    <path
       style="opacity:0.45;fill:url(#linearGradient3786);fill-opacity:1;fill-rule:nonzero;stroke:none;stroke-width:1;stroke-linecap:round;stroke-linejoin:round;stroke-miterlimit:4;stroke-opacity:1"
       d="M 19.34375,7.34375 C 15.007571,7.34375 11.500001,8.6775233 11.5,10.3125 C 11.5,10.93941 12.023758,11.521107 12.90625,12 C 14.325271,11.229949 16.670235,10.71875 19.34375,10.71875 C 22.018258,10.71875 24.393655,11.229466 25.8125,12 C 26.694028,11.521271 27.21875,10.939036 27.21875,10.3125 C 27.21875,8.6775235 23.679929,7.34375 19.34375,7.34375 z"
       id="path3654" />
    <path
       style="opacity:0.45;fill:url(#linearGradient3794);fill-opacity:1;fill-rule:nonzero;stroke:none;stroke-width:1;stroke-linecap:round;stroke-linejoin:round;stroke-miterlimit:4;stroke-opacity:1"
       d="M 19.34375,10.71875 C 16.670235,10.71875 14.325271,11.229949 12.90625,12 C 14.325271,12.770046 16.670235,13.28125 19.34375,13.28125 C 22.018258,13.28125 24.393655,12.770529 25.8125,12 C 24.393655,11.229466 22.018258,10.71875 19.34375,10.71875 z"
       id="path3660" />
    <path
       style="opacity:0.5;fill:url(#radialGradient3815);fill-opacity:1;fill-rule:nonzero;stroke:none;stroke-width:1;stroke-linecap:round;stroke-linejoin:round;stroke-miterlimit:4;stroke-opacity:1"
       d="M 19.34375,6.34375 C 13.539731,6.34375 8.84375,8.124071 8.84375,10.3125 C 8.84375,10.458395 8.84375,11.042049 8.84375,11.1875 C 8.84375,13.375923 13.539731,15.15625 19.34375,15.15625 C 25.147769,15.15625 29.875,13.375923 29.875,11.1875 C 29.875,11.041558 29.875,10.458989 29.875,10.3125 C 29.875,8.12407 25.147769,6.343749 19.34375,6.34375 z M 19.34375,7.34375 C 23.679929,7.343751 27.21875,8.677524 27.21875,10.3125 C 27.21875,11.947464 23.679929,13.28125 19.34375,13.28125 C 15.007571,13.28125 11.5,11.947463 11.5,10.3125 C 11.5,8.677525 15.007571,7.34375 19.34375,7.34375 z"
       id="path3804" />
    <path
       id="path3598"
       d="M 27.204865,10.30613 C 27.204865,11.941093 23.685655,13.268032 19.349476,13.268032 C 15.013297,13.268032 11.494082,11.941093 11.494082,10.30613 C 11.494082,8.671154 15.013297,7.344216 19.349476,7.344216 C 23.685655,7.344216 27.204865,8.671154 27.204865,10.30613 z"
       style="opacity:0.5;fill:url(#linearGradient3614);fill-opacity:1;fill-rule:nonzero;stroke:none;stroke-width:1;stroke-linecap:round;stroke-linejoin:round;stroke-miterlimit:4;stroke-opacity:1" />
    <path
       style="opacity:0.35;fill:url(#linearGradient3885);fill-opacity:1;fill-rule:nonzero;stroke:none;stroke-width:1;stroke-linecap:round;stroke-linejoin:round;stroke-miterlimit:4;stroke-opacity:1"
       d="M 19.34375,7.34375 C 18.984185,7.34375 18.626853,7.3569398 18.28125,7.375 C 18.113986,7.383733 17.944986,7.3936061 17.78125,7.40625 C 17.48295,7.4292852 17.191215,7.4645965 16.90625,7.5 C 16.387501,7.566127 15.869481,7.6458345 15.40625,7.75 C 15.118988,7.8145957 14.856079,7.8911908 14.59375,7.96875 C 14.340324,8.0421669 14.07143,8.1344541 13.84375,8.21875 C 13.609096,8.3079985 13.391737,8.4003363 13.1875,8.5 C 12.983263,8.5996637 12.796076,8.7036954 12.625,8.8125 C 14.053216,8.0156089 16.477766,7.5 19.21875,7.5 C 23.604326,7.5000002 27.15625,8.8463985 27.15625,10.5 C 27.15625,10.53403 27.159241,10.559993 27.15625,10.59375 C 27.183084,10.49422 27.21875,10.414685 27.21875,10.3125 C 27.21875,10.005942 27.073382,9.7156827 26.84375,9.4375 C 26.767206,9.3447724 26.69317,9.2448297 26.59375,9.15625 C 25.395198,8.0913705 22.595884,7.34375 19.34375,7.34375 z M 19.34375,10.3125 C 16.467234,10.3125 13.993609,10.910813 12.625,11.78125 C 14.053216,10.984359 16.477766,10.46875 19.21875,10.46875 C 22.082376,10.46875 24.572767,11.047454 25.96875,11.90625 C 26.025284,11.87296 26.071949,11.84668 26.125,11.8125 C 24.759542,10.926501 22.247195,10.3125 19.34375,10.3125 z"
       id="path3870" />
    <path
       id="path3663"
       d="M 19.34375,6.1875 C 12.777946,6.1875 7.4687501,8.385559 7.46875,11.09375 C 7.46875,13.801942 12.777945,16 19.34375,16 C 25.909554,16 31.25,13.801942 31.25,11.09375 C 31.25,8.385559 25.909553,6.1875 19.34375,6.1875 z M 19.34375,6.34375 C 25.147769,6.34375 29.875,8.124069 29.875,10.3125 C 29.875,10.458989 29.875,11.041558 29.875,11.1875 C 29.875,13.375923 25.147769,15.15625 19.34375,15.15625 C 13.539731,15.15625 8.84375,13.375923 8.84375,11.1875 C 8.84375,11.042049 8.84375,10.458395 8.84375,10.3125 C 8.84375,8.124069 13.539731,6.34375 19.34375,6.34375 z"
       style="opacity:0.5;fill:url(#linearGradient3667);fill-opacity:1;fill-rule:nonzero;stroke:none;stroke-width:1;stroke-linecap:round;stroke-linejoin:round;stroke-miterlimit:4;stroke-opacity:1" />
    <path
       style="opacity:1;fill:#ffffff;fill-opacity:1;fill-rule:nonzero;stroke:none;stroke-width:1;stroke-linecap:round;stroke-linejoin:round;stroke-miterlimit:4;stroke-opacity:1"
       d="M 28.46875,18.03125 C 28.424363,18.046129 28.382286,18.067168 28.34375,18.09375 C 26.742884,18.982606 24.587488,19.59342 20.78125,19.71875 C 20.517393,19.735298 20.312008,19.954375 20.3125,20.21875 L 20.3125,33.59375 C 20.312245,33.73195 20.368112,33.874032 20.46875,33.96875 C 20.569387,34.063467 20.705819,34.102373 20.84375,34.09375 C 24.756984,33.925387 27.09065,33.091576 28.84375,32 C 28.99984,31.909879 29.095353,31.742731 29.09375,31.5625 L 29.09375,18.53125 C 29.098751,18.373844 29.029225,18.22338 28.90625,18.125 C 28.783275,18.026619 28.621219,17.991819 28.46875,18.03125 z M 28.59375,18.53125 L 28.59375,31.5625 C 26.911136,32.610188 24.663484,33.428065 20.8125,33.59375 L 20.8125,20.21875 C 24.666428,20.09185 26.910822,19.46567 28.59375,18.53125 z"
       id="path3781" />
    <path
       style="opacity:0.15;fill:url(#linearGradient3934);fill-opacity:1;fill-rule:nonzero;stroke:none;stroke-width:1;stroke-linecap:round;stroke-linejoin:round;stroke-miterlimit:4;stroke-opacity:1"
       d="M 30.84375,14.75 C 28.61074,16.669202 24.300768,17.96875 19.34375,17.96875 C 14.41077,17.96875 10.117272,16.685167 7.875,14.78125 C 7.875,19.645375 7.875,28.570208 7.875,29.65625 C 7.875,32.472943 13.005971,34.750001 19.34375,34.75 C 25.681529,34.75 30.843753,32.472944 30.84375,29.65625 C 30.84375,28.566943 30.84375,19.600885 30.84375,14.75 z"
       id="path2760" />
    <path
       style="opacity:0.35;fill:url(#linearGradient3807);fill-opacity:1;fill-rule:nonzero;stroke:none;stroke-width:1;stroke-linecap:round;stroke-linejoin:round;stroke-miterlimit:4;stroke-opacity:1"
       d="M 30.84375,14.75 C 28.61074,16.669202 24.300768,17.96875 19.34375,17.96875 C 14.41077,17.96875 10.117272,16.685167 7.875,14.78125 C 7.875,19.461438 7.875,27.494718 7.875,29.09375 C 7.875,31.910444 13.005971,34.187501 19.34375,34.1875 C 25.681529,34.187499 30.843753,31.910444 30.84375,29.09375 C 30.84375,27.489942 30.84375,19.417833 30.84375,14.75 z"
       id="path3779" />
    <rect
       height="10.004759"
       x="-0.0019644466"
       y="30"
       width="40.001965"
       id="rect3604"
       style="opacity:0.61162792;fill:#555753;fill-opacity:1;fill-rule:nonzero;stroke:none;stroke-width:0.69999999;stroke-linecap:round;stroke-linejoin:miter;stroke-miterlimit:4;stroke-dasharray:none;stroke-opacity:1" />
    <text
       x="12.125"
       y="39.168156"
       id="text3598"
       style="font-size:12px;font-style:normal;font-weight:normal;fill:#eeeeec;fill-opacity:1;stroke:none;stroke-width:1px;stroke-linecap:butt;stroke-linejoin:miter;stroke-opacity:1;font-family:Bitstream Vera Sans"
       xml:space="preserve"><tspan
         x="12.125"
         y="39.168156"
         id="tspan3600"
         sodipodi:role="line">Co</tspan></text>
  </g>
</svg>
