<?xml version="1.0" encoding="UTF-8" standalone="no"?>
<!-- Created with Inkscape (http://www.inkscape.org/) -->
<svg
   xmlns:dc="http://purl.org/dc/elements/1.1/"
   xmlns:cc="http://creativecommons.org/ns#"
   xmlns:rdf="http://www.w3.org/1999/02/22-rdf-syntax-ns#"
   xmlns:svg="http://www.w3.org/2000/svg"
   xmlns="http://www.w3.org/2000/svg"
   xmlns:xlink="http://www.w3.org/1999/xlink"
   xmlns:sodipodi="http://sodipodi.sourceforge.net/DTD/sodipodi-0.dtd"
   xmlns:inkscape="http://www.inkscape.org/namespaces/inkscape"
   width="40"
   height="40"
   id="svg2193"
   sodipodi:version="0.32"
   inkscape:version="0.46"
   version="1.0"
   sodipodi:docbase="/home/jra/Desktop"
   sodipodi:docname="29.svg"
   inkscape:output_extension="org.inkscape.output.svg.inkscape">
  <sodipodi:namedview
     id="base"
     pagecolor="#ffffff"
     bordercolor="#666666"
     borderopacity="1.0"
     inkscape:pageopacity="0.0"
     inkscape:pageshadow="2"
     inkscape:zoom="20.683511"
     inkscape:cx="22.605716"
     inkscape:cy="10.756674"
     inkscape:current-layer="layer1"
     showgrid="false"
     inkscape:grid-bbox="true"
     inkscape:document-units="px"
     width="40px"
     height="40px"
     inkscape:window-width="1604"
     inkscape:window-height="1119"
     inkscape:window-x="131"
     inkscape:window-y="14">
    <inkscape:grid
       id="GridFromPre046Settings"
       type="xygrid"
       originx="0px"
       originy="0px"
       spacingx="1px"
       spacingy="1px"
       color="#0000ff"
       empcolor="#0000ff"
       opacity="0.2"
       empopacity="0.4"
       empspacing="2" />
  </sodipodi:namedview>
  <defs
     id="defs2195">
    <linearGradient
       id="linearGradient3364">
      <stop
         id="stop3366"
         offset="0"
         style="stop-color:#000000;stop-opacity:1;" />
      <stop
         id="stop3372"
         offset="0.71428573"
         style="stop-color:#ffffff;stop-opacity:0.18128654;" />
      <stop
         id="stop3374"
         offset="1"
         style="stop-color:#000000;stop-opacity:1;" />
    </linearGradient>
    <linearGradient
       id="linearGradient3530">
      <stop
         style="stop-color:#000000;stop-opacity:1;"
         offset="0"
         id="stop3532" />
      <stop
         id="stop3534"
         offset="0.79308778"
         style="stop-color:#ffffff;stop-opacity:0.66666669;" />
      <stop
         id="stop3536"
         offset="0.87429023"
         style="stop-color:#000000;stop-opacity:0.53801167;" />
      <stop
         style="stop-color:#000000;stop-opacity:1;"
         offset="0.92657268"
         id="stop3538" />
      <stop
         style="stop-color:#000000;stop-opacity:0;"
         offset="1"
         id="stop3540" />
    </linearGradient>
    <linearGradient
       id="linearGradient3518">
      <stop
         id="stop3520"
         offset="0"
         style="stop-color:#000000;stop-opacity:0.99619772" />
      <stop
         style="stop-color:#ffffff;stop-opacity:1;"
         offset="0.25"
         id="stop3522" />
      <stop
         style="stop-color:#000000;stop-opacity:1;"
         offset="0.5"
         id="stop3524" />
      <stop
         id="stop3526"
         offset="0.75"
         style="stop-color:#000000;stop-opacity:1;" />
      <stop
         id="stop3528"
         offset="1"
         style="stop-color:#a6a6a6;stop-opacity:1;" />
    </linearGradient>
    <linearGradient
       id="linearGradient3910">
      <stop
         style="stop-color:#ffffff;stop-opacity:0.46103895;"
         offset="0"
         id="stop3912" />
      <stop
         id="stop3918"
         offset="0.5"
         style="stop-color:#ffffff;stop-opacity:1;" />
      <stop
         style="stop-color:#ffffff;stop-opacity:0.50649351;"
         offset="1"
         id="stop3914" />
    </linearGradient>
    <linearGradient
       id="linearGradient3827">
      <stop
         style="stop-color:#000000;stop-opacity:1;"
         offset="0"
         id="stop3829" />
      <stop
         id="stop3839"
         offset="0.25"
         style="stop-color:#ffffff;stop-opacity:1;" />
      <stop
         id="stop3835"
         offset="0.5"
         style="stop-color:#000000;stop-opacity:1;" />
      <stop
         style="stop-color:#000000;stop-opacity:1;"
         offset="0.75"
         id="stop3837" />
      <stop
         style="stop-color:#a6a6a6;stop-opacity:1;"
         offset="1"
         id="stop3831" />
    </linearGradient>
    <linearGradient
       id="linearGradient3239"
       inkscape:collect="always">
      <stop
         offset="0"
         style="stop-color:#eeeeec;stop-opacity:1;"
         id="stop3241" />
      <stop
         offset="1"
         style="stop-color:#eeeeec;stop-opacity:0;"
         id="stop3243" />
    </linearGradient>
    <linearGradient
       id="linearGradient3291">
      <stop
         offset="0"
         style="stop-color:#000000;stop-opacity:1;"
         id="stop3293" />
      <stop
         offset="1"
         style="stop-color:#000000;stop-opacity:0;"
         id="stop3295" />
    </linearGradient>
    <linearGradient
       inkscape:collect="always"
       xlink:href="#linearGradient3827"
       id="linearGradient4114"
       x1="7.875"
       y1="11.078125"
       x2="30.84375"
       y2="11.078125"
       gradientUnits="userSpaceOnUse"
       gradientTransform="translate(0,2)" />
    <linearGradient
       inkscape:collect="always"
       xlink:href="#linearGradient3518"
       id="linearGradient4122"
       x1="7.875"
       y1="30.140625"
       x2="30.84375"
       y2="30.140625"
       gradientUnits="userSpaceOnUse"
       gradientTransform="translate(0,2)" />
    <linearGradient
       inkscape:collect="always"
       xlink:href="#linearGradient3239"
       id="linearGradient4130"
       x1="1.9878314"
       y1="9.7751637"
       x2="33.892376"
       y2="-4.2027678"
       gradientUnits="userSpaceOnUse"
       gradientTransform="translate(0,2)" />
    <linearGradient
       inkscape:collect="always"
       xlink:href="#linearGradient3910"
       id="linearGradient4158"
       gradientUnits="userSpaceOnUse"
       x1="6.2928052"
       y1="8.8863039"
       x2="25.87628"
       y2="0.08803384"
       gradientTransform="matrix(0.390662,0,0,0.390662,11.794266,6.5772812)" />
    <linearGradient
       inkscape:collect="always"
       xlink:href="#linearGradient3827"
       id="linearGradient4160"
       gradientUnits="userSpaceOnUse"
       x1="7.875"
       y1="11.078125"
       x2="30.84375"
       y2="11.078125"
       gradientTransform="matrix(0.390662,0,0,0.390662,11.794266,6.5772812)" />
    <linearGradient
       inkscape:collect="always"
       xlink:href="#linearGradient3239"
       id="linearGradient4168"
       x1="-2.1075978"
       y1="33.360424"
       x2="27.014809"
       y2="23.377827"
       gradientUnits="userSpaceOnUse"
       gradientTransform="translate(0,2)" />
    <radialGradient
       inkscape:collect="always"
       xlink:href="#linearGradient3291"
       id="radialGradient4172"
       gradientUnits="userSpaceOnUse"
       gradientTransform="matrix(1,0,0,0.197802,0,92.82166)"
       cx="63.912209"
       cy="115.70919"
       fx="75.857941"
       fy="115.70919"
       r="63.912209" />
    <radialGradient
       inkscape:collect="always"
       xlink:href="#linearGradient3530"
       id="radialGradient3531"
       gradientUnits="userSpaceOnUse"
       gradientTransform="matrix(0.7374357,-0.7326843,0.3013828,0.3177236,11.047693,17.211244)"
       cx="7.0098743"
       cy="25.867176"
       fx="7.0098743"
       fy="25.867176"
       r="8.90625" />
    <linearGradient
       inkscape:collect="always"
       xlink:href="#linearGradient3518"
       id="linearGradient3889"
       gradientUnits="userSpaceOnUse"
       gradientTransform="translate(40,22)"
       x1="-29.5625"
       y1="0.85728937"
       x2="-11.75"
       y2="0.85728937" />
    <radialGradient
       inkscape:collect="always"
       xlink:href="#linearGradient3364"
       id="radialGradient3936"
       gradientUnits="userSpaceOnUse"
       gradientTransform="matrix(1.0971695,-5.4807063e-3,3.1178399e-3,0.3418089,11.21362,5.715701)"
       cx="7.0098743"
       cy="25.867176"
       fx="7.0098743"
       fy="25.867176"
       r="8.90625" />
    <radialGradient
       inkscape:collect="always"
       xlink:href="#linearGradient3364"
       id="radialGradient2548"
       gradientUnits="userSpaceOnUse"
       gradientTransform="matrix(1.0971695,-5.4807063e-3,3.1178399e-3,0.3418089,11.21362,6.672937)"
       cx="7.0098743"
       cy="25.867176"
       fx="7.0098743"
       fy="25.867176"
       r="8.90625" />
    <radialGradient
       inkscape:collect="always"
       xlink:href="#linearGradient3364"
       id="radialGradient2550"
       gradientUnits="userSpaceOnUse"
       gradientTransform="matrix(1.0971695,-5.8474503e-3,3.1178399e-3,0.3646812,11.21362,7.109311)"
       cx="7.0098743"
       cy="25.867176"
       fx="7.0098743"
       fy="25.867176"
       r="8.90625" />
    <radialGradient
       inkscape:collect="always"
       xlink:href="#linearGradient3364"
       id="radialGradient2552"
       gradientUnits="userSpaceOnUse"
       gradientTransform="matrix(1.0971695,-5.8474503e-3,3.1178399e-3,0.3646812,11.21362,8.271669)"
       cx="7.0098743"
       cy="25.867176"
       fx="7.0098743"
       fy="25.867176"
       r="8.90625" />
    <radialGradient
       inkscape:collect="always"
       xlink:href="#linearGradient3364"
       id="radialGradient2554"
       gradientUnits="userSpaceOnUse"
       gradientTransform="matrix(1.0971695,-5.8474503e-3,3.1178399e-3,0.3646812,11.21362,9.228905)"
       cx="7.0098743"
       cy="25.867176"
       fx="7.0098743"
       fy="25.867176"
       r="8.90625" />
    <radialGradient
       inkscape:collect="always"
       xlink:href="#linearGradient3364"
       id="radialGradient2556"
       gradientUnits="userSpaceOnUse"
       gradientTransform="matrix(1.0971695,-6.3975667e-3,3.1178399e-3,0.3989897,11.21362,9.062982)"
       cx="7.0098743"
       cy="25.867176"
       fx="7.0098743"
       fy="25.867176"
       r="8.90625" />
    <radialGradient
       inkscape:collect="always"
       xlink:href="#linearGradient3364"
       id="radialGradient2558"
       gradientUnits="userSpaceOnUse"
       gradientTransform="matrix(1.0971695,-6.3975667e-3,3.1178399e-3,0.3989897,11.21362,10.498836)"
       cx="7.0098743"
       cy="25.867176"
       fx="7.0098743"
       fy="25.867176"
       r="8.90625" />
    <radialGradient
       inkscape:collect="always"
       xlink:href="#linearGradient3364"
       id="radialGradient2560"
       gradientUnits="userSpaceOnUse"
       gradientTransform="matrix(1.0971695,-6.3975667e-3,3.1178399e-3,0.3989897,11.21362,11.661195)"
       cx="7.0098743"
       cy="25.867176"
       fx="7.0098743"
       fy="25.867176"
       r="8.90625" />
    <radialGradient
       inkscape:collect="always"
       xlink:href="#linearGradient3364"
       id="radialGradient2562"
       gradientUnits="userSpaceOnUse"
       gradientTransform="matrix(1.0971695,-6.3975667e-3,3.1178399e-3,0.3989897,11.21362,12.755179)"
       cx="7.0098743"
       cy="25.867176"
       fx="7.0098743"
       fy="25.867176"
       r="8.90625" />
    <radialGradient
       inkscape:collect="always"
       xlink:href="#linearGradient3364"
       id="radialGradient2564"
       gradientUnits="userSpaceOnUse"
       gradientTransform="matrix(1.0971695,-6.7643107e-3,3.1178399e-3,0.421862,11.21362,13.191553)"
       cx="7.0098743"
       cy="25.867176"
       fx="7.0098743"
       fy="25.867176"
       r="8.90625" />
    <radialGradient
       inkscape:collect="always"
       xlink:href="#linearGradient3364"
       id="radialGradient2566"
       gradientUnits="userSpaceOnUse"
       gradientTransform="matrix(1.0971695,-6.7643107e-3,3.1178399e-3,0.421862,11.21362,14.353911)"
       cx="7.0098743"
       cy="25.867176"
       fx="7.0098743"
       fy="25.867176"
       r="8.90625" />
    <radialGradient
       inkscape:collect="always"
       xlink:href="#linearGradient3364"
       id="radialGradient2568"
       gradientUnits="userSpaceOnUse"
       gradientTransform="matrix(1.0971695,-7.1310548e-3,3.1178399e-3,0.4447343,11.21362,14.790286)"
       cx="7.0098743"
       cy="25.867176"
       fx="7.0098743"
       fy="25.867176"
       r="8.90625" />
    <radialGradient
       inkscape:collect="always"
       xlink:href="#linearGradient3364"
       id="radialGradient2570"
       gradientUnits="userSpaceOnUse"
       gradientTransform="matrix(1.0971695,-7.4061126e-3,3.1178399e-3,0.4618885,11.21362,15.220126)"
       cx="7.0098743"
       cy="25.867176"
       fx="7.0098743"
       fy="25.867176"
       r="8.90625" />
    <radialGradient
       inkscape:collect="always"
       xlink:href="#linearGradient3364"
       id="radialGradient2572"
       gradientUnits="userSpaceOnUse"
       gradientTransform="matrix(1.0971695,-7.4061126e-3,3.1178399e-3,0.4618885,11.21362,16.177362)"
       cx="7.0098743"
       cy="25.867176"
       fx="7.0098743"
       fy="25.867176"
       r="8.90625" />
  </defs>
  <metadata
     id="metadata2198">
    <rdf:RDF>
      <cc:Work
         rdf:about="">
        <dc:format>image/svg+xml</dc:format>
        <dc:type
           rdf:resource="http://purl.org/dc/dcmitype/StillImage" />
        <dc:creator>
          <cc:Agent>
            <dc:title>Jarle Akselsen</dc:title>
          </cc:Agent>
        </dc:creator>
        <cc:license
           rdf:resource="http://creativecommons.org/licenses/GPL/2.0/" />
      </cc:Work>
      <cc:License
         rdf:about="http://creativecommons.org/licenses/GPL/2.0/">
        <cc:permits
           rdf:resource="http://web.resource.org/cc/Reproduction" />
        <cc:permits
           rdf:resource="http://web.resource.org/cc/Distribution" />
        <cc:requires
           rdf:resource="http://web.resource.org/cc/Notice" />
        <cc:permits
           rdf:resource="http://web.resource.org/cc/DerivativeWorks" />
        <cc:requires
           rdf:resource="http://web.resource.org/cc/ShareAlike" />
        <cc:requires
           rdf:resource="http://web.resource.org/cc/SourceCode" />
      </cc:License>
    </rdf:RDF>
  </metadata>
  <g
     inkscape:label="Layer 1"
     id="layer1"
     inkscape:groupmode="layer">
    <path
       sodipodi:ry="12.641975"
       sodipodi:rx="63.912209"
       transform="matrix(0.2097573,0,0,0.39775,6.877569,-12.723158)"
       d="M 127.82442,115.70919 A 63.912209,12.641975 0 1 1 0,115.70919 A 63.912209,12.641975 0 1 1 127.82442,115.70919 z"
       sodipodi:type="arc"
       sodipodi:cy="115.70919"
       sodipodi:cx="63.912209"
       id="path4170"
       style="opacity:0.38139535;fill:url(#radialGradient4172);fill-opacity:1;fill-rule:nonzero;stroke:none;stroke-width:0;stroke-linecap:round;stroke-linejoin:round;stroke-miterlimit:4;stroke-dasharray:none;stroke-dashoffset:4;stroke-opacity:1" />
    <path
       style="opacity:0.98999999;fill:#323232;fill-opacity:1;fill-rule:nonzero;stroke:none;stroke-width:1;stroke-linecap:round;stroke-linejoin:round;stroke-miterlimit:4;stroke-opacity:1"
       d="M 19.34375,6.5625 C 13.005971,6.5625 7.875,8.4853141 7.875,10.875 C 7.875,11.105962 7.875,12.014816 7.875,12.25 C 7.875,13.412788 9.084914,14.476026 11.0625,15.25 C 11.0625,19.152822 11.0625,23.564223 11.0625,26.125 C 9.083178,27.039994 7.875,28.285009 7.875,29.65625 C 7.875,29.888677 7.875,30.767573 7.875,31 C 7.875,33.816694 13.005971,36.125001 19.34375,36.125 C 25.681529,36.125 30.84375,33.816693 30.84375,31 C 30.84375,30.768491 30.84375,29.887759 30.84375,29.65625 C 30.84375,28.283769 29.6151,27.040226 27.625,26.125 C 27.625,23.564059 27.625,19.15277 27.625,15.25 C 29.613579,14.475816 30.84375,13.413912 30.84375,12.25 C 30.84375,12.016954 30.84375,11.103769 30.84375,10.875 C 30.84375,8.4853139 25.681529,6.5624999 19.34375,6.5625 z"
       id="path3391" />
    <path
       style="opacity:0.50000000000000000;fill:url(#linearGradient4168);fill-opacity:1;fill-rule:nonzero;stroke:none;stroke-width:1;stroke-linecap:round;stroke-linejoin:round;stroke-miterlimit:4;stroke-opacity:1"
       d="M 11.0625,26.125 C 9.080081,27.042172 7.875,28.285008 7.875,29.65625 C 7.875,32.472943 13.005971,34.750001 19.34375,34.75 C 25.681529,34.75 30.84375,32.472944 30.84375,29.65625 C 30.84375,28.283769 29.610591,27.042406 27.625,26.125 C 27.625,26.595978 27.625,27.978312 27.625,28.125 C 27.625001,30.158875 23.920128,31.8125 19.34375,31.8125 C 14.767372,31.812499 11.0625,30.158875 11.0625,28.125 C 11.0625,27.978386 11.0625,26.595948 11.0625,26.125 z"
       id="path3599" />
    <path
       style="opacity:0.5;fill:url(#linearGradient4122);fill-opacity:1;fill-rule:nonzero;stroke:none;stroke-width:1;stroke-linecap:round;stroke-linejoin:round;stroke-miterlimit:4;stroke-opacity:1"
       d="M 30.3125,28.15625 C 30.536254,28.475747 30.702808,28.782062 30.78125,29.125 C 30.704306,28.789897 30.528881,28.468826 30.3125,28.15625 z M 7.875,29.65625 C 7.875,29.888677 7.875,30.767573 7.875,31 C 7.875,33.816694 13.005971,36.125001 19.34375,36.125 C 25.681529,36.125 30.84375,33.816693 30.84375,31 C 30.84375,30.768491 30.84375,29.887759 30.84375,29.65625 C 30.84375,32.472944 25.681529,34.75 19.34375,34.75 C 13.005971,34.750001 7.875,32.472943 7.875,29.65625 z"
       id="path3377" />
    <path
       style="fill:#e96840;fill-opacity:1;fill-rule:nonzero;stroke:none;stroke-width:1;stroke-linecap:round;stroke-linejoin:round;stroke-miterlimit:4;stroke-dasharray:none;stroke-opacity:1"
       d="M 27.625,13.53125 C 27.320312,13.48894 27.03125,13.749046 27.03125,14.3125 C 27.031251,15.608144 23.580446,16.65625 19.34375,16.65625 C 15.107055,16.656249 11.6875,15.608144 11.6875,14.3125 C 11.687502,13.266712 10.437501,13.305048 10.4375,14.65625 C 10.4375,14.797723 10.472203,14.926256 10.53125,15.0625 C 10.476491,15.212394 10.4375,15.375345 10.4375,15.59375 C 10.4375,15.738655 10.469356,15.891848 10.53125,16.03125 C 10.472043,16.194934 10.4375,16.412911 10.4375,16.65625 C 10.4375,16.828753 10.485761,16.99117 10.5625,17.15625 C 10.48768,17.330422 10.4375,17.534962 10.4375,17.8125 C 10.4375,17.954815 10.478654,18.081358 10.53125,18.21875 C 10.484178,18.371188 10.4375,18.535599 10.4375,18.75 C 10.4375,18.866439 10.433332,19.011781 10.46875,19.125 C 10.451138,19.239794 10.4375,19.361386 10.4375,19.5 C 10.4375,19.7141 10.495524,19.921558 10.59375,20.125 C 10.50029,20.324408 10.4375,20.592478 10.4375,20.9375 C 10.4375,21.107972 10.468399,21.273559 10.53125,21.4375 C 10.474029,21.614798 10.4375,21.832519 10.4375,22.09375 C 10.4375,22.255335 10.474676,22.406742 10.53125,22.5625 C 10.479751,22.734173 10.4375,22.941056 10.4375,23.1875 C 10.4375,23.336158 10.451985,23.481223 10.5,23.625 C 10.460924,23.790489 10.4375,23.994658 10.4375,24.21875 C 10.4375,24.398995 10.468399,24.576661 10.53125,24.75 C 10.481059,24.930041 10.4375,25.11809 10.4375,25.375 C 10.4375,25.53218 10.451985,25.691731 10.5,25.84375 C 10.46582,26.009998 10.4375,26.186491 10.4375,26.40625 C 10.4375,26.547067 10.433912,26.706792 10.46875,26.84375 C 10.449623,26.981268 10.4375,27.113668 10.4375,27.28125 C 10.4375,27.439623 10.459235,27.596367 10.5,27.75 C 10.475119,27.902942 10.4375,28.057406 10.4375,28.25 C 10.4375,30.434839 14.42769,32.21875 19.34375,32.21875 C 24.259809,32.21875 28.25,30.43484 28.25,28.25 C 28.25,28.055479 28.20954,27.906301 28.1875,27.75 C 28.228265,27.596367 28.25,27.439623 28.25,27.28125 C 28.25,27.099938 28.238044,26.960584 28.21875,26.8125 C 28.249175,26.68436 28.25,26.537731 28.25,26.40625 C 28.25,26.172708 28.220825,25.988966 28.1875,25.8125 C 28.230025,25.669246 28.25,25.522784 28.25,25.375 C 28.25,25.105401 28.204076,24.908381 28.15625,24.71875 C 28.212824,24.554063 28.25,24.389598 28.25,24.21875 C 28.25,23.997219 28.220825,23.79239 28.1875,23.625 C 28.235515,23.481223 28.25,23.336158 28.25,23.1875 C 28.25,22.944003 28.200217,22.736977 28.15625,22.5625 C 28.212824,22.406742 28.25,22.255335 28.25,22.09375 C 28.25,21.83553 28.205187,21.618169 28.15625,21.4375 C 28.219101,21.273559 28.25,21.107972 28.25,20.9375 C 28.25,20.581882 28.180191,20.303135 28.09375,20.09375 C 28.184161,19.898262 28.25,19.705213 28.25,19.5 C 28.25,19.349248 28.236694,19.217901 28.21875,19.09375 C 28.249175,18.988675 28.25,18.857814 28.25,18.75 C 28.25,18.54312 28.225945,18.371065 28.1875,18.21875 C 28.237006,18.085359 28.25,17.950502 28.25,17.8125 C 28.25,17.539606 28.188562,17.334608 28.125,17.15625 C 28.201739,16.99117 28.25,16.828753 28.25,16.65625 C 28.25,16.413026 28.207932,16.199232 28.15625,16.03125 C 28.218144,15.891848 28.25,15.738655 28.25,15.59375 C 28.25,15.380192 28.202145,15.214107 28.15625,15.0625 C 28.215297,14.926256 28.25,14.797723 28.25,14.65625 C 28.25,13.938277 27.929688,13.57356 27.625,13.53125 z"
       id="path3990"
       sodipodi:nodetypes="csssscscscscssscscscscscscssscssssssscscscscscscssscscscscsc" />
    <path
       style="opacity:0.60836499;fill:url(#radialGradient2572);fill-opacity:1;fill-rule:nonzero;stroke:none;stroke-width:1;stroke-linecap:round;stroke-linejoin:round;stroke-miterlimit:4;stroke-dasharray:none;stroke-opacity:1"
       d="M 28.1875,27.71875 C 27.692993,29.697331 23.924047,31.250001 19.34375,31.25 C 14.784041,31.25 11.021609,29.715816 10.5,27.75 C 10.475119,27.899213 10.4375,28.062196 10.4375,28.25 C 10.4375,30.434839 14.42769,32.21875 19.34375,32.21875 C 24.259809,32.21875 28.25,30.43484 28.25,28.25 C 28.25,28.048848 28.210023,27.879859 28.1875,27.71875 z"
       id="path3992" />
    <path
       style="opacity:0.60836499;fill:url(#radialGradient2570);fill-opacity:1;fill-rule:nonzero;stroke:none;stroke-width:1;stroke-linecap:round;stroke-linejoin:round;stroke-miterlimit:4;stroke-dasharray:none;stroke-opacity:1"
       d="M 10.5,26.84375 C 10.478526,26.984414 10.4375,27.107545 10.4375,27.28125 C 10.4375,29.46609 14.42769,31.25 19.34375,31.25 C 24.259809,31.250001 28.25,29.46609 28.25,27.28125 C 28.25,27.116317 28.2342,26.981714 28.21875,26.84375 C 27.733129,28.752841 23.930739,30.25 19.34375,30.25 C 14.765851,30.25 10.997684,28.747416 10.5,26.84375 z"
       id="path3998" />
    <path
       style="opacity:0.60836499;fill:url(#radialGradient2568);fill-opacity:1;fill-rule:nonzero;stroke:none;stroke-width:1;stroke-linecap:round;stroke-linejoin:round;stroke-miterlimit:4;stroke-dasharray:none;stroke-opacity:1"
       d="M 28.1875,25.8125 C 27.78073,27.182793 25.469467,28.321424 22.375,28.78125 C 22.364329,28.783051 22.354446,28.779468 22.34375,28.78125 C 22.059677,28.822992 21.76535,28.876298 21.46875,28.90625 C 21.355791,28.919159 21.240019,28.926608 21.125,28.9375 C 20.547268,28.99221 19.963449,29.03125 19.34375,29.03125 C 18.722125,29.03125 18.140722,28.992541 17.5625,28.9375 C 17.15454,28.903398 16.760608,28.837274 16.375,28.78125 C 13.270988,28.330278 10.931734,27.210654 10.5,25.84375 C 10.46582,26.005965 10.4375,26.191956 10.4375,26.40625 C 10.4375,28.509945 14.42769,30.25 19.34375,30.25 C 24.259809,30.249999 28.25,28.509947 28.25,26.40625 C 28.25,26.179321 28.21782,25.986592 28.1875,25.8125 z"
       id="path4004" />
    <path
       style="opacity:0.60836499;fill:url(#radialGradient2566);fill-opacity:1;fill-rule:nonzero;stroke:none;stroke-width:1;stroke-linecap:round;stroke-linejoin:round;stroke-miterlimit:4;stroke-dasharray:none;stroke-opacity:1"
       d="M 28.15625,24.71875 C 27.761989,25.866435 26.022554,26.833327 23.625,27.375 C 23.222386,27.465962 22.81267,27.559964 22.375,27.625 C 22.364225,27.626725 22.35455,27.623293 22.34375,27.625 C 22.059677,27.666742 21.76535,27.720048 21.46875,27.75 C 21.355791,27.762245 21.240019,27.770918 21.125,27.78125 C 20.547268,27.833147 19.963449,27.875 19.34375,27.875 C 18.722125,27.875 18.140722,27.83346 17.5625,27.78125 C 17.15454,27.747148 16.760608,27.681024 16.375,27.625 C 15.915929,27.558303 15.483411,27.470095 15.0625,27.375 C 12.683868,26.837602 10.943141,25.885966 10.53125,24.75 C 10.479751,24.927151 10.4375,25.120909 10.4375,25.375 C 10.4375,27.370502 14.42769,29 19.34375,29 C 24.259809,29.000001 28.25,27.370505 28.25,25.375 C 28.25,25.114346 28.199443,24.906099 28.15625,24.71875 z"
       id="path4010" />
    <path
       style="opacity:0.60836499;fill:url(#radialGradient2564);fill-opacity:1;fill-rule:nonzero;stroke:none;stroke-width:1;stroke-linecap:round;stroke-linejoin:round;stroke-miterlimit:4;stroke-dasharray:none;stroke-opacity:1"
       d="M 10.53125,23.625 C 10.486155,23.794654 10.4375,23.982514 10.4375,24.21875 C 10.4375,26.214255 14.42769,27.84375 19.34375,27.84375 C 24.259809,27.843751 28.25,26.214255 28.25,24.21875 C 28.25,23.992281 28.220825,23.796027 28.1875,23.625 C 27.881741,24.540574 26.586655,25.331805 24.78125,25.875 C 24.620564,25.923346 24.481729,25.987155 24.3125,26.03125 C 24.253968,26.049961 24.185026,26.044445 24.125,26.0625 C 22.80674,26.459008 21.162473,26.6875 19.34375,26.6875 C 17.536726,26.687501 15.901547,26.48566 14.59375,26.09375 C 14.359923,26.036488 14.155887,25.940154 13.9375,25.875 C 12.12422,25.334023 10.845388,24.540606 10.53125,23.625 z"
       id="path4016" />
    <path
       style="opacity:0.60836499;fill:url(#radialGradient2562);fill-opacity:1;fill-rule:nonzero;stroke:none;stroke-width:1;stroke-linecap:round;stroke-linejoin:round;stroke-miterlimit:4;stroke-dasharray:none;stroke-opacity:1"
       d="M 28.15625,22.5625 C 27.762173,23.647452 26.020797,24.550048 23.625,25.0625 C 23.249713,25.142773 22.874708,25.222216 22.46875,25.28125 C 22.035957,25.344186 21.586786,25.400991 21.125,25.4375 C 20.547092,25.486615 19.963656,25.53125 19.34375,25.53125 C 18.7219,25.53125 18.140913,25.486914 17.5625,25.4375 C 17.154903,25.405275 16.760286,25.365421 16.375,25.3125 C 16.341413,25.307462 16.314588,25.286452 16.28125,25.28125 C 15.853979,25.22047 15.456159,25.146702 15.0625,25.0625 C 12.68562,24.554093 10.942947,23.667619 10.53125,22.59375 C 10.479751,22.761296 10.4375,22.947185 10.4375,23.1875 C 10.4375,25.074813 14.42769,26.625 19.34375,26.625 C 24.259809,26.625 28.25,25.074814 28.25,23.1875 C 28.25,22.938575 28.200217,22.740746 28.15625,22.5625 z"
       id="path4022" />
    <path
       style="opacity:0.60836499;fill:url(#radialGradient2560);fill-opacity:1;fill-rule:nonzero;stroke:none;stroke-width:1;stroke-linecap:round;stroke-linejoin:round;stroke-miterlimit:4;stroke-dasharray:none;stroke-opacity:1"
       d="M 10.5625,21.4375 C 10.497308,21.617101 10.4375,21.819791 10.4375,22.09375 C 10.4375,23.981062 14.42769,25.53125 19.34375,25.53125 C 24.259809,25.531249 28.25,23.981064 28.25,22.09375 C 28.25,21.829774 28.205187,21.622061 28.15625,21.4375 C 27.835773,22.273431 26.690245,23.004741 25.09375,23.53125 C 24.854576,23.627246 24.587157,23.69807 24.3125,23.78125 C 22.967873,24.188471 21.247595,24.4375 19.34375,24.4375 C 17.459088,24.4375 15.769678,24.181126 14.4375,23.78125 C 14.418193,23.775455 14.394142,23.787112 14.375,23.78125 C 14.351308,23.775077 14.336029,23.756258 14.3125,23.75 C 14.105293,23.685085 13.905067,23.634985 13.71875,23.5625 C 12.064514,23.036205 10.897029,22.289696 10.5625,21.4375 z"
       id="path4028" />
    <path
       style="opacity:0.60836499;fill:url(#radialGradient2558);fill-opacity:1;fill-rule:nonzero;stroke:none;stroke-width:1;stroke-linecap:round;stroke-linejoin:round;stroke-miterlimit:4;stroke-dasharray:none;stroke-opacity:1"
       d="M 28.09375,20.09375 C 27.860278,20.598565 27.336022,21.065473 26.59375,21.46875 C 25.538589,22.530658 22.686768,23.28125 19.34375,23.28125 C 16.033832,23.281249 13.227754,22.54535 12.15625,21.5 C 11.395781,21.096417 10.839082,20.63312 10.59375,20.125 C 10.49471,20.321506 10.4375,20.589482 10.4375,20.9375 C 10.4375,22.824814 14.42769,24.34375 19.34375,24.34375 C 24.259809,24.343751 28.25,22.824814 28.25,20.9375 C 28.25,20.573954 28.180191,20.307546 28.09375,20.09375 z"
       id="path4034" />
    <path
       style="opacity:0.60836499;fill:url(#radialGradient2556);fill-opacity:1;fill-rule:nonzero;stroke:none;stroke-width:1;stroke-linecap:round;stroke-linejoin:round;stroke-miterlimit:4;stroke-dasharray:none;stroke-opacity:1"
       d="M 10.5,19.125 C 10.479893,19.243293 10.4375,19.355071 10.4375,19.5 C 10.4375,21.387312 14.42769,22.90625 19.34375,22.90625 C 24.259809,22.906249 28.25,21.387314 28.25,19.5 C 28.25,19.357641 28.234176,19.244099 28.21875,19.125 C 27.729454,20.689099 23.927975,21.906251 19.34375,21.90625 C 14.771814,21.90625 11.005559,20.683085 10.5,19.125 z"
       id="path4040" />
    <path
       style="opacity:0.60836499;fill:url(#radialGradient2554);fill-opacity:1;fill-rule:nonzero;stroke:none;stroke-width:1;stroke-linecap:round;stroke-linejoin:round;stroke-miterlimit:4;stroke-dasharray:none;stroke-opacity:1"
       d="M 28.1875,18.21875 C 27.618187,19.752749 23.866524,20.937498 19.34375,20.9375 C 14.857845,20.9375 11.147025,19.765908 10.53125,18.25 C 10.484178,18.398765 10.4375,18.540931 10.4375,18.75 C 10.4375,20.475028 14.42769,21.90625 19.34375,21.90625 C 24.259809,21.906251 28.25,20.475027 28.25,18.75 C 28.25,18.539544 28.225599,18.373871 28.1875,18.21875 z"
       id="path4046" />
    <path
       style="opacity:0.60836499;fill:url(#radialGradient2552);fill-opacity:1;fill-rule:nonzero;stroke:none;stroke-width:1;stroke-linecap:round;stroke-linejoin:round;stroke-miterlimit:4;stroke-dasharray:none;stroke-opacity:1"
       d="M 28.125,17.125 C 27.855244,17.736178 27.061838,18.277191 25.9375,18.71875 C 24.596322,19.450636 22.153292,19.9375 19.34375,19.9375 C 16.578973,19.937499 14.189326,19.462514 12.84375,18.75 C 11.682746,18.308409 10.850084,17.774892 10.5625,17.15625 C 10.48768,17.32629 10.4375,17.541864 10.4375,17.8125 C 10.4375,19.537525 14.42769,20.9375 19.34375,20.9375 C 24.259809,20.937498 28.25,19.537527 28.25,17.8125 C 28.25,17.533523 28.188562,17.307168 28.125,17.125 z"
       id="path4052" />
    <path
       style="opacity:0.60836499;fill:url(#radialGradient2550);fill-opacity:1;fill-rule:nonzero;stroke:none;stroke-width:1;stroke-linecap:round;stroke-linejoin:round;stroke-miterlimit:4;stroke-dasharray:none;stroke-opacity:1"
       d="M 28.15625,16.03125 C 27.897504,16.614014 27.07821,17.142609 25.9375,17.5625 C 24.596322,18.294385 22.153292,18.78125 19.34375,18.78125 C 16.578973,18.781248 14.189326,18.306264 12.84375,17.59375 C 11.67617,17.177511 10.845814,16.646263 10.5625,16.0625 C 10.500977,16.224038 10.4375,16.413832 10.4375,16.65625 C 10.4375,18.381274 14.42769,19.78125 19.34375,19.78125 C 24.259809,19.781251 28.25,18.381277 28.25,16.65625 C 28.25,16.411534 28.206461,16.201312 28.15625,16.03125 z"
       id="path4058" />
    <path
       style="opacity:0.60836499;fill:url(#radialGradient2548);fill-opacity:1;fill-rule:nonzero;stroke:none;stroke-width:1;stroke-linecap:round;stroke-linejoin:round;stroke-miterlimit:4;stroke-dasharray:none;stroke-opacity:1"
       d="M 28.15625,15.0625 C 27.761901,15.972418 26.074956,16.745625 23.75,17.1875 C 23.439177,17.246574 23.145438,17.297179 22.8125,17.34375 C 22.28318,17.42557 21.71588,17.48822 21.125,17.53125 C 20.546984,17.573343 19.963783,17.625 19.34375,17.625 C 18.721759,17.625 18.141033,17.573601 17.5625,17.53125 C 16.967579,17.487699 16.406303,17.426761 15.875,17.34375 C 15.587054,17.303473 15.334052,17.268429 15.0625,17.21875 C 15.017252,17.209448 14.98205,17.197087 14.9375,17.1875 C 12.632437,16.749405 10.943745,15.993629 10.53125,15.09375 C 10.478242,15.238589 10.4375,15.384569 10.4375,15.59375 C 10.4375,17.210585 14.42769,18.53125 19.34375,18.53125 C 24.259809,18.531249 28.25,17.210586 28.25,15.59375 C 28.25,15.375432 28.202146,15.217378 28.15625,15.0625 z"
       id="path4064" />
    <path
       style="opacity:0.60836499;fill:url(#radialGradient3936);fill-opacity:1;fill-rule:nonzero;stroke:none;stroke-width:1;stroke-linecap:round;stroke-linejoin:round;stroke-miterlimit:4;stroke-dasharray:none;stroke-opacity:1"
       d="M 27.03125,14.325991 C 27.031251,15.621635 23.580446,16.661694 19.34375,16.661694 C 15.107055,16.661693 11.6875,15.621635 11.6875,14.325991 C 11.687502,13.311812 10.437501,13.332154 10.4375,14.649751 C 10.4375,16.266586 14.42769,17.586724 19.34375,17.586724 C 24.259809,17.586724 28.25,16.266587 28.25,14.649751 C 28.25,13.181796 27.03125,13.169204 27.03125,14.325991 z"
       id="path4070"
       sodipodi:nodetypes="cssssss" />
    <path
       style="opacity:0.15;fill:url(#linearGradient3889);fill-opacity:1;fill-rule:nonzero;stroke:none;stroke-width:1;stroke-linecap:round;stroke-linejoin:round;stroke-miterlimit:4;stroke-dasharray:none;stroke-opacity:1"
       d="M 27.625,13.5 C 27.320312,13.457956 27.03125,13.734107 27.03125,14.3125 C 27.031251,15.446189 24.373761,16.408212 20.875,16.625 C 20.375177,16.65597 19.873337,16.65625 19.34375,16.65625 C 16.166229,16.656249 13.441595,16.089116 12.28125,15.25 C 12.184555,15.180074 12.105678,15.104514 12.03125,15.03125 C 11.807967,14.811459 11.6875,14.555433 11.6875,14.3125 C 11.6875,14.17305 11.665766,14.068399 11.625,13.96875 C 11.59082,13.871806 11.558594,13.812116 11.5,13.75 C 11.441406,13.689938 11.354492,13.650168 11.28125,13.625 C 11.061524,13.546288 10.800782,13.611911 10.625,13.875 C 10.500789,14.046778 10.4375,14.315086 10.4375,14.65625 C 10.4375,14.805807 10.465393,14.95008 10.53125,15.09375 C 10.522967,15.118453 10.507072,15.129814 10.5,15.15625 C 10.46052,15.287568 10.4375,15.415706 10.4375,15.59375 C 10.4375,15.738543 10.46945,15.891951 10.53125,16.03125 C 10.515888,16.073719 10.511975,16.108487 10.5,16.15625 C 10.460863,16.295924 10.4375,16.46719 10.4375,16.65625 C 10.4375,16.828753 10.485761,16.99117 10.5625,17.15625 C 10.48768,17.32629 10.4375,17.541864 10.4375,17.8125 C 10.4375,17.96344 10.472203,18.104639 10.53125,18.25 C 10.527163,18.264407 10.503742,18.266324 10.5,18.28125 C 10.460863,18.420924 10.4375,18.56094 10.4375,18.75 C 10.4375,18.857814 10.438325,18.988675 10.46875,19.09375 C 10.448275,19.21591 10.4375,19.349947 10.4375,19.5 C 10.4375,19.7141 10.495524,19.921558 10.59375,20.125 C 10.494711,20.321506 10.4375,20.589482 10.4375,20.9375 C 10.4375,21.112012 10.496691,21.269855 10.5625,21.4375 C 10.547158,21.483922 10.511963,21.510298 10.5,21.5625 C 10.46104,21.71507 10.4375,21.88741 10.4375,22.09375 C 10.4375,22.264222 10.468399,22.429809 10.53125,22.59375 C 10.524397,22.618403 10.505981,22.630149 10.5,22.65625 C 10.460924,22.80898 10.4375,22.980829 10.4375,23.1875 C 10.4375,23.340198 10.480633,23.477469 10.53125,23.625 C 10.527544,23.640269 10.503418,23.64048 10.5,23.65625 C 10.461601,23.816738 10.4375,24.002292 10.4375,24.21875 C 10.4375,24.398995 10.468399,24.576661 10.53125,24.75 C 10.479751,24.927151 10.4375,25.120909 10.4375,25.375 C 10.4375,25.53218 10.451985,25.691731 10.5,25.84375 C 10.46582,26.005965 10.4375,26.191956 10.4375,26.40625 C 10.4375,26.550957 10.463237,26.70313 10.5,26.84375 C 10.478526,26.984414 10.4375,27.107545 10.4375,27.28125 C 10.4375,27.430895 10.463547,27.573311 10.5,27.71875 C 10.502126,27.727233 10.497753,27.741533 10.5,27.75 C 10.475119,27.899213 10.4375,28.062196 10.4375,28.25 C 10.4375,30.434839 14.42769,32.21875 19.34375,32.21875 C 24.259809,32.21875 28.25,30.43484 28.25,28.25 C 28.25,28.048848 28.210023,27.879859 28.1875,27.71875 C 28.190578,27.706435 28.215927,27.699848 28.21875,27.6875 C 28.249175,27.554417 28.25,27.417803 28.25,27.28125 C 28.25,27.116317 28.2342,26.981714 28.21875,26.84375 C 28.217549,26.833799 28.220028,26.822307 28.21875,26.8125 C 28.249175,26.68436 28.25,26.537731 28.25,26.40625 C 28.25,26.167502 28.220825,25.96155 28.1875,25.78125 C 28.19119,25.767972 28.215416,25.76332 28.21875,25.75 C 28.249175,25.62845 28.25,25.499719 28.25,25.375 C 28.25,25.160319 28.217669,24.977328 28.1875,24.8125 C 28.185299,24.801446 28.189824,24.792071 28.1875,24.78125 C 28.18247,24.755435 28.161915,24.74332 28.15625,24.71875 C 28.171525,24.674285 28.207497,24.638707 28.21875,24.59375 C 28.249175,24.4722 28.25,24.343469 28.25,24.21875 C 28.25,23.992281 28.220825,23.796027 28.1875,23.625 C 28.235515,23.481223 28.25,23.336158 28.25,23.1875 C 28.25,22.938575 28.200217,22.740746 28.15625,22.5625 C 28.212824,22.406742 28.25,22.255335 28.25,22.09375 C 28.25,21.829774 28.205187,21.622061 28.15625,21.4375 C 28.219101,21.273559 28.25,21.107972 28.25,20.9375 C 28.25,20.573954 28.180191,20.307546 28.09375,20.09375 C 28.132193,20.010629 28.196244,19.928789 28.21875,19.84375 C 28.249175,19.72879 28.25,19.617957 28.25,19.5 C 28.25,19.357641 28.234176,19.244099 28.21875,19.125 C 28.217476,19.115377 28.220119,19.103219 28.21875,19.09375 C 28.249175,18.988675 28.25,18.857814 28.25,18.75 C 28.25,18.539544 28.225599,18.373871 28.1875,18.21875 C 28.198329,18.189571 28.210231,18.154421 28.21875,18.125 C 28.249175,18.019925 28.25,17.920314 28.25,17.8125 C 28.25,17.628086 28.217315,17.454356 28.1875,17.3125 C 28.185001,17.301647 28.190158,17.291843 28.1875,17.28125 C 28.173337,17.218416 28.143957,17.179331 28.125,17.125 C 28.148741,17.071212 28.202929,17.023389 28.21875,16.96875 C 28.249175,16.863676 28.25,16.764064 28.25,16.65625 C 28.25,16.411534 28.206461,16.201312 28.15625,16.03125 C 28.218144,15.891848 28.25,15.738655 28.25,15.59375 C 28.25,15.375432 28.202145,15.217378 28.15625,15.0625 C 28.173121,15.023573 28.20658,14.976894 28.21875,14.9375 C 28.249175,14.839016 28.25,14.757302 28.25,14.65625 C 28.25,14.484048 28.217108,14.320109 28.1875,14.1875 C 28.184824,14.17661 28.190357,14.166861 28.1875,14.15625 C 28.156851,14.028803 28.113607,13.934106 28.0625,13.84375 C 28.057795,13.836103 28.067331,13.819861 28.0625,13.8125 C 27.948242,13.622963 27.777344,13.521022 27.625,13.5 z"
       id="path4198" />
    <path
       style="fill:#ee8b6c;fill-opacity:1;fill-rule:nonzero;stroke:none;stroke-width:1;stroke-linecap:round;stroke-linejoin:round;stroke-miterlimit:4;stroke-dasharray:none;stroke-opacity:1"
       d="M 29.287118,14.777887 C 30.421531,15.990072 28.997696,19.251437 26.131574,22.060882 C 23.265452,24.870325 20.041494,26.164843 18.907082,24.952658 C 17.991436,23.974234 17.161874,24.820301 18.344929,26.084465 C 19.760562,27.597151 23.615781,26.186271 26.941492,22.926326 C 30.267203,19.666382 31.810707,15.7853 30.395073,14.272614 C 29.137819,12.929165 28.300445,13.72357 29.287118,14.777887 z"
       id="path4102"
       sodipodi:nodetypes="cssssss" />
    <path
       style="opacity:0.35;fill:url(#radialGradient3531);fill-opacity:1;fill-rule:nonzero;stroke:none;stroke-width:1;stroke-linecap:round;stroke-linejoin:round;stroke-miterlimit:4;stroke-dasharray:none;stroke-opacity:1"
       d="M 29.287118,14.777887 C 30.421531,15.990072 28.997696,19.251437 26.131574,22.060882 C 23.265452,24.870325 20.041494,26.164843 18.907082,24.952658 C 18.019111,24.003807 17.191297,24.851741 18.344929,26.084465 C 19.760562,27.597151 23.615781,26.186271 26.941492,22.926326 C 30.267203,19.666382 31.810707,15.7853 30.395073,14.272614 C 29.109793,12.899218 28.274284,13.695616 29.287118,14.777887 z"
       id="path4104"
       sodipodi:nodetypes="cssssss" />
    <path
       sodipodi:nodetypes="csssssc"
       id="path3364"
       d="M 19.34375,6.5625 C 13.005971,6.5625 7.875,8.4853141 7.875,10.875 C 7.875,11.105962 7.875,12.014816 7.875,12.25 C 7.875,14.639687 13.005971,16.5625 19.34375,16.5625 C 25.681529,16.5625 30.84375,14.639687 30.84375,12.25 C 30.84375,12.016954 30.84375,11.103769 30.84375,10.875 C 30.84375,8.4853139 25.681529,6.5624999 19.34375,6.5625 z"
       style="opacity:1;fill:#000000;fill-opacity:1;fill-rule:nonzero;stroke:none;stroke-width:1;stroke-linecap:round;stroke-linejoin:round;stroke-miterlimit:4;stroke-opacity:1" />
    <path
       id="path3366"
       d="M 30.830959,10.886302 C 30.830959,13.275989 25.687255,15.215444 19.349476,15.215444 C 13.011697,15.215444 7.867992,13.275989 7.867992,10.886302 C 7.867992,8.4966161 13.011697,6.5571608 19.349476,6.5571608 C 25.687255,6.5571608 30.830959,8.4966161 30.830959,10.886302 z"
       style="opacity:0.5;fill:url(#linearGradient4130);fill-opacity:1;fill-rule:nonzero;stroke:none;stroke-width:1;stroke-linecap:round;stroke-linejoin:round;stroke-miterlimit:4;stroke-opacity:1" />
    <path
       style="opacity:0.5;fill:url(#linearGradient4114);fill-opacity:1;fill-rule:nonzero;stroke:none;stroke-width:1;stroke-linecap:round;stroke-linejoin:round;stroke-miterlimit:4;stroke-opacity:1"
       d="M 30.3125,9.59375 C 30.536254,9.8648118 30.702808,10.146551 30.78125,10.4375 C 30.702537,10.146795 30.53696,9.864178 30.3125,9.59375 z M 7.875,10.875 C 7.875,11.105962 7.875,12.014816 7.875,12.25 C 7.875,14.639687 13.005971,16.5625 19.34375,16.5625 C 25.681529,16.5625 30.84375,14.639687 30.84375,12.25 C 30.84375,12.016954 30.84375,11.103769 30.84375,10.875 C 30.84375,13.264687 25.681529,15.21875 19.34375,15.21875 C 13.005971,15.21875 7.875,13.264687 7.875,10.875 z"
       id="path3372" />
    <path
       style="opacity:0.5;fill:#bbbbbb;fill-opacity:1;fill-rule:nonzero;stroke:none;stroke-width:1;stroke-linecap:round;stroke-linejoin:round;stroke-miterlimit:4;stroke-opacity:1"
       d="M 19.351135,8.3596769 C 16.875207,8.3596769 14.87073,9.1108473 14.87073,10.044407 C 14.87073,10.134635 14.87073,10.48969 14.87073,10.581568 C 14.87073,11.515128 16.875207,12.266298 19.351135,12.266298 C 21.827065,12.266298 23.84375,11.515128 23.84375,10.581568 C 23.84375,10.490525 23.84375,10.133779 23.84375,10.044407 C 23.84375,9.1108473 21.827065,8.3596769 19.351135,8.3596769 z"
       id="path4152"
       sodipodi:nodetypes="csssssc" />
    <path
       style="opacity:0.5;fill:url(#linearGradient4158);fill-opacity:1;fill-rule:nonzero;stroke:none;stroke-width:1;stroke-linecap:round;stroke-linejoin:round;stroke-miterlimit:4;stroke-opacity:1"
       d="M 23.838753,10.048823 C 23.838753,10.982382 21.829303,11.740054 19.353373,11.740054 C 16.877442,11.740054 14.867992,10.982382 14.867992,10.048823 C 14.867992,9.1152627 16.877442,8.357591 19.353373,8.357591 C 21.829303,8.357591 23.838753,9.1152627 23.838753,10.048823 z"
       id="path4154" />
    <path
       id="path4156"
       d="M 23.63621,9.5438713 C 23.723623,9.6497649 23.78869,9.7598298 23.819334,9.8734924 C 23.788583,9.7599251 23.723899,9.6495173 23.63621,9.5438713 z M 14.87073,10.044407 C 14.87073,10.134635 14.87073,10.48969 14.87073,10.581568 C 14.87073,11.515128 16.875207,12.266298 19.351135,12.266298 C 21.827065,12.266298 23.84375,11.515128 23.84375,10.581568 C 23.84375,10.490525 23.84375,10.133779 23.84375,10.044407 C 23.84375,10.977967 21.827065,11.741345 19.351135,11.741345 C 16.875207,11.741345 14.87073,10.977967 14.87073,10.044407 z"
       style="opacity:0.5;fill:url(#linearGradient4160);fill-opacity:1;fill-rule:nonzero;stroke:none;stroke-width:1;stroke-linecap:round;stroke-linejoin:round;stroke-miterlimit:4;stroke-opacity:1" />
    <path
       style="opacity:0.5;fill:#000000;fill-opacity:1;fill-rule:nonzero;stroke:none;stroke-width:1;stroke-linecap:round;stroke-linejoin:round;stroke-miterlimit:4;stroke-opacity:1"
       d="M 22.53125,8.84375 C 23.344912,9.1482376 23.84375,9.5644702 23.84375,10.03125 C 23.84375,10.120621 23.84375,10.502708 23.84375,10.59375 C 23.84375,11.52731 21.81968,12.28125 19.34375,12.28125 C 18.427636,12.28125 17.584367,12.145617 16.875,11.96875 C 17.66557,12.231896 18.703337,12.40625 19.84375,12.40625 C 22.319679,12.40625 24.3125,11.65231 24.3125,10.71875 C 24.3125,10.627708 24.3125,10.276871 24.3125,10.1875 C 24.3125,9.6373665 23.613163,9.1508193 22.53125,8.84375 z"
       id="path4467" />
    <path
       style="opacity:0.60836499;fill:#000000;fill-opacity:1;fill-rule:nonzero;stroke:none;stroke-width:1;stroke-linecap:round;stroke-linejoin:round;stroke-miterlimit:4;stroke-dasharray:none;stroke-opacity:1"
       d="M 28.21875,27 C 28.227556,27.090144 28.25,27.174923 28.25,27.28125 C 28.25,27.417803 28.249175,27.554417 28.21875,27.6875 C 28.215927,27.699848 28.190578,27.706435 28.1875,27.71875 C 28.205822,27.780032 28.206653,27.844281 28.21875,27.90625 C 28.236604,28.015755 28.25,28.120247 28.25,28.25 C 28.25,30.43484 24.259809,32.21875 19.34375,32.21875 C 18.728813,32.21875 18.143058,32.17861 17.5625,32.125 C 17.128438,32.084918 16.690119,32.036059 16.28125,31.96875 C 16.04807,31.930389 15.817315,31.890362 15.59375,31.84375 C 15.169894,31.755519 14.759874,31.646862 14.375,31.53125 C 14.364994,31.528232 14.353727,31.534286 14.34375,31.53125 C 13.921422,31.403358 13.554256,31.250943 13.1875,31.09375 C 13.149775,31.077501 13.09958,31.07904 13.0625,31.0625 C 12.551162,30.834409 12.094208,30.55878 11.71875,30.28125 C 11.641565,30.224649 11.570891,30.183359 11.5,30.125 C 11.362836,30.01255 11.237723,29.899871 11.125,29.78125 C 12.277729,31.429805 15.731468,32.65625 19.8125,32.65625 C 24.835307,32.65625 28.9375,30.82603 28.9375,28.59375 C 28.9375,28.03568 28.684743,27.487396 28.21875,27 z"
       id="path4475" />
    <rect
       height="10.004759"
       x="-0.0019644466"
       y="30"
       width="40.001965"
       id="rect3604"
       style="opacity:0.61162792;fill:#555753;fill-opacity:1;fill-rule:nonzero;stroke:none;stroke-width:0.69999999;stroke-linecap:round;stroke-linejoin:miter;stroke-miterlimit:4;stroke-dasharray:none;stroke-opacity:1" />
    <text
       x="12.189939"
       y="39.168156"
       id="text3598"
       style="font-size:12px;font-style:normal;font-weight:normal;fill:#eeeeec;fill-opacity:1;stroke:none;stroke-width:1px;stroke-linecap:butt;stroke-linejoin:miter;stroke-opacity:1;font-family:Bitstream Vera Sans"
       xml:space="preserve"><tspan
         x="12.189939"
         y="39.168156"
         id="tspan3600"
         sodipodi:role="line">Cu</tspan></text>
  </g>
</svg>
