<?xml version="1.0" encoding="UTF-8" standalone="no"?>
<!-- Created with Inkscape (http://www.inkscape.org/) -->
<svg
   xmlns:dc="http://purl.org/dc/elements/1.1/"
   xmlns:cc="http://web.resource.org/cc/"
   xmlns:rdf="http://www.w3.org/1999/02/22-rdf-syntax-ns#"
   xmlns:svg="http://www.w3.org/2000/svg"
   xmlns="http://www.w3.org/2000/svg"
   xmlns:xlink="http://www.w3.org/1999/xlink"
   xmlns:sodipodi="http://sodipodi.sourceforge.net/DTD/sodipodi-0.dtd"
   xmlns:inkscape="http://www.inkscape.org/namespaces/inkscape"
   width="40"
   height="40"
   id="svg2193"
   sodipodi:version="0.32"
   inkscape:version="0.45.1"
   version="1.0"
   sodipodi:docbase="/home/jra/Desktop"
   sodipodi:docname="3.svg"
   inkscape:output_extension="org.inkscape.output.svg.inkscape">
  <defs
     id="defs2195">
    <linearGradient
       id="linearGradient3309">
      <stop
         style="stop-color:#000000;stop-opacity:0;"
         offset="0"
         id="stop3311" />
      <stop
         id="stop3315"
         offset="0.84714288"
         style="stop-color:#000000;stop-opacity:0;" />
      <stop
         style="stop-color:#000000;stop-opacity:1;"
         offset="1"
         id="stop3313" />
    </linearGradient>
    <linearGradient
       id="linearGradient3261">
      <stop
         style="stop-color:#ffffff;stop-opacity:0.54545456;"
         offset="0"
         id="stop3263" />
      <stop
         id="stop3267"
         offset="0.1994898"
         style="stop-color:#000000;stop-opacity:0.40909091;" />
      <stop
         style="stop-color:#ffffff;stop-opacity:0.20779221;"
         offset="0.69821429"
         id="stop3269" />
      <stop
         id="stop3271"
         offset="0.89653063"
         style="stop-color:#000000;stop-opacity:0.14935064;" />
      <stop
         style="stop-color:#ffffff;stop-opacity:0.05194805;"
         offset="1"
         id="stop3265" />
    </linearGradient>
    <linearGradient
       id="linearGradient3239">
      <stop
         style="stop-color:#ffffff;stop-opacity:1;"
         offset="0"
         id="stop3241" />
      <stop
         style="stop-color:#ffffff;stop-opacity:0;"
         offset="1"
         id="stop3243" />
    </linearGradient>
    <linearGradient
       id="linearGradient3220">
      <stop
         id="stop3222"
         offset="0"
         style="stop-color:#000000;stop-opacity:1" />
      <stop
         id="stop3224"
         offset="1"
         style="stop-color:#c1c3c0;stop-opacity:1" />
    </linearGradient>
    <linearGradient
       id="linearGradient3291">
      <stop
         id="stop3293"
         offset="0"
         style="stop-color:#000000;stop-opacity:1;" />
      <stop
         id="stop3295"
         offset="1"
         style="stop-color:#000000;stop-opacity:0;" />
    </linearGradient>
    <radialGradient
       inkscape:collect="always"
       xlink:href="#linearGradient3291"
       id="radialGradient2595"
       gradientUnits="userSpaceOnUse"
       gradientTransform="matrix(1,0,0,0.197802,0,92.82166)"
       cx="63.912209"
       cy="115.70919"
       fx="75.857941"
       fy="115.70919"
       r="63.912209" />
    <linearGradient
       inkscape:collect="always"
       xlink:href="#linearGradient3239"
       id="linearGradient3262"
       x1="12.920674"
       y1="9.2614155"
       x2="30.109972"
       y2="5.9450135"
       gradientUnits="userSpaceOnUse" />
    <linearGradient
       inkscape:collect="always"
       xlink:href="#linearGradient3239"
       id="linearGradient3288"
       x1="20.156546"
       y1="4.2920685"
       x2="25"
       y2="9.4417038"
       gradientUnits="userSpaceOnUse" />
    <radialGradient
       inkscape:collect="always"
       xlink:href="#linearGradient3309"
       id="radialGradient3307"
       cx="20.628384"
       cy="7.8676171"
       fx="20.628384"
       fy="7.8676171"
       r="6.46875"
       gradientTransform="matrix(0.9737092,-1.4514889e-7,6.5532309e-8,0.4396135,0.6639525,5.9649703)"
       gradientUnits="userSpaceOnUse" />
    <radialGradient
       inkscape:collect="always"
       xlink:href="#linearGradient3309"
       id="radialGradient3328"
       gradientUnits="userSpaceOnUse"
       gradientTransform="matrix(0.9737092,-1.4080853e-7,6.5532309e-8,0.4264678,0.6639525,4.0326165)"
       cx="20.628384"
       cy="7.8676171"
       fx="20.628384"
       fy="7.8676171"
       r="6.46875" />
    <linearGradient
       inkscape:collect="always"
       xlink:href="#linearGradient3291"
       id="linearGradient3421"
       gradientUnits="userSpaceOnUse"
       x1="27.21875"
       y1="21.455526"
       x2="20.75"
       y2="21.625599" />
    <linearGradient
       inkscape:collect="always"
       xlink:href="#linearGradient3239"
       id="linearGradient3431"
       x1="20.748775"
       y1="4.7951097"
       x2="19.133057"
       y2="11.144458"
       gradientUnits="userSpaceOnUse" />
    <linearGradient
       inkscape:collect="always"
       xlink:href="#linearGradient3291"
       id="linearGradient3298"
       x1="17.095903"
       y1="15.530495"
       x2="27.21151"
       y2="2.7900591"
       gradientUnits="userSpaceOnUse" />
    <linearGradient
       inkscape:collect="always"
       xlink:href="#linearGradient3239"
       id="linearGradient3324"
       gradientUnits="userSpaceOnUse"
       x1="15.139424"
       y1="8.46875"
       x2="25.680288"
       y2="6.0402656" />
    <linearGradient
       inkscape:collect="always"
       xlink:href="#linearGradient3261"
       id="linearGradient3334"
       gradientUnits="userSpaceOnUse"
       x1="13.685998"
       y1="18.904448"
       x2="27.21875"
       y2="18.904448" />
    <linearGradient
       inkscape:collect="always"
       xlink:href="#linearGradient3291"
       id="linearGradient3385"
       x1="26.113283"
       y1="24.442123"
       x2="20.41857"
       y2="8.5014162"
       gradientUnits="userSpaceOnUse" />
    <radialGradient
       inkscape:collect="always"
       xlink:href="#linearGradient3309"
       id="radialGradient3443"
       gradientUnits="userSpaceOnUse"
       gradientTransform="matrix(1.0394382,-3.943694e-2,1.7065224e-2,0.449788,-0.921916,4.309053)"
       cx="20.746901"
       cy="6.257905"
       fx="20.746901"
       fy="6.257905"
       r="2.15625" />
    <linearGradient
       inkscape:collect="always"
       xlink:href="#linearGradient3239"
       id="linearGradient3453"
       gradientUnits="userSpaceOnUse"
       x1="38.59375"
       y1="6.838552"
       x2="42.90625"
       y2="6.838552"
       gradientTransform="translate(-20,0)" />
    <radialGradient
       inkscape:collect="always"
       xlink:href="#linearGradient3239"
       id="radialGradient3471"
       cx="19.727798"
       cy="8.046875"
       fx="19.727798"
       fy="8.046875"
       r="2.03125"
       gradientTransform="matrix(1,0,0,0.3769231,0,3.7481971)"
       gradientUnits="userSpaceOnUse" />
    <radialGradient
       inkscape:collect="always"
       xlink:href="#linearGradient3239"
       id="radialGradient3343"
       cx="17.773741"
       cy="15.062501"
       fx="17.773741"
       fy="15.062501"
       r="6.46875"
       gradientTransform="matrix(0.7239412,0,0,0.1226775,4.9065974,7.9646699)"
       gradientUnits="userSpaceOnUse" />
    <radialGradient
       inkscape:collect="always"
       xlink:href="#linearGradient3239"
       id="radialGradient3372"
       cx="19.888992"
       cy="6.8371377"
       fx="19.888992"
       fy="6.8371377"
       r="1.609375"
       gradientTransform="matrix(0.7663464,1.3790907e-2,-3.3317424e-3,0.1851415,4.9262035,5.3486944)"
       gradientUnits="userSpaceOnUse" />
    <linearGradient
       inkscape:collect="always"
       xlink:href="#linearGradient3220"
       id="linearGradient3399"
       x1="25.637674"
       y1="7.8727794"
       x2="25.704697"
       y2="7.6310124"
       gradientUnits="userSpaceOnUse" />
    <linearGradient
       inkscape:collect="always"
       xlink:href="#linearGradient3291"
       id="linearGradient3416"
       x1="26.90625"
       y1="19.328125"
       x2="27.03125"
       y2="19.328125"
       gradientUnits="userSpaceOnUse" />
  </defs>
  <sodipodi:namedview
     id="base"
     pagecolor="#ffffff"
     bordercolor="#666666"
     borderopacity="1.0"
     inkscape:pageopacity="0.0"
     inkscape:pageshadow="2"
     inkscape:zoom="17.475"
     inkscape:cx="20"
     inkscape:cy="20"
     inkscape:current-layer="layer1"
     showgrid="false"
     inkscape:grid-bbox="false"
     inkscape:document-units="px"
     width="40px"
     height="40px"
     gridempspacing="2"
     inkscape:window-width="1167"
     inkscape:window-height="914"
     inkscape:window-x="52"
     inkscape:window-y="78" />
  <metadata
     id="metadata2198">
    <rdf:RDF>
      <cc:Work
         rdf:about="">
        <dc:format>image/svg+xml</dc:format>
        <dc:type
           rdf:resource="http://purl.org/dc/dcmitype/StillImage" />
        <dc:creator>
          <cc:Agent>
            <dc:title>Jarle Akselsen</dc:title>
          </cc:Agent>
        </dc:creator>
        <cc:license
           rdf:resource="http://creativecommons.org/licenses/GPL/2.0/" />
      </cc:Work>
      <cc:License
         rdf:about="http://creativecommons.org/licenses/GPL/2.0/">
        <cc:permits
           rdf:resource="http://web.resource.org/cc/Reproduction" />
        <cc:permits
           rdf:resource="http://web.resource.org/cc/Distribution" />
        <cc:requires
           rdf:resource="http://web.resource.org/cc/Notice" />
        <cc:permits
           rdf:resource="http://web.resource.org/cc/DerivativeWorks" />
        <cc:requires
           rdf:resource="http://web.resource.org/cc/ShareAlike" />
        <cc:requires
           rdf:resource="http://web.resource.org/cc/SourceCode" />
      </cc:License>
    </rdf:RDF>
  </metadata>
  <g
     id="layer1"
     inkscape:label="Layer 1"
     inkscape:groupmode="layer">
    <path
       sodipodi:nodetypes="csssssc"
       id="path2246"
       d="M 20.75,4.96875 C 17.182571,4.96875 14.28125,6.0372142 14.28125,7.375 C 14.28125,8.1157988 14.28125,28.492898 14.28125,29.298678 C 14.28125,30.753813 17.182571,32.433894 20.75,32.433894 C 24.317429,32.433894 27.218749,30.753814 27.21875,29.298678 C 27.21875,28.492897 27.218749,8.1157988 27.21875,7.375 C 27.21875,6.0372143 24.317429,4.9687499 20.75,4.96875 z "
       style="opacity:1;fill:#ac4311;fill-opacity:1;fill-rule:nonzero;stroke:none;stroke-width:0.30000001;stroke-linecap:round;stroke-linejoin:round;stroke-miterlimit:4;stroke-dasharray:none;stroke-opacity:1" />
    <path
       style="opacity:1;fill:#000000;fill-opacity:1;fill-rule:nonzero;stroke:none;stroke-width:0.30000001;stroke-linecap:round;stroke-linejoin:round;stroke-miterlimit:4;stroke-dasharray:none;stroke-opacity:1"
       d="M 14.28125,14.0625 C 14.28125,20.198231 14.28125,28.022922 14.28125,28.9375 C 14.28125,28.960557 14.28125,29.298685 14.28125,29.3125 C 14.28125,29.585338 14.373235,29.848903 14.5625,30.125 C 15.381159,31.751598 17.851464,32.9375 20.75,32.9375 C 23.574214,32.9375 25.965091,31.812204 26.84375,30.25 C 27.089553,29.935416 27.21875,29.625214 27.21875,29.3125 C 27.21875,29.298685 27.21875,28.960557 27.21875,28.9375 C 27.21875,28.022923 27.21875,20.198231 27.21875,14.0625 C 27.218749,15.611515 24.317429,16.875 20.75,16.875 C 17.182571,16.874999 14.28125,15.611515 14.28125,14.0625 z M 17.15625,20.341529 C 17.15625,20.341529 17.457088,20.478263 17.8125,20.560279 C 18.167913,20.642298 18.5625,20.654028 18.5625,20.654029 L 18.5625,20.904029 C 18.5625,20.904029 18.169031,20.887927 17.8125,20.810279 C 17.457792,20.733028 17.375,20.654029 17.375,20.654029 L 17.34375,21.247779 C 17.214573,21.221578 17.125,21.154028 17.125,21.154029 L 17.15625,20.341529 z M 17.125,21.310279 C 17.125,21.310279 17.450253,21.440176 17.8125,21.529029 C 18.174748,21.617882 18.5625,21.654029 18.5625,21.654029 L 18.53125,21.904029 C 18.53125,21.904029 18.167913,21.867881 17.8125,21.779029 C 17.457088,21.690174 17.125,21.529029 17.125,21.529029 L 17.125,21.310279 z M 18.3125,21.966529 L 18.53125,21.997779 L 18.53125,22.966529 L 18.28125,22.935279 L 18.28125,22.560279 C 18.28125,22.560279 18.1064,22.566129 17.8125,22.497779 C 17.518601,22.42943 17.125,22.27903 17.125,22.279029 L 17.125,22.029029 C 17.125,22.029029 17.518601,22.179431 17.8125,22.247779 C 18.1064,22.316128 18.281251,22.310279 18.28125,22.310279 L 18.3125,21.966529 z M 17.125,22.763404 C 17.125,22.763404 17.457088,22.915759 17.8125,22.997779 C 18.167913,23.079797 18.531251,23.091529 18.53125,23.091529 L 18.53125,23.341529 L 18.03125,23.279029 L 18.03125,23.747779 L 18.53125,23.810279 L 18.53125,24.060279 C 18.53125,24.060279 18.167913,24.048548 17.8125,23.966529 C 17.457088,23.88451 17.125,23.685278 17.125,23.685279 L 17.125,23.466529 C 17.125,23.466529 17.570718,23.714853 17.78125,23.716529 C 17.78125,23.716529 17.781251,23.216529 17.78125,23.216529 C 17.589316,23.217415 17.125,23.013403 17.125,23.013404 L 17.125,22.763404 z M 17.125,23.904029 C 17.125,23.904029 17.457088,24.10326 17.8125,24.185279 C 18.167913,24.267297 18.531251,24.279028 18.53125,24.279029 L 18.53125,24.529029 C 18.53125,24.529029 18.167913,24.486047 17.8125,24.404029 C 17.457088,24.322011 17.125,24.154029 17.125,24.154029 L 17.125,23.904029 z M 17.375,24.529029 C 17.434191,24.523906 17.507211,24.515073 17.59375,24.560279 C 17.68165,24.606196 17.8125,24.62278 17.8125,24.622779 C 18.05172,24.677459 18.531251,24.747779 18.53125,24.747779 L 18.53125,24.997779 C 18.53125,24.997779 18.05172,24.927457 17.8125,24.872779 C 17.8125,24.872779 17.719154,24.876811 17.59375,24.810279 C 17.469731,24.744484 17.313169,24.812735 17.3125,24.966529 C 17.311832,25.120324 17.446261,25.212063 17.59375,25.279029 C 17.741238,25.345993 17.8125,25.34153 17.8125,25.341529 C 18.05172,25.396208 18.531251,25.466529 18.53125,25.466529 L 18.53125,25.685279 C 18.53125,25.685279 18.05172,25.646208 17.8125,25.591529 C 17.8125,25.591529 17.749046,25.584365 17.59375,25.529029 C 17.438454,25.473695 17.273127,25.41066 17.1875,25.310279 C 17.094085,25.201513 17.061873,25.048007 17.0625,24.904029 C 17.063126,24.760051 17.124583,24.656192 17.21875,24.591529 C 17.261912,24.561551 17.315809,24.534151 17.375,24.529029 z M 17.125,25.575904 C 17.125,25.575904 17.457088,25.728262 17.8125,25.810279 C 18.167913,25.892298 18.531251,25.904029 18.53125,25.904029 L 18.53125,26.279029 C 18.53125,26.279029 18.099564,26.317113 17.8125,26.310279 C 17.525436,26.303443 17.374999,26.247778 17.375,26.247779 C 17.375,26.247779 17.525436,26.350337 17.8125,26.466529 C 18.099564,26.582721 18.531251,26.716529 18.53125,26.716529 L 18.53125,27.091529 C 18.53125,27.091529 18.167913,27.055381 17.8125,26.966529 C 17.457088,26.877676 17.125,26.700904 17.125,26.700904 L 17.125,26.450904 C 17.125,26.450904 17.539105,26.64818 17.8125,26.716529 C 18.000557,26.763544 18.03505,26.747566 18.09375,26.747779 C 18.025401,26.735243 17.949197,26.712125 17.8125,26.654029 C 17.539105,26.537835 17.125,26.263404 17.125,26.263404 L 17.125,26.013404 C 17.125,26.013404 17.539105,26.147194 17.8125,26.154029 C 18.085894,26.160863 18.21875,26.091529 18.21875,26.091529 C 18.21875,26.091529 18.085894,26.121792 17.8125,26.060279 C 17.539105,25.998764 17.125,25.794654 17.125,25.794654 L 17.125,25.575904 z M 19.84375,30.625 C 19.854102,30.623363 19.864648,30.623363 19.875,30.625 C 19.885352,30.623363 19.895898,30.623363 19.90625,30.625 C 20.183366,30.653231 20.459904,30.65625 20.75,30.65625 C 21.040232,30.65625 21.31651,30.65321 21.59375,30.625 C 21.604102,30.623363 21.614648,30.623363 21.625,30.625 C 21.635352,30.623363 21.645898,30.623363 21.65625,30.625 C 21.657887,30.635352 21.657887,30.645898 21.65625,30.65625 C 21.666602,30.654613 21.677148,30.654613 21.6875,30.65625 C 21.689137,30.666602 21.689137,30.677148 21.6875,30.6875 C 21.700117,30.695456 21.710794,30.706133 21.71875,30.71875 L 21.71875,31.96875 C 21.720387,31.979102 21.720387,31.989648 21.71875,32 C 21.710794,32.012617 21.700117,32.023294 21.6875,32.03125 C 21.689137,32.041602 21.689137,32.052148 21.6875,32.0625 C 21.677148,32.064137 21.666602,32.064137 21.65625,32.0625 C 21.645898,32.064137 21.635352,32.064137 21.625,32.0625 C 21.344596,32.091353 21.045889,32.124999 20.75,32.125 C 20.45411,32.125 20.155404,32.091352 19.875,32.0625 C 19.864648,32.064137 19.854102,32.064137 19.84375,32.0625 C 19.831133,32.054544 19.820456,32.043867 19.8125,32.03125 C 19.799883,32.023294 19.789206,32.012617 19.78125,32 C 19.779613,31.989648 19.779613,31.979102 19.78125,31.96875 L 19.78125,30.71875 C 19.789206,30.706133 19.799883,30.695456 19.8125,30.6875 C 19.810863,30.677148 19.810863,30.666602 19.8125,30.65625 C 19.820456,30.643633 19.831133,30.632956 19.84375,30.625 z M 20,30.8125 L 20,31.875 C 20.246491,31.897977 20.494062,31.9375 20.75,31.9375 C 21.005939,31.937499 21.253508,31.897977 21.5,31.875 L 21.5,30.8125 C 21.25629,30.834447 21.005953,30.875 20.75,30.875 C 20.49417,30.875 20.243705,30.834458 20,30.8125 z M 20.1875,31.25 C 20.373159,31.259276 20.55647,31.28125 20.75,31.28125 C 20.922151,31.28125 21.084555,31.256757 21.25,31.25 L 21.25,31.46875 C 21.084932,31.487235 20.920341,31.5 20.75,31.5 C 20.557686,31.5 20.373158,31.458203 20.1875,31.4375 L 20.1875,31.25 z "
       id="path2315"
       sodipodi:nodetypes="csscscssssccsccscccccsccscccccccsccscccsccccccscccscccsccscccsscccsssscccssssccsccscsccsccsssccscscccsssssssssccssssssssssccsscccsccsccsccscc" />
    <path
       style="opacity:0.60199005;fill:#dddddd;fill-opacity:1;fill-rule:nonzero;stroke:none;stroke-width:0.2;stroke-linecap:round;stroke-linejoin:round;stroke-miterlimit:4;stroke-dasharray:none;stroke-opacity:1"
       d="M 19.84375,10.375 C 19.831133,10.382956 19.820456,10.393633 19.8125,10.40625 C 19.810863,10.416602 19.810863,10.427148 19.8125,10.4375 C 19.799883,10.445456 19.789206,10.456133 19.78125,10.46875 L 19.78125,11.6875 C 19.779613,11.697852 19.779613,11.708398 19.78125,11.71875 C 19.789206,11.731367 19.799883,11.742044 19.8125,11.75 C 19.820456,11.762617 19.831133,11.773294 19.84375,11.78125 C 19.854102,11.782887 19.864648,11.782887 19.875,11.78125 C 19.873363,11.791602 19.873363,11.802148 19.875,11.8125 C 20.158292,11.831007 20.454351,11.84375 20.75,11.84375 C 21.045649,11.84375 21.341707,11.831007 21.625,11.8125 C 21.626637,11.802148 21.626637,11.791602 21.625,11.78125 C 21.635352,11.782887 21.645898,11.782887 21.65625,11.78125 C 21.668867,11.773294 21.679544,11.762617 21.6875,11.75 C 21.700117,11.742044 21.710794,11.731367 21.71875,11.71875 C 21.720387,11.708398 21.720387,11.697852 21.71875,11.6875 L 21.71875,10.46875 C 21.720387,10.458398 21.720387,10.447852 21.71875,10.4375 C 21.710794,10.424883 21.700117,10.414206 21.6875,10.40625 C 21.679544,10.393633 21.668867,10.382956 21.65625,10.375 C 21.645898,10.373363 21.635352,10.373363 21.625,10.375 C 21.614648,10.373363 21.604102,10.373363 21.59375,10.375 C 21.313886,10.393204 21.035335,10.40625 20.75,10.40625 C 20.464665,10.40625 20.186114,10.393204 19.90625,10.375 C 19.895898,10.373363 19.885352,10.373363 19.875,10.375 C 19.864648,10.373363 19.854102,10.373363 19.84375,10.375 z M 20,10.5625 C 20.239969,10.579812 20.494107,10.609375 20.75,10.609375 C 21.005893,10.609375 21.260031,10.579812 21.5,10.5625 L 21.5,11.59375 C 21.252821,11.607319 21.010869,11.625 20.75,11.625 C 20.489131,11.625 20.247179,11.607319 20,11.59375 L 20,10.5625 z M 20.59375,10.6875 L 20.59375,11.03125 C 20.457738,11.024371 20.322512,11.006703 20.1875,11 L 20.1875,11.1875 C 20.320685,11.201914 20.457882,11.220908 20.59375,11.234375 L 20.59375,11.5625 L 20.84375,11.5625 L 20.84375,11.234375 C 20.980691,11.230699 21.115746,11.233788 21.25,11.21875 L 21.25,11 C 21.114871,11.006127 20.980149,11.025178 20.84375,11.03125 L 20.84375,10.6875 L 20.59375,10.6875 z M 20.8125,20.716529 C 20.444631,20.716528 20.152863,20.835642 19.9375,21.060279 C 19.723168,21.284915 19.625,21.582173 19.625,21.966529 C 19.625,22.095334 19.627398,22.223026 19.65625,22.341529 C 19.685103,22.460028 19.724576,22.576049 19.78125,22.685279 L 20.25,22.716529 C 20.174777,22.60627 20.128783,22.479943 20.09375,22.372779 C 20.058715,22.265611 20.031249,22.147529 20.03125,22.029029 C 20.03125,21.816756 20.113981,21.65062 20.25,21.529029 C 20.386018,21.407436 20.574466,21.341527 20.8125,21.341529 C 21.051562,21.341528 21.238979,21.407436 21.375,21.529029 C 21.511016,21.65062 21.562498,21.816756 21.5625,22.029029 C 21.562498,22.147529 21.566284,22.265611 21.53125,22.372779 C 21.496213,22.479943 21.41897,22.606269 21.34375,22.716529 L 21.84375,22.685279 C 21.900421,22.57605 21.939896,22.460028 21.96875,22.341529 C 21.997601,22.223026 21.999998,22.095334 22,21.966529 C 21.999998,21.582173 21.902861,21.284915 21.6875,21.060279 C 21.473166,20.835642 21.181396,20.716529 20.8125,20.716529 z M 19.65625,23.185279 L 19.65625,23.779029 L 20.53125,23.825904 L 20.53125,23.950904 C 20.531248,24.047764 20.510998,24.143197 20.46875,24.200904 C 20.426501,24.259637 20.334158,24.300478 20.21875,24.357154 L 19.65625,24.622779 L 19.65625,25.279029 L 20.3125,24.950904 C 20.445426,24.884954 20.528831,24.82832 20.59375,24.763404 C 20.659698,24.699514 20.7002,24.626058 20.71875,24.544654 C 20.765119,24.693037 20.839608,24.81524 20.9375,24.888404 C 21.035391,24.962594 21.159993,24.982152 21.3125,24.982154 C 21.533013,24.982152 21.710484,24.889978 21.8125,24.747779 C 21.914512,24.606606 21.968748,24.395509 21.96875,24.091529 L 21.96875,23.185279 C 21.96875,23.185279 21.389421,23.247779 20.8125,23.247779 C 20.235581,23.247779 19.656251,23.185279 19.65625,23.185279 z M 21.53125,23.794654 L 21.53125,24.044654 C 21.531248,24.169336 21.514086,24.27232 21.46875,24.325904 C 21.423409,24.380516 21.355103,24.388404 21.25,24.388404 C 21.143862,24.388403 21.046369,24.380516 21,24.325904 C 20.953629,24.27232 20.937498,24.169336 20.9375,24.044654 L 20.9375,23.841529 L 21.53125,23.794654 z M 19.65625,25.591529 L 19.65625,27.247779 L 20.09375,27.367417 C 20.09375,27.367417 20.040546,26.514864 20.085938,26.271216 C 20.158931,26.480125 20.299431,26.646826 20.5,26.84398 C 20.704579,27.045076 20.860552,27.177499 20.96875,27.242417 C 21.077976,27.307333 21.186784,27.336165 21.3125,27.336167 C 21.529922,27.336165 21.690905,27.151314 21.8125,26.997779 C 21.93409,26.845272 21.999998,26.648937 22,26.372779 C 21.999998,26.247064 21.992449,26.128645 21.96875,25.997779 C 21.946078,25.866912 21.919308,25.725486 21.875,25.591529 L 21.375,25.591529 C 21.453312,25.717243 21.476465,25.887523 21.515625,25.997779 C 21.55581,26.108036 21.578122,26.217539 21.578125,26.310279 C 21.578122,26.43084 21.550321,26.519396 21.484375,26.591529 C 21.418424,26.664689 21.34257,26.716526 21.234375,26.716529 C 21.164303,26.716527 21.080541,26.690092 21.015625,26.654029 C 20.950705,26.617962 20.75044,26.457597 20.515625,26.200904 C 20.288261,25.952356 20.09375,25.591529 20.09375,25.591529 L 19.65625,25.591529 z "
       id="path3448"
       sodipodi:nodetypes="cssccsssssssssssccssssssssccsccsccccccccccccccccsssccsssssssccssscccccsccccsssssccscccsssccccccczsssssccssssszcc" />
    <path
       sodipodi:type="arc"
       style="opacity:1;fill:#000000;fill-opacity:1;fill-rule:nonzero;stroke:none;stroke-width:0.30000001;stroke-linecap:round;stroke-linejoin:round;stroke-miterlimit:4;stroke-dasharray:none;stroke-opacity:1"
       id="path3241"
       sodipodi:cx="20.748775"
       sodipodi:cy="7.1761169"
       sodipodi:rx="6.4627333"
       sodipodi:ry="2.381007"
       d="M 27.211509 7.1761169 A 6.4627333 2.381007 0 1 1  14.286042,7.1761169 A 6.4627333 2.381007 0 1 1  27.211509 7.1761169 z"
       transform="matrix(0.6578946,0,0,0.6696423,7.098265,2.0730552)" />
    <path
       transform="matrix(0.1569082,0,0,0.5909444,14.373022,-40.618039)"
       d="M 127.82442 115.70919 A 63.912209 12.641975 0 1 1  0,115.70919 A 63.912209 12.641975 0 1 1  127.82442 115.70919 z"
       sodipodi:ry="12.641975"
       sodipodi:rx="63.912209"
       sodipodi:cy="115.70919"
       sodipodi:cx="63.912209"
       id="path2593"
       style="opacity:0.38139535;fill:url(#radialGradient2595);fill-opacity:1;fill-rule:nonzero;stroke:none;stroke-width:0;stroke-linecap:round;stroke-linejoin:round;stroke-miterlimit:4;stroke-dasharray:none;stroke-dashoffset:4;stroke-opacity:1"
       sodipodi:type="arc" />
    <path
       id="path3423"
       d="M 20.75,5.25 C 19.943974,5.25 19.269442,5.4325365 18.9375,5.6875 C 18.901033,5.7153691 18.871105,5.7516047 18.84375,5.78125 C 18.82992,5.7962373 18.792621,5.7971075 18.78125,5.8125 C 18.771898,5.820117 18.758737,5.8360085 18.75,5.84375 C 18.746301,5.8497707 18.753317,5.8689261 18.75,5.875 C 18.652576,5.9674333 18.59375,6.0508766 18.59375,6.15625 C 18.59375,6.2561495 18.59375,6.6205611 18.59375,6.71875 C 18.59375,7.1676134 19.553026,7.5312499 20.75,7.53125 C 21.946974,7.53125 22.906251,7.1676135 22.90625,6.71875 C 22.90625,6.6205611 22.90625,6.2561495 22.90625,6.15625 C 22.90625,6.0508766 22.847424,5.9674333 22.75,5.875 C 22.715027,5.8109637 22.637257,5.7446317 22.5625,5.6875 C 22.345938,5.5220071 21.981114,5.386944 21.53125,5.3125 C 21.502139,5.3078802 21.467281,5.3166204 21.4375,5.3125 C 21.218669,5.2811439 20.996436,5.25 20.75,5.25 z "
       style="opacity:1;fill:#888888;fill-opacity:1;fill-rule:nonzero;stroke:none;stroke-width:0.30000001;stroke-linecap:round;stroke-linejoin:round;stroke-miterlimit:4;stroke-dasharray:none;stroke-opacity:1" />
    <path
       style="opacity:0.25;fill:url(#linearGradient3262);fill-opacity:1.0;fill-rule:nonzero;stroke:none;stroke-width:0.30000001;stroke-linecap:round;stroke-linejoin:round;stroke-miterlimit:4;stroke-dasharray:none;stroke-opacity:1"
       d="M 20.75,4.96875 C 17.182571,4.96875 14.281251,6.0372142 14.28125,7.375 C 14.28125,8.7127857 17.182571,9.8125003 20.75,9.8125 C 24.317429,9.8125 27.218749,8.7127856 27.21875,7.375 C 27.21875,6.0372143 24.317429,4.9687499 20.75,4.96875 z M 20.75,5.28125 C 23.096993,5.2812499 25,5.9948785 25,6.875 C 25.000001,7.7551215 23.096992,8.46875 20.75,8.46875 C 18.403009,8.4687497 16.5,7.7551215 16.5,6.875 C 16.5,5.9948785 18.403008,5.28125 20.75,5.28125 z "
       id="path3243" />
    <path
       style="opacity:0.25;fill:url(#linearGradient3288);fill-opacity:1;fill-rule:nonzero;stroke:none;stroke-width:0.30000001;stroke-linecap:round;stroke-linejoin:round;stroke-miterlimit:4;stroke-dasharray:none;stroke-opacity:1"
       d="M 19.90625,5.3125 C 17.969357,5.4612547 16.5,6.1048937 16.5,6.875 C 16.5,7.7551215 18.403009,8.4687497 20.75,8.46875 C 23.096992,8.46875 25.000001,7.7551215 25,6.875 C 25,6.1048937 23.530643,5.4612546 21.59375,5.3125 C 22.013365,5.3888841 22.356598,5.5301531 22.5625,5.6875 C 22.637257,5.7446317 22.715027,5.8109637 22.75,5.875 C 22.847424,5.9674333 22.90625,6.0508766 22.90625,6.15625 C 22.90625,6.2561495 22.90625,6.6205611 22.90625,6.71875 C 22.906251,7.1676135 21.946974,7.53125 20.75,7.53125 C 19.553026,7.5312499 18.59375,7.1676134 18.59375,6.71875 C 18.59375,6.6205611 18.59375,6.2561495 18.59375,6.15625 C 18.59375,6.0508766 18.652576,5.9674333 18.75,5.875 C 18.753317,5.8689261 18.746301,5.8497707 18.75,5.84375 C 18.758737,5.8360085 18.771898,5.820117 18.78125,5.8125 C 18.792621,5.7971075 18.82992,5.7962373 18.84375,5.78125 C 18.871105,5.7516047 18.901033,5.7153691 18.9375,5.6875 C 19.143014,5.5296451 19.488191,5.3886981 19.90625,5.3125 z "
       id="path3275" />
    <path
       id="path2260"
       d="M 14.28125,9.59375 L 14.28125,10.03125 C 14.28125,11.369036 17.182571,12.4375 20.75,12.4375 C 24.317429,12.4375 27.21875,11.369036 27.21875,10.03125 L 27.21875,9.59375 C 27.218749,10.884596 24.317429,11.9375 20.75,11.9375 C 17.182571,11.9375 14.28125,10.884596 14.28125,9.59375 z "
       style="opacity:0.15;fill:url(#radialGradient3307);fill-opacity:1;fill-rule:nonzero;stroke:none;stroke-width:0.30000001;stroke-linecap:round;stroke-linejoin:round;stroke-miterlimit:4;stroke-dasharray:none;stroke-opacity:1"
       sodipodi:nodetypes="ccsccsc" />
    <path
       style="opacity:0.15;fill:url(#radialGradient3328);fill-opacity:1;fill-rule:nonzero;stroke:none;stroke-width:0.30000001;stroke-linecap:round;stroke-linejoin:round;stroke-miterlimit:4;stroke-dasharray:none;stroke-opacity:1"
       d="M 14.28125 7.5625 L 14.28125 7.96875 C 14.28125 9.2665326 17.182571 10.3125 20.75 10.3125 C 24.317429 10.3125 27.21875 9.2665326 27.21875 7.96875 L 27.21875 7.5625 C 27.218749 8.8147461 24.317429 9.8125 20.75 9.8125 C 17.182571 9.8124999 14.28125 8.8147461 14.28125 7.5625 z "
       id="path3326" />
    <path
       style="opacity:0.5;fill:url(#linearGradient3421);fill-opacity:1;fill-rule:nonzero;stroke:none;stroke-width:0.30000001;stroke-linecap:round;stroke-linejoin:round;stroke-miterlimit:4;stroke-dasharray:none;stroke-opacity:1"
       d="M 24.375,5.375 C 25.052467,5.5445115 25.631698,5.7805652 26.09375,6.03125 C 25.629039,5.7733718 25.062675,5.5492666 24.375,5.375 z M 26.90625,6.65625 C 26.964186,6.7260526 27.052626,6.8026556 27.09375,6.875 C 27.047518,6.790761 26.975326,6.7369377 26.90625,6.65625 z M 14.28125,7.375 C 14.28125,8.1031356 14.28125,27.499088 14.28125,28.9375 C 14.28125,28.962516 14.28125,29.298726 14.28125,29.3125 C 14.28125,29.585338 14.373235,29.848903 14.5625,30.125 C 15.381159,31.751598 17.851464,32.9375 20.75,32.9375 C 23.574214,32.9375 25.965091,31.812204 26.84375,30.25 C 27.089553,29.935416 27.21875,29.625214 27.21875,29.3125 C 27.21875,29.298726 27.21875,28.962516 27.21875,28.9375 C 27.21875,27.499087 27.218749,8.1031356 27.21875,7.375 C 27.218749,8.7127856 24.317429,9.8125 20.75,9.8125 C 17.182571,9.8125003 14.28125,8.7127857 14.28125,7.375 z "
       id="path3273" />
    <path
       transform="matrix(0.3157918,0,0,0.3214295,14.196527,3.721517)"
       d="M 27.211509 7.1761169 A 6.4627333 2.381007 0 1 1  14.286042,7.1761169 A 6.4627333 2.381007 0 1 1  27.211509 7.1761169 z"
       sodipodi:ry="2.381007"
       sodipodi:rx="6.4627333"
       sodipodi:cy="7.1761169"
       sodipodi:cx="20.748775"
       id="path3253"
       style="opacity:1;fill:url(#linearGradient3431);fill-opacity:1;fill-rule:nonzero;stroke:none;stroke-width:0.30000001;stroke-linecap:round;stroke-linejoin:round;stroke-miterlimit:4;stroke-dasharray:none;stroke-opacity:1"
       sodipodi:type="arc" />
    <path
       sodipodi:type="arc"
       style="opacity:0.25;fill:url(#linearGradient3298);fill-opacity:1;fill-rule:nonzero;stroke:none;stroke-width:0.30000001;stroke-linecap:round;stroke-linejoin:round;stroke-miterlimit:4;stroke-dasharray:none;stroke-opacity:1"
       id="path2318"
       sodipodi:cx="20.748775"
       sodipodi:cy="7.1761169"
       sodipodi:rx="6.4627333"
       sodipodi:ry="2.381007"
       d="M 27.211509 7.1761169 A 6.4627333 2.381007 0 1 1  14.286042,7.1761169 A 6.4627333 2.381007 0 1 1  27.211509 7.1761169 z"
       transform="matrix(0.3026339,0,0,0.2702489,14.469537,3.9988219)" />
    <path
       style="opacity:0.4;fill:#000000;fill-opacity:1;fill-rule:nonzero;stroke:none;stroke-width:0.30000001;stroke-linecap:round;stroke-linejoin:round;stroke-miterlimit:4;stroke-dasharray:none;stroke-opacity:1"
       d="M 19.90625,5.3125 C 17.969357,5.4612547 16.5,6.1048937 16.5,6.875 C 16.5,6.9184005 16.52217,6.9574748 16.53125,7 C 16.655399,6.419054 17.597236,5.9257728 18.9375,5.6875 C 19.143014,5.5296451 19.488191,5.3886981 19.90625,5.3125 z M 21.59375,5.3125 C 22.013365,5.3888841 22.356598,5.5301531 22.5625,5.6875 C 23.902764,5.9257727 24.844601,6.4190539 24.96875,7 C 24.97783,6.9574748 25,6.9184005 25,6.875 C 25,6.1048937 23.530643,5.4612546 21.59375,5.3125 z "
       id="path3306" />
    <path
       style="opacity:0.25;fill:url(#linearGradient3324);fill-opacity:1;fill-rule:nonzero;stroke:none;stroke-width:0.30000001;stroke-linecap:round;stroke-linejoin:round;stroke-miterlimit:4;stroke-dasharray:none;stroke-opacity:1"
       d="M 18.9375,5.6875 C 17.597236,5.9257728 16.655399,6.419054 16.53125,7 C 16.706304,7.8198457 18.518744,8.4687497 20.75,8.46875 C 22.981257,8.46875 24.793697,7.8198457 24.96875,7 C 24.886691,6.6160122 24.425456,6.2903165 23.75,6.03125 C 23.779468,6.1585316 23.908314,6.1245936 24.022953,6.1957967 C 25.295519,6.9861938 23.502104,7.8660774 21.894398,7.9540934 C 21.090652,7.9980956 20.105426,7.9755435 19.71875,7.40625 C 19.057261,7.2675121 18.59375,7.0243224 18.59375,6.71875 C 18.59375,6.6205611 18.59375,6.2561495 18.59375,6.15625 C 18.59375,6.0508766 18.652576,5.9674333 18.75,5.875 C 18.753317,5.8689261 18.746301,5.8497707 18.75,5.84375 C 18.758737,5.8360085 18.771898,5.820117 18.78125,5.8125 C 18.792621,5.7971075 18.82992,5.7962373 18.84375,5.78125 C 18.871105,5.7516047 18.901033,5.7153691 18.9375,5.6875 z "
       id="path3322"
       sodipodi:nodetypes="ccsccsscssssssc" />
    <path
       style="opacity:0.16417913;color:#000000;fill:url(#linearGradient3385);fill-opacity:1.0;fill-rule:evenodd;stroke:none;stroke-width:1px;stroke-linecap:butt;stroke-linejoin:miter;marker:none;marker-start:none;marker-mid:none;marker-end:none;stroke-miterlimit:4;stroke-dasharray:none;stroke-dashoffset:0;stroke-opacity:1;visibility:visible;display:inline;overflow:visible;enable-background:accumulate"
       d="M 25.3125,5.65625 L 25.3125,5.6875 C 25.599748,5.799038 25.862724,5.9059076 26.09375,6.03125 C 25.868948,5.9065027 25.618352,5.7633723 25.34375,5.65625 L 25.3125,5.65625 z M 26.90625,6.65625 C 26.964186,6.7260526 27.052626,6.8026556 27.09375,6.875 C 27.047518,6.790761 26.975326,6.7369377 26.90625,6.65625 z M 27.21875,7.375 C 27.218749,8.7008681 24.367461,9.793149 20.84375,9.8125 L 21.46875,10.3125 C 25.162212,10.635567 24.702917,14.458669 24.96875,19.34375 C 25.234872,24.23418 25.377052,24.350922 26.15625,24.4375 C 26.921574,24.522537 26.65625,23.40625 26.65625,23.40625 L 26.661358,12.09375 C 26.661357,12.09375 26.329874,11.289656 27.21875,10.96875 C 27.21875,9.9658321 27.21875,7.4963559 27.21875,7.375 z "
       id="path3355"
       sodipodi:nodetypes="ccscccsccccsscccc" />
    <path
       id="path3332"
       d="M 17.375,9.46875 C 15.5107,9.0384044 15.5107,9.0785314 17.375,9.46875 z M 24.125,9.46875 C 25.989299,9.0785314 25.989299,9.0384044 24.125,9.46875 z M 14.28125,7.96875 C 14.28125,8.5650255 14.28125,9.5685726 14.28125,10.03125 C 14.28125,10.03125 14.306274,9.9359689 14.3125,9.84375 C 14.644313,11.02305 17.405535,11.9375 20.75,11.9375 C 24.094465,11.9375 26.855686,11.02305 27.1875,9.84375 C 27.193726,9.9359689 27.21875,10.03125 27.21875,10.03125 C 27.21875,9.5685726 27.21875,8.5650255 27.21875,7.96875 C 27.21875,9.2665326 24.317429,10.3125 20.75,10.3125 C 17.182571,10.3125 14.28125,9.2665326 14.28125,7.96875 z M 27.21875,10.03125 C 27.21875,11.369036 24.317429,12.4375 20.75,12.4375 C 17.182571,12.4375 14.28125,11.369036 14.28125,10.03125 C 14.28125,14.27246 14.28125,27.735347 14.28125,28.9375 C 14.28125,28.961344 14.28125,29.298726 14.28125,29.3125 C 14.28125,29.577616 14.383403,29.857026 14.5625,30.125 C 14.584027,30.15721 14.601104,30.186683 14.625,30.21875 C 15.490793,31.79528 17.909227,32.9375 20.75,32.9375 C 23.551918,32.9375 25.916968,31.824186 26.8125,30.28125 C 27.071078,29.959462 27.21875,29.633628 27.21875,29.3125 C 27.21875,29.298726 27.21875,28.961344 27.21875,28.9375 C 27.21875,27.735347 27.21875,14.27246 27.21875,10.03125 z "
       style="opacity:0.4;fill:url(#linearGradient3334);fill-opacity:1;fill-rule:nonzero;stroke:none;stroke-width:0.30000001;stroke-linecap:round;stroke-linejoin:round;stroke-miterlimit:4;stroke-dasharray:none;stroke-opacity:1"
       sodipodi:nodetypes="cccccccsccssccssssssscssc" />
    <path
       style="opacity:1;fill:#888888;fill-opacity:1;fill-rule:nonzero;stroke:none;stroke-width:0.30000001;stroke-linecap:round;stroke-linejoin:round;stroke-miterlimit:4;stroke-dasharray:none;stroke-opacity:1"
       d="M 18.75,5.84375 C 18.746301,5.849771 18.753317,5.868926 18.75,5.875 C 18.756247,5.863199 18.773635,5.855381 18.78125,5.84375 C 18.775699,5.849643 18.754368,5.83988 18.75,5.84375 z M 18.75,5.875 C 18.652576,5.967433 18.59375,6.050877 18.59375,6.15625 C 18.59375,6.256149 18.59375,6.620561 18.59375,6.71875 C 18.59375,7.167613 19.553026,7.53125 20.75,7.53125 C 21.946974,7.53125 22.906251,7.167613 22.90625,6.71875 C 22.90625,6.620561 22.90625,6.256149 22.90625,6.15625 C 22.90625,6.050877 22.847424,5.967433 22.75,5.875 C 22.774989,5.922206 22.78125,5.982969 22.78125,6.03125 C 22.781251,6.45371 21.876565,6.78125 20.75,6.78125 C 19.623436,6.78125 18.71875,6.45371 18.71875,6.03125 C 18.71875,5.982969 18.725011,5.922206 18.75,5.875 z "
       id="path3418"
       sodipodi:nodetypes="cssccsssssssssc" />
    <path
       style="opacity:0.75;fill:url(#linearGradient3453);fill-opacity:1;fill-rule:nonzero;stroke:none;stroke-width:0.30000001;stroke-linecap:round;stroke-linejoin:round;stroke-miterlimit:4;stroke-dasharray:none;stroke-opacity:1"
       d="M 18.75,5.875 C 18.652576,5.967433 18.59375,6.050877 18.59375,6.15625 C 18.59375,6.256149 18.59375,6.620561 18.59375,6.71875 C 18.59375,7.167613 19.553026,7.53125 20.75,7.53125 C 21.946974,7.53125 22.906251,7.167613 22.90625,6.71875 C 22.90625,6.620561 22.90625,6.256149 22.90625,6.15625 C 22.90625,6.050877 22.847424,5.967433 22.75,5.875 C 22.774989,5.922206 22.78125,5.982969 22.78125,6.03125 C 22.78125,6.097259 22.760319,6.158263 22.71875,6.21875 C 22.528853,6.495068 21.910972,6.692034 21.15625,6.75 C 21.018827,6.760555 20.896418,6.78125 20.75,6.78125 C 20.603583,6.78125 20.481173,6.760555 20.34375,6.75 C 19.589029,6.692034 18.971148,6.495068 18.78125,6.21875 C 18.758423,6.208019 18.768728,6.195814 18.75,6.1875 C 18.723062,6.138113 18.71875,6.084058 18.71875,6.03125 C 18.71875,5.982969 18.725011,5.922206 18.75,5.875 z "
       id="path3389" />
    <path
       style="opacity:0.75;fill:url(#radialGradient3443);fill-opacity:1;fill-rule:nonzero;stroke:none;stroke-width:0.30000001;stroke-linecap:round;stroke-linejoin:round;stroke-miterlimit:4;stroke-dasharray:none;stroke-opacity:1"
       d="M 18.75,5.875 C 18.652576,5.967433 18.59375,6.050877 18.59375,6.15625 C 18.59375,6.256149 18.59375,6.620561 18.59375,6.71875 C 18.59375,7.167613 19.553026,7.53125 20.75,7.53125 C 21.049243,7.53125 21.335493,7.509854 21.59375,7.46875 C 22.36852,7.345437 22.906251,7.055397 22.90625,6.71875 C 22.90625,6.620561 22.90625,6.256149 22.90625,6.15625 C 22.90625,6.050877 22.847424,5.967433 22.75,5.875 C 22.774989,5.922206 22.78125,5.982969 22.78125,6.03125 C 22.78125,6.084058 22.776938,6.138113 22.75,6.1875 C 22.743266,6.199847 22.727064,6.206653 22.71875,6.21875 C 22.433411,6.352886 21.836106,6.651173 21.15625,6.75 C 21.020279,6.769765 20.890821,6.78125 20.75,6.78125 C 20.609179,6.78125 20.479721,6.769765 20.34375,6.75 C 19.663893,6.651173 19.066589,6.352886 18.78125,6.21875 C 18.758423,6.208019 18.768728,6.195814 18.75,6.1875 C 18.723062,6.138113 18.71875,6.084058 18.71875,6.03125 C 18.71875,5.982969 18.725011,5.922206 18.75,5.875 z "
       id="path3436" />
    <path
       style="opacity:1;fill:url(#radialGradient3471);fill-opacity:1;fill-rule:nonzero;stroke:none;stroke-width:0.30000001;stroke-linecap:round;stroke-linejoin:round;stroke-miterlimit:4;stroke-dasharray:none;stroke-opacity:1"
       d="M 20.75,5.25 C 20.212463,5.25 19.740098,5.340742 19.375,5.46875 C 19.732234,5.349087 20.210188,5.28125 20.75,5.28125 C 21.019906,5.28125 21.264822,5.309976 21.5,5.34375 C 21.262205,5.305822 21.022502,5.25 20.75,5.25 z M 19.375,5.46875 C 19.192641,5.532687 19.04807,5.602571 18.9375,5.6875 C 19.037725,5.609327 19.196383,5.528582 19.375,5.46875 z M 22.125,5.46875 C 22.303617,5.528582 22.462275,5.609327 22.5625,5.6875 C 22.449019,5.60078 22.311535,5.534361 22.125,5.46875 z M 18.78125,5.8125 C 18.771898,5.820117 18.758737,5.836009 18.75,5.84375 C 18.746301,5.849771 18.753317,5.868926 18.75,5.875 C 18.725011,5.922206 18.71875,5.982969 18.71875,6.03125 C 18.71875,6.45371 19.623436,6.78125 20.75,6.78125 C 21.876565,6.78125 22.781251,6.45371 22.78125,6.03125 C 22.78125,5.982969 22.774989,5.922206 22.75,5.875 C 22.7381,5.85321 22.704234,5.833676 22.6875,5.8125 C 22.713921,5.854725 22.71875,5.893101 22.71875,5.9375 C 22.71875,6.292692 21.829625,6.59375 20.75,6.59375 C 19.670374,6.593751 18.78125,6.292692 18.78125,5.9375 C 18.78125,5.893101 18.786079,5.854725 18.8125,5.8125 C 18.808038,5.818043 18.785383,5.806905 18.78125,5.8125 z "
       id="path3461" />
    <path
       style="opacity:0.5;fill:url(#radialGradient3343);fill-opacity:1.0;fill-rule:nonzero;stroke:none;stroke-width:0.30000001;stroke-linecap:round;stroke-linejoin:round;stroke-miterlimit:4;stroke-dasharray:none;stroke-opacity:1"
       d="M 14.28125,7.375 C 14.28125,8.7127857 17.182571,9.8125003 20.75,9.8125 C 24.317429,9.8125 27.218749,8.7127856 27.21875,7.375 C 27.025407,8.5817717 24.192569,9.5625 20.75,9.5625 C 17.307431,9.5625003 14.474592,8.5817717 14.28125,7.375 z "
       id="path3329"
       sodipodi:nodetypes="cscsc" />
    <path
       style="opacity:1;color:#000000;fill:url(#radialGradient3372);fill-opacity:1;fill-rule:evenodd;stroke:none;stroke-width:1px;stroke-linecap:butt;stroke-linejoin:miter;marker:none;marker-start:none;marker-mid:none;marker-end:none;stroke-miterlimit:4;stroke-dasharray:none;stroke-dashoffset:0;stroke-opacity:1;visibility:visible;display:inline;overflow:visible;enable-background:accumulate"
       d="M 22.125,5.46875 C 22.311535,5.534361 22.449019,5.60078 22.5625,5.6875 C 22.462275,5.609327 22.303617,5.528582 22.125,5.46875 z M 19.34375,6.5625 C 19.703129,6.8261205 20.003713,7.212894 20.125,7.5 C 20.154959,7.503451 20.18824,7.497031 20.21875,7.5 C 20.456126,7.1515395 20.868313,6.9040968 21.34375,6.71875 C 21.282289,6.7257751 21.220128,6.7450938 21.15625,6.75 C 21.018827,6.7605547 20.896418,6.78125 20.75,6.78125 C 20.570001,6.78125 20.415886,6.7657746 20.25,6.75 C 19.908467,6.7175226 19.589345,6.6495406 19.34375,6.5625 z "
       id="path3351" />
    <rect
       style="opacity:0.61162792;fill:#555753;fill-opacity:1;fill-rule:nonzero;stroke:none;stroke-width:0.69999999;stroke-linecap:round;stroke-linejoin:miter;stroke-miterlimit:4;stroke-dasharray:none;stroke-opacity:1"
       id="rect1951"
       width="40.001965"
       height="10.004759"
       x="-0.0019644466"
       y="30" />
    <text
       xml:space="preserve"
       style="font-size:12px;font-style:normal;font-weight:normal;fill:#eeeeec;fill-opacity:1;stroke:none;stroke-width:1px;stroke-linecap:butt;stroke-linejoin:miter;stroke-opacity:1;font-family:Bitstream Vera Sans"
       x="14.956833"
       y="39.168156"
       id="text2840"><tspan
         sodipodi:role="line"
         id="tspan2842"
         x="14.956833"
         y="39.168156">Li</tspan></text>
    <path
       style="opacity:0.25;color:#000000;fill:url(#linearGradient3399);fill-opacity:1.0;fill-rule:evenodd;stroke:none;stroke-width:1px;stroke-linecap:butt;stroke-linejoin:miter;marker:none;marker-start:none;marker-mid:none;marker-end:none;stroke-miterlimit:4;stroke-dasharray:none;stroke-dashoffset:0;stroke-opacity:1;visibility:visible;display:inline;overflow:visible;enable-background:accumulate"
       d="M 24.78125 7.34375 C 24.748941 7.3826988 24.727394 7.4311452 24.6875 7.46875 L 26.9375 8.09375 C 26.974159 8.0495073 27.001246 8.0140056 27.03125 7.96875 L 24.78125 7.34375 z "
       id="path2419" />
    <path
       style="opacity:0.25;fill:url(#linearGradient3416);fill-opacity:1.0;fill-rule:nonzero;stroke:none;stroke-width:0.2;stroke-linecap:round;stroke-linejoin:round;stroke-miterlimit:4;stroke-opacity:1"
       d="M 27.03125 8.53125 C 26.993869 8.5857033 26.95392 8.6346429 26.90625 8.6875 L 26.90625 30.125 C 26.948928 30.063336 26.997336 29.9993 27.03125 29.9375 L 27.03125 8.53125 z "
       id="rect3401" />
  </g>
</svg>
