<?xml version="1.0" encoding="UTF-8" standalone="no"?>
<!-- Created with Inkscape (http://www.inkscape.org/) -->
<svg
   xmlns:dc="http://purl.org/dc/elements/1.1/"
   xmlns:cc="http://creativecommons.org/ns#"
   xmlns:rdf="http://www.w3.org/1999/02/22-rdf-syntax-ns#"
   xmlns:svg="http://www.w3.org/2000/svg"
   xmlns="http://www.w3.org/2000/svg"
   xmlns:xlink="http://www.w3.org/1999/xlink"
   xmlns:sodipodi="http://sodipodi.sourceforge.net/DTD/sodipodi-0.dtd"
   xmlns:inkscape="http://www.inkscape.org/namespaces/inkscape"
   width="40"
   height="40"
   id="svg2193"
   sodipodi:version="0.32"
   inkscape:version="0.46"
   version="1.0"
   sodipodi:docbase="/home/jra/Desktop"
   sodipodi:docname="30.svg"
   inkscape:output_extension="org.inkscape.output.svg.inkscape">
  <defs
     id="defs2195">
    <linearGradient
       id="linearGradient3626">
      <stop
         id="stop3628"
         offset="0"
         style="stop-color:#ffffff;stop-opacity:1;" />
      <stop
         id="stop3630"
         offset="1"
         style="stop-color:#ffdd00;stop-opacity:0;" />
    </linearGradient>
    <linearGradient
       id="linearGradient3884">
      <stop
         id="stop3886"
         offset="0"
         style="stop-color:#802500;stop-opacity:1;" />
      <stop
         style="stop-color:#710053;stop-opacity:0.03067485;"
         offset="0.5"
         id="stop3890" />
      <stop
         id="stop3888"
         offset="1"
         style="stop-color:#008028;stop-opacity:0.05521473;" />
    </linearGradient>
    <linearGradient
       id="linearGradient3593">
      <stop
         style="stop-color:#000000;stop-opacity:1;"
         offset="0"
         id="stop3595" />
      <stop
         id="stop3597"
         offset="0.5"
         style="stop-color:#000000;stop-opacity:0.50306749;" />
      <stop
         style="stop-color:#000000;stop-opacity:1;"
         offset="1"
         id="stop3599" />
    </linearGradient>
    <linearGradient
       id="linearGradient3521">
      <stop
         style="stop-color:#000000;stop-opacity:0;"
         offset="0"
         id="stop3523" />
      <stop
         style="stop-color:#000000;stop-opacity:1;"
         offset="1"
         id="stop3525" />
    </linearGradient>
    <linearGradient
       id="linearGradient3239">
      <stop
         style="stop-color:#ffffff;stop-opacity:1;"
         offset="0"
         id="stop3241" />
      <stop
         style="stop-color:#ffffff;stop-opacity:0;"
         offset="1"
         id="stop3243" />
    </linearGradient>
    <linearGradient
       id="linearGradient3291">
      <stop
         id="stop3293"
         offset="0"
         style="stop-color:#000000;stop-opacity:1;" />
      <stop
         id="stop3295"
         offset="1"
         style="stop-color:#000000;stop-opacity:0;" />
    </linearGradient>
    <radialGradient
       inkscape:collect="always"
       xlink:href="#linearGradient3291"
       id="radialGradient2595"
       gradientUnits="userSpaceOnUse"
       gradientTransform="matrix(1,0,0,0.197802,0,92.82166)"
       cx="63.912209"
       cy="115.70919"
       fx="75.857941"
       fy="115.70919"
       r="63.912209" />
    <linearGradient
       id="linearGradient2617">
      <stop
         style="stop-color:#000000;stop-opacity:1;"
         offset="0"
         id="stop2619" />
      <stop
         style="stop-color:#000000;stop-opacity:0;"
         offset="1"
         id="stop2621" />
    </linearGradient>
    <linearGradient
       id="linearGradient3325">
      <stop
         id="stop3327"
         offset="0"
         style="stop-color:#ffffff;stop-opacity:1;" />
      <stop
         id="stop3329"
         offset="1"
         style="stop-color:#ffffff;stop-opacity:0;" />
    </linearGradient>
    <linearGradient
       id="linearGradient4444">
      <stop
         style="stop-color:#000000;stop-opacity:1;"
         offset="0"
         id="stop4446" />
      <stop
         id="stop4450"
         offset="0.5"
         style="stop-color:#ffffff;stop-opacity:1;" />
      <stop
         style="stop-color:#000000;stop-opacity:1;"
         offset="1"
         id="stop4448" />
    </linearGradient>
    <linearGradient
       id="linearGradient3514">
      <stop
         id="stop3516"
         offset="0"
         style="stop-color:#ffffff;stop-opacity:0;" />
      <stop
         style="stop-color:#ffffff;stop-opacity:1;"
         offset="0.5"
         id="stop3518" />
      <stop
         id="stop3520"
         offset="1"
         style="stop-color:#ffffff;stop-opacity:0;" />
    </linearGradient>
    <linearGradient
       id="linearGradient3522">
      <stop
         id="stop3524"
         offset="0"
         style="stop-color:#000000;stop-opacity:1;" />
      <stop
         style="stop-color:#000000;stop-opacity:0;"
         offset="0.5"
         id="stop3526" />
      <stop
         id="stop3528"
         offset="1"
         style="stop-color:#000000;stop-opacity:1;" />
    </linearGradient>
    <linearGradient
       id="linearGradient3686">
      <stop
         style="stop-color:#000000;stop-opacity:0;"
         offset="0"
         id="stop3688" />
      <stop
         id="stop3692"
         offset="0.77537525"
         style="stop-color:#000000;stop-opacity:0.39215686;" />
      <stop
         style="stop-color:#000000;stop-opacity:0.78750002;"
         offset="1"
         id="stop3690" />
    </linearGradient>
    <radialGradient
       inkscape:collect="always"
       xlink:href="#linearGradient3291"
       id="radialGradient2770"
       gradientUnits="userSpaceOnUse"
       gradientTransform="matrix(1.1503848,0,0,0.2403001,-0.7899293,27.370454)"
       cx="12.296875"
       cy="31.409496"
       fx="12.296875"
       fy="31.409496"
       r="2.484375" />
    <radialGradient
       inkscape:collect="always"
       xlink:href="#linearGradient3521"
       id="radialGradient3527"
       cx="13.24456"
       cy="27.471502"
       fx="13.24456"
       fy="27.471502"
       r="3.2571408"
       gradientTransform="matrix(1.6382542,1.0714062,-1.55429,2.3766155,34.282078,-53.091356)"
       gradientUnits="userSpaceOnUse" />
    <radialGradient
       inkscape:collect="always"
       xlink:href="#linearGradient3521"
       id="radialGradient3535"
       cx="19.943007"
       cy="24.36418"
       fx="19.943007"
       fy="24.36418"
       r="3.8570769"
       gradientTransform="matrix(1.3696382,1.8668214e-2,-2.5071658e-2,1.8394422,-7.1700006,-20.918194)"
       gradientUnits="userSpaceOnUse" />
    <radialGradient
       inkscape:collect="always"
       xlink:href="#linearGradient3521"
       id="radialGradient3543"
       cx="16.481339"
       cy="23.740126"
       fx="16.481339"
       fy="23.740126"
       r="1.1483124"
       gradientTransform="matrix(1,0,0,2.1771079,0,-26.227436)"
       gradientUnits="userSpaceOnUse" />
    <linearGradient
       inkscape:collect="always"
       xlink:href="#linearGradient3593"
       id="linearGradient3551"
       x1="27.061043"
       y1="26.0625"
       x2="24.983309"
       y2="18.096128"
       gradientUnits="userSpaceOnUse" />
    <linearGradient
       inkscape:collect="always"
       xlink:href="#linearGradient3521"
       id="linearGradient3559"
       x1="18.224651"
       y1="22.200983"
       x2="21.84375"
       y2="27.78125"
       gradientUnits="userSpaceOnUse" />
    <linearGradient
       inkscape:collect="always"
       xlink:href="#linearGradient3522"
       id="linearGradient3567"
       x1="13.1875"
       y1="18.921875"
       x2="23.96875"
       y2="18.921875"
       gradientUnits="userSpaceOnUse" />
    <linearGradient
       inkscape:collect="always"
       xlink:href="#linearGradient3522"
       id="linearGradient3575"
       x1="15.78125"
       y1="15.234375"
       x2="22.59375"
       y2="15.234375"
       gradientUnits="userSpaceOnUse" />
    <linearGradient
       inkscape:collect="always"
       xlink:href="#linearGradient3522"
       id="linearGradient3583"
       x1="16.1875"
       y1="13.78125"
       x2="22.1875"
       y2="13.78125"
       gradientUnits="userSpaceOnUse" />
    <linearGradient
       inkscape:collect="always"
       xlink:href="#linearGradient3522"
       id="linearGradient3591"
       x1="17.8125"
       y1="11.40625"
       x2="21.5"
       y2="11.40625"
       gradientUnits="userSpaceOnUse" />
    <linearGradient
       inkscape:collect="always"
       xlink:href="#linearGradient3521"
       id="linearGradient3635"
       x1="20.0625"
       y1="17.801737"
       x2="20.0625"
       y2="16.34375"
       gradientUnits="userSpaceOnUse" />
    <linearGradient
       inkscape:collect="always"
       xlink:href="#linearGradient3521"
       id="linearGradient3643"
       x1="20.265625"
       y1="15.078125"
       x2="20.484375"
       y2="13.484375"
       gradientUnits="userSpaceOnUse" />
    <linearGradient
       inkscape:collect="always"
       xlink:href="#linearGradient3521"
       id="linearGradient3651"
       x1="20.5"
       y1="13.484375"
       x2="21.203125"
       y2="11.25"
       gradientUnits="userSpaceOnUse" />
    <radialGradient
       inkscape:collect="always"
       xlink:href="#linearGradient3521"
       id="radialGradient3653"
       cx="19.97109"
       cy="6.0584474"
       fx="19.97109"
       fy="6.0584474"
       r="4.0656862"
       gradientTransform="matrix(1.2717512,1.087023e-2,-7.9275283e-3,0.9274729,-5.3791401,-0.655882)"
       gradientUnits="userSpaceOnUse" />
    <linearGradient
       inkscape:collect="always"
       xlink:href="#linearGradient3239"
       id="linearGradient3675"
       x1="19.507416"
       y1="2.2180872"
       x2="19.200512"
       y2="5.4000678"
       gradientUnits="userSpaceOnUse" />
    <linearGradient
       inkscape:collect="always"
       xlink:href="#linearGradient3522"
       id="linearGradient3683"
       x1="19.330452"
       y1="-0.45450291"
       x2="21.407223"
       y2="6.34375"
       gradientUnits="userSpaceOnUse" />
    <radialGradient
       inkscape:collect="always"
       xlink:href="#linearGradient3239"
       id="radialGradient3698"
       cx="19.865282"
       cy="6.1638355"
       fx="19.865282"
       fy="6.1638355"
       r="0.90598059"
       gradientTransform="matrix(1,0,0,0.3231707,0,4.1718644)"
       gradientUnits="userSpaceOnUse" />
    <radialGradient
       inkscape:collect="always"
       xlink:href="#linearGradient3521"
       id="radialGradient3700"
       gradientUnits="userSpaceOnUse"
       gradientTransform="matrix(1.2153602,-5.055734e-2,0.1311089,3.1517597,-5.3103663,-17.642799)"
       cx="19.48177"
       cy="8.6534643"
       fx="19.48177"
       fy="8.6534643"
       r="1.6359822" />
    <linearGradient
       inkscape:collect="always"
       xlink:href="#linearGradient3521"
       id="linearGradient3728"
       x1="17.15625"
       y1="17.609375"
       x2="21.5"
       y2="17.609375"
       gradientUnits="userSpaceOnUse" />
    <linearGradient
       inkscape:collect="always"
       xlink:href="#linearGradient3521"
       id="linearGradient3736"
       x1="32.548546"
       y1="16.991768"
       x2="19.265593"
       y2="17.676777"
       gradientUnits="userSpaceOnUse" />
    <linearGradient
       inkscape:collect="always"
       xlink:href="#linearGradient3521"
       id="linearGradient3764"
       x1="10.223192"
       y1="33.441479"
       x2="10.629758"
       y2="31.452744"
       gradientUnits="userSpaceOnUse" />
    <linearGradient
       inkscape:collect="always"
       xlink:href="#linearGradient3593"
       id="linearGradient3777"
       x1="6.1131339"
       y1="34.03125"
       x2="16.375"
       y2="34.03125"
       gradientUnits="userSpaceOnUse" />
    <linearGradient
       inkscape:collect="always"
       xlink:href="#linearGradient3521"
       id="linearGradient3785"
       x1="30.96875"
       y1="24.109375"
       x2="25.65625"
       y2="25.59375"
       gradientUnits="userSpaceOnUse" />
    <linearGradient
       inkscape:collect="always"
       xlink:href="#linearGradient3521"
       id="linearGradient3793"
       x1="32.5625"
       y1="21.734375"
       x2="26.53125"
       y2="23.390625"
       gradientUnits="userSpaceOnUse" />
    <linearGradient
       inkscape:collect="always"
       xlink:href="#linearGradient3593"
       id="linearGradient3802"
       x1="27.4375"
       y1="16.78125"
       x2="30.09375"
       y2="25.671875"
       gradientUnits="userSpaceOnUse" />
    <linearGradient
       inkscape:collect="always"
       xlink:href="#linearGradient3593"
       id="linearGradient3810"
       x1="31.21875"
       y1="22.453125"
       x2="30.59375"
       y2="19.671875"
       gradientUnits="userSpaceOnUse" />
    <radialGradient
       inkscape:collect="always"
       xlink:href="#linearGradient3239"
       id="radialGradient3862"
       cx="21.25"
       cy="23.390623"
       fx="21.25"
       fy="23.390623"
       r="2.15625"
       gradientTransform="matrix(1,-2.3188403e-7,1.1594202e-7,0.5,-2.7119567e-6,11.695318)"
       gradientUnits="userSpaceOnUse" />
    <radialGradient
       inkscape:collect="always"
       xlink:href="#linearGradient3239"
       id="radialGradient3870"
       gradientUnits="userSpaceOnUse"
       gradientTransform="matrix(0.66475,-4.9612323e-3,0.1646369,1.4107439,3.2731016,-9.502127)"
       cx="21.25"
       cy="23.390623"
       fx="21.25"
       fy="23.390623"
       r="2.15625" />
    <radialGradient
       inkscape:collect="always"
       xlink:href="#linearGradient3239"
       id="radialGradient3878"
       gradientUnits="userSpaceOnUse"
       gradientTransform="matrix(1,-2.3188403e-7,1.1594202e-7,0.5,-2.7119567e-6,11.695318)"
       cx="21.25"
       cy="23.390623"
       fx="21.25"
       fy="23.390623"
       r="2.15625" />
    <radialGradient
       inkscape:collect="always"
       xlink:href="#linearGradient3884"
       id="radialGradient3882"
       gradientUnits="userSpaceOnUse"
       gradientTransform="matrix(1,0,0,1.4388016,0,-8.1908758)"
       cx="10.09375"
       cy="16.885473"
       fx="10.09375"
       fy="16.885473"
       r="11.65625" />
    <radialGradient
       inkscape:collect="always"
       xlink:href="#linearGradient3686"
       id="radialGradient3898"
       cx="16.987009"
       cy="21.207945"
       fx="16.987009"
       fy="21.207945"
       r="8.9087067"
       gradientTransform="matrix(1.1817949,-0.6838258,0.3289496,0.5684943,-10.602662,23.910129)"
       gradientUnits="userSpaceOnUse" />
    <radialGradient
       inkscape:collect="always"
       xlink:href="#linearGradient3626"
       id="radialGradient3837"
       gradientUnits="userSpaceOnUse"
       gradientTransform="matrix(1.0000004,0.5844041,-2.2740247,3.8911832,62.613123,-88.305569)"
       cx="12.702521"
       cy="27.686783"
       fx="12.702521"
       fy="27.686783"
       r="3.2571409" />
    <linearGradient
       inkscape:collect="always"
       xlink:href="#linearGradient3626"
       id="linearGradient3849"
       gradientUnits="userSpaceOnUse"
       x1="13.1875"
       y1="18.921875"
       x2="23.96875"
       y2="18.921875" />
    <linearGradient
       inkscape:collect="always"
       xlink:href="#linearGradient3626"
       id="linearGradient3859"
       x1="20.40625"
       y1="18.5625"
       x2="20.6875"
       y2="16.65625"
       gradientUnits="userSpaceOnUse" />
    <linearGradient
       inkscape:collect="always"
       xlink:href="#linearGradient3626"
       id="linearGradient3877"
       gradientUnits="userSpaceOnUse"
       x1="30.96875"
       y1="24.109375"
       x2="25.65625"
       y2="25.59375" />
    <linearGradient
       inkscape:collect="always"
       xlink:href="#linearGradient3626"
       id="linearGradient3881"
       gradientUnits="userSpaceOnUse"
       x1="32.5625"
       y1="21.734375"
       x2="26.53125"
       y2="23.390625" />
    <radialGradient
       inkscape:collect="always"
       xlink:href="#linearGradient3626"
       id="radialGradient3891"
       cx="16.767683"
       cy="5.411037"
       fx="16.767683"
       fy="5.411037"
       r="4.0656862"
       gradientTransform="matrix(1.0862946,-9.7678176e-3,1.9278935e-2,2.1440413,-0.3585967,-7.7755185)"
       gradientUnits="userSpaceOnUse" />
    <radialGradient
       inkscape:collect="always"
       xlink:href="#linearGradient3291"
       id="radialGradient3907"
       cx="21.5625"
       cy="19.921877"
       fx="21.5625"
       fy="19.921877"
       r="3.125"
       gradientTransform="matrix(1.64,0,0,0.105,-13.8,17.830078)"
       gradientUnits="userSpaceOnUse" />
    <linearGradient
       inkscape:collect="always"
       xlink:href="#linearGradient3626"
       id="linearGradient3913"
       gradientUnits="userSpaceOnUse"
       x1="13.1875"
       y1="18.921875"
       x2="23.96875"
       y2="18.921875" />
    <radialGradient
       inkscape:collect="always"
       xlink:href="#linearGradient3291"
       id="radialGradient3918"
       cx="20.077015"
       cy="11.781248"
       fx="20.077015"
       fy="11.781248"
       r="2"
       gradientTransform="matrix(2,0,0,0.4390747,-20.077015,8.327152)"
       gradientUnits="userSpaceOnUse" />
    <linearGradient
       inkscape:collect="always"
       xlink:href="#linearGradient2617"
       id="linearGradient4181"
       gradientUnits="userSpaceOnUse"
       x1="26.05698"
       y1="19.0625"
       x2="11.153807"
       y2="26.60136" />
    <radialGradient
       inkscape:collect="always"
       xlink:href="#linearGradient3291"
       id="radialGradient4523"
       gradientUnits="userSpaceOnUse"
       gradientTransform="matrix(1.1502725,1.6075607e-2,-3.2528674e-3,0.2327554,-0.7083071,26.951234)"
       cx="12.093141"
       cy="29.709564"
       fx="12.093141"
       fy="29.709564"
       r="2.9386475" />
    <linearGradient
       inkscape:collect="always"
       xlink:href="#linearGradient3514"
       id="linearGradient4547"
       gradientUnits="userSpaceOnUse"
       gradientTransform="matrix(1.1502725,1.6075607e-2,-1.3471682e-2,0.9639515,-9.6071884,5.1204216)"
       x1="16.447439"
       y1="29.78414"
       x2="20.344894"
       y2="29.93882" />
    <radialGradient
       inkscape:collect="always"
       xlink:href="#linearGradient3325"
       id="radialGradient4591"
       gradientUnits="userSpaceOnUse"
       cx="10.504285"
       cy="23.078054"
       fx="10.504285"
       fy="23.078054"
       r="0.80952245" />
    <radialGradient
       inkscape:collect="always"
       xlink:href="#linearGradient3325"
       id="radialGradient4593"
       gradientUnits="userSpaceOnUse"
       cx="10.504285"
       cy="23.078054"
       fx="10.504285"
       fy="23.078054"
       r="0.80952245" />
    <radialGradient
       inkscape:collect="always"
       xlink:href="#linearGradient3325"
       id="radialGradient4595"
       gradientUnits="userSpaceOnUse"
       cx="10.504285"
       cy="23.078054"
       fx="10.504285"
       fy="23.078054"
       r="0.80952245" />
    <radialGradient
       inkscape:collect="always"
       xlink:href="#linearGradient3291"
       id="radialGradient4597"
       gradientUnits="userSpaceOnUse"
       gradientTransform="matrix(1.1502725,1.6075607e-2,-3.1812361e-3,0.2276299,-0.7137445,27.340304)"
       cx="12.093141"
       cy="30.537689"
       fx="12.093141"
       fy="30.537689"
       r="2.9386475" />
    <radialGradient
       inkscape:collect="always"
       xlink:href="#linearGradient4444"
       id="radialGradient4640"
       gradientUnits="userSpaceOnUse"
       gradientTransform="matrix(1.5320993,2.1411818e-2,-3.537859e-3,0.2531476,-26.687671,26.172472)"
       cx="25.879177"
       cy="31.365847"
       fx="25.879177"
       fy="31.365847"
       r="2.9382236" />
    <radialGradient
       inkscape:collect="always"
       xlink:href="#linearGradient4444"
       id="radialGradient4643"
       gradientUnits="userSpaceOnUse"
       gradientTransform="matrix(1.6340967,1.6401439e-2,-2.2593769e-3,0.2700192,-29.388763,25.496448)"
       cx="25.934179"
       cy="30.462257"
       fx="25.934179"
       fy="30.462257"
       r="2.9222367" />
    <radialGradient
       inkscape:collect="always"
       xlink:href="#linearGradient4444"
       id="radialGradient4646"
       gradientUnits="userSpaceOnUse"
       gradientTransform="matrix(1.5572237,2.1762944e-2,-3.9172876e-3,0.2802972,-27.325216,24.792263)"
       cx="25.895164"
       cy="29.631811"
       fx="25.895164"
       fy="29.631811"
       r="2.9222367" />
    <radialGradient
       inkscape:collect="always"
       xlink:href="#linearGradient3626"
       id="radialGradient4714"
       gradientUnits="userSpaceOnUse"
       gradientTransform="matrix(2.493839,3.8381544e-2,-5.5774879e-3,2.5714749,-38.1947,-39.043413)"
       cx="21.25"
       cy="23.390623"
       fx="21.25"
       fy="23.390623"
       r="2.15625" />
    <linearGradient
       id="linearGradient3190">
      <stop
         id="stop3192"
         offset="0"
         style="stop-color:#000000;stop-opacity:1;" />
      <stop
         id="stop3194"
         offset="1"
         style="stop-color:#000000;stop-opacity:0;" />
    </linearGradient>
    <linearGradient
       inkscape:collect="always"
       xlink:href="#linearGradient2617"
       id="linearGradient3212"
       gradientUnits="userSpaceOnUse"
       x1="1.1432363"
       y1="12.444934"
       x2="12.133848"
       y2="12.444934"
       gradientTransform="matrix(-0.4492451,0,0,0.4127423,24.615533,20.229175)" />
    <linearGradient
       inkscape:collect="always"
       xlink:href="#linearGradient2617"
       id="linearGradient3215"
       gradientUnits="userSpaceOnUse"
       x1="0.81746471"
       y1="12.31235"
       x2="13.255116"
       y2="12.31235"
       gradientTransform="matrix(-0.4492451,0,0,0.4127423,24.615533,20.229175)" />
    <radialGradient
       inkscape:collect="always"
       xlink:href="#linearGradient3626"
       id="radialGradient4330"
       gradientUnits="userSpaceOnUse"
       gradientTransform="matrix(1.040253,0.9536311,-2.3857047,2.6024075,54.576013,-56.418585)"
       cx="18.471344"
       cy="23.55764"
       fx="18.471344"
       fy="23.55764"
       r="3.8570769" />
    <radialGradient
       inkscape:collect="always"
       xlink:href="#linearGradient3239"
       id="radialGradient4332"
       gradientUnits="userSpaceOnUse"
       gradientTransform="matrix(0.8695471,1.9034382e-2,-1.9447481e-3,1.2752597,1.473864,-5.5460988)"
       cx="21.25"
       cy="23.390623"
       fx="21.25"
       fy="23.390623"
       r="2.15625" />
    <radialGradient
       inkscape:collect="always"
       xlink:href="#linearGradient3239"
       id="radialGradient4416"
       cx="19.836792"
       cy="23.644781"
       fx="19.836792"
       fy="23.644781"
       r="0.7734375"
       gradientTransform="matrix(0.9356301,0.455261,-1.4409913,2.9614549,35.205928,-54.653206)"
       gradientUnits="userSpaceOnUse" />
    <radialGradient
       inkscape:collect="always"
       xlink:href="#linearGradient3190"
       id="radialGradient4430"
       gradientUnits="userSpaceOnUse"
       gradientTransform="matrix(1.2148225,-2.2582759e-2,1.0869885e-2,0.5847373,-2.8054803,0.9101588)"
       cx="20.214745"
       cy="4.9135847"
       fx="20.214745"
       fy="4.9135847"
       r="4.0656862" />
    <radialGradient
       inkscape:collect="always"
       xlink:href="#linearGradient3190"
       id="radialGradient4439"
       gradientUnits="userSpaceOnUse"
       gradientTransform="matrix(0.595136,0.2117142,-0.4975522,1.3986366,19.575445,-12.502499)"
       cx="17.225212"
       cy="28.453295"
       fx="17.225212"
       fy="28.453295"
       r="3.2571409" />
    <radialGradient
       inkscape:collect="always"
       xlink:href="#linearGradient3626"
       id="radialGradient4093"
       cx="19.953123"
       cy="23.671877"
       fx="19.953123"
       fy="23.671877"
       r="1.4218749"
       gradientTransform="matrix(0.8556917,-6.0149511e-7,7.5329963e-7,1.3825615,2.8793845,-9.055936)"
       gradientUnits="userSpaceOnUse" />
    <radialGradient
       inkscape:collect="always"
       xlink:href="#linearGradient3626"
       id="radialGradient4100"
       gradientUnits="userSpaceOnUse"
       gradientTransform="matrix(0.8556917,-6.0149511e-7,7.5329963e-7,1.3825615,2.8793845,-9.055936)"
       cx="19.953123"
       cy="23.671877"
       fx="19.953123"
       fy="23.671877"
       r="1.4218749" />
    <radialGradient
       inkscape:collect="always"
       xlink:href="#linearGradient3626"
       id="radialGradient4105"
       gradientUnits="userSpaceOnUse"
       gradientTransform="matrix(1.5654235,0.4687966,-0.6002255,2.4740284,4.8937942,-64.596362)"
       cx="19.953123"
       cy="23.671877"
       fx="19.953123"
       fy="23.671877"
       r="1.4218749" />
  </defs>
  <sodipodi:namedview
     id="base"
     pagecolor="#ffffff"
     bordercolor="#666666"
     borderopacity="1.0"
     inkscape:pageopacity="0.0"
     inkscape:pageshadow="2"
     inkscape:zoom="11.313709"
     inkscape:cx="18.471554"
     inkscape:cy="14.15797"
     inkscape:current-layer="layer1"
     showgrid="false"
     inkscape:grid-bbox="false"
     inkscape:document-units="px"
     width="40px"
     height="40px"
     inkscape:window-width="1800"
     inkscape:window-height="1098"
     inkscape:window-x="48"
     inkscape:window-y="35">
    <inkscape:grid
       id="GridFromPre046Settings"
       type="xygrid"
       originx="0px"
       originy="0px"
       spacingx="1px"
       spacingy="1px"
       color="#0000ff"
       empcolor="#0000ff"
       opacity="0.2"
       empopacity="0.4"
       empspacing="2" />
  </sodipodi:namedview>
  <metadata
     id="metadata2198">
    <rdf:RDF>
      <cc:Work
         rdf:about="">
        <dc:format>image/svg+xml</dc:format>
        <dc:type
           rdf:resource="http://purl.org/dc/dcmitype/StillImage" />
        <dc:creator>
          <cc:Agent>
            <dc:title>Jarle Akselsen</dc:title>
          </cc:Agent>
        </dc:creator>
        <cc:license
           rdf:resource="http://creativecommons.org/licenses/GPL/2.0/" />
      </cc:Work>
      <cc:License
         rdf:about="http://creativecommons.org/licenses/GPL/2.0/">
        <cc:permits
           rdf:resource="http://web.resource.org/cc/Reproduction" />
        <cc:permits
           rdf:resource="http://web.resource.org/cc/Distribution" />
        <cc:requires
           rdf:resource="http://web.resource.org/cc/Notice" />
        <cc:permits
           rdf:resource="http://web.resource.org/cc/DerivativeWorks" />
        <cc:requires
           rdf:resource="http://web.resource.org/cc/ShareAlike" />
        <cc:requires
           rdf:resource="http://web.resource.org/cc/SourceCode" />
      </cc:License>
    </rdf:RDF>
  </metadata>
  <g
     id="layer1"
     inkscape:label="Layer 1"
     inkscape:groupmode="layer">
    <path
       transform="matrix(0.266837,-7.5182284e-2,0.1050672,0.3729045,-6.0999827,-5.4967579)"
       d="M 127.82442,115.70919 A 63.912209,12.641975 0 1 1 0,115.70919 A 63.912209,12.641975 0 1 1 127.82442,115.70919 z"
       sodipodi:ry="12.641975"
       sodipodi:rx="63.912209"
       sodipodi:cy="115.70919"
       sodipodi:cx="63.912209"
       id="path2593"
       style="opacity:0.2;fill:url(#radialGradient2595);fill-opacity:1;fill-rule:nonzero;stroke:none;stroke-width:0;stroke-linecap:round;stroke-linejoin:round;stroke-miterlimit:4;stroke-dasharray:none;stroke-dashoffset:4;stroke-opacity:1"
       sodipodi:type="arc" />
    <path
       style="opacity:1;fill:#cf9f2f;fill-opacity:1;fill-rule:nonzero;stroke:none;stroke-width:1;stroke-linecap:butt;stroke-linejoin:miter;marker:none;marker-start:none;marker-mid:none;marker-end:none;stroke-miterlimit:4;stroke-dasharray:none;stroke-dashoffset:0;stroke-opacity:1;visibility:visible;display:inline;overflow:visible;enable-background:accumulate"
       d="M 22.46875 1.90625 C 22.048344 1.9449232 21.59628 2.0997687 21.15625 2.1875 C 20.150746 2.3824539 19.125373 2.2901157 18.09375 2.25 C 16.75768 2.0275743 16.212502 1.7550433 15.90625 3.28125 C 15.885243 4.3796385 16.250551 5.1255932 17.53125 5.1875 C 18.548413 5.2249505 18.617909 5.8598353 18.71875 6.34375 C 18.470366 7.7082115 18.05501 9.0840148 18.90625 10.34375 C 18.901754 10.348202 18.875 10.338574 18.875 10.34375 C 18.875 10.408382 18.874999 11.819337 18.875 12.125 L 18.625 12.125 L 17.65625 12.4375 L 17.65625 13.34375 L 18.25 13.53125 C 18.234135 13.545008 18.1875 13.548377 18.1875 13.5625 C 18.1875 13.580724 18.1875 13.618815 18.1875 13.65625 C 17.952309 13.709695 17.78125 13.771951 17.78125 13.84375 C 17.78125 13.93447 17.78125 16.16758 17.78125 16.3125 C 17.78125 16.314334 17.78125 16.342597 17.78125 16.34375 L 17.15625 16.65625 L 17.21875 17.9375 C 16.741541 18.051711 16.40625 18.182144 16.40625 18.34375 C 16.40625 18.52193 16.40625 19.102246 16.40625 19.28125 C 16.40625 19.431857 16.705288 19.571679 17.125 19.6875 L 16.875 19.78125 C 16.735876 21.040721 16.698326 22.324721 15.15625 23.53125 C 11.320257 26.683841 12.012465 26.959491 10.90625 31.84375 C 10.225979 32.038767 9.78125 32.311642 9.78125 32.625 C 9.78125 32.81845 9.78125 33.175058 9.78125 33.53125 C 9.7391019 33.606595 9.7466661 33.673616 9.75 33.75 C 9.7523275 33.803328 9.7567103 33.855817 9.78125 33.90625 C 9.7391178 33.98047 9.7154161 34.079866 9.71875 34.15625 C 9.7216334 34.222301 9.7479863 34.276551 9.78125 34.34375 C 9.78125 34.350815 9.78125 34.368329 9.78125 34.375 C 9.78125 34.397032 9.8082999 34.415788 9.8125 34.4375 C 9.8007758 34.455916 9.7903723 34.480773 9.78125 34.5 C 9.7953839 34.519626 9.8260411 34.543409 9.84375 34.5625 C 9.8488836 34.571689 9.8378753 34.584642 9.84375 34.59375 C 9.8762734 34.626916 9.9258475 34.656134 9.96875 34.6875 C 10.407008 35.110659 11.637569 35.437498 13.09375 35.4375 C 14.750819 35.4375 16.118014 35.04479 16.34375 34.53125 C 16.367786 34.512791 16.389939 34.490454 16.40625 34.46875 C 16.397159 34.449056 16.389775 34.423799 16.375 34.40625 C 16.375794 34.39667 16.375 34.384639 16.375 34.375 C 16.375 34.348148 16.375 34.282748 16.375 34.25 C 16.433806 34.16954 16.503648 34.083574 16.5 34 C 16.497939 33.95282 16.488328 33.889947 16.46875 33.84375 C 16.461573 33.854257 16.445714 33.864624 16.4375 33.875 C 16.431269 33.863205 16.413451 33.855243 16.40625 33.84375 C 16.46971 33.756557 16.504119 33.688107 16.5 33.59375 C 16.49812 33.550679 16.483521 33.509291 16.46875 33.46875 C 16.452179 33.427488 16.405892 33.384243 16.375 33.34375 C 16.375 33.065649 16.375 32.7794 16.375 32.625 C 16.375 32.279597 15.826193 31.975695 15.03125 31.78125 C 15.090661 31.289581 15.161987 30.801522 15.3125 30.21875 C 16.068599 29.375721 16.549368 28.090904 18.0625 28.4375 C 20.468065 28.556058 22.325826 27.905015 23.84375 26.75 L 24.90625 26.28125 L 27.1875 25.65625 L 27.40625 25.84375 C 27.715871 25.898453 28.007613 25.936117 28.28125 25.9375 C 28.319952 25.937696 28.368263 25.938296 28.40625 25.9375 C 28.547105 25.974505 28.696151 26.03125 28.84375 26.03125 L 29.9375 25.78125 C 30.396673 25.670321 30.806498 25.385466 31.125 24.96875 L 31.5625 24.875 C 32.42534 24.666557 33.09375 23.671161 33.09375 22.4375 C 33.09375 21.053496 32.26706 19.937499 31.25 19.9375 L 31.0625 19.9375 L 30.59375 20 C 30.274514 19.76665 29.919191 19.625 29.53125 19.625 L 29.3125 19.625 L 28.375 19.8125 C 28.020724 19.911232 27.712836 20.11521 27.4375 20.40625 L 27.3125 20.4375 L 25.90625 21.25 C 25.22058 21.394808 24.548436 21.52307 23.875 21.65625 C 23.585694 21.105279 23.575708 20.322189 23.5 19.59375 C 23.768039 19.495136 23.96875 19.399448 23.96875 19.28125 C 23.96875 19.102246 23.96875 18.521931 23.96875 18.34375 C 23.96875 18.16176 23.590982 17.99482 23 17.875 L 22.96875 16.4375 L 22.5625 16.40625 C 22.594604 16.382188 22.59375 16.369224 22.59375 16.34375 C 22.59375 16.251477 22.59375 13.935619 22.59375 13.84375 C 22.59375 13.773342 22.41976 13.709417 22.1875 13.65625 C 22.1875 13.618815 22.1875 13.580724 22.1875 13.5625 C 22.1875 13.539687 22.134161 13.521695 22.09375 13.5 L 22.5625 13.4375 L 22.5625 12.53125 L 22.53125 12.5 L 22.21875 12.21875 L 22.21875 12.1875 L 21.5 12.15625 C 21.5 11.888692 21.5 10.410337 21.5 10.34375 C 21.809359 8.1875977 21.694934 7.5602471 21.125 6.34375 C 21.18012 5.9015983 21.141751 5.3967787 21.90625 5.375 C 23.74283 5.3127308 24.178487 4.4126474 24 3.125 C 23.757887 2.0430424 23.169427 1.8417947 22.46875 1.90625 z "
       id="path3457" />
    <path
       id="path3883"
       d="M 22.46875,1.90625 C 22.048344,1.9449232 21.59628,2.0997687 21.15625,2.1875 C 20.150746,2.3824539 19.125373,2.2901157 18.09375,2.25 C 16.75768,2.0275743 16.212502,1.7550433 15.90625,3.28125 C 15.885243,4.3796385 16.250551,5.1255932 17.53125,5.1875 C 18.548413,5.2249505 18.617909,5.8598353 18.71875,6.34375 C 18.470366,7.7082115 18.05501,9.0840148 18.90625,10.34375 C 18.901754,10.348202 18.875,10.338574 18.875,10.34375 C 18.875,10.408382 18.874999,11.819337 18.875,12.125 L 18.625,12.125 L 17.65625,12.4375 L 22.53125,12.5 L 22.21875,12.21875 L 22.21875,12.1875 L 21.5,12.15625 C 21.5,11.888692 21.5,10.410337 21.5,10.34375 C 21.809359,8.1875977 21.694934,7.5602471 21.125,6.34375 C 21.18012,5.9015983 21.141751,5.3967787 21.90625,5.375 C 23.74283,5.3127308 24.178487,4.4126474 24,3.125 C 23.757887,2.0430424 23.169427,1.8417947 22.46875,1.90625 z"
       style="opacity:0.35;fill:url(#radialGradient3891);fill-opacity:1;fill-rule:nonzero;stroke:none;stroke-width:1;stroke-linecap:butt;stroke-linejoin:miter;marker:none;marker-start:none;marker-mid:none;marker-end:none;stroke-miterlimit:4;stroke-dasharray:none;stroke-dashoffset:0;stroke-opacity:1;visibility:visible;display:inline;overflow:visible;enable-background:accumulate"
       sodipodi:nodetypes="csccccsscccccccccscc" />
    <path
       style="opacity:1;fill:url(#radialGradient3882);fill-opacity:1;fill-rule:nonzero;stroke:none;stroke-width:1;stroke-linecap:butt;stroke-linejoin:miter;marker:none;marker-start:none;marker-mid:none;marker-end:none;stroke-miterlimit:4;stroke-dasharray:none;stroke-dashoffset:0;stroke-opacity:1;visibility:visible;display:inline;overflow:visible;enable-background:accumulate"
       d="M 22.46875,1.90625 C 22.048344,1.9449232 21.59628,2.0997687 21.15625,2.1875 C 20.150746,2.3824539 19.125373,2.2901157 18.09375,2.25 C 16.75768,2.0275743 16.212502,1.7550433 15.90625,3.28125 C 15.885243,4.3796385 16.250551,5.1255932 17.53125,5.1875 C 18.548413,5.2249505 18.617909,5.8598353 18.71875,6.34375 C 18.470366,7.7082115 18.05501,9.0840148 18.90625,10.34375 C 18.901754,10.348202 18.875,10.338574 18.875,10.34375 C 18.875,10.408382 18.874999,11.819337 18.875,12.125 L 18.625,12.125 L 17.65625,12.4375 L 17.65625,13.34375 L 18.25,13.53125 C 18.234135,13.545008 18.1875,13.548377 18.1875,13.5625 C 18.1875,13.580724 18.1875,13.618815 18.1875,13.65625 C 17.952309,13.709695 17.78125,13.771951 17.78125,13.84375 C 17.78125,13.93447 17.78125,16.16758 17.78125,16.3125 C 17.78125,16.314334 17.78125,16.342597 17.78125,16.34375 L 17.15625,16.65625 L 17.21875,17.9375 C 16.741541,18.051711 16.40625,18.182144 16.40625,18.34375 C 16.40625,18.52193 16.40625,19.102246 16.40625,19.28125 C 16.40625,19.431857 16.705288,19.571679 17.125,19.6875 L 16.875,19.78125 C 16.735876,21.040721 16.698326,22.324721 15.15625,23.53125 C 11.320257,26.683841 12.012465,26.959491 10.90625,31.84375 C 10.225979,32.038767 9.78125,32.311642 9.78125,32.625 C 9.78125,32.998559 9.78125,34.001441 9.78125,34.375 C 9.78125,34.958838 11.278252,35.437498 13.09375,35.4375 C 14.909247,35.4375 16.374999,34.958839 16.375,34.375 C 16.375,33.999071 16.375,33.00093 16.375,32.625 C 16.375,32.279597 15.826193,31.975695 15.03125,31.78125 C 15.090661,31.289581 15.161987,30.801522 15.3125,30.21875 C 16.068599,29.375721 16.549368,28.090904 18.0625,28.4375 C 20.468065,28.556058 22.325826,27.905015 23.84375,26.75 L 24.90625,26.28125 L 27.1875,25.65625 L 27.40625,25.84375 C 27.715871,25.898453 28.007613,25.936117 28.28125,25.9375 C 28.319952,25.937696 28.368263,25.938296 28.40625,25.9375 C 28.547105,25.974505 28.696151,26.03125 28.84375,26.03125 L 29.9375,25.78125 C 30.396673,25.670321 30.806498,25.385466 31.125,24.96875 L 31.5625,24.875 C 32.42534,24.666557 33.09375,23.671161 33.09375,22.4375 C 33.09375,21.053496 32.26706,19.937499 31.25,19.9375 L 31.0625,19.9375 L 30.59375,20 C 30.274514,19.76665 29.919191,19.625 29.53125,19.625 L 29.3125,19.625 L 28.375,19.8125 C 28.020724,19.911232 27.712836,20.11521 27.4375,20.40625 L 27.3125,20.4375 L 25.90625,21.25 C 25.22058,21.394808 24.548436,21.52307 23.875,21.65625 C 23.585694,21.105279 23.575708,20.322189 23.5,19.59375 C 23.768039,19.495136 23.96875,19.399448 23.96875,19.28125 C 23.96875,19.102246 23.96875,18.521931 23.96875,18.34375 C 23.96875,18.16176 23.590982,17.99482 23,17.875 L 22.96875,16.4375 L 22.5625,16.40625 C 22.594604,16.382188 22.59375,16.369224 22.59375,16.34375 C 22.59375,16.251477 22.59375,13.935619 22.59375,13.84375 C 22.59375,13.773342 22.41976,13.709417 22.1875,13.65625 C 22.1875,13.618815 22.1875,13.580724 22.1875,13.5625 C 22.1875,13.539687 22.134161,13.521695 22.09375,13.5 L 22.5625,13.4375 L 22.5625,12.53125 L 22.53125,12.5 L 22.21875,12.21875 L 22.21875,12.1875 L 21.5,12.15625 C 21.5,11.888692 21.5,10.410337 21.5,10.34375 C 21.809359,8.1875977 21.694934,7.5602471 21.125,6.34375 C 21.18012,5.9015983 21.141751,5.3967787 21.90625,5.375 C 23.74283,5.3127308 24.178487,4.4126474 24,3.125 C 23.757887,2.0430424 23.169427,1.8417947 22.46875,1.90625 z"
       id="path3880" />
    <path
       style="opacity:0.50000000000000000;fill:url(#linearGradient3764);fill-opacity:1;stroke:none;stroke-width:0.60000001999999997;stroke-linecap:round;stroke-linejoin:round;stroke-miterlimit:4;stroke-dasharray:none;stroke-opacity:1"
       d="M 15.03125 31.78125 C 15.020842 31.862833 15.010454 31.949419 15 32.03125 C 15.049702 32.088948 15.0625 32.155986 15.0625 32.21875 C 15.0625 32.593051 14.132673 32.90625 12.96875 32.90625 C 11.804828 32.90625 10.84375 32.593051 10.84375 32.21875 C 10.84375 32.195356 10.867797 32.179036 10.875 32.15625 L 10.84375 32.15625 C 10.870895 32.040173 10.881061 31.954933 10.90625 31.84375 C 10.232266 32.03748 9.78125 32.311642 9.78125 32.625 C 9.78125 33.208838 11.278252 33.687502 13.09375 33.6875 C 14.909248 33.6875 16.375 33.20884 16.375 32.625 C 16.375 32.279596 15.828393 31.974317 15.03125 31.78125 z "
       id="path2666" />
    <path
       style="opacity:0.61885243999999995;fill:url(#linearGradient4181);fill-opacity:1;stroke:none;stroke-width:0.60000001999999997;stroke-linecap:round;stroke-linejoin:round;stroke-miterlimit:4;stroke-dasharray:none;stroke-opacity:1"
       d="M 22.96875 17.875 C 22.918863 17.897865 21.5 18.5625 21.5 18.5625 C 21.5 18.5625 17.21875 17.9375 17.21875 17.9375 C 16.732799 18.057993 16.40625 18.180529 16.40625 18.34375 C 16.40625 18.739113 18.100077 19.0625 20.1875 19.0625 C 22.274923 19.0625 23.968749 18.739112 23.96875 18.34375 C 23.96875 18.164501 23.575237 18.000665 23 17.875 C 22.988855 17.872565 22.980064 17.877406 22.96875 17.875 z "
       id="path3449" />
    <path
       style="opacity:0.5;fill:url(#linearGradient3575);fill-opacity:1;stroke:none;stroke-width:0.60000001999999997;stroke-linecap:round;stroke-linejoin:round;stroke-miterlimit:4;stroke-opacity:1"
       d="M 20.1875,14.0625 C 21.285578,14.0625 19.08942,14.0625 20.1875,14.0625 z M 17.90625,13.75 C 17.827861,13.785465 17.78125,13.803344 17.78125,13.84375 C 17.790112,13.810914 17.843791,13.783528 17.90625,13.75 z M 22.46875,13.75 C 22.532039,13.783735 22.584512,13.811304 22.59375,13.84375 C 22.59375,13.803344 22.547139,13.785465 22.46875,13.75 z M 17.78125,13.875 C 17.781251,14.019531 17.78125,16.252631 17.78125,16.34375 C 17.781251,16.547537 18.857659,16.71875 20.1875,16.71875 C 21.517301,16.718749 22.593751,16.547538 22.59375,16.34375 C 22.593749,16.25263 22.59375,14.019532 22.59375,13.875 C 22.59375,14.07881 21.517332,14.21875 20.1875,14.21875 C 18.857669,14.21875 17.78125,14.078811 17.78125,13.875 z"
       id="path3460"
       sodipodi:nodetypes="cscsccsccsssssc" />
    <path
       style="opacity:0.61885243999999995;fill:url(#linearGradient3643);fill-opacity:1;stroke:none;stroke-width:0.60000001999999997;stroke-linecap:round;stroke-linejoin:round;stroke-miterlimit:4;stroke-dasharray:none;stroke-opacity:1"
       d="M 18.1875,13.65625 C 17.946053,13.713772 17.78125,13.801568 17.78125,13.875 C 17.78125,14.078811 18.857669,14.21875 20.1875,14.21875 C 21.517332,14.21875 22.59375,14.07881 22.59375,13.875 C 22.59375,13.802831 22.421358,13.71315 22.1875,13.65625 C 22.1875,13.706164 22.1875,13.757261 22.1875,13.78125 C 22.1875,13.928995 21.285578,14.0625 20.1875,14.0625 C 19.08942,14.0625 18.1875,13.928994 18.1875,13.78125 C 18.1875,13.757261 18.1875,13.706164 18.1875,13.65625 z"
       id="path3462"
       sodipodi:nodetypes="cssscsssc" />
    <path
       style="opacity:1;fill:url(#linearGradient3651);fill-opacity:1;fill-rule:nonzero;stroke:none;stroke-width:1;stroke-linecap:butt;stroke-linejoin:miter;marker:none;marker-start:none;marker-mid:none;marker-end:none;stroke-miterlimit:4;stroke-dasharray:none;stroke-dashoffset:0;stroke-opacity:1;visibility:visible;display:inline;overflow:visible;enable-background:accumulate"
       d="M 18.65625 12.125 L 17.65625 12.4375 L 18.625 12.71875 L 20.96875 12.75 L 22.5625 12.53125 L 22.21875 12.1875 L 21.5 12.15625 C 21.5 12.174702 21.5 12.276082 21.5 12.28125 C 21.500001 12.382281 20.906558 12.46875 20.1875 12.46875 C 19.468442 12.46875 18.875 12.38228 18.875 12.28125 C 18.875 12.274869 18.875 12.151813 18.875 12.125 L 18.65625 12.125 z "
       id="path3479" />
    <path
       style="opacity:0.5;fill:#000000;fill-opacity:1;fill-rule:nonzero;stroke:none;stroke-width:1;stroke-linecap:butt;stroke-linejoin:miter;marker:none;marker-start:none;marker-mid:none;marker-end:none;stroke-miterlimit:4;stroke-dasharray:none;stroke-dashoffset:0;stroke-opacity:1;visibility:visible;display:inline;overflow:visible;enable-background:accumulate"
       d="M 20.96875,13.65625 L 22.5625,13.4375 L 22.5625,12.53125 L 20.96875,12.75 L 20.96875,13.65625 z"
       id="path3496"
       sodipodi:nodetypes="ccccc" />
    <path
       style="opacity:0.50000000000000000;fill:url(#linearGradient3785);fill-opacity:1;fill-rule:nonzero;stroke:none;stroke-width:1;stroke-linecap:butt;stroke-linejoin:miter;marker:none;marker-start:none;marker-mid:none;marker-end:none;stroke-miterlimit:4;stroke-dasharray:none;stroke-dashoffset:0;stroke-opacity:1;visibility:visible;display:inline;overflow:visible;enable-background:accumulate"
       d="M 27.3125 20.4375 L 25.90625 21.25 C 26.305964 21.165583 26.705698 21.086468 27.125 20.96875 C 28.848512 21.839332 29.241418 24.390525 27.6875 25.53125 L 27.1875 25.65625 L 27.40625 25.84375 L 29.0625 25.09375 L 29.0625 22.21875 L 27.3125 20.4375 z "
       id="path3382" />
    <path
       style="opacity:0.75;fill:#000000;fill-opacity:1;fill-rule:nonzero;stroke:none;stroke-width:1;stroke-linecap:butt;stroke-linejoin:miter;marker:none;marker-start:none;marker-mid:none;marker-end:none;stroke-miterlimit:4;stroke-dasharray:none;stroke-dashoffset:0;stroke-opacity:1;visibility:visible;display:inline;overflow:visible;enable-background:accumulate"
       d="M 29.0625,25.09375 L 27.40625,25.84375 L 29,25.40625 L 30.59375,24.65625 L 29.0625,25.09375 z"
       id="path3391"
       sodipodi:nodetypes="ccccc" />
    <path
       style="opacity:0.30327872000000000;fill:url(#radialGradient3898);fill-opacity:1;stroke:none;stroke-width:0.60000001999999997;stroke-linecap:round;stroke-linejoin:round;stroke-miterlimit:4;stroke-dasharray:none;stroke-opacity:1"
       d="M 23.5,19.59375 C 22.871473,19.824992 21.650863,20 20.1875,20 C 18.895248,20 17.807084,19.875723 17.125,19.6875 L 16.875,19.78125 C 16.735876,21.040721 16.698326,22.324721 15.15625,23.53125 C 11.232939,26.755603 12.063428,26.94073 10.84375,32.15625 L 10.875,32.15625 C 10.867797,32.179036 10.84375,32.195356 10.84375,32.21875 C 10.84375,32.593051 11.804828,32.90625 12.96875,32.90625 C 14.132673,32.90625 15.0625,32.593051 15.0625,32.21875 C 15.0625,32.155986 15.049702,32.088948 15,32.03125 C 15.073361,31.456999 15.136901,30.898651 15.3125,30.21875 C 16.068599,29.375721 16.549367,28.090904 18.0625,28.4375 C 20.468065,28.556058 22.325826,27.905015 23.84375,26.75 L 24.90625,26.28125 L 27.6875,25.53125 C 29.241418,24.390525 28.848512,21.839332 27.125,20.96875 C 25.986426,21.288402 24.941018,21.445433 23.875,21.65625 C 23.585694,21.105279 23.575708,20.322189 23.5,19.59375 z"
       id="path3438" />
    <path
       id="path3634"
       d="M 29.0625,22.21875 L 29.0625,25.09375 L 30.59375,24.65625 L 30.59375,21.84375 L 29.0625,22.21875 z"
       style="opacity:0.5;fill:#000000;fill-opacity:1;fill-rule:nonzero;stroke:none;stroke-width:1;stroke-linecap:butt;stroke-linejoin:miter;marker:none;marker-start:none;marker-mid:none;marker-end:none;stroke-miterlimit:4;stroke-dasharray:none;stroke-dashoffset:0;stroke-opacity:1;visibility:visible;display:inline;overflow:visible;enable-background:accumulate"
       sodipodi:nodetypes="ccccc" />
    <path
       style="opacity:0.3;fill:#000000;fill-opacity:1;fill-rule:nonzero;stroke:none;stroke-width:1;stroke-linecap:butt;stroke-linejoin:miter;marker:none;marker-start:none;marker-mid:none;marker-end:none;stroke-miterlimit:4;stroke-dasharray:none;stroke-dashoffset:0;stroke-opacity:1;visibility:visible;display:inline;overflow:visible;enable-background:accumulate"
       d="M 28.90625,20.125 L 27.3125,20.4375 L 29.0625,22.21875 L 30.59375,21.84375 L 28.90625,20.125 z"
       id="path3636"
       sodipodi:nodetypes="ccccc" />
    <path
       id="path3638"
       d="M 17.65625,12.4375 L 17.65625,13.34375 L 18.625,13.625 L 18.625,12.71875 L 17.65625,12.4375 z"
       style="opacity:0.1;fill:#000000;fill-opacity:1;fill-rule:nonzero;stroke:none;stroke-width:1;stroke-linecap:butt;stroke-linejoin:miter;marker:none;marker-start:none;marker-mid:none;marker-end:none;stroke-miterlimit:4;stroke-dasharray:none;stroke-dashoffset:0;stroke-opacity:1;visibility:visible;display:inline;overflow:visible;enable-background:accumulate"
       sodipodi:nodetypes="ccccc" />
    <path
       style="opacity:0.2;fill:#000000;fill-opacity:1;fill-rule:nonzero;stroke:none;stroke-width:1;stroke-linecap:butt;stroke-linejoin:miter;marker:none;marker-start:none;marker-mid:none;marker-end:none;stroke-miterlimit:4;stroke-dasharray:none;stroke-dashoffset:0;stroke-opacity:1;visibility:visible;display:inline;overflow:visible;enable-background:accumulate"
       d="M 18.625,13.625 L 20.96875,13.65625 L 20.96875,12.75 L 18.625,12.71875 L 18.625,13.625 z"
       id="path3640"
       sodipodi:nodetypes="ccccc" />
    <path
       style="opacity:0.5;fill:url(#linearGradient3591);fill-opacity:1;stroke:none;stroke-width:0.60000001999999997;stroke-linecap:round;stroke-linejoin:round;stroke-miterlimit:4;stroke-opacity:1"
       d="M 18.875,10.34375 C 18.875,10.414052 18.874999,12.202125 18.875,12.28125 C 18.875,12.38228 19.468442,12.46875 20.1875,12.46875 C 20.906558,12.46875 21.500001,12.382281 21.5,12.28125 C 21.5,12.201143 21.5,10.414929 21.5,10.34375 C 21.500001,10.433469 20.906558,10.5 20.1875,10.5 C 19.468444,10.5 18.875,10.43347 18.875,10.34375 z"
       id="path3642" />
    <path
       style="opacity:1;fill:url(#linearGradient3583);fill-opacity:1;stroke:none;stroke-width:0.60000001999999997;stroke-linecap:round;stroke-linejoin:round;stroke-miterlimit:4;stroke-opacity:1"
       d="M 22.09375,13.5 L 20.96875,13.65625 L 18.625,13.625 L 18.25,13.53125 C 18.234135,13.545008 18.1875,13.548377 18.1875,13.5625 C 18.1875,13.605022 18.1875,13.739269 18.1875,13.78125 C 18.1875,13.928994 19.08942,14.0625 20.1875,14.0625 C 21.285578,14.0625 22.1875,13.928995 22.1875,13.78125 C 22.1875,13.739269 22.1875,13.605022 22.1875,13.5625 C 22.1875,13.539687 22.134161,13.521695 22.09375,13.5 z"
       id="path3790" />
    <path
       sodipodi:nodetypes="cccccsc"
       id="path3807"
       d="M 17.78125,16.34375 L 17.15625,16.654029 C 17.15625,16.654029 21.5,17.050016 21.5,17.050016 L 22.96875,16.4375 L 22.5625,16.375 C 22.439369,16.561726 21.434188,16.718749 20.1875,16.71875 C 18.857659,16.71875 17.781251,16.547537 17.78125,16.34375 z"
       style="opacity:0.30737705999999998;fill:url(#linearGradient3635);fill-opacity:1;fill-rule:nonzero;stroke:none;stroke-width:1;stroke-linecap:butt;stroke-linejoin:miter;marker:none;marker-start:none;marker-mid:none;marker-end:none;stroke-miterlimit:4;stroke-dasharray:none;stroke-dashoffset:0;stroke-opacity:1;visibility:visible;display:inline;overflow:visible;enable-background:accumulate" />
    <path
       style="opacity:0.35;fill:url(#linearGradient3728);fill-opacity:1;fill-rule:nonzero;stroke:none;stroke-width:1;stroke-linecap:butt;stroke-linejoin:miter;marker:none;marker-start:none;marker-mid:none;marker-end:none;stroke-miterlimit:4;stroke-dasharray:none;stroke-dashoffset:0;stroke-opacity:1;visibility:visible;display:inline;overflow:visible;enable-background:accumulate"
       d="M 21.5,17.0625 C 21.5,17.0625 17.15625,16.656249 17.15625,16.65625 L 17.21875,17.9375 C 17.21875,17.9375 21.5,18.5625 21.5,18.5625 L 21.5,17.0625 z"
       id="path3811"
       sodipodi:nodetypes="ccccc" />
    <path
       id="path3816"
       d="M 22.96875,16.4375 L 21.5,17.0625 C 21.5,17.0625 21.5,18.5625 21.5,18.5625 C 21.5,18.5625 23,17.875 23,17.875 L 22.96875,16.4375 z"
       style="opacity:0.75000000000000000;fill:url(#linearGradient3736);fill-opacity:1;fill-rule:nonzero;stroke:none;stroke-width:1;stroke-linecap:butt;stroke-linejoin:miter;marker:none;marker-start:none;marker-mid:none;marker-end:none;stroke-miterlimit:4;stroke-dasharray:none;stroke-dashoffset:0;stroke-opacity:1;visibility:visible;display:inline;overflow:visible;enable-background:accumulate"
       sodipodi:nodetypes="ccccc" />
    <path
       style="opacity:0.5;fill:url(#linearGradient3567);fill-opacity:1;stroke:none;stroke-width:0.60000002;stroke-linecap:round;stroke-linejoin:round;stroke-miterlimit:4;stroke-opacity:1"
       d="M 17.5,17.84375 C 17.132143,17.909569 16.879351,18.003042 16.6875,18.09375 C 16.878942,18.00807 17.157768,17.908569 17.5,17.84375 z M 16.6875,18.09375 C 16.596267,18.136885 16.511759,18.17121 16.46875,18.21875 C 16.519151,18.172139 16.591779,18.13659 16.6875,18.09375 z M 22.875,17.84375 C 23.538383,17.972808 23.96875,18.149541 23.96875,18.34375 C 23.96875,18.146069 23.559385,17.966205 22.875,17.84375 z M 23.96875,18.34375 C 23.968749,18.739112 22.274923,19.0625 20.1875,19.0625 C 18.100077,19.0625 16.40625,18.739113 16.40625,18.34375 C 16.40625,18.52193 16.40625,19.102246 16.40625,19.28125 C 16.40625,19.676612 18.100075,20 20.1875,20 C 22.274922,20 23.968751,19.676612 23.96875,19.28125 C 23.96875,19.102246 23.96875,18.521931 23.96875,18.34375 z"
       id="path3838" />
    <path
       style="opacity:0.50000000000000000;fill:url(#linearGradient3802);fill-opacity:1;stroke:none;stroke-width:0.60000001999999997;stroke-linecap:round;stroke-linejoin:round;stroke-miterlimit:4;stroke-dasharray:none;stroke-opacity:1"
       d="M 29.3125,19.625 L 29.0625,19.6875 L 28.375,19.8125 C 28.524958,19.770709 28.684755,19.75 28.84375,19.75 C 30.115712,19.75 31.125,21.144165 31.125,22.875 C 31.125,24.308215 30.434347,25.532635 29.46875,25.90625 L 29.9375,25.78125 C 31.0095,25.522271 31.8125,24.282741 31.8125,22.75 C 31.8125,21.030476 30.794901,19.624999 29.53125,19.625 L 29.3125,19.625 z"
       id="path3401" />
    <path
       style="opacity:0.50000000000000000;fill:url(#linearGradient3793);fill-opacity:1;stroke:none;stroke-width:0.60000001999999997;stroke-linecap:round;stroke-linejoin:round;stroke-miterlimit:4;stroke-dasharray:none;stroke-opacity:1"
       d="M 28.84375,19.75 C 28.684755,19.75 28.524958,19.770709 28.375,19.8125 C 28.020724,19.911232 27.712836,20.11521 27.4375,20.40625 L 28.90625,20.125 L 30.59375,21.84375 L 30.59375,24.65625 L 29,25.40625 L 27.84375,25.71875 C 28.14585,25.917669 28.4876,26.03125 28.84375,26.03125 L 29.46875,25.90625 C 29.490276,25.897921 29.510002,25.884168 29.53125,25.875 C 30.463134,25.472938 31.125,24.276264 31.125,22.875 C 31.125,21.144165 30.115712,19.75 28.84375,19.75 z"
       id="path3890" />
    <path
       style="opacity:0.54098360999999995;fill:url(#linearGradient3810);fill-opacity:1;fill-rule:nonzero;stroke:none;stroke-width:1;stroke-linecap:butt;stroke-linejoin:miter;marker:none;marker-start:none;marker-mid:none;marker-end:none;stroke-miterlimit:4;stroke-dasharray:none;stroke-dashoffset:0;stroke-opacity:1;visibility:visible;display:inline;overflow:visible;enable-background:accumulate"
       d="M 31.0625,19.9375 L 30.59375,20 C 31.314371,20.526747 31.8125,21.55837 31.8125,22.75 C 31.8125,23.626217 31.550082,24.412588 31.125,24.96875 L 31.5625,24.875 C 32.42534,24.666557 33.09375,23.671161 33.09375,22.4375 C 33.09375,21.053496 32.26706,19.937499 31.25,19.9375 L 31.0625,19.9375 z"
       id="path3903"
       sodipodi:nodetypes="ccsccscc" />
    <path
       style="opacity:0.50000000000000000;fill:url(#linearGradient3559);fill-opacity:1;stroke:none;stroke-width:0.60000001999999997;stroke-linecap:round;stroke-linejoin:round;stroke-miterlimit:4;stroke-dasharray:none;stroke-opacity:1"
       d="M 24.53125,24.25 C 24.679871,25.007347 24.353932,25.942454 23.96875,26.6875 L 24.90625,26.28125 L 25.75,26.0625 C 24.936277,25.903578 24.965679,24.988331 24.53125,24.25 z M 17.3125,24.78125 C 17.082494,27.029152 16.254259,28.135788 15.875,29.5 C 16.392326,28.812834 16.946935,28.18197 18.0625,28.4375 C 18.418576,28.455049 18.761005,28.452814 19.09375,28.4375 C 18.151784,27.978662 17.809147,26.741286 17.3125,24.78125 z"
       id="path3937" />
    <path
       style="opacity:0.50000000000000000;fill:url(#radialGradient3535);fill-opacity:1;stroke:none;stroke-width:0.60000001999999997;stroke-linecap:round;stroke-linejoin:round;stroke-miterlimit:4;stroke-dasharray:none;stroke-opacity:1"
       d="M 23.5,19.59375 C 22.871473,19.824992 21.650863,20 20.1875,20 C 18.895248,20 17.807084,19.875723 17.125,19.6875 L 16.875,19.78125 C 17.495119,20.178878 17.572869,23.212127 17.3125,24.78125 C 17.809147,26.741286 18.151784,27.978662 19.09375,28.4375 C 21.008952,28.349357 22.550512,27.734048 23.84375,26.75 L 23.96875,26.6875 C 24.353932,25.942454 24.679871,25.007347 24.53125,24.25 C 24.757568,23.203239 24.27456,22.104594 23.875,21.65625 C 23.585694,21.105279 23.575708,20.322189 23.5,19.59375 z"
       id="path3942"
       sodipodi:nodetypes="csccccccccc" />
    <path
       style="opacity:0.25;fill:url(#radialGradient3543);fill-opacity:1;stroke:none;stroke-width:0.60000001999999997;stroke-linecap:round;stroke-linejoin:round;stroke-miterlimit:4;stroke-dasharray:none;stroke-opacity:1"
       d="M 16.875 19.78125 C 16.735876 21.040721 16.698326 22.324721 15.15625 23.53125 C 16.698326 22.324721 17.572869 23.212127 17.3125 24.78125 C 17.572869 23.212127 17.495119 20.178878 16.875 19.78125 z "
       id="path3958" />
    <path
       style="opacity:0.5;fill:url(#linearGradient3551);fill-opacity:1;stroke:none;stroke-width:0.60000001999999997;stroke-linecap:round;stroke-linejoin:round;stroke-miterlimit:4;stroke-dasharray:none;stroke-opacity:1"
       d="M 27.125,20.96875 C 25.986426,21.288402 24.941018,21.445433 23.875,21.65625 C 24.27456,22.104594 24.757568,23.203239 24.53125,24.25 C 24.965679,24.988331 24.936277,25.903578 25.75,26.0625 L 27.6875,25.53125 C 29.241418,24.390525 28.848512,21.839332 27.125,20.96875 z"
       id="path3951" />
    <path
       id="path3960"
       d="M 15.15625,23.53125 C 11.232939,26.755603 12.063428,26.94073 10.84375,32.15625 L 10.875,32.15625 C 10.867797,32.179036 10.84375,32.195356 10.84375,32.21875 C 10.84375,32.593051 11.804828,32.90625 12.96875,32.90625 C 14.132673,32.90625 15.0625,32.593051 15.0625,32.21875 C 15.0625,32.155986 15.049702,32.088948 15,32.03125 C 15.073361,31.456999 15.136901,30.898651 15.3125,30.21875 C 15.511161,29.997248 15.690634,29.744894 15.875,29.5 C 16.254259,28.135788 17.082494,27.029152 17.3125,24.78125 C 17.572869,23.212127 16.698326,22.324721 15.15625,23.53125 z"
       style="opacity:0.50000000000000000;fill:url(#radialGradient3527);fill-opacity:1;stroke:none;stroke-width:0.60000001999999997;stroke-linecap:round;stroke-linejoin:round;stroke-miterlimit:4;stroke-dasharray:none;stroke-opacity:1"
       sodipodi:nodetypes="cccsssccccc" />
    <path
       sodipodi:type="arc"
       style="opacity:0.35;fill:url(#radialGradient3698);fill-opacity:1;stroke:none;stroke-width:0.20000000000000001;stroke-linecap:round;stroke-linejoin:round;stroke-miterlimit:4;stroke-dasharray:none;stroke-opacity:1"
       id="path3690"
       sodipodi:cx="19.865282"
       sodipodi:cy="6.1638355"
       sodipodi:rx="0.90598059"
       sodipodi:ry="0.29278639"
       d="M 20.771263,6.1638355 A 0.90598059,0.29278639 0 1 1 18.959301,6.1638355 A 0.90598059,0.29278639 0 1 1 20.771263,6.1638355 z"
       transform="matrix(1.2865854,0,0,1.3207547,-5.6654777,-1.8168755)" />
    <path
       style="opacity:0.50000000000000000;fill:url(#radialGradient3700);fill-opacity:1;fill-rule:nonzero;stroke:none;stroke-width:1;stroke-linecap:butt;stroke-linejoin:miter;marker:none;marker-start:none;marker-mid:none;marker-end:none;stroke-miterlimit:4;stroke-dasharray:none;stroke-dashoffset:0;stroke-opacity:1;visibility:visible;display:inline;overflow:visible;enable-background:accumulate"
       d="M 18.71875 6.34375 C 18.470366 7.7082115 18.05501 9.0840148 18.90625 10.34375 C 18.960626 10.427245 19.504395 10.5 20.1875 10.5 C 20.906558 10.5 21.487321 10.432569 21.5 10.34375 C 21.809359 8.1875977 21.694934 7.5602471 21.125 6.34375 C 21.284808 6.5558978 18.748329 6.6749601 18.71875 6.34375 z "
       id="path3486" />
    <path
       style="opacity:0.33606555;fill:url(#radialGradient3653);fill-opacity:1;fill-rule:nonzero;stroke:none;stroke-width:1;stroke-linecap:butt;stroke-linejoin:miter;marker:none;marker-start:none;marker-mid:none;marker-end:none;stroke-miterlimit:4;stroke-dasharray:none;stroke-dashoffset:0;stroke-opacity:1;visibility:visible;display:inline;overflow:visible;enable-background:accumulate"
       d="M 22.46875,1.90625 C 22.048344,1.9449232 21.59628,2.0997687 21.15625,2.1875 C 20.150746,2.3824539 19.125373,2.2901157 18.09375,2.25 C 16.75768,2.0275743 16.212502,1.7550433 15.90625,3.28125 C 15.885243,4.3796385 16.250551,5.1255932 17.53125,5.1875 C 18.548413,5.2249505 18.67478,5.8513995 18.71875,6.34375 C 18.748329,6.6749601 21.284808,6.5558978 21.125,6.34375 C 20.856908,5.9878528 21.141751,5.3967787 21.90625,5.375 C 23.74283,5.3127308 24.178487,4.4126474 24,3.125 C 23.757887,2.0430424 23.169427,1.8417947 22.46875,1.90625 z"
       id="path3488"
       sodipodi:nodetypes="cscccssscc" />
    <path
       style="opacity:0.5;fill:url(#linearGradient3683);fill-opacity:1;fill-rule:nonzero;stroke:none;stroke-width:1;stroke-linecap:butt;stroke-linejoin:miter;marker:none;marker-start:none;marker-mid:none;marker-end:none;stroke-miterlimit:4;stroke-dasharray:none;stroke-dashoffset:0;stroke-opacity:1;visibility:visible;display:inline;overflow:visible;enable-background:accumulate"
       d="M 22.46875,1.90625 C 22.048344,1.9449232 21.59628,2.0997687 21.15625,2.1875 C 20.150746,2.3824539 19.125373,2.2901157 18.09375,2.25 C 16.75768,2.0275743 16.212502,1.7550433 15.90625,3.28125 C 15.885243,4.3796385 16.250551,5.1255932 17.53125,5.1875 C 17.785541,5.1968626 17.973871,5.2401519 18.125,5.3125 C 17.978255,5.223473 17.808079,5.1351923 17.53125,5.125 C 16.361919,5.0684769 16.012068,4.4091224 16.03125,3.40625 C 16.31087,2.0127633 16.811364,2.2656659 18.03125,2.46875 C 18.973161,2.5053769 19.925686,2.584251 20.84375,2.40625 C 21.245516,2.3261483 21.647403,2.1915609 22.03125,2.15625 C 22.670999,2.0974003 23.216434,2.2621296 23.4375,3.25 C 23.600459,4.425673 23.208118,5.255646 21.53125,5.3125 C 20.867786,5.3314007 20.85421,6.0886217 20.8125,6.4765625 C 21.233116,6.4556782 21.137172,6.2461082 21.125,6.34375 C 21.18012,5.9015983 21.141751,5.3967787 21.90625,5.375 C 23.74283,5.3127308 24.178487,4.4126474 24,3.125 C 23.757887,2.0430424 23.169427,1.8417947 22.46875,1.90625 z"
       id="path3659"
       sodipodi:nodetypes="csccsssccsscscsscc" />
    <path
       style="opacity:0.50000000000000000;fill:url(#linearGradient3777);fill-opacity:1;fill-rule:nonzero;stroke:none;stroke-width:1;stroke-linecap:butt;stroke-linejoin:miter;marker:none;marker-start:none;marker-mid:none;marker-end:none;stroke-miterlimit:4;stroke-dasharray:none;stroke-dashoffset:0;stroke-opacity:1;visibility:visible;display:inline;overflow:visible;enable-background:accumulate"
       d="M 9.78125 32.625 C 9.78125 32.81845 9.78125 33.175058 9.78125 33.53125 C 9.7391019 33.606595 9.7466661 33.673616 9.75 33.75 C 9.7523275 33.803328 9.7567103 33.855817 9.78125 33.90625 C 9.7391178 33.98047 9.7154161 34.079866 9.71875 34.15625 C 9.7216334 34.222301 9.7479863 34.276551 9.78125 34.34375 C 9.78125 34.350815 9.78125 34.368329 9.78125 34.375 C 9.78125 34.397032 9.8082999 34.415788 9.8125 34.4375 C 9.8007758 34.455916 9.7903723 34.480773 9.78125 34.5 C 9.7953839 34.519626 9.8260411 34.543409 9.84375 34.5625 C 9.8488836 34.571689 9.8378753 34.584642 9.84375 34.59375 C 9.8762734 34.626916 9.9258475 34.656134 9.96875 34.6875 C 10.407008 35.110659 11.637569 35.437498 13.09375 35.4375 C 14.750819 35.4375 16.118014 35.04479 16.34375 34.53125 C 16.367786 34.512791 16.389939 34.490454 16.40625 34.46875 C 16.397159 34.449056 16.389775 34.423799 16.375 34.40625 C 16.375794 34.39667 16.375 34.384639 16.375 34.375 C 16.375 34.348148 16.375 34.282748 16.375 34.25 C 16.433806 34.16954 16.503648 34.083574 16.5 34 C 16.497939 33.95282 16.488328 33.889947 16.46875 33.84375 C 16.461573 33.854257 16.445714 33.864624 16.4375 33.875 C 16.431269 33.863205 16.413451 33.855243 16.40625 33.84375 C 16.46971 33.756557 16.504119 33.688107 16.5 33.59375 C 16.49812 33.550679 16.483521 33.509291 16.46875 33.46875 C 16.452179 33.427488 16.405892 33.384243 16.375 33.34375 C 16.375 33.065649 16.375 32.7794 16.375 32.625 C 16.375 33.20884 14.909248 33.6875 13.09375 33.6875 C 11.278252 33.687502 9.78125 33.208838 9.78125 32.625 z "
       id="path3766" />
    <path
       sodipodi:type="arc"
       style="opacity:0.15;fill:url(#radialGradient3862);fill-opacity:1;stroke:none;stroke-width:0.20000000000000001;stroke-linecap:round;stroke-linejoin:round;stroke-miterlimit:4;stroke-dasharray:none;stroke-opacity:1"
       id="path3854"
       sodipodi:cx="21.25"
       sodipodi:cy="23.390625"
       sodipodi:rx="2.15625"
       sodipodi:ry="1.078125"
       d="M 23.40625,23.390625 A 2.15625,1.078125 0 1 1 19.09375,23.390625 A 2.15625,1.078125 0 1 1 23.40625,23.390625 z"
       transform="matrix(1.0819466,-1.1426694,0.8846476,0.8376353,-29.803933,31.437992)" />
    <path
       style="opacity:0.15;fill:url(#radialGradient4332);fill-opacity:1;stroke:none;stroke-width:0.20000000000000001;stroke-linecap:round;stroke-linejoin:round;stroke-miterlimit:4;stroke-dasharray:none;stroke-opacity:1"
       d="M 19.90625 21.9375 C 18.871272 21.914844 18.033565 23.138373 18.03125 24.65625 C 18.029543 25.775873 18.501708 26.744359 19.15625 27.1875 C 19.625854 26.481104 20.450236 25.574727 21.78125 24.78125 C 21.781602 24.760352 21.781218 24.739767 21.78125 24.71875 C 21.783565 23.200872 20.941229 21.960157 19.90625 21.9375 z "
       id="path3864" />
    <path
       sodipodi:type="arc"
       style="opacity:0.34016395;fill:url(#radialGradient3870);fill-opacity:1;stroke:none;stroke-width:0.2;stroke-linecap:round;stroke-linejoin:round;stroke-miterlimit:4;stroke-dasharray:none;stroke-opacity:1"
       id="path3868"
       sodipodi:cx="21.25"
       sodipodi:cy="23.390625"
       sodipodi:rx="2.15625"
       sodipodi:ry="1.078125"
       d="M 23.40625,23.390625 A 2.15625,1.078125 0 1 1 19.09375,23.390625 A 2.15625,1.078125 0 1 1 23.40625,23.390625 z"
       transform="matrix(0.3458594,7.571116e-3,-1.5471175e-3,1.0144627,12.155411,-8.3585075)" />
    <path
       sodipodi:nodetypes="ccccc"
       id="path3872"
       d="M 18.625,13.625 L 20.96875,13.65625 L 20.96875,12.75 L 18.625,12.71875 L 18.625,13.625 z"
       style="opacity:0.4;fill:#ffffff;fill-opacity:1;fill-rule:nonzero;stroke:none;stroke-width:1;stroke-linecap:butt;stroke-linejoin:miter;marker:none;marker-start:none;marker-mid:none;marker-end:none;stroke-miterlimit:4;stroke-dasharray:none;stroke-dashoffset:0;stroke-opacity:1;visibility:visible;display:inline;overflow:visible;enable-background:accumulate" />
    <path
       sodipodi:nodetypes="ccccc"
       id="path3874"
       d="M 21.5,17.0625 C 21.5,17.0625 17.15625,16.656249 17.15625,16.65625 L 17.21875,17.9375 C 17.21875,17.9375 21.5,18.5625 21.5,18.5625 L 21.5,17.0625 z"
       style="opacity:0.15;fill:#ffffff;fill-opacity:1;fill-rule:nonzero;stroke:none;stroke-width:1;stroke-linecap:butt;stroke-linejoin:miter;marker:none;marker-start:none;marker-mid:none;marker-end:none;stroke-miterlimit:4;stroke-dasharray:none;stroke-dashoffset:0;stroke-opacity:1;visibility:visible;display:inline;overflow:visible;enable-background:accumulate" />
    <path
       sodipodi:type="arc"
       style="opacity:0.34016395;fill:url(#radialGradient3878);fill-opacity:1;stroke:none;stroke-width:0.2;stroke-linecap:round;stroke-linejoin:round;stroke-miterlimit:4;stroke-dasharray:none;stroke-opacity:1"
       id="path3876"
       sodipodi:cx="21.25"
       sodipodi:cy="23.390625"
       sodipodi:rx="2.15625"
       sodipodi:ry="1.078125"
       d="M 23.40625,23.390625 A 2.15625,1.078125 0 1 1 19.09375,23.390625 A 2.15625,1.078125 0 1 1 23.40625,23.390625 z"
       transform="matrix(0.4223887,1.4905419e-2,-1.8894514e-3,1.9971957,10.709507,-38.674602)" />
    <path
       sodipodi:nodetypes="cccsssccccc"
       style="opacity:0.15;fill:url(#radialGradient3837);fill-opacity:1;stroke:none;stroke-width:0.60000001999999997;stroke-linecap:round;stroke-linejoin:round;stroke-miterlimit:4;stroke-dasharray:none;stroke-opacity:1"
       d="M 15.15625,23.53125 C 11.232939,26.755603 12.063428,26.94073 10.84375,32.15625 L 10.875,32.15625 C 10.867797,32.179036 10.84375,32.195356 10.84375,32.21875 C 10.84375,32.593051 11.804828,32.90625 12.96875,32.90625 C 14.132673,32.90625 15.0625,32.593051 15.0625,32.21875 C 15.0625,32.155986 15.049702,32.088948 15,32.03125 C 15.073361,31.456999 15.136901,30.898651 15.3125,30.21875 C 15.511161,29.997248 15.690634,29.744894 15.875,29.5 C 16.254259,28.135788 17.082494,27.029152 17.3125,24.78125 C 17.572869,23.212127 16.698326,22.324721 15.15625,23.53125 z"
       id="path3053" />
    <path
       style="opacity:0.15;fill:url(#radialGradient4330);fill-opacity:1;stroke:none;stroke-width:0.60000002;stroke-linecap:round;stroke-linejoin:round;stroke-miterlimit:4;stroke-dasharray:none;stroke-opacity:1"
       d="M 23.5,19.59375 C 22.871473,19.824992 21.650863,20 20.1875,20 C 18.895248,20 17.807084,19.875723 17.125,19.6875 L 16.875,19.78125 C 16.735876,21.040721 16.698326,22.324721 15.15625,23.53125 C 16.698326,22.324721 17.572869,23.212127 17.3125,24.78125 C 17.809147,26.741286 18.151784,27.978662 19.09375,28.4375 C 21.008952,28.349357 22.550512,27.734048 23.84375,26.75 L 23.96875,26.6875 C 24.353932,25.942454 24.679871,25.007347 24.53125,24.25 C 24.757568,23.203239 24.27456,22.104594 23.875,21.65625 C 23.585694,21.105279 23.575708,20.322189 23.5,19.59375 z"
       id="path3839" />
    <path
       id="path3847"
       d="M 17.5,17.84375 C 17.132143,17.909569 16.879351,18.003042 16.6875,18.09375 C 16.878942,18.00807 17.157768,17.908569 17.5,17.84375 z M 16.6875,18.09375 C 16.596267,18.136885 16.511759,18.17121 16.46875,18.21875 C 16.519151,18.172139 16.591779,18.13659 16.6875,18.09375 z M 22.875,17.84375 C 23.538383,17.972808 23.96875,18.149541 23.96875,18.34375 C 23.96875,18.146069 23.559385,17.966205 22.875,17.84375 z M 23.96875,18.34375 C 23.968749,18.739112 22.274923,19.0625 20.1875,19.0625 C 18.100077,19.0625 16.40625,18.739113 16.40625,18.34375 C 16.40625,18.52193 16.40625,19.102246 16.40625,19.28125 C 16.40625,19.676612 18.100075,20 20.1875,20 C 22.274922,20 23.968751,19.676612 23.96875,19.28125 C 23.96875,19.102246 23.96875,18.521931 23.96875,18.34375 z"
       style="opacity:0.5;fill:url(#linearGradient3849);fill-opacity:1;stroke:none;stroke-width:0.60000001999999997;stroke-linecap:round;stroke-linejoin:round;stroke-miterlimit:4;stroke-opacity:1" />
    <path
       style="opacity:0.35;fill:url(#linearGradient3859);fill-opacity:1;fill-rule:nonzero;stroke:none;stroke-width:1;stroke-linecap:butt;stroke-linejoin:miter;marker:none;marker-start:none;marker-mid:none;marker-end:none;stroke-miterlimit:4;stroke-dasharray:none;stroke-dashoffset:0;stroke-opacity:1;visibility:visible;display:inline;overflow:visible;enable-background:accumulate"
       d="M 21.5,17.0625 C 21.5,17.0625 17.15625,16.656249 17.15625,16.65625 L 17.21875,17.9375 C 17.21875,17.9375 21.5,18.5625 21.5,18.5625 L 21.5,17.0625 z"
       id="path3851"
       sodipodi:nodetypes="ccccc" />
    <path
       id="path3875"
       d="M 27.3125 20.4375 L 25.90625 21.25 C 26.305964 21.165583 26.705698 21.086468 27.125 20.96875 C 28.848512 21.839332 29.241418 24.390525 27.6875 25.53125 L 27.1875 25.65625 L 27.40625 25.84375 L 29.0625 25.09375 L 29.0625 22.21875 L 27.3125 20.4375 z "
       style="opacity:0.50000000000000000;fill:url(#linearGradient3877);fill-opacity:1;fill-rule:nonzero;stroke:none;stroke-width:1;stroke-linecap:butt;stroke-linejoin:miter;marker:none;marker-start:none;marker-mid:none;marker-end:none;stroke-miterlimit:4;stroke-dasharray:none;stroke-dashoffset:0;stroke-opacity:1;visibility:visible;display:inline;overflow:visible;enable-background:accumulate" />
    <path
       id="path3879"
       d="M 28.84375,19.75 C 28.684755,19.75 28.524958,19.770709 28.375,19.8125 C 28.020724,19.911232 27.712836,20.11521 27.4375,20.40625 L 28.90625,20.125 L 30.59375,21.84375 L 30.59375,24.65625 L 29,25.40625 L 27.84375,25.71875 C 28.14585,25.917669 28.4876,26.03125 28.84375,26.03125 L 29.46875,25.90625 C 29.490276,25.897921 29.510002,25.884168 29.53125,25.875 C 30.463134,25.472938 31.125,24.276264 31.125,22.875 C 31.125,21.144165 30.115712,19.75 28.84375,19.75 z"
       style="opacity:0.50000000000000000;fill:url(#linearGradient3881);fill-opacity:1;stroke:none;stroke-width:0.60000001999999997;stroke-linecap:round;stroke-linejoin:round;stroke-miterlimit:4;stroke-dasharray:none;stroke-opacity:1" />
    <path
       style="opacity:0.50000000000000000;fill:url(#radialGradient3907);fill-opacity:1;stroke:none;stroke-width:0.60000001999999997;stroke-linecap:round;stroke-linejoin:round;stroke-miterlimit:4;stroke-opacity:1"
       d="M 23.5 19.59375 C 23.342868 19.651561 23.163184 19.701075 22.9375 19.75 C 22.730939 19.791932 22.472516 19.843387 22.21875 19.875 C 22.19697 19.877921 22.17835 19.872166 22.15625 19.875 C 21.987258 19.895172 21.84175 19.922534 21.65625 19.9375 C 21.512153 19.950563 21.372332 19.959434 21.21875 19.96875 C 20.883782 19.9873 20.553719 20 20.1875 20 C 19.54116 20 18.956109 19.967411 18.4375 19.90625 C 17.98679 19.858821 17.600294 19.796745 17.28125 19.71875 C 17.721497 20.022566 19.166626 20.25 20.90625 20.25 C 21.923632 20.25 22.851398 20.155781 23.53125 20.03125 C 23.518622 19.883664 23.515123 19.739261 23.5 19.59375 z "
       id="path3893" />
    <path
       style="opacity:0.50000000000000000;fill:url(#linearGradient3913);fill-opacity:1;stroke:none;stroke-width:0.60000001999999997;stroke-linecap:round;stroke-linejoin:round;stroke-miterlimit:4;stroke-opacity:1"
       d="M 18.4375 18.96875 L 18.4375 19.90625 C 18.829668 19.94613 19.25965 19.957353 19.71875 19.96875 L 19.71875 19.03125 C 19.25965 19.019853 18.829668 19.00863 18.4375 18.96875 z "
       id="path3909" />
    <path
       id="path3916"
       d="M 22.09375,13.5 L 20.96875,13.65625 L 18.625,13.625 L 18.25,13.53125 C 18.234135,13.545008 18.1875,13.548377 18.1875,13.5625 C 18.1875,13.605022 18.1875,13.739269 18.1875,13.78125 C 18.1875,13.928994 19.08942,14.0625 20.1875,14.0625 C 21.285578,14.0625 22.1875,13.928995 22.1875,13.78125 C 22.1875,13.739269 22.1875,13.605022 22.1875,13.5625 C 22.1875,13.539687 22.134161,13.521695 22.09375,13.5 z"
       style="opacity:0.50000000000000000;fill:url(#radialGradient3918);fill-opacity:1;stroke:none;stroke-width:0.60000001999999997;stroke-linecap:round;stroke-linejoin:round;stroke-miterlimit:4;stroke-opacity:1" />
    <path
       style="fill:url(#radialGradient2770);fill-opacity:1;fill-rule:nonzero;stroke:none;stroke-width:0.30000001;stroke-linecap:round;stroke-linejoin:round;stroke-miterlimit:4;stroke-opacity:1"
       d="M 16.214201,34.321164 C 15.70816,34.693059 14.573228,34.973998 13.194441,35.039914 C 12.097895,35.092337 11.134943,34.959226 10.498227,34.727414 C 11.100696,35.15785 11.983275,35.460838 12.978743,35.508664 C 14.449387,35.57932 15.694663,35.065944 16.214201,34.321164 z"
       id="path3516" />
    <path
       id="path3404"
       d="M 16.458702,33.423443 C 16.164305,33.904621 14.814622,34.289033 13.174144,34.341679 C 11.431964,34.39759 9.9892708,34.030177 9.770218,33.510744 C 9.7280691,33.586088 9.7275697,33.674846 9.7309046,33.75123 C 9.757579,34.362306 11.29378,34.797605 13.168671,34.733285 C 15.043562,34.668965 16.519219,34.185637 16.492544,33.574563 C 16.490217,33.521237 16.483319,33.475657 16.458702,33.423443 z"
       style="fill:url(#radialGradient4523);fill-opacity:1;fill-rule:nonzero;stroke:none;stroke-width:0.30000001;stroke-linecap:round;stroke-linejoin:round;stroke-miterlimit:4;stroke-opacity:1" />
    <path
       id="path3406"
       d="M 16.452548,33.863806 C 16.134129,34.329941 14.787141,34.669859 13.168832,34.721796 C 11.457605,34.776713 10.022529,34.425629 9.7644847,33.920984 C 9.7223515,33.995201 9.7218364,34.085085 9.7251713,34.161469 C 9.7518457,34.772545 11.288047,35.207844 13.162938,35.143524 C 15.037829,35.079203 16.513065,34.626003 16.486389,34.014926 C 16.484329,33.967746 16.472126,33.910003 16.452548,33.863806 z"
       style="fill:url(#radialGradient4597);fill-opacity:1;fill-rule:nonzero;stroke:none;stroke-width:0.30000001;stroke-linecap:round;stroke-linejoin:round;stroke-miterlimit:4;stroke-opacity:1" />
    <path
       style="opacity:1;fill:url(#linearGradient4547);fill-opacity:1;fill-rule:nonzero;stroke:none;stroke-width:0.30000001;stroke-linecap:round;stroke-linejoin:round;stroke-miterlimit:4;stroke-opacity:1"
       d="M 16.501609,32.797329 C 16.528284,33.408405 15.047062,33.921783 13.172172,33.986103 C 12.711343,34.001915 12.291277,33.979256 11.891468,33.938075 C 11.854865,33.934306 11.802423,33.940526 11.76648,33.936328 C 11.476313,33.90244 11.227261,33.834096 10.987411,33.774794 C 10.523452,33.663373 10.166693,33.522196 9.9621556,33.338654 C 9.8790301,33.410815 9.8072755,33.471825 9.771727,33.546899 C 9.9907797,34.066332 11.424519,34.433619 13.166699,34.377708 C 13.973152,34.351828 14.721045,34.234361 15.296122,34.076045 C 15.443564,34.036161 15.548342,33.976931 15.67319,33.930668 C 15.79243,33.886049 15.922589,33.864584 16.018591,33.814977 C 16.03453,33.806764 16.035016,33.793634 16.050259,33.785291 C 16.131348,33.741504 16.209419,33.714783 16.270671,33.667853 C 15.816709,34.08916 14.626748,34.417947 13.165436,34.468079 C 12.704607,34.483888 12.284541,34.461232 11.884732,34.420051 C 11.848129,34.41628 11.795687,34.422502 11.759744,34.418304 C 11.469577,34.384414 11.220525,34.316071 10.980675,34.25677 C 10.516716,34.145348 10.159957,34.004172 9.9554197,33.82063 C 9.8723212,33.890859 9.8005464,33.953318 9.7649911,34.028874 C 10.023035,34.53352 11.449157,34.884479 13.160384,34.82956 C 13.564961,34.816577 13.959375,34.771678 14.318205,34.725225 C 15.394695,34.585862 16.215129,34.32131 16.453943,33.971709 C 16.420089,33.883256 16.354655,33.805354 16.269829,33.7281 C 16.352877,33.661549 16.424794,33.588801 16.460258,33.519856 C 16.464118,33.514701 16.457089,33.495022 16.460679,33.489733 C 16.486052,33.429806 16.497319,33.375119 16.494452,33.309428 C 16.496906,33.365635 16.451962,33.405354 16.429853,33.459172 C 16.395845,33.388706 16.352205,33.315564 16.276565,33.246125 C 16.442698,33.110412 16.508277,32.950099 16.501609,32.797329 z M 16.453943,33.971709 C 16.444448,33.999683 16.437281,34.034495 16.421433,34.061643 C 16.439127,34.030498 16.444837,34.004085 16.453943,33.971709 z M 16.262672,34.240199 C 15.794975,34.644649 14.600712,34.900585 13.1587,34.950055 C 12.697871,34.965864 12.277805,34.943207 11.877996,34.902027 C 11.841393,34.898257 11.788951,34.904478 11.753008,34.90028 C 11.462841,34.866391 11.213789,34.798047 10.973939,34.738746 C 10.50998,34.627324 10.153221,34.486148 9.9486839,34.302606 C 9.8772421,34.361345 9.8253609,34.446443 9.7895022,34.511287 C 10.128715,34.982306 11.514012,35.303936 13.15449,35.251289 C 13.554045,35.238468 13.95908,35.219047 14.31189,35.177076 C 15.193915,35.072152 15.869393,34.858171 16.226374,34.601245 C 16.297769,34.549861 16.373552,34.509678 16.41596,34.453247 C 16.380402,34.376219 16.336443,34.306846 16.262672,34.240199 z M 9.7895022,34.511287 C 9.7419684,34.597242 9.7198389,34.664323 9.7236404,34.751401 C 9.7200796,34.669856 9.7414332,34.589023 9.7895022,34.511287 z"
       id="path4439" />
    <path
       style="opacity:0.25;fill:url(#radialGradient4646);fill-opacity:1;fill-rule:nonzero;stroke:none;stroke-width:0.30000001;stroke-linecap:round;stroke-linejoin:round;stroke-miterlimit:4;stroke-opacity:1"
       d="M 13.179618,33.950074 C 12.718789,33.965885 12.285791,33.943047 11.885982,33.901866 C 11.849379,33.898096 11.814086,33.904557 11.778143,33.900359 C 11.487977,33.866469 11.229285,33.797992 10.989436,33.738689 C 10.525476,33.627267 10.157433,33.485934 9.9528952,33.302392 C 9.8697697,33.374551 9.8057674,33.435671 9.7702188,33.510745 C 9.9892716,34.030177 11.431965,34.397591 13.174145,34.34168 C 13.980598,34.315799 14.724512,34.198276 15.29959,34.039961 C 15.447031,34.000075 15.536307,33.94063 15.661155,33.894367 C 15.780395,33.849747 15.926298,33.828503 16.022299,33.778897 C 16.038238,33.770682 16.043424,33.757618 16.058667,33.749276 C 16.139755,33.705488 16.214774,33.678725 16.276027,33.631796 C 16.288762,33.621843 16.300614,33.61226 16.312393,33.602175 C 16.3728,33.552049 16.42238,33.50646 16.458282,33.453567 C 16.42514,33.371043 16.369874,33.290811 16.281921,33.210067 C 16.448053,33.074353 15.054509,33.885755 13.179618,33.950074 z"
       id="path3422"
       sodipodi:nodetypes="csssccsssssssscs" />
    <path
       style="opacity:0.25;fill:url(#radialGradient4643);fill-opacity:1;fill-rule:nonzero;stroke:none;stroke-width:0.30000001;stroke-linecap:round;stroke-linejoin:round;stroke-miterlimit:4;stroke-opacity:1"
       d="M 13.172839,34.435079 C 12.71201,34.450888 12.279013,34.428051 11.879204,34.38687 C 11.842601,34.3831 11.807308,34.389561 11.771365,34.385363 C 11.481198,34.351474 11.222507,34.282996 10.982657,34.223694 C 10.518698,34.112272 10.150655,33.970939 9.946117,33.787397 C 9.8630185,33.857626 9.7989959,33.920193 9.7634406,33.995749 C 10.021485,34.500395 11.456561,34.851478 13.167788,34.796561 C 13.572365,34.783577 13.960914,34.738596 14.319744,34.692142 C 15.396235,34.55278 16.21269,34.288172 16.451504,33.938571 C 16.41765,33.850119 16.359968,33.772326 16.275142,33.695072 C 16.441239,33.561971 15.04773,34.370759 13.172839,34.435079 z"
       id="path3420"
       sodipodi:nodetypes="csssccssccs" />
    <path
       style="opacity:0.25;fill:url(#radialGradient4640);fill-opacity:1;fill-rule:nonzero;stroke:none;stroke-width:0.30000001;stroke-linecap:round;stroke-linejoin:round;stroke-miterlimit:4;stroke-opacity:1"
       d="M 13.165618,34.951821 C 12.704789,34.96763 12.271792,34.944793 11.871982,34.903612 C 11.835379,34.899842 11.800086,34.906303 11.764144,34.902105 C 11.473977,34.868215 11.215285,34.799737 10.975436,34.740435 C 10.511476,34.629013 10.143433,34.48768 9.9388953,34.304138 C 9.7727512,34.440739 9.7102367,34.600207 9.7169055,34.752976 C 9.7133447,34.671431 9.7440954,34.590729 9.7921644,34.512993 C 10.131378,34.984012 11.52093,35.305702 13.161408,35.253055 C 13.560963,35.240233 13.960134,35.220731 14.312944,35.178761 C 15.194969,35.073834 15.869521,34.859842 16.226501,34.602916 C 16.297897,34.551531 16.365928,34.511241 16.408337,34.45481 C 16.372778,34.377781 16.341271,34.308582 16.2675,34.241937 C 16.433559,34.111449 15.040509,34.8875 13.165618,34.951821 z"
       id="path3414"
       sodipodi:nodetypes="cssscscsssscs" />
    <path
       transform="matrix(0.9756843,-0.1174478,5.7807236e-2,0.2427818,2.3325445,29.71391)"
       sodipodi:type="arc"
       style="opacity:0.5;fill:url(#radialGradient4595);fill-opacity:1;stroke:none;stroke-width:0.2;stroke-linecap:round;stroke-linejoin:miter;stroke-miterlimit:4;stroke-dasharray:none;stroke-opacity:1"
       id="path3595"
       sodipodi:cx="10.504285"
       sodipodi:cy="23.078054"
       sodipodi:rx="0.80952245"
       sodipodi:ry="0.80952245"
       d="M 11.313807,23.078054 A 0.80952245,0.80952245 0 1 1 9.6947624,23.078054 A 0.80952245,0.80952245 0 1 1 11.313807,23.078054 z" />
    <path
       d="M 11.313807,23.078054 A 0.80952245,0.80952245 0 1 1 9.6947624,23.078054 A 0.80952245,0.80952245 0 1 1 11.313807,23.078054 z"
       sodipodi:ry="0.80952245"
       sodipodi:rx="0.80952245"
       sodipodi:cy="23.078054"
       sodipodi:cx="10.504285"
       id="path3599"
       style="opacity:0.5;fill:url(#radialGradient4593);fill-opacity:1;stroke:none;stroke-width:0.2;stroke-linecap:round;stroke-linejoin:miter;stroke-miterlimit:4;stroke-dasharray:none;stroke-opacity:1"
       sodipodi:type="arc"
       transform="matrix(0.9952811,-0.1198068,5.8968304e-2,0.2476581,2.0941824,30.035203)" />
    <path
       transform="matrix(0.9952811,-0.1198068,5.8968304e-2,0.2476581,2.0875728,30.508152)"
       sodipodi:type="arc"
       style="opacity:0.5;fill:url(#radialGradient4591);fill-opacity:1;stroke:none;stroke-width:0.2;stroke-linecap:round;stroke-linejoin:miter;stroke-miterlimit:4;stroke-dasharray:none;stroke-opacity:1"
       id="path3603"
       sodipodi:cx="10.504285"
       sodipodi:cy="23.078054"
       sodipodi:rx="0.80952245"
       sodipodi:ry="0.80952245"
       d="M 11.313807,23.078054 A 0.80952245,0.80952245 0 1 1 9.6947624,23.078054 A 0.80952245,0.80952245 0 1 1 11.313807,23.078054 z" />
    <path
       style="opacity:0.2;fill:#ffdd00;fill-opacity:1;fill-rule:nonzero;stroke:none;stroke-width:0.30000001;stroke-linecap:round;stroke-linejoin:round;stroke-miterlimit:4;stroke-opacity:1"
       d="M 16.276986,33.216001 C 16.41716,33.101491 15.450331,33.661045 14.017523,33.8774 C 13.96293,33.880994 13.918655,33.868311 13.861288,33.875217 C 13.798805,33.882738 13.762128,33.89272 13.704633,33.903156 C 13.533103,33.921854 13.354126,33.949752 13.172592,33.95598 C 12.711764,33.971788 12.291698,33.949132 11.891889,33.907952 C 11.855286,33.90418 11.802844,33.910403 11.766901,33.906205 C 11.476734,33.872314 11.227682,33.803973 10.987832,33.74467 C 10.523873,33.633248 10.167115,33.492073 9.962577,33.308531 C 9.879451,33.380689 9.807697,33.441702 9.772148,33.516774 C 9.73,33.592118 9.734199,33.680942 9.737533,33.757326 C 9.739861,33.810652 9.742135,33.857947 9.766675,33.90838 C 9.724543,33.982599 9.728726,34.072547 9.73206,34.148931 C 9.735905,34.236998 9.758967,34.341557 9.822012,34.421353 C 9.748456,34.523961 9.719012,34.645361 9.72364,34.751401 C 9.72008,34.669854 9.741433,34.589023 9.789502,34.511287 C 10.128716,34.982304 11.514012,35.303936 13.15449,35.251289 C 13.554045,35.238466 13.95908,35.219047 14.31189,35.177076 C 15.193915,35.07215 15.869393,34.858171 16.226374,34.601245 C 16.297769,34.549859 16.373552,34.509678 16.41596,34.453247 C 16.395298,34.408487 16.350917,34.371951 16.323903,34.331444 C 16.41224,34.231912 16.489633,34.113701 16.484769,34.002269 C 16.482709,33.95509 16.475205,33.897412 16.455627,33.851215 C 16.44845,33.861722 16.432173,33.870525 16.423959,33.880901 C 16.417729,33.869106 16.400334,33.861834 16.393133,33.850341 C 16.456593,33.763149 16.494782,33.674897 16.490663,33.58054 C 16.488784,33.537469 16.475871,33.50015 16.4611,33.459609 C 16.427958,33.377085 16.364939,33.296745 16.276986,33.216001 z"
       id="path4653" />
    <path
       style="opacity:0.50000000000000000;fill:url(#radialGradient4714);fill-opacity:1;stroke:none;stroke-width:0.20000000000000001;stroke-linecap:round;stroke-linejoin:round;stroke-miterlimit:4;stroke-dasharray:none;stroke-opacity:1"
       d="M 17.125 19.6875 L 16.875 19.78125 C 16.735876 21.040721 16.698326 22.324721 15.15625 23.53125 C 13.392291 24.980951 12.616657 25.826869 12.15625 26.78125 C 12.902895 27.199002 13.753052 27.454849 14.65625 27.46875 C 17.624542 27.514435 20.024611 25.060697 20.03125 22 C 20.032802 21.284614 19.925735 20.600461 19.6875 19.96875 C 18.633481 19.939359 17.709597 19.848821 17.125 19.6875 z "
       id="path4708" />
    <path
       style="opacity:0.20000000000000001;fill:url(#linearGradient3215);fill-opacity:1;fill-rule:nonzero;stroke:none;stroke-width:1;stroke-linecap:butt;stroke-linejoin:miter;marker:none;marker-start:none;marker-mid:none;marker-end:none;stroke-miterlimit:4;stroke-dasharray:none;stroke-dashoffset:0;stroke-opacity:1;visibility:visible;display:inline;overflow:visible;enable-background:accumulate"
       d="M 23.25 22.03125 C 23.181701 22.795416 23.263278 23.688602 22.90625 24.1875 C 20.044292 25.482697 18.828759 27.37533 18.6875 28.09375 C 18.692754 28.098802 18.682201 28.120022 18.6875 28.125 C 18.814686 28.244466 18.936756 28.361027 19.09375 28.4375 C 19.716191 28.408854 20.295939 28.322072 20.84375 28.1875 C 21.675572 27.081123 22.733189 26.249165 23.96875 25.625 C 23.96875 25.625 24.937592 22.633196 23.25 22.03125 z "
       id="path4012" />
    <path
       style="opacity:0.14999999999999999;fill:url(#linearGradient3212);fill-opacity:1;fill-rule:nonzero;stroke:none;stroke-width:1;stroke-linecap:butt;stroke-linejoin:miter;marker:none;marker-start:none;marker-mid:none;marker-end:none;stroke-miterlimit:4;stroke-dasharray:none;stroke-dashoffset:0;stroke-opacity:1;visibility:visible;display:inline;overflow:visible;enable-background:accumulate"
       d="M 23.21875 22.46875 C 23.158396 23.144011 23.221741 23.934146 22.90625 24.375 C 20.015975 25.683009 19.027125 27.682311 19.1875 28.03125 C 19.22832 28.120081 20.212476 28.217739 20.5625 28.25 C 20.679067 28.225619 20.792755 28.216266 20.90625 28.1875 C 21.663331 27.067659 22.684044 26.257886 23.875 25.65625 C 23.875 25.65625 24.709999 23.000663 23.21875 22.46875 z "
       id="path4014" />
    <path
       style="opacity:0.1;fill:#ff7e00;fill-opacity:1;fill-rule:nonzero;stroke:none;stroke-width:1;stroke-linecap:butt;stroke-linejoin:miter;marker:none;marker-start:none;marker-mid:none;marker-end:none;stroke-miterlimit:4;stroke-dasharray:none;stroke-dashoffset:0;stroke-opacity:1;visibility:visible;display:inline;overflow:visible;enable-background:accumulate"
       d="M 17.953288,21.38261 C 17.448954,21.85878 17.102342,22.519533 17.17989,22.995697 C 17.771418,22.505016 17.796729,23.411934 17.8649,23.967969 C 18.272963,23.266966 18.478755,22.196332 17.953288,21.38261 z"
       id="path4361"
       sodipodi:nodetypes="cccc" />
    <path
       sodipodi:nodetypes="cccc"
       id="path4363"
       d="M 17.850853,21.60358 C 17.424108,22.00649 17.130821,22.565593 17.196435,22.968501 C 17.69696,22.553312 17.718378,23.320703 17.776061,23.791193 C 18.121343,23.198037 18.295473,22.292112 17.850853,21.60358 z"
       style="opacity:0.1;fill:#ff7e00;fill-opacity:1;fill-rule:nonzero;stroke:none;stroke-width:1;stroke-linecap:butt;stroke-linejoin:miter;marker:none;marker-start:none;marker-mid:none;marker-end:none;stroke-miterlimit:4;stroke-dasharray:none;stroke-dashoffset:0;stroke-opacity:1;visibility:visible;display:inline;overflow:visible;enable-background:accumulate" />
    <path
       style="opacity:0.35;fill:url(#radialGradient4416);fill-opacity:1;fill-rule:nonzero;stroke:none;stroke-width:1;stroke-linecap:butt;stroke-linejoin:miter;marker:none;marker-start:none;marker-mid:none;marker-end:none;stroke-miterlimit:4;stroke-dasharray:none;stroke-dashoffset:0;stroke-opacity:1;visibility:visible;display:inline;overflow:visible;enable-background:accumulate"
       d="M 19.930023,22.539276 C 19.814025,22.939799 19.643673,23.319422 19.47384,23.673312 C 19.472478,23.673119 19.465796,23.703295 19.464435,23.703113 C 19.222055,23.670673 18.992592,23.640705 18.918668,23.874957 C 18.865488,24.043472 18.912857,24.353325 19.022298,24.481121 C 18.649133,25.053607 18.217061,25.574985 17.71299,26.034082 C 17.71299,26.034081 18.674644,25.2949 19.172892,24.626953 C 19.198643,24.640049 19.233795,24.646172 19.262296,24.655167 C 19.533726,24.740824 19.749307,24.721428 19.832369,24.458223 C 19.908696,24.216359 19.853893,23.827161 19.622846,23.720335 C 19.775135,23.261452 19.849563,22.910363 19.930023,22.539276 z"
       id="path4402"
       sodipodi:nodetypes="cssscscsscc" />
    <path
       style="opacity:0.10000000000000001;fill:#ff7e00;fill-opacity:1;fill-rule:nonzero;stroke:none;stroke-width:1;stroke-linecap:butt;stroke-linejoin:miter;marker:none;marker-start:none;marker-mid:none;marker-end:none;stroke-miterlimit:4;stroke-dasharray:none;stroke-dashoffset:0;stroke-opacity:1;visibility:visible;display:inline;overflow:visible;enable-background:accumulate"
       d="M 19.337888,3.6963461 C 18.1126,3.981122 17.226258,4.4910151 17.34168,4.9647548 C 18.769806,4.6946292 18.707688,5.557191 18.790947,6.1031382 C 19.824221,5.575288 20.440536,4.6335416 19.337888,3.6963461 z"
       id="path4422"
       sodipodi:nodetypes="cccc" />
    <path
       sodipodi:nodetypes="cscccscc"
       style="opacity:0.34999999999999998;fill:url(#radialGradient4430);fill-opacity:1;fill-rule:nonzero;stroke:none;stroke-width:1;stroke-linecap:butt;stroke-linejoin:miter;marker:none;marker-start:none;marker-mid:none;marker-end:none;stroke-miterlimit:4;stroke-dasharray:none;stroke-dashoffset:0;stroke-opacity:1;visibility:visible;display:inline;overflow:visible;enable-background:accumulate"
       d="M 22.46875,1.90625 C 22.048344,1.9449232 21.59628,2.0997687 21.15625,2.1875 C 20.150746,2.3824539 19.125373,2.2901157 18.09375,2.25 C 16.75768,2.0275743 16.212502,1.7550433 15.90625,3.28125 C 15.885243,4.3796385 16.250551,5.1255932 17.53125,5.1875 C 18.548413,5.2249505 21.141751,5.3967787 21.90625,5.375 C 23.74283,5.3127308 24.178487,4.4126474 24,3.125 C 23.757887,2.0430424 23.169427,1.8417947 22.46875,1.90625 z"
       id="path4428" />
    <path
       style="opacity:0.5;fill:url(#linearGradient3675);fill-opacity:1;fill-rule:nonzero;stroke:none;stroke-width:1;stroke-linecap:butt;stroke-linejoin:miter;marker:none;marker-start:none;marker-mid:none;marker-end:none;stroke-miterlimit:4;stroke-dasharray:none;stroke-dashoffset:0;stroke-opacity:1;visibility:visible;display:inline;overflow:visible;enable-background:accumulate"
       d="M 21.927532,2.0679584 C 21.548248,2.1028493 21.131971,2.257132 20.734984,2.3362816 C 19.827834,2.5121663 18.893027,2.4321007 17.96231,2.395909 C 16.766304,2.1968004 16.272112,1.9490649 15.99461,3.2903192 C 15.992433,3.3008364 15.996759,3.3094205 15.99461,3.3201328 C 15.995336,3.5449514 16.011366,3.7579069 16.054234,3.9462204 C 16.0578,3.9641298 16.050243,3.9883003 16.054234,4.0058476 C 16.076564,4.0916626 16.110267,4.1676824 16.143676,4.2443568 C 16.221496,4.4336498 16.095564,4.3067248 16.113862,3.3499468 C 16.38063,2.0205077 16.85812,2.2617863 18.021938,2.4555364 C 18.920557,2.4904797 19.829302,2.5657286 20.70517,2.395909 C 21.088468,2.3194891 21.471883,2.1910876 21.83809,2.1573996 C 22.448435,2.1012547 22.968798,2.2584128 23.179704,3.2008784 C 23.335175,4.3225146 22.960866,5.11434 21.36107,5.1685808 C 21.280399,5.1708793 21.244056,5.2147217 21.18219,5.2282084 C 21.247348,5.2130953 21.334481,5.2008508 21.420698,5.1983948 C 23.077633,5.1422166 23.459982,4.3327614 23.29896,3.1710647 C 23.080525,2.1949382 22.559673,2.0098082 21.927532,2.0679584 z M 21.18219,5.2282084 C 21.048455,5.2573602 21.05187,5.2584342 21.18219,5.2282084 z"
       id="path3664"
       sodipodi:nodetypes="cscsssssccsscssscccc" />
    <path
       style="opacity:0.52049179999999995;fill:url(#radialGradient4439);fill-opacity:1;stroke:none;stroke-width:0.60000001999999997;stroke-linecap:round;stroke-linejoin:round;stroke-miterlimit:4;stroke-dasharray:none;stroke-opacity:1"
       d="M 16.59375 22.96875 C 16.227862 22.906752 15.734528 23.078802 15.15625 23.53125 C 11.232939 26.755603 12.063428 26.94073 10.84375 32.15625 L 10.875 32.15625 C 10.867797 32.179036 10.84375 32.195356 10.84375 32.21875 C 10.84375 32.593051 11.804828 32.90625 12.96875 32.90625 C 14.132673 32.90625 15.0625 32.593051 15.0625 32.21875 C 15.0625 32.155986 15.049702 32.088948 15 32.03125 C 15.073361 31.456999 15.136901 30.898651 15.3125 30.21875 C 15.511161 29.997248 15.690634 29.744894 15.875 29.5 C 16.392326 28.812834 16.946935 28.18197 18.0625 28.4375 C 18.418576 28.455049 18.761005 28.452814 19.09375 28.4375 C 18.151784 27.978662 17.809147 26.741286 17.3125 24.78125 C 17.475231 23.800548 17.203563 23.072081 16.59375 22.96875 z "
       id="path4432" />
    <rect
       style="opacity:0.61162792;fill:#555753;fill-opacity:1;fill-rule:nonzero;stroke:none;stroke-width:0.69999999;stroke-linecap:round;stroke-linejoin:miter;stroke-miterlimit:4;stroke-dasharray:none;stroke-opacity:1"
       id="rect1951"
       width="40.001965"
       height="10.004759"
       x="-0.0019644466"
       y="30" />
    <text
       xml:space="preserve"
       style="font-size:12px;font-style:normal;font-weight:normal;fill:#eeeeec;fill-opacity:1;stroke:none;stroke-width:1px;stroke-linecap:butt;stroke-linejoin:miter;stroke-opacity:1;font-family:Bitstream Vera Sans"
       x="12.348869"
       y="39.168156"
       id="text2840"><tspan
         sodipodi:role="line"
         id="tspan2842"
         x="12.348869"
         y="39.168156">Zn</tspan></text>
    <path
       style="opacity:0.35;fill:#000000;fill-opacity:1;fill-rule:nonzero;stroke:none;stroke-width:1;stroke-linecap:butt;stroke-linejoin:miter;marker:none;marker-start:none;marker-mid:none;marker-end:none;stroke-miterlimit:4;stroke-dasharray:none;stroke-dashoffset:0;stroke-opacity:1;visibility:visible;display:inline;overflow:visible;enable-background:accumulate"
       d="M 23,17.875 C 23,17.875 21.5,18.5625 21.5,18.5625 C 21.5,18.5625 17.310324,17.946306 17.25,17.9375 L 17.25,18 C 17.25,18 21.53125,18.625 21.53125,18.625 C 21.53125,18.625 23.03125,17.9375 23.03125,17.9375 L 23,17.875 z"
       id="path4115"
       sodipodi:nodetypes="ccccccc" />
    <path
       sodipodi:type="arc"
       style="opacity:0.45387837;fill:url(#radialGradient4093);fill-opacity:1;stroke:none;stroke-width:0.1;stroke-linecap:round;stroke-linejoin:round;stroke-miterlimit:4;stroke-dasharray:none;stroke-opacity:1"
       id="path3315"
       sodipodi:cx="19.953123"
       sodipodi:cy="23.671877"
       sodipodi:rx="1.3593749"
       sodipodi:ry="2.0781248"
       d="M 21.312498,23.671877 A 1.3593749,2.0781248 0 1 1 18.593748,23.671877 A 1.3593749,2.0781248 0 1 1 21.312498,23.671877 z"
       transform="matrix(1.8294243,0.5478582,-0.4341412,1.7894524,-7.6476676,-29.44743)" />
    <path
       transform="matrix(1.1572311,0.6177289,-0.7891271,1.5504801,9.6209954,-21.544017)"
       d="M 21.312498,23.671877 A 1.3593749,2.0781248 0 1 1 18.593748,23.671877 A 1.3593749,2.0781248 0 1 1 21.312498,23.671877 z"
       sodipodi:ry="2.0781248"
       sodipodi:rx="1.3593749"
       sodipodi:cy="23.671877"
       sodipodi:cx="19.953123"
       id="path4097"
       style="opacity:0.45387837;fill:url(#radialGradient4100);fill-opacity:1;stroke:none;stroke-width:0.1;stroke-linecap:round;stroke-linejoin:round;stroke-miterlimit:4;stroke-dasharray:none;stroke-opacity:1"
       sodipodi:type="arc" />
    <path
       style="opacity:0.45387836999999998;fill:url(#radialGradient4105);fill-opacity:1;stroke:none;stroke-width:0.10000000000000001;stroke-linecap:round;stroke-linejoin:round;stroke-miterlimit:4;stroke-dasharray:none;stroke-opacity:1"
       d="M 22.46875 1.90625 C 22.048344 1.9449232 21.59628 2.0997687 21.15625 2.1875 C 20.612525 2.292921 20.053191 2.3214086 19.5 2.3125 C 19.475025 2.3976758 19.458825 2.4746022 19.4375 2.5625 C 19.202979 3.5291529 19.255703 4.4984901 19.5 5.28125 C 20.491394 5.3337674 21.471508 5.3873847 21.90625 5.375 C 23.74283 5.3127308 24.178487 4.4126474 24 3.125 C 23.757887 2.0430424 23.169427 1.8417947 22.46875 1.90625 z "
       id="path4103" />
  </g>
</svg>
