<?xml version="1.0" encoding="UTF-8" standalone="no"?>
<!-- Created with Inkscape (http://www.inkscape.org/) -->
<svg
   xmlns:dc="http://purl.org/dc/elements/1.1/"
   xmlns:cc="http://creativecommons.org/ns#"
   xmlns:rdf="http://www.w3.org/1999/02/22-rdf-syntax-ns#"
   xmlns:svg="http://www.w3.org/2000/svg"
   xmlns="http://www.w3.org/2000/svg"
   xmlns:xlink="http://www.w3.org/1999/xlink"
   xmlns:sodipodi="http://sodipodi.sourceforge.net/DTD/sodipodi-0.dtd"
   xmlns:inkscape="http://www.inkscape.org/namespaces/inkscape"
   width="40"
   height="40"
   id="svg2193"
   sodipodi:version="0.32"
   inkscape:version="0.46"
   version="1.0"
   sodipodi:docbase="/home/jra/Desktop"
   sodipodi:docname="31.svg"
   inkscape:output_extension="org.inkscape.output.svg.inkscape">
  <defs
     id="defs2195">
    <inkscape:perspective
       sodipodi:type="inkscape:persp3d"
       inkscape:vp_x="0 : 20 : 1"
       inkscape:vp_y="0 : 1000 : 0"
       inkscape:vp_z="40 : 20 : 1"
       inkscape:persp3d-origin="20 : 13.333333 : 1"
       id="perspective72" />
    <linearGradient
       id="linearGradient3342">
      <stop
         id="stop3344"
         offset="0"
         style="stop-color:#000000;stop-opacity:0.72500002;" />
      <stop
         style="stop-color:#ffffff;stop-opacity:0.96249998;"
         offset="0.5"
         id="stop3346" />
      <stop
         id="stop3348"
         offset="1"
         style="stop-color:#000000;stop-opacity:0.60000002;" />
    </linearGradient>
    <linearGradient
       id="linearGradient3300">
      <stop
         id="stop3302"
         offset="0"
         style="stop-color:#ababab;stop-opacity:1;" />
      <stop
         style="stop-color:#2e2e2e;stop-opacity:1;"
         offset="0.5"
         id="stop3304" />
      <stop
         id="stop3306"
         offset="1"
         style="stop-color:#262626;stop-opacity:0.99607843;" />
    </linearGradient>
    <linearGradient
       id="linearGradient2275">
      <stop
         style="stop-color:#000000;stop-opacity:0.29374999;"
         offset="0"
         id="stop2277" />
      <stop
         id="stop2279"
         offset="0.5"
         style="stop-color:#ffffff;stop-opacity:0.96249998;" />
      <stop
         style="stop-color:#000000;stop-opacity:0.26249999;"
         offset="1"
         id="stop2281" />
    </linearGradient>
    <linearGradient
       id="linearGradient3307">
      <stop
         style="stop-color:#0e0000;stop-opacity:0;"
         offset="0"
         id="stop3309" />
      <stop
         style="stop-color:#000000;stop-opacity:1;"
         offset="1"
         id="stop3311" />
    </linearGradient>
    <linearGradient
       id="linearGradient2269">
      <stop
         id="stop2271"
         offset="0"
         style="stop-color:#ffffff;stop-opacity:0.82499999;" />
      <stop
         style="stop-color:#ffffff;stop-opacity:0.75;"
         offset="0.5"
         id="stop2275" />
      <stop
         id="stop2273"
         offset="1"
         style="stop-color:#ffffff;stop-opacity:0;" />
    </linearGradient>
    <linearGradient
       id="linearGradient3239">
      <stop
         style="stop-color:#ffffff;stop-opacity:1;"
         offset="0"
         id="stop3241" />
      <stop
         style="stop-color:#ffffff;stop-opacity:0;"
         offset="1"
         id="stop3243" />
    </linearGradient>
    <linearGradient
       id="linearGradient3291">
      <stop
         id="stop3293"
         offset="0"
         style="stop-color:#000000;stop-opacity:1;" />
      <stop
         id="stop3295"
         offset="1"
         style="stop-color:#000000;stop-opacity:0;" />
    </linearGradient>
    <linearGradient
       id="linearGradient2308">
      <stop
         id="stop2310"
         offset="0"
         style="stop-color:#0e0000;stop-opacity:1;" />
      <stop
         id="stop2312"
         offset="1"
         style="stop-color:#0e0000;stop-opacity:0;" />
    </linearGradient>
    <radialGradient
       inkscape:collect="always"
       xlink:href="#linearGradient3291"
       id="radialGradient3280"
       gradientUnits="userSpaceOnUse"
       gradientTransform="matrix(1,0,0,0.197802,0,92.82166)"
       cx="63.912209"
       cy="115.70919"
       fx="75.857941"
       fy="115.70919"
       r="63.912209" />
    <linearGradient
       inkscape:collect="always"
       xlink:href="#linearGradient2275"
       id="linearGradient3285"
       gradientUnits="userSpaceOnUse"
       x1="4.2244415"
       y1="19.765625"
       x2="33.34288"
       y2="19.765625"
       gradientTransform="matrix(0.9451099,0,0,0.9451099,1.1754781,2.4023468)" />
    <linearGradient
       inkscape:collect="always"
       xlink:href="#linearGradient2275"
       id="linearGradient3288"
       gradientUnits="userSpaceOnUse"
       x1="14.598135"
       y1="12.96875"
       x2="24.096161"
       y2="12.96875"
       gradientTransform="matrix(0.9451099,0,0,0.9451099,1.1754781,2.4023468)" />
    <linearGradient
       inkscape:collect="always"
       xlink:href="#linearGradient2275"
       id="linearGradient3292"
       gradientUnits="userSpaceOnUse"
       x1="12.059538"
       y1="19.828125"
       x2="27.09375"
       y2="19.828125"
       gradientTransform="matrix(0.9451099,0,0,0.9451099,1.1754781,2.4023468)" />
    <linearGradient
       inkscape:collect="always"
       xlink:href="#linearGradient2275"
       id="linearGradient3295"
       gradientUnits="userSpaceOnUse"
       x1="10.507029"
       y1="21.875"
       x2="27.59375"
       y2="21.875"
       gradientTransform="matrix(0.9451099,0,0,0.9451099,1.1754781,2.4023468)" />
    <radialGradient
       inkscape:collect="always"
       xlink:href="#linearGradient3239"
       id="radialGradient3298"
       gradientUnits="userSpaceOnUse"
       gradientTransform="matrix(0.5571014,-6.6157084e-2,3.5809605e-2,0.3015487,8.808091,7.325574)"
       cx="18.753"
       cy="6.8857131"
       fx="18.753"
       fy="6.8857131"
       r="5.6878347" />
    <radialGradient
       inkscape:collect="always"
       xlink:href="#linearGradient3307"
       id="radialGradient3301"
       gradientUnits="userSpaceOnUse"
       gradientTransform="matrix(0.9451099,0,0,1.3492689,1.1754781,-3.0605368)"
       cx="20.46875"
       cy="14.157114"
       fx="20.46875"
       fy="14.157114"
       r="7.125" />
    <radialGradient
       inkscape:collect="always"
       xlink:href="#linearGradient3300"
       id="radialGradient3305"
       gradientUnits="userSpaceOnUse"
       gradientTransform="matrix(1.0705524,-8.4314064e-2,7.9488948e-2,1.0092869,19.236887,0.1286969)"
       cx="0.022359809"
       cy="15.849633"
       fx="0.022359809"
       fy="15.849633"
       r="6.8125" />
    <linearGradient
       inkscape:collect="always"
       xlink:href="#linearGradient3342"
       id="linearGradient3308"
       gradientUnits="userSpaceOnUse"
       gradientTransform="matrix(0.9451099,0,0,0.9451099,20.077676,21.304545)"
       x1="-6.34375"
       y1="-2.3583322"
       x2="7.28125"
       y2="-2.3583322" />
    <radialGradient
       inkscape:collect="always"
       xlink:href="#linearGradient2308"
       id="radialGradient3312"
       gradientUnits="userSpaceOnUse"
       gradientTransform="matrix(1.1992792,-1.8238687e-8,0,2.6668458,19.916847,-22.747863)"
       cx="0.47888196"
       cy="16.241577"
       fx="0.47888196"
       fy="16.241577"
       r="5.34375" />
    <radialGradient
       inkscape:collect="always"
       xlink:href="#linearGradient2269"
       id="radialGradient3315"
       gradientUnits="userSpaceOnUse"
       gradientTransform="matrix(1.912116,1.1101535e-7,-1.5362846e-7,2.627634,-17.930522,-19.445801)"
       cx="20.109085"
       cy="13.345653"
       fx="20.109085"
       fy="13.345653"
       r="5.6878347" />
    <linearGradient
       inkscape:collect="always"
       xlink:href="#linearGradient3307"
       id="linearGradient3319"
       gradientUnits="userSpaceOnUse"
       x1="20.578125"
       y1="29.407858"
       x2="20.04188"
       y2="22.78125"
       gradientTransform="matrix(0.9451099,0,0,0.9451099,1.1754781,2.4023468)" />
    <linearGradient
       inkscape:collect="always"
       xlink:href="#linearGradient3342"
       id="linearGradient3322"
       gradientUnits="userSpaceOnUse"
       x1="26.187778"
       y1="28.331623"
       x2="23.80072"
       y2="28.331623"
       gradientTransform="matrix(0.9451099,0,0,0.9451099,1.1754781,2.4023468)" />
    <linearGradient
       inkscape:collect="always"
       xlink:href="#linearGradient3342"
       id="linearGradient3325"
       gradientUnits="userSpaceOnUse"
       x1="16.850552"
       y1="30.481977"
       x2="14.419767"
       y2="30.481977"
       gradientTransform="matrix(0.9451099,0,0,0.9451099,1.1754781,2.4023468)" />
  </defs>
  <sodipodi:namedview
     id="base"
     pagecolor="#ffffff"
     bordercolor="#666666"
     borderopacity="1.0"
     inkscape:pageopacity="0.0"
     inkscape:pageshadow="2"
     inkscape:zoom="13.270319"
     inkscape:cx="13.376866"
     inkscape:cy="11.703296"
     inkscape:current-layer="layer1"
     showgrid="false"
     inkscape:grid-bbox="false"
     inkscape:document-units="px"
     width="40px"
     height="40px"
     inkscape:window-width="1756"
     inkscape:window-height="1004"
     inkscape:window-x="54"
     inkscape:window-y="60">
    <inkscape:grid
       id="GridFromPre046Settings"
       type="xygrid"
       originx="0px"
       originy="0px"
       spacingx="1px"
       spacingy="1px"
       color="#0000ff"
       empcolor="#0000ff"
       opacity="0.2"
       empopacity="0.4"
       empspacing="2" />
  </sodipodi:namedview>
  <metadata
     id="metadata2198">
    <rdf:RDF>
      <cc:Work
         rdf:about="">
        <dc:format>image/svg+xml</dc:format>
        <dc:type
           rdf:resource="http://purl.org/dc/dcmitype/StillImage" />
        <dc:creator>
          <cc:Agent>
            <dc:title>Jarle Akselsen</dc:title>
          </cc:Agent>
        </dc:creator>
        <cc:license
           rdf:resource="http://creativecommons.org/licenses/GPL/2.0/" />
      </cc:Work>
      <cc:License
         rdf:about="http://creativecommons.org/licenses/GPL/2.0/">
        <cc:permits
           rdf:resource="http://web.resource.org/cc/Reproduction" />
        <cc:permits
           rdf:resource="http://web.resource.org/cc/Distribution" />
        <cc:requires
           rdf:resource="http://web.resource.org/cc/Notice" />
        <cc:permits
           rdf:resource="http://web.resource.org/cc/DerivativeWorks" />
        <cc:requires
           rdf:resource="http://web.resource.org/cc/ShareAlike" />
        <cc:requires
           rdf:resource="http://web.resource.org/cc/SourceCode" />
      </cc:License>
    </rdf:RDF>
  </metadata>
  <g
     id="layer1"
     inkscape:label="Layer 1"
     inkscape:groupmode="layer">
    <path
       id="path3327"
       d="M 15.322592,23.933132 L 15.322592,40 L 17.094673,40 L 17.094673,23.933132 L 15.322592,23.933132 z M 24.153463,23.933132 L 24.153463,40 L 25.925544,40 L 25.925544,23.933132 L 24.153463,23.933132 z"
       style="opacity:1;fill:#000000;fill-opacity:1;fill-rule:nonzero;stroke:none;stroke-width:0.20000000000000001;stroke-linecap:round;stroke-linejoin:round;stroke-miterlimit:4;stroke-dasharray:none;stroke-opacity:1" />
    <path
       style="fill:url(#linearGradient3325);fill-opacity:1;fill-rule:nonzero;stroke:none;stroke-width:0.2;stroke-linecap:round;stroke-linejoin:round;stroke-miterlimit:4;stroke-dasharray:none;stroke-opacity:1"
       d="M 15.322592,23.933132 L 15.322592,40 L 17.094673,40 L 17.094673,23.933132 L 15.322592,23.933132 z"
       id="path4554" />
    <path
       style="fill:url(#linearGradient3322);fill-opacity:1;fill-rule:nonzero;stroke:none;stroke-width:0.20000000000000001;stroke-linecap:round;stroke-linejoin:round;stroke-miterlimit:4;stroke-dasharray:none;stroke-opacity:1"
       d="M 24.153463,23.933132 L 24.153463,40 L 25.925544,40 L 25.925544,23.933132 L 24.153463,23.933132 z"
       id="path4556" />
    <path
       style="opacity:0.75;fill:url(#linearGradient3319);fill-opacity:1;fill-rule:nonzero;stroke:none;stroke-width:0.2;stroke-linecap:round;stroke-linejoin:round;stroke-miterlimit:4;stroke-dasharray:none;stroke-opacity:1"
       d="M 15.322592,23.933132 L 15.322592,40 L 17.094673,40 L 17.094673,23.933132 L 15.322592,23.933132 z M 24.153463,23.933132 L 24.153463,40 L 25.925544,40 L 25.925544,23.933132 L 24.153463,23.933132 z"
       id="path4558" />
    <path
       style="fill:#eeeeee;fill-opacity:1;fill-rule:nonzero;stroke:none;stroke-width:0.2;stroke-linecap:round;stroke-linejoin:round;stroke-miterlimit:4;stroke-dasharray:none;stroke-opacity:1"
       d="M 20.491162,5.5635415 C 17.544054,5.5635415 15.145384,7.9622061 15.145384,10.909319 C 15.145384,10.960327 15.143957,11.006327 15.145384,11.056993 L 15.145384,20.006005 C 15.108071,20.011939 15.092543,20.0293 15.05678,20.03554 C 14.854838,20.070674 14.645269,20.114716 14.525155,20.153679 C 14.441154,20.180927 14.358126,20.184021 14.318413,20.212748 C 14.275297,20.238887 14.259343,20.275734 14.259343,20.301352 C 14.259343,20.52128 14.259343,20.892255 14.259343,21.187393 C 14.202344,21.20343 14.158368,21.200368 14.11167,21.216927 C 14.017962,21.249661 13.928545,21.30059 13.875392,21.335066 C 13.858371,21.347173 13.827816,21.352307 13.816323,21.364601 C 13.787261,21.391155 13.786788,21.426107 13.786788,21.453205 C 13.786788,21.700012 13.786788,23.681467 13.786788,23.963653 C 13.786788,24.425341 16.807908,24.790623 20.520696,24.790624 C 24.233485,24.790624 27.254604,24.425341 27.254604,23.963653 C 27.254604,23.690147 27.254604,21.692517 27.254604,21.453205 C 27.254604,21.427961 27.218511,21.389189 27.195535,21.364601 C 27.172484,21.346084 27.142505,21.323639 27.106931,21.305531 C 27.063957,21.282704 26.99176,21.238928 26.929723,21.216927 C 26.880832,21.199849 26.840315,21.203859 26.782049,21.187393 C 26.782049,20.892256 26.782049,20.520903 26.782049,20.301352 C 26.782049,20.263373 26.725579,20.220196 26.634376,20.183213 C 26.598377,20.168615 26.563861,20.167887 26.516237,20.153679 C 26.370464,20.104614 26.110152,20.048922 25.83694,20.006005 L 25.83694,11.056993 C 25.838367,11.006327 25.83694,10.960327 25.83694,10.909319 C 25.83694,7.9622061 23.438279,5.5635415 20.491162,5.5635415 z"
       id="path4560" />
    <path
       style="opacity:0.5;fill:url(#radialGradient3315);fill-opacity:1;fill-rule:nonzero;stroke:none;stroke-width:0.2;stroke-linecap:round;stroke-linejoin:round;stroke-miterlimit:4;stroke-dasharray:none;stroke-opacity:1"
       d="M 20.491162,5.5635415 C 17.544054,5.5635415 15.145384,7.9622061 15.145384,10.909319 C 15.145384,10.960327 15.143957,11.006327 15.145384,11.056993 L 15.145384,20.153679 C 15.145384,20.426291 17.559138,20.655768 20.520696,20.655768 C 23.482255,20.655768 25.896009,20.426291 25.896009,20.153679 C 25.896009,20.134596 25.859858,20.113131 25.83694,20.094609 L 25.83694,11.056993 C 25.838367,11.006327 25.83694,10.960327 25.83694,10.909319 C 25.83694,7.9622061 23.438279,5.5635415 20.491162,5.5635415 z"
       id="path4562" />
    <path
       style="opacity:0.5;fill:url(#radialGradient3312);fill-opacity:1;fill-rule:nonzero;stroke:none;stroke-width:0.60000002;stroke-linecap:round;stroke-linejoin:round;stroke-miterlimit:4;stroke-dasharray:none;stroke-opacity:1"
       d="M 20.461627,9.1657895 C 18.000258,9.1657897 15.919306,11.074229 15.94282,13.448319 L 16.00189,19.473394 C 15.919117,19.462764 15.781821,19.454892 15.706543,19.44386 C 15.59519,19.46503 15.5227,19.510939 15.440731,19.532464 L 15.440731,19.827811 C 16.154156,20.025968 18.150304,20.152691 20.520696,20.152692 C 22.823079,20.152693 24.776829,20.017321 25.541593,19.827811 L 25.541593,19.502929 C 25.473611,19.486437 25.416829,19.459844 25.33485,19.44386 C 25.23739,19.458263 25.060853,19.459715 24.950899,19.473394 L 24.980434,13.448319 C 24.931222,11.074623 22.922996,9.1657894 20.461627,9.1657895 z"
       id="path4564" />
    <path
       transform="matrix(1.0162897,0,0,1.0162897,-0.2811423,9.3600712)"
       d="M 27.082208,14.357745 A 6.6182494,0.8229847 0 1 1 13.845709,14.357745 A 6.6182494,0.8229847 0 1 1 27.082208,14.357745 z"
       sodipodi:ry="0.8229847"
       sodipodi:rx="6.6182494"
       sodipodi:cy="14.357745"
       sodipodi:cx="20.463959"
       id="path4566"
       style="opacity:0.1747573;fill:#000000;fill-opacity:1;fill-rule:nonzero;stroke:none;stroke-width:0.2;stroke-linecap:round;stroke-linejoin:round;stroke-miterlimit:4;stroke-dasharray:none;stroke-opacity:1"
       sodipodi:type="arc" />
    <path
       id="path4568"
       d="M 25.541593,13.951393 L 24.035324,14.187672 L 23.94672,16.136962 L 23.208353,17.761369 L 22.469986,18.263459 L 22.469986,19.297173 L 23.503699,19.238104 L 23.503699,19.740193 L 24.38974,19.681124 L 25.216711,21.600878 L 26.959258,23.520633 C 26.959258,22.934958 26.959258,21.824857 26.959258,21.541809 C 26.899838,21.510247 26.856798,21.4883 26.841119,21.48274 C 26.851307,21.486299 26.796406,21.482299 26.693445,21.453205 C 26.632155,21.431883 26.580023,21.390184 26.545772,21.335066 C 26.5124,21.292484 26.491901,21.241244 26.486703,21.187393 C 26.486703,20.941445 26.486703,20.668873 26.486703,20.449026 C 26.479132,20.448942 26.484359,20.436413 26.427633,20.419491 C 26.317093,20.382288 26.070741,20.313183 25.807405,20.271818 C 25.787765,20.273874 25.767975,20.273874 25.748335,20.271818 C 25.687045,20.250496 25.634913,20.208797 25.600662,20.153679 C 25.56729,20.111097 25.546791,20.059857 25.541593,20.006005 L 25.541593,13.951393 z M 23.149283,14.8079 C 23.149283,14.807901 22.324382,15.435606 20.048141,15.398595 C 18.474269,15.373003 16.645339,15.219884 15.440731,15.103248 L 15.440731,20.006005 C 15.434228,20.139127 15.33589,20.249752 15.204453,20.271818 C 15.192819,20.277057 15.170741,20.291773 15.115849,20.301352 C 14.920693,20.335304 14.701466,20.391042 14.613759,20.419491 C 14.588724,20.42761 14.575568,20.414406 14.55469,20.419491 C 14.55469,20.641508 14.55469,20.931606 14.55469,21.187393 C 14.549492,21.241244 14.528993,21.292484 14.495621,21.335066 C 14.468997,21.385417 14.427828,21.426583 14.377482,21.453205 C 14.367643,21.453718 14.357786,21.453718 14.347947,21.453205 C 14.245289,21.482087 14.183744,21.488601 14.200274,21.48274 C 14.154171,21.498842 14.120214,21.520006 14.082135,21.541809 C 14.082135,21.881021 14.082135,23.505276 14.082135,23.875049 C 14.135335,23.907121 14.249769,23.977024 14.407017,24.022722 C 14.645742,24.092099 15.003268,24.143947 15.411196,24.199931 L 15.94282,22.723196 L 15.883751,21.984829 L 16.385841,21.837156 L 16.533514,20.419491 L 16.828861,19.887867 L 17.655832,19.828797 L 17.655832,18.942757 L 18.541873,17.968112 L 20.845578,17.968112 C 20.845578,17.968112 21.719086,17.478924 22.292777,16.75719 C 22.866469,16.035456 23.149283,14.8079 23.149283,14.8079 z"
       style="fill:url(#linearGradient3308);fill-opacity:1;fill-rule:evenodd;stroke:none;stroke-width:1px;stroke-linecap:butt;stroke-linejoin:miter;marker:none;marker-start:none;marker-mid:none;marker-end:none;stroke-miterlimit:4;stroke-dasharray:none;stroke-dashoffset:0;stroke-opacity:1;visibility:visible;display:inline;overflow:visible;enable-background:accumulate" />
    <path
       style="fill:url(#radialGradient3305);fill-opacity:1;fill-rule:evenodd;stroke:none;stroke-width:1px;stroke-linecap:butt;stroke-linejoin:miter;marker:none;marker-start:none;marker-mid:none;marker-end:none;stroke-miterlimit:4;stroke-dasharray:none;stroke-dashoffset:0;stroke-opacity:1;visibility:visible;display:inline;overflow:visible;enable-background:accumulate"
       d="M 24.655552,14.098082 L 24.035324,14.186686 L 23.94672,16.135975 L 23.208353,17.760383 L 22.469986,18.262472 L 22.469986,19.296186 L 23.503699,19.237117 L 23.503699,19.739207 L 24.38974,19.680137 L 25.216711,21.599892 L 26.014148,22.485932 C 26.014148,21.988946 26.014148,21.372827 26.014148,21.186406 C 25.963452,21.159477 25.938917,21.13208 25.925544,21.127337 C 25.934239,21.130373 25.865718,21.122625 25.77787,21.097802 C 25.725577,21.079611 25.688964,21.056225 25.659731,21.009198 C 25.631255,20.972867 25.605095,20.937006 25.600662,20.891059 C 25.600662,20.681214 25.600662,20.428872 25.600662,20.241296 C 25.594207,20.241225 25.619526,20.2262 25.571127,20.211761 C 25.476815,20.180019 25.264184,20.128916 25.039503,20.093623 C 25.022746,20.095378 24.997191,20.095378 24.980434,20.093623 C 24.928141,20.075431 24.891527,20.052045 24.862295,20.005019 C 24.833819,19.968688 24.807658,19.903292 24.803226,19.857345 L 24.803226,14.71831 L 24.655552,14.747845 L 24.655552,14.098082 z M 23.149283,14.806914 C 23.149283,14.806915 22.324382,15.434619 20.048141,15.397608 C 18.700887,15.375701 17.230419,15.267255 16.060959,15.16133 L 16.060959,20.034553 C 16.032511,20.05437 16.006984,20.087808 15.972355,20.093623 C 15.962431,20.098093 15.960125,20.114984 15.913286,20.123157 C 15.746776,20.152126 15.545099,20.187489 15.470265,20.211761 C 15.448906,20.218689 15.458546,20.207423 15.440731,20.211761 C 15.440731,20.401189 15.440731,20.672819 15.440731,20.891059 C 15.436298,20.937006 15.410137,20.972867 15.381661,21.009198 C 15.35895,21.052158 15.336022,21.075088 15.293057,21.097802 C 15.284665,21.09824 15.271915,21.09824 15.263523,21.097802 C 15.175939,21.122445 15.101748,21.132338 15.115849,21.127337 C 15.076514,21.141076 15.059738,21.167803 15.027245,21.186406 C 15.027245,21.475826 15.027245,22.849735 15.027245,23.16523 C 15.072639,23.192595 15.158889,23.244378 15.293057,23.283369 C 15.391528,23.311987 15.567281,23.348258 15.706543,23.371973 L 15.94282,22.72221 L 15.883751,21.983843 L 16.385841,21.836169 L 16.533514,20.418504 L 16.828861,19.88688 L 17.655832,19.827811 L 17.655832,18.94177 L 18.541873,17.967125 L 20.845578,17.967125 C 20.845578,17.967125 21.719086,17.477938 22.292777,16.756203 C 22.866469,16.034469 23.149283,14.806914 23.149283,14.806914 z"
       id="path4570" />
    <path
       id="path4572"
       d="M 20.491162,5.5635419 C 17.544054,5.5635419 15.145384,7.9622062 15.145384,10.909319 C 15.145384,10.960327 15.143957,11.006327 15.145384,11.056992 L 15.145384,20.006005 C 15.108071,20.011939 15.092543,20.0293 15.05678,20.03554 C 14.854838,20.070674 14.645269,20.114716 14.525155,20.153679 C 14.441154,20.180927 14.358126,20.184021 14.318413,20.212748 C 14.275297,20.238887 14.259343,20.275734 14.259343,20.301352 C 14.259343,20.52128 14.259343,20.892255 14.259343,21.187393 C 14.202344,21.20343 14.158368,21.200368 14.11167,21.216927 C 14.017962,21.249661 13.928545,21.30059 13.875392,21.335066 C 13.858371,21.347173 13.827816,21.352307 13.816323,21.364601 C 13.787261,21.391155 13.786788,21.426107 13.786788,21.453205 C 13.786788,21.700012 13.786788,23.681467 13.786788,23.963653 C 13.786788,24.425341 16.807908,24.790623 20.520696,24.790624 C 24.233485,24.790624 27.254604,24.425341 27.254604,23.963653 C 27.254604,23.690147 27.254604,21.692517 27.254604,21.453205 C 27.254604,21.427961 27.218511,21.389189 27.195535,21.364601 C 27.172484,21.346084 27.142505,21.323639 27.106931,21.305531 C 27.063957,21.282704 26.99176,21.238928 26.929723,21.216927 C 26.880832,21.199849 26.840315,21.203859 26.782049,21.187393 C 26.782049,20.892256 26.782049,20.520903 26.782049,20.301352 C 26.782049,20.263373 26.725579,20.220196 26.634376,20.183213 C 26.598377,20.168615 26.563861,20.167887 26.516237,20.153679 C 26.370464,20.104614 26.110152,20.048922 25.83694,20.006005 L 25.83694,11.056992 C 25.838367,11.006327 25.83694,10.960327 25.83694,10.909319 C 25.83694,7.9622062 23.438279,5.5635419 20.491162,5.5635419 z"
       style="opacity:0.4;fill:#a4c0e4;fill-opacity:1;fill-rule:nonzero;stroke:none;stroke-width:0.2;stroke-linecap:round;stroke-linejoin:round;stroke-miterlimit:4;stroke-dasharray:none;stroke-opacity:1" />
    <path
       style="opacity:0.25;fill:url(#radialGradient3301);fill-opacity:1;fill-rule:nonzero;stroke:none;stroke-width:0.2;stroke-linecap:round;stroke-linejoin:round;stroke-miterlimit:4;stroke-dasharray:none;stroke-opacity:1"
       d="M 20.491162,5.5635415 C 17.544054,5.5635415 15.145384,7.9622061 15.145384,10.909319 C 15.145384,10.960327 15.143957,11.006327 15.145384,11.056993 L 15.145384,20.006005 C 15.108071,20.011939 15.092543,20.0293 15.05678,20.03554 C 14.854838,20.070674 14.645269,20.114716 14.525155,20.153679 C 14.441154,20.180927 14.358126,20.184021 14.318413,20.212748 C 14.275297,20.238887 14.259343,20.275734 14.259343,20.301352 C 14.259343,20.52128 14.259343,20.892255 14.259343,21.187393 C 14.202344,21.20343 14.158368,21.200368 14.11167,21.216927 C 14.017962,21.249661 13.928545,21.30059 13.875392,21.335066 C 13.858371,21.347173 13.827816,21.352307 13.816323,21.364601 C 13.787261,21.391155 13.786788,21.426107 13.786788,21.453205 C 13.786788,21.700012 13.786788,23.681467 13.786788,23.963653 C 13.786788,24.425341 16.807908,24.790623 20.520696,24.790624 C 24.233485,24.790624 27.254604,24.425341 27.254604,23.963653 C 27.254604,23.690147 27.254604,21.692517 27.254604,21.453205 C 27.254604,21.427961 27.218511,21.389189 27.195535,21.364601 C 27.172484,21.346084 27.142505,21.323639 27.106931,21.305531 C 27.063957,21.282704 26.99176,21.238928 26.929723,21.216927 C 26.880832,21.199849 26.840315,21.203859 26.782049,21.187393 C 26.782049,20.892256 26.782049,20.520903 26.782049,20.301352 C 26.782049,20.263373 26.725579,20.220196 26.634376,20.183213 C 26.598377,20.168615 26.563861,20.167887 26.516237,20.153679 C 26.370464,20.104614 26.110152,20.048922 25.83694,20.006005 L 25.83694,11.056993 C 25.838367,11.006327 25.83694,10.960327 25.83694,10.909319 C 25.83694,7.9622061 23.438279,5.5635415 20.491162,5.5635415 z"
       id="path4574" />
    <path
       id="path4576"
       d="M 20.491162,5.5635415 C 17.544054,5.5635415 15.145384,7.9622061 15.145384,10.909319 C 15.145384,10.960327 15.143957,11.006327 15.145384,11.056993 L 15.145384,20.153679 C 15.145384,20.426291 17.559138,20.655768 20.520696,20.655768 C 23.482255,20.655768 25.896009,20.426291 25.896009,20.153679 C 25.896009,20.134596 25.859858,20.113131 25.83694,20.094609 L 25.83694,11.056993 C 25.838367,11.006327 25.83694,10.960327 25.83694,10.909319 C 25.83694,7.9622061 23.438279,5.5635415 20.491162,5.5635415 z"
       style="opacity:0.65;fill:url(#radialGradient3298);fill-opacity:1;fill-rule:nonzero;stroke:none;stroke-width:0.20000000000000001;stroke-linecap:round;stroke-linejoin:round;stroke-miterlimit:4;stroke-dasharray:none;stroke-opacity:1" />
    <path
       id="path4578"
       d="M 27.195535,21.363614 C 27.218511,21.388202 27.254604,21.426974 27.254604,21.452218 C 27.254604,21.421926 27.228538,21.393014 27.195535,21.363614 z M 27.254604,21.452218 C 27.254604,21.856121 24.233485,22.161051 20.520696,22.161051 C 16.807908,22.161049 13.786788,21.856119 13.786788,21.452218 C 13.786788,21.699023 13.786788,23.68048 13.786788,23.962666 C 13.786788,24.424353 16.807908,24.789637 20.520696,24.789638 C 24.233485,24.789636 27.254604,24.424354 27.254604,23.962666 C 27.254604,23.689158 27.254604,21.69153 27.254604,21.452218 z"
       style="opacity:0.35;fill:url(#linearGradient3295);fill-opacity:1;fill-rule:nonzero;stroke:none;stroke-width:0.20000000000000001;stroke-linecap:round;stroke-linejoin:round;stroke-miterlimit:4;stroke-dasharray:none;stroke-opacity:1" />
    <path
       id="path4580"
       d="M 14.259343,20.300366 C 14.259343,20.57894 14.259343,21.144108 14.259343,21.422684 C 14.259343,21.740508 17.067955,21.983843 20.520696,21.983843 C 23.973438,21.983841 26.782049,21.74051 26.782049,21.422684 C 26.782049,21.144584 26.782049,20.578463 26.782049,20.300366 C 26.782049,20.61819 23.973438,20.861525 20.520696,20.861525 C 17.067955,20.861524 14.259343,20.618192 14.259343,20.300366 z"
       style="opacity:0.33495148;fill:url(#linearGradient3292);fill-opacity:1;fill-rule:nonzero;stroke:none;stroke-width:0.2;stroke-linecap:round;stroke-linejoin:round;stroke-miterlimit:4;stroke-dasharray:none;stroke-opacity:1" />
    <path
       id="path4582"
       d="M 20.461627,9.1657895 C 18.000258,9.1657897 15.919306,11.074229 15.94282,13.448319 L 16.00189,19.473394 C 15.919117,19.462764 15.781821,19.454892 15.706543,19.44386 C 15.59519,19.46503 15.5227,19.510939 15.440731,19.532464 L 15.440731,19.827811 C 16.154156,20.025968 18.150304,20.152691 20.520696,20.152692 C 22.823079,20.152693 24.776829,20.017321 25.541593,19.827811 L 25.541593,19.502929 C 25.473611,19.486437 25.416829,19.459844 25.33485,19.44386 C 25.23739,19.458263 25.060853,19.459715 24.950899,19.473394 L 24.980434,13.448319 C 24.931222,11.074623 22.922996,9.1657894 20.461627,9.1657895 z"
       style="opacity:0.25;fill:url(#linearGradient3288);fill-opacity:1;fill-rule:nonzero;stroke:none;stroke-width:0.60000001999999997;stroke-linecap:round;stroke-linejoin:round;stroke-miterlimit:4;stroke-dasharray:none;stroke-opacity:1" />
    <path
       style="opacity:0.6;fill:url(#linearGradient3285);fill-opacity:1;fill-rule:nonzero;stroke:none;stroke-width:0.20000000000000001;stroke-linecap:round;stroke-linejoin:round;stroke-miterlimit:4;stroke-dasharray:none;stroke-opacity:1"
       d="M 15.145384,20.005019 C 14.634902,20.088403 14.259343,20.197893 14.259343,20.300366 C 14.259343,20.618192 17.067955,20.861525 20.520696,20.861525 C 23.973438,20.861525 26.782049,20.618192 26.782049,20.300366 C 26.782049,20.194423 26.379962,20.090319 25.83694,20.005019 L 25.83694,20.093623 C 25.859858,20.112144 25.896009,20.13361 25.896009,20.152692 C 25.896009,20.425304 23.482255,20.654783 20.520696,20.654782 C 17.559138,20.654782 15.145384,20.425305 15.145384,20.152692 L 15.145384,20.005019 z M 14.259343,21.186406 C 13.975262,21.270374 13.786788,21.361818 13.786788,21.452218 C 13.786788,21.856119 16.807908,22.161051 20.520696,22.161051 C 24.233485,22.161051 27.254604,21.856119 27.254604,21.452218 C 27.254604,21.36189 27.066386,21.270387 26.782049,21.186406 C 26.782049,21.255271 26.782049,21.339201 26.782049,21.393149 C 26.782049,21.402539 26.785527,21.413386 26.782049,21.422684 C 26.782049,21.432616 26.75793,21.442436 26.752515,21.452218 C 26.688276,21.52079 26.517901,21.597993 26.27996,21.658961 C 25.328187,21.902834 23.11026,22.072447 20.520696,22.072447 C 17.931133,22.072446 15.713196,21.902833 14.761433,21.658961 C 14.444178,21.591455 14.259343,21.50214 14.259343,21.422684 C 14.259343,21.415352 14.259343,21.400867 14.259343,21.393149 C 14.259343,21.339126 14.259343,21.255271 14.259343,21.186406 z"
       id="path4584" />
    <path
       sodipodi:nodetypes="ccc"
       id="path2276"
       d="M 11.530601,6.8227819 L 11.530601,4.1814756 L 11.530601,6.8227819 z"
       style="fill:#ffffff;fill-opacity:0.75688076;fill-rule:nonzero;stroke:none;stroke-width:0.5;stroke-linecap:round;stroke-linejoin:round;stroke-miterlimit:4;stroke-dasharray:none;stroke-dashoffset:4;stroke-opacity:1" />
    <path
       transform="matrix(0.1711301,0,0,0.3537143,10.477826,-5.4630341)"
       d="M 127.82442,115.70919 A 63.912209,12.641975 0 1 1 0,115.70919 A 63.912209,12.641975 0 1 1 127.82442,115.70919 z"
       sodipodi:ry="12.641975"
       sodipodi:rx="63.912209"
       sodipodi:cy="115.70919"
       sodipodi:cx="63.912209"
       id="path2593"
       style="opacity:0.38139535;fill:url(#radialGradient3280);fill-opacity:1;fill-rule:nonzero;stroke:none;stroke-width:0;stroke-linecap:round;stroke-linejoin:round;stroke-miterlimit:4;stroke-dasharray:none;stroke-dashoffset:4;stroke-opacity:1"
       sodipodi:type="arc" />
    <rect
       style="opacity:0.61162792;fill:#555753;fill-opacity:1;fill-rule:nonzero;stroke:none;stroke-width:0.69999999;stroke-linecap:round;stroke-linejoin:miter;stroke-miterlimit:4;stroke-dasharray:none;stroke-opacity:1"
       id="rect1951"
       width="40.001965"
       height="10.004759"
       x="-0.0019644466"
       y="30" />
    <text
       xml:space="preserve"
       style="font-size:12px;font-style:normal;font-weight:normal;fill:#eeeeec;fill-opacity:1;stroke:none;stroke-width:1px;stroke-linecap:butt;stroke-linejoin:miter;stroke-opacity:1;font-family:Bitstream Vera Sans"
       x="11.653412"
       y="39.168156"
       id="text2840"><tspan
         sodipodi:role="line"
         id="tspan2842"
         x="11.653412"
         y="39.168156">Ga</tspan></text>
  </g>
</svg>
