<?xml version="1.0" encoding="UTF-8" standalone="no"?>
<!-- Created with Inkscape (http://www.inkscape.org/) -->
<svg
   xmlns:dc="http://purl.org/dc/elements/1.1/"
   xmlns:cc="http://web.resource.org/cc/"
   xmlns:rdf="http://www.w3.org/1999/02/22-rdf-syntax-ns#"
   xmlns:svg="http://www.w3.org/2000/svg"
   xmlns="http://www.w3.org/2000/svg"
   xmlns:xlink="http://www.w3.org/1999/xlink"
   xmlns:sodipodi="http://sodipodi.sourceforge.net/DTD/sodipodi-0.dtd"
   xmlns:inkscape="http://www.inkscape.org/namespaces/inkscape"
   width="40"
   height="40"
   id="svg2193"
   sodipodi:version="0.32"
   inkscape:version="0.44.1"
   version="1.0"
   sodipodi:docbase="/home/carsten/svn/kalzium_www/files"
   sodipodi:docname="32.svg">
  <defs
     id="defs2195">
    <linearGradient
       id="linearGradient3984">
      <stop
         id="stop3986"
         offset="0"
         style="stop-color:#ffffff;stop-opacity:0.72023809;" />
      <stop
         id="stop3988"
         offset="1"
         style="stop-color:#000000;stop-opacity:0.79166669;" />
    </linearGradient>
    <linearGradient
       id="linearGradient3976">
      <stop
         style="stop-color:#000000;stop-opacity:1;"
         offset="0"
         id="stop3978" />
      <stop
         id="stop3980"
         offset="0.5"
         style="stop-color:#ffffff;stop-opacity:0.70238096;" />
      <stop
         style="stop-color:#000000;stop-opacity:1;"
         offset="1"
         id="stop3982" />
    </linearGradient>
    <linearGradient
       id="linearGradient3713">
      <stop
         id="stop3715"
         offset="0"
         style="stop-color:#ffffff;stop-opacity:1;" />
      <stop
         id="stop3717"
         offset="1"
         style="stop-color:#000000;stop-opacity:1;" />
    </linearGradient>
    <linearGradient
       id="linearGradient3676">
      <stop
         style="stop-color:#000000;stop-opacity:1;"
         offset="0"
         id="stop3678" />
      <stop
         id="stop3680"
         offset="0.5"
         style="stop-color:#ffffff;stop-opacity:1;" />
      <stop
         style="stop-color:#000000;stop-opacity:1;"
         offset="1"
         id="stop3682" />
    </linearGradient>
    <linearGradient
       id="linearGradient3239">
      <stop
         style="stop-color:#ffffff;stop-opacity:1;"
         offset="0"
         id="stop3241" />
      <stop
         style="stop-color:#eeeeec;stop-opacity:0;"
         offset="1"
         id="stop3243" />
    </linearGradient>
    <linearGradient
       id="linearGradient3220">
      <stop
         id="stop3222"
         offset="0"
         style="stop-color:#000000;stop-opacity:1" />
      <stop
         id="stop3224"
         offset="1"
         style="stop-color:#c1c3c0;stop-opacity:1" />
    </linearGradient>
    <linearGradient
       id="linearGradient3291">
      <stop
         id="stop3293"
         offset="0"
         style="stop-color:#000000;stop-opacity:0;" />
      <stop
         style="stop-color:#ffffff;stop-opacity:0.49803922;"
         offset="0.5"
         id="stop3496" />
      <stop
         id="stop3295"
         offset="1"
         style="stop-color:#000000;stop-opacity:0;" />
    </linearGradient>
    <linearGradient
       id="linearGradient2308">
      <stop
         id="stop2310"
         offset="0"
         style="stop-color:#000000;stop-opacity:1;" />
      <stop
         id="stop2312"
         offset="1"
         style="stop-color:#000000;stop-opacity:0" />
    </linearGradient>
    <radialGradient
       inkscape:collect="always"
       xlink:href="#linearGradient2308"
       id="radialGradient2595"
       gradientUnits="userSpaceOnUse"
       gradientTransform="matrix(0.9196026,7.7616311e-2,-2.9509515e-2,0.1961211,8.552901,88.05552)"
       cx="63.912209"
       cy="115.70933"
       fx="63.912209"
       fy="115.70933"
       r="63.912209" />
    <radialGradient
       inkscape:collect="always"
       xlink:href="#linearGradient3984"
       id="radialGradient3506"
       cx="17.246401"
       cy="51.404251"
       fx="17.246401"
       fy="51.404251"
       r="3.3751907"
       gradientTransform="matrix(1.4976596,-9.9417245e-3,7.6972967e-3,1.1595502,-9.0916009,-47.872769)"
       gradientUnits="userSpaceOnUse" />
    <linearGradient
       inkscape:collect="always"
       xlink:href="#linearGradient3976"
       id="linearGradient3516"
       x1="11.689217"
       y1="54.90625"
       x2="22.21875"
       y2="54.90625"
       gradientUnits="userSpaceOnUse"
       gradientTransform="translate(0,-40)" />
    <linearGradient
       inkscape:collect="always"
       xlink:href="#linearGradient3984"
       id="linearGradient3528"
       x1="34.496731"
       y1="55.538765"
       x2="21.75"
       y2="55.674332"
       gradientUnits="userSpaceOnUse"
       gradientTransform="translate(0,-40)" />
    <linearGradient
       inkscape:collect="always"
       xlink:href="#linearGradient3976"
       id="linearGradient3548"
       x1="25.2512"
       y1="57.492348"
       x2="23.456707"
       y2="65.72406"
       gradientUnits="userSpaceOnUse"
       gradientTransform="translate(0,-40)" />
    <linearGradient
       inkscape:collect="always"
       xlink:href="#linearGradient3291"
       id="linearGradient3588"
       x1="10.436679"
       y1="72.5625"
       x2="23.481373"
       y2="72.5625"
       gradientUnits="userSpaceOnUse"
       gradientTransform="translate(0,-40)" />
    <linearGradient
       inkscape:collect="always"
       xlink:href="#linearGradient3239"
       id="linearGradient3596"
       x1="15.71875"
       y1="72.793922"
       x2="21.77903"
       y2="70.948814"
       gradientUnits="userSpaceOnUse"
       gradientTransform="translate(0,-40)" />
    <linearGradient
       inkscape:collect="always"
       xlink:href="#linearGradient3239"
       id="linearGradient3631"
       x1="14.15625"
       y1="68.140625"
       x2="26.34375"
       y2="62.5"
       gradientUnits="userSpaceOnUse"
       gradientTransform="translate(0,-40)" />
    <linearGradient
       inkscape:collect="always"
       xlink:href="#linearGradient3984"
       id="linearGradient3639"
       x1="22.201365"
       y1="70.681519"
       x2="23.251841"
       y2="65.908546"
       gradientUnits="userSpaceOnUse"
       gradientTransform="translate(0,-40)" />
    <linearGradient
       inkscape:collect="always"
       xlink:href="#linearGradient3291"
       id="linearGradient3654"
       x1="14.711706"
       y1="58.265625"
       x2="21.03125"
       y2="58.265625"
       gradientUnits="userSpaceOnUse"
       gradientTransform="translate(0,-40)" />
    <linearGradient
       inkscape:collect="always"
       xlink:href="#linearGradient3291"
       id="linearGradient3664"
       x1="14.655373"
       y1="59"
       x2="22.075825"
       y2="59"
       gradientUnits="userSpaceOnUse"
       gradientTransform="translate(0,-40)" />
    <linearGradient
       inkscape:collect="always"
       xlink:href="#linearGradient3291"
       id="linearGradient3674"
       x1="11.085291"
       y1="56.756069"
       x2="21.524969"
       y2="60.543655"
       gradientUnits="userSpaceOnUse"
       gradientTransform="translate(0,-40)" />
    <linearGradient
       inkscape:collect="always"
       xlink:href="#linearGradient3676"
       id="linearGradient3692"
       x1="11.271872"
       y1="57.75"
       x2="20.90625"
       y2="61.012405"
       gradientUnits="userSpaceOnUse"
       gradientTransform="translate(0,-40)" />
    <linearGradient
       inkscape:collect="always"
       xlink:href="#linearGradient3291"
       id="linearGradient3777"
       x1="13.5625"
       y1="57.795071"
       x2="16.071215"
       y2="59.991283"
       gradientUnits="userSpaceOnUse"
       gradientTransform="translate(0,-40)" />
    <linearGradient
       inkscape:collect="always"
       xlink:href="#linearGradient3291"
       id="linearGradient3785"
       x1="12.78125"
       y1="58.96875"
       x2="15.4375"
       y2="61.140625"
       gradientUnits="userSpaceOnUse"
       gradientTransform="translate(0,-40)" />
    <linearGradient
       inkscape:collect="always"
       xlink:href="#linearGradient3291"
       id="linearGradient3793"
       x1="15.15625"
       y1="59.585983"
       x2="18.59375"
       y2="60.71875"
       gradientUnits="userSpaceOnUse"
       gradientTransform="translate(0,-40)" />
    <linearGradient
       inkscape:collect="always"
       xlink:href="#linearGradient3291"
       id="linearGradient3809"
       x1="17.1875"
       y1="61.859375"
       x2="19.65625"
       y2="61.859375"
       gradientUnits="userSpaceOnUse"
       gradientTransform="translate(0,-40)" />
    <linearGradient
       inkscape:collect="always"
       xlink:href="#linearGradient3291"
       id="linearGradient3825"
       gradientUnits="userSpaceOnUse"
       x1="16.53125"
       y1="61.006218"
       x2="19.875"
       y2="61.006218"
       gradientTransform="translate(0,-40)" />
    <linearGradient
       inkscape:collect="always"
       xlink:href="#linearGradient3291"
       id="linearGradient3828"
       gradientUnits="userSpaceOnUse"
       x1="14.881498"
       y1="60.548985"
       x2="18.529194"
       y2="61.611488"
       gradientTransform="translate(0,-40)" />
    <linearGradient
       inkscape:collect="always"
       xlink:href="#linearGradient3291"
       id="linearGradient3836"
       x1="11.5"
       y1="60.71875"
       x2="13.90625"
       y2="63.015625"
       gradientUnits="userSpaceOnUse"
       gradientTransform="translate(0,-40)" />
    <radialGradient
       inkscape:collect="always"
       xlink:href="#linearGradient3713"
       id="radialGradient3844"
       cx="16.609375"
       cy="62.914158"
       fx="16.609375"
       fy="62.914158"
       r="0.28582501"
       gradientTransform="matrix(1.6013322,0.4194191,-0.1062738,0.4057508,-3.3016269,-9.579595)"
       gradientUnits="userSpaceOnUse" />
    <radialGradient
       inkscape:collect="always"
       xlink:href="#linearGradient3713"
       id="radialGradient3846"
       gradientUnits="userSpaceOnUse"
       gradientTransform="matrix(1.5837967,0.5757733,-0.1742081,0.4791991,0.1871093,-18.923511)"
       cx="16.264839"
       cy="59.636581"
       fx="16.264839"
       fy="59.636581"
       r="3.359375" />
    <linearGradient
       inkscape:collect="always"
       xlink:href="#linearGradient3291"
       id="linearGradient3859"
       x1="15.777968"
       y1="0.69037795"
       x2="23.359253"
       y2="0.69037795"
       gradientUnits="userSpaceOnUse" />
    <linearGradient
       inkscape:collect="always"
       xlink:href="#linearGradient3676"
       id="linearGradient3907"
       x1="22.671797"
       y1="84.070435"
       x2="24.349798"
       y2="84.070435"
       gradientUnits="userSpaceOnUse"
       gradientTransform="translate(0,-60)" />
    <linearGradient
       inkscape:collect="always"
       xlink:href="#linearGradient3676"
       id="linearGradient3915"
       x1="22.667828"
       y1="83.287788"
       x2="24.498363"
       y2="83.287788"
       gradientUnits="userSpaceOnUse"
       gradientTransform="translate(0,-60)" />
    <linearGradient
       inkscape:collect="always"
       xlink:href="#linearGradient3676"
       id="linearGradient3923"
       x1="18.535591"
       y1="82.625443"
       x2="20.305159"
       y2="82.625443"
       gradientUnits="userSpaceOnUse"
       gradientTransform="translate(0,-60)" />
    <linearGradient
       inkscape:collect="always"
       xlink:href="#linearGradient3676"
       id="linearGradient3931"
       x1="18.513494"
       y1="81.94561"
       x2="20.305159"
       y2="81.94561"
       gradientUnits="userSpaceOnUse"
       gradientTransform="translate(0,-60)" />
    <linearGradient
       inkscape:collect="always"
       xlink:href="#linearGradient3220"
       id="linearGradient3939"
       x1="21.941713"
       y1="-36.506897"
       x2="24.583815"
       y2="-37.182301"
       gradientUnits="userSpaceOnUse" />
    <linearGradient
       inkscape:collect="always"
       xlink:href="#linearGradient3220"
       id="linearGradient3953"
       x1="22.273369"
       y1="-36.613453"
       x2="24.301191"
       y2="-37.182301"
       gradientUnits="userSpaceOnUse" />
    <linearGradient
       inkscape:collect="always"
       xlink:href="#linearGradient3239"
       id="linearGradient3966"
       x1="22.6875"
       y1="71.53125"
       x2="22.6875"
       y2="66.671875"
       gradientUnits="userSpaceOnUse"
       gradientTransform="translate(0,-40)" />
    <linearGradient
       inkscape:collect="always"
       xlink:href="#linearGradient3239"
       id="linearGradient3974"
       x1="10.4375"
       y1="34.05928"
       x2="32.279411"
       y2="29.993416"
       gradientUnits="userSpaceOnUse" />
    <linearGradient
       inkscape:collect="always"
       xlink:href="#linearGradient3984"
       id="linearGradient3996"
       x1="25.478157"
       y1="12.359375"
       x2="23.279509"
       y2="13.146564"
       gradientUnits="userSpaceOnUse" />
    <linearGradient
       inkscape:collect="always"
       xlink:href="#linearGradient3713"
       id="linearGradient3628"
       x1="27.671875"
       y1="22.272049"
       x2="28.503338"
       y2="26.805067"
       gradientUnits="userSpaceOnUse" />
    <linearGradient
       inkscape:collect="always"
       xlink:href="#linearGradient3291"
       id="linearGradient3655"
       x1="25.800091"
       y1="27.779602"
       x2="28.552427"
       y2="21.570318"
       gradientUnits="userSpaceOnUse" />
    <linearGradient
       inkscape:collect="always"
       xlink:href="#linearGradient2308"
       id="linearGradient3669"
       gradientUnits="userSpaceOnUse"
       gradientTransform="translate(0,-40)"
       x1="27.562588"
       y1="65.03125"
       x2="27.338188"
       y2="72.637413" />
    <linearGradient
       inkscape:collect="always"
       xlink:href="#linearGradient3291"
       id="linearGradient3704"
       gradientUnits="userSpaceOnUse"
       gradientTransform="translate(0,-40)"
       x1="22.659813"
       y1="41.522552"
       x2="27.880047"
       y2="45.701267" />
    <linearGradient
       inkscape:collect="always"
       xlink:href="#linearGradient3976"
       id="linearGradient3720"
       gradientUnits="userSpaceOnUse"
       gradientTransform="translate(0,-40)"
       x1="23.559141"
       y1="42.75629"
       x2="26.350462"
       y2="45.026772" />
    <linearGradient
       inkscape:collect="always"
       xlink:href="#linearGradient2308"
       id="linearGradient2320"
       gradientUnits="userSpaceOnUse"
       x1="25.279562"
       y1="24.777683"
       x2="27.72798"
       y2="26.956585" />
    <linearGradient
       inkscape:collect="always"
       xlink:href="#linearGradient3239"
       id="linearGradient2323"
       gradientUnits="userSpaceOnUse"
       x1="23.533396"
       y1="-46.521145"
       x2="28.754454"
       y2="-44.653942" />
    <linearGradient
       inkscape:collect="always"
       xlink:href="#linearGradient3220"
       id="linearGradient3380"
       x1="24.60214"
       y1="23.296358"
       x2="23.192953"
       y2="23.296358"
       gradientUnits="userSpaceOnUse" />
    <linearGradient
       inkscape:collect="always"
       xlink:href="#linearGradient2308"
       id="linearGradient3389"
       gradientUnits="userSpaceOnUse"
       gradientTransform="translate(0,-60)"
       x1="23.650063"
       y1="83.6875"
       x2="23.619093"
       y2="84.744934" />
    <linearGradient
       inkscape:collect="always"
       xlink:href="#linearGradient2308"
       id="linearGradient3403"
       gradientUnits="userSpaceOnUse"
       gradientTransform="translate(0,-60)"
       x1="19.609375"
       y1="82.28125"
       x2="19.1875"
       y2="83.342094" />
    <linearGradient
       inkscape:collect="always"
       xlink:href="#linearGradient3220"
       id="linearGradient3454"
       x1="20.24958"
       y1="21.867413"
       x2="19.494127"
       y2="21.937674"
       gradientUnits="userSpaceOnUse" />
    <linearGradient
       inkscape:collect="always"
       xlink:href="#linearGradient3676"
       id="linearGradient5419"
       gradientUnits="userSpaceOnUse"
       gradientTransform="translate(0,-40)"
       x1="22.010275"
       y1="50.709415"
       x2="19.749369"
       y2="48.7565" />
    <linearGradient
       inkscape:collect="always"
       xlink:href="#linearGradient2308"
       id="linearGradient6392"
       gradientUnits="userSpaceOnUse"
       gradientTransform="translate(0,-40)"
       x1="23.668413"
       y1="52.170826"
       x2="19.749369"
       y2="48.7565" />
    <linearGradient
       inkscape:collect="always"
       xlink:href="#linearGradient3291"
       id="linearGradient7399"
       x1="14.369547"
       y1="14.987105"
       x2="19.714725"
       y2="14.987105"
       gradientUnits="userSpaceOnUse" />
  </defs>
  <sodipodi:namedview
     id="base"
     pagecolor="#ffffff"
     bordercolor="#666666"
     borderopacity="1.0"
     inkscape:pageopacity="0.0"
     inkscape:pageshadow="2"
     inkscape:zoom="17.791042"
     inkscape:cx="20.53384"
     inkscape:cy="19.696167"
     inkscape:current-layer="layer1"
     showgrid="false"
     inkscape:grid-bbox="false"
     inkscape:document-units="px"
     width="40px"
     height="40px"
     gridempspacing="2"
     inkscape:window-width="1167"
     inkscape:window-height="914"
     inkscape:window-x="57"
     inkscape:window-y="40"
     showguides="true"
     inkscape:guide-bbox="true" />
  <metadata
     id="metadata2198">
    <rdf:RDF>
      <cc:Work
         rdf:about="">
        <dc:format>image/svg+xml</dc:format>
        <dc:type
           rdf:resource="http://purl.org/dc/dcmitype/StillImage" />
        <dc:creator>
          <cc:Agent>
            <dc:title>Jarle Akselsen</dc:title>
          </cc:Agent>
        </dc:creator>
        <cc:license
           rdf:resource="http://creativecommons.org/licenses/GPL/2.0/" />
      </cc:Work>
      <cc:License
         rdf:about="http://creativecommons.org/licenses/GPL/2.0/">
        <cc:permits
           rdf:resource="http://web.resource.org/cc/Reproduction" />
        <cc:permits
           rdf:resource="http://web.resource.org/cc/Distribution" />
        <cc:requires
           rdf:resource="http://web.resource.org/cc/Notice" />
        <cc:permits
           rdf:resource="http://web.resource.org/cc/DerivativeWorks" />
        <cc:requires
           rdf:resource="http://web.resource.org/cc/ShareAlike" />
        <cc:requires
           rdf:resource="http://web.resource.org/cc/SourceCode" />
      </cc:License>
    </rdf:RDF>
  </metadata>
  <g
     id="layer1"
     inkscape:label="Layer 1"
     inkscape:groupmode="layer">
    <path
       transform="matrix(0.1602489,-5.5480121e-2,9.7101723e-2,0.1795818,3.88563,18.505665)"
       d="M 127.82442 115.70919 A 63.912209 12.641975 0 1 1  0,115.70919 A 63.912209 12.641975 0 1 1  127.82442 115.70919 z"
       sodipodi:ry="12.641975"
       sodipodi:rx="63.912209"
       sodipodi:cy="115.70919"
       sodipodi:cx="63.912209"
       id="path2593"
       style="opacity:0.38139535;fill:url(#radialGradient2595);fill-opacity:1;fill-rule:nonzero;stroke:none;stroke-width:0;stroke-linecap:round;stroke-linejoin:round;stroke-miterlimit:4;stroke-dasharray:none;stroke-dashoffset:4;stroke-opacity:1"
       sodipodi:type="arc" />
    <path
       sodipodi:nodetypes="ccc"
       id="path2276"
       d="M 10.956528,1.0198748 L 10.956528,-1.7748336 L 10.956528,1.0198748 z "
       style="fill:#ffffff;fill-opacity:0.75688076;fill-rule:nonzero;stroke:none;stroke-width:0.5;stroke-linecap:round;stroke-linejoin:round;stroke-miterlimit:4;stroke-dasharray:none;stroke-dashoffset:4;stroke-opacity:1" />
    <path
       style="opacity:1;color:#000000;fill:#bcb4a7;fill-opacity:1;fill-rule:evenodd;stroke:none;stroke-width:1px;stroke-linecap:butt;stroke-linejoin:miter;marker:none;marker-start:none;marker-mid:none;marker-end:none;stroke-miterlimit:4;stroke-dasharray:none;stroke-dashoffset:0;stroke-opacity:1;visibility:visible;display:inline;overflow:visible;enable-background:accumulate"
       d="M 26.40625 1 C 26.37421 1.004131 26.361216 1.011006 26.34375 1.03125 C 26.337928 1.037998 26.347857 1.05447 26.34375 1.0625 L 19.4375 9.125 C 19.236538 9.087553 19.024159 9.0625 18.8125 9.0625 C 16.951429 9.0625 15.4375 10.57643 15.4375 12.4375 C 15.4375 12.59605 15.478792 12.753507 15.5 12.90625 C 15.5 13.666902 15.5 17.035825 15.5 17.15625 C 15.5 17.363652 15.954922 17.561674 16.65625 17.6875 C 16.65625 17.745476 16.65625 17.798929 16.65625 17.875 C 16.65625 17.887678 16.65625 17.893668 16.65625 17.90625 L 15.03125 17.3125 L 14.53125 17.75 L 14.1875 18.03125 C 14.1875 18.03125 14.31158 18.246826 14.5 18.53125 L 14.28125 18.8125 C 14.28125 18.8125 14.335873 18.912505 14.375 18.96875 L 12.78125 20.875 C 12.78125 20.875001 12.821307 20.976787 12.90625 21.125 L 12.6875 21.34375 C 12.6875 21.34375 12.809758 21.662222 13.0625 21.90625 C 13.315243 22.150277 13.6875 22.312499 13.6875 22.3125 L 13.90625 22.0625 C 13.962776 22.089056 14.0625 22.125 14.0625 22.125 L 15.65625 20.25 C 15.71193 20.289692 15.8125 20.34375 15.8125 20.34375 L 16.03125 20.09375 C 16.199182 20.203107 16.369525 20.282776 16.5625 20.375 L 15.84375 22.65625 C 15.84375 22.65625 15.915994 22.949051 16.53125 23.125 C 17.149868 23.301911 17.375001 23.125 17.375 23.125 L 18.0625 21.1875 L 18.0625 22.40625 C 18.0625 22.40625 18.477157 22.53125 18.875 22.53125 C 19.272843 22.531252 19.65625 22.40625 19.65625 22.40625 L 19.65625 21.1875 C 19.723102 21.178872 19.812713 21.197642 19.875 21.1875 L 19.875 20.8125 C 20.502611 20.716575 20.90625 20.5625 20.90625 20.5625 L 20.90625 20.0625 L 20.875 19.4375 L 20.75 19.40625 L 20.71875 18.625 C 20.908466 18.55916 21.03125 18.481833 21.03125 18.40625 C 21.03125 18.353639 21.03125 18.239106 21.03125 18.125 C 21.03125 18.023572 21.03125 17.921765 21.03125 17.875 C 21.03125 17.798929 21.03125 17.745476 21.03125 17.6875 C 21.741017 17.561675 22.21875 17.363652 22.21875 17.15625 C 22.21875 17.138585 22.21875 16.870204 22.21875 16.8125 L 23.09375 16.71875 C 23.45185 17.248556 23.71875 18.056096 23.71875 19.34375 C 23.71875 23.553766 21.0625 23.000001 21.0625 23 L 21.0625 28.90625 L 21.0625 30.125 L 24.3125 31.46875 L 29.15625 29.84375 L 29.15625 29.8125 L 29.15625 26.8125 C 29.164648 26.772894 29.179996 26.729152 29.1875 26.6875 C 29.207732 26.562203 29.21875 26.444739 29.21875 26.3125 C 29.21875 26.146553 29.188237 25.997343 29.15625 25.84375 L 29.1875 16.21875 C 29.1875 16.21875 29.328125 14.867187 28.71875 13.96875 C 28.109376 13.070312 26.75 12.625 26.75 12.625 L 23.6875 12 L 23.625 12 L 22.125 12.03125 C 22.074826 11.669056 21.99567 11.319234 21.84375 11 L 28.46875 2.84375 C 28.608475 2.681796 28.239285 2.15926 27.65625 1.65625 C 27.218974 1.278992 26.782504 1.033104 26.53125 1 C 26.489374 0.994483 26.43829 0.995869 26.40625 1 z "
       id="path2513" />
    <path
       id="path2628"
       d="M 26.875,24.125 C 26.00654,24.125 25.28125,24.986947 25.28125,26.03125 C 25.28125,26.911659 25.78777,27.636169 26.46875,27.84375 L 27,28.0625 C 27.01986,28.074208 27.04219,28.083077 27.0625,28.09375 L 27.1875,28.125 C 27.24551,28.149074 27.31416,28.172033 27.375,28.1875 C 27.47877,28.221147 27.57774,28.25 27.6875,28.25 C 27.90055,28.25 28.09775,28.192741 28.28125,28.09375 C 28.83176,27.796776 29.21875,27.105934 29.21875,26.3125 C 29.21875,26.102474 29.17536,25.907906 29.125,25.71875 C 29.12003,25.700068 29.13042,25.674673 29.125,25.65625 C 29.11549,25.623435 29.10462,25.594444 29.09375,25.5625 C 29.03864,25.400841 28.99319,25.260416 28.90625,25.125 C 28.89835,25.112689 28.88314,25.105811 28.875,25.09375 C 28.77513,24.941498 28.66413,24.825992 28.53125,24.71875 C 28.51925,24.708685 28.51223,24.697153 28.5,24.6875 C 28.43719,24.639785 28.34973,24.598624 28.28125,24.5625 C 28.26887,24.555998 28.26254,24.537359 28.25,24.53125 C 28.16876,24.491395 28.08761,24.459605 28,24.4375 L 27.28125,24.21875 C 27.15126,24.168968 27.01974,24.125 26.875,24.125 z "
       style="opacity:0.43203885;fill:#00734d;fill-opacity:1;fill-rule:nonzero;stroke:none;stroke-width:0.1;stroke-linecap:round;stroke-linejoin:round;stroke-miterlimit:4;stroke-dasharray:none;stroke-opacity:1" />
    <path
       style="opacity:1;color:#000000;fill:#000000;fill-opacity:1;fill-rule:evenodd;stroke:none;stroke-width:1px;stroke-linecap:butt;stroke-linejoin:miter;marker:none;marker-start:none;marker-mid:none;marker-end:none;stroke-miterlimit:4;stroke-dasharray:none;stroke-dashoffset:0;stroke-opacity:1;visibility:visible;display:inline;overflow:visible;enable-background:accumulate"
       d="M 21.0625,28.90625 L 10.4375,31.8125 L 10.46875,34.46875 L 17.65625,38.4375 L 31.21875,32.90625 L 31.21875,30.59375 L 29.15625,29.8125 L 29.15625,29.84375 L 24.3125,31.46875 L 21.0625,30.125 L 21.0625,28.90625 z "
       id="path3998"
       sodipodi:nodetypes="ccccccccccc" />
    <path
       sodipodi:nodetypes="csccccssc"
       id="path3484"
       d="M 26.40625,1 C 26.37421,1.004131 26.361216,1.011006 26.34375,1.03125 C 26.337928,1.037998 26.347857,1.05447 26.34375,1.0625 L 24.84375,2.8125 C 25.76021,3.167079 26.512728,3.826967 26.96875,4.6875 L 28.46875,2.84375 C 28.608475,2.681796 28.239285,2.15926 27.65625,1.65625 C 27.218974,1.278992 26.782504,1.033104 26.53125,1 C 26.489374,0.994483 26.43829,0.995869 26.40625,1 z "
       style="opacity:1;fill:#000000;fill-opacity:1;fill-rule:nonzero;stroke:none;stroke-width:0.1;stroke-linecap:round;stroke-linejoin:round;stroke-miterlimit:4;stroke-dasharray:none;stroke-opacity:1" />
    <path
       id="path3498"
       d="M 18.8125,9.0625 C 16.951429,9.0625 15.4375,10.57643 15.4375,12.4375 C 15.4375,12.59605 15.478792,12.753507 15.5,12.90625 C 15.5,12.827948 15.5,12.478321 15.5,12.46875 C 15.5,12.763496 16.989323,13.000001 18.84375,13 C 20.555529,13 21.978042,12.794078 22.1875,12.53125 C 22.188358,12.499993 22.1875,12.468963 22.1875,12.4375 C 22.1875,10.576429 20.67357,9.0625 18.8125,9.0625 z "
       style="opacity:0.3;fill:url(#radialGradient3506);fill-opacity:1.0;fill-rule:nonzero;stroke:none;stroke-width:0.1;stroke-linecap:round;stroke-linejoin:round;stroke-miterlimit:4;stroke-dasharray:none;stroke-opacity:1" />
    <path
       id="path3508"
       d="M 19.8125,11.96875 C 20.119486,11.984988 20.419399,12.002454 20.6875,12.03125 C 20.41381,12.002244 20.134489,11.984219 19.8125,11.96875 z M 15.5,12.46875 C 15.5,12.571299 15.5,17.023428 15.5,17.15625 C 15.5,17.537246 16.989323,17.843752 18.84375,17.84375 C 20.698177,17.84375 22.21875,17.537246 22.21875,17.15625 C 22.21875,17.138585 22.21875,16.870204 22.21875,16.8125 L 21.75,16.84375 L 21.75,12.75 L 21.65625,12.75 C 21.064565,12.902501 20.052977,13 18.84375,13 C 16.989323,13 15.5,12.763496 15.5,12.46875 z "
       style="opacity:0.25;fill:url(#linearGradient3516);fill-opacity:1.0;fill-rule:nonzero;stroke:none;stroke-width:0.1;stroke-linecap:round;stroke-linejoin:round;stroke-miterlimit:4;stroke-dasharray:none;stroke-opacity:1" />
    <path
       id="path3518"
       d="M 23.625,12 L 22.15625,12.03125 C 22.172259,12.164295 22.1875,12.300208 22.1875,12.4375 C 22.1875,12.468963 22.188358,12.499993 22.1875,12.53125 C 22.135135,12.596957 22.002062,12.662485 21.8125,12.71875 L 26.75,12.625 L 23.6875,12 L 23.625,12 z "
       style="opacity:0.25;fill:url(#linearGradient3996);fill-opacity:1.0;fill-rule:nonzero;stroke:none;stroke-width:0.1;stroke-linecap:round;stroke-linejoin:round;stroke-miterlimit:4;stroke-dasharray:none;stroke-opacity:1" />
    <path
       sodipodi:nodetypes="ccccsscccczcc"
       id="path3520"
       d="M 24.3125,12.6875 L 21.75,12.71875 L 21.75,16.84375 L 24.3125,16.625 C 24.3125,16.625 24.490591,16.587359 24.75,16.59375 C 25.528228,16.612924 27.09375,17.057133 27.09375,20.28125 C 27.09375,24.663921 24.3125,24.09375 24.3125,24.09375 L 24.3125,31.46875 L 29.15625,29.84375 L 29.1875,16.21875 C 29.1875,16.21875 29.340474,14.878371 28.731099,13.979934 C 28.121724,13.081496 26.75,12.625 26.75,12.625 L 24.3125,12.6875 z "
       style="opacity:0.25;color:#000000;fill:url(#linearGradient3528);fill-opacity:1.0;fill-rule:evenodd;stroke:none;stroke-width:1px;stroke-linecap:butt;stroke-linejoin:miter;marker:none;marker-start:none;marker-mid:none;marker-end:none;stroke-miterlimit:4;stroke-dasharray:none;stroke-dashoffset:0;stroke-opacity:1;visibility:visible;display:inline;overflow:visible;enable-background:accumulate" />
    <path
       style="opacity:1;fill:#000000;fill-opacity:1;fill-rule:nonzero;stroke:none;stroke-width:0.1;stroke-linecap:round;stroke-linejoin:round;stroke-miterlimit:4;stroke-dasharray:none;stroke-opacity:1"
       d="M 26.875,24.125 C 26.622173,24.125 26.398489,24.216219 26.1875,24.34375 L 26.34375,24.40625 L 26.34375,25.625 L 25.28125,25.875 C 25.27745,25.927946 25.28125,25.977234 25.28125,26.03125 C 25.28125,26.911659 25.78777,27.636169 26.46875,27.84375 L 27.1875,28.125 C 27.34699,28.195518 27.51331,28.25 27.6875,28.25 C 28.5397,28.25 29.21875,27.370412 29.21875,26.3125 C 29.21875,25.386828 28.70088,24.614341 28,24.4375 L 27.28125,24.21875 C 27.15126,24.168968 27.01974,24.125 26.875,24.125 z "
       id="path2630" />
    <path
       id="path3530"
       d="M 24.75,16.59375 C 24.490591,16.587359 24.3125,16.625 24.3125,16.625 L 23.09375,16.71875 C 23.45185,17.248556 23.71875,18.056096 23.71875,19.34375 C 23.71875,23.553766 21.0625,23.000001 21.0625,23 L 24.3125,24.09375 C 24.3125,24.09375 27.09375,24.663921 27.09375,20.28125 C 27.09375,17.057133 25.528228,16.612924 24.75,16.59375 z "
       style="opacity:0.35;color:#000000;fill:url(#linearGradient3548);fill-opacity:1.0;fill-rule:evenodd;stroke:none;stroke-width:1px;stroke-linecap:butt;stroke-linejoin:miter;marker:none;marker-start:none;marker-mid:none;marker-end:none;stroke-miterlimit:4;stroke-dasharray:none;stroke-dashoffset:0;stroke-opacity:1;visibility:visible;display:inline;overflow:visible;enable-background:accumulate" />
    <path
       style="opacity:0.5;color:#000000;fill:url(#linearGradient3974);fill-opacity:1.0;fill-rule:evenodd;stroke:none;stroke-width:1px;stroke-linecap:butt;stroke-linejoin:miter;marker:none;marker-start:none;marker-mid:none;marker-end:none;stroke-miterlimit:4;stroke-dasharray:none;stroke-dashoffset:0;stroke-opacity:1;visibility:visible;display:inline;overflow:visible;enable-background:accumulate"
       d="M 21.0625,28.875 L 10.4375,31.8125 L 17.65625,35.53125 L 31.21875,30.59375 L 29.15625,29.8125 L 29.15625,29.84375 L 24.3125,31.46875 L 21.0625,30.125 L 21.0625,28.875 z "
       id="path3550" />
    <path
       sodipodi:nodetypes="ccccc"
       id="path3554"
       d="M 21.0625,23 L 21.0625,30.125 L 24.3125,31.46875 L 24.3125,24.09375 L 21.0625,23 z "
       style="opacity:0.25;color:#000000;fill:url(#linearGradient3639);fill-opacity:1;fill-rule:evenodd;stroke:none;stroke-width:1px;stroke-linecap:butt;stroke-linejoin:miter;marker:none;marker-start:none;marker-mid:none;marker-end:none;stroke-miterlimit:4;stroke-dasharray:none;stroke-dashoffset:0;stroke-opacity:1;visibility:visible;display:inline;overflow:visible;enable-background:accumulate" />
    <path
       sodipodi:nodetypes="ccccc"
       style="opacity:0.4;color:#000000;fill:#ffffff;fill-opacity:1;fill-rule:evenodd;stroke:none;stroke-width:1px;stroke-linecap:butt;stroke-linejoin:miter;marker:none;marker-start:none;marker-mid:none;marker-end:none;stroke-miterlimit:4;stroke-dasharray:none;stroke-dashoffset:0;stroke-opacity:1;visibility:visible;display:inline;overflow:visible;enable-background:accumulate"
       d="M 17.65625,35.53125 L 10.4375,31.8125 L 10.46875,34.46875 L 17.65625,38.4375 L 17.65625,35.53125 z "
       id="path3565" />
    <path
       sodipodi:nodetypes="ccccc"
       id="path3567"
       d="M 31.21875,30.59375 L 17.65625,35.53125 L 17.65625,38.4375 L 31.21875,32.90625 L 31.21875,30.59375 z "
       style="opacity:0.1;color:#000000;fill:#ffffff;fill-opacity:1;fill-rule:evenodd;stroke:none;stroke-width:1px;stroke-linecap:butt;stroke-linejoin:miter;marker:none;marker-start:none;marker-mid:none;marker-end:none;stroke-miterlimit:4;stroke-dasharray:none;stroke-dashoffset:0;stroke-opacity:1;visibility:visible;display:inline;overflow:visible;enable-background:accumulate" />
    <path
       style="opacity:0.98999999;fill:#bbbbbb;fill-opacity:1;fill-rule:nonzero;stroke:none;stroke-width:0.1;stroke-linecap:round;stroke-linejoin:round;stroke-miterlimit:4;stroke-dasharray:none;stroke-opacity:1"
       d="M 18.84375,30.59375 C 17.111578,30.59375 15.71875,31.154066 15.71875,31.84375 C 15.71875,31.864035 15.716345,31.886201 15.71875,31.90625 C 15.7168,31.924636 15.71875,31.950171 15.71875,31.96875 C 15.71875,32.670631 17.111577,33.218751 18.84375,33.21875 C 20.575922,33.21875 22,32.670631 22,31.96875 C 22,31.950171 22.00195,31.924636 22,31.90625 C 22.002405,31.886201 22,31.864035 22,31.84375 C 22,31.154067 20.575922,30.593749 18.84375,30.59375 z "
       id="path3574" />
    <path
       id="path3576"
       d="M 15.71875,31.90625 C 15.7168,31.924636 15.71875,31.950171 15.71875,31.96875 C 15.71875,32.670631 17.111577,33.218751 18.84375,33.21875 C 20.575922,33.21875 22,32.670631 22,31.96875 C 22,31.950171 22.00195,31.924636 22,31.90625 C 21.920643,32.567869 20.524976,33.09375 18.84375,33.09375 C 17.162523,33.093748 15.798107,32.567869 15.71875,31.90625 z "
       style="opacity:1;fill:url(#linearGradient3588);fill-opacity:1;fill-rule:nonzero;stroke:none;stroke-width:0.1;stroke-linecap:round;stroke-linejoin:round;stroke-miterlimit:4;stroke-dasharray:none;stroke-opacity:1" />
    <path
       id="path3578"
       d="M 18.84375,30.59375 C 17.111578,30.59375 15.71875,31.154066 15.71875,31.84375 C 15.71875,32.533433 17.111577,33.093748 18.84375,33.09375 C 20.575922,33.09375 22,32.533433 22,31.84375 C 22,31.154067 20.575922,30.593749 18.84375,30.59375 z M 18.84375,30.6875 C 20.411434,30.6875 21.6875,31.188309 21.6875,31.8125 C 21.687499,32.436691 20.411434,32.9375 18.84375,32.9375 C 17.276065,32.9375 16,32.436691 16,31.8125 C 15.999999,31.18831 17.276066,30.6875 18.84375,30.6875 z "
       style="opacity:0.5;fill:url(#linearGradient3596);fill-opacity:1;fill-rule:nonzero;stroke:none;stroke-width:0.1;stroke-linecap:round;stroke-linejoin:round;stroke-miterlimit:4;stroke-dasharray:none;stroke-opacity:1" />
    <path
       sodipodi:type="arc"
       style="opacity:1;fill:#eeeeec;fill-opacity:1;fill-rule:nonzero;stroke:none;stroke-width:0.1;stroke-linecap:round;stroke-linejoin:round;stroke-miterlimit:4;stroke-dasharray:none;stroke-opacity:1"
       id="path3580"
       sodipodi:cx="18.557936"
       sodipodi:cy="0.69037795"
       sodipodi:rx="1.6008444"
       sodipodi:ry="0.1778716"
       d="M 20.15878 0.69037795 A 1.6008444 0.1778716 0 1 1  16.957091,0.69037795 A 1.6008444 0.1778716 0 1 1  20.15878 0.69037795 z"
       transform="matrix(1.7740687,0,0,6.3572835,-14.071615,27.431772)" />
    <path
       style="opacity:1;color:#000000;fill:#000000;fill-opacity:1;fill-rule:evenodd;stroke:none;stroke-width:1px;stroke-linecap:butt;stroke-linejoin:miter;marker:none;marker-start:none;marker-mid:none;marker-end:none;stroke-miterlimit:4;stroke-dasharray:none;stroke-dashoffset:0;stroke-opacity:1;visibility:visible;display:inline;overflow:visible;enable-background:accumulate"
       d="M 20.65625,22.5 L 12.28125,23.96875 L 12.28125,25.21875 L 18.125,27.59375 L 21.65625,26.75 L 21.65625,30.375 L 23.71875,31.21875 L 23.71875,26.25 L 26.34375,25.625 L 26.34375,24.40625 L 20.65625,22.5 z "
       id="path3552" />
    <path
       style="opacity:1;fill:url(#linearGradient3628);fill-opacity:1.0;fill-rule:nonzero;stroke:none;stroke-width:0.1;stroke-linecap:round;stroke-linejoin:round;stroke-miterlimit:4;stroke-dasharray:none;stroke-opacity:1"
       d="M 27.6875 24.40625 C 27.112265 24.40625 26.614869 24.798402 26.34375 25.375 L 26.34375 25.625 L 26.21875 25.65625 C 26.157052 25.860445 26.125 26.08173 26.125 26.3125 C 26.125 27.370411 26.83529 28.25 27.6875 28.25 C 28.5397 28.25 29.21875 27.37041 29.21875 26.3125 C 29.21875 25.254589 28.5397 24.40625 27.6875 24.40625 z M 27.6875 24.71875 C 28.40507 24.71875 28.96875 25.421723 28.96875 26.3125 C 28.96875 27.203277 28.40507 27.9375 27.6875 27.9375 C 26.96993 27.9375 26.375 27.203277 26.375 26.3125 C 26.375 25.421724 26.96993 24.71875 27.6875 24.71875 z "
       id="path2632" />
    <path
       style="opacity:0.4;color:#000000;fill:#ffffff;fill-opacity:1;fill-rule:evenodd;stroke:none;stroke-width:1px;stroke-linecap:butt;stroke-linejoin:miter;marker:none;marker-start:none;marker-mid:none;marker-end:none;stroke-miterlimit:4;stroke-dasharray:none;stroke-dashoffset:0;stroke-opacity:1;visibility:visible;display:inline;overflow:visible;enable-background:accumulate"
       d="M 12.28125,23.96875 L 12.28125,25.21875 L 18.125,27.59375 L 18.125,26.28125 L 12.28125,23.96875 z "
       id="path3601"
       sodipodi:nodetypes="ccccc" />
    <path
       id="path3603"
       d="M 18.125,27.59375 L 26.34375,25.625 L 26.34375,24.40625 L 18.125,26.28125 L 18.125,27.59375 z "
       style="opacity:0.1;color:#000000;fill:#ffffff;fill-opacity:1;fill-rule:evenodd;stroke:none;stroke-width:1px;stroke-linecap:butt;stroke-linejoin:miter;marker:none;marker-start:none;marker-mid:none;marker-end:none;stroke-miterlimit:4;stroke-dasharray:none;stroke-dashoffset:0;stroke-opacity:1;visibility:visible;display:inline;overflow:visible;enable-background:accumulate"
       sodipodi:nodetypes="ccccc" />
    <path
       style="opacity:0.5;color:#000000;fill:url(#linearGradient3631);fill-opacity:1;fill-rule:evenodd;stroke:none;stroke-width:1px;stroke-linecap:butt;stroke-linejoin:miter;marker:none;marker-start:none;marker-mid:none;marker-end:none;stroke-miterlimit:4;stroke-dasharray:none;stroke-dashoffset:0;stroke-opacity:1;visibility:visible;display:inline;overflow:visible;enable-background:accumulate"
       d="M 20.65625,22.5 L 12.28125,23.96875 L 18.125,26.28125 L 26.34375,24.40625 L 20.65625,22.5 z M 18.84375,24.0625 C 19.307435,24.062499 19.6875,24.200325 19.6875,24.34375 C 19.687499,24.487174 19.307434,24.59375 18.84375,24.59375 C 18.380066,24.59375 18,24.487175 18,24.34375 C 18.000001,24.200325 18.380066,24.0625 18.84375,24.0625 z "
       id="path3623" />
    <path
       transform="matrix(0.5247281,0,0,1.4607572,9.113569,23.327539)"
       d="M 20.15878 0.69037795 A 1.6008444 0.1778716 0 1 1  16.957091,0.69037795 A 1.6008444 0.1778716 0 1 1  20.15878 0.69037795 z"
       sodipodi:ry="0.1778716"
       sodipodi:rx="1.6008444"
       sodipodi:cy="0.69037795"
       sodipodi:cx="18.557936"
       id="path3848"
       style="opacity:0.5;fill:url(#linearGradient3859);fill-opacity:1;fill-rule:nonzero;stroke:none;stroke-width:0.1;stroke-linecap:round;stroke-linejoin:round;stroke-miterlimit:4;stroke-dasharray:none;stroke-opacity:1"
       sodipodi:type="arc" />
    <path
       id="path3863"
       d="M 19.176406,22.114995 L 19.176406,23.001159 L 19.176406,23.028305 C 19.20958,23.093028 19.371086,23.136887 19.583576,23.136885 C 19.784266,23.136885 19.944702,23.087728 19.990746,23.028305 C 19.998871,23.01782 20.017896,23.012444 20.017896,23.001159 L 20.017896,22.114995 C 20.016055,22.118586 19.993454,22.111501 19.990746,22.114995 C 19.944702,22.174417 19.784266,22.223575 19.583576,22.223575 C 19.371086,22.223576 19.20958,22.179718 19.176406,22.114995 z "
       style="opacity:1;fill:url(#linearGradient3923);fill-opacity:1;fill-rule:nonzero;stroke:none;stroke-width:0.1;stroke-linecap:round;stroke-linejoin:round;stroke-miterlimit:4;stroke-dasharray:none;stroke-opacity:1"
       sodipodi:nodetypes="cccssccssc" />
    <path
       id="path3865"
       d="M 23.264448,23.482788 L 23.264448,24.502978 L 23.264448,24.534228 C 23.302632,24.608741 23.488568,24.65923 23.733198,24.659228 C 23.964238,24.659228 24.148934,24.602641 24.201948,24.534228 C 24.211303,24.522155 24.233198,24.515967 24.233198,24.502978 L 24.233198,23.482788 C 24.231077,23.486928 24.205066,23.478764 24.201948,23.482788 C 24.148934,23.5512 23.964238,23.607788 23.733198,23.607788 C 23.488568,23.607789 23.302632,23.557301 23.264448,23.482788 z "
       style="opacity:1;fill:url(#linearGradient3907);fill-opacity:1;fill-rule:nonzero;stroke:none;stroke-width:0.1;stroke-linecap:round;stroke-linejoin:round;stroke-miterlimit:4;stroke-dasharray:none;stroke-opacity:1"
       sodipodi:nodetypes="cccssccssc" />
    <path
       transform="matrix(1,0,0,0.8571429,0.1394441,54.65338)"
       d="M 24.09768 -36.999279 A 0.49241191 0.18302035 0 1 1  23.112857,-36.999279 A 0.49241191 0.18302035 0 1 1  24.09768 -36.999279 z"
       sodipodi:ry="0.18302035"
       sodipodi:rx="0.49241191"
       sodipodi:cy="-36.999279"
       sodipodi:cx="23.605268"
       id="path3869"
       style="opacity:1;fill:url(#linearGradient3939);fill-opacity:1;fill-rule:nonzero;stroke:none;stroke-width:0.1;stroke-linecap:round;stroke-linejoin:round;stroke-miterlimit:4;stroke-dasharray:none;stroke-opacity:1"
       sodipodi:type="arc" />
    <path
       transform="matrix(0.8686287,0,0,0.7445389,-0.9106235,49.19066)"
       d="M 24.09768 -36.999279 A 0.49241191 0.18302035 0 1 1  23.112857,-36.999279 A 0.49241191 0.18302035 0 1 1  24.09768 -36.999279 z"
       sodipodi:ry="0.18302035"
       sodipodi:rx="0.49241191"
       sodipodi:cy="-36.999279"
       sodipodi:cx="23.605268"
       id="path3871"
       style="opacity:1;fill:url(#linearGradient3953);fill-opacity:1;fill-rule:nonzero;stroke:none;stroke-width:0.1;stroke-linecap:round;stroke-linejoin:round;stroke-miterlimit:4;stroke-dasharray:none;stroke-opacity:1"
       sodipodi:type="arc" />
    <path
       sodipodi:nodetypes="ccccccccccccssssc"
       id="path3873"
       d="M 25.15625,23 C 24.972413,23 24.75,23.09375 24.75,23.09375 L 22.375,23.40625 L 21.4375,24.25 L 18.6875,24.875 L 18.5,25.15625 L 18.5,25.21875 L 19.03125,25.25 L 21.84375,24.6875 L 22.875,23.84375 L 25.375,23.5625 C 25.375,23.5625 25.371061,23.516575 25.375,23.5 C 25.375,23.5 25.396491,23.43436 25.40625,23.375 C 25.407557,23.354083 25.406877,23.333835 25.40625,23.3125 C 25.408211,23.281125 25.409054,23.25036 25.40625,23.21875 C 25.399707,23.144993 25.367406,23.067854 25.3125,23.03125 C 25.273281,23.005104 25.217529,23 25.15625,23 z "
       style="opacity:1;color:#000000;fill:#888888;fill-opacity:1;fill-rule:evenodd;stroke:none;stroke-width:1px;stroke-linecap:butt;stroke-linejoin:miter;marker:none;marker-start:none;marker-mid:none;marker-end:none;stroke-miterlimit:4;stroke-dasharray:none;stroke-dashoffset:0;stroke-opacity:1;visibility:visible;display:inline;overflow:visible;enable-background:accumulate" />
    <path
       sodipodi:nodetypes="ccccccccccccssc"
       id="path3875"
       d="M 20.96875,21.53125 C 20.772657,21.48767 20.28125,21.78125 20.28125,21.78125 L 18.59375,22.1875 L 17.90625,23.09375 L 16.15625,23.875 L 16.15625,23.90625 L 16.0625,24.15625 L 16.0625,24.21875 L 16.8125,24.25 L 18.46875,23.4375 L 19.21875,22.5 L 21,22.03125 C 21,22.03125 20.998367,22.00418 21,22 C 21,22 21.0676,21.81785 21.0625,21.6875 C 21.059754,21.61731 21.037383,21.5465 20.96875,21.53125 z "
       style="opacity:1;color:#000000;fill:#888888;fill-opacity:1;fill-rule:evenodd;stroke:none;stroke-width:1px;stroke-linecap:butt;stroke-linejoin:miter;marker:none;marker-start:none;marker-mid:none;marker-end:none;stroke-miterlimit:4;stroke-dasharray:none;stroke-dashoffset:0;stroke-opacity:1;visibility:visible;display:inline;overflow:visible;enable-background:accumulate" />
    <path
       id="path3877"
       d="M 20.78125,21.5625 C 20.560315,21.626685 20.28125,21.78125 20.28125,21.78125 C 20.28125,21.78125 20.56434,21.62238 20.78125,21.5625 z M 21,22 L 19.21875,22.4375 L 18.46875,23.40625 L 19.21875,22.5 L 21,22.03125 C 21,22.03125 20.998367,22.004184 21,22 z M 18.46875,23.40625 L 16.8125,24.1875 L 16.0625,24.15625 L 16.0625,24.21875 L 16.8125,24.25 L 18.46875,23.4375 L 18.46875,23.40625 z "
       style="opacity:0.75;color:#000000;fill:#ffffff;fill-opacity:1;fill-rule:evenodd;stroke:none;stroke-width:1px;stroke-linecap:butt;stroke-linejoin:miter;marker:none;marker-start:none;marker-mid:none;marker-end:none;stroke-miterlimit:4;stroke-dasharray:none;stroke-dashoffset:0;stroke-opacity:1;visibility:visible;display:inline;overflow:visible;enable-background:accumulate" />
    <path
       style="opacity:1;color:#000000;fill:#bbbbbb;fill-opacity:1;fill-rule:evenodd;stroke:none;stroke-width:1px;stroke-linecap:butt;stroke-linejoin:miter;marker:none;marker-start:none;marker-mid:none;marker-end:none;stroke-miterlimit:4;stroke-dasharray:none;stroke-dashoffset:0;stroke-opacity:1;visibility:visible;display:inline;overflow:visible;enable-background:accumulate"
       d="M 16.823941,24.187499 L 18.476761,23.397446 L 19.225247,22.450518 L 20.99144,21.989133 C 20.99144,21.989133 21.156281,21.588851 20.960188,21.545275 C 20.764095,21.501699 20.286999,21.779968 20.286999,21.779968 L 18.578809,22.182984 L 17.901134,23.07916 L 16.158083,23.863532 L 16.055249,24.16496 L 16.823941,24.187499 z "
       id="path3879"
       sodipodi:nodetypes="cccczcccccc" />
    <path
       id="path3883"
       d="M 25.375,23.5 L 22.875,23.78125 L 21.84375,24.65625 L 19.03125,25.1875 L 18.5,25.15625 L 18.5,25.21875 L 19.03125,25.25 L 21.84375,24.6875 L 22.875,23.84375 L 25.375,23.5625 C 25.375,23.5625 25.371061,23.516575 25.375,23.5 z "
       style="opacity:0.75;color:#000000;fill:#ffffff;fill-opacity:1;fill-rule:evenodd;stroke:none;stroke-width:1px;stroke-linecap:butt;stroke-linejoin:miter;marker:none;marker-start:none;marker-mid:none;marker-end:none;stroke-miterlimit:4;stroke-dasharray:none;stroke-dashoffset:0;stroke-opacity:1;visibility:visible;display:inline;overflow:visible;enable-background:accumulate" />
    <path
       style="opacity:1;color:#000000;fill:#bbbbbb;fill-opacity:1;fill-rule:evenodd;stroke:none;stroke-width:1px;stroke-linecap:butt;stroke-linejoin:miter;marker:none;marker-start:none;marker-mid:none;marker-end:none;stroke-miterlimit:4;stroke-dasharray:none;stroke-dashoffset:0;stroke-opacity:1;visibility:visible;display:inline;overflow:visible;enable-background:accumulate"
       d="M 24.751324,23.09659 L 22.380775,23.410339 L 21.439527,24.247004 L 18.702937,24.874502 L 18.511201,25.170821 L 19.016686,25.188251 L 21.857859,24.647905 L 22.868829,23.77638 L 25.378822,23.514922 C 25.378822,23.514922 25.483405,23.148881 25.326531,23.044298 C 25.169656,22.939715 24.751324,23.09659 24.751324,23.09659 z "
       id="path3885"
       sodipodi:nodetypes="ccccccccczc" />
    <path
       id="path3887"
       d="M 24.75,23.09375 L 22.375,23.40625 L 22.875,23.78125 L 25.375,23.5 C 25.375,23.500001 24.75,23.09375 24.75,23.09375 z M 21.4375,24.25 L 18.6875,24.875 L 18.5,25.15625 L 19.03125,25.1875 L 21.84375,24.65625 L 21.4375,24.25 z "
       style="opacity:0.5;color:#000000;fill:#888a85;fill-opacity:1;fill-rule:evenodd;stroke:none;stroke-width:1px;stroke-linecap:butt;stroke-linejoin:miter;marker:none;marker-start:none;marker-mid:none;marker-end:none;stroke-miterlimit:4;stroke-dasharray:none;stroke-dashoffset:0;stroke-opacity:1;visibility:visible;display:inline;overflow:visible;enable-background:accumulate" />
    <path
       sodipodi:nodetypes="cccssccssc"
       style="opacity:1;fill:url(#linearGradient3915);fill-opacity:1;fill-rule:nonzero;stroke:none;stroke-width:0.1;stroke-linecap:round;stroke-linejoin:round;stroke-miterlimit:4;stroke-dasharray:none;stroke-opacity:1"
       d="M 23.264448,22.965138 L 23.264448,23.455343 L 23.264448,23.486593 C 23.302632,23.561106 23.488568,23.611595 23.733198,23.611593 C 23.964238,23.611593 24.148934,23.555006 24.201948,23.486593 C 24.211303,23.47452 24.233198,23.468332 24.233198,23.455343 L 24.233198,22.965138 C 24.231077,22.969278 24.205066,22.961114 24.201948,22.965138 C 24.148934,23.03355 23.964238,23.090138 23.733198,23.090138 C 23.488568,23.090139 23.302632,23.039651 23.264448,22.965138 z "
       id="path3889" />
    <path
       id="path3891"
       d="M 20.28125,21.78125 L 18.59375,22.1875 L 19.21875,22.4375 L 21,22 C 21,21.999999 20.28125,21.78125 20.28125,21.78125 z M 17.90625,23.09375 L 16.15625,23.875 L 16.0625,24.15625 L 16.8125,24.1875 L 18.46875,23.40625 L 17.90625,23.09375 z "
       style="opacity:0.5;color:#000000;fill:#555753;fill-opacity:1;fill-rule:evenodd;stroke:none;stroke-width:1px;stroke-linecap:butt;stroke-linejoin:miter;marker:none;marker-start:none;marker-mid:none;marker-end:none;stroke-miterlimit:4;stroke-dasharray:none;stroke-dashoffset:0;stroke-opacity:1;visibility:visible;display:inline;overflow:visible;enable-background:accumulate" />
    <path
       sodipodi:nodetypes="cccssccssc"
       style="opacity:1;fill:url(#linearGradient3931);fill-opacity:1;fill-rule:nonzero;stroke:none;stroke-width:0.1;stroke-linecap:round;stroke-linejoin:round;stroke-miterlimit:4;stroke-dasharray:none;stroke-opacity:1"
       d="M 19.176406,21.665345 L 19.176406,22.09115 L 19.176406,22.1183 C 19.20958,22.183023 19.371086,22.226882 19.583576,22.22688 C 19.784266,22.22688 19.944702,22.177723 19.990746,22.1183 C 19.998871,22.107809 20.017896,22.102439 20.017896,22.09115 L 20.017896,21.665345 C 20.016055,21.668945 19.993454,21.661851 19.990746,21.665345 C 19.944702,21.724775 19.784266,21.773925 19.583576,21.773925 C 19.371086,21.773926 19.20958,21.730068 19.176406,21.665345 z "
       id="path3881" />
    <path
       style="opacity:1;color:#000000;fill:#060606;fill-opacity:1;fill-rule:evenodd;stroke:none;stroke-width:1px;stroke-linecap:butt;stroke-linejoin:miter;marker:none;marker-start:none;marker-mid:none;marker-end:none;stroke-miterlimit:4;stroke-dasharray:none;stroke-dashoffset:0;stroke-opacity:1;visibility:visible;display:inline;overflow:visible;enable-background:accumulate"
       d="M 15.03125,17.3125 L 14.53125,17.75 L 14.1875,18.03125 C 14.1875,18.03125 14.31158,18.246826 14.5,18.53125 L 14.28125,18.8125 C 14.28125,18.8125 14.335873,18.912505 14.375,18.96875 L 12.78125,20.875 C 12.78125,20.875001 12.821307,20.976787 12.90625,21.125 L 12.6875,21.34375 C 12.6875,21.34375 12.809758,21.662222 13.0625,21.90625 C 13.315243,22.150277 13.6875,22.312499 13.6875,22.3125 L 13.90625,22.0625 C 13.962776,22.089056 14.0625,22.125 14.0625,22.125 L 15.65625,20.25 C 15.71193,20.289692 15.8125,20.34375 15.8125,20.34375 L 16.03125,20.09375 C 16.199182,20.203107 16.369525,20.282776 16.5625,20.375 L 15.84375,22.65625 C 15.84375,22.65625 15.915994,22.949051 16.53125,23.125 C 17.149868,23.301911 17.375001,23.125 17.375,23.125 L 18.0625,21.1875 L 18.0625,22.40625 C 18.0625,22.40625 18.477157,22.53125 18.875,22.53125 C 19.272843,22.531252 19.65625,22.40625 19.65625,22.40625 L 19.65625,21.1875 C 19.723102,21.178872 19.812713,21.197642 19.875,21.1875 L 19.875,20.8125 C 20.502611,20.716575 20.90625,20.5625 20.90625,20.5625 L 20.90625,20.0625 L 20.875,19.4375 L 20.75,19.40625 L 20.71875,18.625 C 20.908466,18.55916 21.03125,18.481833 21.03125,18.40625 C 21.03125,18.353639 21.03125,18.239106 21.03125,18.125 C 21.03125,18.023572 21.03125,17.921765 21.03125,17.875 C 21.03125,17.798929 21.03125,17.745476 21.03125,17.6875 C 20.437182,17.792815 19.688685,17.84375 18.84375,17.84375 C 17.998815,17.843751 17.243255,17.792815 16.65625,17.6875 C 16.65625,17.745476 16.65625,17.798929 16.65625,17.875 C 16.65625,17.887678 16.65625,17.893668 16.65625,17.90625 L 15.03125,17.3125 z M 15.96875,17.5 C 16.092645,17.545349 16.240978,17.587263 16.40625,17.625 C 16.229862,17.586077 16.097558,17.546606 15.96875,17.5 z "
       id="path3641"
       sodipodi:nodetypes="cccccccccsccccccccscccscccccccccssscscscccsc" />
    <path
       id="path3646"
       d="M 16.65625,17.6875 C 16.65625,17.745476 16.65625,17.798929 16.65625,17.875 C 16.65625,17.887678 16.65625,17.893668 16.65625,17.90625 L 19.21875,18.84375 C 20.237428,18.804702 21.03125,18.610002 21.03125,18.40625 C 21.03125,18.353639 21.03125,18.239106 21.03125,18.125 C 21.03125,18.023572 21.03125,17.921765 21.03125,17.875 C 21.03125,17.798929 21.03125,17.745476 21.03125,17.6875 C 20.437182,17.792815 19.688685,17.84375 18.84375,17.84375 C 17.998815,17.843751 17.243255,17.792815 16.65625,17.6875 z "
       style="opacity:0.75;fill:url(#linearGradient3654);fill-opacity:1;fill-rule:nonzero;stroke:none;stroke-width:0.1;stroke-linecap:round;stroke-linejoin:round;stroke-miterlimit:4;stroke-dasharray:none;stroke-opacity:1" />
    <path
       style="opacity:0.52427183;color:#000000;fill:url(#linearGradient3664);fill-opacity:1;fill-rule:evenodd;stroke:none;stroke-width:1px;stroke-linecap:butt;stroke-linejoin:miter;marker:none;marker-start:none;marker-mid:none;marker-end:none;stroke-miterlimit:4;stroke-dasharray:none;stroke-dashoffset:0;stroke-opacity:1;visibility:visible;display:inline;overflow:visible;enable-background:accumulate"
       d="M 20.71875,18.59375 C 20.404886,18.707701 19.840147,18.784023 19.1875,18.8125 L 20.75,19.40625 L 20.71875,18.59375 z "
       id="path3656" />
    <path
       id="path3666"
       d="M 15.03125,17.3125 L 14.53125,17.75 L 20.90625,20.0625 L 20.875,19.4375 L 15.03125,17.3125 z "
       style="opacity:1;color:#000000;fill:url(#linearGradient3674);fill-opacity:1;fill-rule:evenodd;stroke:none;stroke-width:1px;stroke-linecap:butt;stroke-linejoin:miter;marker:none;marker-start:none;marker-mid:none;marker-end:none;stroke-miterlimit:4;stroke-dasharray:none;stroke-dashoffset:0;stroke-opacity:1;visibility:visible;display:inline;overflow:visible;enable-background:accumulate" />
    <path
       style="opacity:1;color:#000000;fill:url(#linearGradient3692);fill-opacity:1;fill-rule:evenodd;stroke:none;stroke-width:1px;stroke-linecap:butt;stroke-linejoin:miter;marker:none;marker-start:none;marker-mid:none;marker-end:none;stroke-miterlimit:4;stroke-dasharray:none;stroke-dashoffset:0;stroke-opacity:1;visibility:visible;display:inline;overflow:visible;enable-background:accumulate"
       d="M 14.53125,17.75 L 14.1875,18.03125 L 20.90625,20.5625 L 20.90625,20.0625 L 14.53125,17.75 z "
       id="path3684" />
    <path
       style="opacity:1;color:#000000;fill:url(#radialGradient3846);fill-opacity:1;fill-rule:evenodd;stroke:none;stroke-width:1px;stroke-linecap:butt;stroke-linejoin:miter;marker:none;marker-start:none;marker-mid:none;marker-end:none;stroke-miterlimit:4;stroke-dasharray:none;stroke-dashoffset:0;stroke-opacity:1;visibility:visible;display:inline;overflow:visible;enable-background:accumulate"
       d="M 14.1875,18.03125 C 14.1875,18.03125 14.312358,18.250203 14.5,18.53125 L 14.53125,18.5 C 15.064892,19.159492 15.375591,19.533554 16.0625,20.0625 C 16.225709,20.167512 16.375905,20.285825 16.5625,20.375 C 16.36823,20.192842 16.34375,20.03125 16.34375,20.03125 L 16.46875,19.6875 C 16.468751,19.6875 16.606967,19.614349 16.875,19.59375 C 16.964344,19.586884 17.070371,19.583496 17.1875,19.59375 C 17.343672,19.607422 17.514639,19.616574 17.71875,19.6875 C 18.51681,19.964817 18.59375,20.34375 18.59375,20.34375 L 18.5,20.71875 C 18.5,20.71875 18.445212,20.766231 18.34375,20.8125 C 18.647483,20.84874 18.931094,20.876295 19.1875,20.875 C 19.237673,20.873713 19.295437,20.87746 19.34375,20.875 C 19.533327,20.868274 19.718615,20.836557 19.875,20.8125 L 19.875,20.84375 C 20.520508,20.749023 20.90625,20.5625 20.90625,20.5625 L 14.1875,18.03125 z M 18.0625,20.46875 C 18.162469,20.569572 18.21875,20.65625 18.21875,20.65625 C 18.21875,20.65625 18.171169,20.580042 18.0625,20.46875 z M 18.21875,20.65625 L 18.15625,20.8125 C 18.166239,20.814028 18.177455,20.81106 18.1875,20.8125 L 18.21875,20.65625 z "
       id="path3696" />
    <path
       style="opacity:1;color:#000000;fill:url(#linearGradient3777);fill-opacity:1;fill-rule:evenodd;stroke:none;stroke-width:1px;stroke-linecap:butt;stroke-linejoin:miter;marker:none;marker-start:none;marker-mid:none;marker-end:none;stroke-miterlimit:4;stroke-dasharray:none;stroke-dashoffset:0;stroke-opacity:1;visibility:visible;display:inline;overflow:visible;enable-background:accumulate"
       d="M 14.526146,18.513819 L 14.28125,18.8125 C 14.28125,18.8125 14.578743,19.272779 14.96875,19.65625 C 15.358758,20.039721 15.8125,20.343751 15.8125,20.34375 L 16.071215,20.050174 C 15.384306,19.521229 15.059788,19.173311 14.526146,18.513819 z "
       id="path3720"
       sodipodi:nodetypes="ccsccc" />
    <path
       style="opacity:1;color:#000000;fill:url(#linearGradient3785);fill-opacity:1;fill-rule:evenodd;stroke:none;stroke-width:1px;stroke-linecap:butt;stroke-linejoin:miter;marker:none;marker-start:none;marker-mid:none;marker-end:none;stroke-miterlimit:4;stroke-dasharray:none;stroke-dashoffset:0;stroke-opacity:1;visibility:visible;display:inline;overflow:visible;enable-background:accumulate"
       d="M 14.375,18.96875 L 12.78125,20.875 C 12.78125,20.875002 12.960794,21.310707 13.28125,21.625 C 13.601706,21.939295 14.0625,22.125 14.0625,22.125 L 15.65625,20.25 C 15.505117,20.142264 15.253756,19.936479 14.96875,19.65625 C 14.683745,19.376021 14.481203,19.121416 14.375,18.96875 z "
       id="path3722"
       sodipodi:nodetypes="ccsccsc" />
    <path
       style="opacity:1;color:#000000;fill:url(#linearGradient3836);fill-opacity:1;fill-rule:evenodd;stroke:none;stroke-width:1px;stroke-linecap:butt;stroke-linejoin:miter;marker:none;marker-start:none;marker-mid:none;marker-end:none;stroke-miterlimit:4;stroke-dasharray:none;stroke-dashoffset:0;stroke-opacity:1;visibility:visible;display:inline;overflow:visible;enable-background:accumulate"
       d="M 12.90625,21.09375 L 12.6875,21.34375 C 12.6875,21.34375 12.809758,21.662222 13.0625,21.90625 C 13.315243,22.150277 13.6875,22.312499 13.6875,22.3125 L 13.90625,22.0625 C 13.755868,21.991851 13.514159,21.853431 13.28125,21.625 C 13.104999,21.452139 12.990822,21.247375 12.90625,21.09375 z "
       id="path3725" />
    <path
       style="opacity:0.5;color:#000000;fill:url(#linearGradient3809);fill-opacity:1;fill-rule:evenodd;stroke:none;stroke-width:1px;stroke-linecap:butt;stroke-linejoin:miter;marker:none;marker-start:none;marker-mid:none;marker-end:none;stroke-miterlimit:4;stroke-dasharray:none;stroke-dashoffset:0;stroke-opacity:1;visibility:visible;display:inline;overflow:visible;enable-background:accumulate"
       d="M 18.0625,21.1875 L 18.0625,22.40625 C 18.0625,22.40625 18.477157,22.53125 18.875,22.53125 C 19.272843,22.531252 19.65625,22.40625 19.65625,22.40625 L 19.65625,21.1875 C 19.217696,21.2441 18.698223,21.283507 18.0625,21.1875 z "
       id="path3732"
       sodipodi:nodetypes="ccsccc" />
    <path
       style="opacity:0.5;color:#000000;fill:url(#linearGradient3825);fill-opacity:1;fill-rule:evenodd;stroke:none;stroke-width:1px;stroke-linecap:butt;stroke-linejoin:miter;marker:none;marker-start:none;marker-mid:none;marker-end:none;stroke-miterlimit:4;stroke-dasharray:none;stroke-dashoffset:0;stroke-opacity:1;visibility:visible;display:inline;overflow:visible;enable-background:accumulate"
       d="M 18.3125,20.8125 C 18.263842,20.831113 18.240939,20.869103 18.15625,20.875 L 18.03125,21.1875 C 18.778004,21.30408 19.397448,21.265258 19.875,21.1875 L 19.875,20.8125 C 19.468774,20.874991 18.92581,20.885691 18.3125,20.8125 z "
       id="path3734" />
    <path
       style="opacity:0.25;color:#000000;fill:#ffffff;fill-opacity:1;fill-rule:evenodd;stroke:none;stroke-width:1px;stroke-linecap:butt;stroke-linejoin:miter;marker:none;marker-start:none;marker-mid:none;marker-end:none;stroke-miterlimit:4;stroke-dasharray:none;stroke-dashoffset:0;stroke-opacity:1;visibility:visible;display:inline;overflow:visible;enable-background:accumulate"
       d="M 16.125,22.625 C 15.959931,22.626715 15.84375,22.65625 15.84375,22.65625 C 15.84375,22.65625 15.915994,22.949051 16.53125,23.125 C 17.149868,23.301911 17.375001,23.125 17.375,23.125 C 17.375001,23.125 17.069582,22.810753 16.6875,22.6875 C 16.496459,22.625873 16.290069,22.623285 16.125,22.625 z "
       id="path3897" />
    <path
       id="path3736"
       d="M 16.40878,22.794414 C 16.340427,22.795113 16.2923,22.807358 16.2923,22.807358 C 16.2923,22.807358 16.322217,22.928604 16.577025,23.001484 C 16.833204,23.074743 16.926451,23.001484 16.92645,23.001484 C 16.926451,23.001484 16.799964,22.871339 16.641725,22.820298 C 16.562619,22.794778 16.477132,22.793698 16.40878,22.794414 z "
       style="opacity:1;color:#000000;fill:url(#radialGradient3844);fill-opacity:1;fill-rule:evenodd;stroke:none;stroke-width:1px;stroke-linecap:butt;stroke-linejoin:miter;marker:none;marker-start:none;marker-mid:none;marker-end:none;stroke-miterlimit:4;stroke-dasharray:none;stroke-dashoffset:0;stroke-opacity:1;visibility:visible;display:inline;overflow:visible;enable-background:accumulate" />
    <path
       id="path3740"
       d="M 17.1875,19.59375 C 16.718983,19.552734 16.468751,19.6875 16.46875,19.6875 L 16.34375,20.03125 C 16.34375,20.03125 16.987782,19.83159 17.655376,20.045323 C 18.337803,20.263805 18.5,20.71875 18.5,20.71875 L 18.59375,20.34375 C 18.59375,20.34375 18.529135,19.971417 17.731075,19.6941 C 17.526964,19.623173 17.343672,19.607422 17.1875,19.59375 z "
       style="opacity:1;color:#000000;fill:url(#linearGradient3793);fill-opacity:1;fill-rule:evenodd;stroke:none;stroke-width:1px;stroke-linecap:butt;stroke-linejoin:miter;marker:none;marker-start:none;marker-mid:none;marker-end:none;stroke-miterlimit:4;stroke-dasharray:none;stroke-dashoffset:0;stroke-opacity:1;visibility:visible;display:inline;overflow:visible;enable-background:accumulate"
       sodipodi:nodetypes="cccsccsc" />
    <path
       id="path3742"
       d="M 17.15625,19.9375 C 16.693475,19.903486 16.34375,20.03125 16.34375,20.03125 C 16.34375,20.03125 16.36823,20.192842 16.5625,20.375 L 16.625,20.125 C 16.625,20.125001 17.134841,19.993821 17.59375,20.15625 C 18.05788,20.320527 18.21875,20.65625 18.21875,20.65625 L 18.15625,20.875 C 18.455154,20.854188 18.5,20.71875 18.5,20.71875 C 18.5,20.71875 18.338677,20.249733 17.65625,20.03125 C 17.489351,19.977817 17.310508,19.948838 17.15625,19.9375 z "
       style="opacity:0.25;color:#000000;fill:#ffffff;fill-opacity:1;fill-rule:evenodd;stroke:none;stroke-width:1px;stroke-linecap:butt;stroke-linejoin:miter;marker:none;marker-start:none;marker-mid:none;marker-end:none;stroke-miterlimit:4;stroke-dasharray:none;stroke-dashoffset:0;stroke-opacity:1;visibility:visible;display:inline;overflow:visible;enable-background:accumulate" />
    <path
       sodipodi:nodetypes="cczcczc"
       id="path3766"
       d="M 15.850248,22.646845 L 16.639063,20.132497 C 16.639063,20.132497 17.125844,20.002302 17.584753,20.164731 C 18.048883,20.329007 18.216693,20.650157 18.216693,20.650157 L 17.378577,23.139854 C 17.378577,23.139854 17.083647,22.824866 16.701565,22.701613 C 16.319483,22.578361 15.850248,22.646845 15.850248,22.646845 z "
       style="opacity:1;color:#000000;fill:url(#linearGradient3828);fill-opacity:1;fill-rule:evenodd;stroke:none;stroke-width:1px;stroke-linecap:butt;stroke-linejoin:miter;marker:none;marker-start:none;marker-mid:none;marker-end:none;stroke-miterlimit:4;stroke-dasharray:none;stroke-dashoffset:0;stroke-opacity:1;visibility:visible;display:inline;overflow:visible;enable-background:accumulate" />
    <path
       style="opacity:0.25;color:#000000;fill:url(#linearGradient3966);fill-opacity:1;fill-rule:evenodd;stroke:none;stroke-width:1px;stroke-linecap:butt;stroke-linejoin:miter;marker:none;marker-start:none;marker-mid:none;marker-end:none;stroke-miterlimit:4;stroke-dasharray:none;stroke-dashoffset:0;stroke-opacity:1;visibility:visible;display:inline;overflow:visible;enable-background:accumulate"
       d="M 23.71875,26.25 L 21.65625,26.75 L 21.65625,30.375 L 23.71875,31.21875 L 23.71875,26.25 z "
       id="path3955"
       sodipodi:nodetypes="ccccc" />
    <path
       style="opacity:0.25;color:#000000;fill:url(#linearGradient3669);fill-opacity:1;fill-rule:evenodd;stroke:none;stroke-width:1px;stroke-linecap:butt;stroke-linejoin:miter;marker:none;marker-start:none;marker-mid:none;marker-end:none;stroke-miterlimit:4;stroke-dasharray:none;stroke-dashoffset:0;stroke-opacity:1;visibility:visible;display:inline;overflow:visible;enable-background:accumulate"
       d="M 29.15625,25.875 C 29.15625,25.875 29.094102,25.554098 29.15625,25.875 z M 25.28125,25.875 L 24.3125,26.125 L 24.3125,28.1875 L 26.125,27.65625 C 25.631134,27.341521 25.28125,26.749438 25.28125,26.03125 C 25.28125,25.977234 25.27745,25.927946 25.28125,25.875 z M 29.15625,26.78125 C 28.987129,27.611497 28.406026,28.25 27.6875,28.25 C 27.51331,28.25 27.346986,28.195518 27.1875,28.125 L 26.65625,27.90625 C 26.860061,28.167074 27.106551,28.377394 27.40625,28.46875 L 28.125,28.75 C 28.284486,28.820518 28.45081,28.875 28.625,28.875 C 28.813891,28.875 28.989882,28.828789 29.15625,28.75 L 29.15625,26.78125 z "
       id="path4016"
       sodipodi:nodetypes="ccccccsccsccccscc" />
    <path
       style="opacity:0.1;fill:url(#linearGradient5419);fill-opacity:1;fill-rule:nonzero;stroke:none;stroke-width:0.1;stroke-linecap:round;stroke-linejoin:round;stroke-miterlimit:4;stroke-dasharray:none;stroke-opacity:1"
       d="M 19.46875,9.09375 L 19.4375,9.125 C 20.512718,9.325356 21.386746,10.039686 21.84375,11 L 22.1875,10.5625 C 21.994598,10.326487 21.764982,10.093134 21.46875,9.875 C 20.714684,9.3197334 19.730688,9.1389434 19.46875,9.09375 z "
       id="path4040" />
    <path
       sodipodi:type="arc"
       style="opacity:0.25;fill:url(#linearGradient2323);fill-opacity:1.0;fill-rule:nonzero;stroke:none;stroke-width:0.1;stroke-linecap:round;stroke-linejoin:round;stroke-miterlimit:4;stroke-dasharray:none;stroke-opacity:1"
       id="path2634"
       sodipodi:cx="24.792931"
       sodipodi:cy="-46.521145"
       sodipodi:rx="1.259534"
       sodipodi:ry="1.8672038"
       d="M 26.052465 -46.521145 A 1.259534 1.8672038 0 1 1  23.533397,-46.521145 A 1.259534 1.8672038 0 1 1  26.052465 -46.521145 z"
       transform="matrix(1.0320853,0,0,0.8642473,2.08865,66.527498)" />
    <path
       style="opacity:0.5;fill:url(#linearGradient3655);fill-opacity:1.0;fill-rule:nonzero;stroke:none;stroke-width:0.1;stroke-linecap:round;stroke-linejoin:round;stroke-miterlimit:4;stroke-dasharray:none;stroke-opacity:1"
       d="M 26.875 24.125 C 26.748587 24.125 26.613898 24.148754 26.5 24.1875 C 26.386102 24.226246 26.292995 24.279985 26.1875 24.34375 L 26.34375 24.40625 L 26.34375 25.375 C 26.614868 24.798402 27.112262 24.40625 27.6875 24.40625 C 27.794026 24.40625 27.899529 24.411957 28 24.4375 L 27.28125 24.21875 C 27.151258 24.168968 27.019743 24.125 26.875 24.125 z M 26.21875 25.65625 L 25.28125 25.875 C 25.27745 25.927946 25.28125 25.977234 25.28125 26.03125 C 25.28125 26.911659 25.787765 27.636169 26.46875 27.84375 L 26.96875 28.03125 C 26.468127 27.713544 26.125 27.057921 26.125 26.3125 C 26.125 26.081731 26.157053 25.860445 26.21875 25.65625 z "
       id="path3640" />
    <rect
       style="opacity:0.61162792;fill:#555753;fill-opacity:1;fill-rule:nonzero;stroke:none;stroke-width:0.69999999;stroke-linecap:round;stroke-linejoin:miter;stroke-miterlimit:4;stroke-dasharray:none;stroke-opacity:1"
       id="rect1951"
       width="40.001965"
       height="10.004759"
       x="-0.0019644466"
       y="30" />
    <text
       xml:space="preserve"
       style="font-size:12px;font-style:normal;font-weight:normal;fill:#eeeeec;fill-opacity:1;stroke:none;stroke-width:1px;stroke-linecap:butt;stroke-linejoin:miter;stroke-opacity:1;font-family:Bitstream Vera Sans"
       x="11.653412"
       y="39.168152"
       id="text2840"><tspan
         sodipodi:role="line"
         id="tspan2842"
         x="11.653412"
         y="39.168152">Ge</tspan></text>
    <path
       style="opacity:0.25;fill:url(#linearGradient3720);fill-opacity:1;fill-rule:nonzero;stroke:none;stroke-width:0.1;stroke-linecap:round;stroke-linejoin:round;stroke-miterlimit:4;stroke-dasharray:none;stroke-opacity:1"
       d="M 24.84375 2.8125 L 19.46875 9.09375 C 19.730688 9.1389434 20.714684 9.3197334 21.46875 9.875 C 21.764982 10.093134 21.994598 10.326487 22.1875 10.5625 L 26.96875 4.6875 C 26.512728 3.826967 25.76021 3.167079 24.84375 2.8125 z "
       id="path3691" />
    <path
       style="opacity:0.75;fill:url(#linearGradient3704);fill-opacity:1;fill-rule:nonzero;stroke:none;stroke-width:0.1;stroke-linecap:round;stroke-linejoin:round;stroke-miterlimit:4;stroke-dasharray:none;stroke-opacity:1"
       d="M 26.40625,1 C 26.37421,1.004131 26.361216,1.011006 26.34375,1.03125 C 26.337928,1.037998 26.347857,1.05447 26.34375,1.0625 L 24.84375,2.8125 C 25.76021,3.167079 26.512728,3.826967 26.96875,4.6875 L 28.46875,2.84375 C 28.608475,2.681796 28.239285,2.15926 27.65625,1.65625 C 27.218974,1.278992 26.782504,1.033104 26.53125,1 C 26.489374,0.994483 26.43829,0.995869 26.40625,1 z "
       id="path3486" />
    <path
       style="opacity:0.5;fill:url(#linearGradient2320);fill-opacity:1;fill-rule:nonzero;stroke:none;stroke-width:0.1;stroke-linecap:round;stroke-linejoin:round;stroke-miterlimit:4;stroke-dasharray:none;stroke-opacity:1"
       d="M 26.375 24.625 L 26.375 25 L 26.34375 25.625 L 25.28125 25.875 C 25.27745 25.927946 25.28125 25.977234 25.28125 26.03125 C 25.28125 26.586076 25.493286 27.065608 25.8125 27.40625 L 26.59375 27.21875 C 26.453539 26.961184 26.375 26.646541 26.375 26.3125 C 26.375 25.706087 26.632535 25.181964 27.03125 24.90625 C 26.948348 24.831068 26.844485 24.746165 26.84375 24.75 L 26.375 24.625 z "
       id="path3706" />
    <path
       style="opacity:0.25;color:#000000;fill:#000000;fill-opacity:1;fill-rule:evenodd;stroke:none;stroke-width:1px;stroke-linecap:butt;stroke-linejoin:miter;marker:none;marker-start:none;marker-mid:none;marker-end:none;stroke-miterlimit:4;stroke-dasharray:none;stroke-dashoffset:0;stroke-opacity:1;visibility:visible;display:inline;overflow:visible;enable-background:accumulate"
       d="M 24.3125 26.09375 L 23.71875 26.25 L 23.71875 27.9375 L 24.3125 28.15625 L 24.3125 26.09375 z M 21.65625 26.75 L 21.0625 26.90625 L 21.0625 26.96875 L 21.65625 27.1875 L 21.65625 26.75 z "
       id="path3279" />
    <path
       style="opacity:0.75;fill:url(#linearGradient3380);fill-opacity:1.0;fill-rule:nonzero;stroke:none;stroke-width:0.1;stroke-linecap:round;stroke-linejoin:round;stroke-miterlimit:4;stroke-dasharray:none;stroke-opacity:1"
       d="M 24.1875,22.96875 C 24.181263,22.976799 24.165993,22.992352 24.15625,23 L 24.15625,23.5 C 24.162723,23.494307 24.18293,23.505898 24.1875,23.5 C 24.196853,23.487927 24.21875,23.481739 24.21875,23.46875 L 24.21875,22.96875 C 24.216627,22.972891 24.190618,22.964726 24.1875,22.96875 z M 23.28125,23 L 23.28125,23.5 C 23.288853,23.508469 23.300973,23.523594 23.3125,23.53125 L 23.3125,23 C 23.305778,22.995268 23.286523,23.005036 23.28125,23 z M 24.125,23 C 24.113207,23.007324 24.108598,23.024563 24.09375,23.03125 L 24.09375,23.53125 C 24.104343,23.526281 24.116047,23.536561 24.125,23.53125 L 24.125,23 z M 23.34375,23.03125 L 23.34375,23.53125 C 23.379251,23.548874 23.413383,23.55145 23.46875,23.5625 L 23.46875,23.0625 C 23.415577,23.051985 23.378848,23.047834 23.34375,23.03125 z M 24.0625,23.03125 C 24.0319,23.042695 24.007781,23.054227 23.96875,23.0625 L 23.96875,23.5625 C 24.001518,23.555496 24.035624,23.571793 24.0625,23.5625 L 24.0625,23.03125 z M 23.5,23.0625 L 23.5,23.59375 C 23.509294,23.595278 23.521552,23.592416 23.53125,23.59375 L 23.53125,23.0625 C 23.521297,23.06111 23.509523,23.064095 23.5,23.0625 z M 23.5625,23.0625 L 23.5625,23.59375 C 23.572583,23.594884 23.583303,23.592822 23.59375,23.59375 L 23.59375,23.09375 C 23.581885,23.092718 23.573898,23.063796 23.5625,23.0625 z M 23.875,23.0625 C 23.863989,23.063901 23.85515,23.092625 23.84375,23.09375 L 23.84375,23.59375 C 23.853791,23.592739 23.865263,23.594976 23.875,23.59375 L 23.875,23.0625 z M 23.90625,23.0625 L 23.90625,23.59375 C 23.915665,23.592319 23.928426,23.595376 23.9375,23.59375 L 23.9375,23.0625 C 23.928197,23.064196 23.915917,23.06101 23.90625,23.0625 z M 23.625,23.09375 L 23.625,23.59375 C 23.63795,23.59461 23.642835,23.624454 23.65625,23.625 L 23.65625,23.09375 C 23.644758,23.093268 23.63615,23.094463 23.625,23.09375 z M 23.6875,23.09375 L 23.6875,23.625 C 23.69898,23.62523 23.706989,23.625 23.71875,23.625 C 23.729858,23.625 23.739116,23.625257 23.75,23.625 L 23.75,23.09375 C 23.7388,23.094022 23.730188,23.09375 23.71875,23.09375 C 23.70664,23.09375 23.699312,23.093994 23.6875,23.09375 z M 23.78125,23.09375 L 23.78125,23.625 C 23.79402,23.624396 23.80011,23.594693 23.8125,23.59375 L 23.8125,23.09375 C 23.801837,23.094533 23.792192,23.093217 23.78125,23.09375 z "
       id="path2343" />
    <path
       style="opacity:0.5;fill:url(#linearGradient3389);fill-opacity:1.0;fill-rule:nonzero;stroke:none;stroke-width:0.1;stroke-linecap:round;stroke-linejoin:round;stroke-miterlimit:4;stroke-dasharray:none;stroke-opacity:1"
       d="M 24.21875 23.6875 L 23.25 23.8125 L 23.25 24.5 L 23.25 24.53125 C 23.288184 24.605764 23.47412 24.656252 23.71875 24.65625 C 23.94979 24.656251 24.134486 24.599663 24.1875 24.53125 C 24.196855 24.519178 24.21875 24.512989 24.21875 24.5 L 24.21875 23.6875 z "
       id="path3382" />
    <path
       style="opacity:0.5;fill:url(#linearGradient3403);fill-opacity:1.0;fill-rule:nonzero;stroke:none;stroke-width:0.1;stroke-linecap:round;stroke-linejoin:round;stroke-miterlimit:4;stroke-dasharray:none;stroke-opacity:1"
       d="M 20.03125 22.28125 L 19.65625 22.375 L 19.65625 22.40625 C 19.65625 22.40625 19.551832 22.4375 19.40625 22.46875 L 19.21875 22.5 L 19.1875 22.53125 L 19.1875 23 L 19.1875 23.03125 C 19.220673 23.095973 19.38126 23.125002 19.59375 23.125 C 19.79444 23.125 19.953956 23.090673 20 23.03125 C 20.008125 23.020765 20.03125 23.011285 20.03125 23 L 20.03125 22.28125 z "
       id="path3391" />
    <path
       style="opacity:0.75;fill:url(#linearGradient3454);fill-opacity:1.0;fill-rule:nonzero;stroke:none;stroke-width:0.1;stroke-linecap:round;stroke-linejoin:round;stroke-miterlimit:4;stroke-dasharray:none;stroke-opacity:1"
       d="M 19.96875,21.65625 C 19.953234,21.671207 19.9346,21.704305 19.90625,21.71875 L 19.90625,22.1875 C 19.949023,22.173293 19.983849,22.145844 20,22.125 L 20,21.65625 L 19.96875,21.65625 z M 19.78125,21.75 C 19.769756,21.752826 19.762084,21.778895 19.75,21.78125 L 19.75,22.21875 C 19.762084,22.217225 19.769756,22.189297 19.78125,22.1875 L 19.78125,21.75 z M 19.8125,21.75 L 19.8125,22.1875 C 19.831612,22.183941 19.858172,22.191885 19.875,22.1875 L 19.875,21.75 C 19.858172,21.756573 19.831612,21.744425 19.8125,21.75 z M 19.6875,21.78125 L 19.6875,22.21875 C 19.698832,22.217833 19.707774,22.219876 19.71875,22.21875 L 19.71875,21.78125 C 19.707774,21.782902 19.698832,21.780049 19.6875,21.78125 z "
       id="path3405" />
    <path
       style="opacity:0.35;color:#000000;fill:#000000;fill-opacity:1;fill-rule:evenodd;stroke:none;stroke-width:1px;stroke-linecap:butt;stroke-linejoin:miter;marker:none;marker-start:none;marker-mid:none;marker-end:none;stroke-miterlimit:4;stroke-dasharray:none;stroke-dashoffset:0;stroke-opacity:1;visibility:visible;display:inline;overflow:visible;enable-background:accumulate"
       d="M 21.21875 22.6875 L 20.5625 22.90625 L 20.03125 23 C 20.03125 23.011285 20.008125 23.020765 20 23.03125 C 19.953956 23.090673 19.79444 23.125 19.59375 23.125 C 19.499166 23.125001 19.411107 23.105841 19.34375 23.09375 C 19.335446 23.092259 19.320277 23.095434 19.3125 23.09375 L 18.5625 23.28125 L 18.46875 23.40625 L 18.03125 23.59375 L 20.25 23.46875 L 21.875 22.90625 L 21.21875 22.6875 z "
       id="path3456" />
    <path
       style="opacity:0.35;color:#000000;fill:#000000;fill-opacity:1;fill-rule:evenodd;stroke:none;stroke-width:1px;stroke-linecap:butt;stroke-linejoin:miter;marker:none;marker-start:none;marker-mid:none;marker-end:none;stroke-miterlimit:4;stroke-dasharray:none;stroke-dashoffset:0;stroke-opacity:1;visibility:visible;display:inline;overflow:visible;enable-background:accumulate"
       d="M 25.1875 24.03125 L 24.21875 24.15625 L 24.21875 24.5 C 24.21875 24.512989 24.196855 24.519178 24.1875 24.53125 C 24.134486 24.599663 23.94979 24.656251 23.71875 24.65625 C 23.47412 24.656252 23.288184 24.605764 23.25 24.53125 L 23.25 24.5 L 23.25 24.28125 L 22.125 24.4375 L 21.84375 24.65625 L 22.9375 24.8125 L 26.28125 24.375 L 25.1875 24.03125 z "
       id="path3458" />
    <path
       id="path6390"
       d="M 19.46875,9.09375 L 19.4375,9.125 C 20.512718,9.325356 21.386746,10.039686 21.84375,11 L 22.1875,10.5625 C 21.994598,10.326487 21.764982,10.093134 21.46875,9.875 C 20.714684,9.3197334 19.730688,9.1389434 19.46875,9.09375 z "
       style="opacity:0.5;fill:url(#linearGradient6392);fill-opacity:1.0;fill-rule:nonzero;stroke:none;stroke-width:0.1;stroke-linecap:round;stroke-linejoin:round;stroke-miterlimit:4;stroke-dasharray:none;stroke-opacity:1" />
    <path
       style="opacity:0.35;fill:url(#linearGradient7399);fill-opacity:1.0;fill-rule:nonzero;stroke:none;stroke-width:0.1;stroke-linecap:round;stroke-linejoin:round;stroke-miterlimit:4;stroke-dasharray:none;stroke-opacity:1"
       d="M 15.5,12.53125 C 15.5,12.534668 15.5,12.625184 15.5,12.6875 C 15.5,12.801273 15.774268,12.887618 16.15625,12.96875 C 16.15625,12.96875 16.424757,12.952139 16.59375,13.59375 C 16.764102,14.240523 16.59375,17.125 16.59375,17.125 C 16.59375,17.125 16.671875,17.442961 16.75,17.442961 C 16.828125,17.442961 16.90625,17.125 16.90625,17.125 C 16.90625,17.125 16.808975,14.277433 16.90625,13.71875 C 17.002882,13.163759 17.53125,13.15625 17.53125,13.15625 C 17.936398,13.183103 18.361371,13.21875 18.84375,13.21875 C 20.555529,13.21875 21.978042,13.012828 22.1875,12.75 C 22.188358,12.718743 22.1875,12.687713 22.1875,12.65625 C 22.1875,12.635275 22.187883,12.614635 22.1875,12.59375 C 21.978042,12.856578 20.555529,13.0625 18.84375,13.0625 C 16.989323,13.062501 15.5,12.825996 15.5,12.53125 z M 15.4375,12.65625 C 15.4375,12.8148 15.478792,12.972257 15.5,13.125 C 15.5,13.097035 15.5,13.03808 15.5,12.96875 C 15.485725,12.865939 15.451794,12.76216 15.4375,12.65625 z "
       id="path7375"
       sodipodi:nodetypes="csczczczcsssssccssc" />
  </g>
</svg>
