<?xml version="1.0" encoding="UTF-8" standalone="no"?>
<!-- Created with Inkscape (http://www.inkscape.org/) -->
<svg
   xmlns:dc="http://purl.org/dc/elements/1.1/"
   xmlns:cc="http://web.resource.org/cc/"
   xmlns:rdf="http://www.w3.org/1999/02/22-rdf-syntax-ns#"
   xmlns:svg="http://www.w3.org/2000/svg"
   xmlns="http://www.w3.org/2000/svg"
   xmlns:xlink="http://www.w3.org/1999/xlink"
   xmlns:sodipodi="http://sodipodi.sourceforge.net/DTD/sodipodi-0.dtd"
   xmlns:inkscape="http://www.inkscape.org/namespaces/inkscape"
   width="40"
   height="40"
   id="svg2193"
   sodipodi:version="0.32"
   inkscape:version="0.45.1"
   version="1.0"
   sodipodi:docbase="/home/jra/Desktop"
   sodipodi:docname="arsen-edited.svg"
   inkscape:output_extension="org.inkscape.output.svg.inkscape">
  <defs
     id="defs2195">
    <linearGradient
       inkscape:collect="always"
       id="linearGradient3239">
      <stop
         style="stop-color:#eeeeec;stop-opacity:1;"
         offset="0"
         id="stop3241" />
      <stop
         style="stop-color:#eeeeec;stop-opacity:0;"
         offset="1"
         id="stop3243" />
    </linearGradient>
    <linearGradient
       id="linearGradient3291">
      <stop
         id="stop3293"
         offset="0"
         style="stop-color:#000000;stop-opacity:1;" />
      <stop
         id="stop3295"
         offset="1"
         style="stop-color:#000000;stop-opacity:0;" />
    </linearGradient>
    <radialGradient
       inkscape:collect="always"
       xlink:href="#linearGradient3291"
       id="radialGradient2595"
       gradientUnits="userSpaceOnUse"
       gradientTransform="matrix(1,0,0,0.197802,0,92.82166)"
       cx="63.912209"
       cy="115.70919"
       fx="75.857941"
       fy="115.70919"
       r="63.912209" />
    <linearGradient
       id="linearGradient2724">
      <stop
         style="stop-color:#000000;stop-opacity:1"
         offset="0"
         id="stop2726" />
      <stop
         style="stop-color:#c2c2c2;stop-opacity:1;"
         offset="1"
         id="stop2728" />
    </linearGradient>
    <linearGradient
       id="linearGradient3283">
      <stop
         id="stop3285"
         offset="0"
         style="stop-color:#989898;stop-opacity:1;" />
      <stop
         style="stop-color:#c1c3c0;stop-opacity:1;"
         offset="0.5"
         id="stop3337" />
      <stop
         id="stop3287"
         offset="1"
         style="stop-color:#171717;stop-opacity:1;" />
    </linearGradient>
    <linearGradient
       inkscape:collect="always"
       xlink:href="#linearGradient2724"
       id="linearGradient3282"
       x1="27.01494"
       y1="11.6875"
       x2="28.738247"
       y2="17.455727"
       gradientUnits="userSpaceOnUse"
       gradientTransform="matrix(0.9459441,0,0,0.9459441,1.1402076,4.5781022)" />
    <linearGradient
       inkscape:collect="always"
       xlink:href="#linearGradient3283"
       id="linearGradient3286"
       x1="26.945646"
       y1="22.258287"
       x2="24.086653"
       y2="12.475383"
       gradientUnits="userSpaceOnUse"
       gradientTransform="matrix(0.9459441,0,0,0.9459441,1.1402076,4.5781022)" />
    <linearGradient
       inkscape:collect="always"
       xlink:href="#linearGradient2724"
       id="linearGradient3294"
       x1="25.761614"
       y1="13.425343"
       x2="26.271511"
       y2="15.201391"
       gradientUnits="userSpaceOnUse"
       gradientTransform="matrix(0.9459441,0,0,0.9459441,1.1402076,4.5781022)" />
    <linearGradient
       inkscape:collect="always"
       xlink:href="#linearGradient3283"
       id="linearGradient3296"
       x1="1.4591502"
       y1="14.6875"
       x2="4.008389"
       y2="14.387154"
       gradientUnits="userSpaceOnUse"
       gradientTransform="matrix(0.9459441,0,0,0.9459441,1.1402076,4.5781022)" />
    <linearGradient
       inkscape:collect="always"
       xlink:href="#linearGradient2724"
       id="linearGradient3299"
       x1="3.6880784"
       y1="11.129999"
       x2="3.6880784"
       y2="17.721243"
       gradientUnits="userSpaceOnUse"
       gradientTransform="matrix(0.9459441,0,0,0.9459441,1.1402076,4.5781022)" />
    <linearGradient
       inkscape:collect="always"
       xlink:href="#linearGradient2724"
       id="linearGradient3301"
       x1="3.880856"
       y1="12.124646"
       x2="2.90625"
       y2="11.514161"
       gradientUnits="userSpaceOnUse"
       gradientTransform="matrix(0.9459441,0,0,0.9459441,1.1402076,4.5781022)" />
    <linearGradient
       inkscape:collect="always"
       xlink:href="#linearGradient3239"
       id="linearGradient3309"
       x1="7.4190779"
       y1="14.167091"
       x2="39.592152"
       y2="6.0625"
       gradientUnits="userSpaceOnUse"
       gradientTransform="matrix(0.9459441,0,0,0.9459441,1.1402076,4.5781022)" />
    <linearGradient
       inkscape:collect="always"
       xlink:href="#linearGradient3239"
       id="linearGradient3317"
       x1="8.765625"
       y1="12.882219"
       x2="7.7156215"
       y2="15.428817"
       gradientUnits="userSpaceOnUse"
       gradientTransform="matrix(0.9459441,0,0,0.9459441,1.1402076,4.5781022)" />
    <linearGradient
       inkscape:collect="always"
       xlink:href="#linearGradient3239"
       id="linearGradient3326"
       x1="8.765625"
       y1="14.749415"
       x2="7.732903"
       y2="17.216148"
       gradientUnits="userSpaceOnUse"
       gradientTransform="matrix(0.9459441,0,0,0.9459441,1.1402076,4.5781022)" />
    <linearGradient
       inkscape:collect="always"
       xlink:href="#linearGradient3239"
       id="linearGradient3335"
       x1="26.03125"
       y1="12.020242"
       x2="27.358467"
       y2="16.657701"
       gradientUnits="userSpaceOnUse"
       gradientTransform="matrix(0.9459441,0,0,0.9459441,1.1402076,4.5781022)" />
    <linearGradient
       inkscape:collect="always"
       xlink:href="#linearGradient3239"
       id="linearGradient3337"
       x1="24.901371"
       y1="11.744496"
       x2="25.636572"
       y2="14.309899"
       gradientUnits="userSpaceOnUse"
       gradientTransform="matrix(0.9459441,0,0,0.9459441,1.1402076,4.5781022)" />
  </defs>
  <sodipodi:namedview
     id="base"
     pagecolor="#ffffff"
     bordercolor="#666666"
     borderopacity="1.0"
     inkscape:pageopacity="0.0"
     inkscape:pageshadow="2"
     inkscape:zoom="14.125824"
     inkscape:cx="18.325054"
     inkscape:cy="17.515449"
     inkscape:current-layer="layer1"
     showgrid="false"
     inkscape:grid-bbox="false"
     inkscape:document-units="px"
     width="40px"
     height="40px"
     gridempspacing="2"
     inkscape:window-width="1167"
     inkscape:window-height="914"
     inkscape:window-x="56"
     inkscape:window-y="64" />
  <metadata
     id="metadata2198">
    <rdf:RDF>
      <cc:Work
         rdf:about="">
        <dc:format>image/svg+xml</dc:format>
        <dc:type
           rdf:resource="http://purl.org/dc/dcmitype/StillImage" />
        <dc:creator>
          <cc:Agent>
            <dc:title>Jarle Akselsen</dc:title>
          </cc:Agent>
        </dc:creator>
        <cc:license
           rdf:resource="http://creativecommons.org/licenses/GPL/2.0/" />
      </cc:Work>
      <cc:License
         rdf:about="http://creativecommons.org/licenses/GPL/2.0/">
        <cc:permits
           rdf:resource="http://web.resource.org/cc/Reproduction" />
        <cc:permits
           rdf:resource="http://web.resource.org/cc/Distribution" />
        <cc:requires
           rdf:resource="http://web.resource.org/cc/Notice" />
        <cc:permits
           rdf:resource="http://web.resource.org/cc/DerivativeWorks" />
        <cc:requires
           rdf:resource="http://web.resource.org/cc/ShareAlike" />
        <cc:requires
           rdf:resource="http://web.resource.org/cc/SourceCode" />
      </cc:License>
    </rdf:RDF>
  </metadata>
  <g
     id="layer1"
     inkscape:label="Layer 1"
     inkscape:groupmode="layer">
    <path
       transform="matrix(0.2537502,-6.0773622e-2,0.2003681,0.5541106,-17.226133,-42.378805)"
       d="M 127.82442 115.70919 A 63.912209 12.641975 0 1 1  0,115.70919 A 63.912209 12.641975 0 1 1  127.82442 115.70919 z"
       sodipodi:ry="12.641975"
       sodipodi:rx="63.912209"
       sodipodi:cy="115.70919"
       sodipodi:cx="63.912209"
       id="path2593"
       style="opacity:0.38139535;fill:url(#radialGradient2595);fill-opacity:1;fill-rule:nonzero;stroke:none;stroke-width:0;stroke-linecap:round;stroke-linejoin:round;stroke-miterlimit:4;stroke-dasharray:none;stroke-dashoffset:4;stroke-opacity:1"
       sodipodi:type="arc" />
    <path
       id="path2544"
       d="M 5.4498721,15.337437 L 3.807975,15.827552 L 3.807975,17.812536 L 4.0530337,17.739013 L 4.2000705,17.837039 L 4.2000705,21.218867 L 4.3716116,21.341391 L 4.8862364,21.169848 L 5.0577784,20.900279 L 5.0577784,17.56747 L 5.2048133,17.371423 L 5.4498721,17.297909 L 5.4498721,15.337437 z "
       style="opacity:1;color:#000000;fill:url(#linearGradient3299);fill-opacity:1;fill-rule:evenodd;stroke:none;stroke-width:1px;stroke-linecap:butt;stroke-linejoin:miter;marker:none;marker-start:none;marker-mid:none;marker-end:none;stroke-miterlimit:4;stroke-dasharray:none;stroke-dashoffset:0;stroke-opacity:1;visibility:visible;display:inline;overflow:visible;enable-background:accumulate" />
    <path
       sodipodi:nodetypes="ccccccc"
       id="path2203"
       d="M 25.439146,10.312887 L 4.1554043,14.92435 L 4.1554043,18.442079 L 14.708593,23.349164 L 36.820035,16.550191 L 36.820035,13.239391 L 25.439146,10.312887 z "
       style="opacity:1;color:#000000;fill:#000000;fill-opacity:1;fill-rule:evenodd;stroke:none;stroke-width:1px;stroke-linecap:butt;stroke-linejoin:miter;marker:none;marker-start:none;marker-mid:none;marker-end:none;stroke-miterlimit:4;stroke-dasharray:none;stroke-dashoffset:0;stroke-opacity:1;visibility:visible;display:inline;overflow:visible;enable-background:accumulate" />
    <path
       style="opacity:1;color:#000000;fill:url(#linearGradient3296);fill-opacity:1;fill-rule:evenodd;stroke:none;stroke-width:1px;stroke-linecap:butt;stroke-linejoin:miter;marker:none;marker-start:none;marker-mid:none;marker-end:none;stroke-miterlimit:4;stroke-dasharray:none;stroke-dashoffset:0;stroke-opacity:1;visibility:visible;display:inline;overflow:visible;enable-background:accumulate"
       d="M 3.59375,15.72249 L 3.59375,15.752051 L 3.59375,15.929416 L 3.59375,17.732621 L 3.8006753,17.821304 L 3.8006753,16.018098 L 4.1554043,16.165902 L 4.1554043,15.958976 L 3.59375,15.72249 z M 4.066722,17.732621 L 4.0076005,17.762182 L 4.0076005,21.132108 L 4.2145258,21.22079 L 4.2145258,17.850864 L 4.066722,17.732621 z "
       id="path2546" />
    <path
       sodipodi:nodetypes="ccccc"
       style="opacity:0.1;color:#000000;fill:#ffffff;fill-opacity:1;fill-rule:evenodd;stroke:none;stroke-width:1px;stroke-linecap:butt;stroke-linejoin:miter;marker:none;marker-start:none;marker-mid:none;marker-end:none;stroke-miterlimit:4;stroke-dasharray:none;stroke-dashoffset:0;stroke-opacity:1;visibility:visible;display:inline;overflow:visible;enable-background:accumulate"
       d="M 36.820035,13.239391 L 14.708593,19.269781 L 14.708593,23.349164 L 36.820035,16.550191 L 36.820035,13.239391 z "
       id="path3339" />
    <path
       style="opacity:0.25;color:#000000;fill:url(#linearGradient3335);fill-opacity:1;fill-rule:evenodd;stroke:none;stroke-width:1px;stroke-linecap:butt;stroke-linejoin:miter;marker:none;marker-start:none;marker-mid:none;marker-end:none;stroke-miterlimit:4;stroke-dasharray:none;stroke-dashoffset:0;stroke-opacity:1;visibility:visible;display:inline;overflow:visible;enable-background:accumulate"
       d="M 36.820035,14.894789 L 14.708593,21.309472 L 14.708593,23.349164 L 36.820035,16.550191 L 36.820035,14.894789 z "
       id="path3330" />
    <path
       sodipodi:nodetypes="ccc"
       id="path2276"
       d="M 10.956528,1.0198748 L 10.956528,-1.7748336 L 10.956528,1.0198748 z "
       style="fill:#ffffff;fill-opacity:0.75688076;fill-rule:nonzero;stroke:none;stroke-width:0.5;stroke-linecap:round;stroke-linejoin:round;stroke-miterlimit:4;stroke-dasharray:none;stroke-dashoffset:4;stroke-opacity:1" />
    <rect
       style="opacity:0.61162792;fill:#555753;fill-opacity:1;fill-rule:nonzero;stroke:none;stroke-width:0.69999999;stroke-linecap:round;stroke-linejoin:miter;stroke-miterlimit:4;stroke-dasharray:none;stroke-opacity:1"
       id="rect1951"
       width="40.001965"
       height="10.004759"
       x="-0.0019644466"
       y="30" />
    <text
       xml:space="preserve"
       style="font-size:12px;font-style:normal;font-weight:normal;fill:#eeeeec;fill-opacity:1;stroke:none;stroke-width:1px;stroke-linecap:butt;stroke-linejoin:miter;stroke-opacity:1;font-family:Bitstream Vera Sans"
       x="13.055372"
       y="39.168152"
       id="text2840"><tspan
         sodipodi:role="line"
         id="tspan2842"
         x="13.055372"
         y="39.168152">As</tspan></text>
    <path
       style="opacity:0.25;color:#000000;fill:url(#linearGradient3309);fill-opacity:1;fill-rule:evenodd;stroke:none;stroke-width:1px;stroke-linecap:butt;stroke-linejoin:miter;marker:none;marker-start:none;marker-mid:none;marker-end:none;stroke-miterlimit:4;stroke-dasharray:none;stroke-dashoffset:0;stroke-opacity:1;visibility:visible;display:inline;overflow:visible;enable-background:accumulate"
       d="M 25.439146,10.312887 L 4.1554043,14.92435 L 14.708593,19.269781 L 36.820035,13.239391 L 25.439146,10.312887 z "
       id="path2292" />
    <path
       style="opacity:0.25;color:#000000;fill:url(#linearGradient3326);fill-opacity:1;fill-rule:evenodd;stroke:none;stroke-width:1px;stroke-linecap:butt;stroke-linejoin:miter;marker:none;marker-start:none;marker-mid:none;marker-end:none;stroke-miterlimit:4;stroke-dasharray:none;stroke-dashoffset:0;stroke-opacity:1;visibility:visible;display:inline;overflow:visible;enable-background:accumulate"
       d="M 4.1554043,16.697995 L 4.1554043,18.442079 L 14.708593,23.349164 L 14.708593,21.309472 L 4.1554043,16.697995 z "
       id="path2331" />
    <path
       id="path2338"
       d="M 14.708593,19.269781 L 4.1554043,14.92435 L 4.1554043,18.442079 L 14.708593,23.349164 L 14.708593,19.269781 z "
       style="opacity:0.2;color:#000000;fill:#ffffff;fill-opacity:1;fill-rule:evenodd;stroke:none;stroke-width:1px;stroke-linecap:butt;stroke-linejoin:miter;marker:none;marker-start:none;marker-mid:none;marker-end:none;stroke-miterlimit:4;stroke-dasharray:none;stroke-dashoffset:0;stroke-opacity:1;visibility:visible;display:inline;overflow:visible;enable-background:accumulate"
       sodipodi:nodetypes="ccccc" />
    <path
       sodipodi:nodetypes="ccccc"
       style="opacity:0.25;color:#000000;fill:url(#linearGradient3317);fill-opacity:1;fill-rule:evenodd;stroke:none;stroke-width:1px;stroke-linecap:butt;stroke-linejoin:miter;marker:none;marker-start:none;marker-mid:none;marker-end:none;stroke-miterlimit:4;stroke-dasharray:none;stroke-dashoffset:0;stroke-opacity:1;visibility:visible;display:inline;overflow:visible;enable-background:accumulate"
       d="M 14.708593,19.269781 L 4.1554043,14.92435 L 4.1554043,16.683215 L 14.708593,21.309472 L 14.708593,19.269781 z "
       id="path2340" />
    <path
       sodipodi:nodetypes="ccccc"
       style="opacity:0.25;color:#000000;fill:url(#linearGradient3337);fill-opacity:1;fill-rule:evenodd;stroke:none;stroke-width:1px;stroke-linecap:butt;stroke-linejoin:miter;marker:none;marker-start:none;marker-mid:none;marker-end:none;stroke-miterlimit:4;stroke-dasharray:none;stroke-dashoffset:0;stroke-opacity:1;visibility:visible;display:inline;overflow:visible;enable-background:accumulate"
       d="M 36.820035,13.239391 L 14.708593,19.269781 L 14.708593,21.309472 L 36.820035,14.894789 L 36.820035,13.239391 z "
       id="path2342" />
    <path
       style="opacity:1;color:#000000;fill:url(#linearGradient3294);fill-opacity:1;fill-rule:evenodd;stroke:none;stroke-width:1px;stroke-linecap:butt;stroke-linejoin:miter;marker:none;marker-start:none;marker-mid:none;marker-end:none;stroke-miterlimit:4;stroke-dasharray:none;stroke-dashoffset:0;stroke-opacity:1;visibility:visible;display:inline;overflow:visible;enable-background:accumulate"
       d="M 35.696727,15.219958 L 34.041324,15.69293 L 35.489801,16.136341 L 37.145203,15.633808 L 35.696727,15.219958 z M 31.617343,16.402388 L 29.636772,16.964042 L 31.11481,17.437014 L 33.06582,16.845799 L 31.617343,16.402388 z M 27.064987,17.732621 L 24.936613,18.353397 L 26.38509,18.85593 L 28.513464,18.205593 L 27.064987,17.732621 z M 22.394388,19.092416 L 20.266014,19.713192 L 21.68493,20.245285 L 23.813304,19.62451 L 22.394388,19.092416 z M 17.782911,20.42265 L 15.802341,20.984304 L 17.221257,21.575519 L 19.201827,20.984304 L 17.782911,20.42265 z "
       id="path2518"
       sodipodi:nodetypes="ccccccccccccccccccccccccc" />
    <path
       style="opacity:0.52427183;color:#000000;fill:#006e29;fill-opacity:1;fill-rule:evenodd;stroke:none;stroke-width:1px;stroke-linecap:butt;stroke-linejoin:miter;marker:none;marker-start:none;marker-mid:none;marker-end:none;stroke-miterlimit:4;stroke-dasharray:none;stroke-dashoffset:0;stroke-opacity:1;visibility:visible;display:inline;overflow:visible;enable-background:accumulate"
       d="M 37.145203,15.633808 L 35.489801,16.136341 L 35.489801,18.146472 L 35.696727,18.08735 L 35.874091,18.176033 L 35.874091,21.575519 L 36.021895,21.723323 L 36.61311,21.516398 L 36.760914,21.279912 L 36.760914,17.880425 L 36.938278,17.6735 L 37.145203,17.614378 L 37.145203,15.633808 z M 33.06582,16.845799 L 31.11481,17.437014 L 31.11481,19.535827 L 31.410418,19.447145 L 31.587782,19.535827 L 31.587782,23.112678 L 31.765147,23.260482 L 32.415483,23.023996 L 32.592848,22.757949 L 32.592848,19.210659 L 32.770212,19.003734 L 33.06582,18.915052 L 33.06582,16.845799 z M 28.513464,18.205593 L 26.38509,18.85593 L 26.38509,21.043426 L 26.680697,20.954743 L 26.887622,21.043426 L 26.887622,24.797641 L 27.094548,24.945445 L 27.804006,24.679398 L 28.010931,24.383791 L 28.010931,20.688697 L 28.217856,20.452211 L 28.513464,20.363528 L 28.513464,18.205593 z M 23.813304,19.62451 L 21.68493,20.245285 L 21.68493,22.551024 L 21.980538,22.462342 L 22.187463,22.580585 L 22.187463,26.482604 L 22.394388,26.630408 L 23.103846,26.364361 L 23.310771,26.068753 L 23.310771,22.196295 L 23.517697,21.959809 L 23.813304,21.871127 L 23.813304,19.62451 z M 19.201827,20.984304 L 17.221257,21.575519 L 17.221257,23.96994 L 17.516864,23.881258 L 17.694229,23.999501 L 17.694229,28.078885 L 17.901154,28.226688 L 18.52193,28.019763 L 18.728855,27.694595 L 18.728855,23.674333 L 18.906219,23.437847 L 19.201827,23.349164 L 19.201827,20.984304 z "
       id="path2384"
       sodipodi:nodetypes="ccccccccccccccccccccccccccccccccccccccccccccccccccccccccccccccccc" />
    <path
       style="opacity:1;color:#000000;fill:url(#linearGradient3286);fill-opacity:1;fill-rule:evenodd;stroke:none;stroke-width:1px;stroke-linecap:butt;stroke-linejoin:miter;marker:none;marker-start:none;marker-mid:none;marker-end:none;stroke-miterlimit:4;stroke-dasharray:none;stroke-dashoffset:0;stroke-opacity:1;visibility:visible;display:inline;overflow:visible;enable-background:accumulate"
       d="M 34.041324,15.69293 L 34.041324,15.929416 L 35.253315,16.313705 L 35.253315,18.05779 L 35.489801,18.146472 L 35.489801,16.136341 L 34.041324,15.69293 z M 29.636772,16.964042 L 29.636772,17.200528 L 30.878324,17.584818 L 30.878324,19.447145 L 31.11481,19.535827 L 31.11481,17.437014 L 29.636772,16.964042 z M 35.696727,18.08735 L 35.637605,18.116911 L 35.637605,21.486837 L 35.874091,21.575519 L 35.874091,18.176033 L 35.696727,18.08735 z M 24.936613,18.353397 L 24.936613,18.589883 L 26.148604,19.003734 L 26.148604,20.954743 L 26.38509,21.043426 L 26.38509,18.85593 L 24.936613,18.353397 z M 31.410418,19.447145 L 31.351296,19.476706 L 31.351296,23.023996 L 31.587782,23.112678 L 31.587782,19.535827 L 31.410418,19.447145 z M 20.266014,19.713192 L 20.266014,19.949678 L 21.448444,20.393089 L 21.448444,22.462342 L 21.68493,22.551024 L 21.68493,20.245285 L 20.266014,19.713192 z M 26.651136,20.954743 L 26.651136,24.708959 L 26.887622,24.797641 L 26.887622,21.043426 L 26.680697,20.954743 L 26.651136,20.954743 z M 15.802341,20.984304 L 15.802341,21.22079 L 16.984771,21.723323 L 16.984771,23.881258 L 17.221257,23.96994 L 17.221257,21.575519 L 15.802341,20.984304 z M 21.980538,22.462342 L 21.950977,22.491903 L 21.950977,26.393922 L 22.187463,26.482604 L 22.187463,22.580585 L 21.980538,22.462342 z M 17.516864,23.881258 L 17.457743,23.910819 L 17.457743,27.990202 L 17.694229,28.078885 L 17.694229,23.999501 L 17.516864,23.881258 z "
       id="path2401" />
    <path
       style="opacity:0.52427183;color:#000000;fill:#00438a;fill-opacity:1;fill-rule:evenodd;stroke:none;stroke-width:1px;stroke-linecap:butt;stroke-linejoin:miter;marker:none;marker-start:none;marker-mid:none;marker-end:none;stroke-miterlimit:4;stroke-dasharray:none;stroke-dashoffset:0;stroke-opacity:1;visibility:visible;display:inline;overflow:visible;enable-background:accumulate"
       d="M 35.637605,21.486837 L 35.785409,21.634641 L 36.021895,21.723323 L 35.874091,21.575519 L 35.637605,21.486837 z M 31.351296,23.023996 L 31.528661,23.1718 L 31.765147,23.260482 L 31.587782,23.112678 L 31.351296,23.023996 z M 26.651136,24.708959 L 26.858062,24.856763 L 27.094548,24.945445 L 26.887622,24.797641 L 26.651136,24.708959 z M 21.950977,26.393922 L 22.157902,26.541726 L 22.394388,26.630408 L 22.187463,26.482604 L 21.950977,26.393922 z M 17.457743,27.990202 L 17.664668,28.138006 L 17.901154,28.226688 L 17.694229,28.078885 L 17.457743,27.990202 z "
       id="path2417"
       sodipodi:nodetypes="ccccccccccccccccccccccccc" />
    <path
       sodipodi:nodetypes="ccccccccccccccccccccccccccccccccccccccccccccccccccccccccccccccccc"
       id="path2429"
       d="M 37.145203,15.633808 L 35.489801,16.136341 L 35.489801,18.146472 L 35.696727,18.08735 L 35.874091,18.176033 L 35.874091,21.575519 L 36.021895,21.723323 L 36.61311,21.516398 L 36.760914,21.279912 L 36.760914,17.880425 L 36.938278,17.6735 L 37.145203,17.614378 L 37.145203,15.633808 z M 33.06582,16.845799 L 31.11481,17.437014 L 31.11481,19.535827 L 31.410418,19.447145 L 31.587782,19.535827 L 31.587782,23.112678 L 31.765147,23.260482 L 32.415483,23.023996 L 32.592848,22.757949 L 32.592848,19.210659 L 32.770212,19.003734 L 33.06582,18.915052 L 33.06582,16.845799 z M 28.513464,18.205593 L 26.38509,18.85593 L 26.38509,21.043426 L 26.680697,20.954743 L 26.887622,21.043426 L 26.887622,24.797641 L 27.094548,24.945445 L 27.804006,24.679398 L 28.010931,24.383791 L 28.010931,20.688697 L 28.217856,20.452211 L 28.513464,20.363528 L 28.513464,18.205593 z M 23.813304,19.62451 L 21.68493,20.245285 L 21.68493,22.551024 L 21.980538,22.462342 L 22.187463,22.580585 L 22.187463,26.482604 L 22.394388,26.630408 L 23.103846,26.364361 L 23.310771,26.068753 L 23.310771,22.196295 L 23.517697,21.959809 L 23.813304,21.871127 L 23.813304,19.62451 z M 19.201827,20.984304 L 17.221257,21.575519 L 17.221257,23.96994 L 17.516864,23.881258 L 17.694229,23.999501 L 17.694229,28.078885 L 17.901154,28.226688 L 18.52193,28.019763 L 18.728855,27.694595 L 18.728855,23.674333 L 18.906219,23.437847 L 19.201827,23.349164 L 19.201827,20.984304 z "
       style="opacity:1;color:#000000;fill:url(#linearGradient3282);fill-opacity:1;fill-rule:evenodd;stroke:none;stroke-width:1px;stroke-linecap:butt;stroke-linejoin:miter;marker:none;marker-start:none;marker-mid:none;marker-end:none;stroke-miterlimit:4;stroke-dasharray:none;stroke-dashoffset:0;stroke-opacity:1;visibility:visible;display:inline;overflow:visible;enable-background:accumulate" />
    <path
       style="opacity:1;color:#000000;fill:url(#linearGradient3301);fill-opacity:1;fill-rule:evenodd;stroke:none;stroke-width:1px;stroke-linecap:butt;stroke-linejoin:miter;marker:none;marker-start:none;marker-mid:none;marker-end:none;stroke-miterlimit:4;stroke-dasharray:none;stroke-dashoffset:0;stroke-opacity:1;visibility:visible;display:inline;overflow:visible;enable-background:accumulate"
       d="M 4.1554043,15.574687 L 3.6233108,15.72249 L 4.1554043,15.958976 L 4.1554043,15.574687 z "
       id="path2514" />
  </g>
</svg>
