<?xml version="1.0" encoding="UTF-8" standalone="no"?>
<!-- Created with Inkscape (http://www.inkscape.org/) -->
<svg
   xmlns:dc="http://purl.org/dc/elements/1.1/"
   xmlns:cc="http://web.resource.org/cc/"
   xmlns:rdf="http://www.w3.org/1999/02/22-rdf-syntax-ns#"
   xmlns:svg="http://www.w3.org/2000/svg"
   xmlns="http://www.w3.org/2000/svg"
   xmlns:xlink="http://www.w3.org/1999/xlink"
   xmlns:sodipodi="http://sodipodi.sourceforge.net/DTD/sodipodi-0.dtd"
   xmlns:inkscape="http://www.inkscape.org/namespaces/inkscape"
   width="40"
   height="40"
   id="svg2193"
   sodipodi:version="0.32"
   inkscape:version="0.45.1"
   version="1.0"
   sodipodi:docbase="/home/jra/Desktop"
   sodipodi:docname="34.svg"
   inkscape:output_extension="org.inkscape.output.svg.inkscape">
  <defs
     id="defs2195">
    <linearGradient
       inkscape:collect="always"
       id="linearGradient3429">
      <stop
         style="stop-color:#000000;stop-opacity:1;"
         offset="0"
         id="stop3431" />
      <stop
         style="stop-color:#000000;stop-opacity:0;"
         offset="1"
         id="stop3433" />
    </linearGradient>
    <linearGradient
       inkscape:collect="always"
       id="linearGradient3395">
      <stop
         style="stop-color:#000000;stop-opacity:1;"
         offset="0"
         id="stop3397" />
      <stop
         style="stop-color:#000000;stop-opacity:0;"
         offset="1"
         id="stop3399" />
    </linearGradient>
    <linearGradient
       inkscape:collect="always"
       id="linearGradient3388">
      <stop
         style="stop-color:#ffffff;stop-opacity:1;"
         offset="0"
         id="stop3390" />
      <stop
         style="stop-color:#ffffff;stop-opacity:0;"
         offset="1"
         id="stop3392" />
    </linearGradient>
    <linearGradient
       id="linearGradient3506">
      <stop
         style="stop-color:#2c72c7;stop-opacity:1;"
         offset="0"
         id="stop3508" />
      <stop
         id="stop3514"
         offset="0.5"
         style="stop-color:#1e3755;stop-opacity:1;" />
      <stop
         style="stop-color:#a7b8cd;stop-opacity:1;"
         offset="1"
         id="stop3510" />
    </linearGradient>
    <linearGradient
       inkscape:collect="always"
       id="linearGradient3380">
      <stop
         style="stop-color:#000000;stop-opacity:1;"
         offset="0"
         id="stop3382" />
      <stop
         style="stop-color:#000000;stop-opacity:0;"
         offset="1"
         id="stop3384" />
    </linearGradient>
    <linearGradient
       inkscape:collect="always"
       id="linearGradient3361">
      <stop
         style="stop-color:#000000;stop-opacity:1;"
         offset="0"
         id="stop3363" />
      <stop
         style="stop-color:#000000;stop-opacity:0;"
         offset="1"
         id="stop3365" />
    </linearGradient>
    <linearGradient
       inkscape:collect="always"
       id="linearGradient3239">
      <stop
         style="stop-color:#eeeeec;stop-opacity:1;"
         offset="0"
         id="stop3241" />
      <stop
         style="stop-color:#eeeeec;stop-opacity:0;"
         offset="1"
         id="stop3243" />
    </linearGradient>
    <linearGradient
       id="linearGradient3291">
      <stop
         id="stop3293"
         offset="0"
         style="stop-color:#000000;stop-opacity:1;" />
      <stop
         id="stop3295"
         offset="1"
         style="stop-color:#000000;stop-opacity:0;" />
    </linearGradient>
    <radialGradient
       inkscape:collect="always"
       xlink:href="#linearGradient3291"
       id="radialGradient2595"
       gradientUnits="userSpaceOnUse"
       gradientTransform="matrix(1,0,0,0.197802,0,92.82166)"
       cx="63.912209"
       cy="115.70919"
       fx="75.857941"
       fy="115.70919"
       r="63.912209" />
    <linearGradient
       inkscape:collect="always"
       xlink:href="#linearGradient3361"
       id="linearGradient3367"
       x1="63.950508"
       y1="34.4375"
       x2="63.978107"
       y2="36.613358"
       gradientUnits="userSpaceOnUse"
       gradientTransform="translate(-40,0)" />
    <linearGradient
       inkscape:collect="always"
       xlink:href="#linearGradient3380"
       id="linearGradient3386"
       x1="62.25"
       y1="26.015625"
       x2="66.53125"
       y2="26.015625"
       gradientUnits="userSpaceOnUse"
       gradientTransform="translate(-40,0)" />
    <linearGradient
       inkscape:collect="always"
       xlink:href="#linearGradient3380"
       id="linearGradient3472"
       x1="59.78125"
       y1="10.375"
       x2="63.28125"
       y2="13.171875"
       gradientUnits="userSpaceOnUse"
       gradientTransform="translate(-40,0)" />
    <linearGradient
       inkscape:collect="always"
       xlink:href="#linearGradient3380"
       id="linearGradient3480"
       x1="61.65625"
       y1="8.1875"
       x2="66"
       y2="18.3125"
       gradientUnits="userSpaceOnUse"
       gradientTransform="translate(-40,0)" />
    <linearGradient
       inkscape:collect="always"
       xlink:href="#linearGradient3380"
       id="linearGradient3488"
       x1="67.25"
       y1="7.5"
       x2="67.3125"
       y2="12.875"
       gradientUnits="userSpaceOnUse"
       gradientTransform="translate(-40,0)" />
    <linearGradient
       inkscape:collect="always"
       xlink:href="#linearGradient3380"
       id="linearGradient3496"
       x1="60.78125"
       y1="5.15625"
       x2="69.875"
       y2="5.15625"
       gradientUnits="userSpaceOnUse"
       gradientTransform="translate(-40,0)" />
    <linearGradient
       inkscape:collect="always"
       xlink:href="#linearGradient3380"
       id="linearGradient3504"
       x1="60.25"
       y1="4"
       x2="71.75"
       y2="4"
       gradientUnits="userSpaceOnUse"
       gradientTransform="translate(-40,0)" />
    <linearGradient
       inkscape:collect="always"
       xlink:href="#linearGradient3506"
       id="linearGradient3512"
       x1="66.764244"
       y1="9.088048"
       x2="63.264244"
       y2="7.203125"
       gradientUnits="userSpaceOnUse"
       gradientTransform="translate(-40,0)" />
    <linearGradient
       inkscape:collect="always"
       xlink:href="#linearGradient3388"
       id="linearGradient3394"
       x1="12.84375"
       y1="20.328125"
       x2="37.0625"
       y2="20.328125"
       gradientUnits="userSpaceOnUse" />
    <linearGradient
       inkscape:collect="always"
       xlink:href="#linearGradient3388"
       id="linearGradient3411"
       gradientUnits="userSpaceOnUse"
       x1="12.625"
       y1="15.828125"
       x2="17.40625"
       y2="16.453125" />
    <linearGradient
       inkscape:collect="always"
       xlink:href="#linearGradient3395"
       id="linearGradient3401"
       x1="20.014515"
       y1="9.0625"
       x2="21.4375"
       y2="13.100318"
       gradientUnits="userSpaceOnUse" />
    <linearGradient
       inkscape:collect="always"
       xlink:href="#linearGradient3429"
       id="linearGradient3440"
       gradientUnits="userSpaceOnUse"
       x1="15.017702"
       y1="1.7555196"
       x2="27.504442"
       y2="6.375" />
    <linearGradient
       inkscape:collect="always"
       xlink:href="#linearGradient3395"
       id="linearGradient3469"
       gradientUnits="userSpaceOnUse"
       gradientTransform="translate(-40,0)"
       x1="64.406708"
       y1="1.8851988"
       x2="65.103333"
       y2="11.077585" />
    <linearGradient
       inkscape:collect="always"
       xlink:href="#linearGradient3395"
       id="linearGradient3547"
       x1="40.78125"
       y1="26.015625"
       x2="50.84375"
       y2="26.015625"
       gradientUnits="userSpaceOnUse"
       gradientTransform="translate(-20,0)" />
    <linearGradient
       inkscape:collect="always"
       xlink:href="#linearGradient3239"
       id="linearGradient3548"
       x1="15.96875"
       y1="20.328125"
       x2="32.8125"
       y2="20.328125"
       gradientUnits="userSpaceOnUse" />
    <linearGradient
       inkscape:collect="always"
       xlink:href="#linearGradient3239"
       id="linearGradient3556"
       x1="12.625"
       y1="16.9375"
       x2="15.96875"
       y2="16.9375"
       gradientUnits="userSpaceOnUse" />
    <linearGradient
       inkscape:collect="always"
       xlink:href="#linearGradient3380"
       id="linearGradient2469"
       x1="30.748699"
       y1="10.71875"
       x2="32.803078"
       y2="10.71875"
       gradientUnits="userSpaceOnUse" />
    <linearGradient
       inkscape:collect="always"
       xlink:href="#linearGradient3239"
       id="linearGradient2494"
       x1="16.46875"
       y1="5.609375"
       x2="19.8125"
       y2="5.609375"
       gradientUnits="userSpaceOnUse" />
    <linearGradient
       inkscape:collect="always"
       xlink:href="#linearGradient3395"
       id="linearGradient2500"
       x1="9.59375"
       y1="20.355469"
       x2="9.625"
       y2="20.183594"
       gradientUnits="userSpaceOnUse" />
    <linearGradient
       inkscape:collect="always"
       xlink:href="#linearGradient3395"
       id="linearGradient2502"
       x1="14.296875"
       y1="21.320312"
       x2="14.296875"
       y2="21.085938"
       gradientUnits="userSpaceOnUse" />
    <linearGradient
       inkscape:collect="always"
       xlink:href="#linearGradient3388"
       id="linearGradient2465"
       x1="14.46875"
       y1="9.03125"
       x2="34.6875"
       y2="9.03125"
       gradientUnits="userSpaceOnUse" />
    <linearGradient
       inkscape:collect="always"
       xlink:href="#linearGradient3380"
       id="linearGradient3447"
       x1="21.383232"
       y1="8.5562191"
       x2="21.75"
       y2="7.1199079"
       gradientUnits="userSpaceOnUse" />
    <linearGradient
       inkscape:collect="always"
       xlink:href="#linearGradient3388"
       id="linearGradient3499"
       x1="11.921875"
       y1="16.349993"
       x2="21"
       y2="19.5625"
       gradientUnits="userSpaceOnUse" />
    <linearGradient
       inkscape:collect="always"
       xlink:href="#linearGradient3388"
       id="linearGradient3508"
       x1="23.90625"
       y1="8.9598665"
       x2="24"
       y2="6.0736837"
       gradientUnits="userSpaceOnUse" />
  </defs>
  <sodipodi:namedview
     id="base"
     pagecolor="#ffffff"
     bordercolor="#666666"
     borderopacity="1.0"
     inkscape:pageopacity="0.0"
     inkscape:pageshadow="2"
     inkscape:zoom="17.425"
     inkscape:cx="20"
     inkscape:cy="20"
     inkscape:current-layer="layer1"
     showgrid="false"
     inkscape:grid-bbox="false"
     inkscape:document-units="px"
     width="40px"
     height="40px"
     gridempspacing="2"
     inkscape:window-width="1167"
     inkscape:window-height="914"
     inkscape:window-x="280"
     inkscape:window-y="62" />
  <metadata
     id="metadata2198">
    <rdf:RDF>
      <cc:Work
         rdf:about="">
        <dc:format>image/svg+xml</dc:format>
        <dc:type
           rdf:resource="http://purl.org/dc/dcmitype/StillImage" />
        <dc:creator>
          <cc:Agent>
            <dc:title>Jarle Akselsen</dc:title>
          </cc:Agent>
        </dc:creator>
        <cc:license
           rdf:resource="http://creativecommons.org/licenses/GPL/2.0/" />
      </cc:Work>
      <cc:License
         rdf:about="http://creativecommons.org/licenses/GPL/2.0/">
        <cc:permits
           rdf:resource="http://web.resource.org/cc/Reproduction" />
        <cc:permits
           rdf:resource="http://web.resource.org/cc/Distribution" />
        <cc:requires
           rdf:resource="http://web.resource.org/cc/Notice" />
        <cc:permits
           rdf:resource="http://web.resource.org/cc/DerivativeWorks" />
        <cc:requires
           rdf:resource="http://web.resource.org/cc/ShareAlike" />
        <cc:requires
           rdf:resource="http://web.resource.org/cc/SourceCode" />
      </cc:License>
    </rdf:RDF>
  </metadata>
  <g
     id="layer1"
     inkscape:label="Layer 1"
     inkscape:groupmode="layer">
    <path
       transform="matrix(0.1811101,0,0,0.2658323,14.99174,4.0272849)"
       d="M 127.82442 115.70919 A 63.912209 12.641975 0 1 1  0,115.70919 A 63.912209 12.641975 0 1 1  127.82442 115.70919 z"
       sodipodi:ry="12.641975"
       sodipodi:rx="63.912209"
       sodipodi:cy="115.70919"
       sodipodi:cx="63.912209"
       id="path2593"
       style="opacity:0.38139535;fill:url(#radialGradient2595);fill-opacity:1;fill-rule:nonzero;stroke:none;stroke-width:0;stroke-linecap:round;stroke-linejoin:round;stroke-miterlimit:4;stroke-dasharray:none;stroke-dashoffset:4;stroke-opacity:1"
       sodipodi:type="arc" />
    <path
       style="opacity:1;fill:#d3d7cf;fill-opacity:1;fill-rule:nonzero;stroke:none;stroke-width:0.1;stroke-linecap:round;stroke-linejoin:round;stroke-miterlimit:4;stroke-dasharray:none;stroke-opacity:1"
       d="M 18.03125,3.40625 L 16.84375,4.625 L 16.65625,5.625 L 15.96875,6.59375 L 15.96875,10.5 L 15.34375,10.5 L 13.875,12.71875 L 13.875,17.5625 L 9.125,16.6875 L 7.0625,19.21875 L 7,19.875 L 12.625,20.875 L 12.625,21.21875 L 15.96875,21.21875 L 15.96875,34.4375 L 16.4375,34.4375 L 16.4375,35.90625 L 32.375,35.90625 L 32.375,34.4375 L 32.8125,34.4375 L 32.8125,6.59375 L 31,3.40625 L 18.03125,3.40625 z "
       id="path3441" />
    <path
       style="opacity:0.6;fill:#ffffff;fill-opacity:1;fill-rule:nonzero;stroke:none;stroke-width:0.1;stroke-linecap:round;stroke-linejoin:round;stroke-miterlimit:4;stroke-dasharray:none;stroke-opacity:1"
       d="M 15.34375,10.5 L 13.90625,12.65625 L 15.96875,12.65625 L 15.96875,10.5 L 15.34375,10.5 z "
       id="path3329" />
    <path
       style="opacity:0.7;fill:#ffffff;fill-opacity:1;fill-rule:nonzero;stroke:none;stroke-width:0.1;stroke-linecap:round;stroke-linejoin:round;stroke-miterlimit:4;stroke-dasharray:none;stroke-opacity:1"
       d="M 9.125,16.75 L 7.0625,19.21875 L 12.84375,20.3125 L 13.875,18.1875 L 13.875,17.5625 L 9.125,16.75 z "
       id="path3327"
       sodipodi:nodetypes="cccccc" />
    <path
       style="opacity:0.5;fill:#ffffff;fill-opacity:1;fill-rule:nonzero;stroke:none;stroke-width:0.1;stroke-linecap:round;stroke-linejoin:round;stroke-miterlimit:4;stroke-dasharray:none;stroke-opacity:1"
       d="M 13.875,18.1875 L 13.625,18.71875 L 12.84375,20.3125 L 13.875,18.875 L 13.875,18.71875 L 13.875,18.1875 z "
       id="rect2319" />
    <path
       style="opacity:0.4;fill:#ffffff;fill-opacity:1;fill-rule:nonzero;stroke:none;stroke-width:0.1;stroke-linecap:round;stroke-linejoin:round;stroke-miterlimit:4;stroke-dasharray:none;stroke-opacity:1"
       d="M 21.03125,3.90625 L 21.03125,4.03125 L 24.46875,4.03125 L 24.46875,3.90625 L 21.03125,3.90625 z M 16.84375,4.625 L 16.46875,6.59375 L 32.8125,6.59375 L 31.6875,4.625 L 29.71875,4.625 L 29.875,5.25 L 20.84375,6.375 L 20.78125,5.5625 L 25.90625,4.875 L 25.90625,4.625 L 20.71875,4.625 L 16.84375,4.625 z "
       id="path2372" />
    <path
       style="opacity:0.7;fill:#ffffff;fill-opacity:1;fill-rule:nonzero;stroke:none;stroke-width:0.1;stroke-linecap:round;stroke-linejoin:round;stroke-miterlimit:4;stroke-dasharray:none;stroke-opacity:1"
       d="M 18.03125,3.40625 L 16.84375,4.625 L 20.71875,4.625 L 25.90625,4.625 L 25.90625,4.5 L 24.5,4.5 L 24.5,4.1875 L 21,4.1875 L 21.03125,3.90625 L 24.46875,3.90625 L 24.4375,3.5 L 29.4375,3.5 L 29.71875,4.625 L 31.6875,4.625 L 31,3.40625 L 29.625,3.40625 L 29.40625,3.40625 L 20.84375,3.40625 L 20.46875,3.40625 L 18.03125,3.40625 z "
       id="path2390" />
    <path
       style="opacity:0.6;fill:url(#linearGradient3504);fill-opacity:1;fill-rule:nonzero;stroke:none;stroke-width:0.1;stroke-linecap:round;stroke-linejoin:round;stroke-miterlimit:4;stroke-dasharray:none;stroke-opacity:1"
       d="M 24.4375,3.5 L 24.46875,3.90625 L 24.46875,4.03125 L 21.03125,4.03125 L 21,4.1875 L 24.5,4.1875 L 24.5,4.5 L 25.09375,4.5 L 29.5625,3.9375 L 29.4375,3.5 L 24.4375,3.5 z "
       id="path3412" />
    <path
       id="path2341"
       d="M 18.96875,9.5625 L 18.96875,14.5625 L 19.21875,13.84375 L 19.53125,12.3125 L 19.53125,9.5625 L 18.96875,9.5625 z "
       style="opacity:0.8;fill:#000000;fill-opacity:1;fill-rule:nonzero;stroke:none;stroke-width:0.1;stroke-linecap:round;stroke-linejoin:round;stroke-miterlimit:4;stroke-dasharray:none;stroke-opacity:1"
       sodipodi:nodetypes="cccccc" />
    <path
       id="path2343"
       d="M 19.21875,13.84375 L 23.4375,11.875 L 23.65625,10.375 L 19.53125,12.3125 L 19.21875,13.84375 z "
       style="opacity:1;fill:url(#linearGradient3472);fill-opacity:1;fill-rule:nonzero;stroke:none;stroke-width:0.1;stroke-linecap:round;stroke-linejoin:round;stroke-miterlimit:4;stroke-dasharray:none;stroke-opacity:1"
       sodipodi:nodetypes="ccccc" />
    <path
       style="opacity:0.2;fill:#000000;fill-opacity:1;fill-rule:nonzero;stroke:none;stroke-width:0.1;stroke-linecap:round;stroke-linejoin:round;stroke-miterlimit:4;stroke-dasharray:none;stroke-opacity:1"
       d="M 15.96875,7.3125 L 15.96875,7.4375 L 32.8125,7.4375 L 32.8125,7.3125 L 15.96875,7.3125 z "
       id="path3424"
       sodipodi:nodetypes="ccccc" />
    <path
       style="opacity:0.8;fill:#ffffff;fill-opacity:1;fill-rule:nonzero;stroke:none;stroke-width:0.1;stroke-linecap:round;stroke-linejoin:round;stroke-miterlimit:4;stroke-dasharray:none;stroke-opacity:1"
       d="M 16.65625,5.625 L 15.96875,6.59375 L 16.46875,6.59375 L 16.65625,5.625 z "
       id="path3445" />
    <path
       style="opacity:1;fill:url(#linearGradient3488);fill-opacity:1;fill-rule:nonzero;stroke:none;stroke-width:0.1;stroke-linecap:round;stroke-linejoin:round;stroke-miterlimit:4;stroke-dasharray:none;stroke-opacity:1"
       d="M 23.65625,10.375 L 23.4375,11.875 L 31.875,11.875 L 31.5,10.375 L 23.65625,10.375 z "
       id="path3450"
       sodipodi:nodetypes="ccccc" />
    <path
       style="opacity:1;fill:url(#linearGradient3480);fill-opacity:1;fill-rule:nonzero;stroke:none;stroke-width:0.1;stroke-linecap:round;stroke-linejoin:round;stroke-miterlimit:4;stroke-dasharray:none;stroke-opacity:1"
       d="M 19.53125,9.5625 L 19.53125,12.3125 L 23.65625,10.375 L 31.5,10.375 L 31.5,9.5625 L 19.53125,9.5625 z "
       id="path3462"
       sodipodi:nodetypes="cccccc" />
    <path
       sodipodi:nodetypes="ccccc"
       id="path3503"
       d="M 20.21875,7.4375 L 20.96875,8.5848665 L 27.8125,8.5848665 L 28.5625,7.4375 L 20.21875,7.4375 z "
       style="opacity:0.6;fill:url(#linearGradient3508);fill-opacity:1.0;fill-rule:nonzero;stroke:none;stroke-width:0.1;stroke-linecap:round;stroke-linejoin:round;stroke-miterlimit:4;stroke-dasharray:none;stroke-opacity:1" />
    <path
       style="opacity:0.6;fill:#ffffff;fill-opacity:1;fill-rule:nonzero;stroke:none;stroke-width:0.1;stroke-linecap:round;stroke-linejoin:round;stroke-miterlimit:4;stroke-dasharray:none;stroke-opacity:1"
       d="M 20.21875,7.4375 L 20.21875,8.96875 L 20.96875,9.46875 L 20.96875,8.59375 L 20.21875,7.4375 z "
       id="path3523" />
    <path
       style="opacity:0.4;fill:#000000;fill-opacity:1;fill-rule:nonzero;stroke:none;stroke-width:0.1;stroke-linecap:round;stroke-linejoin:round;stroke-miterlimit:4;stroke-dasharray:none;stroke-opacity:1"
       d="M 28.5625,7.4375 L 27.8125,8.59375 L 27.8125,9.46875 L 28.5625,8.96875 L 28.5625,7.4375 z "
       id="path3505" />
    <path
       sodipodi:nodetypes="ccccc"
       id="path3525"
       d="M 23.46875,7.693202 L 23.264245,8.463048 L 26.267005,8.463048 L 26.0625,7.693202 L 23.46875,7.693202 z "
       style="opacity:0.5;fill:url(#linearGradient3512);fill-opacity:1;fill-rule:nonzero;stroke:none;stroke-width:0.1;stroke-linecap:round;stroke-linejoin:round;stroke-miterlimit:4;stroke-dasharray:none;stroke-opacity:1" />
    <path
       sodipodi:type="arc"
       style="opacity:1;fill:#e20800;fill-opacity:1;fill-rule:nonzero;stroke:none;stroke-width:0.53149605;stroke-linecap:round;stroke-linejoin:miter;stroke-miterlimit:4;stroke-dasharray:none;stroke-opacity:1"
       id="path3527"
       sodipodi:cx="9.59375"
       sodipodi:cy="5.0625"
       sodipodi:rx="0.34375"
       sodipodi:ry="0.1875"
       d="M 9.9375 5.0625 A 0.34375 0.1875 0 1 1  9.25,5.0625 A 0.34375 0.1875 0 1 1  9.9375 5.0625 z"
       transform="translate(11.625,2.875)" />
    <path
       transform="translate(12.6875,2.875)"
       d="M 9.9375 5.0625 A 0.34375 0.1875 0 1 1  9.25,5.0625 A 0.34375 0.1875 0 1 1  9.9375 5.0625 z"
       sodipodi:ry="0.1875"
       sodipodi:rx="0.34375"
       sodipodi:cy="5.0625"
       sodipodi:cx="9.59375"
       id="path3529"
       style="opacity:1;fill:#006e29;fill-opacity:1;fill-rule:nonzero;stroke:none;stroke-width:0.53149605;stroke-linecap:round;stroke-linejoin:miter;stroke-miterlimit:4;stroke-dasharray:none;stroke-opacity:1"
       sodipodi:type="arc" />
    <path
       style="opacity:0.4;fill:url(#linearGradient3386);fill-opacity:1;fill-rule:nonzero;stroke:none;stroke-width:0.1;stroke-linecap:round;stroke-linejoin:round;stroke-miterlimit:4;stroke-dasharray:none;stroke-opacity:1"
       d="M 22.5,20.40625 L 22.25,21 L 26.53125,21 L 26.28125,20.40625 L 22.5,20.40625 z M 22.5,23.84375 L 22.25,24.4375 L 26.53125,24.4375 L 26.28125,23.84375 L 22.5,23.84375 z M 22.5,27.34375 L 22.25,27.9375 L 26.53125,27.9375 L 26.28125,27.34375 L 22.5,27.34375 z M 22.5,31.03125 L 22.25,31.625 L 26.53125,31.625 L 26.28125,31.03125 L 22.5,31.03125 z "
       id="path4523" />
    <path
       style="opacity:0.5;fill:#000000;fill-opacity:1;fill-rule:nonzero;stroke:none;stroke-width:0.1;stroke-linecap:round;stroke-linejoin:round;stroke-miterlimit:4;stroke-dasharray:none;stroke-opacity:1"
       d="M 22.25,20.09375 L 22.25,21 L 22.5,20.40625 L 22.5,20.09375 L 22.25,20.09375 z M 22.25,23.53125 L 22.25,24.4375 L 22.5,23.84375 L 22.5,23.53125 L 22.25,23.53125 z M 22.25,27.03125 L 22.25,27.9375 L 22.5,27.34375 L 22.5,27.03125 L 22.25,27.03125 z M 22.25,30.71875 L 22.25,31.625 L 22.5,31.03125 L 22.5,30.71875 L 22.25,30.71875 z "
       id="path4527" />
    <path
       style="opacity:0.8;fill:#ffffff;fill-opacity:1;fill-rule:nonzero;stroke:none;stroke-width:0.1;stroke-linecap:round;stroke-linejoin:round;stroke-miterlimit:4;stroke-dasharray:none;stroke-opacity:1"
       d="M 26.28125,20.09375 L 26.28125,20.40625 L 26.53125,21 L 26.53125,20.09375 L 26.28125,20.09375 z M 26.28125,23.53125 L 26.28125,23.84375 L 26.53125,24.4375 L 26.53125,23.53125 L 26.28125,23.53125 z M 26.28125,27.03125 L 26.28125,27.34375 L 26.53125,27.9375 L 26.53125,27.03125 L 26.28125,27.03125 z M 26.28125,30.71875 L 26.28125,31.03125 L 26.53125,31.625 L 26.53125,30.71875 L 26.28125,30.71875 z "
       id="path4529" />
    <path
       style="opacity:0.6;fill:#000000;fill-opacity:1;fill-rule:nonzero;stroke:none;stroke-width:0.1;stroke-linecap:round;stroke-linejoin:round;stroke-miterlimit:4;stroke-dasharray:none;stroke-opacity:1"
       d="M 22.25,20.09375 L 22.25,21 L 22.5,20.40625 L 26.28125,20.40625 L 26.53125,21 L 26.53125,20.09375 L 22.25,20.09375 z M 22.25,23.53125 L 22.25,24.4375 L 22.5,23.84375 L 26.28125,23.84375 L 26.53125,24.4375 L 26.53125,23.53125 L 22.25,23.53125 z M 22.25,27.03125 L 22.25,27.9375 L 22.5,27.34375 L 26.28125,27.34375 L 26.53125,27.9375 L 26.53125,27.03125 L 22.25,27.03125 z M 22.25,30.71875 L 22.25,31.625 L 22.5,31.03125 L 26.28125,31.03125 L 26.53125,31.625 L 26.53125,30.71875 L 22.25,30.71875 z "
       id="path4525" />
    <path
       style="opacity:0.4;fill:url(#linearGradient3496);fill-opacity:1;fill-rule:nonzero;stroke:none;stroke-width:0.1;stroke-linecap:round;stroke-linejoin:round;stroke-miterlimit:4;stroke-dasharray:none;stroke-opacity:1"
       d="M 29.5625,3.9375 L 25.09375,4.5 L 25.90625,4.5 L 25.90625,4.625 L 25.90625,4.875 L 20.78125,5.5625 L 20.84375,6.375 L 29.875,5.25 L 29.71875,4.625 L 29.5625,3.9375 z "
       id="path3388" />
    <path
       style="opacity:0.4;color:#000000;fill:#ffffff;fill-opacity:1;fill-rule:evenodd;stroke:none;stroke-width:1px;stroke-linecap:butt;stroke-linejoin:miter;marker:none;marker-start:none;marker-mid:none;marker-end:none;stroke-miterlimit:4;stroke-dasharray:none;stroke-dashoffset:0;stroke-opacity:1;visibility:visible;display:inline;overflow:visible;enable-background:accumulate"
       d="M 7.0625,19.21875 L 7,19.875 L 12.625,20.875 L 12.625,20.28125 L 7.0625,19.21875 z "
       id="path3403" />
    <path
       style="opacity:0.6;fill:#ffffff;fill-opacity:1;fill-rule:nonzero;stroke:none;stroke-width:0.1;stroke-linecap:round;stroke-linejoin:round;stroke-miterlimit:4;stroke-dasharray:none;stroke-opacity:1"
       d="M 15.96875,18.71875 L 15.96875,22.15625 L 16.25,22.25 L 16.25,18.84375 L 15.96875,18.71875 z M 15.96875,22.25 L 15.96875,25.6875 L 16.21875,25.78125 L 16.21875,22.34375 L 15.96875,22.25 z M 15.96875,25.78125 L 15.96875,29.21875 L 16.21875,29.3125 L 16.21875,25.875 L 15.96875,25.78125 z M 15.96875,29.34375 L 15.96875,33.96875 L 16.21875,34.0625 L 16.21875,29.4375 L 15.96875,29.34375 z "
       id="path3614" />
    <path
       style="opacity:0.1;fill:#000000;fill-opacity:1;fill-rule:nonzero;stroke:none;stroke-width:0.1;stroke-linecap:round;stroke-linejoin:round;stroke-miterlimit:4;stroke-dasharray:none;stroke-opacity:1"
       d="M 32.8125,18.71875 L 32.53125,18.84375 L 32.53125,22.25 L 32.8125,22.15625 L 32.8125,18.71875 z M 32.8125,22.25 L 32.5625,22.34375 L 32.5625,25.78125 L 32.8125,25.6875 L 32.8125,22.25 z M 32.8125,25.78125 L 32.5625,25.875 L 32.5625,29.3125 L 32.8125,29.21875 L 32.8125,25.78125 z M 32.8125,29.34375 L 32.5625,29.4375 L 32.5625,34.0625 L 32.8125,33.96875 L 32.8125,29.34375 z "
       id="path3623" />
    <path
       style="opacity:0.4;fill:url(#linearGradient3499);fill-opacity:1.0;fill-rule:nonzero;stroke:none;stroke-width:0.1;stroke-linecap:round;stroke-linejoin:round;stroke-miterlimit:4;stroke-dasharray:none;stroke-opacity:1"
       d="M 15.96875,18.71875 L 16.25,18.84375 L 32.53125,18.84375 L 32.8125,18.71875 L 15.96875,18.71875 z "
       id="path3449" />
    <path
       style="opacity:0.2;fill:#000000;fill-opacity:1;fill-rule:nonzero;stroke:none;stroke-width:0.1;stroke-linecap:round;stroke-linejoin:round;stroke-miterlimit:4;stroke-dasharray:none;stroke-opacity:1"
       d="M 15.96875 22.25 L 16.21875 22.34375 L 32.5625 22.34375 L 32.8125 22.25 L 15.96875 22.25 z M 15.96875 25.78125 L 16.21875 25.875 L 32.5625 25.875 L 32.8125 25.78125 L 15.96875 25.78125 z M 15.96875 29.34375 L 16.21875 29.4375 L 32.5625 29.4375 L 32.8125 29.34375 L 15.96875 29.34375 z "
       id="path3446" />
    <path
       style="opacity:0.4;fill:url(#linearGradient3394);fill-opacity:1;fill-rule:nonzero;stroke:none;stroke-width:0.1;stroke-linecap:round;stroke-linejoin:round;stroke-miterlimit:4;stroke-dasharray:none;stroke-opacity:1"
       d="M 15.96875,6.59375 L 15.96875,7.3125 L 32.8125,7.3125 L 32.8125,6.59375 L 15.96875,6.59375 z M 15.96875,7.4375 L 15.96875,18.71875 L 32.8125,18.71875 L 32.8125,7.4375 L 28.5625,7.4375 L 28.5625,8.96875 L 27.8125,9.46875 L 20.96875,9.46875 L 20.21875,8.96875 L 20.21875,7.4375 L 15.96875,7.4375 z M 18.96875,9.5625 L 31.875,9.5625 L 31.875,10.375 L 31.875,11.875 L 23.4375,11.875 L 19.21875,13.84375 L 18.96875,14.5625 L 18.96875,9.5625 z M 16.25,18.84375 L 16.25,22.25 L 32.53125,22.25 L 32.53125,18.84375 L 16.25,18.84375 z M 22.25,20.09375 L 22.5,20.09375 L 26.28125,20.09375 L 26.53125,20.09375 L 26.53125,21 L 22.25,21 L 22.25,20.09375 z M 16.21875,22.34375 L 16.21875,25.78125 L 32.5625,25.78125 L 32.5625,22.34375 L 16.21875,22.34375 z M 22.25,23.53125 L 22.5,23.53125 L 26.28125,23.53125 L 26.53125,23.53125 L 26.53125,24.4375 L 22.25,24.4375 L 22.25,23.53125 z M 16.21875,25.875 L 16.21875,29.3125 L 32.5625,29.3125 L 32.5625,25.875 L 16.21875,25.875 z M 22.25,27.03125 L 22.5,27.03125 L 26.28125,27.03125 L 26.53125,27.03125 L 26.53125,27.9375 L 22.25,27.9375 L 22.25,27.03125 z M 16.21875,29.4375 L 16.21875,34.0625 L 32.5625,34.0625 L 32.5625,29.4375 L 16.21875,29.4375 z M 22.25,30.71875 L 22.5,30.71875 L 26.28125,30.71875 L 26.53125,30.71875 L 26.53125,31.625 L 22.25,31.625 L 22.25,30.71875 z "
       id="path2412" />
    <path
       style="opacity:0.4;fill:url(#linearGradient3411);fill-opacity:1;fill-rule:nonzero;stroke:none;stroke-width:0.1;stroke-linecap:round;stroke-linejoin:round;stroke-miterlimit:4;stroke-dasharray:none;stroke-opacity:1"
       d="M 13.875,12.65625 L 13.875,18.875 L 12.84375,20.3125 L 12.625,20.28125 L 12.625,21.21875 L 15.96875,21.21875 L 15.96875,18.875 L 15.96875,12.65625 L 13.875,12.65625 z "
       id="path3396" />
    <path
       style="opacity:1;color:#000000;fill:#ffffff;fill-opacity:1;fill-rule:evenodd;stroke:none;stroke-width:1px;stroke-linecap:butt;stroke-linejoin:miter;marker:none;marker-start:none;marker-mid:none;marker-end:none;stroke-miterlimit:4;stroke-dasharray:none;stroke-dashoffset:0;stroke-opacity:1;visibility:visible;display:inline;overflow:visible;enable-background:accumulate"
       d="M 9.46875,17.21875 L 8.0625,19.03125 L 13,19.9375 L 13.53125,18.90625 L 13.625,18.71875 L 13.875,18.1875 L 13.875,18.03125 L 9.46875,17.21875 z "
       id="path3413"
       sodipodi:nodetypes="cccccccc" />
    <path
       style="opacity:0.4;fill:url(#linearGradient3367);fill-opacity:1;fill-rule:nonzero;stroke:none;stroke-width:0.1;stroke-linecap:round;stroke-linejoin:round;stroke-miterlimit:4;stroke-dasharray:none;stroke-opacity:1"
       d="M 16.4375,34.4375 L 16.4375,35.90625 L 32.375,35.90625 L 32.375,34.4375 L 16.4375,34.4375 z "
       id="path3303" />
    <path
       style="opacity:0.2;fill:#000000;fill-opacity:1;fill-rule:nonzero;stroke:none;stroke-width:0.1;stroke-linecap:round;stroke-linejoin:round;stroke-miterlimit:4;stroke-dasharray:none;stroke-opacity:1"
       d="M 15.96875,33.96875 L 15.96875,34.4375 L 32.8125,34.4375 L 32.8125,33.96875 L 32.5625,34.0625 L 16.21875,34.0625 L 15.96875,33.96875 z "
       id="rect3445"
       sodipodi:nodetypes="ccccccc" />
    <path
       style="opacity:1;fill:url(#linearGradient3401);fill-opacity:1;fill-rule:nonzero;stroke:none;stroke-width:0.1;stroke-linecap:round;stroke-linejoin:round;stroke-miterlimit:4;stroke-dasharray:none;stroke-opacity:1"
       d="M 19.53125,9.5625 L 19.53125,12.3125 L 19.25,13.75 L 21.8125,12.03125 L 22.083027,12.054917 L 23.65625,11 L 31.5,10.375 L 31.5,9.5625 L 19.53125,9.5625 z "
       id="path3387"
       sodipodi:nodetypes="ccccccccc" />
    <path
       style="opacity:1;fill:url(#linearGradient3440);fill-opacity:1;fill-rule:nonzero;stroke:none;stroke-width:0.1;stroke-linecap:round;stroke-linejoin:round;stroke-miterlimit:4;stroke-dasharray:none;stroke-opacity:1"
       d="M 24.4375 3.5 L 24.46875 3.90625 L 24.46875 4.03125 L 23.65625 4.03125 L 23.65625 4.1875 L 24.5 4.1875 L 24.5 4.5 L 25.90625 4.5 L 25.90625 4.625 L 25.90625 4.875 L 20.78125 5.5625 L 20.84375 6.375 L 21.9375 5.59375 L 27.0625 4.90625 L 27.0625 4.4375 L 25.6875 4.4375 L 24.46875 3.5 L 24.4375 3.5 z "
       id="path3421" />
    <path
       style="opacity:1;fill:url(#linearGradient3469);fill-opacity:1;fill-rule:nonzero;stroke:none;stroke-width:0.1;stroke-linecap:round;stroke-linejoin:round;stroke-miterlimit:4;stroke-dasharray:none;stroke-opacity:1"
       d="M 28.5625,7.4375 L 28.5625,8.96875 L 27.8125,9.46875 L 20.96875,9.46875 L 20.21875,8.96875 L 20.53125,9.5625 L 29.125,9.5625 L 28.5625,7.4375 z "
       id="path3447" />
    <path
       style="opacity:0.5;color:#000000;fill:#000000;fill-opacity:1;fill-rule:evenodd;stroke:none;stroke-width:1px;stroke-linecap:butt;stroke-linejoin:miter;marker:none;marker-start:none;marker-mid:none;marker-end:none;stroke-miterlimit:4;stroke-dasharray:none;stroke-dashoffset:0;stroke-opacity:1;visibility:visible;display:inline;overflow:visible;enable-background:accumulate"
       d="M 8.09375 19.03125 L 8.03125 19.125 L 12.96875 20.03125 L 13 19.9375 L 8.09375 19.03125 z "
       id="path3476" />
    <path
       style="opacity:0.51000001;fill:url(#linearGradient3547);fill-opacity:1;fill-rule:nonzero;stroke:none;stroke-width:0.1;stroke-linecap:round;stroke-linejoin:round;stroke-miterlimit:4;stroke-dasharray:none;stroke-opacity:1"
       d="M 22.5,20.40625 L 22.25,21 L 22.8125,20.625 L 26.28125,20.625 L 26.375,20.625 L 26.28125,20.40625 L 22.5,20.40625 z M 22.5,23.84375 L 22.25,24.4375 L 22.8125,24.0625 L 26.28125,24.0625 L 26.375,24.0625 L 26.28125,23.84375 L 22.5,23.84375 z M 22.5,27.34375 L 22.25,27.9375 L 22.8125,27.5625 L 26.28125,27.5625 L 26.375,27.5625 L 26.28125,27.34375 L 22.5,27.34375 z M 22.5,31.03125 L 22.25,31.625 L 22.8125,31.25 L 26.28125,31.25 L 26.375,31.25 L 26.28125,31.03125 L 22.5,31.03125 z "
       id="path3521"
       sodipodi:nodetypes="cccccccccccccccccccccccccccc" />
    <path
       style="opacity:0.15;fill:url(#linearGradient3548);fill-opacity:1;fill-rule:nonzero;stroke:none;stroke-width:0.1;stroke-linecap:round;stroke-linejoin:round;stroke-miterlimit:4;stroke-dasharray:none;stroke-opacity:1"
       d="M 15.96875,6.59375 L 15.96875,7.3125 L 16.1875,7.3125 L 16.1875,7.21875 C 16.183212,6.9754341 16.354709,6.7643607 16.59375,6.71875 C 16.624931,6.7158139 16.656319,6.715814 16.6875,6.71875 L 32.8125,6.71875 L 32.8125,6.59375 L 15.96875,6.59375 z M 15.96875,7.4375 L 15.96875,18.178301 C 16.09631,18.268905 16.187483,18.416178 16.1875,18.584551 L 16.1875,8.0625 C 16.183212,7.8191843 16.354709,7.6081107 16.59375,7.5625 C 16.624931,7.5595641 16.656319,7.559564 16.6875,7.5625 L 19.9375,7.5625 C 20.045258,7.5625108 20.137112,7.5982636 20.21875,7.65625 L 20.21875,7.4375 L 15.96875,7.4375 z M 23.4375,11.875 L 19.21875,13.84375 L 19.1875,13.9375 L 19.1875,14.25 L 19.34375,14.28125 L 19.375,14.15625 C 19.4112,14.021825 19.5018,13.908575 19.625,13.84375 L 23.53125,12.03125 C 23.60092,12.004651 23.67566,11.993974 23.75,12 L 32.09375,12 L 31.875,11.875 L 23.4375,11.875 z M 16.1875,18.34375 L 16.1875,18.71875 L 16.375,18.71875 C 16.266468,18.627033 16.187516,18.496969 16.1875,18.34375 z M 16.25,18.84375 L 16.25,22.25 L 16.65625,22.25 C 16.547718,22.158283 16.468766,22.028219 16.46875,21.875 L 16.46875,19.46875 C 16.464462,19.225434 16.635959,19.014361 16.875,18.96875 C 16.906181,18.965814 16.937569,18.965814 16.96875,18.96875 L 32.25,18.96875 C 32.357758,18.968761 32.449612,19.004514 32.53125,19.0625 L 32.53125,18.84375 L 16.6875,18.84375 L 16.25,18.84375 z M 16.21875,22.34375 L 16.21875,25.78125 L 16.625,25.78125 C 16.516468,25.689533 16.437516,25.559469 16.4375,25.40625 L 16.4375,22.96875 C 16.433212,22.725434 16.604709,22.514361 16.84375,22.46875 C 16.874931,22.465814 16.906319,22.465814 16.9375,22.46875 L 32.28125,22.46875 C 32.389008,22.468761 32.480862,22.504514 32.5625,22.5625 L 32.5625,22.34375 L 32.4375,22.34375 C 32.377684,22.369054 32.319032,22.374993 32.25,22.375 L 16.96875,22.375 C 16.899717,22.374993 16.841066,22.369054 16.78125,22.34375 L 16.21875,22.34375 z M 16.21875,25.875 L 16.21875,29.3125 L 16.625,29.3125 C 16.516468,29.220783 16.437516,29.090719 16.4375,28.9375 L 16.4375,26.5 C 16.433212,26.256684 16.604709,26.045611 16.84375,26 C 16.874931,25.997064 16.906319,25.997064 16.9375,26 L 32.28125,26 C 32.389008,26.000011 32.480862,26.035764 32.5625,26.09375 L 32.5625,25.875 L 32.46875,25.875 C 32.408934,25.900304 32.350282,25.906243 32.28125,25.90625 L 16.9375,25.90625 C 16.868467,25.906243 16.809816,25.900304 16.75,25.875 L 16.21875,25.875 z M 16.21875,29.4375 L 16.21875,34.0625 L 16.625,34.0625 C 16.516468,33.970783 16.437516,33.840718 16.4375,33.6875 L 16.4375,30.0625 C 16.433212,29.819184 16.604709,29.608111 16.84375,29.5625 C 16.874931,29.559564 16.906319,29.559564 16.9375,29.5625 L 32.28125,29.5625 C 32.389008,29.562511 32.480862,29.598264 32.5625,29.65625 L 32.5625,29.4375 L 32.28125,29.4375 L 16.9375,29.4375 L 16.21875,29.4375 z "
       id="path3499"
       sodipodi:nodetypes="ccccsccccccccsccccccccccccccccccccccccccscccccccccccsccccccccccccccsccccccccccccccsccccccc" />
    <path
       style="opacity:0.15;fill:url(#linearGradient3556);fill-opacity:1.0;fill-rule:nonzero;stroke:none;stroke-width:0.1;stroke-linecap:round;stroke-linejoin:round;stroke-miterlimit:4;stroke-dasharray:none;stroke-opacity:1"
       d="M 13.875,12.65625 L 13.875,18.875 L 12.84375,20.3125 L 12.625,20.28125 L 12.625,21.21875 L 13.03125,21.21875 C 12.980865,21.175417 12.936547,21.123093 12.90625,21.0625 C 12.818955,20.887911 12.846683,20.683571 12.96875,20.53125 L 13.0625,20.4375 L 14.09375,19 L 14.09375,18.96875 L 14.09375,13.28125 C 14.089462,13.037934 14.260959,12.826861 14.5,12.78125 C 14.531181,12.778314 14.562569,12.778314 14.59375,12.78125 L 15.6875,12.78125 C 15.795258,12.781261 15.887112,12.817014 15.96875,12.875 L 15.96875,12.65625 L 13.875,12.65625 z "
       id="path3509" />
    <path
       style="opacity:0.4;fill:url(#linearGradient2469);fill-opacity:1;fill-rule:nonzero;stroke:none;stroke-width:1;stroke-linecap:round;stroke-linejoin:miter;stroke-miterlimit:4;stroke-dasharray:none;stroke-opacity:1"
       d="M 31.5 9.5625 L 31.5 10.375 L 31.875 11.875 L 31.875 10.375 L 31.875 9.5625 L 31.5 9.5625 z "
       id="rect2458" />
    <path
       style="opacity:0.3;fill:url(#linearGradient2494);fill-opacity:1;fill-rule:nonzero;stroke:none;stroke-width:0.1;stroke-linecap:round;stroke-linejoin:round;stroke-miterlimit:4;stroke-dasharray:none;stroke-opacity:1"
       d="M 16.84375,4.625 L 16.46875,6.59375 L 16.715879,6.59375 C 17.043848,5.3042206 17.547376,4.8245658 19.8125,4.625 L 16.84375,4.625 z "
       id="path2489"
       sodipodi:nodetypes="ccccc" />
    <path
       id="path2496"
       d="M 7.015625,19.710938 L 7,19.875 L 12.625,20.875 L 12.625,20.726562 L 7.015625,19.710938 z "
       style="opacity:0.3;color:#000000;fill:url(#linearGradient2500);fill-opacity:1;fill-rule:evenodd;stroke:none;stroke-width:1px;stroke-linecap:butt;stroke-linejoin:miter;marker:none;marker-start:none;marker-mid:none;marker-end:none;stroke-miterlimit:4;stroke-dasharray:none;stroke-dashoffset:0;stroke-opacity:1;visibility:visible;display:inline;overflow:visible;enable-background:accumulate"
       sodipodi:nodetypes="ccccc" />
    <path
       id="path2498"
       d="M 12.625,21.078125 L 12.625,21.21875 L 15.96875,21.21875 L 15.96875,21.078125 L 12.625,21.078125 z "
       style="opacity:0.3;fill:url(#linearGradient2502);fill-opacity:1;fill-rule:nonzero;stroke:none;stroke-width:0.1;stroke-linecap:round;stroke-linejoin:round;stroke-miterlimit:4;stroke-dasharray:none;stroke-opacity:1"
       sodipodi:nodetypes="ccccc" />
    <rect
       style="opacity:0.61162792;fill:#555753;fill-opacity:1;fill-rule:nonzero;stroke:none;stroke-width:0.69999999;stroke-linecap:round;stroke-linejoin:miter;stroke-miterlimit:4;stroke-dasharray:none;stroke-opacity:1"
       id="rect1951"
       width="40.001965"
       height="10.004759"
       x="-0.0019644466"
       y="30" />
    <text
       xml:space="preserve"
       style="font-size:12px;font-style:normal;font-weight:normal;fill:#eeeeec;fill-opacity:1;stroke:none;stroke-width:1px;stroke-linecap:butt;stroke-linejoin:miter;stroke-opacity:1;font-family:Bitstream Vera Sans"
       x="12.464779"
       y="39.168156"
       id="text2840"><tspan
         sodipodi:role="line"
         id="tspan2842"
         x="12.464779"
         y="39.168156">Se</tspan></text>
    <path
       sodipodi:nodetypes="ccccccccc"
       id="path2463"
       d="M 20.96875,8.59375 L 20.96875,8.59375 z M 20.96875,8.59375 L 20.96875,9.46875 L 27.8125,9.46875 L 27.8125,8.59375 L 20.96875,8.59375 z M 27.8125,8.59375 L 27.8125,8.59375 z "
       style="opacity:0.4;fill:url(#linearGradient2465);fill-opacity:1;fill-rule:nonzero;stroke:none;stroke-width:0.1;stroke-linecap:round;stroke-linejoin:round;stroke-miterlimit:4;stroke-dasharray:none;stroke-opacity:1" />
    <path
       style="opacity:1;fill:url(#linearGradient3447);fill-opacity:1.0;fill-rule:nonzero;stroke:none;stroke-width:0.53149605;stroke-linecap:round;stroke-linejoin:miter;stroke-miterlimit:4;stroke-dasharray:none;stroke-opacity:1"
       d="M 21.21875 7.75 C 21.029 7.75 20.875 7.834 20.875 7.9375 C 20.875 8.041 21.029 8.125 21.21875 8.125 C 21.4085 8.125 21.5625 8.041 21.5625 7.9375 C 21.5625 7.834 21.4085 7.75 21.21875 7.75 z M 22.28125 7.75 C 22.0915 7.75 21.9375 7.834 21.9375 7.9375 C 21.9375 8.041 22.0915 8.125 22.28125 8.125 C 22.471 8.125 22.625 8.041 22.625 7.9375 C 22.625 7.834 22.471 7.75 22.28125 7.75 z "
       id="path3436" />
    <path
       style="opacity:0.2;fill:#000000;fill-opacity:1;fill-rule:nonzero;stroke:none;stroke-width:0.1;stroke-linecap:round;stroke-linejoin:round;stroke-miterlimit:4;stroke-dasharray:none;stroke-opacity:1"
       d="M 22.25,20.09375 L 22.25,21 L 26.53125,21 L 26.53125,20.09375 L 22.5,20.09375 L 22.25,20.09375 z M 22.25,23.53125 L 22.25,24.4375 L 26.53125,24.4375 L 26.53125,23.53125 L 22.5,23.53125 L 22.25,23.53125 z M 22.25,27.03125 L 22.25,27.9375 L 26.53125,27.9375 L 26.53125,27.03125 L 22.5,27.03125 L 22.25,27.03125 z M 22.25,30.71875 L 22.25,31.625 L 26.53125,31.625 L 26.53125,30.71875 L 22.5,30.71875 L 22.25,30.71875 z "
       id="path3452" />
  </g>
</svg>
