<?xml version="1.0" encoding="UTF-8" standalone="no"?>
<!-- Created with Inkscape (http://www.inkscape.org/) -->
<svg
   xmlns:dc="http://purl.org/dc/elements/1.1/"
   xmlns:cc="http://creativecommons.org/ns#"
   xmlns:rdf="http://www.w3.org/1999/02/22-rdf-syntax-ns#"
   xmlns:svg="http://www.w3.org/2000/svg"
   xmlns="http://www.w3.org/2000/svg"
   xmlns:xlink="http://www.w3.org/1999/xlink"
   xmlns:sodipodi="http://sodipodi.sourceforge.net/DTD/sodipodi-0.dtd"
   xmlns:inkscape="http://www.inkscape.org/namespaces/inkscape"
   width="40"
   height="40"
   id="svg2193"
   sodipodi:version="0.32"
   inkscape:version="0.46"
   version="1.0"
   sodipodi:docbase="/home/jra/Desktop"
   sodipodi:docname="35.svg"
   inkscape:output_extension="org.inkscape.output.svg.inkscape">
  <defs
     id="defs2195">
    <linearGradient
       id="linearGradient3882">
      <stop
         style="stop-color:#0e0000;stop-opacity:0;"
         offset="0"
         id="stop3884" />
      <stop
         style="stop-color:#000000;stop-opacity:1;"
         offset="1"
         id="stop3886" />
    </linearGradient>
    <linearGradient
       id="linearGradient3795">
      <stop
         style="stop-color:#0e0000;stop-opacity:0;"
         offset="0"
         id="stop3797" />
      <stop
         id="stop3801"
         offset="0.5"
         style="stop-color:#0e0000;stop-opacity:0.49803922;" />
      <stop
         style="stop-color:#0e0000;stop-opacity:0;"
         offset="1"
         id="stop3799" />
    </linearGradient>
    <linearGradient
       id="linearGradient3779">
      <stop
         style="stop-color:#ffffff;stop-opacity:0;"
         offset="0"
         id="stop3781" />
      <stop
         id="stop3785"
         offset="0.72907513"
         style="stop-color:#ffffff;stop-opacity:1;" />
      <stop
         style="stop-color:#000000;stop-opacity:0;"
         offset="1"
         id="stop3783" />
    </linearGradient>
    <linearGradient
       id="linearGradient3710">
      <stop
         style="stop-color:#000000;stop-opacity:1"
         offset="0"
         id="stop3712" />
      <stop
         style="stop-color:#ffffff;stop-opacity:1"
         offset="1"
         id="stop3714" />
    </linearGradient>
    <linearGradient
       id="linearGradient3388">
      <stop
         id="stop3390"
         offset="0"
         style="stop-color:#ffffff;stop-opacity:0.19480519;" />
      <stop
         style="stop-color:#030303;stop-opacity:0;"
         offset="0.6526531"
         id="stop3394" />
      <stop
         id="stop3396"
         offset="0.87857145"
         style="stop-color:#ffffff;stop-opacity:0.24705882;" />
      <stop
         id="stop3392"
         offset="1"
         style="stop-color:#000000;stop-opacity:0;" />
    </linearGradient>
    <linearGradient
       id="linearGradient3239">
      <stop
         style="stop-color:#ffffff;stop-opacity:1;"
         offset="0"
         id="stop3241" />
      <stop
         style="stop-color:#ffffff;stop-opacity:0;"
         offset="1"
         id="stop3243" />
    </linearGradient>
    <linearGradient
       id="linearGradient3220">
      <stop
         id="stop3222"
         offset="0"
         style="stop-color:#000000;stop-opacity:1" />
      <stop
         id="stop3224"
         offset="1"
         style="stop-color:#ffffff;stop-opacity:1;" />
    </linearGradient>
    <linearGradient
       id="linearGradient3291">
      <stop
         id="stop3293"
         offset="0"
         style="stop-color:#000000;stop-opacity:1;" />
      <stop
         id="stop3295"
         offset="1"
         style="stop-color:#000000;stop-opacity:0;" />
    </linearGradient>
    <linearGradient
       id="linearGradient2308">
      <stop
         id="stop2310"
         offset="0"
         style="stop-color:#0e0000;stop-opacity:1;" />
      <stop
         id="stop2312"
         offset="1"
         style="stop-color:#0e0000;stop-opacity:0;" />
    </linearGradient>
    <radialGradient
       inkscape:collect="always"
       xlink:href="#linearGradient3291"
       id="radialGradient2595"
       gradientUnits="userSpaceOnUse"
       gradientTransform="matrix(1,0,0,0.197802,0,92.82166)"
       cx="63.912209"
       cy="115.70919"
       fx="75.857941"
       fy="115.70919"
       r="63.912209" />
    <radialGradient
       inkscape:collect="always"
       xlink:href="#linearGradient3239"
       id="radialGradient3404"
       cx="20.617935"
       cy="11.867081"
       fx="20.617935"
       fy="11.867081"
       r="4.859375"
       gradientTransform="matrix(2.1020449,4.0074247e-2,-7.609536e-3,0.3991488,-20.993115,6.4526458)"
       gradientUnits="userSpaceOnUse" />
    <linearGradient
       inkscape:collect="always"
       xlink:href="#linearGradient3388"
       id="linearGradient3428"
       gradientUnits="userSpaceOnUse"
       x1="-5.75"
       y1="23.84375"
       x2="3.96875"
       y2="23.84375"
       gradientTransform="translate(20,0)" />
    <linearGradient
       inkscape:collect="always"
       xlink:href="#linearGradient3220"
       id="linearGradient3404"
       x1="20.4375"
       y1="9.1333857"
       x2="20.303619"
       y2="7.8919415"
       gradientUnits="userSpaceOnUse" />
    <linearGradient
       inkscape:collect="always"
       xlink:href="#linearGradient3220"
       id="linearGradient3412"
       x1="19.726555"
       y1="8.8759851"
       x2="19.637127"
       y2="7.6875"
       gradientUnits="userSpaceOnUse" />
    <linearGradient
       inkscape:collect="always"
       xlink:href="#linearGradient3220"
       id="linearGradient3596"
       x1="13.34375"
       y1="18.135984"
       x2="18.744247"
       y2="18.135984"
       gradientUnits="userSpaceOnUse" />
    <linearGradient
       inkscape:collect="always"
       xlink:href="#linearGradient3710"
       id="linearGradient3610"
       gradientUnits="userSpaceOnUse"
       x1="14.649699"
       y1="28.335686"
       x2="13.17264"
       y2="28.326532" />
    <linearGradient
       inkscape:collect="always"
       xlink:href="#linearGradient3220"
       id="linearGradient3612"
       gradientUnits="userSpaceOnUse"
       x1="18.018181"
       y1="8.8498821"
       x2="18.043999"
       y2="7.8300462" />
    <linearGradient
       inkscape:collect="always"
       xlink:href="#linearGradient3239"
       id="linearGradient3620"
       x1="17.424643"
       y1="6.3505983"
       x2="23.53174"
       y2="5.9375"
       gradientUnits="userSpaceOnUse" />
    <linearGradient
       inkscape:collect="always"
       xlink:href="#linearGradient3239"
       id="linearGradient3638"
       x1="19.09375"
       y1="9.046875"
       x2="18.703125"
       y2="6.59375"
       gradientUnits="userSpaceOnUse" />
    <linearGradient
       inkscape:collect="always"
       xlink:href="#linearGradient3239"
       id="linearGradient3646"
       x1="18.53125"
       y1="9.5103617"
       x2="19.3125"
       y2="9.5103617"
       gradientUnits="userSpaceOnUse" />
    <linearGradient
       inkscape:collect="always"
       xlink:href="#linearGradient3239"
       id="linearGradient3654"
       x1="20.25"
       y1="9.546875"
       x2="20.394531"
       y2="9.546875"
       gradientUnits="userSpaceOnUse" />
    <radialGradient
       inkscape:collect="always"
       xlink:href="#linearGradient3239"
       id="radialGradient3664"
       cx="-19.379539"
       cy="8.0567083"
       fx="-19.379539"
       fy="8.0567083"
       r="0.40449196"
       gradientTransform="matrix(1.7602789,4.0126613e-2,-6.0413151e-2,2.8805599,15.150087,-14.507795)"
       gradientUnits="userSpaceOnUse" />
    <linearGradient
       inkscape:collect="always"
       xlink:href="#linearGradient3220"
       id="linearGradient3672"
       x1="21.164062"
       y1="7.53125"
       x2="21.195312"
       y2="9.2109375"
       gradientUnits="userSpaceOnUse" />
    <radialGradient
       inkscape:collect="always"
       xlink:href="#linearGradient3239"
       id="radialGradient3680"
       cx="12.796995"
       cy="16.397718"
       fx="12.796995"
       fy="16.397718"
       r="3.647706"
       gradientTransform="matrix(1.6905469,5.1307105e-2,-0.1189305,3.9187081,-6.8867366,-50.445393)"
       gradientUnits="userSpaceOnUse" />
    <radialGradient
       inkscape:collect="always"
       xlink:href="#linearGradient3220"
       id="radialGradient3688"
       cx="14.275018"
       cy="17.055733"
       fx="14.275018"
       fy="17.055733"
       r="3.3429503"
       gradientTransform="matrix(2.7738866,-2.9837069e-2,6.1984686e-2,5.7625685,-25.709513,-79.649193)"
       gradientUnits="userSpaceOnUse" />
    <linearGradient
       inkscape:collect="always"
       xlink:href="#linearGradient3220"
       id="linearGradient3722"
       x1="14.171547"
       y1="30.141169"
       x2="12.609448"
       y2="30.234919"
       gradientUnits="userSpaceOnUse" />
    <linearGradient
       inkscape:collect="always"
       xlink:href="#linearGradient3220"
       id="linearGradient3730"
       x1="13.375"
       y1="29.596411"
       x2="18.892822"
       y2="29.905769"
       gradientUnits="userSpaceOnUse" />
    <linearGradient
       inkscape:collect="always"
       xlink:href="#linearGradient3220"
       id="linearGradient3761"
       x1="16.75"
       y1="31.25695"
       x2="15.630908"
       y2="30.029173"
       gradientUnits="userSpaceOnUse" />
    <linearGradient
       inkscape:collect="always"
       xlink:href="#linearGradient3239"
       id="linearGradient3769"
       x1="17.14542"
       y1="30.758196"
       x2="15.869907"
       y2="30.443312"
       gradientUnits="userSpaceOnUse" />
    <radialGradient
       inkscape:collect="always"
       xlink:href="#linearGradient3779"
       id="radialGradient3777"
       cx="19.125"
       cy="32.482777"
       fx="19.125"
       fy="32.482777"
       r="4.84375"
       gradientTransform="matrix(1.3375865,-4.4275966e-7,1.1834115e-7,0.3575111,-6.4563451,22.519637)"
       gradientUnits="userSpaceOnUse" />
    <radialGradient
       inkscape:collect="always"
       xlink:href="#linearGradient3795"
       id="radialGradient3793"
       cx="18.806574"
       cy="36.130188"
       fx="18.806574"
       fy="36.130188"
       r="4.859375"
       gradientTransform="matrix(2.2796614,-6.9979102e-3,2.8669459e-3,0.9339452,-25.991827,1.7248829)"
       gradientUnits="userSpaceOnUse" />
    <radialGradient
       inkscape:collect="always"
       xlink:href="#linearGradient2308"
       id="radialGradient3811"
       cx="13.129578"
       cy="20.846994"
       fx="13.129578"
       fy="20.846994"
       r="1.75"
       gradientTransform="matrix(4.1572437,-1.3249964e-2,3.7732857e-2,11.838861,-42.36081,-220.03551)"
       gradientUnits="userSpaceOnUse" />
    <linearGradient
       inkscape:collect="always"
       xlink:href="#linearGradient2308"
       id="linearGradient3823"
       x1="19.121929"
       y1="9.9935503"
       x2="18.78125"
       y2="10.99355"
       gradientUnits="userSpaceOnUse" />
    <linearGradient
       inkscape:collect="always"
       xlink:href="#linearGradient2308"
       id="linearGradient3847"
       gradientUnits="userSpaceOnUse"
       gradientTransform="translate(20,0)"
       x1="6.125"
       y1="21.90625"
       x2="-5.75"
       y2="21.78125" />
    <linearGradient
       inkscape:collect="always"
       xlink:href="#linearGradient3291"
       id="linearGradient3868"
       x1="19.59375"
       y1="36.625"
       x2="19.65625"
       y2="38"
       gradientUnits="userSpaceOnUse" />
    <radialGradient
       inkscape:collect="always"
       xlink:href="#linearGradient3239"
       id="radialGradient3876"
       gradientUnits="userSpaceOnUse"
       gradientTransform="matrix(0.9621951,8.9206056e-3,-1.4361358e-3,0.1549044,0.9612255,10.25892)"
       cx="17.359055"
       cy="16.29215"
       fx="17.359055"
       fy="16.29215"
       r="4.859375" />
    <radialGradient
       inkscape:collect="always"
       xlink:href="#linearGradient3882"
       id="radialGradient3880"
       gradientUnits="userSpaceOnUse"
       gradientTransform="matrix(1.4432474,4.7983613e-2,-1.5423577e-2,0.4639084,-7.1696003,4.4421222)"
       cx="17.589157"
       cy="15.011335"
       fx="17.589157"
       fy="15.011335"
       r="4.859375" />
    <radialGradient
       inkscape:collect="always"
       xlink:href="#linearGradient3291"
       id="radialGradient3896"
       cx="-20.65625"
       cy="6.7473946"
       fx="-20.65625"
       fy="6.7473946"
       r="2.34375"
       gradientTransform="matrix(2.3861404,-3.3414086e-2,6.5842337e-3,0.4701884,68.588037,6.4263057)"
       gradientUnits="userSpaceOnUse" />
    <linearGradient
       inkscape:collect="always"
       xlink:href="#linearGradient3220"
       id="linearGradient3927"
       gradientUnits="userSpaceOnUse"
       gradientTransform="matrix(0.4415874,0,0,0.4415874,10.819334,3.3689899)"
       x1="19.804539"
       y1="8.75"
       x2="19.769709"
       y2="7.6875" />
    <linearGradient
       inkscape:collect="always"
       xlink:href="#linearGradient3220"
       id="linearGradient3929"
       gradientUnits="userSpaceOnUse"
       x1="-20.838516"
       y1="7.9760151"
       x2="-16.770445"
       y2="8.9315767" />
    <radialGradient
       inkscape:collect="always"
       xlink:href="#linearGradient3779"
       id="radialGradient3952"
       gradientUnits="userSpaceOnUse"
       gradientTransform="matrix(1.2692308,-0.2928991,-3.0910149e-7,1.2435898,-0.5853343,4.1775404)"
       cx="14.59375"
       cy="5.59375"
       fx="14.59375"
       fy="5.59375"
       r="1.21875" />
    <radialGradient
       inkscape:collect="always"
       xlink:href="#linearGradient3239"
       id="radialGradient3982"
       cx="19.87945"
       cy="10.872603"
       fx="19.87945"
       fy="10.872603"
       r="1.390625"
       gradientTransform="matrix(1,-3.6301891e-6,4.0901647e-7,0.1124998,-5.1328723e-2,10.377493)"
       gradientUnits="userSpaceOnUse" />
    <radialGradient
       inkscape:collect="always"
       xlink:href="#linearGradient3239"
       id="radialGradient3988"
       gradientUnits="userSpaceOnUse"
       gradientTransform="matrix(1,-3.6301891e-6,4.0901647e-7,0.1124998,-2.0179695,11.150891)"
       cx="19.87945"
       cy="10.872603"
       fx="19.87945"
       fy="10.872603"
       r="1.390625" />
  </defs>
  <sodipodi:namedview
     id="base"
     pagecolor="#ffffff"
     bordercolor="#666666"
     borderopacity="1.0"
     inkscape:pageopacity="0.0"
     inkscape:pageshadow="2"
     inkscape:zoom="8"
     inkscape:cx="17.908761"
     inkscape:cy="10.829541"
     inkscape:current-layer="layer1"
     showgrid="false"
     inkscape:grid-bbox="false"
     inkscape:document-units="px"
     width="40px"
     height="40px"
     inkscape:window-width="1838"
     inkscape:window-height="1019"
     inkscape:window-x="52"
     inkscape:window-y="78">
    <inkscape:grid
       id="GridFromPre046Settings"
       type="xygrid"
       originx="0px"
       originy="0px"
       spacingx="1px"
       spacingy="1px"
       color="#0000ff"
       empcolor="#0000ff"
       opacity="0.2"
       empopacity="0.4"
       empspacing="2" />
  </sodipodi:namedview>
  <metadata
     id="metadata2198">
    <rdf:RDF>
      <cc:Work
         rdf:about="">
        <dc:format>image/svg+xml</dc:format>
        <dc:type
           rdf:resource="http://purl.org/dc/dcmitype/StillImage" />
        <dc:creator>
          <cc:Agent>
            <dc:title>Jarle Akselsen</dc:title>
          </cc:Agent>
        </dc:creator>
        <cc:license
           rdf:resource="http://creativecommons.org/licenses/GPL/2.0/" />
      </cc:Work>
      <cc:License
         rdf:about="http://creativecommons.org/licenses/GPL/2.0/">
        <cc:permits
           rdf:resource="http://web.resource.org/cc/Reproduction" />
        <cc:permits
           rdf:resource="http://web.resource.org/cc/Distribution" />
        <cc:requires
           rdf:resource="http://web.resource.org/cc/Notice" />
        <cc:permits
           rdf:resource="http://web.resource.org/cc/DerivativeWorks" />
        <cc:requires
           rdf:resource="http://web.resource.org/cc/ShareAlike" />
        <cc:requires
           rdf:resource="http://web.resource.org/cc/SourceCode" />
      </cc:License>
    </rdf:RDF>
  </metadata>
  <g
     id="layer1"
     inkscape:label="Layer 1"
     inkscape:groupmode="layer">
    <path
       id="path3948"
       d="M 17.96875,5.6334135 C 17.296,5.7886635 16.71875,6.467875 16.71875,7.140625 C 16.71875,7.813375 17.296,8.2261635 17.96875,8.0709135 C 18.6415,7.9156635 19.15625,7.250875 19.15625,6.578125 C 19.15625,5.905375 18.6415,5.4781635 17.96875,5.6334135 z M 17.9375,5.984375 C 18.420499,5.8729138 18.8125,6.1744522 18.8125,6.6574519 C 18.8125,7.1404514 18.4205,7.6229135 17.9375,7.734375 C 17.4545,7.8458367 17.0625,7.5442978 17.0625,7.0612981 C 17.0625,6.5782983 17.4545,6.0958365 17.9375,5.984375 z"
       style="opacity:1;fill:#000000;fill-opacity:1;stroke:none;stroke-width:0.80000001;stroke-miterlimit:4;stroke-dasharray:none;stroke-opacity:1" />
    <path
       style="opacity:0.8;fill:url(#radialGradient3952);fill-opacity:1;stroke:none;stroke-width:0.80000000999999998;stroke-miterlimit:4;stroke-dasharray:none;stroke-opacity:1"
       d="M 17.96875,5.6334135 C 17.296,5.7886635 16.71875,6.467875 16.71875,7.140625 C 16.71875,7.813375 17.296,8.2261635 17.96875,8.0709135 C 18.6415,7.9156635 19.15625,7.250875 19.15625,6.578125 C 19.15625,5.905375 18.6415,5.4781635 17.96875,5.6334135 z M 17.9375,5.984375 C 18.420499,5.8729138 18.8125,6.1744522 18.8125,6.6574519 C 18.8125,7.1404514 18.4205,7.6229135 17.9375,7.734375 C 17.4545,7.8458367 17.0625,7.5442978 17.0625,7.0612981 C 17.0625,6.5782983 17.4545,6.0958365 17.9375,5.984375 z"
       id="path3950" />
    <path
       transform="matrix(0.1320149,0,0,0.1924199,12.307158,14.068569)"
       d="M 127.82442,115.70919 A 63.912209,12.641975 0 1 1 0,115.70919 A 63.912209,12.641975 0 1 1 127.82442,115.70919 z"
       sodipodi:ry="12.641975"
       sodipodi:rx="63.912209"
       sodipodi:cy="115.70919"
       sodipodi:cx="63.912209"
       id="path2593"
       style="opacity:0.38139535;fill:url(#radialGradient2595);fill-opacity:1;fill-rule:nonzero;stroke:none;stroke-width:0;stroke-linecap:round;stroke-linejoin:round;stroke-miterlimit:4;stroke-dasharray:none;stroke-dashoffset:4;stroke-opacity:1"
       sodipodi:type="arc" />
    <path
       style="opacity:1;fill:#9c0f0f;fill-opacity:1;fill-rule:nonzero;stroke:none;stroke-width:0.2;stroke-linecap:round;stroke-linejoin:miter;stroke-miterlimit:4;stroke-dasharray:none;stroke-opacity:1"
       d="M 17.84375,10.15625 C 17.639413,10.44353 17.6875,10.520167 17.6875,10.53125 C 17.6875,10.542886 17.730823,10.551864 17.75,10.5625 C 16.341827,10.747147 15.178528,11.198381 14.625,11.78125 C 14.377677,12.017388 14.25,12.287473 14.25,12.5625 C 14.25,13.024819 14.25,34.609842 14.25,34.875 C 14.25,36.327142 16.440738,37.531251 19.125,37.53125 C 21.809262,37.53125 23.96875,36.327142 23.96875,34.875 C 23.96875,34.609842 23.96875,13.130409 23.96875,12.5625 C 23.96875,12.287473 23.838144,12.017388 23.59375,11.78125 C 23.036297,11.194248 21.913384,10.744578 20.5,10.5625 C 20.519176,10.551864 20.5625,10.542886 20.5625,10.53125 C 20.5625,10.520167 20.540127,10.380002 20.40625,10.15625 L 17.84375,10.15625 z "
       id="path3346" />
    <path
       style="opacity:0.48770500999999999;fill:url(#linearGradient3847);fill-opacity:1;fill-rule:nonzero;stroke:none;stroke-width:0.20000000000000001;stroke-linecap:round;stroke-linejoin:miter;stroke-miterlimit:4;stroke-dasharray:none;stroke-opacity:1"
       d="M 17.84375 10.15625 C 17.639413 10.44353 17.6875 10.520167 17.6875 10.53125 C 17.6875 10.542886 17.730823 10.551864 17.75 10.5625 C 17.817118 10.599725 17.978494 10.634306 18.21875 10.65625 C 18.459006 10.678194 18.778144 10.6875 19.125 10.6875 C 19.471861 10.6875 19.790994 10.678194 20.03125 10.65625 C 20.271506 10.634306 20.432883 10.599725 20.5 10.5625 C 20.519176 10.551864 20.5625 10.542886 20.5625 10.53125 C 20.5625 10.520167 20.540127 10.380002 20.40625 10.15625 L 17.84375 10.15625 z M 14.34375 12.21875 C 14.297824 12.332118 14.25 12.445073 14.25 12.5625 C 14.25 13.024819 14.25 34.609842 14.25 34.875 C 14.25 34.860493 14.272322 34.316041 14.28125 34 C 14.284436 33.887234 14.28125 33.644824 14.28125 33.6875 C 14.28125 33.797511 14.310709 33.896259 14.375 34 C 14.439291 34.103741 14.534053 34.217166 14.65625 34.3125 C 15.389431 34.884504 17.111803 35.281249 19.125 35.28125 C 21.707679 35.28125 23.812406 34.6152 23.96875 33.78125 C 23.96875 31.675757 23.96875 13.865075 23.96875 12.84375 C 23.822772 13.181892 21.715313 13.46875 19.125 13.46875 C 16.440738 13.46875 14.28125 13.16689 14.28125 12.8125 C 14.28125 12.758154 14.28125 12.595827 14.28125 12.5625 C 14.28125 12.443528 14.299641 12.331962 14.34375 12.21875 z M 23.875 35.34375 C 23.833693 35.466114 23.790626 35.601369 23.71875 35.71875 C 23.79119 35.600116 23.833622 35.46886 23.875 35.34375 z M 20.78125 37.34375 C 20.517612 37.397436 20.251958 37.440879 19.96875 37.46875 C 20.251958 37.440879 20.517612 37.397436 20.78125 37.34375 z M 18 37.4375 C 18.365457 37.485823 18.733243 37.53125 19.125 37.53125 C 18.733243 37.53125 18.365457 37.485823 18 37.4375 z "
       id="path3845" />
    <path
       style="opacity:1;color:#000000;fill:#000000;fill-opacity:1;fill-rule:evenodd;stroke:none;stroke-width:1px;stroke-linecap:butt;stroke-linejoin:miter;marker:none;marker-start:none;marker-mid:none;marker-end:none;stroke-miterlimit:4;stroke-dasharray:none;stroke-dashoffset:0;stroke-opacity:1;visibility:visible;display:inline;overflow:visible;enable-background:accumulate"
       d="M 21.84375,3.4375 C 21.736429,3.4375 21.639263,3.442383 21.53125,3.46875 C 21.20721,3.547852 20.90625,3.71875 20.90625,3.71875 L 19.625,4.625 L 17.71875,6.59375 L 17.875,7.5 L 18.0625,7.5 L 18.0625,8.9375 L 17.53125,8.9375 L 17.4375,9 L 17.4375,10.0625 L 17.6875,10.15625 L 20.4375,10.15625 L 20.53125,10.03125 L 20.53125,8.9375 L 20.4375,8.9375 L 20.4375,8.90625 C 20.447014,8.906994 20.459116,8.90625 20.46875,8.90625 C 20.562025,8.90625 20.863025,8.90625 20.9375,8.90625 C 20.952241,8.90625 20.954412,8.877458 20.96875,8.875 C 21.078043,8.875 21.175057,8.800369 21.25,8.6875 C 21.25432,8.679992 21.245866,8.664055 21.25,8.65625 C 21.326328,8.530074 21.375,8.34865 21.375,8.15625 C 21.375,8.048439 21.370219,7.966155 21.34375,7.875 C 21.341859,7.867559 21.345786,7.851053 21.34375,7.84375 L 21.375,7.84375 C 21.910046,7.896981 22.379956,8.029823 22.625,8.4375 L 23.34375,8.4375 L 23.53125,8.21875 C 23.54086,8.069176 23.410404,7.872912 23.03125,7.59375 C 22.201308,7.378635 21.362774,7.180703 20.46875,7.09375 L 20.3125,5.75 L 20.78125,5.15625 L 22.03125,4 C 22.12638,3.928463 22.218507,3.853923 22.25,3.71875 L 22.03125,3.5 C 22.028897,3.459895 21.983211,3.4375 21.84375,3.4375 z M 18.90625,7.5 L 18.9375,7.5 L 19.0625,7.53125 L 18.90625,7.53125 L 18.90625,7.5 z "
       id="path3334" />
    <path
       style="opacity:1;fill:#8c0000;fill-opacity:1;fill-rule:evenodd;stroke:none;stroke-width:1px;stroke-linecap:butt;stroke-linejoin:miter;marker:none;marker-start:none;marker-mid:none;marker-end:none;stroke-miterlimit:4;stroke-dasharray:none;stroke-dashoffset:0;stroke-opacity:1;visibility:visible;display:inline;overflow:visible;enable-background:accumulate"
       d="M 14.28125,34 C 14.272322,34.316041 14.25,34.860493 14.25,34.875 C 14.25,35.579152 14.78828,36.208999 15.625,36.6875 C 15.651046,36.702395 15.660837,36.735433 15.6875,36.75 C 15.947329,36.95625 16.186633,37.155982 16.3125,37.4375 L 16.84375,37.71875 C 17.275224,37.581187 17.686656,37.471038 18,37.4375 C 18.020303,37.440185 18.0421,37.434956 18.0625,37.4375 C 18.409295,37.48075 18.755007,37.53125 19.125,37.53125 C 19.715476,37.53125 20.258963,37.450106 20.78125,37.34375 C 21.004824,37.418328 21.213168,37.520686 21.40625,37.65625 L 22,37.46875 C 22.164998,37.18024 22.458057,36.91351 22.78125,36.625 C 23.525393,36.156479 23.96875,35.537711 23.96875,34.875 C 23.96875,34.865716 23.96875,34.417613 23.96875,34.09375 C 23.812406,34.927701 21.707679,35.6875 19.125,35.6875 C 16.440738,35.687499 14.28125,34.880086 14.28125,34 z"
       id="path3403" />
    <path
       sodipodi:nodetypes="cscsccssc"
       id="path3368"
       d="M 23.982782,17.53125 C 23.982782,17.426434 23.982782,17.426343 23.982782,17.53125 z M 23.982782,17.53125 C 23.982782,17.971294 21.823294,18.3125 19.139032,18.3125 C 18.787015,18.3125 18.469881,18.292916 18.139032,18.28125 C 18.139033,21.896887 18.139032,27.075398 18.139032,30.15625 C 18.455493,30.175375 18.803499,30.1875 19.139032,30.1875 C 21.823294,30.1875 23.982782,29.542078 23.982782,28.75 C 23.982782,25.254201 23.982782,21.294143 23.982782,17.53125 z "
       style="opacity:1;fill:#eeeeec;fill-opacity:1;fill-rule:nonzero;stroke:none;stroke-width:0.2;stroke-linecap:round;stroke-linejoin:miter;stroke-miterlimit:4;stroke-dasharray:none;stroke-opacity:1" />
    <path
       sodipodi:nodetypes="csscsss"
       id="path3386"
       d="M 14.25,34.875 C 14.25,36.327142 16.440738,37.531251 19.125,37.53125 C 21.809262,37.53125 23.96875,36.327142 23.96875,34.875 C 23.96875,34.862002 23.96875,33.891238 23.96875,33.78125 C 23.812406,34.6152 21.707679,35.28125 19.125,35.28125 C 16.440738,35.281249 14.28125,34.567586 14.28125,33.6875 C 14.28125,33.525219 14.25,34.855317 14.25,34.875 z"
       style="opacity:0.51000000999999995;fill:url(#radialGradient3793);fill-opacity:1;fill-rule:nonzero;stroke:none;stroke-width:0.20000000000000001;stroke-linecap:round;stroke-linejoin:miter;stroke-miterlimit:4;stroke-dasharray:none;stroke-opacity:1" />
    <path
       style="opacity:0.35;fill:url(#linearGradient3823);fill-opacity:1;fill-rule:nonzero;stroke:none;stroke-width:0.20000000000000001;stroke-linecap:round;stroke-linejoin:miter;stroke-miterlimit:4;stroke-dasharray:none;stroke-opacity:1"
       d="M 17.838992,10.143349 C 17.634654,10.430629 17.6875,10.520167 17.6875,10.53125 C 17.687499,10.624336 18.332185,10.6875 19.125,10.6875 C 19.917824,10.6875 20.5625,10.624336 20.5625,10.53125 C 20.5625,10.520167 20.544885,10.367101 20.411008,10.143349 L 17.838992,10.143349 z "
       id="path3411"
       sodipodi:nodetypes="cssscc" />
    <path
       style="opacity:1;fill:#dddddd;fill-opacity:1;fill-rule:nonzero;stroke:none;stroke-width:0.20000000000000001;stroke-linecap:round;stroke-linejoin:miter;stroke-miterlimit:4;stroke-opacity:1"
       d="M 17.573885,8.97043 C 17.8989,8.9528359 18.280893,8.9081621 18.546387,9.0778809 L 18.546387,10.017435 C 18.286399,10.225144 17.898134,10.128492 17.573885,10.097591 L 17.573885,8.97043 z "
       id="rect3427"
       sodipodi:nodetypes="ccccc" />
    <path
       style="opacity:1;fill:#bbbbbb;fill-opacity:1;fill-rule:nonzero;stroke:none;stroke-width:0.20000000000000001;stroke-linecap:round;stroke-linejoin:miter;stroke-miterlimit:4;stroke-opacity:1"
       d="M 20.31066,9.0778809 L 20.49139,9.126565 L 20.49139,10.015958 L 20.31066,10.015958 L 20.31066,9.0778809 z "
       id="rect3431"
       sodipodi:nodetypes="ccccc" />
    <path
       style="opacity:1;fill:#bbbbbb;fill-opacity:1;fill-rule:nonzero;stroke:none;stroke-width:0.20000000000000001;stroke-linecap:round;stroke-linejoin:miter;stroke-miterlimit:4;stroke-opacity:1"
       d="M 18.9375,9.0969248 C 18.846186,9.1088853 18.747564,9.0823624 18.65625,9.09375 L 18.65625,10.03125 C 18.747473,10.033437 18.846277,10.019509 18.9375,10.022644 L 18.9375,9.0969248 z "
       id="path3438"
       sodipodi:nodetypes="ccccc" />
    <path
       style="opacity:1;fill:#888888;fill-opacity:1;fill-rule:nonzero;stroke:none;stroke-width:0.20000000000000001;stroke-linecap:round;stroke-linejoin:miter;stroke-miterlimit:4;stroke-opacity:1"
       d="M 19.46875,9 C 19.29614,9.0120523 19.11011,9.0829222 18.9375,9.1055311 L 18.9375,10.014038 C 19.412286,10.105368 19.815312,10.101785 20.25,10.03125 L 20.25,9.0625 C 19.986076,9.0075111 19.732674,8.9815718 19.46875,9 z "
       id="path3443"
       sodipodi:nodetypes="cccccc" />
    <path
       style="opacity:1;fill:url(#linearGradient3646);fill-opacity:1.0;fill-rule:nonzero;stroke:none;stroke-width:0.20000000000000001;stroke-linecap:round;stroke-linejoin:miter;stroke-miterlimit:4;stroke-dasharray:none;stroke-opacity:1"
       d="M 18.53125,8.9375 L 18.53125,9.0625 L 18.53125,10.03125 L 18.53125,10.083224 C 18.53125,10.083224 18.747473,10.033437 18.65625,10.03125 L 18.65625,9.09375 C 18.747564,9.082362 18.846186,9.105709 18.9375,9.09375 C 19.059138,9.077817 19.186926,9.054187 19.3125,9.03125 L 19.3125,8.9375 L 18.53125,8.9375 z "
       id="path3448"
       sodipodi:nodetypes="ccccccsccc" />
    <path
       style="opacity:1;fill:url(#linearGradient3654);fill-opacity:1;fill-rule:nonzero;stroke:none;stroke-width:0.20000000000000001;stroke-linecap:round;stroke-linejoin:miter;stroke-miterlimit:4;stroke-opacity:1"
       d="M 20.25,9.0625 L 20.25,10.03125 L 20.3125,10.03125 L 20.3125,9.0625 L 20.25,9.0625 z "
       id="path3475" />
    <path
       style="opacity:0.52427182999999999;fill:url(#linearGradient3620);fill-opacity:1;fill-rule:evenodd;stroke:none;stroke-width:1px;stroke-linecap:butt;stroke-linejoin:miter;marker:none;marker-start:none;marker-mid:none;marker-end:none;stroke-miterlimit:4;stroke-dasharray:none;stroke-dashoffset:0;stroke-opacity:1;visibility:visible;display:inline;overflow:visible;enable-background:accumulate"
       d="M 21.9375,3.4375 C 21.958528,3.442778 21.988927,3.460569 22,3.46875 L 21.96875,3.4375 L 21.9375,3.4375 z M 22.03125,3.5 C 22.036138,3.583294 21.84375,3.71875 21.84375,3.71875 L 20.5625,4.65625 L 18.75,6.625 L 18.9375,7.5 L 21.375,7.84375 C 21.910046,7.896981 22.379956,8.029823 22.625,8.4375 L 23.34375,8.4375 L 23.53125,8.21875 C 23.54086,8.069176 23.410404,7.872912 23.03125,7.59375 C 22.201308,7.378635 21.362774,7.180703 20.46875,7.09375 L 20.3125,5.75 L 20.78125,5.15625 L 22.03125,4 C 22.12638,3.928463 22.218507,3.853923 22.25,3.71875 L 22.03125,3.5 z"
       id="path3503"
       sodipodi:nodetypes="cccccccccccccccccccc" />
    <path
       id="path3516"
       d="M 17.727031,6.578375 L 18.749397,6.627059 L 20.550708,4.655354 L 19.62571,4.631012 L 17.727031,6.578375 z "
       style="opacity:0.52427183;color:#000000;fill:#888a85;fill-opacity:1;fill-rule:evenodd;stroke:none;stroke-width:1px;stroke-linecap:butt;stroke-linejoin:miter;marker:none;marker-start:none;marker-mid:none;marker-end:none;stroke-miterlimit:4;stroke-dasharray:none;stroke-dashoffset:0;stroke-opacity:1;visibility:visible;display:inline;overflow:visible;enable-background:accumulate" />
    <path
       id="path3518"
       d="M 21.84375,3.4375 C 21.414466,3.437501 20.90625,3.71875 20.90625,3.71875 L 19.625,4.625 L 20.5625,4.65625 L 21.84375,3.71875 C 21.84375,3.71875 22.272861,3.4375 21.84375,3.4375 z "
       style="opacity:0.52427183;color:#000000;fill:#d3d7cf;fill-opacity:1;fill-rule:evenodd;stroke:none;stroke-width:1px;stroke-linecap:butt;stroke-linejoin:miter;marker:none;marker-start:none;marker-mid:none;marker-end:none;stroke-miterlimit:4;stroke-dasharray:none;stroke-dashoffset:0;stroke-opacity:1;visibility:visible;display:inline;overflow:visible;enable-background:accumulate" />
    <path
       style="opacity:0.98999999;color:#000000;fill:#2e3436;fill-opacity:1;fill-rule:evenodd;stroke:none;stroke-width:1.10000002;stroke-linecap:butt;stroke-linejoin:miter;marker:none;stroke-miterlimit:4;stroke-dasharray:none;stroke-dashoffset:0;stroke-opacity:1;visibility:visible;display:inline;overflow:visible;enable-background:accumulate"
       d="M 16.71875,7.59375 C 15.023728,7.6287127 13.775763,7.9581416 12.84375,8.625 C 11.601066,9.5141445 11.023723,10.919503 10.59375,12.65625 C 9.833587,15.726699 10.67551,18.363749 11.59375,20.875 C 12.379432,23.023724 13.212263,25.101463 13.34375,27.375 C 13.481268,27.53743 14.284022,27.449694 14.4375,27.28125 C 14.28572,24.794887 13.397231,22.611937 12.625,20.5 C 11.719465,18.023496 10.975303,15.656729 11.65625,12.90625 C 12.064339,11.2579 12.573274,10.163076 13.5,9.5 C 14.27092,8.9484038 15.469182,8.686712 17.3125,8.71875 C 17.719587,8.7002123 17.743425,7.7560638 17.34375,7.625 C 17.140253,7.6215304 16.910382,7.5897973 16.71875,7.59375 z "
       id="path3263"
       sodipodi:nodetypes="csssccsssccc" />
    <path
       style="opacity:1;color:#000000;fill:url(#linearGradient3596);fill-opacity:1.0;fill-rule:evenodd;stroke:none;stroke-width:1.10000001999999997;stroke-linecap:butt;stroke-linejoin:miter;marker:none;stroke-miterlimit:4;stroke-dasharray:none;stroke-dashoffset:0;stroke-opacity:1;visibility:visible;display:inline;overflow:visible;enable-background:accumulate"
       d="M 16.71875,7.59375 C 16.29427,7.6025056 15.900899,7.641278 15.53125,7.6875 C 15.901172,7.6412797 16.294995,7.6024907 16.71875,7.59375 z"
       id="path3608" />
    <path
       style="opacity:1;color:#000000;fill:url(#linearGradient3596);fill-opacity:1.0;fill-rule:evenodd;stroke:none;stroke-width:1.10000001999999997;stroke-linecap:butt;stroke-linejoin:miter;marker:none;stroke-miterlimit:4;stroke-dasharray:none;stroke-dashoffset:0;stroke-opacity:1;visibility:visible;display:inline;overflow:visible;enable-background:accumulate"
       d="M 14.5,7.875 C 14.201089,7.9544845 13.915223,8.0415205 13.65625,8.15625 C 13.913888,8.0428252 14.202952,7.953897 14.5,7.875 z"
       id="path3604" />
    <path
       style="opacity:1;color:#000000;fill:url(#linearGradient3596);fill-opacity:1.0;fill-rule:evenodd;stroke:none;stroke-width:1.10000001999999997;stroke-linecap:butt;stroke-linejoin:miter;marker:none;stroke-miterlimit:4;stroke-dasharray:none;stroke-dashoffset:0;stroke-opacity:1;visibility:visible;display:inline;overflow:visible;enable-background:accumulate"
       d="M 13.75,23.78125 C 14.08342,24.893003 14.362258,26.048682 14.4375,27.28125 C 14.361939,26.043461 14.091817,24.896373 13.75,23.78125 z"
       id="path3600" />
    <path
       style="opacity:0.52427182999999999;color:#000000;fill:#888888;fill-opacity:1;fill-rule:evenodd;stroke:none;stroke-width:1px;stroke-linecap:butt;stroke-linejoin:miter;marker:none;marker-start:none;marker-mid:none;marker-end:none;stroke-miterlimit:4;stroke-dasharray:none;stroke-dashoffset:0;stroke-opacity:1;visibility:visible;display:inline;overflow:visible;enable-background:accumulate"
       d="M 18.90625,7.53125 L 18.90625,8.9375 L 20.4375,8.9375 L 20.40625,7.71875 L 19.0625,7.53125 L 18.90625,7.53125 z "
       id="path3376" />
    <path
       style="opacity:0.52427182999999999;color:#000000;fill:#dddddd;fill-opacity:1;fill-rule:evenodd;stroke:none;stroke-width:1px;stroke-linecap:butt;stroke-linejoin:miter;marker:none;marker-start:none;marker-mid:none;marker-end:none;stroke-miterlimit:4;stroke-dasharray:none;stroke-dashoffset:0;stroke-opacity:1;visibility:visible;display:inline;overflow:visible;enable-background:accumulate"
       d="M 18.0625,7.5 L 18.0625,8.9375 L 18.90625,8.9375 L 18.90625,7.5 L 18.0625,7.5 z "
       id="path3332" />
    <path
       sodipodi:nodetypes="csssssc"
       id="path3395"
       d="M 20.46875,7.4375 C 20.176968,7.4375 19.9375,7.752446 19.9375,8.15625 C 19.9375,8.560054 20.176968,8.90625 20.46875,8.90625 C 20.562025,8.90625 20.863025,8.90625 20.9375,8.90625 C 21.181776,8.90625 21.374999,8.560053 21.375,8.15625 C 21.375,7.752446 21.181776,7.4375 20.9375,7.4375 C 20.855578,7.4375 20.568004,7.4375 20.46875,7.4375 z "
       style="opacity:1;fill:#000000;fill-opacity:1;fill-rule:nonzero;stroke:none;stroke-width:0.2;stroke-linecap:round;stroke-linejoin:miter;stroke-miterlimit:4;stroke-dasharray:none;stroke-opacity:1" />
    <path
       sodipodi:type="arc"
       style="opacity:1;fill:#888a85;fill-opacity:1;fill-rule:nonzero;stroke:none;stroke-width:0.2;stroke-linecap:round;stroke-linejoin:miter;stroke-miterlimit:4;stroke-dasharray:none;stroke-opacity:1"
       id="path3397"
       sodipodi:cx="-19.045546"
       sodipodi:cy="8.2344732"
       sodipodi:rx="0.40449196"
       sodipodi:ry="0.69710314"
       d="M -18.641054 8.2344732 A 0.40449196 0.69710314 0 1 1  -19.450038,8.2344732 A 0.40449196 0.69710314 0 1 1  -18.641054 8.2344732 z"
       transform="matrix(1.0940374,0,0,1.0493828,41.773779,-0.47549)" />
    <path
       transform="matrix(0.9395848,0,0,0.9012344,38.849365,0.7444312)"
       d="M -18.641054,8.2344732 A 0.40449196,0.69710314 0 1 1 -19.450038,8.2344732 A 0.40449196,0.69710314 0 1 1 -18.641054,8.2344732 z"
       sodipodi:ry="0.69710314"
       sodipodi:rx="0.40449196"
       sodipodi:cy="8.2344732"
       sodipodi:cx="-19.045546"
       id="path3399"
       style="opacity:0.98999999;fill:#ffffff;fill-opacity:1;fill-rule:nonzero;stroke:none;stroke-width:0.2;stroke-linecap:round;stroke-linejoin:miter;stroke-miterlimit:4;stroke-dasharray:none;stroke-opacity:1"
       sodipodi:type="arc" />
    <path
       id="path3401"
       d="M 20.46875,7.4375 C 20.176968,7.4375 19.9375,7.752446 19.9375,8.15625 C 19.9375,8.560054 20.176968,8.90625 20.46875,8.90625 C 20.562025,8.90625 20.863025,8.90625 20.9375,8.90625 C 20.693224,8.90625 20.5,8.560054 20.5,8.15625 C 20.5,7.752446 20.693224,7.4375 20.9375,7.4375 C 20.855578,7.4375 20.568004,7.4375 20.46875,7.4375 z"
       style="opacity:0.67661689;fill:url(#linearGradient3404);fill-opacity:1;fill-rule:nonzero;stroke:none;stroke-width:0.2;stroke-linecap:round;stroke-linejoin:miter;stroke-miterlimit:4;stroke-dasharray:none;stroke-opacity:1" />
    <path
       style="opacity:0.52427182999999999;color:#000000;fill:url(#linearGradient3412);fill-opacity:1;fill-rule:evenodd;stroke:none;stroke-width:1px;stroke-linecap:butt;stroke-linejoin:miter;marker:none;marker-start:none;marker-mid:none;marker-end:none;stroke-miterlimit:4;stroke-dasharray:none;stroke-dashoffset:0;stroke-opacity:1;visibility:visible;display:inline;overflow:visible;enable-background:accumulate"
       d="M 19.40625,7.6875 C 19.035813,7.8580258 19.019235,8.5105047 19.375,8.75 L 20.15625,8.75 C 20.025024,8.6168502 19.9375,8.3985321 19.9375,8.15625 C 19.9375,7.9714321 19.98072,7.816316 20.0625,7.6875 L 19.40625,7.6875 z "
       id="path3415" />
    <path
       style="opacity:1;fill:#d3d7cf;fill-opacity:1;fill-rule:nonzero;stroke:none;stroke-width:0.2;stroke-linecap:round;stroke-linejoin:miter;stroke-miterlimit:4;stroke-dasharray:none;stroke-opacity:1"
       d="M 20.9375 7.4375 C 20.693224 7.4375 20.5 7.7524465 20.5 8.15625 C 20.5 8.5600535 20.693223 8.9062497 20.9375 8.90625 C 21.181776 8.90625 21.375001 8.5600534 21.375 8.15625 C 21.375 7.7524465 21.181775 7.4375002 20.9375 7.4375 z M 20.96875 7.53125 C 21.17854 7.5312501 21.34375 7.8094542 21.34375 8.15625 C 21.34375 8.5030458 21.17854 8.78125 20.96875 8.78125 C 20.75896 8.7812503 20.5625 8.5030458 20.5625 8.15625 C 20.5625 7.8094541 20.75896 7.53125 20.96875 7.53125 z "
       id="path3356" />
    <path
       style="opacity:0.52238806;fill:#bf0303;fill-opacity:1;fill-rule:nonzero;stroke:none;stroke-width:0.2;stroke-linecap:round;stroke-linejoin:miter;stroke-miterlimit:4;stroke-dasharray:none;stroke-opacity:1"
       d="M 20.75 7.84375 C 20.707663 7.84375 20.661953 7.8610561 20.625 7.875 C 20.62048 7.8894071 20.597598 7.891219 20.59375 7.90625 C 20.579246 7.9629052 20.566356 8.0300621 20.5625 8.09375 C 20.615181 8.0602769 20.657972 8.03125 20.71875 8.03125 C 20.863669 8.0312498 20.990198 8.1339606 21.0625 8.28125 L 21.125 8.21875 C 21.085243 8.0008221 20.940474 7.8437502 20.75 7.84375 z "
       id="path3457" />
    <path
       style="opacity:1;fill:#00892c;fill-opacity:1;fill-rule:nonzero;stroke:none;stroke-width:0.2;stroke-linecap:round;stroke-linejoin:miter;stroke-miterlimit:4;stroke-dasharray:none;stroke-opacity:1"
       d="M 20.6875 7.84375 L 20.6875 8.03125 C 20.697052 8.0296502 20.708271 8.03125 20.71875 8.03125 C 20.811403 8.0312499 20.869247 8.0874739 20.9375 8.15625 L 21.03125 8.03125 C 20.962404 7.9221302 20.875674 7.8437501 20.75 7.84375 C 20.730077 7.84375 20.707653 7.8382389 20.6875 7.84375 z "
       id="path3469" />
    <path
       style="opacity:1;fill:#2e3436;fill-opacity:1;fill-rule:nonzero;stroke:none;stroke-width:0.2;stroke-linecap:round;stroke-linejoin:miter;stroke-miterlimit:4;stroke-dasharray:none;stroke-opacity:1"
       d="M 20.90625,7.7468252 L 20.8125,8.4968252 C 20.764994,8.4968252 20.749999,8.5335677 20.75,8.5905752 C 20.75,8.6095777 20.746019,8.6345567 20.75,8.6530752 C 20.75199,8.6623345 20.746771,8.6762838 20.75,8.6843252 C 20.765672,8.7000719 20.795451,8.7036482 20.8125,8.7155752 C 20.860006,8.7155752 20.906251,8.6475827 20.90625,8.5905752 C 20.90625,8.5506699 20.87138,8.5452692 20.84375,8.5280752 L 20.9375,7.7780752 L 20.90625,7.7468252 z "
       id="path3478" />
    <path
       style="opacity:0.98999999000000005;fill:url(#linearGradient3672);fill-opacity:1;fill-rule:nonzero;stroke:none;stroke-width:0.20000000000000001;stroke-linecap:round;stroke-linejoin:miter;stroke-miterlimit:4;stroke-dasharray:none;stroke-opacity:1"
       d="M 20.96875 7.53125 C 20.938005 7.53125 20.903636 7.5510903 20.875 7.5625 C 21.046484 7.6427129 21.1875 7.8752258 21.1875 8.15625 C 21.1875 8.4163469 21.058085 8.654584 20.90625 8.75 C 20.9274 8.7560417 20.946561 8.78125 20.96875 8.78125 C 21.17854 8.78125 21.34375 8.5030458 21.34375 8.15625 C 21.34375 7.8094542 21.17854 7.5312501 20.96875 7.53125 z "
       id="path3492" />
    <path
       style="opacity:1;fill:#2e3436;fill-opacity:1;fill-rule:nonzero;stroke:none;stroke-width:0.2;stroke-linecap:round;stroke-linejoin:miter;stroke-miterlimit:4;stroke-dasharray:none;stroke-opacity:1"
       d="M 20.9375,18.75 C 20.378795,18.7913 19.763993,18.8125 19.125,18.8125 C 18.945937,18.8125 18.788216,18.795237 18.625,18.78125 L 18.625,22 C 18.790257,22.005931 18.949442,22.03125 19.125,22.03125 C 19.798575,22.03125 20.416736,21.990322 21,21.9375 L 21,18.75 C 20.977253,18.751756 20.960421,18.748306 20.9375,18.75 z M 20.0625,19.28125 L 20.6875,21.53125 L 20.25,21.5625 L 20.09375,21 L 19.5,21.03125 L 19.34375,21.59375 L 18.90625,21.59375 L 19.53125,19.3125 L 20.0625,19.28125 z M 19.8125,19.6875 L 19.59375,20.625 L 20,20.625 L 19.8125,19.6875 z M 20.9375,22.59375 C 20.374094,22.643646 19.771479,22.65625 19.125,22.65625 C 18.945937,22.65625 18.788289,22.638635 18.625,22.625 L 18.625,25.9375 C 18.790726,25.943341 18.95056,25.96875 19.125,25.96875 C 19.794384,25.96875 20.418448,25.930867 21,25.875 L 21,22.59375 C 20.977635,22.595817 20.960036,22.591754 20.9375,22.59375 z M 19.03125,23.21875 L 19.78125,23.21875 C 20.035233,23.218753 20.216246,23.246851 20.34375,23.34375 C 20.472272,23.439636 20.562498,23.558237 20.5625,23.75 C 20.562499,23.896883 20.512979,24.01113 20.4375,24.09375 C 20.362016,24.176374 20.239612,24.236741 20.09375,24.25 C 20.268174,24.267341 20.412277,24.337539 20.5,24.4375 C 20.588742,24.537463 20.624999,24.664227 20.625,24.84375 C 20.624999,25.064076 20.570101,25.213557 20.4375,25.3125 C 20.304893,25.411442 20.080116,25.5 19.78125,25.5 L 19.03125,25.5 L 19.03125,23.21875 z M 19.46875,23.5625 L 19.46875,24.09375 L 19.78125,24.09375 C 19.89549,24.093751 19.983308,24.040801 20.03125,24 C 20.08021,23.9592 20.093748,23.906345 20.09375,23.8125 C 20.093749,23.71866 20.081229,23.635573 20.03125,23.59375 C 19.982286,23.550912 19.893451,23.562502 19.78125,23.5625 L 19.46875,23.5625 z M 19.46875,24.46875 L 19.46875,25.15625 L 19.78125,25.15625 C 19.92507,25.156249 20.036628,25.080211 20.09375,25.03125 C 20.151891,24.982287 20.156248,24.902634 20.15625,24.78125 C 20.156249,24.657828 20.153932,24.554061 20.09375,24.5 C 20.033568,24.445938 19.919972,24.46875 19.78125,24.46875 L 19.46875,24.46875 z M 20.9375,26.4375 C 20.374094,26.493234 19.771479,26.53125 19.125,26.53125 C 18.945937,26.53125 18.788289,26.513409 18.625,26.5 L 18.625,29.75 C 18.790662,29.755221 18.951679,29.75 19.125,29.75 C 19.794618,29.75 20.420268,29.730816 21,29.65625 L 21,26.4375 C 20.977635,26.439808 20.960036,26.435271 20.9375,26.4375 z M 20.03125,27.0625 C 20.117948,27.062502 20.201685,27.075391 20.28125,27.09375 C 20.360812,27.112113 20.430638,27.150782 20.5,27.1875 L 20.5,27.6875 C 20.422477,27.616099 20.35469,27.563892 20.28125,27.53125 C 20.208826,27.49759 20.140021,27.468752 20.0625,27.46875 C 19.897255,27.468753 19.709662,27.55592 19.625,27.6875 C 19.541359,27.818065 19.499998,28.023185 19.5,28.28125 C 19.499998,28.538296 19.541358,28.743418 19.625,28.875 C 19.709663,29.005564 19.897256,29.03125 20.0625,29.03125 C 20.14002,29.03125 20.208826,29.001391 20.28125,28.96875 C 20.35469,28.935089 20.422477,28.883903 20.5,28.8125 L 20.5,29.3125 C 20.428597,29.34922 20.35979,29.38789 20.28125,29.40625 C 20.202707,29.424609 20.117949,29.4375 20.03125,29.4375 C 19.723199,29.4375 19.412184,29.359234 19.25,29.15625 C 19.087816,28.953266 19.03125,28.664779 19.03125,28.28125 C 19.031248,27.896702 19.087817,27.609237 19.25,27.40625 C 19.412183,27.203268 19.7232,27.062502 20.03125,27.0625 z "
       id="path4863" />
    <path
       style="opacity:1;fill:#babdb6;fill-opacity:1;fill-rule:nonzero;stroke:none;stroke-width:0.2;stroke-linecap:round;stroke-linejoin:miter;stroke-miterlimit:4;stroke-dasharray:none;stroke-opacity:1"
       d="M 23.96875,17.53125 C 23.96875,17.59352 23.925605,17.661125 23.84375,17.71875 C 23.912685,17.767765 23.949018,17.823083 23.96875,17.875 C 23.96875,17.759351 23.96875,17.646548 23.96875,17.53125 z M 23.96875,18 C 23.824757,18.330188 22.640614,18.623344 21,18.75 L 21,21.9375 C 22.353706,21.814904 23.416638,21.578081 23.8125,21.28125 C 23.896795,21.346955 23.941515,21.423931 23.96875,21.5 C 23.96875,20.308365 23.96875,19.178719 23.96875,18 z M 23.96875,21.65625 C 23.855936,22.071637 22.655013,22.440759 21,22.59375 L 21,25.875 C 22.387239,25.741734 23.464167,25.472134 23.84375,25.125 C 23.889372,25.168666 23.941093,25.210154 23.96875,25.25 C 23.96875,24.058004 23.96875,22.879434 23.96875,21.65625 z M 23.96875,25.4375 C 23.855936,25.880838 22.655013,26.266679 21,26.4375 L 21,29.65625 C 22.656262,29.443219 23.852941,28.937283 23.96875,28.375 C 23.96875,27.451732 23.96875,26.409521 23.96875,25.4375 z "
       id="path4871"
       sodipodi:nodetypes="csscccccccccccccccccc" />
    <path
       style="opacity:0.25;fill:url(#radialGradient3404);fill-opacity:1.0;fill-rule:nonzero;stroke:none;stroke-width:0.2;stroke-linecap:round;stroke-linejoin:miter;stroke-miterlimit:4;stroke-dasharray:none;stroke-opacity:1"
       d="M 17.75,10.5625 C 15.751622,10.820004 14.28125,11.610725 14.28125,12.5625 C 14.28125,12.595827 14.28125,12.758154 14.28125,12.8125 C 14.28125,13.16689 16.440738,13.46875 19.125,13.46875 C 21.809262,13.46875 24,13.166889 24,12.8125 C 24,12.762264 24,12.592915 24,12.5625 C 24,11.608583 22.512902,10.818148 20.5,10.5625 C 20.365766,10.63695 19.818721,10.6875 19.125,10.6875 C 18.431287,10.6875 17.884236,10.63695 17.75,10.5625 z "
       id="path2392"
       sodipodi:nodetypes="cssssscsc" />
    <path
       style="opacity:1;fill:url(#linearGradient3428);fill-opacity:1;fill-rule:nonzero;stroke:none;stroke-width:0.20000000000000001;stroke-linecap:round;stroke-linejoin:miter;stroke-miterlimit:4;stroke-dasharray:none;stroke-opacity:1"
       d="M 17.84375 10.15625 C 17.639413 10.44353 17.6875 10.520167 17.6875 10.53125 C 17.6875 10.542886 17.730823 10.551864 17.75 10.5625 C 17.817118 10.599725 17.978494 10.634306 18.21875 10.65625 C 18.459006 10.678194 18.778144 10.6875 19.125 10.6875 C 19.471861 10.6875 19.790994 10.678194 20.03125 10.65625 C 20.271506 10.634306 20.432883 10.599725 20.5 10.5625 C 20.519176 10.551864 20.5625 10.542886 20.5625 10.53125 C 20.5625 10.520167 20.540127 10.380002 20.40625 10.15625 L 17.84375 10.15625 z M 14.34375 12.21875 C 14.297824 12.332118 14.25 12.445073 14.25 12.5625 C 14.25 13.024819 14.25 34.609842 14.25 34.875 C 14.25 34.860493 14.272322 34.316041 14.28125 34 C 14.284436 33.887234 14.28125 33.644824 14.28125 33.6875 C 14.28125 33.797511 14.310709 33.896259 14.375 34 C 14.439291 34.103741 14.534053 34.217166 14.65625 34.3125 C 15.389431 34.884504 17.111803 35.281249 19.125 35.28125 C 21.707679 35.28125 23.812406 34.6152 23.96875 33.78125 C 23.96875 31.675757 23.96875 13.865075 23.96875 12.84375 C 23.822772 13.181892 21.715313 13.46875 19.125 13.46875 C 16.440738 13.46875 14.28125 13.16689 14.28125 12.8125 C 14.28125 12.758154 14.28125 12.595827 14.28125 12.5625 C 14.28125 12.443528 14.299641 12.331962 14.34375 12.21875 z M 23.875 35.34375 C 23.833693 35.466114 23.790626 35.601369 23.71875 35.71875 C 23.79119 35.600116 23.833622 35.46886 23.875 35.34375 z M 20.78125 37.34375 C 20.517612 37.397436 20.251958 37.440879 19.96875 37.46875 C 20.251958 37.440879 20.517612 37.397436 20.78125 37.34375 z M 18 37.4375 C 18.365457 37.485823 18.733243 37.53125 19.125 37.53125 C 18.733243 37.53125 18.365457 37.485823 18 37.4375 z "
       id="path3406" />
    <path
       style="opacity:1;color:#000000;fill:#000000;fill-opacity:1;fill-rule:evenodd;stroke:none;stroke-width:1.10000001999999997;stroke-linecap:butt;stroke-linejoin:miter;marker:none;stroke-miterlimit:4;stroke-dasharray:none;stroke-dashoffset:0;stroke-opacity:1;visibility:visible;display:inline;overflow:visible;enable-background:accumulate"
       d="M 18.5625,7.65625 C 15.875373,7.4492809 14.086434,7.7358555 12.84375,8.625 C 11.601066,9.5141445 11.023723,10.919503 10.59375,12.65625 C 9.833587,15.726699 10.67551,18.363749 11.59375,20.875 C 12.51199,23.386251 13.490005,25.781668 13.34375,28.53125 C 13.345408,28.75503 14.122405,28.678391 14.46875,28.59375 C 14.630896,25.545426 13.530535,22.976504 12.625,20.5 C 11.719465,18.023496 10.975303,15.656729 11.65625,12.90625 C 12.064339,11.2579 12.573274,10.163076 13.5,9.5 C 14.426726,8.8369243 15.900131,8.5521586 18.46875,8.75 C 18.87539,8.4644461 18.765412,8.0701307 18.5625,7.65625 z "
       id="path3253"
       sodipodi:nodetypes="csssccssscc" />
    <path
       style="opacity:0.53233834000000002;color:#000000;fill:url(#radialGradient3680);fill-opacity:1;fill-rule:evenodd;stroke:none;stroke-width:1.10000001999999997;stroke-linecap:butt;stroke-linejoin:miter;marker:none;stroke-miterlimit:4;stroke-dasharray:none;stroke-dashoffset:0;stroke-opacity:1;visibility:visible;display:inline;overflow:visible;enable-background:accumulate"
       d="M 16.71875,7.59375 C 15.023728,7.628713 13.775763,7.958142 12.84375,8.625 C 11.601066,9.514145 11.023723,10.919503 10.59375,12.65625 C 9.833587,15.726699 10.67551,18.363749 11.59375,20.875 C 12.379432,23.023724 13.212263,25.101463 13.34375,27.375 C 13.405633,27.448093 13.600981,27.450282 13.8125,27.4375 C 13.688457,25.031119 12.792051,22.884895 12,20.71875 C 11.086958,18.221714 10.303493,15.689552 11.03125,12.75 C 11.452271,11.049416 12.011572,9.796662 13.125,9 C 14.094456,8.306351 15.511509,8.001276 17.59375,8.0625 C 17.565622,7.864 17.50173,7.676806 17.34375,7.625 C 17.140253,7.62153 16.910382,7.589797 16.71875,7.59375 z "
       id="path3278" />
    <path
       style="opacity:0.4262295;fill:url(#radialGradient3688);fill-opacity:1;fill-rule:evenodd;stroke:none;stroke-width:1.10000002;stroke-linecap:butt;stroke-linejoin:miter;marker:none;stroke-miterlimit:4;stroke-dasharray:none;stroke-dashoffset:0;stroke-opacity:1;visibility:visible;display:inline;overflow:visible;enable-background:accumulate"
       d="M 16.71875,8.21875 C 15.112865,8.259413 14.010737,8.589581 13.21875,9.15625 C 12.162768,9.911808 11.635791,11.127988 11.21875,12.8125 C 10.505396,15.693876 11.276768,18.165532 12.1875,20.65625 C 12.974423,22.808369 13.871219,24.973523 14,27.40625 C 14.189503,27.375904 14.374881,27.349975 14.4375,27.28125 C 14.28572,24.794887 13.397231,22.611937 12.625,20.5 C 11.719465,18.023496 10.975303,15.656729 11.65625,12.90625 C 12.064339,11.2579 12.573274,10.163076 13.5,9.5 C 14.27092,8.948404 15.469182,8.686712 17.3125,8.71875 C 17.507432,8.709873 17.610242,8.492448 17.625,8.25 C 17.322774,8.240519 16.991087,8.211854 16.71875,8.21875 z"
       id="path3273" />
    <path
       style="opacity:1;color:#000000;fill:url(#linearGradient3612);fill-opacity:1;fill-rule:evenodd;stroke:none;stroke-width:1.10000001999999997;stroke-linecap:butt;stroke-linejoin:miter;marker:none;stroke-miterlimit:4;stroke-dasharray:none;stroke-dashoffset:0;stroke-opacity:1;visibility:visible;display:inline;overflow:visible;enable-background:accumulate"
       d="M 17.34375,7.625 C 17.733433,7.7527872 17.721952,8.6566117 17.34375,8.71875 C 17.707723,8.7257412 18.048562,8.717636 18.46875,8.75 C 18.87539,8.4644461 18.765412,8.0701307 18.5625,7.65625 C 18.118565,7.622057 17.740242,7.6317601 17.34375,7.625 z"
       id="path3602" />
    <path
       transform="matrix(0.9974012,-7.2046978e-2,7.2046978e-2,0.9974012,37.869517,-1.2639378)"
       d="M -25.28505 28.872168 A 0.70570934 0.16351803 0 1 1  -26.696468,28.872168 A 0.70570934 0.16351803 0 1 1  -25.28505 28.872168 z"
       sodipodi:ry="0.16351803"
       sodipodi:rx="0.70570934"
       sodipodi:cy="28.872168"
       sodipodi:cx="-25.990759"
       id="path3300"
       style="opacity:0.17910449;fill:#f3c300;fill-opacity:1;fill-rule:nonzero;stroke:none;stroke-width:0.2;stroke-linecap:round;stroke-linejoin:miter;stroke-miterlimit:4;stroke-dasharray:none;stroke-opacity:1"
       sodipodi:type="arc" />
    <path
       sodipodi:type="arc"
       style="opacity:0.17910449;fill:#f3c300;fill-opacity:1;fill-rule:nonzero;stroke:none;stroke-width:0.2;stroke-linecap:round;stroke-linejoin:miter;stroke-miterlimit:4;stroke-dasharray:none;stroke-opacity:1"
       id="path3302"
       sodipodi:cx="-25.990759"
       sodipodi:cy="28.872168"
       sodipodi:rx="0.70570934"
       sodipodi:ry="0.16351803"
       d="M -25.28505 28.872168 A 0.70570934 0.16351803 0 1 1  -26.696468,28.872168 A 0.70570934 0.16351803 0 1 1  -25.28505 28.872168 z"
       transform="matrix(0.7535332,-5.4431268e-2,5.4431268e-2,0.7535332,32.229153,8.4725102)" />
    <path
       transform="matrix(0.7535332,-5.4431268e-2,5.4431268e-2,0.7535332,32.057029,6.4930815)"
       d="M -25.28505 28.872168 A 0.70570934 0.16351803 0 1 1  -26.696468,28.872168 A 0.70570934 0.16351803 0 1 1  -25.28505 28.872168 z"
       sodipodi:ry="0.16351803"
       sodipodi:rx="0.70570934"
       sodipodi:cy="28.872168"
       sodipodi:cx="-25.990759"
       id="path3304"
       style="opacity:0.17910449;fill:#f3c300;fill-opacity:1;fill-rule:nonzero;stroke:none;stroke-width:0.2;stroke-linecap:round;stroke-linejoin:miter;stroke-miterlimit:4;stroke-dasharray:none;stroke-opacity:1"
       sodipodi:type="arc" />
    <path
       style="opacity:1;fill:#000000;fill-opacity:1.0;fill-rule:evenodd;stroke:none;stroke-width:1px;stroke-linecap:butt;stroke-linejoin:miter;marker:none;marker-start:none;marker-mid:none;marker-end:none;stroke-miterlimit:4;stroke-dasharray:none;stroke-dashoffset:0;stroke-opacity:1;visibility:visible;display:inline;overflow:visible;enable-background:accumulate"
       d="M 14.375 29 L 14 29.1875 L 14.09375 29.34375 C 13.753316 29.407733 13.489331 29.524517 13.375 29.75 L 13.40625 31.15625 C 13.623855 30.992481 13.814561 30.883207 14.15625 30.8125 L 14.15625 31.40625 L 14.96875 31.1875 L 15.40625 31.3125 L 16 31.15625 L 15.9375 31.0625 C 15.947418 31.064905 15.958834 31.060102 15.96875 31.0625 L 15.96875 30 L 16.03125 29.90625 L 16.03125 29.75 C 15.352866 29.568359 14.783202 29.316732 14.375 29 z "
       id="path3375" />
    <path
       style="opacity:1;fill:url(#linearGradient3722);fill-opacity:1;fill-rule:nonzero;stroke:none;stroke-width:0.20000000000000001;stroke-linecap:round;stroke-linejoin:miter;stroke-miterlimit:4;stroke-dasharray:none;stroke-opacity:1"
       d="M 14.46875,28.6875 C 14.338229,28.675003 14.161825,28.693069 13.96875,28.71875 C 13.582599,28.770113 13.269348,28.879275 13.28125,28.96875 C 13.290558,29.038728 13.307408,29.398257 13.3125,29.46875 C 13.317347,29.535843 13.496749,29.642489 13.5,29.6875 C 13.503071,29.730009 13.6862,31.669496 13.6875,31.6875 C 13.692413,31.755515 13.92521,31.802454 14.21875,31.78125 C 14.51229,31.760046 14.754913,31.661765 14.75,31.59375 C 14.74652,31.545573 14.668232,29.624583 14.665775,29.590575 C 14.663827,29.563604 14.722401,29.394304 14.71875,29.34375 C 14.715092,29.29311 14.694151,28.831251 14.6875,28.78125 C 14.681549,28.736513 14.599271,28.699997 14.46875,28.6875 z "
       id="path3306"
       sodipodi:nodetypes="cssssssssssc" />
    <path
       sodipodi:type="arc"
       style="opacity:0.31840796;fill:#f3c300;fill-opacity:1;fill-rule:nonzero;stroke:none;stroke-width:0.2;stroke-linecap:round;stroke-linejoin:miter;stroke-miterlimit:4;stroke-dasharray:none;stroke-opacity:1"
       id="path3298"
       sodipodi:cx="-25.990759"
       sodipodi:cy="28.872168"
       sodipodi:rx="0.70570934"
       sodipodi:ry="0.16351803"
       d="M -25.28505 28.872168 A 0.70570934 0.16351803 0 1 1  -26.696468,28.872168 A 0.70570934 0.16351803 0 1 1  -25.28505 28.872168 z"
       transform="matrix(0.9912696,-0.1318506,0.1318506,0.9912696,35.949067,-3.1748307)" />
    <path
       style="opacity:0.80099498999999996;color:#000000;fill:#000000;fill-opacity:1.0;fill-rule:evenodd;stroke:none;stroke-width:1px;stroke-linecap:butt;stroke-linejoin:miter;marker:none;marker-start:none;marker-mid:none;marker-end:none;stroke-miterlimit:4;stroke-dasharray:none;stroke-dashoffset:0;stroke-opacity:1;visibility:visible;display:inline;overflow:visible;enable-background:accumulate"
       d="M 14.46875,28.5625 C 14.468241,28.573168 14.469318,28.583066 14.46875,28.59375 C 14.165698,28.667811 13.529568,28.727839 13.375,28.59375 L 13.375,28.911513 L 13.53125,28.974013 L 14.125,28.9375 L 14.555592,28.815675 L 14.53125,28.5625 L 14.46875,28.5625 z "
       id="path3292"
       sodipodi:nodetypes="csccccccc" />
    <path
       style="opacity:0.80099498999999985;color:#000000;fill:#eeeeee;fill-opacity:1;fill-rule:evenodd;stroke:none;stroke-width:1px;stroke-linecap:butt;stroke-linejoin:miter;marker:none;marker-start:none;marker-mid:none;marker-end:none;stroke-miterlimit:4;stroke-dasharray:none;stroke-dashoffset:0;stroke-opacity:1;visibility:visible;display:inline;overflow:visible;enable-background:accumulate"
       d="M 13.53125,28.71875 L 13.375,28.65625 L 13.375,28.90625 L 13.53125,28.96875 L 13.53125,28.71875 z "
       id="path3361"
       sodipodi:nodetypes="ccccc" />
    <path
       id="path3371"
       d="M 14.125,28.6875 L 13.53125,28.71875 L 13.53125,28.96875 L 14.125,28.9375 L 14.125,28.6875 z "
       style="opacity:0.80099498999999985;color:#000000;fill:#bbbbbb;fill-opacity:1;fill-rule:evenodd;stroke:none;stroke-width:1px;stroke-linecap:butt;stroke-linejoin:miter;marker:none;marker-start:none;marker-mid:none;marker-end:none;stroke-miterlimit:4;stroke-dasharray:none;stroke-dashoffset:0;stroke-opacity:1;visibility:visible;display:inline;overflow:visible;enable-background:accumulate"
       sodipodi:nodetypes="ccccc" />
    <path
       style="opacity:0.80099498999999985;color:#000000;fill:#555555;fill-opacity:1;fill-rule:evenodd;stroke:none;stroke-width:1px;stroke-linecap:butt;stroke-linejoin:miter;marker:none;marker-start:none;marker-mid:none;marker-end:none;stroke-miterlimit:4;stroke-dasharray:none;stroke-dashoffset:0;stroke-opacity:1;visibility:visible;display:inline;overflow:visible;enable-background:accumulate"
       d="M 14.53125,28.59375 L 14.125,28.6875 L 14.125,28.9375 L 14.5625,28.8125 L 14.53125,28.59375 z "
       id="path3373"
       sodipodi:nodetypes="ccccc" />
    <path
       style="opacity:1;color:#000000;fill:#2e3436;fill-opacity:1;fill-rule:evenodd;stroke:none;stroke-width:1px;stroke-linecap:butt;stroke-linejoin:miter;marker:none;marker-start:none;marker-mid:none;marker-end:none;stroke-miterlimit:4;stroke-dasharray:none;stroke-dashoffset:0;stroke-opacity:1;visibility:visible;display:inline;overflow:visible;enable-background:accumulate"
       d="M 13.5 29.71875 L 13.375 29.75 L 13.40625 31.15625 L 13.625 31.125 C 13.572271 30.564469 13.506017 29.789282 13.5 29.71875 z M 16.03125 29.75 L 15.40625 29.90625 L 14.96875 29.8125 C 14.692179 29.913211 14.401571 29.996236 14.125 29.96875 L 14.15625 31.40625 C 14.485901 31.431363 14.735447 31.322967 14.96875 31.1875 L 15.40625 31.3125 L 16 31.15625 L 15.9375 31.0625 C 15.947418 31.064905 15.958834 31.060102 15.96875 31.0625 L 15.96875 30 L 16.03125 29.90625 L 16.03125 29.75 z "
       id="path3381" />
    <path
       style="opacity:1;color:#000000;fill:url(#linearGradient3730);fill-opacity:1;fill-rule:evenodd;stroke:none;stroke-width:1px;stroke-linecap:butt;stroke-linejoin:miter;marker:none;marker-start:none;marker-mid:none;marker-end:none;stroke-miterlimit:4;stroke-dasharray:none;stroke-dashoffset:0;stroke-opacity:1;visibility:visible;display:inline;overflow:visible;enable-background:accumulate"
       d="M 14.71875,29.21875 C 14.720914,29.261384 14.71794,29.332531 14.71875,29.34375 C 14.721005,29.374975 14.706578,29.438765 14.6875,29.5 C 14.799304,29.533633 14.870408,29.597974 14.875,29.65625 C 14.885049,29.783797 14.576178,29.912344 14.1875,29.9375 C 14.175541,29.938274 14.168079,29.936929 14.15625,29.9375 L 14.125,29.96875 C 14.401571,29.996236 14.692179,29.913211 14.96875,29.8125 L 15.0625,29.84375 L 15.40625,29.90625 L 16.03125,29.75 C 15.522462,29.613769 15.082977,29.431656 14.71875,29.21875 z M 13.46875,29.65625 C 13.442141,29.687729 13.393823,29.712878 13.375,29.75 L 13.46875,29.71875 C 13.469656,29.715588 13.498724,29.721897 13.5,29.71875 C 13.499867,29.717196 13.500048,29.688158 13.5,29.6875 C 13.499729,29.683749 13.506657,29.661818 13.5,29.65625 C 13.493343,29.650682 13.473102,29.661479 13.46875,29.65625 z "
       id="path3387" />
    <path
       style="opacity:0.22885575000000000;fill:url(#linearGradient3769);fill-opacity:1;fill-rule:evenodd;stroke:none;stroke-width:1px;stroke-linecap:butt;stroke-linejoin:miter;marker:none;marker-start:none;marker-mid:none;marker-end:none;stroke-miterlimit:4;stroke-dasharray:none;stroke-dashoffset:0;stroke-opacity:1;visibility:visible;display:inline;overflow:visible;enable-background:accumulate"
       d="M 15.96875,30 L 15.96875,31.0625 C 16.2117,31.121239 16.466042,31.183478 16.6875,31.15625 L 16.6875,30.09375 C 16.452172,30.087389 16.204078,30.048907 15.96875,30 z"
       id="path3450" />
    <path
       sodipodi:nodetypes="ccccccccc"
       id="path3452"
       d="M 16.045066,29.90625 L 15.951316,30 C 16.196711,30.05248 16.442105,30.087117 16.6875,30.09375 L 16.6875,31.15625 C 16.457003,31.184589 16.204227,31.123815 15.951316,31.0625 L 16.045066,31.1875 C 16.312251,31.232108 16.551606,31.258161 16.75,31.256908 L 16.75,29.993092 C 16.530384,29.979507 16.309594,29.964747 16.045066,29.90625 z"
       style="opacity:0.25;fill:url(#linearGradient3761);fill-opacity:1;fill-rule:evenodd;stroke:none;stroke-width:1px;stroke-linecap:butt;stroke-linejoin:miter;marker:none;marker-start:none;marker-mid:none;marker-end:none;stroke-miterlimit:4;stroke-dasharray:none;stroke-dashoffset:0;stroke-opacity:1;visibility:visible;display:inline;overflow:visible;enable-background:accumulate" />
    <path
       style="opacity:1;fill:url(#linearGradient3610);fill-opacity:1;fill-rule:evenodd;stroke:none;stroke-width:1.10000001999999997;stroke-linecap:butt;stroke-linejoin:miter;marker:none;stroke-miterlimit:4;stroke-dasharray:none;stroke-dashoffset:0;stroke-opacity:1;visibility:visible;display:inline;overflow:visible;enable-background:accumulate"
       d="M 14.4375,27.28125 C 14.284022,27.449694 13.481268,27.53743 13.34375,27.375 C 13.365934,27.758585 13.364864,28.134317 13.34375,28.53125 C 13.345408,28.75503 14.122405,28.678391 14.46875,28.59375 C 14.49262,28.145005 14.463701,27.710451 14.4375,27.28125 z"
       id="path3280" />
    <path
       style="opacity:1;fill:url(#linearGradient3638);fill-opacity:1;fill-rule:evenodd;stroke:none;stroke-width:1px;stroke-linecap:butt;stroke-linejoin:miter;marker:none;marker-start:none;marker-mid:none;marker-end:none;stroke-miterlimit:4;stroke-dasharray:none;stroke-dashoffset:0;stroke-opacity:1;visibility:visible;display:inline;overflow:visible;enable-background:accumulate"
       d="M 17.71875,6.59375 L 17.875,7.5 L 18.9375,7.5 L 18.75,6.625 L 17.71875,6.59375 z"
       id="path3629"
       sodipodi:nodetypes="ccccc" />
    <path
       sodipodi:type="arc"
       style="opacity:0.5;fill:url(#radialGradient3664);fill-opacity:1;fill-rule:nonzero;stroke:none;stroke-width:0.20000000000000001;stroke-linecap:round;stroke-linejoin:miter;stroke-miterlimit:4;stroke-dasharray:none;stroke-opacity:1"
       id="path3656"
       sodipodi:cx="-19.045546"
       sodipodi:cy="8.2344732"
       sodipodi:rx="0.40449196"
       sodipodi:ry="0.69710314"
       d="M -18.641054,8.2344732 A 0.40449196,0.69710314 0 1 1 -19.450038,8.2344732 A 0.40449196,0.69710314 0 1 1 -18.641054,8.2344732 z"
       transform="matrix(0.9395848,0,0,0.9012344,38.849365,0.7444312)" />
    <path
       style="opacity:0.12295082;fill:url(#radialGradient3777);fill-opacity:1;fill-rule:nonzero;stroke:none;stroke-width:0.20000000000000001;stroke-linecap:round;stroke-linejoin:miter;stroke-miterlimit:4;stroke-dasharray:none;stroke-opacity:1"
       d="M 14.28125,33.6875 C 14.28125,33.644824 14.284436,33.887234 14.28125,34 C 14.28125,34.880086 16.440738,35.687499 19.125,35.6875 C 21.707679,35.6875 23.812406,34.927701 23.96875,34.09375 C 23.96875,33.964205 23.96875,33.812675 23.96875,33.78125 C 23.812406,34.6152 21.707679,35.28125 19.125,35.28125 C 16.440738,35.281249 14.28125,34.567586 14.28125,33.6875 z "
       id="path3388" />
    <path
       style="opacity:0.3;fill:url(#radialGradient3811);fill-opacity:1;fill-rule:nonzero;stroke:none;stroke-width:1;stroke-linecap:butt;stroke-linejoin:miter;marker:none;marker-start:none;marker-mid:none;marker-end:none;stroke-miterlimit:4;stroke-dasharray:none;stroke-dashoffset:0;stroke-opacity:1;visibility:visible;display:inline;overflow:visible;enable-background:accumulate"
       d="M 18.25,10.28125 L 18.125,10.78125 C 17.308017,11.238265 16.292684,10.868823 15.9375,13.25 C 16.142027,17.171476 15.065111,26.374973 15.40625,29.59375 L 14.75,29.28125 C 14.96515,24.297411 15.096715,19.285711 15.0625,14.21875 C 14.989179,12.471211 15.462249,11.047459 17.625,10.625 L 17.90625,10.25 L 18.25,10.28125 z"
       id="path3803"
       sodipodi:nodetypes="ccccccccc" />
    <path
       sodipodi:nodetypes="cssssscsc"
       id="path3813"
       d="M 17.75,10.5625 C 15.751622,10.820004 14.28125,11.610725 14.28125,12.5625 C 14.28125,12.595827 14.28125,12.758154 14.28125,12.8125 C 14.28125,13.16689 16.440738,13.46875 19.125,13.46875 C 21.809262,13.46875 24,13.166889 24,12.8125 C 24,12.762264 24,12.592915 24,12.5625 C 24,11.608583 22.512902,10.818148 20.5,10.5625 C 20.365766,10.63695 19.818721,10.6875 19.125,10.6875 C 18.431287,10.6875 17.884236,10.63695 17.75,10.5625 z"
       style="opacity:0.25000000000000000;fill:url(#radialGradient3876);fill-opacity:1;fill-rule:nonzero;stroke:none;stroke-width:0.20000000000000001;stroke-linecap:round;stroke-linejoin:miter;stroke-miterlimit:4;stroke-dasharray:none;stroke-opacity:1" />
    <path
       style="opacity:1;fill:url(#linearGradient3868);fill-opacity:1;fill-rule:evenodd;stroke:none;stroke-width:1px;stroke-linecap:butt;stroke-linejoin:miter;marker:none;marker-start:none;marker-mid:none;marker-end:none;stroke-miterlimit:4;stroke-dasharray:none;stroke-dashoffset:0;stroke-opacity:1;visibility:visible;display:inline;overflow:visible;enable-background:accumulate"
       d="M 22.78125 36.625 C 22.253505 36.957274 21.549699 37.187267 20.78125 37.34375 C 21.004824 37.418328 21.213168 37.520686 21.40625 37.65625 L 22 37.46875 C 22.164998 37.18024 22.458057 36.91351 22.78125 36.625 z M 15.6875 36.75 C 15.947329 36.95625 16.186633 37.155982 16.3125 37.4375 L 16.84375 37.71875 C 17.275224 37.581187 17.686656 37.471038 18 37.4375 C 17.113429 37.320271 16.312913 37.091694 15.6875 36.75 z "
       id="path3857" />
    <path
       style="opacity:0.4;fill:url(#radialGradient3880);fill-opacity:1;fill-rule:nonzero;stroke:none;stroke-width:0.20000000000000001;stroke-linecap:round;stroke-linejoin:miter;stroke-miterlimit:4;stroke-dasharray:none;stroke-opacity:1"
       d="M 17.75,10.5625 C 15.751622,10.820004 14.28125,11.610725 14.28125,12.5625 C 14.28125,12.595827 14.28125,12.758154 14.28125,12.8125 C 14.28125,13.16689 16.440738,13.46875 19.125,13.46875 C 21.809262,13.46875 24,13.166889 24,12.8125 C 24,12.762264 24,12.592915 24,12.5625 C 24,11.608583 22.512902,10.818148 20.5,10.5625 C 20.365766,10.63695 19.818721,10.6875 19.125,10.6875 C 18.431287,10.6875 17.884236,10.63695 17.75,10.5625 z"
       id="path3878"
       sodipodi:nodetypes="cssssscsc" />
    <path
       style="opacity:0.3647541;fill:url(#radialGradient3896);fill-opacity:1;fill-rule:nonzero;stroke:none;stroke-width:1;stroke-linecap:butt;stroke-linejoin:miter;marker:none;marker-start:none;marker-mid:none;marker-end:none;stroke-miterlimit:4;stroke-dasharray:none;stroke-dashoffset:0;stroke-opacity:1;visibility:visible;display:inline;overflow:visible;enable-background:accumulate"
       d="M 17.75,10.6875 L 17.609375,10.84375 C 18.162732,10.859263 18.704309,10.827653 19.296875,11 C 19.431625,11.07325 19.629089,11.115143 19.609375,11.265625 C 20.522837,11.189903 21.424881,11.15985 22.296875,11.25 C 22.231251,10.996212 21.443489,10.906546 20.46875,10.859375 L 20.578125,10.6875 L 20.421875,10.5625 C 19.680046,10.782721 18.688812,10.703657 17.75,10.6875 z"
       id="path3888"
       sodipodi:nodetypes="ccccccccc" />
    <path
       style="fill:url(#linearGradient3927);fill-opacity:1;fill-rule:evenodd;stroke:none;stroke-width:1px;stroke-linecap:butt;stroke-linejoin:miter;marker:none;marker-start:none;marker-mid:none;marker-end:none;stroke-miterlimit:4;stroke-dasharray:none;stroke-dashoffset:0;stroke-opacity:1;visibility:visible;display:inline;overflow:visible;enable-background:accumulate"
       d="M 19.388889,6.763693 C 19.225309,6.8389951 19.217989,7.1271215 19.37509,7.2328797 L 19.70628,7.2328797 C 19.626673,7.2328796 19.568284,7.1298818 19.568284,6.9982863 C 19.568284,6.8831402 19.612984,6.7859348 19.678681,6.763693 L 19.388889,6.763693 z"
       id="path3898" />
    <path
       sodipodi:type="arc"
       style="opacity:0.98999999000000005;fill:url(#linearGradient3929);fill-opacity:1;fill-rule:nonzero;stroke:none;stroke-width:0.20000000000000001;stroke-linecap:round;stroke-linejoin:miter;stroke-miterlimit:4;stroke-dasharray:none;stroke-opacity:1"
       id="path3902"
       sodipodi:cx="-19.045546"
       sodipodi:cy="8.2344732"
       sodipodi:rx="0.40449196"
       sodipodi:ry="0.69710314"
       d="M -18.641054,8.2344732 A 0.40449196,0.69710314 0 1 1 -19.450038,8.2344732 A 0.40449196,0.69710314 0 1 1 -18.641054,8.2344732 z"
       transform="matrix(0.3565355,0,0,0.3419833,26.501923,4.1782894)" />
    <rect
       style="opacity:0.61162792;fill:#555753;fill-opacity:1;fill-rule:nonzero;stroke:none;stroke-width:0.69999999;stroke-linecap:round;stroke-linejoin:miter;stroke-miterlimit:4;stroke-dasharray:none;stroke-opacity:1"
       id="rect1951"
       width="40.001965"
       height="10.004759"
       x="-0.0019644466"
       y="30" />
    <text
       xml:space="preserve"
       style="font-size:12px;font-style:normal;font-weight:normal;fill:#eeeeec;fill-opacity:1;stroke:none;stroke-width:1px;stroke-linecap:butt;stroke-linejoin:miter;stroke-opacity:1;font-family:Bitstream Vera Sans"
       x="12.870461"
       y="39.168156"
       id="text2840"><tspan
         sodipodi:role="line"
         id="tspan2842"
         x="12.870461"
         y="39.168156">Br</tspan></text>
    <path
       style="opacity:0.5;fill:url(#radialGradient3982);fill-opacity:1;fill-rule:nonzero;stroke:none;stroke-width:1;stroke-linecap:butt;stroke-linejoin:miter;marker:none;marker-start:none;marker-mid:none;marker-end:none;stroke-miterlimit:4;stroke-dasharray:none;stroke-dashoffset:0;stroke-opacity:1;visibility:visible;display:inline;overflow:visible;enable-background:accumulate"
       d="M 18.34375,11.527986 C 18.809063,11.524441 19.241668,11.586319 19.619852,11.757032 C 20.090995,11.690428 20.61227,11.724098 21.125,11.740671 C 20.63305,11.403862 19.61895,11.386145 18.34375,11.527986 z"
       id="path3974"
       sodipodi:nodetypes="cccc" />
    <path
       sodipodi:nodetypes="cccc"
       id="path3986"
       d="M 16.236484,12.184197 C 16.509656,12.290899 16.775583,12.573765 17.653211,12.53043 C 17.929042,12.551885 18.067504,12.56327 18.478672,12.404694 C 17.924222,12.388197 17.683559,12.448605 16.236484,12.184197 z"
       style="opacity:0.35;fill:url(#radialGradient3988);fill-opacity:1;fill-rule:nonzero;stroke:none;stroke-width:1;stroke-linecap:butt;stroke-linejoin:miter;marker:none;marker-start:none;marker-mid:none;marker-end:none;stroke-miterlimit:4;stroke-dasharray:none;stroke-dashoffset:0;stroke-opacity:1;visibility:visible;display:inline;overflow:visible;enable-background:accumulate" />
  </g>
</svg>
