<?xml version="1.0" encoding="UTF-8" standalone="no"?>
<!-- Created with Inkscape (http://www.inkscape.org/) -->
<svg
   xmlns:dc="http://purl.org/dc/elements/1.1/"
   xmlns:cc="http://web.resource.org/cc/"
   xmlns:rdf="http://www.w3.org/1999/02/22-rdf-syntax-ns#"
   xmlns:svg="http://www.w3.org/2000/svg"
   xmlns="http://www.w3.org/2000/svg"
   xmlns:xlink="http://www.w3.org/1999/xlink"
   xmlns:sodipodi="http://sodipodi.sourceforge.net/DTD/sodipodi-0.dtd"
   xmlns:inkscape="http://www.inkscape.org/namespaces/inkscape"
   width="40"
   height="40"
   id="svg2193"
   sodipodi:version="0.32"
   inkscape:version="0.45.1"
   version="1.0"
   sodipodi:docbase="/home/jra/Desktop"
   sodipodi:docname="lommelykt22clean.svg"
   inkscape:output_extension="org.inkscape.output.svg.inkscape">
  <defs
     id="defs2195">
    <linearGradient
       inkscape:collect="always"
       id="linearGradient3592">
      <stop
         style="stop-color:#fff188;stop-opacity:1;"
         offset="0"
         id="stop3594" />
      <stop
         style="stop-color:#fff188;stop-opacity:0;"
         offset="1"
         id="stop3596" />
    </linearGradient>
    <linearGradient
       id="linearGradient3511">
      <stop
         id="stop3513"
         offset="0"
         style="stop-color:#000000;stop-opacity:0;" />
      <stop
         id="stop3515"
         offset="1"
         style="stop-color:#000000;stop-opacity:1;" />
    </linearGradient>
    <linearGradient
       id="linearGradient3493">
      <stop
         id="stop3495"
         offset="0"
         style="stop-color:#000000;stop-opacity:0;" />
      <stop
         style="stop-color:#000000;stop-opacity:0.49803922;"
         offset="0.5"
         id="stop3497" />
      <stop
         id="stop3499"
         offset="1"
         style="stop-color:#000000;stop-opacity:0;" />
    </linearGradient>
    <linearGradient
       id="linearGradient3419">
      <stop
         style="stop-color:#ffffff;stop-opacity:0;"
         offset="0"
         id="stop3421" />
      <stop
         id="stop3427"
         offset="0.5"
         style="stop-color:#ffffff;stop-opacity:0.49803922;" />
      <stop
         style="stop-color:#ffffff;stop-opacity:0;"
         offset="1"
         id="stop3423" />
    </linearGradient>
    <linearGradient
       id="linearGradient3220">
      <stop
         id="stop3222"
         offset="0"
         style="stop-color:#000000;stop-opacity:1" />
      <stop
         id="stop3224"
         offset="1"
         style="stop-color:#c1c3c0;stop-opacity:1" />
    </linearGradient>
    <linearGradient
       id="linearGradient3291">
      <stop
         id="stop3293"
         offset="0"
         style="stop-color:#000000;stop-opacity:1;" />
      <stop
         id="stop3295"
         offset="1"
         style="stop-color:#000000;stop-opacity:0;" />
    </linearGradient>
    <radialGradient
       inkscape:collect="always"
       xlink:href="#linearGradient3291"
       id="radialGradient2595"
       gradientUnits="userSpaceOnUse"
       gradientTransform="matrix(1,0,0,0.197802,0,92.82166)"
       cx="63.912209"
       cy="115.70919"
       fx="75.857941"
       fy="115.70919"
       r="63.912209" />
    <linearGradient
       id="linearGradient2911">
      <stop
         id="stop2783"
         offset="0"
         style="stop-color:#000000;stop-opacity:0.55194807;" />
      <stop
         style="stop-color:#000000;stop-opacity:0.46103895;"
         offset="0.18000001"
         id="stop3445" />
      <stop
         id="stop3441"
         offset="0.5"
         style="stop-color:#ffffff;stop-opacity:0.75324672;" />
      <stop
         style="stop-color:#000000;stop-opacity:0.68181819;"
         offset="0.88"
         id="stop3443" />
      <stop
         id="stop2785"
         offset="1"
         style="stop-color:#000000;stop-opacity:0.5;" />
    </linearGradient>
    <linearGradient
       id="linearGradient2847">
      <stop
         id="stop2849"
         offset="0"
         style="stop-color:#000000;stop-opacity:1;" />
      <stop
         id="stop2851"
         offset="1"
         style="stop-color:#000000;stop-opacity:0;" />
    </linearGradient>
    <linearGradient
       id="linearGradient2821">
      <stop
         style="stop-color:#000000;stop-opacity:1;"
         offset="0"
         id="stop2823" />
      <stop
         style="stop-color:#000000;stop-opacity:0;"
         offset="1"
         id="stop2825" />
    </linearGradient>
    <linearGradient
       inkscape:collect="always"
       xlink:href="#linearGradient3419"
       id="linearGradient3425"
       x1="20.713343"
       y1="9.3663435"
       x2="23.096226"
       y2="19.38109"
       gradientUnits="userSpaceOnUse" />
    <linearGradient
       inkscape:collect="always"
       xlink:href="#linearGradient3419"
       id="linearGradient3435"
       x1="15.24378"
       y1="7.4979692"
       x2="20.970491"
       y2="22.908281"
       gradientUnits="userSpaceOnUse" />
    <linearGradient
       inkscape:collect="always"
       xlink:href="#linearGradient3493"
       id="linearGradient3444"
       x1="10.887312"
       y1="9.53125"
       x2="15.709115"
       y2="26.255199"
       gradientUnits="userSpaceOnUse" />
    <linearGradient
       inkscape:collect="always"
       xlink:href="#linearGradient3220"
       id="linearGradient3452"
       x1="7.081409"
       y1="10.65625"
       x2="9.6443443"
       y2="22.646717"
       gradientUnits="userSpaceOnUse" />
    <linearGradient
       inkscape:collect="always"
       xlink:href="#linearGradient3220"
       id="linearGradient3460"
       x1="12.750012"
       y1="14.065546"
       x2="6.6671557"
       y2="19.857687"
       gradientUnits="userSpaceOnUse" />
    <linearGradient
       inkscape:collect="always"
       xlink:href="#linearGradient3419"
       id="linearGradient3491"
       x1="2.9227145"
       y1="16.078125"
       x2="13.596225"
       y2="16.662001"
       gradientUnits="userSpaceOnUse" />
    <radialGradient
       inkscape:collect="always"
       xlink:href="#linearGradient3511"
       id="radialGradient3509"
       cx="-12.657207"
       cy="30.438305"
       fx="-12.657207"
       fy="30.438305"
       r="0.41273504"
       gradientTransform="matrix(1,0,0,0.8333333,0,5.0730515)"
       gradientUnits="userSpaceOnUse" />
    <radialGradient
       inkscape:collect="always"
       xlink:href="#linearGradient3511"
       id="radialGradient3523"
       cx="11.735465"
       cy="15.145308"
       fx="11.735465"
       fy="15.145308"
       r="0.98328519"
       gradientTransform="matrix(1.6954301,-0.3942531,0.4387046,1.8865883,45.194484,-48.800909)"
       gradientUnits="userSpaceOnUse" />
    <linearGradient
       inkscape:collect="always"
       xlink:href="#linearGradient2821"
       id="linearGradient3531"
       x1="19.744898"
       y1="11.5"
       x2="26.188719"
       y2="8.7380943"
       gradientUnits="userSpaceOnUse" />
    <linearGradient
       inkscape:collect="always"
       xlink:href="#linearGradient2821"
       id="linearGradient3561"
       gradientUnits="userSpaceOnUse"
       x1="19.744898"
       y1="11.5"
       x2="26.188719"
       y2="8.7380943"
       gradientTransform="translate(-40,-80)" />
    <linearGradient
       inkscape:collect="always"
       xlink:href="#linearGradient3419"
       id="linearGradient3584"
       x1="20.193962"
       y1="10.089322"
       x2="20.658649"
       y2="7.7538228"
       gradientUnits="userSpaceOnUse" />
    <radialGradient
       inkscape:collect="always"
       xlink:href="#linearGradient3419"
       id="radialGradient3456"
       gradientUnits="userSpaceOnUse"
       gradientTransform="matrix(-0.6353412,-1.9339623,2.3041142,-0.7569386,-35.444542,-46.565404)"
       cx="13.572142"
       cy="16.337111"
       fx="13.572142"
       fy="16.337111"
       r="2.7391856" />
    <radialGradient
       inkscape:collect="always"
       xlink:href="#linearGradient3511"
       id="radialGradient3465"
       gradientUnits="userSpaceOnUse"
       gradientTransform="matrix(1.6954301,-0.3942531,0.4387046,1.8865883,-14.805516,-8.800909)"
       cx="11.735465"
       cy="15.145308"
       fx="11.735465"
       fy="15.145308"
       r="0.98328519" />
    <radialGradient
       inkscape:collect="always"
       xlink:href="#linearGradient3511"
       id="radialGradient3469"
       gradientUnits="userSpaceOnUse"
       gradientTransform="matrix(1,0,0,0.8333333,0,5.0730515)"
       cx="-12.657207"
       cy="30.438305"
       fx="-12.657207"
       fy="30.438305"
       r="0.41273504" />
    <linearGradient
       inkscape:collect="always"
       xlink:href="#linearGradient3511"
       id="linearGradient3461"
       gradientUnits="userSpaceOnUse"
       x1="14.238965"
       y1="9.6875"
       x2="15.488441"
       y2="21.256834" />
    <linearGradient
       inkscape:collect="always"
       xlink:href="#linearGradient3511"
       id="linearGradient3483"
       gradientUnits="userSpaceOnUse"
       x1="11.765542"
       y1="14.898455"
       x2="13.748021"
       y2="20.887995" />
    <radialGradient
       inkscape:collect="always"
       xlink:href="#linearGradient3419"
       id="radialGradient3489"
       gradientUnits="userSpaceOnUse"
       gradientTransform="matrix(-0.6353412,-1.9339623,2.3041142,-0.7569386,-35.444542,-26.565404)"
       cx="13.572142"
       cy="16.337111"
       fx="13.572142"
       fy="16.337111"
       r="2.7391856" />
    <radialGradient
       inkscape:collect="always"
       xlink:href="#linearGradient3419"
       id="radialGradient3511"
       gradientUnits="userSpaceOnUse"
       gradientTransform="matrix(-0.6353412,-1.9339623,2.3041142,-0.7569386,24.555458,-6.565404)"
       cx="13.572142"
       cy="16.337111"
       fx="13.572142"
       fy="16.337111"
       r="2.7391856" />
    <radialGradient
       inkscape:collect="always"
       xlink:href="#linearGradient2911"
       id="radialGradient3524"
       cx="50.605801"
       cy="15.700051"
       fx="50.605801"
       fy="15.700051"
       r="2.7391856"
       gradientTransform="matrix(1.6287648,-0.424976,0.7362496,2.8217533,-83.46515,-6.9672978)"
       gradientUnits="userSpaceOnUse" />
    <radialGradient
       inkscape:collect="always"
       xlink:href="#linearGradient2847"
       id="radialGradient3544"
       gradientUnits="userSpaceOnUse"
       gradientTransform="matrix(1.5428025,-0.2131476,0.3816919,2.7627575,-33.715843,-97.033975)"
       cx="50.984245"
       cy="15.828125"
       fx="50.984245"
       fy="15.828125"
       r="2.7041597" />
    <radialGradient
       inkscape:collect="always"
       xlink:href="#linearGradient3419"
       id="radialGradient3549"
       gradientUnits="userSpaceOnUse"
       gradientTransform="matrix(1.5428025,-0.2131476,0.3816919,2.7627575,-33.715843,-97.033975)"
       cx="50.984245"
       cy="15.828125"
       fx="50.984245"
       fy="15.828125"
       r="2.7041597" />
    <radialGradient
       inkscape:collect="always"
       xlink:href="#linearGradient3419"
       id="radialGradient3562"
       gradientUnits="userSpaceOnUse"
       gradientTransform="matrix(-0.6353412,-1.9339623,2.3041142,-0.7569386,-15.444542,53.434596)"
       cx="13.572142"
       cy="16.337111"
       fx="13.572142"
       fy="16.337111"
       r="2.7391856" />
    <radialGradient
       inkscape:collect="always"
       xlink:href="#linearGradient2821"
       id="radialGradient3588"
       cx="11.38906"
       cy="15.875"
       fx="11.38906"
       fy="15.875"
       r="2.7035091"
       gradientTransform="matrix(1.3436052,-9.2662533e-8,8.7689447e-8,1.2714956,-3.9133418,-4.3099913)"
       gradientUnits="userSpaceOnUse" />
    <linearGradient
       inkscape:collect="always"
       xlink:href="#linearGradient2911"
       id="linearGradient3590"
       x1="10.002873"
       y1="10.96875"
       x2="12.225982"
       y2="20.6875"
       gradientUnits="userSpaceOnUse" />
    <linearGradient
       inkscape:collect="always"
       xlink:href="#linearGradient3592"
       id="linearGradient3598"
       x1="-1.1586177"
       y1="7.1389384"
       x2="6.3425207"
       y2="25.820938"
       gradientUnits="userSpaceOnUse"
       gradientTransform="translate(-40,0)" />
    <linearGradient
       inkscape:collect="always"
       xlink:href="#linearGradient3592"
       id="linearGradient3602"
       gradientUnits="userSpaceOnUse"
       x1="4.2085867"
       y1="27.678816"
       x2="1.5946093"
       y2="20.453733"
       gradientTransform="translate(-40,0)" />
    <linearGradient
       inkscape:collect="always"
       xlink:href="#linearGradient3419"
       id="linearGradient3608"
       gradientUnits="userSpaceOnUse"
       x1="4.2085867"
       y1="27.678816"
       x2="0.011564706"
       y2="9.5128937"
       gradientTransform="translate(-40,0)" />
    <linearGradient
       inkscape:collect="always"
       xlink:href="#linearGradient2911"
       id="linearGradient3494"
       x1="4.0523772"
       y1="15.828125"
       x2="17.303585"
       y2="15.499696"
       gradientUnits="userSpaceOnUse" />
  </defs>
  <sodipodi:namedview
     id="base"
     pagecolor="#ffffff"
     bordercolor="#666666"
     borderopacity="1.0"
     inkscape:pageopacity="0.0"
     inkscape:pageshadow="2"
     inkscape:zoom="15.256603"
     inkscape:cx="19.999018"
     inkscape:cy="18.885061"
     inkscape:current-layer="layer1"
     showgrid="false"
     inkscape:grid-bbox="false"
     inkscape:document-units="px"
     width="40px"
     height="40px"
     gridempspacing="2"
     inkscape:window-width="1167"
     inkscape:window-height="914"
     inkscape:window-x="52"
     inkscape:window-y="78" />
  <metadata
     id="metadata2198">
    <rdf:RDF>
      <cc:Work
         rdf:about="">
        <dc:format>image/svg+xml</dc:format>
        <dc:type
           rdf:resource="http://purl.org/dc/dcmitype/StillImage" />
        <dc:creator>
          <cc:Agent>
            <dc:title>Jarle Akselsen</dc:title>
          </cc:Agent>
        </dc:creator>
        <cc:license
           rdf:resource="http://creativecommons.org/licenses/GPL/2.0/" />
      </cc:Work>
      <cc:License
         rdf:about="http://creativecommons.org/licenses/GPL/2.0/">
        <cc:permits
           rdf:resource="http://web.resource.org/cc/Reproduction" />
        <cc:permits
           rdf:resource="http://web.resource.org/cc/Distribution" />
        <cc:requires
           rdf:resource="http://web.resource.org/cc/Notice" />
        <cc:permits
           rdf:resource="http://web.resource.org/cc/DerivativeWorks" />
        <cc:requires
           rdf:resource="http://web.resource.org/cc/ShareAlike" />
        <cc:requires
           rdf:resource="http://web.resource.org/cc/SourceCode" />
      </cc:License>
    </rdf:RDF>
  </metadata>
  <g
     id="layer1"
     inkscape:label="Layer 1"
     inkscape:groupmode="layer">
    <path
       style="opacity:1;fill:#000000;fill-opacity:1;fill-rule:nonzero;stroke:none;stroke-width:0.2;stroke-linecap:round;stroke-linejoin:round;stroke-miterlimit:4;stroke-dasharray:none;stroke-opacity:1"
       d="M 31.96875,7.46875 L 15.3125,10.78125 L 14.5625,10.9375 L 14.5,10.9375 C 14.273925,10.9375 14.073281,11.008999 13.875,11.09375 C 13.770027,11.138618 13.658377,11.1838 13.5625,11.25 C 12.731557,11.82373 12.257101,13.151562 12.4375,14.71875 C 12.497635,15.241146 12.633883,15.735059 12.8125,16.1875 C 12.991114,16.63994 13.234285,17.064193 13.5,17.40625 C 13.762218,17.739901 14.059309,17.999672 14.375,18.1875 C 14.696429,18.378742 15.029241,18.5 15.375,18.5 C 15.401677,18.5 16.483134,18.248323 16.875,18.15625 C 18.706746,17.725864 32.057506,14.419913 33.375,14.09375 C 34.246322,13.670834 34.769932,12.40555 34.59375,10.875 C 34.377962,9.000391 33.209505,7.46875 31.96875,7.46875 z "
       id="path4485"
       sodipodi:nodetypes="ccccsssssssscsc" />
    <path
       style="opacity:1;fill:#9c0f0f;fill-opacity:1;fill-rule:nonzero;stroke:none;stroke-width:0.2;stroke-linecap:round;stroke-linejoin:round;stroke-miterlimit:4;stroke-dasharray:none;stroke-opacity:1"
       d="M 21.4375,8.8125 C 21.437499,8.8125 20.807775,9.061977 20.15625,9.1875 C 19.504725,9.313023 18.84375,9.3125 18.84375,9.3125 L 18.78125,9.6875 L 17.625,9.90625 L 17.625,10.34375 L 17.90625,10.28125 C 18.043922,10.28125 18.176112,10.310174 18.3125,10.34375 C 18.409557,10.367715 18.498932,10.397438 18.59375,10.4375 C 18.634238,10.454251 18.678743,10.449268 18.71875,10.46875 C 18.774397,10.496336 18.820474,10.529676 18.875,10.5625 C 18.952279,10.607809 19.019226,10.663693 19.09375,10.71875 C 19.174761,10.779209 19.266362,10.834785 19.34375,10.90625 C 19.386629,10.945485 19.427307,10.988853 19.46875,11.03125 C 19.49397,11.057051 19.506516,11.098068 19.53125,11.125 C 19.634886,11.237843 19.718396,11.368649 19.8125,11.5 L 24.875,10.4375 L 24.875,9.375 L 23.6875,9.1875 L 22.53125,8.96875 L 22.46875,8.96875 L 21.4375,8.8125 z "
       id="path3533" />
    <path
       style="opacity:0.5;fill:url(#linearGradient3425);fill-opacity:1.0;fill-rule:nonzero;stroke:none;stroke-width:0.2;stroke-linecap:round;stroke-linejoin:round;stroke-miterlimit:4;stroke-dasharray:none;stroke-opacity:1"
       d="M 31.96875,7.46875 L 15.3125,10.78125 C 16.501028,11.29848 17.503944,12.852652 17.71875,14.71875 C 17.885392,16.166457 17.542251,17.419248 16.875,18.15625 C 18.706746,17.725864 23.278038,16.590477 28.59375,15.28125 C 30.978098,14.693231 32.057506,14.419913 33.375,14.09375 C 34.246322,13.670834 34.769932,12.40555 34.59375,10.875 C 34.377962,9.000391 33.209505,7.46875 31.96875,7.46875 z "
       id="path3385"
       sodipodi:nodetypes="ccscscsc" />
    <path
       transform="matrix(0.2609003,-9.373053e-2,9.7023666e-2,0.2700667,-6.8580511,-7.4963209)"
       d="M 127.82442 115.70919 A 63.912209 12.641975 0 1 1  0,115.70919 A 63.912209 12.641975 0 1 1  127.82442 115.70919 z"
       sodipodi:ry="12.641975"
       sodipodi:rx="63.912209"
       sodipodi:cy="115.70919"
       sodipodi:cx="63.912209"
       id="path2593"
       style="opacity:0.38139535;fill:url(#radialGradient2595);fill-opacity:1;fill-rule:nonzero;stroke:none;stroke-width:0;stroke-linecap:round;stroke-linejoin:round;stroke-miterlimit:4;stroke-dasharray:none;stroke-dashoffset:4;stroke-opacity:1"
       sodipodi:type="arc" />
    <path
       style="opacity:1;fill:#dddddd;fill-opacity:1;fill-rule:nonzero;stroke:none;stroke-width:0.2;stroke-linecap:round;stroke-linejoin:round;stroke-miterlimit:4;stroke-dasharray:none;stroke-opacity:1"
       d="M 9.9375,9.53125 L 8.40625,9.65625 C 6.127035,9.755307 4.630005,12.576729 5.03125,16.0625 C 5.439754,19.611322 7.682369,22.5 10.03125,22.5 C 10.36076,22.5 10.674454,22.449156 10.96875,22.34375 L 12.34375,21.71875 L 16.4375,18.53125 C 17.365737,17.908905 17.917637,16.446589 17.71875,14.71875 C 17.473257,12.586067 16.181214,10.860545 14.78125,10.625 C 14.78125,10.625 10.434211,9.570278 9.9375,9.53125 z "
       id="path3286"
       sodipodi:nodetypes="ccsscccscc" />
    <path
       style="opacity:0.25;fill:#ffffff;fill-opacity:1;fill-rule:nonzero;stroke:none;stroke-width:0.2;stroke-linecap:round;stroke-linejoin:round;stroke-miterlimit:4;stroke-dasharray:none;stroke-opacity:1"
       d="M 19.75,10.375 L 17.625,9.90625 L 17.625,10.34375 L 17.90625,10.28125 C 18.043922,10.28125 18.176112,10.310174 18.3125,10.34375 C 18.409557,10.367715 18.498932,10.397438 18.59375,10.4375 C 18.634238,10.454251 18.678743,10.449268 18.71875,10.46875 C 18.774397,10.496336 18.820474,10.529676 18.875,10.5625 C 18.952279,10.607809 19.019226,10.663693 19.09375,10.71875 C 19.174761,10.779209 19.266362,10.834785 19.34375,10.90625 C 19.386629,10.945485 19.427307,10.988853 19.46875,11.03125 C 19.49397,11.057051 19.506516,11.098068 19.53125,11.125 C 19.634886,11.237843 19.718396,11.368649 19.8125,11.5 L 19.75,10.375 z "
       id="path4573"
       sodipodi:nodetypes="ccccsssssssscc" />
    <path
       style="opacity:0.5;color:#000000;fill:url(#linearGradient3584);fill-opacity:1.0;fill-rule:evenodd;stroke:none;stroke-width:1px;stroke-linecap:butt;stroke-linejoin:miter;marker:none;marker-start:none;marker-mid:none;marker-end:none;stroke-miterlimit:4;stroke-dasharray:none;stroke-dashoffset:0;stroke-opacity:1;visibility:visible;display:inline;overflow:visible;enable-background:accumulate"
       d="M 21.4375,8.8125 C 21.437499,8.8125 20.807775,9.061977 20.15625,9.1875 C 19.504725,9.313023 18.84375,9.3125 18.84375,9.3125 L 21.03125,9.6875 C 21.03125,9.6875 21.712261,9.690183 22.375,9.5625 C 23.037738,9.434817 23.687498,9.1875 23.6875,9.1875 L 21.4375,8.8125 z M 23.6875,9.1875 L 23.6875,9.1875 z "
       id="path4615"
       sodipodi:nodetypes="csccscccc" />
    <path
       sodipodi:nodetypes="ccccc"
       id="path4617"
       d="M 18.84375,9.3125 L 18.78125,9.6875 L 20.96875,10.09375 L 21.03125,9.6875 C 21.03125,9.6875 18.84375,9.3125 18.84375,9.3125 z "
       style="opacity:0.25;color:#000000;fill:#ffffff;fill-opacity:1;fill-rule:evenodd;stroke:none;stroke-width:1px;stroke-linecap:butt;stroke-linejoin:miter;marker:none;marker-start:none;marker-mid:none;marker-end:none;stroke-miterlimit:4;stroke-dasharray:none;stroke-dashoffset:0;stroke-opacity:1;visibility:visible;display:inline;overflow:visible;enable-background:accumulate" />
    <path
       sodipodi:nodetypes="cscccccccc"
       id="path4619"
       d="M 23.6875,9.1875 C 23.687498,9.1875 23.037738,9.434817 22.375,9.5625 C 21.712261,9.690183 21.03125,9.6875 21.03125,9.6875 L 20.96875,10.09375 L 19.75,10.375 C 19.75,10.375 19.718396,11.368649 19.8125,11.5 L 24.875,10.4375 L 24.875,9.375 L 23.84375,9.53125 L 23.6875,9.1875 z "
       style="opacity:0.25;color:#000000;fill:url(#linearGradient3531);fill-opacity:1.0;fill-rule:evenodd;stroke:none;stroke-width:1px;stroke-linecap:butt;stroke-linejoin:miter;marker:none;marker-start:none;marker-mid:none;marker-end:none;stroke-miterlimit:4;stroke-dasharray:none;stroke-dashoffset:0;stroke-opacity:1;visibility:visible;display:inline;overflow:visible;enable-background:accumulate" />
    <path
       style="opacity:0.25;fill:url(#linearGradient3444);fill-opacity:1;fill-rule:nonzero;stroke:none;stroke-width:0.2;stroke-linecap:round;stroke-linejoin:round;stroke-miterlimit:4;stroke-dasharray:none;stroke-opacity:1"
       d="M 9.84375,9.53125 L 9.15625,9.59375 C 9.049481,9.616997 8.94613,9.651684 8.84375,9.6875 C 11.075162,9.927569 13.141024,12.672431 13.53125,16.0625 C 13.849398,18.826355 12.950815,21.185255 11.4375,22.09375 C 11.469679,22.090674 11.499411,22.097945 11.53125,22.09375 L 11.59375,22.09375 L 12.34375,21.71875 L 13.625,20.71875 C 14.438516,19.563656 14.853591,17.829632 14.625,15.84375 C 14.279821,12.845111 12.616697,10.327266 10.6875,9.6875 C 10.53974,9.657783 10.23873,9.574816 10.15625,9.5625 C 10.054049,9.547108 9.946681,9.535702 9.84375,9.53125 z "
       id="path2444" />
    <path
       style="opacity:0.25;fill:url(#linearGradient3452);fill-opacity:1;fill-rule:nonzero;stroke:none;stroke-width:0.2;stroke-linecap:round;stroke-linejoin:round;stroke-miterlimit:4;stroke-dasharray:none;stroke-opacity:1"
       d="M 8.46875,10.65625 C 6.484664,10.65625 5.186186,13.096051 5.53125,16.09375 C 5.876315,19.091449 7.734641,21.5 9.71875,21.5 C 10.28986,21.5 10.812829,21.295386 11.25,20.9375 C 11.079852,20.979342 10.901662,21.03125 10.71875,21.03125 C 8.835285,21.03125 7.046312,18.720643 6.71875,15.875 C 6.41354,13.223526 7.485621,11.035293 9.15625,10.75 C 8.934829,10.689701 8.694879,10.65625 8.46875,10.65625 z "
       id="path2448" />
    <path
       style="opacity:0.25;fill:url(#linearGradient3460);fill-opacity:1.0;fill-rule:nonzero;stroke:none;stroke-width:0.2;stroke-linecap:round;stroke-linejoin:round;stroke-miterlimit:4;stroke-dasharray:none;stroke-opacity:1"
       d="M 9.09375,10.78125 C 7.462768,11.114314 6.417768,13.260259 6.71875,15.875 C 7.046312,18.720643 8.835285,21.03125 10.71875,21.03125 C 10.901662,21.03125 11.079852,20.979342 11.25,20.9375 C 11.367333,20.841938 11.488713,20.74331 11.59375,20.625 C 11.437845,20.661958 11.292138,20.6875 11.125,20.6875 C 9.342178,20.6875 7.622559,18.506087 7.3125,15.8125 C 7.021822,13.287262 8.05811,11.218188 9.65625,10.96875 C 9.478792,10.884048 9.280453,10.835892 9.09375,10.78125 z M 11.625,12.90625 C 11.711035,13.049692 11.797299,13.18994 11.875,13.34375 C 11.798923,13.192145 11.709097,13.048005 11.625,12.90625 z M 12.375,14.65625 C 12.429463,14.840004 12.488748,15.02748 12.53125,15.21875 C 12.488486,15.02702 12.429835,14.840646 12.375,14.65625 z M 12.75,17 C 12.750411,17.154205 12.7273,17.319309 12.71875,17.46875 C 12.727956,17.312208 12.750606,17.161764 12.75,17 z M 12.53125,18.71875 C 12.482971,18.912395 12.439633,19.071742 12.375,19.25 C 12.435796,19.081752 12.484987,18.900743 12.53125,18.71875 z M 10.875,21.1875 C 10.763424,21.250701 10.650522,21.29921 10.53125,21.34375 C 10.651292,21.300666 10.762594,21.249607 10.875,21.1875 z "
       id="path2452" />
    <path
       id="path3503"
       d="M 9.65625,10.96875 C 8.05811,11.218188 7.021822,13.287262 7.3125,15.8125 C 7.622559,18.506087 9.342178,20.6875 11.125,20.6875 C 11.292138,20.6875 11.437845,20.661958 11.59375,20.625 C 12.454587,19.655377 12.905777,17.990001 12.6875,16.09375 C 12.411767,13.698332 11.163413,11.688134 9.65625,10.96875 z "
       style="opacity:1;fill:#000000;fill-opacity:1;fill-rule:nonzero;stroke:none;stroke-width:0.2;stroke-linecap:round;stroke-linejoin:round;stroke-miterlimit:4;stroke-dasharray:none;stroke-opacity:1" />
    <path
       style="opacity:0.75;fill:url(#radialGradient3562);fill-opacity:1;fill-rule:nonzero;stroke:none;stroke-width:0.2;stroke-linecap:round;stroke-linejoin:round;stroke-miterlimit:4;stroke-dasharray:none;stroke-opacity:1"
       d="M 10.84375,11.9375 C 9.571767,12.329805 8.431979,12.854241 7.46875,13.40625 C 7.441526,13.508195 7.428082,13.612309 7.40625,13.71875 C 8.315287,13.285809 9.34114,12.907536 10.46875,12.625 C 10.765547,12.550634 11.052106,12.49504 11.34375,12.4375 C 11.206487,12.248218 11.026106,12.100281 10.875,11.9375 C 10.86546,11.940427 10.853276,11.934562 10.84375,11.9375 z M 11.71875,13.0625 C 10.020132,13.557226 8.610694,14.311649 7.84375,15.125 C 8.364317,14.740883 9.105179,14.372627 9.96875,14.15625 C 10.769484,13.955617 11.53708,13.900531 12.15625,13.96875 C 12.028544,13.646283 11.880272,13.348772 11.71875,13.0625 z M 12.6875,16.09375 C 12.177563,16.436666 11.483715,16.737998 10.6875,16.9375 C 9.356575,17.270978 8.146937,17.215432 7.53125,16.84375 C 7.572316,17.000217 7.606075,17.16207 7.65625,17.3125 C 8.499976,18.062155 10.455656,18.299213 12.6875,17.875 C 12.75256,17.314697 12.759764,16.721531 12.6875,16.09375 z M 12.4375,19.03125 C 12.330883,19.060046 12.233234,19.097881 12.125,19.125 C 11.386064,19.310151 10.66502,19.417047 9.96875,19.5 C 10.732578,19.469057 11.542193,19.391216 12.375,19.25 C 12.401553,19.176767 12.413657,19.107171 12.4375,19.03125 z "
       id="path3552" />
    <path
       style="opacity:0.5;fill:url(#linearGradient3491);fill-opacity:1.0;fill-rule:nonzero;stroke:none;stroke-width:0.2;stroke-linecap:round;stroke-linejoin:round;stroke-miterlimit:4;stroke-dasharray:none;stroke-opacity:1"
       d="M 8.53125 9.65625 C 6.1823951 9.6562498 4.622747 12.513679 5.03125 16.0625 C 5.4397532 19.611322 7.682369 22.5 10.03125 22.5 C 12.380109 22.5 13.939755 19.611321 13.53125 16.0625 C 13.122749 12.51368 10.880117 9.65625 8.53125 9.65625 z M 8.46875 10.65625 C 10.45285 10.65625 12.342439 13.096051 12.6875 16.09375 C 13.032565 19.091449 11.702844 21.5 9.71875 21.5 C 7.734641 21.5 5.8763151 19.091449 5.53125 16.09375 C 5.186186 13.096051 6.4846644 10.65625 8.46875 10.65625 z "
       id="path3480" />
    <path
       style="opacity:0.1;color:#000000;fill:#ffffff;fill-opacity:1;fill-rule:evenodd;stroke:none;stroke-width:1px;stroke-linecap:butt;stroke-linejoin:miter;marker:none;marker-start:none;marker-mid:none;marker-end:none;stroke-miterlimit:4;stroke-dasharray:none;stroke-dashoffset:0;stroke-opacity:1;visibility:visible;display:inline;overflow:visible;enable-background:accumulate"
       d="M 22.46875,8.96875 L 23.6875,9.1875 L 22.53125,8.96875 L 22.46875,8.96875 z M 23.6875,9.1875 L 23.84375,9.53125 L 24.875,9.375 L 23.6875,9.1875 z M 18.78125,9.6875 L 17.625,9.90625 L 19.75,10.375 L 20.96875,10.09375 L 18.78125,9.6875 z "
       id="path3573" />
    <path
       sodipodi:nodetypes="csccscc"
       id="path2489"
       d="M 10.71875,9.6875 C 12.636686,10.341403 14.281399,12.858817 14.625,15.84375 C 14.853591,17.829632 14.438516,19.563656 13.625,20.71875 L 16.4375,18.53125 C 17.365737,17.908905 17.917637,16.446589 17.71875,14.71875 C 17.473257,12.586067 16.181214,10.860545 14.78125,10.625 C 14.78125,10.625 11.966241,9.940148 10.71875,9.6875 z "
       style="opacity:0.5;fill:url(#linearGradient3461);fill-opacity:1.0;fill-rule:nonzero;stroke:none;stroke-width:0.2;stroke-linecap:round;stroke-linejoin:round;stroke-miterlimit:4;stroke-dasharray:none;stroke-opacity:1" />
    <path
       style="opacity:0.75;fill:url(#linearGradient3590);fill-opacity:1.0;fill-rule:nonzero;stroke:none;stroke-width:0.2;stroke-linecap:round;stroke-linejoin:round;stroke-miterlimit:4;stroke-dasharray:none;stroke-opacity:1"
       d="M 9.65625,10.96875 C 8.05811,11.218188 7.021822,13.287262 7.3125,15.8125 C 7.622559,18.506087 9.342178,20.6875 11.125,20.6875 C 11.292138,20.6875 11.437845,20.661958 11.59375,20.625 C 12.454587,19.655377 12.905777,17.990001 12.6875,16.09375 C 12.411767,13.698332 11.163413,11.688134 9.65625,10.96875 z "
       id="path2450" />
    <path
       id="path3481"
       d="M 9.84375,9.53125 L 9.15625,9.59375 C 9.049481,9.616997 8.94613,9.651684 8.84375,9.6875 C 11.075162,9.927569 13.141024,12.672431 13.53125,16.0625 C 13.849398,18.826355 12.950815,21.185255 11.4375,22.09375 C 11.469679,22.090674 11.499411,22.097945 11.53125,22.09375 L 11.59375,22.09375 L 12.34375,21.71875 L 13.625,20.71875 C 14.438516,19.563656 14.853591,17.829632 14.625,15.84375 C 14.279821,12.845111 12.616697,10.327266 10.6875,9.6875 C 10.53974,9.657783 10.23873,9.574816 10.15625,9.5625 C 10.054049,9.547108 9.946681,9.535702 9.84375,9.53125 z "
       style="opacity:0.25;fill:url(#linearGradient3483);fill-opacity:1;fill-rule:nonzero;stroke:none;stroke-width:0.2;stroke-linecap:round;stroke-linejoin:round;stroke-miterlimit:4;stroke-dasharray:none;stroke-opacity:1" />
    <path
       style="opacity:0.25;fill:url(#linearGradient3435);fill-opacity:1;fill-rule:nonzero;stroke:none;stroke-width:0.2;stroke-linecap:round;stroke-linejoin:round;stroke-miterlimit:4;stroke-dasharray:none;stroke-opacity:1"
       d="M 10.71875,9.6875 C 12.636686,10.341403 14.281399,12.858817 14.625,15.84375 C 14.853591,17.829632 14.438516,19.563656 13.625,20.71875 L 16.4375,18.53125 C 17.365737,17.908905 17.917637,16.446589 17.71875,14.71875 C 17.473257,12.586067 16.181214,10.860545 14.78125,10.625 C 14.78125,10.625 11.966241,9.940148 10.71875,9.6875 z "
       id="path3349"
       sodipodi:nodetypes="csccscc" />
    <path
       style="opacity:0.5;fill:url(#radialGradient3588);fill-opacity:1.0;fill-rule:nonzero;stroke:none;stroke-width:0.53149605;stroke-linecap:round;stroke-linejoin:miter;stroke-miterlimit:4;stroke-dasharray:none;stroke-opacity:1"
       d="M 11.3125,12.4375 C 11.031133,12.49297 10.755412,12.553173 10.46875,12.625 C 9.681881,12.822159 8.9639,13.098557 8.28125,13.375 C 8.250247,13.387555 8.218277,13.393562 8.1875,13.40625 C 7.905307,13.562481 7.626114,13.709003 7.375,13.875 C 7.36198,13.94914 7.354135,14.017726 7.34375,14.09375 C 8.352628,13.54931 9.556825,13.088113 10.90625,12.75 C 11.094733,12.702773 11.28321,12.693941 11.46875,12.65625 C 11.417364,12.578933 11.365766,12.509246 11.3125,12.4375 z M 11.5625,12.8125 C 10.019739,13.367134 8.732531,14.097372 7.96875,14.875 C 8.130825,14.760433 8.303786,14.639146 8.5,14.53125 C 8.537719,14.510508 8.586138,14.489146 8.625,14.46875 C 9.411114,13.919291 10.470575,13.419778 11.6875,13.0625 C 11.641998,12.982846 11.611584,12.891175 11.5625,12.8125 z M 12.71875,16.75 C 12.720283,16.802449 12.749537,16.854314 12.75,16.90625 C 12.74984,16.853334 12.751806,16.80329 12.75,16.75 C 12.741418,16.753432 12.727363,16.746571 12.71875,16.75 z M 7.6875,17.3125 C 7.723152,17.426961 7.739692,17.549547 7.78125,17.65625 C 8.690045,18.364649 10.466185,18.675345 12.5625,18.5 C 12.604978,18.301005 12.655474,18.088541 12.6875,17.875 C 10.471751,18.296154 8.54102,18.049401 7.6875,17.3125 z M 12.46875,18.9375 C 11.763679,19.114166 11.070611,19.233347 10.40625,19.3125 C 10.876547,19.293447 11.370243,19.257273 11.875,19.1875 C 11.959775,19.168137 12.039738,19.146364 12.125,19.125 C 12.233234,19.097881 12.330883,19.060046 12.4375,19.03125 C 12.450699,19.001844 12.458974,18.970762 12.46875,18.9375 z "
       id="path3507" />
    <path
       style="opacity:1;fill:#d3d7cf;fill-opacity:1;fill-rule:nonzero;stroke:none;stroke-width:0.2;stroke-linecap:round;stroke-linejoin:round;stroke-miterlimit:4;stroke-dasharray:none;stroke-opacity:1"
       d="M 12.03125,13.6875 C 11.334519,13.964601 10.820677,14.517379 10.75,15.09375 C 10.603358,15.16453 10.518111,15.366434 10.5625,15.5625 C 10.606887,15.758565 10.774672,15.87428 10.9375,15.875 C 11.256251,16.375274 11.952983,16.634543 12.71875,16.5625 C 12.709721,16.405487 12.705996,16.254428 12.6875,16.09375 C 12.58805,15.229779 12.352581,14.413732 12.03125,13.6875 z "
       id="path2454"
       sodipodi:nodetypes="ccsccsc" />
    <path
       style="opacity:0.5;fill:url(#radialGradient3465);fill-opacity:1;fill-rule:nonzero;stroke:none;stroke-width:0.2;stroke-linecap:round;stroke-linejoin:round;stroke-miterlimit:4;stroke-dasharray:none;stroke-opacity:1"
       d="M 12,13.6875 C 11.306006,13.962096 10.849959,14.513997 10.78125,15.09375 C 10.794251,15.088735 10.798612,15.065644 10.8125,15.0625 C 10.997672,15.020578 11.199694,15.184043 11.25,15.40625 C 11.300306,15.628456 11.185172,15.833079 11,15.875 C 10.976853,15.88024 10.960546,15.875423 10.9375,15.875 C 11.256625,16.379092 11.95005,16.664469 12.71875,16.59375 C 12.709779,16.42659 12.707224,16.265099 12.6875,16.09375 C 12.58805,15.229779 12.352581,14.413732 12.03125,13.6875 C 12.029369,13.683248 12.001888,13.691746 12,13.6875 z "
       id="path3458" />
    <path
       sodipodi:type="arc"
       style="opacity:0.25;fill:url(#radialGradient3469);fill-opacity:1;fill-rule:nonzero;stroke:none;stroke-width:0.2;stroke-linecap:round;stroke-linejoin:round;stroke-miterlimit:4;stroke-dasharray:none;stroke-opacity:1"
       id="path3467"
       sodipodi:cx="-12.657207"
       sodipodi:cy="30.438305"
       sodipodi:rx="0.41273504"
       sodipodi:ry="0.34394586"
       d="M -12.244471 30.438305 A 0.41273504 0.34394586 0 1 1  -13.069942,30.438305 A 0.41273504 0.34394586 0 1 1  -12.244471 30.438305 z"
       transform="matrix(0.2208034,0.9753183,-0.9753183,0.2208034,43.394184,21.090682)" />
    <path
       style="opacity:0.75;fill:url(#radialGradient3524);fill-opacity:1;fill-rule:nonzero;stroke:none;stroke-width:0.2;stroke-linecap:round;stroke-linejoin:round;stroke-miterlimit:4;stroke-dasharray:none;stroke-opacity:1"
       d="M 9.65625,10.96875 C 8.05811,11.218188 7.021822,13.287262 7.3125,15.8125 C 7.622559,18.506087 9.342178,20.6875 11.125,20.6875 C 11.292138,20.6875 11.437845,20.661958 11.59375,20.625 C 12.454587,19.655377 12.905777,17.990001 12.6875,16.09375 C 12.411767,13.698332 11.163413,11.688134 9.65625,10.96875 z "
       id="path3450" />
    <rect
       style="opacity:0.61162792;fill:#555753;fill-opacity:1;fill-rule:nonzero;stroke:none;stroke-width:0.69999999;stroke-linecap:round;stroke-linejoin:miter;stroke-miterlimit:4;stroke-dasharray:none;stroke-opacity:1"
       id="rect1951"
       width="40.001965"
       height="10.004759"
       x="-0.0019644466"
       y="30" />
    <text
       xml:space="preserve"
       style="font-size:12px;font-style:normal;font-weight:normal;fill:#eeeeec;fill-opacity:1;stroke:none;stroke-width:1px;stroke-linecap:butt;stroke-linejoin:miter;stroke-opacity:1;font-family:Bitstream Vera Sans"
       x="13.10228"
       y="39.168156"
       id="text2840"><tspan
         sodipodi:role="line"
         id="tspan2842"
         x="13.10228"
         y="39.168156">Kr</tspan></text>
    <path
       id="path2521"
       d="M 9.65625,10.96875 C 8.05811,11.218188 7.021822,13.287262 7.3125,15.8125 C 7.622559,18.506087 9.342178,20.6875 11.125,20.6875 C 11.292138,20.6875 11.437845,20.661958 11.59375,20.625 C 12.454587,19.655377 12.905777,17.990001 12.6875,16.09375 C 12.411767,13.698332 11.163413,11.688134 9.65625,10.96875 z "
       style="opacity:0.5;fill:url(#linearGradient3494);fill-opacity:1;fill-rule:nonzero;stroke:none;stroke-width:0.2;stroke-linecap:round;stroke-linejoin:round;stroke-miterlimit:4;stroke-dasharray:none;stroke-opacity:1" />
  </g>
</svg>
