<?xml version="1.0" encoding="UTF-8" standalone="no"?>
<!-- Created with Inkscape (http://www.inkscape.org/) -->
<svg
   xmlns:dc="http://purl.org/dc/elements/1.1/"
   xmlns:cc="http://web.resource.org/cc/"
   xmlns:rdf="http://www.w3.org/1999/02/22-rdf-syntax-ns#"
   xmlns:svg="http://www.w3.org/2000/svg"
   xmlns="http://www.w3.org/2000/svg"
   xmlns:xlink="http://www.w3.org/1999/xlink"
   xmlns:sodipodi="http://sodipodi.sourceforge.net/DTD/sodipodi-0.dtd"
   xmlns:inkscape="http://www.inkscape.org/namespaces/inkscape"
   width="40"
   height="40"
   id="svg2193"
   sodipodi:version="0.32"
   inkscape:version="0.45.1"
   version="1.0"
   sodipodi:docbase="/home/jra/Desktop"
   sodipodi:docname="satelitewith-atomic-clock27colorizedclean4color2clean.svg"
   inkscape:output_extension="org.inkscape.output.svg.inkscape">
  <defs
     id="defs2195">
    <linearGradient
       id="linearGradient4646">
      <stop
         id="stop4648"
         offset="0"
         style="stop-color:#ffffff;stop-opacity:0.51948053;" />
      <stop
         id="stop4650"
         offset="1"
         style="stop-color:#ffffff;stop-opacity:0.85714287;" />
    </linearGradient>
    <linearGradient
       id="linearGradient4628">
      <stop
         style="stop-color:#ffc78e;stop-opacity:0.67450982;"
         offset="0"
         id="stop4630" />
      <stop
         style="stop-color:#ffe6ce;stop-opacity:1;"
         offset="1"
         id="stop4632" />
    </linearGradient>
    <linearGradient
       id="linearGradient4448">
      <stop
         style="stop-color:#f8d8bb;stop-opacity:1;"
         offset="0"
         id="stop4450" />
      <stop
         style="stop-color:#f4c193;stop-opacity:1;"
         offset="1"
         id="stop4452" />
    </linearGradient>
    <linearGradient
       id="linearGradient4380">
      <stop
         style="stop-color:#ffffff;stop-opacity:1;"
         offset="0"
         id="stop4382" />
      <stop
         style="stop-color:#ffffff;stop-opacity:0;"
         offset="1"
         id="stop4384" />
    </linearGradient>
    <linearGradient
       id="linearGradient3291">
      <stop
         id="stop3293"
         offset="0"
         style="stop-color:#000000;stop-opacity:1;" />
      <stop
         id="stop3295"
         offset="1"
         style="stop-color:#000000;stop-opacity:0;" />
    </linearGradient>
    <radialGradient
       inkscape:collect="always"
       xlink:href="#linearGradient3291"
       id="radialGradient2595"
       gradientUnits="userSpaceOnUse"
       gradientTransform="matrix(1,0,0,0.197802,0,92.82166)"
       cx="63.912209"
       cy="115.70919"
       fx="75.857941"
       fy="115.70919"
       r="63.912209" />
    <linearGradient
       id="linearGradient3467">
      <stop
         id="stop3469"
         offset="0"
         style="stop-color:#050505;stop-opacity:1;" />
      <stop
         style="stop-color:#c1c3c0;stop-opacity:1;"
         offset="0.5"
         id="stop3471" />
      <stop
         id="stop3473"
         offset="1"
         style="stop-color:#171717;stop-opacity:1;" />
    </linearGradient>
    <linearGradient
       id="linearGradient2724">
      <stop
         id="stop2726"
         offset="0"
         style="stop-color:#6c6c6c;stop-opacity:1;" />
      <stop
         style="stop-color:#000000;stop-opacity:1;"
         offset="0.5"
         id="stop4660" />
      <stop
         id="stop2728"
         offset="1"
         style="stop-color:#c1c3c0;stop-opacity:1" />
    </linearGradient>
    <linearGradient
       id="linearGradient2597">
      <stop
         style="stop-color:#000000;stop-opacity:1;"
         offset="0"
         id="stop2599" />
      <stop
         style="stop-color:#000000;stop-opacity:0;"
         offset="1"
         id="stop2601" />
    </linearGradient>
    <linearGradient
       id="linearGradient2531">
      <stop
         style="stop-color:#000000;stop-opacity:1"
         offset="0"
         id="stop2533" />
      <stop
         style="stop-color:#c1c3c0;stop-opacity:1"
         offset="1"
         id="stop2535" />
    </linearGradient>
    <linearGradient
       inkscape:collect="always"
       xlink:href="#linearGradient4380"
       id="linearGradient4527"
       x1="28.28125"
       y1="15.734375"
       x2="33.0625"
       y2="15.734375"
       gradientUnits="userSpaceOnUse"
       gradientTransform="matrix(-1,0,0,1,38.746033,-2.25)" />
    <linearGradient
       inkscape:collect="always"
       xlink:href="#linearGradient2597"
       id="linearGradient4535"
       x1="29.75"
       y1="15.96875"
       x2="32.229477"
       y2="18.301771"
       gradientUnits="userSpaceOnUse"
       gradientTransform="matrix(-1,0,0,1,38.746033,-2.25)" />
    <linearGradient
       inkscape:collect="always"
       xlink:href="#linearGradient2597"
       id="linearGradient4543"
       x1="30.59375"
       y1="15.0625"
       x2="33.453522"
       y2="12.677267"
       gradientUnits="userSpaceOnUse"
       gradientTransform="matrix(-1,0,0,1,38.746033,-2.25)" />
    <linearGradient
       inkscape:collect="always"
       xlink:href="#linearGradient2597"
       id="linearGradient4551"
       x1="26.370487"
       y1="15.695273"
       x2="32.5"
       y2="18.374956"
       gradientUnits="userSpaceOnUse"
       gradientTransform="matrix(-1,0,0,1,38.746033,-2.25)" />
    <linearGradient
       inkscape:collect="always"
       xlink:href="#linearGradient2724"
       id="linearGradient4559"
       x1="23.749098"
       y1="17.788414"
       x2="32.5"
       y2="17.788414"
       gradientUnits="userSpaceOnUse"
       gradientTransform="matrix(-1,0,0,1,38.746033,-2.25)" />
    <linearGradient
       inkscape:collect="always"
       xlink:href="#linearGradient2597"
       id="linearGradient4575"
       x1="26.794626"
       y1="8.2808485"
       x2="25.467957"
       y2="12.052711"
       gradientUnits="userSpaceOnUse"
       gradientTransform="matrix(-1,0,0,1,38.746033,-2.25)" />
    <linearGradient
       inkscape:collect="always"
       xlink:href="#linearGradient2724"
       id="linearGradient4583"
       x1="23.684919"
       y1="8.71875"
       x2="31.002581"
       y2="8.71875"
       gradientUnits="userSpaceOnUse"
       gradientTransform="matrix(-1,0,0,1,38.746033,-2.25)" />
    <linearGradient
       inkscape:collect="always"
       xlink:href="#linearGradient3467"
       id="linearGradient4595"
       x1="22.653618"
       y1="8.2444868"
       x2="28.238319"
       y2="8.2444868"
       gradientUnits="userSpaceOnUse" />
    <linearGradient
       inkscape:collect="always"
       xlink:href="#linearGradient2597"
       id="linearGradient4604"
       x1="29.6873"
       y1="10.771734"
       x2="28.638893"
       y2="8.90625"
       gradientUnits="userSpaceOnUse"
       gradientTransform="matrix(-1,0,0,1,38.746033,-2.25)" />
    <linearGradient
       inkscape:collect="always"
       xlink:href="#linearGradient2597"
       id="linearGradient4610"
       gradientUnits="userSpaceOnUse"
       x1="30.375"
       y1="13.734375"
       x2="21.138323"
       y2="13.734375"
       gradientTransform="matrix(-1,0,0,1,38.746033,-2.25)" />
    <linearGradient
       inkscape:collect="always"
       xlink:href="#linearGradient4628"
       id="linearGradient4634"
       x1="1.1875"
       y1="15.34375"
       x2="38.09375"
       y2="15.34375"
       gradientUnits="userSpaceOnUse" />
    <linearGradient
       inkscape:collect="always"
       xlink:href="#linearGradient4646"
       id="linearGradient4644"
       x1="1.402283"
       y1="15.078125"
       x2="37.527283"
       y2="15.078125"
       gradientUnits="userSpaceOnUse" />
    <linearGradient
       inkscape:collect="always"
       xlink:href="#linearGradient4380"
       id="linearGradient4658"
       gradientUnits="userSpaceOnUse"
       gradientTransform="matrix(-1,0,0,1,38.746033,-2.25)"
       x1="27.558533"
       y1="15.757775"
       x2="33.058533"
       y2="13.671875" />
    <linearGradient
       inkscape:collect="always"
       xlink:href="#linearGradient2531"
       id="linearGradient5637"
       x1="11.415784"
       y1="11.581182"
       x2="14.703125"
       y2="11.878786"
       gradientUnits="userSpaceOnUse" />
    <radialGradient
       inkscape:collect="always"
       xlink:href="#linearGradient2597"
       id="radialGradient4181"
       cx="26.425892"
       cy="10.958638"
       fx="26.425892"
       fy="10.958638"
       r="2.7141464"
       gradientTransform="matrix(1.3889841,2.6683796e-8,0,0.2560061,-10.359826,5.8992332)"
       gradientUnits="userSpaceOnUse" />
    <linearGradient
       inkscape:collect="always"
       xlink:href="#linearGradient4448"
       id="linearGradient3218"
       x1="23.192471"
       y1="18.375395"
       x2="25.808552"
       y2="1.6751477"
       gradientUnits="userSpaceOnUse" />
    <linearGradient
       inkscape:collect="always"
       xlink:href="#linearGradient4628"
       id="linearGradient3226"
       x1="38.496033"
       y1="26.6875"
       x2="4.0897832"
       y2="9.6983767"
       gradientUnits="userSpaceOnUse" />
    <linearGradient
       inkscape:collect="always"
       xlink:href="#linearGradient2531"
       id="linearGradient3230"
       gradientUnits="userSpaceOnUse"
       x1="13.480963"
       y1="9.84375"
       x2="14.184802"
       y2="11.724407" />
  </defs>
  <sodipodi:namedview
     id="base"
     pagecolor="#ffffff"
     bordercolor="#666666"
     borderopacity="1.0"
     inkscape:pageopacity="0.0"
     inkscape:pageshadow="2"
     inkscape:zoom="13.774804"
     inkscape:cx="19.999018"
     inkscape:cy="18.013246"
     inkscape:current-layer="layer1"
     showgrid="false"
     inkscape:grid-bbox="false"
     inkscape:document-units="px"
     width="40px"
     height="40px"
     gridempspacing="2"
     inkscape:window-width="1167"
     inkscape:window-height="914"
     inkscape:window-x="52"
     inkscape:window-y="78"
     showguides="true"
     inkscape:guide-bbox="true" />
  <metadata
     id="metadata2198">
    <rdf:RDF>
      <cc:Work
         rdf:about="">
        <dc:format>image/svg+xml</dc:format>
        <dc:type
           rdf:resource="http://purl.org/dc/dcmitype/StillImage" />
        <dc:creator>
          <cc:Agent>
            <dc:title>Jarle Akselsen</dc:title>
          </cc:Agent>
        </dc:creator>
        <cc:license
           rdf:resource="http://creativecommons.org/licenses/GPL/2.0/" />
      </cc:Work>
      <cc:License
         rdf:about="http://creativecommons.org/licenses/GPL/2.0/">
        <cc:permits
           rdf:resource="http://web.resource.org/cc/Reproduction" />
        <cc:permits
           rdf:resource="http://web.resource.org/cc/Distribution" />
        <cc:requires
           rdf:resource="http://web.resource.org/cc/Notice" />
        <cc:permits
           rdf:resource="http://web.resource.org/cc/DerivativeWorks" />
        <cc:requires
           rdf:resource="http://web.resource.org/cc/ShareAlike" />
        <cc:requires
           rdf:resource="http://web.resource.org/cc/SourceCode" />
      </cc:License>
    </rdf:RDF>
  </metadata>
  <g
     id="layer1"
     inkscape:label="Layer 1"
     inkscape:groupmode="layer">
    <path
       sodipodi:nodetypes="csssccccccsssssssccccccccccssssssc"
       id="path3382"
       d="M 11.402283,5.53125 C 11.776835,5.53125 12.139672,5.538402 12.464783,5.5625 C 13.420556,5.633745 14.121031,5.811709 14.121033,6 C 14.121033,6.069913 14.121033,6.324846 14.121033,6.40625 C 14.121033,6.471489 14.044054,6.535979 13.933533,6.59375 L 15.214783,7.71875 L 15.246033,7.75 L 15.339783,7.75 L 15.339783,14.6875 L 14.996033,14.75 C 14.998595,14.809671 14.994757,14.876544 14.996033,14.90625 C 15.024747,15.575063 13.087079,16.209298 10.683533,16.3125 C 10.38309,16.3254 10.09272,16.316563 9.808533,16.3125 C 9.524346,16.308437 9.226756,16.300877 8.964783,16.28125 C 7.91689,16.202744 7.075218,15.99026 6.621033,15.71875 C 6.507487,15.650873 6.43258,15.57644 6.371033,15.5 C 6.309486,15.42356 6.280872,15.364852 6.277283,15.28125 C 6.273697,15.197648 6.249146,14.916231 6.246033,14.84375 L 5.683533,14.5 L 5.683533,14.15625 L 5.683533,14 L 5.683533,13.96875 C 5.98608,13.545268 7.101728,12.102067 7.652283,11.34375 L 7.652283,7.25 L 8.433533,7.1875 L 8.433533,6.6875 L 8.964783,6.65625 C 9.095066,6.709706 9.282331,6.747048 9.496033,6.78125 C 9.277254,6.738521 9.099287,6.711438 8.964783,6.65625 C 8.947921,6.649331 8.917638,6.632079 8.902283,6.625 C 8.764448,6.561455 8.683533,6.479532 8.683533,6.40625 C 8.683533,6.324418 8.683533,6.070236 8.683533,6 C 8.683533,5.809467 9.364449,5.634794 10.339783,5.5625 C 10.664463,5.539201 11.027731,5.53125 11.402283,5.53125 z "
       style="opacity:1;fill:#808c90;fill-opacity:1;fill-rule:nonzero;stroke:none;stroke-width:0.1;stroke-linecap:round;stroke-linejoin:round;stroke-miterlimit:4;stroke-dasharray:none;stroke-opacity:1" />
    <path
       style="opacity:0.6;color:#000000;fill:url(#linearGradient4610);fill-opacity:1.0;fill-rule:evenodd;stroke:none;stroke-width:1px;stroke-linecap:butt;stroke-linejoin:miter;marker:none;marker-start:none;marker-mid:none;marker-end:none;stroke-miterlimit:4;stroke-dasharray:none;stroke-dashoffset:0;stroke-opacity:1;visibility:visible;display:inline;overflow:visible;enable-background:accumulate"
       d="M 9.683533,6.8125 L 9.683533,7.6875 L 9.027283,7.75 L 9.027283,6.875 L 9.683533,6.8125 z M 15.339783,7.75 L 15.339783,14.6875 L 12.339783,15.3125 L 10.464783,15.71875 L 8.371033,16.15625 L 8.371033,15.625 C 8.371033,15.625 9.734729,13.648661 10.464783,12.71875 L 10.464783,8.28125 L 15.339783,7.75 z "
       id="path3337" />
    <path
       style="opacity:1;fill:#000000;fill-opacity:1;fill-rule:nonzero;stroke:none;stroke-width:0.1;stroke-linecap:round;stroke-linejoin:round;stroke-miterlimit:4;stroke-dasharray:none;stroke-opacity:1"
       d="M 1.464783,3.96875 L 4.433533,4.875 L 4.433533,4.9375 L 4.621033,4.9375 L 8.277283,6.09375 L 8.277283,7.1875 L 7.933533,7.21875 L 7.683533,7.25 L 7.683533,8.46875 L 7.652283,8.46875 L 7.652283,9.3125 L 7.652283,11.3125 L 7.652283,11.34375 C 7.618725,11.389971 7.564727,11.449076 7.527283,11.5 L 4.246033,9.875 L 4.246033,9.78125 L 4.089783,9.78125 L 4.089783,9.8125 L 1.183533,8.375 L 1.183533,3.96875 L 1.464783,3.96875 z M 17.246033,8.90625 L 25.496033,11.5 L 25.496033,11.59375 L 25.683533,11.5625 L 38.496033,15.59375 L 38.496033,26.46875 L 38.089783,26.6875 L 38.089783,26.71875 L 25.277283,20.34375 L 25.277283,20.1875 L 25.089783,20.25 L 16.839783,16.15625 L 16.839783,12.9375 L 16.777283,12.90625 L 16.777283,14.8125 L 16.464783,14.875 L 16.027283,14.6875 L 16.027283,12.59375 L 12.933533,11.3125 L 12.933533,10.78125 L 12.933533,10.75 L 12.996033,10.78125 L 13.214783,10.71875 L 16.027283,11.8125 L 16.027283,9.90625 L 16.308533,9.84375 L 16.777283,10 L 16.777283,12.125 L 16.839783,12.15625 L 16.839783,8.96875 L 17.246033,8.90625 z "
       id="path2411" />
    <rect
       style="opacity:0.61162792;fill:#555753;fill-opacity:1;fill-rule:nonzero;stroke:none;stroke-width:0.69999999;stroke-linecap:round;stroke-linejoin:miter;stroke-miterlimit:4;stroke-dasharray:none;stroke-opacity:1"
       id="rect1951"
       width="40.001965"
       height="10.004759"
       x="-0.0019644466"
       y="30" />
    <text
       xml:space="preserve"
       style="font-size:12px;font-style:normal;font-weight:normal;fill:#eeeeec;fill-opacity:1;stroke:none;stroke-width:1px;stroke-linecap:butt;stroke-linejoin:miter;stroke-opacity:1;font-family:Bitstream Vera Sans"
       x="11.885231"
       y="39.168156"
       id="text2840"><tspan
         sodipodi:role="line"
         id="tspan2842"
         x="11.885231"
         y="39.168156">Rb</tspan></text>
    <path
       style="opacity:0.5;fill:url(#linearGradient4543);fill-opacity:1.0;fill-rule:nonzero;stroke:none;stroke-width:0.1;stroke-linecap:round;stroke-linejoin:round;stroke-miterlimit:4;stroke-dasharray:none;stroke-opacity:1"
       d="M 7.871033,11.46875 L 7.871033,13.5625 L 8.152283,13.71875 L 5.902283,14.125 C 6.30671,13.579444 7.7869,11.581067 7.871033,11.46875 z M 5.902283,14.125 L 5.683533,14.15625 L 5.683533,14 L 5.902283,14.125 z "
       id="rect4330" />
    <path
       style="opacity:0.75;color:#000000;fill:url(#linearGradient4658);fill-opacity:1;fill-rule:evenodd;stroke:none;stroke-width:1px;stroke-linecap:butt;stroke-linejoin:miter;marker:none;marker-start:none;marker-mid:none;marker-end:none;stroke-miterlimit:4;stroke-dasharray:none;stroke-dashoffset:0;stroke-opacity:1;visibility:visible;display:inline;overflow:visible;enable-background:accumulate"
       d="M 8.4375 6.6875 L 8.4375 7.53125 L 7.65625 7.25 L 7.65625 11.34375 L 7.875 11.46875 L 7.875 13.5625 L 9 14.1875 C 9.410969 13.614806 9.8708193 12.98506 10.1875 12.59375 L 10.4375 12.75 C 10.440558 12.746082 10.465713 12.753881 10.46875 12.75 C 10.472905 12.744689 10.464634 12.723992 10.46875 12.71875 L 10.46875 8.28125 L 10.5625 8.28125 L 9.03125 7.75 L 9.03125 6.875 L 8.4375 6.6875 z M 9.6875 6.8125 L 9.6875 7.6875 L 11.1875 8.21875 L 9.6875 6.8125 z M 5.6875 13.96875 L 5.6875 14.5 L 8.375 16.15625 L 8.375 15.625 L 5.6875 13.96875 z "
       id="path5314" />
    <path
       transform="matrix(-1,0,0,1,38.793235,-2.25)"
       d="M 30.115224 8.2444868 A 2.7141464 0.46022484 0 1 1  24.686931,8.2444868 A 2.7141464 0.46022484 0 1 1  30.115224 8.2444868 z"
       sodipodi:ry="0.46022484"
       sodipodi:rx="2.7141464"
       sodipodi:cy="8.2444868"
       sodipodi:cx="27.401077"
       id="path4593"
       style="opacity:0.75;fill:url(#linearGradient4595);fill-opacity:1;fill-rule:nonzero;stroke:none;stroke-width:0.1;stroke-linecap:round;stroke-linejoin:round;stroke-miterlimit:4;stroke-dasharray:none;stroke-opacity:1"
       sodipodi:type="arc" />
    <path
       style="opacity:0.75;color:#000000;fill:url(#linearGradient4575);fill-opacity:1.0;fill-rule:evenodd;stroke:none;stroke-width:1px;stroke-linecap:butt;stroke-linejoin:miter;marker:none;marker-start:none;marker-mid:none;marker-end:none;stroke-miterlimit:4;stroke-dasharray:none;stroke-dashoffset:0;stroke-opacity:1;visibility:visible;display:inline;overflow:visible;enable-background:accumulate"
       d="M 13.933533,6.59375 L 15.277283,7.75 L 11.183533,8.21875 L 9.714783,6.8125 C 10.183922,6.8876174 10.75021,6.9375 11.402283,6.9375 C 12.567048,6.9375 13.547468,6.7955523 13.933533,6.59375 z "
       id="path5403" />
    <path
       style="opacity:0.5;color:#000000;fill:url(#linearGradient3226);fill-opacity:1.0;fill-rule:evenodd;stroke:none;stroke-width:1px;stroke-linecap:butt;stroke-linejoin:miter;marker:none;marker-start:none;marker-mid:none;marker-end:none;stroke-miterlimit:4;stroke-dasharray:none;stroke-dashoffset:0;stroke-opacity:1;visibility:visible;display:inline;overflow:visible;enable-background:accumulate"
       d="M 4.433533,4.875 L 4.433533,4.9375 L 4.246033,4.96875 L 4.246033,7.25 L 4.089783,7.1875 L 4.089783,4.90625 L 4.433533,4.875 z M 8.277283,6.09375 L 8.277283,7.1875 L 7.933533,7.21875 L 7.933533,6.125 L 8.277283,6.09375 z M 4.089783,7.59375 L 4.246033,7.6875 L 4.246033,9.78125 L 4.089783,9.78125 L 4.089783,7.59375 z M 16.777283,10 L 16.777283,12.125 L 16.464783,12.1875 L 16.464783,10.0625 L 16.777283,10 z M 25.496033,11.5 L 25.496033,11.71875 L 25.277283,11.65625 L 25.277283,15.59375 L 25.089783,15.65625 L 25.089783,11.59375 L 25.496033,11.5 z M 16.464783,12.78125 L 16.777283,12.90625 L 16.777283,14.8125 L 16.464783,14.875 L 16.464783,12.78125 z M 38.496033,15.59375 L 38.496033,26.46875 L 38.089783,26.6875 L 38.089783,15.75 L 38.496033,15.59375 z M 25.089783,16.375 L 25.277283,16.46875 L 25.277283,20.1875 L 25.089783,20.25 L 25.089783,16.375 z "
       id="path3453" />
    <path
       style="opacity:1;color:#000000;fill:url(#linearGradient4527);fill-opacity:1;fill-rule:evenodd;stroke:none;stroke-width:1px;stroke-linecap:butt;stroke-linejoin:miter;marker:none;marker-start:none;marker-mid:none;marker-end:none;stroke-miterlimit:4;stroke-dasharray:none;stroke-dashoffset:0;stroke-opacity:1;visibility:visible;display:inline;overflow:visible;enable-background:accumulate"
       d="M 7.652283,11.34375 L 7.871033,11.46875 C 7.141663,12.442447 6.414124,13.434547 5.902283,14.125 L 5.683533,14 L 5.683533,13.96875 C 5.98608,13.545268 7.101728,12.102067 7.652283,11.34375 z M 10.183533,12.59375 L 10.464783,12.75 C 9.75801,13.631972 8.371033,15.625 8.371033,15.625 L 8.089783,15.46875 C 8.224675,15.271687 9.522275,13.41084 10.183533,12.59375 z "
       id="path3547" />
    <path
       style="opacity:0.75;color:#000000;fill:url(#linearGradient4535);fill-opacity:1;fill-rule:evenodd;stroke:none;stroke-width:1px;stroke-linecap:butt;stroke-linejoin:miter;marker:none;marker-start:none;marker-mid:none;marker-end:none;stroke-miterlimit:4;stroke-dasharray:none;stroke-dashoffset:0;stroke-opacity:1;visibility:visible;display:inline;overflow:visible;enable-background:accumulate"
       d="M 8.152283,13.71875 L 8.996033,14.1875 C 8.582343,14.769863 8.156645,15.371072 8.089783,15.46875 L 5.933533,14.125 L 8.152283,13.71875 z "
       id="path5608" />
    <path
       style="opacity:0.5;color:#000000;fill:url(#linearGradient3218);fill-opacity:1;fill-rule:evenodd;stroke:none;stroke-width:1px;stroke-linecap:butt;stroke-linejoin:miter;marker:none;marker-start:none;marker-mid:none;marker-end:none;stroke-miterlimit:4;stroke-dasharray:none;stroke-dashoffset:0;stroke-opacity:1;visibility:visible;display:inline;overflow:visible;enable-background:accumulate"
       d="M 1.1875 3.96875 L 4.09375 4.90625 L 4.4375 4.875 L 1.46875 3.96875 L 1.1875 3.96875 z M 4.625 4.9375 L 4.25 4.96875 L 7.9375 6.125 L 8.28125 6.09375 L 4.625 4.9375 z M 4.09375 7.1875 L 4.25 7.25 L 4.25 7.1875 L 4.09375 7.1875 z M 17.25 8.90625 L 16.84375 8.96875 L 25.09375 11.59375 L 25.5 11.5 L 17.25 8.90625 z M 25.6875 11.5625 L 25.28125 11.65625 L 38.09375 15.75 L 38.53125 15.59375 L 25.6875 11.5625 z M 16.78125 12.125 L 16.46875 12.1875 L 16.84375 12.34375 L 16.84375 12.15625 L 16.78125 12.125 z M 25.28125 15.59375 L 25.09375 15.65625 L 25.28125 15.75 L 25.28125 15.59375 z "
       id="path2388" />
    <path
       style="opacity:1;fill:#0000ff;fill-opacity:1;fill-rule:nonzero;stroke:none;stroke-width:0.1;stroke-linecap:round;stroke-linejoin:round;stroke-miterlimit:4;stroke-dasharray:none;stroke-opacity:1"
       d="M 1.402283,4.25 L 3.871033,5.0625 L 3.871033,6.96875 L 3.496033,6.8125 L 1.402283,5.96875 L 1.402283,4.25 z M 4.496033,5.25 L 7.683533,6.3125 L 7.683533,8.46875 L 4.496033,7.21875 L 4.496033,5.25 z M 1.402283,6.65625 L 1.589783,6.71875 L 3.871033,7.6875 L 3.871033,9.46875 L 1.402283,8.28125 L 1.402283,6.65625 z M 4.527283,7.96875 L 7.652283,9.3125 L 7.652283,11.3125 L 4.527283,9.78125 L 4.527283,7.96875 z M 17.402283,9.5 L 24.527283,11.8125 L 24.527283,15.15625 L 17.402283,12.34375 L 17.402283,9.5 z M 25.839783,12.25 L 37.527283,16.0625 L 37.527283,20.3125 L 25.839783,15.6875 L 25.839783,12.25 z M 17.371033,13.4375 L 24.558533,16.46875 L 24.558533,19.59375 L 17.371033,16.0625 L 17.371033,13.4375 z M 25.871033,17.03125 L 37.496033,21.96875 L 37.496033,25.90625 L 25.871033,20.21875 L 25.871033,17.03125 z "
       id="path2468" />
    <path
       style="opacity:0.5;fill:url(#linearGradient4559);fill-opacity:1;fill-rule:nonzero;stroke:none;stroke-width:0.1;stroke-linecap:round;stroke-linejoin:round;stroke-miterlimit:4;stroke-dasharray:none;stroke-opacity:1"
       d="M 14.996033,14.75 C 14.998595,14.809671 14.994757,14.876544 14.996033,14.90625 C 15.024749,15.575062 13.087079,16.209298 10.683533,16.3125 C 8.279987,16.415699 6.305999,15.950063 6.277283,15.28125 C 6.273693,15.197648 6.249146,14.916231 6.246033,14.84375 C 6.256666,15.091371 6.642527,15.314658 7.246033,15.46875 L 8.371033,16.15625 L 10.464783,15.71875 C 10.530832,15.716634 10.585541,15.721616 10.652283,15.71875 C 12.583703,15.635822 14.193561,15.257299 14.746033,14.8125 L 14.996033,14.75 z "
       id="path5428" />
    <path
       style="opacity:0.6;fill:url(#linearGradient4551);fill-opacity:1.0;fill-rule:nonzero;stroke:none;stroke-width:0.1;stroke-linecap:round;stroke-linejoin:round;stroke-miterlimit:4;stroke-dasharray:none;stroke-opacity:1"
       d="M 14.746033,14.8125 C 14.193561,15.257299 12.583703,15.635822 10.652283,15.71875 C 10.585541,15.721616 10.530832,15.716634 10.464783,15.71875 L 12.339783,15.3125 L 14.746033,14.8125 z M 6.246033,14.84375 L 7.246033,15.46875 C 6.642527,15.314658 6.256666,15.091371 6.246033,14.84375 z "
       id="path4500" />
    <path
       style="opacity:0.75;color:#000000;fill:url(#linearGradient4604);fill-opacity:1.0;fill-rule:evenodd;stroke:none;stroke-width:1px;stroke-linecap:butt;stroke-linejoin:miter;marker:none;marker-start:none;marker-mid:none;marker-end:none;stroke-miterlimit:4;stroke-dasharray:none;stroke-dashoffset:0;stroke-opacity:1;visibility:visible;display:inline;overflow:visible;enable-background:accumulate"
       d="M 8.964783,6.65625 C 9.1385,6.7275268 9.405517,6.7629811 9.714783,6.8125 L 8.964783,6.875 L 8.402283,6.6875 L 8.964783,6.65625 z M 8.433533,7.1875 L 8.433533,7.53125 L 7.652283,7.25 L 8.433533,7.1875 z M 9.683533,7.6875 L 11.152283,8.21875 L 10.527283,8.28125 L 9.027283,7.75 L 9.683533,7.6875 z "
       id="path5392" />
    <path
       style="opacity:1;fill:url(#linearGradient4634);fill-opacity:1;fill-rule:nonzero;stroke:none;stroke-width:0.1;stroke-linecap:round;stroke-linejoin:round;stroke-miterlimit:4;stroke-dasharray:none;stroke-opacity:1"
       d="M 1.1875,3.96875 L 1.1875,8.375 L 4.09375,9.8125 L 4.09375,7.59375 L 4.25,7.6875 L 4.25,9.875 L 7.53125,11.5 C 7.568694,11.449076 7.622692,11.389971 7.65625,11.34375 L 7.65625,11.3125 L 4.53125,9.78125 L 4.53125,7.96875 L 7.65625,9.3125 L 7.65625,8.46875 L 4.5,7.21875 L 4.5,5.25 L 7.6875,6.3125 L 7.6875,7.25 L 7.9375,7.21875 L 7.9375,6.125 L 4.25,4.96875 L 4.25,7.25 L 4.09375,7.1875 L 4.09375,4.90625 L 1.1875,3.96875 z M 1.40625,4.25 L 3.875,5.0625 L 3.875,6.96875 L 3.5,6.8125 L 1.40625,5.96875 L 1.40625,4.25 z M 1.40625,6.65625 L 1.59375,6.71875 L 3.875,7.6875 L 3.875,9.46875 L 1.40625,8.28125 L 1.40625,6.65625 z M 16.84375,8.96875 L 16.84375,12.34375 L 16.46875,12.1875 L 16.46875,10.0625 L 16.03125,9.90625 L 16.03125,12 L 12.9375,10.75 L 12.9375,11.3125 L 16.03125,12.59375 L 16.03125,14.6875 L 16.46875,14.875 L 16.46875,12.78125 L 16.84375,12.9375 L 16.84375,16.15625 L 25.09375,20.25 L 25.09375,16.375 L 25.28125,16.46875 L 25.28125,20.34375 L 38.09375,26.71875 L 38.09375,15.75 L 25.28125,11.65625 L 25.28125,15.71875 L 25.09375,15.65625 L 25.09375,11.59375 L 16.84375,8.96875 z M 17.40625,9.5 L 24.53125,11.8125 L 24.53125,15.15625 L 17.40625,12.34375 L 17.40625,9.5 z M 25.84375,12.25 L 37.53125,16.0625 L 37.53125,20.3125 L 25.84375,15.6875 L 25.84375,12.25 z M 17.375,13.4375 L 24.5625,16.46875 L 24.5625,19.59375 L 17.375,16.0625 L 17.375,13.4375 z M 25.875,17.03125 L 37.5,21.96875 L 37.5,25.90625 L 25.875,20.21875 L 25.875,17.03125 z "
       id="path4619" />
    <path
       id="path4636"
       d="M 1.402283,4.25 L 3.871033,5.0625 L 3.871033,6.96875 L 3.496033,6.8125 L 1.402283,5.96875 L 1.402283,4.25 z M 4.496033,5.25 L 7.683533,6.3125 L 7.683533,8.46875 L 4.496033,7.21875 L 4.496033,5.25 z M 1.402283,6.65625 L 1.589783,6.71875 L 3.871033,7.6875 L 3.871033,9.46875 L 1.402283,8.28125 L 1.402283,6.65625 z M 4.527283,7.96875 L 7.652283,9.3125 L 7.652283,11.3125 L 4.527283,9.78125 L 4.527283,7.96875 z M 17.402283,9.5 L 24.527283,11.8125 L 24.527283,15.15625 L 17.402283,12.34375 L 17.402283,9.5 z M 25.839783,12.25 L 37.527283,16.0625 L 37.527283,20.3125 L 25.839783,15.6875 L 25.839783,12.25 z M 17.371033,13.4375 L 24.558533,16.46875 L 24.558533,19.59375 L 17.371033,16.0625 L 17.371033,13.4375 z M 25.871033,17.03125 L 37.496033,21.96875 L 37.496033,25.90625 L 25.871033,20.21875 L 25.871033,17.03125 z "
       style="opacity:1;fill:url(#linearGradient4644);fill-opacity:1;fill-rule:nonzero;stroke:none;stroke-width:0.1;stroke-linecap:round;stroke-linejoin:round;stroke-miterlimit:4;stroke-dasharray:none;stroke-opacity:1" />
    <path
       id="path4652"
       d="M 16.46875,10.0625 L 16.03125,9.90625 L 16.03125,12 L 12.9375,10.75 L 12.9375,11.3125 L 16.03125,12.59375 L 16.03125,14.6875 L 16.46875,14.875 L 16.46875,10.0625 z "
       style="opacity:1;fill:url(#linearGradient5637);fill-opacity:1.0;fill-rule:nonzero;stroke:none;stroke-width:0.1;stroke-linecap:round;stroke-linejoin:round;stroke-miterlimit:4;stroke-dasharray:none;stroke-opacity:1"
       sodipodi:nodetypes="ccccccccc" />
    <path
       style="opacity:0.5;fill:url(#linearGradient4583);fill-opacity:1.0;fill-rule:nonzero;stroke:none;stroke-width:0.1;stroke-linecap:round;stroke-linejoin:round;stroke-miterlimit:4;stroke-dasharray:none;stroke-opacity:1"
       d="M 14.121033,6 C 14.121033,6.069913 14.121033,6.324846 14.121033,6.40625 C 14.121033,6.699378 12.900491,6.9375 11.402283,6.9375 C 9.904074,6.9375 8.683534,6.699378 8.683533,6.40625 C 8.683533,6.324419 8.683533,6.070236 8.683533,6 C 8.683534,6.254044 9.904074,6.46875 11.402283,6.46875 C 12.900491,6.46875 14.121033,6.254044 14.121033,6 z "
       id="path5331" />
    <path
       sodipodi:type="arc"
       style="opacity:0.5;fill:url(#radialGradient4181);fill-opacity:1;fill-rule:nonzero;stroke:none;stroke-width:0.1;stroke-linecap:round;stroke-linejoin:round;stroke-miterlimit:4;stroke-dasharray:none;stroke-opacity:1"
       id="path3210"
       sodipodi:cx="27.401077"
       sodipodi:cy="8.2444868"
       sodipodi:rx="2.7141464"
       sodipodi:ry="0.46022484"
       d="M 30.115224 8.2444868 A 2.7141464 0.46022484 0 1 1  24.686931,8.2444868 A 2.7141464 0.46022484 0 1 1  30.115224 8.2444868 z"
       transform="matrix(-1,0,0,1,38.793235,-2.25)" />
    <path
       id="path3228"
       d="M 16.308533,9.84375 L 16.777283,10 L 16.464783,10.0625 L 15.996033,9.90625 L 16.308533,9.84375 z M 13.214783,10.71875 L 16.027283,11.8125 L 16.027283,12 L 15.996033,12 L 12.933533,10.78125 L 13.214783,10.71875 z "
       style="opacity:1;color:#000000;fill:url(#linearGradient3230);fill-opacity:1.0;fill-rule:evenodd;stroke:none;stroke-width:1px;stroke-linecap:butt;stroke-linejoin:miter;marker:none;marker-start:none;marker-mid:none;marker-end:none;stroke-miterlimit:4;stroke-dasharray:none;stroke-dashoffset:0;stroke-opacity:1;visibility:visible;display:inline;overflow:visible;enable-background:accumulate"
       sodipodi:nodetypes="ccccccccccc" />
  </g>
</svg>
