<?xml version="1.0" encoding="UTF-8" standalone="no"?>
<!-- Created with Inkscape (http://www.inkscape.org/) -->
<svg
   xmlns:dc="http://purl.org/dc/elements/1.1/"
   xmlns:cc="http://web.resource.org/cc/"
   xmlns:rdf="http://www.w3.org/1999/02/22-rdf-syntax-ns#"
   xmlns:svg="http://www.w3.org/2000/svg"
   xmlns="http://www.w3.org/2000/svg"
   xmlns:xlink="http://www.w3.org/1999/xlink"
   xmlns:sodipodi="http://sodipodi.sourceforge.net/DTD/sodipodi-0.dtd"
   xmlns:inkscape="http://www.inkscape.org/namespaces/inkscape"
   width="40"
   height="40"
   id="svg2193"
   sodipodi:version="0.32"
   inkscape:version="0.45.1"
   version="1.0"
   sodipodi:docbase="/home/jra/Desktop"
   sodipodi:docname="38.svg"
   inkscape:output_extension="org.inkscape.output.svg.inkscape">
  <defs
     id="defs2195">
    <linearGradient
       id="linearGradient2377">
      <stop
         style="stop-color:#4b4b4b;stop-opacity:1;"
         offset="0"
         id="stop2379" />
      <stop
         style="stop-color:#282a28;stop-opacity:1;"
         offset="1"
         id="stop2381" />
    </linearGradient>
    <linearGradient
       id="linearGradient3350">
      <stop
         id="stop3353"
         offset="0"
         style="stop-color:#ffffff;stop-opacity:0;" />
      <stop
         id="stop3355"
         offset="1"
         style="stop-color:#ffffff;stop-opacity:1;" />
    </linearGradient>
    <linearGradient
       inkscape:collect="always"
       id="linearGradient3357">
      <stop
         style="stop-color:#000000;stop-opacity:1;"
         offset="0"
         id="stop3359" />
      <stop
         style="stop-color:#000000;stop-opacity:0;"
         offset="1"
         id="stop3361" />
    </linearGradient>
    <linearGradient
       id="linearGradient3379">
      <stop
         style="stop-color:#c2c8e8;stop-opacity:1;"
         offset="0"
         id="stop3381" />
      <stop
         style="stop-color:#645554;stop-opacity:1;"
         offset="1"
         id="stop3383" />
    </linearGradient>
    <linearGradient
       inkscape:collect="always"
       id="linearGradient3361">
      <stop
         style="stop-color:#ffffff;stop-opacity:1;"
         offset="0"
         id="stop3363" />
      <stop
         style="stop-color:#ffffff;stop-opacity:0;"
         offset="1"
         id="stop3365" />
    </linearGradient>
    <linearGradient
       id="linearGradient3348">
      <stop
         style="stop-color:#cd7f7c;stop-opacity:1;"
         offset="0"
         id="stop3350" />
      <stop
         style="stop-color:#a563a5;stop-opacity:1;"
         offset="1"
         id="stop3352" />
    </linearGradient>
    <linearGradient
       id="linearGradient3289">
      <stop
         id="stop3291"
         offset="0"
         style="stop-color:#ffffff;stop-opacity:1;" />
      <stop
         id="stop3294"
         offset="1"
         style="stop-color:#ffffff;stop-opacity:0.59375;" />
    </linearGradient>
    <linearGradient
       id="linearGradient3239">
      <stop
         style="stop-color:#ffffff;stop-opacity:1;"
         offset="0"
         id="stop3241" />
      <stop
         style="stop-color:#ffffff;stop-opacity:0;"
         offset="1"
         id="stop3243" />
    </linearGradient>
    <linearGradient
       id="linearGradient3291">
      <stop
         id="stop3293"
         offset="0"
         style="stop-color:#000000;stop-opacity:1;" />
      <stop
         id="stop3295"
         offset="1"
         style="stop-color:#000000;stop-opacity:0;" />
    </linearGradient>
    <radialGradient
       inkscape:collect="always"
       xlink:href="#linearGradient3291"
       id="radialGradient2595"
       gradientUnits="userSpaceOnUse"
       gradientTransform="matrix(1,0,0,0.197802,0,92.82166)"
       cx="63.912209"
       cy="115.70919"
       fx="75.857941"
       fy="115.70919"
       r="63.912209" />
    <linearGradient
       inkscape:collect="always"
       xlink:href="#linearGradient3239"
       id="linearGradient3279"
       x1="15.636517"
       y1="5.44842"
       x2="28.297609"
       y2="33.190006"
       gradientUnits="userSpaceOnUse"
       gradientTransform="matrix(0.9999619,8.7265355e-3,-8.7265355e-3,0.9999619,0.1597063,-0.16574)" />
    <linearGradient
       inkscape:collect="always"
       xlink:href="#linearGradient3289"
       id="linearGradient3287"
       x1="20.783518"
       y1="8.9781609"
       x2="7.0866919"
       y2="0.49596012"
       gradientUnits="userSpaceOnUse"
       gradientTransform="matrix(0.9999619,8.7265355e-3,-8.7265355e-3,0.9999619,0.1597063,-0.16574)" />
    <linearGradient
       inkscape:collect="always"
       xlink:href="#linearGradient3348"
       id="linearGradient3354"
       x1="8.0987517"
       y1="16.832196"
       x2="16.801613"
       y2="16.832196"
       gradientUnits="userSpaceOnUse" />
    <linearGradient
       inkscape:collect="always"
       xlink:href="#linearGradient3361"
       id="linearGradient3367"
       x1="16.8125"
       y1="9.203125"
       x2="7.0520678"
       y2="9.203125"
       gradientUnits="userSpaceOnUse" />
    <radialGradient
       inkscape:collect="always"
       xlink:href="#linearGradient3379"
       id="radialGradient3385"
       cx="12.450182"
       cy="16.832195"
       fx="12.450182"
       fy="16.832195"
       r="4.3514305"
       gradientTransform="matrix(2.1576982,0.3979587,-0.4837552,2.6228792,-6.270892,-32.271278)"
       gradientUnits="userSpaceOnUse" />
    <linearGradient
       inkscape:collect="always"
       xlink:href="#linearGradient3239"
       id="linearGradient3345"
       x1="21.153641"
       y1="5.6558018"
       x2="24.700773"
       y2="34.622246"
       gradientUnits="userSpaceOnUse" />
    <linearGradient
       inkscape:collect="always"
       xlink:href="#linearGradient3357"
       id="linearGradient3363"
       x1="26.295519"
       y1="28.767737"
       x2="30.146052"
       y2="28.767737"
       gradientUnits="userSpaceOnUse" />
    <linearGradient
       inkscape:collect="always"
       xlink:href="#linearGradient3239"
       id="linearGradient3338"
       x1="7.304956"
       y1="2.8581381"
       x2="26.983545"
       y2="35.870277"
       gradientUnits="userSpaceOnUse" />
    <radialGradient
       inkscape:collect="always"
       xlink:href="#linearGradient3350"
       id="radialGradient3348"
       cx="27.594648"
       cy="20.804585"
       fx="27.594648"
       fy="20.804585"
       r="3.6408355"
       gradientTransform="matrix(1.7998544,7.7848133e-3,-1.9070771e-2,4.4091765,-21.697861,-68.688888)"
       gradientUnits="userSpaceOnUse" />
    <linearGradient
       inkscape:collect="always"
       xlink:href="#linearGradient3291"
       id="linearGradient3366"
       x1="20.458696"
       y1="25.665764"
       x2="30.872955"
       y2="33.700188"
       gradientUnits="userSpaceOnUse" />
    <radialGradient
       inkscape:collect="always"
       xlink:href="#linearGradient2377"
       id="radialGradient2374"
       cx="22.935244"
       cy="26.379136"
       fx="22.935244"
       fy="26.379136"
       r="2.0341035"
       gradientTransform="matrix(1,0,0,0.9391785,0,1.6044186)"
       gradientUnits="userSpaceOnUse" />
    <radialGradient
       inkscape:collect="always"
       xlink:href="#linearGradient3239"
       id="radialGradient2383"
       cx="22.937908"
       cy="26.372076"
       fx="22.937908"
       fy="26.372076"
       r="0.69973348"
       gradientTransform="matrix(1,0,0,0.942088,0,1.5272604)"
       gradientUnits="userSpaceOnUse" />
    <linearGradient
       inkscape:collect="always"
       xlink:href="#linearGradient3239"
       id="linearGradient2394"
       x1="11.45001"
       y1="25.565048"
       x2="12.411644"
       y2="24.314413"
       gradientUnits="userSpaceOnUse" />
    <linearGradient
       inkscape:collect="always"
       xlink:href="#linearGradient3289"
       id="linearGradient3376"
       x1="29.567715"
       y1="9.8189592"
       x2="24.060911"
       y2="11.550649"
       gradientUnits="userSpaceOnUse" />
    <linearGradient
       inkscape:collect="always"
       xlink:href="#linearGradient3291"
       id="linearGradient3390"
       gradientUnits="userSpaceOnUse"
       x1="22.640955"
       y1="10.390625"
       x2="26.186167"
       y2="10.390625" />
    <radialGradient
       inkscape:collect="always"
       xlink:href="#linearGradient3350"
       id="radialGradient3346"
       cx="20.019447"
       cy="20.914917"
       fx="20.019447"
       fy="20.914917"
       r="1.6029877"
       gradientTransform="matrix(2.2767041,9.6252651e-7,-6.2392652e-6,14.757997,-24.073716,-284.37191)"
       gradientUnits="userSpaceOnUse" />
    <linearGradient
       inkscape:collect="always"
       xlink:href="#linearGradient3291"
       id="linearGradient2382"
       gradientUnits="userSpaceOnUse"
       x1="7.9248705"
       y1="16.878696"
       x2="19.771801"
       y2="16.878696" />
  </defs>
  <sodipodi:namedview
     id="base"
     pagecolor="#ffffff"
     bordercolor="#666666"
     borderopacity="1.0"
     inkscape:pageopacity="0.0"
     inkscape:pageshadow="2"
     inkscape:zoom="17.425"
     inkscape:cx="20"
     inkscape:cy="20"
     inkscape:current-layer="layer1"
     showgrid="false"
     inkscape:grid-bbox="false"
     inkscape:document-units="px"
     width="40px"
     height="40px"
     gridempspacing="2"
     inkscape:window-width="1167"
     inkscape:window-height="914"
     inkscape:window-x="367"
     inkscape:window-y="117" />
  <metadata
     id="metadata2198">
    <rdf:RDF>
      <cc:Work
         rdf:about="">
        <dc:format>image/svg+xml</dc:format>
        <dc:type
           rdf:resource="http://purl.org/dc/dcmitype/StillImage" />
        <dc:creator>
          <cc:Agent>
            <dc:title>Jarle Akselsen</dc:title>
          </cc:Agent>
        </dc:creator>
        <cc:license
           rdf:resource="http://creativecommons.org/licenses/GPL/2.0/" />
      </cc:Work>
      <cc:License
         rdf:about="http://creativecommons.org/licenses/GPL/2.0/">
        <cc:permits
           rdf:resource="http://web.resource.org/cc/Reproduction" />
        <cc:permits
           rdf:resource="http://web.resource.org/cc/Distribution" />
        <cc:requires
           rdf:resource="http://web.resource.org/cc/Notice" />
        <cc:permits
           rdf:resource="http://web.resource.org/cc/DerivativeWorks" />
        <cc:requires
           rdf:resource="http://web.resource.org/cc/ShareAlike" />
        <cc:requires
           rdf:resource="http://web.resource.org/cc/SourceCode" />
      </cc:License>
    </rdf:RDF>
  </metadata>
  <g
     id="layer1"
     inkscape:label="Layer 1"
     inkscape:groupmode="layer">
    <path
       transform="matrix(0.2168786,0,0,0.6198448,8.53053,-40.438357)"
       d="M 127.82442 115.70919 A 63.912209 12.641975 0 1 1  0,115.70919 A 63.912209 12.641975 0 1 1  127.82442 115.70919 z"
       sodipodi:ry="12.641975"
       sodipodi:rx="63.912209"
       sodipodi:cy="115.70919"
       sodipodi:cx="63.912209"
       id="path2593"
       style="opacity:0.38139535;fill:url(#radialGradient2595);fill-opacity:1;fill-rule:nonzero;stroke:none;stroke-width:0;stroke-linecap:round;stroke-linejoin:round;stroke-miterlimit:4;stroke-dasharray:none;stroke-dashoffset:4;stroke-opacity:1"
       sodipodi:type="arc" />
    <path
       id="path3299"
       d="M 9.510624,2.634718 C 9.510624,2.634718 8.1647435,2.872982 8.1647435,2.872982 C 8.1647435,2.872982 7.6622732,7.789387 7.7937846,13.151386 C 7.9252959,18.513384 8.6963911,24.315937 8.6963911,24.315938 C 8.6963911,24.315938 9.9737946,27.247123 12.400979,29.535965 C 14.828163,31.824806 18.398185,33.463448 18.398184,33.463449 L 20.458697,33.700189 C 20.458697,33.700189 23.341049,32.642278 25.89093,31.414483 C 28.440802,30.186688 30.658193,28.789008 30.658193,28.789008 L 30.872956,25.665764 L 31.564248,25.23428 C 31.564248,25.23428 31.807966,21.923781 31.829063,18.611339 C 31.85016,15.298897 31.648626,11.984512 31.648626,11.984512 C 31.648626,11.984512 30.851978,11.375676 29.438702,10.730804 C 27.987216,10.068499 25.670398,9.463496 25.670398,9.463496 L 23.456095,8.944154 L 23.238172,8.848498 C 22.28133,7.318158 21.296067,6.191247 20.611202,5.481696 C 20.37199,5.037497 19.977915,4.60563 19.246618,4.282242 C 16.823647,3.210778 9.510624,2.634718 9.510624,2.634718 z "
       style="opacity:1;color:#000000;fill:#323232;fill-opacity:1;fill-rule:evenodd;stroke:none;stroke-width:1px;stroke-linecap:butt;stroke-linejoin:miter;marker:none;marker-start:none;marker-mid:none;marker-end:none;stroke-miterlimit:4;stroke-dasharray:none;stroke-dashoffset:0;stroke-opacity:1;visibility:visible;display:inline;overflow:visible;enable-background:accumulate"
       sodipodi:nodetypes="ccscscczccczczccccsc" />
    <path
       id="path2258"
       d="M 20.580499,5.418925 C 21.193627,6.477296 20.717381,7.638954 20.717381,7.638954 L 20.715472,7.857696 C 21.388892,9.125603 23.446395,13.304511 24.953248,20.02014 C 26.797087,28.237635 26.173525,30.593692 26.173524,30.593692 L 27.282776,28.822054 C 27.282776,28.822054 27.508193,20.119723 25.599607,13.994301 C 24.249348,9.660773 21.881519,6.757696 20.580499,5.418925 z "
       style="opacity:0.2;color:#000000;fill:url(#linearGradient3279);fill-opacity:1.0;fill-rule:evenodd;stroke:none;stroke-width:1px;stroke-linecap:butt;stroke-linejoin:miter;marker:none;marker-start:none;marker-mid:none;marker-end:none;stroke-miterlimit:4;stroke-dasharray:none;stroke-dashoffset:0;stroke-opacity:1;visibility:visible;display:inline;overflow:visible;enable-background:accumulate" />
    <path
       sodipodi:nodetypes="czczczczc"
       id="path2262"
       d="M 8.162366,2.858138 C 8.162366,2.858138 9.306631,3.985755 11.866992,5.204444 C 14.427353,6.423134 18.403811,7.732898 18.403811,7.732898 C 18.403811,7.732898 17.478589,14.009395 17.496516,20.451555 C 17.514442,26.893716 18.397149,33.461497 18.397149,33.461497 C 18.397149,33.461497 14.823179,31.830576 12.395995,29.541735 C 9.96881,27.252893 8.688412,24.306132 8.688412,24.306132 C 8.688412,24.306132 7.930998,18.505732 7.799486,13.143734 C 7.667974,7.781736 8.162366,2.858138 8.162366,2.858138 z "
       style="opacity:0.4;color:#000000;fill:url(#linearGradient3338);fill-opacity:1.0;fill-rule:evenodd;stroke:none;stroke-width:1px;stroke-linecap:butt;stroke-linejoin:miter;marker:none;marker-start:none;marker-mid:none;marker-end:none;stroke-miterlimit:4;stroke-dasharray:none;stroke-dashoffset:0;stroke-opacity:1;visibility:visible;display:inline;overflow:visible;enable-background:accumulate" />
    <path
       sodipodi:nodetypes="cccscczc"
       id="path2274"
       d="M 20.717381,7.638954 L 18.341653,7.711975 C 18.343229,7.712495 18.403878,7.743769 18.403878,7.743769 C 18.403878,7.743769 17.49374,14.013058 17.511667,20.455218 C 17.529592,26.897379 18.398184,33.463449 18.398184,33.463449 L 20.458697,33.700189 C 20.458697,33.700189 19.983317,25.287702 20.047988,18.772394 C 20.112659,12.257085 20.717381,7.638954 20.717381,7.638954 z "
       style="opacity:0.15;color:#000000;fill:url(#radialGradient3346);fill-opacity:1.0;fill-rule:evenodd;stroke:none;stroke-width:1px;stroke-linecap:butt;stroke-linejoin:miter;marker:none;marker-start:none;marker-mid:none;marker-end:none;stroke-miterlimit:4;stroke-dasharray:none;stroke-dashoffset:0;stroke-opacity:1;visibility:visible;display:inline;overflow:visible;enable-background:accumulate" />
    <path
       style="opacity:1;color:#000000;fill:url(#radialGradient3385);fill-opacity:1;fill-rule:evenodd;stroke:none;stroke-width:1px;stroke-linecap:butt;stroke-linejoin:miter;marker:none;marker-start:none;marker-mid:none;marker-end:none;stroke-miterlimit:4;stroke-dasharray:none;stroke-dashoffset:0;stroke-opacity:1;visibility:visible;display:inline;overflow:visible;enable-background:accumulate"
       d="M 8.39415,5.226421 C 8.39415,5.226421 9.093878,5.904072 11.169004,6.960496 C 13.266716,8.028418 16.801613,9.606125 16.801613,9.606125 C 16.801613,9.606125 16.270186,14.226353 16.23821,19.01792 C 16.206234,23.809487 16.620967,28.437971 16.620967,28.437971 C 16.620967,28.437971 13.705065,26.827204 11.674829,24.949816 C 9.644593,23.072429 8.554221,21.095877 8.554221,21.095877 C 8.554221,21.095877 8.135244,16.113424 8.101233,12.118282 C 8.067221,8.12314 8.39415,5.226421 8.39415,5.226421 z "
       id="path3369"
       sodipodi:nodetypes="czczczczc" />
    <path
       style="opacity:0.59808613;color:#000000;fill:url(#linearGradient3287);fill-opacity:1;fill-rule:evenodd;stroke:none;stroke-width:1px;stroke-linecap:butt;stroke-linejoin:miter;marker:none;marker-start:none;marker-mid:none;marker-end:none;stroke-miterlimit:4;stroke-dasharray:none;stroke-dashoffset:0;stroke-opacity:1;visibility:visible;display:inline;overflow:visible;enable-background:accumulate"
       d="M 9.510624,2.634718 C 9.510623,2.634718 8.1647435,2.872982 8.1647435,2.872982 C 8.1647425,2.872982 9.3028113,3.999156 11.863172,5.217846 C 14.387324,6.419301 18.231839,7.675731 18.341653,7.711975 L 20.717381,7.638954 C 20.717381,7.638954 20.746447,7.57745 20.781515,7.452007 C 20.834117,7.263843 20.888995,6.937091 20.882897,6.577858 C 20.881888,6.518399 20.889787,6.452382 20.884533,6.390365 C 20.879038,6.331667 20.864978,6.262925 20.854921,6.2026 C 20.816592,5.964977 20.74286,5.726455 20.611202,5.481696 C 20.371994,5.037497 19.977915,4.60563 19.246618,4.282242 C 16.823647,3.210778 9.510624,2.634718 9.510624,2.634718 z M 20.717381,7.638954 L 20.717381,7.638954 z "
       id="path2284"
       sodipodi:nodetypes="ccsccssssssccc" />
    <path
       style="opacity:0.4;color:#000000;fill:url(#linearGradient3376);fill-opacity:1.0;fill-rule:evenodd;stroke:none;stroke-width:1px;stroke-linecap:butt;stroke-linejoin:miter;marker:none;marker-start:none;marker-mid:none;marker-end:none;stroke-miterlimit:4;stroke-dasharray:none;stroke-dashoffset:0;stroke-opacity:1;visibility:visible;display:inline;overflow:visible;enable-background:accumulate"
       d="M 22.404817,7.65368 C 22.629484,7.963216 22.854741,8.272829 23.083837,8.628393 C 22.857937,8.277836 22.627659,7.959195 22.404817,7.65368 z M 23.238172,8.848498 C 23.693856,9.5743 24.142232,10.390226 24.5606,11.297632 C 26.46679,11.449176 30.133724,11.833672 31.617377,11.984239 C 31.587469,11.960903 30.826962,11.347667 29.440868,10.715197 C 27.989383,10.052893 25.670398,9.463496 25.670398,9.463496 L 23.456095,8.944154 L 23.238172,8.848498 z "
       id="path4308" />
    <path
       style="opacity:0.1;color:#000000;fill:url(#radialGradient3348);fill-opacity:1;fill-rule:evenodd;stroke:none;stroke-width:1px;stroke-linecap:butt;stroke-linejoin:miter;marker:none;marker-start:none;marker-mid:none;marker-end:none;stroke-miterlimit:4;stroke-dasharray:none;stroke-dashoffset:0;stroke-opacity:1;visibility:visible;display:inline;overflow:visible;enable-background:accumulate"
       d="M 24.5606,11.297632 C 24.941014,12.122724 25.297224,13.02383 25.599607,13.994301 C 27.386373,19.728739 27.30399,27.450064 27.286048,28.447068 L 30.872956,25.665764 L 31.564248,25.23428 C 31.564248,25.23428 31.819706,21.923883 31.840803,18.611441 C 31.8619,15.298999 31.648626,11.984512 31.648626,11.984512 C 31.648626,11.984512 31.617963,11.984696 31.617377,11.984239 C 30.133724,11.833672 26.46679,11.449176 24.5606,11.297632 z "
       id="path5312"
       sodipodi:nodetypes="cscccscsc" />
    <path
       style="opacity:0.52427183;color:#000000;fill:#323232;fill-opacity:1;fill-rule:evenodd;stroke:none;stroke-width:1px;stroke-linecap:butt;stroke-linejoin:miter;marker:none;marker-start:none;marker-mid:none;marker-end:none;stroke-miterlimit:4;stroke-dasharray:none;stroke-dashoffset:0;stroke-opacity:1;visibility:visible;display:inline;overflow:visible;enable-background:accumulate"
       d="M 10.24956,25.392032 C 10.24956,25.392032 10.186669,25.436476 10.185971,25.516482 C 10.185273,25.596488 10.246833,25.704521 10.246833,25.704521 L 10.864991,26.491195 L 10.958738,26.492013 L 10.931034,26.085506 L 10.312057,25.392578 L 10.24956,25.392032 z M 11.984222,27.157237 C 11.984222,27.157237 11.952187,27.247058 11.951337,27.344457 C 11.950487,27.441857 11.980676,27.563472 11.980676,27.563472 L 12.910778,28.415371 L 12.973275,28.415916 L 12.977366,27.947184 L 12.046719,27.157783 L 11.984222,27.157237 z "
       id="path6339"
       sodipodi:nodetypes="cscccccccscccccc" />
    <path
       sodipodi:nodetypes="cscczcccscczcc"
       id="path6341"
       d="M 10.24956,25.392032 C 10.249561,25.392033 10.186669,25.436476 10.185971,25.516482 C 10.185271,25.59649 10.246833,25.704521 10.246833,25.704521 L 10.864991,26.491195 C 10.864991,26.491195 10.845067,26.382497 10.845953,26.280939 C 10.84684,26.17938 10.868536,26.08496 10.868536,26.08496 L 10.24956,25.392032 z M 11.984222,27.157237 C 11.984222,27.157237 11.952187,27.24706 11.951337,27.344457 C 11.950487,27.441857 11.980677,27.563472 11.980676,27.563472 L 12.910778,28.415371 C 12.910778,28.415371 12.876281,28.283963 12.869492,28.166711 C 12.862702,28.04946 12.883619,27.946366 12.883619,27.946366 L 11.984222,27.157237 z "
       style="opacity:0.52427183;color:#000000;fill:#eeeeec;fill-opacity:1;fill-rule:evenodd;stroke:none;stroke-width:1px;stroke-linecap:butt;stroke-linejoin:miter;marker:none;marker-start:none;marker-mid:none;marker-end:none;stroke-miterlimit:4;stroke-dasharray:none;stroke-dashoffset:0;stroke-opacity:1;visibility:visible;display:inline;overflow:visible;enable-background:accumulate" />
    <path
       sodipodi:nodetypes="cccccccccc"
       id="path6343"
       d="M 10.24956,25.392032 L 10.868536,26.08496 L 10.931034,26.085506 L 10.312057,25.392578 L 10.24956,25.392032 z M 11.984222,27.157237 L 12.883619,27.946366 L 12.977366,27.947184 L 12.046719,27.157783 L 11.984222,27.157237 z "
       style="opacity:0.52427183;color:#000000;fill:#dddddd;fill-opacity:1;fill-rule:evenodd;stroke:none;stroke-width:1px;stroke-linecap:butt;stroke-linejoin:miter;marker:none;marker-start:none;marker-mid:none;marker-end:none;stroke-miterlimit:4;stroke-dasharray:none;stroke-dashoffset:0;stroke-opacity:1;visibility:visible;display:inline;overflow:visible;enable-background:accumulate" />
    <path
       id="path7340"
       d="M 30.146052,26.596956 L 29.359923,27.152617 L 29.321039,28.027311 L 30.106622,27.534147 L 30.146052,26.596956 z M 28.636565,27.677574 L 27.787393,28.295188 L 27.749872,29.013637 L 28.629747,28.458795 L 28.636565,27.677574 z M 30.071283,28.002607 L 29.317221,28.464794 L 29.279155,29.245742 L 30.033489,28.752306 L 30.071283,28.002607 z M 28.594681,28.896005 L 27.746599,29.388623 L 27.707988,30.232068 L 28.556341,29.708202 L 28.594681,28.896005 z M 27.055853,29.757609 L 26.521896,30.065462 L 26.331949,30.345065 L 26.295519,30.938519 L 27.049036,30.53883 L 27.055853,29.757609 z "
       style="opacity:1;color:#000000;fill:url(#linearGradient3363);fill-opacity:1.0;fill-rule:evenodd;stroke:none;stroke-width:1px;stroke-linecap:butt;stroke-linejoin:miter;marker:none;marker-start:none;marker-mid:none;marker-end:none;stroke-miterlimit:4;stroke-dasharray:none;stroke-dashoffset:0;stroke-opacity:1;visibility:visible;display:inline;overflow:visible;enable-background:accumulate" />
    <path
       style="opacity:1;fill:url(#radialGradient2374);fill-opacity:1;fill-rule:nonzero;stroke:none;stroke-width:0.1;stroke-linecap:round;stroke-linejoin:round;stroke-miterlimit:4;stroke-dasharray:none;stroke-opacity:1"
       d="M 23.1875,24.46875 C 23.024285,24.470007 22.853243,24.49203 22.6875,24.53125 C 22.719039,24.524818 22.749733,24.536407 22.78125,24.53125 L 22.875,28.28125 C 22.960054,28.273664 23.039496,28.267722 23.125,28.25 L 23.03125,24.5 C 23.084027,24.49659 23.135653,24.469149 23.1875,24.46875 z M 22.875,28.28125 C 22.759994,28.291507 22.63991,28.293027 22.53125,28.28125 C 22.6479,28.290298 22.755065,28.291947 22.875,28.28125 z M 22.53125,28.28125 C 22.508264,28.278759 22.491568,28.253256 22.46875,28.25 L 22.40625,24.65625 C 22.32359,24.686517 22.236385,24.709802 22.15625,24.75 L 22.21875,28.21875 C 22.320787,28.243301 22.424188,28.272945 22.53125,28.28125 z M 23.40625,24.5 L 23.5,28.125 C 23.577696,28.095196 23.642807,28.038614 23.71875,28 L 23.65625,24.53125 C 23.574512,24.51239 23.491261,24.50854 23.40625,24.5 z M 24.03125,24.65625 L 24.09375,27.78125 C 24.188731,27.709003 24.263372,27.613687 24.34375,27.53125 L 24.28125,24.8125 C 24.331061,24.845692 24.391825,24.868298 24.4375,24.90625 C 24.316369,24.798649 24.178732,24.72555 24.03125,24.65625 z M 24.09375,27.78125 C 24.018185,27.840519 23.960409,27.917552 23.875,27.96875 C 24.000215,27.89369 24.113076,27.810627 24.21875,27.71875 C 24.184723,27.748876 24.130033,27.752792 24.09375,27.78125 z M 21.75,25 C 21.666687,25.066195 21.60308,25.1443 21.53125,25.21875 L 21.59375,27.9375 C 21.676648,27.997068 21.750994,28.049584 21.84375,28.09375 L 21.75,25 z M 21.59375,27.9375 C 21.513867,27.880099 21.442665,27.815962 21.375,27.75 C 21.444294,27.822171 21.513113,27.879557 21.59375,27.9375 z M 24.6875,25.25 L 24.75,27.03125 C 24.82039,26.893165 24.869015,26.739054 24.90625,26.59375 C 24.941875,26.454732 24.965263,26.327714 24.96875,26.1875 C 24.976408,25.879598 24.910798,25.554126 24.75,25.28125 C 24.734364,25.265752 24.700384,25.269303 24.6875,25.25 z M 21.15625,25.6875 C 20.841082,26.261247 20.803403,26.922998 21.125,27.46875 L 21.15625,27.5 C 21.164336,27.513137 21.179092,27.51842 21.1875,27.53125 L 21.15625,25.6875 z "
       id="path2323" />
    <path
       style="opacity:1;fill:url(#radialGradient2383);fill-opacity:1;fill-rule:nonzero;stroke:none;stroke-width:0.1;stroke-linecap:round;stroke-linejoin:round;stroke-miterlimit:4;stroke-dasharray:none;stroke-opacity:1"
       d="M 22.875,25.71875 C 22.852232,25.723062 22.835208,25.743576 22.8125,25.75 L 22.84375,27.03125 C 22.925615,27.03174 23.010931,27.027526 23.09375,27 L 23.0625,25.71875 C 23.003435,25.715599 22.935714,25.707252 22.875,25.71875 z M 23.4375,25.84375 L 23.46875,26.71875 C 23.644389,26.501428 23.69549,26.225683 23.5625,26 C 23.526164,25.938338 23.491757,25.886042 23.4375,25.84375 z M 22.4375,26 C 22.238857,26.220435 22.172733,26.512813 22.3125,26.75 C 22.342685,26.799042 22.395582,26.838572 22.4375,26.875 L 22.4375,26 z "
       id="path8343"
       sodipodi:nodetypes="ccccccccsccscc" />
    <path
       style="opacity:0.05;color:#000000;fill:url(#linearGradient3345);fill-opacity:1;fill-rule:evenodd;stroke:none;stroke-width:1px;stroke-linecap:butt;stroke-linejoin:miter;marker:none;marker-start:none;marker-mid:none;marker-end:none;stroke-miterlimit:4;stroke-dasharray:none;stroke-dashoffset:0;stroke-opacity:1;visibility:visible;display:inline;overflow:visible;enable-background:accumulate"
       d="M 20.882897,6.577858 C 20.886135,6.768324 20.871455,6.926381 20.847285,7.077567 C 20.866816,6.927454 20.88595,6.757475 20.882897,6.577858 z M 20.717381,7.638954 C 20.717381,7.638954 20.122488,12.243313 20.05782,18.758622 C 19.993151,25.273931 20.458697,33.700189 20.458697,33.700189 C 20.458697,33.700189 22.764411,32.696834 24.193122,31.92021 C 25.621823,31.143584 26.173524,30.593692 26.173524,30.593692 C 26.173524,30.593692 26.797087,28.237635 24.953248,20.02014 C 23.446394,13.304511 21.388893,9.125603 20.715472,7.857696 L 20.717381,7.638954 z M 23.414308,24.47563 C 23.498921,24.483934 23.583088,24.490549 23.664026,24.509061 L 23.727229,28.009746 C 23.651287,28.048361 23.585093,28.103028 23.507397,28.132832 L 23.414308,24.47563 z M 23.039049,24.503607 L 23.13132,28.254555 C 23.045055,28.272488 22.96695,28.27586 22.881057,28.283622 L 22.788786,24.532674 C 22.873405,24.516973 22.955717,24.509971 23.039049,24.503607 z M 24.037921,24.637328 C 24.129399,24.680376 24.204505,24.768611 24.286275,24.827003 L 24.356296,27.546467 C 24.275915,27.628904 24.199105,27.722029 24.104124,27.794276 L 24.037921,24.637328 z M 22.41271,24.654397 L 22.475095,28.248828 C 22.391092,28.240055 22.306169,28.234155 22.225377,28.215397 L 22.161901,24.745961 C 22.242035,24.705762 22.33005,24.684664 22.41271,24.654397 z M 21.753485,24.992407 L 21.851483,28.08713 C 21.760014,28.044189 21.684756,27.986465 21.602856,27.928704 L 21.532834,25.209239 C 21.60342,25.13685 21.671612,25.057036 21.753485,24.992407 z M 24.688964,25.236783 C 24.706144,25.26252 24.734996,25.272809 24.750916,25.299826 C 25.072516,25.845578 25.045959,26.513391 24.735372,27.081008 L 24.688964,25.236783 z M 21.153758,25.674699 L 21.199621,27.581422 C 21.176772,27.549795 21.15866,27.520792 21.137941,27.48713 L 21.138214,27.455881 C 20.81662,26.910129 20.843173,26.242315 21.153758,25.674699 z "
       id="path8338" />
    <rect
       style="opacity:0.61162792;fill:#555753;fill-opacity:1;fill-rule:nonzero;stroke:none;stroke-width:0.69999999;stroke-linecap:round;stroke-linejoin:miter;stroke-miterlimit:4;stroke-dasharray:none;stroke-opacity:1"
       id="rect1951"
       width="40.001965"
       height="10.004759"
       x="-0.0019644466"
       y="30" />
    <text
       xml:space="preserve"
       style="font-size:12px;font-style:normal;font-weight:normal;fill:#eeeeec;fill-opacity:1;stroke:none;stroke-width:1px;stroke-linecap:butt;stroke-linejoin:miter;stroke-opacity:1;font-family:Bitstream Vera Sans"
       x="13.334099"
       y="39.168156"
       id="text2840"><tspan
         sodipodi:role="line"
         id="tspan2842"
         x="13.334099"
         y="39.168156">Sr</tspan></text>
    <path
       sodipodi:nodetypes="czczczczc"
       id="path2310"
       d="M 8.39415,5.226421 C 8.39415,5.226421 9.093878,5.904072 11.169004,6.960496 C 13.266716,8.028418 16.801613,9.606125 16.801613,9.606125 C 16.801613,9.606125 16.270186,14.226353 16.23821,19.01792 C 16.206234,23.809487 16.620967,28.437971 16.620967,28.437971 C 16.620967,28.437971 13.705065,26.827204 11.674829,24.949816 C 9.644593,23.072429 8.554221,21.095877 8.554221,21.095877 C 8.554221,21.095877 8.135244,16.113424 8.101233,12.118282 C 8.067221,8.12314 8.39415,5.226421 8.39415,5.226421 z "
       style="opacity:0.52427183;color:#000000;fill:url(#linearGradient3354);fill-opacity:1;fill-rule:evenodd;stroke:none;stroke-width:1px;stroke-linecap:butt;stroke-linejoin:miter;marker:none;marker-start:none;marker-mid:none;marker-end:none;stroke-miterlimit:4;stroke-dasharray:none;stroke-dashoffset:0;stroke-opacity:1;visibility:visible;display:inline;overflow:visible;enable-background:accumulate" />
    <path
       style="opacity:0.25;color:#000000;fill:url(#linearGradient3367);fill-opacity:1;fill-rule:evenodd;stroke:none;stroke-width:1px;stroke-linecap:butt;stroke-linejoin:miter;marker:none;marker-start:none;marker-mid:none;marker-end:none;stroke-miterlimit:4;stroke-dasharray:none;stroke-dashoffset:0;stroke-opacity:1;visibility:visible;display:inline;overflow:visible;enable-background:accumulate"
       d="M 8.40625,5.21875 C 8.40625,5.21875 8.059737,8.1298577 8.09375,12.125 C 8.09667,12.468008 8.116913,12.833715 8.125,13.1875 C 10.973904,12.933213 13.70763,12.412399 16.65625,11.28125 C 16.720567,10.611758 16.8125,9.59375 16.8125,9.59375 C 16.8125,9.59375 13.253963,8.0366721 11.15625,6.96875 C 9.081124,5.912326 8.40625,5.2187501 8.40625,5.21875 z "
       id="path3356" />
    <path
       style="opacity:0.74345554;color:#000000;fill:url(#linearGradient3366);fill-opacity:1;fill-rule:evenodd;stroke:none;stroke-width:1px;stroke-linecap:butt;stroke-linejoin:miter;marker:none;marker-start:none;marker-mid:none;marker-end:none;stroke-miterlimit:4;stroke-dasharray:none;stroke-dashoffset:0;stroke-opacity:1;visibility:visible;display:inline;overflow:visible;enable-background:accumulate"
       d="M 30.872956,25.665764 L 27.286048,28.447068 C 27.284825,28.515046 27.282776,28.822054 27.282776,28.822054 L 26.173524,30.593692 C 26.173524,30.593692 25.621824,31.143584 24.193122,31.92021 C 22.764411,32.696834 20.458697,33.700189 20.458697,33.700189 C 20.458697,33.700189 23.335312,32.631501 25.885194,31.403706 L 30.765574,27.227386 L 30.872956,25.665764 z "
       id="path3357"
       sodipodi:nodetypes="ccccscscc" />
    <path
       style="opacity:0.52427183;color:#000000;fill:url(#linearGradient2382);fill-opacity:1;fill-rule:evenodd;stroke:none;stroke-width:1px;stroke-linecap:butt;stroke-linejoin:miter;marker:none;marker-start:none;marker-mid:none;marker-end:none;stroke-miterlimit:4;stroke-dasharray:none;stroke-dashoffset:0;stroke-opacity:1;visibility:visible;display:inline;overflow:visible;enable-background:accumulate"
       d="M 8.2639147,5.1632073 C 8.2639147,5.1632073 8.25,5.28125 8.25,5.28125 C 8.2500004,5.2812502 7.903489,8.192358 7.9375,12.1875 C 7.9715108,16.182642 8.375,21.15625 8.375,21.15625 C 8.3750004,21.156249 8.5625,21.09375 8.5625,21.09375 C 8.5624996,21.09375 8.159011,16.120142 8.125,12.125 C 8.0925994,8.3189131 8.37824,5.663591 8.40625,5.40625 L 8.375,5.25 L 8.2639147,5.1632073 z M 8.875,5.5625 C 9.260655,5.8531462 9.85307,6.305317 11.15625,6.96875 C 13.18857,8.0033829 16.449017,9.4385117 16.65625,9.53125 L 16.8125,9.59375 L 16.84375,9.40625 C 16.84375,9.4062498 16.6875,9.375 16.6875,9.375 C 16.687501,9.3749999 13.143186,7.852008 11.03125,6.8125 C 9.9866523,6.2983412 9.313352,5.858075 8.875,5.5625 z "
       id="path2385"
       sodipodi:nodetypes="ccsccsscccsccccsc" />
    <path
       id="path2389"
       d="M 8.380197,21.156808 C 8.380197,21.156808 9.472821,23.119318 11.503057,24.996706 C 13.533293,26.874094 16.441623,28.477435 16.441621,28.477435 C 16.441621,28.477435 16.44356,28.32772 16.442984,28.321191 C 15.960722,28.048246 13.491277,26.629121 11.659847,24.935572 C 9.62961,23.058186 8.568236,21.095947 8.568236,21.095947 C 8.568236,21.095947 8.380197,21.156808 8.380197,21.156808 z "
       style="opacity:0.3;color:#000000;fill:url(#linearGradient2394);fill-opacity:1;fill-rule:evenodd;stroke:none;stroke-width:1px;stroke-linecap:butt;stroke-linejoin:miter;marker:none;marker-start:none;marker-mid:none;marker-end:none;stroke-miterlimit:4;stroke-dasharray:none;stroke-dashoffset:0;stroke-opacity:1;visibility:visible;display:inline;overflow:visible;enable-background:accumulate"
       sodipodi:nodetypes="cscsscc" />
    <path
       style="opacity:0.5;color:#000000;fill:url(#linearGradient3390);fill-opacity:1.0;fill-rule:evenodd;stroke:none;stroke-width:1px;stroke-linecap:butt;stroke-linejoin:miter;marker:none;marker-start:none;marker-mid:none;marker-end:none;stroke-miterlimit:4;stroke-dasharray:none;stroke-dashoffset:0;stroke-opacity:1;visibility:visible;display:inline;overflow:visible;enable-background:accumulate"
       d="M 23.5625 9.375 C 23.909032 9.9647336 24.241096 10.615402 24.5625 11.3125 C 24.804964 11.331776 25.208677 11.380397 25.5 11.40625 C 25.050139 10.575652 24.383135 9.8816392 23.5625 9.375 z "
       id="path3378" />
  </g>
</svg>
