<?xml version="1.0" encoding="UTF-8" standalone="no"?>
<!-- Created with Inkscape (http://www.inkscape.org/) -->
<svg
   xmlns:dc="http://purl.org/dc/elements/1.1/"
   xmlns:cc="http://creativecommons.org/ns#"
   xmlns:rdf="http://www.w3.org/1999/02/22-rdf-syntax-ns#"
   xmlns:svg="http://www.w3.org/2000/svg"
   xmlns="http://www.w3.org/2000/svg"
   xmlns:xlink="http://www.w3.org/1999/xlink"
   xmlns:sodipodi="http://sodipodi.sourceforge.net/DTD/sodipodi-0.dtd"
   xmlns:inkscape="http://www.inkscape.org/namespaces/inkscape"
   width="40"
   height="40"
   id="svg2193"
   sodipodi:version="0.32"
   inkscape:version="0.46"
   version="1.0"
   sodipodi:docbase="/home/jra/Desktop"
   sodipodi:docname="vacum-tube24sample.svg"
   inkscape:output_extension="org.inkscape.output.svg.inkscape">
  <defs
     id="defs2195">
    <linearGradient
       id="linearGradient3601">
      <stop
         id="stop3603"
         offset="0"
         style="stop-color:#ffffff;stop-opacity:1;" />
      <stop
         style="stop-color:#ffffff;stop-opacity:0.51533741;"
         offset="0.15893312"
         id="stop3609" />
      <stop
         style="stop-color:#000000;stop-opacity:0.60122699;"
         offset="0.36350867"
         id="stop3605" />
      <stop
         id="stop3607"
         offset="1"
         style="stop-color:#000000;stop-opacity:0;" />
    </linearGradient>
    <linearGradient
       id="linearGradient4712">
      <stop
         id="stop4714"
         offset="0"
         style="stop-color:#ffffff;stop-opacity:1;" />
      <stop
         style="stop-color:#000000;stop-opacity:0.34969324;"
         offset="0.5"
         id="stop4718" />
      <stop
         id="stop4716"
         offset="1"
         style="stop-color:#000000;stop-opacity:1;" />
    </linearGradient>
    <linearGradient
       id="linearGradient3424">
      <stop
         style="stop-color:#000000;stop-opacity:1"
         offset="0"
         id="stop3426" />
      <stop
         id="stop3430"
         offset="0.5"
         style="stop-color:#ffffff;stop-opacity:1;" />
      <stop
         style="stop-color:#000000;stop-opacity:1;"
         offset="1"
         id="stop3428" />
    </linearGradient>
    <linearGradient
       id="linearGradient3239">
      <stop
         style="stop-color:#ffffff;stop-opacity:1;"
         offset="0"
         id="stop3241" />
      <stop
         style="stop-color:#ffffff;stop-opacity:0;"
         offset="1"
         id="stop3243" />
    </linearGradient>
    <linearGradient
       id="linearGradient3220">
      <stop
         id="stop3222"
         offset="0"
         style="stop-color:#000000;stop-opacity:1" />
      <stop
         id="stop3224"
         offset="1"
         style="stop-color:#c1c3c0;stop-opacity:1" />
    </linearGradient>
    <linearGradient
       id="linearGradient3291">
      <stop
         id="stop3293"
         offset="0"
         style="stop-color:#000000;stop-opacity:1;" />
      <stop
         id="stop3295"
         offset="1"
         style="stop-color:#000000;stop-opacity:0;" />
    </linearGradient>
    <linearGradient
       id="linearGradient2308">
      <stop
         id="stop2310"
         offset="0"
         style="stop-color:#0e0000;stop-opacity:1;" />
      <stop
         id="stop2312"
         offset="1"
         style="stop-color:#0e0000;stop-opacity:0;" />
    </linearGradient>
    <radialGradient
       inkscape:collect="always"
       xlink:href="#linearGradient3291"
       id="radialGradient2595"
       gradientUnits="userSpaceOnUse"
       gradientTransform="matrix(1,0,0,0.197802,0,92.82166)"
       cx="63.912209"
       cy="115.70919"
       fx="75.857941"
       fy="115.70919"
       r="63.912209" />
    <linearGradient
       inkscape:collect="always"
       xlink:href="#linearGradient3424"
       id="linearGradient4005"
       x1="2.40625"
       y1="19.71875"
       x2="15.754155"
       y2="19.71875"
       gradientUnits="userSpaceOnUse"
       gradientTransform="translate(12,-2)" />
    <linearGradient
       inkscape:collect="always"
       xlink:href="#linearGradient3424"
       id="linearGradient4013"
       x1="11.764631"
       y1="18.53125"
       x2="24.34375"
       y2="18.53125"
       gradientUnits="userSpaceOnUse"
       gradientTransform="translate(0,-2)" />
    <radialGradient
       inkscape:collect="always"
       xlink:href="#linearGradient3239"
       id="radialGradient4021"
       cx="18.241385"
       cy="11.985802"
       fx="18.241385"
       fy="11.985802"
       r="4.8606806"
       gradientTransform="matrix(1.0891076,4.9906819e-3,-4.241531e-3,0.9256215,-1.6415901,-2.9822273)"
       gradientUnits="userSpaceOnUse" />
    <radialGradient
       inkscape:collect="always"
       xlink:href="#linearGradient3424"
       id="radialGradient4039"
       cx="19.375"
       cy="26.290354"
       fx="19.375"
       fy="26.290354"
       r="4.59375"
       gradientTransform="matrix(1.7785376,1.4780532e-7,-4.8667302e-8,0.5442176,-15.084165,8.320792)"
       gradientUnits="userSpaceOnUse" />
    <radialGradient
       inkscape:collect="always"
       xlink:href="#linearGradient3424"
       id="radialGradient4041"
       cx="19.302742"
       cy="28.289019"
       fx="19.302742"
       fy="28.289019"
       r="4.453125"
       gradientTransform="matrix(1.9150661,-2.0136206e-3,7.4105256e-4,0.7047857,-17.69987,3.886579)"
       gradientUnits="userSpaceOnUse" />
    <radialGradient
       inkscape:collect="always"
       xlink:href="#linearGradient3424"
       id="radialGradient4049"
       cx="19.35957"
       cy="24.521881"
       fx="19.35957"
       fy="24.521881"
       r="4.5159674"
       gradientTransform="matrix(1.8897628,4.5263002e-3,-1.4842395e-3,0.6196496,-17.18888,8.186149)"
       gradientUnits="userSpaceOnUse" />
    <radialGradient
       inkscape:collect="always"
       xlink:href="#linearGradient3424"
       id="radialGradient4059"
       cx="19.359375"
       cy="26.594267"
       fx="19.359375"
       fy="26.594267"
       r="4.046875"
       gradientTransform="matrix(1.5070636,3.5719598e-3,-8.2284074e-4,0.3471769,-9.7945515,15.618273)"
       gradientUnits="userSpaceOnUse" />
    <linearGradient
       inkscape:collect="always"
       xlink:href="#linearGradient3424"
       id="linearGradient4096"
       x1="10.84375"
       y1="26.6875"
       x2="23.875685"
       y2="26.6875"
       gradientUnits="userSpaceOnUse"
       gradientTransform="translate(0,-2)" />
    <radialGradient
       inkscape:collect="always"
       xlink:href="#linearGradient3424"
       id="radialGradient4560"
       cx="19.52548"
       cy="27.502016"
       fx="19.52548"
       fy="27.502016"
       r="4.0473056"
       gradientTransform="matrix(1.1456829,0,0,0.3154734,-2.8516318,15.5089)"
       gradientUnits="userSpaceOnUse" />
    <linearGradient
       inkscape:collect="always"
       xlink:href="#linearGradient2308"
       id="linearGradient4564"
       x1="19.547306"
       y1="27.398935"
       x2="19.547306"
       y2="24.625"
       gradientUnits="userSpaceOnUse"
       gradientTransform="translate(0,-2)" />
    <linearGradient
       inkscape:collect="always"
       xlink:href="#linearGradient3239"
       id="linearGradient4606"
       x1="15.121395"
       y1="16.841774"
       x2="17.482111"
       y2="15.206491"
       gradientUnits="userSpaceOnUse"
       gradientTransform="translate(0,-2)" />
    <linearGradient
       inkscape:collect="always"
       xlink:href="#linearGradient3239"
       id="linearGradient4614"
       x1="14.610479"
       y1="23.920092"
       x2="25.084532"
       y2="18.361334"
       gradientUnits="userSpaceOnUse"
       gradientTransform="translate(0,-2)" />
    <linearGradient
       inkscape:collect="always"
       xlink:href="#linearGradient3424"
       id="linearGradient4642"
       x1="25.658663"
       y1="16.547232"
       x2="9.670908"
       y2="16.403872"
       gradientUnits="userSpaceOnUse"
       gradientTransform="translate(0,-2)" />
    <linearGradient
       inkscape:collect="always"
       xlink:href="#linearGradient3424"
       id="linearGradient4650"
       x1="10.038766"
       y1="22.484375"
       x2="25.787609"
       y2="22.484375"
       gradientUnits="userSpaceOnUse"
       gradientTransform="translate(0,-2)" />
    <radialGradient
       inkscape:collect="always"
       xlink:href="#linearGradient3424"
       id="radialGradient4686"
       cx="19.364162"
       cy="10.498816"
       fx="19.364162"
       fy="10.498816"
       r="4.9710984"
       gradientTransform="matrix(1.6292072,-4.1578154e-7,6.337031e-8,0.9226768,-12.184072,0.8671007)"
       gradientUnits="userSpaceOnUse" />
    <radialGradient
       inkscape:collect="always"
       xlink:href="#linearGradient3424"
       id="radialGradient4706"
       cx="18.866695"
       cy="9.2437563"
       fx="18.866695"
       fy="9.2437563"
       r="1.375"
       gradientTransform="matrix(0.7770551,1.4863037e-2,-6.26289e-2,3.2743043,4.9664774,-21.924055)"
       gradientUnits="userSpaceOnUse" />
    <radialGradient
       inkscape:collect="always"
       xlink:href="#linearGradient4712"
       id="radialGradient4710"
       gradientUnits="userSpaceOnUse"
       gradientTransform="matrix(2.0328419,3.5530091e-2,-2.0854482e-2,1.193185,-19.21627,-5.0865522)"
       cx="18.838303"
       cy="7.3665366"
       fx="18.838303"
       fy="7.3665366"
       r="1.375" />
    <linearGradient
       inkscape:collect="always"
       xlink:href="#linearGradient3424"
       id="linearGradient3581"
       gradientUnits="userSpaceOnUse"
       x1="4.40625"
       y1="18.953125"
       x2="32.34375"
       y2="18.953125"
       gradientTransform="translate(0,-2)" />
    <radialGradient
       inkscape:collect="always"
       xlink:href="#linearGradient3601"
       id="radialGradient3599"
       gradientUnits="userSpaceOnUse"
       gradientTransform="matrix(1.2643998,0.2038378,-7.2437277e-2,0.4493275,-1.4875506,-0.3025666)"
       cx="16.218531"
       cy="14.483169"
       fx="16.218531"
       fy="14.483169"
       r="4.8606806" />
    <radialGradient
       inkscape:collect="always"
       xlink:href="#linearGradient4712"
       id="radialGradient3615"
       gradientUnits="userSpaceOnUse"
       gradientTransform="matrix(1.7238395,0.1844845,-5.5929654e-2,0.5226149,-9.2606616,-0.9070996)"
       cx="16.409534"
       cy="13.047157"
       fx="16.409534"
       fy="13.047157"
       r="4.8606806" />
    <linearGradient
       inkscape:collect="always"
       xlink:href="#linearGradient3220"
       id="linearGradient3637"
       x1="19.086235"
       y1="17.784752"
       x2="14.248063"
       y2="5.0955186"
       gradientUnits="userSpaceOnUse"
       gradientTransform="translate(0,-2)" />
    <linearGradient
       inkscape:collect="always"
       xlink:href="#linearGradient3424"
       id="linearGradient3993"
       gradientUnits="userSpaceOnUse"
       gradientTransform="translate(0,9.959127)"
       x1="16.44034"
       y1="26.634449"
       x2="17.049387"
       y2="26.634449" />
    <linearGradient
       inkscape:collect="always"
       xlink:href="#linearGradient3424"
       id="linearGradient3995"
       gradientUnits="userSpaceOnUse"
       gradientTransform="matrix(1.045544,0,0,1.045544,1.7493876,10.21775)"
       x1="16.44034"
       y1="26.634449"
       x2="17.049387"
       y2="26.634449" />
    <linearGradient
       inkscape:collect="always"
       xlink:href="#linearGradient3424"
       id="linearGradient3997"
       gradientUnits="userSpaceOnUse"
       gradientTransform="matrix(1.011386,0,0,1.011386,-0.4363566,10.395512)"
       x1="16.44034"
       y1="26.634449"
       x2="17.049387"
       y2="26.634449" />
    <linearGradient
       inkscape:collect="always"
       xlink:href="#linearGradient3424"
       id="linearGradient3999"
       gradientUnits="userSpaceOnUse"
       gradientTransform="matrix(0.977228,0,0,0.977228,0.9998522,10.188485)"
       x1="16.44034"
       y1="26.634449"
       x2="17.049387"
       y2="26.634449" />
    <linearGradient
       inkscape:collect="always"
       xlink:href="#linearGradient3424"
       id="linearGradient4001"
       gradientUnits="userSpaceOnUse"
       gradientTransform="matrix(1.022772,0,0,1.022772,0.4966398,10.635996)"
       x1="16.44034"
       y1="26.634449"
       x2="17.049387"
       y2="26.634449" />
    <linearGradient
       inkscape:collect="always"
       xlink:href="#linearGradient3424"
       id="linearGradient4003"
       gradientUnits="userSpaceOnUse"
       gradientTransform="matrix(0.977228,0,0,0.977228,4.7921542,10.188485)"
       x1="16.44034"
       y1="26.634449"
       x2="17.049387"
       y2="26.634449" />
    <linearGradient
       inkscape:collect="always"
       xlink:href="#linearGradient3424"
       id="linearGradient4006"
       gradientUnits="userSpaceOnUse"
       gradientTransform="matrix(1.022772,0,0,1.022772,3.7665598,10.635996)"
       x1="16.44034"
       y1="26.634449"
       x2="17.049387"
       y2="26.634449" />
    <linearGradient
       inkscape:collect="always"
       xlink:href="#linearGradient3424"
       id="linearGradient4008"
       gradientUnits="userSpaceOnUse"
       gradientTransform="translate(5.02752,9.971098)"
       x1="16.44034"
       y1="26.634449"
       x2="17.049387"
       y2="26.634449" />
    <linearGradient
       inkscape:collect="always"
       xlink:href="#linearGradient3424"
       id="linearGradient4010"
       gradientUnits="userSpaceOnUse"
       gradientTransform="matrix(1.011386,0,0,1.011386,5.0816334,10.395512)"
       x1="16.44034"
       y1="26.634449"
       x2="17.049387"
       y2="26.634449" />
    <linearGradient
       inkscape:collect="always"
       xlink:href="#linearGradient3220"
       id="linearGradient4012"
       gradientUnits="userSpaceOnUse"
       gradientTransform="translate(0,-10)"
       x1="19.419437"
       y1="40.724442"
       x2="18.133852"
       y2="47.573521" />
    <radialGradient
       inkscape:collect="always"
       xlink:href="#linearGradient3239"
       id="radialGradient4022"
       cx="17.269056"
       cy="14.979989"
       fx="17.269056"
       fy="14.979989"
       r="4.96875"
       gradientTransform="matrix(0.6037459,2.9136906e-2,-5.8166648e-2,1.2052713,8.1439137,-11.602372)"
       gradientUnits="userSpaceOnUse" />
  </defs>
  <sodipodi:namedview
     id="base"
     pagecolor="#ffffff"
     bordercolor="#666666"
     borderopacity="1.0"
     inkscape:pageopacity="0.0"
     inkscape:pageshadow="2"
     inkscape:zoom="12.232947"
     inkscape:cx="21.485025"
     inkscape:cy="17.354346"
     inkscape:current-layer="layer1"
     showgrid="false"
     inkscape:grid-bbox="false"
     inkscape:document-units="px"
     width="40px"
     height="40px"
     inkscape:window-width="1790"
     inkscape:window-height="1068"
     inkscape:window-x="118"
     inkscape:window-y="36">
    <inkscape:grid
       id="GridFromPre046Settings"
       type="xygrid"
       originx="0px"
       originy="0px"
       spacingx="1px"
       spacingy="1px"
       color="#0000ff"
       empcolor="#0000ff"
       opacity="0.2"
       empopacity="0.4"
       empspacing="2" />
  </sodipodi:namedview>
  <metadata
     id="metadata2198">
    <rdf:RDF>
      <cc:Work
         rdf:about="">
        <dc:format>image/svg+xml</dc:format>
        <dc:type
           rdf:resource="http://purl.org/dc/dcmitype/StillImage" />
        <dc:creator>
          <cc:Agent>
            <dc:title>Jarle Akselsen</dc:title>
          </cc:Agent>
        </dc:creator>
        <cc:license
           rdf:resource="http://creativecommons.org/licenses/GPL/2.0/" />
      </cc:Work>
      <cc:License
         rdf:about="http://creativecommons.org/licenses/GPL/2.0/">
        <cc:permits
           rdf:resource="http://web.resource.org/cc/Reproduction" />
        <cc:permits
           rdf:resource="http://web.resource.org/cc/Distribution" />
        <cc:requires
           rdf:resource="http://web.resource.org/cc/Notice" />
        <cc:permits
           rdf:resource="http://web.resource.org/cc/DerivativeWorks" />
        <cc:requires
           rdf:resource="http://web.resource.org/cc/ShareAlike" />
        <cc:requires
           rdf:resource="http://web.resource.org/cc/SourceCode" />
      </cc:License>
    </rdf:RDF>
  </metadata>
  <g
     id="layer1"
     inkscape:label="Layer 1"
     inkscape:groupmode="layer">
    <path
       transform="matrix(0.1364077,0,0,0.3201172,11.70576,-8.2368538)"
       d="M 127.82442,115.70919 A 63.912209,12.641975 0 1 1 0,115.70919 A 63.912209,12.641975 0 1 1 127.82442,115.70919 z"
       sodipodi:ry="12.641975"
       sodipodi:rx="63.912209"
       sodipodi:cy="115.70919"
       sodipodi:cx="63.912209"
       id="path2593"
       style="opacity:0.38139535;fill:url(#radialGradient2595);fill-opacity:1;fill-rule:nonzero;stroke:none;stroke-width:0;stroke-linecap:round;stroke-linejoin:round;stroke-miterlimit:4;stroke-dasharray:none;stroke-dashoffset:4;stroke-opacity:1"
       sodipodi:type="arc" />
    <path
       id="path4740"
       d="M 19.375,22.625 C 17.520892,22.625 15.977204,23.151872 15.5,23.84375 C 16.410825,24.265045 17.807636,24.531251 19.375,24.53125 C 20.927534,24.53125 22.307435,24.258219 23.21875,23.84375 C 22.748952,23.151872 21.229108,22.625 19.375,22.625 z M 23.59375,23.53125 C 23.569607,23.551559 23.559092,23.574071 23.53125,23.59375 C 23.532676,23.609929 23.531249,23.639949 23.53125,23.65625 C 23.53125,23.665588 23.531938,23.678215 23.53125,23.6875 C 23.544674,23.679886 23.549289,23.663803 23.5625,23.65625 C 23.565059,23.634491 23.59375,23.615737 23.59375,23.59375 C 23.59375,23.574631 23.595688,23.550197 23.59375,23.53125 z"
       style="opacity:0.35;fill:#ffffff;fill-opacity:1;stroke:none;stroke-width:3;stroke-miterlimit:4;stroke-dasharray:none;stroke-opacity:1" />
    <path
       style="opacity:0.45;fill:url(#linearGradient4005);fill-opacity:1;fill-rule:nonzero;stroke:none;stroke-width:0.5;stroke-linecap:round;stroke-linejoin:round;stroke-miterlimit:4;stroke-dasharray:none;stroke-opacity:1"
       d="M 24.34375,11.71875 C 24.34375,12.81956 22.119046,13.71875 19.375,13.71875 C 16.802457,13.71875 14.66097,12.911442 14.40625,11.90625 C 14.40625,15.514973 14.40625,22.307437 14.40625,22.6875 C 14.40625,23.050755 14.701124,23.371317 15.1875,23.65625 C 15.1875,23.637913 15.216957,23.611942 15.21875,23.59375 C 15.079538,23.495355 14.979896,23.389887 14.90625,23.28125 C 15.208132,22.389158 17.093613,21.6875 19.375,21.6875 C 21.680787,21.6875 23.546163,22.406863 23.8125,23.3125 C 23.741417,23.409668 23.65654,23.505194 23.53125,23.59375 C 23.532676,23.609929 23.531249,23.639949 23.53125,23.65625 C 23.53125,23.674927 23.533939,23.700285 23.53125,23.71875 C 24.052,23.427258 24.34375,23.0645 24.34375,22.6875 C 24.34375,22.275563 24.34375,15.242409 24.34375,11.71875 z"
       id="path3991"
       sodipodi:nodetypes="cscssscscssssc" />
    <path
       style="opacity:0.5;fill:url(#radialGradient4041);fill-opacity:1;fill-rule:nonzero;stroke:none;stroke-width:0.5;stroke-linecap:round;stroke-linejoin:round;stroke-miterlimit:4;stroke-dasharray:none;stroke-opacity:1"
       d="M 19.375,21.6875 C 17.093613,21.6875 15.208132,22.389158 14.90625,23.28125 C 14.979896,23.389887 15.079538,23.495355 15.21875,23.59375 C 15.216957,23.611942 15.1875,23.637913 15.1875,23.65625 C 15.1875,23.801628 15.262525,23.935991 15.375,24.0625 C 15.635285,23.257314 17.319727,22.625 19.375,22.625 C 21.430273,22.625 23.087688,23.257313 23.34375,24.0625 C 23.450578,23.932993 23.53125,23.797659 23.53125,23.65625 C 23.531249,23.639949 23.532676,23.609929 23.53125,23.59375 C 23.65654,23.505194 23.741417,23.409668 23.8125,23.3125 C 23.546163,22.406863 21.680787,21.6875 19.375,21.6875 z"
       id="path2385" />
    <path
       style="opacity:0.31343288;fill:url(#radialGradient4039);fill-opacity:1;fill-rule:nonzero;stroke:none;stroke-width:0.5;stroke-linecap:round;stroke-linejoin:round;stroke-miterlimit:4;stroke-dasharray:none;stroke-opacity:1"
       d="M 19.375,20.84375 C 17.316966,20.84375 15.535575,21.306612 14.78125,21.96875 C 14.78125,22.198904 14.78125,22.933643 14.78125,22.96875 C 14.78125,23.021512 14.796822,23.073642 14.8125,23.125 C 14.820211,23.15167 14.831941,23.161277 14.84375,23.1875 C 14.855366,23.212773 14.85971,23.256404 14.875,23.28125 C 14.881649,23.292127 14.898898,23.270455 14.90625,23.28125 C 14.913615,23.292114 14.929602,23.301704 14.9375,23.3125 C 15.219609,22.413692 17.081017,21.6875 19.375,21.6875 C 21.693411,21.6875 23.533585,22.431499 23.78125,23.34375 C 23.798168,23.322307 23.829021,23.302977 23.84375,23.28125 C 23.868262,23.245283 23.889608,23.224419 23.90625,23.1875 C 23.941088,23.111657 23.96875,23.047888 23.96875,22.96875 C 23.96875,22.931351 23.96875,22.199834 23.96875,21.96875 C 23.214425,21.306612 21.433035,20.84375 19.375,20.84375 z"
       id="path2382" />
    <path
       sodipodi:nodetypes="ccczcc"
       id="path2289"
       d="M 16.276034,13.242792 L 22.278872,13.242792 L 22.278872,19.809265 C 22.278872,19.809265 20.778163,19.331914 19.277453,19.331914 C 17.776744,19.331914 16.276034,19.809265 16.276034,19.809265 L 16.276034,13.242792 z"
       style="opacity:0.68159204;fill:#009966;fill-opacity:1;fill-rule:nonzero;stroke:none;stroke-width:0.5;stroke-linecap:round;stroke-linejoin:round;stroke-miterlimit:4;stroke-opacity:1" />
    <path
       style="opacity:1;fill:#555555;fill-opacity:1;fill-rule:nonzero;stroke:none;stroke-width:0.5;stroke-linecap:round;stroke-linejoin:round;stroke-miterlimit:4;stroke-dasharray:none;stroke-opacity:1"
       d="M 18.09375,18.5 L 18,18.71875 C 17.446037,18.789416 16.949973,18.886133 16.53125,19.03125 L 15.9375,18.96875 L 15.9375,19.0625 L 16.125,19.21875 C 15.808995,19.366077 15.557296,19.53438 15.40625,19.71875 L 14.71875,19.75 L 14.71875,19.875 L 15.25,20.03125 C 15.237672,20.072719 15.21875,20.114022 15.21875,20.15625 C 15.21875,20.177997 15.215617,20.19718 15.21875,20.21875 C 15.217897,20.22857 15.21875,20.240147 15.21875,20.25 C 15.21875,20.320189 15.252998,20.400855 15.28125,20.46875 L 14.71875,20.65625 L 14.71875,20.78125 L 15.53125,20.84375 C 15.690961,20.989313 15.918568,21.099458 16.1875,21.21875 L 15.96875,21.46875 L 15.96875,21.5625 L 16.84375,21.46875 C 17.183652,21.567138 17.524156,21.632196 17.9375,21.6875 L 18.125,22.03125 L 18.75,21.75 C 18.952251,21.761309 19.133015,21.781249 19.34375,21.78125 C 19.561432,21.78125 19.76016,21.762051 19.96875,21.75 L 20.59375,22.03125 L 20.75,21.6875 C 21.160326,21.6326 21.536961,21.566138 21.875,21.46875 L 22.75,21.5625 L 22.75,21.4375 L 22.5,21.21875 C 22.768933,21.099458 22.996538,20.989313 23.15625,20.84375 L 23.96875,20.78125 L 23.96875,20.65625 L 23.40625,20.5 C 23.440386,20.424777 23.468751,20.328159 23.46875,20.25 C 23.471029,20.239266 23.467183,20.229535 23.46875,20.21875 C 23.471883,20.19718 23.46875,20.177997 23.46875,20.15625 C 23.46875,20.117268 23.4472,20.069674 23.4375,20.03125 L 23.96875,19.84375 L 23.96875,19.75 L 23.25,19.6875 C 23.098664,19.508272 22.868521,19.362828 22.5625,19.21875 L 22.71875,19.0625 L 22.71875,18.9375 L 22.125,19.03125 C 21.712734,18.891296 21.22769,18.787658 20.6875,18.71875 L 20.5625,18.5 L 20.1875,18.65625 C 19.911395,18.634647 19.637161,18.624999 19.34375,18.625 C 19.050339,18.625 18.776104,18.634647 18.5,18.65625 L 18.09375,18.5 z"
       id="path2320"
       sodipodi:nodetypes="ccccccccccssscccccccccccscccccccccccssscccccccccccscc" />
    <path
       id="path2318"
       d="M 18.140205,21.920091 L 17.95092,21.569958 C 17.537576,21.514654 17.18216,21.438257 16.842258,21.339869 L 15.976962,21.459914 L 16.247368,21.149796 C 15.949239,21.023402 15.690505,20.877517 15.517273,20.719631 L 14.733099,20.669612 L 15.327991,20.479539 C 15.26475,20.373456 15.219828,20.262496 15.219828,20.149414 C 15.219828,20.074812 15.245878,20.001072 15.27391,19.92933 L 14.733099,19.759265 L 15.409112,19.709243 C 15.570788,19.5119 15.845185,19.333645 16.193287,19.179041 L 15.949921,18.958956 L 16.544813,19.038989 C 16.963536,18.893871 17.451039,18.779528 18.005002,18.708862 L 18.086123,18.498781 L 18.491731,18.658842 C 18.767836,18.637239 19.063616,18.618827 19.357027,18.618827 C 19.650438,18.618827 19.919178,18.637239 20.195283,18.658842 L 20.57385,18.498781 L 20.682012,18.708862 C 21.222203,18.77777 21.702894,18.88903 22.11516,19.028984 L 22.710052,18.948954 L 22.493726,19.179041 C 22.834604,19.330436 23.08827,19.506682 23.250862,19.699241 L 23.953915,19.739257 L 23.413104,19.919325 C 23.44367,19.99415 23.467185,20.07145 23.467185,20.149414 C 23.467185,20.262496 23.422262,20.373456 23.359023,20.479539 L 23.980955,20.659609 L 23.16974,20.719631 C 22.996508,20.877517 22.737775,21.023402 22.439645,21.149796 L 22.737092,21.449912 L 21.871796,21.349874 C 21.533757,21.447263 21.146419,21.515058 20.736093,21.569958 L 20.60089,21.910088 L 19.97896,21.649988 C 19.77037,21.662039 19.574709,21.669996 19.357027,21.669996 C 19.146292,21.669996 18.937346,21.661297 18.735095,21.649988 L 18.140205,21.920091 z"
       style="opacity:0.25;fill:url(#linearGradient4614);fill-opacity:1;fill-rule:nonzero;stroke:none;stroke-width:0.5;stroke-linecap:round;stroke-linejoin:round;stroke-miterlimit:4;stroke-dasharray:none;stroke-opacity:1" />
    <path
       style="opacity:0.98000004;fill:#323232;fill-opacity:1;fill-rule:nonzero;stroke:none;stroke-width:0.5;stroke-linecap:round;stroke-linejoin:round;stroke-miterlimit:4;stroke-opacity:1"
       d="M 16.276034,13.358398 L 22.278872,13.358398 L 22.278872,19.809265 C 22.278872,19.809265 20.778163,20.372376 19.277453,20.372376 C 17.776744,20.372376 16.276034,19.809265 16.276034,19.809265 L 16.276034,13.358398 z"
       id="path2291"
       sodipodi:nodetypes="ccczcc" />
    <path
       style="opacity:1;fill:#111111;fill-opacity:1;fill-rule:nonzero;stroke:none;stroke-width:0.5;stroke-linecap:round;stroke-linejoin:round;stroke-miterlimit:4;stroke-opacity:1"
       d="M 17.052019,14.531792 L 21.618493,14.531792 L 21.618493,20.890173 C 21.618493,20.890173 20.476875,21.236993 19.335256,21.236993 C 18.193638,21.236993 17.052019,20.890173 17.052019,20.890173 L 17.052019,14.531792 z"
       id="rect2286"
       sodipodi:nodetypes="ccczcc" />
    <path
       style="opacity:1;fill:#555555;fill-opacity:1;fill-rule:nonzero;stroke:none;stroke-width:0.5;stroke-linecap:round;stroke-linejoin:round;stroke-miterlimit:4;stroke-dasharray:none;stroke-opacity:1"
       d="M 18.09375,12.21875 L 18,12.4375 C 17.446037,12.510526 16.949973,12.631287 16.53125,12.78125 L 15.9375,12.6875 L 15.9375,12.8125 L 16.09375,12.96875 C 15.795465,13.116537 15.551282,13.285811 15.40625,13.46875 L 14.71875,13.53125 L 14.71875,13.625 L 15.25,13.8125 C 15.242155,13.845524 15.21875,13.872795 15.21875,13.90625 C 15.21875,13.934675 15.213817,13.971875 15.21875,14 C 15.217897,14.010148 15.21875,14.021068 15.21875,14.03125 C 15.21875,14.113857 15.245752,14.20184 15.28125,14.28125 L 14.71875,14.46875 L 14.71875,14.5625 L 15.53125,14.625 C 15.690961,14.775423 15.918568,14.907973 16.1875,15.03125 L 15.96875,15.28125 L 15.96875,15.40625 L 16.84375,15.28125 C 17.183652,15.382923 17.524156,15.44285 17.9375,15.5 L 18.125,15.875 L 18.75,15.59375 C 18.952251,15.605436 19.133015,15.59375 19.34375,15.59375 C 19.561432,15.59375 19.76016,15.606205 19.96875,15.59375 L 20.59375,15.84375 L 20.75,15.5 C 21.160326,15.443267 21.536961,15.381891 21.875,15.28125 L 22.75,15.375 L 22.75,15.25 L 22.5,15.03125 C 22.768933,14.907974 22.996538,14.775423 23.15625,14.625 L 23.96875,14.5625 L 23.96875,14.4375 L 23.40625,14.28125 C 23.440386,14.203515 23.468751,14.11202 23.46875,14.03125 C 23.46875,14.020609 23.469532,14.010613 23.46875,14 C 23.473683,13.971875 23.46875,13.934675 23.46875,13.90625 C 23.46875,13.871287 23.445011,13.847052 23.4375,13.8125 L 23.96875,13.625 L 23.96875,13.5 L 23.25,13.46875 C 23.098664,13.283537 22.868521,13.086388 22.5625,12.9375 L 22.71875,12.78125 L 22.71875,12.6875 L 22.125,12.75 C 21.712734,12.605373 21.22769,12.508711 20.6875,12.4375 L 20.5625,12.21875 L 20.1875,12.375 C 19.911395,12.352675 19.637161,12.34375 19.34375,12.34375 C 19.050339,12.34375 18.776104,12.352675 18.5,12.375 L 18.09375,12.21875 z"
       id="path2326"
       sodipodi:nodetypes="ccccccccccssscccccccccccscccccccccccssscccccccccccscc" />
    <path
       style="opacity:0.4;fill:url(#linearGradient4606);fill-opacity:1;fill-rule:nonzero;stroke:none;stroke-width:0.5;stroke-linecap:round;stroke-linejoin:round;stroke-miterlimit:4;stroke-dasharray:none;stroke-opacity:1"
       d="M 18.140205,15.75086 L 17.95092,15.389034 C 17.537576,15.331885 17.18216,15.252937 16.842258,15.151264 L 15.976962,15.275318 L 16.247368,14.954845 C 15.949239,14.82423 15.690505,14.673471 15.517273,14.510314 L 14.733099,14.458625 L 15.327991,14.262205 C 15.26475,14.15258 15.219828,14.037914 15.219828,13.921055 C 15.219828,13.843963 15.245878,13.767761 15.27391,13.693623 L 14.733099,13.517877 L 15.409112,13.466187 C 15.570788,13.262254 15.845185,13.078046 16.193287,12.918282 L 15.949921,12.690846 L 16.544813,12.773551 C 16.963536,12.623588 17.451039,12.505427 18.005002,12.432401 L 18.086123,12.215305 L 18.491731,12.380711 C 18.767836,12.358386 19.063616,12.339359 19.357027,12.339359 C 19.650438,12.339359 19.919178,12.358386 20.195283,12.380711 L 20.57385,12.215305 L 20.682012,12.432401 C 21.222203,12.503612 21.702894,12.618585 22.11516,12.763212 L 22.710052,12.680509 L 22.493726,12.918282 C 22.834604,13.07473 23.08827,13.256862 23.250862,13.455851 L 23.953915,13.497203 L 23.413104,13.683284 C 23.44367,13.760607 23.467185,13.840489 23.467185,13.921055 C 23.467185,14.037914 23.422262,14.15258 23.359023,14.262205 L 23.980955,14.448288 L 23.16974,14.510314 C 22.996508,14.673471 22.737775,14.82423 22.439645,14.954845 L 22.737092,15.26498 L 21.871796,15.161602 C 21.533757,15.262243 21.146419,15.332301 20.736093,15.389034 L 20.60089,15.740523 L 19.97896,15.471738 C 19.77037,15.484192 19.574709,15.492415 19.357027,15.492415 C 19.146292,15.492415 18.937346,15.483424 18.735095,15.471738 L 18.140205,15.75086 z"
       id="path2316" />
    <path
       style="opacity:0.5;fill:url(#linearGradient4650);fill-opacity:1;fill-rule:nonzero;stroke:none;stroke-width:0.5;stroke-linecap:round;stroke-linejoin:round;stroke-miterlimit:4;stroke-dasharray:none;stroke-opacity:1"
       d="M 22.71875,18.9375 L 22.5,19.1875 C 22.523599,19.197981 22.539738,19.208033 22.5625,19.21875 L 22.71875,19.0625 L 22.71875,18.9375 z M 15.9375,18.96875 L 15.9375,19.0625 L 16.125,19.21875 C 16.147237,19.208383 16.164614,19.197664 16.1875,19.1875 L 15.9375,18.96875 z M 14.71875,19.75 L 14.71875,19.875 L 15.25,20.03125 C 15.259451,19.999457 15.269085,19.968633 15.28125,19.9375 L 14.71875,19.75 z M 23.96875,19.75 L 23.40625,19.90625 C 23.421533,19.943663 23.427801,19.992826 23.4375,20.03125 L 23.96875,19.84375 L 23.96875,19.75 z M 15.25,20.3125 C 15.261875,20.364437 15.261527,20.421352 15.28125,20.46875 L 15.3125,20.46875 C 15.28088,20.415708 15.269136,20.367636 15.25,20.3125 z M 23.4375,20.3125 C 23.418364,20.367636 23.375369,20.415708 23.34375,20.46875 L 23.40625,20.5 C 23.43135,20.444689 23.427623,20.375102 23.4375,20.3125 z M 14.71875,20.65625 L 14.71875,20.78125 L 15.53125,20.84375 C 15.690961,20.989313 15.918568,21.099458 16.1875,21.21875 L 16.25,21.15625 C 15.951871,21.029856 15.704482,20.876636 15.53125,20.71875 L 14.71875,20.65625 z M 23.96875,20.65625 L 23.15625,20.71875 C 22.983018,20.876636 22.73563,21.029856 22.4375,21.15625 L 22.5,21.21875 C 22.768933,21.099458 22.996538,20.989313 23.15625,20.84375 L 23.96875,20.78125 L 23.96875,20.65625 z M 16.84375,21.34375 L 15.96875,21.46875 L 15.96875,21.5625 L 16.84375,21.46875 C 17.183652,21.567138 17.524156,21.632196 17.9375,21.6875 L 18.125,22.03125 L 18.75,21.75 C 18.952251,21.761309 19.133015,21.781249 19.34375,21.78125 C 19.561432,21.78125 19.76016,21.762051 19.96875,21.75 L 20.59375,22.03125 L 20.75,21.6875 C 21.160326,21.6326 21.536961,21.566138 21.875,21.46875 L 22.75,21.5625 L 22.75,21.4375 L 21.875,21.34375 C 21.536961,21.441139 21.160326,21.5076 20.75,21.5625 L 20.59375,21.90625 L 19.96875,21.65625 C 19.76016,21.668301 19.561432,21.65625 19.34375,21.65625 C 19.133015,21.65625 18.952251,21.667559 18.75,21.65625 L 18.125,21.90625 L 17.9375,21.5625 C 17.524156,21.507196 17.183652,21.442138 16.84375,21.34375 z"
       id="path2338" />
    <g
       id="g3963"
       transform="translate(0,-12)">
      <path
         style="fill:#cf4913;fill-opacity:1;fill-rule:nonzero;stroke:none;stroke-width:0.5;stroke-linecap:round;stroke-linejoin:round;stroke-miterlimit:4;stroke-opacity:1"
         d="M 16.573178,34.120749 C 16.573178,34.120749 16.619786,34.018566 16.785736,34.018566 C 16.951687,34.018566 16.998295,34.120749 16.998295,34.120749 L 16.998295,38.990317 C 16.998295,38.990317 16.949823,39.095304 16.785737,39.095304 C 16.62165,39.095304 16.573178,38.990317 16.573178,38.990317 L 16.573178,34.120749 z"
         id="path3442"
         sodipodi:nodetypes="czcczcc" />
      <path
         sodipodi:nodetypes="czcczcc"
         id="path2327"
         d="M 16.573178,34.120749 C 16.573178,34.120749 16.619786,34.222932 16.785736,34.222932 C 16.951687,34.222932 16.998295,34.120749 16.998295,34.120749 L 16.998295,38.990317 C 16.998295,38.990317 16.949823,39.095304 16.785737,39.095304 C 16.62165,39.095304 16.573178,38.990317 16.573178,38.990317 L 16.573178,34.120749 z"
         style="opacity:0.5;fill:url(#linearGradient3993);fill-opacity:1;fill-rule:nonzero;stroke:none;stroke-width:0.5;stroke-linecap:round;stroke-linejoin:round;stroke-miterlimit:4;stroke-opacity:1" />
      <path
         sodipodi:nodetypes="czcczcc"
         id="path3466"
         d="M 19.077374,35.479789 C 19.077374,35.479789 19.126105,35.372952 19.299613,35.372952 C 19.473122,35.372952 19.521853,35.479789 19.521853,35.479789 L 19.521853,40.571137 C 19.521853,40.571137 19.471173,40.680905 19.299614,40.680905 C 19.128054,40.680905 19.077374,40.571137 19.077374,40.571137 L 19.077374,35.479789 z"
         style="fill:#cf4913;fill-opacity:1;fill-rule:nonzero;stroke:none;stroke-width:0.5;stroke-linecap:round;stroke-linejoin:round;stroke-miterlimit:4;stroke-opacity:1" />
      <path
         style="opacity:0.5;fill:url(#linearGradient3995);fill-opacity:1;fill-rule:nonzero;stroke:none;stroke-width:0.5;stroke-linecap:round;stroke-linejoin:round;stroke-miterlimit:4;stroke-opacity:1"
         d="M 19.077374,35.479789 C 19.077374,35.479789 19.126105,35.586626 19.299613,35.586626 C 19.473122,35.586626 19.521853,35.479789 19.521853,35.479789 L 19.521853,40.571137 C 19.521853,40.571137 19.471173,40.680905 19.299614,40.680905 C 19.128054,40.680905 19.077374,40.571137 19.077374,40.571137 L 19.077374,35.479789 z"
         id="path3468"
         sodipodi:nodetypes="czcczcc" />
      <path
         style="fill:#cf4913;fill-opacity:1;fill-rule:nonzero;stroke:none;stroke-width:0.5;stroke-linecap:round;stroke-linejoin:round;stroke-miterlimit:4;stroke-opacity:1"
         d="M 16.325524,34.832238 C 16.325524,34.832238 16.372662,34.728892 16.540502,34.728892 C 16.708342,34.728892 16.755481,34.832238 16.755481,34.832238 L 16.755481,39.757251 C 16.755481,39.757251 16.706457,39.863434 16.540503,39.863434 C 16.374548,39.863434 16.325524,39.757251 16.325524,39.757251 L 16.325524,34.832238 z"
         id="path3474"
         sodipodi:nodetypes="czcczcc" />
      <path
         sodipodi:nodetypes="czcczcc"
         id="path3476"
         d="M 16.325524,34.832238 C 16.325524,34.832238 16.372662,34.935585 16.540502,34.935585 C 16.708342,34.935585 16.755481,34.832238 16.755481,34.832238 L 16.755481,39.757251 C 16.755481,39.757251 16.706457,39.863434 16.540503,39.863434 C 16.374548,39.863434 16.325524,39.757251 16.325524,39.757251 L 16.325524,34.832238 z"
         style="opacity:0.55;fill:url(#linearGradient3997);fill-opacity:1;fill-rule:nonzero;stroke:none;stroke-width:0.5;stroke-linecap:round;stroke-linejoin:round;stroke-miterlimit:4;stroke-opacity:1" />
      <path
         sodipodi:nodetypes="czcczcc"
         id="path3482"
         d="M 17.195626,33.799899 C 17.195626,33.799899 17.241172,33.700042 17.403343,33.700042 C 17.565515,33.700042 17.611062,33.799899 17.611062,33.799899 L 17.611062,38.558577 C 17.611062,38.558577 17.563694,38.661173 17.403344,38.661173 C 17.242994,38.661173 17.195626,38.558577 17.195626,38.558577 L 17.195626,33.799899 z"
         style="fill:#cf4913;fill-opacity:1;fill-rule:nonzero;stroke:none;stroke-width:0.5;stroke-linecap:round;stroke-linejoin:round;stroke-miterlimit:4;stroke-opacity:1" />
      <path
         style="opacity:0.45;fill:url(#linearGradient3999);fill-opacity:1;fill-rule:nonzero;stroke:none;stroke-width:0.5;stroke-linecap:round;stroke-linejoin:round;stroke-miterlimit:4;stroke-opacity:1"
         d="M 17.195626,33.799899 C 17.195626,33.799899 17.241172,33.899755 17.403343,33.899755 C 17.565515,33.899755 17.611062,33.799899 17.611062,33.799899 L 17.611062,38.558577 C 17.611062,38.558577 17.563694,38.661173 17.403344,38.661173 C 17.242994,38.661173 17.195626,38.558577 17.195626,38.558577 L 17.195626,33.799899 z"
         id="path3484"
         sodipodi:nodetypes="czcczcc" />
      <path
         style="fill:#cf4913;fill-opacity:1;fill-rule:nonzero;stroke:none;stroke-width:0.5;stroke-linecap:round;stroke-linejoin:round;stroke-miterlimit:4;stroke-opacity:1"
         d="M 17.447222,35.347826 C 17.447222,35.347826 17.494892,35.243317 17.664621,35.243317 C 17.834351,35.243317 17.88202,35.347826 17.88202,35.347826 L 17.88202,40.328284 C 17.88202,40.328284 17.832444,40.435662 17.664622,40.435662 C 17.496798,40.435662 17.447222,40.328284 17.447222,40.328284 L 17.447222,35.347826 z"
         id="path3490"
         sodipodi:nodetypes="czcczcc" />
      <path
         sodipodi:nodetypes="czcczcc"
         id="path3492"
         d="M 17.447222,35.347826 C 17.447222,35.347826 17.494892,35.452336 17.664621,35.452336 C 17.834351,35.452336 17.88202,35.347826 17.88202,35.347826 L 17.88202,40.328284 C 17.88202,40.328284 17.832444,40.435662 17.664622,40.435662 C 17.496798,40.435662 17.447222,40.328284 17.447222,40.328284 L 17.447222,35.347826 z"
         style="opacity:0.6;fill:url(#linearGradient4001);fill-opacity:1;fill-rule:nonzero;stroke:none;stroke-width:0.5;stroke-linecap:round;stroke-linejoin:round;stroke-miterlimit:4;stroke-opacity:1" />
      <path
         style="fill:#cf4913;fill-opacity:1;fill-rule:nonzero;stroke:none;stroke-width:0.5;stroke-linecap:round;stroke-linejoin:round;stroke-miterlimit:4;stroke-opacity:1"
         d="M 20.987928,33.799899 C 20.987928,33.799899 21.033474,33.700042 21.195645,33.700042 C 21.357817,33.700042 21.403364,33.799899 21.403364,33.799899 L 21.403364,38.558577 C 21.403364,38.558577 21.355996,38.661173 21.195646,38.661173 C 21.035296,38.661173 20.987928,38.558577 20.987928,38.558577 L 20.987928,33.799899 z"
         id="path3540"
         sodipodi:nodetypes="czcczcc" />
      <path
         sodipodi:nodetypes="czcczcc"
         id="path3542"
         d="M 20.987928,33.799899 C 20.987928,33.799899 21.033474,33.899755 21.195645,33.899755 C 21.357817,33.899755 21.403364,33.799899 21.403364,33.799899 L 21.403364,38.558577 C 21.403364,38.558577 21.355996,38.661173 21.195646,38.661173 C 21.035296,38.661173 20.987928,38.558577 20.987928,38.558577 L 20.987928,33.799899 z"
         style="opacity:0.35;fill:url(#linearGradient4003);fill-opacity:1;fill-rule:nonzero;stroke:none;stroke-width:0.5;stroke-linecap:round;stroke-linejoin:round;stroke-miterlimit:4;stroke-opacity:1" />
      <path
         sodipodi:nodetypes="czcczcc"
         id="path3498"
         d="M 20.717142,35.347826 C 20.717142,35.347826 20.764812,35.243317 20.934541,35.243317 C 21.104271,35.243317 21.15194,35.347826 21.15194,35.347826 L 21.15194,40.328284 C 21.15194,40.328284 21.102364,40.435662 20.934542,40.435662 C 20.766718,40.435662 20.717142,40.328284 20.717142,40.328284 L 20.717142,35.347826 z"
         style="fill:#cf4913;fill-opacity:1;fill-rule:nonzero;stroke:none;stroke-width:0.5;stroke-linecap:round;stroke-linejoin:round;stroke-miterlimit:4;stroke-opacity:1" />
      <path
         style="opacity:0.45;fill:url(#linearGradient4006);fill-opacity:1;fill-rule:nonzero;stroke:none;stroke-width:0.5;stroke-linecap:round;stroke-linejoin:round;stroke-miterlimit:4;stroke-opacity:1"
         d="M 20.717142,35.347826 C 20.717142,35.347826 20.764812,35.452336 20.934541,35.452336 C 21.104271,35.452336 21.15194,35.347826 21.15194,35.347826 L 21.15194,40.328284 C 21.15194,40.328284 21.102364,40.435662 20.934542,40.435662 C 20.766718,40.435662 20.717142,40.328284 20.717142,40.328284 L 20.717142,35.347826 z"
         id="path3500"
         sodipodi:nodetypes="czcczcc" />
      <path
         sodipodi:nodetypes="czcczcc"
         id="path3548"
         d="M 21.600698,34.13272 C 21.600698,34.13272 21.647306,34.030537 21.813256,34.030537 C 21.979207,34.030537 22.025815,34.13272 22.025815,34.13272 L 22.025815,39.002288 C 22.025815,39.002288 21.977343,39.107275 21.813257,39.107275 C 21.64917,39.107275 21.600698,39.002288 21.600698,39.002288 L 21.600698,34.13272 z"
         style="fill:#cf4913;fill-opacity:1;fill-rule:nonzero;stroke:none;stroke-width:0.5;stroke-linecap:round;stroke-linejoin:round;stroke-miterlimit:4;stroke-opacity:1" />
      <path
         style="opacity:0.35;fill:url(#linearGradient4008);fill-opacity:1;fill-rule:nonzero;stroke:none;stroke-width:0.5;stroke-linecap:round;stroke-linejoin:round;stroke-miterlimit:4;stroke-opacity:1"
         d="M 21.600698,34.13272 C 21.600698,34.13272 21.647306,34.234903 21.813256,34.234903 C 21.979207,34.234903 22.025815,34.13272 22.025815,34.13272 L 22.025815,39.002288 C 22.025815,39.002288 21.977343,39.107275 21.813257,39.107275 C 21.64917,39.107275 21.600698,39.002288 21.600698,39.002288 L 21.600698,34.13272 z"
         id="path3550"
         sodipodi:nodetypes="czcczcc" />
      <path
         sodipodi:nodetypes="czcczcc"
         id="path3532"
         d="M 21.843514,34.832238 C 21.843514,34.832238 21.890652,34.728892 22.058492,34.728892 C 22.226332,34.728892 22.273471,34.832238 22.273471,34.832238 L 22.273471,39.757251 C 22.273471,39.757251 22.224447,39.863434 22.058493,39.863434 C 21.892538,39.863434 21.843514,39.757251 21.843514,39.757251 L 21.843514,34.832238 z"
         style="fill:#cf4913;fill-opacity:1;fill-rule:nonzero;stroke:none;stroke-width:0.5;stroke-linecap:round;stroke-linejoin:round;stroke-miterlimit:4;stroke-opacity:1" />
      <path
         style="opacity:0.4;fill:url(#linearGradient4010);fill-opacity:1;fill-rule:nonzero;stroke:none;stroke-width:0.5;stroke-linecap:round;stroke-linejoin:round;stroke-miterlimit:4;stroke-opacity:1"
         d="M 21.843514,34.832238 C 21.843514,34.832238 21.890652,34.935585 22.058492,34.935585 C 22.226332,34.935585 22.273471,34.832238 22.273471,34.832238 L 22.273471,39.757251 C 22.273471,39.757251 22.224447,39.863434 22.058493,39.863434 C 21.892538,39.863434 21.843514,39.757251 21.843514,39.757251 L 21.843514,34.832238 z"
         id="path3534"
         sodipodi:nodetypes="czcczcc" />
      <path
         id="path3713"
         d="M 17.40625,33.6875 C 17.244079,33.6875 17.187501,33.812499 17.1875,33.8125 C 17.187501,33.812499 17.244079,33.90625 17.40625,33.90625 C 17.568422,33.906251 17.625,33.8125 17.625,33.8125 C 17.625,33.8125 17.568422,33.687499 17.40625,33.6875 z M 21.1875,33.6875 C 21.025329,33.6875 21,33.812499 21,33.8125 C 21,33.812499 21.025329,33.90625 21.1875,33.90625 C 21.349673,33.906251 21.40625,33.8125 21.40625,33.8125 C 21.40625,33.8125 21.349673,33.687499 21.1875,33.6875 z M 16.78125,34.03125 C 16.6153,34.03125 16.562501,34.124999 16.5625,34.125 C 16.562501,34.124999 16.6153,34.21875 16.78125,34.21875 C 16.947201,34.218751 17,34.125 17,34.125 C 17,34.125 16.947201,34.03125 16.78125,34.03125 z M 21.8125,34.03125 C 21.64655,34.03125 21.59375,34.124999 21.59375,34.125 C 21.59375,34.124999 21.64655,34.25 21.8125,34.25 C 21.978452,34.250002 22.03125,34.125 22.03125,34.125 C 22.03125,34.125 21.978452,34.03125 21.8125,34.03125 z M 16.53125,34.71875 C 16.36341,34.71875 16.312501,34.843751 16.3125,34.84375 C 16.312501,34.843751 16.36341,34.9375 16.53125,34.9375 C 16.699089,34.9375 16.75,34.84375 16.75,34.84375 C 16.75,34.84375 16.699089,34.718749 16.53125,34.71875 z M 22.0625,34.71875 C 21.89466,34.71875 21.843751,34.843751 21.84375,34.84375 C 21.843751,34.843751 21.89466,34.9375 22.0625,34.9375 C 22.230339,34.9375 22.28125,34.84375 22.28125,34.84375 C 22.28125,34.84375 22.230339,34.718749 22.0625,34.71875 z M 17.65625,35.25 C 17.486521,35.25 17.4375,35.343752 17.4375,35.34375 C 17.4375,35.343752 17.486521,35.4375 17.65625,35.4375 C 17.82598,35.437501 17.875,35.34375 17.875,35.34375 C 17.875,35.34375 17.82598,35.25 17.65625,35.25 z M 20.9375,35.25 C 20.767771,35.25 20.71875,35.343752 20.71875,35.34375 C 20.71875,35.343752 20.767771,35.4375 20.9375,35.4375 C 21.107229,35.437501 21.15625,35.34375 21.15625,35.34375 C 21.15625,35.34375 21.107229,35.25 20.9375,35.25 z M 19.3125,35.375 C 19.138992,35.375 19.0625,35.468749 19.0625,35.46875 C 19.0625,35.468749 19.138992,35.59375 19.3125,35.59375 C 19.486008,35.593752 19.53125,35.46875 19.53125,35.46875 C 19.53125,35.46875 19.486008,35.375 19.3125,35.375 z"
         style="opacity:0.75;fill:url(#linearGradient4012);fill-opacity:1;fill-rule:nonzero;stroke:none;stroke-width:0.5;stroke-linecap:round;stroke-linejoin:round;stroke-miterlimit:4;stroke-opacity:1" />
      <path
         id="path3918"
         d="M 16.5625,34.125 L 16.5625,34.71875 C 16.701871,34.734792 16.75,34.84375 16.75,34.84375 L 16.75,39.09375 C 16.76247,39.095176 16.767105,39.09375 16.78125,39.09375 C 16.945336,39.09375 17,38.999999 17,39 L 17,34.125 C 17,34.125 16.947201,34.218751 16.78125,34.21875 C 16.6153,34.21875 16.562501,34.124999 16.5625,34.125 z"
         style="opacity:0.45;fill:#000000;fill-opacity:1;fill-rule:nonzero;stroke:none;stroke-width:0.5;stroke-linecap:round;stroke-linejoin:round;stroke-miterlimit:4;stroke-opacity:1" />
      <path
         sodipodi:nodetypes="czcczcc"
         id="path3920"
         d="M 19.077374,35.479789 C 19.077374,35.479789 19.126105,35.586626 19.299613,35.586626 C 19.473122,35.586626 19.521853,35.479789 19.521853,35.479789 L 19.521853,40.571137 C 19.521853,40.571137 19.471173,40.680905 19.299614,40.680905 C 19.128054,40.680905 19.077374,40.571137 19.077374,40.571137 L 19.077374,35.479789 z"
         style="opacity:0.4;fill:#000000;fill-opacity:1;fill-rule:nonzero;stroke:none;stroke-width:0.5;stroke-linecap:round;stroke-linejoin:round;stroke-miterlimit:4;stroke-opacity:1" />
      <path
         style="opacity:0.4;fill:#000000;fill-opacity:1;fill-rule:nonzero;stroke:none;stroke-width:0.5;stroke-linecap:round;stroke-linejoin:round;stroke-miterlimit:4;stroke-opacity:1"
         d="M 16.325524,34.832238 C 16.325524,34.832238 16.372662,34.935585 16.540502,34.935585 C 16.708342,34.935585 16.755481,34.832238 16.755481,34.832238 L 16.755481,39.757251 C 16.755481,39.757251 16.706457,39.863434 16.540503,39.863434 C 16.374548,39.863434 16.325524,39.757251 16.325524,39.757251 L 16.325524,34.832238 z"
         id="path3922"
         sodipodi:nodetypes="czcczcc" />
      <path
         id="path3924"
         d="M 17.1875,33.8125 L 17.1875,38.5625 C 17.1875,38.5625 17.245901,38.656248 17.40625,38.65625 C 17.421668,38.65625 17.424113,38.657965 17.4375,38.65625 L 17.4375,35.34375 C 17.4375,35.343752 17.484376,35.262032 17.625,35.25 L 17.625,33.8125 C 17.625,33.8125 17.568422,33.906251 17.40625,33.90625 C 17.244079,33.90625 17.187501,33.812499 17.1875,33.8125 z"
         style="opacity:0.5;fill:#000000;fill-opacity:1;fill-rule:nonzero;stroke:none;stroke-width:0.5;stroke-linecap:round;stroke-linejoin:round;stroke-miterlimit:4;stroke-opacity:1" />
      <path
         style="opacity:0.35;fill:#000000;fill-opacity:1;fill-rule:nonzero;stroke:none;stroke-width:0.5;stroke-linecap:round;stroke-linejoin:round;stroke-miterlimit:4;stroke-opacity:1"
         d="M 17.447222,35.347826 C 17.447222,35.347826 17.494892,35.452336 17.664621,35.452336 C 17.834351,35.452336 17.88202,35.347826 17.88202,35.347826 L 17.88202,40.328284 C 17.88202,40.328284 17.832444,40.435662 17.664622,40.435662 C 17.496798,40.435662 17.447222,40.328284 17.447222,40.328284 L 17.447222,35.347826 z"
         id="path3926"
         sodipodi:nodetypes="czcczcc" />
      <path
         id="path3928"
         d="M 21,33.8125 L 21,35.28125 C 21.106983,35.303583 21.15625,35.34375 21.15625,35.34375 L 21.15625,38.65625 C 21.169637,38.657965 21.172082,38.65625 21.1875,38.65625 C 21.34785,38.65625 21.40625,38.562499 21.40625,38.5625 L 21.40625,33.8125 C 21.40625,33.8125 21.349673,33.906251 21.1875,33.90625 C 21.025329,33.90625 21,33.812499 21,33.8125 z"
         style="opacity:0.6;fill:#000000;fill-opacity:1;fill-rule:nonzero;stroke:none;stroke-width:0.5;stroke-linecap:round;stroke-linejoin:round;stroke-miterlimit:4;stroke-opacity:1" />
      <path
         sodipodi:nodetypes="czcczcc"
         id="path3930"
         d="M 20.717142,35.347826 C 20.717142,35.347826 20.764812,35.452336 20.934541,35.452336 C 21.104271,35.452336 21.15194,35.347826 21.15194,35.347826 L 21.15194,40.328284 C 21.15194,40.328284 21.102364,40.435662 20.934542,40.435662 C 20.766718,40.435662 20.717142,40.328284 20.717142,40.328284 L 20.717142,35.347826 z"
         style="opacity:0.45;fill:#000000;fill-opacity:1;fill-rule:nonzero;stroke:none;stroke-width:0.5;stroke-linecap:round;stroke-linejoin:round;stroke-miterlimit:4;stroke-opacity:1" />
      <path
         id="path3932"
         d="M 21.59375,34.125 L 21.59375,39 C 21.59375,39 21.648413,39.093752 21.8125,39.09375 C 21.828277,39.09375 21.830051,39.095505 21.84375,39.09375 L 21.84375,34.84375 C 21.843751,34.843751 21.891879,34.734793 22.03125,34.71875 L 22.03125,34.125 C 22.03125,34.125 21.978452,34.250002 21.8125,34.25 C 21.64655,34.25 21.59375,34.124999 21.59375,34.125 z"
         style="opacity:0.55;fill:#000000;fill-opacity:1;fill-rule:nonzero;stroke:none;stroke-width:0.5;stroke-linecap:round;stroke-linejoin:round;stroke-miterlimit:4;stroke-opacity:1" />
      <path
         sodipodi:nodetypes="czcczcc"
         id="path3934"
         d="M 21.843514,34.832238 C 21.843514,34.832238 21.890652,34.935585 22.058492,34.935585 C 22.226332,34.935585 22.273471,34.832238 22.273471,34.832238 L 22.273471,39.757251 C 22.273471,39.757251 22.224447,39.863434 22.058493,39.863434 C 21.892538,39.863434 21.843514,39.757251 21.843514,39.757251 L 21.843514,34.832238 z"
         style="opacity:0.5;fill:#000000;fill-opacity:1;fill-rule:nonzero;stroke:none;stroke-width:0.5;stroke-linecap:round;stroke-linejoin:round;stroke-miterlimit:4;stroke-opacity:1" />
    </g>
    <path
       style="opacity:0.25;fill:url(#radialGradient4560);fill-opacity:1;stroke:none;stroke-width:3;stroke-miterlimit:4;stroke-dasharray:none;stroke-opacity:1"
       d="M 19.375,22.625 C 18.736154,22.625 18.159213,22.702202 17.625,22.8125 L 17.625,23.25 C 17.639129,23.248253 17.63993,23.25 17.65625,23.25 C 17.82598,23.25 17.875,23.34375 17.875,23.34375 L 17.875,24.4375 C 18.254895,24.482356 18.648806,24.490202 19.0625,24.5 L 19.0625,23.46875 C 19.0625,23.468749 19.138992,23.375 19.3125,23.375 C 19.399254,23.375 19.434879,23.410791 19.46875,23.4375 C 19.474711,23.440937 19.49505,23.433984 19.5,23.4375 C 19.510825,23.450961 19.53125,23.46875 19.53125,23.46875 L 19.53125,24.53125 C 19.944881,24.526216 20.337229,24.47871 20.71875,24.4375 L 20.71875,23.34375 C 20.71875,23.34375 20.716529,23.335938 20.75,23.3125 C 20.783471,23.289062 20.852636,23.25 20.9375,23.25 C 20.962959,23.25 20.979731,23.246414 21,23.25 L 21,22.78125 C 20.499663,22.685701 19.966679,22.625 19.375,22.625 z M 21.40625,22.875 L 21.40625,23.28125 C 21.40625,23.28125 21.349672,23.375 21.1875,23.375 C 21.17352,23.375 21.168268,23.376273 21.15625,23.375 L 21.15625,24.375 C 21.396459,24.339938 21.624141,24.298031 21.84375,24.25 L 21.84375,23.71875 C 21.829832,23.720317 21.828457,23.71875 21.8125,23.71875 C 21.64655,23.71875 21.59375,23.625 21.59375,23.625 L 21.59375,22.90625 C 21.5358,22.88972 21.466378,22.890271 21.40625,22.875 z M 17.1875,22.90625 C 17.129891,22.922017 17.055491,22.920572 17,22.9375 L 17,23.59375 C 17,23.59375 16.947201,23.6875 16.78125,23.6875 C 16.766944,23.6875 16.762663,23.688773 16.75,23.6875 L 16.75,24.21875 C 16.969356,24.272462 17.196323,24.33459 17.4375,24.375 L 17.4375,23.375 C 17.425058,23.376273 17.42023,23.375 17.40625,23.375 C 17.244079,23.375 17.1875,23.28125 17.1875,23.28125 L 17.1875,22.90625 z M 22.28125,23.15625 L 22.28125,24.15625 C 22.620856,24.06247 22.952011,23.965064 23.21875,23.84375 C 23.042576,23.584296 22.715003,23.350214 22.28125,23.15625 z M 16.3125,23.21875 C 15.938121,23.400638 15.660892,23.610479 15.5,23.84375 C 15.735126,23.952506 16.018029,24.038826 16.3125,24.125 L 16.3125,23.21875 z M 23.59375,23.53125 C 23.569607,23.551559 23.559092,23.574071 23.53125,23.59375 C 23.532676,23.609929 23.531249,23.639949 23.53125,23.65625 C 23.535733,23.650333 23.555894,23.660027 23.5625,23.65625 C 23.565059,23.634491 23.59375,23.615737 23.59375,23.59375 C 23.59375,23.574631 23.595688,23.550197 23.59375,23.53125 z"
       id="path4515" />
    <path
       style="opacity:0;fill:#bbbbbb;fill-opacity:1;stroke:none;stroke-width:0.2;stroke-miterlimit:4;stroke-dasharray:none;stroke-opacity:1"
       d="M 19.375,22.53125 C 18.746641,22.53125 18.160215,22.584377 17.625,22.6875 L 17.625,22.90625 C 18.158981,22.796427 18.73809,22.71875 19.375,22.71875 C 19.964061,22.71875 20.505274,22.780098 21,22.875 L 21,22.65625 C 20.506794,22.568455 19.953368,22.53125 19.375,22.53125 z M 21.40625,22.75 L 21.40625,22.96875 C 21.468933,22.984856 21.533546,23.013754 21.59375,23.03125 L 21.59375,22.8125 C 21.529512,22.794799 21.472938,22.766047 21.40625,22.75 z M 17.1875,22.78125 C 17.125068,22.797616 17.059963,22.82592 17,22.84375 L 17,23.0625 C 17.057593,23.044606 17.12728,23.016614 17.1875,23 L 17.1875,22.78125 z M 22.28125,23.0625 L 22.28125,23.28125 C 22.560936,23.433329 22.776268,23.607686 22.9375,23.78125 C 22.735105,23.86364 22.517262,23.927363 22.28125,24 L 22.28125,24.25 C 22.635366,24.154313 22.969952,24.064867 23.25,23.9375 L 23.375,23.875 L 23.3125,23.78125 C 23.116497,23.492593 22.742838,23.262121 22.28125,23.0625 z M 16.3125,23.125 C 15.913167,23.313936 15.586725,23.519586 15.40625,23.78125 L 15.34375,23.875 L 15.46875,23.9375 C 15.716378,24.052039 16.004547,24.130389 16.3125,24.21875 L 16.3125,23.96875 C 16.124122,23.907482 15.946213,23.849208 15.78125,23.78125 C 15.918371,23.635919 16.099682,23.508103 16.3125,23.375 L 16.3125,23.125 z M 23.6875,23.34375 L 23.53125,23.46875 C 23.490195,23.503286 23.476929,23.494219 23.46875,23.5 L 23.4375,23.53125 L 23.4375,23.59375 C 23.437464,23.59334 23.437499,23.634105 23.4375,23.65625 C 23.4375,23.6705 23.437331,23.689777 23.4375,23.6875 L 23.40625,23.875 L 23.59375,23.78125 C 23.61098,23.771477 23.617574,23.758603 23.625,23.75 C 23.640589,23.741087 23.629573,23.712714 23.625,23.71875 L 23.65625,23.71875 L 23.65625,23.6875 C 23.647897,23.698823 23.652855,23.685117 23.65625,23.65625 C 23.666712,23.641617 23.6875,23.631893 23.6875,23.59375 C 23.6875,23.581389 23.69101,23.565568 23.6875,23.53125 L 23.6875,23.34375 z M 16.75,24.09375 L 16.75,24.34375 C 16.970074,24.39406 17.196768,24.431727 17.4375,24.46875 L 17.4375,24.25 C 17.199801,24.205112 16.965347,24.151293 16.75,24.09375 z M 21.84375,24.125 C 21.62471,24.180493 21.396768,24.23893 21.15625,24.28125 L 21.15625,24.5 C 21.393944,24.465993 21.624915,24.421772 21.84375,24.375 L 21.84375,24.125 z M 17.875,24.3125 L 17.875,24.53125 C 18.254417,24.574397 18.649181,24.615877 19.0625,24.625 L 19.0625,24.40625 C 18.645072,24.394096 18.250962,24.366338 17.875,24.3125 z M 20.71875,24.34375 C 20.341886,24.393347 19.948139,24.431108 19.53125,24.4375 L 19.53125,24.625 C 19.945423,24.620151 20.337211,24.571246 20.71875,24.53125 L 20.71875,24.34375 z"
       id="path4533" />
    <path
       style="opacity:0.75;fill:url(#radialGradient4049);fill-opacity:1;fill-rule:nonzero;stroke:none;stroke-width:0.5;stroke-linecap:round;stroke-linejoin:round;stroke-miterlimit:4;stroke-dasharray:none;stroke-opacity:1"
       d="M 14.875,23.46875 C 14.873051,23.490746 14.84375,23.509063 14.84375,23.53125 C 14.84375,24.537078 16.886214,25.343751 19.375,25.34375 C 21.863786,25.34375 23.875,24.537077 23.875,23.53125 C 23.875,23.511528 23.876541,23.488322 23.875,23.46875 C 23.081401,24.095686 21.364434,24.53125 19.375,24.53125 C 17.385566,24.531251 15.668599,24.095687 14.875,23.46875 z"
       id="path2265" />
    <path
       style="opacity:0.75;fill:url(#radialGradient4059);fill-opacity:1;fill-rule:nonzero;stroke:none;stroke-width:0.5;stroke-linecap:round;stroke-linejoin:round;stroke-miterlimit:4;stroke-dasharray:none;stroke-opacity:1"
       d="M 15.3125,24.28125 C 15.3125,25.183916 17.141474,25.90625 19.375,25.90625 C 21.581681,25.90625 23.363397,25.200198 23.40625,24.3125 C 22.671506,24.916222 21.151203,25.34375 19.375,25.34375 C 17.576644,25.34375 16.036048,24.897213 15.3125,24.28125 z"
       id="path2268" />
    <path
       style="opacity:0.35;fill:url(#linearGradient4096);fill-opacity:1;fill-rule:nonzero;stroke:none;stroke-width:0.5;stroke-linecap:round;stroke-linejoin:round;stroke-miterlimit:4;stroke-dasharray:none;stroke-opacity:1"
       d="M 14.875,23.46875 C 14.873051,23.490746 14.84375,23.509063 14.84375,23.53125 C 14.84375,23.826735 15.031679,24.098043 15.34375,24.34375 C 15.428764,25.21595 17.195165,25.90625 19.375,25.90625 C 21.556375,25.90625 23.324634,25.217081 23.40625,24.34375 C 23.407197,24.333619 23.405759,24.32268 23.40625,24.3125 C 23.694393,24.073271 23.875,23.816295 23.875,23.53125 C 23.875,23.511528 23.876541,23.488322 23.875,23.46875 C 23.081401,24.095686 21.364434,24.53125 19.375,24.53125 C 17.385566,24.531251 15.668599,24.095687 14.875,23.46875 z"
       id="path4089"
       sodipodi:nodetypes="cscsssscsc" />
    <path
       id="path4562"
       d="M 19.375,22.625 C 18.736154,22.625 18.159213,22.702202 17.625,22.8125 L 17.625,23.25 C 17.639129,23.248253 17.63993,23.25 17.65625,23.25 C 17.82598,23.25 17.875,23.34375 17.875,23.34375 L 17.875,24.4375 C 18.254895,24.482356 18.648806,24.490202 19.0625,24.5 L 19.0625,23.46875 C 19.0625,23.468749 19.138992,23.375 19.3125,23.375 C 19.399254,23.375 19.434879,23.410791 19.46875,23.4375 C 19.474711,23.440937 19.49505,23.433984 19.5,23.4375 C 19.510825,23.450961 19.53125,23.46875 19.53125,23.46875 L 19.53125,24.53125 C 19.944881,24.526216 20.337229,24.47871 20.71875,24.4375 L 20.71875,23.34375 C 20.71875,23.34375 20.716529,23.335938 20.75,23.3125 C 20.783471,23.289062 20.852636,23.25 20.9375,23.25 C 20.962959,23.25 20.979731,23.246414 21,23.25 L 21,22.78125 C 20.499663,22.685701 19.966679,22.625 19.375,22.625 z M 21.40625,22.875 L 21.40625,23.28125 C 21.40625,23.28125 21.349672,23.375 21.1875,23.375 C 21.17352,23.375 21.168268,23.376273 21.15625,23.375 L 21.15625,24.375 C 21.396459,24.339938 21.624141,24.298031 21.84375,24.25 L 21.84375,23.71875 C 21.829832,23.720317 21.828457,23.71875 21.8125,23.71875 C 21.64655,23.71875 21.59375,23.625 21.59375,23.625 L 21.59375,22.90625 C 21.5358,22.88972 21.466378,22.890271 21.40625,22.875 z M 17.1875,22.90625 C 17.129891,22.922017 17.055491,22.920572 17,22.9375 L 17,23.59375 C 17,23.59375 16.947201,23.6875 16.78125,23.6875 C 16.766944,23.6875 16.762663,23.688773 16.75,23.6875 L 16.75,24.21875 C 16.969356,24.272462 17.196323,24.33459 17.4375,24.375 L 17.4375,23.375 C 17.425058,23.376273 17.42023,23.375 17.40625,23.375 C 17.244079,23.375 17.1875,23.28125 17.1875,23.28125 L 17.1875,22.90625 z M 22.28125,23.15625 L 22.28125,24.15625 C 22.620856,24.06247 22.952011,23.965064 23.21875,23.84375 C 23.042576,23.584296 22.715003,23.350214 22.28125,23.15625 z M 16.3125,23.21875 C 15.938121,23.400638 15.660892,23.610479 15.5,23.84375 C 15.735126,23.952506 16.018029,24.038826 16.3125,24.125 L 16.3125,23.21875 z M 23.59375,23.53125 C 23.569607,23.551559 23.559092,23.574071 23.53125,23.59375 C 23.532676,23.609929 23.531249,23.639949 23.53125,23.65625 C 23.535733,23.650333 23.555894,23.660027 23.5625,23.65625 C 23.565059,23.634491 23.59375,23.615737 23.59375,23.59375 C 23.59375,23.574631 23.595688,23.550197 23.59375,23.53125 z"
       style="opacity:0.5;fill:url(#linearGradient4564);fill-opacity:1;stroke:none;stroke-width:3;stroke-miterlimit:4;stroke-dasharray:none;stroke-opacity:1" />
    <path
       style="opacity:0.75;fill:url(#linearGradient3581);fill-opacity:1;fill-rule:nonzero;stroke:none;stroke-width:0.5;stroke-linecap:round;stroke-linejoin:round;stroke-miterlimit:4;stroke-dasharray:none;stroke-opacity:1"
       d="M 24.34375,11.71875 C 24.34375,11.993953 24.220192,12.2609 23.96875,12.5 C 23.96875,14.961749 23.96875,17.969678 23.96875,18.6875 C 23.96875,20.599468 23.968751,22.808635 23.96875,22.96875 C 23.96875,23.047888 23.941088,23.111657 23.90625,23.1875 C 23.889608,23.224419 23.868262,23.245283 23.84375,23.28125 C 23.770104,23.389887 23.670461,23.495355 23.53125,23.59375 C 23.532676,23.609929 23.531249,23.639949 23.53125,23.65625 C 23.53125,23.891932 23.360031,24.114693 23.09375,24.3125 C 23.054152,25.046477 21.414252,25.625001 19.375,25.625 C 17.360556,25.625 15.734807,25.033664 15.65625,24.3125 C 15.36785,24.109336 15.1875,23.900573 15.1875,23.65625 C 15.1875,23.637913 15.216957,23.611942 15.21875,23.59375 C 15.079538,23.495355 14.979896,23.389887 14.90625,23.28125 C 14.898898,23.270455 14.881649,23.292127 14.875,23.28125 C 14.85971,23.256404 14.855366,23.212773 14.84375,23.1875 C 14.831941,23.161277 14.820211,23.15167 14.8125,23.125 C 14.796822,23.073642 14.78125,23.021512 14.78125,22.96875 C 14.78125,22.818447 14.78125,20.605177 14.78125,18.6875 C 14.78125,17.963898 14.78125,14.950672 14.78125,12.46875 C 14.601712,12.293729 14.455457,12.100435 14.40625,11.90625 C 14.40625,13.562866 14.40625,15.001098 14.40625,17.53125 C 14.40625,19.850556 14.40625,22.505731 14.40625,22.6875 C 14.40625,22.751315 14.420536,22.812887 14.4375,22.875 C 14.445846,22.907267 14.455971,22.937042 14.46875,22.96875 C 14.481317,22.999324 14.483452,23.032447 14.5,23.0625 C 14.507199,23.075655 14.523294,23.080701 14.53125,23.09375 C 14.610942,23.225148 14.724354,23.349741 14.875,23.46875 C 14.873051,23.490746 14.84375,23.509063 14.84375,23.53125 C 14.84375,23.826735 15.031679,24.098043 15.34375,24.34375 C 15.428764,25.21595 17.195165,25.90625 19.375,25.90625 C 21.581681,25.90625 23.363397,25.200198 23.40625,24.3125 C 23.694393,24.073271 23.875,23.816295 23.875,23.53125 C 23.875,23.511528 23.876541,23.488322 23.875,23.46875 C 24.025646,23.349741 24.139058,23.225148 24.21875,23.09375 C 24.24527,23.050254 24.263251,23.013409 24.28125,22.96875 C 24.318951,22.877028 24.34375,22.783223 24.34375,22.6875 C 24.34375,22.493854 24.34375,19.843646 24.34375,17.53125 C 24.34375,14.924549 24.34375,13.360857 24.34375,11.71875 z"
       id="path2372" />
    <path
       sodipodi:nodetypes="cscsssscsc"
       id="path4598"
       d="M 14.875,23.46875 C 14.873051,23.490746 14.84375,23.509063 14.84375,23.53125 C 14.84375,23.826735 15.031679,24.098043 15.34375,24.34375 C 15.428764,25.21595 17.195165,25.90625 19.375,25.90625 C 21.556375,25.90625 23.324634,25.217081 23.40625,24.34375 C 23.407197,24.333619 23.405759,24.32268 23.40625,24.3125 C 23.694393,24.073271 23.875,23.816295 23.875,23.53125 C 23.875,23.511528 23.876541,23.488322 23.875,23.46875 C 23.081401,24.095686 21.364434,24.53125 19.375,24.53125 C 17.385566,24.531251 15.668599,24.095687 14.875,23.46875 z"
       style="opacity:0.15;fill:#000000;fill-opacity:1;fill-rule:nonzero;stroke:none;stroke-width:0.5;stroke-linecap:round;stroke-linejoin:round;stroke-miterlimit:4;stroke-dasharray:none;stroke-opacity:1" />
    <path
       style="opacity:0.5;fill:url(#linearGradient4642);fill-opacity:1;fill-rule:nonzero;stroke:none;stroke-width:0.5;stroke-linecap:round;stroke-linejoin:round;stroke-miterlimit:4;stroke-dasharray:none;stroke-opacity:1"
       d="M 15.9375,12.6875 L 15.9375,12.8125 L 16.09375,12.96875 C 16.127979,12.951791 16.151666,12.922696 16.1875,12.90625 L 15.9375,12.6875 z M 22.71875,12.6875 L 22.5,12.90625 C 22.523599,12.917081 22.539738,12.926426 22.5625,12.9375 L 22.71875,12.78125 L 22.71875,12.6875 z M 23.96875,13.5 L 23.40625,13.6875 C 23.423552,13.731268 23.427703,13.767432 23.4375,13.8125 L 23.96875,13.625 L 23.96875,13.5 z M 14.71875,13.53125 L 14.71875,13.625 L 15.25,13.8125 C 15.260232,13.769425 15.265383,13.729465 15.28125,13.6875 L 14.71875,13.53125 z M 15.21875,14 C 15.217897,14.010148 15.21875,14.021068 15.21875,14.03125 C 15.21875,14.053117 15.246559,14.071389 15.25,14.09375 C 15.240174,14.064492 15.223957,14.029687 15.21875,14 z M 15.25,14.09375 C 15.258028,14.145926 15.260718,14.199826 15.28125,14.25 L 15.3125,14.25 C 15.28088,14.195187 15.269136,14.150727 15.25,14.09375 z M 23.46875,14 C 23.463543,14.029687 23.447326,14.064492 23.4375,14.09375 C 23.441056,14.071321 23.46875,14.05263 23.46875,14.03125 C 23.46875,14.020609 23.469532,14.010613 23.46875,14 z M 23.4375,14.09375 C 23.418364,14.150727 23.375369,14.195188 23.34375,14.25 L 23.40625,14.28125 C 23.43135,14.224092 23.427623,14.156053 23.4375,14.09375 z M 23.96875,14.4375 L 23.15625,14.5 C 22.983018,14.663156 22.73563,14.838135 22.4375,14.96875 L 22.5,15.03125 C 22.768933,14.907974 22.996538,14.775423 23.15625,14.625 L 23.96875,14.5625 L 23.96875,14.4375 z M 14.71875,14.46875 L 14.71875,14.5625 L 15.53125,14.625 C 15.690961,14.775423 15.918568,14.907973 16.1875,15.03125 L 16.25,14.96875 C 15.951871,14.838135 15.704482,14.663157 15.53125,14.5 L 14.71875,14.46875 z M 16.84375,15.15625 L 15.96875,15.28125 L 15.96875,15.40625 L 16.84375,15.28125 C 17.183652,15.382923 17.524156,15.44285 17.9375,15.5 L 18.125,15.875 L 18.75,15.59375 C 18.952251,15.605436 19.133015,15.59375 19.34375,15.59375 C 19.561432,15.59375 19.76016,15.606205 19.96875,15.59375 L 20.59375,15.84375 L 20.75,15.5 C 21.160326,15.443267 21.536961,15.381891 21.875,15.28125 L 22.75,15.375 L 22.75,15.25 L 21.875,15.15625 C 21.536961,15.256891 21.160326,15.318267 20.75,15.375 L 20.59375,15.75 L 19.96875,15.46875 C 19.76016,15.481203 19.561432,15.5 19.34375,15.5 C 19.133015,15.500001 18.952251,15.480436 18.75,15.46875 L 18.125,15.75 L 17.9375,15.375 C 17.524156,15.317851 17.183652,15.257923 16.84375,15.15625 z"
       id="path2332" />
    <path
       style="opacity:1;fill:#000000;fill-opacity:1;fill-rule:nonzero;stroke:none;stroke-width:0.5;stroke-linecap:round;stroke-linejoin:round;stroke-miterlimit:4;stroke-dasharray:none;stroke-opacity:1"
       d="M 19.375,6.21875 C 16.630954,6.21875 14.40625,7.498375 14.40625,9.09375 C 14.40625,9.248959 14.40625,11.077942 14.40625,11.90625 C 14.66097,12.911442 16.802457,13.71875 19.375,13.71875 C 22.119046,13.71875 24.34375,12.81956 24.34375,11.71875 C 24.34375,10.977153 24.34375,9.247786 24.34375,9.09375 C 24.34375,7.498374 22.119046,6.21875 19.375,6.21875 z"
       id="path3347" />
    <path
       style="opacity:0.45;fill:url(#radialGradient4021);fill-opacity:1;fill-rule:nonzero;stroke:none;stroke-width:0.5;stroke-linecap:round;stroke-linejoin:round;stroke-miterlimit:4;stroke-dasharray:none;stroke-opacity:1"
       d="M 19.375,6.21875 C 16.956809,6.21875 14.944864,7.2318405 14.5,8.5625 C 14.504136,8.571192 14.495583,8.585098 14.5,8.59375 C 14.963788,9.50221 16.973959,10.1875 19.375,10.1875 C 21.776041,10.1875 23.754962,9.50221 24.21875,8.59375 C 24.223167,8.585098 24.214614,8.571192 24.21875,8.5625 C 23.773886,7.2318403 21.793191,6.2187499 19.375,6.21875 z"
       id="path2246" />
    <path
       transform="matrix(0.4116264,0,0,0.2168285,11.393328,4.2597075)"
       d="M 24.335261,11.213873 A 4.9710984,2.8901734 0 1 1 14.393064,11.213873 A 4.9710984,2.8901734 0 1 1 24.335261,11.213873 z"
       sodipodi:ry="2.8901734"
       sodipodi:rx="4.9710984"
       sodipodi:cy="11.213873"
       sodipodi:cx="19.364162"
       id="path3297"
       style="opacity:0.5;fill:url(#radialGradient4686);fill-opacity:1;fill-rule:nonzero;stroke:none;stroke-width:0.5;stroke-linecap:round;stroke-linejoin:round;stroke-miterlimit:4;stroke-dasharray:none;stroke-opacity:1"
       sodipodi:type="arc" />
    <path
       style="opacity:0.8;fill:url(#radialGradient4706);fill-opacity:1;fill-rule:nonzero;stroke:none;stroke-width:0.5;stroke-linecap:round;stroke-linejoin:round;stroke-miterlimit:4;stroke-dasharray:none;stroke-opacity:1"
       d="M 19.375,3.875 C 18.86768,3.875 18.437501,4.2462395 18.4375,4.6875 C 18.4375,4.8220844 18.4375,5.8495743 18.4375,5.90625 C 18.4375,6.0390186 18.169613,6.3149095 18,6.34375 C 18.068383,6.5626977 18.64226,6.7500001 19.375,6.75 C 20.110812,6.75 20.685836,6.5640135 20.75,6.34375 C 20.56161,6.3115716 20.28125,6.0320092 20.28125,5.90625 C 20.28125,5.829878 20.28125,4.8271022 20.28125,4.6875 C 20.28125,4.2462397 19.88232,3.8749998 19.375,3.875 z"
       id="path3322"
       sodipodi:nodetypes="csscscssc" />
    <path
       style="fill:#323232;fill-opacity:1;fill-rule:nonzero;stroke:none;stroke-width:1px;stroke-linecap:butt;stroke-linejoin:miter;stroke-opacity:1"
       d="M 16.75,21.46875 L 16.5,21.5 C 16.500624,21.530403 16.499951,21.56328 16.5,21.59375 C 16.520209,21.901135 16.452219,22.192328 16.46875,22.5 C 16.447787,22.655855 16.444548,23.044621 16.6875,22.875 C 16.839344,22.782329 16.650986,22.453694 16.71875,22.28125 C 16.71745,22.238739 16.748158,22.198477 16.75,22.15625 C 16.823408,22.25437 17.04795,22.183237 17,22 C 16.99609,21.837272 17.061586,21.677442 17.125,21.53125 C 17.045378,21.512155 16.953459,21.491036 16.875,21.46875 C 16.823789,21.560965 16.769153,21.648855 16.75,21.75 C 16.757983,21.658348 16.750215,21.560318 16.75,21.46875 z M 21.875,21.46875 C 21.724956,21.511977 21.539823,21.529765 21.375,21.5625 C 21.423401,21.618258 21.508198,21.779516 21.53125,21.8125 C 21.694042,21.896235 21.613698,22.374278 21.875,22.15625 C 22.055362,22.017845 21.933808,22.444098 21.875,22.53125 C 21.773029,22.711897 21.942723,23.047862 22.15625,22.90625 C 22.386112,22.748263 21.948803,22.637581 22.125,22.4375 C 22.296344,22.187561 22.32766,21.86494 22.125,21.625 C 22.09369,21.579182 22.0605,21.543093 22.03125,21.5 L 21.875,21.46875 z M 21.34375,21.5625 C 21.239953,21.582679 21.140553,21.607778 21.03125,21.625 C 21.05809,21.744253 20.891386,21.944283 20.8125,21.96875 C 20.864545,22.134862 21.079281,21.909755 21.15625,21.84375 C 21.269847,21.92724 21.443668,21.744065 21.34375,21.625 C 21.326527,21.584114 21.344417,21.573106 21.34375,21.5625 z M 17.40625,21.59375 C 17.351861,21.698956 17.287595,21.808791 17.25,21.90625 C 17.377461,21.910661 17.528176,21.761915 17.59375,21.625 C 17.52991,21.614146 17.467534,21.605715 17.40625,21.59375 z M 18.03125,21.875 C 17.984057,21.920494 17.937019,21.972929 17.90625,22.03125 C 17.827593,22.251357 17.704381,22.447268 17.59375,22.65625 C 17.499186,22.908247 17.588422,23.180501 17.625,23.4375 C 17.592595,23.646425 17.933385,23.420285 17.84375,23.28125 C 17.817037,23.060386 17.811358,22.811141 17.875,22.59375 C 17.962033,22.409497 18.018576,22.203207 18.125,22.03125 L 18.03125,21.875 z M 20.25,21.875 C 20.25618,21.908465 20.269613,21.940472 20.25,21.96875 C 19.957542,22.306131 19.577094,22.544262 19.25,22.84375 C 19.097523,23.008076 19.010877,23.30921 19.15625,23.5 C 19.23731,23.46727 19.425326,23.537418 19.40625,23.375 C 19.342073,23.123816 19.427047,22.841809 19.65625,22.71875 C 19.751554,22.559552 19.964612,22.483027 20.0625,22.375 C 20.210445,22.316821 20.327685,22.254052 20.5,22.28125 C 20.645384,22.221897 20.709756,22.552231 20.6875,22.6875 C 20.695143,22.949146 20.670131,23.253289 20.84375,23.46875 C 21.043251,23.606431 21.144959,23.304686 21,23.15625 C 20.987144,22.878 20.961009,22.622033 20.9375,22.34375 C 20.909694,22.145146 20.738582,22.002099 20.65625,21.875 L 20.59375,22.03125 L 20.25,21.875 z M 20.40625,22.03125 C 20.623174,22.140871 20.071878,22.271647 20.34375,22.09375 C 20.365653,22.070661 20.381238,22.051035 20.40625,22.03125 z"
       id="path3573" />
    <path
       style="opacity:0.35;fill:url(#linearGradient4013);fill-opacity:1;fill-rule:nonzero;stroke:none;stroke-width:0.5;stroke-linecap:round;stroke-linejoin:round;stroke-miterlimit:4;stroke-dasharray:none;stroke-opacity:1"
       d="M 24.25,8.53125 C 23.850985,9.472016 21.833208,10.1875 19.375,10.1875 C 16.973959,10.1875 14.963788,9.50221 14.5,8.59375 C 14.451174,8.756003 14.40625,8.923091 14.40625,9.09375 C 14.40625,9.843925 14.40625,22.20829 14.40625,22.6875 C 14.40625,23.70854 16.630954,24.531251 19.375,24.53125 C 22.119046,24.53125 24.34375,23.708541 24.34375,22.6875 C 24.34375,22.17698 24.34375,9.891438 24.34375,9.09375 C 24.34375,8.903916 24.310125,8.710519 24.25,8.53125 z"
       id="path2273" />
    <path
       style="opacity:0.68159204;fill:#d3d7cf;fill-opacity:1;fill-rule:nonzero;stroke:none;stroke-width:0.30000001;stroke-linecap:round;stroke-linejoin:round;stroke-miterlimit:4;stroke-dasharray:none;stroke-opacity:1"
       d="M 19.305898,14.06509 C 19.181573,14.065091 19.074742,14.111828 19.015278,14.181338 C 18.955815,14.250849 18.939498,14.342041 18.918405,14.413834 C 18.897311,14.485627 18.8713,14.540879 18.840906,14.588207 C 18.810512,14.635533 18.787498,14.682425 18.705283,14.704454 C 18.622422,14.726658 18.578667,14.709442 18.530911,14.685079 C 18.483156,14.660717 18.427722,14.61876 18.375914,14.568831 C 18.324106,14.518902 18.267346,14.462347 18.182168,14.433209 C 18.096989,14.40407 17.998535,14.41019 17.891547,14.471958 C 17.784265,14.533898 17.714766,14.61542 17.697801,14.704454 C 17.696589,14.710814 17.698428,14.717352 17.697801,14.723829 C 17.466944,14.697323 17.213434,14.665705 17.213434,14.665705 C 17.206993,14.66503 17.200499,14.66503 17.194059,14.665705 C 17.187619,14.66503 17.181125,14.66503 17.174684,14.665705 C 17.167306,14.671171 17.160776,14.6777 17.15531,14.685079 C 17.148869,14.684405 17.142375,14.684405 17.135935,14.685079 C 17.128556,14.690546 17.122027,14.697075 17.11656,14.704454 C 17.115886,14.710894 17.115886,14.717388 17.11656,14.723829 C 17.109181,14.729295 17.102652,14.735825 17.097186,14.743203 C 17.096511,14.749644 17.096511,14.756138 17.097186,14.762578 L 17.097186,15.324444 C 17.08402,15.32513 17.071332,15.322056 17.058436,15.324444 C 16.968166,15.341162 16.888188,15.410374 16.82594,15.518191 C 16.763686,15.626019 16.755999,15.722523 16.787191,15.808811 C 16.818383,15.895098 16.870503,15.967744 16.922814,16.021932 C 16.975125,16.07612 17.032254,16.126912 17.058436,16.17693 C 17.084618,16.226946 17.080414,16.269281 17.058436,16.351302 C 17.036455,16.433338 17.008081,16.458385 16.961563,16.486924 C 16.915045,16.515463 16.858921,16.545807 16.787191,16.564423 C 16.715461,16.583039 16.625288,16.603491 16.554695,16.661296 C 16.484102,16.7191 16.438447,16.808216 16.438447,16.932541 C 16.438447,17.056867 16.485185,17.163698 16.554695,17.223162 C 16.624205,17.282625 16.715398,17.298941 16.787191,17.320035 C 16.858984,17.341128 16.914236,17.36714 16.961563,17.397534 C 17.008889,17.427927 17.036407,17.450942 17.058436,17.533156 C 17.080414,17.615177 17.084618,17.676887 17.058436,17.726903 C 17.032254,17.776919 16.975125,17.827712 16.922814,17.881901 C 16.870503,17.936088 16.818383,17.98936 16.787191,18.075647 C 16.755999,18.161934 16.763685,18.277814 16.82594,18.385642 C 16.888366,18.493766 16.967371,18.545706 17.058436,18.560014 C 17.071446,18.562058 17.084,18.55942 17.097186,18.560014 L 17.097186,18.928133 C 17.096511,18.934573 17.096511,18.941066 17.097186,18.947507 C 17.102652,18.954886 17.109181,18.961415 17.11656,18.966882 C 17.115886,18.973322 17.115886,18.979816 17.11656,18.986257 C 17.122027,18.993636 17.128556,19.000165 17.135935,19.005631 C 17.142375,19.006306 17.148869,19.006306 17.15531,19.005631 C 17.160776,19.01301 17.167306,19.019539 17.174684,19.025006 C 17.174684,19.025006 17.428769,19.053693 17.697801,19.08313 C 17.697704,19.115733 17.691588,19.146457 17.697801,19.180003 C 17.714519,19.270274 17.78373,19.350251 17.891547,19.4125 C 17.999067,19.474576 18.096933,19.502372 18.182168,19.470624 C 18.267402,19.438875 18.324192,19.367931 18.375914,19.315626 C 18.427636,19.263322 18.483198,19.225052 18.530911,19.199378 C 18.578625,19.173703 18.623085,19.157978 18.705283,19.180003 C 18.787498,19.202033 18.810512,19.22955 18.840906,19.276877 C 18.8713,19.324203 18.897311,19.39883 18.918405,19.470624 C 18.939498,19.542416 18.955815,19.614235 19.015278,19.683744 C 19.074742,19.753255 19.181573,19.799993 19.305898,19.799993 C 19.430224,19.799993 19.537055,19.753255 19.596519,19.683744 C 19.655982,19.614235 19.672298,19.542416 19.693392,19.470624 C 19.714485,19.39883 19.740497,19.324203 19.770891,19.276877 C 19.801284,19.22955 19.824299,19.202032 19.906513,19.180003 C 19.988711,19.157979 20.033171,19.173703 20.080885,19.199378 C 20.128599,19.225052 20.18416,19.263322 20.235882,19.315626 C 20.287604,19.367931 20.344395,19.438875 20.42963,19.470624 C 20.514864,19.502372 20.612729,19.474575 20.720249,19.4125 C 20.828066,19.350252 20.897278,19.270274 20.913997,19.180003 C 20.920209,19.146457 20.914093,19.115733 20.913997,19.08313 C 21.183027,19.053693 21.437112,19.025006 21.437112,19.025006 C 21.444491,19.019539 21.45102,19.01301 21.456486,19.005631 C 21.462927,19.006306 21.469421,19.006306 21.475862,19.005631 C 21.483241,19.000165 21.48977,18.993636 21.495236,18.986257 C 21.495911,18.979816 21.495911,18.973322 21.495236,18.966882 C 21.502615,18.961415 21.509144,18.954886 21.51461,18.947507 C 21.515285,18.941066 21.515285,18.934573 21.51461,18.928133 L 21.51461,18.560014 C 21.527797,18.55942 21.540351,18.562058 21.55336,18.560014 C 21.644425,18.545706 21.723431,18.493766 21.785856,18.385642 C 21.848111,18.277814 21.855798,18.161934 21.824605,18.075647 C 21.793413,17.98936 21.741295,17.936088 21.688983,17.881901 C 21.636671,17.827712 21.579542,17.776919 21.55336,17.726903 C 21.527178,17.676887 21.531383,17.615176 21.55336,17.533156 C 21.57539,17.450942 21.602907,17.427927 21.650234,17.397534 C 21.69756,17.36714 21.752813,17.341129 21.824605,17.320035 C 21.896398,17.298941 21.987592,17.282625 22.057101,17.223162 C 22.126612,17.163698 22.173349,17.056867 22.173349,16.932541 C 22.173349,16.808216 22.127695,16.7191 22.057101,16.661296 C 21.986508,16.603491 21.896336,16.58304 21.824605,16.564423 C 21.752875,16.545806 21.696752,16.515463 21.650234,16.486924 C 21.603715,16.458385 21.575342,16.433338 21.55336,16.351302 C 21.531383,16.269281 21.527178,16.226946 21.55336,16.17693 C 21.579542,16.126912 21.636671,16.07612 21.688983,16.021932 C 21.741295,15.967744 21.793413,15.895098 21.824605,15.808811 C 21.855798,15.722523 21.848111,15.626018 21.785856,15.518191 C 21.723609,15.410374 21.643631,15.341162 21.55336,15.324444 C 21.540464,15.322056 21.527777,15.32513 21.51461,15.324444 L 21.51461,14.762578 C 21.515285,14.756138 21.515285,14.749644 21.51461,14.743203 C 21.509144,14.735825 21.502615,14.729295 21.495236,14.723829 C 21.495911,14.717388 21.495911,14.710894 21.495236,14.704454 C 21.48977,14.697075 21.483241,14.690546 21.475862,14.685079 C 21.469421,14.684405 21.462927,14.684405 21.456486,14.685079 C 21.45102,14.6777 21.444491,14.671171 21.437112,14.665705 C 21.430671,14.66503 21.424179,14.66503 21.417738,14.665705 C 21.411297,14.66503 21.404803,14.66503 21.398363,14.665705 C 21.398363,14.665705 21.144852,14.697323 20.913997,14.723829 C 20.913368,14.717352 20.915208,14.710814 20.913997,14.704454 C 20.89703,14.61542 20.827533,14.533898 20.720249,14.471958 C 20.613262,14.41019 20.514808,14.40407 20.42963,14.433209 C 20.344451,14.462347 20.28769,14.518902 20.235882,14.568831 C 20.184074,14.61876 20.128641,14.660717 20.080885,14.685079 C 20.03313,14.709442 19.989375,14.726658 19.906513,14.704454 C 19.824299,14.682426 19.801284,14.635532 19.770891,14.588207 C 19.740497,14.54088 19.714485,14.485627 19.693392,14.413834 C 19.672298,14.342041 19.655982,14.250849 19.596519,14.181338 C 19.537055,14.111828 19.430224,14.06509 19.305898,14.06509 z M 19.305898,14.258837 C 19.39274,14.258837 19.416149,14.287302 19.441521,14.316961 C 19.466893,14.346619 19.498588,14.383042 19.51902,14.452583 C 19.539452,14.522124 19.545675,14.60591 19.596519,14.685079 C 19.62194,14.724664 19.66653,14.766865 19.712767,14.801327 C 19.577688,14.805972 19.443394,14.820702 19.305898,14.820702 C 19.168403,14.820702 19.034109,14.805972 18.89903,14.801327 C 18.945266,14.766865 18.989857,14.724664 19.015278,14.685079 C 19.066121,14.60591 19.072346,14.522124 19.092777,14.452583 C 19.113209,14.383042 19.144904,14.34662 19.170276,14.316961 C 19.195647,14.287302 19.219057,14.258837 19.305898,14.258837 z M 18.06592,14.588207 C 18.090894,14.587372 18.106887,14.601712 18.124044,14.607581 C 18.158355,14.619319 18.190221,14.6562 18.240292,14.704454 C 18.269864,14.732954 18.317097,14.755565 18.35654,14.781953 C 18.183579,14.769639 18.016275,14.757439 17.872173,14.743203 C 17.879162,14.706526 17.893453,14.6706 17.969046,14.626955 C 18.00699,14.605048 18.040945,14.58904 18.06592,14.588207 z M 20.545877,14.588207 C 20.570852,14.58904 20.604807,14.605048 20.642751,14.626955 C 20.718343,14.670599 20.732635,14.706526 20.739624,14.743203 C 20.595521,14.757439 20.428217,14.769639 20.255258,14.781953 C 20.294699,14.755565 20.341934,14.732954 20.371506,14.704454 C 20.421576,14.6562 20.453441,14.619319 20.487754,14.607581 C 20.504909,14.601712 20.520903,14.587372 20.545877,14.588207 z M 17.290932,14.859452 C 17.396806,14.874301 18.298828,15.014449 19.305898,15.014449 C 20.312968,15.014449 21.214992,14.874301 21.320864,14.859452 L 21.320864,18.831259 C 21.247627,18.841586 20.314325,18.986257 19.305898,18.986257 C 18.297471,18.986257 17.364169,18.841586 17.290932,18.831259 L 17.290932,14.859452 z M 17.562178,15.072573 C 17.561503,15.079013 17.561503,15.085507 17.562178,15.091948 C 17.555738,15.091273 17.549244,15.091273 17.542803,15.091948 C 17.535424,15.097414 17.528895,15.103943 17.523429,15.111322 C 17.522754,15.117763 17.522754,15.124257 17.523429,15.130697 C 17.51605,15.136164 17.50952,15.142693 17.504054,15.150072 C 17.503379,15.156512 17.503379,15.163006 17.504054,15.169446 L 17.504054,18.521264 C 17.503379,18.527705 17.503379,18.534199 17.504054,18.54064 C 17.50952,18.548018 17.51605,18.554548 17.523429,18.560014 C 17.522754,18.566455 17.522754,18.572948 17.523429,18.579388 C 17.528895,18.586767 17.535424,18.593297 17.542803,18.598763 C 17.549244,18.599438 17.555738,18.599438 17.562178,18.598763 C 17.567645,18.606143 17.574174,18.612671 17.581553,18.618138 C 17.581553,18.618138 18.442355,18.773135 19.305898,18.773135 C 20.169442,18.773135 21.030244,18.618138 21.030244,18.618138 C 21.037624,18.612671 21.044152,18.606143 21.049619,18.598763 C 21.05606,18.599438 21.062552,18.599438 21.068993,18.598763 C 21.076372,18.593297 21.082902,18.586767 21.088368,18.579388 C 21.089043,18.572948 21.089043,18.566455 21.088368,18.560014 C 21.095748,18.554548 21.102276,18.548018 21.107743,18.54064 C 21.108417,18.534199 21.108417,18.527705 21.107743,18.521264 L 21.107743,15.169446 C 21.108417,15.163006 21.108417,15.156512 21.107743,15.150072 C 21.102276,15.142693 21.095748,15.136164 21.088368,15.130697 C 21.089043,15.124257 21.089043,15.117763 21.088368,15.111322 C 21.082902,15.103943 21.076372,15.097414 21.068993,15.091948 C 21.062552,15.091273 21.05606,15.091273 21.049619,15.091948 C 21.044152,15.084569 21.037624,15.07804 21.030244,15.072573 C 21.023804,15.071898 21.01731,15.071898 21.010869,15.072573 C 21.004428,15.071898 20.997936,15.071898 20.991495,15.072573 C 20.991495,15.072573 20.147326,15.22757 19.305898,15.22757 C 18.464471,15.22757 17.620301,15.072573 17.620301,15.072573 C 17.613862,15.071898 17.607368,15.071898 17.600927,15.072573 C 17.594486,15.071898 17.587993,15.071898 17.581553,15.072573 C 17.575112,15.071898 17.568618,15.071898 17.562178,15.072573 z M 17.872173,15.305069 C 18.021905,15.328598 18.241264,15.374375 18.608411,15.401942 C 18.599992,15.405671 18.59738,15.417455 18.589035,15.421317 L 18.453413,15.401942 L 18.434038,15.401942 L 18.395289,15.421317 C 18.357062,15.445621 18.321463,15.46625 18.27904,15.498816 L 18.240292,15.537565 L 18.240292,15.576315 L 18.240292,15.634439 C 17.990004,15.839482 17.796055,16.111725 17.697801,16.4288 L 17.697801,15.498816 C 17.730227,15.484207 17.762998,15.472368 17.794674,15.440692 C 17.836007,15.399359 17.853655,15.350487 17.872173,15.305069 z M 20.739624,15.305069 C 20.758141,15.350487 20.775791,15.399359 20.817123,15.440692 C 20.848799,15.472368 20.881569,15.484207 20.913997,15.498816 L 20.913997,16.4288 C 20.82955,16.156285 20.668217,15.924178 20.468378,15.731311 L 20.526502,15.673187 L 20.449004,15.595689 C 20.385055,15.53602 20.328922,15.490344 20.255258,15.440692 C 20.255115,15.440596 20.24073,15.443208 20.235882,15.440692 C 20.231036,15.438175 20.236045,15.421379 20.235882,15.421317 C 20.235557,15.421192 20.221741,15.422278 20.216508,15.421317 L 20.197133,15.421317 C 20.185238,15.421973 20.179649,15.420929 20.177758,15.421317 L 20.061511,15.421317 C 20.04228,15.411898 20.023031,15.410645 20.003387,15.401942 C 20.370532,15.374375 20.589892,15.328598 20.739624,15.305069 z M 19.305898,15.440692 C 19.461802,15.440692 19.61087,15.474983 19.751515,15.518191 L 18.976529,16.467549 L 18.976529,15.537565 L 18.976529,15.479441 C 19.080094,15.457146 19.195099,15.440692 19.305898,15.440692 z M 17.097186,15.518191 L 17.097186,15.944433 C 17.082589,15.927437 17.072675,15.901059 17.058436,15.886309 C 17.007721,15.833775 16.974879,15.787523 16.961563,15.750687 C 16.948247,15.71385 16.937608,15.690111 16.980938,15.615063 C 17.024273,15.540004 17.058113,15.525427 17.097186,15.518191 z M 21.51461,15.518191 C 21.553684,15.525427 21.587523,15.540004 21.630859,15.615063 C 21.674188,15.690111 21.663549,15.71385 21.650234,15.750687 C 21.636918,15.787523 21.604076,15.833774 21.55336,15.886309 C 21.539121,15.901059 21.529208,15.927437 21.51461,15.944433 L 21.51461,15.518191 z M 18.627785,15.615063 L 18.782783,15.634439 L 18.782783,16.738795 L 18.782783,17.01004 L 18.957154,16.796919 L 19.906513,15.634439 L 20.022761,15.634439 C 20.089009,15.670933 20.15706,15.704879 20.216508,15.750687 L 19.422146,16.700045 L 19.383397,16.758169 L 19.422146,16.816293 L 20.216508,18.017523 C 20.10969,18.097581 19.981622,18.161225 19.848389,18.21127 L 19.18965,17.145663 L 19.131526,17.048789 L 19.034653,17.145663 L 18.802157,17.436282 L 18.782783,17.455658 L 18.782783,17.494407 L 18.782783,18.21127 C 18.656864,18.168418 18.53697,18.129831 18.434038,18.056273 L 18.434038,15.731311 C 18.495187,15.686904 18.559934,15.649867 18.627785,15.615063 z M 18.240292,15.866935 L 18.240292,17.998149 C 17.971094,17.724278 17.814049,17.348284 17.814049,16.932541 C 17.814049,16.516798 17.971265,16.135962 18.240292,15.866935 z M 20.35213,15.866935 C 20.627542,16.136729 20.797748,16.511255 20.797748,16.932541 C 20.797748,17.327703 20.656216,17.689459 20.410254,17.959399 L 19.615893,16.758169 L 20.35213,15.866935 z M 17.097186,16.622547 L 17.097186,17.281286 C 17.08356,17.2699 17.072574,17.251616 17.058436,17.242536 C 16.979267,17.191693 16.89548,17.166095 16.82594,17.145663 C 16.7564,17.125231 16.700602,17.112911 16.670943,17.087539 C 16.641285,17.062167 16.632193,17.019384 16.632193,16.932541 C 16.632193,16.845701 16.642368,16.820317 16.670943,16.796919 C 16.699519,16.77352 16.756337,16.756859 16.82594,16.738795 C 16.895544,16.72073 16.978459,16.710362 17.058436,16.661296 C 17.071708,16.653154 17.084447,16.63443 17.097186,16.622547 z M 21.51461,16.622547 C 21.527349,16.63443 21.54009,16.653154 21.55336,16.661296 C 21.633338,16.710362 21.716252,16.72073 21.785856,16.738795 C 21.85546,16.75686 21.912279,16.77352 21.940853,16.796919 C 21.969429,16.820317 21.979603,16.845701 21.979603,16.932541 C 21.979603,17.019383 21.970512,17.062167 21.940853,17.087539 C 21.911195,17.112911 21.855397,17.125231 21.785856,17.145663 C 21.716316,17.166095 21.632529,17.191693 21.55336,17.242536 C 21.539223,17.251616 21.528237,17.2699 21.51461,17.281286 L 21.51461,16.622547 z M 19.092777,17.378158 L 19.712767,18.385642 C 19.584724,18.421769 19.445884,18.443766 19.305898,18.443766 C 19.19528,18.443766 19.079999,18.427907 18.976529,18.405016 L 18.976529,18.366267 L 18.976529,17.533156 L 19.092777,17.378158 z M 17.697801,17.397534 C 17.856689,17.960553 18.28115,18.397277 18.840906,18.560014 C 18.309939,18.527433 17.92909,18.468067 17.794674,18.443766 C 17.763715,18.412807 17.729928,18.385143 17.697801,18.366267 L 17.697801,17.397534 z M 20.913997,17.397534 L 20.913997,18.366267 C 20.881869,18.385143 20.848082,18.412806 20.817123,18.443766 C 20.682707,18.468067 20.301859,18.527433 19.770891,18.560014 C 20.330646,18.397277 20.755108,17.960553 20.913997,17.397534 z M 17.097186,17.940025 L 17.097186,18.385642 C 17.058907,18.379627 17.024096,18.36352 16.980938,18.288768 C 16.937609,18.21372 16.948247,18.170608 16.961563,18.133771 C 16.974879,18.096935 17.007721,18.050682 17.058436,17.998149 C 17.072675,17.983399 17.082589,17.957021 17.097186,17.940025 z M 21.51461,17.940025 C 21.529208,17.957021 21.539121,17.983399 21.55336,17.998149 C 21.604076,18.050683 21.636918,18.096935 21.650234,18.133771 C 21.663549,18.170608 21.674188,18.21372 21.630859,18.288768 C 21.587701,18.36352 21.55289,18.379627 21.51461,18.385642 L 21.51461,17.940025 z M 17.872173,19.102505 C 17.990981,19.113809 18.141492,19.131096 18.27904,19.141254 C 18.266647,19.153524 18.251334,19.168837 18.240292,19.180003 C 18.190134,19.230725 18.1583,19.283491 18.124044,19.296251 C 18.089787,19.309011 18.044402,19.301009 17.969046,19.257502 C 17.893987,19.214166 17.879409,19.180327 17.872173,19.141254 C 17.870396,19.13166 17.871391,19.11374 17.872173,19.102505 z M 20.739624,19.102505 C 20.740406,19.11374 20.7414,19.13166 20.739624,19.141254 C 20.732387,19.180327 20.71781,19.214166 20.642751,19.257502 C 20.567396,19.301009 20.522009,19.309011 20.487754,19.296251 C 20.453497,19.283491 20.421662,19.230725 20.371506,19.180003 C 20.360463,19.168837 20.345149,19.153524 20.332756,19.141254 C 20.470305,19.131096 20.620817,19.113809 20.739624,19.102505 z M 19.015278,19.180003 C 19.114194,19.182469 19.206132,19.180003 19.305898,19.180003 C 19.405666,19.180003 19.497603,19.182469 19.596519,19.180003 C 19.545675,19.259172 19.539452,19.342958 19.51902,19.4125 C 19.498588,19.482041 19.466893,19.537838 19.441521,19.567496 C 19.416149,19.597155 19.39274,19.606246 19.305898,19.606246 C 19.219057,19.606246 19.195647,19.597155 19.170276,19.567496 C 19.144904,19.537838 19.113209,19.48204 19.092777,19.4125 C 19.072346,19.342959 19.066121,19.259172 19.015278,19.180003 z"
       id="path2310" />
    <path
       sodipodi:type="arc"
       style="opacity:0.5;fill:#000000;fill-opacity:1;fill-rule:nonzero;stroke:none;stroke-width:0.5;stroke-linecap:round;stroke-linejoin:round;stroke-miterlimit:4;stroke-dasharray:none;stroke-opacity:1"
       id="path4698"
       sodipodi:cx="19.364162"
       sodipodi:cy="11.213873"
       sodipodi:rx="4.9710984"
       sodipodi:ry="2.8901734"
       d="M 24.335261,11.213873 A 4.9710984,2.8901734 0 1 1 14.393064,11.213873 A 4.9710984,2.8901734 0 1 1 24.335261,11.213873 z"
       transform="matrix(0.4116264,0,0,0.2168285,11.393328,4.2597075)" />
    <path
       sodipodi:nodetypes="csscscssc"
       id="path4708"
       d="M 19.375,3.875 C 18.86768,3.875 18.437501,4.2462395 18.4375,4.6875 C 18.4375,4.8220844 18.4375,5.8495743 18.4375,5.90625 C 18.4375,6.0390186 18.169613,6.3149095 18,6.34375 C 18.068383,6.5626977 18.64226,6.7500001 19.375,6.75 C 20.110812,6.75 20.685836,6.5640135 20.75,6.34375 C 20.56161,6.3115716 20.28125,6.0320092 20.28125,5.90625 C 20.28125,5.829878 20.28125,4.8271022 20.28125,4.6875 C 20.28125,4.2462397 19.88232,3.8749998 19.375,3.875 z"
       style="opacity:0.8;fill:url(#radialGradient4710);fill-opacity:1;fill-rule:nonzero;stroke:none;stroke-width:0.5;stroke-linecap:round;stroke-linejoin:round;stroke-miterlimit:4;stroke-dasharray:none;stroke-opacity:1" />
    <path
       style="fill:#000000;fill-opacity:1;fill-rule:nonzero;stroke:none;stroke-width:1px;stroke-linecap:butt;stroke-linejoin:miter;stroke-opacity:1"
       id="path2758"
       d="M 4.7598466,12.866642 C 4.7437824,12.882329 4.7277182,12.898016 4.711654,12.913704 L 4.6879698,12.923516 C 4.7026642,12.908406 4.7173585,12.893297 4.7320528,12.878187 L 4.7598466,12.866642 z" />
    <path
       style="opacity:0.5;fill:url(#radialGradient3599);fill-opacity:1;fill-rule:nonzero;stroke:none;stroke-width:0.5;stroke-linecap:round;stroke-linejoin:round;stroke-miterlimit:4;stroke-dasharray:none;stroke-opacity:1"
       d="M 17.5,6.4375 C 15.970808,6.8029783 14.822757,7.5970809 14.5,8.5625 C 14.504136,8.571192 14.495583,8.585098 14.5,8.59375 C 14.963788,9.50221 16.973959,10.1875 19.375,10.1875 C 21.776041,10.1875 23.754962,9.50221 24.21875,8.59375 C 24.223167,8.585098 24.214614,8.571192 24.21875,8.5625 C 23.894266,7.5919168 22.751215,6.800271 21.21875,6.4375 C 21.340069,6.5117467 21.40625,6.5951894 21.40625,6.6875 C 21.40625,7.0334231 20.504522,7.3125 19.375,7.3125 C 18.245478,7.3125004 17.3125,7.0334229 17.3125,6.6875 C 17.3125,6.5951894 17.378681,6.5117467 17.5,6.4375 z"
       id="path3594" />
    <path
       id="path3613"
       d="M 17.5,6.4375 C 15.970808,6.8029783 14.822757,7.5970809 14.5,8.5625 C 14.504136,8.571192 14.495583,8.585098 14.5,8.59375 C 14.963788,9.50221 16.973959,10.1875 19.375,10.1875 C 21.776041,10.1875 23.754962,9.50221 24.21875,8.59375 C 24.223167,8.585098 24.214614,8.571192 24.21875,8.5625 C 23.894266,7.5919168 22.751215,6.800271 21.21875,6.4375 C 21.340069,6.5117467 21.40625,6.5951894 21.40625,6.6875 C 21.40625,7.0334231 20.504522,7.3125 19.375,7.3125 C 18.245478,7.3125004 17.3125,7.0334229 17.3125,6.6875 C 17.3125,6.5951894 17.378681,6.5117467 17.5,6.4375 z"
       style="opacity:0.75;fill:url(#radialGradient3615);fill-opacity:1;fill-rule:nonzero;stroke:none;stroke-width:0.5;stroke-linecap:round;stroke-linejoin:round;stroke-miterlimit:4;stroke-dasharray:none;stroke-opacity:1" />
    <path
       style="opacity:0.27868856;fill:url(#linearGradient3637);fill-opacity:1;fill-rule:nonzero;stroke:none;stroke-width:0.5;stroke-linecap:round;stroke-linejoin:round;stroke-miterlimit:4;stroke-dasharray:none;stroke-opacity:1"
       d="M 17.53125,6.40625 C 15.699074,6.8279035 14.40625,7.8767376 14.40625,9.09375 C 14.40625,9.248959 14.40625,11.077942 14.40625,11.90625 C 14.66097,12.911442 16.802457,13.71875 19.375,13.71875 C 22.119046,13.71875 24.34375,12.81956 24.34375,11.71875 C 24.34375,10.977153 24.34375,9.247786 24.34375,9.09375 C 24.34375,7.8638013 23.019363,6.8191963 21.15625,6.40625 C 21.321528,6.4899468 21.40625,6.5784056 21.40625,6.6875 C 21.40625,7.0334231 20.504522,7.3125 19.375,7.3125 C 18.245478,7.3125004 17.3125,7.0334229 17.3125,6.6875 C 17.3125,6.5846996 17.383104,6.4865548 17.53125,6.40625 z"
       id="path3617" />
    <path
       style="opacity:0.15;fill:url(#radialGradient4022);fill-opacity:1;fill-rule:nonzero;stroke:none;stroke-width:0.5;stroke-linecap:round;stroke-linejoin:round;stroke-miterlimit:4;stroke-dasharray:none;stroke-opacity:1"
       d="M 24.25,8.5625 C 23.828315,9.49201 21.813325,10.1875 19.375,10.1875 C 16.973959,10.1875 14.963788,9.50221 14.5,8.59375 C 14.451174,8.756003 14.40625,8.923091 14.40625,9.09375 C 14.40625,9.248959 14.40625,11.077942 14.40625,11.90625 C 14.66097,12.911442 16.802457,13.71875 19.375,13.71875 C 22.119046,13.71875 24.34375,12.81956 24.34375,11.71875 C 24.34375,10.977153 24.34375,9.247786 24.34375,9.09375 C 24.34375,8.946671 24.318305,8.799378 24.28125,8.65625 C 24.273005,8.62582 24.259872,8.5926 24.25,8.5625 z"
       id="path4014" />
    <rect
       style="opacity:0.61162792;fill:#555753;fill-opacity:1;fill-rule:nonzero;stroke:none;stroke-width:0.69999999;stroke-linecap:round;stroke-linejoin:miter;stroke-miterlimit:4;stroke-dasharray:none;stroke-opacity:1"
       id="rect1951"
       width="40.001965"
       height="10.004759"
       x="-0.0019644466"
       y="30" />
    <text
       xml:space="preserve"
       style="font-size:12px;font-style:normal;font-weight:normal;fill:#eeeeec;fill-opacity:1;stroke:none;stroke-width:1px;stroke-linecap:butt;stroke-linejoin:miter;stroke-opacity:1;font-family:Bitstream Vera Sans"
       x="13.160234"
       y="39.168156"
       id="text2840"><tspan
         sodipodi:role="line"
         id="tspan2842"
         x="13.160234"
         y="39.168156">Zr</tspan></text>
  </g>
</svg>
