<?xml version="1.0" encoding="UTF-8" standalone="no"?>
<!-- Created with Inkscape (http://www.inkscape.org/) -->
<svg
   xmlns:dc="http://purl.org/dc/elements/1.1/"
   xmlns:cc="http://creativecommons.org/ns#"
   xmlns:rdf="http://www.w3.org/1999/02/22-rdf-syntax-ns#"
   xmlns:svg="http://www.w3.org/2000/svg"
   xmlns="http://www.w3.org/2000/svg"
   xmlns:xlink="http://www.w3.org/1999/xlink"
   xmlns:sodipodi="http://sodipodi.sourceforge.net/DTD/sodipodi-0.dtd"
   xmlns:inkscape="http://www.inkscape.org/namespaces/inkscape"
   width="40"
   height="40"
   id="svg2193"
   sodipodi:version="0.32"
   inkscape:version="0.46"
   version="1.0"
   sodipodi:docbase="/home/jra/Desktop"
   sodipodi:docname="41.svg"
   inkscape:output_extension="org.inkscape.output.svg.inkscape">
  <defs
     id="defs2195">
    <linearGradient
       id="linearGradient3503">
      <stop
         id="stop3505"
         offset="0"
         style="stop-color:#ac4311;stop-opacity:1" />
      <stop
         id="stop3507"
         offset="1"
         style="stop-color:#ac4311;stop-opacity:0;" />
    </linearGradient>
    <linearGradient
       id="linearGradient3589">
      <stop
         style="stop-color:#000000;stop-opacity:1"
         offset="0"
         id="stop3591" />
      <stop
         id="stop3593"
         offset="0.91523224"
         style="stop-color:#ffffff;stop-opacity:1;" />
      <stop
         style="stop-color:#000000;stop-opacity:1;"
         offset="1"
         id="stop3595" />
    </linearGradient>
    <linearGradient
       id="linearGradient3573">
      <stop
         id="stop3575"
         offset="0"
         style="stop-color:#000000;stop-opacity:1" />
      <stop
         style="stop-color:#ffffff;stop-opacity:1;"
         offset="0.91523224"
         id="stop3577" />
      <stop
         id="stop3579"
         offset="1"
         style="stop-color:#000000;stop-opacity:1;" />
    </linearGradient>
    <linearGradient
       id="linearGradient3555">
      <stop
         style="stop-color:#ffffff;stop-opacity:1;"
         offset="0"
         id="stop3557" />
      <stop
         id="stop3559"
         offset="0.83239752"
         style="stop-color:#ffffff;stop-opacity:0.71779144;" />
      <stop
         style="stop-color:#000000;stop-opacity:1"
         offset="1"
         id="stop3561" />
    </linearGradient>
    <linearGradient
       id="linearGradient3539">
      <stop
         id="stop3541"
         offset="0"
         style="stop-color:#ffffff;stop-opacity:1;" />
      <stop
         style="stop-color:#ffffff;stop-opacity:0.71779144;"
         offset="0.5"
         id="stop3543" />
      <stop
         id="stop3545"
         offset="1"
         style="stop-color:#000000;stop-opacity:1" />
    </linearGradient>
    <linearGradient
       id="linearGradient3423">
      <stop
         style="stop-color:#000000;stop-opacity:0;"
         offset="0"
         id="stop3425" />
      <stop
         id="stop3429"
         offset="0.72230786"
         style="stop-color:#000000;stop-opacity:0.17177914;" />
      <stop
         style="stop-color:#000000;stop-opacity:0.98773009;"
         offset="1"
         id="stop3427" />
    </linearGradient>
    <linearGradient
       id="linearGradient3272">
      <stop
         style="stop-color:#000000;stop-opacity:1"
         offset="0"
         id="stop3274" />
      <stop
         id="stop3278"
         offset="0.5"
         style="stop-color:#ffffff;stop-opacity:1;" />
      <stop
         style="stop-color:#000000;stop-opacity:1;"
         offset="1"
         id="stop3276" />
    </linearGradient>
    <linearGradient
       id="linearGradient3239">
      <stop
         style="stop-color:#ffffff;stop-opacity:1;"
         offset="0"
         id="stop3241" />
      <stop
         style="stop-color:#ffffff;stop-opacity:0;"
         offset="1"
         id="stop3243" />
    </linearGradient>
    <linearGradient
       id="linearGradient3220">
      <stop
         id="stop3222"
         offset="0"
         style="stop-color:#000000;stop-opacity:1" />
      <stop
         id="stop3224"
         offset="1"
         style="stop-color:#ffffff;stop-opacity:1;" />
    </linearGradient>
    <linearGradient
       id="linearGradient3291">
      <stop
         id="stop3293"
         offset="0"
         style="stop-color:#000000;stop-opacity:1;" />
      <stop
         id="stop3295"
         offset="1"
         style="stop-color:#000000;stop-opacity:0;" />
    </linearGradient>
    <radialGradient
       inkscape:collect="always"
       xlink:href="#linearGradient3291"
       id="radialGradient2595"
       gradientUnits="userSpaceOnUse"
       gradientTransform="matrix(1,0,0,0.197802,0,92.82166)"
       cx="63.912209"
       cy="115.70919"
       fx="75.857941"
       fy="115.70919"
       r="63.912209" />
    <linearGradient
       inkscape:collect="always"
       xlink:href="#linearGradient3220"
       id="linearGradient4300"
       x1="15.5"
       y1="26.5625"
       x2="-7.375"
       y2="17.6875"
       gradientUnits="userSpaceOnUse" />
    <radialGradient
       inkscape:collect="always"
       xlink:href="#linearGradient3239"
       id="radialGradient4310"
       cx="5.8117342"
       cy="13.978601"
       fx="5.8117342"
       fy="13.978601"
       r="1.7994875"
       gradientTransform="matrix(0.52887,-0.6702771,0.2443276,0.1927822,-1.9139518,13.472278)"
       gradientUnits="userSpaceOnUse" />
    <linearGradient
       inkscape:collect="always"
       xlink:href="#linearGradient3239"
       id="linearGradient2697"
       gradientUnits="userSpaceOnUse"
       x1="15.389969"
       y1="13.350437"
       x2="15.87167"
       y2="20.797153"
       gradientTransform="matrix(0.7981072,0,0,0.7981072,4.1041008,5.2712585)" />
    <radialGradient
       inkscape:collect="always"
       xlink:href="#linearGradient3239"
       id="radialGradient2700"
       gradientUnits="userSpaceOnUse"
       gradientTransform="matrix(-0.9440468,0,0,0.2453148,39.48006,9.188388)"
       cx="22.206522"
       cy="4.3309798"
       fx="22.206522"
       fy="4.3309798"
       r="10.9375" />
    <linearGradient
       inkscape:collect="always"
       xlink:href="#linearGradient3503"
       id="linearGradient2704"
       gradientUnits="userSpaceOnUse"
       x1="19.415199"
       y1="5.09375"
       x2="19.390244"
       y2="9.8125"
       gradientTransform="matrix(0.7981072,0,0,0.7981072,4.1041008,5.2712585)" />
    <radialGradient
       inkscape:collect="always"
       xlink:href="#linearGradient3239"
       id="radialGradient2707"
       gradientUnits="userSpaceOnUse"
       gradientTransform="matrix(-1.0129499,0,0,0.5327128,41.606167,9.1457925)"
       cx="10.376138"
       cy="27.229998"
       fx="10.376138"
       fy="27.229998"
       r="14.859375" />
    <radialGradient
       inkscape:collect="always"
       xlink:href="#linearGradient3589"
       id="radialGradient2711"
       gradientUnits="userSpaceOnUse"
       gradientTransform="matrix(-0.7972321,-3.7364918e-2,-2.6855342e-2,0.5729958,36.949606,10.78954)"
       cx="22.633196"
       cy="15.758337"
       fx="22.633196"
       fy="15.758337"
       r="14.859375" />
    <linearGradient
       inkscape:collect="always"
       xlink:href="#linearGradient3272"
       id="linearGradient2715"
       gradientUnits="userSpaceOnUse"
       gradientTransform="matrix(-0.7981072,0,0,0.7981072,36.552147,5.2712585)"
       x1="19.40625"
       y1="10.284647"
       x2="19.40625"
       y2="9.6988678" />
    <radialGradient
       inkscape:collect="always"
       xlink:href="#linearGradient3291"
       id="radialGradient2718"
       gradientUnits="userSpaceOnUse"
       gradientTransform="matrix(-0.7981072,0,0,14.565456,36.552147,-98.414088)"
       cx="16.125"
       cy="7.53125"
       fx="16.125"
       fy="7.53125"
       r="0.125" />
    <radialGradient
       inkscape:collect="always"
       xlink:href="#linearGradient3239"
       id="radialGradient2721"
       gradientUnits="userSpaceOnUse"
       gradientTransform="matrix(-1.1124386,0,0,0.3601365,42.380784,8.6870257)"
       cx="19.8125"
       cy="11.66186"
       fx="19.8125"
       fy="11.66186"
       r="10.15625" />
    <radialGradient
       inkscape:collect="always"
       xlink:href="#linearGradient3220"
       id="radialGradient2724"
       gradientUnits="userSpaceOnUse"
       gradientTransform="matrix(-1.1124386,0,0,0.3601365,42.779838,8.4376172)"
       cx="15.597544"
       cy="10.207529"
       fx="15.597544"
       fy="10.207529"
       r="10.15625" />
    <radialGradient
       inkscape:collect="always"
       xlink:href="#linearGradient3291"
       id="radialGradient2727"
       gradientUnits="userSpaceOnUse"
       gradientTransform="matrix(-1.1124386,0,0,0.3601365,42.779838,8.437617)"
       cx="19.8125"
       cy="11.66186"
       fx="19.8125"
       fy="11.66186"
       r="10.15625" />
    <radialGradient
       inkscape:collect="always"
       xlink:href="#linearGradient3239"
       id="radialGradient2730"
       gradientUnits="userSpaceOnUse"
       gradientTransform="matrix(-2.257503,0,0,0.8092523,64.873546,3.3071741)"
       cx="19.40625"
       cy="11.707205"
       fx="19.40625"
       fy="11.707205"
       r="10.9375" />
    <radialGradient
       inkscape:collect="always"
       xlink:href="#linearGradient3423"
       id="radialGradient2733"
       gradientUnits="userSpaceOnUse"
       gradientTransform="matrix(-0.9440468,0,0,0.3710835,39.48006,7.612943)"
       cx="20.749395"
       cy="12.526517"
       fx="20.749395"
       fy="12.526517"
       r="10.9375" />
    <linearGradient
       inkscape:collect="always"
       xlink:href="#linearGradient3272"
       id="linearGradient2736"
       gradientUnits="userSpaceOnUse"
       gradientTransform="matrix(-0.7981072,0,0,0.7981072,36.552147,5.2712585)"
       x1="17.375"
       y1="7.84375"
       x2="17.375"
       y2="7.0050364" />
    <linearGradient
       inkscape:collect="always"
       xlink:href="#linearGradient3272"
       id="linearGradient2739"
       gradientUnits="userSpaceOnUse"
       gradientTransform="matrix(-0.7981072,0,0,0.7981072,36.552147,5.2712585)"
       x1="16.913744"
       y1="8.8877802"
       x2="17.71875"
       y2="8.8877802" />
    <linearGradient
       inkscape:collect="always"
       xlink:href="#linearGradient3272"
       id="linearGradient2743"
       gradientUnits="userSpaceOnUse"
       gradientTransform="matrix(-0.7981072,0,0,0.7981072,36.552147,5.2712585)"
       x1="23.384157"
       y1="8.1326466"
       x2="23.384157"
       y2="6.5157208" />
    <linearGradient
       inkscape:collect="always"
       xlink:href="#linearGradient3272"
       id="linearGradient2746"
       gradientUnits="userSpaceOnUse"
       gradientTransform="matrix(0.7981072,0,0,0.7981072,-36.552147,5.2712585)"
       x1="18.05298"
       y1="8.6639719"
       x2="18.05298"
       y2="5.6115723" />
    <linearGradient
       inkscape:collect="always"
       xlink:href="#linearGradient3291"
       id="linearGradient2749"
       gradientUnits="userSpaceOnUse"
       gradientTransform="matrix(-0.7981072,0,0,0.7981072,36.552147,5.2712585)"
       x1="26.65625"
       y1="7.640625"
       x2="29.3125"
       y2="7.640625" />
    <linearGradient
       inkscape:collect="always"
       xlink:href="#linearGradient3272"
       id="linearGradient2755"
       gradientUnits="userSpaceOnUse"
       gradientTransform="matrix(-0.7981072,0,0,0.7981072,36.552147,5.2712585)"
       x1="27.53125"
       y1="5.0917702"
       x2="27.53125"
       y2="9.4068146" />
    <radialGradient
       inkscape:collect="always"
       xlink:href="#linearGradient3555"
       id="radialGradient2758"
       gradientUnits="userSpaceOnUse"
       gradientTransform="matrix(-0.9132731,-3.4232056e-3,-2.5449696e-3,0.6789695,38.111648,8.6719458)"
       cx="20.237244"
       cy="15.845629"
       fx="20.237244"
       fy="15.845629"
       r="13.859375" />
    <radialGradient
       inkscape:collect="always"
       xlink:href="#linearGradient3573"
       id="radialGradient2761"
       gradientUnits="userSpaceOnUse"
       gradientTransform="matrix(-0.8550666,-1.144848e-2,-8.1271336e-3,0.6070011,35.930433,9.5617776)"
       cx="18.380518"
       cy="16.32135"
       fx="18.380518"
       fy="16.32135"
       r="14.859375" />
    <linearGradient
       inkscape:collect="always"
       xlink:href="#linearGradient3503"
       id="linearGradient2766"
       gradientUnits="userSpaceOnUse"
       x1="20.609743"
       y1="14.5"
       x2="20.564432"
       y2="4.0999966"
       gradientTransform="matrix(0.7981072,0,0,0.7981072,4.1041008,5.2712585)" />
    <linearGradient
       inkscape:collect="always"
       xlink:href="#linearGradient3220"
       id="linearGradient3496"
       x1="10.777284"
       y1="22.956415"
       x2="18.23517"
       y2="19.506414"
       gradientUnits="userSpaceOnUse" />
    <linearGradient
       inkscape:collect="always"
       xlink:href="#linearGradient3539"
       id="linearGradient3512"
       x1="20.96875"
       y1="12.15625"
       x2="20.96875"
       y2="13.65625"
       gradientUnits="userSpaceOnUse" />
    <radialGradient
       inkscape:collect="always"
       xlink:href="#linearGradient3239"
       id="radialGradient3516"
       gradientUnits="userSpaceOnUse"
       gradientTransform="matrix(-0.9440468,0,0,0.2453148,39.48006,9.188388)"
       cx="17.47291"
       cy="14.776742"
       fx="17.47291"
       fy="14.776742"
       r="10.9375" />
  </defs>
  <sodipodi:namedview
     id="base"
     pagecolor="#ffffff"
     bordercolor="#666666"
     borderopacity="1.0"
     inkscape:pageopacity="0.0"
     inkscape:pageshadow="2"
     inkscape:zoom="11.313708"
     inkscape:cx="23.044333"
     inkscape:cy="11.820551"
     inkscape:current-layer="layer1"
     showgrid="false"
     inkscape:grid-bbox="false"
     inkscape:document-units="px"
     width="40px"
     height="40px"
     inkscape:window-width="1550"
     inkscape:window-height="1053"
     inkscape:window-x="351"
     inkscape:window-y="47">
    <inkscape:grid
       id="GridFromPre046Settings"
       type="xygrid"
       originx="0px"
       originy="0px"
       spacingx="1px"
       spacingy="1px"
       color="#0000ff"
       empcolor="#0000ff"
       opacity="0.2"
       empopacity="0.4"
       empspacing="2"
       visible="true"
       enabled="true" />
  </sodipodi:namedview>
  <metadata
     id="metadata2198">
    <rdf:RDF>
      <cc:Work
         rdf:about="">
        <dc:format>image/svg+xml</dc:format>
        <dc:type
           rdf:resource="http://purl.org/dc/dcmitype/StillImage" />
        <dc:creator>
          <cc:Agent>
            <dc:title>Jarle Akselsen</dc:title>
          </cc:Agent>
        </dc:creator>
        <cc:license
           rdf:resource="http://creativecommons.org/licenses/GPL/2.0/" />
      </cc:Work>
      <cc:License
         rdf:about="http://creativecommons.org/licenses/GPL/2.0/">
        <cc:permits
           rdf:resource="http://web.resource.org/cc/Reproduction" />
        <cc:permits
           rdf:resource="http://web.resource.org/cc/Distribution" />
        <cc:requires
           rdf:resource="http://web.resource.org/cc/Notice" />
        <cc:permits
           rdf:resource="http://web.resource.org/cc/DerivativeWorks" />
        <cc:requires
           rdf:resource="http://web.resource.org/cc/ShareAlike" />
        <cc:requires
           rdf:resource="http://web.resource.org/cc/SourceCode" />
      </cc:License>
    </rdf:RDF>
  </metadata>
  <g
     id="layer1"
     inkscape:label="Layer 1"
     inkscape:groupmode="layer">
    <path
       sodipodi:nodetypes="cccc"
       id="path3514"
       d="M 22.042694,8.746411 C 25.496801,8.746411 27.782034,9.835032 29.793176,13.651384 L 12.334581,13.651384 C 13.222213,8.135966 14.011498,8.746411 22.042694,8.746411 z"
       style="opacity:0.34999999999999998;fill:url(#radialGradient3516);fill-opacity:1;stroke:none;stroke-width:1;stroke-linecap:round;stroke-linejoin:round;stroke-miterlimit:4;stroke-opacity:1" />
    <path
       style="opacity:0.2661597;fill:url(#linearGradient3512);fill-opacity:1;fill-rule:nonzero;stroke:none;stroke-width:1;stroke-linecap:butt;stroke-linejoin:miter;marker:none;marker-start:none;marker-mid:none;marker-end:none;stroke-miterlimit:4;stroke-dasharray:none;stroke-dashoffset:0;stroke-opacity:1;visibility:visible;display:inline;overflow:visible;enable-background:accumulate"
       d="M 17.6875,12.546875 L 17.6875,13.65625 L 18,13.65625 L 17.9375,12.578125 L 17.6875,12.546875 z M 15.6875,12.578125 L 15.6875,13.65625 L 17.125,13.65625 L 17.125,13.078125 L 16.75,12.765625 L 16.4375,13.015625 L 16.0625,13.015625 L 15.6875,12.578125 z M 18.8125,12.828125 L 18.8125,13.65625 L 19.125,13.65625 L 19.0625,12.828125 L 18.8125,12.828125 z M 22,12.890625 L 22,13.65625 L 22.3125,13.65625 L 22.25,12.890625 L 22,12.890625 z M 24,12.953125 L 24.0625,13.65625 L 24.34375,13.65625 L 24.3125,12.953125 L 24,12.953125 z M 26,12.953125 L 26.0625,13.65625 L 26.25,13.65625 L 26.25,12.953125 L 26,12.953125 z"
       id="path3500"
       sodipodi:nodetypes="ccccccccccccccccccccccccccccccccc" />
    <path
       transform="matrix(0.206817,0,0,0.7538394,9.08076,-64.817)"
       d="M 127.82442,115.70919 A 63.912209,12.641975 0 1 1 0,115.70919 A 63.912209,12.641975 0 1 1 127.82442,115.70919 z"
       sodipodi:ry="12.641975"
       sodipodi:rx="63.912209"
       sodipodi:cy="115.70919"
       sodipodi:cx="63.912209"
       id="path2593"
       style="opacity:0.38139535;fill:url(#radialGradient2595);fill-opacity:1;fill-rule:nonzero;stroke:none;stroke-width:0;stroke-linecap:round;stroke-linejoin:round;stroke-miterlimit:4;stroke-dasharray:none;stroke-dashoffset:4;stroke-opacity:1"
       sodipodi:type="arc" />
    <path
       style="opacity:1;fill:url(#linearGradient4300);fill-opacity:1;stroke:none;stroke-width:0.40000001000000002;stroke-linecap:round;stroke-linejoin:miter;stroke-miterlimit:4;stroke-dasharray:none;stroke-opacity:1"
       d="M 7.21875 11.25 C 5.3624556 11.25 3.875 12.766092 3.875 14.625 C 3.875 14.625 3.875 36.905636 3.875 39.75 L 4.0625 39.75 L 4.0625 14.625 C 4.0625 12.870062 5.4573946 11.40625 7.21875 11.40625 C 7.21875 11.40625 14.530644 11.40625 15 11.40625 L 15 11.25 L 7.21875 11.25 z "
       id="path4289" />
    <path
       style="opacity:0.35;fill:#000000;fill-opacity:1;stroke:none;stroke-width:0.40000001000000002;stroke-linecap:round;stroke-linejoin:miter;stroke-miterlimit:4;stroke-dasharray:none;stroke-opacity:1"
       d="M 7.21875 11 C 5.2259478 11 3.625 12.632198 3.625 14.625 C 3.6249999 14.625 3.625 37.525616 3.625 40 L 4.3125 40 L 4.3125 14.625 C 4.3125 13.001803 5.5955534 11.65625 7.21875 11.65625 C 7.21875 11.65625 15.25 11.65625 15.25 11.65625 L 15.25 11 L 7.21875 11 z "
       id="path4270" />
    <path
       id="path4302"
       d="M 7.233762,10.992852 C 5.24096,10.992852 3.634787,12.619949 3.634787,14.612751 L 4.304364,14.612751 C 4.304364,12.989554 5.610565,11.662429 7.233762,11.662429 L 7.233762,10.992852 z"
       style="opacity:1;fill:url(#radialGradient4310);fill-opacity:1;stroke:none;stroke-width:0.40000001000000002;stroke-linecap:round;stroke-linejoin:miter;stroke-miterlimit:4;stroke-dasharray:none;stroke-opacity:1" />
    <path
       style="opacity:0.34999999999999998;fill:url(#linearGradient2766);fill-opacity:1.0;stroke:none;stroke-width:1;stroke-linecap:round;stroke-linejoin:round;stroke-miterlimit:4;stroke-opacity:1"
       d="M 22.042694,8.746411 C 25.496801,8.746411 27.782034,9.8350318 29.793176,13.651384 L 12.334581,13.651384 C 13.222213,8.1359656 14.011498,8.746411 22.042694,8.746411 z"
       id="path3831"
       sodipodi:nodetypes="cccc" />
    <path
       style="fill:#ffaa00;fill-opacity:1;stroke:none;stroke-width:1;stroke-linecap:round;stroke-linejoin:round;stroke-miterlimit:4;stroke-opacity:1"
       d="M 29.793176,13.651384 C 31.361194,15.078514 32.187498,17.120505 32.187498,19.761892 C 32.187498,25.350359 26.831591,28.259708 20.315653,27.593319 C 13.929019,26.940156 8.4687496,25.35036 8.4687496,19.761892 C 8.4687496,17.118926 10.012057,15.078622 12.334581,13.651384 L 29.793176,13.651384 z"
       id="path2473" />
    <path
       id="path3344"
       d="M 29.793176,13.651384 C 31.361194,15.078514 32.187498,17.120505 32.187498,19.761892 C 32.187498,25.350359 26.831591,28.259708 20.315653,27.593319 C 13.929019,26.940156 8.4687496,25.35036 8.4687496,19.761892 C 8.4687496,17.118926 10.012057,15.078622 12.334581,13.651384 L 29.793176,13.651384 z"
       style="fill:#555753;fill-opacity:1;stroke:none;stroke-width:1;stroke-linecap:round;stroke-linejoin:round;stroke-miterlimit:4;stroke-opacity:1" />
    <path
       style="fill:url(#radialGradient2761);fill-opacity:1;stroke:none;stroke-width:1;stroke-linecap:round;stroke-linejoin:round;stroke-miterlimit:4;stroke-opacity:1"
       d="M 29.793176,13.651384 C 31.361194,15.078514 32.187498,17.120505 32.187498,19.761892 C 32.187498,25.350359 26.831591,28.259708 20.315653,27.593319 C 13.929019,26.940156 8.4687496,25.35036 8.4687496,19.761892 C 8.4687496,17.118926 10.012057,15.078622 12.334581,13.651384 L 29.793176,13.651384 z M 29.219537,14.025497 L 12.459286,14.025497 C 10.370116,15.347854 9.09227,17.053364 9.0922708,19.337898 C 9.0922708,21.872199 10.196754,23.318616 12.184936,24.40089 C 14.173119,25.483165 17.064869,26.048961 20.21589,26.371218 C 23.334897,26.6902 26.138442,26.14585 28.097198,24.924648 C 30.055955,23.703446 31.214805,21.877167 31.214805,19.337898 C 31.214805,16.973307 30.49306,15.279123 29.219537,14.025497 z"
       id="path3352" />
    <path
       style="opacity:0.75409833;fill:url(#radialGradient2758);fill-opacity:1;stroke:none;stroke-width:1;stroke-linecap:round;stroke-linejoin:round;stroke-miterlimit:4;stroke-opacity:1"
       d="M 29.219537,14.025497 C 30.49306,15.279123 31.214805,16.973307 31.214805,19.337898 C 31.214805,21.877167 30.055955,23.703446 28.097198,24.924648 C 26.138442,26.14585 23.334897,26.6902 20.21589,26.371218 C 17.064869,26.048961 14.173119,25.483165 12.184936,24.40089 C 10.196754,23.318616 9.0922708,21.872199 9.0922708,19.337898 C 9.09227,17.053364 10.370116,15.347854 12.459286,14.025497 C 12.459286,14.025497 13.951684,13.778595 20.839411,13.778595 C 27.727139,13.778595 29.219537,14.025497 29.219537,14.025497 z"
       id="path3357"
       sodipodi:nodetypes="csssssczc" />
    <path
       style="opacity:0.25;fill:url(#linearGradient2755);fill-opacity:1;stroke:none;stroke-width:1;stroke-linecap:round;stroke-linejoin:round;stroke-miterlimit:4;stroke-opacity:1"
       d="M 16.216658,9.3361661 L 16.216658,12.778905 L 12.941858,12.778905 C 13.098413,11.898396 13.237094,11.120711 13.445672,10.658682 C 13.693719,10.109229 13.972435,9.8267829 14.453306,9.6300582 C 14.859968,9.4636903 15.440392,9.3753699 16.216658,9.3361661 z"
       id="path3275" />
    <rect
       style="opacity:0.5;fill:#bbbbbb;fill-opacity:1;stroke:none;stroke-width:2;stroke-linecap:round;stroke-linejoin:round;stroke-miterlimit:4;stroke-dasharray:none;stroke-opacity:1"
       id="rect2480"
       width="1.2488663"
       height="1.9889346"
       x="-22.76837"
       y="10.321807"
       transform="scale(-1,1)" />
    <rect
       y="10.784348"
       x="-22.477936"
       height="1.0638487"
       width="7.2823615"
       id="rect3252"
       style="opacity:0.5;fill:#bbbbbb;fill-opacity:1;stroke:none;stroke-width:2;stroke-linecap:round;stroke-linejoin:round;stroke-miterlimit:4;stroke-dasharray:none;stroke-opacity:1"
       transform="scale(-1,1)" />
    <path
       style="opacity:0.5;fill:#bbbbbb;fill-opacity:1;stroke:none;stroke-width:1;stroke-linecap:round;stroke-linejoin:round;stroke-miterlimit:4;stroke-opacity:1"
       d="M 13.855973,10.01002 L 16.225354,10.783186 L 15.202779,10.783186 L 15.202779,11.855643 L 16.225354,11.855643 L 12.933162,12.778454 C 13.089716,11.897945 13.248341,11.120511 13.45692,10.658482 C 13.580942,10.383755 13.69768,10.172391 13.855973,10.01002 z M 13.930796,10.184606 C 13.806812,10.323446 13.714209,10.494856 13.606565,10.733305 C 13.436693,11.109591 13.296428,11.807947 13.157629,12.553987 L 15.053134,12.005288 L 15.053134,11.855643 L 15.053134,10.783186 L 15.053134,10.633541 L 15.202779,10.633541 L 15.277602,10.633541 L 13.930796,10.184606 z"
       id="path3300" />
    <path
       style="opacity:0.54098361;fill:url(#linearGradient2749);fill-opacity:1;stroke:none;stroke-width:1;stroke-linecap:round;stroke-linejoin:round;stroke-miterlimit:4;stroke-opacity:1"
       d="M 13.930796,10.184606 L 15.277602,10.633541 L 15.202779,10.633541 L 15.053134,10.633541 L 15.053134,10.783186 L 15.053134,11.855643 L 15.053134,12.005288 L 13.157629,12.553987 C 13.296428,11.807947 13.436693,11.109591 13.606565,10.733305 C 13.714209,10.494856 13.806812,10.323446 13.930796,10.184606 z"
       id="path3315" />
    <rect
       y="10.44651"
       x="-22.690063"
       height="1.7395262"
       width="1.0922611"
       id="rect3330"
       style="fill:url(#linearGradient2746);fill-opacity:1;stroke:none;stroke-width:2;stroke-linecap:round;stroke-linejoin:round;stroke-miterlimit:4;stroke-dasharray:none;stroke-opacity:1"
       transform="scale(-1,1)" />
    <path
       style="fill:url(#linearGradient2743);fill-opacity:1;stroke:none;stroke-width:2;stroke-linecap:round;stroke-linejoin:round;stroke-miterlimit:4;stroke-dasharray:none;stroke-opacity:1;opacity:1"
       d="M 21.587637,10.88295 L 21.587637,11.755879 L 15.252661,11.755879 L 15.252661,10.88295 L 21.587637,10.88295 z"
       id="rect3332" />
    <path
       style="opacity:0.5;fill:#bbbbbb;fill-opacity:1;stroke:none;stroke-width:0.40000001;stroke-linecap:round;stroke-linejoin:miter;stroke-miterlimit:4;stroke-opacity:1"
       d="M 23.009265,10.982713 C 23.201339,11.018491 23.262954,11.129324 23.258674,11.356826 C 23.258674,11.356826 23.258674,13.054985 23.258674,13.651384 L 22.759857,13.651384 L 22.759857,10.982713 C 22.855006,10.983129 22.945229,10.970788 23.009265,10.982713 z"
       id="path3340" />
    <path
       style="fill:url(#linearGradient2739);fill-opacity:1;stroke:none;stroke-width:0.40000001;stroke-linecap:round;stroke-linejoin:miter;stroke-miterlimit:4;stroke-opacity:1"
       d="M 22.984324,11.082477 C 23.151723,11.113659 23.187582,11.208421 23.183851,11.406708 C 23.183851,11.406708 23.183851,13.427684 23.183851,13.651384 L 22.759857,13.651384 L 22.759857,11.082477 C 22.842788,11.082838 22.928525,11.072082 22.984324,11.082477 z"
       id="rect3322" />
    <path
       style="fill:url(#linearGradient2736);fill-opacity:1;stroke:none;stroke-width:0.40000001;stroke-linecap:round;stroke-linejoin:miter;stroke-miterlimit:4;stroke-dasharray:none;stroke-opacity:1"
       d="M 22.759857,11.082477 L 22.759857,11.531412 L 22.685034,11.531412 L 22.685034,11.082477 L 22.759857,11.082477 z"
       id="rect3342" />
    <path
       style="opacity:0.50000000000000000;fill:#ac4311;fill-opacity:1;stroke:none;stroke-width:2;stroke-linecap:round;stroke-linejoin:round;stroke-miterlimit:4;stroke-dasharray:none;stroke-opacity:1"
       d="M 21.59375,10.4375 L 21.59375,10.875 L 15.25,10.875 L 15.25,11.75 L 21.59375,11.75 L 21.59375,12.1875 L 22.6875,12.1875 L 22.6875,11.53125 L 22.75,11.53125 L 22.75,13.65625 L 23.1875,13.65625 C 23.1875,13.43255 23.1875,11.40625 23.1875,11.40625 C 23.191231,11.207963 23.136149,11.124932 22.96875,11.09375 C 22.944836,11.089295 22.907334,11.092975 22.875,11.09375 L 22.75,11.09375 L 22.6875,11.09375 L 22.6875,10.4375 L 21.59375,10.4375 z"
       id="path2716" />
    <path
       sodipodi:nodetypes="cccc"
       id="path2483"
       d="M 22.042694,8.746411 C 25.496801,8.746411 27.782034,9.835032 29.793176,13.651384 L 12.334581,13.651384 C 13.222213,8.135966 14.011498,8.746411 22.042694,8.746411 z"
       style="opacity:0.25;fill:url(#radialGradient2733);fill-opacity:1;stroke:none;stroke-width:1;stroke-linecap:round;stroke-linejoin:round;stroke-miterlimit:4;stroke-opacity:1" />
    <path
       style="opacity:0.20081967;fill:url(#radialGradient2730);fill-opacity:1;stroke:none;stroke-width:1;stroke-linecap:round;stroke-linejoin:round;stroke-miterlimit:4;stroke-opacity:1"
       d="M 22.036572,8.7380366 C 25.490679,8.7380366 27.782034,9.8350318 29.793176,13.651384 L 12.334581,13.651384 C 13.222213,8.1359656 14.005376,8.7380366 22.036572,8.7380366 z M 21.812104,8.9874451 C 17.786397,8.987445 15.572244,8.8941028 14.429613,9.3615579 C 13.858298,9.5952853 13.527155,9.9308571 13.232452,10.58366 C 12.98464,11.132594 12.819874,12.056557 12.633872,13.102685 L 28.845424,13.102685 C 27.973344,11.619003 27.056832,10.575117 26.027108,9.9601383 C 24.851122,9.257808 23.497234,8.9874451 21.812104,8.9874451 z"
       id="path3265" />
    <path
       style="opacity:0.50000000000000000;fill:url(#radialGradient2727);fill-opacity:1.0;stroke:none;stroke-width:1;stroke-linecap:round;stroke-linejoin:round;stroke-miterlimit:4;stroke-opacity:1"
       d="M 21.812104,8.987445 C 23.497234,8.987445 24.851122,9.257808 26.027108,9.960138 C 27.056832,10.575117 27.973344,11.619003 28.845424,13.102685 L 12.633872,13.102685 C 12.819874,12.056557 12.98464,11.132594 13.232452,10.58366 C 13.527155,9.930857 13.858298,9.595285 14.429613,9.361558 C 15.572244,8.894103 17.786397,8.987445 21.812104,8.987445 z"
       id="path3270" />
    <path
       style="opacity:0.25;fill:url(#radialGradient2724);fill-opacity:1;stroke:none;stroke-width:1;stroke-linecap:round;stroke-linejoin:round;stroke-miterlimit:4;stroke-opacity:1"
       d="M 23.582905,9.1370902 C 24.48357,9.2791322 25.299152,9.5253834 26.027108,9.9601383 C 27.056832,10.575117 27.973344,11.619003 28.845424,13.102685 L 23.582905,13.102685 L 23.582905,9.1370902 z"
       id="path3463" />
    <path
       style="opacity:0.15;fill:url(#radialGradient2721);fill-opacity:1;stroke:none;stroke-width:1;stroke-linecap:round;stroke-linejoin:round;stroke-miterlimit:4;stroke-opacity:1"
       d="M 23.582905,9.4613213 C 24.322943,9.6103272 25.011991,9.8416177 25.628054,10.209547 C 26.593794,10.786312 27.448465,11.762414 28.271784,13.102685 L 23.582905,13.102685 L 23.582905,9.4613213 z"
       id="path3470" />
    <path
       style="opacity:0.5;fill:url(#radialGradient2718);fill-opacity:1;stroke:none;stroke-width:0.40000001;stroke-linecap:round;stroke-linejoin:miter;stroke-miterlimit:4;stroke-dasharray:none;stroke-opacity:1"
       d="M 23.582905,9.4613213 C 23.650512,9.4749338 23.715693,9.4961756 23.782431,9.511203 L 23.782431,13.102685 L 23.582905,13.102685 L 23.582905,9.4613213 z"
       id="rect3481" />
    <path
       style="fill:#000000;fill-opacity:1;stroke:none;stroke-width:1;stroke-linecap:round;stroke-linejoin:round;stroke-miterlimit:4;stroke-opacity:1"
       d="M 13.107748,16.494641 C 12.164416,16.494641 11.386829,17.272228 11.386829,18.21556 C 11.386829,18.465543 11.644094,18.881133 11.985409,19.362839 C 12.127088,19.562792 12.263009,19.772675 12.434345,19.98636 C 12.457294,20.015367 12.485803,20.032044 12.509167,20.061183 C 12.684894,20.277819 12.8716,20.496735 13.057866,20.709645 C 13.077786,20.732573 13.087797,20.761663 13.107748,20.784467 C 13.505223,21.235506 13.919819,21.66899 14.230086,21.981628 C 14.539348,22.295437 14.725712,22.455661 14.803725,22.505386 C 14.814999,22.512571 14.873963,22.580208 14.878548,22.580208 C 15.016704,22.580208 18.295445,19.233714 18.295444,18.290382 C 18.295444,17.936633 18.179768,17.616404 17.996154,17.34263 C 17.986229,17.327831 17.981581,17.307215 17.971213,17.292748 C 17.921157,17.214659 17.858276,17.137028 17.796627,17.068281 C 17.726695,16.990294 17.630201,16.93279 17.547219,16.868754 C 17.260298,16.64734 16.914725,16.494641 16.524644,16.494641 C 15.581313,16.494641 14.803725,17.292748 14.803725,17.292748 C 14.803725,17.292748 14.768495,17.257153 14.753844,17.242866 C 14.667708,17.168461 14.533885,17.067724 14.379731,16.968517 C 14.067276,16.750543 13.632578,16.49464 13.107748,16.494641 z M 13.18257,16.893695 C 13.757668,16.893694 14.292975,17.271676 14.529376,17.467334 C 14.608176,17.532554 14.65408,17.592038 14.65408,17.592038 L 14.803725,17.741684 L 14.878548,17.816506 L 15.103016,17.592038 C 15.103016,17.592038 15.739018,16.996604 16.449822,16.918635 L 16.480684,16.91133 C 16.527775,16.906232 16.551872,16.893695 16.599467,16.893695 C 16.88912,16.893695 17.150689,16.967176 17.372633,17.118162 C 17.446614,17.168491 17.509338,17.229382 17.57216,17.292748 C 17.611094,17.337437 17.663782,17.367983 17.696864,17.417452 C 17.715161,17.441325 17.729984,17.46721 17.746746,17.492275 C 17.777554,17.54512 17.797736,17.609855 17.821568,17.666861 C 17.891663,17.834527 17.921332,18.021915 17.921332,18.21556 C 17.921332,18.269613 17.770925,18.682223 17.472396,19.11343 C 17.428765,19.176453 17.370611,19.247053 17.322751,19.312957 L 17.29781,19.312957 C 17.019764,19.694826 16.699759,20.110396 16.350058,20.510118 C 15.936149,20.983233 15.49979,21.432749 15.177838,21.75716 C 15.025012,21.911154 14.899141,22.018787 14.803725,22.106332 C 14.725349,22.03442 14.621543,21.948785 14.504435,21.831983 C 14.487557,21.814975 14.471958,21.774776 14.454554,21.75716 C 14.152499,21.452796 13.745857,21.024363 13.357156,20.58494 C 13.333934,20.558396 13.30548,20.536854 13.282334,20.510118 C 13.098601,20.300104 12.930167,20.075347 12.758576,19.861656 C 12.735167,19.832155 12.706702,19.81615 12.683753,19.786833 C 12.516967,19.576638 12.371273,19.38121 12.234818,19.188253 C 12.085554,18.972649 11.963459,18.751924 11.885646,18.589672 C 11.807833,18.42742 11.760942,18.317409 11.760942,18.290382 C 11.760942,17.517974 12.410162,16.893695 13.18257,16.893695 z M 17.29781,19.312957 L 16.848875,18.390146 L 17.771687,17.866388 L 17.696864,17.791565 L 16.674289,17.94121 L 16.499703,16.968517 L 16.449822,16.918635 L 16.250295,17.966151 L 15.202779,17.841447 L 15.252661,17.916269 L 16.125591,18.390146 L 15.701596,19.312957 L 15.776419,19.38778 L 16.524644,18.639554 L 17.247929,19.263075 L 17.29781,19.312957 z"
       id="path3911"
       sodipodi:nodetypes="cssssssssssssssscssccsccccccssssssssccsscsssssssssccccccccccccccccc" />
    <path
       id="path3581"
       d="M 29.793176,13.651384 C 31.361194,15.078514 32.187498,17.120505 32.187498,19.761892 C 32.187498,25.350359 26.831591,28.259708 20.315653,27.593319 C 13.929019,26.940156 8.4687496,25.35036 8.4687496,19.761892 C 8.4687496,17.118926 10.012057,15.078622 12.334581,13.651384 L 29.793176,13.651384 z M 29.219537,14.025497 L 12.459286,14.025497 C 10.370116,15.347854 9.09227,17.053364 9.0922708,19.337898 C 9.0922708,21.872199 10.196754,23.318616 12.184936,24.40089 C 14.173119,25.483165 17.064869,26.048961 20.21589,26.371218 C 23.334897,26.6902 26.138442,26.14585 28.097198,24.924648 C 30.055955,23.703446 31.214805,21.877167 31.214805,19.337898 C 31.214805,16.973307 30.49306,15.279123 29.219537,14.025497 z"
       style="opacity:0.35;fill:url(#radialGradient2711);fill-opacity:1;stroke:none;stroke-width:1;stroke-linecap:round;stroke-linejoin:round;stroke-miterlimit:4;stroke-opacity:1" />
    <path
       style="fill:url(#linearGradient3496);fill-opacity:1;stroke:none;stroke-width:1;stroke-linecap:round;stroke-linejoin:round;stroke-miterlimit:4;stroke-opacity:1"
       d="M 13.110693,16.498357 C 12.167362,16.498357 11.396002,17.269716 11.396002,18.213048 C 11.396002,19.15638 14.677431,22.514473 14.815586,22.514473 C 14.953742,22.514473 18.235171,19.15638 18.23517,18.213048 C 18.23517,17.269716 17.473609,16.498356 16.530277,16.498357 C 15.586946,16.498357 14.815586,17.292014 14.815586,17.292014 C 14.815586,17.292014 14.054025,16.498356 13.110693,16.498357 z M 13.110693,16.811901 C 13.87749,16.8119 14.590227,17.507575 14.590227,17.507575 L 14.815586,17.742732 L 15.040945,17.517374 C 15.040945,17.517374 15.76348,16.811901 16.530277,16.811901 C 17.302685,16.8119 17.921626,17.438468 17.921626,18.213048 C 17.921626,18.267101 17.759638,18.67348 17.46111,19.104688 C 17.162581,19.535895 16.758021,20.042518 16.344111,20.515633 C 15.930201,20.988748 15.509871,21.425799 15.187919,21.75021 C 15.035093,21.904204 14.911001,22.0252 14.815586,22.112745 C 14.720171,22.0252 14.59608,21.904204 14.443253,21.75021 C 14.121302,21.425799 13.700971,20.988748 13.287062,20.515633 C 12.873152,20.042518 12.468592,19.535895 12.170063,19.104688 C 11.871535,18.67348 11.709546,18.267101 11.709546,18.213048 C 11.709546,17.44064 12.338285,16.811901 13.110693,16.811901 z M 16.442093,16.900085 L 16.255927,17.958294 L 15.197717,17.840715 L 16.138347,18.340425 L 15.707225,19.300652 L 16.471488,18.555987 L 17.255346,19.271258 L 16.785031,18.31103 L 17.706065,17.791724 L 16.647856,17.938698 L 16.442093,16.900085 z"
       id="path3909" />
    <path
       style="opacity:0.75;fill:url(#radialGradient2707);fill-opacity:1;stroke:none;stroke-width:1;stroke-linecap:round;stroke-linejoin:round;stroke-miterlimit:4;stroke-opacity:1"
       d="M 29.793176,13.651384 C 31.361194,15.078514 32.187498,17.120505 32.187498,19.761892 C 32.187498,25.350359 26.831591,28.259708 20.315653,27.593319 C 13.929019,26.940156 8.4687496,25.35036 8.4687496,19.761892 C 8.4687496,17.118926 10.012057,15.078622 12.334581,13.651384 L 29.793176,13.651384 z"
       id="path3563" />
    <path
       style="opacity:0.1;fill:url(#linearGradient2704);fill-opacity:1;stroke:none;stroke-width:1;stroke-linecap:round;stroke-linejoin:round;stroke-miterlimit:4;stroke-opacity:1"
       d="M 16.225354,9.336617 C 15.449088,9.375821 14.861216,9.469539 14.454554,9.635907 C 13.973683,9.832632 13.704966,10.109029 13.45692,10.658482 C 13.248341,11.120512 13.089717,11.897945 12.933162,12.778454 L 16.225354,12.778454 L 16.225354,9.336617 z M 23.582905,9.461321 L 23.582905,13.102685 L 28.271784,13.102685 C 27.448465,11.762414 26.593794,10.786312 25.628054,10.209547 C 25.011991,9.841618 24.322943,9.610327 23.582905,9.461321 z"
       id="path3843" />
    <path
       style="opacity:0.14999999999999999;fill:#ac4311;fill-opacity:1;stroke:none;stroke-width:1;stroke-linecap:round;stroke-linejoin:round;stroke-miterlimit:4;stroke-opacity:1"
       d="M 17.27287,8.7380366 C 13.621114,8.8248841 13.000305,9.5148202 12.334581,13.651384 L 29.793176,13.651384 C 27.782034,9.8350318 25.490679,8.7380366 22.036572,8.7380366 C 20.028773,8.7380366 18.490121,8.7090875 17.27287,8.7380366 z M 17.27287,9.012386 C 18.482983,8.9829401 20.02675,9.012386 22.036572,9.012386 C 23.746856,9.012386 25.153207,9.2795684 26.37628,10.01002 C 27.540611,10.705389 28.539357,11.863558 29.493886,13.601502 L 12.534108,13.601502 C 12.742306,12.348486 12.93808,11.385372 13.232452,10.733305 C 13.544916,10.041158 13.957079,9.6410345 14.579258,9.3864988 C 15.201437,9.131963 16.062756,9.0418319 17.27287,9.012386 z"
       id="path3866" />
    <path
       style="opacity:0.35;fill:url(#radialGradient2700);fill-opacity:1;stroke:none;stroke-width:1;stroke-linecap:round;stroke-linejoin:round;stroke-miterlimit:4;stroke-opacity:1"
       d="M 22.042694,8.746411 C 25.496801,8.746411 27.782034,9.835032 29.793176,13.651384 L 12.334581,13.651384 C 13.222213,8.135966 14.011498,8.746411 22.042694,8.746411 z"
       id="path3899"
       sodipodi:nodetypes="cccc" />
    <path
       id="path3915"
       d="M 13.110693,16.498357 C 12.167362,16.498357 11.396002,17.269716 11.396002,18.213048 C 11.396002,19.15638 14.677431,22.514473 14.815586,22.514473 C 14.953742,22.514473 18.235171,19.15638 18.23517,18.213048 C 18.23517,17.269716 17.473609,16.498356 16.530277,16.498357 C 15.586946,16.498357 14.815586,17.292014 14.815586,17.292014 C 14.815586,17.292014 14.054025,16.498356 13.110693,16.498357 z M 13.110693,16.811901 C 13.87749,16.8119 14.590227,17.507575 14.590227,17.507575 L 14.815586,17.742732 L 15.040945,17.517374 C 15.040945,17.517374 15.76348,16.811901 16.530277,16.811901 C 17.302685,16.8119 17.921626,17.438468 17.921626,18.213048 C 17.921626,18.267101 17.759638,18.67348 17.46111,19.104688 C 17.162581,19.535895 16.758021,20.042518 16.344111,20.515633 C 15.930201,20.988748 15.509871,21.425799 15.187919,21.75021 C 15.035093,21.904204 14.911001,22.0252 14.815586,22.112745 C 14.720171,22.0252 14.59608,21.904204 14.443253,21.75021 C 14.121302,21.425799 13.700971,20.988748 13.287062,20.515633 C 12.873152,20.042518 12.468592,19.535895 12.170063,19.104688 C 11.871535,18.67348 11.709546,18.267101 11.709546,18.213048 C 11.709546,17.44064 12.338285,16.811901 13.110693,16.811901 z M 16.442093,16.900085 L 16.255927,17.958294 L 15.197717,17.840715 L 16.138347,18.340425 L 15.707225,19.300652 L 16.471488,18.555987 L 17.255346,19.271258 L 16.785031,18.31103 L 17.706065,17.791724 L 16.647856,17.938698 L 16.442093,16.900085 z"
       style="opacity:0.25;fill:url(#linearGradient2697);fill-opacity:1;stroke:none;stroke-width:1;stroke-linecap:round;stroke-linejoin:round;stroke-miterlimit:4;stroke-opacity:1" />
    <rect
       style="opacity:0.61162792;fill:#555753;fill-opacity:1;fill-rule:nonzero;stroke:none;stroke-width:0.69999999;stroke-linecap:round;stroke-linejoin:miter;stroke-miterlimit:4;stroke-dasharray:none;stroke-opacity:1"
       id="rect1951"
       width="40.001965"
       height="10.004759"
       x="-0.0019644466"
       y="30" />
    <text
       xml:space="preserve"
       style="font-size:12px;font-style:normal;font-weight:normal;fill:#eeeeec;fill-opacity:1;stroke:none;stroke-width:1px;stroke-linecap:butt;stroke-linejoin:miter;stroke-opacity:1;font-family:Bitstream Vera Sans"
       x="11.442383"
       y="39.168156"
       id="text2840"><tspan
         sodipodi:role="line"
         id="tspan2842"
         x="11.442383"
         y="39.168156">Nb</tspan></text>
    <path
       style="opacity:0.34999999999999998;fill:url(#linearGradient2715);fill-opacity:1;stroke:none;stroke-width:1;stroke-linecap:round;stroke-linejoin:round;stroke-miterlimit:4;stroke-opacity:1"
       d="M 29.793176,13.651384 L 12.334581,13.651384 C 12.424554,13.071012 12.633872,13.102685 12.633872,13.102685 L 28.845424,13.102685 C 28.845424,13.102685 29.410692,12.973506 29.793176,13.651384 z"
       id="path3502"
       sodipodi:nodetypes="ccccc" />
  </g>
</svg>
