<?xml version="1.0" encoding="UTF-8" standalone="no"?>
<!-- Created with Inkscape (http://www.inkscape.org/) -->
<svg
   xmlns:dc="http://purl.org/dc/elements/1.1/"
   xmlns:cc="http://creativecommons.org/ns#"
   xmlns:rdf="http://www.w3.org/1999/02/22-rdf-syntax-ns#"
   xmlns:svg="http://www.w3.org/2000/svg"
   xmlns="http://www.w3.org/2000/svg"
   xmlns:xlink="http://www.w3.org/1999/xlink"
   xmlns:sodipodi="http://sodipodi.sourceforge.net/DTD/sodipodi-0.dtd"
   xmlns:inkscape="http://www.inkscape.org/namespaces/inkscape"
   width="40"
   height="40"
   id="svg2193"
   sodipodi:version="0.32"
   inkscape:version="0.46"
   version="1.0"
   sodipodi:docbase="/home/jra/Desktop"
   sodipodi:docname="45.svg"
   inkscape:output_extension="org.inkscape.output.svg.inkscape">
  <defs
     id="defs2195">
    <linearGradient
       id="linearGradient3692">
      <stop
         style="stop-color:#000000;stop-opacity:1"
         offset="0"
         id="stop3694" />
      <stop
         id="stop3696"
         offset="0.5"
         style="stop-color:#ffffff;stop-opacity:1;" />
      <stop
         style="stop-color:#000000;stop-opacity:1;"
         offset="1"
         id="stop3698" />
    </linearGradient>
    <linearGradient
       id="linearGradient3239">
      <stop
         style="stop-color:#ffffff;stop-opacity:1;"
         offset="0"
         id="stop3241" />
      <stop
         style="stop-color:#ffffff;stop-opacity:0;"
         offset="1"
         id="stop3243" />
    </linearGradient>
    <linearGradient
       id="linearGradient3220">
      <stop
         id="stop3222"
         offset="0"
         style="stop-color:#000000;stop-opacity:1" />
      <stop
         id="stop3224"
         offset="1"
         style="stop-color:#ffffff;stop-opacity:1;" />
    </linearGradient>
    <linearGradient
       id="linearGradient3291">
      <stop
         id="stop3293"
         offset="0"
         style="stop-color:#000000;stop-opacity:1;" />
      <stop
         id="stop3295"
         offset="1"
         style="stop-color:#000000;stop-opacity:0;" />
    </linearGradient>
    <radialGradient
       inkscape:collect="always"
       xlink:href="#linearGradient3291"
       id="radialGradient2595"
       gradientUnits="userSpaceOnUse"
       gradientTransform="matrix(1,0,0,0.197802,0,92.82166)"
       cx="63.912209"
       cy="115.70919"
       fx="75.857941"
       fy="115.70919"
       r="63.912209" />
    <linearGradient
       id="linearGradient3272">
      <stop
         id="stop3274"
         offset="0"
         style="stop-color:#000000;stop-opacity:1" />
      <stop
         style="stop-color:#ffffff;stop-opacity:1;"
         offset="0.5"
         id="stop3278" />
      <stop
         id="stop3276"
         offset="1"
         style="stop-color:#000000;stop-opacity:1;" />
    </linearGradient>
    <linearGradient
       id="linearGradient3555">
      <stop
         id="stop3557"
         offset="0"
         style="stop-color:#ffffff;stop-opacity:1;" />
      <stop
         style="stop-color:#ffffff;stop-opacity:0.71779144;"
         offset="0.83239752"
         id="stop3559" />
      <stop
         id="stop3561"
         offset="1"
         style="stop-color:#000000;stop-opacity:1" />
    </linearGradient>
    <linearGradient
       id="linearGradient3573">
      <stop
         style="stop-color:#000000;stop-opacity:1"
         offset="0"
         id="stop3575" />
      <stop
         id="stop3577"
         offset="0.91523224"
         style="stop-color:#ffffff;stop-opacity:1;" />
      <stop
         style="stop-color:#000000;stop-opacity:1;"
         offset="1"
         id="stop3579" />
    </linearGradient>
    <linearGradient
       id="linearGradient3589">
      <stop
         id="stop3591"
         offset="0"
         style="stop-color:#000000;stop-opacity:1" />
      <stop
         style="stop-color:#ffffff;stop-opacity:1;"
         offset="0.91523224"
         id="stop3593" />
      <stop
         id="stop3595"
         offset="1"
         style="stop-color:#000000;stop-opacity:1;" />
    </linearGradient>
    <radialGradient
       inkscape:collect="always"
       xlink:href="#linearGradient3573"
       id="radialGradient3063"
       gradientUnits="userSpaceOnUse"
       gradientTransform="matrix(0.9999379,-5.7485104e-3,2.3343686e-2,1.0802695,-0.4203799,-1.2692551)"
       cx="31.245499"
       cy="18.089827"
       fx="31.245499"
       fy="18.089827"
       r="11.011446" />
    <linearGradient
       inkscape:collect="always"
       xlink:href="#linearGradient3239"
       id="linearGradient3067"
       gradientUnits="userSpaceOnUse"
       x1="20.686695"
       y1="26.417482"
       x2="37.592712"
       y2="7.0815716" />
    <radialGradient
       inkscape:collect="always"
       xlink:href="#linearGradient3239"
       id="radialGradient3079"
       gradientUnits="userSpaceOnUse"
       gradientTransform="matrix(1.2219401,0,0,1.66582,-7.2554379,-10.673755)"
       cx="32.690968"
       cy="16.030994"
       fx="32.690968"
       fy="16.030994"
       r="11.011446" />
    <radialGradient
       inkscape:collect="always"
       xlink:href="#linearGradient3239"
       id="radialGradient3101"
       gradientUnits="userSpaceOnUse"
       gradientTransform="matrix(1,0,0,2.5185185,0,-26.218171)"
       cx="36.054688"
       cy="17.265625"
       fx="36.054688"
       fy="17.265625"
       r="0.2109375" />
    <linearGradient
       inkscape:collect="always"
       xlink:href="#linearGradient3220"
       id="linearGradient3107"
       gradientUnits="userSpaceOnUse"
       x1="37.671875"
       y1="17.525391"
       x2="38.175781"
       y2="17.427734" />
    <radialGradient
       inkscape:collect="always"
       xlink:href="#linearGradient3555"
       id="radialGradient3109"
       gradientUnits="userSpaceOnUse"
       gradientTransform="matrix(0.9999379,-5.7485104e-3,2.3343686e-2,1.0802695,-0.4203799,-1.2692551)"
       cx="33.473106"
       cy="18.101681"
       fx="33.473106"
       fy="18.101681"
       r="11.011446" />
    <radialGradient
       inkscape:collect="always"
       xlink:href="#linearGradient3291"
       id="radialGradient3118"
       gradientUnits="userSpaceOnUse"
       gradientTransform="matrix(0.2320724,-1.2506716,0.4074987,7.5614607e-2,10.753788,56.27948)"
       cx="29.858269"
       cy="32.036343"
       fx="29.858269"
       fy="32.036343"
       r="8.3590736" />
    <radialGradient
       inkscape:collect="always"
       xlink:href="#linearGradient3573"
       id="radialGradient3121"
       gradientUnits="userSpaceOnUse"
       gradientTransform="matrix(0.5758499,-0.6282714,1.4216712,1.4457717,-21.998599,25.015019)"
       cx="15.12805"
       cy="8.5892096"
       fx="15.12805"
       fy="8.5892096"
       r="11.011446" />
    <linearGradient
       inkscape:collect="always"
       xlink:href="#linearGradient3272"
       id="linearGradient3124"
       gradientUnits="userSpaceOnUse"
       gradientTransform="matrix(0.7071068,-0.7071068,0.7071068,0.7071068,-9.184255,23.971698)"
       x1="10.232076"
       y1="8.3125"
       x2="10.232076"
       y2="31.143784" />
    <linearGradient
       inkscape:collect="always"
       xlink:href="#linearGradient3272"
       id="linearGradient3129"
       gradientUnits="userSpaceOnUse"
       gradientTransform="matrix(0.2663491,-0.2663491,0.555457,0.555457,10.541191,9.6635475)"
       x1="35.707855"
       y1="16.685314"
       x2="35.707855"
       y2="18.670771" />
    <linearGradient
       inkscape:collect="always"
       xlink:href="#linearGradient3272"
       id="linearGradient3133"
       gradientUnits="userSpaceOnUse"
       gradientTransform="matrix(0.3766745,0,0,0.7855348,0.6205874,14.286907)"
       x1="35.70026"
       y1="16.202814"
       x2="35.70026"
       y2="19.099752" />
    <radialGradient
       inkscape:collect="always"
       xlink:href="#linearGradient3291"
       id="radialGradient3137"
       gradientUnits="userSpaceOnUse"
       gradientTransform="matrix(1.0058224,-1.0058242,3.5546877,3.5546812,-72.328859,-17.312002)"
       cx="36.776123"
       cy="18.555395"
       fx="36.776123"
       fy="18.555395"
       r="0.36987132" />
    <radialGradient
       inkscape:collect="always"
       xlink:href="#linearGradient3291"
       id="radialGradient3140"
       gradientUnits="userSpaceOnUse"
       gradientTransform="matrix(2.7179648,-2.7179648,2.8670465,2.8670465,-128.07323,63.562155)"
       cx="39.926247"
       cy="18.92766"
       fx="39.926247"
       fy="18.92766"
       r="1.4065756" />
    <radialGradient
       inkscape:collect="always"
       xlink:href="#linearGradient3272"
       id="radialGradient3143"
       gradientUnits="userSpaceOnUse"
       gradientTransform="matrix(1.3622204,-1.3622208,2.1103579,2.1103573,-59.550154,24.448709)"
       cx="37.986076"
       cy="17.470882"
       fx="37.986076"
       fy="17.470882"
       r="2.015625" />
    <linearGradient
       inkscape:collect="always"
       xlink:href="#linearGradient3692"
       id="linearGradient3146"
       gradientUnits="userSpaceOnUse"
       gradientTransform="matrix(0.7071068,-0.7071068,0.7071068,0.7071068,-9.184255,23.971698)"
       x1="36.533203"
       y1="14.986753"
       x2="36.566559"
       y2="19.317783" />
    <radialGradient
       inkscape:collect="always"
       xlink:href="#linearGradient3692"
       id="radialGradient3149"
       gradientUnits="userSpaceOnUse"
       gradientTransform="matrix(0.1522076,-0.1522076,0.3782372,0.3782372,16.893296,9.339549)"
       cx="29.986103"
       cy="21.521309"
       fx="29.986103"
       fy="21.521309"
       r="11.011446" />
    <radialGradient
       inkscape:collect="always"
       xlink:href="#linearGradient3573"
       id="radialGradient3152"
       gradientUnits="userSpaceOnUse"
       gradientTransform="matrix(0.191939,-0.191939,0.249806,0.249806,18.097381,12.9101)"
       cx="42.211575"
       cy="18.093018"
       fx="42.211575"
       fy="18.093018"
       r="11.011446" />
    <radialGradient
       inkscape:collect="always"
       xlink:href="#linearGradient3573"
       id="radialGradient3155"
       gradientUnits="userSpaceOnUse"
       gradientTransform="matrix(0.6605949,-0.6605955,1.4087328,1.4087316,-19.920957,9.6472336)"
       cx="37.866531"
       cy="17.748459"
       fx="37.866531"
       fy="17.748459"
       r="2.015625" />
    <radialGradient
       inkscape:collect="always"
       xlink:href="#linearGradient3291"
       id="radialGradient3158"
       gradientUnits="userSpaceOnUse"
       gradientTransform="matrix(-0.4012376,1.2070813,-0.1724369,-5.7318531e-2,28.083055,-16.761836)"
       cx="25.551641"
       cy="30.396009"
       fx="25.551641"
       fy="30.396009"
       r="8.3590736" />
    <radialGradient
       inkscape:collect="always"
       xlink:href="#linearGradient3239"
       id="radialGradient3161"
       gradientUnits="userSpaceOnUse"
       gradientTransform="matrix(0.2710509,-1.2092557,0.3081006,6.9059798e-2,12.846329,54.984929)"
       cx="28.842859"
       cy="23.709093"
       fx="28.842859"
       fy="23.709093"
       r="8.3590736" />
    <radialGradient
       inkscape:collect="always"
       xlink:href="#linearGradient3589"
       id="radialGradient3164"
       gradientUnits="userSpaceOnUse"
       gradientTransform="matrix(0.7071068,-0.7071068,0.7312127,0.7312127,-9.6147699,23.541183)"
       cx="24.75"
       cy="17.980253"
       fx="24.75"
       fy="17.980253"
       r="9.625" />
    <linearGradient
       inkscape:collect="always"
       xlink:href="#linearGradient3291"
       id="linearGradient3168"
       gradientUnits="userSpaceOnUse"
       gradientTransform="matrix(0.7071068,-0.7071068,0.7071068,0.7071068,-9.184255,23.971698)"
       x1="33.3125"
       y1="8.84375"
       x2="15.3125"
       y2="26.671875" />
    <radialGradient
       inkscape:collect="always"
       xlink:href="#linearGradient3291"
       id="radialGradient3171"
       gradientUnits="userSpaceOnUse"
       gradientTransform="matrix(1.5189208,-7.3969382e-2,5.553235e-2,1.1403264,-13.844849,62.86596)"
       cx="28.28266"
       cy="-35.461063"
       fx="28.28266"
       fy="-35.461063"
       r="8.0452525" />
    <radialGradient
       inkscape:collect="always"
       xlink:href="#linearGradient3239"
       id="radialGradient3174"
       gradientUnits="userSpaceOnUse"
       gradientTransform="matrix(0.8709111,-0.8709111,0.4889776,0.4889776,19.235487,60.172633)"
       cx="23.751501"
       cy="-50.274948"
       fx="23.751501"
       fy="-50.274948"
       r="8.633544" />
    <radialGradient
       inkscape:collect="always"
       xlink:href="#linearGradient3555"
       id="radialGradient3177"
       gradientUnits="userSpaceOnUse"
       gradientTransform="matrix(0.8396899,-0.8396899,0.7241818,0.7241818,-12.781102,26.88053)"
       cx="26.08437"
       cy="17.913309"
       fx="26.08437"
       fy="17.913309"
       r="11" />
    <radialGradient
       inkscape:collect="always"
       xlink:href="#linearGradient3589"
       id="radialGradient3180"
       gradientUnits="userSpaceOnUse"
       gradientTransform="matrix(0.7111249,-0.7111249,0.7241818,0.7241818,-9.6440951,23.743523)"
       cx="23.965132"
       cy="18.157415"
       fx="23.965132"
       fy="18.157415"
       r="11" />
    <linearGradient
       inkscape:collect="always"
       xlink:href="#linearGradient3272"
       id="linearGradient3194"
       gradientUnits="userSpaceOnUse"
       gradientTransform="translate(-23.444799,10.456301)"
       x1="35.70026"
       y1="16.202814"
       x2="35.70026"
       y2="19.099752" />
    <linearGradient
       inkscape:collect="always"
       xlink:href="#linearGradient3272"
       id="linearGradient3200"
       gradientUnits="userSpaceOnUse"
       gradientTransform="matrix(2.3202452,0,0,2.3202452,-92.887222,-13.124869)"
       x1="35.70026"
       y1="16.202814"
       x2="35.70026"
       y2="19.099752" />
  </defs>
  <sodipodi:namedview
     id="base"
     pagecolor="#ffffff"
     bordercolor="#666666"
     borderopacity="1.0"
     inkscape:pageopacity="0.0"
     inkscape:pageshadow="2"
     inkscape:zoom="16"
     inkscape:cx="24.950275"
     inkscape:cy="17.987574"
     inkscape:current-layer="layer1"
     showgrid="false"
     inkscape:grid-bbox="false"
     inkscape:document-units="px"
     width="40px"
     height="40px"
     inkscape:window-width="1656"
     inkscape:window-height="1053"
     inkscape:window-x="208"
     inkscape:window-y="25">
    <inkscape:grid
       id="GridFromPre046Settings"
       type="xygrid"
       originx="0px"
       originy="0px"
       spacingx="1px"
       spacingy="1px"
       color="#0000ff"
       empcolor="#0000ff"
       opacity="0.2"
       empopacity="0.4"
       empspacing="2"
       visible="true"
       enabled="true" />
  </sodipodi:namedview>
  <metadata
     id="metadata2198">
    <rdf:RDF>
      <cc:Work
         rdf:about="">
        <dc:format>image/svg+xml</dc:format>
        <dc:type
           rdf:resource="http://purl.org/dc/dcmitype/StillImage" />
        <dc:creator>
          <cc:Agent>
            <dc:title>Jarle Akselsen</dc:title>
          </cc:Agent>
        </dc:creator>
        <cc:license
           rdf:resource="http://creativecommons.org/licenses/GPL/2.0/" />
      </cc:Work>
      <cc:License
         rdf:about="http://creativecommons.org/licenses/GPL/2.0/">
        <cc:permits
           rdf:resource="http://web.resource.org/cc/Reproduction" />
        <cc:permits
           rdf:resource="http://web.resource.org/cc/Distribution" />
        <cc:requires
           rdf:resource="http://web.resource.org/cc/Notice" />
        <cc:permits
           rdf:resource="http://web.resource.org/cc/DerivativeWorks" />
        <cc:requires
           rdf:resource="http://web.resource.org/cc/ShareAlike" />
        <cc:requires
           rdf:resource="http://web.resource.org/cc/SourceCode" />
      </cc:License>
    </rdf:RDF>
  </metadata>
  <g
     id="layer1"
     inkscape:label="Layer 1"
     inkscape:groupmode="layer">
    <rect
       style="fill:url(#linearGradient3200);fill-opacity:1;stroke:none;stroke-width:0.5;stroke-linecap:round;stroke-linejoin:miter;stroke-miterlimit:4;stroke-dasharray:none;stroke-opacity:1"
       id="rect2936"
       width="4.0788426"
       height="5.7474651"
       x="-12.093315"
       y="25.443789"
       transform="matrix(0.7071068,-0.7071068,0.7071068,0.7071068,0,0)" />
    <path
       transform="matrix(0.7071068,-0.7071068,0.7071068,0.7071068,-13.221212,27.680812)"
       d="M 40.800304,18.093018 A 11.011446,11.011446 0 1 1 18.777412,18.093018 A 11.011446,11.011446 0 1 1 40.800304,18.093018 z"
       sodipodi:ry="11.011446"
       sodipodi:rx="11.011446"
       sodipodi:cy="18.093018"
       sodipodi:cx="29.788858"
       id="path2938"
       style="fill:#dddddd;fill-opacity:1;stroke:none;stroke-width:0.5;stroke-linecap:round;stroke-linejoin:miter;stroke-miterlimit:4;stroke-dasharray:none;stroke-opacity:1"
       sodipodi:type="arc" />
    <path
       id="path2940"
       d="M 16.050619,15.663193 L 16.470464,15.729484 L 16.558852,16.21562 L 16.64724,16.127232 L 16.580949,15.751581 L 16.9566,15.817873 L 17.022891,15.751581 L 16.558852,15.641096 L 16.492561,15.221251 L 16.404172,15.30964 L 16.470464,15.641096 L 16.139007,15.574805 L 16.050619,15.663193 z M 16.580949,15.132863 L 17.111279,15.663193 L 17.17757,15.596902 L 16.64724,15.066572 L 16.580949,15.132863 z M 16.80192,14.911892 L 17.33225,15.442222 L 17.398541,15.375931 L 16.868211,14.845601 L 16.80192,14.911892 z"
       style="font-size:12px;font-style:normal;font-variant:normal;font-weight:normal;font-stretch:normal;fill:#000000;fill-opacity:1;stroke:none;stroke-width:1px;stroke-linecap:butt;stroke-linejoin:miter;stroke-opacity:1;font-family:Sans;-inkscape-font-specification:Sans" />
    <path
       sodipodi:type="arc"
       style="fill:url(#radialGradient3063);fill-opacity:1;stroke:none;stroke-width:0.5;stroke-linecap:round;stroke-linejoin:miter;stroke-miterlimit:4;stroke-dasharray:none;stroke-opacity:1"
       id="path2942"
       sodipodi:cx="29.788858"
       sodipodi:cy="18.093018"
       sodipodi:rx="11.011446"
       sodipodi:ry="11.011446"
       d="M 40.800304,18.093018 A 11.011446,11.011446 0 1 1 18.777412,18.093018 A 11.011446,11.011446 0 1 1 40.800304,18.093018 z"
       transform="matrix(0.3647183,-0.3647183,0.7071068,0.7071068,-14.808004,29.267604)" />
    <rect
       y="27.078959"
       x="11.376494"
       height="2.4770927"
       width="1.7579364"
       id="rect2944"
       style="fill:url(#linearGradient3194);fill-opacity:1;stroke:none;stroke-width:0.5;stroke-linecap:round;stroke-linejoin:miter;stroke-miterlimit:4;stroke-dasharray:none;stroke-opacity:1"
       transform="matrix(0.7071068,-0.7071068,0.7071068,0.7071068,0,0)" />
    <path
       sodipodi:type="arc"
       style="fill:url(#linearGradient3067);fill-opacity:1;stroke:none;stroke-width:0.5;stroke-linecap:round;stroke-linejoin:miter;stroke-miterlimit:4;stroke-dasharray:none;stroke-opacity:1"
       id="path2946"
       sodipodi:cx="29.788858"
       sodipodi:cy="18.093018"
       sodipodi:rx="11.011446"
       sodipodi:ry="11.011446"
       d="M 40.800304,18.093018 A 11.011446,11.011446 0 1 1 18.777412,18.093018 A 11.011446,11.011446 0 1 1 40.800304,18.093018 z"
       transform="matrix(0.5786756,-0.5786756,0.5786756,0.5786756,-7.0716833,26.1787)" />
    <rect
       y="22.322676"
       x="0.070826426"
       height="0.092983067"
       width="1.515625"
       id="rect2948"
       style="fill:#000000;fill-opacity:1;stroke:none;stroke-width:0.1;stroke-linecap:round;stroke-linejoin:round;stroke-miterlimit:4;stroke-dasharray:none;stroke-opacity:1"
       transform="matrix(0.7071068,-0.7071068,0.7071068,0.7071068,0,0)" />
    <path
       style="fill:#000000;fill-opacity:1;stroke:none;stroke-width:0.5;stroke-linecap:round;stroke-linejoin:miter;stroke-miterlimit:4;stroke-dasharray:none;stroke-opacity:1"
       d="M 14.37124,13.40929 L 15.608677,14.646727 C 15.65113,14.601949 15.697366,14.558038 15.74126,14.514145 C 15.785153,14.470251 15.829064,14.424015 15.873842,14.381562 L 14.636405,13.144125 C 14.590425,13.18814 14.549055,13.231475 14.503823,13.276708 C 14.458591,13.32194 14.415255,13.36331 14.37124,13.40929 z M 12.338308,16.989018 C 12.304824,17.105337 12.278437,17.225192 12.24992,17.342572 L 13.929299,17.784513 C 13.956598,17.669491 13.984427,17.544705 14.017687,17.43096 L 12.338308,16.989018 z M 18.216133,11.111193 L 18.658075,12.790572 C 18.77182,12.757312 18.896606,12.729483 19.011629,12.702183 L 18.569687,11.022805 C 18.452307,11.051322 18.332453,11.077709 18.216133,11.111193 z M 12.227823,21.474727 C 12.256516,21.592178 12.282572,21.711877 12.316211,21.828281 L 14.017687,21.364242 C 13.982412,21.245852 13.958151,21.130457 13.929299,21.010688 L 12.227823,21.474727 z M 22.701842,11.000708 L 22.237803,12.702183 C 22.357572,12.731036 22.472967,12.755297 22.591357,12.790572 L 23.055396,11.089096 C 22.938992,11.055457 22.819293,11.029401 22.701842,11.000708 z M 14.393337,25.408009 C 14.437367,25.453989 14.480688,25.495359 14.52592,25.540591 C 14.571152,25.585823 14.61253,25.629151 14.658502,25.673174 L 15.895939,24.435737 C 15.851173,24.393272 15.80725,24.347048 15.763357,24.303154 C 15.719463,24.259261 15.673252,24.21535 15.630774,24.170572 L 14.393337,25.408009 z M 25.397687,14.403659 C 25.442465,14.446136 25.486376,14.492348 25.530269,14.536242 C 25.574163,14.580135 25.620387,14.624058 25.662852,14.668824 L 26.900289,13.431387 C 26.856267,13.385415 26.812939,13.344037 26.767706,13.298805 C 26.722474,13.253573 26.681104,13.210252 26.635124,13.166222 L 25.397687,14.403659 z M 18.680172,26.026727 L 18.238231,27.7503 C 18.345866,27.781234 18.461154,27.789913 18.569687,27.816591 L 19.033726,26.115115 C 18.919035,26.087484 18.793601,26.060303 18.680172,26.026727 z M 27.253842,17.453057 C 27.287418,17.566486 27.314599,17.69192 27.342231,17.806611 L 29.043706,17.342572 C 29.017028,17.234039 29.00835,17.118751 28.977415,17.011115 L 27.253842,17.453057 z M 22.259901,26.115115 L 22.701842,27.838688 C 22.819023,27.810265 22.939252,27.78368 23.055396,27.7503 L 22.613454,26.026727 C 22.500025,26.060303 22.374591,26.087484 22.259901,26.115115 z M 27.342231,21.032785 C 27.314599,21.147476 27.287418,21.27291 27.253842,21.386339 L 28.977415,21.828281 C 29.010795,21.712137 29.03738,21.591908 29.065803,21.474727 L 27.342231,21.032785 z M 25.397687,24.435737 L 26.635124,25.673174 C 26.681096,25.629151 26.722474,25.585823 26.767706,25.540591 C 26.812939,25.495359 26.856267,25.453981 26.900289,25.408009 L 25.662852,24.170572 C 25.620387,24.215338 25.574163,24.259261 25.530269,24.303154 C 25.486376,24.347048 25.442453,24.393272 25.397687,24.435737 z"
       id="path2950"
       sodipodi:nodetypes="ccsccsccccccccccccccccccccccsccscccsccsccccccccccccccccccccccccsccsc" />
    <rect
       style="fill:#000000;fill-opacity:1;stroke:none;stroke-width:0.1;stroke-linecap:round;stroke-linejoin:round;stroke-miterlimit:4;stroke-dasharray:none;stroke-opacity:1"
       id="rect2952"
       width="1.515625"
       height="0.092983067"
       x="0.070826426"
       y="23.168825"
       transform="matrix(0.7071068,-0.7071068,0.7071068,0.7071068,0,0)" />
    <path
       id="path2954"
       d="M 19.9839,18.80098 C 19.58911,19.19577 19.611208,19.842499 20.005998,20.23729 C 20.08869,20.319983 20.171404,20.366016 20.271163,20.414067 L 19.431473,23.684436 C 19.125677,23.66481 18.846482,23.862869 18.768561,24.170572 C 18.690641,24.478276 18.865937,24.771466 19.144211,24.899776 C 19.14421,24.899775 18.525493,27.772397 18.525493,27.772397 L 19.365182,24.94397 C 19.670987,24.96357 19.928077,24.787634 20.005998,24.479931 C 20.08392,24.172229 19.930725,23.856914 19.652444,23.72863 L 20.492134,20.502455 C 20.813485,20.567646 21.171148,20.486352 21.420211,20.23729 C 21.716304,19.941198 21.789228,19.497724 21.641182,19.132436 L 22.458774,18.712591 C 22.622529,18.936256 22.929166,19.03585 23.187978,18.911465 C 23.44679,18.787081 23.547584,18.494051 23.47524,18.226455 L 23.828794,18.049679 C 23.828794,18.049679 25.552367,17.121601 25.552367,17.121601 L 23.740405,17.872902 L 23.408949,18.027581 C 23.245195,17.803917 22.960653,17.72642 22.701842,17.850805 C 22.443032,17.975188 22.298042,18.268218 22.370386,18.535814 L 21.5086,18.955659 C 21.475914,18.909482 21.461557,18.864423 21.420211,18.823077 C 21.025421,18.428286 20.378691,18.406189 19.9839,18.80098 z M 22.591357,18.093873 C 22.630452,18.05084 22.691371,18.00966 22.746036,17.983387 C 22.964701,17.878296 23.237568,17.963597 23.342658,18.182261 C 23.447747,18.400925 23.340351,18.651696 23.121687,18.756785 C 22.903025,18.861876 22.630155,18.776575 22.525066,18.557912 C 22.446249,18.393914 22.474072,18.222971 22.591357,18.093873 z M 19.011629,24.015892 C 19.125741,23.860476 19.32489,23.767645 19.519862,23.817018 C 19.779826,23.882848 19.939252,24.175749 19.873415,24.435737 C 19.807583,24.695699 19.558854,24.855121 19.298891,24.78929 C 19.038929,24.723459 18.857409,24.452631 18.92324,24.192669 C 18.9397,24.127672 18.973591,24.067697 19.011629,24.015892 z"
       style="opacity:0.25;fill:#000000;fill-opacity:1;stroke:none;stroke-width:0.5;stroke-linecap:round;stroke-linejoin:miter;stroke-miterlimit:4;stroke-dasharray:none;stroke-opacity:1" />
    <path
       id="path2956"
       d="M 13.907201,13.917523 C 13.861294,13.97389 13.818887,14.037054 13.774619,14.0943 L 14.37124,14.558339 C 14.441639,14.467424 14.517276,14.381619 14.592211,14.293174 L 14.017687,13.807038 C 13.983889,13.847032 13.940155,13.877062 13.907201,13.917523 z M 15.034153,12.790572 L 15.520289,13.365096 C 15.616713,13.2834 15.708198,13.198333 15.807551,13.122028 L 15.321415,12.547504 C 15.223077,12.623547 15.129865,12.709689 15.034153,12.790572 z M 13.487357,14.514145 C 13.414088,14.621173 13.356386,14.736082 13.288483,14.845601 L 13.907201,15.243348 C 13.975213,15.132998 14.032113,15.019474 14.106075,14.911892 L 13.487357,14.514145 z M 15.74126,12.260242 L 16.161104,12.856863 C 16.260425,12.789156 16.368801,12.742743 16.470464,12.680086 L 16.072716,12.061368 C 15.963197,12.129271 15.848288,12.186973 15.74126,12.260242 z M 13.023318,15.287543 C 12.961044,15.403269 12.903153,15.523212 12.846541,15.641096 L 13.509454,15.994649 C 13.567575,15.871846 13.599314,15.739254 13.664133,15.618999 L 13.023318,15.287543 z M 16.514658,11.796203 L 16.846114,12.437018 C 16.966369,12.372199 17.098961,12.34046 17.221765,12.282339 L 16.890308,11.597329 C 16.763496,11.657697 16.638986,11.7293 16.514658,11.796203 z M 12.603473,16.149329 C 12.559657,16.258086 12.532203,16.370667 12.492988,16.480785 L 13.200095,16.74595 C 13.23752,16.64002 13.268502,16.519047 13.31058,16.414494 L 12.62557,16.127232 C 12.621927,16.136187 12.607085,16.140364 12.603473,16.149329 z M 17.354347,11.398455 L 17.641609,12.083465 C 17.7546,12.03799 17.880571,11.990922 17.995163,11.950882 L 17.7079,11.265873 C 17.597782,11.305088 17.485201,11.332542 17.376444,11.376358 C 17.367479,11.37997 17.363302,11.394812 17.354347,11.398455 z M 12.117337,17.872902 C 12.096356,17.991219 12.089191,18.107502 12.073143,18.226455 L 12.824444,18.359038 C 12.840824,18.233141 12.868316,18.10851 12.890735,17.983387 L 12.117337,17.872902 z M 19.100017,10.890222 L 19.210502,11.66362 C 19.335625,11.641201 19.460256,11.613709 19.586153,11.597329 L 19.45357,10.846028 C 19.334617,10.862076 19.218334,10.869241 19.100017,10.890222 z M 12.028949,18.756785 C 12.019914,18.880712 12.010593,19.008274 12.006852,19.132436 L 12.758153,19.17663 C 12.761498,19.053799 12.727045,18.923563 12.736056,18.80098 L 12.028949,18.756785 z M 19.983901,10.801834 L 20.028095,11.508941 C 20.158108,11.499383 20.295559,11.512125 20.425842,11.508941 L 20.381648,10.75764 C 20.249813,10.761265 20.115478,10.792241 19.983901,10.801834 z M 11.984755,19.684863 C 11.989009,19.812455 11.997014,19.933164 12.006852,20.060514 L 12.78025,19.994222 C 12.770675,19.867693 12.7617,19.745345 12.758153,19.618572 L 11.984755,19.684863 z M 20.911978,10.75764 L 20.867784,11.508941 C 20.987557,11.512606 21.101789,11.544089 21.221337,11.553135 L 21.287629,10.779737 C 21.160279,10.769899 21.03957,10.761894 20.911978,10.75764 z M 12.073143,20.568747 C 12.090006,20.692372 12.117262,20.821447 12.139434,20.944397 L 12.868638,20.833912 C 12.845432,20.707932 12.819448,20.585025 12.802347,20.458261 L 12.073143,20.568747 z M 21.795862,10.846028 L 21.685376,11.575232 C 21.81214,11.592333 21.935047,11.618317 22.061027,11.641523 L 22.193609,10.890222 C 22.064773,10.866712 21.925445,10.863703 21.795862,10.846028 z M 12.515085,22.336514 C 12.555313,22.448391 12.580625,22.557496 12.62557,22.66797 L 13.332677,22.402805 C 13.288168,22.294504 13.26173,22.181142 13.222192,22.071348 L 12.515085,22.336514 z M 23.563629,11.28797 L 23.276367,11.972979 C 23.395061,12.01525 23.512957,12.057494 23.62992,12.105562 L 23.917182,11.420552 C 23.908446,11.416964 23.90383,11.402013 23.895085,11.398455 C 23.784612,11.353509 23.675506,11.328198 23.563629,11.28797 z M 12.846541,23.154106 C 12.898306,23.262233 12.944744,23.379223 13.001221,23.485562 L 13.686231,23.154106 C 13.629446,23.048228 13.583209,22.930489 13.531551,22.822649 L 12.846541,23.154106 z M 24.381221,11.619426 L 24.049765,12.304436 C 24.157604,12.356094 24.275343,12.40233 24.381221,12.459115 L 24.712677,11.774106 C 24.606338,11.71763 24.489348,11.671191 24.381221,11.619426 z M 13.288483,23.949601 C 13.356839,24.06031 13.413591,24.172868 13.487357,24.281057 L 14.106075,23.88331 C 14.032272,23.775455 13.975113,23.662461 13.907201,23.551853 L 13.288483,23.949601 z M 25.176716,12.061368 L 24.778968,12.680086 C 24.889576,12.747998 25.00257,12.805157 25.110425,12.87896 L 25.508172,12.260242 C 25.399984,12.186476 25.287425,12.129724 25.176716,12.061368 z M 13.796716,24.722999 C 13.872929,24.821337 13.958786,24.914549 14.039784,25.010261 L 14.614308,24.524125 C 14.532487,24.427701 14.447737,24.336215 14.37124,24.236863 L 13.796716,24.722999 z M 25.950114,12.569601 L 25.463978,13.144125 C 25.56333,13.220622 25.654816,13.305372 25.75124,13.387193 L 26.237376,12.812669 C 26.141664,12.731671 26.048452,12.645814 25.950114,12.569601 z M 15.520289,25.430106 L 15.034153,26.00463 C 15.12982,26.086174 15.223124,26.17099 15.321415,26.247698 L 15.807551,25.673174 C 15.708651,25.596426 15.616284,25.512197 15.520289,25.430106 z M 26.657221,14.293174 C 26.739312,14.389169 26.823542,14.481536 26.900289,14.580436 L 27.474813,14.0943 C 27.398106,13.996009 27.313289,13.902704 27.231745,13.807038 L 26.657221,14.293174 z M 16.161104,25.938339 L 15.763357,26.557057 C 15.870766,26.630798 15.984916,26.687581 16.094813,26.755931 L 16.492561,26.137213 C 16.382379,26.069033 16.26855,26.012437 16.161104,25.938339 z M 27.165454,14.933989 C 27.239552,15.041435 27.296148,15.155263 27.364328,15.265446 L 27.983046,14.867698 C 27.914696,14.757801 27.857913,14.64365 27.784172,14.536242 L 27.165454,14.933989 z M 16.868211,26.380281 L 16.536755,27.06529 C 16.642358,27.121898 16.760835,27.168059 16.868211,27.21997 L 17.199667,26.53496 C 17.08955,26.48182 16.976275,26.438826 16.868211,26.380281 z M 27.607396,15.641096 C 27.670604,15.757769 27.727264,15.875593 27.784172,15.994649 L 28.447085,15.641096 C 28.395174,15.53372 28.349013,15.415243 28.292405,15.30964 L 27.607396,15.641096 z M 17.641609,26.711737 L 17.354347,27.440941 C 17.463444,27.485778 17.575324,27.511237 17.685803,27.551426 L 17.995163,26.844319 C 17.880386,26.803412 17.754771,26.758114 17.641609,26.711737 z M 27.938852,16.414494 C 27.980134,16.515225 28.034485,16.621835 28.071435,16.723853 L 28.778541,16.458688 C 28.739587,16.351603 28.689279,16.255118 28.645959,16.149329 L 27.938852,16.414494 z M 19.210502,27.175776 L 19.100017,27.949174 C 19.218052,27.970437 19.334906,27.977032 19.45357,27.993368 L 19.586153,27.242067 C 19.463623,27.225587 19.3323,27.198 19.210502,27.175776 z M 28.402891,17.983387 C 28.425115,18.105185 28.452702,18.236507 28.469182,18.359038 L 29.220483,18.226455 C 29.204147,18.107791 29.197552,17.990937 29.176289,17.872902 L 28.402891,17.983387 z M 20.028095,27.286261 L 20.005998,28.059659 C 20.122006,28.068117 20.243342,28.055859 20.359551,28.059659 L 20.403745,27.308358 C 20.277332,27.304449 20.154239,27.296201 20.028095,27.286261 z M 28.513376,18.80098 C 28.523316,18.927124 28.531564,19.050217 28.535473,19.17663 L 29.286774,19.132436 C 29.282974,19.016227 29.295232,18.894891 29.286774,18.778882 L 28.513376,18.80098 z M 20.845687,27.308358 L 20.889881,28.059659 C 21.020631,28.05604 21.157119,28.069175 21.287629,28.059659 L 21.243434,27.308358 C 21.110306,27.318451 20.979091,27.30498 20.845687,27.308358 z M 28.55757,19.640669 C 28.554036,19.76709 28.545038,19.890152 28.535473,20.016319 L 29.286774,20.060514 C 29.295789,19.936873 29.305149,19.808725 29.308871,19.684863 L 28.55757,19.640669 z M 21.707473,27.242067 L 21.795862,27.993368 C 21.929186,27.975704 22.061066,27.973051 22.193609,27.949174 L 22.061027,27.197873 C 21.947165,27.218288 21.821969,27.226668 21.707473,27.242067 z M 28.469182,20.480358 C 28.453783,20.594854 28.445403,20.72005 28.424988,20.833912 L 29.176289,20.966494 C 29.200166,20.83395 29.202819,20.702071 29.220483,20.568747 L 28.469182,20.480358 z M 23.276367,26.866416 L 23.563629,27.551426 C 23.675272,27.511432 23.784831,27.485667 23.895085,27.440941 L 23.917182,27.418844 L 23.62992,26.733834 C 23.517175,26.779554 23.390694,26.826113 23.276367,26.866416 z M 28.071435,22.071348 C 28.033766,22.177036 28.003255,22.298479 27.960949,22.402805 L 28.645959,22.690067 L 28.668056,22.66797 C 28.712783,22.557716 28.738547,22.448157 28.778541,22.336514 L 28.071435,22.071348 z M 24.049765,26.53496 L 24.381221,27.21997 C 24.500617,27.162922 24.639649,27.128126 24.756871,27.06529 L 24.425415,26.380281 C 24.305374,26.445315 24.172325,26.476596 24.049765,26.53496 z M 27.762075,22.822649 C 27.708064,22.936069 27.689216,23.064932 27.629493,23.176203 L 28.270308,23.507659 C 28.331911,23.392508 28.391064,23.271353 28.447085,23.154106 L 27.762075,22.822649 z M 24.801066,26.137213 L 25.198813,26.755931 C 25.30871,26.687581 25.422861,26.630798 25.530269,26.557057 L 25.110425,25.960436 C 25.011233,26.028271 24.902573,26.074401 24.801066,26.137213 z M 27.386425,23.551853 C 27.318684,23.662291 27.261215,23.775594 27.187551,23.88331 L 27.784172,24.303154 C 27.863875,24.187062 27.931739,24.06859 28.005143,23.949601 L 27.386425,23.551853 z M 25.463978,25.695271 L 25.950114,26.269795 C 26.048367,26.193667 26.141721,26.107668 26.237376,26.026727 L 25.75124,25.452203 C 25.654879,25.533961 25.563235,25.618869 25.463978,25.695271 z M 26.922386,24.236863 C 26.845984,24.33612 26.761077,24.427764 26.679318,24.524125 L 27.253842,25.010261 C 27.334783,24.914606 27.420782,24.821252 27.49691,24.722999 L 26.922386,24.236863 z"
       style="fill:#dddddd;fill-opacity:1;stroke:none;stroke-width:0.5;stroke-linecap:round;stroke-linejoin:miter;stroke-miterlimit:4;stroke-dasharray:none;stroke-opacity:1"
       sodipodi:nodetypes="cccccccccccccccccccccccccccccccccccccccccsccccccccccccccccccccccccccccccccccccccccccccccccccsccccccccccccccccccccccccccccccccccccccccccccccccccccccccccccccccccccccccccccccccccccccccccccccccccccccccccccccccccccccccccccccccccccccccccccccccccccccccc" />
    <path
       id="path2958"
       d="M 13.99559,14.050106 L 14.349143,14.359465 C 14.362174,14.343903 14.358227,14.308469 14.37124,14.293174 L 14.017687,14.028009 C 14.011229,14.035937 14.002173,14.041536 13.99559,14.050106 z M 15.255124,12.790572 L 15.520289,13.144125 C 15.535386,13.130936 15.57116,13.135324 15.58658,13.122028 L 15.321415,12.768475 C 15.30397,12.783325 15.272828,12.775204 15.255124,12.790572 z M 13.531551,14.735115 C 13.520507,14.754111 13.520712,14.781754 13.509454,14.801407 L 13.863007,15.022378 C 13.874276,15.002612 13.873274,14.976336 13.885104,14.956086 L 13.531551,14.735115 z M 15.962231,12.304436 L 16.205299,12.635892 C 16.216913,12.629614 16.238175,12.641899 16.249493,12.635892 L 16.028522,12.282339 C 16.008869,12.293597 15.981226,12.293392 15.962231,12.304436 z M 16.713532,11.862494 L 16.912405,12.238145 C 16.942719,12.226467 16.972467,12.204203 17.000794,12.19395 L 16.80192,11.8183 C 16.771329,11.834681 16.744581,11.845503 16.713532,11.862494 z M 13.045415,15.574805 L 13.421066,15.773679 C 13.431319,15.745352 13.453583,15.715604 13.46526,15.68529 L 13.111706,15.508513 C 13.097704,15.536341 13.059206,15.546635 13.045415,15.574805 z M 12.713959,16.304009 C 12.70444,16.333273 12.679438,16.361209 12.669765,16.392397 L 13.111706,16.569174 C 13.118671,16.54665 13.126303,16.526264 13.133803,16.502882 L 12.713959,16.304009 z M 17.531124,11.486844 L 17.729998,11.906688 C 17.761591,11.894641 17.786705,11.874156 17.818386,11.862494 L 17.619512,11.442649 C 17.588325,11.452322 17.560388,11.477324 17.531124,11.486844 z M 12.24992,18.049679 C 12.248342,18.063739 12.251466,18.079532 12.24992,18.093873 L 12.691862,18.182261 C 12.696096,18.158948 12.709587,18.138842 12.713959,18.11597 L 12.24992,18.049679 z M 19.276794,11.022805 L 19.343085,11.486844 C 19.365957,11.482472 19.386063,11.468981 19.409376,11.464746 L 19.320988,11.022805 C 19.306647,11.024351 19.290855,11.021227 19.276794,11.022805 z M 12.161532,18.933562 C 12.160543,18.948816 12.162438,18.962566 12.161532,18.977756 L 12.603473,19.02195 C 12.600318,18.995325 12.606189,18.963381 12.603473,18.933562 L 12.161532,18.933562 z M 20.160677,10.934416 L 20.182774,11.354261 C 20.20496,11.354638 20.227637,11.375777 20.249066,11.376358 L 20.226968,10.912319 C 20.203872,10.915472 20.184968,10.931012 20.160677,10.934416 z M 12.139434,19.839543 C 12.14028,19.853823 12.138513,19.86942 12.139434,19.883737 L 12.62557,19.839543 C 12.624655,19.825466 12.626412,19.809479 12.62557,19.795348 L 12.139434,19.839543 z M 21.066658,10.912319 L 21.022464,11.398455 C 21.036879,11.400637 21.052835,11.396189 21.066658,11.398455 L 21.110852,10.912319 C 21.096535,10.911398 21.080939,10.913165 21.066658,10.912319 z M 12.24992,20.701329 C 12.253953,20.72364 12.267757,20.74498 12.272017,20.76762 L 12.691862,20.701329 C 12.687544,20.678474 12.67393,20.658239 12.669765,20.635038 L 12.24992,20.701329 z M 21.928444,11.022805 L 21.862153,11.442649 C 21.885354,11.446815 21.905589,11.460429 21.928444,11.464746 L 22.016833,11.022805 C 21.988601,11.020139 21.958089,11.025414 21.928444,11.022805 z M 12.691862,22.424902 C 12.698682,22.447042 12.707322,22.470073 12.713959,22.491193 L 13.1559,22.314416 C 13.148556,22.291283 13.140549,22.270293 13.133803,22.248125 L 12.691862,22.424902 z M 23.652017,11.464746 L 23.453143,11.884591 C 23.484327,11.895959 23.510193,11.916912 23.541532,11.928785 L 23.740405,11.508941 C 23.711373,11.499543 23.683013,11.474295 23.652017,11.464746 z M 13.067512,23.242494 C 13.071775,23.251998 13.085367,23.255238 13.089609,23.264591 L 13.46526,23.065717 C 13.461424,23.057142 13.446924,23.052097 13.443163,23.04362 L 13.067512,23.242494 z M 24.469609,11.840397 L 24.270735,12.216047 C 24.279212,12.219809 24.284257,12.234309 24.292833,12.238145 L 24.491706,11.862494 C 24.482353,11.858251 24.479113,11.844659 24.469609,11.840397 z M 13.509454,23.993795 C 13.520659,24.013334 13.520536,24.041171 13.531551,24.060086 L 13.885104,23.839115 C 13.873277,23.818906 13.874296,23.79258 13.863007,23.772824 L 13.509454,23.993795 z M 25.22091,12.282339 L 24.999939,12.635892 C 25.019695,12.647181 25.046021,12.646161 25.066231,12.657989 L 25.287202,12.304436 C 25.268286,12.29342 25.240449,12.293544 25.22091,12.282339 z M 14.017687,24.722999 C 14.032539,24.740457 14.024431,24.771589 14.039784,24.78929 L 14.393337,24.524125 C 14.380155,24.509021 14.38452,24.473249 14.37124,24.457834 L 14.017687,24.722999 z M 25.950114,12.790572 L 25.684949,13.144125 C 25.700364,13.157405 25.736137,13.15304 25.75124,13.166222 L 26.016405,12.812669 C 25.998704,12.797316 25.967573,12.805424 25.950114,12.790572 z M 15.520289,25.651077 L 15.255124,26.00463 C 15.272811,26.019922 15.303912,26.011881 15.321415,26.026727 L 15.58658,25.673174 C 15.571143,25.659924 15.535456,25.664266 15.520289,25.651077 z M 26.878192,14.293174 C 26.891381,14.30834 26.887039,14.344027 26.900289,14.359465 L 27.253842,14.0943 C 27.238997,14.076797 27.247037,14.045696 27.231745,14.028009 L 26.878192,14.293174 z M 16.205299,26.15931 L 15.984328,26.512863 C 16.003282,26.523863 16.03099,26.523734 16.050619,26.53496 L 16.27159,26.181407 C 16.251827,26.170159 16.225571,26.171135 16.205299,26.15931 z M 27.386425,14.978183 C 27.39825,14.998455 27.397274,15.024712 27.408522,15.044475 L 27.762075,14.823504 C 27.750849,14.803874 27.750978,14.776167 27.739978,14.757213 L 27.386425,14.978183 z M 16.9566,26.601251 L 16.757726,26.976902 C 16.767093,26.981132 16.770287,26.994742 16.779823,26.998999 L 16.978697,26.623348 C 16.970296,26.619645 16.965101,26.605031 16.9566,26.601251 z M 27.828367,15.729484 C 27.836771,15.746375 27.864314,15.75682 27.872561,15.773679 L 28.248211,15.574805 C 28.239604,15.555458 28.212476,15.549345 28.204017,15.530611 L 27.828367,15.729484 z M 17.729998,26.888514 L 17.531124,27.352552 C 17.552328,27.359177 17.575102,27.367798 17.597415,27.374649 L 17.818386,26.932708 C 17.786842,26.921185 17.761699,26.900518 17.729998,26.888514 z M 28.115629,16.502882 C 28.123731,16.520776 28.151609,16.528515 28.159823,16.547077 L 28.601765,16.3703 C 28.594224,16.353377 28.565467,16.34358 28.55757,16.326106 L 28.115629,16.502882 z M 19.343085,27.352552 L 19.276794,27.816591 C 19.290859,27.81815 19.306617,27.815059 19.320988,27.816591 L 19.409376,27.374649 C 19.385848,27.370415 19.366238,27.356923 19.343085,27.352552 z M 28.579668,18.11597 C 28.584038,18.139123 28.59753,18.158733 28.601765,18.182261 L 29.043706,18.093873 C 29.042174,18.079502 29.045265,18.063744 29.043706,18.049679 L 28.579668,18.11597 z M 20.13858,27.440941 L 20.160677,27.90498 C 20.174747,27.904717 20.190278,27.905356 20.204871,27.90498 L 20.226968,27.440941 C 20.198688,27.439299 20.166763,27.442865 20.13858,27.440941 z M 28.668056,18.911465 C 28.66998,18.939648 28.666414,18.971573 28.668056,18.999853 L 29.132095,18.977756 C 29.132471,18.963163 29.131832,18.947631 29.132095,18.933562 L 28.668056,18.911465 z M 21.022464,27.440941 L 21.044561,27.90498 C 21.075957,27.905757 21.103282,27.904565 21.132949,27.90498 L 21.088755,27.463038 C 21.066772,27.462639 21.043682,27.441553 21.022464,27.440941 z M 28.690153,19.817446 C 28.689311,19.831595 28.691069,19.847544 28.690153,19.86164 L 29.154192,19.883737 C 29.155182,19.868465 29.153284,19.85475 29.154192,19.839543 L 28.690153,19.817446 z M 21.88425,27.374649 L 21.928444,27.816591 C 21.957644,27.814025 21.988923,27.819256 22.016833,27.816591 L 21.928444,27.374649 C 21.913327,27.376366 21.899089,27.373056 21.88425,27.374649 z M 28.601765,20.657135 C 28.600171,20.671974 28.603481,20.686212 28.601765,20.701329 L 29.043706,20.789717 C 29.046371,20.761808 29.04114,20.730529 29.043706,20.701329 L 28.601765,20.657135 z M 23.453143,26.954805 L 23.652017,27.374649 C 23.683024,27.36508 23.711327,27.339885 23.740405,27.330455 L 23.541532,26.910611 C 23.50986,26.92265 23.484794,26.943189 23.453143,26.954805 z M 28.159823,22.248125 C 28.152893,22.270636 28.145217,22.290984 28.137726,22.314416 L 28.55757,22.51329 C 28.567,22.484212 28.592195,22.455909 28.601765,22.424902 L 28.159823,22.248125 z M 24.270735,26.623348 L 24.469609,26.998999 C 24.493437,26.990196 24.513711,26.98528 24.535901,26.976902 L 24.337027,26.601251 C 24.316016,26.609062 24.290684,26.616153 24.270735,26.623348 z M 27.850464,23.04362 C 27.844257,23.06385 27.835617,23.088022 27.828367,23.109912 L 28.18192,23.286688 C 28.19131,23.268067 28.216829,23.261257 28.226114,23.242494 L 27.850464,23.04362 z M 25.022036,26.181407 L 25.243007,26.53496 C 25.262637,26.523734 25.290344,26.523863 25.309299,26.512863 L 25.066231,26.181407 C 25.054605,26.187679 25.033355,26.175411 25.022036,26.181407 z M 27.430619,23.772824 C 27.419316,23.792594 27.420361,23.818894 27.408522,23.839115 L 27.739978,24.082183 C 27.756769,24.05518 27.767391,24.021472 27.784172,23.993795 L 27.430619,23.772824 z M 25.684949,25.695271 L 25.950114,26.048824 C 25.967575,26.033969 25.998697,26.042087 26.016405,26.026727 L 25.75124,25.673174 C 25.736132,25.686361 25.70037,25.681985 25.684949,25.695271 z M 26.922386,24.457834 C 26.9091,24.473255 26.913476,24.509016 26.900289,24.524125 L 27.253842,24.78929 C 27.269202,24.771581 27.261084,24.74046 27.275939,24.722999 L 26.922386,24.457834 z"
       style="fill:#000000;fill-opacity:1;stroke:none;stroke-width:0.5;stroke-linecap:round;stroke-linejoin:miter;stroke-miterlimit:4;stroke-dasharray:none;stroke-opacity:1" />
    <path
       inkscape:transform-center-x="3.607272"
       inkscape:transform-center-y="2.116157"
       sodipodi:nodetypes="ccscccsccccsssc"
       style="fill:#000000;fill-opacity:1;stroke:none;stroke-width:0.5;stroke-linecap:round;stroke-linejoin:miter;stroke-miterlimit:4;stroke-dasharray:none;stroke-opacity:1"
       d="M 20.47474,19.206867 L 19.372384,23.559999 C 19.066588,23.540374 18.787547,23.746216 18.709625,24.053918 C 18.631705,24.361621 18.784073,24.656003 19.062347,24.784313 C 19.062347,24.784313 18.460445,27.651127 18.460445,27.651127 L 19.295531,24.843363 C 19.601335,24.862962 19.875448,24.676578 19.953368,24.368875 C 20.031289,24.061172 19.883848,23.747332 19.605567,23.619048 L 20.707923,19.265917 C 20.698181,19.263356 20.484528,19.209252 20.47474,19.206867 z M 19.45453,23.725548 C 19.714494,23.791378 19.863751,24.069521 19.797914,24.329509 C 19.732082,24.589471 19.473355,24.743619 19.213392,24.677788 C 18.95343,24.611956 18.799249,24.353247 18.865081,24.093285 C 18.930918,23.833297 19.194567,23.659717 19.45453,23.725548 z"
       id="path2960" />
    <path
       inkscape:transform-center-x="-2.4976295"
       inkscape:transform-center-y="0.83115772"
       sodipodi:nodetypes="ccscccccsccccsssc"
       style="fill:#000000;fill-opacity:1;stroke:none;stroke-width:0.5;stroke-linecap:round;stroke-linejoin:miter;stroke-miterlimit:4;stroke-dasharray:none;stroke-opacity:1"
       d="M 20.546142,19.503027 L 22.393202,18.615331 C 22.556957,18.838994 22.861701,18.91332 23.120513,18.788935 C 23.379324,18.66455 23.495324,18.388016 23.42298,18.12042 L 23.76624,17.955449 C 23.76624,17.955449 25.484437,17.008958 25.484437,17.008958 L 23.671972,17.759302 L 23.328712,17.924272 C 23.164958,17.700608 22.876558,17.618428 22.617747,17.742812 C 22.358936,17.867197 22.22659,18.151587 22.298934,18.419183 L 20.451874,19.306879 C 20.45574,19.315141 20.542106,19.494846 20.546142,19.503027 z M 22.460488,18.462268 C 22.355398,18.243604 22.461929,17.978667 22.680592,17.873578 C 22.899257,17.768488 23.156337,17.858672 23.261426,18.077336 C 23.366514,18.295999 23.27633,18.55308 23.057667,18.658169 C 22.839005,18.763259 22.565577,18.680931 22.460488,18.462268 z"
       id="path2962" />
    <path
       transform="matrix(6.4950592e-2,-6.4950592e-2,6.4950592e-2,6.4950592e-2,17.52643,20.170255)"
       d="M 40.800304,18.093018 A 11.011446,11.011446 0 1 1 18.777412,18.093018 A 11.011446,11.011446 0 1 1 40.800304,18.093018 z"
       sodipodi:ry="11.011446"
       sodipodi:rx="11.011446"
       sodipodi:cy="18.093018"
       sodipodi:cx="29.788858"
       id="path2964"
       style="fill:#000000;fill-opacity:1;stroke:none;stroke-width:0.5;stroke-linecap:round;stroke-linejoin:miter;stroke-miterlimit:4;stroke-dasharray:none;stroke-opacity:1"
       sodipodi:type="arc" />
    <path
       sodipodi:type="arc"
       style="fill:#555753;fill-opacity:1;stroke:none;stroke-width:0.5;stroke-linecap:round;stroke-linejoin:miter;stroke-miterlimit:4;stroke-dasharray:none;stroke-opacity:1"
       id="path2966"
       sodipodi:cx="29.788858"
       sodipodi:cy="18.093018"
       sodipodi:rx="11.011446"
       sodipodi:ry="11.011446"
       d="M 40.800304,18.093018 A 11.011446,11.011446 0 1 1 18.777412,18.093018 A 11.011446,11.011446 0 1 1 40.800304,18.093018 z"
       transform="matrix(2.3800228e-2,-2.3800228e-2,2.3800228e-2,2.3800228e-2,19.496779,19.688977)" />
    <path
       id="path2968"
       d="M 12.846541,11.619426 C 8.5485212,15.917446 8.5706176,22.899852 12.868638,27.197873 C 17.166658,31.495893 24.126967,31.495892 28.424988,27.197873 C 32.723008,22.899853 32.723007,15.939542 28.424988,11.641523 C 24.126968,7.3435032 17.144561,7.3214061 12.846541,11.619426 z M 14.260755,13.03364 C 17.778129,9.5162656 23.4934,9.5383627 27.010774,13.055737 C 30.528149,16.573112 30.528148,22.266285 27.010774,25.783659 C 23.493401,29.301034 17.800226,29.301033 14.282852,25.783659 C 10.765479,22.266286 10.743381,16.551014 14.260755,13.03364 z"
       style="fill:url(#radialGradient3180);fill-opacity:1;stroke:none;stroke-width:0.5;stroke-linecap:round;stroke-linejoin:miter;stroke-miterlimit:4;stroke-dasharray:none;stroke-opacity:1" />
    <path
       id="path2970"
       d="M 12.846541,11.619426 C 8.5485212,15.917446 8.5706176,22.899852 12.868638,27.197873 C 17.166658,31.495893 24.126967,31.495892 28.424988,27.197873 C 32.723008,22.899853 32.723007,15.939542 28.424988,11.641523 C 24.126968,7.3435032 17.144561,7.3214061 12.846541,11.619426 z M 13.818813,12.591698 C 17.580139,8.830372 23.691391,8.8524698 27.452716,12.613795 C 31.214041,16.375122 31.214041,22.464276 27.452716,26.225601 C 23.691392,29.986927 17.602235,29.986926 13.84091,26.225601 C 13.605828,25.990518 13.383857,25.726594 13.177998,25.4743 C 11.119404,22.951358 10.512507,19.639475 11.388133,16.657562 C 11.475696,16.359371 11.580469,16.063838 11.697493,15.773679 C 12.165587,14.613041 12.878482,13.532029 13.818813,12.591698 z"
       style="opacity:0.52459011;fill:url(#radialGradient3177);fill-opacity:1;stroke:none;stroke-width:0.5;stroke-linecap:round;stroke-linejoin:miter;stroke-miterlimit:4;stroke-dasharray:none;stroke-opacity:1" />
    <path
       style="opacity:0.5;fill:url(#radialGradient3174);fill-opacity:1;stroke:none;stroke-width:0.5;stroke-linecap:round;stroke-linejoin:miter;stroke-miterlimit:4;stroke-dasharray:none;stroke-opacity:1"
       d="M 13.222192,12.392824 C 12.089209,13.581178 11.197041,15.065882 10.725221,16.74595 C 10.322712,18.179211 10.660151,19.489208 11.056677,20.082611 C 10.867619,17.399007 11.770082,14.640429 13.818813,12.591698 C 17.580139,8.830372 23.691391,8.8524698 27.452716,12.613795 C 27.797641,12.95872 28.09913,13.338163 28.380794,13.718649 C 28.535292,13.797751 28.66497,13.832552 28.71225,13.784941 C 28.964942,13.530473 26.691957,10.55198 22.746036,9.4539115 C 19.451383,8.5370768 15.714755,9.7784452 13.222192,12.392824 z"
       id="path2972"
       sodipodi:nodetypes="cscsscssc" />
    <path
       style="opacity:0.75;fill:url(#radialGradient3171);fill-opacity:1;stroke:none;stroke-width:0.5;stroke-linecap:round;stroke-linejoin:miter;stroke-miterlimit:4;stroke-dasharray:none;stroke-opacity:1"
       d="M 18.194036,10.735543 C 18.553885,10.635949 18.931062,10.568788 19.298891,10.514572 C 18.927143,10.568699 18.557843,10.634901 18.194036,10.735543 z M 19.298891,10.514572 C 19.622963,10.466805 19.944263,10.438735 20.271163,10.426183 C 19.949889,10.438435 19.617546,10.468175 19.298891,10.514572 z M 21.110852,9.8074649 C 23.422586,9.9228188 25.689595,10.850674 27.452716,12.613795 C 31.214041,16.375122 31.214041,22.464276 27.452716,26.225601 C 26.031076,27.647241 24.272026,28.508168 22.436677,28.855154 C 21.633999,29.703904 24.448077,29.431016 26.126891,28.391115 C 28.285365,27.0541 30.015702,24.876955 30.745182,22.181834 C 32.20414,16.791591 29.094378,11.328054 24.292833,10.028436 C 23.242495,9.7441449 22.154422,9.6773863 21.110852,9.8074649 z M 24.093959,11.111193 C 24.412957,11.243967 24.73914,11.404436 25.044134,11.575232 C 24.732386,11.399619 24.420321,11.246997 24.093959,11.111193 z M 25.044134,11.575232 C 25.397622,11.773185 25.731063,11.989128 26.0606,12.238145 C 25.738365,11.995108 25.389119,11.769568 25.044134,11.575232 z M 26.0606,12.238145 C 26.390136,12.487161 26.710707,12.75567 27.010774,13.055737 C 26.707421,12.752384 26.393829,12.489473 26.0606,12.238145 z"
       id="path2974" />
    <path
       id="path2976"
       d="M 14.260755,13.03364 C 13.957402,13.336993 13.693891,13.650585 13.443163,13.983814 C 13.386036,14.059428 13.320792,14.127813 13.266386,14.204785 C 13.212181,14.281689 13.163208,14.369656 13.111706,14.447853 C 12.973591,14.657656 12.854677,14.870475 12.736056,15.088669 C 12.711024,15.134509 12.67184,15.175071 12.647667,15.221251 C 12.602618,15.307716 12.55712,15.398831 12.515085,15.486416 C 12.4309,15.661405 12.366296,15.837713 12.294114,16.016746 C 12.081631,16.543468 11.894343,17.078688 11.785881,17.629834 C 11.767514,17.723543 11.779155,17.822946 11.763784,17.917096 C 11.736171,18.085085 11.715549,18.256273 11.697493,18.425329 C 11.693565,18.462476 11.678863,18.498628 11.675396,18.535814 C 11.660567,18.693465 11.659841,18.841727 11.653299,18.999853 C 11.645784,19.175028 11.650665,19.354873 11.653299,19.530183 C 11.656833,19.742564 11.656958,19.959211 11.675396,20.170999 C 11.679996,20.22335 11.691983,20.273398 11.697493,20.325679 C 11.709857,20.444311 11.724639,20.56106 11.741687,20.679232 C 11.763302,20.829321 11.778815,20.994208 11.807978,21.143271 C 11.809665,21.151794 11.828364,21.156849 11.830075,21.165368 C 11.867856,21.355414 11.890505,21.530021 11.940561,21.717795 C 11.955768,21.775194 11.968402,21.837421 11.984755,21.894572 C 11.991439,21.917693 11.99998,21.937784 12.006852,21.960863 C 12.068827,22.171022 12.128214,22.351377 12.205726,22.557484 C 12.236162,22.638959 12.28335,22.71981 12.316211,22.800552 C 12.407666,23.023683 12.515595,23.246745 12.62557,23.463465 C 12.689506,23.589655 12.754226,23.715428 12.824444,23.839115 C 12.835693,23.858931 12.835132,23.885658 12.846541,23.905407 C 13.233721,24.575643 13.71017,25.210978 14.282852,25.783659 C 17.800226,29.301033 23.493401,29.301034 27.010774,25.783659 C 30.528148,22.266285 30.528149,16.573112 27.010774,13.055737 C 26.414077,12.459039 25.745876,11.970535 25.044134,11.575232 C 24.967614,11.532126 24.900639,11.483367 24.823163,11.442649 C 24.683549,11.369122 24.545823,11.30951 24.403318,11.243776 C 24.282018,11.187924 24.150821,11.139318 24.027668,11.089096 C 23.925746,11.047615 23.821384,10.994129 23.718308,10.956513 C 23.54651,10.893669 23.362537,10.831854 23.187978,10.779737 C 23.127591,10.761756 23.07188,10.752238 23.011201,10.735543 C 22.793054,10.675049 22.591634,10.624732 22.370386,10.580863 C 22.356487,10.578143 22.340101,10.583516 22.326192,10.580863 C 22.053121,10.528101 21.76248,10.475721 21.486502,10.44828 C 21.282431,10.428289 21.09465,10.432332 20.889881,10.426183 C 20.807653,10.423513 20.729068,10.404519 20.646813,10.404086 C 20.495358,10.403724 20.334074,10.418972 20.182774,10.426183 C 20.045622,10.432594 19.899709,10.435628 19.76293,10.44828 C 19.659553,10.457919 19.55662,10.479279 19.45357,10.492475 C 19.22406,10.521864 18.995648,10.555916 18.768561,10.60296 C 18.533522,10.652083 18.292667,10.711603 18.061454,10.779737 C 17.789736,10.859806 17.508466,10.960641 17.243862,11.066999 C 17.055736,11.142846 16.875076,11.220966 16.691434,11.310067 C 16.610156,11.349328 16.528676,11.378687 16.448367,11.420552 C 16.206468,11.54717 15.973141,11.712296 15.74126,11.862494 C 15.722893,11.874379 15.693267,11.872558 15.674968,11.884591 C 15.528384,11.981132 15.374963,12.087907 15.233027,12.19395 C 15.127756,12.272696 15.026191,12.33092 14.923667,12.414921 C 14.891163,12.4414 14.867495,12.476307 14.835279,12.50331 C 14.641467,12.666839 14.443433,12.850961 14.260755,13.03364 z M 14.702697,13.475581 C 16.653964,11.524314 19.241918,10.610986 21.72957,10.735543 C 21.743785,10.736255 21.759555,10.734763 21.773765,10.735543 C 23.621358,10.982321 25.416401,11.814916 26.833998,13.232513 C 30.253792,16.652306 30.253791,22.187089 26.833998,25.606882 C 23.414204,29.026677 17.879422,29.026676 14.459629,25.606882 C 13.053007,24.200261 12.216544,22.423149 11.962658,20.590844 C 11.96081,20.561296 11.964211,20.532029 11.962658,20.502455 C 11.83165,18.008209 12.746102,15.432176 14.702697,13.475581 z"
       style="opacity:0.1762295;fill:url(#linearGradient3168);fill-opacity:1;stroke:none;stroke-width:0.5;stroke-linecap:round;stroke-linejoin:miter;stroke-miterlimit:4;stroke-dasharray:none;stroke-opacity:1" />
    <path
       transform="matrix(0.5786756,-0.5786756,0.5786756,0.5786756,-7.0716833,26.1787)"
       d="M 40.800304,18.093018 A 11.011446,11.011446 0 1 1 18.777412,18.093018 A 11.011446,11.011446 0 1 1 40.800304,18.093018 z"
       sodipodi:ry="11.011446"
       sodipodi:rx="11.011446"
       sodipodi:cy="18.093018"
       sodipodi:cx="29.788858"
       id="path2978"
       style="opacity:0.75;fill:url(#radialGradient3079);fill-opacity:1;stroke:none;stroke-width:0.5;stroke-linecap:round;stroke-linejoin:miter;stroke-miterlimit:4;stroke-dasharray:none;stroke-opacity:1"
       sodipodi:type="arc" />
    <path
       id="path2980"
       d="M 13.818813,12.591698 C 10.057488,16.353023 10.079585,22.464276 13.84091,26.225601 C 17.602235,29.986926 23.691392,29.986927 27.452716,26.225601 C 31.214041,22.464276 31.214041,16.375122 27.452716,12.613795 C 23.691391,8.8524698 17.580139,8.830372 13.818813,12.591698 z M 14.260755,13.03364 C 17.778129,9.5162656 23.4934,9.5383627 27.010774,13.055737 C 30.528149,16.573112 30.528148,22.266285 27.010774,25.783659 C 23.493401,29.301034 17.800226,29.301033 14.282852,25.783659 C 10.765479,22.266286 10.743381,16.551014 14.260755,13.03364 z"
       style="opacity:0.75;fill:url(#radialGradient3164);fill-opacity:1;stroke:none;stroke-width:0.5;stroke-linecap:round;stroke-linejoin:miter;stroke-miterlimit:4;stroke-dasharray:none;stroke-opacity:1" />
    <path
       sodipodi:nodetypes="cscsccc"
       id="path2982"
       d="M 27.555618,12.635892 C 31.301896,16.382169 31.301895,22.457227 27.555618,26.203504 C 25.682481,28.076643 23.229357,29.009834 20.771813,29.009834 C 24.824927,29.261559 29.071776,26.526786 30.295657,22.005057 C 31.279917,18.368634 29.98628,14.830606 27.555618,12.635892 z M 20.771813,29.009834 C 20.010715,29.009834 20.269081,28.978611 20.771813,29.009834 z"
       style="opacity:0.75;fill:url(#radialGradient3161);fill-opacity:1;stroke:none;stroke-width:0.5;stroke-linecap:round;stroke-linejoin:miter;stroke-miterlimit:4;stroke-dasharray:none;stroke-opacity:1" />
    <path
       style="opacity:0.75;fill:url(#radialGradient3158);fill-opacity:1;stroke:none;stroke-width:0.5;stroke-linecap:round;stroke-linejoin:miter;stroke-miterlimit:4;stroke-dasharray:none;stroke-opacity:1"
       d="M 13.149778,26.042371 C 9.3044672,22.19706 9.3044658,15.961409 13.149776,12.116099 C 15.072429,10.193444 17.590403,9.2355831 20.112914,9.235588 C 15.952654,8.9772041 11.593537,11.784272 10.337302,16.425533 C 9.327026,20.158086 10.654862,23.789639 13.149778,26.042371 z M 20.112914,9.235588 C 20.894128,9.235588 20.628935,9.2676348 20.112914,9.235588 z"
       id="path2984"
       sodipodi:nodetypes="cscsccc" />
    <path
       sodipodi:nodetypes="cczcsssczcssc"
       id="path2986"
       d="M 27.342231,7.0232319 C 26.737632,7.6278308 26.930036,8.8464283 27.695784,10.07263 C 27.695784,10.07263 27.815946,10.046908 28.127807,9.7350466 C 28.43967,9.4231842 28.469182,9.3434261 28.469182,9.3434261 C 27.958488,8.5803235 27.713711,7.933383 27.983046,7.6640474 C 28.393847,7.2532467 29.727693,7.9060922 30.944056,9.1224552 C 32.160417,10.33882 32.791166,11.650568 32.380367,12.061368 C 32.109077,12.332656 31.464624,12.087657 30.700988,11.575232 C 30.700988,11.575232 30.600165,11.625809 30.309367,11.916607 C 30.01857,12.207404 29.949687,12.370727 29.949687,12.370727 C 31.180911,13.147946 32.41107,13.312296 33.021182,12.702183 C 33.840443,11.882922 33.239018,9.959012 31.67326,8.3932513 C 30.1075,6.827492 28.161492,6.2039702 27.342231,7.0232319 z"
       style="fill:url(#radialGradient3155);fill-opacity:1;stroke:none;stroke-width:0.5;stroke-linecap:round;stroke-linejoin:miter;stroke-miterlimit:4;stroke-dasharray:none;stroke-opacity:1" />
    <path
       id="path2988"
       d="M 27.695784,10.07263 C 27.725771,10.510007 28.004482,11.088435 28.491279,11.575232 C 28.969005,12.052958 29.515946,12.331816 29.949687,12.370727 C 29.949687,12.370727 30.012443,12.219582 30.30324,11.928785 C 30.594038,11.637988 30.700988,11.575232 30.700988,11.575232 C 30.646757,11.148946 30.366589,10.622115 29.905493,10.161018 C 29.444396,9.6999217 28.895469,9.3976562 28.469182,9.3434261 C 28.469182,9.3434261 28.427492,9.4293113 28.115629,9.7411736 C 27.803767,10.053035 27.695784,10.07263 27.695784,10.07263 z"
       style="fill:url(#radialGradient3152);fill-opacity:1;stroke:none;stroke-width:0.5;stroke-linecap:round;stroke-linejoin:miter;stroke-miterlimit:4;stroke-dasharray:none;stroke-opacity:1" />
    <path
       style="opacity:0.46311478;fill:url(#radialGradient3149);fill-opacity:1;stroke:none;stroke-width:0.5;stroke-linecap:round;stroke-linejoin:miter;stroke-miterlimit:4;stroke-dasharray:none;stroke-opacity:1"
       d="M 27.695784,10.07263 C 27.725771,10.510007 28.004482,11.088435 28.491279,11.575232 C 28.969005,12.052958 29.515946,12.331816 29.949687,12.370727 C 29.949687,12.370727 30.012443,12.219582 30.30324,11.928785 C 30.594038,11.637988 30.700988,11.575232 30.700988,11.575232 C 30.646757,11.148946 30.366589,10.622115 29.905493,10.161018 C 29.444396,9.6999217 28.895469,9.3976562 28.469182,9.3434261 C 28.469182,9.3434261 28.427492,9.4293113 28.115629,9.7411736 C 27.803767,10.053035 27.695784,10.07263 27.695784,10.07263 z"
       id="path2990" />
    <path
       id="path2992"
       d="M 27.695784,10.07263 C 27.725771,10.510007 28.004482,11.088435 28.491279,11.575232 C 28.969005,12.052958 29.515946,12.331816 29.949687,12.370727 C 29.949687,12.370727 30.012443,12.219582 30.30324,11.928785 C 30.594038,11.637988 30.700988,11.575232 30.700988,11.575232 C 30.646757,11.148946 30.366589,10.622115 29.905493,10.161018 C 29.444396,9.6999217 28.895469,9.3976562 28.469182,9.3434261 C 28.469182,9.3434261 28.427492,9.4293113 28.115629,9.7411736 C 27.803767,10.053035 27.695784,10.07263 27.695784,10.07263 z"
       style="opacity:0.25;fill:url(#linearGradient3146);fill-opacity:1;stroke:none;stroke-width:0.5;stroke-linecap:round;stroke-linejoin:miter;stroke-miterlimit:4;stroke-dasharray:none;stroke-opacity:1" />
    <path
       style="opacity:0.5;fill:url(#radialGradient3143);fill-opacity:1;stroke:none;stroke-width:0.5;stroke-linecap:round;stroke-linejoin:miter;stroke-miterlimit:4;stroke-dasharray:none;stroke-opacity:1"
       d="M 27.342231,7.0232319 C 26.737632,7.6278308 26.930036,8.8464283 27.695784,10.07263 C 27.695784,10.07263 27.815946,10.046908 28.127807,9.7350466 C 28.43967,9.4231842 28.469182,9.3434261 28.469182,9.3434261 C 27.958488,8.5803235 27.713711,7.933383 27.983046,7.6640474 C 28.393847,7.2532467 29.727693,7.9060922 30.944056,9.1224552 C 32.160417,10.33882 32.791166,11.650568 32.380367,12.061368 C 32.109077,12.332656 31.464624,12.087657 30.700988,11.575232 C 30.700988,11.575232 30.600165,11.625809 30.309367,11.916607 C 30.01857,12.207404 29.949687,12.370727 29.949687,12.370727 C 31.180911,13.147946 32.41107,13.312296 33.021182,12.702183 C 33.840443,11.882922 33.239018,9.959012 31.67326,8.3932513 C 30.1075,6.827492 28.161492,6.2039702 27.342231,7.0232319 z"
       id="path2994"
       sodipodi:nodetypes="cczcsssczcssc" />
    <path
       sodipodi:nodetypes="csssssssssssssssssc"
       id="path2996"
       d="M 27.563202,7.2442028 C 27.343414,7.4639906 27.237343,7.7862037 27.298036,8.2606688 C 27.348217,8.6529504 27.738249,8.6690668 27.65159,8.3932513 C 27.598579,8.2245328 27.552915,8.0706345 27.563202,7.9071154 C 27.573488,7.7435962 27.636214,7.568938 27.762075,7.4430765 C 27.950268,7.2548843 28.236866,7.2159142 28.491279,7.2442028 C 28.745692,7.2724913 28.997627,7.3672294 29.286774,7.5093678 C 29.865069,7.7936445 30.537051,8.2735084 31.165027,8.9014843 C 31.793002,9.5294609 32.256105,10.18403 32.535046,10.75764 C 32.674517,11.044445 32.774432,11.300329 32.800211,11.553135 C 32.825991,11.805941 32.787628,12.096049 32.601337,12.282339 C 32.475557,12.408119 32.301101,12.470577 32.137299,12.481212 C 31.973497,12.491848 31.819889,12.44591 31.651163,12.392824 C 31.375336,12.306042 31.366666,12.722949 31.761648,12.768475 C 32.23938,12.823538 32.575966,12.705458 32.800211,12.481212 C 33.10086,12.180563 33.179788,11.631404 32.954891,10.912319 C 32.729994,10.193234 32.205306,9.3672407 31.452289,8.6142222 C 30.699271,7.8612044 29.857473,7.3198985 29.132095,7.0895231 C 28.406716,6.8591478 27.861944,6.94546 27.563202,7.2442028 z"
       style="fill:url(#radialGradient3140);fill-opacity:1;stroke:none;stroke-width:0.5;stroke-linecap:round;stroke-linejoin:miter;stroke-miterlimit:4;stroke-dasharray:none;stroke-opacity:1" />
    <path
       sodipodi:nodetypes="cccc"
       id="path2998"
       d="M 30.656794,11.332164 C 30.490158,11.443004 30.361048,11.544123 30.259046,11.8183 C 30.235515,11.276599 29.87096,10.679446 29.452502,10.194164 C 29.805441,10.283776 30.018217,10.442765 30.656794,11.332164 z"
       style="fill:url(#radialGradient3137);fill-opacity:1;fill-rule:nonzero;stroke:none;stroke-width:1;stroke-linecap:butt;stroke-linejoin:miter;marker:none;marker-start:none;marker-mid:none;marker-end:none;stroke-miterlimit:4;stroke-dasharray:none;stroke-dashoffset:0;stroke-opacity:1;visibility:visible;display:inline;overflow:visible;enable-background:accumulate" />
    <path
       transform="matrix(0.8685695,-0.5997008,0.8130605,1.1775868,-16.818527,11.871114)"
       d="M 36.265625,17.265625 A 0.2109375,0.53125 0 1 1 35.84375,17.265625 A 0.2109375,0.53125 0 1 1 36.265625,17.265625 z"
       sodipodi:ry="0.53125"
       sodipodi:rx="0.2109375"
       sodipodi:cy="17.265625"
       sodipodi:cx="36.054688"
       id="path3000"
       style="fill:none;fill-opacity:1;stroke:url(#radialGradient3101);stroke-width:0.60000002;stroke-linecap:round;stroke-linejoin:round;stroke-miterlimit:4;stroke-dasharray:none;stroke-opacity:1"
       sodipodi:type="arc" />
    <rect
       style="fill:url(#linearGradient3133);fill-opacity:1;stroke:none;stroke-width:0.5;stroke-linecap:round;stroke-linejoin:miter;stroke-miterlimit:4;stroke-dasharray:none;stroke-opacity:1"
       id="rect3002"
       width="0.66216958"
       height="1.9458427"
       x="13.736888"
       y="27.344584"
       transform="matrix(0.7071068,-0.7071068,0.7071068,0.7071068,0,0)" />
    <path
       sodipodi:nodetypes="cccccccccccccccccccccccccccccccccccccccccccccccccccccccc"
       id="path3004"
       d="M 29.090663,9.6942175 L 29.170765,9.7908917 L 29.618231,9.3434261 L 29.596134,9.321329 L 29.176289,9.7411737 L 29.109998,9.6748824 L 29.090663,9.6942175 z M 29.22877,9.8654696 L 29.330969,9.9842416 L 29.795007,9.5202028 L 29.77291,9.4981057 L 29.353066,9.9179503 L 29.264677,9.829562 L 29.22877,9.8654696 z M 29.39726,10.050533 L 29.507745,10.161018 L 29.971784,9.6969795 L 29.949687,9.6748824 L 29.529842,10.094727 L 29.441454,10.006339 L 29.39726,10.050533 z M 29.546415,10.210737 L 29.673473,10.348844 L 30.148561,9.8737562 L 30.126464,9.8516591 L 29.706619,10.271504 L 29.596134,10.161018 L 29.546415,10.210737 z M 29.73424,10.420659 L 29.866823,10.553242 L 30.347435,10.07263 L 30.325337,10.050533 L 29.905493,10.470378 L 29.795007,10.359892 L 29.73424,10.420659 z M 29.916541,10.591912 L 30.032551,10.696873 L 30.502114,10.22731 L 30.480017,10.205212 L 30.060172,10.625057 L 29.971784,10.536669 L 29.916541,10.591912 z M 30.112653,10.749353 L 30.231425,10.851552 L 30.678891,10.404086 L 30.656794,10.381989 L 30.236949,10.801834 L 30.148561,10.713445 L 30.112653,10.749353 z M 30.306002,10.909557 L 30.402677,10.989659 L 30.83357,10.558766 L 30.811473,10.536669 L 30.391629,10.956513 L 30.325337,10.890222 L 30.306002,10.909557 z"
       style="fill:#000000;fill-opacity:1;stroke:none;stroke-width:0.5;stroke-linecap:round;stroke-linejoin:miter;stroke-miterlimit:4;stroke-dasharray:none;stroke-opacity:1" />
    <path
       style="fill:url(#linearGradient3129);fill-opacity:1;stroke:none;stroke-width:0.5;stroke-linecap:round;stroke-linejoin:miter;stroke-miterlimit:4;stroke-dasharray:none;stroke-opacity:1"
       d="M 29.087901,9.6527853 L 29.176289,9.7411737 L 29.640328,9.2771348 L 29.551939,9.1887465 L 29.087901,9.6527853 z M 29.231532,9.8185135 L 29.342017,9.9289989 L 29.817104,9.4539115 L 29.706619,9.3434261 L 29.231532,9.8185135 z M 29.39726,10.006339 L 29.507745,10.116824 L 29.993881,9.6306882 L 29.883396,9.5202028 L 29.39726,10.006339 z M 29.540891,10.172067 L 29.673473,10.304649 L 30.170658,9.8074649 L 30.038075,9.6748824 L 29.540891,10.172067 z M 29.739765,10.370941 L 29.872347,10.503523 L 30.369532,10.006339 L 30.236949,9.8737562 L 29.739765,10.370941 z M 29.92759,10.536669 L 30.038075,10.647154 L 30.524211,10.161018 L 30.413726,10.050533 L 29.92759,10.536669 z M 30.115415,10.702397 L 30.225901,10.812882 L 30.700988,10.337795 L 30.590503,10.22731 L 30.115415,10.702397 z M 30.30324,10.868125 L 30.391629,10.956513 L 30.855668,10.492475 L 30.767279,10.404086 L 30.30324,10.868125 z"
       id="path3006"
       sodipodi:nodetypes="cccccccccccccccccccccccccccccccccccccccc" />
    <path
       transform="matrix(0.7071068,-0.7071068,0.7071068,0.7071068,-9.2726436,24.060087)"
       d="M 37.996094,17.861328 A 0.046875,0.96679688 0 1 1 37.902344,17.861328 A 0.046875,0.96679688 0 1 1 37.996094,17.861328 z"
       sodipodi:ry="0.96679688"
       sodipodi:rx="0.046875"
       sodipodi:cy="17.861328"
       sodipodi:cx="37.949219"
       id="path3008"
       style="fill:url(#linearGradient3107);fill-opacity:1;stroke:none;stroke-width:0.60000002;stroke-linecap:round;stroke-linejoin:round;stroke-miterlimit:4;stroke-dasharray:none;stroke-opacity:1"
       sodipodi:type="arc" />
    <path
       transform="matrix(0.3647183,-0.3647183,0.7071068,0.7071068,-14.808004,29.267604)"
       d="M 40.800304,18.093018 A 11.011446,11.011446 0 1 1 18.777412,18.093018 A 11.011446,11.011446 0 1 1 40.800304,18.093018 z"
       sodipodi:ry="11.011446"
       sodipodi:rx="11.011446"
       sodipodi:cy="18.093018"
       sodipodi:cx="29.788858"
       id="path3010"
       style="opacity:0.75;fill:url(#radialGradient3109);fill-opacity:1;stroke:none;stroke-width:0.5;stroke-linecap:round;stroke-linejoin:miter;stroke-miterlimit:4;stroke-dasharray:none;stroke-opacity:1"
       sodipodi:type="arc" />
    <path
       id="path3012"
       d="M 3.4994732,23.04362 C 3.3261083,23.216985 3.2092106,23.444033 3.1459198,23.706533 C 4.8555733,23.252181 8.4039384,25.163852 11.653299,28.413213 C 14.902659,31.662573 16.792233,35.188841 16.337881,36.898494 C 16.600381,36.835203 16.827429,36.718306 17.000794,36.544941 C 18.31798,35.227755 16.378473,31.149649 12.647667,27.418844 C 8.9168624,23.688039 4.816659,21.726435 3.4994732,23.04362 z"
       style="opacity:0.75;fill:url(#linearGradient3124);fill-opacity:1;stroke:none;stroke-width:0.5;stroke-linecap:round;stroke-linejoin:miter;stroke-miterlimit:4;stroke-dasharray:none;stroke-opacity:1" />
    <path
       style="fill:url(#radialGradient3121);fill-opacity:1;stroke:none;stroke-width:0.5;stroke-linecap:round;stroke-linejoin:miter;stroke-miterlimit:4;stroke-dasharray:none;stroke-opacity:1"
       d="M 3.1459198,23.706533 C 2.7283438,25.438447 4.634932,28.95205 7.8746965,32.191815 C 11.114462,35.43158 14.605967,37.316069 16.337881,36.898494 C 16.792233,35.188841 14.902659,31.662573 11.653299,28.413213 C 8.4039384,25.163852 4.8555733,23.252181 3.1459198,23.706533 z"
       id="path3014" />
    <path
       sodipodi:nodetypes="cscsccc"
       id="path3016"
       d="M 28.166605,12.759883 C 32.011916,16.605194 32.011917,22.840845 28.166607,26.686155 C 26.243954,28.60881 23.72598,29.566671 21.20347,29.566666 C 25.36373,29.82505 29.722846,27.017982 30.979081,22.37672 C 31.989357,18.644168 30.661521,15.012615 28.166605,12.759883 z M 21.20347,29.566666 C 20.422255,29.566666 20.687448,29.534619 21.20347,29.566666 z"
       style="opacity:0.75;fill:url(#radialGradient3118);fill-opacity:1;stroke:none;stroke-width:0.5;stroke-linecap:round;stroke-linejoin:miter;stroke-miterlimit:4;stroke-dasharray:none;stroke-opacity:1" />
    <path
       transform="matrix(0.226864,0,0,0.2991417,8.794909,1.6488605)"
       d="M 127.82442,115.70919 A 63.912209,12.641975 0 1 1 0,115.70919 A 63.912209,12.641975 0 1 1 127.82442,115.70919 z"
       sodipodi:ry="12.641975"
       sodipodi:rx="63.912209"
       sodipodi:cy="115.70919"
       sodipodi:cx="63.912209"
       id="path2593"
       style="opacity:0.25;fill:url(#radialGradient2595);fill-opacity:1;fill-rule:nonzero;stroke:none;stroke-width:0;stroke-linecap:round;stroke-linejoin:round;stroke-miterlimit:4;stroke-dasharray:none;stroke-dashoffset:4;stroke-opacity:1"
       sodipodi:type="arc" />
    <rect
       style="opacity:0.61162792;fill:#555753;fill-opacity:1;fill-rule:nonzero;stroke:none;stroke-width:0.69999999;stroke-linecap:round;stroke-linejoin:miter;stroke-miterlimit:4;stroke-dasharray:none;stroke-opacity:1"
       id="rect1951"
       width="40.001965"
       height="10.004759"
       x="-0.0019644466"
       y="30" />
    <text
       xml:space="preserve"
       style="font-size:12px;font-style:normal;font-weight:normal;fill:#eeeeec;fill-opacity:1;stroke:none;stroke-width:1px;stroke-linecap:butt;stroke-linejoin:miter;stroke-opacity:1;font-family:Bitstream Vera Sans"
       x="11.946289"
       y="39.168156"
       id="text2840"><tspan
         sodipodi:role="line"
         id="tspan2842"
         x="11.946289"
         y="39.168156">Rh</tspan></text>
  </g>
</svg>
