<?xml version="1.0" encoding="UTF-8" standalone="no"?>
<!-- Created with Inkscape (http://www.inkscape.org/) -->
<svg
   xmlns:dc="http://purl.org/dc/elements/1.1/"
   xmlns:cc="http://creativecommons.org/ns#"
   xmlns:rdf="http://www.w3.org/1999/02/22-rdf-syntax-ns#"
   xmlns:svg="http://www.w3.org/2000/svg"
   xmlns="http://www.w3.org/2000/svg"
   xmlns:xlink="http://www.w3.org/1999/xlink"
   xmlns:sodipodi="http://sodipodi.sourceforge.net/DTD/sodipodi-0.dtd"
   xmlns:inkscape="http://www.inkscape.org/namespaces/inkscape"
   width="40"
   height="40"
   id="svg2193"
   sodipodi:version="0.32"
   inkscape:version="0.46"
   version="1.0"
   sodipodi:docbase="/home/jra/Desktop"
   sodipodi:docname="Eksos18sample.svg"
   inkscape:output_extension="org.inkscape.output.svg.inkscape">
  <defs
     id="defs2195">
    <linearGradient
       id="linearGradient4237">
      <stop
         style="stop-color:#000000;stop-opacity:1"
         offset="0"
         id="stop4239" />
      <stop
         id="stop4241"
         offset="0.5"
         style="stop-color:#ffffff;stop-opacity:1;" />
      <stop
         style="stop-color:#7a7a7a;stop-opacity:1;"
         offset="1"
         id="stop4243" />
    </linearGradient>
    <linearGradient
       id="linearGradient3707">
      <stop
         id="stop3711"
         offset="0"
         style="stop-color:#ffffff;stop-opacity:1;" />
      <stop
         style="stop-color:#000000;stop-opacity:1;"
         offset="1"
         id="stop3713" />
    </linearGradient>
    <linearGradient
       id="linearGradient3220">
      <stop
         id="stop3222"
         offset="0"
         style="stop-color:#000000;stop-opacity:1" />
      <stop
         style="stop-color:#ffffff;stop-opacity:1;"
         offset="0.5"
         id="stop3525" />
      <stop
         id="stop3224"
         offset="1"
         style="stop-color:#000000;stop-opacity:1;" />
    </linearGradient>
    <linearGradient
       id="linearGradient3291">
      <stop
         id="stop3293"
         offset="0"
         style="stop-color:#000000;stop-opacity:1;" />
      <stop
         id="stop3295"
         offset="1"
         style="stop-color:#000000;stop-opacity:0;" />
    </linearGradient>
    <linearGradient
       id="linearGradient2308">
      <stop
         id="stop2310"
         offset="0"
         style="stop-color:#000000;stop-opacity:0;" />
      <stop
         id="stop2312"
         offset="1"
         style="stop-color:#000000;stop-opacity:1;" />
    </linearGradient>
    <radialGradient
       inkscape:collect="always"
       xlink:href="#linearGradient3291"
       id="radialGradient4739"
       gradientUnits="userSpaceOnUse"
       gradientTransform="matrix(1,0,0,0.197802,0,92.82166)"
       cx="63.912209"
       cy="115.70919"
       fx="75.857941"
       fy="115.70919"
       r="63.912209" />
    <radialGradient
       inkscape:collect="always"
       xlink:href="#linearGradient3707"
       id="radialGradient3134"
       gradientUnits="userSpaceOnUse"
       gradientTransform="matrix(1.3058961,-2.2437159e-2,2.4419244e-2,1.4212582,-11.671904,-13.886073)"
       cx="31.474022"
       cy="27.541302"
       fx="31.474022"
       fy="27.541302"
       r="3.4017174" />
    <radialGradient
       inkscape:collect="always"
       xlink:href="#linearGradient3220"
       id="radialGradient3138"
       gradientUnits="userSpaceOnUse"
       gradientTransform="matrix(1.0663678,-0.1833845,0.1100932,0.6401841,-5.2088675,11.793666)"
       cx="27.762547"
       cy="25.304621"
       fx="27.762547"
       fy="25.304621"
       r="8.796875" />
    <linearGradient
       inkscape:collect="always"
       xlink:href="#linearGradient4237"
       id="linearGradient3141"
       gradientUnits="userSpaceOnUse"
       gradientTransform="matrix(1.178479,0,0,1.178479,4.36787,27.706812)"
       x1="4.3750477"
       y1="-0.54079521"
       x2="18.488554"
       y2="-19.144342" />
    <linearGradient
       inkscape:collect="always"
       xlink:href="#linearGradient2308"
       id="linearGradient3144"
       gradientUnits="userSpaceOnUse"
       gradientTransform="matrix(0.9397996,0,0,0.9397996,1.2217722,-0.8945456)"
       x1="26.3125"
       y1="24.383375"
       x2="35.96875"
       y2="24.383375" />
    <linearGradient
       inkscape:collect="always"
       xlink:href="#linearGradient4237"
       id="linearGradient3148"
       gradientUnits="userSpaceOnUse"
       gradientTransform="matrix(0.9397996,0,0,0.9397996,1.2217722,-0.8945456)"
       x1="5.8905416"
       y1="21.404556"
       x2="20.73587"
       y2="4.2578988" />
    <radialGradient
       inkscape:collect="always"
       xlink:href="#linearGradient3291"
       id="radialGradient3152"
       gradientUnits="userSpaceOnUse"
       gradientTransform="matrix(0.8972794,0.5131763,-0.1971825,0.3447702,4.7323136,-2.437466)"
       cx="20.46307"
       cy="13.088923"
       fx="20.46307"
       fy="13.088923"
       r="12.203125" />
    <linearGradient
       inkscape:collect="always"
       xlink:href="#linearGradient2308"
       id="linearGradient3158"
       gradientUnits="userSpaceOnUse"
       gradientTransform="matrix(0.9397996,0,0,0.9397996,6.8605698,44.215835)"
       x1="8.4379492"
       y1="-20.210281"
       x2="7.3967433"
       y2="-36.321766" />
    <linearGradient
       inkscape:collect="always"
       xlink:href="#linearGradient3291"
       id="linearGradient3161"
       gradientUnits="userSpaceOnUse"
       gradientTransform="matrix(0.9397996,0,0,0.9397996,6.8605698,25.419843)"
       x1="20.950607"
       y1="3.0586188"
       x2="20.969048"
       y2="-6.0108895" />
    <radialGradient
       inkscape:collect="always"
       xlink:href="#linearGradient3220"
       id="radialGradient3164"
       gradientUnits="userSpaceOnUse"
       gradientTransform="matrix(1.8790358,2.6248834e-7,-2.8068326e-7,2.0092851,-14.095838,28.70096)"
       cx="22.703493"
       cy="-3.0679448"
       fx="22.703493"
       fy="-3.0679448"
       r="2.4065714" />
    <radialGradient
       inkscape:collect="always"
       xlink:href="#linearGradient3220"
       id="radialGradient3167"
       gradientUnits="userSpaceOnUse"
       gradientTransform="matrix(2.8124672,0.208109,-0.2303687,3.1132946,-10.280208,26.298367)"
       cx="13.541104"
       cy="-2.1464574"
       fx="13.541104"
       fy="-2.1464574"
       r="2.09375" />
    <radialGradient
       inkscape:collect="always"
       xlink:href="#linearGradient3220"
       id="radialGradient3170"
       gradientUnits="userSpaceOnUse"
       gradientTransform="matrix(1.2905751,-2.2220967e-2,1.3583792e-2,0.7889399,18.864325,23.790426)"
       cx="7.8804507"
       cy="-2.3286884"
       fx="7.8804507"
       fy="-2.3286884"
       r="4.96875" />
    <radialGradient
       inkscape:collect="always"
       xlink:href="#linearGradient2308"
       id="radialGradient3173"
       gradientUnits="userSpaceOnUse"
       gradientTransform="matrix(2.6196108,-4.1843215e-2,3.9073175e-2,2.4461913,-37.849043,26.162184)"
       cx="26.958822"
       cy="1.3555"
       fx="26.958822"
       fy="1.3555"
       r="2.7879014" />
    <linearGradient
       inkscape:collect="always"
       xlink:href="#linearGradient3220"
       id="linearGradient3176"
       gradientUnits="userSpaceOnUse"
       gradientTransform="matrix(0.9397996,0,0,0.9397996,6.8605698,25.419843)"
       x1="20.524191"
       y1="-8.6910391"
       x2="31.507624"
       y2="7.0863991" />
    <linearGradient
       inkscape:collect="always"
       xlink:href="#linearGradient3220"
       id="linearGradient3179"
       gradientUnits="userSpaceOnUse"
       gradientTransform="matrix(0.9397996,0,0,0.9397996,6.8605698,25.419843)"
       x1="24.834471"
       y1="5.0433826"
       x2="31.636465"
       y2="-2.8654554" />
    <radialGradient
       inkscape:collect="always"
       xlink:href="#linearGradient3220"
       id="radialGradient3182"
       gradientUnits="userSpaceOnUse"
       gradientTransform="matrix(2.2210884,4.5336426e-7,-3.6800156e-7,1.8028858,-18.008245,25.831892)"
       cx="20.782463"
       cy="-1.1896557"
       fx="20.782463"
       fy="-1.1896557"
       r="2.2529676" />
    <radialGradient
       inkscape:collect="always"
       xlink:href="#linearGradient3220"
       id="radialGradient3185"
       gradientUnits="userSpaceOnUse"
       gradientTransform="matrix(3.4885772,4.5046515e-7,-4.3729755e-7,3.3866023,-60.562565,38.418471)"
       cx="25.656878"
       cy="-4.7921777"
       fx="25.656878"
       fy="-4.7921777"
       r="1.453125" />
    <linearGradient
       inkscape:collect="always"
       xlink:href="#linearGradient3707"
       id="linearGradient3188"
       gradientUnits="userSpaceOnUse"
       gradientTransform="matrix(0.9397996,0,0,0.9397996,6.8605698,25.419843)"
       x1="18.346624"
       y1="-9.5884647"
       x2="27.90625"
       y2="2.3389106" />
    <linearGradient
       inkscape:collect="always"
       xlink:href="#linearGradient3220"
       id="linearGradient3191"
       gradientUnits="userSpaceOnUse"
       gradientTransform="matrix(0.9397996,0,0,0.9397996,6.8605698,25.419843)"
       x1="4.517251"
       y1="-9.7074032"
       x2="12.432271"
       y2="-20.892714" />
    <radialGradient
       inkscape:collect="always"
       xlink:href="#linearGradient3220"
       id="radialGradient3195"
       gradientUnits="userSpaceOnUse"
       gradientTransform="matrix(1.9289282,-0.348423,0.1784649,0.9880099,-15.198027,33.753762)"
       cx="23.160238"
       cy="-4.19207"
       fx="23.160238"
       fy="-4.19207"
       r="8.796875" />
    <linearGradient
       inkscape:collect="always"
       xlink:href="#linearGradient3220"
       id="linearGradient3199"
       gradientUnits="userSpaceOnUse"
       gradientTransform="matrix(0.9397996,0,0,0.9397996,6.8605698,25.419843)"
       x1="-4.3500466"
       y1="-14.116323"
       x2="34.664825"
       y2="-1.0184982" />
    <radialGradient
       inkscape:collect="always"
       xlink:href="#linearGradient3707"
       id="radialGradient3202"
       gradientUnits="userSpaceOnUse"
       gradientTransform="matrix(1.5163168,-0.2832617,0.164972,0.8831051,-19.037065,8.4607273)"
       cx="28.202158"
       cy="24.975647"
       fx="28.202158"
       fy="24.975647"
       r="8.796875" />
    <linearGradient
       inkscape:collect="always"
       xlink:href="#linearGradient4237"
       id="linearGradient3205"
       gradientUnits="userSpaceOnUse"
       gradientTransform="matrix(0.9397996,0,0,0.9397996,6.8605698,25.419843)"
       x1="4.3750477"
       y1="-0.54079521"
       x2="18.488554"
       y2="-19.144342" />
    <linearGradient
       inkscape:collect="always"
       xlink:href="#linearGradient2308"
       id="linearGradient3208"
       gradientUnits="userSpaceOnUse"
       gradientTransform="matrix(0.9397996,0,0,0.9397996,6.8605698,44.215835)"
       x1="16.282269"
       y1="-12.842671"
       x2="15.622734"
       y2="-30.866669" />
    <linearGradient
       inkscape:collect="always"
       xlink:href="#linearGradient3220"
       id="linearGradient3212"
       gradientUnits="userSpaceOnUse"
       gradientTransform="matrix(0.9397996,0,0,0.9397996,6.8605698,44.215835)"
       x1="7.3892002"
       y1="-23.800247"
       x2="15.384574"
       y2="-34.058277" />
    <linearGradient
       inkscape:collect="always"
       xlink:href="#linearGradient3220"
       id="linearGradient3215"
       gradientUnits="userSpaceOnUse"
       gradientTransform="matrix(0.9397996,0,0,0.9397996,6.8605698,44.215835)"
       x1="7.3892002"
       y1="-23.800247"
       x2="15.384574"
       y2="-34.058277" />
    <linearGradient
       inkscape:collect="always"
       xlink:href="#linearGradient3220"
       id="linearGradient3218"
       gradientUnits="userSpaceOnUse"
       gradientTransform="matrix(0.9397996,0,0,0.9397996,6.8605698,44.215835)"
       x1="7.3892002"
       y1="-23.800247"
       x2="15.384574"
       y2="-34.058277" />
  </defs>
  <sodipodi:namedview
     id="base"
     pagecolor="#ffffff"
     bordercolor="#666666"
     borderopacity="1.0"
     inkscape:pageopacity="0.0"
     inkscape:pageshadow="2"
     inkscape:zoom="8.0000001"
     inkscape:cx="23.413483"
     inkscape:cy="8.7075521"
     inkscape:current-layer="layer1"
     showgrid="false"
     inkscape:grid-bbox="false"
     inkscape:document-units="px"
     width="40px"
     height="40px"
     inkscape:window-width="1712"
     inkscape:window-height="1069"
     inkscape:window-x="204"
     inkscape:window-y="25">
    <inkscape:grid
       id="GridFromPre046Settings"
       type="xygrid"
       originx="0px"
       originy="0px"
       spacingx="1px"
       spacingy="1px"
       color="#0000ff"
       empcolor="#0000ff"
       opacity="0.2"
       empopacity="0.4"
       empspacing="2" />
  </sodipodi:namedview>
  <metadata
     id="metadata2198">
    <rdf:RDF>
      <cc:Work
         rdf:about="">
        <dc:format>image/svg+xml</dc:format>
        <dc:type
           rdf:resource="http://purl.org/dc/dcmitype/StillImage" />
        <dc:creator>
          <cc:Agent>
            <dc:title>Jarle Akselsen</dc:title>
          </cc:Agent>
        </dc:creator>
        <cc:license
           rdf:resource="http://creativecommons.org/licenses/GPL/2.0/" />
      </cc:Work>
      <cc:License
         rdf:about="http://creativecommons.org/licenses/GPL/2.0/">
        <cc:permits
           rdf:resource="http://web.resource.org/cc/Reproduction" />
        <cc:permits
           rdf:resource="http://web.resource.org/cc/Distribution" />
        <cc:requires
           rdf:resource="http://web.resource.org/cc/Notice" />
        <cc:permits
           rdf:resource="http://web.resource.org/cc/DerivativeWorks" />
        <cc:requires
           rdf:resource="http://web.resource.org/cc/ShareAlike" />
        <cc:requires
           rdf:resource="http://web.resource.org/cc/SourceCode" />
      </cc:License>
    </rdf:RDF>
  </metadata>
  <g
     id="layer1"
     inkscape:label="Layer 1"
     inkscape:groupmode="layer">
    <path
       transform="matrix(0.191408,-6.4245231e-2,1.0854042,1.1877923,-116.79081,-114.01681)"
       d="M 127.82442,115.70919 A 63.912209,12.641975 0 1 1 0,115.70919 A 63.912209,12.641975 0 1 1 127.82442,115.70919 z"
       sodipodi:ry="12.641975"
       sodipodi:rx="63.912209"
       sodipodi:cy="115.70919"
       sodipodi:cx="63.912209"
       id="path2593"
       style="opacity:0.38139535;fill:url(#radialGradient4739);fill-opacity:1;fill-rule:nonzero;stroke:none;stroke-width:0;stroke-linecap:round;stroke-linejoin:round;stroke-miterlimit:4;stroke-dasharray:none;stroke-dashoffset:4;stroke-opacity:1"
       sodipodi:type="arc" />
    <path
       sodipodi:nodetypes="cccccccccccccccsc"
       id="path2709"
       d="M 17.345209,5.2435205 C 17.185173,5.2261239 17.01376,5.2440045 16.845941,5.2728893 L 7.4773133,7.1524885 C 6.1347588,7.4605952 4.9809706,8.2677637 4.9809706,9.6488312 L 4.9809706,13.437398 C 4.9809706,14.195317 5.3518212,14.927178 5.8914015,15.405104 L 20.223345,27.59313 L 20.57577,27.916186 L 20.605139,27.886817 C 21.075356,28.229229 21.629694,28.41458 22.22042,28.327348 L 33.028115,26.18343 C 34.574474,25.87291 35.906251,24.896019 35.906251,23.305294 L 35.906251,18.958721 C 35.906251,18.10269 35.50784,17.25743 34.907714,16.697328 L 34.496552,16.374272 C 34.496552,16.374272 18.424069,5.731831 18.402484,5.7134203 C 18.097057,5.4529116 17.737574,5.2861724 17.345209,5.2435205 z"
       style="fill:#000000;fill-opacity:1;stroke:none;stroke-width:0.25;stroke-linecap:round;stroke-linejoin:miter;stroke-miterlimit:4;stroke-opacity:1" />
    <path
       style="fill:#8f6b32;fill-opacity:1;stroke:none;stroke-width:0.25;stroke-linecap:round;stroke-linejoin:miter;stroke-miterlimit:4;stroke-opacity:1"
       d="M 17.697634,6.5651137 C 17.556579,6.5498542 17.434473,6.5690092 17.286472,6.5944825 L 9.0044876,8.2391318 C 7.8204614,8.5108494 6.8312011,9.223788 6.8312011,10.441787 L 6.8312011,13.789823 C 6.8312011,14.634177 7.321113,15.452987 8.0059506,15.816266 L 10.913456,18.165765 C 11.33887,18.663691 11.94936,18.964845 12.587474,18.870615 L 13.791592,18.635665 L 13.791592,19.487358 C 13.791592,20.387637 14.32425,21.273304 15.054448,21.660645 L 18.167534,24.156987 C 18.621123,24.687893 19.249272,25.021046 19.929658,24.920575 L 28.975229,23.099713 C 30.268404,22.840015 31.354098,22.021742 31.354097,20.691476 L 31.354097,17.049753 C 31.354097,16.158062 30.832036,15.321907 30.12061,14.905835 L 30.149979,14.876466 L 26.449518,12.292018 C 26.409854,12.256209 26.373745,12.236558 26.332043,12.203911 L 26.214568,12.115805 C 25.966706,11.949387 25.684339,11.824339 25.392243,11.792749 C 25.241848,11.776474 25.109525,11.794972 24.951712,11.822118 L 23.277694,12.145174 L 23.277694,11.499062 C 23.277694,10.662763 22.799532,9.8628461 22.132313,9.4726187 L 22.161682,9.44325 L 18.696171,7.0350135 C 18.65897,7.001442 18.617805,6.9775241 18.578696,6.9469073 L 18.461221,6.8588011 C 18.228754,6.7027211 17.971573,6.5947494 17.697634,6.5651137 z"
       id="path3793" />
    <path
       style="fill:#ffffff;fill-opacity:0.75688076;fill-rule:nonzero;stroke:none;stroke-width:0.5;stroke-linecap:round;stroke-linejoin:round;stroke-miterlimit:4;stroke-dasharray:none;stroke-dashoffset:4;stroke-opacity:1"
       d="M 17.15751,26.378321 L 17.15751,23.751855 L 17.15751,26.378321 z"
       id="path2711"
       sodipodi:nodetypes="ccc" />
    <path
       sodipodi:nodetypes="ccc"
       id="path2717"
       d="M 17.15751,27.082841 L 17.15751,24.151595 L 17.15751,27.082841 z"
       style="fill:#ffffff;fill-opacity:0.75688076;fill-rule:nonzero;stroke:none;stroke-width:0.5;stroke-linecap:round;stroke-linejoin:round;stroke-miterlimit:4;stroke-dasharray:none;stroke-dashoffset:4;stroke-opacity:1" />
    <path
       style="opacity:0.35;fill:url(#linearGradient3218);fill-opacity:1;stroke:none;stroke-width:0.25;stroke-linecap:round;stroke-linejoin:miter;stroke-miterlimit:4;stroke-opacity:1"
       d="M 9.5037562,9.7956749 C 9.4187372,9.8417194 9.3380244,9.8906876 9.2688063,9.9425185 C 9.3403908,9.8902986 9.4150936,9.8416555 9.5037562,9.7956749 z"
       id="path3854" />
    <path
       style="opacity:0.25;fill:url(#linearGradient3215);fill-opacity:1;stroke:none;stroke-width:0.25;stroke-linecap:round;stroke-linejoin:miter;stroke-miterlimit:4;stroke-opacity:1"
       d="M 12.499367,10.030625 C 11.53828,10.126992 10.889222,10.279909 10.502293,10.441787 C 10.109902,10.60595 9.9751484,10.722523 9.8855498,10.941056 C 9.7163971,11.353622 9.8324793,12.422477 9.8268123,13.907298 C 9.9858452,14.149526 10.163038,14.374419 10.326081,14.612148 L 10.326081,13.202448 C 10.326081,11.954801 11.374625,11.219389 12.587474,10.941056 L 15.524347,10.353681 C 14.618741,10.193857 13.626444,10.080673 12.528736,10.030625 C 12.517447,10.03011 12.510678,10.031128 12.499367,10.030625 z M 20.928195,12.615074 L 16.111722,13.584242 C 14.849271,13.873947 13.791592,14.635071 13.791592,15.933741 L 13.791592,18.811877 C 14.89165,19.867722 16.119615,20.794653 17.521422,21.572539 L 17.521422,18.870615 C 17.521422,17.541274 18.637405,16.758938 19.929658,16.462378 L 23.013375,15.845635 C 23.147346,16.268791 23.264005,16.699973 23.336432,17.167228 C 23.04834,15.308618 22.295016,13.794086 20.928195,12.615074 z"
       id="path3852" />
    <path
       style="opacity:0.35;fill:url(#linearGradient3212);fill-opacity:1;stroke:none;stroke-width:0.25;stroke-linecap:round;stroke-linejoin:miter;stroke-miterlimit:4;stroke-opacity:1"
       d="M 9.0338564,10.177468 C 8.9475348,10.281114 8.9086253,10.402367 8.8576439,10.529893 C 8.9077259,10.407743 8.9568558,10.288809 9.0338564,10.177468 z"
       id="path3850" />
    <path
       style="opacity:0.5;fill:url(#linearGradient3208);fill-opacity:1;stroke:none;stroke-width:0.25;stroke-linecap:round;stroke-linejoin:miter;stroke-miterlimit:4;stroke-opacity:1"
       d="M 23.013375,15.845635 L 19.929658,16.462378 C 18.637405,16.758938 17.521422,17.541274 17.521422,18.870615 L 17.521422,21.572539 C 18.277181,21.991771 19.061853,22.368281 19.929658,22.688551 C 20.753988,22.40118 21.447042,21.935542 22.014838,21.278851 C 22.699988,20.415782 23.193171,19.297906 23.424538,17.960184 C 23.406696,17.688669 23.370629,17.42905 23.336432,17.167228 C 23.264005,16.699973 23.147346,16.268791 23.013375,15.845635 z"
       id="path2729" />
    <path
       id="path2732"
       d="M 17.345209,5.2435205 C 17.185173,5.2261239 17.01376,5.2440045 16.845941,5.2728893 L 7.4773133,7.1524885 C 6.1347588,7.4605952 4.9809706,8.2677637 4.9809706,9.6488312 L 4.9809706,13.437398 C 4.9809706,14.195317 5.3518212,14.927178 5.8914015,15.405104 L 20.223345,27.59313 C 19.693261,27.04641 19.371652,26.273943 19.371652,25.478581 L 19.371652,23.099713 C 14.367499,21.317709 11.276261,17.811723 8.7108003,13.877929 C 8.7551287,10.709475 7.8733495,9.6632749 11.911993,9.2670376 C 20.06439,9.6109356 23.097225,12.979198 23.424538,17.960184 C 23.421227,17.979328 23.42795,17.999869 23.424538,18.018921 L 33.028115,16.080585 C 33.599118,15.982303 34.129589,16.155335 34.584658,16.462378 L 34.496552,16.374272 C 34.496552,16.374272 18.424069,5.731831 18.402484,5.7134203 C 18.097057,5.4529116 17.737574,5.2861724 17.345209,5.2435205 z"
       style="fill:url(#linearGradient3205);fill-opacity:1;stroke:none;stroke-width:0.25;stroke-linecap:round;stroke-linejoin:miter;stroke-miterlimit:4;stroke-opacity:1" />
    <path
       id="path2734"
       d="M 33.586121,16.051216 C 33.4019,16.031287 33.22141,16.047315 33.028115,16.080585 L 23.424538,18.018921 C 22.951096,20.662555 21.502925,22.444817 19.401021,23.099713 C 19.392426,23.096666 19.380235,23.102769 19.371652,23.099713 L 19.371652,25.478581 C 19.371652,27.069306 20.718418,28.549148 22.22042,28.327348 L 33.028115,26.18343 C 34.574474,25.87291 35.906249,24.896019 35.906251,23.305294 L 35.906251,18.958721 C 35.906251,17.566837 34.875672,16.190721 33.586121,16.051216 z"
       style="fill:url(#radialGradient3202);fill-opacity:1;stroke:none;stroke-width:0.25;stroke-linecap:round;stroke-linejoin:miter;stroke-miterlimit:4;stroke-opacity:1" />
    <path
       sodipodi:nodetypes="cssssssssscsscccsssssccc"
       id="path2736"
       d="M 11.911993,9.2670376 C 10.429862,9.4124518 9.5970693,9.6373684 9.1513313,10.030625 C 9.141599,10.039211 9.1313415,10.051253 9.1219626,10.059993 C 9.0899725,10.099441 9.0623595,10.136254 9.0338564,10.177468 C 8.9568556,10.288809 8.907726,10.407743 8.8576439,10.529893 C 8.8189207,10.62434 8.7671431,10.727484 8.740169,10.823581 C 8.7380473,10.833155 8.7421741,10.843268 8.740169,10.852949 C 8.7347877,10.872846 8.7157315,10.891697 8.7108003,10.911687 C 8.6981462,10.983111 8.6888702,11.040084 8.6814315,11.117268 C 8.6352951,11.595981 8.658164,12.292901 8.6814315,13.026236 C 8.6906767,13.317622 8.7155272,13.540066 8.7108003,13.877929 C 11.276261,17.811723 14.367499,21.317709 19.371652,23.099713 C 19.380235,23.102769 19.392426,23.096666 19.401021,23.099713 C 20.517658,22.751799 21.432806,22.076385 22.132313,21.132008 C 21.541614,21.867171 20.814463,22.380097 19.929658,22.688551 C 15.242748,20.958813 12.311077,17.691149 9.8268123,13.907298 C 9.8324793,12.422477 9.7163973,11.353622 9.8855498,10.941056 C 9.9751485,10.722523 10.109902,10.60595 10.502293,10.441787 C 10.889222,10.279909 11.53828,10.126992 12.499367,10.030625 C 12.510678,10.031128 12.517447,10.03011 12.528736,10.030625 C 16.473846,10.210497 19.138064,11.139957 20.81072,12.526967 C 22.454737,13.890229 23.24092,15.71907 23.424538,18.018921 C 23.42795,17.999869 23.421227,17.979328 23.424538,17.960184 C 23.097225,12.979198 20.06439,9.6109356 11.911993,9.2670376 z"
       style="fill:url(#linearGradient3199);fill-opacity:1;stroke:none;stroke-width:1.20000005;stroke-linecap:round;stroke-linejoin:miter;stroke-miterlimit:4;stroke-dasharray:none;stroke-opacity:1" />
    <path
       id="path2738"
       d="M 20.223345,27.59313 L 20.57577,27.916186 L 20.605139,27.886817 C 20.476411,27.792765 20.336473,27.709808 20.223345,27.59313 z"
       style="fill:#cf4913;fill-opacity:1;stroke:none;stroke-width:0.25;stroke-linecap:round;stroke-linejoin:miter;stroke-miterlimit:4;stroke-opacity:1" />
    <path
       id="path2740"
       d="M 33.586121,16.051216 C 33.4019,16.031287 33.22141,16.047315 33.028115,16.080585 L 23.424538,18.018921 C 23.424124,18.02123 23.395584,18.016613 23.395169,18.018921 C 23.344739,18.299344 23.290894,18.58092 23.218957,18.841246 L 33.174959,16.785434 C 33.333262,16.758187 33.402912,16.745778 33.498015,16.756066 C 34.33472,16.846581 35.201401,17.914761 35.201401,18.958721 L 35.201401,23.305294 C 35.201401,23.903954 34.990175,24.343661 34.584658,24.714993 C 34.179141,25.086326 33.552863,25.34372 32.881271,25.478581 L 22.102945,27.622499 C 22.093579,27.623882 22.082932,27.621311 22.073576,27.622499 C 21.58666,27.684338 21.141981,27.496229 20.751983,27.093861 C 20.354491,26.683762 20.076502,26.075026 20.076502,25.478581 L 20.076502,22.835394 C 19.858243,22.937887 19.637485,23.026037 19.401021,23.099713 C 19.392426,23.096666 19.380235,23.102769 19.371652,23.099713 L 19.371652,25.478581 C 19.371652,27.069306 20.718418,28.549148 22.22042,28.327348 L 33.028115,26.18343 C 34.574474,25.87291 35.906249,24.896019 35.906251,23.305294 L 35.906251,18.958721 C 35.906251,17.566837 34.875672,16.190721 33.586121,16.051216 z"
       style="fill:url(#radialGradient3195);fill-opacity:1;stroke:none;stroke-width:0.25;stroke-linecap:round;stroke-linejoin:miter;stroke-miterlimit:4;stroke-opacity:1" />
    <path
       sodipodi:nodetypes="csccccccscsssssssscscscc"
       id="path2742"
       d="M 6.7724636,4.3918272 C 6.1752021,4.4619155 5.5884853,4.7640818 5.1865518,5.2728893 C 4.435012,6.2242634 4.5446475,7.5580383 5.3921329,8.3859755 C 5.8426743,7.7548897 6.6137281,7.3506753 7.4773133,7.1524885 L 10.766612,6.5063762 C 9.6559498,5.7139372 8.5052191,4.8910957 8.5052191,4.8910957 C 7.9964116,4.4891631 7.369725,4.3217388 6.7724636,4.3918272 z M 30.091241,20.13347 C 30.054409,20.107774 29.559384,19.839506 30.091241,20.13347 z M 30.091241,20.13347 C 29.655379,19.959401 29.197722,19.899064 28.740279,19.927889 C 28.469416,19.944958 28.206935,20.017647 27.947323,20.104102 C 27.777678,20.160596 27.607128,20.223319 27.448055,20.309683 C 27.313011,20.383 27.190649,20.449661 27.066261,20.544633 C 26.891693,20.671277 26.743161,20.816138 26.596361,20.985164 C 26.591476,20.990789 26.571842,20.979493 26.566993,20.985164 C 26.300746,21.296494 26.119398,21.675027 26.008987,22.042438 C 25.962108,22.198435 25.910646,22.352467 25.891512,22.512338 C 25.731803,23.517202 26.068824,24.580648 26.890049,25.302368 C 26.805685,25.243914 26.7055,25.194375 26.62573,25.126156 C 25.575022,24.22759 29.621341,27.563761 29.621341,27.563761 C 30.996953,28.668861 33.009658,28.440104 34.114758,27.064493 C 35.219858,25.688881 34.991103,23.676176 33.61549,22.571076 C 33.61549,22.571076 30.563211,20.462752 30.091241,20.13347 z"
       style="fill:#000000;fill-opacity:1;stroke:none;stroke-width:5;stroke-linecap:round;stroke-linejoin:miter;stroke-miterlimit:4;stroke-opacity:1" />
    <path
       sodipodi:nodetypes="csccccccsccsccc"
       style="opacity:0.75;fill:url(#linearGradient3191);fill-opacity:1;stroke:none;stroke-width:5;stroke-linecap:round;stroke-linejoin:miter;stroke-miterlimit:4;stroke-opacity:1"
       d="M 6.7724636,4.3918272 C 6.1752021,4.4619155 5.5884853,4.7640818 5.1865518,5.2728893 C 4.4350119,6.2242634 4.544648,7.5580383 5.3921329,8.3859755 C 5.8426747,7.7548897 6.6137277,7.3506753 7.4773133,7.1524885 L 10.766612,6.5063762 C 9.6559501,5.7139372 8.5052191,4.8910957 8.5052191,4.8910957 C 7.9964107,4.4891631 7.369725,4.3217388 6.7724636,4.3918272 z M 27.624267,19.193671 C 26.847819,19.254275 26.08487,19.612751 25.539087,20.250945 C 24.447522,21.527334 24.585755,23.447216 25.862143,24.538781 C 25.862143,24.538781 29.621341,27.563761 29.621341,27.563761 C 28.245728,26.458661 28.016973,24.445956 29.122073,23.070344 C 30.089035,21.866684 31.764827,21.539149 33.086852,22.218651 C 32.311792,21.677911 29.826923,19.927889 29.826923,19.927889 C 29.188728,19.382106 28.400716,19.133067 27.624267,19.193671 z"
       id="path2744" />
    <path
       id="path2746"
       d="M 31.177884,18.165765 L 24.07065,19.604833 C 23.465705,19.743664 22.919234,20.013658 22.572844,20.427158 C 22.503686,20.553478 22.413772,20.660861 22.337894,20.779583 C 22.328727,20.799232 22.316913,20.818187 22.308526,20.83832 C 22.228523,21.030359 22.191051,21.247274 22.191051,21.484432 L 22.191051,24.362569 C 22.191051,25.410656 23.081022,26.388306 24.07065,26.242168 L 27.213105,25.596056 C 27.241198,25.609538 27.166184,25.542771 26.919418,25.331737 C 25.620176,24.220629 25.485253,22.284405 26.596361,20.985164 C 27.158657,20.327661 27.942786,19.978142 28.740279,19.927889 C 29.218775,19.897738 29.696071,19.97022 30.149979,20.162839 C 30.612226,20.485337 32.431086,21.733882 33.086852,22.189282 L 33.086852,20.045364 C 33.086852,18.997278 32.19674,17.990399 31.177884,18.165765 z"
       style="fill:url(#linearGradient3188);fill-opacity:1;stroke:none;stroke-width:0.25;stroke-linecap:round;stroke-linejoin:miter;stroke-miterlimit:4;stroke-opacity:1" />
    <path
       style="opacity:0.2;fill:url(#radialGradient3185);fill-opacity:1;stroke:none;stroke-width:0.25;stroke-linecap:round;stroke-linejoin:miter;stroke-miterlimit:4;stroke-opacity:1"
       d="M 32.528846,18.665034 L 30.35556,20.309683 C 30.9933,20.753772 32.477514,21.766124 33.086852,22.189282 L 33.086852,20.045364 C 33.086852,19.52931 32.869552,19.024902 32.528846,18.665034 z"
       id="path2748" />
    <path
       style="opacity:0.2;fill:url(#radialGradient3182);fill-opacity:1;stroke:none;stroke-width:0.25;stroke-linecap:round;stroke-linejoin:miter;stroke-miterlimit:4;stroke-opacity:1"
       d="M 25.92088,23.687088 L 22.984007,25.919112 C 23.298481,26.155656 23.672385,26.30098 24.07065,26.242168 L 27.213105,25.596056 C 27.241198,25.609538 27.166184,25.542771 26.919418,25.331737 C 26.399244,24.886887 26.062544,24.302628 25.92088,23.687088 z"
       id="path2750" />
    <path
       id="path2752"
       d="M 34.116689,27.078195 C 33.011589,28.453807 30.998258,28.673352 29.622646,27.568252 C 28.247034,26.463152 28.027488,24.449822 29.132588,23.07421 C 30.237688,21.698598 32.251019,21.479052 33.626631,22.584152 C 35.002243,23.689251 35.221789,25.702583 34.116689,27.078195 z"
       style="opacity:0.25;fill:url(#linearGradient3179);fill-opacity:1;stroke:none;stroke-width:5;stroke-linecap:round;stroke-linejoin:miter;stroke-miterlimit:4;stroke-opacity:1" />
    <path
       id="path2754"
       d="M 31.265991,21.895595 C 30.452569,21.984295 29.674623,22.382538 29.122073,23.070344 C 28.016973,24.445956 28.245728,26.458661 29.621341,27.563761 C 30.996953,28.668861 33.009658,28.440104 34.114758,27.064493 C 35.219858,25.688881 34.991103,23.676176 33.61549,22.571076 C 32.927684,22.018526 32.079413,21.806895 31.265991,21.895595 z M 31.853365,22.453601 C 32.356135,22.495175 32.840446,22.701465 33.263065,23.040975 C 34.390048,23.946337 34.579588,25.585087 33.674227,26.712068 C 32.768858,27.839048 31.100749,28.028592 29.973766,27.12323 C 28.846783,26.217868 28.686612,24.549749 29.591973,23.422769 C 30.157829,22.718406 31.015417,22.384311 31.853365,22.453601 z"
       style="fill:url(#linearGradient3176);fill-opacity:1;stroke:none;stroke-width:5;stroke-linecap:round;stroke-linejoin:miter;stroke-miterlimit:4;stroke-opacity:1" />
    <path
       id="path2756"
       d="M 31.853365,22.453601 C 31.015417,22.384311 30.157829,22.718406 29.591973,23.422769 C 28.686612,24.549749 28.846783,26.217868 29.973766,27.12323 C 31.100749,28.028592 32.768858,27.839048 33.674227,26.712068 C 34.579588,25.585087 34.390048,23.946337 33.263065,23.040975 C 32.840446,22.701465 32.356135,22.495175 31.853365,22.453601 z"
       style="opacity:0.8;fill:url(#radialGradient3173);fill-opacity:1;stroke:none;stroke-width:5;stroke-linecap:round;stroke-linejoin:miter;stroke-miterlimit:4;stroke-opacity:1" />
    <path
       sodipodi:nodetypes="ccccsssccc"
       id="path2760"
       d="M 31.177884,18.165765 L 24.07065,19.604833 C 23.448797,19.747545 22.89133,20.019486 22.543476,20.456527 L 26.126462,21.77812 C 26.247721,21.499362 26.388029,21.228771 26.596361,20.985164 C 27.158657,20.327661 27.942786,19.978142 28.740279,19.927889 C 29.218775,19.897738 29.696071,19.97022 30.149979,20.162839 C 30.182703,20.185671 30.310131,20.278179 30.35556,20.309683 L 32.528846,18.665034 C 32.177593,18.294023 31.695078,18.076745 31.177884,18.165765 z"
       style="opacity:0.3;fill:url(#radialGradient3170);fill-opacity:1;stroke:none;stroke-width:0.25;stroke-linecap:round;stroke-linejoin:miter;stroke-miterlimit:4;stroke-opacity:1" />
    <path
       sodipodi:nodetypes="ccccccccsc"
       id="path2762"
       d="M 22.543476,20.456527 C 22.321399,20.735541 22.191051,21.07604 22.191051,21.484432 L 22.191051,24.362569 C 22.191051,24.988864 22.517061,25.567879 22.984007,25.919112 L 25.92088,23.687088 C 25.781328,23.054755 25.859992,22.390692 26.126462,21.77812 L 22.543476,20.456527 z M 23.218957,26.065955 C 23.304094,26.110499 23.392089,26.15585 23.483275,26.18343 C 23.391991,26.154157 23.304456,26.111925 23.218957,26.065955 z"
       style="opacity:0.2;fill:url(#radialGradient3167);fill-opacity:1;stroke:none;stroke-width:0.25;stroke-linecap:round;stroke-linejoin:miter;stroke-miterlimit:4;stroke-opacity:1" />
    <path
       id="path2764"
       d="M 28.358486,19.781046 C 27.582081,19.841646 26.848421,20.170792 26.302674,20.808951 C 25.211162,22.085271 25.349415,24.034651 26.62573,25.126156 C 26.7055,25.194375 26.805685,25.243914 26.890049,25.302368 C 26.068824,24.580648 25.731803,23.517202 25.891512,22.512338 C 25.910646,22.352467 25.962108,22.198435 26.008987,22.042438 C 26.119398,21.675027 26.300746,21.296494 26.566993,20.985164 C 26.571842,20.979493 26.591476,20.990789 26.596361,20.985164 C 26.743161,20.816138 26.891693,20.671277 27.066261,20.544633 C 27.190649,20.449661 27.313011,20.383 27.448055,20.309683 C 27.607128,20.223319 27.777678,20.160596 27.947323,20.104102 C 28.206935,20.017647 28.469416,19.944958 28.740279,19.927889 C 29.197722,19.899064 29.655379,19.959401 30.091241,20.13347 C 29.559384,19.839506 28.94079,19.735596 28.358486,19.781046 z"
       style="fill:url(#radialGradient3164);fill-opacity:1;stroke:none;stroke-width:5;stroke-linecap:round;stroke-linejoin:miter;stroke-miterlimit:4;stroke-opacity:1" />
    <path
       style="fill:url(#linearGradient3161);fill-opacity:1;stroke:none;stroke-width:5;stroke-linecap:round;stroke-linejoin:miter;stroke-miterlimit:4;stroke-opacity:1"
       d="M 28.358486,19.781046 C 27.582081,19.841646 26.848421,20.170792 26.302674,20.808951 C 25.211162,22.085271 25.349415,24.034651 26.62573,25.126156 C 26.7055,25.194375 26.805685,25.243914 26.890049,25.302368 C 26.068824,24.580648 25.731803,23.517202 25.891512,22.512338 C 25.910646,22.352467 25.962108,22.198435 26.008987,22.042438 C 26.119398,21.675027 26.300746,21.296494 26.566993,20.985164 C 26.571842,20.979493 26.591476,20.990789 26.596361,20.985164 C 26.743161,20.816138 26.891693,20.671277 27.066261,20.544633 C 27.190649,20.449661 27.313011,20.383 27.448055,20.309683 C 27.607128,20.223319 27.777678,20.160596 27.947323,20.104102 C 28.206935,20.017647 28.469416,19.944958 28.740279,19.927889 C 29.197722,19.899064 29.655379,19.959401 30.091241,20.13347 C 29.559384,19.839506 28.94079,19.735596 28.358486,19.781046 z"
       id="path2766" />
    <path
       style="opacity:0.5;fill:url(#linearGradient3158);fill-opacity:1;stroke:none;stroke-width:0.25;stroke-linecap:round;stroke-linejoin:miter;stroke-miterlimit:4;stroke-opacity:1"
       d="M 15.524347,10.353681 L 12.587474,10.941056 C 11.374625,11.219389 10.326081,11.954801 10.326081,13.202448 L 10.326081,14.612148 C 11.325064,16.068739 12.403419,17.449053 13.644748,18.665034 L 13.791592,18.635665 L 13.791592,15.933741 C 13.791592,14.635071 14.849271,13.873947 16.111722,13.584242 L 20.928195,12.615074 C 20.891368,12.583314 20.848425,12.558234 20.81072,12.526967 C 19.603472,11.525885 17.873447,10.768257 15.524347,10.353681 z"
       id="path3808" />
    <path
       style="opacity:0.15;fill:#000000;fill-opacity:1;fill-rule:nonzero;stroke:none;stroke-width:1;stroke-linecap:butt;stroke-linejoin:miter;marker:none;marker-start:none;marker-mid:none;marker-end:none;stroke-miterlimit:4;stroke-dasharray:none;stroke-dashoffset:0;stroke-opacity:1;visibility:visible;display:inline;overflow:visible;enable-background:accumulate"
       d="M 21.544939,16.521116 L 21.28062,16.902909 L 21.838626,16.785434 L 21.544939,16.521116 z M 19.665339,16.902909 L 19.401021,17.284703 L 19.959027,17.167228 L 19.665339,16.902909 z M 22.514107,16.902909 L 22.22042,17.284703 L 22.778426,17.167228 L 22.514107,16.902909 z M 23.336432,17.196597 L 23.160219,17.460915 L 23.3658,17.431547 C 23.355945,17.353822 23.346612,17.27425 23.336432,17.196597 z M 20.634508,17.284703 L 20.34082,17.666497 L 20.898826,17.549022 L 20.634508,17.284703 z M 21.544939,17.460915 L 21.28062,17.842709 L 21.838626,17.754603 L 21.544939,17.460915 z M 18.754908,17.666497 L 18.461221,18.04829 L 19.019227,17.930815 L 18.754908,17.666497 z M 19.665339,17.842709 L 19.401021,18.224503 L 19.959027,18.136396 L 19.665339,17.842709 z M 22.514107,17.842709 L 22.22042,18.224503 L 22.778426,18.136396 L 22.514107,17.842709 z M 23.395169,18.04829 L 23.160219,18.400715 L 23.336432,18.371346 C 23.359915,18.265256 23.375161,18.15738 23.395169,18.04829 z M 20.634508,18.224503 L 20.34082,18.606296 L 20.898826,18.51819 L 20.634508,18.224503 z M 21.544939,18.400715 L 21.28062,18.782509 L 21.838626,18.665034 L 21.544939,18.400715 z M 18.754908,18.606296 L 18.461221,18.98809 L 19.019227,18.899983 L 18.754908,18.606296 z M 19.665339,18.782509 L 19.401021,19.164302 L 19.959027,19.046827 L 19.665339,18.782509 z M 22.514107,18.782509 L 22.22042,19.164302 L 22.778426,19.046827 L 22.514107,18.782509 z M 20.634508,19.164302 L 20.34082,19.546096 L 20.898826,19.428621 L 20.634508,19.164302 z M 21.544939,19.340515 L 21.28062,19.722308 L 21.838626,19.634202 L 21.544939,19.340515 z M 18.754908,19.546096 L 18.461221,19.927889 L 19.019227,19.810414 L 18.754908,19.546096 z M 19.665339,19.722308 L 19.401021,20.104102 L 19.959027,20.015995 L 19.665339,19.722308 z M 22.514107,19.722308 L 22.22042,20.104102 L 22.778426,20.015995 L 22.514107,19.722308 z M 20.634508,20.104102 L 20.34082,20.485895 L 20.898826,20.397789 L 20.634508,20.104102 z M 21.544939,20.280314 L 21.28062,20.662108 L 21.838626,20.544633 L 21.544939,20.280314 z M 18.754908,20.485895 L 18.461221,20.867689 L 19.019227,20.779583 L 18.754908,20.485895 z M 19.665339,20.662108 L 19.401021,21.043901 L 19.959027,20.926426 L 19.665339,20.662108 z M 20.634508,21.043901 L 20.34082,21.425695 L 20.898826,21.30822 L 20.634508,21.043901 z M 21.544939,21.220114 L 21.28062,21.601907 L 21.779888,21.513801 C 21.789559,21.50401 21.799652,21.494321 21.809257,21.484432 L 21.544939,21.220114 z M 18.754908,21.425695 L 18.461221,21.807488 L 19.019227,21.690014 L 18.754908,21.425695 z M 19.665339,21.601907 L 19.401021,21.983701 L 19.959027,21.895595 L 19.665339,21.601907 z M 20.634508,21.983701 L 20.34082,22.365495 L 20.781351,22.306757 C 20.811211,22.289546 20.840031,22.265846 20.869458,22.24802 L 20.634508,21.983701 z M 19.665339,22.541707 L 19.635971,22.571076 C 19.665245,22.58257 19.694617,22.58908 19.724077,22.600444 L 19.665339,22.541707 z"
       id="path3436" />
    <path
       style="opacity:0.15;fill:#000000;fill-opacity:1;fill-rule:nonzero;stroke:none;stroke-width:1;stroke-linecap:butt;stroke-linejoin:miter;marker:none;marker-start:none;marker-mid:none;marker-end:none;stroke-miterlimit:4;stroke-dasharray:none;stroke-dashoffset:0;stroke-opacity:1;visibility:visible;display:inline;overflow:visible;enable-background:accumulate"
       d="M 15.906141,10.500525 L 15.641822,10.882318 L 16.199828,10.764843 L 15.906141,10.500525 z M 14.026542,10.882318 L 13.762223,11.264112 L 14.320229,11.146637 L 14.026542,10.882318 z M 16.875309,10.911687 L 16.581622,11.29348 L 17.139628,11.176006 L 16.875309,10.911687 z M 17.78574,11.087899 L 17.521422,11.469693 L 18.079428,11.381587 L 17.78574,11.087899 z M 12.146943,11.264112 L 11.882624,11.645905 L 12.44063,11.52843 L 12.146943,11.264112 z M 14.99571,11.264112 L 14.702023,11.645905 L 15.260029,11.52843 L 14.99571,11.264112 z M 15.906141,11.440324 L 15.641822,11.822118 L 16.199828,11.734012 L 15.906141,11.440324 z M 18.754908,11.440324 L 18.461221,11.822118 L 19.019227,11.734012 L 18.754908,11.440324 z M 13.116111,11.645905 L 12.822424,12.027699 L 13.38043,11.910224 L 13.116111,11.645905 z M 19.606602,11.704643 L 19.401021,11.99833 L 19.900289,11.880855 C 19.805946,11.823396 19.705573,11.759826 19.606602,11.704643 z M 14.026542,11.822118 L 13.762223,12.203911 L 14.320229,12.115805 L 14.026542,11.822118 z M 16.875309,11.851486 L 16.581622,12.23328 L 17.139628,12.145174 L 16.875309,11.851486 z M 11.236512,12.027699 L 10.942824,12.409492 L 11.50083,12.292018 L 11.236512,12.027699 z M 17.78574,12.027699 L 17.521422,12.409492 L 18.079428,12.292018 L 17.78574,12.027699 z M 12.146943,12.203911 L 11.882624,12.585705 L 12.44063,12.497599 L 12.146943,12.203911 z M 14.99571,12.203911 L 14.702023,12.585705 L 15.260029,12.497599 L 14.99571,12.203911 z M 20.458295,12.262649 L 20.34082,12.409492 L 20.57577,12.350755 C 20.535989,12.320434 20.499112,12.292479 20.458295,12.262649 z M 15.906141,12.380124 L 15.641822,12.761917 L 16.199828,12.644442 L 15.906141,12.380124 z M 18.754908,12.380124 L 18.461221,12.761917 L 19.019227,12.644442 L 18.754908,12.380124 z M 19.665339,12.556336 L 19.401021,12.908761 L 19.929658,12.820655 L 19.665339,12.556336 z M 13.116111,12.585705 L 12.822424,12.967498 L 13.38043,12.879392 L 13.116111,12.585705 z M 14.026542,12.761917 L 13.762223,13.143711 L 14.320229,13.026236 L 14.026542,12.761917 z M 16.875309,12.791286 L 16.581622,13.17308 L 17.139628,13.055605 L 16.875309,12.791286 z M 11.236512,12.967498 L 10.942824,13.349292 L 11.50083,13.261186 L 11.236512,12.967498 z M 17.78574,12.967498 L 17.55079,13.290555 L 18.02069,13.202448 L 17.78574,12.967498 z M 12.146943,13.143711 L 11.882624,13.525505 L 12.44063,13.40803 L 12.146943,13.143711 z M 14.99571,13.143711 L 14.702023,13.525505 L 15.260029,13.40803 L 14.99571,13.143711 z M 15.906141,13.319923 L 15.641822,13.701717 C 15.791563,13.650643 15.953916,13.620455 16.111722,13.584242 L 16.17046,13.584242 L 15.906141,13.319923 z M 13.116111,13.525505 L 12.822424,13.907298 L 13.38043,13.789823 L 13.116111,13.525505 z M 14.026542,13.701717 L 13.762223,14.083511 L 14.320229,13.995404 L 14.026542,13.701717 z M 11.236512,13.907298 L 10.942824,14.289092 L 11.50083,14.171617 L 11.236512,13.907298 z M 12.146943,14.083511 L 11.882624,14.465304 L 12.44063,14.377198 L 12.146943,14.083511 z M 13.116111,14.465304 L 12.822424,14.847098 L 13.38043,14.758991 L 13.116111,14.465304 z M 14.026542,14.641517 L 13.762223,15.02331 L 14.026542,14.964573 C 14.065849,14.889939 14.125349,14.827888 14.173385,14.758991 L 14.026542,14.641517 z M 11.236512,14.847098 L 10.942824,15.228891 L 11.50083,15.140785 L 11.236512,14.847098 z M 12.146943,15.02331 L 11.882624,15.405104 L 12.44063,15.287629 L 12.146943,15.02331 z M 13.116111,15.405104 L 12.822424,15.786897 L 13.38043,15.669422 L 13.116111,15.405104 z M 11.236512,15.786897 L 11.207143,15.845635 C 11.266593,15.925129 11.32323,16.001755 11.383355,16.080585 L 11.50083,16.051216 L 11.236512,15.786897 z M 12.146943,15.96311 L 11.882624,16.344903 L 12.44063,16.256797 L 12.146943,15.96311 z M 13.116111,16.344903 L 12.822424,16.726697 L 13.38043,16.638591 L 13.116111,16.344903 z M 12.146943,16.902909 L 12.088205,16.991016 C 12.149764,17.065138 12.231442,17.123257 12.293786,17.196597 L 12.44063,17.167228 L 12.146943,16.902909 z M 13.116111,17.284703 L 12.822424,17.666497 L 13.38043,17.549022 L 13.116111,17.284703 z"
       id="path3442" />
    <path
       style="opacity:0.5;fill:url(#radialGradient3152);fill-opacity:1;stroke:none;stroke-width:0.25;stroke-linecap:round;stroke-linejoin:miter;stroke-miterlimit:4;stroke-opacity:1"
       d="M 18.431852,6.5651137 C 18.431852,6.5651137 9.41565,8.327238 9.41565,8.327238 C 9.41565,8.327238 8.7989065,7.8867069 8.7989065,7.8867069 C 8.7989065,7.8867069 8.9163814,8.0922881 8.9163814,8.0922881 C 8.9163814,8.0922881 9.5331249,8.5328191 9.5331249,8.5328191 C 9.5331249,8.5328191 18.549327,6.7706949 18.549327,6.7706949 C 18.549327,6.7706949 18.422595,6.5669461 18.431852,6.5651137 z M 20.57577,8.0041819 C 20.57577,8.0041819 13.674117,9.3845125 13.674117,9.3845125 C 13.914856,9.4104397 14.148622,9.4405462 14.378967,9.4726187 C 16.965812,8.9503777 20.693245,8.209763 20.693245,8.209763 C 20.693245,8.209763 20.57577,8.0041819 20.57577,8.0041819 z M 21.427464,10.118731 L 21.544939,10.324312 L 22.807794,11.176006 C 22.807794,11.176006 22.954638,11.146637 22.954638,11.146637 L 21.427464,10.118731 z M 22.514107,11.234743 C 22.514107,11.234743 22.631582,11.440324 22.631582,11.440324 C 22.631582,11.440324 25.098556,12.292018 25.098556,12.292018 C 25.098556,12.292018 24.981081,12.086436 24.981081,12.086436 C 24.981081,12.086436 22.514107,11.234743 22.514107,11.234743 z M 29.386391,13.877929 C 29.386391,13.877929 22.866532,15.170154 22.866532,15.170154 C 22.893551,15.246453 22.925968,15.31659 22.950967,15.39409 C 22.950967,15.39409 29.503866,14.083511 29.503866,14.083511 C 29.503866,14.083511 29.386391,13.877929 29.386391,13.877929 z M 31.618416,15.375735 C 31.618416,15.375735 23.336432,16.991016 23.336432,16.991016 C 23.347728,17.068057 23.355998,17.148036 23.3658,17.225965 C 23.3658,17.225965 31.73589,15.581316 31.73589,15.581316 C 31.73589,15.581316 31.618416,15.375735 31.618416,15.375735 z"
       id="path4347"
       sodipodi:nodetypes="ccsscccccccccccccccccccccccccccc" />
    <path
       style="fill:url(#linearGradient3148);fill-opacity:1;stroke:none;stroke-width:0.25;stroke-linecap:round;stroke-linejoin:miter;stroke-miterlimit:4;stroke-opacity:1"
       d="M 17.727003,6.0952139 C 17.727003,6.0952139 8.7989065,7.8867069 8.7989065,7.8867069 C 8.7989065,7.8867069 9.41565,8.327238 9.41565,8.327238 C 9.41565,8.327238 18.431852,6.5651137 18.431852,6.5651137 C 18.431852,6.5651137 17.727003,6.0952139 17.727003,6.0952139 z M 19.929658,7.5636508 C 19.929658,7.5636508 10.825349,9.3845125 10.825349,9.3845125 C 10.835462,9.3921258 10.844578,9.4060875 10.854718,9.4138813 C 11.171158,9.3581605 11.49881,9.3075758 11.911993,9.2670376 C 12.531847,9.2931856 13.112389,9.3240167 13.674117,9.3845125 C 13.674117,9.3845125 20.57577,8.0041819 20.57577,8.0041819 C 20.57577,8.0041819 19.929658,7.5636508 19.929658,7.5636508 z M 22.337894,9.9425185 L 21.427464,10.118731 L 22.954638,11.146637 C 22.954638,11.146637 22.514107,11.234743 22.514107,11.234743 C 22.514107,11.234743 24.981081,12.086436 24.981081,12.086436 C 24.981081,12.086436 24.334969,10.882318 24.334969,10.882318 C 24.334969,10.882318 23.894438,10.970424 23.894438,10.970424 L 22.337894,9.9425185 z M 28.710911,13.437398 C 28.710911,13.437398 22.660951,14.670885 22.660951,14.670885 C 22.731633,14.835251 22.806159,14.999665 22.866532,15.170154 C 22.866532,15.170154 29.386391,13.877929 29.386391,13.877929 C 29.386391,13.877929 28.710911,13.437398 28.710911,13.437398 z M 30.942935,14.935204 C 30.942935,14.935204 23.218957,16.462378 23.218957,16.462378 C 23.253494,16.636734 23.310145,16.811744 23.336432,16.991016 C 23.336432,16.991016 31.618416,15.375735 31.618416,15.375735 C 31.618416,15.375735 30.942935,14.935204 30.942935,14.935204 z"
       id="path4352"
       sodipodi:nodetypes="ccccccsscccccccccccccccccccccc" />
    <path
       style="opacity:0.5;fill:url(#linearGradient3144);fill-opacity:1;stroke:none;stroke-width:0.25;stroke-linecap:round;stroke-linejoin:miter;stroke-miterlimit:4;stroke-opacity:1"
       d="M 28.358486,19.516727 C 27.278944,19.601914 26.332031,20.091117 25.950249,21.07327 C 27.412358,20.907427 29.126685,20.912296 30.179347,20.485895 C 30.179347,20.485895 30.443666,20.36842 30.443666,20.36842 L 31.060409,20.779583 C 31.593656,21.150235 31.818654,21.319129 32.352634,21.690014 C 31.628692,21.108898 30.913308,20.489061 30.35556,19.781046 C 29.696582,19.55929 29.006211,19.465615 28.358486,19.516727 z M 34.232233,23.246557 C 34.499904,23.638164 34.683384,24.082553 34.76087,24.538781 C 34.863286,24.421119 34.958021,24.292447 35.025189,24.156987 C 34.827719,23.845697 34.552138,23.548181 34.232233,23.246557 z"
       id="path4443"
       sodipodi:nodetypes="cccscccccccc" />
    <path
       style="fill:url(#linearGradient3141);fill-opacity:1;stroke:none;stroke-width:0.25;stroke-linecap:round;stroke-linejoin:miter;stroke-miterlimit:4;stroke-opacity:1"
       d="M 17.198365,5.2435205 C 17.087818,5.2401468 16.960474,5.2531759 16.845941,5.2728893 L 7.4773133,7.1524885 C 6.1347588,7.4605952 4.9809706,8.267764 4.9809706,9.6488312 L 4.9809706,13.437398 C 4.9809706,14.195682 5.3523222,14.898764 5.8914015,15.375735 C 5.6153054,14.948287 5.4508704,14.429073 5.4508704,13.907298 L 5.4508704,10.030625 C 5.4508704,8.6156427 6.6304269,7.7912174 8.0059506,7.4755446 L 17.609528,5.5665766 C 17.781468,5.5369824 17.944927,5.5194804 18.108796,5.5372079 C 17.827323,5.367193 17.530008,5.2536417 17.198365,5.2435205 z M 32.998746,15.640054 C 32.814526,15.620124 32.634035,15.636153 32.44074,15.669422 L 23.3658,17.490284 C 23.38213,17.647974 23.413951,17.799072 23.424538,17.960184 C 23.421227,17.979328 23.42795,17.999869 23.424538,18.018921 L 33.028115,16.080585 C 33.516279,15.996562 33.971952,16.118119 34.379077,16.344903 C 34.349333,16.315442 34.321808,16.284775 34.290971,16.256797 C 34.232275,16.203546 34.177171,16.157437 34.114758,16.109953 C 34.10489,16.103419 33.924207,15.973062 33.909177,15.96311 C 33.871642,15.940102 33.830237,15.925209 33.791702,15.904372 C 33.544869,15.770902 33.2776,15.67022 32.998746,15.640054 z M 18.784277,22.864763 L 18.784277,25.067418 C 18.784277,25.773887 19.06223,26.453005 19.489127,26.976386 L 20.047133,27.446286 L 20.047133,27.35818 C 19.63485,26.834473 19.371652,26.170482 19.371652,25.478581 L 19.371652,23.099713 C 19.168995,23.027546 18.980752,22.942499 18.784277,22.864763 z"
       id="path4470" />
    <path
       style="opacity:0.71721311;fill:url(#radialGradient3138);fill-opacity:1;stroke:none;stroke-width:0.25;stroke-linecap:round;stroke-linejoin:miter;stroke-miterlimit:4;stroke-opacity:1"
       d="M 33.586121,16.051216 C 33.401901,16.031287 33.221413,16.047315 33.028115,16.080585 L 23.424538,18.018921 C 23.424124,18.02123 23.395583,18.016613 23.395169,18.018921 C 23.344739,18.299344 23.290898,18.58092 23.218957,18.841246 L 33.174959,16.785434 C 33.333258,16.758187 33.402916,16.745778 33.498015,16.756066 C 34.334718,16.846581 35.201401,17.914761 35.201401,18.958721 L 35.201401,23.305294 C 35.201401,23.80969 35.050629,24.205884 34.76087,24.538781 C 34.767787,24.579527 34.784892,24.615289 34.790239,24.656256 C 35.134065,24.271568 35.348245,23.787384 35.348245,23.217188 L 35.348245,18.870615 C 35.348245,18.270614 35.087573,17.679125 34.731502,17.225965 C 34.37543,16.772806 33.906442,16.431166 33.38054,16.374272 C 33.246703,16.359793 33.127207,16.405845 32.969377,16.43301 L 23.424538,18.400715 C 23.4409,18.32162 23.468473,18.24489 23.483275,18.165765 L 32.940009,16.256797 C 33.119313,16.225936 33.261336,16.240724 33.409908,16.256797 C 34.518318,16.376706 35.46572,17.6179 35.46572,18.870615 L 35.46572,23.217188 C 35.46572,23.887217 35.213299,24.409517 34.790239,24.832468 C 34.804947,25.027618 34.81145,25.224516 34.790239,25.419843 C 35.456895,24.921166 35.906251,24.218667 35.906251,23.305294 L 35.906251,18.958721 C 35.906251,17.566837 34.875676,16.190721 33.586121,16.051216 z M 20.076502,22.835394 C 19.858243,22.937887 19.637484,23.026037 19.401021,23.099713 C 19.392431,23.096666 19.380232,23.102769 19.371652,23.099713 L 19.371652,25.478581 C 19.371652,27.069306 20.718422,28.549148 22.22042,28.327348 L 28.916492,27.005755 C 28.81692,26.925366 28.671787,26.793341 28.534698,26.682699 L 22.044207,27.974923 C 22.034217,27.976399 22.024819,27.973621 22.014838,27.974923 C 21.376404,28.058305 20.748458,27.780609 20.282083,27.299442 C 19.808424,26.810757 19.518496,26.10627 19.518496,25.390474 L 19.518496,23.217188 C 19.560561,23.202375 19.594666,23.174162 19.635971,23.15845 L 19.635971,25.390474 C 19.635971,26.074524 19.950747,26.748288 20.399558,27.211336 C 20.819066,27.644152 21.339949,27.878923 21.897363,27.82808 C 21.901921,27.821324 21.940528,27.80535 21.98547,27.798711 L 22.014838,27.798711 L 28.358486,26.535855 C 28.302069,26.490333 28.271282,26.466503 28.211642,26.41838 L 22.102945,27.622499 C 22.093575,27.623882 22.082936,27.621311 22.073576,27.622499 C 21.586656,27.684338 21.141981,27.496229 20.751983,27.093861 C 20.354494,26.683762 20.076502,26.075026 20.076502,25.478581 L 20.076502,22.835394 z"
       id="path4498" />
    <path
       style="opacity:0.75;fill:#323232;fill-opacity:1;stroke:none;stroke-width:5;stroke-linecap:round;stroke-linejoin:miter;stroke-miterlimit:4;stroke-opacity:1"
       d="M 31.265991,21.895595 C 30.452569,21.984295 29.674623,22.382538 29.122073,23.070344 C 28.016973,24.445956 28.245728,26.458661 29.621341,27.563761 C 30.996953,28.668861 33.009658,28.440104 34.114758,27.064493 C 35.219858,25.688881 34.991103,23.676176 33.61549,22.571076 C 32.927684,22.018526 32.079413,21.806895 31.265991,21.895595 z M 31.853365,22.453601 C 32.356135,22.495175 32.840446,22.701465 33.263065,23.040975 C 34.390048,23.946337 34.579588,25.585087 33.674227,26.712068 C 32.768858,27.839048 31.100749,28.028592 29.973766,27.12323 C 28.846783,26.217868 28.686612,24.549749 29.591973,23.422769 C 30.157829,22.718406 31.015417,22.384311 31.853365,22.453601 z"
       id="path2758" />
    <path
       style="opacity:0.15;fill:url(#radialGradient3134);fill-opacity:1;stroke:none;stroke-width:5;stroke-linecap:round;stroke-linejoin:miter;stroke-miterlimit:4;stroke-opacity:1"
       d="M 31.265991,21.895595 C 30.452569,21.984295 29.674623,22.382538 29.122073,23.070344 C 28.016973,24.445956 28.245728,26.458661 29.621341,27.563761 C 30.996953,28.668861 33.009658,28.440104 34.114758,27.064493 C 35.219858,25.688881 34.991103,23.676176 33.61549,22.571076 C 32.927684,22.018526 32.079413,21.806895 31.265991,21.895595 z M 31.383466,22.101176 C 32.145107,22.018122 32.914568,22.231392 33.556752,22.747288 C 34.843563,23.781047 35.059755,25.631653 34.026652,26.917649 C 32.992891,28.204457 31.142285,28.420655 29.856291,27.387549 C 28.56948,26.35379 28.353279,24.503183 29.386391,23.217188 C 29.903206,22.573859 30.623403,22.184057 31.383466,22.101176 z M 31.97084,22.24802 C 31.065447,22.173153 30.114605,22.515691 29.503866,23.275925 C 28.527076,24.491821 28.696804,26.320785 29.915029,27.299442 C 31.132671,28.277633 32.961004,28.07573 33.938546,26.858911 C 34.915608,25.642673 34.713091,23.840899 33.498015,22.864763 C 33.046507,22.502046 32.519749,22.293409 31.97084,22.24802 z M 31.853365,22.453601 C 32.356135,22.495175 32.840446,22.701465 33.263065,23.040975 C 34.390048,23.946337 34.579588,25.585087 33.674227,26.712068 C 32.768858,27.839048 31.100749,28.028592 29.973766,27.12323 C 28.846783,26.217868 28.686612,24.549749 29.591973,23.422769 C 30.157829,22.718406 31.015417,22.384311 31.853365,22.453601 z"
       id="path4532" />
    <rect
       style="opacity:0.61162792;fill:#555753;fill-opacity:1;fill-rule:nonzero;stroke:none;stroke-width:0.69999999;stroke-linecap:round;stroke-linejoin:miter;stroke-miterlimit:4;stroke-dasharray:none;stroke-opacity:1"
       id="rect1951"
       width="40.001965"
       height="10.004759"
       x="-0.0019644466"
       y="30" />
    <text
       xml:space="preserve"
       style="font-size:12px;font-style:normal;font-weight:normal;fill:#eeeeec;fill-opacity:1;stroke:none;stroke-width:1px;stroke-linecap:butt;stroke-linejoin:miter;stroke-opacity:1;font-family:Bitstream Vera Sans"
       x="12.580688"
       y="39.168156"
       id="text2840"><tspan
         sodipodi:role="line"
         id="tspan2842"
         x="12.580688"
         y="39.168156">Pd</tspan></text>
  </g>
</svg>
