<?xml version="1.0" encoding="UTF-8" standalone="no"?>
<!-- Created with Inkscape (http://www.inkscape.org/) -->
<svg
   xmlns:dc="http://purl.org/dc/elements/1.1/"
   xmlns:cc="http://creativecommons.org/ns#"
   xmlns:rdf="http://www.w3.org/1999/02/22-rdf-syntax-ns#"
   xmlns:svg="http://www.w3.org/2000/svg"
   xmlns="http://www.w3.org/2000/svg"
   xmlns:xlink="http://www.w3.org/1999/xlink"
   xmlns:sodipodi="http://sodipodi.sourceforge.net/DTD/sodipodi-0.dtd"
   xmlns:inkscape="http://www.inkscape.org/namespaces/inkscape"
   width="40"
   height="40"
   id="svg2193"
   sodipodi:version="0.32"
   inkscape:version="0.46"
   version="1.0"
   sodipodi:docbase="/home/jra/Desktop"
   sodipodi:docname="48.svg"
   inkscape:output_extension="org.inkscape.output.svg.inkscape">
  <defs
     id="defs2195">
    <inkscape:perspective
       sodipodi:type="inkscape:persp3d"
       inkscape:vp_x="0 : 20 : 1"
       inkscape:vp_y="0 : 1000 : 0"
       inkscape:vp_z="40 : 20 : 1"
       inkscape:persp3d-origin="20 : 13.333333 : 1"
       id="perspective100" />
    <linearGradient
       id="linearGradient3652"
       inkscape:collect="always">
      <stop
         id="stop3654"
         offset="0"
         style="stop-color:#eeeeec;stop-opacity:0.36885246" />
      <stop
         id="stop3656"
         offset="1"
         style="stop-color:#eeeeec;stop-opacity:0;" />
    </linearGradient>
    <linearGradient
       id="linearGradient3604">
      <stop
         id="stop3606"
         offset="0"
         style="stop-color:#000000;stop-opacity:0.72727275;" />
      <stop
         style="stop-color:#ffffff;stop-opacity:0.55555558;"
         offset="0.6875"
         id="stop3608" />
      <stop
         id="stop3610"
         offset="1"
         style="stop-color:#ffffff;stop-opacity:0.3137255;" />
    </linearGradient>
    <linearGradient
       id="linearGradient3545">
      <stop
         style="stop-color:#ffffff;stop-opacity:0;"
         offset="0"
         id="stop3547" />
      <stop
         style="stop-color:#ffffff;stop-opacity:1;"
         offset="1"
         id="stop3549" />
    </linearGradient>
    <linearGradient
       id="linearGradient3439">
      <stop
         id="stop3441"
         offset="0"
         style="stop-color:#ffffff;stop-opacity:0.5398773;" />
      <stop
         style="stop-color:#ffffff;stop-opacity:0.66257668;"
         offset="0.6875"
         id="stop3443" />
      <stop
         id="stop3445"
         offset="0.8203125"
         style="stop-color:#ffffff;stop-opacity:0.50306749;" />
      <stop
         style="stop-color:#ffffff;stop-opacity:0.63803679;"
         offset="1"
         id="stop3447" />
    </linearGradient>
    <linearGradient
       inkscape:collect="always"
       id="linearGradient3239">
      <stop
         style="stop-color:#eeeeec;stop-opacity:1;"
         offset="0"
         id="stop3241" />
      <stop
         style="stop-color:#eeeeec;stop-opacity:0;"
         offset="1"
         id="stop3243" />
    </linearGradient>
    <linearGradient
       id="linearGradient3220">
      <stop
         id="stop3222"
         offset="0"
         style="stop-color:#000000;stop-opacity:1" />
      <stop
         id="stop3224"
         offset="1"
         style="stop-color:#c1c3c0;stop-opacity:1" />
    </linearGradient>
    <linearGradient
       id="linearGradient3291">
      <stop
         id="stop3293"
         offset="0"
         style="stop-color:#000000;stop-opacity:1;" />
      <stop
         id="stop3295"
         offset="1"
         style="stop-color:#000000;stop-opacity:0;" />
    </linearGradient>
    <radialGradient
       inkscape:collect="always"
       xlink:href="#linearGradient3291"
       id="radialGradient2595"
       gradientUnits="userSpaceOnUse"
       gradientTransform="matrix(1,0,0,0.197802,0,92.82166)"
       cx="63.912209"
       cy="115.70919"
       fx="75.857941"
       fy="115.70919"
       r="63.912209" />
    <linearGradient
       id="linearGradient5037">
      <stop
         style="stop-color:#0e0000;stop-opacity:0;"
         offset="0"
         id="stop5039" />
      <stop
         id="stop3480"
         offset="0.5"
         style="stop-color:#0e0000;stop-opacity:0;" />
      <stop
         style="stop-color:#0e0000;stop-opacity:1;"
         offset="1"
         id="stop5042" />
    </linearGradient>
    <linearGradient
       id="linearGradient5031">
      <stop
         style="stop-color:#000000;stop-opacity:1;"
         offset="0"
         id="stop5033" />
      <stop
         style="stop-color:#000000;stop-opacity:0;"
         offset="1"
         id="stop5035" />
    </linearGradient>
    <linearGradient
       id="linearGradient3456">
      <stop
         id="stop3458"
         offset="0"
         style="stop-color:#000000;stop-opacity:1;" />
      <stop
         style="stop-color:#ffffff;stop-opacity:1;"
         offset="0.125"
         id="stop3466" />
      <stop
         id="stop3468"
         offset="0.75"
         style="stop-color:#000000;stop-opacity:0.56565654;" />
      <stop
         style="stop-color:#ffffff;stop-opacity:0.5151515;"
         offset="0.875"
         id="stop3470" />
      <stop
         id="stop3460"
         offset="1"
         style="stop-color:#000000;stop-opacity:1;" />
    </linearGradient>
    <linearGradient
       id="linearGradient3514">
      <stop
         style="stop-color:#000000;stop-opacity:0.72727275;"
         offset="0"
         id="stop3516" />
      <stop
         id="stop3518"
         offset="0.6875"
         style="stop-color:#ffffff;stop-opacity:0.55555558;" />
      <stop
         style="stop-color:#000000;stop-opacity:0.3131313;"
         offset="0.8203125"
         id="stop3520" />
      <stop
         id="stop3522"
         offset="1"
         style="stop-color:#000000;stop-opacity:0.83838385;" />
    </linearGradient>
    <linearGradient
       id="linearGradient3397"
       inkscape:collect="always">
      <stop
         id="stop3399"
         offset="0"
         style="stop-color:#000000;stop-opacity:1;" />
      <stop
         id="stop3401"
         offset="1"
         style="stop-color:#000000;stop-opacity:0;" />
    </linearGradient>
    <linearGradient
       inkscape:collect="always"
       xlink:href="#linearGradient3439"
       id="linearGradient3437"
       x1="10.780505"
       y1="6.63556"
       x2="32.282642"
       y2="33.467285"
       gradientUnits="userSpaceOnUse"
       gradientTransform="translate(-2,-2.858773)" />
    <linearGradient
       inkscape:collect="always"
       xlink:href="#linearGradient3220"
       id="linearGradient3460"
       x1="39.622681"
       y1="34.696014"
       x2="3.5179536"
       y2="4.2252584"
       gradientUnits="userSpaceOnUse"
       gradientTransform="translate(-2,-2.858773)" />
    <linearGradient
       inkscape:collect="always"
       xlink:href="#linearGradient3514"
       id="linearGradient3506"
       x1="15.786866"
       y1="9.9303646"
       x2="16.167459"
       y2="16.258324"
       gradientUnits="userSpaceOnUse"
       gradientTransform="translate(-2,-2.858773)" />
    <linearGradient
       inkscape:collect="always"
       xlink:href="#linearGradient3514"
       id="linearGradient3515"
       x1="22.965183"
       y1="11.267395"
       x2="23.118025"
       y2="14.822787"
       gradientUnits="userSpaceOnUse"
       gradientTransform="translate(-2,-2.858773)" />
    <linearGradient
       inkscape:collect="always"
       xlink:href="#linearGradient3397"
       id="linearGradient3523"
       x1="6.0628867"
       y1="14.28125"
       x2="8.8023386"
       y2="14.28125"
       gradientUnits="userSpaceOnUse"
       gradientTransform="translate(-2,-2.858773)" />
    <linearGradient
       inkscape:collect="always"
       xlink:href="#linearGradient3514"
       id="linearGradient3531"
       x1="7.0888577"
       y1="15.304011"
       x2="6.1960506"
       y2="15.30401"
       gradientUnits="userSpaceOnUse"
       gradientTransform="translate(-2,-2.858773)" />
    <linearGradient
       inkscape:collect="always"
       xlink:href="#linearGradient3397"
       id="linearGradient3535"
       gradientUnits="userSpaceOnUse"
       x1="8.5153913"
       y1="15.931686"
       x2="5.539845"
       y2="14.904581"
       gradientTransform="translate(-2,-2.858773)" />
    <radialGradient
       inkscape:collect="always"
       xlink:href="#linearGradient3545"
       id="radialGradient3543"
       cx="11.210894"
       cy="11.44897"
       fx="11.210894"
       fy="11.44897"
       r="8.502079"
       gradientTransform="matrix(2.3096383,-6.6325426e-2,6.8139977e-3,0.2372825,-19.99987,9.449404)"
       gradientUnits="userSpaceOnUse" />
    <linearGradient
       inkscape:collect="always"
       xlink:href="#linearGradient3397"
       id="linearGradient3557"
       x1="22.55715"
       y1="15.351775"
       x2="22.366785"
       y2="12.213401"
       gradientUnits="userSpaceOnUse"
       gradientTransform="translate(-2,-2.858773)" />
    <radialGradient
       inkscape:collect="always"
       xlink:href="#linearGradient3604"
       id="radialGradient3602"
       cx="25.401955"
       cy="15.907421"
       fx="25.401955"
       fy="15.907421"
       r="3.125"
       gradientTransform="matrix(1.7185142,0.4634272,-0.1695052,0.6285712,-18.046637,-10.054281)"
       gradientUnits="userSpaceOnUse" />
    <radialGradient
       inkscape:collect="always"
       xlink:href="#linearGradient3439"
       id="radialGradient3622"
       cx="26.414158"
       cy="14.45927"
       fx="26.414158"
       fy="14.45927"
       r="1.5968891"
       gradientTransform="matrix(2.3137418,-2.3000785e-2,2.3415361e-2,2.3554456,-38.069667,-21.636574)"
       gradientUnits="userSpaceOnUse" />
    <radialGradient
       inkscape:collect="always"
       xlink:href="#linearGradient5037"
       id="radialGradient3639"
       cx="27.028477"
       cy="9.7019768"
       fx="27.028477"
       fy="9.7019768"
       r="3.4276392"
       gradientTransform="matrix(1.3294585,-9.6385034e-2,7.4913474e-2,1.0332969,-11.387364,3.3556161)"
       gradientUnits="userSpaceOnUse" />
    <radialGradient
       inkscape:collect="always"
       xlink:href="#linearGradient3652"
       id="radialGradient3650"
       cx="28.277346"
       cy="12.357948"
       fx="28.277346"
       fy="12.357948"
       r="3.1694427"
       gradientTransform="matrix(0.504901,2.4564686e-7,-2.718915e-7,0.558844,12.307837,3.156063)"
       gradientUnits="userSpaceOnUse" />
    <radialGradient
       inkscape:collect="always"
       xlink:href="#linearGradient3456"
       id="radialGradient3669"
       cx="31.247406"
       cy="-0.67107022"
       fx="31.247406"
       fy="-0.67107022"
       r="2.5095153"
       gradientTransform="matrix(1.3767709,-0.3786019,0.2755071,1.0018711,-12.775269,25.231825)"
       gradientUnits="userSpaceOnUse" />
    <radialGradient
       inkscape:collect="always"
       xlink:href="#linearGradient3514"
       id="radialGradient3681"
       gradientUnits="userSpaceOnUse"
       gradientTransform="matrix(1.3767709,-0.3786019,0.2755071,1.0018711,-12.775269,25.231825)"
       cx="29.575123"
       cy="-0.39174065"
       fx="29.575123"
       fy="-0.39174065"
       r="2.5095153" />
    <radialGradient
       inkscape:collect="always"
       xlink:href="#linearGradient5031"
       id="radialGradient3711"
       cx="21.100641"
       cy="6.7225795"
       fx="21.100641"
       fy="6.7225795"
       r="12.692487"
       gradientTransform="matrix(1.7189091,-3.4779477e-2,1.4221041e-2,0.7028478,-17.265047,5.6865013)"
       gradientUnits="userSpaceOnUse" />
    <radialGradient
       inkscape:collect="always"
       xlink:href="#linearGradient3239"
       id="radialGradient3720"
       gradientUnits="userSpaceOnUse"
       gradientTransform="matrix(1.848975,5.7444143e-3,-2.6394837e-3,0.8495799,-17.458191,0.9613878)"
       cx="18.114777"
       cy="13.069778"
       fx="18.114777"
       fy="13.069778"
       r="16.541073" />
    <radialGradient
       inkscape:collect="always"
       xlink:href="#linearGradient3239"
       id="radialGradient3723"
       gradientUnits="userSpaceOnUse"
       gradientTransform="matrix(1.848975,5.7444143e-3,-2.6394837e-3,0.8495799,-17.458191,0.9613878)"
       cx="18.114777"
       cy="13.069778"
       fx="18.114777"
       fy="13.069778"
       r="16.541073" />
  </defs>
  <sodipodi:namedview
     id="base"
     pagecolor="#ffffff"
     bordercolor="#666666"
     borderopacity="1.0"
     inkscape:pageopacity="0.0"
     inkscape:pageshadow="2"
     inkscape:zoom="8.7625"
     inkscape:cx="28.471849"
     inkscape:cy="21.535909"
     inkscape:current-layer="layer1"
     showgrid="false"
     inkscape:grid-bbox="false"
     inkscape:document-units="px"
     width="40px"
     height="40px"
     inkscape:window-width="1685"
     inkscape:window-height="1037"
     inkscape:window-x="158"
     inkscape:window-y="66">
    <inkscape:grid
       id="GridFromPre046Settings"
       type="xygrid"
       originx="0px"
       originy="0px"
       spacingx="1px"
       spacingy="1px"
       color="#0000ff"
       empcolor="#0000ff"
       opacity="0.2"
       empopacity="0.4"
       empspacing="2" />
  </sodipodi:namedview>
  <metadata
     id="metadata2198">
    <rdf:RDF>
      <cc:Work
         rdf:about="">
        <dc:format>image/svg+xml</dc:format>
        <dc:type
           rdf:resource="http://purl.org/dc/dcmitype/StillImage" />
        <dc:creator>
          <cc:Agent>
            <dc:title>Jarle Akselsen</dc:title>
          </cc:Agent>
        </dc:creator>
        <cc:license
           rdf:resource="http://creativecommons.org/licenses/GPL/2.0/" />
      </cc:Work>
      <cc:License
         rdf:about="http://creativecommons.org/licenses/GPL/2.0/">
        <cc:permits
           rdf:resource="http://web.resource.org/cc/Reproduction" />
        <cc:permits
           rdf:resource="http://web.resource.org/cc/Distribution" />
        <cc:requires
           rdf:resource="http://web.resource.org/cc/Notice" />
        <cc:permits
           rdf:resource="http://web.resource.org/cc/DerivativeWorks" />
        <cc:requires
           rdf:resource="http://web.resource.org/cc/ShareAlike" />
        <cc:requires
           rdf:resource="http://web.resource.org/cc/SourceCode" />
      </cc:License>
    </rdf:RDF>
  </metadata>
  <g
     id="layer1"
     inkscape:label="Layer 1"
     inkscape:groupmode="layer">
    <path
       transform="matrix(0.2772262,0,0,0.8060988,2.4775146,-69.203048)"
       d="M 127.82442,115.70919 A 63.912209,12.641975 0 1 1 0,115.70919 A 63.912209,12.641975 0 1 1 127.82442,115.70919 z"
       sodipodi:ry="12.641975"
       sodipodi:rx="63.912209"
       sodipodi:cy="115.70919"
       sodipodi:cx="63.912209"
       id="path2593"
       style="opacity:0.38139535;fill:url(#radialGradient2595);fill-opacity:1;fill-rule:nonzero;stroke:none;stroke-width:0;stroke-linecap:round;stroke-linejoin:round;stroke-miterlimit:4;stroke-dasharray:none;stroke-dashoffset:4;stroke-opacity:1"
       sodipodi:type="arc" />
    <path
       style="opacity:1;fill:#75511a;fill-opacity:1;fill-rule:nonzero;stroke:none;stroke-width:10;stroke-linecap:round;stroke-linejoin:round;stroke-miterlimit:4;stroke-dasharray:none;stroke-opacity:1"
       d="M 20.9375,5.141227 C 16.137685,5.141227 11.781661,6.471259 8.625,8.641227 C 5.4683394,10.811197 3.5,13.837652 3.5,17.17248 C 3.5,20.507308 5.4683394,23.533762 8.625,25.70373 C 11.781661,27.873698 16.137685,29.20373 20.9375,29.20373 C 23.884103,29.20373 26.244793,29.100562 27.96875,28.35998 C 29.692707,27.619398 30.760306,26.223002 31.03125,23.67248 C 31.118707,22.849205 30.87609,22.19539 30.4375,21.73498 C 29.99891,21.27457 29.37962,20.984064 28.71875,20.79748 C 27.39701,20.424313 25.875687,20.45373 25.21875,20.45373 C 24.224987,20.45373 23.4375,19.698434 23.4375,18.76623 C 23.437501,17.834028 24.226249,17.071925 25.21875,17.07873 C 25.513371,17.08075 26.166512,17.352364 26.96875,17.70373 C 27.770988,18.055096 28.747163,18.484019 29.78125,18.76623 C 30.815337,19.048441 31.910998,19.176693 32.96875,18.95373 C 34.026502,18.730767 35.041063,18.143537 35.875,16.98498 C 36.951946,15.48882 37.132277,13.950798 36.625,12.54748 C 36.117723,11.144162 34.947426,9.861126 33.375,8.766227 C 30.230149,6.576429 25.443251,5.141227 20.9375,5.141227 z M 18.78125,18.67248 C 19.262082,18.658194 19.709971,18.767801 20.03125,18.95373 C 20.35253,19.13966 20.540667,19.394026 20.59375,19.70373 C 20.654309,20.057044 20.506971,20.419659 20.1875,20.73498 C 19.86803,21.050302 19.382024,21.293614 18.8125,21.39123 C 18.385031,21.464498 17.969829,21.453367 17.625,21.35998 C 17.510057,21.328851 17.413012,21.282172 17.3125,21.23498 C 17.211988,21.187788 17.112737,21.139013 17.03125,21.07873 C 16.973045,21.035671 16.922825,20.971415 16.875,20.92248 C 16.857203,20.901962 16.828775,20.881337 16.8125,20.85998 C 16.708178,20.723085 16.627466,20.558618 16.59375,20.39123 C 16.592087,20.381527 16.5951,20.36966 16.59375,20.35998 C 16.576124,20.257143 16.581613,20.148933 16.59375,20.04748 C 16.601746,19.980641 16.604999,19.925368 16.625,19.85998 C 16.630059,19.847758 16.650687,19.84089 16.65625,19.82873 C 16.726857,19.674397 16.852147,19.533813 17,19.39123 C 17.319006,19.083598 17.804224,18.83281 18.375,18.73498 C 18.529508,18.708499 18.656539,18.676185 18.78125,18.67248 z"
       id="path3479" />
    <path
       style="opacity:0.5;fill:url(#linearGradient3460);fill-opacity:1;fill-rule:nonzero;stroke:none;stroke-width:10;stroke-linecap:round;stroke-linejoin:round;stroke-miterlimit:4;stroke-dasharray:none;stroke-opacity:1"
       d="M 20.9375,5.141227 C 16.137685,5.141227 11.781661,6.471259 8.625,8.641227 C 5.4683394,10.811197 3.5,13.837652 3.5,17.17248 C 3.5,20.507308 5.4683394,23.533762 8.625,25.70373 C 11.781661,27.873698 16.137685,29.20373 20.9375,29.20373 C 23.884103,29.20373 26.244793,29.100562 27.96875,28.35998 C 29.692707,27.619398 30.760306,26.223002 31.03125,23.67248 C 31.118707,22.849205 30.87609,22.19539 30.4375,21.73498 C 29.99891,21.27457 29.37962,20.984064 28.71875,20.79748 C 27.39701,20.424313 25.875687,20.45373 25.21875,20.45373 C 24.224987,20.45373 23.4375,19.698434 23.4375,18.76623 C 23.437501,17.834028 24.226249,17.071925 25.21875,17.07873 C 25.513371,17.08075 26.166512,17.352364 26.96875,17.70373 C 27.770988,18.055096 28.747163,18.484019 29.78125,18.76623 C 30.815337,19.048441 31.910998,19.176693 32.96875,18.95373 C 34.026502,18.730767 35.041063,18.143537 35.875,16.98498 C 36.951946,15.48882 37.132277,13.950798 36.625,12.54748 C 36.117723,11.144162 34.947426,9.861126 33.375,8.766227 C 30.230149,6.576429 25.443251,5.141227 20.9375,5.141227 z M 20.9375,5.297477 C 29.884861,5.2974773 39.964383,11.036347 35.75,16.89123 C 32.490937,21.418924 26.697842,16.932622 25.21875,16.92248 C 24.147848,16.915137 23.281251,17.748849 23.28125,18.76623 C 23.28125,19.783611 24.147823,20.60998 25.21875,20.60998 C 26.541426,20.60998 31.20938,20.493568 30.875,23.64123 C 30.340326,28.674359 26.824368,29.04748 20.9375,29.04748 C 11.393648,29.04748 3.65625,23.724035 3.65625,17.17248 C 3.65625,10.620923 11.393648,5.297477 20.9375,5.297477 z M 18.9375,18.45373 C 18.793183,18.458018 18.649405,18.490622 18.5,18.51623 C 17.571933,18.675299 16.866259,19.215654 16.65625,19.82873 C 16.726857,19.674397 16.852147,19.533813 17,19.39123 C 17.319006,19.083598 17.804224,18.83281 18.375,18.73498 C 18.529508,18.708499 18.656539,18.676185 18.78125,18.67248 C 19.262082,18.658194 19.709971,18.767801 20.03125,18.95373 C 20.35253,19.13966 20.540667,19.394026 20.59375,19.70373 C 20.654309,20.057044 20.506971,20.419659 20.1875,20.73498 C 19.86803,21.050302 19.382024,21.293614 18.8125,21.39123 C 18.385031,21.464498 17.969829,21.453367 17.625,21.35998 C 18.024629,21.497682 18.495077,21.571523 19,21.48498 C 20.195238,21.280118 21.04726,20.432675 20.90625,19.60998 C 20.782867,18.890121 19.947722,18.423713 18.9375,18.45373 z M 17.625,21.35998 C 17.510057,21.328851 17.413012,21.282172 17.3125,21.23498 C 17.409554,21.287704 17.513794,21.321661 17.625,21.35998 z M 17.3125,21.23498 C 17.211988,21.187788 17.112737,21.139013 17.03125,21.07873 C 17.1132,21.146685 17.212837,21.180839 17.3125,21.23498 z"
       id="path3470" />
    <path
       style="opacity:0.35;fill:url(#linearGradient3437);fill-opacity:1;fill-rule:nonzero;stroke:none;stroke-width:10;stroke-linecap:round;stroke-linejoin:round;stroke-miterlimit:4;stroke-dasharray:none;stroke-opacity:1"
       d="M 20.9375,5.297477 C 11.393648,5.297477 3.65625,10.620923 3.65625,17.17248 C 3.65625,23.724035 11.393648,29.04748 20.9375,29.04748 C 26.824368,29.04748 30.340326,28.674359 30.875,23.64123 C 31.20938,20.493568 26.541426,20.60998 25.21875,20.60998 C 24.147823,20.60998 23.28125,19.783611 23.28125,18.76623 C 23.281251,17.748849 24.147848,16.915137 25.21875,16.92248 C 26.697842,16.932622 32.490937,21.418924 35.75,16.89123 C 39.964383,11.036347 29.884861,5.297477 20.9375,5.297477 z M 18.9375,18.45373 C 19.947722,18.423713 20.782867,18.890121 20.90625,19.60998 C 21.04726,20.432675 20.195238,21.280118 19,21.48498 C 17.804762,21.689842 16.734759,21.182676 16.59375,20.35998 C 16.452741,19.537283 17.304762,18.721092 18.5,18.51623 C 18.649405,18.490622 18.793183,18.458018 18.9375,18.45373 z"
       id="path3430" />
    <path
       style="opacity:0.295082;fill:url(#radialGradient3711);fill-opacity:1;fill-rule:evenodd;stroke:none;stroke-width:1px;stroke-linecap:butt;stroke-linejoin:miter;marker:none;marker-start:none;marker-mid:none;marker-end:none;stroke-miterlimit:4;stroke-dasharray:none;stroke-dashoffset:0;stroke-opacity:1;visibility:visible;display:inline;overflow:visible;enable-background:accumulate"
       d="M 26.75,8.859977 L 26.46875,9.203727 C 26.575018,11.807738 22.83084,9.870594 20.9375,9.984977 L 20.90625,10.453728 C 17.055156,12.057274 13.665411,13.50583 8.96875,15.39123 C 8.672761,17.18537 8.302687,18.97209 9.1875,20.76623 C 9.065373,20.644103 19.242404,14.457924 22.0625,13.23498 C 22.314734,13.125599 22.537226,12.958799 22.78125,12.82873 C 22.8289,12.791969 22.871506,12.783799 22.90625,12.73498 C 22.937459,12.691122 22.978584,12.630796 23,12.57873 C 23.002625,12.57193 22.997527,12.554399 23,12.54748 C 23.042651,12.436724 23.057885,12.308967 23.0625,12.17248 C 23.06268,12.163855 23.062453,12.149925 23.0625,12.14123 C 23.064985,12.003753 23.060145,11.853168 23.03125,11.70373 C 23.029474,11.694879 23.001871,11.681347 23,11.67248 C 22.990784,11.627447 22.97916,11.590771 22.96875,11.54748 C 24.362803,11.762734 25.354857,12.308893 25.9375,13.20373 C 27.966007,13.524937 28.466859,10.08023 27.09375,9.453727 C 27.09375,9.453727 26.911143,9.141629 26.75,8.859977 z M 31.59375,10.797479 C 31.424472,10.807708 31.262731,10.83847 31.125,10.922479 C 30.25406,11.45371 29.254347,12.476367 28.96875,13.32873 C 28.550924,14.575728 29.934959,15.76623 31.125,15.76623 C 32.315041,15.76623 33.874999,14.816764 33.875,13.48498 C 34.533577,12.31967 32.778693,10.725878 31.59375,10.797479 z"
       id="path2368" />
    <path
       style="opacity:0.25;fill:url(#radialGradient3723);fill-opacity:1;fill-rule:nonzero;stroke:none;stroke-width:10;stroke-linecap:round;stroke-linejoin:round;stroke-miterlimit:4;stroke-dasharray:none;stroke-opacity:1"
       d="M 20.9375,5.297477 C 11.393648,5.297477 3.65625,10.620923 3.65625,17.17248 C 3.65625,23.724035 11.393648,29.04748 20.9375,29.04748 C 26.824368,29.04748 30.340326,28.674359 30.875,23.64123 C 31.20938,20.493568 26.541426,20.60998 25.21875,20.60998 C 24.147823,20.60998 23.28125,19.783611 23.28125,18.76623 C 23.281251,17.748849 24.147848,16.915137 25.21875,16.92248 C 26.697842,16.932622 32.490937,21.418924 35.75,16.89123 C 39.964383,11.036347 29.884861,5.2974773 20.9375,5.297477 z M 26.75,8.859977 C 26.911143,9.141629 27.09375,9.453727 27.09375,9.453727 C 28.466859,10.08023 27.966007,13.524937 25.9375,13.20373 C 25.354857,12.308893 24.362803,11.762734 22.96875,11.54748 C 22.97916,11.590771 22.990784,11.627447 23,11.67248 C 23.001871,11.681347 23.029474,11.694879 23.03125,11.70373 C 23.060145,11.853168 23.064985,12.003753 23.0625,12.14123 C 23.062453,12.149925 23.06268,12.163855 23.0625,12.17248 C 23.057885,12.308967 23.042651,12.436724 23,12.54748 C 22.997527,12.554399 23.002625,12.57193 23,12.57873 C 22.978584,12.630796 22.937459,12.691122 22.90625,12.73498 C 22.871506,12.783799 22.8289,12.791969 22.78125,12.82873 C 22.537226,12.958799 22.314734,13.125599 22.0625,13.23498 C 19.242404,14.457924 9.065373,20.644103 9.1875,20.76623 C 8.302687,18.97209 8.672761,17.18537 8.96875,15.39123 C 13.665411,13.50583 17.055156,12.057274 20.90625,10.453728 L 20.9375,9.984977 C 22.83084,9.870594 26.575018,11.807738 26.46875,9.203727 L 26.75,8.859977 z M 31.59375,10.797479 C 32.778693,10.725878 34.533577,12.31967 33.875,13.48498 C 33.874999,14.816764 32.315041,15.76623 31.125,15.76623 C 29.934959,15.76623 28.550924,14.575728 28.96875,13.32873 C 29.254347,12.476367 30.25406,11.45371 31.125,10.922479 C 31.262731,10.83847 31.424472,10.807708 31.59375,10.797479 z M 18.9375,18.45373 C 19.947722,18.423713 20.782867,18.890121 20.90625,19.60998 C 21.04726,20.432675 20.195238,21.280118 19,21.48498 C 17.804762,21.689842 16.734759,21.182676 16.59375,20.35998 C 16.452741,19.537283 17.304762,18.721092 18.5,18.51623 C 18.649405,18.490622 18.793183,18.458018 18.9375,18.45373 z"
       id="path3449" />
    <path
       style="opacity:1;fill:#8c0000;fill-opacity:1;fill-rule:nonzero;stroke:none;stroke-width:1;stroke-linecap:butt;stroke-linejoin:miter;marker:none;marker-start:none;marker-mid:none;marker-end:none;stroke-miterlimit:4;stroke-dasharray:none;stroke-dashoffset:0;stroke-opacity:1;visibility:visible;display:inline;overflow:visible;enable-background:accumulate"
       d="M 26.65625,8.859977 L 26.375,9.172477 C 26.479309,11.456454 22.795945,9.759652 20.9375,9.859977 L 20.875,11.14123 C 23.352315,11.038206 25.017976,11.539218 25.84375,12.67248 C 27.83487,12.954211 28.316551,9.940733 26.96875,9.391227 C 26.96875,9.391227 26.814423,9.107014 26.65625,8.859977 z"
       id="path3579" />
    <path
       style="opacity:0.35;fill:url(#radialGradient3602);fill-opacity:1;fill-rule:nonzero;stroke:none;stroke-width:1;stroke-linecap:butt;stroke-linejoin:miter;marker:none;marker-start:none;marker-mid:none;marker-end:none;stroke-miterlimit:4;stroke-dasharray:none;stroke-dashoffset:0;stroke-opacity:1;visibility:visible;display:inline;overflow:visible;enable-background:accumulate"
       d="M 20.9375,9.859977 L 20.875,11.14123 C 23.352315,11.038206 25.017976,11.539218 25.84375,12.67248 C 26.389844,12.749749 26.812592,12.565885 27.125,12.26623 C 26.567341,11.432277 25.658458,10.766637 24.53125,10.328728 C 23.367153,10.221396 21.903832,9.807811 20.9375,9.859977 z"
       id="path3586" />
    <path
       style="opacity:0.25;fill:url(#radialGradient3622);fill-opacity:1;fill-rule:nonzero;stroke:none;stroke-width:1;stroke-linecap:butt;stroke-linejoin:miter;marker:none;marker-start:none;marker-mid:none;marker-end:none;stroke-miterlimit:4;stroke-dasharray:none;stroke-dashoffset:0;stroke-opacity:1;visibility:visible;display:inline;overflow:visible;enable-background:accumulate"
       d="M 26.65625,8.859977 L 26.375,9.172477 C 26.425072,10.268858 25.605939,10.427815 24.53125,10.328728 C 25.658458,10.766637 26.567341,11.432277 27.125,12.26623 C 27.951666,11.47331 27.946897,9.790023 26.96875,9.391227 C 26.96875,9.391227 26.814423,9.107014 26.65625,8.859977 z"
       id="path3591" />
    <path
       style="opacity:1;fill:url(#radialGradient3650);fill-opacity:1;fill-rule:nonzero;stroke:none;stroke-width:1;stroke-linecap:butt;stroke-linejoin:miter;marker:none;marker-start:none;marker-mid:none;marker-end:none;stroke-miterlimit:4;stroke-dasharray:none;stroke-dashoffset:0;stroke-opacity:1;visibility:visible;display:inline;overflow:visible;enable-background:accumulate"
       d="M 26.650146,9.004279 L 26.390083,9.293234 C 26.486528,11.405157 23.080637,9.836165 21.362192,9.928931 L 21.30438,11.113674 C 23.595094,11.018424 25.135269,11.481689 25.898851,12.529584 C 27.739968,12.790091 28.18538,10.003624 26.939101,9.495511 C 26.939101,9.495511 26.796388,9.2327 26.650146,9.004279 z"
       id="path3626" />
    <path
       style="opacity:0.52427183;fill:url(#linearGradient3557);fill-opacity:1;fill-rule:evenodd;stroke:none;stroke-width:1px;stroke-linecap:butt;stroke-linejoin:miter;marker:none;marker-start:none;marker-mid:none;marker-end:none;stroke-miterlimit:4;stroke-dasharray:none;stroke-dashoffset:0;stroke-opacity:1;visibility:visible;display:inline;overflow:visible;enable-background:accumulate"
       d="M 21.8125,9.578727 C 22.070018,10.179262 22.115383,11.054045 21.875,11.64123 L 22,11.64123 C 22.656323,11.058218 22.594059,9.964327 21.8125,9.578727 z"
       id="path3493" />
    <path
       style="opacity:0.5;fill:url(#linearGradient3515);fill-opacity:1;fill-rule:evenodd;stroke:none;stroke-width:1px;stroke-linecap:butt;stroke-linejoin:miter;marker:none;marker-start:none;marker-mid:none;marker-end:none;stroke-miterlimit:4;stroke-dasharray:none;stroke-dashoffset:0;stroke-opacity:1;visibility:visible;display:inline;overflow:visible;enable-background:accumulate"
       d="M 21.8125,9.578727 C 22.070018,10.179262 22.115383,11.054045 21.875,11.64123 L 22,11.64123 C 22.656323,11.058218 22.594059,9.964327 21.8125,9.578727 z"
       id="path3492" />
    <path
       style="opacity:1;fill:url(#radialGradient3639);fill-opacity:1;fill-rule:nonzero;stroke:none;stroke-width:1;stroke-linecap:butt;stroke-linejoin:miter;marker:none;marker-start:none;marker-mid:none;marker-end:none;stroke-miterlimit:4;stroke-dasharray:none;stroke-dashoffset:0;stroke-opacity:1;visibility:visible;display:inline;overflow:visible;enable-background:accumulate"
       d="M 26.65625,8.859977 L 26.375,9.172477 C 26.377158,9.219732 26.376035,9.253579 26.375,9.297477 L 26.65625,9.016227 C 26.802492,9.244648 26.937501,9.484977 26.9375,9.484977 C 28.183779,9.99309 27.747367,12.776737 25.90625,12.51623 C 25.157352,11.488487 23.655814,11.037283 21.4375,11.10998 L 21.4375,11.14123 C 23.606278,11.132813 25.082045,11.627144 25.84375,12.67248 C 27.83487,12.954211 28.316551,9.940733 26.96875,9.391227 C 26.96875,9.391227 26.814423,9.107014 26.65625,8.859977 z M 26.34375,9.672477 C 26.13628,10.350674 25.348903,10.43304 24.40625,10.328728 C 25.389684,10.455749 26.190828,10.42448 26.34375,9.672477 z M 21.4375,9.891227 L 21.4375,9.922477 C 21.63321,9.915925 21.82845,9.92654 22.0625,9.953727 C 21.847977,9.921354 21.637435,9.909014 21.4375,9.891227 z"
       id="path3628" />
    <path
       style="opacity:1;fill:#ffffff;fill-opacity:1;fill-rule:evenodd;stroke:none;stroke-width:1px;stroke-linecap:butt;stroke-linejoin:miter;marker:none;marker-start:none;marker-mid:none;marker-end:none;stroke-miterlimit:4;stroke-dasharray:none;stroke-dashoffset:0;stroke-opacity:1;visibility:visible;display:inline;overflow:visible;enable-background:accumulate"
       d="M 5.09375,8.609977 L 4.25,8.672477 L 4.1875,14.32873 L 5.03125,14.26623 L 5.03125,14.07873 C 10.501125,12.93772 15.756287,12.639647 21.28125,12.23498 C 21.568766,12.167212 21.752456,11.953249 21.875,11.64123 L 22,11.64123 C 22.656323,11.058218 22.594059,9.964327 21.8125,9.578727 C 21.679649,9.264652 21.488565,9.026555 21.25,8.953727 C 15.933913,8.990495 10.458766,9.365532 5.09375,8.766227 L 5.09375,8.609977 z"
       id="path3488" />
    <path
       style="opacity:0.15;fill:url(#radialGradient3720);fill-opacity:1;fill-rule:nonzero;stroke:none;stroke-width:10;stroke-linecap:round;stroke-linejoin:round;stroke-miterlimit:4;stroke-dasharray:none;stroke-opacity:1"
       d="M 26.75,8.859977 L 26.46875,9.203727 C 26.575018,11.807738 22.83084,9.870594 20.9375,9.984977 L 20.90625,10.453728 C 17.055156,12.057274 13.665411,13.50583 8.96875,15.39123 C 8.672761,17.18537 8.302687,18.97209 9.1875,20.76623 C 9.065373,20.644103 19.242404,14.457924 22.0625,13.23498 C 22.314734,13.125599 22.537226,12.958799 22.78125,12.82873 C 22.8289,12.791969 22.871506,12.783799 22.90625,12.73498 C 22.937459,12.691122 22.978584,12.630796 23,12.57873 C 23.002625,12.57193 22.997527,12.554399 23,12.54748 C 23.042651,12.436724 23.057885,12.308967 23.0625,12.17248 C 23.06268,12.163855 23.062453,12.149925 23.0625,12.14123 C 23.064985,12.003753 23.060145,11.853168 23.03125,11.70373 C 23.029474,11.694879 23.001871,11.681347 23,11.67248 C 22.990784,11.627447 22.97916,11.590771 22.96875,11.54748 C 24.362803,11.762734 25.354857,12.308893 25.9375,13.20373 C 27.966007,13.524937 28.466859,10.08023 27.09375,9.453727 C 27.09375,9.453727 26.911143,9.141629 26.75,8.859977 z M 31.59375,10.797479 C 31.424472,10.807708 31.262731,10.83847 31.125,10.922479 C 30.25406,11.45371 29.254347,12.476367 28.96875,13.32873 C 28.550924,14.575728 29.934959,15.76623 31.125,15.76623 C 32.315041,15.76623 33.874999,14.816764 33.875,13.48498 C 34.533577,12.31967 32.778693,10.725878 31.59375,10.797479 z"
       id="path3716" />
    <path
       style="opacity:0.52427183;fill:#006066;fill-opacity:1;fill-rule:evenodd;stroke:none;stroke-width:1px;stroke-linecap:butt;stroke-linejoin:miter;marker:none;marker-start:none;marker-mid:none;marker-end:none;stroke-miterlimit:4;stroke-dasharray:none;stroke-dashoffset:0;stroke-opacity:1;visibility:visible;display:inline;overflow:visible;enable-background:accumulate"
       d="M 14.125,12.79748 C 14.469401,12.765834 14.293208,12.782033 14.125,12.79748 z"
       id="path3453" />
    <path
       style="opacity:1;fill:#8c0000;fill-opacity:1;fill-rule:evenodd;stroke:none;stroke-width:1px;stroke-linecap:butt;stroke-linejoin:miter;marker:none;marker-start:none;marker-mid:none;marker-end:none;stroke-miterlimit:4;stroke-dasharray:none;stroke-dashoffset:0;stroke-opacity:1;visibility:visible;display:inline;overflow:visible;enable-background:accumulate"
       d="M 20.28125,8.984977 C 18.150949,9.014119 16.004988,9.081248 13.84375,9.109977 C 14.698112,9.348534 14.984464,11.998725 14.125,12.79748 C 16.156366,12.610824 18.207729,12.446744 20.28125,12.29748 C 21.386254,11.795101 21.113814,9.204215 20.28125,8.984977 z"
       id="path3465"
       sodipodi:nodetypes="ccccc" />
    <path
       sodipodi:nodetypes="ccccccc"
       id="path3437"
       d="M 4.2398604,8.667618 L 5.0888578,8.623808 L 5.0818246,8.768192 C 5.0818246,8.768192 5.0185449,14.088448 5.0185449,14.088448 L 5.0185449,14.259632 L 4.1960506,14.329945 L 4.2398604,8.667618 z"
       style="opacity:0.4;fill:url(#linearGradient3531);fill-opacity:1;fill-rule:evenodd;stroke:none;stroke-width:1px;stroke-linecap:butt;stroke-linejoin:miter;marker:none;marker-start:none;marker-mid:none;marker-end:none;stroke-miterlimit:4;stroke-dasharray:none;stroke-dashoffset:0;stroke-opacity:1;visibility:visible;display:inline;overflow:visible;enable-background:accumulate" />
    <path
       style="opacity:0.5;fill:url(#linearGradient3506);fill-opacity:1;fill-rule:evenodd;stroke:none;stroke-width:1px;stroke-linecap:butt;stroke-linejoin:miter;marker:none;marker-start:none;marker-mid:none;marker-end:none;stroke-miterlimit:4;stroke-dasharray:none;stroke-dashoffset:0;stroke-opacity:1;visibility:visible;display:inline;overflow:visible;enable-background:accumulate"
       d="M 5.09375,8.766227 C 5.09375,8.766227 5.0937499,8.766227 5.09375,8.766227 z M 5.09375,8.766227 C 7.3966054,10.514216 7.3675128,12.546361 5.03125,14.07873 C 10.501125,12.93772 15.756287,12.639647 21.28125,12.23498 C 22.398455,11.971651 22.177845,9.236974 21.25,8.953727 C 15.933913,8.990495 10.458766,9.365532 5.09375,8.766227 z M 5.03125,14.07873 L 5.03125,14.07873 z"
       id="path3435"
       sodipodi:nodetypes="ccccccccc" />
    <path
       style="opacity:0.5;fill:url(#linearGradient3523);fill-opacity:1;fill-rule:evenodd;stroke:none;stroke-width:1px;stroke-linecap:butt;stroke-linejoin:miter;marker:none;marker-start:none;marker-mid:none;marker-end:none;stroke-miterlimit:4;stroke-dasharray:none;stroke-dashoffset:0;stroke-opacity:1;visibility:visible;display:inline;overflow:visible;enable-background:accumulate"
       d="M 5.09375,8.766227 C 5.0937498,8.766227 5.03125,14.07873 5.03125,14.07873 C 7.3675128,12.546361 7.3966054,10.514216 5.09375,8.766227 z"
       id="path3497" />
    <path
       style="opacity:0.4;fill:url(#linearGradient3535);fill-opacity:1;fill-rule:evenodd;stroke:none;stroke-width:1px;stroke-linecap:butt;stroke-linejoin:miter;marker:none;marker-start:none;marker-mid:none;marker-end:none;stroke-miterlimit:4;stroke-dasharray:none;stroke-dashoffset:0;stroke-opacity:1;visibility:visible;display:inline;overflow:visible;enable-background:accumulate"
       d="M 4.2398604,8.667618 L 5.0888578,8.623808 L 5.0818246,8.768192 C 5.0818246,8.768192 5.0185449,14.088448 5.0185449,14.088448 L 5.0185449,14.259632 L 4.1960506,14.329945 L 4.2398604,8.667618 z"
       id="path3533"
       sodipodi:nodetypes="ccccccc" />
    <path
       style="opacity:0.4;fill:url(#radialGradient3543);fill-opacity:1;fill-rule:evenodd;stroke:none;stroke-width:1px;stroke-linecap:butt;stroke-linejoin:miter;marker:none;marker-start:none;marker-mid:none;marker-end:none;stroke-miterlimit:4;stroke-dasharray:none;stroke-dashoffset:0;stroke-opacity:1;visibility:visible;display:inline;overflow:visible;enable-background:accumulate"
       d="M 5.09375,8.766227 C 7.396605,10.514216 7.367513,12.546361 5.03125,14.07873 C 8.105648,13.437414 11.099651,13.07547 14.125,12.79748 C 14.984464,11.998725 14.698112,9.348534 13.84375,9.109977 C 10.916721,9.148886 7.99452,9.090261 5.09375,8.766227 z M 21.25,8.953727 C 20.930543,8.955936 20.601909,8.980591 20.28125,8.984977 C 21.113814,9.204215 21.386254,11.795101 20.28125,12.29748 C 20.613906,12.273534 20.946738,12.259481 21.28125,12.23498 C 22.398455,11.971651 22.177845,9.236974 21.25,8.953727 z"
       id="path3457" />
    <path
       style="fill:#ffbf00;fill-opacity:1;fill-rule:nonzero;stroke:none;stroke-width:10;stroke-linecap:round;stroke-linejoin:round;stroke-miterlimit:4;stroke-opacity:1"
       d="M 33.626755,12.904982 C 33.626755,14.073089 32.108113,14.906995 30.940006,14.906995 C 29.771899,14.906995 28.413744,13.884601 28.82387,12.790859 C 29.104204,12.043254 30.085118,11.140665 30.940006,10.674722 C 32.02155,10.085245 34.365542,11.736875 33.626755,12.904982 z"
       id="path3658"
       sodipodi:nodetypes="csssc" />
    <path
       style="opacity:0.27049184;fill:url(#radialGradient3669);fill-opacity:1;fill-rule:nonzero;stroke:none;stroke-width:10;stroke-linecap:round;stroke-linejoin:round;stroke-miterlimit:4;stroke-opacity:1"
       d="M 31.40625,10.547478 C 31.240092,10.55645 31.072693,10.598793 30.9375,10.672478 C 30.497527,10.912278 30.019053,11.282021 29.625,11.67248 C 30.511991,12.353364 31.0369,13.39362 30.8125,13.98498 C 30.604787,14.532367 29.819556,14.499971 29,13.95373 C 29.400434,14.520286 30.207433,14.922481 30.9375,14.92248 C 32.105607,14.92248 33.625,14.059337 33.625,12.89123 C 34.271439,11.869137 32.569354,10.484677 31.40625,10.547478 z"
       id="path3661" />
    <path
       style="opacity:0.27049184;fill:url(#radialGradient3681);fill-opacity:1;fill-rule:nonzero;stroke:none;stroke-width:10;stroke-linecap:round;stroke-linejoin:round;stroke-miterlimit:4;stroke-opacity:1"
       d="M 29.625,11.67248 C 29.253389,12.040702 28.948559,12.434633 28.8125,12.79748 C 28.66212,13.198518 28.771447,13.587509 29,13.92248 C 29.005194,13.930093 28.994661,13.946176 29,13.95373 C 29.819556,14.499971 30.604787,14.532367 30.8125,13.98498 C 31.0369,13.39362 30.511991,12.353364 29.625,11.67248 z"
       id="path3673" />
    <rect
       style="opacity:0.61162792;fill:#555753;fill-opacity:1;fill-rule:nonzero;stroke:none;stroke-width:0.69999999;stroke-linecap:round;stroke-linejoin:miter;stroke-miterlimit:4;stroke-dasharray:none;stroke-opacity:1"
       id="rect1951"
       width="40.001965"
       height="10.004759"
       x="-0.0019644466"
       y="30" />
    <text
       xml:space="preserve"
       style="font-size:12px;font-style:normal;font-weight:normal;fill:#eeeeec;fill-opacity:1;stroke:none;stroke-width:1px;stroke-linecap:butt;stroke-linejoin:miter;stroke-opacity:1;font-family:Bitstream Vera Sans"
       x="12.232963"
       y="39.168156"
       id="text2840"><tspan
         sodipodi:role="line"
         id="tspan2842"
         x="12.232963"
         y="39.168156">Cd</tspan></text>
  </g>
</svg>
