<?xml version="1.0" encoding="UTF-8" standalone="no"?>
<!-- Created with Inkscape (http://www.inkscape.org/) -->
<svg
   xmlns:dc="http://purl.org/dc/elements/1.1/"
   xmlns:cc="http://web.resource.org/cc/"
   xmlns:rdf="http://www.w3.org/1999/02/22-rdf-syntax-ns#"
   xmlns:svg="http://www.w3.org/2000/svg"
   xmlns="http://www.w3.org/2000/svg"
   xmlns:xlink="http://www.w3.org/1999/xlink"
   xmlns:sodipodi="http://sodipodi.sourceforge.net/DTD/sodipodi-0.dtd"
   xmlns:inkscape="http://www.inkscape.org/namespaces/inkscape"
   width="40"
   height="40"
   id="svg2193"
   sodipodi:version="0.32"
   inkscape:version="0.45.1"
   version="1.0"
   sodipodi:docbase="/home/jra/Desktop/send-now"
   sodipodi:docname="49.svg"
   inkscape:output_extension="org.inkscape.output.svg.inkscape">
  <defs
     id="defs2195">
    <linearGradient
       id="linearGradient4603">
      <stop
         style="stop-color:#000000;stop-opacity:1"
         offset="0"
         id="stop4605" />
      <stop
         style="stop-color:#3b3b3b;stop-opacity:1;"
         offset="1"
         id="stop4607" />
    </linearGradient>
    <linearGradient
       id="linearGradient4535">
      <stop
         id="stop4537"
         offset="0"
         style="stop-color:#ffffff;stop-opacity:0;" />
      <stop
         style="stop-color:#ffffff;stop-opacity:1;"
         offset="0.5"
         id="stop4541" />
      <stop
         id="stop4539"
         offset="1"
         style="stop-color:#ffffff;stop-opacity:0;" />
    </linearGradient>
    <linearGradient
       id="linearGradient3473">
      <stop
         style="stop-color:#000000;stop-opacity:1"
         offset="0"
         id="stop3475" />
      <stop
         id="stop3479"
         offset="0.25"
         style="stop-color:#e2e2e2;stop-opacity:1;" />
      <stop
         style="stop-color:#404040;stop-opacity:1;"
         offset="0.62"
         id="stop3483" />
      <stop
         id="stop3487"
         offset="0.67000002"
         style="stop-color:#000000;stop-opacity:1;" />
      <stop
         id="stop3485"
         offset="0.73000002"
         style="stop-color:#6d6e6d;stop-opacity:1;" />
      <stop
         style="stop-color:#ebeceb;stop-opacity:1;"
         offset="0.80000001"
         id="stop3481" />
      <stop
         style="stop-color:#474747;stop-opacity:1;"
         offset="1"
         id="stop3477" />
    </linearGradient>
    <linearGradient
       id="linearGradient3334">
      <stop
         id="stop3336"
         offset="0"
         style="stop-color:#ffffff;stop-opacity:1;" />
      <stop
         id="stop3338"
         offset="1"
         style="stop-color:#ffffff;stop-opacity:0;" />
    </linearGradient>
    <linearGradient
       id="linearGradient3220">
      <stop
         id="stop3222"
         offset="0"
         style="stop-color:#000000;stop-opacity:1" />
      <stop
         id="stop3224"
         offset="1"
         style="stop-color:#ffffff;stop-opacity:1;" />
    </linearGradient>
    <linearGradient
       id="linearGradient3291">
      <stop
         id="stop3293"
         offset="0"
         style="stop-color:#000000;stop-opacity:1;" />
      <stop
         id="stop3295"
         offset="1"
         style="stop-color:#000000;stop-opacity:0;" />
    </linearGradient>
    <radialGradient
       inkscape:collect="always"
       xlink:href="#linearGradient3291"
       id="radialGradient2595"
       gradientUnits="userSpaceOnUse"
       gradientTransform="matrix(1,0,0,0.197802,0,92.82166)"
       cx="63.912209"
       cy="115.70919"
       fx="75.857941"
       fy="115.70919"
       r="63.912209" />
    <linearGradient
       inkscape:collect="always"
       xlink:href="#linearGradient3334"
       id="linearGradient3344"
       x1="14.045769"
       y1="5.5"
       x2="12.704458"
       y2="31.106686"
       gradientUnits="userSpaceOnUse"
       gradientTransform="matrix(0.9478928,0,0,0.9478928,1.0944442,2.314112)" />
    <linearGradient
       inkscape:collect="always"
       xlink:href="#linearGradient3334"
       id="linearGradient3352"
       x1="11.671722"
       y1="35.074265"
       x2="10.90625"
       y2="7.8452911"
       gradientUnits="userSpaceOnUse"
       gradientTransform="matrix(0.9478928,0,0,0.9478928,1.0944442,2.314112)" />
    <linearGradient
       inkscape:collect="always"
       xlink:href="#linearGradient3291"
       id="linearGradient3360"
       x1="31.309494"
       y1="12.033168"
       x2="29"
       y2="3.09375"
       gradientUnits="userSpaceOnUse"
       gradientTransform="matrix(0.9478928,0,0,0.9478928,1.0944442,2.314112)" />
    <linearGradient
       inkscape:collect="always"
       xlink:href="#linearGradient3334"
       id="linearGradient3368"
       x1="14.278292"
       y1="25.123699"
       x2="0.095832318"
       y2="10.4375"
       gradientUnits="userSpaceOnUse"
       gradientTransform="matrix(0.9478928,0,0,0.9478928,1.0944442,2.314112)" />
    <linearGradient
       inkscape:collect="always"
       xlink:href="#linearGradient3334"
       id="linearGradient3376"
       x1="3.4756656"
       y1="19.8125"
       x2="8.03125"
       y2="18.281553"
       gradientUnits="userSpaceOnUse"
       gradientTransform="matrix(0.9478928,0,0,0.9478928,1.0944442,2.314112)" />
    <linearGradient
       inkscape:collect="always"
       xlink:href="#linearGradient3334"
       id="linearGradient3392"
       x1="0.097046688"
       y1="20.015778"
       x2="39.655468"
       y2="20.78125"
       gradientUnits="userSpaceOnUse"
       gradientTransform="matrix(0.9478928,0,0,0.9478928,1.0944442,2.314112)" />
    <linearGradient
       inkscape:collect="always"
       xlink:href="#linearGradient3334"
       id="linearGradient3400"
       x1="26.203125"
       y1="32.701931"
       x2="31.3444"
       y2="20.235655"
       gradientUnits="userSpaceOnUse"
       gradientTransform="matrix(0.9478928,0,0,0.9478928,1.0944442,2.314112)" />
    <linearGradient
       inkscape:collect="always"
       xlink:href="#linearGradient3334"
       id="linearGradient3408"
       x1="33.093922"
       y1="20.828125"
       x2="35.718533"
       y2="20.828125"
       gradientUnits="userSpaceOnUse"
       gradientTransform="matrix(0.9478928,0,0,0.9478928,1.0944442,2.314112)" />
    <linearGradient
       inkscape:collect="always"
       xlink:href="#linearGradient3334"
       id="linearGradient3416"
       x1="26.21875"
       y1="15.077801"
       x2="23.002432"
       y2="4.3611755"
       gradientUnits="userSpaceOnUse"
       gradientTransform="matrix(0.9478928,0,0,0.9478928,1.0944442,2.314112)" />
    <linearGradient
       inkscape:collect="always"
       xlink:href="#linearGradient3334"
       id="linearGradient2375"
       x1="10.231201"
       y1="12.90625"
       x2="10.114979"
       y2="7.7749071"
       gradientUnits="userSpaceOnUse"
       gradientTransform="matrix(0.9478928,0,0,0.9478928,1.0944442,2.314112)" />
    <linearGradient
       inkscape:collect="always"
       xlink:href="#linearGradient3334"
       id="linearGradient2379"
       gradientUnits="userSpaceOnUse"
       x1="9.4293127"
       y1="2.5206635"
       x2="10.90625"
       y2="7.8452911"
       gradientTransform="matrix(0.9478928,0,0,0.9478928,1.0944442,2.314112)" />
    <linearGradient
       inkscape:collect="always"
       xlink:href="#linearGradient3334"
       id="linearGradient2394"
       gradientUnits="userSpaceOnUse"
       x1="19.640625"
       y1="3.0600324"
       x2="19.640625"
       y2="8.6875"
       gradientTransform="matrix(0.9478928,0,0,0.9478928,1.0944442,2.314112)" />
    <linearGradient
       inkscape:collect="always"
       xlink:href="#linearGradient3291"
       id="linearGradient2414"
       x1="6.96875"
       y1="26.734375"
       x2="8.5"
       y2="26.734375"
       gradientUnits="userSpaceOnUse"
       gradientTransform="matrix(0.9478928,0,0,0.9478928,1.0944442,2.314112)" />
    <linearGradient
       inkscape:collect="always"
       xlink:href="#linearGradient3291"
       id="linearGradient2422"
       gradientUnits="userSpaceOnUse"
       x1="8.78125"
       y1="12.90625"
       x2="8.78125"
       y2="9.6306944"
       gradientTransform="matrix(0.9478928,0,0,0.9478928,1.0944442,2.314112)" />
    <linearGradient
       inkscape:collect="always"
       xlink:href="#linearGradient3334"
       id="linearGradient2424"
       x1="15.307689"
       y1="16.164734"
       x2="16.08349"
       y2="24.979723"
       gradientUnits="userSpaceOnUse"
       gradientTransform="matrix(0.9478928,0,0,0.9478928,1.0944442,2.314112)" />
    <linearGradient
       inkscape:collect="always"
       xlink:href="#linearGradient3220"
       id="linearGradient3379"
       x1="22.580799"
       y1="-6.0319223"
       x2="22.08297"
       y2="-10.597424"
       gradientUnits="userSpaceOnUse"
       gradientTransform="matrix(0.9478928,0,0,0.9478928,1.0944442,21.271957)" />
    <linearGradient
       inkscape:collect="always"
       xlink:href="#linearGradient3220"
       id="linearGradient3387"
       x1="21.514606"
       y1="-11.222402"
       x2="21.575796"
       y2="-10.253955"
       gradientUnits="userSpaceOnUse"
       gradientTransform="matrix(0.9478928,0,0,0.9478928,1.0944442,21.271957)" />
    <linearGradient
       inkscape:collect="always"
       xlink:href="#linearGradient3220"
       id="linearGradient3395"
       x1="23.027361"
       y1="-8.3280602"
       x2="22.958359"
       y2="-9.15625"
       gradientUnits="userSpaceOnUse"
       gradientTransform="matrix(0.9478928,0,0,0.9478928,1.0944442,21.271957)" />
    <linearGradient
       inkscape:collect="always"
       xlink:href="#linearGradient3220"
       id="linearGradient3403"
       x1="27.334366"
       y1="-7.8948836"
       x2="26.813065"
       y2="-12.241677"
       gradientUnits="userSpaceOnUse"
       gradientTransform="matrix(0.9478928,0,0,0.9478928,1.0944442,21.271957)" />
    <linearGradient
       inkscape:collect="always"
       xlink:href="#linearGradient3220"
       id="linearGradient3426"
       gradientUnits="userSpaceOnUse"
       x1="23.015625"
       y1="-11.64049"
       x2="23.402246"
       y2="-8.4877224"
       gradientTransform="matrix(0.9478928,0,0,0.9478928,1.0944442,21.271957)" />
    <linearGradient
       inkscape:collect="always"
       xlink:href="#linearGradient3220"
       id="linearGradient3439"
       x1="23.88508"
       y1="-8.6875"
       x2="23.612133"
       y2="-11.990808"
       gradientUnits="userSpaceOnUse"
       gradientTransform="matrix(0.9478928,0,0,0.9478928,1.0944442,21.271957)" />
    <linearGradient
       inkscape:collect="always"
       xlink:href="#linearGradient3291"
       id="linearGradient3454"
       x1="48.93922"
       y1="11.273761"
       x2="49.187084"
       y2="14.057442"
       gradientUnits="userSpaceOnUse"
       gradientTransform="matrix(0.9478928,0,0,0.9478928,-17.863413,2.314112)" />
    <linearGradient
       inkscape:collect="always"
       xlink:href="#linearGradient3291"
       id="linearGradient3462"
       x1="24.913982"
       y1="11.713933"
       x2="25.088888"
       y2="13.731967"
       gradientUnits="userSpaceOnUse"
       gradientTransform="matrix(0.9478928,0,0,0.9478928,1.0944442,2.314112)" />
    <linearGradient
       inkscape:collect="always"
       xlink:href="#linearGradient4603"
       id="linearGradient3488"
       x1="7.4375"
       y1="26.725569"
       x2="1.90625"
       y2="26.390894"
       gradientUnits="userSpaceOnUse"
       gradientTransform="matrix(0.9478928,0,0,0.9478928,1.0944442,2.314112)" />
    <linearGradient
       inkscape:collect="always"
       xlink:href="#linearGradient4603"
       id="linearGradient3496"
       x1="6.4692202"
       y1="22.479156"
       x2="-4.0469074"
       y2="22.479156"
       gradientUnits="userSpaceOnUse"
       gradientTransform="matrix(0.9478928,0,0,0.9478928,1.0944442,2.314112)" />
    <linearGradient
       inkscape:collect="always"
       xlink:href="#linearGradient3334"
       id="linearGradient3520"
       x1="9.3333721"
       y1="18.976786"
       x2="4.3152871"
       y2="18.048891"
       gradientUnits="userSpaceOnUse"
       gradientTransform="matrix(0.9478928,0,0,0.9478928,1.0944442,2.314112)" />
    <linearGradient
       inkscape:collect="always"
       xlink:href="#linearGradient3334"
       id="linearGradient2459"
       x1="28.732775"
       y1="3.9679494"
       x2="28.975925"
       y2="5.4371142"
       gradientUnits="userSpaceOnUse"
       gradientTransform="matrix(0.9478928,0,0,0.9478928,1.0944442,2.314112)" />
    <linearGradient
       inkscape:collect="always"
       xlink:href="#linearGradient3334"
       id="linearGradient2461"
       x1="33.9375"
       y1="3.46875"
       x2="33.9375"
       y2="4.3966436"
       gradientUnits="userSpaceOnUse"
       gradientTransform="matrix(0.9478928,0,0,0.9478928,1.0944442,2.314112)" />
    <linearGradient
       inkscape:collect="always"
       xlink:href="#linearGradient3334"
       id="linearGradient2463"
       x1="32.43074"
       y1="9.8180847"
       x2="30.390625"
       y2="1.8536644"
       gradientUnits="userSpaceOnUse"
       gradientTransform="matrix(0.9478928,0,0,0.9478928,1.0944442,2.314112)" />
    <linearGradient
       inkscape:collect="always"
       xlink:href="#linearGradient3334"
       id="linearGradient2465"
       x1="34.346222"
       y1="13.908324"
       x2="32.969986"
       y2="2.6962767"
       gradientUnits="userSpaceOnUse"
       gradientTransform="matrix(0.9478928,0,0,0.9478928,1.0944442,2.314112)" />
    <radialGradient
       inkscape:collect="always"
       xlink:href="#linearGradient3334"
       id="radialGradient3443"
       cx="31.896978"
       cy="6.2771168"
       fx="31.896978"
       fy="6.2771168"
       r="0.6875"
       gradientTransform="matrix(2.2272357,-2.8689024e-7,3.6216603e-7,2.8116296,-40.081438,-9.759875)"
       gradientUnits="userSpaceOnUse" />
    <linearGradient
       inkscape:collect="always"
       xlink:href="#linearGradient3334"
       id="linearGradient3469"
       x1="34.992088"
       y1="10.9375"
       x2="32.914375"
       y2="11.828168"
       gradientUnits="userSpaceOnUse"
       gradientTransform="matrix(0.9478928,0,0,0.9478928,1.0944442,2.314112)" />
    <linearGradient
       inkscape:collect="always"
       xlink:href="#linearGradient3473"
       id="linearGradient3471"
       x1="7.8850212"
       y1="13"
       x2="6.4887924"
       y2="4.5384259"
       gradientUnits="userSpaceOnUse"
       gradientTransform="matrix(0.9478928,0,0,0.9478928,1.0944442,2.314112)" />
    <linearGradient
       inkscape:collect="always"
       xlink:href="#linearGradient3220"
       id="linearGradient4481"
       x1="0.78563827"
       y1="11.652276"
       x2="9.4395161"
       y2="6.4715371"
       gradientUnits="userSpaceOnUse"
       gradientTransform="matrix(0.9478928,0,0,0.9478928,1.0944442,2.314112)" />
    <linearGradient
       inkscape:collect="always"
       xlink:href="#linearGradient3220"
       id="linearGradient4499"
       x1="8.5885906"
       y1="9.64184"
       x2="2.9478776"
       y2="5.8529415"
       gradientUnits="userSpaceOnUse"
       gradientTransform="matrix(0.9478928,0,0,0.9478928,1.0944442,2.314112)" />
    <linearGradient
       inkscape:collect="always"
       xlink:href="#linearGradient3473"
       id="linearGradient4507"
       x1="6.3033085"
       y1="4.65625"
       x2="7.8701968"
       y2="10.606559"
       gradientUnits="userSpaceOnUse"
       gradientTransform="matrix(0.9478928,0,0,0.9478928,1.0944442,2.314112)" />
    <linearGradient
       inkscape:collect="always"
       xlink:href="#linearGradient3220"
       id="linearGradient4515"
       x1="4.90625"
       y1="8.265625"
       x2="13.732032"
       y2="7.4150558"
       gradientUnits="userSpaceOnUse"
       gradientTransform="matrix(0.9478928,0,0,0.9478928,1.0944442,2.314112)" />
    <linearGradient
       inkscape:collect="always"
       xlink:href="#linearGradient4535"
       id="linearGradient4523"
       x1="5.9926467"
       y1="9.4641542"
       x2="6.0646944"
       y2="10.25"
       gradientUnits="userSpaceOnUse"
       gradientTransform="matrix(0.9478928,0,0,0.9478928,1.0944442,2.314112)" />
    <radialGradient
       inkscape:collect="always"
       xlink:href="#linearGradient4535"
       id="radialGradient4543"
       cx="7.0860419"
       cy="8.2561855"
       fx="7.0860419"
       fy="8.2561855"
       r="0.890625"
       gradientTransform="matrix(4.3825734,0.6381109,-1.0757748,7.3884675,-12.994031,-55.388022)"
       gradientUnits="userSpaceOnUse" />
    <radialGradient
       inkscape:collect="always"
       xlink:href="#linearGradient3334"
       id="radialGradient4547"
       gradientUnits="userSpaceOnUse"
       gradientTransform="matrix(1.1124868,-4.1148653e-2,7.4990844e-2,2.0274376,-0.4978546,-6.297361)"
       cx="6.8240857"
       cy="8.2611856"
       fx="6.8240857"
       fy="8.2611856"
       r="0.890625" />
    <linearGradient
       inkscape:collect="always"
       xlink:href="#linearGradient3291"
       id="linearGradient4585"
       x1="7.9375"
       y1="24.390625"
       x2="11.281665"
       y2="24.390625"
       gradientUnits="userSpaceOnUse"
       gradientTransform="matrix(0.9478928,0,0,0.9478928,1.0944442,2.314112)" />
    <linearGradient
       inkscape:collect="always"
       xlink:href="#linearGradient3291"
       id="linearGradient4593"
       x1="7.65625"
       y1="24.109375"
       x2="4.7565827"
       y2="23.626007"
       gradientUnits="userSpaceOnUse"
       gradientTransform="matrix(0.9478928,0,0,0.9478928,1.0944442,2.314112)" />
    <linearGradient
       inkscape:collect="always"
       xlink:href="#linearGradient4603"
       id="linearGradient4601"
       x1="7.2624521"
       y1="26.26005"
       x2="3.9375"
       y2="18.759577"
       gradientUnits="userSpaceOnUse"
       gradientTransform="matrix(0.9478928,0,0,0.9478928,1.0944442,2.314112)" />
    <linearGradient
       inkscape:collect="always"
       xlink:href="#linearGradient3473"
       id="linearGradient3440"
       gradientUnits="userSpaceOnUse"
       x1="6.9571276"
       y1="12.58017"
       x2="5.40625"
       y2="3.0692608"
       gradientTransform="matrix(0.9478928,0,0,0.9478928,1.0944442,2.314112)" />
    <linearGradient
       inkscape:collect="always"
       xlink:href="#linearGradient4603"
       id="linearGradient3453"
       x1="8.7312021"
       y1="13.585388"
       x2="7.8120847"
       y2="2.8704946"
       gradientUnits="userSpaceOnUse"
       gradientTransform="matrix(0.9478928,0,0,0.9478928,1.0944442,2.314112)" />
    <linearGradient
       inkscape:collect="always"
       xlink:href="#linearGradient3334"
       id="linearGradient3455"
       gradientUnits="userSpaceOnUse"
       x1="19.945805"
       y1="9.1270161"
       x2="31.931093"
       y2="5.625"
       gradientTransform="matrix(0.9478928,0,0,0.9478928,1.0944442,2.314112)" />
    <radialGradient
       inkscape:collect="always"
       xlink:href="#linearGradient3291"
       id="radialGradient3495"
       cx="22.616924"
       cy="3.3086381"
       fx="22.616924"
       fy="3.3086381"
       r="8.8125"
       gradientTransform="matrix(1.921005,3.3268793e-2,-4.8680505e-3,0.2810907,-19.598993,5.656029)"
       gradientUnits="userSpaceOnUse" />
    <radialGradient
       inkscape:collect="always"
       xlink:href="#linearGradient3291"
       id="radialGradient3501"
       cx="9.599968"
       cy="27.936958"
       fx="9.599968"
       fy="27.936958"
       r="1.984375"
       gradientTransform="matrix(1.5019361,1.2165867e-7,-9.251538e-8,1.1421478,-4.5758401,-2.964163)"
       gradientUnits="userSpaceOnUse" />
    <radialGradient
       inkscape:collect="always"
       xlink:href="#linearGradient3334"
       id="radialGradient3513"
       cx="14.021547"
       cy="10.969926"
       fx="14.021547"
       fy="10.969926"
       r="1.3790458"
       gradientTransform="matrix(1.3669865,0.1292892,-0.4251943,4.4956182,3.9040504e-2,-39.821002)"
       gradientUnits="userSpaceOnUse" />
    <linearGradient
       inkscape:collect="always"
       xlink:href="#linearGradient3334"
       id="linearGradient3529"
       x1="26.21875"
       y1="13.71875"
       x2="26.21875"
       y2="20.96875"
       gradientUnits="userSpaceOnUse"
       gradientTransform="matrix(0.9478928,0,0,0.9478928,1.0944442,2.314112)" />
    <radialGradient
       inkscape:collect="always"
       xlink:href="#linearGradient3334"
       id="radialGradient3557"
       cx="16.879641"
       cy="13.962691"
       fx="16.879641"
       fy="13.962691"
       r="0.859375"
       gradientTransform="matrix(1.5440253,5.2464614e-2,-8.5289063e-2,2.5100437,-7.6038616,-21.206976)"
       gradientUnits="userSpaceOnUse" />
    <linearGradient
       inkscape:collect="always"
       xlink:href="#linearGradient3291"
       id="linearGradient3581"
       x1="11.474739"
       y1="20.84375"
       x2="18.345766"
       y2="20.84375"
       gradientUnits="userSpaceOnUse"
       gradientTransform="matrix(0.9478928,0,0,0.9478928,1.0944442,2.314112)" />
    <linearGradient
       inkscape:collect="always"
       xlink:href="#linearGradient3291"
       id="linearGradient3594"
       x1="18.15625"
       y1="29.161053"
       x2="17.748755"
       y2="27.84375"
       gradientUnits="userSpaceOnUse"
       gradientTransform="matrix(0.9478928,0,0,0.9478928,1.0944442,2.314112)" />
    <linearGradient
       inkscape:collect="always"
       xlink:href="#linearGradient3291"
       id="linearGradient3614"
       x1="33.4375"
       y1="11.578125"
       x2="31.0625"
       y2="12.119396"
       gradientUnits="userSpaceOnUse"
       gradientTransform="matrix(0.9478928,0,0,0.9478928,1.0944442,2.314112)" />
    <linearGradient
       inkscape:collect="always"
       xlink:href="#linearGradient3291"
       id="linearGradient3634"
       x1="27.987013"
       y1="3.5228298"
       x2="24.46875"
       y2="3.75"
       gradientUnits="userSpaceOnUse"
       gradientTransform="matrix(0.9478928,0,0,0.9478928,1.0944442,2.314112)" />
    <linearGradient
       inkscape:collect="always"
       xlink:href="#linearGradient3220"
       id="linearGradient3457"
       x1="4.0077038"
       y1="24.093664"
       x2="3.6796439"
       y2="25.451773"
       gradientUnits="userSpaceOnUse"
       gradientTransform="matrix(0.9478928,0,0,0.9478928,1.0944442,2.314112)" />
    <linearGradient
       inkscape:collect="always"
       xlink:href="#linearGradient3334"
       id="linearGradient3485"
       gradientUnits="userSpaceOnUse"
       x1="37.948288"
       y1="9.0954418"
       x2="14.222784"
       y2="8.2206154"
       gradientTransform="matrix(0.9478928,0,0,0.9478928,1.0944442,2.314112)" />
    <linearGradient
       inkscape:collect="always"
       xlink:href="#linearGradient3334"
       id="linearGradient3535"
       gradientUnits="userSpaceOnUse"
       x1="36.434292"
       y1="21.953125"
       x2="18.4375"
       y2="21.953125"
       gradientTransform="matrix(0.9478928,0,0,0.9478928,1.0944442,2.314112)" />
  </defs>
  <sodipodi:namedview
     id="base"
     pagecolor="#ffffff"
     bordercolor="#666666"
     borderopacity="1.0"
     inkscape:pageopacity="0.0"
     inkscape:pageshadow="2"
     inkscape:zoom="17.3"
     inkscape:cx="20"
     inkscape:cy="20"
     inkscape:current-layer="layer1"
     showgrid="false"
     inkscape:grid-bbox="false"
     inkscape:document-units="px"
     width="40px"
     height="40px"
     gridempspacing="2"
     inkscape:window-width="1167"
     inkscape:window-height="914"
     inkscape:window-x="416"
     inkscape:window-y="57" />
  <metadata
     id="metadata2198">
    <rdf:RDF>
      <cc:Work
         rdf:about="">
        <dc:format>image/svg+xml</dc:format>
        <dc:type
           rdf:resource="http://purl.org/dc/dcmitype/StillImage" />
        <dc:creator>
          <cc:Agent>
            <dc:title>Jarle Akselsen</dc:title>
          </cc:Agent>
        </dc:creator>
        <cc:license
           rdf:resource="http://creativecommons.org/licenses/GPL/2.0/" />
      </cc:Work>
      <cc:License
         rdf:about="http://creativecommons.org/licenses/GPL/2.0/">
        <cc:permits
           rdf:resource="http://web.resource.org/cc/Reproduction" />
        <cc:permits
           rdf:resource="http://web.resource.org/cc/Distribution" />
        <cc:requires
           rdf:resource="http://web.resource.org/cc/Notice" />
        <cc:permits
           rdf:resource="http://web.resource.org/cc/DerivativeWorks" />
        <cc:requires
           rdf:resource="http://web.resource.org/cc/ShareAlike" />
        <cc:requires
           rdf:resource="http://web.resource.org/cc/SourceCode" />
      </cc:License>
    </rdf:RDF>
  </metadata>
  <g
     id="layer1"
     inkscape:label="Layer 1"
     inkscape:groupmode="layer">
    <path
       transform="matrix(0.239321,-1.9295795e-2,-8.8694911e-3,0.3195511,9.6297365,-6.746147)"
       d="M 127.82442 115.70919 A 63.912209 12.641975 0 1 1  0,115.70919 A 63.912209 12.641975 0 1 1  127.82442 115.70919 z"
       sodipodi:ry="12.641975"
       sodipodi:rx="63.912209"
       sodipodi:cy="115.70919"
       sodipodi:cx="63.912209"
       id="path2593"
       style="opacity:0.38139535;fill:url(#radialGradient2595);fill-opacity:1;fill-rule:nonzero;stroke:none;stroke-width:0;stroke-linecap:round;stroke-linejoin:round;stroke-miterlimit:4;stroke-dasharray:none;stroke-dashoffset:4;stroke-opacity:1"
       sodipodi:type="arc" />
    <path
       style="opacity:1;color:#000000;fill:#2c2633;fill-opacity:1;fill-rule:evenodd;stroke:none;stroke-width:1px;stroke-linecap:butt;stroke-linejoin:miter;marker:none;marker-start:none;marker-mid:none;marker-end:none;stroke-miterlimit:4;stroke-dasharray:none;stroke-dashoffset:0;stroke-opacity:1;visibility:visible;display:inline;overflow:visible;enable-background:accumulate"
       d="M 31.575124,5.128169 L 30.360636,5.246655 L 30.331014,5.246655 L 28.316742,5.454007 L 24.288197,5.86871 L 24.169711,5.86871 C 24.169711,5.86871 18.345206,5.272005 14.039106,5.217033 C 11.194132,5.180715 8.7395327,5.456267 7.314991,5.631736 C 7.2777114,5.636328 7.2026856,5.62727 7.1668828,5.631736 C 6.896212,5.631736 6.3833479,5.631736 6.2189899,5.631736 C 5.5113282,5.631736 4.872019,6.120495 4.4120692,6.935089 C 4.4078814,6.942351 4.4162285,6.957399 4.4120692,6.964711 C 4.3773991,7.026981 4.3557776,7.106313 4.3232042,7.172062 C 4.2237267,7.372858 4.1347773,7.593668 4.0566094,7.823739 C 3.9826804,8.041333 3.9018232,8.265432 3.8492578,8.505037 C 3.8381201,8.553249 3.8298165,8.604108 3.8196362,8.653145 C 3.7826901,8.840944 3.7535718,9.017705 3.7307712,9.215956 C 3.6942603,9.513212 3.6715279,9.814884 3.6715279,10.134227 C 3.6715279,10.438208 3.6983371,10.73657 3.7307712,11.022869 C 3.7364529,11.075033 3.7537235,11.119446 3.7603928,11.170975 C 3.8129763,11.56259 3.8907802,11.923597 3.9973661,12.266974 C 4.0307376,12.374484 4.0481058,12.490959 4.086231,12.592813 C 4.1709366,12.823674 4.2751432,13.046323 4.3824475,13.244489 C 4.3963692,13.270199 4.3977901,13.30825 4.4120692,13.333354 C 4.4752775,13.445299 4.550853,13.531699 4.6194207,13.62957 C 4.7840659,13.860283 4.9875956,14.06781 5.1822321,14.222003 C 5.1983491,14.234693 5.1955055,14.269047 5.2118538,14.281247 C 5.2172985,14.285377 5.2360108,14.277181 5.2414754,14.281247 C 5.3486764,14.35923 5.4808582,14.408781 5.5969352,14.458977 C 5.6094806,14.464524 5.6139376,14.483375 5.6265569,14.488598 C 5.7940278,14.556584 5.9543458,14.595744 6.130125,14.607085 L 6.2189899,21.183092 L 6.6040714,21.50893 L 5.0637455,22.160606 L 4.8267723,22.664174 C 4.8278738,22.664725 4.8546735,22.721122 4.856394,22.723417 C 4.795689,22.926766 4.7695338,23.198153 4.8267723,23.523202 C 4.7010997,23.583932 4.5988316,23.635816 4.4713125,23.700932 C 3.6100931,24.140703 2.8125,24.648825 2.8125,24.648825 L 2.901365,24.796933 L 3.1975815,28.084936 C 3.1975815,28.084936 4.4035979,28.943964 5.9523951,28.943964 C 7.3392798,28.943964 7.9947108,28.425565 8.1443973,28.292288 C 8.2469925,28.357698 8.5465095,28.547202 9.1219118,28.855099 C 9.7391066,29.18536 10.533419,29.568446 11.343536,29.832614 C 11.722634,29.956233 12.093926,30.056521 12.439537,30.12883 C 12.631831,30.169357 12.793936,30.18835 12.972726,30.217695 C 13.109848,30.239348 13.263728,30.261631 13.38743,30.276939 C 13.472442,30.288161 13.575138,30.297596 13.654024,30.30656 C 14.025638,30.340561 14.402694,30.361628 14.513052,30.365804 C 14.543755,30.366542 14.720404,30.395425 14.720404,30.395425 L 22.096195,28.706991 L 34.507667,28.706991 C 34.507667,28.706991 34.633559,27.859422 34.74464,26.603854 C 34.855722,25.348285 34.951992,23.684717 34.951992,22.012498 C 34.951992,18.66806 34.507669,15.318005 34.507667,15.318005 C 34.507667,15.318005 33.915234,14.784815 33.915234,14.784815 L 33.796747,14.784815 L 33.796747,12.829786 C 33.729968,12.770884 33.666511,12.726889 33.589396,12.681678 L 32.40453,12.592813 L 31.960205,11.852271 L 30.775339,11.793028 L 30.716096,11.141354 C 30.716096,11.141354 31.284888,11.160532 31.900962,11.141354 C 32.075532,11.136031 32.235107,11.124875 32.40453,11.111733 C 32.425175,11.110118 32.4432,11.11362 32.463773,11.111733 C 32.609854,11.099293 32.755696,11.073134 32.878476,11.05249 C 32.934387,11.042915 32.977609,11.034308 33.026585,11.022869 C 33.077719,11.011227 33.101479,11.005535 33.145071,10.993247 C 33.240719,10.964899 33.309415,10.944447 33.352423,10.904383 C 33.399455,10.860571 33.43513,10.764902 33.470909,10.63779 C 33.504675,10.51783 33.535899,10.339831 33.559774,10.163848 C 33.612495,9.775247 33.643146,9.29542 33.648639,8.771632 C 33.654198,8.241587 33.630785,7.733737 33.589396,7.260927 C 33.582826,7.184279 33.567499,7.125973 33.559774,7.053576 C 33.546368,6.92952 33.547086,6.776191 33.530153,6.668494 C 33.527858,6.659978 33.532419,6.647211 33.530153,6.638873 C 33.500376,6.455126 33.451393,6.311523 33.411666,6.194548 C 33.081837,5.223385 31.575122,5.128169 31.575124,5.128169 z M 6.0116384,25.774448 C 6.077242,25.960396 6.1183616,26.07424 6.1893683,26.278016 C 5.9523145,26.283037 5.6780227,26.284024 5.3895837,26.248394 C 5.3699595,26.24597 5.3497646,26.25117 5.3303404,26.248394 C 5.4685157,26.147895 5.5569076,26.060725 5.7154218,25.952177 C 5.8111401,25.886632 5.9116764,25.840522 6.0116384,25.774448 z "
       id="path2519" />
    <path
       style="opacity:0.52427183;color:#000000;fill:url(#linearGradient3344);fill-opacity:1;fill-rule:evenodd;stroke:none;stroke-width:1px;stroke-linecap:butt;stroke-linejoin:miter;marker:none;marker-start:none;marker-mid:none;marker-end:none;stroke-miterlimit:4;stroke-dasharray:none;stroke-dashoffset:0;stroke-opacity:1;visibility:visible;display:inline;overflow:visible;enable-background:accumulate"
       d="M 14.276079,7.527522 C 14.276079,7.527522 13.106024,12.222542 12.794997,17.332277 C 12.483969,22.442012 12.67651,27.96645 12.67651,27.96645 C 12.67651,27.96645 12.532012,28.411154 11.887742,28.670344 C 11.243471,28.929533 10.247535,28.943964 10.247535,28.943964 L 9.1515334,28.203423 L 9.1219118,28.855099 C 9.7437608,29.180343 10.537232,29.56969 11.343536,29.832614 C 12.859928,30.327091 14.22361,30.354852 14.513052,30.365804 C 14.513052,30.365804 15.14752,30.189636 15.427529,28.330031 C 15.703456,26.497544 15.609053,25.268125 15.609053,25.268125 L 14.109647,25.214391 L 13.950241,18.754116 L 15.401702,18.754116 C 15.413405,17.357991 15.45405,16.464658 15.105485,12.266974 C 14.752661,8.017998 14.276079,7.527522 14.276079,7.527522 z "
       id="path3243"
       sodipodi:nodetypes="cscscccsczccccsc" />
    <path
       style="opacity:0.52427183;color:#000000;fill:url(#linearGradient3376);fill-opacity:1;fill-rule:evenodd;stroke:none;stroke-width:1px;stroke-linecap:butt;stroke-linejoin:miter;marker:none;marker-start:none;marker-mid:none;marker-end:none;stroke-miterlimit:4;stroke-dasharray:none;stroke-dashoffset:0;stroke-opacity:1;visibility:visible;display:inline;overflow:visible;enable-background:accumulate"
       d="M 7.6112075,14.577463 C 7.5106339,14.59847 7.4186388,14.636707 7.314991,14.636707 C 7.2379482,14.636707 7.050492,14.636707 6.8706663,14.636707 C 6.8029042,15.831514 6.7519446,17.108855 6.7818013,18.398656 C 6.8734208,22.356603 7.6112075,26.366881 7.6112075,26.366881 L 8.7072087,27.61099 C 8.7072087,27.61099 7.9684987,22.909585 7.6408292,18.546765 C 7.5658224,17.548081 7.5658186,16.802524 7.6112075,16.236276 L 7.6112075,14.577463 z "
       id="path3255" />
    <path
       style="opacity:0.52427183;color:#000000;fill:url(#linearGradient3368);fill-opacity:1;fill-rule:evenodd;stroke:none;stroke-width:1px;stroke-linecap:butt;stroke-linejoin:miter;marker:none;marker-start:none;marker-mid:none;marker-end:none;stroke-miterlimit:4;stroke-dasharray:none;stroke-dashoffset:0;stroke-opacity:1;visibility:visible;display:inline;overflow:visible;enable-background:accumulate"
       d="M 11.136184,12.207731 C 10.349805,13.556543 9.0891232,14.434973 7.7000725,14.547842 C 7.6829725,14.552466 7.6580297,14.543802 7.6408292,14.547842 C 7.6290042,14.550619 7.623079,14.574965 7.6112075,14.577463 L 7.6112075,16.236276 C 7.5658186,16.802524 7.5658224,17.548081 7.6408292,18.546765 C 7.9684987,22.909585 8.7072087,27.61099 8.7072087,27.61099 L 11.076941,27.196287 C 11.076941,27.196287 10.951427,22.946002 10.988076,18.694873 C 11.010186,16.130047 11.083409,13.881037 11.136184,12.207731 z "
       id="path3257" />
    <path
       style="opacity:0.52427183;color:#000000;fill:url(#linearGradient2394);fill-opacity:1;fill-rule:evenodd;stroke:none;stroke-width:1px;stroke-linecap:butt;stroke-linejoin:miter;marker:none;marker-start:none;marker-mid:none;marker-end:none;stroke-miterlimit:4;stroke-dasharray:none;stroke-dashoffset:0;stroke-opacity:1;visibility:visible;display:inline;overflow:visible;enable-background:accumulate"
       d="M 14.039106,5.217033 C 13.314201,5.207779 12.61311,5.244037 11.935969,5.276277 C 12.888279,5.276277 13.7159,6.17281 14.187214,7.497901 C 14.190293,7.499359 14.276079,7.527522 14.276079,7.527522 C 14.276079,7.527522 14.613904,7.992641 14.927755,10.548926 L 24.88063,9.689903 C 24.88063,9.689903 26.59128,9.341849 27.783552,8.830875 C 28.975822,8.319902 29.649716,7.646009 29.649716,7.646009 L 24.288197,5.86871 L 24.169711,5.86871 C 24.169711,5.86871 18.345206,5.272005 14.039106,5.217033 z "
       id="path3264" />
    <path
       sodipodi:nodetypes="csssssc"
       id="path4483"
       d="M 6.2189899,5.631736 C 4.8036674,5.631736 3.6715279,7.645998 3.6715279,10.134227 C 3.6715279,12.622445 4.8036674,14.636707 6.2189899,14.636707 C 6.4090292,14.636707 7.1249518,14.636707 7.314991,14.636707 C 8.7303135,14.636707 9.8920747,12.622445 9.8920747,10.134227 C 9.8920747,7.645999 8.7303135,5.631736 7.314991,5.631736 C 7.1249518,5.631736 6.4090292,5.631736 6.2189899,5.631736 z "
       style="opacity:1;fill:#000000;fill-opacity:1;fill-rule:nonzero;stroke:none;stroke-width:0.1;stroke-linecap:round;stroke-linejoin:round;stroke-miterlimit:4;stroke-dasharray:none;stroke-opacity:1" />
    <path
       style="opacity:0.6893204;fill:url(#linearGradient3471);fill-opacity:1;fill-rule:nonzero;stroke:none;stroke-width:0.1;stroke-linecap:round;stroke-linejoin:round;stroke-miterlimit:4;stroke-dasharray:none;stroke-opacity:1"
       d="M 6.2189899,5.631736 C 7.6343124,5.631736 8.7960736,7.645999 8.7960736,10.134227 C 8.7960736,12.622445 7.6343124,14.636707 6.2189899,14.636707 C 6.4090292,14.636707 7.1249518,14.636707 7.314991,14.636707 C 8.7303135,14.636707 9.8920747,12.622445 9.8920747,10.134227 C 9.8920747,7.645999 8.7303135,5.631736 7.314991,5.631736 C 7.1249518,5.631736 6.4090292,5.631736 6.2189899,5.631736 z "
       id="path3324" />
    <path
       sodipodi:type="arc"
       style="opacity:0.6893204;fill:#555753;fill-opacity:1;fill-rule:nonzero;stroke:none;stroke-width:0.1;stroke-linecap:round;stroke-linejoin:round;stroke-miterlimit:4;stroke-dasharray:none;stroke-opacity:1"
       id="path2245"
       sodipodi:cx="5.3353882"
       sodipodi:cy="8.3356295"
       sodipodi:rx="2.3970585"
       sodipodi:ry="4.2141838"
       d="M 7.7324467 8.3356295 A 2.3970585 4.2141838 0 1 1  2.9383297,8.3356295 A 2.3970585 4.2141838 0 1 1  7.7324467 8.3356295 z"
       transform="matrix(0.9478928,0,0,0.9478928,1.0944442,2.240816)" />
    <path
       style="opacity:1;fill:#000219;fill-opacity:1;fill-rule:nonzero;stroke:none;stroke-width:0.1;stroke-linecap:round;stroke-linejoin:round;stroke-miterlimit:4;stroke-dasharray:none;stroke-opacity:1"
       d="M 7.7593158,8.327307 C 7.192382,8.327307 6.722558,9.137521 6.722558,10.134227 C 6.722558,11.130925 7.1923801,11.941136 7.7593158,11.941136 C 7.913829,11.941136 8.0721479,11.871004 8.2036406,11.763406 C 8.3288449,11.268242 8.4109921,10.71075 8.4109921,10.134227 C 8.4109921,9.546732 8.3333787,9.00756 8.2036406,8.505037 C 8.0727849,8.398706 7.9128602,8.327307 7.7593158,8.327307 z "
       id="path2255" />
    <path
       style="opacity:1;fill:url(#linearGradient4523);fill-opacity:1;fill-rule:nonzero;stroke:none;stroke-width:0.1;stroke-linecap:round;stroke-linejoin:round;stroke-miterlimit:4;stroke-dasharray:none;stroke-opacity:1"
       d="M 7.4630993,8.268063 C 6.8731516,8.268063 6.3967189,9.097062 6.3967198,10.134227 C 6.3967198,11.171383 6.8731516,12.030001 7.4630993,12.030001 C 7.5614242,12.030001 7.6688679,11.984908 7.7593158,11.941136 C 7.1923801,11.941136 6.722558,11.130925 6.722558,10.134227 C 6.722558,9.137521 7.192382,8.327307 7.7593158,8.327307 C 7.6704281,8.285147 7.5595332,8.268063 7.4630993,8.268063 z "
       id="path2253" />
    <path
       style="opacity:0.75;fill:url(#linearGradient4515);fill-opacity:1;fill-rule:nonzero;stroke:none;stroke-width:0.1;stroke-linecap:round;stroke-linejoin:round;stroke-miterlimit:4;stroke-dasharray:none;stroke-opacity:1"
       d="M 7.1668828,7.616387 C 6.3729201,7.616387 5.7450435,8.738391 5.7450435,10.134227 C 5.7450435,11.530053 6.3729192,12.681678 7.1668828,12.681678 C 7.5232336,12.681678 7.8634276,12.437389 8.1147756,12.059623 C 8.143384,11.968176 8.1487604,11.859216 8.1740189,11.763406 C 8.0469577,11.861303 7.9055093,11.941136 7.7593158,11.941136 C 7.6688679,11.984908 7.5614242,12.030001 7.4630993,12.030001 C 6.8731516,12.030001 6.3967198,11.171383 6.3967198,10.134227 C 6.3967189,9.097062 6.8731516,8.268063 7.4630993,8.268063 C 7.5595332,8.268063 7.6704281,8.285147 7.7593158,8.327307 C 7.8998684,8.327307 8.0499653,8.383732 8.1740189,8.475415 C 8.1524544,8.396975 8.1386445,8.31474 8.1147756,8.238442 C 7.8626731,7.855565 7.5259171,7.616387 7.1668828,7.616387 z "
       id="path2267" />
    <path
       style="opacity:0.15;fill:url(#linearGradient4507);fill-opacity:1;fill-rule:nonzero;stroke:none;stroke-width:0.1;stroke-linecap:round;stroke-linejoin:round;stroke-miterlimit:4;stroke-dasharray:none;stroke-opacity:1"
       d="M 6.7521797,6.727738 C 5.6805043,6.727738 4.7971507,8.250153 4.7971507,10.134227 C 4.7971507,12.01829 5.6805053,13.540705 6.7521797,13.540705 C 7.1053456,13.540705 7.4169985,13.355886 7.7000725,13.066759 C 7.7198285,13.034402 7.7402252,13.011456 7.7593158,12.977894 C 7.9108697,12.711452 8.0106922,12.39233 8.1147756,12.059623 C 7.8634276,12.437389 7.5232336,12.681678 7.1668828,12.681678 C 6.3729192,12.681678 5.7450435,11.530052 5.7450435,10.134227 C 5.7450435,8.738391 6.3729201,7.616387 7.1668828,7.616387 C 7.5259171,7.616387 7.8626731,7.855565 8.1147756,8.238442 C 7.9855484,7.82536 7.8414128,7.450173 7.6408292,7.142441 C 7.3714162,6.889334 7.0809895,6.727738 6.7521797,6.727738 z "
       id="path2278"
       sodipodi:nodetypes="csssscsssccc" />
    <path
       style="opacity:0.25;fill:url(#linearGradient4499);fill-opacity:1;fill-rule:nonzero;stroke:none;stroke-width:0.1;stroke-linecap:round;stroke-linejoin:round;stroke-miterlimit:4;stroke-dasharray:none;stroke-opacity:1"
       d="M 6.6633147,6.283413 C 5.4535598,6.283413 4.4713115,8.0074 4.4713125,10.134227 C 4.4713125,12.261044 5.4535579,13.985029 6.6633147,13.98503 C 6.7040276,13.98503 6.7416324,13.959264 6.7818013,13.955409 C 7.1272552,13.778859 7.4437291,13.486603 7.7000725,13.066759 C 7.4169985,13.355886 7.1053456,13.540705 6.7521797,13.540705 C 5.6805053,13.540705 4.7971507,12.01829 4.7971507,10.134227 C 4.7971507,8.250153 5.6805043,6.727738 6.7521797,6.727738 C 7.0809895,6.727738 7.3714162,6.889334 7.6408292,7.142441 C 7.3886025,6.755479 7.0838322,6.474691 6.7521797,6.313035 C 6.7214727,6.31079 6.6943345,6.283413 6.6633147,6.283413 z "
       id="path2284" />
    <path
       style="opacity:0.5;color:#000000;fill:url(#linearGradient3462);fill-opacity:1;fill-rule:evenodd;stroke:none;stroke-width:1px;stroke-linecap:butt;stroke-linejoin:miter;marker:none;marker-start:none;marker-mid:none;marker-end:none;stroke-miterlimit:4;stroke-dasharray:none;stroke-dashoffset:0;stroke-opacity:1;visibility:visible;display:inline;overflow:visible;enable-background:accumulate"
       d="M 29.264635,13.422219 C 29.14553,13.40275 29.057283,13.451841 29.057283,13.451841 L 17.415974,14.577463 C 17.415974,14.577463 17.142973,14.510239 17.060514,15.169896 C 16.978057,15.829554 17.030894,17.170116 17.030893,17.243412 L 17.179001,17.21379 C 17.278115,16.160653 17.386353,15.318005 17.386353,15.318005 L 17.830677,14.784815 L 30.153284,14.784815 C 30.069945,14.517678 29.903057,14.019059 29.679338,13.718435 C 29.532747,13.521454 29.383739,13.441688 29.264635,13.422219 z "
       id="path2338" />
    <path
       style="opacity:0.66504852;fill:url(#linearGradient2375);fill-opacity:1;fill-rule:nonzero;stroke:none;stroke-width:0.1;stroke-linecap:round;stroke-linejoin:round;stroke-miterlimit:4;stroke-dasharray:none;stroke-opacity:1"
       d="M 11.195427,10.09719 L 9.8920747,10.193469 C 9.8751564,12.44948 8.8846431,14.255684 7.6408292,14.547842 C 9.0605666,14.454795 10.339646,13.557923 11.136184,12.17811 C 11.170193,11.104093 11.195427,10.09719 11.195427,10.09719 z "
       id="path4300"
       sodipodi:nodetypes="ccccc" />
    <path
       style="opacity:0.52427183;color:#000000;fill:url(#linearGradient3352);fill-opacity:1;fill-rule:evenodd;stroke:none;stroke-width:1px;stroke-linecap:butt;stroke-linejoin:miter;marker:none;marker-start:none;marker-mid:none;marker-end:none;stroke-miterlimit:4;stroke-dasharray:none;stroke-dashoffset:0;stroke-opacity:1;visibility:visible;display:inline;overflow:visible;enable-background:accumulate"
       d="M 11.669374,5.276277 C 9.863419,5.355033 8.3200826,5.507934 7.314991,5.631736 C 8.7303135,5.631736 9.8920747,7.645998 9.8920747,10.134227 C 9.8920747,10.15421 9.8922245,10.173548 9.8920747,10.193469 L 11.195427,10.104605 C 11.195427,10.104605 11.170193,11.104093 11.136184,12.17811 C 11.132056,12.185261 11.140339,12.200606 11.136184,12.207731 C 11.083409,13.881037 11.010186,16.130047 10.988076,18.694873 C 10.951427,22.946002 11.076941,27.196287 11.076941,27.196287 L 8.9145602,27.581368 L 9.1515334,28.203423 L 10.247535,28.943964 C 10.247535,28.943964 11.232455,28.936558 11.876725,28.677369 C 12.520996,28.418179 12.67651,27.96645 12.67651,27.96645 C 12.67651,27.96645 12.483969,22.442012 12.794997,17.332277 C 12.885971,15.837707 13.052138,14.442503 13.239321,13.126002 C 13.361055,12.26895 13.499895,11.49053 13.624403,10.785897 C 13.704024,10.341519 13.758763,10.027488 13.831754,9.660281 C 13.900057,9.307527 13.923619,9.188637 13.979863,8.91974 C 14.08116,8.440019 14.136637,8.157341 14.187214,7.942225 C 14.198949,7.891996 14.241509,7.666177 14.246457,7.646009 C 13.786436,6.235134 12.925184,5.276277 11.935969,5.276277 C 11.889404,5.276277 11.761545,5.276277 11.669374,5.276277 z M 15.312837,13.126002 C 15.383604,13.221018 15.463059,13.207875 15.54981,13.126002 L 15.312837,13.126002 z "
       id="path5279" />
    <path
       style="opacity:0.52427183;color:#000000;fill:url(#linearGradient3520);fill-opacity:1;fill-rule:evenodd;stroke:none;stroke-width:1px;stroke-linecap:butt;stroke-linejoin:miter;marker:none;marker-start:none;marker-mid:none;marker-end:none;stroke-miterlimit:4;stroke-dasharray:none;stroke-dashoffset:0;stroke-opacity:1;visibility:visible;display:inline;overflow:visible;enable-background:accumulate"
       d="M 6.130125,14.607085 L 6.2189899,21.183092 L 6.8706663,21.745903 C 6.8706663,21.745903 6.8255001,20.286442 6.7818013,18.398656 C 6.7519446,17.108855 6.8029042,15.831514 6.8706663,14.636707 C 6.6069227,14.636707 6.3319863,14.636707 6.2189899,14.636707 C 6.1869312,14.636707 6.1618832,14.609134 6.130125,14.607085 z "
       id="path5308"
       sodipodi:nodetypes="cccscsc" />
    <path
       style="color:#000000;fill:url(#linearGradient3426);fill-opacity:1;fill-rule:evenodd;stroke:none;stroke-width:1px;stroke-linecap:butt;stroke-linejoin:miter;marker:none;marker-start:none;marker-mid:none;marker-end:none;stroke-miterlimit:4;stroke-dashoffset:0;stroke-opacity:1;visibility:visible;display:inline;overflow:visible;enable-background:accumulate"
       d="M 28.99804,10.84514 L 26.361713,11.05249 L 26.509821,12.800164 L 29.086905,12.592813 L 28.99804,10.84514 z M 25.917388,11.111733 L 23.07371,11.319083 L 23.221818,13.066759 L 26.035875,12.829786 L 25.917388,11.111733 z M 22.599763,11.378325 L 19.933815,11.585676 L 20.081923,13.333354 L 22.747871,13.126002 L 22.599763,11.378325 z M 19.48949,11.615298 L 16.734676,11.852271 L 16.882784,13.599949 L 19.607976,13.362976 L 19.48949,11.615298 z "
       id="path2332" />
    <path
       style="opacity:1;color:#000000;fill:#000000;fill-opacity:1;fill-rule:evenodd;stroke:none;stroke-width:1px;stroke-linecap:butt;stroke-linejoin:miter;marker:none;marker-start:none;marker-mid:none;marker-end:none;stroke-miterlimit:4;stroke-dasharray:none;stroke-dashoffset:0;stroke-opacity:1;visibility:visible;display:inline;overflow:visible;enable-background:accumulate"
       d="M 31.575124,5.128169 L 24.288197,5.86871 L 29.649716,7.646009 L 30.716096,11.141354 C 30.716096,11.141354 33.008359,11.224892 33.352423,10.904383 C 33.683465,10.596003 33.733878,7.964232 33.530153,6.668494 C 33.527858,6.659978 33.532419,6.647211 33.530153,6.638873 C 33.500376,6.455126 33.451393,6.311523 33.411666,6.194548 C 33.081837,5.223385 31.575122,5.128169 31.575124,5.128169 z "
       id="path2373" />
    <path
       style="opacity:1;color:#000000;fill:url(#linearGradient3488);fill-opacity:1;fill-rule:evenodd;stroke:none;stroke-width:1px;stroke-linecap:butt;stroke-linejoin:miter;marker:none;marker-start:none;marker-mid:none;marker-end:none;stroke-miterlimit:4;stroke-dasharray:none;stroke-dashoffset:0;stroke-opacity:1;visibility:visible;display:inline;overflow:visible;enable-background:accumulate"
       d="M 2.901365,24.73769 L 3.1975815,28.084936 C 3.1975815,28.084936 4.403598,28.943964 5.9523951,28.943964 C 7.3392797,28.943964 7.994711,28.425565 8.1443973,28.292288 C 8.1280402,28.281859 7.996289,28.203423 7.996289,28.203423 L 7.6112075,26.011421 C 7.2872951,26.146005 6.5433414,26.390917 5.3895837,26.248394 C 3.8320584,26.055993 2.901365,24.73769 2.901365,24.73769 z "
       id="path2391" />
    <path
       style="opacity:1;color:#000000;fill:url(#linearGradient4601);fill-opacity:1;fill-rule:evenodd;stroke:none;stroke-width:1px;stroke-linecap:butt;stroke-linejoin:miter;marker:none;marker-start:none;marker-mid:none;marker-end:none;stroke-miterlimit:4;stroke-dasharray:none;stroke-dashoffset:0;stroke-opacity:1;visibility:visible;display:inline;overflow:visible;enable-background:accumulate"
       d="M 6.8706663,21.390443 L 5.0637455,22.160606 L 4.8267723,22.664174 C 4.8278738,22.664725 4.8546735,22.721122 4.856394,22.723417 C 4.9259314,22.478038 5.0514741,22.34405 5.2710971,22.338336 C 5.8141648,22.324208 6.5985632,23.158912 7.0187745,24.234122 C 7.4389858,25.309332 7.324869,26.204643 6.7818013,26.218772 C 6.5497382,26.224809 6.2840438,26.036475 6.0116384,25.774448 C 6.077242,25.960396 6.1183616,26.07424 6.1893683,26.278016 C 6.8555417,26.263905 7.2964123,26.142164 7.5519642,26.041042 C 7.4793452,25.624742 7.2078137,23.994005 6.9891529,21.716281 L 6.8706663,21.390443 z "
       id="path2403" />
    <path
       style="opacity:1;color:#000000;fill:url(#linearGradient3496);fill-opacity:1;fill-rule:evenodd;stroke:none;stroke-width:1px;stroke-linecap:butt;stroke-linejoin:miter;marker:none;marker-start:none;marker-mid:none;marker-end:none;stroke-miterlimit:4;stroke-dasharray:none;stroke-dashoffset:0;stroke-opacity:1;visibility:visible;display:inline;overflow:visible;enable-background:accumulate"
       d="M 6.2189899,22.901147 C 6.1794255,22.916745 5.3132816,23.270991 4.4713125,23.700932 C 3.6100926,24.140703 2.8125,24.648825 2.8125,24.648825 L 2.901365,24.796933 L 2.901365,24.73769 C 2.901365,24.73769 3.8080831,26.030786 5.3303404,26.248394 C 5.4685157,26.147895 5.5569077,26.060725 5.7154218,25.952177 C 5.8111401,25.886632 5.9116763,25.840522 6.0116384,25.774448 C 6.5054861,25.448016 6.909412,25.19555 7.2261261,25.004285 C 7.2246949,24.995845 7.227639,24.98316 7.2261261,24.974663 C 7.1854513,24.746224 7.12006,24.493284 7.0187745,24.234122 C 6.8143472,23.711047 6.5260836,23.240341 6.2189899,22.901147 z "
       id="path2414"
       sodipodi:nodetypes="csccccsssssc" />
    <path
       style="opacity:1;fill:#000000;fill-opacity:1;fill-rule:nonzero;stroke:none;stroke-width:0.1;stroke-linecap:round;stroke-linejoin:round;stroke-miterlimit:4;stroke-dasharray:none;stroke-opacity:1"
       d="M 5.2710971,22.338336 C 4.863796,22.348933 4.7029951,22.820283 4.8267723,23.523202 C 5.530877,23.182951 6.1854177,22.914383 6.2189899,22.901147 C 5.895504,22.53632 5.5499698,22.331081 5.2710971,22.338336 z M 7.2261261,25.004285 C 6.909412,25.19555 6.5054861,25.448016 6.0116384,25.774448 C 6.2840435,26.036475 6.5497377,26.224809 6.7818013,26.218772 C 7.1891023,26.208175 7.3499032,25.707205 7.2261261,25.004285 z "
       id="path2401" />
    <path
       style="opacity:1;color:#000000;fill:url(#linearGradient4585);fill-opacity:1;fill-rule:evenodd;stroke:none;stroke-width:1px;stroke-linecap:butt;stroke-linejoin:miter;marker:none;marker-start:none;marker-mid:none;marker-end:none;stroke-miterlimit:4;stroke-dasharray:none;stroke-dashoffset:0;stroke-opacity:1;visibility:visible;display:inline;overflow:visible;enable-background:accumulate"
       d="M 8.6183437,24.500717 L 8.6479653,24.796933 L 10.366021,24.945041 L 10.336399,24.708068 L 8.6183437,24.500717 z M 8.7072087,25.004285 L 8.7368303,25.330123 L 10.366021,25.359744 L 10.336399,25.122771 L 8.7072087,25.004285 z M 8.766452,25.537474 L 8.7960736,25.833691 L 10.366021,25.804069 L 10.336399,25.567096 L 8.766452,25.537474 z M 8.8256953,26.070664 L 8.8849386,26.366881 L 10.395643,26.278016 L 10.366021,26.070664 L 8.8256953,26.070664 z "
       id="path2425" />
    <path
       style="opacity:1;color:#000000;fill:url(#linearGradient4593);fill-opacity:1;fill-rule:evenodd;stroke:none;stroke-width:1px;stroke-linecap:butt;stroke-linejoin:miter;marker:none;marker-start:none;marker-mid:none;marker-end:none;stroke-miterlimit:4;stroke-dasharray:none;stroke-dashoffset:0;stroke-opacity:1;visibility:visible;display:inline;overflow:visible;enable-background:accumulate"
       d="M 7.4630993,24.086013 L 7.4927209,24.263743 L 8.1147756,24.589582 L 8.085154,24.352608 L 7.4630993,24.086013 z M 7.5223426,24.530338 L 7.5223426,24.708068 L 8.1740189,25.122771 L 8.1443973,24.826555 L 7.5223426,24.530338 z M 7.5815859,24.974663 L 7.6112075,25.182015 L 8.2332622,25.626339 L 8.2332622,25.389366 L 7.5815859,24.974663 z M 7.6408292,25.478231 L 7.7000725,25.685583 L 8.3517488,26.248394 L 8.3221272,25.952177 C 8.3221272,25.952177 7.744486,25.581887 7.6408292,25.478231 z "
       id="path2427" />
    <path
       style="opacity:0.52427183;color:#000000;fill:url(#linearGradient3485);fill-opacity:1;fill-rule:evenodd;stroke:none;stroke-width:1px;stroke-linecap:butt;stroke-linejoin:miter;marker:none;marker-start:none;marker-mid:none;marker-end:none;stroke-miterlimit:4;stroke-dasharray:none;stroke-dashoffset:0;stroke-opacity:1;visibility:visible;display:inline;overflow:visible;enable-background:accumulate"
       d="M 26.213605,9.541795 C 25.867398,9.5599 25.48079,9.598214 25.05836,9.660281 C 25.033995,9.665415 24.88063,9.689903 24.88063,9.689903 L 14.927755,10.548926 C 14.991394,11.067252 15.046005,11.550664 15.105485,12.266974 C 15.45405,16.464658 15.413405,17.357991 15.401702,18.754116 L 13.950241,18.754116 L 14.098349,25.211636 L 15.609053,25.270879 C 15.609053,25.270879 15.70725,26.489422 15.431324,28.32191 C 15.151314,30.181514 14.513052,30.365804 14.513052,30.365804 C 14.543755,30.366542 14.720404,30.395425 14.720404,30.395425 L 33.855991,26.011421 L 33.796747,12.829786 C 33.729968,12.770884 33.666511,12.726889 33.589396,12.681678 L 32.40453,12.592813 L 31.960205,11.852271 L 30.775339,11.793028 L 30.449501,11.793028 C 30.453544,11.753267 30.479123,11.716417 30.479123,11.674541 C 30.479123,10.991799 29.882358,10.305225 28.849932,9.926876 C 28.006188,9.617671 27.252223,9.48748 26.213605,9.541795 z M 29.086905,10.785897 L 29.205391,12.652056 L 26.420956,12.859408 L 26.243226,10.993247 L 29.086905,10.785897 z M 26.006253,11.022869 L 26.154361,12.889029 L 23.132953,13.155624 L 22.955223,11.25984 L 26.006253,11.022869 z M 22.688628,11.289461 L 22.866358,13.185246 L 19.993058,13.422219 L 19.815328,11.526433 L 22.688628,11.289461 z M 19.578355,11.526433 L 19.726463,13.422219 L 16.79392,13.688814 L 16.61619,11.793028 L 19.578355,11.526433 z M 15.312837,13.126002 L 15.54981,13.126002 C 15.463059,13.207875 15.383604,13.221018 15.312837,13.126002 z "
       id="path2472" />
    <path
       style="opacity:0.52427183;color:#000000;fill:url(#linearGradient2414);fill-opacity:1;fill-rule:evenodd;stroke:none;stroke-width:1px;stroke-linecap:butt;stroke-linejoin:miter;marker:none;marker-start:none;marker-mid:none;marker-end:none;stroke-miterlimit:4;stroke-dasharray:none;stroke-dashoffset:0;stroke-opacity:1;visibility:visible;display:inline;overflow:visible;enable-background:accumulate"
       d="M 7.7000725,26.455746 L 7.996289,28.203423 C 7.996289,28.203423 8.1280402,28.281859 8.1443973,28.292288 C 8.246992,28.357698 8.5465091,28.547202 9.1219118,28.855099 L 9.1515334,28.203423 L 8.9145602,27.581368 L 8.7072087,27.61099 L 7.7000725,26.455746 z "
       id="path2454" />
    <path
       style="opacity:1;fill:#888888;fill-opacity:1;fill-rule:nonzero;stroke:none;stroke-width:0.1;stroke-linecap:round;stroke-linejoin:round;stroke-miterlimit:4;stroke-opacity:1"
       d="M 17.830677,14.784815 L 17.386353,15.318005 C 17.386353,15.318005 17.192125,16.888211 17.060514,18.902224 L 14.513052,18.902224 C 14.513052,18.902224 14.328297,20.454972 14.364944,22.012498 C 14.401592,23.570023 14.661161,25.122772 14.661161,25.122771 L 17.060514,25.182015 C 17.192166,27.165212 17.386353,28.706992 17.386353,28.706991 L 34.507667,28.706991 C 34.507667,28.706991 34.951993,25.356937 34.951992,22.012498 C 34.951992,18.66806 34.507669,15.318005 34.507667,15.318005 C 34.507667,15.318005 33.915234,14.784815 33.915234,14.784815 L 17.830677,14.784815 z "
       id="path2352" />
    <rect
       style="opacity:1;fill:#000000;fill-opacity:1;fill-rule:nonzero;stroke:none;stroke-width:0.1;stroke-linecap:round;stroke-linejoin:round;stroke-miterlimit:4;stroke-dasharray:none;stroke-opacity:1"
       id="rect2247"
       width="14.714458"
       height="10.672019"
       x="18.58433"
       y="16.716587" />
    <path
       style="opacity:0.1;fill:#000000;fill-opacity:1;fill-rule:nonzero;stroke:none;stroke-width:0.1;stroke-linecap:round;stroke-linejoin:round;stroke-miterlimit:4;stroke-dasharray:none;stroke-opacity:1"
       d="M 17.949164,16.265897 L 18.571219,16.710222 L 33.293179,16.710222 L 33.915234,16.265897 L 17.949164,16.265897 z "
       id="path3304" />
    <path
       style="opacity:0.64600004;fill:url(#linearGradient3400);fill-opacity:1;fill-rule:nonzero;stroke:none;stroke-width:0.1;stroke-linecap:round;stroke-linejoin:round;stroke-miterlimit:4;stroke-dasharray:none;stroke-opacity:1"
       d="M 17.949164,27.847963 L 33.915234,27.847963 L 33.293179,27.374017 L 18.571219,27.374017 L 17.949164,27.847963 z "
       id="path3295" />
    <path
       style="opacity:0.05;fill:#000000;fill-opacity:1;fill-rule:nonzero;stroke:none;stroke-width:0.1;stroke-linecap:round;stroke-linejoin:round;stroke-miterlimit:4;stroke-dasharray:none;stroke-opacity:1"
       d="M 17.949164,16.265897 L 17.949164,27.847963 L 18.571219,27.374017 L 18.571219,16.710222 L 17.949164,16.265897 z "
       id="path3311" />
    <path
       style="opacity:0.64563108;fill:url(#linearGradient3408);fill-opacity:1;fill-rule:nonzero;stroke:none;stroke-width:0.1;stroke-linecap:round;stroke-linejoin:round;stroke-miterlimit:4;stroke-dasharray:none;stroke-opacity:1"
       d="M 33.293179,16.710222 L 33.293179,27.374017 L 33.915234,27.847963 L 33.915234,16.265897 L 33.293179,16.710222 z "
       id="path3293" />
    <path
       style="opacity:0.52427183;color:#000000;fill:url(#linearGradient2424);fill-opacity:1;fill-rule:evenodd;stroke:none;stroke-width:1px;stroke-linecap:butt;stroke-linejoin:miter;marker:none;marker-start:none;marker-mid:none;marker-end:none;stroke-miterlimit:4;stroke-dasharray:none;stroke-dashoffset:0;stroke-opacity:1;visibility:visible;display:inline;overflow:visible;enable-background:accumulate"
       d="M 14.507486,18.900878 L 16.852936,18.900878 L 16.852935,25.167627 L 14.654077,25.13098 C 14.654077,25.13098 14.397543,23.573455 14.360896,22.015929 C 14.324248,20.458404 14.507486,18.900878 14.507486,18.900878 z "
       id="path2336"
       sodipodi:nodetypes="cccczc" />
    <path
       id="path2347"
       d="M 17.830677,14.784815 L 17.386353,15.318005 L 34.507667,15.318005 C 34.507667,15.318005 33.915234,14.784815 33.915234,14.784815 L 17.830677,14.784815 z M 34.507667,15.318005 C 34.507668,15.318005 34.507669,15.318005 34.507667,15.318005 z "
       style="opacity:0.64563108;fill:url(#linearGradient3416);fill-opacity:1;fill-rule:nonzero;stroke:none;stroke-width:0.1;stroke-linecap:round;stroke-linejoin:round;stroke-miterlimit:4;stroke-opacity:1"
       sodipodi:nodetypes="ccccccc" />
    <path
       style="opacity:0.64563108;fill:url(#linearGradient3392);fill-opacity:1;fill-rule:nonzero;stroke:none;stroke-width:0.1;stroke-linecap:round;stroke-linejoin:round;stroke-miterlimit:4;stroke-opacity:1"
       d="M 17.386353,15.318005 C 17.386353,15.318005 16.942028,18.668061 16.942028,22.012498 C 16.942028,25.356936 17.386353,28.706992 17.386353,28.706991 L 34.507667,28.706991 C 34.507667,28.706991 34.951993,25.356937 34.951992,22.012498 C 34.951992,18.66806 34.507669,15.318005 34.507667,15.318005 L 17.386353,15.318005 z M 17.949164,16.265897 L 33.915234,16.265897 L 33.915234,27.847963 L 17.949164,27.847963 L 17.949164,16.265897 z "
       id="rect3240" />
    <path
       style="opacity:1;color:#000000;fill:url(#linearGradient3395);fill-opacity:1;fill-rule:evenodd;stroke:none;stroke-width:1px;stroke-linecap:butt;stroke-linejoin:miter;marker:none;marker-start:none;marker-mid:none;marker-end:none;stroke-miterlimit:4;stroke-dasharray:none;stroke-dashoffset:0;stroke-opacity:1;visibility:visible;display:inline;overflow:visible;enable-background:accumulate"
       d="M 29.086905,12.592813 L 26.509821,12.800164 L 26.420956,12.859408 L 29.205391,12.652056 L 29.086905,12.592813 z M 26.035875,12.829786 L 23.221818,13.066759 L 23.132953,13.155624 L 26.154361,12.889029 L 26.035875,12.829786 z M 22.747871,13.126002 L 20.081923,13.333354 L 19.993058,13.422219 L 22.866358,13.185246 L 22.747871,13.126002 z M 19.607976,13.362976 L 16.882784,13.599949 L 16.79392,13.688814 L 19.726463,13.422219 L 19.607976,13.362976 z "
       id="path3661" />
    <path
       style="opacity:1;color:#000000;fill:url(#linearGradient3379);fill-opacity:1;fill-rule:evenodd;stroke:none;stroke-width:1px;stroke-linecap:butt;stroke-linejoin:miter;marker:none;marker-start:none;marker-mid:none;marker-end:none;stroke-miterlimit:4;stroke-dasharray:none;stroke-dashoffset:0;stroke-opacity:1;visibility:visible;display:inline;overflow:visible;enable-background:accumulate"
       d="M 26.243226,10.993247 L 26.420956,12.859408 L 26.509821,12.800164 L 26.361713,11.05249 L 26.243226,10.993247 z M 22.955223,11.25984 L 23.132953,13.155624 L 23.221818,13.066759 L 23.07371,11.319083 L 22.955223,11.25984 z M 19.815328,11.526433 L 19.993058,13.422219 L 20.081923,13.333354 L 19.933815,11.585676 L 19.815328,11.526433 z M 16.61619,11.793028 L 16.79392,13.688814 L 16.882784,13.599949 L 16.734676,11.852271 L 16.61619,11.793028 z "
       id="path3709" />
    <path
       style="opacity:1;color:#000000;fill:url(#linearGradient3387);fill-opacity:1;fill-rule:evenodd;stroke:none;stroke-width:1px;stroke-linecap:butt;stroke-linejoin:miter;marker:none;marker-start:none;marker-mid:none;marker-end:none;stroke-miterlimit:4;stroke-dasharray:none;stroke-dashoffset:0;stroke-opacity:1;visibility:visible;display:inline;overflow:visible;enable-background:accumulate"
       d="M 29.086905,10.785897 L 26.243226,10.993247 L 26.361713,11.05249 L 28.99804,10.84514 L 29.086905,10.785897 z M 26.006253,11.022869 L 22.955223,11.25984 L 23.07371,11.319083 L 25.917388,11.111733 L 26.006253,11.022869 z M 22.688628,11.289461 L 19.815328,11.526433 L 19.933815,11.585676 L 22.599763,11.378325 L 22.688628,11.289461 z M 19.578355,11.526433 L 16.61619,11.793028 L 16.734676,11.852271 L 19.48949,11.615298 L 19.578355,11.526433 z "
       id="path3631" />
    <path
       style="opacity:1;color:#000000;fill:url(#linearGradient3403);fill-opacity:1;fill-rule:evenodd;stroke:none;stroke-width:1px;stroke-linecap:butt;stroke-linejoin:miter;marker:none;marker-start:none;marker-mid:none;marker-end:none;stroke-miterlimit:4;stroke-dasharray:none;stroke-dashoffset:0;stroke-opacity:1;visibility:visible;display:inline;overflow:visible;enable-background:accumulate"
       d="M 29.086905,10.785897 L 28.99804,10.84514 L 29.086905,12.592813 L 29.205391,12.652056 L 29.086905,10.785897 z M 26.006253,11.022869 L 25.917388,11.111733 L 26.035875,12.829786 L 26.154361,12.889029 L 26.006253,11.022869 z M 22.688628,11.289461 L 22.599763,11.378325 L 22.747871,13.126002 L 22.866358,13.185246 L 22.688628,11.289461 z M 19.578355,11.526433 L 19.48949,11.615298 L 19.607976,13.362976 L 19.726463,13.422219 L 19.578355,11.526433 z "
       id="path3726" />
    <path
       style="opacity:1;fill:url(#linearGradient3439);fill-opacity:1;fill-rule:nonzero;stroke:none;stroke-width:0.1;stroke-linecap:round;stroke-linejoin:round;stroke-miterlimit:4;stroke-dasharray:none;stroke-opacity:1"
       d="M 27.665066,11.319083 C 27.457482,11.319083 27.279984,11.514306 27.279984,11.763406 C 27.279984,12.012507 27.457482,12.207731 27.665066,12.207731 C 27.872649,12.207731 28.020525,12.012507 28.020525,11.763406 C 28.020525,11.514306 27.872648,11.319083 27.665066,11.319083 z M 23.873494,11.585676 L 23.991981,12.563191 L 24.347441,12.059623 L 23.873494,11.585676 z M 25.206469,11.615298 L 24.643657,11.674541 L 24.7029,12.385461 L 25.23609,12.355839 L 25.206469,11.615298 z M 21.533384,11.793028 L 21.65187,12.711299 L 21.977709,12.237353 L 21.533384,11.793028 z M 20.703978,11.881893 L 20.792842,12.829786 L 21.148302,12.326218 L 20.703978,11.881893 z M 18.660084,12.059623 L 18.275002,12.592813 L 18.689705,13.007516 L 18.660084,12.059623 z M 17.830677,12.17811 L 17.504839,12.652056 L 17.889921,13.037137 L 17.830677,12.17811 z "
       id="path3735" />
    <path
       id="path2377"
       d="M 11.669374,5.276277 C 9.863419,5.355033 8.3200826,5.507934 7.314991,5.631736 C 8.7303135,5.631736 9.8920747,7.645999 9.8920747,10.134227 C 9.8920747,10.15421 9.8922245,10.173548 9.8920747,10.193469 L 11.195427,10.104605 C 11.195427,10.104605 13.923619,9.188637 13.979863,8.91974 C 14.08116,8.440019 14.136637,8.157341 14.187214,7.942225 C 14.198949,7.891997 14.241509,7.666177 14.246457,7.646009 C 13.786436,6.235134 12.925184,5.276277 11.935969,5.276277 C 11.889404,5.276277 11.761545,5.276277 11.669374,5.276277 z "
       style="opacity:0.52427183;color:#000000;fill:url(#linearGradient2379);fill-opacity:1;fill-rule:evenodd;stroke:none;stroke-width:1px;stroke-linecap:butt;stroke-linejoin:miter;marker:none;marker-start:none;marker-mid:none;marker-end:none;stroke-miterlimit:4;stroke-dasharray:none;stroke-dashoffset:0;stroke-opacity:1;visibility:visible;display:inline;overflow:visible;enable-background:accumulate"
       sodipodi:nodetypes="ccsccsscsc" />
    <path
       sodipodi:nodetypes="ccccc"
       id="path2420"
       d="M 11.195427,10.09719 L 9.8920747,10.193469 C 9.8751564,12.44948 8.8846431,14.255684 7.6408292,14.547842 C 9.0605666,14.454795 10.339646,13.557923 11.136184,12.17811 C 11.170193,11.104093 11.195427,10.09719 11.195427,10.09719 z "
       style="opacity:0.66504852;fill:url(#linearGradient2422);fill-opacity:1;fill-rule:nonzero;stroke:none;stroke-width:0.1;stroke-linecap:round;stroke-linejoin:round;stroke-miterlimit:4;stroke-dasharray:none;stroke-opacity:1" />
    <path
       style="opacity:0.75;color:#000000;fill:url(#linearGradient3454);fill-opacity:1;fill-rule:evenodd;stroke:none;stroke-width:1px;stroke-linecap:butt;stroke-linejoin:miter;marker:none;marker-start:none;marker-mid:none;marker-end:none;stroke-miterlimit:4;stroke-dasharray:none;stroke-dashoffset:0;stroke-opacity:1;visibility:visible;display:inline;overflow:visible;enable-background:accumulate"
       d="M 29.116527,13.422219 C 29.079577,13.432058 29.057283,13.451841 29.057283,13.451841 L 17.415974,14.577463 C 17.415974,14.577463 17.32716,14.572057 17.238244,14.666328 L 28.168634,13.599949 C 28.168634,13.599949 28.25688,13.550858 28.375985,13.570327 C 28.49509,13.589796 28.644101,13.669562 28.790688,13.866544 C 28.982713,14.124579 29.113999,14.506625 29.205391,14.784815 L 30.153284,14.784815 C 30.069945,14.517678 29.903057,14.019059 29.679338,13.718435 C 29.532747,13.521454 29.383739,13.441688 29.264635,13.422219 C 29.205082,13.412484 29.153476,13.41238 29.116527,13.422219 z "
       id="path3443"
       sodipodi:nodetypes="cccccssccssc" />
    <path
       style="opacity:0.1;color:#000000;fill:url(#linearGradient2465);fill-opacity:1;fill-rule:evenodd;stroke:none;stroke-width:1px;stroke-linecap:butt;stroke-linejoin:miter;marker:none;marker-start:none;marker-mid:none;marker-end:none;stroke-miterlimit:4;stroke-dasharray:none;stroke-dashoffset:0;stroke-opacity:1;visibility:visible;display:inline;overflow:visible;enable-background:accumulate"
       d="M 33.263558,5.927953 L 32.078692,6.076061 L 32.137935,6.964711 L 31.041934,7.675631 L 31.101177,10.074984 L 32.04907,10.519305 L 32.04907,11.111733 L 32.108313,11.141354 C 32.655339,11.11545 33.200372,11.046024 33.352423,10.904383 C 33.683465,10.596003 33.733878,7.964232 33.530153,6.668494 C 33.527858,6.659978 33.532419,6.647211 33.530153,6.638873 C 33.500376,6.455126 33.451393,6.311523 33.411666,6.194548 C 33.37779,6.094803 33.319355,6.010064 33.263558,5.927953 z "
       id="path2415" />
    <path
       style="opacity:0.25;color:#000000;fill:url(#linearGradient2459);fill-opacity:1;fill-rule:evenodd;stroke:none;stroke-width:1px;stroke-linecap:butt;stroke-linejoin:miter;marker:none;marker-start:none;marker-mid:none;marker-end:none;stroke-miterlimit:4;stroke-dasharray:none;stroke-dashoffset:0;stroke-opacity:1;visibility:visible;display:inline;overflow:visible;enable-background:accumulate"
       d="M 30.331014,5.246655 L 24.288197,5.86871 L 26.924524,6.757359 L 32.078692,6.076061 C 32.078692,6.076061 31.989703,5.814967 31.367772,5.542872 C 31.094116,5.423147 30.706103,5.302947 30.360636,5.246655 L 30.331014,5.246655 z "
       id="path2419" />
    <path
       style="opacity:0.25;color:#000000;fill:url(#linearGradient2463);fill-opacity:1;fill-rule:evenodd;stroke:none;stroke-width:1px;stroke-linecap:butt;stroke-linejoin:miter;marker:none;marker-start:none;marker-mid:none;marker-end:none;stroke-miterlimit:4;stroke-dasharray:none;stroke-dashoffset:0;stroke-opacity:1;visibility:visible;display:inline;overflow:visible;enable-background:accumulate"
       d="M 32.078692,6.076061 L 26.924524,6.757359 L 29.649716,7.646009 L 30.716096,11.141354 C 30.716096,11.141354 31.397644,11.171879 32.078692,11.141354 L 32.04907,11.111733 L 32.04907,10.519305 L 31.101177,10.074984 L 31.041934,7.675631 L 32.137935,6.964711 L 32.078692,6.076061 z M 32.878476,11.05249 C 32.740699,11.076085 32.568356,11.09828 32.40453,11.111733 C 32.572272,11.098615 32.739295,11.075976 32.878476,11.05249 z "
       id="path2430" />
    <path
       style="opacity:0.15;color:#000000;fill:url(#linearGradient2461);fill-opacity:1;fill-rule:evenodd;stroke:none;stroke-width:1px;stroke-linecap:butt;stroke-linejoin:miter;marker:none;marker-start:none;marker-mid:none;marker-end:none;stroke-miterlimit:4;stroke-dasharray:none;stroke-dashoffset:0;stroke-opacity:1;visibility:visible;display:inline;overflow:visible;enable-background:accumulate"
       d="M 31.575124,5.128169 L 30.331014,5.246655 C 30.68329,5.301114 31.086675,5.419892 31.367772,5.542872 C 31.989703,5.814967 32.078692,6.076061 32.078692,6.076061 L 33.263558,5.927953 C 32.776086,5.210597 31.575122,5.128169 31.575124,5.128169 z "
       id="path2435" />
    <path
       style="opacity:0.25;color:#000000;fill:url(#linearGradient3360);fill-opacity:1;fill-rule:evenodd;stroke:none;stroke-width:1px;stroke-linecap:butt;stroke-linejoin:miter;marker:none;marker-start:none;marker-mid:none;marker-end:none;stroke-miterlimit:4;stroke-dasharray:none;stroke-dashoffset:0;stroke-opacity:1;visibility:visible;display:inline;overflow:visible;enable-background:accumulate"
       d="M 30.331014,5.246655 L 24.288197,5.86871 L 29.649716,7.646009 L 30.716096,11.141354 C 30.716096,11.141354 31.397644,11.171879 32.078692,11.141354 L 32.04907,11.111733 L 32.04907,10.519305 L 31.101177,10.074984 L 31.041934,7.675631 L 32.137935,6.964711 L 32.078692,6.076061 C 32.078692,6.076061 31.989703,5.814967 31.367772,5.542872 C 31.094116,5.423147 30.706103,5.302947 30.360636,5.246655 L 30.331014,5.246655 z M 32.878476,11.05249 C 32.740699,11.076085 32.568356,11.09828 32.40453,11.111733 C 32.572272,11.098615 32.739295,11.075976 32.878476,11.05249 z "
       id="path2384" />
    <path
       style="opacity:0.5;color:#000000;fill:url(#radialGradient3443);fill-opacity:1;fill-rule:evenodd;stroke:none;stroke-width:1px;stroke-linecap:butt;stroke-linejoin:miter;marker:none;marker-start:none;marker-mid:none;marker-end:none;stroke-miterlimit:4;stroke-dasharray:none;stroke-dashoffset:0;stroke-opacity:1;visibility:visible;display:inline;overflow:visible;enable-background:accumulate"
       d="M 31.812097,5.809466 C 32.024613,5.968266 32.078692,6.076061 32.078692,6.076061 L 32.137935,6.964711 L 31.041934,7.675631 L 31.101177,10.074984 L 32.04907,10.519305 L 32.04907,11.111733 L 32.108313,11.141354 C 32.161419,11.138839 32.203711,11.115094 32.256422,11.111733 L 32.256422,10.548926 L 31.33815,10.104605 L 31.278907,7.764495 L 32.345287,7.053576 L 32.286043,6.194548 C 32.286043,6.194548 32.203547,6.027705 31.812097,5.809466 z "
       id="path3436"
       sodipodi:nodetypes="ccccccccccccccc" />
    <path
       style="opacity:1;color:#000000;fill:#000000;fill-opacity:1;fill-rule:evenodd;stroke:none;stroke-width:1px;stroke-linecap:butt;stroke-linejoin:miter;marker:none;marker-start:none;marker-mid:none;marker-end:none;stroke-miterlimit:4;stroke-dasharray:none;stroke-dashoffset:0;stroke-opacity:1;visibility:visible;display:inline;overflow:visible;enable-background:accumulate"
       d="M 32.40453,12.592813 L 32.789611,14.784815 L 33.796747,14.784815 L 33.796747,12.800164 C 33.732391,12.744102 33.663612,12.724847 33.589396,12.681678 L 32.40453,12.592813 z "
       id="path3450" />
    <path
       style="opacity:0.25;color:#000000;fill:#ffffff;fill-opacity:1;fill-rule:evenodd;stroke:none;stroke-width:1px;stroke-linecap:butt;stroke-linejoin:miter;marker:none;marker-start:none;marker-mid:none;marker-end:none;stroke-miterlimit:4;stroke-dasharray:none;stroke-dashoffset:0;stroke-opacity:1;visibility:visible;display:inline;overflow:visible;enable-background:accumulate"
       d="M 32.40453,12.592813 L 32.463773,12.977894 L 33.678261,12.711299 C 33.653168,12.694342 33.615652,12.69695 33.589396,12.681678 L 32.40453,12.592813 z "
       id="path3457" />
    <path
       style="opacity:0.1;color:#000000;fill:url(#linearGradient3469);fill-opacity:1;fill-rule:evenodd;stroke:none;stroke-width:1px;stroke-linecap:butt;stroke-linejoin:miter;marker:none;marker-start:none;marker-mid:none;marker-end:none;stroke-miterlimit:4;stroke-dasharray:none;stroke-dashoffset:0;stroke-opacity:1;visibility:visible;display:inline;overflow:visible;enable-background:accumulate"
       d="M 33.678261,12.711299 L 32.463773,12.977894 L 32.789611,14.784815 L 33.796747,14.784815 L 33.796747,12.800164 C 33.755159,12.763936 33.724097,12.742274 33.678261,12.711299 z "
       id="path3462" />
    <path
       style="opacity:1;fill:url(#linearGradient4481);fill-opacity:1;fill-rule:nonzero;stroke:none;stroke-width:0.1;stroke-linecap:round;stroke-linejoin:round;stroke-miterlimit:4;stroke-dasharray:none;stroke-opacity:1"
       d="M 6.2189899,5.631736 C 4.8036674,5.631736 3.6715279,7.645998 3.6715279,10.134227 C 3.6715279,12.622445 4.8036674,14.636707 6.2189899,14.636707 C 7.6343124,14.636707 8.7960736,12.622445 8.7960736,10.134227 C 8.7960736,7.645998 7.6343134,5.631736 6.2189899,5.631736 z M 6.1597466,6.135305 C 6.370231,6.135305 6.5586996,6.218728 6.7521797,6.313035 C 6.9159888,6.392879 7.0793961,6.500025 7.2261261,6.638873 C 7.3764704,6.78114 7.5131812,6.946606 7.6408292,7.142441 C 7.899057,7.53861 8.0977543,8.030967 8.2332622,8.593902 C 8.2876912,8.817345 8.3203461,9.036246 8.3517488,9.2752 C 8.3872218,9.555452 8.4109921,9.835278 8.4109921,10.134227 C 8.4109921,10.961101 8.2709836,11.747887 8.0259107,12.385461 C 8.0086704,12.436539 7.9848953,12.48403 7.9666674,12.533569 C 7.9008931,12.68845 7.8369084,12.841482 7.7593158,12.977894 C 7.7402252,13.011456 7.7198285,13.034402 7.7000725,13.066759 C 7.5725041,13.275693 7.4376626,13.446598 7.2853694,13.599949 C 7.1316363,13.754749 6.9553406,13.866718 6.7818013,13.955409 C 6.5803248,14.058376 6.3800379,14.133139 6.1597466,14.133139 C 4.9055176,14.133139 3.8788795,12.339231 3.8788795,10.134227 C 3.8788795,7.929212 4.9055176,6.135305 6.1597466,6.135305 z "
       id="path3489" />
    <path
       id="path4525"
       d="M 7.7593158,8.327307 C 7.192382,8.327307 6.722558,9.137521 6.722558,10.134227 C 6.722558,11.130925 7.1923801,11.941136 7.7593158,11.941136 C 7.913829,11.941136 8.0721479,11.871004 8.2036406,11.763406 C 8.3288449,11.268242 8.4109921,10.71075 8.4109921,10.134227 C 8.4109921,9.546732 8.3333787,9.00756 8.2036406,8.505037 C 8.0727849,8.398706 7.9128602,8.327307 7.7593158,8.327307 z "
       style="opacity:0.25;fill:url(#radialGradient4543);fill-opacity:1;fill-rule:nonzero;stroke:none;stroke-width:0.1;stroke-linecap:round;stroke-linejoin:round;stroke-miterlimit:4;stroke-dasharray:none;stroke-opacity:1" />
    <path
       style="opacity:0.5;fill:url(#radialGradient4547);fill-opacity:1;fill-rule:nonzero;stroke:none;stroke-width:0.1;stroke-linecap:round;stroke-linejoin:round;stroke-miterlimit:4;stroke-dasharray:none;stroke-opacity:1"
       d="M 7.7593158,8.327307 C 7.192382,8.327307 6.722558,9.137521 6.722558,10.134227 C 6.722558,11.130925 7.1923801,11.941136 7.7593158,11.941136 C 7.913829,11.941136 8.0721479,11.871004 8.2036406,11.763406 C 8.3288449,11.268242 8.4109921,10.71075 8.4109921,10.134227 C 8.4109921,9.546732 8.3333787,9.00756 8.2036406,8.505037 C 8.0727849,8.398706 7.9128602,8.327307 7.7593158,8.327307 z "
       id="path4545" />
    <path
       id="path3438"
       d="M 6.2189899,5.631736 C 7.6343124,5.631736 8.7960736,7.645999 8.7960736,10.134227 C 8.7960736,12.622445 7.6343124,14.636707 6.2189899,14.636707 C 6.4090292,14.636707 7.1249518,14.636707 7.314991,14.636707 C 8.7303135,14.636707 9.8920747,12.622445 9.8920747,10.134227 C 9.8920747,7.645999 8.7303135,5.631736 7.314991,5.631736 C 7.1249518,5.631736 6.4090292,5.631736 6.2189899,5.631736 z "
       style="opacity:0.6893204;fill:url(#linearGradient3440);fill-opacity:1;fill-rule:nonzero;stroke:none;stroke-width:0.1;stroke-linecap:round;stroke-linejoin:round;stroke-miterlimit:4;stroke-dasharray:none;stroke-opacity:1" />
    <path
       style="opacity:0.75;fill:url(#linearGradient3453);fill-opacity:1;fill-rule:nonzero;stroke:none;stroke-width:0.1;stroke-linecap:round;stroke-linejoin:round;stroke-miterlimit:4;stroke-dasharray:none;stroke-opacity:1"
       d="M 6.2189899,5.631736 C 6.3335693,5.631736 6.4340542,5.665394 6.5448281,5.69098 C 6.7795882,5.69098 7.0089739,5.69098 7.1076395,5.69098 C 8.4999222,5.69098 9.6551014,7.686504 9.6551015,10.134227 C 9.6551015,12.581939 8.4999224,14.577463 7.1076395,14.577463 C 7.0089738,14.577463 6.7795882,14.577463 6.5448281,14.577463 C 6.4340542,14.603049 6.3335693,14.636707 6.2189899,14.636707 C 6.4090292,14.636707 7.1249518,14.636707 7.314991,14.636707 C 8.7303135,14.636707 9.8920747,12.622445 9.8920747,10.134227 C 9.8920747,7.645999 8.7303135,5.631736 7.314991,5.631736 C 7.1249518,5.631736 6.4090292,5.631736 6.2189899,5.631736 z "
       id="path3442" />
    <path
       style="opacity:0.5;color:#000000;fill:url(#linearGradient3455);fill-opacity:1;fill-rule:evenodd;stroke:none;stroke-width:1px;stroke-linecap:butt;stroke-linejoin:miter;marker:none;marker-start:none;marker-mid:none;marker-end:none;stroke-miterlimit:4;stroke-dasharray:none;stroke-dashoffset:0;stroke-opacity:1;visibility:visible;display:inline;overflow:visible;enable-background:accumulate"
       d="M 29.649716,7.646009 C 29.649716,7.646009 28.975824,8.319902 27.783552,8.830875 C 26.694871,9.297453 25.314428,9.606331 25.05836,9.660281 C 26.748077,9.412012 27.718869,9.522584 28.843861,9.934857 C 29.876286,10.313206 30.479123,10.991799 30.479123,11.674541 C 30.479123,11.716417 30.453544,11.753267 30.449501,11.793028 L 30.775339,11.793028 L 30.716096,11.141354 L 29.649716,7.646009 z "
       id="path2455"
       sodipodi:nodetypes="cscsscccc" />
    <path
       style="opacity:0.25;color:#000000;fill:url(#radialGradient3495);fill-opacity:1;fill-rule:evenodd;stroke:none;stroke-width:1px;stroke-linecap:butt;stroke-linejoin:miter;marker:none;marker-start:none;marker-mid:none;marker-end:none;stroke-miterlimit:4;stroke-dasharray:none;stroke-dashoffset:0;stroke-opacity:1;visibility:visible;display:inline;overflow:visible;enable-background:accumulate"
       d="M 12.913483,5.602115 C 13.444355,5.977029 13.886405,6.652181 14.187214,7.497901 C 14.190293,7.499359 14.276079,7.527522 14.276079,7.527522 C 14.276079,7.527522 14.389103,7.746858 14.542674,8.356929 C 14.647906,8.617181 14.848997,9.284451 15.046242,10.548926 L 24.88063,9.689903 C 24.88063,9.689903 26.59128,9.341849 27.783552,8.830875 C 28.95472,8.328946 29.59671,7.669184 29.620095,7.646009 L 25.532307,6.313035 L 25.41382,6.313035 C 25.413821,6.313034 18.954168,5.662969 14.187214,5.602115 C 13.754382,5.596589 13.330954,5.58693 12.913483,5.602115 z "
       id="path3488" />
    <path
       id="path3499"
       d="M 11.076941,27.196287 L 8.9145602,27.581368 L 9.1515334,28.203423 L 10.247535,28.943964 C 10.247535,28.943964 11.232455,28.936558 11.876725,28.677369 C 12.520996,28.418179 12.67651,27.96645 12.67651,27.96645 C 12.67651,27.96645 11.076941,27.196287 11.076941,27.196287 z "
       style="opacity:0.5;color:#000000;fill:url(#radialGradient3501);fill-opacity:1;fill-rule:evenodd;stroke:none;stroke-width:1px;stroke-linecap:butt;stroke-linejoin:miter;marker:none;marker-start:none;marker-mid:none;marker-end:none;stroke-miterlimit:4;stroke-dasharray:none;stroke-dashoffset:0;stroke-opacity:1;visibility:visible;display:inline;overflow:visible;enable-background:accumulate"
       sodipodi:nodetypes="ccccscc" />
    <path
       style="opacity:0.6;color:#000000;fill:url(#radialGradient3513);fill-opacity:1;fill-rule:evenodd;stroke:none;stroke-width:1px;stroke-linecap:butt;stroke-linejoin:miter;marker:none;marker-start:none;marker-mid:none;marker-end:none;stroke-miterlimit:4;stroke-dasharray:none;stroke-dashoffset:0;stroke-opacity:1;visibility:visible;display:inline;overflow:visible;enable-background:accumulate"
       d="M 14.276079,7.527522 C 14.276079,7.527522 13.106024,12.222542 12.794997,17.332277 L 13.950241,18.754116 L 15.401702,18.754116 C 15.413405,17.357991 15.45405,16.464658 15.105485,12.266974 C 14.752661,8.017998 14.276079,7.527522 14.276079,7.527522 z "
       id="path3503"
       sodipodi:nodetypes="csccsc" />
    <path
       style="opacity:0.75;fill:url(#linearGradient3529);fill-opacity:1;fill-rule:nonzero;stroke:none;stroke-width:0.1;stroke-linecap:round;stroke-linejoin:round;stroke-miterlimit:4;stroke-opacity:1"
       d="M 17.386353,15.318005 C 17.386353,15.318005 16.942028,18.668061 16.942028,22.012498 C 16.942028,22.072904 16.941743,22.129837 16.942028,22.190228 L 17.001271,22.190228 C 17.001142,22.150089 17.001271,22.111885 17.001271,22.071741 C 17.001271,18.754526 17.445596,15.436491 17.445596,15.436491 L 34.448424,15.436491 C 34.448426,15.436491 34.892749,18.754525 34.892749,22.071741 C 34.892749,22.111885 34.892878,22.150089 34.892749,22.190228 L 34.951992,22.190228 C 34.952276,22.129837 34.951992,22.072904 34.951992,22.012498 C 34.951992,18.66806 34.507669,15.318005 34.507667,15.318005 L 17.386353,15.318005 z "
       id="path3515" />
    <path
       style="opacity:0.25;color:#000000;fill:url(#radialGradient3557);fill-opacity:1;fill-rule:evenodd;stroke:none;stroke-width:1px;stroke-linecap:butt;stroke-linejoin:miter;marker:none;marker-start:none;marker-mid:none;marker-end:none;stroke-miterlimit:4;stroke-dasharray:none;stroke-dashoffset:0;stroke-opacity:1;visibility:visible;display:inline;overflow:visible;enable-background:accumulate"
       d="M 16.79392,14.725572 L 16.882784,15.021788 L 15.697918,15.466113 L 15.638675,15.969681 L 16.645811,15.821573 L 16.734676,17.065682 L 17.149379,18.013575 C 17.193404,17.505299 17.229299,16.95128 17.267866,16.562114 C 17.237611,16.822222 17.213174,16.850674 17.179001,17.21379 L 17.030893,17.243412 C 17.030894,17.170116 16.978057,15.829554 17.060514,15.169896 C 17.084121,14.981044 17.131214,14.865294 17.179001,14.784815 L 16.79392,14.725572 z "
       id="path3531" />
    <path
       style="opacity:0.52427183;color:#000000;fill:url(#linearGradient3614);fill-opacity:1;fill-rule:evenodd;stroke:none;stroke-width:1px;stroke-linecap:butt;stroke-linejoin:miter;marker:none;marker-start:none;marker-mid:none;marker-end:none;stroke-miterlimit:4;stroke-dasharray:none;stroke-dashoffset:0;stroke-opacity:1;visibility:visible;display:inline;overflow:visible;enable-background:accumulate"
       d="M 30.538366,11.793028 L 31.124728,14.784815 L 32.789611,14.784815 L 32.463773,12.977894 L 32.40453,12.592813 L 31.960205,11.852271 L 30.775339,11.793028 L 30.538366,11.793028 z "
       id="path3559"
       sodipodi:nodetypes="cccccccc" />
    <path
       style="opacity:0.5;color:#000000;fill:url(#linearGradient3581);fill-opacity:1;fill-rule:evenodd;stroke:none;stroke-width:1px;stroke-linecap:butt;stroke-linejoin:miter;marker:none;marker-start:none;marker-mid:none;marker-end:none;stroke-miterlimit:4;stroke-dasharray:none;stroke-dashoffset:0;stroke-opacity:1;visibility:visible;display:inline;overflow:visible;enable-background:accumulate"
       d="M 15.401702,16.650979 C 15.428932,17.509645 15.407316,18.084354 15.401702,18.754116 L 13.950241,18.754116 L 14.098349,25.211636 L 15.609053,25.270879 C 15.609053,25.270879 15.657291,26.149314 15.520188,27.492503 L 17.238244,27.374017 C 17.178417,26.768808 17.117815,26.045199 17.060514,25.182015 L 14.661161,25.122771 C 14.661161,25.122772 14.401592,23.570023 14.364944,22.012498 C 14.328297,20.454972 14.513052,18.902224 14.513052,18.902224 L 15.609053,18.902224 L 15.401702,16.650979 z "
       id="path3566" />
    <path
       style="opacity:0.75;color:#000000;fill:url(#linearGradient3594);fill-opacity:1;fill-rule:evenodd;stroke:none;stroke-width:1px;stroke-linecap:butt;stroke-linejoin:miter;marker:none;marker-start:none;marker-mid:none;marker-end:none;stroke-miterlimit:4;stroke-dasharray:none;stroke-dashoffset:0;stroke-opacity:1;visibility:visible;display:inline;overflow:visible;enable-background:accumulate"
       d="M 20.555869,28.706991 L 14.898134,30.010344 C 14.694895,30.31413 14.513052,30.365804 14.513052,30.365804 C 14.543755,30.366542 14.720404,30.395425 14.720404,30.395425 L 22.096195,28.706991 L 20.555869,28.706991 z "
       id="path3583"
       sodipodi:nodetypes="cccccc" />
    <path
       style="opacity:1;color:#000000;fill:url(#linearGradient3634);fill-opacity:1;fill-rule:evenodd;stroke:none;stroke-width:1px;stroke-linecap:butt;stroke-linejoin:miter;marker:none;marker-start:none;marker-mid:none;marker-end:none;stroke-miterlimit:4;stroke-dasharray:none;stroke-dashoffset:0;stroke-opacity:1;visibility:visible;display:inline;overflow:visible;enable-background:accumulate"
       d="M 24.288197,5.86871 L 26.924524,6.757359 L 28.079769,6.609251 L 24.288197,5.86871 z "
       id="path3616"
       sodipodi:nodetypes="cccc" />
    <path
       style="opacity:0.25;color:#000000;fill:url(#linearGradient3457);fill-opacity:1;fill-rule:evenodd;stroke:none;stroke-width:1px;stroke-linecap:butt;stroke-linejoin:miter;marker:none;marker-start:none;marker-mid:none;marker-end:none;stroke-miterlimit:4;stroke-dasharray:none;stroke-dashoffset:0;stroke-opacity:1;visibility:visible;display:inline;overflow:visible;enable-background:accumulate"
       d="M 2.901365,24.73769 L 2.901365,24.885798 C 2.901365,24.885798 2.9005786,24.914323 2.901365,24.91542 C 2.9387725,24.967571 3.864125,26.208063 5.3895837,26.396502 C 6.5433418,26.539026 7.2872955,26.294115 7.6112075,26.159529 L 7.6112075,26.011421 C 7.2872955,26.146005 6.5433418,26.390917 5.3895837,26.248394 C 3.8320583,26.055993 2.901365,24.73769 2.901365,24.73769 z "
       id="path2481"
       sodipodi:nodetypes="ccssccsc" />
    <path
       style="opacity:0.25;fill:url(#linearGradient3535);fill-opacity:1;fill-rule:nonzero;stroke:none;stroke-width:0.1;stroke-linecap:round;stroke-linejoin:round;stroke-miterlimit:4;stroke-dasharray:none;stroke-opacity:1"
       d="M 18.571219,18.872603 L 18.571219,27.374017 L 33.293179,27.374017 L 33.293179,26.189151 C 29.837551,26.736845 25.576058,25.486814 21.977709,22.545688 C 20.618154,21.43445 19.472734,20.188836 18.571219,18.872603 z "
       id="rect3528" />
    <rect
       style="opacity:0.61162792;fill:#555753;fill-opacity:1;fill-rule:nonzero;stroke:none;stroke-width:0.69999999;stroke-linecap:round;stroke-linejoin:miter;stroke-miterlimit:4;stroke-dasharray:none;stroke-opacity:1"
       id="rect1951"
       width="40.001965"
       height="10.004759"
       x="-0.0019644466"
       y="30" />
    <text
       xml:space="preserve"
       style="font-size:12px;font-style:normal;font-weight:normal;fill:#eeeeec;fill-opacity:1;stroke:none;stroke-width:1px;stroke-linecap:butt;stroke-linejoin:miter;stroke-opacity:1;font-family:Bitstream Vera Sans"
       x="14.377286"
       y="39.168156"
       id="text2840"><tspan
         sodipodi:role="line"
         id="tspan2842"
         x="14.377286"
         y="39.168156">In</tspan></text>
  </g>
</svg>
