<?xml version="1.0" encoding="UTF-8" standalone="no"?>
<!-- Created with Inkscape (http://www.inkscape.org/) -->
<svg
   xmlns:dc="http://purl.org/dc/elements/1.1/"
   xmlns:cc="http://web.resource.org/cc/"
   xmlns:rdf="http://www.w3.org/1999/02/22-rdf-syntax-ns#"
   xmlns:svg="http://www.w3.org/2000/svg"
   xmlns="http://www.w3.org/2000/svg"
   xmlns:xlink="http://www.w3.org/1999/xlink"
   xmlns:sodipodi="http://sodipodi.sourceforge.net/DTD/sodipodi-0.dtd"
   xmlns:inkscape="http://www.inkscape.org/namespaces/inkscape"
   width="40"
   height="40"
   id="svg2193"
   sodipodi:version="0.32"
   inkscape:version="0.45.1"
   version="1.0"
   sodipodi:docbase="/home/jra/Desktop/send-now"
   sodipodi:docname="50.svg"
   inkscape:output_extension="org.inkscape.output.svg.inkscape">
  <defs
     id="defs2195">
    <linearGradient
       id="linearGradient3509">
      <stop
         style="stop-color:#989898;stop-opacity:1;"
         offset="0"
         id="stop3511" />
      <stop
         style="stop-color:#dedfdd;stop-opacity:1;"
         offset="1"
         id="stop3513" />
    </linearGradient>
    <linearGradient
       inkscape:collect="always"
       id="linearGradient3397">
      <stop
         style="stop-color:#000000;stop-opacity:1;"
         offset="0"
         id="stop3399" />
      <stop
         style="stop-color:#000000;stop-opacity:0;"
         offset="1"
         id="stop3401" />
    </linearGradient>
    <linearGradient
       id="linearGradient3544">
      <stop
         id="stop3546"
         offset="0"
         style="stop-color:#000000;stop-opacity:0;" />
      <stop
         style="stop-color:#ffffff;stop-opacity:0;"
         offset="0.125"
         id="stop3548" />
      <stop
         id="stop3550"
         offset="0.75"
         style="stop-color:#000000;stop-opacity:0.41414142;" />
      <stop
         style="stop-color:#0a0a0a;stop-opacity:0.3131313;"
         offset="1"
         id="stop3552" />
    </linearGradient>
    <linearGradient
       id="linearGradient3514">
      <stop
         id="stop3516"
         offset="0"
         style="stop-color:#000000;stop-opacity:0.72727275;" />
      <stop
         style="stop-color:#ffffff;stop-opacity:0.55555558;"
         offset="0.6875"
         id="stop3518" />
      <stop
         id="stop3520"
         offset="0.8203125"
         style="stop-color:#000000;stop-opacity:0.3131313;" />
      <stop
         style="stop-color:#000000;stop-opacity:0.83838385;"
         offset="1"
         id="stop3522" />
    </linearGradient>
    <linearGradient
       id="linearGradient3492">
      <stop
         style="stop-color:#000000;stop-opacity:0;"
         offset="0"
         id="stop3494" />
      <stop
         style="stop-color:#000000;stop-opacity:0.28282827;"
         offset="0.95537955"
         id="stop3500" />
      <stop
         style="stop-color:#000000;stop-opacity:0;"
         offset="1"
         id="stop3496" />
    </linearGradient>
    <linearGradient
       id="linearGradient3456">
      <stop
         style="stop-color:#000000;stop-opacity:1;"
         offset="0"
         id="stop3458" />
      <stop
         id="stop3466"
         offset="0.125"
         style="stop-color:#ffffff;stop-opacity:1;" />
      <stop
         style="stop-color:#000000;stop-opacity:0.56565654;"
         offset="0.75"
         id="stop3468" />
      <stop
         id="stop3470"
         offset="0.875"
         style="stop-color:#ffffff;stop-opacity:0.5151515;" />
      <stop
         style="stop-color:#000000;stop-opacity:1;"
         offset="1"
         id="stop3460" />
    </linearGradient>
    <linearGradient
       inkscape:collect="always"
       id="linearGradient3239">
      <stop
         style="stop-color:#eeeeec;stop-opacity:1;"
         offset="0"
         id="stop3241" />
      <stop
         style="stop-color:#eeeeec;stop-opacity:0;"
         offset="1"
         id="stop3243" />
    </linearGradient>
    <linearGradient
       id="linearGradient3291">
      <stop
         id="stop3293"
         offset="0"
         style="stop-color:#000000;stop-opacity:1;" />
      <stop
         id="stop3295"
         offset="1"
         style="stop-color:#000000;stop-opacity:0;" />
    </linearGradient>
    <linearGradient
       id="linearGradient2308">
      <stop
         id="stop2310"
         offset="0"
         style="stop-color:#0e0000;stop-opacity:0;" />
      <stop
         style="stop-color:#0e0000;stop-opacity:0;"
         offset="0.5"
         id="stop3480" />
      <stop
         id="stop2312"
         offset="1"
         style="stop-color:#0e0000;stop-opacity:1;" />
    </linearGradient>
    <radialGradient
       inkscape:collect="always"
       xlink:href="#linearGradient3291"
       id="radialGradient2595"
       gradientUnits="userSpaceOnUse"
       gradientTransform="matrix(1,0,0,0.197802,0,92.82166)"
       cx="63.912209"
       cy="115.70919"
       fx="75.857941"
       fy="115.70919"
       r="63.912209" />
    <radialGradient
       inkscape:collect="always"
       xlink:href="#linearGradient2308"
       id="radialGradient3464"
       cx="19.579216"
       cy="1.2115231"
       fx="19.579216"
       fy="1.2115231"
       r="17.031681"
       gradientTransform="matrix(-1.1114769,-1.3356991e-2,2.9396076e-3,-0.2446149,41.467513,21.043076)"
       gradientUnits="userSpaceOnUse" />
    <radialGradient
       inkscape:collect="always"
       xlink:href="#linearGradient3456"
       id="radialGradient3478"
       cx="20.419422"
       cy="17.578127"
       fx="20.419422"
       fy="17.578127"
       r="17.5"
       gradientTransform="matrix(-0.796302,5.2565398e-2,-1.5472832e-2,-0.2343946,36.895402,21.090734)"
       gradientUnits="userSpaceOnUse" />
    <radialGradient
       inkscape:collect="always"
       xlink:href="#linearGradient3492"
       id="radialGradient3490"
       cx="19.775957"
       cy="67.226227"
       fx="19.775957"
       fy="67.226227"
       r="16.515625"
       gradientTransform="matrix(-0.9697319,-1.8314657e-2,7.3514598e-3,-0.3892451,38.503526,43.794136)"
       gradientUnits="userSpaceOnUse" />
    <linearGradient
       inkscape:collect="always"
       xlink:href="#linearGradient3492"
       id="linearGradient3504"
       x1="3.21875"
       y1="28.296875"
       x2="36.25"
       y2="28.296875"
       gradientUnits="userSpaceOnUse"
       gradientTransform="matrix(0.7926894,0,0,0.7926894,4.1771312,4.1098768)" />
    <linearGradient
       inkscape:collect="always"
       xlink:href="#linearGradient3514"
       id="linearGradient3512"
       x1="2.625"
       y1="16.167227"
       x2="36.625"
       y2="16.167227"
       gradientUnits="userSpaceOnUse"
       gradientTransform="matrix(0.7926894,0,0,0.7926894,4.1771312,4.1098768)" />
    <radialGradient
       inkscape:collect="always"
       xlink:href="#linearGradient3514"
       id="radialGradient3534"
       cx="19.703125"
       cy="16.827438"
       fx="19.703125"
       fy="16.827438"
       r="16.546875"
       gradientTransform="matrix(-0.7207523,3.6560133e-2,-8.6421079e-3,-0.1703719,34.142089,19.595383)"
       gradientUnits="userSpaceOnUse" />
    <radialGradient
       inkscape:collect="always"
       xlink:href="#linearGradient3544"
       id="radialGradient3542"
       cx="21.378475"
       cy="12.11699"
       fx="21.378475"
       fy="12.11699"
       r="10.75"
       gradientTransform="matrix(0.7082764,0.4981017,-0.3665219,0.521176,11.203313,-2.8817791)"
       gradientUnits="userSpaceOnUse" />
    <linearGradient
       inkscape:collect="always"
       xlink:href="#linearGradient3291"
       id="linearGradient3366"
       x1="31.962305"
       y1="18.629904"
       x2="30.865049"
       y2="14.5625"
       gradientUnits="userSpaceOnUse"
       gradientTransform="matrix(0.7926894,0,0,0.7926894,4.1771312,4.1098768)" />
    <linearGradient
       inkscape:collect="always"
       xlink:href="#linearGradient3291"
       id="linearGradient3374"
       x1="6.5625"
       y1="14.624666"
       x2="28.991732"
       y2="23.975822"
       gradientUnits="userSpaceOnUse"
       gradientTransform="matrix(0.7926894,0,0,0.7926894,4.1771312,4.1098768)" />
    <linearGradient
       inkscape:collect="always"
       xlink:href="#linearGradient3291"
       id="linearGradient3382"
       x1="9.53125"
       y1="17.75"
       x2="29.15625"
       y2="17.75"
       gradientUnits="userSpaceOnUse"
       gradientTransform="matrix(0.7926894,0,0,0.7926894,4.1771312,4.1098768)" />
    <linearGradient
       inkscape:collect="always"
       xlink:href="#linearGradient2308"
       id="linearGradient3393"
       x1="17.859913"
       y1="19.682596"
       x2="20.626682"
       y2="14.3125"
       gradientUnits="userSpaceOnUse"
       gradientTransform="matrix(0.7926894,0,0,0.7926894,4.1771312,4.1098768)" />
    <linearGradient
       inkscape:collect="always"
       xlink:href="#linearGradient3397"
       id="linearGradient3403"
       x1="15.009063"
       y1="18.313177"
       x2="25.311894"
       y2="18.313177"
       gradientUnits="userSpaceOnUse" />
    <linearGradient
       inkscape:collect="always"
       xlink:href="#linearGradient2308"
       id="linearGradient3411"
       x1="12.53125"
       y1="7.125"
       x2="11.513686"
       y2="3.8125"
       gradientUnits="userSpaceOnUse"
       gradientTransform="matrix(0.7926894,0,0,0.7926894,4.1771312,4.1098768)" />
    <linearGradient
       inkscape:collect="always"
       xlink:href="#linearGradient3514"
       id="linearGradient3419"
       x1="21.96875"
       y1="4.90625"
       x2="21.96875"
       y2="13.551009"
       gradientUnits="userSpaceOnUse"
       gradientTransform="matrix(0.7926894,0,0,0.7926894,4.1771312,4.1098768)" />
    <linearGradient
       inkscape:collect="always"
       xlink:href="#linearGradient3239"
       id="linearGradient3427"
       x1="25.34375"
       y1="17.079247"
       x2="32.587975"
       y2="17.079247"
       gradientUnits="userSpaceOnUse"
       gradientTransform="matrix(0.7926894,0,0,0.7926894,4.1771312,4.1098768)" />
    <linearGradient
       inkscape:collect="always"
       xlink:href="#linearGradient3239"
       id="linearGradient3435"
       x1="26.46875"
       y1="17.28125"
       x2="29.5625"
       y2="17.28125"
       gradientUnits="userSpaceOnUse"
       gradientTransform="matrix(0.7926894,0,0,0.7926894,4.1771312,4.1098768)" />
    <linearGradient
       inkscape:collect="always"
       xlink:href="#linearGradient3514"
       id="linearGradient3443"
       x1="22.369564"
       y1="10.643757"
       x2="7.8692832"
       y2="10.643757"
       gradientUnits="userSpaceOnUse"
       gradientTransform="matrix(0.7926894,0,0,0.7926894,4.1771312,4.1098768)" />
    <linearGradient
       inkscape:collect="always"
       xlink:href="#linearGradient3514"
       id="linearGradient3451"
       x1="16.058212"
       y1="13.413011"
       x2="22.468367"
       y2="13.413011"
       gradientUnits="userSpaceOnUse"
       gradientTransform="matrix(0.7926894,0,0,0.7926894,4.1771312,4.1098768)" />
    <linearGradient
       inkscape:collect="always"
       xlink:href="#linearGradient3514"
       id="linearGradient3459"
       x1="15.150584"
       y1="15.943935"
       x2="11.884241"
       y2="9.4989948"
       gradientUnits="userSpaceOnUse"
       gradientTransform="matrix(0.7926894,0,0,0.7926894,4.1771312,4.1098768)" />
    <linearGradient
       inkscape:collect="always"
       xlink:href="#linearGradient3291"
       id="linearGradient3465"
       x1="21.152653"
       y1="18.176662"
       x2="23.064554"
       y2="12.198477"
       gradientUnits="userSpaceOnUse"
       gradientTransform="matrix(0.7926894,0,0,0.7926894,4.1771312,4.1098768)" />
    <radialGradient
       inkscape:collect="always"
       xlink:href="#linearGradient3456"
       id="radialGradient3473"
       cx="54.654888"
       cy="6.5838761"
       fx="54.654888"
       fy="6.5838761"
       r="1.0235276"
       gradientTransform="matrix(1.0166632,-3.6315509e-3,1.6919204e-3,0.4736585,-0.9218665,3.6532317)"
       gradientUnits="userSpaceOnUse" />
    <linearGradient
       inkscape:collect="always"
       xlink:href="#linearGradient3456"
       id="linearGradient3483"
       x1="18.096079"
       y1="4.6294832"
       x2="16.879789"
       y2="-1.3748243"
       gradientUnits="userSpaceOnUse"
       gradientTransform="matrix(0.7926894,0,0,0.7926894,4.1771312,4.1098768)" />
    <linearGradient
       inkscape:collect="always"
       xlink:href="#linearGradient3514"
       id="linearGradient3491"
       x1="11.980626"
       y1="3.0756733"
       x2="18.506899"
       y2="3.0756733"
       gradientUnits="userSpaceOnUse"
       gradientTransform="matrix(0.7926894,0,0,0.7926894,4.1771312,4.1098768)" />
    <linearGradient
       inkscape:collect="always"
       xlink:href="#linearGradient3514"
       id="linearGradient3499"
       x1="17.35573"
       y1="1.465713"
       x2="25.29747"
       y2="1.465713"
       gradientUnits="userSpaceOnUse"
       gradientTransform="matrix(0.7926894,0,0,0.7926894,4.1771312,4.1098768)" />
    <linearGradient
       inkscape:collect="always"
       xlink:href="#linearGradient3509"
       id="linearGradient3507"
       x1="37.271694"
       y1="28.510576"
       x2="25.624437"
       y2="28.510576"
       gradientUnits="userSpaceOnUse"
       gradientTransform="matrix(0.7926894,0,0,0.7926894,4.1771312,4.1098768)" />
    <linearGradient
       inkscape:collect="always"
       xlink:href="#linearGradient3514"
       id="linearGradient3521"
       x1="18.181873"
       y1="0.53001034"
       x2="19.019646"
       y2="4.808239"
       gradientUnits="userSpaceOnUse"
       gradientTransform="matrix(0.7926894,0,0,0.7926894,4.1771312,4.1098768)" />
  </defs>
  <sodipodi:namedview
     id="base"
     pagecolor="#ffffff"
     bordercolor="#666666"
     borderopacity="1.0"
     inkscape:pageopacity="0.0"
     inkscape:pageshadow="2"
     inkscape:zoom="17.3"
     inkscape:cx="20"
     inkscape:cy="20"
     inkscape:current-layer="layer1"
     showgrid="false"
     inkscape:grid-bbox="false"
     inkscape:document-units="px"
     width="40px"
     height="40px"
     gridempspacing="2"
     inkscape:window-width="1167"
     inkscape:window-height="914"
     inkscape:window-x="52"
     inkscape:window-y="78" />
  <metadata
     id="metadata2198">
    <rdf:RDF>
      <cc:Work
         rdf:about="">
        <dc:format>image/svg+xml</dc:format>
        <dc:type
           rdf:resource="http://purl.org/dc/dcmitype/StillImage" />
        <dc:creator>
          <cc:Agent>
            <dc:title>Jarle Akselsen</dc:title>
          </cc:Agent>
        </dc:creator>
        <cc:license
           rdf:resource="http://creativecommons.org/licenses/GPL/2.0/" />
      </cc:Work>
      <cc:License
         rdf:about="http://creativecommons.org/licenses/GPL/2.0/">
        <cc:permits
           rdf:resource="http://web.resource.org/cc/Reproduction" />
        <cc:permits
           rdf:resource="http://web.resource.org/cc/Distribution" />
        <cc:requires
           rdf:resource="http://web.resource.org/cc/Notice" />
        <cc:permits
           rdf:resource="http://web.resource.org/cc/DerivativeWorks" />
        <cc:requires
           rdf:resource="http://web.resource.org/cc/ShareAlike" />
        <cc:requires
           rdf:resource="http://web.resource.org/cc/SourceCode" />
      </cc:License>
    </rdf:RDF>
  </metadata>
  <g
     id="layer1"
     inkscape:label="Layer 1"
     inkscape:groupmode="layer">
    <path
       transform="matrix(0.2197542,0,0,0.3205138,6.3219584,-6.0188607)"
       d="M 127.82442 115.70919 A 63.912209 12.641975 0 1 1  0,115.70919 A 63.912209 12.641975 0 1 1  127.82442 115.70919 z"
       sodipodi:ry="12.641975"
       sodipodi:rx="63.912209"
       sodipodi:cy="115.70919"
       sodipodi:cx="63.912209"
       id="path2593"
       style="opacity:0.38139535;fill:url(#radialGradient2595);fill-opacity:1;fill-rule:nonzero;stroke:none;stroke-width:0;stroke-linecap:round;stroke-linejoin:round;stroke-miterlimit:4;stroke-dasharray:none;stroke-dashoffset:4;stroke-opacity:1"
       sodipodi:type="arc" />
    <path
       style="opacity:1;fill:#babdb6;fill-opacity:1;fill-rule:nonzero;stroke:none;stroke-width:0.2;stroke-linecap:round;stroke-linejoin:round;stroke-miterlimit:4;stroke-dasharray:none;stroke-opacity:1"
       d="M 19.758431,13.944179 C 12.096584,13.944179 5.8863676,15.769246 5.8863676,18.031484 C 5.8863676,18.354412 5.9951184,18.672448 6.2331692,18.972803 C 6.2266364,19.023925 6.2083976,19.069837 6.2083976,19.121432 C 6.2083976,19.50229 6.4176658,19.861822 6.7533716,20.21138 L 6.951544,20.682039 L 7.1249448,28.286903 C 7.1598395,30.951947 12.802127,33.117353 19.758431,33.117353 C 26.714736,33.117353 32.357025,30.951948 32.391918,28.286903 L 32.466232,20.682039 C 32.466232,20.682039 32.703968,20.349488 32.91212,19.963664 C 33.104414,19.694549 33.20938,19.407157 33.20938,19.121432 C 33.20938,19.096416 33.210922,19.072023 33.20938,19.047118 C 33.488868,18.723088 33.630496,18.382024 33.630496,18.031484 C 33.630496,15.769245 27.420279,13.944179 19.758431,13.944179 z M 31.747858,19.468233 C 31.468863,19.62379 31.156951,19.771753 30.80654,19.914121 C 30.456369,20.056391 30.081979,20.183218 29.66705,20.310466 C 29.257561,20.436046 28.820372,20.548112 28.354156,20.657268 C 28.820523,20.547393 29.25766,20.436918 29.66705,20.310466 C 30.076438,20.184014 30.460333,20.055349 30.80654,19.914121 C 31.152747,19.772894 31.471041,19.622437 31.747858,19.468233 z "
       id="path2327" />
    <path
       style="opacity:0.42233013;fill:url(#radialGradient3478);fill-opacity:1;fill-rule:nonzero;stroke:none;stroke-width:0.2;stroke-linecap:round;stroke-linejoin:round;stroke-miterlimit:4;stroke-dasharray:none;stroke-opacity:1"
       d="M 19.758431,13.944179 C 12.096584,13.944179 5.8863676,15.769246 5.8863676,18.031484 C 5.8863676,20.293723 12.096584,22.143561 19.758431,22.14356 C 27.420279,22.14356 33.630496,20.293724 33.630496,18.031484 C 33.630496,15.769245 27.420279,13.944179 19.758431,13.944179 z M 19.73366,14.018494 C 27.168462,14.018494 33.20938,15.702763 33.20938,17.783768 C 33.209379,19.864775 27.168462,21.549044 19.73366,21.549044 C 12.29886,21.549043 6.2579408,19.864775 6.2579408,17.783768 C 6.2579409,15.702764 12.298859,14.018494 19.73366,14.018494 z "
       id="path3249" />
    <path
       style="opacity:1;fill:#babdb6;fill-opacity:1;fill-rule:evenodd;stroke:none;stroke-width:1px;stroke-linecap:butt;stroke-linejoin:miter;stroke-opacity:1"
       d="M 21.120868,4.5309931 C 20.239525,4.5448722 19.386859,4.7043939 19.386859,4.7043939 L 13.441688,6.5870311 C 13.441688,6.5870311 12.939356,6.8907897 13.144429,7.2063197 C 13.074085,7.3844338 13.119134,7.6078834 13.565546,7.8008367 C 13.805021,7.9043453 14.054715,7.9564321 14.308692,7.999009 L 14.333464,8.0485522 C 14.294514,8.0443295 14.275156,8.0277781 14.234377,8.0237806 C 14.191999,8.0196261 14.152701,8.0040101 14.11052,7.999009 C 13.747207,7.9559335 13.401723,7.8870908 13.070114,7.8008367 C 13.013304,7.7858755 12.975788,7.7667321 12.921486,7.7512937 C 12.608557,7.6640843 12.328852,7.5722061 12.079254,7.4788066 C 11.904593,7.4134486 11.820933,7.3870536 11.682909,7.3301774 C 11.489399,7.2482831 11.333051,7.17805 11.237021,7.132005 C 11.165193,7.0975643 11.06362,7.0576904 11.06362,7.0576904 C 11.06362,7.0576904 11.242506,8.969394 11.806767,10.476163 C 12.552754,12.468207 15.794986,14.11758 15.794986,14.11758 L 20.452034,15.87636 L 28.106441,19.493006 L 28.775274,19.815036 L 29.617506,19.88935 C 29.779929,19.943415 29.946331,19.994939 30.112938,20.037979 C 30.185705,20.056777 30.262666,20.071015 30.33588,20.087522 C 30.864247,19.895976 31.355973,19.686537 31.747858,19.468233 C 31.899286,19.256671 31.970804,19.048043 31.970804,18.824173 C 31.970804,17.374719 28.678105,16.139127 24.068681,15.653416 C 23.484198,14.715727 23.144367,14.103868 21.9631,12.755146 C 20.713724,11.328662 18.606645,9.9372456 17.15742,9.1385 C 16.591179,8.8264134 16.242039,8.5941714 15.8693,8.4201253 L 15.621584,8.0485522 C 16.327897,7.9777967 16.860159,7.8008367 16.86016,7.8008367 C 16.86016,7.8008367 18.2865,7.5965433 19.956604,7.3301774 C 21.626708,7.0638115 23.540572,6.7353726 24.489796,6.5127165 C 24.768194,6.4474139 24.988998,6.2469031 25.059542,5.992514 C 25.077178,5.9289166 25.077138,5.8666469 25.059542,5.7943417 C 25.041946,5.7220366 25.017504,5.636006 24.985228,5.5713979 C 24.920673,5.4421816 24.836598,5.348454 24.836598,5.348454 L 24.737512,5.3236824 C 24.681754,5.27442 24.613655,5.2245963 24.613654,5.2245963 L 22.904416,4.6548508 C 22.904416,4.6548508 22.00221,4.5171138 21.120868,4.5309931 z M 20.253862,5.2493678 C 20.468465,5.2415146 20.70782,5.2443405 20.947466,5.2493678 C 22.179618,5.275215 23.952118,5.4776496 23.92005,5.7200271 C 23.898601,5.8821812 23.314336,6.0096242 22.186042,6.0916002 C 21.112513,6.1695969 20.772323,6.262753 19.684116,6.1906864 C 18.59591,6.1186199 18.321682,5.8191132 18.321682,5.8191132 C 18.321682,5.8191132 18.268959,5.6272546 18.742799,5.4723116 C 19.098175,5.3561042 19.610056,5.272928 20.253862,5.2493678 z M 16.339958,6.6365742 C 16.93586,6.6000906 17.568608,6.6401667 17.925338,6.8347465 C 18.201693,6.9854851 17.202666,7.0447394 16.51336,7.1815481 C 15.569285,7.3689217 14.523525,7.2905516 14.58118,7.132005 C 14.638833,6.9734584 15.063961,6.8261958 15.770212,6.7108888 C 15.946775,6.6820619 16.141324,6.6487356 16.339958,6.6365742 z "
       id="path2430" />
    <path
       style="opacity:0.53398061;fill:#cf4913;fill-opacity:1;fill-rule:evenodd;stroke:none;stroke-width:1px;stroke-linecap:butt;stroke-linejoin:miter;stroke-opacity:1"
       d="M 11.06362,7.0576904 C 11.06362,7.0576904 11.242506,8.9693944 11.806767,10.476163 C 12.552754,12.468207 15.794986,14.11758 15.794986,14.11758 L 20.452034,15.87636 L 28.106441,19.493006 C 27.628344,19.186919 26.872968,18.686026 26.050403,17.95717 C 24.86702,16.908603 23.870507,15.628645 23.870507,15.628645 C 23.870507,15.628645 22.503646,13.323319 20.526348,11.615654 C 18.549053,9.9079898 15.968385,8.7916983 15.968385,8.7916984 C 15.968385,8.7916984 14.997167,8.7254271 14.383008,8.9650992 C 13.768847,9.2047715 13.516003,9.7577884 13.516002,9.7577886 C 13.516002,9.7577886 13.035609,9.4865266 12.376512,8.6926122 C 11.951765,8.180985 11.538459,7.5904147 11.237021,7.132005 C 11.165193,7.0975646 11.06362,7.0576904 11.06362,7.0576904 z M 12.079254,7.4788066 C 12.372314,7.590495 12.692291,7.701339 13.070114,7.8008367 C 12.705975,7.70507 12.371014,7.5874896 12.079254,7.4788066 z "
       id="path3556" />
    <path
       sodipodi:nodetypes="ccc"
       id="path2276"
       d="M 10.956528,1.0198748 L 10.956528,-1.7748336 L 10.956528,1.0198748 z "
       style="fill:#ffffff;fill-opacity:0.75688076;fill-rule:nonzero;stroke:none;stroke-width:0.5;stroke-linecap:round;stroke-linejoin:round;stroke-miterlimit:4;stroke-dasharray:none;stroke-dashoffset:4;stroke-opacity:1" />
    <path
       style="opacity:1;fill:#b1cef8;fill-opacity:1;fill-rule:nonzero;stroke:none;stroke-width:0.2;stroke-linecap:round;stroke-linejoin:round;stroke-miterlimit:4;stroke-dasharray:none;stroke-opacity:1"
       d="M 32.91212,19.963664 C 31.618382,21.773841 26.194877,23.134422 19.70889,23.134422 C 13.511536,23.134422 8.3100444,21.87619 6.7286,20.186608 L 6.951544,20.682039 L 7.1249448,28.286903 C 7.1598395,30.951947 12.802127,33.117353 19.758431,33.117353 C 26.714736,33.117353 32.357025,30.951948 32.391918,28.286903 L 32.466232,20.682039 C 32.466232,20.682039 32.703968,20.349488 32.91212,19.963664 z "
       id="path3232"
       sodipodi:nodetypes="cscccsccc" />
    <path
       style="opacity:1;fill:url(#radialGradient3464);fill-opacity:1;fill-rule:nonzero;stroke:none;stroke-width:0.2;stroke-linecap:round;stroke-linejoin:round;stroke-miterlimit:4;stroke-dasharray:none;stroke-opacity:1"
       d="M 6.2331692,18.972803 C 6.2266364,19.023925 6.2083976,19.069837 6.2083976,19.121432 C 6.2083976,21.331124 12.25968,23.134422 19.70889,23.134422 C 27.158096,23.134422 33.209381,21.331124 33.20938,19.121432 C 33.20938,19.096416 33.210922,19.072023 33.20938,19.047118 C 31.69913,20.827675 26.254899,22.14356 19.758431,22.14356 C 13.166616,22.143561 7.6473449,20.793026 6.2331692,18.972803 z "
       id="path3242" />
    <path
       style="opacity:0.74757284;fill:url(#radialGradient3534);fill-opacity:1;fill-rule:nonzero;stroke:none;stroke-width:0.2;stroke-linecap:round;stroke-linejoin:round;stroke-miterlimit:4;stroke-dasharray:none;stroke-opacity:1"
       d="M 18.296912,15.232299 C 16.830242,15.274567 15.438697,15.374984 14.160062,15.529558 C 13.743479,15.580103 13.335877,15.64194 12.946257,15.70296 C 9.6908299,16.210403 7.4105371,17.063386 7.0010872,18.056255 C 6.8647716,18.252226 6.7482734,18.463676 6.6790571,18.700316 C 6.9283017,18.972425 7.2715658,19.220815 7.7194619,19.468233 C 7.7489721,19.484568 7.7882214,19.501576 7.818548,19.517776 C 7.6477361,19.293994 7.5460611,19.061662 7.5460611,18.824173 C 7.5460611,16.994666 12.784025,15.522294 19.312544,15.455244 L 18.718026,15.232299 C 18.578107,15.235184 18.435391,15.228309 18.296912,15.232299 z M 23.89528,15.4057 C 23.949399,15.493175 24.010819,15.560586 24.068681,15.653416 C 24.213023,15.668626 24.372893,15.686289 24.514568,15.70296 C 24.928153,15.751952 25.339469,15.815516 25.728372,15.87636 C 26.24902,15.95808 26.744971,16.047508 27.214667,16.148847 C 27.222277,16.150484 27.231843,16.147205 27.239438,16.148847 C 27.265358,16.154468 27.287999,16.16794 27.313752,16.173618 C 27.763129,16.272694 28.207004,16.380276 28.601872,16.495648 C 28.800649,16.553727 28.987889,16.607186 29.171618,16.66905 C 29.365403,16.734393 29.565325,16.79793 29.741364,16.867222 C 30.013698,16.974569 30.257639,17.098029 30.48451,17.214023 C 30.546342,17.245692 30.624421,17.280845 30.682683,17.31311 C 30.793672,17.375047 30.907209,17.447272 31.004713,17.511282 C 31.019906,17.521297 31.039401,17.525989 31.054254,17.536053 C 31.116637,17.578223 31.171288,17.616912 31.227656,17.65991 C 31.277845,17.698211 31.330996,17.744839 31.376285,17.783768 C 31.389342,17.795002 31.413186,17.797256 31.425828,17.80854 C 31.50451,17.878842 31.586487,17.959304 31.648774,18.031484 C 31.674688,18.062205 31.700203,18.099536 31.723088,18.13057 C 31.762636,18.183268 31.791588,18.250405 31.822172,18.30397 C 31.851922,18.358521 31.876222,18.42201 31.896488,18.477372 C 31.938457,18.591438 31.970804,18.70703 31.970804,18.824173 C 31.970804,19.048043 31.899286,19.256671 31.747858,19.468233 C 31.878532,19.395441 32.030225,19.320674 32.144202,19.24529 C 32.473268,19.028064 32.731741,18.811172 32.91212,18.576458 C 32.79759,18.255379 32.601698,17.965752 32.367148,17.734225 C 31.834895,17.093566 30.518457,16.535797 28.676186,16.099304 C 28.183457,15.98256 27.653762,15.873633 27.09081,15.777274 C 26.250225,15.633394 25.335537,15.522119 24.365938,15.430472 C 24.212994,15.416017 24.049804,15.41863 23.89528,15.4057 z M 7.9176343,19.56732 C 8.1728553,19.698997 8.1754824,19.700382 7.9176343,19.56732 z "
       id="path3254" />
    <path
       style="opacity:1;fill:#eb7331;fill-opacity:1;fill-rule:nonzero;stroke:none;stroke-width:0.2;stroke-linecap:round;stroke-linejoin:round;stroke-miterlimit:4;stroke-dasharray:none;stroke-opacity:1"
       d="M 19.312544,15.455244 C 12.784025,15.522294 7.5460611,16.994666 7.5460611,18.824173 C 7.5460611,19.061662 7.647736,19.293994 7.818548,19.517776 C 10.069809,20.720381 14.55026,21.549044 19.73366,21.549044 C 24.054533,21.549044 27.852822,20.973917 30.31111,20.087522 C 30.245017,20.073124 30.178001,20.054787 30.112938,20.037979 C 29.946331,19.994939 29.779929,19.943415 29.617506,19.88935 L 28.775274,19.815036 L 28.106441,19.493006 L 20.452034,15.87636 L 19.312544,15.455244 z M 25.728372,15.87636 C 26.251112,15.958141 26.742933,16.047396 27.214667,16.148847 C 26.744971,16.047508 26.24902,15.95808 25.728372,15.87636 z M 27.313752,16.173618 C 27.762629,16.272274 28.207101,16.380812 28.601872,16.495648 C 28.207004,16.380276 27.763129,16.272694 27.313752,16.173618 z M 29.741364,16.867222 C 30.016801,16.975636 30.255601,17.096785 30.48451,17.214023 C 30.257639,17.098029 30.013698,16.974569 29.741364,16.867222 z "
       id="path3269" />
    <path
       style="opacity:0.39320391;fill:url(#linearGradient3366);fill-opacity:1;fill-rule:evenodd;stroke:none;stroke-width:1px;stroke-linecap:butt;stroke-linejoin:miter;stroke-opacity:1"
       d="M 24.068681,15.653416 C 24.24735,15.880734 24.437926,16.117877 24.638424,16.34702 C 25.582135,17.425544 26.694463,18.378285 26.694463,18.378285 C 26.694463,18.378285 28.315396,19.573614 30.112938,20.037979 C 30.185705,20.056777 30.262666,20.071015 30.33588,20.087522 C 30.864247,19.895976 31.355973,19.686537 31.747858,19.468233 C 31.899286,19.256671 31.970804,19.048043 31.970804,18.824173 C 31.970804,17.374719 28.678105,16.139127 24.068681,15.653416 z "
       id="path3286" />
    <path
       id="path3301"
       d="M 11.237021,7.132005 C 11.538459,7.5904147 11.951765,8.180985 12.376512,8.6926122 C 13.035609,9.4865266 13.516002,9.7577886 13.516002,9.7577886 C 13.516003,9.7577884 13.768847,9.2047715 14.383008,8.9650992 C 14.997167,8.7254271 15.968385,8.7916984 15.968385,8.7916984 C 15.968385,8.7916983 18.549053,9.9079898 20.526348,11.615654 C 22.503646,13.323319 23.870507,15.628645 23.870507,15.628645 C 23.870507,15.628645 24.86702,16.908603 26.050403,17.95717 C 26.872968,18.686026 27.628344,19.186919 28.106441,19.493006 L 28.775274,19.815036 L 29.617506,19.88935 C 28.027534,19.360098 26.694463,18.378285 26.694463,18.378285 C 26.694463,18.378285 25.582135,17.425544 24.638424,16.34702 C 24.437926,16.117877 24.24735,15.880734 24.068681,15.653416 C 23.484198,14.715727 23.136256,14.105675 21.954989,12.756954 C 20.705616,11.330471 18.606645,9.9284699 17.15742,9.129724 C 15.975699,8.4784141 15.762289,8.1735759 14.234377,8.0237806 C 12.88401,7.8913917 11.621143,7.3161865 11.237021,7.132005 z "
       style="opacity:0.39320391;fill:#888a85;fill-opacity:1;fill-rule:evenodd;stroke:none;stroke-width:1px;stroke-linecap:butt;stroke-linejoin:miter;stroke-opacity:1"
       sodipodi:nodetypes="cscscscsccccscsssc" />
    <path
       id="path3311"
       d="M 11.06362,7.0576904 C 11.06362,7.0576904 11.242506,8.9693944 11.806767,10.476163 C 12.552754,12.468207 15.794986,14.11758 15.794986,14.11758 L 20.452034,15.87636 L 28.106441,19.493006 C 27.628344,19.186919 26.872968,18.686026 26.050403,17.95717 C 24.86702,16.908603 23.870507,15.628645 23.870507,15.628645 C 23.870507,15.628645 22.503646,13.323319 20.526348,11.615654 C 18.549053,9.9079898 15.968385,8.7916983 15.968385,8.7916984 C 15.968385,8.7916984 14.997167,8.7254271 14.383008,8.9650992 C 13.768847,9.2047715 13.516003,9.7577884 13.516002,9.7577886 C 13.516002,9.7577886 13.035609,9.4865266 12.376512,8.6926122 C 11.951765,8.180985 11.538459,7.5904147 11.237021,7.132005 C 11.165193,7.0975646 11.06362,7.0576904 11.06362,7.0576904 z M 12.079254,7.4788066 C 12.372314,7.590495 12.692291,7.701339 13.070114,7.8008367 C 12.705975,7.70507 12.371014,7.5874896 12.079254,7.4788066 z "
       style="opacity:0.96601939;fill:url(#radialGradient3542);fill-opacity:1;fill-rule:evenodd;stroke:none;stroke-width:1px;stroke-linecap:butt;stroke-linejoin:miter;stroke-opacity:1" />
    <path
       transform="matrix(0.686929,0.5141482,-0.5141482,0.686929,-18.490078,-23.170457)"
       d="M 55.725394 6.5647645 A 1.0235276 0.45490116 0 1 1  53.678339,6.5647645 A 1.0235276 0.45490116 0 1 1  55.725394 6.5647645 z"
       sodipodi:ry="0.45490116"
       sodipodi:rx="1.0235276"
       sodipodi:cy="6.5647645"
       sodipodi:cx="54.701866"
       id="path2281"
       style="opacity:0.81553399;fill:url(#radialGradient3473);fill-opacity:1;fill-rule:nonzero;stroke:none;stroke-width:0.2;stroke-linecap:round;stroke-linejoin:round;stroke-miterlimit:4;stroke-dasharray:none;stroke-opacity:1"
       sodipodi:type="arc" />
    <path
       transform="matrix(0.4679582,0.3502545,-0.3502545,0.4679582,-7.5879074,-12.767677)"
       d="M 55.725394 6.5647645 A 1.0235276 0.45490116 0 1 1  53.678339,6.5647645 A 1.0235276 0.45490116 0 1 1  55.725394 6.5647645 z"
       sodipodi:ry="0.45490116"
       sodipodi:rx="1.0235276"
       sodipodi:cy="6.5647645"
       sodipodi:cx="54.701866"
       id="path2279"
       style="opacity:1;fill:#000000;fill-opacity:1;fill-rule:nonzero;stroke:none;stroke-width:0.2;stroke-linecap:round;stroke-linejoin:round;stroke-miterlimit:4;stroke-dasharray:none;stroke-opacity:1"
       sodipodi:type="arc" />
    <path
       id="path3278"
       d="M 21.120868,4.5309931 C 20.239525,4.5448725 19.386859,4.704394 19.386859,4.7043939 L 13.441688,6.5870311 C 13.441688,6.5870311 12.939356,6.8907898 13.144429,7.2063197 C 13.074085,7.3844339 13.119134,7.6078833 13.565546,7.8008367 C 14.987199,8.415322 16.860159,7.8008365 16.86016,7.8008367 C 16.86016,7.8008367 22.591349,6.9580284 24.489796,6.5127165 C 24.768194,6.4474138 24.988998,6.2469034 25.059542,5.992514 C 25.130085,5.7381247 24.836598,5.348454 24.836598,5.348454 L 24.737512,5.3236824 C 24.681754,5.2744202 24.613655,5.2245963 24.613654,5.2245963 L 22.904416,4.6548508 C 22.904416,4.6548508 22.00221,4.5171135 21.120868,4.5309931 z M 20.253862,5.2493678 C 20.468465,5.2415142 20.70782,5.2443405 20.947466,5.2493678 C 22.179618,5.2752151 23.952118,5.4776496 23.92005,5.7200271 C 23.898601,5.8821813 23.314336,6.0096244 22.186042,6.0916002 C 21.112513,6.1695972 20.772323,6.262753 19.684116,6.1906864 C 18.59591,6.1186198 18.321682,5.8191132 18.321682,5.8191132 C 18.321682,5.8191133 18.268959,5.627255 18.742799,5.4723116 C 19.098175,5.3561041 19.610056,5.2729281 20.253862,5.2493678 z M 16.339958,6.6365742 C 16.93586,6.6000905 17.568608,6.6401666 17.925338,6.8347465 C 18.201693,6.9854854 17.202666,7.0447393 16.51336,7.1815481 C 15.569285,7.3689213 14.523525,7.2905516 14.58118,7.132005 C 14.638833,6.9734583 15.063961,6.8261954 15.770212,6.7108888 C 15.946775,6.6820622 16.141324,6.6487354 16.339958,6.6365742 z "
       style="opacity:0.27184466;fill:url(#linearGradient3521);fill-opacity:1;fill-rule:evenodd;stroke:none;stroke-width:1px;stroke-linecap:butt;stroke-linejoin:miter;stroke-opacity:1" />
    <path
       sodipodi:nodetypes="csscscscsscc"
       style="opacity:0.27184466;fill:url(#linearGradient3483);fill-opacity:1;fill-rule:evenodd;stroke:none;stroke-width:1px;stroke-linecap:butt;stroke-linejoin:miter;stroke-opacity:1"
       d="M 24.737512,5.3236824 C 24.817804,5.3946201 24.877554,5.4816916 24.836598,5.6209409 C 24.767201,5.856891 24.322372,6.1718895 24.266854,6.1163718 C 24.155818,6.0053365 16.785846,7.4788066 16.785846,7.4788066 C 16.785846,7.4788065 14.939344,8.0487512 13.540775,7.4788066 C 13.321834,7.3895843 13.20481,7.2992211 13.144429,7.2063197 C 13.074085,7.3844339 13.119134,7.6078833 13.565546,7.8008367 C 14.987199,8.415322 16.860159,7.8008365 16.86016,7.8008367 C 16.86016,7.8008367 22.591349,6.9580284 24.489796,6.5127165 C 24.768194,6.4474138 24.988998,6.2469034 25.059542,5.992514 C 25.130085,5.7381247 24.836598,5.348454 24.836598,5.348454 L 24.737512,5.3236824 z "
       id="path3280" />
    <path
       style="opacity:1;fill:url(#linearGradient3512);fill-opacity:1;fill-rule:nonzero;stroke:none;stroke-width:0.2;stroke-linecap:round;stroke-linejoin:round;stroke-miterlimit:4;stroke-dasharray:none;stroke-opacity:1"
       d="M 23.077818,14.142352 C 23.391874,14.575224 23.637861,14.964884 23.89528,15.38093 C 27.841726,15.711075 30.940783,16.495466 32.119432,17.48651 C 32.218494,17.569805 32.295718,17.648248 32.367148,17.734225 C 32.601698,17.965752 32.79759,18.255379 32.91212,18.576458 C 33.105863,18.324358 33.20938,18.053184 33.20938,17.783768 C 33.20938,16.026599 28.89432,14.558647 23.077818,14.142352 z M 15.968385,14.191894 C 10.370259,14.648479 6.2579409,16.070066 6.2579408,17.783768 C 6.2579408,18.098029 6.4147601,18.411773 6.6790571,18.700316 C 6.7482734,18.463676 6.8647716,18.252226 7.0010872,18.056255 C 7.0425752,17.955651 7.1204735,17.856605 7.1992595,17.758998 C 8.3051649,16.388888 12.989061,15.348232 18.742799,15.232299 L 15.968385,14.191894 z "
       id="path2473" />
    <path
       style="opacity:0.28640777;fill:url(#linearGradient3443);fill-opacity:1;fill-rule:evenodd;stroke:none;stroke-width:1px;stroke-linecap:butt;stroke-linejoin:miter;stroke-opacity:1"
       d="M 12.549912,9.1137284 C 12.549912,9.1137284 12.746093,10.471882 13.441688,11.590883 C 14.137283,12.709882 15.324325,13.597378 15.324325,13.597378 C 15.324325,13.597378 14.342533,12.557445 13.714174,11.640426 C 13.085818,10.723407 12.812536,9.9159122 12.871942,9.6091594 C 12.897533,9.4770196 13.02537,9.4818212 13.193972,9.5348448 C 13.087416,9.4469333 12.94432,9.3107275 12.797628,9.1632716 C 12.713254,9.1484819 12.549912,9.1137284 12.549912,9.1137284 z M 13.738947,9.4357586 C 13.607891,9.5879678 13.558402,9.672602 13.540775,9.7082456 C 14.247475,10.108374 15.391008,11.006675 16.315188,11.516569 C 16.691068,11.723951 16.827762,11.8464 18.569398,12.408344 C 19.025139,12.555389 19.052292,12.00074 19.436401,12.135856 C 20.582478,12.539006 22.243424,14.506488 24.019138,15.975446 C 24.232636,16.152063 19.799604,11.558622 19.337316,11.54134 C 18.875024,11.524058 18.594169,12.086313 18.594168,12.086313 C 18.594168,12.086313 17.33192,11.491771 15.819756,10.748651 C 15.063674,10.37709 14.692845,9.8771703 14.060977,9.5596162 C 13.963068,9.5104111 13.844365,9.4758053 13.738947,9.4357586 z "
       id="path3477" />
    <path
       sodipodi:nodetypes="cscssscsc"
       id="path3481"
       d="M 15.274783,11.640426 C 15.050895,11.648053 14.868036,11.694899 14.75458,11.789056 C 14.507973,11.993712 14.875773,12.684654 15.244241,13.115762 C 15.120383,12.859965 14.88686,12.322315 15.051838,12.1854 C 15.50566,11.808775 16.683824,12.102172 18.052662,12.908962 C 18.369795,13.095881 22.073633,15.380245 22.314958,15.572581 C 22.556281,15.764919 21.910091,15.057677 22.064409,15.240901 C 21.859165,14.789524 18.961962,13.218611 18.073966,12.695227 C 17.047337,12.090135 15.946447,11.617545 15.274783,11.640426 z "
       style="opacity:0.48543689;fill:url(#linearGradient3459);fill-opacity:1;fill-rule:nonzero;stroke:none;stroke-width:0.2;stroke-linecap:round;stroke-linejoin:round;stroke-miterlimit:4;stroke-dasharray:none;stroke-opacity:1" />
    <path
       sodipodi:nodetypes="ccscss"
       id="path2311"
       d="M 17.28578,13.252366 C 16.54056,13.111198 16.953683,14.131886 17.99608,14.818719 C 17.499601,14.329954 16.845013,13.578874 17.376938,13.581925 C 18.745756,13.589782 20.884054,15.541668 21.987567,16.245312 C 21.818137,16.08832 19.841613,14.437129 19.583952,14.272836 C 18.618378,13.657149 17.763429,13.342846 17.28578,13.252366 z "
       style="opacity:0.28640777;fill:url(#linearGradient3451);fill-opacity:1;fill-rule:nonzero;stroke:none;stroke-width:0.2;stroke-linecap:round;stroke-linejoin:round;stroke-miterlimit:4;stroke-dasharray:none;stroke-opacity:1" />
    <path
       style="opacity:0.5385437;fill:url(#linearGradient3435);fill-opacity:1;fill-rule:nonzero;stroke:none;stroke-width:0.2;stroke-linecap:round;stroke-linejoin:round;stroke-miterlimit:4;stroke-dasharray:none;stroke-opacity:1"
       d="M 25.158629,16.891992 C 25.2951,17.034688 25.424588,17.158997 25.554974,17.288338 C 26.537053,17.52759 27.14035,17.852241 27.14035,18.204885 C 27.14035,18.323851 27.045845,18.441807 26.917408,18.551686 C 26.99615,18.604921 27.120589,18.649979 27.239438,18.725088 C 27.47205,18.555966 27.611012,18.368971 27.611012,18.180113 C 27.611012,17.662319 26.637974,17.192088 25.158629,16.891992 z "
       id="path2317" />
    <path
       id="path2338"
       d="M 24.266854,15.901132 C 24.369164,16.028194 24.480175,16.146454 24.588884,16.272705 C 27.658475,16.738993 29.766134,17.63248 29.766134,18.675544 C 29.766134,18.695511 29.70831,19.25649 29.632728,19.324284 C 29.718688,19.358071 29.683517,19.465249 29.783875,19.326543 C 30.104405,18.883538 29.98908,18.426014 29.98908,18.229656 C 29.98908,17.192775 27.642967,16.310546 24.266854,15.901132 z "
       style="opacity:0.5385437;fill:url(#linearGradient3427);fill-opacity:1;fill-rule:nonzero;stroke:none;stroke-width:0.2;stroke-linecap:round;stroke-linejoin:round;stroke-miterlimit:4;stroke-dasharray:none;stroke-opacity:1"
       sodipodi:nodetypes="ccscssc" />
    <path
       style="opacity:0.14077669;fill:url(#linearGradient3374);fill-opacity:1;fill-rule:nonzero;stroke:none;stroke-width:0.2;stroke-linecap:round;stroke-linejoin:round;stroke-miterlimit:4;stroke-dasharray:none;stroke-opacity:1"
       d="M 19.758431,15.70296 C 14.024006,15.70296 9.3791552,17.079093 9.3791552,18.774631 C 9.3791545,18.989722 9.4567786,19.191241 9.6020991,19.393918 C 11.517389,20.48311 15.323815,21.251784 19.73366,21.251784 C 23.542068,21.251785 26.892744,20.692549 28.973446,19.839806 L 28.775274,19.815036 L 28.651416,19.740721 C 26.605295,20.434236 23.496338,20.904983 19.981376,20.904983 C 15.67979,20.904983 11.965801,20.238931 10.09753,19.270061 C 9.9557766,19.089771 9.8745862,18.891647 9.8745862,18.700316 C 9.8745862,17.192082 14.412499,15.975446 20.006146,15.975446 C 20.244124,15.975446 20.465831,15.99587 20.69975,16.000217 L 20.452034,15.87636 L 20.006146,15.70296 C 19.921932,15.702364 19.843127,15.70296 19.758431,15.70296 z "
       id="path2362" />
    <path
       style="opacity:0.12621358;fill:url(#linearGradient3382);fill-opacity:1;fill-rule:nonzero;stroke:none;stroke-width:0.2;stroke-linecap:round;stroke-linejoin:round;stroke-miterlimit:4;stroke-dasharray:none;stroke-opacity:1"
       d="M 20.080461,16.37179 C 15.479972,16.37179 11.732452,17.276221 11.732452,18.378285 C 11.732451,18.518091 11.81404,18.667664 11.930624,18.799402 C 13.46718,19.507354 16.517856,19.988436 20.05569,19.988436 C 23.011005,19.988435 25.611703,19.648389 27.288982,19.121432 L 26.892637,18.92326 C 25.353878,19.410539 22.900511,19.740721 20.105234,19.740721 C 16.848877,19.740721 14.03853,19.303282 12.624227,18.675544 C 12.516918,18.558733 12.450827,18.452707 12.450827,18.328743 C 12.450827,17.351547 15.895541,16.545192 20.130004,16.545192 C 20.775865,16.545192 21.388176,16.559471 21.98787,16.594735 L 21.591526,16.421334 C 21.101702,16.399582 20.596377,16.37179 20.080461,16.37179 z "
       id="path2367"
       sodipodi:nodetypes="cscsccscssccc" />
    <path
       style="opacity:0.6359223;fill:url(#linearGradient3411);fill-opacity:1;fill-rule:evenodd;stroke:none;stroke-width:1px;stroke-linecap:butt;stroke-linejoin:miter;stroke-opacity:1"
       d="M 11.237021,7.132005 C 11.538459,7.5904147 11.951765,8.180985 12.376512,8.6926122 C 13.035609,9.4865266 13.516002,9.7577886 13.516002,9.7577886 C 13.516002,9.7577886 13.557433,9.6990636 13.565546,9.683474 C 13.574927,9.6253644 13.578754,9.5678915 13.590317,9.5100732 C 13.734542,8.7889504 13.992147,8.2325492 14.11052,7.999009 C 12.808605,7.8446491 11.609088,7.3104064 11.237021,7.132005 z "
       id="path2393" />
    <path
       style="fill:#555753;fill-opacity:1;fill-rule:evenodd;stroke:none;stroke-width:1px;stroke-linecap:butt;stroke-linejoin:miter;stroke-opacity:1"
       d="M 14.308692,7.999009 L 14.333464,8.0485522 C 15.054603,8.1267295 15.484908,8.2406389 15.8693,8.4201253 L 15.621584,8.0485522 C 15.219833,8.0887979 14.763271,8.0752144 14.308692,7.999009 z "
       id="path3369"
       sodipodi:nodetypes="ccccc" />
    <path
       style="opacity:0.57281554;fill:url(#linearGradient3419);fill-opacity:1;fill-rule:evenodd;stroke:none;stroke-width:1px;stroke-linecap:butt;stroke-linejoin:miter;stroke-opacity:1"
       d="M 14.11052,7.999009 C 13.992147,8.2325492 13.734542,8.7889504 13.590317,9.5100732 C 13.578754,9.5678915 13.574927,9.6253644 13.565546,9.683474 C 13.62234,9.5743462 13.845616,9.1748125 14.383008,8.9650992 C 14.997167,8.7254271 15.968385,8.7916984 15.968385,8.7916984 C 15.968385,8.7916983 18.549053,9.9079898 20.526348,11.615654 C 22.503646,13.323319 23.870507,15.628645 23.870507,15.628645 C 23.870507,15.628645 24.86702,16.908603 26.050403,17.95717 C 26.872968,18.686026 27.628344,19.186919 28.106441,19.493006 L 28.775274,19.815036 L 29.617506,19.88935 C 28.027534,19.360098 26.694463,18.378285 26.694463,18.378285 C 26.694463,18.378285 25.582135,17.425544 24.638424,16.34702 C 24.437926,16.117877 24.24735,15.880734 24.068681,15.653416 C 23.484198,14.715727 23.144367,14.103868 21.9631,12.755146 C 20.713724,11.328663 18.606645,9.937246 17.15742,9.1385 C 15.975699,8.4871901 15.762289,8.1735759 14.234377,8.0237806 C 14.191999,8.0196259 14.152701,8.0040102 14.11052,7.999009 z "
       id="path3371" />
    <path
       sodipodi:nodetypes="csscsssscsssc"
       id="path3389"
       d="M 17.062675,5.840991 C 16.615402,5.8413114 16.365404,5.890977 15.770212,6.0668287 C 14.993391,6.2963443 14.333913,6.3487204 13.93712,6.6613457 C 13.540325,6.973971 13.581433,7.1591209 14.135292,7.2558627 C 14.138067,7.1838632 14.073334,7.0935922 14.213223,6.9833758 C 14.547153,6.7202785 15.609522,6.521035 16.27884,6.3917526 C 16.802412,6.2906221 16.88728,6.2707886 17.359209,6.3611934 C 17.961487,6.4765689 18.010823,6.4817617 18.156239,6.7094419 C 18.231023,6.8265306 18.080796,6.9450087 18.062217,7.0045301 C 18.18729,6.9747548 18.702239,6.8352351 18.718026,6.809975 C 18.826175,6.6369368 18.954664,6.632458 18.69615,6.3619169 C 18.437632,6.0913758 18.393054,6.0047625 17.677622,5.8664861 C 17.501711,5.8324864 17.211766,5.8408843 17.062675,5.840991 z "
       style="opacity:0.79126216;fill:url(#linearGradient3491);fill-opacity:1;fill-rule:evenodd;stroke:none;stroke-width:1px;stroke-linecap:butt;stroke-linejoin:miter;stroke-opacity:1" />
    <path
       style="opacity:0.70388351;fill:url(#linearGradient3499);fill-opacity:1;fill-rule:evenodd;stroke:none;stroke-width:1px;stroke-linecap:butt;stroke-linejoin:miter;stroke-opacity:1"
       d="M 20.43016,4.7940752 C 19.621891,4.847251 18.729332,4.9557264 18.332537,5.2683518 C 17.935744,5.5809771 17.712323,5.6939827 18.266182,5.7907245 C 18.268957,5.718725 18.468751,5.5803578 18.608642,5.4701414 C 18.942572,5.2070442 20.11284,5.1494763 20.7945,5.1430471 C 21.318072,5.1381092 21.330796,5.1423237 21.802723,5.1846324 C 22.413504,5.2393892 22.676509,5.245111 23.008573,5.3164481 C 23.580274,5.439266 24.109441,5.605612 24.06886,5.6596325 C 24.19393,5.6298572 24.203871,5.5624816 24.219657,5.5372217 C 24.327806,5.3641835 23.58206,5.0446342 22.866628,4.9063577 C 22.690718,4.8723581 22.372046,4.6663197 20.43016,4.7940752 z "
       id="path3393"
       sodipodi:nodetypes="cscsssscsss" />
    <path
       sodipodi:nodetypes="cscccsccc"
       id="path3482"
       d="M 32.91212,19.963664 C 31.618382,21.773841 26.194877,23.134422 19.70889,23.134422 C 13.511536,23.134422 8.3100444,21.87619 6.7286,20.186608 L 6.951544,20.682039 L 7.1249448,28.286903 C 7.1598395,30.951947 12.802127,33.117353 19.758431,33.117353 C 26.714736,33.117353 32.357025,30.951948 32.391918,28.286903 L 32.466232,20.682039 C 32.466232,20.682039 32.703968,20.349488 32.91212,19.963664 z "
       style="opacity:1;fill:url(#radialGradient3490);fill-opacity:1;fill-rule:nonzero;stroke:none;stroke-width:0.2;stroke-linecap:round;stroke-linejoin:round;stroke-miterlimit:4;stroke-dasharray:none;stroke-opacity:1" />
    <path
       style="opacity:1;fill:url(#linearGradient3504);fill-opacity:1;fill-rule:nonzero;stroke:none;stroke-width:0.2;stroke-linecap:round;stroke-linejoin:round;stroke-miterlimit:4;stroke-dasharray:none;stroke-opacity:1"
       d="M 32.91212,19.963664 C 31.618382,21.773841 26.194877,23.134422 19.70889,23.134422 C 13.511536,23.134422 8.3100444,21.87619 6.7286,20.186608 L 6.951544,20.682039 L 7.1249448,28.286903 C 7.1598395,30.951947 12.802127,33.117353 19.758431,33.117353 C 26.714736,33.117353 32.357025,30.951948 32.391918,28.286903 L 32.466232,20.682039 C 32.466232,20.682039 32.703968,20.349488 32.91212,19.963664 z "
       id="path3502"
       sodipodi:nodetypes="cscccsccc" />
    <path
       style="opacity:1;fill:url(#linearGradient3507);fill-opacity:1;fill-rule:evenodd;stroke:none;stroke-width:1px;stroke-linecap:butt;stroke-linejoin:miter;stroke-opacity:1"
       d="M 24.48935,31.203762 L 24.48935,24.612777 C 24.48935,24.612777 26.960972,24.313186 28.833411,23.714005 C 30.70585,23.114825 31.979109,22.216054 31.979109,22.216054 L 31.979109,28.286955 C 31.979109,28.286955 30.844864,29.284001 28.972425,30.003017 C 27.099986,30.722034 24.48935,31.203762 24.48935,31.203762 z "
       id="path3284"
       sodipodi:nodetypes="ccsccsc" />
    <g
       id="g2455"
       transform="matrix(0.7926894,0,0,0.7926894,-27.530444,4.1098768)"
       style="fill:#000000;fill-opacity:1">
      <path
         style="opacity:0.48543689;fill:#000000;fill-opacity:1;fill-rule:nonzero;stroke:none;stroke-width:0.2;stroke-linecap:round;stroke-linejoin:round;stroke-miterlimit:4;stroke-dasharray:none;stroke-opacity:1"
         d="M 67.0625,27.28125 C 66.949454,27.30184 66.833255,27.324109 66.71875,27.34375 L 66.71875,33.5 C 66.835305,33.479747 66.947479,33.458735 67.0625,33.4375 L 67.0625,27.28125 z "
         id="path2423" />
      <path
         style="opacity:0.48543689;fill:#000000;fill-opacity:1;fill-rule:nonzero;stroke:none;stroke-width:0.2;stroke-linecap:round;stroke-linejoin:round;stroke-miterlimit:4;stroke-dasharray:none;stroke-opacity:1"
         d="M 68.15625,28.21875 C 68.051536,28.241621 67.94995,28.259228 67.84375,28.28125 L 67.84375,33.28125 C 67.95116,33.258624 68.050391,33.210995 68.15625,33.1875 L 68.15625,28.21875 z "
         id="path2425" />
      <path
         style="opacity:0.48543689;fill:#000000;fill-opacity:1;fill-rule:nonzero;stroke:none;stroke-width:0.2;stroke-linecap:round;stroke-linejoin:round;stroke-miterlimit:4;stroke-dasharray:none;stroke-opacity:1"
         d="M 68.65625,28.09375 C 68.554011,28.117965 68.447531,28.132863 68.34375,28.15625 L 68.34375,33.15625 C 68.446408,33.132776 68.555131,33.118036 68.65625,33.09375 L 68.65625,28.09375 z "
         id="path2427" />
      <path
         style="opacity:0.48543689;fill:#000000;fill-opacity:1;fill-rule:nonzero;stroke:none;stroke-width:0.2;stroke-linecap:round;stroke-linejoin:round;stroke-miterlimit:4;stroke-dasharray:none;stroke-opacity:1"
         d="M 71.0625,27.40625 C 70.951617,27.444955 70.832537,27.462446 70.71875,27.5 L 70.71875,32.5 C 70.834588,32.46116 70.949753,32.415044 71.0625,32.375 L 71.0625,27.40625 z "
         id="path2429" />
      <path
         style="opacity:0.48543689;fill:#000000;fill-opacity:1;fill-rule:nonzero;stroke:none;stroke-width:0.2;stroke-linecap:round;stroke-linejoin:round;stroke-miterlimit:4;stroke-dasharray:none;stroke-opacity:1"
         d="M 73.0625,26.5625 C 72.950372,26.619435 72.836082,26.663348 72.71875,26.71875 L 72.71875,31.6875 C 72.836939,31.630458 72.949808,31.558631 73.0625,31.5 L 73.0625,26.5625 z "
         id="path2431" />
      <path
         style="opacity:0.48543689;fill:#000000;fill-opacity:1;fill-rule:nonzero;stroke:none;stroke-width:0.2;stroke-linecap:round;stroke-linejoin:round;stroke-miterlimit:4;stroke-dasharray:none;stroke-opacity:1"
         d="M 69.125,28 C 69.001921,28.031378 68.875496,28.063604 68.75,28.09375 L 68.75,33.0625 C 68.877319,33.03146 69.00022,33.001062 69.125,32.96875 L 69.125,28 z "
         id="path2433" />
      <path
         style="opacity:0.48543689;fill:#000000;fill-opacity:1;fill-rule:nonzero;stroke:none;stroke-width:0.2;stroke-linecap:round;stroke-linejoin:round;stroke-miterlimit:4;stroke-dasharray:none;stroke-opacity:1"
         d="M 70.65625,27.53125 C 70.551457,27.56546 70.450915,27.591781 70.34375,27.625 L 70.34375,32.625 C 70.453161,32.590542 70.549377,32.5355 70.65625,32.5 L 70.65625,27.53125 z "
         id="path2435" />
      <path
         style="opacity:0.48543689;fill:#000000;fill-opacity:1;fill-rule:nonzero;stroke:none;stroke-width:0.2;stroke-linecap:round;stroke-linejoin:round;stroke-miterlimit:4;stroke-dasharray:none;stroke-opacity:1"
         d="M 72.65625,26.75 C 72.551292,26.798906 72.452688,26.858595 72.34375,26.90625 L 72.34375,31.875 C 72.454394,31.82564 72.549861,31.769423 72.65625,31.71875 L 72.65625,26.75 z "
         id="path2437" />
      <path
         style="opacity:0.48543689;fill:#000000;fill-opacity:1;fill-rule:nonzero;stroke:none;stroke-width:0.2;stroke-linecap:round;stroke-linejoin:round;stroke-miterlimit:4;stroke-dasharray:none;stroke-opacity:1"
         d="M 70.15625,27.6875 C 70.055139,27.717899 69.94685,27.751737 69.84375,27.78125 L 69.84375,32.75 C 69.944595,32.720675 70.057354,32.717679 70.15625,32.6875 L 70.15625,27.6875 z "
         id="path2439" />
      <path
         style="opacity:0.48543689;fill:#000000;fill-opacity:1;fill-rule:nonzero;stroke:none;stroke-width:0.2;stroke-linecap:round;stroke-linejoin:round;stroke-miterlimit:4;stroke-dasharray:none;stroke-opacity:1"
         d="M 72.15625,26.96875 C 72.055853,27.011238 71.94729,27.052326 71.84375,27.09375 L 71.84375,32.09375 C 71.949764,32.050603 72.053634,31.981778 72.15625,31.9375 L 72.15625,26.96875 z "
         id="path2441" />
      <path
         style="opacity:0.48543689;fill:#000000;fill-opacity:1;fill-rule:nonzero;stroke:none;stroke-width:0.2;stroke-linecap:round;stroke-linejoin:round;stroke-miterlimit:4;stroke-dasharray:none;stroke-opacity:1"
         d="M 74.15625,25.9375 C 74.059294,26.002354 73.946918,26.061636 73.84375,26.125 L 73.84375,31.09375 C 73.953415,31.024501 74.053994,30.945988 74.15625,30.875 L 74.15625,25.9375 z "
         id="path2443" />
      <path
         style="opacity:0.48543689;fill:#000000;fill-opacity:1;fill-rule:nonzero;stroke:none;stroke-width:0.2;stroke-linecap:round;stroke-linejoin:round;stroke-miterlimit:4;stroke-dasharray:none;stroke-opacity:1"
         d="M 74.90625,24.53125 C 74.858812,24.572689 74.799862,24.615292 74.75,24.65625 L 74.75,30.4375 C 74.806832,30.388666 74.85286,30.330747 74.90625,30.28125 L 74.90625,24.53125 z "
         id="path2445" />
      <path
         style="opacity:0.48543689;fill:#000000;fill-opacity:1;fill-rule:nonzero;stroke:none;stroke-width:0.2;stroke-linecap:round;stroke-linejoin:round;stroke-miterlimit:4;stroke-dasharray:none;stroke-opacity:1"
         d="M 71.40625,27.28125 C 71.367305,27.295647 71.320586,27.298249 71.28125,27.3125 L 71.28125,32.3125 C 71.335202,32.292641 71.384305,32.270136 71.4375,32.25 L 71.4375,27.28125 C 71.428261,27.284682 71.415511,27.277826 71.40625,27.28125 z "
         id="path2447" />
      <path
         style="opacity:0.48543689;fill:#000000;fill-opacity:1;fill-rule:nonzero;stroke:none;stroke-width:0.2;stroke-linecap:round;stroke-linejoin:round;stroke-miterlimit:4;stroke-dasharray:none;stroke-opacity:1"
         d="M 73.4375,26.375 C 73.385131,26.403917 73.334931,26.44019 73.28125,26.46875 L 73.28125,31.40625 C 73.338106,31.375258 73.382185,31.343903 73.4375,31.3125 L 73.4375,26.375 z "
         id="path2449" />
      <path
         style="opacity:0.48543689;fill:#000000;fill-opacity:1;fill-rule:nonzero;stroke:none;stroke-width:0.2;stroke-linecap:round;stroke-linejoin:round;stroke-miterlimit:4;stroke-dasharray:none;stroke-opacity:1"
         d="M 67.4375,28.34375 C 67.386701,28.353601 67.332363,28.365342 67.28125,28.375 L 67.28125,33.375 C 67.331448,33.365373 67.38761,33.384813 67.4375,33.375 L 67.4375,28.34375 z "
         id="path2451" />
      <path
         style="opacity:0.48543689;fill:#000000;fill-opacity:1;fill-rule:nonzero;stroke:none;stroke-width:0.2;stroke-linecap:round;stroke-linejoin:round;stroke-miterlimit:4;stroke-dasharray:none;stroke-opacity:1"
         d="M 74.5625,25.625 C 74.509954,25.665404 74.46115,25.710102 74.40625,25.75 L 74.40625,30.6875 C 74.459338,30.647306 74.511792,30.603193 74.5625,30.5625 L 74.5625,25.625 z "
         id="path2453" />
    </g>
    <path
       id="path3385"
       d="M 19.312544,15.455244 C 12.784025,15.522294 7.5460611,16.994666 7.5460611,18.824173 C 7.5460611,19.061662 7.647736,19.293994 7.818548,19.517776 C 10.069809,20.720381 14.55026,21.549044 19.73366,21.549044 C 24.054533,21.549044 27.852822,20.973917 30.31111,20.087522 C 30.245017,20.073124 30.178001,20.054787 30.112938,20.037979 C 29.946331,19.994939 29.779929,19.943415 29.617506,19.88935 L 28.775274,19.815036 L 28.106441,19.493006 L 20.452034,15.87636 L 19.312544,15.455244 z M 25.728372,15.87636 C 26.251112,15.958141 26.742933,16.047396 27.214667,16.148847 C 26.744971,16.047508 26.24902,15.95808 25.728372,15.87636 z M 27.313752,16.173618 C 27.762629,16.272274 28.207101,16.380812 28.601872,16.495648 C 28.207004,16.380276 27.763129,16.272694 27.313752,16.173618 z M 29.741364,16.867222 C 30.016801,16.975636 30.255601,17.096785 30.48451,17.214023 C 30.257639,17.098029 30.013698,16.974569 29.741364,16.867222 z "
       style="opacity:1;fill:url(#linearGradient3393);fill-opacity:1;fill-rule:nonzero;stroke:none;stroke-width:0.2;stroke-linecap:round;stroke-linejoin:round;stroke-miterlimit:4;stroke-dasharray:none;stroke-opacity:1" />
    <path
       sodipodi:type="arc"
       style="opacity:0.15048547;fill:url(#linearGradient3403);fill-opacity:1;fill-rule:nonzero;stroke:none;stroke-width:0.30000001;stroke-linecap:round;stroke-linejoin:round;stroke-miterlimit:4;stroke-dasharray:none;stroke-opacity:1"
       id="path3395"
       sodipodi:cx="20.160479"
       sodipodi:cy="18.313177"
       sodipodi:rx="5.1514158"
       sodipodi:ry="1.2083567"
       d="M 25.311894 18.313177 A 5.1514158 1.2083567 0 1 1  15.009063,18.313177 A 5.1514158 1.2083567 0 1 1  25.311894 18.313177 z"
       transform="matrix(0.7926894,0,0,0.7926894,3.3705197,3.6057446)" />
    <path
       style="opacity:0.96601939;fill:url(#linearGradient3465);fill-opacity:1;fill-rule:evenodd;stroke:none;stroke-width:1px;stroke-linecap:butt;stroke-linejoin:miter;stroke-opacity:1"
       d="M 11.06362,7.0576904 C 11.06362,7.0576904 11.242506,8.9693944 11.806767,10.476163 C 12.552754,12.468207 15.794986,14.11758 15.794986,14.11758 L 20.452034,15.87636 L 28.106441,19.493006 C 27.628344,19.186919 26.872968,18.686026 26.050403,17.95717 C 24.86702,16.908603 23.870507,15.628645 23.870507,15.628645 C 23.870507,15.628645 22.503646,13.323319 20.526348,11.615654 C 18.549053,9.9079898 15.968385,8.7916983 15.968385,8.7916984 C 15.968385,8.7916984 14.997167,8.7254271 14.383008,8.9650992 C 13.768847,9.2047715 13.516003,9.7577884 13.516002,9.7577886 C 13.516002,9.7577886 13.035609,9.4865266 12.376512,8.6926122 C 11.951765,8.180985 11.538459,7.5904147 11.237021,7.132005 C 11.165193,7.0975646 11.06362,7.0576904 11.06362,7.0576904 z M 12.079254,7.4788066 C 12.372314,7.590495 12.692291,7.701339 13.070114,7.8008367 C 12.705975,7.70507 12.371014,7.5874896 12.079254,7.4788066 z "
       id="path3461" />
    <rect
       style="opacity:0.61162792;fill:#555753;fill-opacity:1;fill-rule:nonzero;stroke:none;stroke-width:0.69999999;stroke-linecap:round;stroke-linejoin:miter;stroke-miterlimit:4;stroke-dasharray:none;stroke-opacity:1"
       id="rect1951"
       width="40.001965"
       height="10.004759"
       x="-0.0019644466"
       y="30" />
    <text
       xml:space="preserve"
       style="font-size:12px;font-style:normal;font-weight:normal;fill:#eeeeec;fill-opacity:1;stroke:none;stroke-width:1px;stroke-linecap:butt;stroke-linejoin:miter;stroke-opacity:1;font-family:Bitstream Vera Sans"
       x="12.493196"
       y="39.168156"
       id="text2840"><tspan
         sodipodi:role="line"
         id="tspan2842"
         x="12.493196"
         y="39.168156">Sn</tspan></text>
  </g>
</svg>
