<?xml version="1.0" encoding="UTF-8" standalone="no"?>
<!-- Created with Inkscape (http://www.inkscape.org/) -->
<svg
   xmlns:dc="http://purl.org/dc/elements/1.1/"
   xmlns:cc="http://web.resource.org/cc/"
   xmlns:rdf="http://www.w3.org/1999/02/22-rdf-syntax-ns#"
   xmlns:svg="http://www.w3.org/2000/svg"
   xmlns="http://www.w3.org/2000/svg"
   xmlns:xlink="http://www.w3.org/1999/xlink"
   xmlns:sodipodi="http://sodipodi.sourceforge.net/DTD/sodipodi-0.dtd"
   xmlns:inkscape="http://www.inkscape.org/namespaces/inkscape"
   width="40"
   height="40"
   id="svg2193"
   sodipodi:version="0.32"
   inkscape:version="0.45.1"
   version="1.0"
   sodipodi:docbase="/home/jra/Desktop"
   sodipodi:docname="batteri-edited7.svg"
   inkscape:output_extension="org.inkscape.output.svg.inkscape">
  <defs
     id="defs2195">
    <linearGradient
       inkscape:collect="always"
       id="linearGradient3435">
      <stop
         style="stop-color:#000000;stop-opacity:1;"
         offset="0"
         id="stop3437" />
      <stop
         style="stop-color:#000000;stop-opacity:0;"
         offset="1"
         id="stop3439" />
    </linearGradient>
    <linearGradient
       inkscape:collect="always"
       id="linearGradient3384">
      <stop
         style="stop-color:#eeeeec;stop-opacity:1;"
         offset="0"
         id="stop3386" />
      <stop
         style="stop-color:#eeeeec;stop-opacity:0;"
         offset="1"
         id="stop3389" />
    </linearGradient>
    <linearGradient
       id="linearGradient3386">
      <stop
         style="stop-color:#000000;stop-opacity:1;"
         offset="0"
         id="stop3388" />
      <stop
         style="stop-color:#000000;stop-opacity:0;"
         offset="1"
         id="stop3390" />
    </linearGradient>
    <linearGradient
       id="linearGradient3324">
      <stop
         style="stop-color:#ffffff;stop-opacity:1;"
         offset="0"
         id="stop3326" />
      <stop
         style="stop-color:#ffffff;stop-opacity:0;"
         offset="1"
         id="stop3328" />
    </linearGradient>
    <linearGradient
       id="linearGradient3291">
      <stop
         id="stop3293"
         offset="0"
         style="stop-color:#000000;stop-opacity:1;" />
      <stop
         id="stop3295"
         offset="1"
         style="stop-color:#000000;stop-opacity:0;" />
    </linearGradient>
    <radialGradient
       inkscape:collect="always"
       xlink:href="#linearGradient3291"
       id="radialGradient2595"
       gradientUnits="userSpaceOnUse"
       gradientTransform="matrix(1,0,0,0.1978018,0,92.821679)"
       cx="63.912209"
       cy="115.70919"
       fx="75.857941"
       fy="115.70919"
       r="63.912209" />
    <linearGradient
       inkscape:collect="always"
       xlink:href="#linearGradient3386"
       id="linearGradient3338"
       x1="-8.8989258"
       y1="-1.5911587"
       x2="-34.787148"
       y2="9.9258156"
       gradientUnits="userSpaceOnUse"
       gradientTransform="matrix(0.7934503,0,0,0.5839671,35.876382,8.1176578)" />
    <linearGradient
       inkscape:collect="always"
       xlink:href="#linearGradient3291"
       id="linearGradient3382"
       x1="-20.213053"
       y1="7.7793608"
       x2="-20.213053"
       y2="10.037989"
       gradientUnits="userSpaceOnUse"
       gradientTransform="matrix(0.7934503,0,0,0.7934503,35.876382,6.6028675)" />
    <radialGradient
       inkscape:collect="always"
       xlink:href="#linearGradient3386"
       id="radialGradient3392"
       cx="-22.294958"
       cy="-7.514751"
       fx="-22.294958"
       fy="-7.514751"
       r="3.9733589"
       gradientTransform="matrix(1,0,0,0.625,0,-2.8180316)"
       gradientUnits="userSpaceOnUse" />
    <linearGradient
       inkscape:collect="always"
       xlink:href="#linearGradient3384"
       id="linearGradient3475"
       gradientUnits="userSpaceOnUse"
       x1="-21.302992"
       y1="30.114037"
       x2="-21.368509"
       y2="27.06356"
       gradientTransform="matrix(0.7934503,0,0,0.7934503,35.876382,6.6028675)" />
    <linearGradient
       inkscape:collect="always"
       xlink:href="#linearGradient3324"
       id="linearGradient3286"
       gradientUnits="userSpaceOnUse"
       x1="9.6781054"
       y1="6.455349"
       x2="14.01388"
       y2="3.5529821" />
    <linearGradient
       inkscape:collect="always"
       xlink:href="#linearGradient3324"
       id="linearGradient3289"
       gradientUnits="userSpaceOnUse"
       gradientTransform="matrix(0.5417741,0,0,0.3987373,14.263226,6.8546287)"
       x1="-8.03125"
       y1="12.15625"
       x2="-4.5556946"
       y2="12.15625" />
    <linearGradient
       inkscape:collect="always"
       xlink:href="#linearGradient3291"
       id="linearGradient3311"
       gradientUnits="userSpaceOnUse"
       gradientTransform="matrix(0.7934503,0,0,0.4103771,48.943098,8.7429221)"
       x1="-33.898445"
       y1="4.1460967"
       x2="-33.395535"
       y2="3.1794579" />
    <linearGradient
       inkscape:collect="always"
       xlink:href="#linearGradient3291"
       id="linearGradient3315"
       gradientUnits="userSpaceOnUse"
       gradientTransform="matrix(0.7934503,0,0,0.4103771,44.634345,8.7429221)"
       x1="-33.898445"
       y1="4.1460967"
       x2="-33.395535"
       y2="3.1794579" />
    <linearGradient
       inkscape:collect="always"
       xlink:href="#linearGradient3291"
       id="linearGradient3319"
       gradientUnits="userSpaceOnUse"
       gradientTransform="matrix(0.7934503,0,0,0.4103771,53.332288,8.7429224)"
       x1="-33.898445"
       y1="4.1460967"
       x2="-33.395535"
       y2="3.1794579" />
    <linearGradient
       inkscape:collect="always"
       xlink:href="#linearGradient3291"
       id="linearGradient3323"
       gradientUnits="userSpaceOnUse"
       gradientTransform="matrix(0.7934503,0,0,0.4103771,57.396403,8.7429224)"
       x1="-33.898445"
       y1="4.1460967"
       x2="-33.395535"
       y2="3.1794579" />
    <linearGradient
       inkscape:collect="always"
       xlink:href="#linearGradient3291"
       id="linearGradient3327"
       gradientUnits="userSpaceOnUse"
       gradientTransform="matrix(0.7934503,0,0,0.4103771,39.961421,8.7429224)"
       x1="-33.898445"
       y1="4.1460967"
       x2="-33.395535"
       y2="3.1794579" />
    <linearGradient
       inkscape:collect="always"
       xlink:href="#linearGradient3291"
       id="linearGradient3343"
       gradientUnits="userSpaceOnUse"
       gradientTransform="matrix(0.7934503,0,0,0.4103771,35.857408,8.7429224)"
       x1="-33.898445"
       y1="4.1460967"
       x2="-33.395535"
       y2="3.1794579" />
    <linearGradient
       inkscape:collect="always"
       xlink:href="#linearGradient3291"
       id="linearGradient3380"
       gradientUnits="userSpaceOnUse"
       x1="22.133034"
       y1="10.34649"
       x2="24.022224"
       y2="22.954479"
       gradientTransform="translate(0,0.4087321)" />
    <radialGradient
       inkscape:collect="always"
       xlink:href="#linearGradient3384"
       id="radialGradient3391"
       cx="16.830719"
       cy="12.298224"
       fx="16.830719"
       fy="12.298224"
       r="12.418584"
       gradientTransform="matrix(1.7726624,-5.7690957e-8,-3.7255174e-8,1.0012342,-13.260447,3.1177366)"
       gradientUnits="userSpaceOnUse" />
    <linearGradient
       inkscape:collect="always"
       xlink:href="#linearGradient3435"
       id="linearGradient3441"
       x1="19.212427"
       y1="10.168533"
       x2="19.145773"
       y2="7.8563943"
       gradientUnits="userSpaceOnUse"
       gradientTransform="matrix(1,0,0,0.7359845,0,3.7503117)" />
    <linearGradient
       inkscape:collect="always"
       xlink:href="#linearGradient3324"
       id="linearGradient3451"
       x1="15.370181"
       y1="9.7729692"
       x2="17.853699"
       y2="16.557924"
       gradientUnits="userSpaceOnUse"
       gradientTransform="translate(0,0.4087321)" />
    <radialGradient
       inkscape:collect="always"
       xlink:href="#linearGradient3324"
       id="radialGradient3475"
       cx="12.341588"
       cy="9.9999981"
       fx="12.341588"
       fy="9.9999981"
       r="14.734375"
       gradientTransform="matrix(1.6935011,0,2.2440688e-8,0.2414909,-10.184717,8.6314346)"
       gradientUnits="userSpaceOnUse" />
    <linearGradient
       inkscape:collect="always"
       xlink:href="#linearGradient3291"
       id="linearGradient3224"
       x1="23.491056"
       y1="23.676414"
       x2="23.116026"
       y2="15.13391"
       gradientUnits="userSpaceOnUse" />
    <radialGradient
       inkscape:collect="always"
       xlink:href="#linearGradient3386"
       id="radialGradient2253"
       gradientUnits="userSpaceOnUse"
       gradientTransform="matrix(1,0,0,0.625,0,-2.8180316)"
       cx="-22.294958"
       cy="-7.514751"
       fx="-22.294958"
       fy="-7.514751"
       r="3.9733589" />
    <linearGradient
       inkscape:collect="always"
       xlink:href="#linearGradient3324"
       id="linearGradient2255"
       gradientUnits="userSpaceOnUse"
       x1="9.6781054"
       y1="6.455349"
       x2="14.01388"
       y2="3.5529821" />
    <linearGradient
       inkscape:collect="always"
       xlink:href="#linearGradient3324"
       id="linearGradient2257"
       gradientUnits="userSpaceOnUse"
       gradientTransform="matrix(0.5417741,0,0,0.3987373,31.777697,6.8546287)"
       x1="-8.03125"
       y1="12.15625"
       x2="-4.5556946"
       y2="12.15625" />
    <linearGradient
       inkscape:collect="always"
       xlink:href="#linearGradient3291"
       id="linearGradient3248"
       gradientUnits="userSpaceOnUse"
       gradientTransform="matrix(0.6145099,0,0,0.691091,24.500709,-0.174308)"
       x1="11.018674"
       y1="9.8678284"
       x2="11.018672"
       y2="42.091286" />
    <linearGradient
       inkscape:collect="always"
       xlink:href="#linearGradient3386"
       id="linearGradient2241"
       gradientUnits="userSpaceOnUse"
       gradientTransform="matrix(0.9752772,0,0,0.5589306,0.49355,6.1040025)"
       x1="19.963547"
       y1="13.201765"
       x2="19.963547"
       y2="11.63303" />
    <linearGradient
       inkscape:collect="always"
       xlink:href="#linearGradient3384"
       id="linearGradient3245"
       x1="73.508125"
       y1="31.801481"
       x2="43.2892"
       y2="11.570268"
       gradientUnits="userSpaceOnUse"
       gradientTransform="translate(-40,0)" />
  </defs>
  <sodipodi:namedview
     id="base"
     pagecolor="#ffffff"
     bordercolor="#666666"
     borderopacity="1.0"
     inkscape:pageopacity="0.0"
     inkscape:pageshadow="2"
     inkscape:zoom="17.3"
     inkscape:cx="20"
     inkscape:cy="20"
     inkscape:current-layer="layer1"
     showgrid="false"
     inkscape:grid-bbox="true"
     inkscape:document-units="px"
     width="40px"
     height="40px"
     gridempspacing="2"
     inkscape:window-width="1165"
     inkscape:window-height="914"
     inkscape:window-x="54"
     inkscape:window-y="78" />
  <metadata
     id="metadata2198">
    <rdf:RDF>
      <cc:Work
         rdf:about="">
        <dc:format>image/svg+xml</dc:format>
        <dc:type
           rdf:resource="http://purl.org/dc/dcmitype/StillImage" />
        <dc:creator>
          <cc:Agent>
            <dc:title>Jarle Akselsen</dc:title>
          </cc:Agent>
        </dc:creator>
        <cc:license
           rdf:resource="http://creativecommons.org/licenses/GPL/2.0/" />
      </cc:Work>
      <cc:License
         rdf:about="http://creativecommons.org/licenses/GPL/2.0/">
        <cc:permits
           rdf:resource="http://web.resource.org/cc/Reproduction" />
        <cc:permits
           rdf:resource="http://web.resource.org/cc/Distribution" />
        <cc:requires
           rdf:resource="http://web.resource.org/cc/Notice" />
        <cc:permits
           rdf:resource="http://web.resource.org/cc/DerivativeWorks" />
        <cc:requires
           rdf:resource="http://web.resource.org/cc/ShareAlike" />
        <cc:requires
           rdf:resource="http://web.resource.org/cc/SourceCode" />
      </cc:License>
    </rdf:RDF>
  </metadata>
  <g
     id="layer1"
     inkscape:label="Layer 1"
     inkscape:groupmode="layer">
    <path
       transform="matrix(0.2813275,0,0,0.3608683,3.879661,-13.936929)"
       d="M 127.82442 115.70919 A 63.912209 12.641975 0 1 1  0,115.70919 A 63.912209 12.641975 0 1 1  127.82442 115.70919 z"
       sodipodi:ry="12.641975"
       sodipodi:rx="63.912209"
       sodipodi:cy="115.70919"
       sodipodi:cx="63.912209"
       id="path2593"
       style="opacity:0.38139535;fill:url(#radialGradient2595);fill-opacity:1;fill-rule:nonzero;stroke:none;stroke-width:0;stroke-linecap:round;stroke-linejoin:round;stroke-miterlimit:4;stroke-dasharray:none;stroke-dashoffset:4;stroke-opacity:1"
       sodipodi:type="arc" />
    <rect
       style="opacity:0.61162792;fill:#555753;fill-opacity:1;fill-rule:nonzero;stroke:none;stroke-width:0.69999999;stroke-linecap:round;stroke-linejoin:miter;stroke-miterlimit:4;stroke-dasharray:none;stroke-opacity:1"
       id="rect1951"
       width="40.001965"
       height="10.004759"
       x="-0.0019645691"
       y="30" />
    <text
       xml:space="preserve"
       style="font-size:12px;font-style:normal;font-weight:normal;fill:#eeeeec;fill-opacity:1;stroke:none;stroke-width:1px;stroke-linecap:butt;stroke-linejoin:miter;stroke-opacity:1;font-family:Bitstream Vera Sans"
       x="12.290915"
       y="39.168156"
       id="text2840"><tspan
         sodipodi:role="line"
         id="tspan2842"
         x="12.290915"
         y="39.168156">Sb</tspan></text>
    <path
       style="opacity:1;fill:#2e3436;fill-opacity:1;fill-rule:nonzero;stroke:none;stroke-width:1;stroke-linecap:round;stroke-linejoin:miter;stroke-miterlimit:4;stroke-dasharray:none;stroke-opacity:1"
       d="M 24.750582,10.861409 L 24.750582,12.190759 C 24.786656,12.539515 25.668594,12.823781 26.773608,12.823781 C 27.878625,12.823781 28.793727,12.539515 28.8298,12.190759 L 28.8298,10.861409 C 28.793727,11.210166 27.878625,11.494432 26.773608,11.494432 C 25.668594,11.494432 24.786656,11.210166 24.750582,10.861409 z "
       id="rect3168" />
    <path
       id="path3312"
       d="M 7.032175,9.3961298 L 5.233622,12.63865 L 5.235396,13.610492 L 5.529587,13.610492 L 5.529587,28.922476 L 5.415754,28.922476 L 5.415754,29.807936 L 34.238139,29.807936 L 34.238139,28.922476 L 34.147072,28.922476 L 34.147072,13.610492 L 34.670702,13.610492 L 34.670702,12.63865 L 34.693468,12.63865 L 32.940449,9.4177263 L 7.032175,9.3961298 z "
       style="opacity:1;fill:#d3d7cf;fill-opacity:1;fill-rule:nonzero;stroke:none;stroke-width:0.40000001;stroke-linecap:round;stroke-linejoin:round;stroke-miterlimit:4;stroke-dasharray:none;stroke-opacity:1"
       sodipodi:nodetypes="cccccccccccccccc" />
    <path
       style="opacity:0.35;fill:url(#linearGradient3248);fill-opacity:1;fill-rule:nonzero;stroke:none;stroke-width:1;stroke-linecap:round;stroke-linejoin:miter;stroke-miterlimit:4;stroke-dasharray:none;stroke-opacity:1"
       d="M 11.15625,17.46875 L 11.15625,29.25 L 14.8125,29.25 L 14.8125,17.46875 L 11.15625,17.46875 z M 20.3125,17.46875 L 20.3125,29.25 L 23.96875,29.25 L 23.96875,17.46875 L 20.3125,17.46875 z M 25,17.46875 L 25,29.25 L 28.65625,29.25 L 28.65625,17.46875 L 25,17.46875 z M 6.59375,17.5 L 6.59375,29.28125 L 10.28125,29.28125 L 10.28125,17.5 L 6.59375,17.5 z M 15.8125,17.5 L 15.8125,29.28125 L 19.46875,29.28125 L 19.46875,17.5 L 15.8125,17.5 z M 29.4375,17.5 L 29.4375,29.28125 L 33.09375,29.28125 L 33.09375,17.5 L 29.4375,17.5 z "
       id="use3269" />
    <path
       id="path2239"
       d="M 5.5977833,12.939679 L 5.5995144,13.482873 L 34.307102,13.482873 L 34.307102,12.939679 L 34.329301,12.939679 L 5.5977833,12.939679 z "
       style="opacity:0.1;fill:url(#linearGradient2241);fill-opacity:1;fill-rule:nonzero;stroke:none;stroke-width:0.40000001;stroke-linecap:round;stroke-linejoin:round;stroke-miterlimit:4;stroke-dasharray:none;stroke-opacity:1"
       sodipodi:nodetypes="cccccc" />
    <path
       style="opacity:0.1;fill:url(#linearGradient3338);fill-opacity:1;fill-rule:nonzero;stroke:none;stroke-width:0.40000001;stroke-linecap:round;stroke-linejoin:round;stroke-miterlimit:4;stroke-dasharray:none;stroke-opacity:1"
       d="M 7.032175,9.4055666 L 5.233622,12.679872 L 5.119789,12.679872 L 34.670702,12.679872 L 34.693468,12.679872 L 32.940449,9.4214609 L 7.032175,9.4055666 z "
       id="path3314"
       sodipodi:nodetypes="ccccccc" />
    <path
       style="opacity:0.5;fill:url(#linearGradient3382);fill-opacity:1;fill-rule:nonzero;stroke:none;stroke-width:0.40000001;stroke-linecap:round;stroke-linejoin:round;stroke-miterlimit:4;stroke-dasharray:none;stroke-opacity:1"
       d="M 5.5295867,13.610492 L 5.5295867,14.567492 L 34.147072,14.567492 L 34.147072,13.610492 L 5.5295867,13.610492 z "
       id="path3374"
       sodipodi:nodetypes="ccccc" />
    <path
       style="fill:#eeeeec;fill-opacity:1;fill-rule:nonzero;stroke:none;stroke-width:1;stroke-linecap:round;stroke-linejoin:miter;stroke-miterlimit:4;stroke-dasharray:none;stroke-opacity:1"
       d="M 22.375,9.9193663 C 21.710824,9.9193663 21.156249,10.068846 21.15625,10.258782 C 21.15625,10.448719 21.710824,10.614362 22.375,10.614362 C 23.039176,10.614362 23.5625,10.448719 23.5625,10.258782 C 23.5625,10.068846 23.039177,9.9193663 22.375,9.9193663 z M 9.21875,9.9355292 C 8.554574,9.9355292 8.03125,10.085008 8.03125,10.274945 C 8.03125,10.464882 8.554574,10.630525 9.21875,10.630525 C 9.882926,10.630525 10.4375,10.464882 10.4375,10.274945 C 10.4375,10.085008 9.882926,9.9355292 9.21875,9.9355292 z M 13.34375,9.9355292 C 12.679574,9.9355292 12.125,10.085008 12.125,10.274945 C 12.125,10.464882 12.679574,10.630525 13.34375,10.630525 C 14.007926,10.630525 14.53125,10.464882 14.53125,10.274945 C 14.53125,10.085008 14.007926,9.9355292 13.34375,9.9355292 z M 18,9.9355292 C 17.335824,9.9355292 16.78125,10.101171 16.78125,10.291108 C 16.78125,10.481045 17.335823,10.630525 18,10.630525 C 18.664176,10.630525 19.187501,10.481045 19.1875,10.291108 C 19.1875,10.101171 18.664176,9.9355292 18,9.9355292 z M 26.75,9.9355292 C 26.085824,9.9355292 25.53125,10.085008 25.53125,10.274945 C 25.53125,10.464882 26.085823,10.614362 26.75,10.614362 C 27.414176,10.614362 27.937501,10.464882 27.9375,10.274945 C 27.9375,10.085008 27.414176,9.9355292 26.75,9.9355292 z M 30.78125,9.9355292 C 30.117074,9.9355292 29.562499,10.085008 29.5625,10.274945 C 29.5625,10.464882 30.117074,10.614362 30.78125,10.614362 C 31.445426,10.614362 31.96875,10.464882 31.96875,10.274945 C 31.96875,10.085008 31.445427,9.9355292 30.78125,9.9355292 z "
       id="use3271" />
    <path
       id="use3554"
       d="M 12.810545,9.9740537 C 12.766402,9.9801705 12.727506,9.9921454 12.686568,9.9997023 C 12.680164,10.021222 12.681115,10.032314 12.661773,10.050999 C 12.618508,10.092796 12.537796,10.102297 12.537796,10.102297 L 13.926334,10.563971 C 14.077843,10.538431 14.198704,10.515478 14.298264,10.474201 L 12.810545,9.9740537 z "
       style="opacity:0.25;fill:url(#linearGradient3327);fill-opacity:1;fill-rule:nonzero;stroke:none;stroke-width:1;stroke-linecap:round;stroke-linejoin:miter;stroke-miterlimit:4;stroke-opacity:1" />
    <path
       id="use3562"
       d="M 30.245527,9.9740537 C 30.201384,9.9801705 30.162488,9.9921454 30.12155,9.9997023 C 30.115146,10.021222 30.116097,10.032314 30.096755,10.050999 C 30.05349,10.092796 29.972778,10.102297 29.972778,10.102297 L 31.361316,10.563971 C 31.512825,10.538431 31.633686,10.515478 31.733246,10.474201 L 30.245527,9.9740537 z "
       style="opacity:0.25;fill:url(#linearGradient3323);fill-opacity:1;fill-rule:nonzero;stroke:none;stroke-width:1;stroke-linecap:round;stroke-linejoin:miter;stroke-miterlimit:4;stroke-opacity:1" />
    <path
       id="use3560"
       d="M 26.181412,9.9740537 C 26.137269,9.9801705 26.098373,9.9921454 26.057435,9.9997023 C 26.051031,10.021222 26.051982,10.032314 26.03264,10.050999 C 25.989375,10.092796 25.908663,10.102297 25.908663,10.102297 L 27.297201,10.563971 C 27.44871,10.538431 27.569571,10.515478 27.669131,10.474201 L 26.181412,9.9740537 z "
       style="opacity:0.25;fill:url(#linearGradient3319);fill-opacity:1;fill-rule:nonzero;stroke:none;stroke-width:1;stroke-linecap:round;stroke-linejoin:miter;stroke-miterlimit:4;stroke-opacity:1" />
    <rect
       style="opacity:1;fill:#eeeeec;fill-opacity:1;fill-rule:nonzero;stroke:none;stroke-width:1;stroke-linecap:round;stroke-linejoin:round;stroke-miterlimit:4;stroke-dasharray:none;stroke-opacity:1"
       id="rect3263"
       width="24.837168"
       height="6.6019235"
       x="7.3931503"
       y="15.431138" />
    <path
       style="opacity:1;fill:#007880;fill-opacity:1;fill-rule:nonzero;stroke:none;stroke-width:1;stroke-linecap:round;stroke-linejoin:round;stroke-miterlimit:4;stroke-dasharray:none;stroke-opacity:1"
       d="M 18.8125,15.96875 L 8.40625,21.5 L 31.21875,21.5 L 20.8125,15.96875 L 18.8125,15.96875 z "
       id="rect2282" />
    <path
       style="opacity:1;fill:#00484d;fill-opacity:1;fill-rule:nonzero;stroke:none;stroke-width:1;stroke-linecap:round;stroke-linejoin:round;stroke-miterlimit:4;stroke-dasharray:none;stroke-opacity:1"
       d="M 8,15.96875 L 8,21.5 L 8.40625,21.5 L 9.0625,21.15625 L 30.5625,21.15625 L 31.21875,21.5 L 31.625,21.5 L 31.625,15.96875 L 20.8125,15.96875 L 18.8125,15.96875 L 8,15.96875 z M 17.75,16.53125 L 21.875,16.53125 L 23,17.125 L 16.625,17.125 L 17.75,16.53125 z M 15.59375,17.6875 L 24.03125,17.6875 L 25.15625,18.28125 L 14.46875,18.28125 L 15.59375,17.6875 z M 13.40625,18.84375 L 26.21875,18.84375 L 27.34375,19.4375 L 12.28125,19.4375 L 13.40625,18.84375 z M 11.21875,20 L 28.40625,20 L 29.46875,20.5625 L 10.15625,20.5625 L 11.21875,20 z "
       id="path3305" />
    <path
       style="opacity:1;fill:#9c0f0f;fill-opacity:1;fill-rule:nonzero;stroke:none;stroke-width:1;stroke-linecap:round;stroke-linejoin:round;stroke-miterlimit:4;stroke-dasharray:none;stroke-opacity:1"
       d="M 28.590951,16.852504 L 28.590951,17.80687 L 27.645769,17.80687 L 27.645769,18.760744 L 28.590951,18.760744 L 28.590951,19.639282 L 29.536131,19.639282 L 29.536131,18.760744 L 30.481311,18.760744 L 30.481311,17.80687 L 29.536131,17.80687 L 29.536131,16.852504 L 28.590951,16.852504 z "
       id="rect3265"
       sodipodi:nodetypes="ccccccccccccc" />
    <rect
       y="17.890533"
       x="10.035909"
       height="0.82040077"
       width="1.9827938"
       id="rect3269"
       style="opacity:1;fill:#000000;fill-opacity:1;fill-rule:nonzero;stroke:none;stroke-width:1;stroke-linecap:round;stroke-linejoin:round;stroke-miterlimit:4;stroke-dasharray:none;stroke-opacity:1" />
    <path
       style="opacity:0.5;fill:#eeeeec;fill-opacity:1;fill-rule:nonzero;stroke:none;stroke-width:0.40000001;stroke-linecap:round;stroke-linejoin:round;stroke-miterlimit:4;stroke-dasharray:none;stroke-opacity:1"
       d="M 5.5269094,28.596296 L 5.5269094,28.918635 L 34.140709,28.918635 L 34.140709,28.596296 L 5.5269094,28.596296 z "
       id="path3484" />
    <path
       id="use3556"
       d="M 17.483469,9.9740535 C 17.439326,9.9801705 17.40043,9.9921454 17.359492,9.9997023 C 17.353088,10.021223 17.354039,10.032314 17.334697,10.050999 C 17.291432,10.092796 17.21072,10.102297 17.21072,10.102297 L 18.599258,10.563971 C 18.750767,10.538431 18.871628,10.515478 18.971188,10.474201 L 17.483469,9.9740535 z "
       style="opacity:0.25;fill:url(#linearGradient3315);fill-opacity:1;fill-rule:nonzero;stroke:none;stroke-width:1;stroke-linecap:round;stroke-linejoin:miter;stroke-miterlimit:4;stroke-opacity:1" />
    <path
       id="use3558"
       d="M 21.792222,9.9740535 C 21.748079,9.9801705 21.709183,9.9921454 21.668245,9.9997023 C 21.661841,10.021223 21.662792,10.032314 21.64345,10.050999 C 21.600185,10.092796 21.519473,10.102297 21.519473,10.102297 L 22.908011,10.563971 C 23.05952,10.538431 23.180381,10.515478 23.279941,10.474201 L 21.792222,9.9740535 z "
       style="opacity:0.25;fill:url(#linearGradient3311);fill-opacity:1;fill-rule:nonzero;stroke:none;stroke-width:1;stroke-linecap:round;stroke-linejoin:miter;stroke-miterlimit:4;stroke-opacity:1" />
    <path
       style="opacity:0.25;fill:url(#linearGradient3343);fill-opacity:1;fill-rule:nonzero;stroke:none;stroke-width:1;stroke-linecap:round;stroke-linejoin:miter;stroke-miterlimit:4;stroke-opacity:1"
       d="M 8.70652,9.9740537 C 8.662377,9.9801705 8.623482,9.9921454 8.582543,9.9997023 C 8.576138,10.021222 8.577089,10.032314 8.557748,10.050999 C 8.514482,10.092796 8.43377,10.102297 8.43377,10.102297 L 9.822319,10.563971 C 9.97383,10.538431 10.094691,10.515478 10.194251,10.474201 L 8.70652,9.9740537 z "
       id="path3341" />
    <rect
       y="15.431138"
       x="7.3931503"
       height="6.6019235"
       width="24.837168"
       id="rect3382"
       style="opacity:0.75;fill:url(#radialGradient3391);fill-opacity:1;fill-rule:nonzero;stroke:none;stroke-width:1;stroke-linecap:round;stroke-linejoin:round;stroke-miterlimit:4;stroke-dasharray:none;stroke-opacity:1" />
    <path
       sodipodi:type="arc"
       style="opacity:0.75;fill:url(#radialGradient3392);fill-opacity:1;fill-rule:nonzero;stroke:none;stroke-width:0.30000001;stroke-linecap:round;stroke-linejoin:round;stroke-miterlimit:4;stroke-dasharray:none;stroke-opacity:1"
       id="path3384"
       sodipodi:cx="-22.294958"
       sodipodi:cy="-7.514751"
       sodipodi:rx="3.9733589"
       sodipodi:ry="2.4833493"
       d="M -18.321599 -7.514751 A 3.9733589 2.4833493 0 1 1  -26.268317,-7.514751 A 3.9733589 2.4833493 0 1 1  -18.321599 -7.514751 z"
       transform="matrix(0.5708697,0,0,0.3355574,24.548033,14.267522)" />
    <path
       style="fill:#ffffff;fill-opacity:1;fill-rule:nonzero;stroke:none;stroke-width:1;stroke-linecap:round;stroke-linejoin:miter;stroke-miterlimit:4;stroke-dasharray:none;stroke-opacity:1"
       d="M 8.28125,10.080993 C 8.137975,10.137076 8.03125,10.198887 8.03125,10.274945 C 8.03125,10.464882 8.554574,10.630524 9.21875,10.630524 C 9.664514,10.630524 10.037499,10.543066 10.25,10.436572 C 10.028334,10.501725 9.707088,10.549711 9.375,10.549711 C 8.710824,10.549711 8.1875,10.384068 8.1875,10.194132 C 8.1875,10.151851 8.233605,10.118062 8.28125,10.080993 z M 21.375,10.080993 C 21.252256,10.133763 21.15625,10.190478 21.15625,10.258783 C 21.15625,10.448719 21.710824,10.614362 22.375,10.614362 C 22.817294,10.614362 23.17058,10.52558 23.375,10.420409 C 23.161147,10.485562 22.863338,10.533548 22.53125,10.533548 C 21.867074,10.533548 21.3125,10.367906 21.3125,10.177969 C 21.3125,10.142844 21.339882,10.112662 21.375,10.080993 z M 12.34375,10.097156 C 12.221006,10.149926 12.125,10.206641 12.125,10.274945 C 12.125,10.464882 12.679574,10.630524 13.34375,10.630524 C 13.786044,10.630524 14.13933,10.541742 14.34375,10.436572 C 14.129897,10.501725 13.832088,10.549711 13.5,10.549711 C 12.835824,10.549711 12.28125,10.384068 12.28125,10.194132 C 12.28125,10.159006 12.308632,10.128824 12.34375,10.097156 z M 25.75,10.097156 C 25.627255,10.149926 25.53125,10.206641 25.53125,10.274945 C 25.53125,10.464882 26.085823,10.614362 26.75,10.614362 C 27.192294,10.614362 27.54558,10.536953 27.75,10.436572 C 27.536147,10.497684 27.238338,10.533548 26.90625,10.533548 C 26.242073,10.533548 25.6875,10.384068 25.6875,10.194132 C 25.6875,10.159006 25.714882,10.128824 25.75,10.097156 z M 29.78125,10.097156 C 29.658506,10.149926 29.5625,10.206641 29.5625,10.274945 C 29.5625,10.464882 30.117074,10.614362 30.78125,10.614362 C 31.223544,10.614362 31.57683,10.536953 31.78125,10.436572 C 31.567397,10.497684 31.269588,10.533548 30.9375,10.533548 C 30.273324,10.533548 29.71875,10.384068 29.71875,10.194132 C 29.71875,10.159006 29.746132,10.128824 29.78125,10.097156 z M 17,10.113319 C 16.877256,10.168766 16.78125,10.222804 16.78125,10.291108 C 16.78125,10.481045 17.335823,10.630524 18,10.630524 C 18.442294,10.630524 18.79558,10.553116 19,10.452735 C 18.786147,10.513847 18.488338,10.549711 18.15625,10.549711 C 17.492073,10.549711 16.9375,10.400231 16.9375,10.210295 C 16.9375,10.178638 16.97125,10.14297 17,10.113319 z "
       id="path3402" />
    <path
       style="fill:#eeeeec;fill-opacity:1;fill-rule:nonzero;stroke:none;stroke-width:1;stroke-linecap:round;stroke-linejoin:miter;stroke-miterlimit:4;stroke-dasharray:none;stroke-opacity:1"
       d="M 22.375,9.9193663 C 21.961167,9.9193663 21.627346,9.9913013 21.40625,10.080993 C 21.627916,10.019881 21.917912,9.984017 22.25,9.984017 C 22.914177,9.984017 23.437499,10.133497 23.4375,10.323433 C 23.4375,10.365714 23.391395,10.398259 23.34375,10.436572 C 23.465974,10.380371 23.5625,10.328538 23.5625,10.258783 C 23.5625,10.068846 23.039177,9.9193663 22.375,9.9193663 z M 9.21875,9.9355289 C 8.798497,9.9355289 8.460578,10.005082 8.25,10.097156 C 8.463853,10.036044 8.761662,10.00018 9.09375,10.00018 C 9.757926,10.00018 10.3125,10.149659 10.3125,10.339596 C 10.3125,10.381877 10.268802,10.414421 10.21875,10.452735 C 10.341494,10.397288 10.4375,10.34325 10.4375,10.274945 C 10.4375,10.085009 9.882926,9.9355289 9.21875,9.9355289 z M 13.34375,9.9355289 C 12.929917,9.9355289 12.596096,10.007464 12.375,10.097156 C 12.596665,10.036044 12.886662,10.00018 13.21875,10.00018 C 13.882926,10.00018 14.40625,10.149659 14.40625,10.339596 C 14.40625,10.381877 14.360145,10.414421 14.3125,10.452735 C 14.434724,10.396534 14.53125,10.344701 14.53125,10.274945 C 14.53125,10.085009 14.007926,9.9355289 13.34375,9.9355289 z M 18,9.9355289 C 17.595108,9.9355289 17.25387,10.006063 17.03125,10.097156 C 17.252916,10.032003 17.542912,10.00018 17.875,10.00018 C 18.539176,10.00018 19.062499,10.165822 19.0625,10.355759 C 19.0625,10.398039 19.016395,10.431829 18.96875,10.468897 C 19.090974,10.415456 19.1875,10.360864 19.1875,10.291108 C 19.1875,10.101171 18.664176,9.9355289 18,9.9355289 z M 26.75,9.9355289 C 26.336167,9.9355289 26.002346,10.007464 25.78125,10.097156 C 26.002916,10.036044 26.292912,10.00018 26.625,10.00018 C 27.289176,10.00018 27.812499,10.149659 27.8125,10.339596 C 27.8125,10.381877 27.766395,10.415667 27.71875,10.452735 C 27.840974,10.399293 27.9375,10.344701 27.9375,10.274945 C 27.9375,10.085009 27.414176,9.9355289 26.75,9.9355289 z M 30.78125,9.9355289 C 30.367417,9.9355289 30.033596,10.007464 29.8125,10.097156 C 30.034166,10.036044 30.324162,10.00018 30.65625,10.00018 C 31.320427,10.00018 31.843749,10.149659 31.84375,10.339596 C 31.84375,10.381877 31.797645,10.415667 31.75,10.452735 C 31.872224,10.399293 31.96875,10.344701 31.96875,10.274945 C 31.96875,10.085009 31.445427,9.9355289 30.78125,9.9355289 z "
       id="path3397" />
    <path
       style="opacity:0.25;fill:url(#linearGradient3441);fill-opacity:1;fill-rule:nonzero;stroke:none;stroke-width:1;stroke-linecap:round;stroke-linejoin:miter;stroke-miterlimit:4;stroke-dasharray:none;stroke-opacity:1"
       d="M 22.5,9.8911818 C 22.167912,9.8911818 21.846666,9.9450677 21.625,10.006179 C 21.836091,9.9583301 22.085237,9.9141814 22.375,9.9141814 C 23.039177,9.9141814 23.5625,10.069238 23.5625,10.259174 C 23.5625,10.354143 23.432603,10.447016 23.21875,10.512169 C 23.498982,10.445963 23.6875,10.346971 23.6875,10.236175 C 23.687501,10.046238 23.164177,9.8911818 22.5,9.8911818 z M 9.34375,9.9141814 C 9.1223579,9.9141814 8.925926,9.9310008 8.75,9.9601804 C 8.8924614,9.943199 9.052706,9.9371809 9.21875,9.9371809 C 9.882926,9.9371809 10.4375,10.092237 10.4375,10.282174 C 10.4375,10.377141 10.284166,10.470015 10.0625,10.535168 C 10.351594,10.468962 10.5625,10.36997 10.5625,10.259174 C 10.5625,10.069237 10.007926,9.9141814 9.34375,9.9141814 z M 13.46875,9.9141814 C 13.2514,9.9141814 13.053281,9.9319856 12.875,9.9601804 C 13.020391,9.943199 13.177706,9.9371809 13.34375,9.9371809 C 14.007926,9.9371809 14.53125,10.092237 14.53125,10.282174 C 14.53125,10.377141 14.401353,10.470015 14.1875,10.535168 C 14.467732,10.468962 14.65625,10.36997 14.65625,10.259174 C 14.65625,10.069237 14.132926,9.9141814 13.46875,9.9141814 z M 18.125,9.9141814 C 17.920362,9.9141814 17.733314,9.9328658 17.5625,9.9601804 C 17.699923,9.9439298 17.844977,9.9371809 18,9.9371809 C 18.664176,9.9371809 19.1875,10.115236 19.1875,10.305173 C 19.187501,10.400141 19.057603,10.474057 18.84375,10.535168 C 19.123982,10.473546 19.312501,10.36997 19.3125,10.259174 C 19.312501,10.069237 18.789176,9.9141814 18.125,9.9141814 z M 26.875,9.9141814 C 26.65765,9.9141814 26.459531,9.9319856 26.28125,9.9601804 C 26.426641,9.943199 26.583956,9.9371809 26.75,9.9371809 C 27.414176,9.9371809 27.9375,10.092237 27.9375,10.282174 C 27.9375,10.377141 27.807603,10.451057 27.59375,10.512169 C 27.873982,10.450546 28.062501,10.36997 28.0625,10.259174 C 28.062501,10.069237 27.539176,9.9141814 26.875,9.9141814 z M 30.90625,9.9141814 C 30.6889,9.9141814 30.490781,9.9319856 30.3125,9.9601804 C 30.457891,9.943199 30.615206,9.9371809 30.78125,9.9371809 C 31.445427,9.9371809 31.96875,10.092237 31.96875,10.282174 C 31.96875,10.377141 31.838853,10.451057 31.625,10.512169 C 31.905232,10.450546 32.09375,10.36997 32.09375,10.259174 C 32.093749,10.069237 31.570427,9.9141814 30.90625,9.9141814 z "
       id="path3432" />
    <path
       sodipodi:nodetypes="cccccc"
       style="opacity:0.1;fill:url(#linearGradient3451);fill-opacity:1;fill-rule:nonzero;stroke:none;stroke-width:0.40000001;stroke-linecap:round;stroke-linejoin:round;stroke-miterlimit:4;stroke-dasharray:none;stroke-opacity:1"
       d="M 5.2336218,12.63865 L 5.2353964,13.610492 L 34.670702,13.610492 L 34.670702,12.63865 L 34.693468,12.63865 L 5.2336218,12.63865 z "
       id="path3443" />
    <path
       style="opacity:0.5;fill:url(#radialGradient3475);fill-opacity:1;fill-rule:nonzero;stroke:none;stroke-width:0.40000001;stroke-linecap:round;stroke-linejoin:round;stroke-miterlimit:4;stroke-dasharray:none;stroke-opacity:1"
       d="M 7.03125,9.413377 L 5.21875,12.679307 L 34.65625,12.679307 L 34.6875,12.679307 L 32.9375,9.413377 L 7.03125,9.413377 z M 7.15625,9.459376 L 32.78125,9.4823755 L 34.34375,12.51831 L 34.3125,12.51831 L 5.5625,12.51831 L 7.15625,9.459376 z "
       id="path3453" />
    <path
       style="opacity:0.5;fill:url(#linearGradient3224);fill-opacity:1;fill-rule:nonzero;stroke:none;stroke-width:1;stroke-linecap:round;stroke-linejoin:round;stroke-miterlimit:4;stroke-dasharray:none;stroke-opacity:1"
       d="M 32.21875,15.5 L 32.21875,22.03125 L 7.46875,22.03125 L 32.3125,22.125 L 32.21875,15.5 z "
       id="rect2246"
       sodipodi:nodetypes="ccccc" />
    <path
       style="opacity:1;fill:#555753;fill-opacity:1;fill-rule:nonzero;stroke:none;stroke-width:1;stroke-linecap:round;stroke-linejoin:miter;stroke-miterlimit:4;stroke-dasharray:none;stroke-opacity:1"
       d="M 11.300399,9.9773743 C 10.530275,9.9773743 9.912103,10.180957 9.912103,10.425952 C 9.912103,10.434042 9.910758,10.44289 9.912103,10.450873 L 9.912103,11.938523 C 9.936736,12.176658 10.545886,12.37464 11.300399,12.37464 C 12.054911,12.37464 12.680994,12.176658 12.705625,11.938523 L 12.705625,10.450873 C 12.706971,10.44289 12.705625,10.434042 12.705625,10.425952 C 12.705625,10.180957 12.070523,9.9773743 11.300399,9.9773743 z "
       id="path2261"
       sodipodi:nodetypes="csccsccsc" />
    <path
       style="opacity:1;fill:#555555;fill-opacity:1;fill-rule:nonzero;stroke:none;stroke-width:1;stroke-linecap:round;stroke-linejoin:miter;stroke-miterlimit:4;stroke-dasharray:none;stroke-opacity:1"
       d="M 11.306847,9.923456 C 10.729254,9.923456 10.236543,10.029813 10.026582,10.190428 C 9.991267,10.216975 9.959826,10.240065 9.941231,10.268949 C 9.918462,10.301057 9.919894,10.329016 9.919894,10.363174 C 9.919894,10.371263 9.918548,10.386599 9.919894,10.394582 L 9.919894,11.941266 C 9.944527,12.179402 10.552334,12.380986 11.306847,12.380986 C 12.061359,12.380986 12.690506,12.179402 12.715138,11.941266 L 12.715138,10.394582 C 12.716484,10.386599 12.715138,10.371263 12.715138,10.363174 C 12.715138,10.118179 12.076971,9.923456 11.306847,9.923456 z "
       id="path3276"
       sodipodi:nodetypes="csssccsccsc" />
    <path
       transform="matrix(0.7246371,0,0,0.4610517,2.359043,8.1433132)"
       d="M 14.273859 4.9460583 A 1.9253113 0.9626556 0 1 1  10.423237,4.9460583 A 1.9253113 0.9626556 0 1 1  14.273859 4.9460583 z"
       sodipodi:ry="0.9626556"
       sodipodi:rx="1.9253113"
       sodipodi:cy="4.9460583"
       sodipodi:cx="12.348548"
       id="path2266"
       style="opacity:0.25;fill:url(#linearGradient3286);fill-opacity:1;fill-rule:nonzero;stroke:none;stroke-width:1;stroke-linecap:round;stroke-linejoin:miter;stroke-miterlimit:4;stroke-dasharray:none;stroke-opacity:1"
       sodipodi:type="arc" />
    <path
       style="opacity:0.15;fill:url(#linearGradient3289);fill-opacity:1;fill-rule:nonzero;stroke:none;stroke-width:1;stroke-linecap:round;stroke-linejoin:miter;stroke-miterlimit:4;stroke-dasharray:none;stroke-opacity:1"
       d="M 9.912103,10.450873 L 9.912103,11.938523 C 9.936736,12.176658 10.545886,12.37464 11.300399,12.37464 C 12.054911,12.37464 12.680994,12.176658 12.705625,11.938523 L 12.705625,10.450873 C 12.666219,10.684671 12.045095,10.86207 11.300399,10.86207 C 10.555704,10.86207 9.95151,10.684671 9.912103,10.450873 z "
       id="path3275"
       sodipodi:nodetypes="ccsccsc" />
    <path
       transform="matrix(0.5708697,0,0,0.3355574,42.062504,14.267522)"
       d="M -18.321599 -7.514751 A 3.9733589 2.4833493 0 1 1  -26.268317,-7.514751 A 3.9733589 2.4833493 0 1 1  -18.321599 -7.514751 z"
       sodipodi:ry="2.4833493"
       sodipodi:rx="3.9733589"
       sodipodi:cy="-7.514751"
       sodipodi:cx="-22.294958"
       id="path2243"
       style="opacity:0.75;fill:url(#radialGradient2253);fill-opacity:1;fill-rule:nonzero;stroke:none;stroke-width:0.30000001;stroke-linecap:round;stroke-linejoin:round;stroke-miterlimit:4;stroke-dasharray:none;stroke-opacity:1"
       sodipodi:type="arc" />
    <path
       sodipodi:nodetypes="csccsccsc"
       id="path2245"
       d="M 28.81487,9.9773743 C 28.044746,9.9773743 27.426574,10.180957 27.426574,10.425952 C 27.426574,10.434042 27.425229,10.44289 27.426574,10.450873 L 27.426574,11.938523 C 27.451207,12.176658 28.060357,12.37464 28.81487,12.37464 C 29.569382,12.37464 30.195465,12.176658 30.220096,11.938523 L 30.220096,10.450873 C 30.221442,10.44289 30.220096,10.434042 30.220096,10.425952 C 30.220096,10.180957 29.584994,9.9773743 28.81487,9.9773743 z "
       style="opacity:1;fill:#555753;fill-opacity:1;fill-rule:nonzero;stroke:none;stroke-width:1;stroke-linecap:round;stroke-linejoin:miter;stroke-miterlimit:4;stroke-dasharray:none;stroke-opacity:1" />
    <path
       sodipodi:nodetypes="csssccsccsc"
       id="path2247"
       d="M 28.821318,9.923456 C 28.243725,9.923456 27.751014,10.029813 27.541053,10.190428 C 27.505738,10.216975 27.474297,10.240065 27.455702,10.268949 C 27.432933,10.301057 27.434365,10.329016 27.434365,10.363174 C 27.434365,10.371263 27.433019,10.386599 27.434365,10.394582 L 27.434365,11.941266 C 27.458998,12.179402 28.066805,12.380986 28.821318,12.380986 C 29.57583,12.380986 30.204977,12.179402 30.229609,11.941266 L 30.229609,10.394582 C 30.230955,10.386599 30.229609,10.371263 30.229609,10.363174 C 30.229609,10.118179 29.591442,9.923456 28.821318,9.923456 z "
       style="opacity:1;fill:#555555;fill-opacity:1;fill-rule:nonzero;stroke:none;stroke-width:1;stroke-linecap:round;stroke-linejoin:miter;stroke-miterlimit:4;stroke-dasharray:none;stroke-opacity:1" />
    <path
       sodipodi:type="arc"
       style="opacity:0.25;fill:url(#linearGradient2255);fill-opacity:1;fill-rule:nonzero;stroke:none;stroke-width:1;stroke-linecap:round;stroke-linejoin:miter;stroke-miterlimit:4;stroke-dasharray:none;stroke-opacity:1"
       id="path2249"
       sodipodi:cx="12.348548"
       sodipodi:cy="4.9460583"
       sodipodi:rx="1.9253113"
       sodipodi:ry="0.9626556"
       d="M 14.273859 4.9460583 A 1.9253113 0.9626556 0 1 1  10.423237,4.9460583 A 1.9253113 0.9626556 0 1 1  14.273859 4.9460583 z"
       transform="matrix(0.7246371,0,0,0.4610517,19.873514,8.1433132)" />
    <path
       sodipodi:nodetypes="ccsccsc"
       id="path2251"
       d="M 27.426574,10.450873 L 27.426574,11.938523 C 27.451207,12.176658 28.060357,12.37464 28.81487,12.37464 C 29.569382,12.37464 30.195465,12.176658 30.220096,11.938523 L 30.220096,10.450873 C 30.18069,10.684671 29.559566,10.86207 28.81487,10.86207 C 28.070175,10.86207 27.465981,10.684671 27.426574,10.450873 z "
       style="opacity:0.15;fill:url(#linearGradient2257);fill-opacity:1;fill-rule:nonzero;stroke:none;stroke-width:1;stroke-linecap:round;stroke-linejoin:miter;stroke-miterlimit:4;stroke-dasharray:none;stroke-opacity:1" />
    <path
       style="opacity:0.15;fill:url(#linearGradient3380);fill-opacity:1;fill-rule:nonzero;stroke:none;stroke-width:1;stroke-linecap:round;stroke-linejoin:round;stroke-miterlimit:4;stroke-dasharray:none;stroke-opacity:1"
       d="M 28.3125,15.43998 C 27.696095,18.915823 19.246149,21.65873 8.90625,21.65873 C 8.402768,21.65873 7.900149,21.640318 7.40625,21.62748 L 7.40625,22.03373 L 32.21875,22.03373 L 32.21875,15.43998 L 28.3125,15.43998 z "
       id="rect3362" />
    <path
       style="opacity:0.25;fill:url(#linearGradient3245);fill-opacity:1;fill-rule:nonzero;stroke:none;stroke-width:0.40000001;stroke-linecap:round;stroke-linejoin:round;stroke-miterlimit:4;stroke-dasharray:none;stroke-opacity:1"
       d="M 5.53125,13.625 L 5.53125,28.9375 L 34.15625,28.9375 L 34.15625,13.625 L 5.53125,13.625 z M 7.40625,15.4375 L 28.3125,15.4375 L 32.21875,15.4375 L 32.21875,15.5 L 32.3125,22.125 L 7.46875,22.03125 L 7.40625,22.03125 L 7.40625,21.625 L 7.40625,15.4375 z "
       id="path2244" />
    <path
       id="path3237"
       d="M 5.878182,28.934797 L 5.878182,29.564399 L 33.775711,29.564399 L 33.775711,28.934797 L 5.878182,28.934797 z "
       style="opacity:0.1;fill:#000000;fill-opacity:1;fill-rule:nonzero;stroke:none;stroke-width:0.40000001;stroke-linecap:round;stroke-linejoin:round;stroke-miterlimit:4;stroke-dasharray:none;stroke-opacity:1"
       sodipodi:nodetypes="ccccc" />
    <path
       sodipodi:nodetypes="ccccccc"
       id="path3460"
       d="M 5.529587,28.922476 L 5.415754,28.922476 L 5.415754,29.807936 L 34.238139,29.807936 L 34.238139,28.922476 L 34.147072,28.922476 L 5.529587,28.922476 z "
       style="opacity:0.75;fill:url(#linearGradient3475);fill-opacity:1;fill-rule:nonzero;stroke:none;stroke-width:0.40000001;stroke-linecap:round;stroke-linejoin:round;stroke-miterlimit:4;stroke-dasharray:none;stroke-opacity:1" />
  </g>
</svg>
