<?xml version="1.0" encoding="UTF-8" standalone="no"?>
<!-- Created with Inkscape (http://www.inkscape.org/) -->
<svg
   xmlns:dc="http://purl.org/dc/elements/1.1/"
   xmlns:cc="http://web.resource.org/cc/"
   xmlns:rdf="http://www.w3.org/1999/02/22-rdf-syntax-ns#"
   xmlns:svg="http://www.w3.org/2000/svg"
   xmlns="http://www.w3.org/2000/svg"
   xmlns:xlink="http://www.w3.org/1999/xlink"
   xmlns:sodipodi="http://sodipodi.sourceforge.net/DTD/sodipodi-0.dtd"
   xmlns:inkscape="http://www.inkscape.org/namespaces/inkscape"
   width="40"
   height="40"
   id="svg2193"
   sodipodi:version="0.32"
   inkscape:version="0.45.1"
   version="1.0"
   sodipodi:docbase="/home/jra/Desktop"
   sodipodi:docname="tyre22edited.svg"
   inkscape:output_extension="org.inkscape.output.svg.inkscape">
  <defs
     id="defs2195">
    <linearGradient
       id="linearGradient4541">
      <stop
         style="stop-color:#535551;stop-opacity:0.58125001;"
         offset="0"
         id="stop4543" />
      <stop
         id="stop4550"
         offset="0.5"
         style="stop-color:#3c3e3b;stop-opacity:0.49803922;" />
      <stop
         style="stop-color:#2f312e;stop-opacity:0.26875001;"
         offset="1"
         id="stop4545" />
    </linearGradient>
    <linearGradient
       id="linearGradient5585">
      <stop
         id="stop5587"
         offset="0"
         style="stop-color:#000000;stop-opacity:1;" />
      <stop
         style="stop-color:#474747;stop-opacity:0.16078432;"
         offset="0.94117647"
         id="stop5589" />
      <stop
         id="stop5591"
         offset="1"
         style="stop-color:#dfdfdf;stop-opacity:0;" />
    </linearGradient>
    <linearGradient
       id="linearGradient5573">
      <stop
         id="stop5575"
         offset="0"
         style="stop-color:#010101;stop-opacity:1;" />
      <stop
         style="stop-color:#6c6c6c;stop-opacity:1;"
         offset="0.50588238"
         id="stop5577" />
      <stop
         id="stop5579"
         offset="1"
         style="stop-color:#111111;stop-opacity:1;" />
    </linearGradient>
    <linearGradient
       id="linearGradient4547">
      <stop
         style="stop-color:#373737;stop-opacity:1;"
         offset="0"
         id="stop4549" />
      <stop
         id="stop4555"
         offset="0.5"
         style="stop-color:#888888;stop-opacity:1;" />
      <stop
         style="stop-color:#3c3c3c;stop-opacity:1;"
         offset="1"
         id="stop4551" />
    </linearGradient>
    <linearGradient
       id="linearGradient4531">
      <stop
         id="stop4533"
         offset="0"
         style="stop-color:#ffffff;stop-opacity:0.00625;" />
      <stop
         style="stop-color:#ffffff;stop-opacity:0.49803922;"
         offset="0.83529413"
         id="stop4537" />
      <stop
         id="stop4535"
         offset="1"
         style="stop-color:#ffffff;stop-opacity:1;" />
    </linearGradient>
    <linearGradient
       id="linearGradient4509">
      <stop
         style="stop-color:#888888;stop-opacity:1;"
         offset="0"
         id="stop4511" />
      <stop
         id="stop4517"
         offset="0.94117647"
         style="stop-color:#d4d4d4;stop-opacity:0.16249999;" />
      <stop
         style="stop-color:#888888;stop-opacity:0;"
         offset="1"
         id="stop4513" />
    </linearGradient>
    <linearGradient
       inkscape:collect="always"
       id="linearGradient4501">
      <stop
         style="stop-color:#555555;stop-opacity:1"
         offset="0"
         id="stop4503" />
      <stop
         style="stop-color:#ffffff;stop-opacity:0"
         offset="1"
         id="stop4505" />
    </linearGradient>
    <linearGradient
       id="linearGradient3291">
      <stop
         id="stop3293"
         offset="0"
         style="stop-color:#000000;stop-opacity:1;" />
      <stop
         id="stop3295"
         offset="1"
         style="stop-color:#000000;stop-opacity:0;" />
    </linearGradient>
    <radialGradient
       inkscape:collect="always"
       xlink:href="#linearGradient3291"
       id="radialGradient2595"
       gradientUnits="userSpaceOnUse"
       gradientTransform="matrix(1,0,0,0.197802,0,92.82166)"
       cx="63.912209"
       cy="115.70919"
       fx="75.857941"
       fy="115.70919"
       r="63.912209" />
    <radialGradient
       inkscape:collect="always"
       xlink:href="#linearGradient4501"
       id="radialGradient4507"
       cx="16.697474"
       cy="16.988987"
       fx="16.697474"
       fy="16.988987"
       r="4.6519192"
       gradientTransform="matrix(2.1260654,-1.7172719e-2,1.7197921e-2,2.1291854,-17.777609,-16.982761)"
       gradientUnits="userSpaceOnUse" />
    <radialGradient
       inkscape:collect="always"
       xlink:href="#linearGradient4509"
       id="radialGradient4515"
       cx="21.262299"
       cy="16.792412"
       fx="21.262299"
       fy="16.792412"
       r="7.2988682"
       gradientTransform="matrix(0.9317595,0,0,1.1542323,1.3854336,-0.7038881)"
       gradientUnits="userSpaceOnUse" />
    <radialGradient
       inkscape:collect="always"
       xlink:href="#linearGradient4547"
       id="radialGradient4563"
       cx="20.843847"
       cy="16.997791"
       fx="20.843847"
       fy="16.997791"
       r="11.907206"
       gradientTransform="matrix(0.9282291,-3.281163e-8,4.6951345e-8,1.3282365,1.4773659,-3.6608933)"
       gradientUnits="userSpaceOnUse" />
    <linearGradient
       inkscape:collect="always"
       xlink:href="#linearGradient4541"
       id="linearGradient4548"
       x1="12.664735"
       y1="32.59375"
       x2="12.664735"
       y2="1.3125"
       gradientUnits="userSpaceOnUse"
       gradientTransform="matrix(0.8879164,0,0,0.8879164,2.3176379,3.8235736)" />
    <linearGradient
       inkscape:collect="always"
       xlink:href="#linearGradient4541"
       id="linearGradient6549"
       x1="13.351731"
       y1="1.2186784"
       x2="13.351731"
       y2="32.15625"
       gradientUnits="userSpaceOnUse"
       gradientTransform="matrix(0.8879164,0,0,0.8879164,2.3176379,3.8235736)" />
    <linearGradient
       inkscape:collect="always"
       xlink:href="#linearGradient4547"
       id="linearGradient6568"
       gradientUnits="userSpaceOnUse"
       x1="20.736124"
       y1="33.094086"
       x2="19.742517"
       y2="1.15625"
       gradientTransform="matrix(0.8879164,0,0,0.8879164,2.3176379,3.8235736)" />
    <radialGradient
       inkscape:collect="always"
       xlink:href="#linearGradient4547"
       id="radialGradient2596"
       gradientUnits="userSpaceOnUse"
       gradientTransform="matrix(0.6055443,7.9564096e-3,-1.7284888e-2,1.3155138,6.016246,-3.3606438)"
       cx="11.70197"
       cy="16.338678"
       fx="11.70197"
       fy="16.338678"
       r="13.885189" />
    <linearGradient
       inkscape:collect="always"
       xlink:href="#linearGradient4531"
       id="linearGradient2633"
       x1="8.2816448"
       y1="11.717455"
       x2="28.140471"
       y2="18.349289"
       gradientUnits="userSpaceOnUse"
       gradientTransform="matrix(0.8879164,0,0,0.8879164,2.3176379,3.8235736)" />
    <linearGradient
       inkscape:collect="always"
       xlink:href="#linearGradient4531"
       id="linearGradient2642"
       x1="14.181886"
       y1="10.936784"
       x2="29.003565"
       y2="24.09096"
       gradientUnits="userSpaceOnUse"
       gradientTransform="matrix(0.8879164,0,0,0.8879164,2.3176379,3.8235736)" />
    <radialGradient
       inkscape:collect="always"
       xlink:href="#linearGradient5585"
       id="radialGradient2268"
       gradientUnits="userSpaceOnUse"
       gradientTransform="matrix(0.8879164,0,0,1.1536632,2.317638,-0.6850999)"
       cx="21.46273"
       cy="16.966053"
       fx="21.46273"
       fy="16.966053"
       r="11.361388" />
    <radialGradient
       inkscape:collect="always"
       xlink:href="#linearGradient5573"
       id="radialGradient2270"
       gradientUnits="userSpaceOnUse"
       gradientTransform="matrix(1.4438274,1.3152667e-8,-1.862258e-8,1.8160566,-9.463469,-11.923298)"
       cx="21.19243"
       cy="16.966053"
       fx="21.19243"
       fy="16.966053"
       r="11.361388" />
  </defs>
  <sodipodi:namedview
     id="base"
     pagecolor="#ffffff"
     bordercolor="#666666"
     borderopacity="1.0"
     inkscape:pageopacity="0.0"
     inkscape:pageshadow="2"
     inkscape:zoom="17.3"
     inkscape:cx="20"
     inkscape:cy="20"
     inkscape:current-layer="layer1"
     showgrid="false"
     inkscape:grid-bbox="false"
     inkscape:document-units="px"
     width="40px"
     height="40px"
     gridempspacing="2"
     inkscape:window-width="1167"
     inkscape:window-height="914"
     inkscape:window-x="78"
     inkscape:window-y="53" />
  <metadata
     id="metadata2198">
    <rdf:RDF>
      <cc:Work
         rdf:about="">
        <dc:format>image/svg+xml</dc:format>
        <dc:type
           rdf:resource="http://purl.org/dc/dcmitype/StillImage" />
        <dc:creator>
          <cc:Agent>
            <dc:title>Jarle Akselsen</dc:title>
          </cc:Agent>
        </dc:creator>
        <cc:license
           rdf:resource="http://creativecommons.org/licenses/GPL/2.0/" />
      </cc:Work>
      <cc:License
         rdf:about="http://creativecommons.org/licenses/GPL/2.0/">
        <cc:permits
           rdf:resource="http://web.resource.org/cc/Reproduction" />
        <cc:permits
           rdf:resource="http://web.resource.org/cc/Distribution" />
        <cc:requires
           rdf:resource="http://web.resource.org/cc/Notice" />
        <cc:permits
           rdf:resource="http://web.resource.org/cc/DerivativeWorks" />
        <cc:requires
           rdf:resource="http://web.resource.org/cc/ShareAlike" />
        <cc:requires
           rdf:resource="http://web.resource.org/cc/SourceCode" />
      </cc:License>
    </rdf:RDF>
  </metadata>
  <g
     id="layer1"
     inkscape:label="Layer 1"
     inkscape:groupmode="layer">
    <path
       transform="matrix(0.1932264,0,0,0.3952894,11.08354,-14.197955)"
       d="M 127.82442 115.70919 A 63.912209 12.641975 0 1 1  0,115.70919 A 63.912209 12.641975 0 1 1  127.82442 115.70919 z"
       sodipodi:ry="12.641975"
       sodipodi:rx="63.912209"
       sodipodi:cy="115.70919"
       sodipodi:cx="63.912209"
       id="path2593"
       style="opacity:0.38139535;fill:url(#radialGradient2595);fill-opacity:1;fill-rule:nonzero;stroke:none;stroke-width:0;stroke-linecap:round;stroke-linejoin:round;stroke-miterlimit:4;stroke-dasharray:none;stroke-dashoffset:4;stroke-opacity:1"
       sodipodi:type="arc" />
    <path
       style="opacity:1;fill:#000000;fill-opacity:1;fill-rule:nonzero;stroke:none;stroke-width:0.2;stroke-linecap:round;stroke-linejoin:round;stroke-miterlimit:4;stroke-dasharray:none;stroke-opacity:1"
       d="M 20.436684,4.850227 L 18.88283,4.9057218 C 18.882828,4.9057218 18.01833,5.0255462 17.772934,5.0722062 L 16.385564,5.3219326 C 16.376649,5.323886 16.366833,5.3202811 16.357817,5.3219326 C 16.275768,5.3369828 16.188709,5.3569786 16.10809,5.3774274 L 15.969354,5.4051748 L 15.941606,5.4051748 C 14.697009,5.7468806 13.515958,6.3750992 12.445435,7.2365025 C 12.375866,7.2836717 12.319954,7.3537967 12.251204,7.4029868 C 9.68413,9.5577106 7.799137,13.077202 7.312168,17.253314 C 6.686444,22.619371 8.541728,27.608967 11.75175,30.294586 C 12.510734,30.927928 13.35389,31.413636 14.249016,31.765198 C 14.205684,31.726449 15.333562,32.193138 15.886112,32.37564 C 15.550342,32.231904 18.004401,33.004418 18.855082,33.12482 C 24.807018,33.967266 30.37782,28.342812 31.285912,20.555252 C 31.291338,20.508726 31.280987,20.46275 31.285912,20.416516 C 31.732928,16.583025 30.920249,12.938394 29.260354,10.177726 C 29.083356,9.8835946 28.901343,9.590964 28.705406,9.3175567 C 28.479731,9.0021954 28.233342,8.7149012 27.983974,8.4296402 C 28.169766,8.6419588 28.366186,8.8387122 28.538922,9.0678302 C 28.515296,9.0344801 28.507741,8.9897024 28.483426,8.9568407 C 28.214101,8.5928304 27.951459,8.2254994 27.651004,7.9024398 C 27.051712,7.2580522 26.390698,6.7237574 25.68094,6.2653438 C 25.31944,6.0318662 24.957712,5.8063798 24.571044,5.627154 C 24.199467,5.4549336 23.798342,5.3016348 23.405654,5.1831956 C 23.203827,5.1223202 23.002198,5.0903996 22.795212,5.0444588 C 22.581348,4.9969818 22.376085,4.9367278 22.157022,4.9057218 L 20.436684,4.850227 z M 12.251204,7.4029868 C 11.555812,7.9005293 10.90495,8.4907024 10.308886,9.1788198 C 10.907243,8.4910483 11.554171,7.9013677 12.251204,7.4029868 z M 10.308886,9.1788198 C 10.007201,9.527096 9.719492,9.8973007 9.448717,10.288716 C 9.717738,9.9027754 10.009708,9.5227056 10.308886,9.1788198 z M 9.448717,10.288716 C 9.181618,10.674818 8.933011,11.085216 8.699537,11.509603 C 8.934742,11.085137 9.179696,10.674656 9.448717,10.288716 z M 25.45896,6.3208386 C 25.503997,6.346899 25.553048,6.3494474 25.597698,6.3763334 C 25.743842,6.4640152 25.872026,6.5853401 26.013908,6.6815547 C 25.827148,6.5547514 25.65307,6.4327872 25.45896,6.3208386 z M 19.493272,11.676088 C 19.6574,11.706401 19.806967,11.738686 19.964978,11.787077 C 19.984645,11.793089 20.000906,11.808538 20.020472,11.814825 C 20.177982,11.86548 20.341408,11.913517 20.492178,11.981309 C 20.510629,11.989584 20.529328,12.000533 20.547672,12.009056 C 20.697798,12.078971 20.848865,12.172708 20.991631,12.258783 C 21.008875,12.269145 21.029994,12.275938 21.047126,12.28653 C 21.188746,12.374408 21.329654,12.461032 21.463336,12.564004 C 21.473985,12.572244 21.480489,12.583414 21.491084,12.591752 C 21.630239,12.700628 21.749719,12.828168 21.879548,12.952468 C 21.889056,12.961614 21.897839,12.97099 21.907295,12.980216 C 22.036739,13.105882 22.176343,13.228646 22.295758,13.368678 C 22.3042,13.378614 22.315115,13.38642 22.323506,13.396426 C 22.442341,13.537604 22.548352,13.685914 22.656474,13.840384 C 22.663976,13.851137 22.676774,13.857316 22.684222,13.868132 C 22.792092,14.02412 22.893048,14.199316 22.989444,14.367584 C 22.993438,14.374608 22.985467,14.388282 22.989444,14.395332 C 23.08752,14.567943 23.181533,14.738254 23.266917,14.922532 C 23.270429,14.93016 23.263428,14.942635 23.266917,14.95028 C 23.351735,15.134976 23.445208,15.310054 23.516644,15.505228 C 23.5196,15.513352 23.513711,15.524832 23.516644,15.532975 C 23.661377,15.932431 23.792812,16.345854 23.87736,16.781608 C 23.879034,16.790264 23.87571,16.800689 23.87736,16.809355 C 24.045622,17.691056 24.073637,18.642476 23.960602,19.611842 C 23.758187,21.347709 23.112189,22.864172 22.184768,23.995929 C 21.953772,24.278153 21.69781,24.542779 21.43559,24.772856 C 20.646511,25.465111 19.739635,25.902845 18.77184,26.021488 C 18.712384,25.998229 18.625086,25.981494 18.54986,25.938246 C 17.861203,25.541383 17.246599,24.968064 16.74628,24.273402 C 16.741857,24.26724 16.750686,24.251844 16.74628,24.245656 C 15.740756,22.839995 15.168166,20.93362 15.247922,18.862662 C 15.257857,18.60386 15.272763,18.348612 15.303416,18.085735 C 15.401618,17.243582 15.605796,16.42922 15.886112,15.69946 C 15.890668,15.687774 15.90926,15.683362 15.913858,15.671712 C 16.054107,15.310606 16.20731,14.971518 16.385564,14.645058 C 16.389373,14.63816 16.38174,14.624192 16.385564,14.617312 C 16.564839,14.291277 16.783182,13.988284 16.996007,13.701648 C 17.000332,13.695884 16.991668,13.679644 16.996007,13.6739 C 17.209701,13.387866 17.44694,13.138868 17.689692,12.896973 C 18.232503,12.361364 18.844889,11.958294 19.493272,11.676088 z M 28.594416,27.797321 C 28.416103,28.055927 28.25897,28.3052 28.067216,28.546501 C 28.01419,28.6136 27.929596,28.674076 27.872984,28.740732 C 28.125756,28.434064 28.36378,28.133575 28.594416,27.797321 z "
       id="path2543" />
    <path
       id="path5569"
       d="M 19.612356,6.0386704 C 15.364836,7.1160682 11.844656,11.648363 11.162883,17.495091 C 10.32378,24.691061 14.123885,31.13951 19.623673,31.917958 C 25.123464,32.696404 30.267021,27.505529 31.106128,20.309558 C 31.945231,13.113588 28.164746,6.6311522 22.664958,5.8527042 C 21.633748,5.7067458 20.592554,5.7900396 19.612356,6.0386704 z M 20.240761,11.385724 C 20.81369,11.240399 21.419894,11.196398 22.022641,11.281712 C 25.237297,11.736718 27.447408,15.520399 26.956948,19.726481 C 26.466489,23.932562 23.461023,26.977942 20.246369,26.522937 C 17.031711,26.06793 14.821602,22.284249 15.312061,18.078168 C 15.710559,14.660727 17.758064,12.01547 20.240761,11.385724 z "
       style="opacity:1;fill:url(#radialGradient2270);fill-opacity:1;fill-rule:nonzero;stroke:none;stroke-width:0.2;stroke-linecap:round;stroke-linejoin:round;stroke-miterlimit:4;stroke-dasharray:none;stroke-opacity:1" />
    <path
       style="opacity:0.4805825;fill:url(#radialGradient2596);fill-opacity:1;fill-rule:nonzero;stroke:none;stroke-width:0.2;stroke-linecap:round;stroke-linejoin:round;stroke-miterlimit:4;stroke-dasharray:none;stroke-opacity:1"
       d="M 20.436684,4.850227 L 18.88283,4.9057218 C 18.88283,4.9057217 18.01833,5.0255408 17.772934,5.0722062 L 16.385564,5.3219326 C 16.376646,5.3238852 16.366833,5.3202794 16.357817,5.3219326 C 16.275768,5.3369757 16.188709,5.3569778 16.10809,5.3774274 L 15.969354,5.4051748 L 15.941606,5.4051748 C 14.697007,5.7468806 13.515958,6.3751054 12.445435,7.2365025 C 12.376691,7.2831115 12.319132,7.3544174 12.251204,7.4029868 C 9.6841303,9.5577106 7.799137,13.077202 7.312168,17.253314 C 6.6864444,22.619371 8.5417281,27.608967 11.75175,30.294586 C 12.510738,30.927928 13.35389,31.41364 14.249016,31.765198 C 14.205685,31.726451 15.333562,32.193143 15.886112,32.37564 C 15.550341,32.231903 18.004401,33.004413 18.855082,33.12482 C 24.807017,33.967263 30.37782,28.342813 31.285912,20.555252 C 31.291338,20.508728 31.280987,20.462746 31.285912,20.416516 C 30.956273,23.243417 29.978236,25.779773 28.594416,27.797321 C 28.416105,28.055924 28.25897,28.305199 28.067216,28.546501 C 28.010149,28.618717 27.931182,28.697873 27.872984,28.76848 C 27.640782,29.048734 27.400808,29.291418 27.151552,29.545407 C 27.128662,29.56885 27.119082,29.605439 27.096056,29.628649 C 26.892132,29.833098 26.671991,30.025318 26.457866,30.211344 C 26.380923,30.278716 26.314083,30.340689 26.235888,30.405576 C 26.122184,30.499191 25.991391,30.594726 25.875172,30.68305 C 25.697969,30.818322 25.530701,30.949031 25.347972,31.071513 C 25.324223,31.087416 25.288567,31.111322 25.26473,31.127008 C 24.735835,31.475072 24.167291,31.752837 23.599886,31.987177 C 23.303765,32.108856 22.988473,32.203672 22.684222,32.292398 C 22.469022,32.355155 22.264652,32.440991 22.046032,32.48663 C 22.009878,32.494136 21.971286,32.507348 21.935042,32.514378 C 21.606293,32.578534 21.270885,32.601409 20.936136,32.625367 C 20.755013,32.637906 20.591498,32.652717 20.408936,32.653114 C 20.350681,32.653239 20.273086,32.654242 20.214704,32.653114 C 19.882092,32.647506 19.551243,32.617352 19.215798,32.569872 C 18.896618,32.524696 18.580033,32.45648 18.272387,32.37564 C 18.134868,32.339505 18.018988,32.27991 17.883924,32.236904 C 17.44848,32.092281 17.016681,31.91713 16.607544,31.709703 C 15.613709,31.202407 14.717267,30.51402 13.916046,29.656396 C 13.648974,29.370522 13.381008,29.058642 13.13912,28.740732 C 12.943053,28.483045 12.76282,28.213795 12.584172,27.936058 C 12.415507,27.673842 12.263991,27.4125 12.112466,27.131384 C 11.960944,26.850267 11.803744,26.565356 11.668508,26.271215 C 11.602338,26.127293 11.563962,25.974627 11.502024,25.827256 C 11.416616,25.621504 11.329302,25.401149 11.252298,25.189066 C 11.010585,24.531082 10.797293,23.875022 10.641854,23.163507 C 10.575729,22.860814 10.52493,22.530947 10.47537,22.220096 C 10.460771,22.128531 10.433005,22.034844 10.419876,21.942622 C 10.3839,21.684732 10.361017,21.428286 10.336633,21.165695 C 10.322333,21.015654 10.319287,20.87321 10.308886,20.721737 C 10.288748,20.428454 10.258582,20.13195 10.253391,19.83382 C 10.252737,19.796217 10.253804,19.760505 10.253391,19.722831 C 10.249479,19.365994 10.262967,18.975485 10.281139,18.612936 C 10.300763,18.221423 10.318118,17.844291 10.364381,17.447545 C 10.408657,17.067845 10.464149,16.678283 10.530865,16.309902 C 10.587355,15.999924 10.681187,15.695678 10.752844,15.394238 C 10.80753,15.163474 10.85606,14.953643 10.919328,14.7283 C 10.93417,14.675238 10.928802,14.611964 10.947076,14.561816 C 10.959936,14.517607 10.989385,14.467072 11.002571,14.42308 C 11.030286,14.330697 11.058059,14.236843 11.085813,14.145606 C 11.151008,13.94071 11.207895,13.762759 11.280044,13.56291 C 11.291146,13.531662 11.296312,13.483066 11.307792,13.45192 C 11.316677,13.427731 11.354293,13.420698 11.363287,13.396426 C 11.423551,13.234932 11.465081,13.082691 11.529772,12.92472 C 11.571928,12.819701 11.624633,12.693116 11.668508,12.591752 C 11.692104,12.537572 11.699889,12.478996 11.724003,12.425268 C 11.75379,12.358446 11.802359,12.295589 11.834992,12.231036 C 11.904985,12.08 11.982945,11.934377 12.056972,11.787077 C 12.069007,11.763983 12.072919,11.754837 12.084719,11.731583 C 12.165145,11.573876 12.253232,11.417345 12.334446,11.259876 C 12.401222,11.139299 12.459198,11.016874 12.528678,10.899159 C 12.614124,10.754519 12.691958,10.620387 12.778404,10.482948 C 12.820585,10.416593 12.874095,10.354057 12.91714,10.288716 C 12.963482,10.217955 13.007309,10.137336 13.055878,10.066736 C 13.101487,10.000023 13.147278,9.9365189 13.194614,9.8725045 C 13.306208,9.7154214 13.410984,9.5790091 13.527584,9.4285463 C 13.540049,9.4125514 13.570727,9.3892231 13.583078,9.3730515 C 13.81474,9.076887 14.054635,8.781787 14.30451,8.5128824 C 14.428587,8.3791533 14.56493,8.2518945 14.692974,8.124419 C 14.701876,8.1156447 14.684053,8.1054114 14.692974,8.0966716 C 14.898035,7.8968379 15.11621,7.7229946 15.331164,7.5417238 C 15.455985,7.4355397 15.591683,7.3361809 15.719627,7.2365025 C 15.837292,7.1455433 15.960178,7.0443787 16.080343,6.9590286 C 16.28109,6.8164443 16.483533,6.6970294 16.690786,6.5705652 C 17.147449,6.2919131 17.622137,6.0452649 18.105902,5.849133 C 18.113956,5.8510801 18.125425,5.8203441 18.13365,5.8213856 C 18.238297,5.7790818 18.333155,5.7208718 18.438872,5.6826487 C 18.710674,5.584375 18.965442,5.5034644 19.243546,5.4329222 C 19.500256,5.3678068 19.787579,5.3359546 20.04822,5.2941852 C 20.23458,5.2643202 20.414973,5.2558938 20.603168,5.2386904 C 20.678182,5.231834 20.749855,5.21572 20.825146,5.210943 C 20.986718,5.2019138 21.13408,5.1825396 21.296852,5.1831956 C 21.325925,5.1831052 21.378732,5.1829648 21.407842,5.1831956 C 21.75025,5.1882612 22.060215,5.2173884 22.406748,5.2664378 C 22.766841,5.3174052 23.143513,5.3920052 23.488896,5.488417 C 23.528285,5.4994778 23.560698,5.5045291 23.599886,5.5161644 C 23.721838,5.5521986 23.840653,5.6133974 23.960602,5.6549013 C 24.20038,5.7382501 24.42293,5.8278 24.654286,5.9323752 C 24.673073,5.9408664 24.718801,5.9237464 24.737528,5.9323752 C 24.985707,6.0461696 25.221203,6.1837222 25.45896,6.3208386 C 25.504,6.3469033 25.553048,6.3494544 25.597698,6.3763334 C 25.743843,6.4640178 25.872026,6.585341 26.013908,6.6815547 C 26.274156,6.8584765 26.517976,7.0599368 26.763088,7.2642499 C 27.023088,7.4809708 27.298188,7.684634 27.540015,7.9301872 C 27.592815,7.9837995 27.626854,8.0417442 27.678752,8.0966716 C 27.780202,8.2038085 27.886019,8.3175852 27.983974,8.4296402 C 28.169766,8.6419613 28.366186,8.8387114 28.538922,9.0678302 C 28.515296,9.0344765 28.507741,8.9897018 28.483426,8.9568407 C 28.214098,8.5928296 27.951459,8.225502 27.651004,7.9024398 C 27.051709,7.2580524 26.390698,6.7237512 25.68094,6.2653438 C 25.319439,6.0318645 24.957712,5.8063728 24.571044,5.627154 C 24.199467,5.4549293 23.798342,5.3016376 23.405654,5.1831956 C 23.203827,5.1223209 23.002198,5.0904058 22.795212,5.0444588 C 22.581347,4.9969854 22.376085,4.9367288 22.157022,4.9057218 L 20.436684,4.850227 z M 12.251204,7.4029868 C 11.55505,7.9007392 10.904342,8.4910172 10.308886,9.1788198 C 10.907243,8.4910483 11.554171,7.9013677 12.251204,7.4029868 z M 10.308886,9.1788198 C 10.007862,9.5265284 9.7186898,9.8979903 9.448717,10.288716 C 9.717738,9.9027754 10.009708,9.5227056 10.308886,9.1788198 z M 9.448717,10.288716 C 9.1824096,10.674137 8.9321796,11.08593 8.6995374,11.509603 C 8.9347422,11.085137 9.179696,10.674656 9.448717,10.288716 z M 28.705406,9.3175567 C 28.901344,9.5909659 29.083356,9.8835928 29.260354,10.177726 C 29.089425,9.874515 28.888765,9.6013569 28.705406,9.3175567 z "
       id="path3285" />
    <path
       sodipodi:nodetypes="ccc"
       id="path2276"
       d="M 10.956528,1.0198748 L 10.956528,-1.7748336 L 10.956528,1.0198748 z "
       style="fill:#ffffff;fill-opacity:0.75688076;fill-rule:nonzero;stroke:none;stroke-width:0.5;stroke-linecap:round;stroke-linejoin:round;stroke-miterlimit:4;stroke-dasharray:none;stroke-dashoffset:4;stroke-opacity:1" />
    <path
       sodipodi:nodetypes="cssssccssssc"
       id="path3290"
       d="M 19.252386,5.4456948 C 14.802737,6.5743601 11.088818,11.322821 10.374597,17.447775 C 9.4955586,24.98618 13.462574,31.755331 19.224084,32.570825 C 24.985592,33.386318 30.397007,27.946063 31.276044,20.407661 C 32.155084,12.869256 28.180883,6.073299 22.419377,5.2578056 C 21.339094,5.1049 20.279228,5.1852334 19.252386,5.4456948 z M 19.612356,6.0386704 C 20.592554,5.7900396 21.633748,5.7067458 22.664958,5.8527042 C 28.164746,6.6311522 31.945231,13.113588 31.106128,20.309558 C 30.267021,27.505529 25.123464,32.696404 19.623673,31.917958 C 14.123885,31.13951 10.32378,24.691061 11.162883,17.495091 C 11.844656,11.648363 15.364836,7.1160682 19.612356,6.0386704 z "
       style="opacity:1;fill:url(#radialGradient4563);fill-opacity:1;fill-rule:nonzero;stroke:none;stroke-width:0.2;stroke-linecap:round;stroke-linejoin:round;stroke-miterlimit:4;stroke-dasharray:none;stroke-opacity:1" />
    <path
       style="opacity:1;fill:url(#radialGradient4507);fill-opacity:1;fill-rule:nonzero;stroke:none;stroke-width:0.2;stroke-linecap:round;stroke-linejoin:round;stroke-miterlimit:4;stroke-dasharray:none;stroke-opacity:1"
       d="M 20.240761,11.385725 C 19.959389,11.457096 19.692971,11.5405 19.424264,11.661957 C 22.392663,12.165784 24.423181,15.692462 23.966541,19.608519 C 23.561712,23.080255 21.344835,25.713223 18.764051,26.029609 C 19.228155,26.268828 19.721313,26.448618 20.246369,26.522937 C 23.461023,26.977942 26.466489,23.932562 26.956948,19.726481 C 27.447408,15.520399 25.237296,11.736718 22.022641,11.281711 C 21.419894,11.196398 20.81369,11.240399 20.240761,11.385725 z "
       id="path3296" />
    <path
       style="opacity:0.38834953;fill:url(#radialGradient4515);fill-opacity:1;fill-rule:nonzero;stroke:none;stroke-width:0.2;stroke-linecap:round;stroke-linejoin:round;stroke-miterlimit:4;stroke-dasharray:none;stroke-opacity:1"
       d="M 20.07366,10.65489 C 17.344723,11.347095 15.069006,14.245733 14.630983,18.002126 C 14.091879,22.625378 16.517188,26.793391 20.050681,27.293526 C 23.584174,27.793662 26.904126,24.449243 27.443231,19.825991 C 27.982336,15.20274 25.530225,11.041909 21.996733,10.541771 C 21.334203,10.447995 20.703416,10.49515 20.07366,10.65489 z M 20.240761,11.385725 C 20.81369,11.240399 21.419894,11.196398 22.022641,11.281711 C 25.237297,11.736718 27.447408,15.520399 26.956948,19.726481 C 26.466489,23.932562 23.461022,26.977942 20.246369,26.522937 C 17.031714,26.067929 14.821602,22.284249 15.312061,18.078168 C 15.71056,14.660727 17.758064,12.01547 20.240761,11.385725 z "
       id="path3301" />
    <path
       style="opacity:1;fill:#000000;fill-opacity:1;fill-rule:nonzero;stroke:none;stroke-width:0.2;stroke-linecap:round;stroke-linejoin:round;stroke-miterlimit:4;stroke-dasharray:none;stroke-opacity:1"
       d="M 21.463336,5.1831956 L 21.463336,5.7936382 C 21.472857,5.7934278 21.48156,5.7938132 21.491084,5.7936382 L 21.491084,5.1831956 C 21.481553,5.1829816 21.472865,5.183375 21.463336,5.1831956 z M 20.492178,5.2386904 L 20.519926,5.849133 C 20.528848,5.8478776 20.538745,5.8503602 20.547672,5.849133 L 20.519926,5.2386904 C 20.51103,5.2395872 20.50107,5.2377652 20.492178,5.2386904 z M 22.434496,5.2664378 L 22.379,5.8213856 C 22.388171,5.8223224 22.397578,5.8204134 22.406748,5.8213856 L 22.462242,5.2664378 C 22.453399,5.2651272 22.443347,5.26772 22.434496,5.2664378 z M 19.52102,5.3774274 L 19.604262,6.0433648 C 19.612911,6.0411707 19.623351,6.045533 19.632009,6.0433648 L 19.548766,5.3774274 C 19.539827,5.3793702 19.529955,5.3754572 19.52102,5.3774274 z M 23.405654,5.4606696 L 23.322412,5.98787 C 23.331054,5.989858 23.341526,5.9858536 23.35016,5.98787 L 23.433402,5.488417 C 23.423137,5.4856226 23.415931,5.4634248 23.405654,5.4606696 z M 18.577608,5.6549013 L 18.716345,6.348586 C 18.727475,6.3443782 18.73295,6.3249986 18.744092,6.3208386 L 18.605356,5.6549013 C 18.596936,5.6577568 18.586021,5.65202 18.577608,5.6549013 z M 24.349066,5.7658908 L 24.238076,6.2653438 C 24.246279,6.2683024 24.257631,6.2623587 24.265823,6.2653438 L 24.349066,5.7658908 z M 17.689692,6.0156174 C 17.678663,6.0207398 17.67296,6.038197 17.661944,6.0433648 L 17.856176,6.7093021 C 17.867256,6.7037268 17.872829,6.687082 17.883924,6.6815547 L 17.689692,6.0156174 z M 25.236982,6.2098491 L 25.098244,6.62606 C 25.105752,6.6297883 25.118496,6.6223085 25.125992,6.62606 L 25.26473,6.2098491 C 25.257607,6.2059724 25.244114,6.2137062 25.236982,6.2098491 z M 16.774028,6.487323 L 17.023754,7.1810078 C 17.034791,7.1739701 17.040447,7.1602482 17.051502,7.1532604 L 16.801776,6.487323 C 16.794998,6.4913417 16.780798,6.4832866 16.774028,6.487323 z M 26.069404,6.7370495 L 25.930666,7.0977656 C 25.937067,7.1018979 25.952021,7.0936154 25.958414,7.0977656 L 26.09715,6.7370495 C 26.090645,6.7325282 26.075918,6.741553 26.069404,6.7370495 z M 15.969354,7.0145234 C 15.958892,7.0221559 15.952049,7.0345956 15.941606,7.0422708 L 16.246828,7.7359555 C 16.257057,7.7279802 16.264324,7.716139 16.274574,7.7082081 L 15.969354,7.0145234 z M 26.874078,7.347492 L 26.707594,7.6804608 C 26.713156,7.6849572 26.729787,7.6759501 26.73534,7.6804608 L 26.901826,7.3752394 C 26.892111,7.3668638 26.883818,7.3558252 26.874078,7.347492 z M 15.16468,7.6527134 L 15.525396,8.3463981 C 15.53484,8.3376397 15.543677,8.3273692 15.553142,8.3186507 L 15.192426,7.6527134 L 15.16468,7.6527134 z M 27.59551,8.0411768 L 27.456772,8.3186507 L 27.623258,8.0689242 C 27.614149,8.0594288 27.604645,8.0506314 27.59551,8.0411768 z M 14.443247,8.3741455 C 14.434127,8.3836346 14.424598,8.3923673 14.4155,8.4018929 L 14.83171,9.0400828 C 14.840589,9.0303539 14.850556,9.022027 14.859458,9.0123354 L 14.443247,8.3741455 z M 28.261448,8.7903563 L 28.094962,9.0400828 C 28.103323,9.0500168 28.114379,9.057858 28.12271,9.0678302 L 28.289194,8.8181037 C 28.28103,8.8079166 28.26964,8.8005079 28.261448,8.7903563 z M 13.749562,9.1510724 L 14.221268,9.761515 C 14.22931,9.7512391 14.240949,9.7440097 14.249016,9.7337676 L 13.77731,9.1510724 C 13.773594,9.1556141 13.753274,9.1465236 13.749562,9.1510724 z M 28.899638,9.5950306 L 28.705406,9.8170097 C 28.712677,9.8273673 28.72591,9.8343676 28.733152,9.8447571 L 28.899638,9.622778 C 28.895334,9.6163859 28.903949,9.6014121 28.899638,9.5950306 z M 13.13912,9.9557467 C 13.131903,9.9660447 13.118568,9.9731685 13.111372,9.9834941 L 13.638572,10.56619 C 13.645719,10.555508 13.65915,10.549096 13.66632,10.538443 L 13.13912,9.9557467 z M 29.426838,10.482948 L 29.260354,10.67718 L 29.454584,10.510695 C 29.448434,10.499756 29.433016,10.493861 29.426838,10.482948 z M 12.584172,10.843664 C 12.577558,10.854723 12.563014,10.860328 12.556424,10.871412 L 13.13912,11.398613 C 13.145477,11.387502 13.160485,11.381952 13.166868,11.370866 L 12.584172,10.843664 z M 29.898544,11.370866 L 29.704312,11.537351 C 29.713434,11.556023 29.723011,11.574107 29.732058,11.592845 L 29.92629,11.426361 C 29.917626,11.407813 29.907276,11.389353 29.898544,11.370866 z M 12.084719,11.75933 C 12.079056,11.770498 12.062612,11.775887 12.056972,11.787077 L 12.667414,12.258783 C 12.670997,12.251406 12.663822,12.238403 12.667414,12.231036 L 12.084719,11.75933 z M 30.287006,12.342026 L 30.120522,12.453014 C 30.128236,12.472232 30.140631,12.489233 30.14827,12.50851 L 30.314754,12.369772 C 30.310364,12.358358 30.291422,12.353421 30.287006,12.342026 z M 11.64076,12.702742 C 11.632663,12.721733 11.621048,12.739191 11.613014,12.758236 L 12.27895,13.1467 C 12.282166,13.138851 12.275724,13.12679 12.27895,13.118952 L 11.64076,12.702742 z M 30.619976,13.285436 L 30.453491,13.396426 C 30.456231,13.404912 30.450766,13.415678 30.453491,13.424174 L 30.619976,13.340932 C 30.614789,13.324253 30.625212,13.302082 30.619976,13.285436 z M 11.252298,13.701648 C 11.248425,13.71267 11.228401,13.718357 11.22455,13.729394 L 11.918234,14.09011 C 11.922005,14.078916 11.942189,14.073542 11.945982,14.062364 L 11.252298,13.701648 z M 30.89745,14.256595 L 30.730964,14.339838 C 30.735334,14.357189 30.726653,14.377948 30.730964,14.395332 L 30.89745,14.31209 C 30.893189,14.294536 30.901764,14.274119 30.89745,14.256595 z M 10.919328,14.7283 C 10.916919,14.736869 10.921725,14.747471 10.919328,14.756048 L 11.64076,15.033522 C 11.643776,15.022363 11.665472,15.01692 11.668508,15.005774 L 10.919328,14.7283 z M 31.119428,15.255501 L 30.952944,15.310996 C 30.956235,15.328801 30.94971,15.348658 30.952944,15.36649 L 31.119428,15.310996 C 31.116263,15.293151 31.12265,15.273319 31.119428,15.255501 z M 10.669602,15.754954 C 10.667238,15.765898 10.644199,15.771746 10.641854,15.782702 L 11.418782,16.00468 C 11.420609,15.995858 11.416941,15.985747 11.418782,15.976934 L 10.669602,15.754954 z M 31.285912,16.22666 L 31.119428,16.282154 C 31.121664,16.300434 31.117252,16.319347 31.119428,16.33765 L 31.285912,16.282154 C 31.283759,16.263866 31.288124,16.244925 31.285912,16.22666 z M 10.447623,16.837102 C 10.446261,16.846102 10.448972,16.855843 10.447623,16.86485 L 11.252298,17.003586 C 11.253618,16.994555 11.250962,16.984864 11.252298,16.97584 L 10.447623,16.837102 z M 31.369154,17.253314 L 31.174924,17.28106 C 31.175492,17.290384 31.174369,17.29948 31.174924,17.308808 L 31.369154,17.28106 C 31.368605,17.271717 31.36972,17.262652 31.369154,17.253314 z M 10.336633,17.891503 C 10.334952,17.909788 10.338258,17.928722 10.336633,17.946998 L 11.11356,18.002492 C 11.114433,17.992465 11.140417,17.984776 11.141308,17.974746 L 10.336633,17.891503 z M 31.396902,18.224472 L 31.20267,18.25222 C 31.202701,18.261349 31.202653,18.270833 31.20267,18.279966 L 31.396902,18.279966 C 31.396864,18.261591 31.396998,18.242831 31.396902,18.224472 z M 10.253391,18.973652 C 10.252785,18.992556 10.253937,19.010255 10.253391,19.029146 L 11.058066,19.001398 C 11.058331,18.992002 11.057784,18.983051 11.058066,18.973652 L 10.253391,18.973652 z M 31.174924,19.19563 C 31.173973,19.214069 31.175933,19.232673 31.174924,19.251126 L 31.369154,19.251126 C 31.369628,19.242053 31.368696,19.232447 31.369154,19.223378 L 31.174924,19.19563 z M 11.058066,20.000304 L 10.253391,20.083547 C 10.253682,20.092836 10.253086,20.102009 10.253391,20.111294 L 11.058066,20.028052 C 11.057761,20.018815 11.058355,20.009547 11.058066,20.000304 z M 31.119428,20.194536 C 31.118402,20.20386 31.120469,20.212958 31.119428,20.222284 L 31.285912,20.250032 C 31.286974,20.240145 31.312615,20.232168 31.31366,20.222284 L 31.119428,20.194536 z M 11.141308,20.99921 L 10.336633,21.193442 C 10.337492,21.202474 10.335762,21.212164 10.336633,21.22119 L 11.141308,21.054706 C 11.139606,21.036742 11.142951,21.017195 11.141308,20.99921 z M 30.980692,21.137948 C 30.97921,21.146858 30.982185,21.156792 30.980692,21.165695 L 31.147176,21.22119 C 31.150342,21.201759 31.171818,21.185156 31.174924,21.165695 L 30.980692,21.137948 z M 11.252298,22.025864 L 10.47537,22.27559 C 10.476806,22.284568 10.47392,22.294367 10.47537,22.303338 L 11.280044,22.081359 C 11.276869,22.061534 11.255403,22.045723 11.252298,22.025864 z M 30.78646,22.053612 C 30.782536,22.071183 30.790436,22.091566 30.78646,22.109106 L 30.980692,22.164601 C 30.982618,22.155803 30.978777,22.145659 30.980692,22.136854 L 30.78646,22.053612 z M 30.56448,22.997023 C 30.562001,23.00571 30.566973,23.016091 30.56448,23.02477 L 30.730964,23.108012 C 30.733339,23.099488 30.728603,23.088796 30.730964,23.080265 L 30.56448,22.997023 z M 11.446529,23.052518 L 10.69735,23.357739 C 10.70144,23.375551 10.693204,23.395452 10.69735,23.413234 L 11.446529,23.080265 C 11.444556,23.071582 11.448488,23.061208 11.446529,23.052518 z M 30.25926,23.912686 C 30.253366,23.929401 30.265203,23.951503 30.25926,23.968182 L 30.453491,24.051424 C 30.456348,24.043085 30.450645,24.032023 30.453491,24.023676 L 30.25926,23.912686 z M 11.696256,24.051424 L 10.974824,24.439887 C 10.977384,24.448275 10.97225,24.459254 10.974824,24.467634 L 11.696256,24.079171 C 11.693728,24.070708 11.698769,24.059896 11.696256,24.051424 z M 29.92629,24.800603 C 29.921668,24.811551 29.903187,24.817421 29.898544,24.82835 L 30.092774,24.967088 C 30.097421,24.955801 30.115898,24.950644 30.120522,24.93934 L 29.92629,24.800603 z M 12.029224,25.022582 L 11.33554,25.46654 C 11.339923,25.477932 11.358879,25.482915 11.363287,25.494288 L 12.029224,25.05033 C 12.026157,25.042188 12.032278,25.030734 12.029224,25.022582 z M 29.537828,25.660772 C 29.52861,25.679297 29.519362,25.697806 29.51008,25.716267 L 29.704312,25.855004 C 29.709754,25.84379 29.726639,25.838492 29.732058,25.827256 L 29.537828,25.660772 z M 12.417688,25.965994 L 11.779498,26.493194 C 11.783092,26.500743 11.775891,26.513403 11.779498,26.520942 L 12.445435,26.021488 C 12.436753,26.002885 12.426296,25.98466 12.417688,25.965994 z M 29.066122,26.520942 C 29.062066,26.527876 29.070187,26.541764 29.066122,26.548688 L 29.260354,26.74292 C 29.264343,26.735891 29.256374,26.722212 29.260354,26.715173 L 29.066122,26.520942 z M 12.91714,26.909405 L 12.27895,27.4921 C 12.285224,27.502884 12.3004,27.509089 12.306698,27.519848 L 12.91714,26.909405 z M 28.594416,27.325616 C 28.587287,27.336101 28.573822,27.342906 28.566668,27.353363 L 28.733152,27.575342 C 28.740081,27.564839 28.753994,27.558125 28.7609,27.547594 L 28.594416,27.325616 z M 13.444341,27.769574 L 12.889394,28.407764 L 13.472088,27.769574 C 13.469287,27.765447 13.447138,27.773705 13.444341,27.769574 z M 28.01172,28.074795 C 28.003721,28.084903 27.991995,28.092468 27.983974,28.102542 L 28.178205,28.352269 C 28.18619,28.341814 28.197991,28.335009 28.205952,28.324522 L 28.01172,28.074795 z M 14.054784,28.574248 L 13.55533,29.267933 C 13.559953,29.273379 13.5507,29.290245 13.55533,29.29568 L 14.082531,28.601996 C 14.074281,28.591926 14.063005,28.584354 14.054784,28.574248 z M 27.401278,28.796227 C 27.392428,28.805809 27.382404,28.814431 27.37353,28.823974 L 27.540015,29.101448 C 27.54856,29.091833 27.559239,29.083349 27.567762,29.073701 L 27.401278,28.796227 z M 14.720721,29.351175 L 14.276762,30.04486 C 14.286123,30.053943 14.295124,30.063564 14.30451,30.072607 L 14.748468,29.351175 C 14.743995,29.346653 14.725188,29.355707 14.720721,29.351175 z M 26.707594,29.489912 C 26.698,29.49869 26.689461,29.508922 26.679846,29.51766 L 26.84633,29.82288 C 26.851278,29.818132 26.869136,29.82764 26.874078,29.82288 L 26.707594,29.489912 z M 15.4699,30.017112 L 15.081437,30.766292 C 15.086908,30.770578 15.103706,30.762019 15.109184,30.766292 L 15.497648,30.04486 C 15.487534,30.036554 15.479987,30.025465 15.4699,30.017112 z M 25.958414,30.100354 L 26.124898,30.488818 C 26.135155,30.480522 26.142411,30.46941 26.152646,30.46107 L 25.986162,30.100354 C 25.980269,30.104877 25.964313,30.095847 25.958414,30.100354 z M 16.246828,30.599808 L 15.941606,31.348987 C 15.952412,31.355686 15.958524,31.370084 15.969354,31.376734 L 16.274574,30.627555 C 16.263773,30.620459 16.257604,30.606955 16.246828,30.599808 z M 25.209234,30.627555 C 25.198613,30.634254 25.192125,30.64865 25.181486,30.655302 L 25.347972,31.071513 L 25.209234,30.627555 z M 17.079249,31.09926 L 16.829522,31.820693 C 16.840621,31.82595 16.846152,31.843231 16.85727,31.84844 L 17.106996,31.09926 C 17.099699,31.095552 17.086538,31.102992 17.079249,31.09926 z M 24.349066,31.09926 L 24.487802,31.598714 C 24.498902,31.592777 24.504464,31.576949 24.51555,31.570966 L 24.376812,31.09926 C 24.369078,31.103115 24.356808,31.09543 24.349066,31.09926 z M 23.516644,31.459976 L 23.599886,31.987177 C 23.607556,31.98402 23.619968,31.990357 23.627634,31.987177 L 23.54439,31.459976 C 23.53626,31.46302 23.524782,31.456958 23.516644,31.459976 z M 17.994913,31.487724 L 17.800682,32.209156 C 17.81204,32.212904 17.817052,32.233203 17.828428,32.236904 L 18.02266,31.515472 C 18.011651,31.511476 18.005905,31.491768 17.994913,31.487724 z M 18.88283,31.765198 L 18.77184,32.48663 L 18.910576,31.765198 C 18.901953,31.763151 18.891444,31.767273 18.88283,31.765198 z M 22.60098,31.765198 L 22.656474,32.320146 C 22.664985,32.317717 22.675718,32.322601 22.684222,32.320146 L 22.628727,31.765198 C 22.61989,31.767399 22.609823,31.763027 22.60098,31.765198 z M 19.798494,31.931682 L 19.742998,32.59762 C 19.75284,32.598372 19.760907,32.62465 19.770746,32.625367 L 19.82624,31.931682 L 19.798494,31.931682 z M 21.685316,31.931682 L 21.713064,32.542125 C 21.723554,32.540381 21.730325,32.516161 21.74081,32.514378 L 21.713064,31.931682 C 21.704037,31.932847 21.694347,31.93055 21.685316,31.931682 z M 20.741904,31.987177 L 20.714158,32.625367 C 20.723455,32.624968 20.732611,32.625798 20.741904,32.625367 L 20.7974,31.987177 C 20.778607,31.987354 20.760712,31.987137 20.741904,31.987177 z "
       id="path3374" />
    <path
       style="opacity:0.98999999;fill:url(#linearGradient6568);fill-opacity:1;fill-rule:nonzero;stroke:none;stroke-width:0.2;stroke-linecap:round;stroke-linejoin:round;stroke-miterlimit:4;stroke-dasharray:none;stroke-opacity:1"
       d="M 20.436684,4.850227 L 18.88283,4.9057218 C 18.88282,4.9057218 18.018328,5.0255462 17.772934,5.0722062 L 17.356723,5.1554482 C 16.647784,5.3352726 15.964959,5.6342502 15.303416,5.98787 C 15.284939,5.9977462 15.266365,6.005654 15.247922,6.0156174 C 15.240683,6.0195144 15.227409,6.011715 15.220174,6.0156174 L 14.4155,6.1821017 C 14.305256,6.24256 14.189542,6.2835018 14.082531,6.348586 C 14.458822,6.1006354 14.838424,5.8025352 14.887206,5.7658908 C 14.029931,6.1235348 13.207614,6.6232098 12.445435,7.2365025 C 12.424347,7.250798 12.410948,7.2775065 12.38994,7.2919973 L 12.972636,7.1810078 L 12.972636,7.2087551 C 12.662762,7.4721112 12.351324,7.7491056 12.056972,8.0411768 L 12.667414,7.9301872 C 12.469027,8.1292492 12.272868,8.3526579 12.084719,8.5683772 L 11.474276,8.6793668 C 11.65304,8.4713368 11.840462,8.2624811 12.029224,8.0689242 L 12.001477,8.0689242 C 11.952116,8.1182604 12.024167,7.7656404 12.084719,7.5417238 C 11.866876,7.7317308 11.681384,7.9427131 11.474276,8.1521664 C 11.283064,8.3455368 11.10065,8.5533892 10.919328,8.7626089 L 11.446529,8.6793668 C 11.152788,9.0316121 10.885402,9.4341135 10.614107,9.8170097 L 11.169055,9.7337676 C 11.044348,9.9128692 10.926406,10.101614 10.808339,10.288716 L 10.253391,10.344211 C 10.365802,10.164958 10.467788,9.9889015 10.58636,9.8170097 C 10.573432,9.815669 10.560513,9.8143282 10.558613,9.8170097 C 10.578407,9.7890066 10.67954,9.2494518 10.725097,8.984588 C 10.485009,9.2746526 10.251441,9.5832258 10.031412,9.9002519 C 9.9149306,10.068083 9.781179,10.224691 9.6706962,10.399706 L 10.225644,10.344211 C 9.992779,10.72558 9.7973396,11.159532 9.587454,11.565098 L 10.114654,11.509603 C 10.036109,11.663719 9.9668696,11.823091 9.8926752,11.981309 L 9.3377274,12.009056 C 9.4092048,11.855172 9.4840738,11.715085 9.5597066,11.565098 C 9.5464411,11.563917 9.5331756,11.562736 9.5319592,11.565098 C 9.5339174,11.561296 9.5324973,10.935992 9.5319592,10.649432 C 9.3399826,10.967205 9.1483792,11.281498 8.9770114,11.620593 C 8.9051434,11.762793 8.8508384,11.918782 8.7827796,12.064551 C 8.7776319,12.075577 8.7601578,12.081253 8.7550322,12.092299 L 9.3377274,12.036804 C 9.1577468,12.436562 8.9950628,12.894078 8.8382744,13.313184 C 8.8487223,13.285225 8.7012198,12.62694 8.6440428,12.342026 C 8.4976838,12.672403 8.3817283,13.021738 8.2555792,13.368678 C 8.2119305,13.488724 8.1579737,13.607463 8.1168423,13.729394 C 8.1130626,13.740599 8.0928532,13.745921 8.089095,13.757142 L 8.6440428,13.757142 C 8.4973944,14.212946 8.4007448,14.72474 8.2833266,15.200006 C 8.282643,15.202768 8.2285156,15.197245 8.2278318,15.200006 C 8.2284237,15.197608 8.0784325,14.241445 8.0336002,13.951374 C 7.8949973,14.38252 7.7788179,14.830703 7.672884,15.283248 C 7.6533939,15.36651 7.6357302,15.449033 7.6173893,15.532975 C 7.6111176,15.56168 7.5957782,15.587434 7.5896419,15.616218 L 8.172337,15.616218 C 8.0770814,16.08272 8.0162946,16.57705 7.950358,17.059082 C 7.8249979,16.685826 7.6184354,15.973017 7.5618945,15.782702 C 7.4730855,16.220091 7.3965427,16.660429 7.3399154,17.114576 C 7.3339854,17.162134 7.3177338,17.205582 7.312168,17.253314 C 7.3078527,17.290321 7.3162477,17.327332 7.312168,17.364302 C 7.3080034,17.402043 7.2883405,17.437591 7.2844206,17.475292 L 7.8948632,17.530787 C 7.8472354,18.023341 7.7982934,18.515798 7.7838736,19.001398 C 7.6057525,18.595192 7.3609248,17.870937 7.2844206,17.641776 C 7.2404881,18.106079 7.2088415,18.572489 7.2011784,19.029146 C 7.1997933,19.111518 7.2014093,19.196802 7.2011784,19.278872 C 7.2010734,19.316298 7.2010453,19.3525 7.2011784,19.389862 L 7.811621,19.473104 C 7.8163802,19.963874 7.829628,20.435766 7.8671158,20.915968 C 7.6481565,20.492727 7.2635696,19.638057 7.2011784,19.500852 C 7.2058733,19.973539 7.2147535,20.427592 7.2566732,20.888222 C 7.2651941,20.981852 7.2744032,21.072633 7.2844206,21.165695 C 7.2853671,21.174875 7.2834151,21.184236 7.2844206,21.193442 C 7.287548,21.222063 7.3088999,21.24812 7.312168,21.276684 L 7.8948632,21.387674 C 7.9536522,21.877804 8.0525038,22.383329 8.1445897,22.858286 C 7.9369029,22.505069 7.4137721,21.571194 7.312168,21.387674 C 7.3701953,21.867408 7.4651582,22.340846 7.5618945,22.802791 C 7.5831758,22.904416 7.5942922,23.007348 7.6173893,23.108012 C 7.6214378,23.125657 7.6132854,23.145892 7.6173893,23.163507 L 8.2555792,23.329992 C 8.3671016,23.793196 8.4739712,24.273027 8.6162954,24.717361 C 8.3435518,24.318682 7.7169631,23.356855 7.6451367,23.24675 C 7.7581425,23.720072 7.8816269,24.184838 8.0336002,24.634119 C 8.0494142,24.680871 8.072872,24.726388 8.089095,24.772856 C 8.1269833,24.865374 8.1657635,24.957919 8.2000844,25.05033 C 8.2072101,25.069515 8.2206359,25.086691 8.2278318,25.105824 L 8.8382744,25.272309 C 8.9952936,25.68506 9.1550208,26.073276 9.3377274,26.465446 L 9.809433,26.604184 C 9.8994856,26.791759 9.98984,26.977954 10.086907,27.159132 L 9.5597066,27.020394 C 9.4616984,26.837332 9.3730488,26.655071 9.2822326,26.465446 L 9.3377274,26.465446 C 9.128777,26.19405 8.4771534,25.487182 8.2833266,25.272309 C 8.4230583,25.631112 8.5910174,25.987688 8.7550322,26.32671 C 8.8100763,26.440487 8.8638292,26.548287 8.9215166,26.659678 C 8.9510694,26.72299 8.9711063,26.791359 9.0047588,26.85391 C 9.0147046,26.872397 9.0224871,26.890988 9.0325062,26.909405 L 9.6152014,27.075889 L 9.6429488,27.075889 C 9.8362126,27.426941 10.067204,27.77281 10.281139,28.102542 C 9.9517855,27.776664 9.2462179,27.111631 9.088001,26.9649 C 9.276669,27.307112 9.4573712,27.647401 9.6706962,27.963806 C 9.8067648,28.165627 9.9431765,28.357135 10.086907,28.546501 C 10.09476,28.55677 10.106775,28.564012 10.114654,28.574248 C 10.134857,28.600639 10.149563,28.631207 10.170149,28.65749 C 10.186047,28.677788 10.209638,28.692824 10.225644,28.712985 L 10.780592,28.87947 L 10.752844,28.851722 C 10.572535,28.620364 10.419485,28.378502 10.253391,28.13029 L 10.752844,28.296774 C 10.921336,28.547441 11.09709,28.784681 11.280044,29.018206 L 10.808339,28.87947 C 11.070426,29.207685 11.35598,29.553303 11.64076,29.850628 L 12.223456,30.04486 C 12.459997,30.281285 12.691326,30.501363 12.944888,30.710797 L 12.306698,30.488818 C 12.075538,30.292788 11.857342,30.069606 11.64076,29.850628 C 11.426388,29.626817 10.500648,28.932076 10.281139,28.76848 C 10.536807,29.086189 10.804071,29.402803 11.085813,29.684144 C 11.095172,29.693489 11.104184,29.702594 11.11356,29.711891 C 11.320636,29.917167 11.531562,30.110369 11.75175,30.294586 C 12.494724,30.914571 13.31934,31.387261 14.19352,31.73745 C 13.874786,31.578897 13.57744,31.380757 13.277856,31.182503 C 13.367865,31.213415 13.684532,31.341752 13.916046,31.432229 C 14.537029,31.826876 15.192471,32.146541 15.886112,32.37564 C 15.439684,32.18453 15.023181,31.944661 14.609732,31.681956 C 14.746976,31.732775 14.862486,31.785035 14.970448,31.820693 C 14.832226,31.761521 15.352686,31.905926 15.830616,32.042672 C 16.331596,32.325173 16.840852,32.583776 17.38447,32.764104 C 17.948626,32.920171 18.518996,33.07725 18.855082,33.12482 C 24.807017,33.967263 30.377822,28.342814 31.285912,20.555252 C 31.291338,20.508726 31.280984,20.46275 31.285912,20.416516 C 30.956274,23.243415 29.978242,25.779773 28.594416,27.797321 C 28.416104,28.055924 28.25897,28.305199 28.067216,28.546501 C 28.01014,28.618719 27.931178,28.697873 27.872984,28.76848 C 27.640794,29.048732 27.400808,29.291418 27.151552,29.545407 C 27.128652,29.568848 27.11908,29.605439 27.096056,29.628649 C 26.892129,29.833099 26.671988,30.025318 26.457866,30.211344 C 26.38092,30.278719 26.314078,30.340689 26.235888,30.405576 C 26.122182,30.499191 25.991391,30.594726 25.875172,30.68305 C 25.69797,30.818326 25.530696,30.949031 25.347972,31.071513 C 25.32422,31.087416 25.28857,31.111322 25.26473,31.127008 C 24.735832,31.475071 24.167291,31.752837 23.599886,31.987177 C 23.303766,32.108857 22.988466,32.203672 22.684222,32.292398 C 22.469018,32.355159 22.264654,32.440991 22.046032,32.48663 C 22.009876,32.494139 21.971287,32.507348 21.935042,32.514378 C 21.6063,32.578534 21.27089,32.601409 20.936136,32.625367 C 20.755019,32.637906 20.5915,32.652717 20.408936,32.653114 C 20.35068,32.653239 20.273094,32.654242 20.214704,32.653114 C 19.8821,32.647503 19.551244,32.617352 19.215798,32.569872 C 18.896628,32.524693 18.580032,32.45648 18.272387,32.37564 C 18.134866,32.339501 18.018984,32.27991 17.883924,32.236904 C 17.448472,32.092278 17.016686,31.91713 16.607544,31.709703 C 15.805702,31.30041 15.063945,30.766937 14.387752,30.128102 L 13.77731,30.57206 L 13.860552,30.599808 C 14.133835,30.859035 14.398922,31.096769 14.692974,31.32124 L 13.610826,30.932776 C 13.348206,30.714598 13.078271,30.513872 12.833898,30.266839 L 13.749562,30.57206 C 13.435178,30.264111 13.12272,29.917438 12.833898,29.573154 L 14.276762,30.017112 C 14.15424,29.897843 14.034406,29.783091 13.916046,29.656396 C 13.64897,29.37052 13.381006,29.058642 13.13912,28.740732 C 12.975442,28.525613 12.817312,28.304242 12.667414,28.074795 L 12.251204,28.740732 L 12.251204,28.76848 L 12.306698,28.76848 C 12.492522,29.035012 12.687312,29.298824 12.889394,29.545407 L 11.945982,29.240186 C 12.196902,29.562499 12.446265,29.868335 12.722909,30.15585 C 9.7684592,27.349884 8.095487,22.544471 8.6995374,17.364302 C 9.4205808,11.180829 13.142037,6.3781404 17.634197,5.2386904 C 18.109612,5.1180998 18.585553,5.0474652 19.077062,5.0167114 C 18.896269,5.0401292 18.728661,5.0928208 18.54986,5.1277009 C 18.763917,5.085341 18.972061,5.04277 19.18805,5.0167114 C 19.214633,5.0100778 19.244572,5.0215096 19.271293,5.0167114 C 18.796506,5.155182 17.313233,5.6424528 17.051502,5.7658908 C 17.266937,5.6642954 17.496268,5.5774394 17.717439,5.488417 L 16.663038,5.710396 C 16.187988,5.9177362 15.72365,6.1735164 15.275668,6.4595756 L 16.163586,6.2653438 C 15.938108,6.4052972 15.715507,6.5508002 15.497648,6.7093021 L 14.665226,6.8757864 C 14.063423,7.3211174 13.504316,7.8528071 12.972636,8.4296402 C 13.188576,8.1947331 13.410218,7.9774599 13.638572,7.7637029 L 14.4155,7.624966 C 14.181516,7.8429761 13.970689,8.0786469 13.749562,8.3186507 L 12.972636,8.4296402 C 12.164051,9.3068911 11.434344,10.311265 10.836086,11.454108 L 11.585266,11.370866 C 11.49778,11.53656 11.417992,11.699769 11.33554,11.87032 L 10.614107,11.925814 C 10.40639,12.35762 10.205448,12.795906 10.031412,13.257689 L 10.752844,13.202194 C 10.698442,13.345672 10.66502,13.500002 10.614107,13.646152 L 9.8926752,13.646152 C 9.712479,14.163068 9.5572349,14.705769 9.4209696,15.255501 L 10.114654,15.255501 C 10.090592,15.354432 10.081659,15.46085 10.05916,15.560722 L 9.3377274,15.560722 C 9.2195253,16.084423 9.1334159,16.622017 9.0602536,17.170071 L 9.7539383,17.197818 C 9.741685,17.290774 9.7371034,17.381697 9.726191,17.475292 C 9.7251166,17.4845 9.7272476,17.493832 9.726191,17.50304 L 9.0047588,17.475292 C 8.9386347,18.042354 8.9079391,18.611151 8.8937692,19.167883 L 9.6152014,19.223378 C 9.6127152,19.334838 9.615663,19.44541 9.6152014,19.556346 L 8.8937692,19.473104 C 8.8887396,20.034943 8.9038725,20.591924 8.949264,21.137948 L 9.6984436,21.248938 C 9.707598,21.351092 9.7153228,21.452652 9.726191,21.554158 L 8.9770114,21.443169 C 9.0343847,22.013311 9.1170419,22.56128 9.2267379,23.108012 L 10.003665,23.24675 C 10.028722,23.366794 10.03167,23.488714 10.05916,23.607466 L 9.30998,23.468728 C 9.4282447,23.997953 9.5611997,24.521738 9.726191,25.022582 L 10.503118,25.216814 C 10.554457,25.366727 10.614241,25.513733 10.669602,25.660772 L 9.8649278,25.46654 C 10.032222,25.928274 10.242145,26.367082 10.447623,26.798415 L 11.169055,26.992647 C 10.970544,26.577275 10.784676,26.126549 10.614107,25.68852 L 11.529772,25.938246 C 11.516923,25.902502 11.51687,25.862585 11.502024,25.827256 C 11.416615,25.621506 11.329298,25.401149 11.252298,25.189066 C 11.108482,24.797592 10.981323,24.398127 10.863834,23.995929 L 10.419876,25.133572 C 10.269685,24.67261 10.149621,24.171352 10.031412,23.690708 L 10.836086,23.857192 C 10.771322,23.626718 10.69449,23.404473 10.641854,23.163507 C 10.575723,22.860816 10.524925,22.530947 10.47537,22.220096 C 10.460764,22.128531 10.433008,22.034844 10.419876,21.942622 C 10.416066,21.915304 10.42341,21.886674 10.419876,21.85938 L 9.9204226,23.191254 C 9.8218372,22.689004 9.7606598,22.156152 9.6984436,21.6374 L 10.392128,21.74839 C 10.369415,21.555402 10.354907,21.362396 10.336633,21.165695 C 10.322338,21.015655 10.319284,20.873216 10.308886,20.721737 C 10.288748,20.428458 10.258577,20.131956 10.253391,19.83382 L 9.6152014,21.165695 C 9.577607,20.678486 9.5643948,20.165048 9.5597066,19.667336 L 10.253391,19.750578 C 10.253427,19.741344 10.253489,19.732252 10.253391,19.722831 C 10.249467,19.365986 10.262963,18.97548 10.281139,18.612936 C 10.294679,18.342654 10.314986,18.076021 10.336633,17.808261 L 9.5319592,19.140136 C 9.5490072,18.644403 9.5919024,18.116652 9.6429488,17.61403 L 10.336633,17.669524 C 10.343586,17.594859 10.355537,17.5234 10.364381,17.447545 C 10.408652,17.067846 10.464147,16.67829 10.530865,16.309902 C 10.57202,16.08407 10.639573,15.864842 10.69735,15.643964 L 9.726191,17.114576 C 9.7968246,16.625254 9.8477466,16.117322 9.94817,15.643964 L 10.69735,15.643964 C 10.718882,15.561664 10.73339,15.476068 10.752844,15.394238 C 10.807531,15.163468 10.856056,14.953636 10.919328,14.7283 C 10.934174,14.67523 10.928802,14.611957 10.947076,14.561816 C 10.959951,14.517607 10.989386,14.467076 11.002571,14.42308 C 11.030282,14.3307 11.058056,14.236848 11.085813,14.145606 C 11.128646,14.010962 11.15444,13.882374 11.196802,13.757142 L 10.086907,15.144512 C 10.212032,14.661352 10.348185,14.192336 10.503118,13.729394 L 11.252298,13.6739 C 11.264799,13.637984 11.266646,13.600026 11.280044,13.56291 C 11.291144,13.531664 11.296312,13.48306 11.307792,13.45192 C 11.31668,13.427734 11.354292,13.420702 11.363287,13.396426 C 11.423558,13.234932 11.465078,13.082698 11.529772,12.92472 C 11.57192,12.819706 11.624636,12.693116 11.668508,12.591752 C 11.692109,12.537571 11.699887,12.478996 11.724003,12.425268 C 11.753792,12.358442 11.802362,12.295588 11.834992,12.231036 C 11.887486,12.117755 11.945041,12.008248 12.001477,11.898067 L 10.669602,13.1467 C 10.837596,12.717019 11.032076,12.306766 11.22455,11.898067 C 11.226761,11.89337 11.250078,11.902764 11.252298,11.898067 L 12.029224,11.842572 C 12.038574,11.824201 12.04772,11.805493 12.056972,11.787077 C 12.069003,11.763983 12.072918,11.754837 12.084719,11.731583 C 12.165146,11.573871 12.253236,11.41734 12.334446,11.259876 C 12.401226,11.139297 12.459198,11.016871 12.528678,10.899159 C 12.614122,10.754518 12.691956,10.620389 12.778404,10.482948 C 12.82058,10.416594 12.874094,10.354058 12.91714,10.288716 C 12.963481,10.217958 13.007308,10.137344 13.055878,10.066736 C 13.041786,10.079877 13.013186,10.074932 13.000383,10.094484 L 11.529772,11.343118 C 11.748847,10.938361 12.008278,10.528756 12.251204,10.149979 L 13.055878,10.038989 C 13.09721,9.9791078 13.151755,9.9304677 13.194614,9.8725045 C 13.306208,9.7154232 13.410982,9.5790037 13.527584,9.4285463 C 13.54004,9.412546 13.570727,9.3892293 13.583078,9.3730515 C 13.814744,9.076887 14.054632,8.7817879 14.30451,8.5128824 C 14.397564,8.4125834 14.483807,8.3035028 14.581984,8.2076612 L 12.722909,9.4285463 C 13.005408,9.0529399 13.332038,8.7149545 13.638572,8.3741455 L 14.581984,8.2076612 C 14.614712,8.1757139 14.660964,8.1562863 14.692974,8.124419 C 14.70187,8.1156464 14.684059,8.1054087 14.692974,8.0966716 C 14.898038,7.8968371 15.116208,7.7230008 15.331164,7.5417238 C 15.455987,7.4355468 15.591678,7.33618 15.719627,7.2365025 C 15.837285,7.1455444 15.960182,7.0443752 16.080343,6.9590286 C 16.281084,6.8164381 16.483528,6.6970311 16.690786,6.5705652 C 17.14745,6.2919192 17.622139,6.0452649 18.105902,5.849133 C 18.113956,5.8510776 18.125419,5.8203468 18.13365,5.8213856 C 18.238282,5.7790853 18.333156,5.7208735 18.438872,5.6826487 C 18.710672,5.5843741 18.965442,5.5034582 19.243546,5.4329222 C 19.500251,5.3678024 19.78758,5.3359528 20.04822,5.2941852 C 20.234584,5.2643246 20.414974,5.2558982 20.603168,5.2386904 C 20.678188,5.2318358 20.749852,5.21572 20.825146,5.210943 C 20.98672,5.2019218 21.13408,5.1825386 21.296852,5.1831956 C 21.325922,5.1831068 21.378736,5.1829648 21.407842,5.1831956 C 21.75024,5.1882568 22.06022,5.2173894 22.406748,5.2664378 C 22.766842,5.3174042 23.143514,5.3919982 23.488896,5.488417 C 23.528284,5.4994716 23.560693,5.5045326 23.599886,5.5161644 C 23.721832,5.5522048 23.840654,5.6133912 23.960602,5.6549013 C 24.200374,5.73825 24.422931,5.8278052 24.654286,5.9323752 C 24.673074,5.9408726 24.718802,5.9237446 24.737528,5.9323752 C 24.98571,6.0461706 25.221204,6.1837177 25.45896,6.3208386 C 25.503996,6.346899 25.553044,6.3494474 25.597698,6.3763334 C 25.74384,6.4640152 25.87202,6.5853401 26.013908,6.6815547 C 26.274148,6.858481 26.517978,7.0599403 26.763088,7.2642499 C 27.023096,7.4809726 27.298182,7.684634 27.540015,7.9301872 C 27.59281,7.9837996 27.626854,8.0417451 27.678752,8.0966716 C 27.780206,8.2038076 27.886028,8.3175852 27.983974,8.4296402 C 28.16977,8.6419588 28.366186,8.8387122 28.538922,9.0678302 C 28.515294,9.0344801 28.507738,8.9897024 28.483426,8.9568407 C 28.214094,8.5928304 27.951458,8.2254994 27.651004,7.9024398 C 27.051706,7.2580522 26.390696,6.7237485 25.68094,6.2653438 C 25.319442,6.0318662 24.957714,5.8063798 24.571044,5.627154 C 24.199452,5.4549336 23.798344,5.3016348 23.405654,5.1831956 C 23.20383,5.1223202 23.002194,5.0903996 22.795212,5.0444588 C 22.581348,4.9969818 22.376088,4.9367278 22.157022,4.9057218 L 20.436684,4.850227 z M 11.169055,26.992647 L 11.252298,27.020394 C 11.351184,27.220721 11.450746,27.41011 11.557518,27.60309 L 10.725097,27.353363 C 10.935278,27.748474 11.177134,28.128323 11.418782,28.491006 L 12.223456,28.740732 C 11.975638,28.378569 11.723701,28.0206 11.502024,27.630837 L 12.584172,27.908311 C 12.420689,27.652857 12.2601,27.405285 12.112466,27.131384 C 11.960952,26.850269 11.803738,26.565356 11.668508,26.271215 C 11.644028,26.217985 11.632476,26.159643 11.613014,26.10473 L 11.169055,26.992647 z M 12.084719,7.5417238 C 12.085337,7.5394392 12.111854,7.5439809 12.112466,7.5417238 C 12.116754,7.5259269 12.108509,7.5004242 12.112466,7.486229 C 11.858501,7.6749228 11.625464,7.878641 11.391034,8.0966716 C 11.615995,7.8978005 11.849088,7.7176946 12.084719,7.5417238 z M 16.357817,5.3219326 C 16.275764,5.3369828 16.188714,5.3569786 16.10809,5.3774274 L 15.969354,5.4051748 L 15.941606,5.4051748 C 15.630454,5.4906012 15.328411,5.5899858 15.025942,5.710396 L 15.358911,5.6826487 C 15.683471,5.538309 16.024368,5.4250286 16.357817,5.3219326 z M 16.524302,6.5705652 L 14.360005,7.5972186 C 14.688401,7.2972005 15.038506,7.024619 15.386658,6.7647969 L 16.524302,6.5705652 z M 14.138026,6.6815547 C 14.07853,6.7236348 14.030343,6.7768664 13.971542,6.8202916 C 13.854967,6.9063822 13.724358,6.9787217 13.610826,7.0700182 L 13.000383,7.1810078 C 13.142156,7.0616895 13.268676,6.9297806 13.416594,6.8202916 L 14.138026,6.6815547 z M 28.705406,9.3175567 C 28.901334,9.590964 29.083356,9.8835946 29.260354,10.177726 C 29.08943,9.8745112 28.88876,9.6013615 28.705406,9.3175567 z M 11.391034,13.007962 L 11.418782,13.007962 L 11.418782,13.063458 C 11.40913,13.09092 11.401956,13.118153 11.391034,13.1467 L 11.391034,13.007962 z M 9.3377274,13.285436 C 9.2913782,13.41169 9.2426404,13.545614 9.1989906,13.6739 L 8.6717901,13.701648 C 8.7135222,13.577374 8.7662289,13.463286 8.810527,13.340932 L 9.3377274,13.285436 z M 8.2278318,15.283248 L 8.7550322,15.283248 C 8.7355425,15.365807 8.6901788,15.449768 8.6717901,15.532975 L 8.172337,15.532975 C 8.1907348,15.448534 8.2082977,15.367014 8.2278318,15.283248 z M 7.8948632,17.114576 L 8.3943162,17.142324 C 8.3846024,17.217602 8.3753947,17.288608 8.3665688,17.364302 C 8.363328,17.392068 8.3696766,17.419806 8.3665688,17.447545 L 7.8671158,17.419798 C 7.8721503,17.373634 7.8617262,17.327286 7.8671158,17.28106 C 7.8736686,17.224891 7.887822,17.170506 7.8948632,17.114576 z M 7.7561262,19.084641 L 8.2555792,19.112388 C 8.2534482,19.215032 8.2559788,19.315437 8.2555792,19.41761 L 7.7561262,19.362114 C 7.7563482,19.271139 7.7545191,19.175981 7.7561262,19.084641 z M 7.8393684,20.971464 L 8.311074,21.054706 C 8.3191274,21.147022 8.3293474,21.240414 8.3388214,21.33218 L 7.8671158,21.276684 C 7.8562744,21.17548 7.8484696,21.073334 7.8393684,20.971464 z M 8.089095,22.91378 L 8.588548,22.997023 C 8.611838,23.110694 8.6462802,23.217503 8.6717901,23.329992 L 8.172337,23.219002 C 8.1491624,23.116419 8.1104226,23.017346 8.089095,22.91378 z M 8.6162954,24.772856 L 9.1157484,24.883846 C 9.164717,25.029786 9.2016276,25.184613 9.2544852,25.327804 L 8.7550322,25.189066 C 8.7051402,25.053141 8.66268,24.911258 8.6162954,24.772856 z "
       id="path4141" />
    <path
       style="opacity:0.42718446;fill:#888888;fill-opacity:1;fill-rule:nonzero;stroke:none;stroke-width:0.2;stroke-linecap:round;stroke-linejoin:round;stroke-miterlimit:4;stroke-dasharray:none;stroke-opacity:1"
       d="M 21.574326,11.232129 C 21.122691,11.215324 20.672149,11.289619 20.242452,11.398613 C 20.195506,11.410521 20.15034,11.440767 20.103714,11.454108 C 20.642114,11.327258 21.205145,11.263372 21.768558,11.343118 C 24.922159,11.789485 27.077748,15.513391 26.596604,19.639588 C 26.115457,23.765785 23.174073,26.745326 20.020472,26.298962 C 19.034972,26.159473 18.154469,25.712847 17.412218,25.022582 C 18.203614,25.824279 19.15625,26.367197 20.242452,26.520942 C 23.457106,26.975947 26.466863,23.92891 26.95732,19.722831 C 27.447778,15.51675 25.232941,11.742629 22.018284,11.287624 C 21.867598,11.266295 21.724871,11.237731 21.574326,11.232129 z "
       id="path5566"
       sodipodi:nodetypes="cssssscsssc" />
    <path
       style="opacity:1;fill:url(#radialGradient2268);fill-opacity:1;fill-rule:nonzero;stroke:none;stroke-width:0.2;stroke-linecap:round;stroke-linejoin:round;stroke-miterlimit:4;stroke-dasharray:none;stroke-opacity:1"
       d="M 19.612356,6.03867 C 15.364836,7.1160686 11.844656,11.648363 11.162883,17.495091 C 10.32378,24.691061 14.123885,31.13951 19.623673,31.917958 C 25.123464,32.696404 30.267021,27.505529 31.106128,20.309558 C 31.945231,13.113588 28.164746,6.6311519 22.664958,5.8527046 C 21.633748,5.7067459 20.592554,5.7900398 19.612356,6.03867 z M 20.240761,11.385725 C 20.81369,11.240398 21.419894,11.196398 22.022641,11.281711 C 25.237297,11.736718 27.447408,15.520399 26.956948,19.726481 C 26.466489,23.932562 23.461023,26.977942 20.246369,26.522937 C 17.031711,26.06793 14.821602,22.284249 15.312061,18.078168 C 15.710559,14.660727 17.758064,12.01547 20.240761,11.385725 z "
       id="path5581" />
    <path
       style="opacity:0.98999999;fill:url(#linearGradient4548);fill-opacity:1;fill-rule:nonzero;stroke:none;stroke-width:0.2;stroke-linecap:round;stroke-linejoin:round;stroke-miterlimit:4;stroke-dasharray:none;stroke-opacity:1"
       d="M 19.382282,4.988964 C 19.062422,5.0196592 18.752863,5.0614126 18.438872,5.1277009 C 18.171539,5.1974494 17.895751,5.2552358 17.634197,5.34968 C 13.424009,6.8699306 10.029437,11.543361 9.3377274,17.475292 C 8.581553,23.960074 11.326346,29.886715 15.69188,32.181409 C 15.717995,32.191335 15.7215,32.199399 15.747374,32.209156 C 15.915733,32.296235 16.079248,32.379648 16.246828,32.458882 C 16.53883,32.536997 16.952565,32.644623 17.38447,32.764104 C 12.255528,31.062742 8.8958647,24.595984 9.726191,17.475292 C 10.464014,11.147898 14.286112,6.2659228 18.88283,5.0999536 C 19.053594,5.05664 19.209388,5.0222182 19.382282,4.988964 z M 17.356723,5.1554482 L 16.385564,5.3219326 C 16.37665,5.323887 16.36683,5.3202794 16.357817,5.3219326 C 12.066082,6.6487897 8.5640148,11.304686 7.8671158,17.28106 C 7.119055,23.696253 9.831551,29.567589 14.19352,31.73745 C 14.212354,31.744994 14.230138,31.757785 14.249016,31.765198 C 14.243137,31.759941 14.438111,31.837059 14.470994,31.84844 C 14.196811,31.680159 13.929307,31.487934 13.66632,31.293492 C 13.638012,31.275613 13.611222,31.256202 13.583078,31.237998 C 9.7444358,28.75506 7.4483868,23.25153 8.1445897,17.28106 C 8.8414887,11.304686 12.343556,6.6487897 16.635291,5.3219326 C 16.644304,5.3202794 16.654124,5.323887 16.663038,5.3219326 L 16.996007,5.2664378 C 17.117572,5.2299116 17.233961,5.1865876 17.356723,5.1554482 z "
       id="path3564" />
    <path
       style="opacity:1;fill:url(#linearGradient6549);fill-opacity:1;fill-rule:nonzero;stroke:none;stroke-width:0.2;stroke-linecap:round;stroke-linejoin:round;stroke-miterlimit:4;stroke-dasharray:none;stroke-opacity:1"
       d="M 19.41003,4.9057218 C 18.71944,4.9030052 18.019626,4.9873011 17.356723,5.1554482 C 12.83354,6.3027669 9.0925914,11.138127 8.3665688,17.364302 C 7.5491582,24.37419 10.83423,30.707089 15.886112,32.37564 C 14.858136,31.935576 13.925684,31.287536 13.083625,30.488818 C 12.958521,30.380882 12.843737,30.270606 12.722909,30.15585 C 9.7684592,27.349884 8.095487,22.544471 8.6995374,17.364302 C 9.4205808,11.180829 13.142037,6.3781401 17.634197,5.2386904 C 18.109612,5.1180998 18.585553,5.0474653 19.077062,5.0167114 C 19.112854,5.0120752 19.152188,5.0208912 19.18805,5.0167114 C 19.486103,4.981974 19.801432,4.936023 20.103714,4.9334692 C 19.872248,4.9149665 19.640227,4.9066273 19.41003,4.9057218 z "
       id="path2270" />
    <path
       style="opacity:0.42718446;fill:url(#linearGradient2633);fill-opacity:1;fill-rule:nonzero;stroke:none;stroke-width:0.2;stroke-linecap:round;stroke-linejoin:round;stroke-miterlimit:4;stroke-dasharray:none;stroke-opacity:1"
       d="M 20.936136,11.315371 C 21.083822,11.320866 21.232269,11.322195 21.380094,11.343118 C 24.533695,11.789485 26.717032,15.513391 26.235888,19.639588 C 25.793466,23.43372 23.2649,26.242597 20.408936,26.32671 C 23.411333,26.484674 26.135459,23.594247 26.596604,19.639588 C 27.077748,15.513391 24.922159,11.789485 21.768558,11.343118 C 21.491387,11.303888 21.211086,11.301682 20.936136,11.315371 z "
       id="path2596" />
    <path
       style="opacity:1;fill:url(#linearGradient2642);fill-opacity:1;fill-rule:nonzero;stroke:none;stroke-width:0.2;stroke-linecap:round;stroke-linejoin:round;stroke-miterlimit:4;stroke-dasharray:none;stroke-opacity:1"
       d="M 19.437778,11.64834 C 22.406178,12.152167 24.417242,15.695785 23.960602,19.611842 C 23.555775,23.083576 21.352624,25.705102 18.77184,26.021488 C 19.235945,26.260707 19.51342,26.260707 19.049314,26.021488 C 21.630098,25.705102 23.833246,23.083576 24.238076,19.611842 C 24.694716,15.695785 22.683649,12.152167 19.715252,11.64834 C 19.983958,11.526883 19.706484,11.526883 19.437778,11.64834 z "
       id="path2635"
       sodipodi:nodetypes="csccscc" />
    <rect
       style="opacity:0.61162792;fill:#555753;fill-opacity:1;fill-rule:nonzero;stroke:none;stroke-width:0.69999999;stroke-linecap:round;stroke-linejoin:miter;stroke-miterlimit:4;stroke-dasharray:none;stroke-opacity:1"
       id="rect1951"
       width="40.001965"
       height="10.004759"
       x="-0.0019645691"
       y="30" />
    <text
       xml:space="preserve"
       style="font-size:12px;font-style:normal;font-weight:normal;fill:#eeeeec;fill-opacity:1;stroke:none;stroke-width:1px;stroke-linecap:butt;stroke-linejoin:miter;stroke-opacity:1;font-family:Bitstream Vera Sans"
       x="14.087513"
       y="39.168156"
       id="text2840"><tspan
         sodipodi:role="line"
         id="tspan2842"
         x="14.087513"
         y="39.168156">Te</tspan></text>
  </g>
</svg>
