<?xml version="1.0" encoding="UTF-8" standalone="no"?>
<!-- Created with Inkscape (http://www.inkscape.org/) -->
<svg
   xmlns:dc="http://purl.org/dc/elements/1.1/"
   xmlns:cc="http://web.resource.org/cc/"
   xmlns:rdf="http://www.w3.org/1999/02/22-rdf-syntax-ns#"
   xmlns:svg="http://www.w3.org/2000/svg"
   xmlns="http://www.w3.org/2000/svg"
   xmlns:xlink="http://www.w3.org/1999/xlink"
   xmlns:sodipodi="http://sodipodi.sourceforge.net/DTD/sodipodi-0.dtd"
   xmlns:inkscape="http://www.inkscape.org/namespaces/inkscape"
   width="40"
   height="40"
   id="svg2193"
   sodipodi:version="0.32"
   inkscape:version="0.45.1"
   version="1.0"
   sodipodi:docbase="/home/jra/Desktop/send-now"
   sodipodi:docname="53.svg"
   inkscape:output_extension="org.inkscape.output.svg.inkscape">
  <defs
     id="defs2195">
    <linearGradient
       id="linearGradient3648">
      <stop
         style="stop-color:#000000;stop-opacity:1;"
         offset="0"
         id="stop3650" />
      <stop
         id="stop3654"
         offset="0.5"
         style="stop-color:#000000;stop-opacity:0.46103895;" />
      <stop
         style="stop-color:#6f6f6f;stop-opacity:0;"
         offset="1"
         id="stop3652" />
    </linearGradient>
    <linearGradient
       id="linearGradient3600">
      <stop
         style="stop-color:#000000;stop-opacity:1;"
         offset="0"
         id="stop3602" />
      <stop
         id="stop3604"
         offset="0.5"
         style="stop-color:#000000;stop-opacity:0;" />
      <stop
         style="stop-color:#000000;stop-opacity:1;"
         offset="1"
         id="stop3606" />
    </linearGradient>
    <linearGradient
       id="linearGradient3387">
      <stop
         style="stop-color:#000000;stop-opacity:0;"
         offset="0"
         id="stop3389" />
      <stop
         style="stop-color:#000000;stop-opacity:1;"
         offset="1"
         id="stop3391" />
    </linearGradient>
    <linearGradient
       inkscape:collect="always"
       id="linearGradient4353">
      <stop
         style="stop-color:#ac4311;stop-opacity:1;"
         offset="0"
         id="stop4355" />
      <stop
         style="stop-color:#ac4311;stop-opacity:0;"
         offset="1"
         id="stop4357" />
    </linearGradient>
    <linearGradient
       id="linearGradient4347">
      <stop
         id="stop4349"
         offset="0"
         style="stop-color:#000000;stop-opacity:1;" />
      <stop
         style="stop-color:#ffffff;stop-opacity:0;"
         offset="0.5"
         id="stop3342" />
      <stop
         id="stop4351"
         offset="1"
         style="stop-color:#000000;stop-opacity:1;" />
    </linearGradient>
    <linearGradient
       inkscape:collect="always"
       id="linearGradient4297">
      <stop
         style="stop-color:#d3d7cf;stop-opacity:1;"
         offset="0"
         id="stop4299" />
      <stop
         style="stop-color:#d3d7cf;stop-opacity:0;"
         offset="1"
         id="stop4301" />
    </linearGradient>
    <linearGradient
       id="linearGradient6245">
      <stop
         style="stop-color:#ffffff;stop-opacity:0;"
         offset="0"
         id="stop6247" />
      <stop
         id="stop6253"
         offset="0.5"
         style="stop-color:#ffffff;stop-opacity:1;" />
      <stop
         style="stop-color:#ffffff;stop-opacity:0;"
         offset="1"
         id="stop6249" />
    </linearGradient>
    <linearGradient
       inkscape:collect="always"
       id="linearGradient3239">
      <stop
         style="stop-color:#eeeeec;stop-opacity:1;"
         offset="0"
         id="stop3241" />
      <stop
         style="stop-color:#eeeeec;stop-opacity:0;"
         offset="1"
         id="stop3243" />
    </linearGradient>
    <linearGradient
       id="linearGradient3180">
      <stop
         id="stop3182"
         offset="0"
         style="stop-color:#000000;stop-opacity:0;" />
      <stop
         id="stop3184"
         offset="1"
         style="stop-color:#8698b5;stop-opacity:1;" />
    </linearGradient>
    <linearGradient
       id="linearGradient3220">
      <stop
         id="stop3222"
         offset="0"
         style="stop-color:#000000;stop-opacity:1" />
      <stop
         id="stop3224"
         offset="1"
         style="stop-color:#c1c3c0;stop-opacity:1" />
    </linearGradient>
    <linearGradient
       id="linearGradient3291">
      <stop
         id="stop3293"
         offset="0"
         style="stop-color:#000000;stop-opacity:1;" />
      <stop
         id="stop3295"
         offset="1"
         style="stop-color:#000000;stop-opacity:0;" />
    </linearGradient>
    <linearGradient
       id="linearGradient2298">
      <stop
         id="stop2300"
         offset="0"
         style="stop-color:#0e0000;stop-opacity:1;" />
      <stop
         style="stop-color:#4b0000;stop-opacity:1;"
         offset="0.63186812"
         id="stop2399" />
      <stop
         id="stop2302"
         offset="1"
         style="stop-color:#950000;stop-opacity:1;" />
    </linearGradient>
    <radialGradient
       inkscape:collect="always"
       xlink:href="#linearGradient3291"
       id="radialGradient2595"
       gradientUnits="userSpaceOnUse"
       gradientTransform="matrix(1,0,0,0.197802,0,92.82166)"
       cx="63.912209"
       cy="115.70919"
       fx="75.857941"
       fy="115.70919"
       r="63.912209" />
    <linearGradient
       inkscape:collect="always"
       xlink:href="#linearGradient4347"
       id="linearGradient3340"
       x1="12.700803"
       y1="13.819374"
       x2="27.639029"
       y2="19.565937"
       gradientUnits="userSpaceOnUse"
       gradientTransform="translate(-4.96082,0)" />
    <linearGradient
       inkscape:collect="always"
       xlink:href="#linearGradient4347"
       id="linearGradient3344"
       x1="16.137482"
       y1="17.320383"
       x2="22.946884"
       y2="21.189823"
       gradientUnits="userSpaceOnUse"
       gradientTransform="translate(-4.96082,0)" />
    <linearGradient
       inkscape:collect="always"
       xlink:href="#linearGradient4347"
       id="linearGradient3368"
       x1="10.413359"
       y1="17.551615"
       x2="27.570242"
       y2="25.1875"
       gradientUnits="userSpaceOnUse"
       gradientTransform="translate(-4.96082,0)" />
    <linearGradient
       inkscape:collect="always"
       xlink:href="#linearGradient4347"
       id="linearGradient3376"
       x1="13.553937"
       y1="18.710915"
       x2="21.9375"
       y2="24.84375"
       gradientUnits="userSpaceOnUse"
       gradientTransform="translate(-4.96082,0)" />
    <radialGradient
       inkscape:collect="always"
       xlink:href="#linearGradient3180"
       id="radialGradient2363"
       gradientUnits="userSpaceOnUse"
       gradientTransform="matrix(0.6200383,5.8589607e-3,-6.1366162e-3,0.6494213,2.568914,8.120107)"
       cx="17.331633"
       cy="24.486763"
       fx="17.331633"
       fy="24.486763"
       r="4.7522492" />
    <radialGradient
       inkscape:collect="always"
       xlink:href="#linearGradient3387"
       id="radialGradient2365"
       gradientUnits="userSpaceOnUse"
       gradientTransform="matrix(0.6790693,-4.4129063e-3,4.2183012e-3,0.6491239,1.585313,7.7308)"
       cx="17.580603"
       cy="24.044193"
       fx="17.580603"
       fy="24.044193"
       r="4.7522492" />
    <linearGradient
       inkscape:collect="always"
       xlink:href="#linearGradient3387"
       id="linearGradient2372"
       gradientUnits="userSpaceOnUse"
       x1="18.308134"
       y1="19.265804"
       x2="25.258778"
       y2="22.493008"
       gradientTransform="translate(-4.96082,0)" />
    <linearGradient
       inkscape:collect="always"
       xlink:href="#linearGradient3291"
       id="linearGradient3401"
       gradientUnits="userSpaceOnUse"
       gradientTransform="matrix(0.4011062,0,0,0.4011062,4.277013,15.897202)"
       x1="13.686701"
       y1="5.5541348"
       x2="33.097492"
       y2="18.826828" />
    <linearGradient
       inkscape:collect="always"
       xlink:href="#linearGradient3291"
       id="linearGradient3404"
       gradientUnits="userSpaceOnUse"
       gradientTransform="matrix(0.4011062,0,0,0.4011062,4.277013,15.897202)"
       x1="26.285849"
       y1="31.265575"
       x2="17.705608"
       y2="21.330816" />
    <radialGradient
       inkscape:collect="always"
       xlink:href="#linearGradient3239"
       id="radialGradient3419"
       cx="17.494335"
       cy="23.025421"
       fx="17.494335"
       fy="23.025421"
       r="1.4713273"
       gradientTransform="matrix(0.9393676,0.3429119,-1.1443804,3.134898,22.449764,-55.004596)"
       gradientUnits="userSpaceOnUse" />
    <radialGradient
       inkscape:collect="always"
       xlink:href="#linearGradient3387"
       id="radialGradient3493"
       gradientUnits="userSpaceOnUse"
       gradientTransform="matrix(0.6200383,5.8589607e-3,-6.1366162e-3,0.6494213,2.568914,8.120107)"
       cx="17.331633"
       cy="24.486763"
       fx="17.331633"
       fy="24.486763"
       r="4.7522492" />
    <linearGradient
       inkscape:collect="always"
       xlink:href="#linearGradient3291"
       id="linearGradient3501"
       gradientUnits="userSpaceOnUse"
       gradientTransform="matrix(0.4011062,0,0,0.4011062,4.277013,15.897202)"
       x1="27.607832"
       y1="14.706341"
       x2="30.648783"
       y2="15.682375" />
    <linearGradient
       inkscape:collect="always"
       xlink:href="#linearGradient3600"
       id="linearGradient3536"
       x1="16.383564"
       y1="9.2673616"
       x2="28.671923"
       y2="19.288218"
       gradientUnits="userSpaceOnUse"
       gradientTransform="translate(-4.96082,0)" />
    <linearGradient
       inkscape:collect="always"
       xlink:href="#linearGradient4347"
       id="linearGradient3580"
       gradientUnits="userSpaceOnUse"
       x1="32.982403"
       y1="11.816007"
       x2="11.48881"
       y2="-1.1813411"
       gradientTransform="translate(-4.96082,0)" />
    <linearGradient
       inkscape:collect="always"
       xlink:href="#linearGradient3600"
       id="linearGradient3589"
       gradientUnits="userSpaceOnUse"
       x1="32.982403"
       y1="11.816007"
       x2="11.48881"
       y2="-1.1813411"
       gradientTransform="translate(-4.96082,0)" />
    <radialGradient
       inkscape:collect="always"
       xlink:href="#linearGradient3387"
       id="radialGradient3598"
       gradientUnits="userSpaceOnUse"
       gradientTransform="matrix(1,0,0,0.9799197,-4.96082,0.2723394)"
       cx="25.256193"
       cy="9.6137686"
       fx="25.256193"
       fy="9.6137686"
       r="7.78125" />
    <radialGradient
       inkscape:collect="always"
       xlink:href="#linearGradient3648"
       id="radialGradient3641"
       gradientUnits="userSpaceOnUse"
       gradientTransform="matrix(1.5068901,-0.3630744,0.2616442,1.0859183,-19.498115,8.4260194)"
       cx="24.663914"
       cy="11.78059"
       fx="24.663914"
       fy="11.78059"
       r="4.5161223" />
    <linearGradient
       inkscape:collect="always"
       xlink:href="#linearGradient6245"
       id="linearGradient3646"
       x1="24.773417"
       y1="6.5167379"
       x2="25.613585"
       y2="12.568937"
       gradientUnits="userSpaceOnUse"
       gradientTransform="translate(-4.96082,0)" />
    <radialGradient
       inkscape:collect="always"
       xlink:href="#linearGradient3291"
       id="radialGradient3675"
       cx="23.861124"
       cy="5.2156906"
       fx="23.861124"
       fy="5.2156906"
       r="6.5471048"
       gradientTransform="matrix(0.8247639,0.3093562,-0.2046266,0.5455478,0.72376,-2.9537036)"
       gradientUnits="userSpaceOnUse" />
    <radialGradient
       inkscape:collect="always"
       xlink:href="#linearGradient3239"
       id="radialGradient3685"
       cx="22.804577"
       cy="13.419245"
       fx="22.804577"
       fy="13.419245"
       r="7.8768721"
       gradientUnits="userSpaceOnUse" />
    <radialGradient
       inkscape:collect="always"
       xlink:href="#linearGradient3239"
       id="radialGradient3689"
       gradientUnits="userSpaceOnUse"
       cx="22.804577"
       cy="13.419245"
       fx="22.804577"
       fy="13.419245"
       r="7.8768721" />
    <radialGradient
       inkscape:collect="always"
       xlink:href="#linearGradient3387"
       id="radialGradient3397"
       cx="22.875"
       cy="13.547724"
       fx="22.875"
       fy="13.547724"
       r="7.78125"
       gradientTransform="matrix(1,0,0,0.9780208,-4.96082,0.2977688)"
       gradientUnits="userSpaceOnUse" />
    <linearGradient
       inkscape:collect="always"
       xlink:href="#linearGradient4353"
       id="linearGradient3843"
       gradientUnits="userSpaceOnUse"
       gradientTransform="matrix(1.0678547,0,0,1.0678547,-47.068324,36.21307)"
       x1="18.910511"
       y1="31.612494"
       x2="16.979006"
       y2="34.418758" />
    <linearGradient
       inkscape:collect="always"
       xlink:href="#linearGradient4353"
       id="linearGradient3845"
       gradientUnits="userSpaceOnUse"
       gradientTransform="matrix(1.0678547,0,0,1.0678547,-47.068324,36.21307)"
       x1="19.3944"
       y1="30.3125"
       x2="19.11717"
       y2="39.91782" />
    <linearGradient
       inkscape:collect="always"
       xlink:href="#linearGradient4353"
       id="linearGradient3847"
       gradientUnits="userSpaceOnUse"
       gradientTransform="matrix(1.0678547,0,0,1.0678547,-47.068324,36.21307)"
       x1="40.738773"
       y1="33.00156"
       x2="39.953125"
       y2="34.194221" />
    <radialGradient
       inkscape:collect="always"
       xlink:href="#linearGradient4353"
       id="radialGradient3849"
       gradientUnits="userSpaceOnUse"
       gradientTransform="matrix(1.2516729,-2.9229821e-7,2.5829567e-7,1.1040141,-53.867742,34.786997)"
       cx="36.989864"
       cy="41.474514"
       fx="36.989864"
       fy="41.474514"
       r="2.0357647" />
    <linearGradient
       inkscape:collect="always"
       xlink:href="#linearGradient3239"
       id="linearGradient3851"
       gradientUnits="userSpaceOnUse"
       gradientTransform="matrix(1.0678547,0,0,1.0678547,-47.068324,36.21307)"
       x1="31.213619"
       y1="35.84124"
       x2="30.470324"
       y2="36.86327" />
    <linearGradient
       inkscape:collect="always"
       xlink:href="#linearGradient4297"
       id="linearGradient3853"
       gradientUnits="userSpaceOnUse"
       gradientTransform="matrix(1.0678547,0,0,1.0678547,-47.068324,36.21307)"
       x1="26.606569"
       y1="37.98106"
       x2="30.517183"
       y2="39.993374" />
    <radialGradient
       inkscape:collect="always"
       xlink:href="#linearGradient4297"
       id="radialGradient3855"
       gradientUnits="userSpaceOnUse"
       gradientTransform="matrix(0.6885176,0.7554774,-0.1826225,0.1664362,-35.513539,55.930811)"
       cx="14.997474"
       cy="29.524445"
       fx="14.997474"
       fy="29.524445"
       r="11.166423" />
    <radialGradient
       inkscape:collect="always"
       xlink:href="#linearGradient4297"
       id="radialGradient3857"
       gradientUnits="userSpaceOnUse"
       gradientTransform="matrix(0.6210156,0.7149422,-0.9842293,0.8549247,-16.043189,35.874216)"
       cx="8.6875057"
       cy="27.578125"
       fx="8.6875057"
       fy="27.578125"
       r="1.6766008" />
    <linearGradient
       inkscape:collect="always"
       xlink:href="#linearGradient4353"
       id="linearGradient3859"
       gradientUnits="userSpaceOnUse"
       gradientTransform="matrix(1.0678547,0,0,1.0678547,-47.068324,36.21307)"
       x1="17.029911"
       y1="41.1875"
       x2="19.651365"
       y2="31.904205" />
    <radialGradient
       inkscape:collect="always"
       xlink:href="#linearGradient4297"
       id="radialGradient3861"
       gradientUnits="userSpaceOnUse"
       gradientTransform="matrix(1.0004106,0.3734867,-0.610203,1.6344723,-23.201289,3.3706541)"
       cx="33.412548"
       cy="34.993851"
       fx="33.412548"
       fy="34.993851"
       r="1.7188365" />
    <linearGradient
       inkscape:collect="always"
       xlink:href="#linearGradient3220"
       id="linearGradient3863"
       gradientUnits="userSpaceOnUse"
       gradientTransform="matrix(1.0678547,0,0,1.0678547,-47.068324,36.21307)"
       x1="22.286978"
       y1="28.012459"
       x2="7.9582877"
       y2="40.315292" />
    <radialGradient
       inkscape:collect="always"
       xlink:href="#linearGradient3239"
       id="radialGradient3865"
       gradientUnits="userSpaceOnUse"
       gradientTransform="matrix(0.9708581,0.6920005,-0.4475176,0.6278552,-6.832608,18.454426)"
       cx="12.203819"
       cy="72.308502"
       fx="12.203819"
       fy="72.308502"
       r="4.5625" />
    <linearGradient
       inkscape:collect="always"
       xlink:href="#linearGradient3220"
       id="linearGradient3867"
       gradientUnits="userSpaceOnUse"
       gradientTransform="matrix(1.0678547,0,0,1.0678547,-42.724428,37.272557)"
       x1="40.576992"
       y1="43.988613"
       x2="26.382746"
       y2="30.413954" />
    <radialGradient
       inkscape:collect="always"
       xlink:href="#linearGradient3387"
       id="radialGradient3869"
       gradientUnits="userSpaceOnUse"
       gradientTransform="matrix(0.9685456,-0.4126236,0.3397611,0.7975166,-52.63944,57.852668)"
       cx="23.741306"
       cy="35.467693"
       fx="23.741306"
       fy="35.467693"
       r="3.0510664" />
    <linearGradient
       inkscape:collect="always"
       xlink:href="#linearGradient2298"
       id="linearGradient3871"
       gradientUnits="userSpaceOnUse"
       gradientTransform="matrix(2.1698647,0.221479,-0.1365485,1.3377873,-60.418845,23.496213)"
       x1="12.550874"
       y1="29.805515"
       x2="14.88246"
       y2="29.011784" />
    <linearGradient
       inkscape:collect="always"
       xlink:href="#linearGradient3387"
       id="linearGradient3873"
       gradientUnits="userSpaceOnUse"
       gradientTransform="matrix(1.0678547,0,0,1.0678547,-42.724428,37.272557)"
       x1="26.529608"
       y1="41.101322"
       x2="20.78125"
       y2="37.926395" />
    <linearGradient
       inkscape:collect="always"
       xlink:href="#linearGradient3239"
       id="linearGradient3875"
       gradientUnits="userSpaceOnUse"
       gradientTransform="matrix(1.0678547,0,0,1.0678547,-42.724428,37.272557)"
       x1="35.133011"
       y1="36.354843"
       x2="32.829414"
       y2="37.140625" />
    <linearGradient
       inkscape:collect="always"
       xlink:href="#linearGradient3239"
       id="linearGradient3877"
       gradientUnits="userSpaceOnUse"
       gradientTransform="matrix(1.0678547,0,0,1.0678547,-42.724428,37.272557)"
       x1="19.789087"
       y1="39.399624"
       x2="24.308018"
       y2="38.275566" />
    <radialGradient
       inkscape:collect="always"
       xlink:href="#linearGradient3291"
       id="radialGradient3879"
       gradientUnits="userSpaceOnUse"
       gradientTransform="matrix(1.3325943,1.2621359,-0.4229272,0.4465371,-9.007692,33.14729)"
       cx="6.8188496"
       cy="78.495384"
       fx="6.8188496"
       fy="78.495384"
       r="8.4375" />
    <radialGradient
       inkscape:collect="always"
       xlink:href="#linearGradient4297"
       id="radialGradient3881"
       gradientUnits="userSpaceOnUse"
       gradientTransform="matrix(0.6210156,0.7149422,-0.9842293,0.8549247,-16.043189,35.874216)"
       cx="8.6875057"
       cy="27.578125"
       fx="8.6875057"
       fy="27.578125"
       r="1.6766008" />
    <linearGradient
       inkscape:collect="always"
       xlink:href="#linearGradient3291"
       id="linearGradient3883"
       gradientUnits="userSpaceOnUse"
       gradientTransform="translate(-40,0)"
       x1="34.668446"
       y1="81.013443"
       x2="38.519054"
       y2="75.079994" />
    <linearGradient
       inkscape:collect="always"
       xlink:href="#linearGradient3291"
       id="linearGradient3885"
       gradientUnits="userSpaceOnUse"
       gradientTransform="matrix(2.514026,0,0,1.6005685,-91.869724,15.947356)"
       x1="33.98304"
       y1="40.031254"
       x2="32.080723"
       y2="38.1875" />
    <linearGradient
       inkscape:collect="always"
       xlink:href="#linearGradient3387"
       id="linearGradient3887"
       gradientUnits="userSpaceOnUse"
       x1="-9.4305706"
       y1="68.864586"
       x2="-7.9353509"
       y2="82.93927" />
    <linearGradient
       inkscape:collect="always"
       xlink:href="#linearGradient3387"
       id="linearGradient3735"
       gradientUnits="userSpaceOnUse"
       x1="25.059965"
       y1="24.327379"
       x2="26.189175"
       y2="27.222326" />
    <linearGradient
       inkscape:collect="always"
       xlink:href="#linearGradient3387"
       id="linearGradient3737"
       gradientUnits="userSpaceOnUse"
       x1="25.059965"
       y1="24.327379"
       x2="26.189175"
       y2="27.222326" />
    <linearGradient
       inkscape:collect="always"
       xlink:href="#linearGradient3387"
       id="linearGradient3739"
       gradientUnits="userSpaceOnUse"
       x1="25.059965"
       y1="24.327379"
       x2="26.189175"
       y2="27.222326" />
    <radialGradient
       inkscape:collect="always"
       xlink:href="#linearGradient3239"
       id="radialGradient3741"
       gradientUnits="userSpaceOnUse"
       gradientTransform="matrix(0.6300418,-1.0511824e-2,9.7429136e-3,0.5839561,7.3730703,11.388242)"
       cx="20.095413"
       cy="28.248312"
       fx="20.095413"
       fy="28.248312"
       r="3.717766" />
    <radialGradient
       inkscape:collect="always"
       xlink:href="#linearGradient3239"
       id="radialGradient3743"
       gradientUnits="userSpaceOnUse"
       gradientTransform="matrix(0.6300418,-1.0511824e-2,9.7429136e-3,0.5839561,7.3730703,11.388242)"
       cx="20.095413"
       cy="28.248312"
       fx="20.095413"
       fy="28.248312"
       r="3.717766" />
    <radialGradient
       inkscape:collect="always"
       xlink:href="#linearGradient3239"
       id="radialGradient3745"
       gradientUnits="userSpaceOnUse"
       gradientTransform="matrix(0.6300418,-1.0511824e-2,9.7429136e-3,0.5839561,7.3730703,11.388242)"
       cx="20.095413"
       cy="28.248312"
       fx="20.095413"
       fy="28.248312"
       r="3.717766" />
    <linearGradient
       inkscape:collect="always"
       xlink:href="#linearGradient6245"
       id="linearGradient3781"
       gradientUnits="userSpaceOnUse"
       gradientTransform="matrix(-1.101299,0,0,1.101299,26.769938,2.927679)"
       x1="2.4342411"
       y1="20.09166"
       x2="3.3230169"
       y2="17.512032" />
    <radialGradient
       inkscape:collect="always"
       xlink:href="#linearGradient4347"
       id="radialGradient3654"
       cx="13.390786"
       cy="19.874546"
       fx="13.390786"
       fy="19.874546"
       r="4"
       gradientTransform="matrix(1.1240203,3.0310518e-8,-3.8010533e-8,1.4095638,-1.660728,-8.3128667)"
       gradientUnits="userSpaceOnUse" />
    <linearGradient
       inkscape:collect="always"
       xlink:href="#linearGradient3291"
       id="linearGradient3670"
       x1="17.17886"
       y1="24.716286"
       x2="16.768156"
       y2="12.811772"
       gradientUnits="userSpaceOnUse" />
    <radialGradient
       inkscape:collect="always"
       xlink:href="#linearGradient3387"
       id="radialGradient3694"
       cx="6.2117624"
       cy="-1.1855913"
       fx="6.2117624"
       fy="-1.1855913"
       r="9.046875"
       gradientTransform="matrix(0.490902,0.3037758,-1.0358061,1.6738767,14.518831,5.6381057)"
       gradientUnits="userSpaceOnUse" />
  </defs>
  <sodipodi:namedview
     id="base"
     pagecolor="#ffffff"
     bordercolor="#666666"
     borderopacity="1.0"
     inkscape:pageopacity="0.0"
     inkscape:pageshadow="2"
     inkscape:zoom="17.3"
     inkscape:cx="20"
     inkscape:cy="20"
     inkscape:current-layer="layer1"
     showgrid="false"
     inkscape:grid-bbox="false"
     inkscape:document-units="px"
     width="40px"
     height="40px"
     gridempspacing="2"
     inkscape:window-width="1167"
     inkscape:window-height="914"
     inkscape:window-x="478"
     inkscape:window-y="69" />
  <metadata
     id="metadata2198">
    <rdf:RDF>
      <cc:Work
         rdf:about="">
        <dc:format>image/svg+xml</dc:format>
        <dc:type
           rdf:resource="http://purl.org/dc/dcmitype/StillImage" />
        <dc:creator>
          <cc:Agent>
            <dc:title>Jarle Akselsen</dc:title>
          </cc:Agent>
        </dc:creator>
        <cc:license
           rdf:resource="http://creativecommons.org/licenses/GPL/2.0/" />
      </cc:Work>
      <cc:License
         rdf:about="http://creativecommons.org/licenses/GPL/2.0/">
        <cc:permits
           rdf:resource="http://web.resource.org/cc/Reproduction" />
        <cc:permits
           rdf:resource="http://web.resource.org/cc/Distribution" />
        <cc:requires
           rdf:resource="http://web.resource.org/cc/Notice" />
        <cc:permits
           rdf:resource="http://web.resource.org/cc/DerivativeWorks" />
        <cc:requires
           rdf:resource="http://web.resource.org/cc/ShareAlike" />
        <cc:requires
           rdf:resource="http://web.resource.org/cc/SourceCode" />
      </cc:License>
    </rdf:RDF>
  </metadata>
  <g
     id="layer1"
     inkscape:label="Layer 1"
     inkscape:groupmode="layer">
    <g
       id="g3816"
       transform="translate(40,-40)">
      <path
         id="path2636"
         d="M -36.917968,63.234774 C -37.599321,63.288694 -38.344516,63.562469 -38.920195,64.302629 C -40.403478,66.209707 -38.920195,67.673044 -38.920195,67.673045 C -38.920195,67.673047 -37.790998,68.830821 -36.784486,70.075719 C -35.777971,71.320617 -34.548665,72.445021 -34.548665,72.445021 C -34.548665,72.445022 -32.733065,74.716135 -31.011396,76.649699 C -29.428575,78.427331 -28.071714,79.789929 -27.841203,80.020115 L 0.056501,80.020115 L 0.056501,74.313767 C 0.001592,74.264158 -1.732899,72.705778 -3.714361,71.61076 C -5.727386,70.4983 -7.952409,69.908866 -7.952409,69.908866 C -7.95241,69.908866 -9.000052,69.649831 -9.821155,69.808755 C -10.642255,69.967679 -11.256084,70.542905 -11.256084,70.542905 C -11.256083,70.542908 -12.721079,71.97662 -13.992462,73.512876 C -15.263848,75.049133 -16.561987,76.149142 -16.561987,76.149142 C -16.561987,76.149142 -16.857729,76.303912 -17.162656,76.449476 C -17.241913,76.398225 -17.318506,76.33385 -17.396249,76.282624 C -20.710182,74.099027 -23.102597,73.512876 -23.102597,73.512876 C -23.102597,73.512877 -24.188842,72.28252 -25.672123,71.143573 C -27.155405,70.004626 -29.042539,68.974494 -29.042539,68.974493 C -29.042539,68.974494 -30.582203,66.895065 -32.01251,65.570707 C -33.442823,64.246349 -34.782258,63.66859 -34.782258,63.66859 C -34.782258,63.668591 -35.782377,63.144911 -36.917968,63.234774 z "
         style="color:#000000;fill:#ef8242;fill-opacity:1;fill-rule:evenodd;stroke:none;stroke-width:1px;stroke-linecap:butt;stroke-linejoin:miter;marker:none;marker-start:none;marker-mid:none;marker-end:none;stroke-miterlimit:4;stroke-dasharray:none;stroke-dashoffset:0;stroke-opacity:1;visibility:visible;display:inline;overflow:visible;enable-background:accumulate" />
      <path
         style="opacity:0.5;color:#000000;fill:url(#linearGradient3843);fill-opacity:1;fill-rule:evenodd;stroke:none;stroke-width:1px;stroke-linecap:butt;stroke-linejoin:miter;marker:none;marker-start:none;marker-mid:none;marker-end:none;stroke-miterlimit:4;stroke-dasharray:none;stroke-dashoffset:0;stroke-opacity:1;visibility:visible;display:inline;overflow:visible;enable-background:accumulate"
         d="M -36.089442,63.276517 C -36.072864,63.433159 -36.016725,63.597896 -35.95596,63.777074 C -35.439459,65.300085 -34.291783,65.608534 -33.15283,67.648047 C -32.013876,69.687559 -31.851377,71.418909 -31.851377,71.418909 C -31.851378,71.41891 -30.440255,69.586453 -27.746811,72.686986 C -25.445591,75.336015 -26.645586,76.290996 -26.645586,76.290996 C -26.645586,76.290998 -24.321097,74.063531 -21.339683,75.757069 C -20.324988,76.333447 -19.590794,76.961894 -19.00375,77.525703 C -18.945842,77.480599 -18.898149,77.433607 -18.836898,77.392221 C -18.243606,76.991348 -17.636167,76.68116 -17.168375,76.457848 C -17.248208,76.406954 -17.32421,76.342232 -17.401968,76.290996 C -20.715902,74.107398 -23.108317,73.521248 -23.108317,73.521248 C -23.108317,73.521248 -24.194561,72.290892 -25.677842,71.151945 C -27.161125,70.012997 -29.048259,68.982866 -29.048259,68.982865 C -29.048259,68.982865 -30.587923,66.903437 -32.01823,65.579079 C -33.448543,64.25472 -34.787989,63.676962 -34.787989,63.676962 C -34.787989,63.676962 -35.338978,63.388637 -36.089442,63.276517 z "
         id="path2638" />
      <path
         style="opacity:0.5;color:#000000;fill:url(#linearGradient3845);fill-opacity:1;fill-rule:evenodd;stroke:none;stroke-width:1px;stroke-linecap:butt;stroke-linejoin:miter;marker:none;marker-start:none;marker-mid:none;marker-end:none;stroke-miterlimit:4;stroke-dasharray:none;stroke-dashoffset:0;stroke-opacity:1;visibility:visible;display:inline;overflow:visible;enable-background:accumulate"
         d="M -29.381963,68.58242 C -29.734911,68.875782 -30.159104,69.259363 -30.650041,69.717015 C -31.79576,70.785059 -32.051602,70.985094 -32.0516,70.985093 C -32.0516,70.985093 -30.933737,70.764144 -30.016002,69.883868 C -29.600564,69.485386 -29.244606,69.232233 -28.981518,69.016236 C -28.984599,69.014559 -29.048259,68.982865 -29.048259,68.982865 C -29.048259,68.982865 -29.3022,68.686799 -29.381963,68.58242 z M -23.809097,72.820468 C -24.202882,72.969218 -24.695225,73.16636 -25.210656,73.521248 C -26.427381,74.358994 -26.912551,75.790437 -26.912549,75.790439 C -26.912549,75.790439 -26.107282,74.946002 -25.077174,74.121916 C -24.047065,73.297829 -23.542131,73.454508 -23.542133,73.454507 C -23.542133,73.454507 -23.625511,73.650929 -24.543247,74.755955 C -25.46098,75.860982 -26.445361,76.891666 -26.445363,76.891664 C -26.445363,76.891664 -25.587331,76.536567 -24.276283,75.356623 C -23.714668,74.85117 -23.272351,74.189292 -22.908094,73.587989 C -22.980391,73.568109 -23.108317,73.521248 -23.108317,73.521248 C -23.108317,73.521248 -23.412596,73.225072 -23.809097,72.820468 z "
         id="path2640" />
      <path
         style="opacity:0.5;color:#000000;fill:url(#linearGradient3847);fill-opacity:1;fill-rule:evenodd;stroke:none;stroke-width:1px;stroke-linecap:butt;stroke-linejoin:miter;marker:none;marker-start:none;marker-mid:none;marker-end:none;stroke-miterlimit:4;stroke-dasharray:none;stroke-dashoffset:0;stroke-opacity:1;visibility:visible;display:inline;overflow:visible;enable-background:accumulate"
         d="M -8.959242,69.783756 C -7.704568,70.651016 -5.758166,71.977813 -3.68671,72.987321 C -2.141071,73.740575 -0.816871,74.269974 0.150893,74.622473 C 0.120562,74.508375 0.103304,74.374661 0.084152,74.355509 C 0.084152,74.355508 -1.707055,72.731593 -3.72008,71.619132 C -5.733106,70.506671 -7.958128,69.917238 -7.958128,69.917238 C -7.958128,69.917238 -8.425537,69.817994 -8.959242,69.783756 z "
         id="path2642" />
      <path
         id="path2644"
         d="M -7.051407,76.082401 C -7.051408,76.082403 -7.516503,77.728394 -8.452966,78.852149 C -8.879443,79.363923 -9.414958,79.732949 -9.854525,80.020115 L -6.684331,80.020115 C -6.581265,79.50961 -6.296333,78.580223 -6.517479,77.750924 C -6.779687,76.767638 -7.051407,76.082401 -7.051407,76.082401 z "
         style="opacity:0.75;color:#000000;fill:url(#radialGradient3849);fill-opacity:1;fill-rule:evenodd;stroke:none;stroke-width:1px;stroke-linecap:butt;stroke-linejoin:miter;marker:none;marker-start:none;marker-mid:none;marker-end:none;stroke-miterlimit:4;stroke-dasharray:none;stroke-dashoffset:0;stroke-opacity:1;visibility:visible;display:inline;overflow:visible;enable-background:accumulate" />
      <path
         style="opacity:0.52427183;color:#000000;fill:#f08682;fill-opacity:1;fill-rule:evenodd;stroke:none;stroke-width:1px;stroke-linecap:butt;stroke-linejoin:miter;marker:none;marker-start:none;marker-mid:none;marker-end:none;stroke-miterlimit:4;stroke-dasharray:none;stroke-dashoffset:0;stroke-opacity:1;visibility:visible;display:inline;overflow:visible;enable-background:accumulate"
         d="M -14.565479,74.188657 C -15.615068,75.363367 -16.567707,76.157514 -16.567707,76.157514 C -16.567708,76.157512 -17.856872,76.730042 -18.836898,77.392221 C -19.354552,77.741987 -19.743205,78.201915 -20.004864,78.593558 C -19.146872,78.809807 -17.375811,79.169989 -16.06715,78.660299 C -14.28787,77.967316 -13.497625,75.690326 -13.497625,75.690328 C -13.497625,75.690328 -13.384206,74.986505 -13.964811,74.555732 C -14.133239,74.430769 -14.357517,74.312055 -14.565479,74.188657 z "
         id="path2646" />
      <path
         style="opacity:0.81592042;color:#000000;fill:url(#linearGradient3851);fill-opacity:1;fill-rule:evenodd;stroke:none;stroke-width:1px;stroke-linecap:butt;stroke-linejoin:miter;marker:none;marker-start:none;marker-mid:none;marker-end:none;stroke-miterlimit:4;stroke-dasharray:none;stroke-dashoffset:0;stroke-opacity:1;visibility:visible;display:inline;overflow:visible;enable-background:accumulate"
         d="M -14.565479,74.188657 C -14.71057,74.351044 -14.860171,74.475723 -14.999295,74.622473 C -14.460913,75.043339 -14.015157,75.56887 -13.731218,76.190885 C -13.595527,75.90565 -13.497625,75.690327 -13.497625,75.690328 C -13.497625,75.690328 -13.384206,74.986505 -13.964811,74.555732 C -14.133239,74.430769 -14.357517,74.312055 -14.565479,74.188657 z "
         id="path2648" />
      <path
         style="opacity:0.52427183;color:#000000;fill:url(#linearGradient3853);fill-opacity:1;fill-rule:evenodd;stroke:none;stroke-width:1px;stroke-linecap:butt;stroke-linejoin:miter;marker:none;marker-start:none;marker-mid:none;marker-end:none;stroke-miterlimit:4;stroke-dasharray:none;stroke-dashoffset:0;stroke-opacity:1;visibility:visible;display:inline;overflow:visible;enable-background:accumulate"
         d="M -14.999295,74.622473 C -15.866605,75.537316 -16.567707,76.157514 -16.567707,76.157514 C -16.567708,76.157512 -17.856872,76.730042 -18.836898,77.392221 C -19.354552,77.741987 -19.743205,78.201915 -20.004864,78.593558 C -19.146872,78.809807 -17.375811,79.169989 -16.06715,78.660299 C -14.800025,78.166787 -14.066932,76.896585 -13.731218,76.190885 C -14.015157,75.56887 -14.460913,75.043339 -14.999295,74.622473 z "
         id="path2650" />
      <path
         style="opacity:0.26178014;color:#000000;fill:url(#radialGradient3855);fill-opacity:1;fill-rule:evenodd;stroke:none;stroke-width:1px;stroke-linecap:butt;stroke-linejoin:miter;marker:none;marker-start:none;marker-mid:none;marker-end:none;stroke-miterlimit:4;stroke-dasharray:none;stroke-dashoffset:0;stroke-opacity:1;visibility:visible;display:inline;overflow:visible;enable-background:accumulate"
         d="M -36.923705,63.243146 C -37.605058,63.297064 -38.350253,63.570841 -38.925932,64.311001 C -40.038394,65.741308 -39.473799,66.941256 -39.126155,67.447824 C -39.010273,67.61668 -38.925932,67.681417 -38.925932,67.681417 C -38.781486,67.825555 -38.697134,67.95079 -38.492116,68.148604 C -38.384533,68.262682 -38.375371,68.251806 -38.225153,68.415568 C -36.692959,69.88565 -34.020939,72.338083 -31.717895,74.755955 C -28.338251,78.304112 -24.304898,79.736994 -24.04269,79.961747 C -23.632717,80.313152 -19.564849,79.711258 -17.468709,79.394449 C -17.582306,79.176293 -17.777979,78.877824 -18.169489,78.393335 C -19.868268,77.8156 -22.206355,76.866971 -24.609988,75.623587 C -25.721788,76.560971 -26.445363,76.891664 -26.445363,76.891664 C -26.445361,76.891666 -25.813248,76.194989 -25.110544,75.389994 C -26.064344,75.735168 -26.645586,76.290997 -26.645586,76.290996 C -26.645586,76.290996 -26.262564,75.964581 -26.345251,75.223141 C -26.691492,75.551516 -26.912549,75.790439 -26.912549,75.790439 C -26.91255,75.790438 -26.758467,75.362879 -26.445363,74.856066 C -26.466417,74.77837 -26.481425,74.70722 -26.512104,74.622473 C -27.896993,73.794345 -29.227576,72.868302 -30.349707,71.819354 C -30.638058,71.549809 -30.886799,71.259285 -31.150598,70.985093 C -31.60286,71.137137 -31.851377,71.418909 -31.851377,71.418909 C -31.851377,71.418909 -31.889656,71.248037 -31.951489,70.951722 C -31.963387,70.954364 -32.0516,70.985093 -32.0516,70.985093 C -32.0516,70.985093 -31.953676,70.920105 -31.951489,70.918352 C -32.013665,70.623669 -32.102712,70.221017 -32.251824,69.750386 C -33.714577,67.983148 -34.743594,66.273436 -35.42203,64.811558 C -35.63855,64.521365 -35.817661,64.184877 -35.95596,63.777074 C -36.016725,63.597896 -36.072864,63.433159 -36.089442,63.276517 C -36.352045,63.23738 -36.628305,63.21977 -36.923705,63.243146 z M -17.068264,78.76041 L -17.235116,79.361078 C -16.781281,79.291777 -15.733445,79.160855 -15.733445,79.160855 C -15.733445,79.160855 -16.344374,78.986068 -17.068264,78.76041 z "
         id="path2652" />
      <path
         style="opacity:0.25;fill:url(#radialGradient3857);fill-opacity:1;fill-rule:nonzero;stroke:none;stroke-width:0.1;stroke-linecap:round;stroke-linejoin:round;stroke-miterlimit:4;stroke-dasharray:none;stroke-opacity:1"
         d="M -37.824707,63.47674 C -38.216105,63.641631 -38.600673,63.892811 -38.925932,64.311001 C -40.038394,65.741308 -39.473799,66.941256 -39.126155,67.447824 C -39.010273,67.61668 -38.925932,67.681417 -38.925932,67.681417 C -38.872506,67.734729 -38.805209,67.795502 -38.75908,67.84827 C -38.454286,67.776872 -38.161852,67.669519 -37.858078,67.514565 C -36.421089,66.781562 -35.650922,65.381458 -36.156183,64.377742 C -36.438156,63.817593 -37.085955,63.519211 -37.824707,63.47674 z "
         id="path2654" />
      <path
         style="opacity:0.52427183;color:#000000;fill:url(#linearGradient3859);fill-opacity:1;fill-rule:evenodd;stroke:none;stroke-width:1px;stroke-linecap:butt;stroke-linejoin:miter;marker:none;marker-start:none;marker-mid:none;marker-end:none;stroke-miterlimit:4;stroke-dasharray:none;stroke-dashoffset:0;stroke-opacity:1;visibility:visible;display:inline;overflow:visible;enable-background:accumulate"
         d="M -39.593341,65.912783 C -39.644925,66.973675 -38.925932,67.681416 -38.925932,67.681417 C -38.925932,67.681417 -37.796735,68.839193 -36.790223,70.084091 C -35.783708,71.328988 -34.554395,72.453393 -34.554395,72.453393 C -34.554395,72.453393 -32.738785,74.724507 -31.017116,76.658071 C -29.29545,78.591634 -27.680071,80.195339 -27.68007,80.19534 L -27.68007,79.828265 C -27.680071,79.828264 -29.29545,78.224558 -31.017116,76.290996 C -32.738785,74.357431 -34.554395,72.086317 -34.554395,72.086318 C -34.554395,72.086318 -35.783708,70.961912 -36.790223,69.717015 C -37.796735,68.472118 -38.925932,67.314341 -38.925932,67.314342 C -38.925932,67.314341 -39.498136,66.767876 -39.593341,65.912783 z M -17.468709,76.257626 C -17.885545,76.465168 -18.35732,76.701107 -18.836898,77.025146 C -19.816924,77.687326 -20.371939,78.893891 -20.371939,78.893892 L -20.271828,79.127485 C -20.170882,78.921898 -19.716409,77.986485 -18.836898,77.392221 C -18.243606,76.991348 -17.636167,76.68116 -17.168375,76.457848 C -17.247632,76.406596 -17.324225,76.342222 -17.401968,76.290996 C -17.423844,76.276582 -17.446914,76.271901 -17.468709,76.257626 z "
         id="path2656"
         sodipodi:nodetypes="ccscsccscscccsccscsc" />
      <path
         sodipodi:nodetypes="czczczc"
         id="path2658"
         d="M -9.292906,70.236885 C -9.292906,70.236885 -9.555116,71.135889 -10.116993,72.858981 C -10.698683,74.642831 -9.892243,77.803506 -9.892243,77.803506 C -9.892243,77.803506 -10.95981,76.867044 -11.72771,75.855664 C -12.49561,74.844284 -12.963841,73.757986 -12.963841,73.757986 C -12.963841,73.757986 -12.458151,72.521854 -11.577876,71.660309 C -10.697601,70.798763 -9.292906,70.236885 -9.292906,70.236885 z "
         style="opacity:0.52427183;color:#000000;fill:url(#radialGradient3861);fill-opacity:1;fill-rule:evenodd;stroke:none;stroke-width:1px;stroke-linecap:butt;stroke-linejoin:miter;marker:none;marker-start:none;marker-mid:none;marker-end:none;stroke-miterlimit:4;stroke-dasharray:none;stroke-dashoffset:0;stroke-opacity:1;visibility:visible;display:inline;overflow:visible;enable-background:accumulate" />
      <path
         id="path2660"
         d="M -36.917968,63.234774 C -37.599321,63.288694 -38.344516,63.562469 -38.920195,64.302629 C -40.403478,66.209707 -38.920195,67.673044 -38.920195,67.673045 C -38.920195,67.673047 -37.790998,68.830821 -36.784486,70.075719 C -35.777971,71.320617 -34.548665,72.445021 -34.548665,72.445021 C -34.548665,72.445022 -32.733065,74.716135 -31.011396,76.649699 C -29.428575,78.427331 -28.071714,79.789929 -27.841203,80.02012 L -20.065886,80.02012 L -20.36622,79.252595 C -20.36622,79.252596 -19.811204,78.046029 -18.831179,77.383849 C -18.237886,76.982978 -17.630448,76.672788 -17.162656,76.449476 C -17.241913,76.398225 -17.318506,76.33385 -17.396249,76.282624 C -20.710182,74.099027 -23.102597,73.512876 -23.102597,73.512876 C -23.102597,73.512877 -24.188842,72.28252 -25.672123,71.143573 C -27.155405,70.004626 -29.042539,68.974494 -29.042539,68.974493 C -29.042539,68.974494 -30.582203,66.895065 -32.01251,65.570707 C -33.442823,64.246349 -34.782258,63.66859 -34.782258,63.66859 C -34.782258,63.668591 -35.782377,63.144911 -36.917968,63.234774 z "
         style="opacity:0.5;color:#000000;fill:url(#linearGradient3863);fill-opacity:1;fill-rule:evenodd;stroke:none;stroke-width:1px;stroke-linecap:butt;stroke-linejoin:miter;marker:none;marker-start:none;marker-mid:none;marker-end:none;stroke-miterlimit:4;stroke-dasharray:none;stroke-dashoffset:0;stroke-opacity:1;visibility:visible;display:inline;overflow:visible;enable-background:accumulate" />
      <path
         id="path2662"
         d="M -29.0625,69.09375 C -29.316075,69.296249 -29.656034,69.515102 -30.03125,69.875 C -30.454918,70.281375 -30.901951,70.519022 -31.28125,70.6875 C -31.445233,70.831731 -31.906251,71.28125 -31.90625,71.28125 C -31.906252,71.281252 -30.792735,71.036526 -29.875,70.15625 C -29.459561,69.757765 -29.106838,69.497247 -28.84375,69.28125 C -28.84683,69.279575 -28.90625,69.25 -28.90625,69.25 C -28.906249,69.250001 -29.001842,69.165401 -29.0625,69.09375 z M -23.625,73.4375 C -23.815298,73.432063 -24.289917,73.506933 -25.0625,74.125 C -25.577554,74.537043 -26.04492,74.93588 -26.375,75.25 C -26.648383,75.712579 -26.781251,76.062499 -26.78125,76.0625 C -26.78125,76.062497 -25.967608,75.230336 -24.9375,74.40625 C -24.365916,73.948982 -23.970401,73.797655 -23.71875,73.75 C -23.56396,73.538468 -23.53125,73.468751 -23.53125,73.46875 C -23.53125,73.46875 -23.561567,73.439312 -23.625,73.4375 z M -23.03125,73.75 C -23.375664,74.305159 -23.770547,74.88412 -24.28125,75.34375 C -24.78653,75.798503 -25.183732,76.107143 -25.53125,76.34375 C -25.966336,76.824864 -26.312499,77.187501 -26.3125,77.1875 C -26.3125,77.187503 -25.436048,76.804944 -24.125,75.625 C -23.563384,75.119543 -23.145507,74.476303 -22.78125,73.875 C -22.853548,73.855121 -22.96875,73.8125 -22.96875,73.8125 C -22.96875,73.8125 -23.026595,73.754544 -23.03125,73.75 z "
         style="opacity:0.25;color:#000000;fill:url(#radialGradient3865);fill-opacity:1;fill-rule:evenodd;stroke:none;stroke-width:1px;stroke-linecap:butt;stroke-linejoin:miter;marker:none;marker-start:none;marker-mid:none;marker-end:none;stroke-miterlimit:4;stroke-dasharray:none;stroke-dashoffset:0;stroke-opacity:1;visibility:visible;display:inline;overflow:visible;enable-background:accumulate" />
      <path
         id="path2664"
         d="M -9.187116,69.742014 C -9.399427,69.739532 -9.615879,69.769024 -9.821155,69.808755 C -10.642255,69.967679 -11.256084,70.542905 -11.256084,70.542905 C -11.256083,70.542908 -12.721079,71.97662 -13.992462,73.512876 C -14.188655,73.749943 -14.368239,73.965934 -14.55976,74.180285 C -14.351797,74.303684 -14.12752,74.422397 -13.959092,74.54736 C -13.378486,74.978134 -13.491905,75.681956 -13.491905,75.681956 C -13.491905,75.681955 -14.282151,77.958944 -16.061431,78.651927 C -17.370092,79.161618 -19.141152,78.801435 -19.999145,78.585186 C -20.23286,78.935003 -20.36622,79.252595 -20.36622,79.252595 L -20.065886,80.02012 L 0.056501,80.02012 L 0.056501,74.313767 C 0.001592,74.264158 -1.732899,72.705778 -3.714361,71.61076 C -5.727386,70.4983 -7.952409,69.908866 -7.952409,69.908866 C -7.95241,69.908867 -8.550182,69.749463 -9.187116,69.742014 z "
         style="opacity:0.5;color:#000000;fill:url(#linearGradient3867);fill-opacity:1;fill-rule:evenodd;stroke:none;stroke-width:1px;stroke-linecap:butt;stroke-linejoin:miter;marker:none;marker-start:none;marker-mid:none;marker-end:none;stroke-miterlimit:4;stroke-dasharray:none;stroke-dashoffset:0;stroke-opacity:1;visibility:visible;display:inline;overflow:visible;enable-background:accumulate" />
      <path
         style="opacity:0.35;color:#000000;fill:url(#radialGradient3869);fill-opacity:1;fill-rule:evenodd;stroke:none;stroke-width:1px;stroke-linecap:butt;stroke-linejoin:miter;marker:none;marker-start:none;marker-mid:none;marker-end:none;stroke-miterlimit:4;stroke-dasharray:none;stroke-dashoffset:0;stroke-opacity:1;visibility:visible;display:inline;overflow:visible;enable-background:accumulate"
         d="M -14.565479,74.188657 C -15.615068,75.363367 -16.567707,76.157514 -16.567707,76.157514 C -16.567708,76.157512 -17.856872,76.730042 -18.836898,77.392221 C -19.354552,77.741987 -19.743205,78.201915 -20.004864,78.593558 C -19.146872,78.809807 -17.375811,79.169989 -16.06715,78.660299 C -14.28787,77.967316 -13.497625,75.690326 -13.497625,75.690328 C -13.497625,75.690328 -13.384206,74.986505 -13.964811,74.555732 C -14.133239,74.430769 -14.357517,74.312055 -14.565479,74.188657 z "
         id="path2666" />
      <path
         sodipodi:nodetypes="ccsscccc"
         style="color:#000000;fill:url(#linearGradient3871);fill-opacity:1;fill-rule:evenodd;stroke:none;stroke-width:1px;stroke-linecap:butt;stroke-linejoin:miter;marker:none;marker-start:none;marker-mid:none;marker-end:none;stroke-miterlimit:4;stroke-dasharray:none;stroke-dashoffset:0;stroke-opacity:1;visibility:visible;display:inline;overflow:visible;enable-background:accumulate"
         d="M -35.742278,63.308828 C -34.26644,64.622439 -32.824268,65.876361 -32.358455,67.075769 C -32.617416,67.522639 -32.728453,68.168165 -32.575613,68.532053 C -32.45649,68.815661 -32.281917,69.025911 -31.736777,69.040088 C -31.331231,69.050635 -30.827377,68.651906 -31.393002,68.357073 C -32.009445,68.163441 -32.174457,67.807364 -32.125626,67.479708 L -30.875207,67.311649 C -33.162132,64.35106 -34.028857,64.26342 -35.742278,63.308828 z "
         id="path2668" />
      <path
         sodipodi:nodetypes="cssccsc"
         id="path2670"
         d="M -15.460762,78.318222 C -15.585672,78.401922 -15.729514,78.449301 -15.861208,78.518445 C -16.08988,78.696638 -16.312243,78.875366 -16.595358,78.985631 C -17.87789,79.485145 -19.590274,79.136058 -20.466331,78.91889 C -20.487837,78.949572 -20.513054,78.98904 -20.533072,79.019002 C -19.67508,79.23525 -17.904019,79.595433 -16.595358,79.085743 C -16.150538,78.912497 -15.785059,78.629141 -15.460762,78.318222 z "
         style="opacity:0.5;color:#000000;fill:url(#linearGradient3873);fill-opacity:1;fill-rule:evenodd;stroke:none;stroke-width:1px;stroke-linecap:butt;stroke-linejoin:miter;marker:none;marker-start:none;marker-mid:none;marker-end:none;stroke-miterlimit:4;stroke-dasharray:none;stroke-dashoffset:0;stroke-opacity:1;visibility:visible;display:inline;overflow:visible;enable-background:accumulate" />
      <path
         id="path2674"
         d="M -6.817813,73.84658 C -6.917275,74.680815 -6.920445,75.52563 -6.951295,76.382735 C -6.855541,76.650376 -6.696042,77.081311 -6.517479,77.750924 C -6.296333,78.580223 -6.579295,79.511803 -6.684331,80.020115 L -5.983552,80.020115 C -6.38573,78.002926 -6.56464,75.910829 -6.817813,73.84658 z "
         style="opacity:0.25;color:#000000;fill:url(#linearGradient3875);fill-opacity:1;fill-rule:evenodd;stroke:none;stroke-width:1px;stroke-linecap:butt;stroke-linejoin:miter;marker:none;marker-start:none;marker-mid:none;marker-end:none;stroke-miterlimit:4;stroke-dasharray:none;stroke-dashoffset:0;stroke-opacity:1;visibility:visible;display:inline;overflow:visible;enable-background:accumulate" />
      <path
         id="path2676"
         d="M -15.460762,78.318222 C -15.652654,78.446803 -15.839021,78.565304 -16.061431,78.651927 C -16.330532,78.756734 -16.632816,78.81209 -16.929063,78.852149 C -17.274364,78.898842 -17.616554,78.90086 -17.963547,78.88552 C -18.752129,78.85066 -19.488566,78.704489 -19.965774,78.585186 L -19.999145,78.585186 L -20.332849,78.91889 L -20.432961,78.985631 C -20.465349,79.002566 -20.517808,78.996156 -20.533072,79.019002 C -19.67508,79.23525 -17.904019,79.595433 -16.595358,79.085743 C -16.150538,78.912497 -15.785059,78.629141 -15.460762,78.318222 z "
         style="opacity:0.5;color:#000000;fill:url(#linearGradient3877);fill-opacity:1;fill-rule:evenodd;stroke:none;stroke-width:1px;stroke-linecap:butt;stroke-linejoin:miter;marker:none;marker-start:none;marker-mid:none;marker-end:none;stroke-miterlimit:4;stroke-dasharray:none;stroke-dashoffset:0;stroke-opacity:1;visibility:visible;display:inline;overflow:visible;enable-background:accumulate" />
      <path
         id="path2678"
         d="M -36.65625,66.5625 C -36.967507,66.927276 -37.351649,67.248981 -37.84375,67.5 C -38.147525,67.654954 -38.445206,67.772355 -38.75,67.84375 C -38.54265,68.055755 -37.675983,68.955856 -36.78125,70.0625 C -35.774735,71.307395 -34.5625,72.4375 -34.5625,72.4375 C -34.5625,72.437499 -32.721669,74.722686 -31,76.65625 C -29.417179,78.433885 -28.074261,79.801059 -27.84375,80.03125 L -21.875,80.03125 C -23.12406,78.630347 -24.427424,77.292466 -26.53125,77.03125 C -27.818605,72.395553 -30.006437,72.751557 -32,72 C -32.745769,69.843308 -34.523474,68.127012 -36.65625,66.5625 z "
         style="opacity:0.5;color:#000000;fill:url(#radialGradient3879);fill-opacity:1;fill-rule:evenodd;stroke:none;stroke-width:1px;stroke-linecap:butt;stroke-linejoin:miter;marker:none;marker-start:none;marker-mid:none;marker-end:none;stroke-miterlimit:4;stroke-dasharray:none;stroke-dashoffset:0;stroke-opacity:1;visibility:visible;display:inline;overflow:visible;enable-background:accumulate" />
      <path
         id="path2680"
         d="M -37.824707,63.47674 C -38.216105,63.641631 -38.600673,63.892811 -38.925932,64.311001 C -40.038394,65.741308 -39.473799,66.941256 -39.126155,67.447824 C -39.010273,67.61668 -38.925932,67.681417 -38.925932,67.681417 C -38.872506,67.734729 -38.805209,67.795502 -38.75908,67.84827 C -38.454286,67.776872 -38.161852,67.669519 -37.858078,67.514565 C -36.421089,66.781562 -35.650922,65.381458 -36.156183,64.377742 C -36.438156,63.817593 -37.085955,63.519211 -37.824707,63.47674 z "
         style="opacity:0.25;fill:url(#radialGradient3881);fill-opacity:1;fill-rule:nonzero;stroke:none;stroke-width:0.1;stroke-linecap:round;stroke-linejoin:round;stroke-miterlimit:4;stroke-dasharray:none;stroke-opacity:1" />
      <path
         id="path2789"
         d="M -6.875,71.8125 L -6.875,74.6875 C -6.859882,74.40423 -6.846066,74.125285 -6.8125,73.84375 C -6.559327,75.907999 -6.370928,78.014057 -5.96875,80.03125 L 0.0625,80.03125 L 0.0625,75.9375 C -1.26822,75.021545 -2.688892,74.197841 -4.03125,73.8125 C -5.288722,73.451525 -6.227561,72.689162 -6.875,71.8125 z "
         style="opacity:0.15;color:#000000;fill:url(#linearGradient3883);fill-opacity:1;fill-rule:evenodd;stroke:none;stroke-width:1px;stroke-linecap:butt;stroke-linejoin:miter;marker:none;marker-start:none;marker-mid:none;marker-end:none;stroke-miterlimit:4;stroke-dasharray:none;stroke-dashoffset:0;stroke-opacity:1;visibility:visible;display:inline;overflow:visible;enable-background:accumulate" />
      <path
         style="opacity:0.25;color:#000000;fill:url(#linearGradient3885);fill-opacity:1;fill-rule:evenodd;stroke:none;stroke-width:1px;stroke-linecap:butt;stroke-linejoin:miter;marker:none;marker-start:none;marker-mid:none;marker-end:none;stroke-miterlimit:4;stroke-dasharray:none;stroke-dashoffset:0;stroke-opacity:1;visibility:visible;display:inline;overflow:visible;enable-background:accumulate"
         d="M -7.8855429,74.118017 C -7.8855453,74.11802 -8.9805079,76.585135 -11.185201,78.269491 C -12.189246,79.03657 -13.449997,79.58969 -14.48486,80.02012 L -7.0213443,80.02012 C -6.7786983,79.254935 -6.1078894,77.861911 -6.6285284,76.618905 C -7.2458387,75.145093 -7.8855429,74.118017 -7.8855429,74.118017 z "
         id="path3786" />
      <path
         sodipodi:nodetypes="csccsssccccscccscccscc"
         id="path3794"
         d="M -9.1875,69.75 C -9.3998113,69.74752 -9.607224,69.772769 -9.8125,69.8125 C -9.94935,69.838988 -10.063928,69.893188 -10.1875,69.9375 C -9.8273569,69.979417 -9.5312505,70.062501 -9.53125,70.0625 C -9.53125,70.0625 -7.6043964,70.544279 -5.875,71.5 C -5.206855,71.869238 -4.6221012,72.298057 -4.09375,72.6875 C -4.064008,72.703661 -4.029666,72.702356 -4,72.71875 C -2.018538,73.813768 -0.273659,75.38789 -0.21875,75.4375 L -0.21875,80.03125 L 0.0625,80.03125 L 0.0625,74.3125 C 0.0075909989,74.262892 -1.737288,72.720018 -3.71875,71.625 C -5.731775,70.512536 -7.9375,69.90625 -7.9375,69.90625 C -7.9375012,69.90625 -8.550566,69.757449 -9.1875,69.75 z M -13.8125,76.34375 C -14.178445,77.069745 -14.876313,78.194261 -16.0625,78.65625 C -17.37116,79.165944 -19.142007,78.809999 -20,78.59375 C -20.233714,78.943571 -20.375,79.25 -20.375,79.25 L -20.1875,79.75 C -19.302709,79.96725 -17.612145,80.27526 -16.34375,79.78125 C -14.56447,79.088267 -13.78125,76.8125 -13.78125,76.8125 C -13.78125,76.8125 -13.749757,76.602891 -13.8125,76.34375 z "
         style="opacity:0.25;color:#000000;fill:url(#linearGradient3887);fill-opacity:1;fill-rule:evenodd;stroke:none;stroke-width:1px;stroke-linecap:butt;stroke-linejoin:miter;marker:none;marker-start:none;marker-mid:none;marker-end:none;stroke-miterlimit:4;stroke-dasharray:none;stroke-dashoffset:0;stroke-opacity:1;visibility:visible;display:inline;overflow:visible;enable-background:accumulate" />
    </g>
    <path
       transform="matrix(0.161497,7.1847987e-2,-7.9906493e-2,0.2755494,16.471762,-1.962713)"
       d="M 127.82442 115.70919 A 63.912209 12.641975 0 1 1  0,115.70919 A 63.912209 12.641975 0 1 1  127.82442 115.70919 z"
       sodipodi:ry="12.641975"
       sodipodi:rx="63.912209"
       sodipodi:cy="115.70919"
       sodipodi:cx="63.912209"
       id="path2593"
       style="opacity:0.38139535;fill:url(#radialGradient2595);fill-opacity:1;fill-rule:nonzero;stroke:none;stroke-width:0;stroke-linecap:round;stroke-linejoin:round;stroke-miterlimit:4;stroke-dasharray:none;stroke-dashoffset:4;stroke-opacity:1"
       sodipodi:type="arc" />
    <path
       style="opacity:0.95;fill:#381f09;fill-opacity:1;fill-rule:nonzero;stroke:none;stroke-width:0.2;stroke-linecap:round;stroke-linejoin:round;stroke-miterlimit:4;stroke-dasharray:none;stroke-opacity:1"
       d="M 21.7267,0.0625 C 19.599908,0.0625 17.709561,0.98842694 16.4142,2.46875 L 16.38295,2.4375 L 16.0392,2.9375 L 11.57045,9.1875 C 11.543485,9.2250298 11.534231,9.2744621 11.50795,9.3125 C 11.348709,9.5424601 11.204675,9.7530164 11.07045,10 C 10.980983,10.165023 10.897826,10.327872 10.82045,10.5 C 10.737607,10.682058 10.670614,10.873286 10.6017,11.0625 C 10.560488,11.178056 10.512526,11.288191 10.4767,11.40625 C 10.38549,11.699297 10.314337,12.005786 10.25795,12.3125 C 10.239783,12.414908 10.24089,12.521234 10.2267,12.625 C 10.174859,12.987782 10.13295,13.341709 10.13295,13.71875 C 10.13295,13.987586 10.137662,14.238002 10.1642,14.5 C 10.165184,14.510068 10.163178,14.521194 10.1642,14.53125 C 10.188526,14.762355 10.245172,14.993993 10.2892,15.21875 L 9.7579488,16 C 9.7150528,16.058656 9.6736854,16.127218 9.6329484,16.1875 L 9.570448,16.3125 C 9.541608,16.357518 9.504328,16.391653 9.4766976,16.4375 L 9.4141976,16.53125 C 9.3902242,16.57288 9.3746672,16.613984 9.3516972,16.65625 C 9.014137,17.264444 8.7912578,17.937497 8.6954444,18.65625 C 8.6602014,18.915795 8.6329444,19.168338 8.6329444,19.4375 C 8.6329444,19.639371 8.6442614,19.834451 8.6641944,20.03125 C 8.6841574,20.237981 8.7170058,20.425107 8.7579448,20.625 C 8.8746152,21.197162 9.081969,21.7194 9.3516972,22.21875 C 9.4453636,22.393037 9.522695,22.555599 9.6329484,22.71875 C 9.7379138,22.875098 9.8576542,23.01101 9.9766996,23.15625 C 10.219221,23.452568 10.462661,23.725023 10.75795,23.96875 C 10.902229,24.088756 11.040018,24.20662 11.19545,24.3125 C 11.35737,24.422906 11.522447,24.49973 11.69545,24.59375 C 11.861061,24.684498 12.020636,24.769139 12.19545,24.84375 C 12.203857,24.847355 12.218273,24.840184 12.2267,24.84375 C 12.568387,24.987584 12.918184,25.110843 13.2892,25.1875 C 13.6791,25.269455 14.062546,25.3125 14.4767,25.3125 C 14.678571,25.3125 14.873824,25.301238 15.07045,25.28125 C 15.131861,25.275023 15.197131,25.258145 15.25795,25.25 C 15.267951,25.24866 15.279215,25.251391 15.2892,25.25 C 15.49617,25.221169 15.683653,25.175244 15.88295,25.125 C 15.934044,25.112442 15.988642,25.107641 16.0392,25.09375 C 16.536903,24.953198 17.011365,24.760879 17.44545,24.5 C 17.670712,24.367997 17.865696,24.222463 18.07045,24.0625 C 18.111354,24.030073 18.155433,24.002237 18.19545,23.96875 C 18.766414,23.497484 19.273906,22.934503 19.63295,22.28125 L 19.69545,22.125 C 19.761276,21.996911 19.826516,21.852101 19.88295,21.71875 L 20.13295,21.1875 C 20.16456,21.177986 20.195261,21.166156 20.2267,21.15625 C 20.280592,21.139476 20.329566,21.111656 20.38295,21.09375 C 20.613917,21.015365 20.849801,20.942767 21.07045,20.84375 C 21.392938,20.700335 21.710284,20.559156 22.00795,20.375 C 22.096393,20.3198 22.171921,20.246115 22.25795,20.1875 C 22.465238,20.047421 22.659251,19.908845 22.8517,19.75 C 23.075676,19.564305 23.306031,19.365534 23.50795,19.15625 C 23.548592,19.114222 23.593253,19.074181 23.63295,19.03125 C 23.788877,18.862307 23.929702,18.682238 24.07045,18.5 C 24.142481,18.407037 24.221349,18.314988 24.2892,18.21875 C 24.49028,17.932348 24.658467,17.625269 24.82045,17.3125 C 24.956298,17.051665 25.089297,16.777058 25.19545,16.5 L 28.50795,9.5 L 28.44545,9.46875 C 28.699125,8.7386009 28.8517,7.9686325 28.8517,7.15625 C 28.8517,3.2330212 25.649928,0.062500001 21.7267,0.0625 z "
       id="path2250" />
    <path
       style="opacity:1;fill:#eeeeec;fill-opacity:1;fill-rule:nonzero;stroke:none;stroke-width:0.2;stroke-linecap:round;stroke-linejoin:round;stroke-miterlimit:4;stroke-dasharray:none;stroke-opacity:1"
       d="M 14.9767,11.84375 C 13.367606,12.007325 11.945134,12.870106 11.00795,14.09375 C 10.841566,14.310991 10.705165,14.510618 10.57045,14.75 L 9.570448,16.3125 L 9.4141976,16.53125 C 8.9129216,17.383575 8.6329444,18.375424 8.6329444,19.4375 C 8.6329444,22.667439 11.246761,25.3125 14.4767,25.3125 C 16.648724,25.3125 18.531579,24.10719 19.5392,22.34375 L 19.57045,22.375 L 20.57045,20.3125 L 20.6017,20.28125 C 20.628224,20.232325 20.639024,20.174763 20.6642,20.125 L 20.94545,19.5625 L 20.9142,19.5625 C 21.149861,18.941213 21.2892,18.262576 21.2892,17.5625 C 21.2892,14.3977 18.704001,11.84375 15.5392,11.84375 C 15.3414,11.84375 15.16936,11.824165 14.9767,11.84375 z M 13.4142,18.125 C 14.722218,18.125001 15.840607,18.928648 16.32045,20.0625 C 16.093813,20.128133 15.849398,20.1875 15.6017,20.1875 C 14.373825,20.1875 13.352348,19.309387 13.1017,18.15625 C 13.207869,18.145457 13.305199,18.125 13.4142,18.125 z "
       id="path3302" />
    <path
       style="opacity:0.5;fill:url(#linearGradient3344);fill-opacity:1;fill-rule:nonzero;stroke:none;stroke-width:0.2;stroke-linecap:round;stroke-linejoin:round;stroke-miterlimit:4;stroke-dasharray:none;stroke-opacity:1"
       d="M 14.7267,15.75 C 13.363696,15.75 12.196654,16.488166 11.57045,17.59375 L 10.4767,19.28125 C 11.116005,18.335211 12.187267,17.71875 13.4142,17.71875 C 15.377292,17.71875 16.9767,19.318157 16.9767,21.28125 C 16.9767,21.894717 16.813044,22.464856 16.5392,22.96875 C 17.054621,22.307308 17.668796,21.526092 17.7892,21.34375 C 18.157276,20.786328 18.38295,20.126853 18.38295,19.40625 C 18.38295,17.38839 16.74456,15.75 14.7267,15.75 z M 10.4767,19.28125 L 10.38295,19.40625 L 10.4142,19.4375 C 10.442166,19.391805 10.446759,19.325556 10.4767,19.28125 z M 10.9142,23.78125 C 11.078026,23.949323 11.251131,24.086033 11.44545,24.21875 C 11.256242,24.090889 11.075124,23.942174 10.9142,23.78125 z M 12.0392,24.5625 C 12.462275,24.743118 12.923427,24.84375 13.4142,24.84375 C 12.923427,24.84375 12.464626,24.742539 12.0392,24.5625 z M 13.4142,24.84375 C 13.814017,24.84375 14.182568,24.75034 14.5392,24.625 C 14.186688,24.74213 13.805875,24.84375 13.4142,24.84375 z "
       id="path3322" />
    <path
       style="opacity:0.35;fill:url(#linearGradient3376);fill-opacity:1;fill-rule:nonzero;stroke:none;stroke-width:0.2;stroke-linecap:round;stroke-linejoin:round;stroke-miterlimit:4;stroke-dasharray:none;stroke-opacity:1"
       d="M 13.4142,17.71875 C 11.451107,17.71875 9.8829492,19.318158 9.8829492,21.28125 C 9.8829492,23.244343 11.451107,24.84375 13.4142,24.84375 C 15.377293,24.84375 16.976699,23.244344 16.9767,21.28125 C 16.9767,19.318157 15.377292,17.718749 13.4142,17.71875 z M 13.4142,18.125 C 15.158222,18.125001 16.57045,19.537227 16.57045,21.28125 C 16.570449,23.025272 15.158223,24.4375 13.4142,24.4375 C 11.670176,24.437499 10.25795,23.025273 10.25795,21.28125 C 10.257948,19.537226 11.670177,18.125 13.4142,18.125 z "
       id="path3329" />
    <path
       style="opacity:0.75;fill:url(#radialGradient3675);fill-opacity:1;fill-rule:nonzero;stroke:none;stroke-width:0.2;stroke-linecap:round;stroke-linejoin:round;stroke-miterlimit:4;stroke-dasharray:none;stroke-opacity:1"
       d="M 18.952465,4.972668 C 16.791365,4.972668 14.170188,6.3922305 12.7892,7.84375 C 14.160481,6.6531207 15.957802,5.9375 17.9142,5.9375 C 22.215569,5.9375 25.69545,9.417381 25.69545,13.71875 C 25.69545,13.988796 26.015373,11.721212 25.82045,11.245355 C 24.144983,7.1551114 23.64941,5.5495334 18.952465,4.972668 z "
       id="path3656"
       sodipodi:nodetypes="ccsssc" />
    <path
       style="opacity:0.65;fill:url(#linearGradient3340);fill-opacity:1;fill-rule:nonzero;stroke:none;stroke-width:0.2;stroke-linecap:round;stroke-linejoin:round;stroke-miterlimit:4;stroke-dasharray:none;stroke-opacity:1"
       d="M 14.9767,11.84375 C 13.367606,12.007325 11.945134,12.870106 11.00795,14.09375 C 10.841566,14.310991 10.705165,14.510618 10.57045,14.75 L 9.570448,16.3125 L 9.414198,16.53125 C 8.912922,17.383575 8.632944,18.375424 8.632944,19.4375 C 8.632944,20.116576 8.764186,20.766777 8.976696,21.375 C 8.816432,20.863686 8.726695,20.314538 8.726695,19.75 C 8.726695,16.73913 11.18458,14.28125 14.19545,14.28125 C 17.20632,14.28125 19.63295,16.73913 19.63295,19.75 C 19.63295,22.760869 17.20632,25.1875 14.19545,25.1875 C 13.295073,25.1875 12.445982,24.978489 11.69545,24.59375 C 12.523504,25.047492 13.467344,25.3125 14.4767,25.3125 C 16.648724,25.3125 18.531579,24.10719 19.5392,22.34375 L 19.57045,22.375 L 20.57045,20.3125 L 20.6017,20.28125 C 20.628224,20.232325 20.639024,20.174763 20.6642,20.125 L 20.94545,19.5625 L 20.9142,19.5625 C 21.149861,18.941213 21.2892,18.262576 21.2892,17.5625 C 21.2892,14.3977 18.704001,11.84375 15.5392,11.84375 C 15.3414,11.84375 15.16936,11.824165 14.9767,11.84375 z "
       id="path3313" />
    <path
       style="opacity:0.25;fill:url(#linearGradient3368);fill-opacity:1;fill-rule:nonzero;stroke:none;stroke-width:0.2;stroke-linecap:round;stroke-linejoin:round;stroke-miterlimit:4;stroke-dasharray:none;stroke-opacity:1"
       d="M 14.19545,14.28125 C 11.18458,14.28125 8.7266948,16.73913 8.7266948,19.75 C 8.7266948,22.76087 11.18458,25.1875 14.19545,25.1875 C 17.20632,25.1875 19.63295,22.760869 19.63295,19.75 C 19.63295,16.73913 17.20632,14.28125 14.19545,14.28125 z M 14.19545,15.09375 C 16.768181,15.09375 18.8517,17.17727 18.8517,19.75 C 18.851701,22.322731 16.76818,24.40625 14.19545,24.40625 C 11.62272,24.40625 9.539198,22.32273 9.539198,19.75 C 9.539199,17.17727 11.62272,15.09375 14.19545,15.09375 z "
       id="path3256" />
    <path
       style="opacity:0.5;fill:url(#linearGradient3401);fill-opacity:1;fill-rule:nonzero;stroke:none;stroke-width:0.2;stroke-linecap:round;stroke-linejoin:round;stroke-miterlimit:4;stroke-dasharray:none;stroke-opacity:1"
       d="M 13.4142,18.125 C 13.305199,18.125 13.207869,18.145457 13.1017,18.15625 C 11.509517,18.317789 10.25795,19.646227 10.25795,21.28125 C 10.25795,22.270009 10.733597,23.139275 11.44545,23.71875 C 11.575566,23.255621 11.85803,22.791088 12.19545,22.3125 C 12.705495,21.589063 13.639246,20.775087 14.69545,20.03125 C 14.70448,20.034695 14.717622,20.027905 14.7267,20.03125 C 14.99905,20.131591 15.294731,20.1875 15.6017,20.1875 C 15.849398,20.1875 16.093813,20.128133 16.32045,20.0625 C 16.287708,19.985133 16.233995,19.917892 16.19545,19.84375 C 16.163767,19.782653 16.137002,19.715012 16.1017,19.65625 C 16.062171,19.591006 16.02067,19.530836 15.9767,19.46875 C 15.815478,19.2411 15.628248,19.021695 15.4142,18.84375 C 15.334986,18.776998 15.249711,18.714963 15.1642,18.65625 C 15.131617,18.634058 15.103886,18.614737 15.07045,18.59375 C 14.979033,18.535695 14.886715,18.485892 14.7892,18.4375 C 14.759887,18.423247 14.725261,18.419609 14.69545,18.40625 C 14.666086,18.392845 14.63155,18.387502 14.6017,18.375 C 14.499755,18.333108 14.396172,18.281127 14.2892,18.25 C 14.160218,18.211852 14.018664,18.177341 13.88295,18.15625 C 13.87255,18.154645 13.862134,18.157753 13.8517,18.15625 C 13.705552,18.135008 13.566802,18.125 13.4142,18.125 z M 16.44545,20.46875 C 15.429325,21.287976 14.78181,22.389721 15.1642,23.90625 C 16.0177,23.340393 16.570451,22.38128 16.57045,21.28125 C 16.57045,20.994057 16.517362,20.733269 16.44545,20.46875 z "
       id="path3399" />
    <path
       style="color:#000000;fill:#d3d7cf;fill-opacity:1;fill-rule:evenodd;stroke:none;stroke-width:1px;stroke-linecap:butt;stroke-linejoin:miter;marker:none;marker-start:none;marker-mid:none;marker-end:none;stroke-miterlimit:4;stroke-dasharray:none;stroke-dashoffset:0;stroke-opacity:1;visibility:visible;display:inline;overflow:visible;enable-background:accumulate"
       d="M 40.0625 17.53125 L 19.4375 24.5 C 19.431014 24.494845 19.412825 24.504968 19.40625 24.5 C 19.320764 24.435436 19.25429 24.341467 19.15625 24.3125 C 19.034149 24.276426 18.908774 24.287121 18.78125 24.3125 C 18.622339 24.344127 14.578259 25.206953 13.28125 25.59375 C 12.415099 25.852056 11.7189 26.368221 11.78125 27.4375 C 11.843598 28.506781 12.597253 29.424179 13.5 29.46875 C 13.568152 29.472114 13.622089 29.443849 13.6875 29.4375 C 13.712936 29.446636 13.754331 29.448245 13.78125 29.4375 C 14.163079 29.381701 19.203626 26.602981 19.25 26.59375 C 19.621779 26.519758 19.871312 26.228194 19.9375 25.8125 L 20 25.96875 L 40.0625 19.125 L 40.0625 17.53125 z "
       id="path3425" />
    <path
       style="color:#000000;fill:#00316e;fill-opacity:1;fill-rule:evenodd;stroke:none;stroke-width:1px;stroke-linecap:butt;stroke-linejoin:miter;marker:none;marker-start:none;marker-mid:none;marker-end:none;stroke-miterlimit:4;stroke-dasharray:none;stroke-dashoffset:0;stroke-opacity:1;visibility:visible;display:inline;overflow:visible;enable-background:accumulate"
       d="M 40.0625 17.5 L 19.4375 24.46875 C 19.679805 24.643683 19.835361 24.956314 19.90625 25.3125 C 19.93997 25.48193 19.961089 25.628316 19.9375 25.78125 L 20 25.96875 L 40.0625 19.125 L 40.0625 17.5 z "
       id="path3334" />
    <path
       style="opacity:0.25;color:#000000;fill:url(#linearGradient3781);fill-opacity:1;fill-rule:evenodd;stroke:none;stroke-width:1px;stroke-linecap:butt;stroke-linejoin:miter;marker:none;marker-start:none;marker-mid:none;marker-end:none;stroke-miterlimit:4;stroke-dasharray:none;stroke-dashoffset:0;stroke-opacity:1;visibility:visible;display:inline;overflow:visible;enable-background:accumulate"
       d="M 40.0625 17.5 L 19.4375 24.46875 C 19.498076 24.512483 19.543985 24.565525 19.59375 24.625 C 19.6139 24.647067 19.637438 24.663498 19.65625 24.6875 C 19.685584 24.728693 19.725053 24.766292 19.75 24.8125 C 19.836867 24.955869 19.87036 25.132167 19.90625 25.3125 C 19.92311 25.397214 19.930954 25.485608 19.9375 25.5625 C 19.938272 25.627259 19.945504 25.688447 19.9375 25.75 C 19.93626 25.760868 19.939185 25.770326 19.9375 25.78125 L 20 25.96875 L 40.0625 19.125 L 40.0625 17.5 z "
       id="path3316" />
    <g
       id="g3723"
       transform="matrix(1.101299,0,0,1.101299,-9.487742,-2.480757)"
       style="opacity:0.15;fill:url(#linearGradient3735);fill-opacity:1">
      <path
         sodipodi:nodetypes="cssssssssc"
         id="path3725"
         d="M 26.016399,24.348461 C 26.349009,24.446726 26.618074,24.79223 26.703899,25.223461 C 26.818332,25.798436 26.542073,26.318779 26.078899,26.410961 C 26.036792,26.419341 21.456855,28.954045 21.110148,29.004711 C 21.085705,29.014467 21.070744,29.013008 21.047648,29.004711 C 20.988253,29.010475 20.922032,29.039016 20.860148,29.035961 C 20.040437,28.995489 19.354262,28.163137 19.297648,27.192211 C 19.241034,26.221285 19.886167,25.739258 20.672648,25.504711 C 21.850357,25.153491 25.528352,24.377179 25.672648,24.348461 C 25.788442,24.325415 25.905528,24.315706 26.016399,24.348461 z "
         style="opacity:1;fill:url(#linearGradient3737);fill-opacity:1;fill-rule:nonzero;stroke:none;stroke-width:0.2;stroke-linecap:round;stroke-linejoin:round;stroke-miterlimit:4;stroke-dasharray:none;stroke-opacity:1" />
      <path
         style="opacity:0.85;fill:url(#linearGradient3739);fill-opacity:1;fill-rule:nonzero;stroke:none;stroke-width:0.2;stroke-linecap:round;stroke-linejoin:round;stroke-miterlimit:4;stroke-dasharray:none;stroke-opacity:1"
         d="M 26.016399,24.348461 C 26.349009,24.446726 26.618074,24.79223 26.703899,25.223461 C 26.818332,25.798436 26.542073,26.318779 26.078899,26.410961 C 26.036792,26.419341 21.456855,28.954045 21.110148,29.004711 C 21.085705,29.014467 21.070744,29.013008 21.047648,29.004711 C 20.988253,29.010475 20.922032,29.039016 20.860148,29.035961 C 20.040437,28.995489 19.354262,28.163137 19.297648,27.192211 C 19.241034,26.221285 19.886167,25.739258 20.672648,25.504711 C 21.850357,25.153491 25.528352,24.377179 25.672648,24.348461 C 25.788442,24.325415 25.905528,24.315706 26.016399,24.348461 z "
         id="path3727"
         sodipodi:nodetypes="cssssssssc" />
    </g>
    <g
       id="g3729"
       transform="matrix(1.101299,0,0,1.101299,-9.487742,-2.480757)"
       style="opacity:1;fill:url(#radialGradient3741);fill-opacity:1">
      <path
         sodipodi:nodetypes="cssssssssc"
         id="path3731"
         d="M 26.016399,24.348461 C 26.349009,24.446726 26.618074,24.79223 26.703899,25.223461 C 26.818332,25.798436 26.542073,26.318779 26.078899,26.410961 C 26.036792,26.419341 21.456855,28.954045 21.110148,29.004711 C 21.085705,29.014467 21.070744,29.013008 21.047648,29.004711 C 20.988253,29.010475 20.922032,29.039016 20.860148,29.035961 C 20.040437,28.995489 19.354262,28.163137 19.297648,27.192211 C 19.241034,26.221285 19.886167,25.739258 20.672648,25.504711 C 21.850357,25.153491 25.528352,24.377179 25.672648,24.348461 C 25.788442,24.325415 25.905528,24.315706 26.016399,24.348461 z "
         style="opacity:1;fill:url(#radialGradient3743);fill-opacity:1;fill-rule:nonzero;stroke:none;stroke-width:0.2;stroke-linecap:round;stroke-linejoin:round;stroke-miterlimit:4;stroke-dasharray:none;stroke-opacity:1" />
      <path
         style="opacity:0.85;fill:url(#radialGradient3745);fill-opacity:1;fill-rule:nonzero;stroke:none;stroke-width:0.2;stroke-linecap:round;stroke-linejoin:round;stroke-miterlimit:4;stroke-dasharray:none;stroke-opacity:1"
         d="M 26.016399,24.348461 C 26.349009,24.446726 26.618074,24.79223 26.703899,25.223461 C 26.818332,25.798436 26.542073,26.318779 26.078899,26.410961 C 26.036792,26.419341 21.456855,28.954045 21.110148,29.004711 C 21.085705,29.014467 21.070744,29.013008 21.047648,29.004711 C 20.988253,29.010475 20.922032,29.039016 20.860148,29.035961 C 20.040437,28.995489 19.354262,28.163137 19.297648,27.192211 C 19.241034,26.221285 19.886167,25.739258 20.672648,25.504711 C 21.850357,25.153491 25.528352,24.377179 25.672648,24.348461 C 25.788442,24.325415 25.905528,24.315706 26.016399,24.348461 z "
         id="path3733"
         sodipodi:nodetypes="cssssssssc" />
    </g>
    <path
       style="opacity:0.5;fill:url(#radialGradient2363);fill-opacity:1;fill-rule:nonzero;stroke:none;stroke-width:1;stroke-linecap:round;stroke-linejoin:miter;stroke-miterlimit:4;stroke-opacity:1"
       d="M 15.82045,19.28125 C 14.304404,20.181542 12.883269,21.336913 12.19545,22.3125 C 11.85803,22.791088 11.575566,23.255621 11.44545,23.71875 C 11.988516,24.160699 12.658936,24.4375 13.4142,24.4375 C 14.068209,24.4375 14.660485,24.246463 15.1642,23.90625 C 14.78181,22.389721 15.429325,21.287976 16.44545,20.46875 C 16.324613,20.023609 16.10804,19.624989 15.82045,19.28125 z M 11.3517,24.15625 C 11.336921,24.607696 11.517085,25.073772 11.9767,25.5625 C 12.757854,26.393134 15.141971,26.195679 15.19545,24.34375 C 14.670328,24.649152 14.063697,24.84375 13.4142,24.84375 C 12.636785,24.84375 11.932376,24.581168 11.3517,24.15625 z "
       id="path2357"
       sodipodi:nodetypes="cscsccccscsc" />
    <path
       id="path2359"
       d="M 13.1642,22.59375 C 12.290576,22.59375 11.581805,23.202709 11.38295,24 C 11.32063,24.501231 11.464329,25.017675 11.9767,25.5625 C 12.482153,26.099969 13.661395,26.209763 14.44545,25.71875 C 14.514587,25.675453 14.570694,25.615263 14.63295,25.5625 C 14.663694,25.524704 14.699041,25.477657 14.7267,25.4375 C 14.927227,25.146361 15.0392,24.815083 15.0392,24.4375 C 15.0392,23.430613 14.190451,22.593751 13.1642,22.59375 z "
       style="opacity:0.2238806;fill:url(#radialGradient2365);fill-opacity:1;fill-rule:nonzero;stroke:none;stroke-width:1;stroke-linecap:round;stroke-linejoin:miter;stroke-miterlimit:4;stroke-opacity:1" />
    <path
       style="opacity:0.2238806;fill:url(#linearGradient2372);fill-opacity:1;fill-rule:nonzero;stroke:none;stroke-width:1;stroke-linecap:round;stroke-linejoin:miter;stroke-miterlimit:4;stroke-opacity:1"
       d="M 15.82045,19.28125 C 14.303812,20.17891 12.884162,21.335646 12.19545,22.3125 C 11.858148,22.790919 11.574264,23.256866 11.44545,23.71875 C 11.45659,23.727816 11.465435,23.741084 11.4767,23.75 C 11.748868,23.079768 12.385144,22.59375 13.1642,22.59375 C 14.037824,22.593751 14.774428,23.198467 14.9767,24 C 15.03795,23.964377 15.10566,23.945788 15.1642,23.90625 C 14.781778,22.389773 15.429717,21.287333 16.44545,20.46875 C 16.324613,20.023609 16.10804,19.624989 15.82045,19.28125 z M 15.19545,24.34375 C 15.144804,24.373205 15.091379,24.41051 15.0392,24.4375 C 15.0392,24.815083 14.927227,25.146361 14.7267,25.4375 C 14.988535,25.167931 15.178569,24.821868 15.19545,24.34375 z "
       id="path2361"
       sodipodi:nodetypes="csssscccccccc" />
    <path
       style="opacity:0.5;fill:url(#linearGradient3404);fill-opacity:1;fill-rule:nonzero;stroke:none;stroke-width:0.2;stroke-linecap:round;stroke-linejoin:round;stroke-miterlimit:4;stroke-dasharray:none;stroke-opacity:1"
       d="M 12.00795,24.0625 C 11.988787,24.216627 11.997696,24.369933 12.0392,24.53125 C 12.456993,24.720904 12.921728,24.84375 13.4142,24.84375 C 13.907968,24.84375 14.362247,24.716308 14.7892,24.53125 C 14.792428,24.487122 14.82045,24.45166 14.82045,24.40625 C 14.82045,24.309262 14.808427,24.216493 14.7892,24.125 C 14.37706,24.330371 13.909367,24.4375 13.4142,24.4375 C 12.89447,24.4375 12.434204,24.286993 12.00795,24.0625 z "
       id="path3355" />
    <path
       style="opacity:1;fill:url(#radialGradient3419);fill-opacity:1;fill-rule:nonzero;stroke:none;stroke-width:1;stroke-linecap:round;stroke-linejoin:miter;stroke-miterlimit:4;stroke-opacity:1"
       d="M 13.443234,24.134733 C 13.480554,25.280665 12.134737,25.272026 11.884351,24.788858 C 11.54778,24.139382 11.782404,23.859273 12.021186,23.24465 C 12.502725,22.005174 14.590696,19.92818 15.466148,20.200105 C 15.992728,20.363666 12.631284,20.867232 13.443234,24.134733 z "
       id="path3410"
       sodipodi:nodetypes="csssc" />
    <path
       style="opacity:0.4;fill:url(#radialGradient3493);fill-opacity:1;fill-rule:nonzero;stroke:none;stroke-width:1;stroke-linecap:round;stroke-linejoin:miter;stroke-miterlimit:4;stroke-opacity:1"
       d="M 15.82045,19.28125 C 14.304404,20.181542 12.883269,21.336913 12.19545,22.3125 C 11.85803,22.791088 11.575566,23.255621 11.44545,23.71875 C 11.462879,23.732934 11.49026,23.73616 11.50795,23.75 C 11.472788,23.834957 11.405501,23.909586 11.38295,24 C 11.37516,24.062654 11.383984,24.124345 11.38295,24.1875 C 11.371469,24.179294 11.363086,24.164582 11.3517,24.15625 C 11.349338,24.228407 11.375006,24.302062 11.38295,24.375 C 11.408845,24.612768 11.481917,24.846207 11.63295,25.09375 C 11.645159,25.114414 11.651002,25.13551 11.6642,25.15625 C 11.750336,25.288076 11.84963,25.427381 11.9767,25.5625 C 12.074404,25.666392 12.211366,25.741818 12.3517,25.8125 C 12.483614,25.878941 12.601602,25.933797 12.75795,25.96875 C 12.768456,25.971095 12.778615,25.966553 12.7892,25.96875 C 12.956877,26.00388 13.140957,26.034423 13.32045,26.03125 C 13.362604,26.030505 13.403172,26.034193 13.44545,26.03125 C 13.519491,26.025968 13.590626,26.012196 13.6642,26 C 13.75827,25.984683 13.854138,25.964383 13.94545,25.9375 C 14.088319,25.895439 14.222658,25.821521 14.3517,25.75 C 14.380064,25.734279 14.418008,25.735935 14.44545,25.71875 C 14.514587,25.675453 14.570694,25.615263 14.63295,25.5625 C 14.643994,25.553115 14.6534,25.540938 14.6642,25.53125 C 14.969305,25.257568 15.180138,24.87399 15.19545,24.34375 C 15.14366,24.37387 15.092538,24.409616 15.0392,24.4375 C 15.0392,24.287753 15.012038,24.140032 14.9767,24 C 15.036132,23.965282 15.107012,23.944875 15.1642,23.90625 C 14.78181,22.389721 15.429325,21.287976 16.44545,20.46875 C 16.324613,20.023609 16.10804,19.624989 15.82045,19.28125 z "
       id="path3484" />
    <path
       style="opacity:0.5;fill:url(#linearGradient3501);fill-opacity:1;fill-rule:nonzero;stroke:none;stroke-width:0.2;stroke-linecap:round;stroke-linejoin:round;stroke-miterlimit:4;stroke-dasharray:none;stroke-opacity:1"
       d="M 16.44545,20.46875 C 15.429325,21.287976 14.78181,22.389721 15.1642,23.90625 C 16.0177,23.340393 16.570451,22.38128 16.57045,21.28125 C 16.57045,20.994057 16.517362,20.733269 16.44545,20.46875 z "
       id="path3495" />
    <path
       style="opacity:0.75;fill:url(#linearGradient3536);fill-opacity:1;fill-rule:nonzero;stroke:none;stroke-width:0.2;stroke-linecap:round;stroke-linejoin:round;stroke-miterlimit:4;stroke-dasharray:none;stroke-opacity:1"
       d="M 10.32045,12.03125 C 10.199426,12.576997 10.13295,13.136273 10.13295,13.71875 C 10.13295,14.223289 10.166214,14.740837 10.25795,15.21875 L 10.57045,14.75 C 10.705165,14.510618 10.841566,14.310991 11.00795,14.09375 C 11.188178,13.858434 11.387702,13.643719 11.6017,13.4375 C 11.12953,13.009586 10.694068,12.545191 10.32045,12.03125 z M 25.5392,12.15625 C 24.385351,13.685277 22.745813,14.841929 20.8517,15.4375 C 21.120244,16.098194 21.2892,16.805242 21.2892,17.5625 C 21.2892,18.262576 21.149861,18.941213 20.9142,19.5625 L 20.94545,19.5625 L 20.6642,20.125 C 20.639024,20.174763 20.628224,20.232325 20.6017,20.28125 L 20.57045,20.3125 L 20.1642,21.1875 C 23.36879,20.220689 25.69545,17.23727 25.69545,13.71875 C 25.69545,13.181079 25.642754,12.663057 25.5392,12.15625 z "
       id="path3528" />
    <path
       style="opacity:0.75;fill:url(#linearGradient3580);fill-opacity:1;fill-rule:nonzero;stroke:none;stroke-width:0.2;stroke-linecap:round;stroke-linejoin:round;stroke-miterlimit:4;stroke-dasharray:none;stroke-opacity:1"
       d="M 28.3517,4.625 C 28.3517,4.625 25.471835,11.826556 25.5392,12.15625 C 25.642754,12.663057 25.69545,13.181079 25.69545,13.71875 C 25.69545,14.798936 25.467103,15.813546 25.07045,16.75 L 28.50795,9.5 L 28.44545,9.46875 C 28.699125,8.738601 28.8517,7.968633 28.8517,7.15625 C 28.8517,6.9106835 28.84783,6.6749616 28.82045,6.4375 C 28.800341,6.2408207 28.762626,6.0353066 28.7267,5.84375 C 28.718015,5.8015536 28.704887,5.7606711 28.69545,5.71875 C 28.660658,5.5498667 28.617073,5.3830007 28.57045,5.21875 C 28.509267,5.0146791 28.42801,4.8220925 28.3517,4.625 z "
       id="path3570" />
    <path
       style="opacity:0.5;fill:url(#linearGradient3589);fill-opacity:1;fill-rule:nonzero;stroke:none;stroke-width:0.2;stroke-linecap:round;stroke-linejoin:round;stroke-miterlimit:4;stroke-dasharray:none;stroke-opacity:1"
       d="M 21.7267,0.0625 C 19.599908,0.0625 17.709561,0.988427 16.4142,2.46875 L 16.38295,2.4375 L 16.0392,2.9375 L 11.57045,9.1875 C 12.981833,7.2208028 15.305669,5.9375 17.9142,5.9375 C 21.677898,5.9375 24.814321,8.6085978 25.5392,12.15625 C 25.471835,11.826556 28.3517,4.625 28.3517,4.625 C 28.42801,4.8220925 28.509267,5.0146791 28.57045,5.21875 C 27.72397,2.2366278 24.98032,0.0625 21.7267,0.0625 z M 11.07045,10 C 10.94955,10.223001 10.856626,10.451709 10.75795,10.6875 C 10.856312,10.45472 10.950743,10.220521 11.07045,10 z M 24.75795,17.4375 C 24.582192,17.780369 24.573266,17.778595 24.75795,17.4375 z M 24.13295,18.4375 C 23.926897,18.709879 23.684758,18.944744 23.44545,19.1875 C 23.685399,18.945047 23.926551,18.709871 24.13295,18.4375 z M 23.25795,19.375 C 22.983309,19.635321 22.693215,19.875408 22.38295,20.09375 C 22.692394,19.87648 22.983788,19.633789 23.25795,19.375 z M 22.25795,20.1875 C 21.96887,20.382471 21.666654,20.56346 21.3517,20.71875 C 21.669766,20.562141 21.965857,20.384062 22.25795,20.1875 z M 20.57045,20.3125 L 20.13295,21.1875 C 20.142226,21.184708 20.154938,21.190325 20.1642,21.1875 L 20.57045,20.3125 z "
       id="path3582" />
    <path
       style="opacity:0.48258709;fill:url(#radialGradient3598);fill-opacity:1;fill-rule:nonzero;stroke:none;stroke-width:0.2;stroke-linecap:round;stroke-linejoin:round;stroke-miterlimit:4;stroke-dasharray:none;stroke-opacity:1"
       d="M 17.9142,5.9375 C 14.195308,5.9375 11.093145,8.5468634 10.32045,12.03125 C 10.694068,12.545191 11.12953,13.009586 11.6017,13.4375 C 12.50049,12.571381 13.677047,11.975868 14.9767,11.84375 C 15.16936,11.824165 15.3414,11.84375 15.5392,11.84375 C 17.946743,11.84375 19.997922,13.336964 20.8517,15.4375 C 22.745813,14.841929 24.385351,13.685277 25.5392,12.15625 C 24.814321,8.6085978 21.677898,5.9375 17.9142,5.9375 z M 10.2892,12.15625 C 10.185646,12.663057 10.13295,13.181079 10.13295,13.71875 C 10.13295,13.180057 10.18492,12.662906 10.2892,12.15625 z "
       id="path3591" />
    <path
       style="opacity:0.15;fill:url(#linearGradient3646);fill-opacity:1;fill-rule:nonzero;stroke:none;stroke-width:0.2;stroke-linecap:round;stroke-linejoin:round;stroke-miterlimit:4;stroke-opacity:1"
       d="M 19.75795,7.59375 C 16.632586,7.5939085 13.632445,9.5400052 16.38295,10.46875 C 17.987508,11.01055 20.511022,11.871994 21.8517,14.9375 C 22.725046,16.934436 24.408761,14.98277 24.32045,12.34375 C 24.32045,9.21902 22.882679,7.5935914 19.75795,7.59375 z M 19.8517,7.9375 C 22.701838,7.9373557 24.0392,9.4311124 24.0392,12.28125 C 24.119752,14.688357 22.554548,16.477702 21.75795,14.65625 C 20.535087,11.860132 18.252754,11.056689 16.7892,10.5625 C 14.280404,9.7153729 17.000988,7.9376445 19.8517,7.9375 z "
       id="path3613" />
    <path
       sodipodi:nodetypes="csssc"
       id="path3639"
       d="M 24.034341,12.28902 C 24.114892,14.696127 22.563569,16.46834 21.766971,14.646888 C 20.544109,11.85077 18.24823,11.063754 16.784676,10.569565 C 14.27588,9.7224377 17.01581,7.9403498 19.866522,7.9402053 C 22.71666,7.9400608 24.034341,9.4388824 24.034341,12.28902 z "
       style="opacity:0.60199005;fill:url(#radialGradient3641);fill-opacity:1;fill-rule:nonzero;stroke:none;stroke-width:0.2;stroke-linecap:round;stroke-linejoin:round;stroke-miterlimit:4;stroke-opacity:1" />
    <path
       transform="matrix(9.5363529e-2,7.9251845e-2,-3.8998602e-2,4.6926912e-2,21.652623,6.3256756)"
       d="M 30.681449 13.419245 A 7.8768721 7.8768721 0 1 1  14.927705,13.419245 A 7.8768721 7.8768721 0 1 1  30.681449 13.419245 z"
       sodipodi:ry="7.8768721"
       sodipodi:rx="7.8768721"
       sodipodi:cy="13.419245"
       sodipodi:cx="22.804577"
       id="path3677"
       style="opacity:1;fill:url(#radialGradient3685);fill-opacity:1;fill-rule:nonzero;stroke:none;stroke-width:0.2;stroke-linecap:round;stroke-linejoin:round;stroke-miterlimit:4;stroke-dasharray:none;stroke-opacity:1"
       sodipodi:type="arc" />
    <path
       sodipodi:type="arc"
       style="opacity:1;fill:url(#radialGradient3689);fill-opacity:1;fill-rule:nonzero;stroke:none;stroke-width:0.2;stroke-linecap:round;stroke-linejoin:round;stroke-miterlimit:4;stroke-dasharray:none;stroke-opacity:1"
       id="path3687"
       sodipodi:cx="22.804577"
       sodipodi:cy="13.419245"
       sodipodi:rx="7.8768721"
       sodipodi:ry="7.8768721"
       d="M 30.681449 13.419245 A 7.8768721 7.8768721 0 1 1  14.927705,13.419245 A 7.8768721 7.8768721 0 1 1  30.681449 13.419245 z"
       transform="matrix(6.0393843e-2,5.0190293e-2,-2.4697863e-2,2.9718873e-2,18.686397,11.386419)" />
    <path
       style="opacity:0.56796115;fill:url(#radialGradient3397);fill-opacity:1;fill-rule:nonzero;stroke:none;stroke-width:0.2;stroke-linecap:round;stroke-linejoin:round;stroke-miterlimit:4;stroke-dasharray:none;stroke-opacity:1"
       d="M 17.9142,5.9375 C 15.49468,5.9375 13.312554,7.049205 11.88295,8.78125 L 11.57045,9.1875 C 11.543485,9.22503 11.534231,9.274462 11.50795,9.3125 C 11.348709,9.54246 11.204675,9.753016 11.07045,10 C 10.983174,10.160595 10.896511,10.332846 10.82045,10.5 C 10.737607,10.682058 10.670614,10.873286 10.6017,11.0625 C 10.560488,11.178056 10.512526,11.288191 10.4767,11.40625 C 10.38549,11.699297 10.314337,12.005786 10.25795,12.3125 C 10.239783,12.414908 10.24089,12.521234 10.2267,12.625 C 10.17793,12.981635 10.13295,13.348367 10.13295,13.71875 C 10.13295,13.977101 10.137115,14.219485 10.1642,14.46875 C 10.166091,14.488907 10.162155,14.511138 10.1642,14.53125 C 10.190855,14.759805 10.245174,14.993992 10.2892,15.21875 L 10.57045,14.75 C 10.705165,14.510618 10.841566,14.310991 11.00795,14.09375 C 11.945134,12.870106 13.367606,12.007325 14.9767,11.84375 C 15.16936,11.824165 15.3414,11.84375 15.5392,11.84375 C 18.704001,11.84375 21.2892,14.3977 21.2892,17.5625 C 21.2892,18.262576 21.149861,18.941213 20.9142,19.5625 L 20.94545,19.5625 L 20.6642,20.125 C 20.639024,20.174763 20.628224,20.232325 20.6017,20.28125 L 20.57045,20.3125 L 20.1642,21.15625 C 20.182996,21.150557 20.207964,21.162081 20.2267,21.15625 C 20.700813,21.007079 21.170455,20.825451 21.6017,20.59375 C 21.831487,20.470289 22.042561,20.332444 22.25795,20.1875 C 22.47739,20.039209 22.680183,19.888028 22.88295,19.71875 C 23.082392,19.553678 23.263504,19.371345 23.44545,19.1875 C 23.585842,19.045643 23.722541,18.90232 23.8517,18.75 C 23.889249,18.705531 23.940137,18.670312 23.9767,18.625 C 24.015512,18.577048 24.032773,18.517643 24.07045,18.46875 C 24.19091,18.31243 24.305796,18.165546 24.4142,18 C 24.531666,17.820615 24.655477,17.626986 24.75795,17.4375 C 24.779769,17.397351 24.79932,17.353071 24.82045,17.3125 C 24.914882,17.130163 24.990278,16.940328 25.07045,16.75 L 25.19545,16.5 C 25.526842,15.635071 25.69545,14.699796 25.69545,13.71875 C 25.69545,9.417381 22.215569,5.9375 17.9142,5.9375 z "
       id="path2415" />
    <rect
       style="opacity:0.61162792;fill:#555753;fill-opacity:1;fill-rule:nonzero;stroke:none;stroke-width:0.69999999;stroke-linecap:round;stroke-linejoin:miter;stroke-miterlimit:4;stroke-dasharray:none;stroke-opacity:1"
       id="rect1951"
       width="40.001965"
       height="10.004759"
       x="-0.0019644466"
       y="30" />
    <text
       xml:space="preserve"
       style="font-size:12px;font-style:normal;font-weight:normal;fill:#eeeeec;fill-opacity:1;stroke:none;stroke-width:1px;stroke-linecap:butt;stroke-linejoin:miter;stroke-opacity:1;font-family:Bitstream Vera Sans"
       x="18.260256"
       y="39.168152"
       id="text2840"><tspan
         sodipodi:role="line"
         id="tspan2842"
         x="18.260256"
         y="39.168152">I</tspan></text>
    <path
       id="path2683"
       d="M 14.7267,15.75 C 13.363696,15.75 12.196654,16.488166 11.57045,17.59375 L 10.4767,19.28125 C 11.116005,18.335211 12.187267,17.71875 13.4142,17.71875 C 15.377292,17.71875 16.9767,19.318157 16.9767,21.28125 C 16.9767,21.894717 16.813044,22.464856 16.5392,22.96875 C 17.054621,22.307308 17.668796,21.526092 17.7892,21.34375 C 18.157276,20.786328 18.38295,20.126853 18.38295,19.40625 C 18.38295,17.38839 16.74456,15.75 14.7267,15.75 z M 10.4767,19.28125 L 10.38295,19.40625 L 10.4142,19.4375 C 10.442166,19.391805 10.446759,19.325556 10.4767,19.28125 z M 10.9142,23.78125 C 11.078026,23.949323 11.251131,24.086033 11.44545,24.21875 C 11.256242,24.090889 11.075124,23.942174 10.9142,23.78125 z M 12.0392,24.5625 C 12.462275,24.743118 12.923427,24.84375 13.4142,24.84375 C 12.923427,24.84375 12.464626,24.742539 12.0392,24.5625 z M 13.4142,24.84375 C 13.814017,24.84375 14.182568,24.75034 14.5392,24.625 C 14.186688,24.74213 13.805875,24.84375 13.4142,24.84375 z "
       style="opacity:0.15;fill:url(#radialGradient3654);fill-opacity:1;fill-rule:nonzero;stroke:none;stroke-width:0.2;stroke-linecap:round;stroke-linejoin:round;stroke-miterlimit:4;stroke-dasharray:none;stroke-opacity:1" />
    <path
       id="path3658"
       d="M 14.19545,15.09375 C 11.62272,15.09375 9.539199,17.17727 9.539198,19.75 C 9.539198,20.382773 9.685841,20.981386 9.9142,21.53125 C 9.90833,21.447104 9.882949,21.366882 9.882949,21.28125 C 9.882949,20.603983 10.089077,19.977448 10.4142,19.4375 L 10.38295,19.40625 L 10.4767,19.28125 L 11.57045,17.59375 C 12.196654,16.488166 13.363696,15.75 14.7267,15.75 C 16.74456,15.75 18.38295,17.38839 18.38295,19.40625 C 18.38295,20.126853 18.157276,20.786328 17.7892,21.34375 C 17.668796,21.526092 17.054621,22.307308 16.5392,22.96875 C 16.264373,23.476225 15.890125,23.89684 15.4142,24.21875 C 17.390232,23.680118 18.851701,21.897412 18.8517,19.75 C 18.8517,17.17727 16.768181,15.09375 14.19545,15.09375 z "
       style="opacity:0.5;fill:url(#linearGradient3670);fill-opacity:1.0;fill-rule:nonzero;stroke:none;stroke-width:0.2;stroke-linecap:round;stroke-linejoin:round;stroke-miterlimit:4;stroke-dasharray:none;stroke-opacity:1" />
    <path
       id="path3690"
       d="M 21.7267,0.0625 C 19.599908,0.0625 17.709561,0.988427 16.4142,2.46875 L 16.38295,2.4375 L 16.0392,2.9375 L 11.57045,9.1875 C 12.981833,7.2208028 15.305669,5.9375 17.9142,5.9375 C 22.215569,5.9375 25.69545,9.417381 25.69545,13.71875 C 25.69545,14.798936 25.467103,15.813546 25.07045,16.75 L 28.50795,9.5 L 28.44545,9.46875 C 28.699125,8.738601 28.8517,7.968633 28.8517,7.15625 C 28.8517,3.233021 25.649928,0.0625 21.7267,0.0625 z M 11.07045,10 C 10.94955,10.223001 10.856626,10.451709 10.75795,10.6875 C 10.856312,10.45472 10.950743,10.220521 11.07045,10 z M 24.13295,18.4375 C 23.926897,18.709879 23.684758,18.944744 23.44545,19.1875 C 23.685399,18.945047 23.926551,18.709871 24.13295,18.4375 z M 23.25795,19.375 C 22.983309,19.635321 22.693215,19.875408 22.38295,20.09375 C 22.692394,19.87648 22.983788,19.633789 23.25795,19.375 z M 22.25795,20.1875 C 21.96887,20.382471 21.666654,20.56346 21.3517,20.71875 C 21.669766,20.562141 21.965857,20.384062 22.25795,20.1875 z M 20.57045,20.3125 L 20.13295,21.1875 C 20.142226,21.184708 20.154938,21.190325 20.1642,21.1875 L 20.57045,20.3125 z "
       style="opacity:0.75;fill:url(#radialGradient3694);fill-opacity:1;fill-rule:nonzero;stroke:none;stroke-width:0.2;stroke-linecap:round;stroke-linejoin:round;stroke-miterlimit:4;stroke-dasharray:none;stroke-opacity:1" />
  </g>
</svg>
