<?xml version="1.0" encoding="UTF-8" standalone="no"?>
<!-- Created with Inkscape (http://www.inkscape.org/) -->
<svg
   xmlns:dc="http://purl.org/dc/elements/1.1/"
   xmlns:cc="http://web.resource.org/cc/"
   xmlns:rdf="http://www.w3.org/1999/02/22-rdf-syntax-ns#"
   xmlns:svg="http://www.w3.org/2000/svg"
   xmlns="http://www.w3.org/2000/svg"
   xmlns:xlink="http://www.w3.org/1999/xlink"
   xmlns:sodipodi="http://sodipodi.sourceforge.net/DTD/sodipodi-0.dtd"
   xmlns:inkscape="http://www.inkscape.org/namespaces/inkscape"
   version="1.0"
   width="40"
   height="40"
   id="svg2193"
   sodipodi:version="0.32"
   inkscape:version="0.44.1"
   sodipodi:docname="54.svg"
   sodipodi:docbase="/home/carsten/svn/kalzium_www/files">
  <metadata
     id="metadata81">
    <rdf:RDF>
      <cc:Work
         rdf:about="">
        <dc:format>image/svg+xml</dc:format>
        <dc:type
           rdf:resource="http://purl.org/dc/dcmitype/StillImage" />
      </cc:Work>
    </rdf:RDF>
  </metadata>
  <sodipodi:namedview
     inkscape:window-height="637"
     inkscape:window-width="925"
     inkscape:pageshadow="2"
     inkscape:pageopacity="0.0"
     guidetolerance="10.0"
     gridtolerance="10.0"
     objecttolerance="10.0"
     borderopacity="1.0"
     bordercolor="#666666"
     pagecolor="#ffffff"
     id="base"
     inkscape:zoom="10.875"
     inkscape:cx="20"
     inkscape:cy="19.954023"
     inkscape:window-x="347"
     inkscape:window-y="0"
     inkscape:current-layer="svg2193" />
  <defs
     id="defs2195">
    <linearGradient
       id="linearGradient3255">
      <stop
         style="stop-color:#5a5a5a;stop-opacity:1"
         offset="0"
         id="stop3257" />
      <stop
         style="stop-color:#868686;stop-opacity:1"
         offset="0.5"
         id="stop3259" />
      <stop
         style="stop-color:#3b3b3b;stop-opacity:1"
         offset="1"
         id="stop3261" />
    </linearGradient>
    <linearGradient
       id="linearGradient4251">
      <stop
         style="stop-color:#000000;stop-opacity:1"
         offset="0"
         id="stop4253" />
      <stop
         style="stop-color:#e0e0e0;stop-opacity:1"
         offset="0.5"
         id="stop4257" />
      <stop
         style="stop-color:#3b3b3b;stop-opacity:1"
         offset="1"
         id="stop4255" />
    </linearGradient>
    <linearGradient
       id="linearGradient3246">
      <stop
         style="stop-color:#7c7c7c;stop-opacity:1"
         offset="0"
         id="stop3248" />
      <stop
         style="stop-color:#d9d9d9;stop-opacity:1"
         offset="0.75"
         id="stop4223" />
      <stop
         style="stop-color:#626262;stop-opacity:1"
         offset="1"
         id="stop3250" />
    </linearGradient>
    <linearGradient
       id="linearGradient3285">
      <stop
         style="stop-color:#000000;stop-opacity:1"
         offset="0"
         id="stop3287" />
      <stop
         style="stop-color:#000000;stop-opacity:0"
         offset="1"
         id="stop3289" />
    </linearGradient>
    <linearGradient
       id="linearGradient3267">
      <stop
         style="stop-color:#000000;stop-opacity:1"
         offset="0"
         id="stop3269" />
      <stop
         style="stop-color:#000000;stop-opacity:0.49803922"
         offset="0.5"
         id="stop3275" />
      <stop
         style="stop-color:#000000;stop-opacity:1"
         offset="1"
         id="stop3271" />
    </linearGradient>
    <linearGradient
       id="linearGradient3251">
      <stop
         style="stop-color:#000000;stop-opacity:1"
         offset="0"
         id="stop3253" />
      <stop
         style="stop-color:#000000;stop-opacity:0.56565654"
         offset="1"
         id="stop3255" />
    </linearGradient>
    <linearGradient
       id="linearGradient3385">
      <stop
         style="stop-color:#000000;stop-opacity:0"
         offset="0"
         id="stop3387" />
      <stop
         style="stop-color:#000000;stop-opacity:0.63636363"
         offset="0.70833331"
         id="stop3393" />
      <stop
         style="stop-color:#000000;stop-opacity:0"
         offset="1"
         id="stop3389" />
    </linearGradient>
    <linearGradient
       id="linearGradient3239">
      <stop
         style="stop-color:#eeeeec;stop-opacity:1"
         offset="0"
         id="stop3241" />
      <stop
         style="stop-color:#eeeeec;stop-opacity:0"
         offset="1"
         id="stop3243" />
    </linearGradient>
    <linearGradient
       id="linearGradient4467">
      <stop
         style="stop-color:#3465a4;stop-opacity:0.63636363"
         offset="0"
         id="stop4469" />
      <stop
         style="stop-color:#dce7f4;stop-opacity:0.83838385"
         offset="0.5"
         id="stop2252" />
      <stop
         style="stop-color:#3465a4;stop-opacity:0"
         offset="1"
         id="stop4471" />
    </linearGradient>
    <linearGradient
       id="linearGradient3220">
      <stop
         style="stop-color:#000000;stop-opacity:1"
         offset="0"
         id="stop3222" />
      <stop
         style="stop-color:#c1c3c0;stop-opacity:1"
         offset="1"
         id="stop3224" />
    </linearGradient>
    <linearGradient
       id="linearGradient3291">
      <stop
         style="stop-color:#000000;stop-opacity:1"
         offset="0"
         id="stop3293" />
      <stop
         style="stop-color:#000000;stop-opacity:0"
         offset="1"
         id="stop3295" />
    </linearGradient>
    <radialGradient
       cx="63.912209"
       cy="115.70919"
       r="63.912209"
       fx="75.857941"
       fy="115.70919"
       id="radialGradient2595"
       xlink:href="#linearGradient3291"
       gradientUnits="userSpaceOnUse"
       gradientTransform="matrix(1,0,0,0.197802,0,92.82166)" />
    <radialGradient
       cx="20.734348"
       cy="15.24016"
       r="3.7305329"
       fx="20.734348"
       fy="15.24016"
       id="radialGradient3391"
       xlink:href="#linearGradient3385"
       gradientUnits="userSpaceOnUse"
       gradientTransform="matrix(0.9341585,-1.9840313e-7,2.2173129e-7,1.0439965,2.2550263,0.1386733)" />
    <radialGradient
       cx="22.002054"
       cy="8.5025358"
       r="5.1787753"
       fx="22.002054"
       fy="8.5025358"
       id="radialGradient2260"
       xlink:href="#linearGradient4467"
       gradientUnits="userSpaceOnUse"
       gradientTransform="matrix(1.4455747e-2,1.3227995,-1.438322,1.0429341e-2,29.406248,-15.804852)" />
    <radialGradient
       cx="16.63308"
       cy="14.094125"
       r="5.1787753"
       fx="16.63308"
       fy="14.094125"
       id="radialGradient3257"
       xlink:href="#linearGradient3251"
       gradientUnits="userSpaceOnUse"
       gradientTransform="matrix(1,0,0,0.9086322,0,1.2877487)" />
    <linearGradient
       x1="29.540291"
       y1="5.7148638"
       x2="37.379349"
       y2="18.112705"
       id="linearGradient3273"
       xlink:href="#linearGradient3267"
       gradientUnits="userSpaceOnUse"
       gradientTransform="matrix(1.0035005,0,0,1.0035005,0.8172677,0.7558338)" />
    <linearGradient
       x1="18.210184"
       y1="0.82891828"
       x2="24.95257"
       y2="13.310755"
       id="linearGradient3292"
       xlink:href="#linearGradient3285"
       gradientUnits="userSpaceOnUse"
       gradientTransform="matrix(1.0035005,0,0,1.0035005,0.8172677,0.7558338)" />
    <linearGradient
       x1="2.781168"
       y1="14.265625"
       x2="28.34606"
       y2="14.265625"
       id="linearGradient3252"
       xlink:href="#linearGradient3246"
       gradientUnits="userSpaceOnUse"
       gradientTransform="matrix(1.0035005,0,0,1.0035005,0.8172677,0.7558338)" />
    <linearGradient
       x1="-0.26876771"
       y1="11.310706"
       x2="31.685843"
       y2="22.133545"
       id="linearGradient4249"
       xlink:href="#linearGradient4251"
       gradientUnits="userSpaceOnUse"
       gradientTransform="matrix(1.0035005,0,0,1.0035005,0.8172677,0.7558338)" />
    <linearGradient
       x1="4.3308682"
       y1="14.094125"
       x2="29.586805"
       y2="11.853242"
       id="linearGradient4273"
       xlink:href="#linearGradient4251"
       gradientUnits="userSpaceOnUse" />
    <linearGradient
       x1="21.55917"
       y1="9.0654087"
       x2="25.026104"
       y2="14.151703"
       id="linearGradient4277"
       xlink:href="#linearGradient3255"
       gradientUnits="userSpaceOnUse"
       gradientTransform="matrix(1.0035005,0,0,1.0035005,0.8172677,0.7558338)" />
    <linearGradient
       x1="9.3845177"
       y1="16.643242"
       x2="12.661485"
       y2="22.842163"
       id="linearGradient4300"
       xlink:href="#linearGradient4467"
       gradientUnits="userSpaceOnUse"
       gradientTransform="matrix(1.0035005,0,0,1.0035005,0.8172677,0.755834)" />
    <linearGradient
       x1="9.5823059"
       y1="18.87426"
       x2="9.9223862"
       y2="18.266975"
       id="linearGradient4303"
       xlink:href="#linearGradient3239"
       gradientUnits="userSpaceOnUse"
       gradientTransform="matrix(1.0035005,0,0,-1.0035005,0.8172677,39.244166)" />
    <linearGradient
       x1="8.3487759"
       y1="19.61301"
       x2="16.895102"
       y2="14.727449"
       id="linearGradient4305"
       xlink:href="#linearGradient3239"
       gradientUnits="userSpaceOnUse"
       gradientTransform="matrix(1.0035005,0,0,-1.0035005,0.8172677,39.244166)" />
    <linearGradient
       x1="5.9565239"
       y1="14.193339"
       x2="23.262825"
       y2="17.020117"
       id="linearGradient3266"
       xlink:href="#linearGradient3220"
       gradientUnits="userSpaceOnUse" />
  </defs>
  <g
     id="layer1">
    <path
       d="M 127.82442 115.70919 A 63.912209 12.641975 0 1 1  0,115.70919 A 63.912209 12.641975 0 1 1  127.82442 115.70919 z"
       transform="matrix(0.2852179,3.5295181e-2,4.4419163e-2,0.5082978,-1.6708553,-41.713276)"
       style="opacity:0.38139535;fill:url(#radialGradient2595);fill-opacity:1;fill-rule:nonzero;stroke:none;stroke-width:0;stroke-linecap:round;stroke-linejoin:round;stroke-miterlimit:4;stroke-dasharray:none;stroke-dashoffset:4;stroke-opacity:1"
       id="path2593" />
    <path
       d="M 18.880274,4.2680854 L 5.4270983,8.7838382 C 5.4270983,8.7838382 3.0271254,10.184475 3.0437845,13.017364 C 3.0636698,16.261725 5.489817,18.191668 5.489817,18.191668 L 26.908278,21.358967 L 28.068576,20.606341 L 29.448389,19.759638 L 30.169655,19.257887 L 38.354456,13.707274 C 38.452063,13.59421 38.568549,13.461057 38.66805,13.33096 C 38.749412,13.22299 38.838976,13.104634 38.918925,12.986005 C 38.992462,12.877275 39.068477,12.758278 39.138441,12.64105 C 39.237025,12.474968 39.333913,12.289417 39.420675,12.107939 C 39.464127,12.016187 39.506856,11.92114 39.546113,11.825703 C 39.574542,11.757309 39.582861,11.67636 39.608832,11.606187 C 39.622951,11.567389 39.626885,11.520081 39.640191,11.480748 C 39.686894,11.34489 39.761294,11.214886 39.796988,11.073075 C 39.809472,11.022717 39.817399,10.96736 39.828348,10.916277 C 39.857961,10.779713 39.873696,10.649918 39.891066,10.508605 C 39.893675,10.487644 39.888738,10.46695 39.891066,10.445886 C 39.908758,10.282488 39.92362,10.113116 39.922426,9.9441357 C 39.904353,7.4461934 37.288238,5.7733366 37.288237,5.7733366 L 18.880274,4.2680854 z "
       style="opacity:0.98999999;fill:#323232;fill-opacity:1;fill-rule:evenodd;stroke:none;stroke-width:1px;stroke-linecap:butt;stroke-linejoin:miter;stroke-opacity:1"
       id="path3255" />
    <path
       d="M 10.956528,1.0198748 L 10.956528,-1.7748336 L 10.956528,1.0198748 z "
       style="fill:#ffffff;fill-opacity:0.75688076;fill-rule:nonzero;stroke:none;stroke-width:0.5;stroke-linecap:round;stroke-linejoin:round;stroke-miterlimit:4;stroke-dasharray:none;stroke-dashoffset:4;stroke-opacity:1"
       id="path2276" />
    <rect
       width="40.001965"
       height="10.004759"
       x="-0.0019644466"
       y="30"
       style="opacity:0.61162792;fill:#555753;fill-opacity:1;fill-rule:nonzero;stroke:none;stroke-width:0.69999999;stroke-linecap:round;stroke-linejoin:miter;stroke-miterlimit:4;stroke-dasharray:none;stroke-opacity:1"
       id="rect1951" />
    <text
       x="12.725015"
       y="39.168156"
       style="font-size:12px;font-style:normal;font-weight:normal;fill:#eeeeec;fill-opacity:1;stroke:none;stroke-width:1px;stroke-linecap:butt;stroke-linejoin:miter;stroke-opacity:1;font-family:Bitstream Vera Sans"
       id="text2840"
       xml:space="preserve"><tspan
         x="12.725015"
         y="39.168156"
         id="tspan2842">Xe</tspan></text>
    <path
       d="M 18.880274,4.2680854 L 5.4270983,8.7838382 L 26.845559,11.135794 C 26.845559,11.135794 37.288238,5.7733366 37.288237,5.7733366 L 18.880274,4.2680854 z "
       style="opacity:0.50970878;fill:url(#linearGradient3292);fill-opacity:1;fill-rule:evenodd;stroke:none;stroke-width:1px;stroke-linecap:butt;stroke-linejoin:miter;stroke-opacity:1"
       id="path3361" />
    <path
       d="M 37.288237,5.7733366 L 26.845559,11.135794 C 26.845559,11.135794 29.934665,12.578982 30.044217,16.435542 C 30.106013,18.570073 28.988274,19.878553 28.068576,20.606341 L 30.169655,19.257887 L 38.354456,13.707274 C 38.452063,13.59421 38.568548,13.461057 38.66805,13.33096 C 38.749412,13.22299 38.838976,13.104634 38.918925,12.986005 C 38.992466,12.877275 39.068479,12.758278 39.138441,12.64105 C 39.237024,12.474968 39.33391,12.289417 39.420675,12.107939 C 39.464127,12.016187 39.50686,11.92114 39.546113,11.825703 C 39.574546,11.757309 39.58286,11.67636 39.608832,11.606187 C 39.622955,11.567389 39.62689,11.520081 39.640191,11.480748 C 39.686892,11.34489 39.761298,11.214886 39.796988,11.073075 C 39.809475,11.022717 39.817402,10.96736 39.828348,10.916277 C 39.85796,10.779713 39.8737,10.649918 39.891066,10.508605 C 39.893677,10.487644 39.888741,10.46695 39.891066,10.445886 C 39.908763,10.282488 39.923618,10.113116 39.922426,9.9441357 C 39.90435,7.4461934 37.288238,5.7733366 37.288237,5.7733366 z "
       style="opacity:0.50970878;fill:url(#linearGradient3273);fill-opacity:1;fill-rule:evenodd;stroke:none;stroke-width:1px;stroke-linecap:butt;stroke-linejoin:miter;stroke-opacity:1"
       id="path3356" />
    <path
       d="M 5.8661297,9.0974322 C 5.8661297,9.0974322 3.5924273,10.420196 3.6082535,13.111443 C 3.6271454,16.193585 5.9288495,18.034872 5.9288485,18.034871 L 26.28109,21.045373 C 26.28109,21.045373 29.358781,19.776953 29.260233,16.372823 C 29.156158,12.709091 26.218368,11.323951 26.218371,11.323951 L 5.8661297,9.0974322 z "
       style="opacity:1;fill:url(#linearGradient3252);fill-opacity:1;fill-rule:evenodd;stroke:none;stroke-width:1px;stroke-linecap:butt;stroke-linejoin:miter;stroke-opacity:1"
       id="path3274" />
    <path
       d="M 21.800527,12.166676 C 21.50552,12.215596 21.187406,12.23798 20.640229,12.448911 C 20.387942,12.546166 20.163611,12.678737 19.918963,12.793866 C 18.720455,13.359646 17.880603,14.669779 17.880603,16.212044 C 17.880603,17.04323 18.126134,17.818601 18.53915,18.438561 C 18.631378,18.58007 18.739716,18.720197 18.852744,18.846233 C 19.356697,19.408382 20.024595,19.800457 20.765667,19.912453 C 20.889916,19.930142 21.014491,19.941466 21.141979,19.943812 C 21.16363,19.944275 21.182949,19.943812 21.204698,19.943812 C 21.73858,19.943812 22.262233,19.816324 22.709949,19.567499 C 23.055933,19.404443 23.39184,19.233098 23.744809,19.03439 C 23.997259,18.861503 24.241265,18.660977 24.434716,18.407202 C 25.765346,16.902485 25.66493,14.37628 24.18384,13.013383 C 23.621422,12.484321 22.858765,12.161869 22.082761,12.166676 C 21.992984,12.151008 21.898863,12.150369 21.800527,12.166676 z M 23.588012,18.846233 C 23.437722,19.017393 23.294789,19.180739 23.117621,19.316624 C 23.288604,19.185952 23.44192,19.009195 23.588012,18.846233 z "
       style="opacity:1;fill:url(#radialGradient3391);fill-opacity:1;fill-rule:nonzero;stroke:none;stroke-width:0.2;stroke-linecap:round;stroke-linejoin:round;stroke-miterlimit:4;stroke-dasharray:none;stroke-opacity:0.79187814"
       id="path3368" />
    <path
       d="M 21.811855 14.094125 A 5.1787753 4.7056022 0 1 1  11.454304,14.094125 A 5.1787753 4.7056022 0 1 1  21.811855 14.094125 z"
       transform="matrix(0.6448675,0,0,0.7916695,9.6743751,4.5071537)"
       style="opacity:1;fill:url(#linearGradient4273);fill-opacity:1;fill-rule:nonzero;stroke:none;stroke-width:0.2;stroke-linecap:round;stroke-linejoin:round;stroke-miterlimit:4;stroke-dasharray:none;stroke-opacity:0.79187814"
       id="path3225" />
    <path
       d="M 21.811855 14.094125 A 5.1787753 4.7056022 0 1 1  11.454304,14.094125 A 5.1787753 4.7056022 0 1 1  21.811855 14.094125 z"
       transform="matrix(0.5252486,0,0,0.6448197,11.597106,6.6086236)"
       style="opacity:0.75242716;fill:url(#radialGradient3257);fill-opacity:1;fill-rule:nonzero;stroke:none;stroke-width:0.2;stroke-linecap:round;stroke-linejoin:round;stroke-miterlimit:4;stroke-dasharray:none;stroke-opacity:0.79187814"
       id="path3232" />
    <path
       d="M 7.1205054,10.822199 L 7.1205054,16.466902 L 7.2773024,16.498261 L 7.2773024,10.822199 L 7.1205054,10.822199 z M 8.0612872,10.916277 L 8.0612872,16.623698 L 8.2494435,16.655058 L 8.2494435,10.947637 L 8.0612872,10.916277 z M 9.0334283,11.010356 L 9.0334283,16.749136 L 9.2843035,16.780495 L 9.2843035,11.041715 L 9.0334283,11.010356 z M 10.068288,11.135794 L 10.068288,16.905933 L 10.256443,16.937292 L 10.256443,11.167153 L 10.068288,11.135794 z M 11.040426,11.229872 L 11.040426,17.031371 L 11.291301,17.06273 L 11.291301,11.261232 L 11.040426,11.229872 z M 12.075286,11.35531 L 12.075286,17.188168 L 12.263442,17.219527 L 12.263442,11.38667 L 12.075286,11.35531 z M 13.047427,11.449389 L 13.047427,17.344964 L 13.298302,17.376324 L 13.298302,11.480748 L 13.047427,11.449389 z M 14.082287,11.543468 L 14.082287,17.501761 L 14.270443,17.533121 L 14.270443,11.574827 L 14.082287,11.543468 z "
       style="fill:#000000;fill-opacity:1;fill-rule:evenodd;stroke:none;stroke-width:1px;stroke-linecap:butt;stroke-linejoin:miter;stroke-opacity:1"
       id="path3222" />
    <path
       d="M 5.4270983,8.783838 C 5.4270983,8.783838 3.0271274,10.184475 3.0437845,13.017364 C 3.0636698,16.261725 5.48982,18.191668 5.489817,18.191668 L 26.908278,21.358967 C 26.908278,21.358967 30.147956,20.018837 30.044217,16.435542 C 29.934665,12.578982 26.845559,11.135794 26.845559,11.135794 L 5.4270983,8.783838 z M 5.8661297,9.097432 L 26.218371,11.323951 C 26.218368,11.323951 29.156158,12.709091 29.260233,16.372823 C 29.358781,19.776953 26.28109,21.045373 26.28109,21.045373 L 5.9288485,18.034871 C 5.9288495,18.034872 3.6271454,16.193585 3.6082535,13.111443 C 3.5924273,10.420196 5.8661297,9.097432 5.8661297,9.097432 z "
       style="opacity:0.50970878;fill:url(#linearGradient4249);fill-opacity:1;fill-rule:evenodd;stroke:none;stroke-width:1px;stroke-linecap:butt;stroke-linejoin:miter;stroke-opacity:1"
       id="path3253" />
    <path
       d="M 21.811855 14.094125 A 5.1787753 4.7056022 0 1 1  11.454304,14.094125 A 5.1787753 4.7056022 0 1 1  21.811855 14.094125 z"
       transform="matrix(0.3310375,0,0,0.4063973,15.362147,9.5800921)"
       style="opacity:0.75242716;fill:#3465a4;fill-opacity:1;fill-rule:nonzero;stroke:none;stroke-width:0.2;stroke-linecap:round;stroke-linejoin:round;stroke-miterlimit:4;stroke-dasharray:none;stroke-opacity:0.79187814"
       id="path3310" />
    <path
       d="M 21.811855 14.094125 A 5.1787753 4.7056022 0 1 1  11.454304,14.094125 A 5.1787753 4.7056022 0 1 1  21.811855 14.094125 z"
       transform="matrix(0.3410682,0,0,0.4187116,15.000862,9.5037556)"
       style="opacity:0.75242716;fill:url(#radialGradient2260);fill-opacity:1;fill-rule:nonzero;stroke:none;stroke-width:0.2;stroke-linecap:round;stroke-linejoin:round;stroke-miterlimit:4;stroke-dasharray:none;stroke-opacity:0.79187814"
       id="path3318" />
    <path
       d="M 20.65625,13.4375 C 20.479999,13.4375 20.316906,13.477565 20.15625,13.53125 L 20.09375,13.5625 C 20.031821,13.586098 19.964869,13.59418 19.90625,13.625 L 0,22.0625 L 0,30.28125 L 21.25,17.25 L 21.5625,17.0625 C 22.074728,16.717418 22.46875,16.121987 22.46875,15.40625 C 22.46875,14.31865 21.631256,13.4375 20.65625,13.4375 z "
       style="opacity:0.43203885;fill:url(#linearGradient4300);fill-opacity:1;fill-rule:evenodd;stroke:none;stroke-width:1px;stroke-linecap:butt;stroke-linejoin:miter;stroke-opacity:1"
       id="path3324" />
    <path
       d="M 20.981353,11.606187 C 20.686346,11.655106 20.368232,11.677491 19.821056,11.888422 C 19.568768,11.985677 19.344438,12.118248 19.09979,12.233377 C 19.499292,12.044783 19.924657,11.951141 20.385525,11.951141 C 22.228997,11.951141 23.74098,13.5952 23.74098,15.651557 C 23.74098,17.112379 22.989004,18.396654 21.890775,19.007012 C 22.236759,18.843955 22.560906,18.67653 22.913875,18.477822 C 23.166325,18.304935 23.422091,18.10049 23.615542,17.846715 C 24.946173,16.341998 24.845756,13.815792 23.364667,12.452893 C 22.802249,11.923832 22.039592,11.60138 21.263588,11.606187 C 21.17381,11.590519 21.079689,11.58988 20.981353,11.606187 z M 17.719976,17.878074 C 17.812204,18.019583 17.920543,18.15971 18.03357,18.285746 C 17.917757,18.156559 17.817862,18.025006 17.719976,17.878074 z M 19.758337,19.320606 C 19.944592,19.361737 20.130988,19.379795 20.322806,19.383325 C 20.125892,19.379118 19.945522,19.361313 19.758337,19.320606 z "
       style="opacity:0.75242716;fill:url(#linearGradient4277);fill-opacity:1;fill-rule:nonzero;stroke:none;stroke-width:0.2;stroke-linecap:round;stroke-linejoin:round;stroke-miterlimit:4;stroke-dasharray:none;stroke-opacity:0.79187814"
       id="path3352" />
    <path
       d="M 21.40625,14 L 0,23.71875 L 0,25.125 L 21.625,14.34375 C 21.625001,14.34375 21.301326,14.400883 21.25,14.3125 C 21.198674,14.224118 21.40625,14 21.40625,14 z "
       style="opacity:0.54368932;fill:url(#linearGradient4305);fill-opacity:1;fill-rule:evenodd;stroke:none;stroke-width:1px;stroke-linecap:butt;stroke-linejoin:miter;stroke-opacity:1"
       id="path3407" />
    <path
       d="M 20.4375,14.78125 L 0,24.625 L 0,26.0625 L 19.9375,15.46875 C 19.9375,15.46875 20.345566,15.233569 20.46875,15.0625 C 20.591933,14.891433 20.4375,14.78125 20.4375,14.78125 z "
       style="opacity:0.54368932;fill:url(#linearGradient4303);fill-opacity:1;fill-rule:evenodd;stroke:none;stroke-width:1px;stroke-linecap:butt;stroke-linejoin:miter;stroke-opacity:1"
       id="path3423" />
    <path
       d="M 6.8382709,10.790839 L 6.8382709,16.592339 L 7.1205054,16.466902 L 7.1205054,10.822199 L 6.8382709,10.790839 z M 7.7790526,10.884918 L 7.7790526,16.717777 L 8.0612872,16.623698 L 8.0612872,10.916277 L 7.7790526,10.884918 z M 8.7511938,10.978996 L 8.7511938,16.843214 L 9.0334283,16.749136 L 9.0334283,11.010356 L 8.7511938,10.978996 z M 9.7860537,11.104434 L 9.7860537,17.000011 L 10.068288,16.905933 L 10.068288,11.135794 L 9.7860537,11.104434 z M 10.758191,11.198513 L 10.758191,17.125449 L 11.040426,17.031371 L 11.040426,11.229872 L 10.758191,11.198513 z M 11.793051,11.323951 L 11.793051,17.313605 L 12.075286,17.188168 L 12.075286,11.35531 L 11.793051,11.323951 z M 12.765192,11.418029 L 12.765192,17.439043 L 13.047427,17.344964 L 13.047427,11.449389 L 12.765192,11.418029 z M 13.800052,11.512108 L 13.800052,17.59584 L 14.082287,17.501761 L 14.082287,11.543468 L 13.800052,11.512108 z "
       style="opacity:0.47087384;fill:url(#linearGradient3266);fill-opacity:1;fill-rule:evenodd;stroke:none;stroke-width:1px;stroke-linecap:butt;stroke-linejoin:miter;stroke-opacity:1"
       id="path3451" />
    <path
       d="M 6.8382709,16.592339 L 7.2773024,16.655058 L 7.2773024,16.498261 L 7.1205054,16.466902 L 6.8382709,16.592339 z M 7.7790526,16.717777 L 8.2494435,16.780495 L 8.2494435,16.655058 L 8.0612872,16.623698 L 7.7790526,16.717777 z M 8.7511938,16.843214 L 9.2843035,16.905933 L 9.2843035,16.780495 L 9.0334283,16.749136 L 8.7511938,16.843214 z M 9.7860537,17.000011 L 10.256443,17.06273 L 10.256443,16.937292 L 10.068288,16.905933 L 9.7860537,17.000011 z M 10.758191,17.125449 L 11.291301,17.188168 L 11.291301,17.06273 L 11.040426,17.031371 L 10.758191,17.125449 z M 11.793051,17.313605 L 12.263442,17.376324 L 12.263442,17.219527 L 12.075286,17.188168 L 11.793051,17.313605 z M 12.765192,17.439043 L 13.266943,17.533121 L 13.298302,17.533121 L 13.298302,17.376324 L 13.047427,17.344964 L 12.765192,17.439043 z M 13.800052,17.59584 L 14.270443,17.658558 L 14.270443,17.533121 L 14.082287,17.501761 L 13.800052,17.59584 z "
       style="opacity:0.47087384;fill:#d3d7cf;fill-opacity:1;fill-rule:evenodd;stroke:none;stroke-width:1px;stroke-linecap:butt;stroke-linejoin:miter;stroke-opacity:1"
       id="path3453" />
  </g>
</svg>
