<?xml version="1.0" encoding="UTF-8" standalone="no"?>
<!-- Created with Inkscape (http://www.inkscape.org/) -->
<svg
   xmlns:dc="http://purl.org/dc/elements/1.1/"
   xmlns:cc="http://creativecommons.org/ns#"
   xmlns:rdf="http://www.w3.org/1999/02/22-rdf-syntax-ns#"
   xmlns:svg="http://www.w3.org/2000/svg"
   xmlns="http://www.w3.org/2000/svg"
   xmlns:xlink="http://www.w3.org/1999/xlink"
   xmlns:sodipodi="http://sodipodi.sourceforge.net/DTD/sodipodi-0.dtd"
   xmlns:inkscape="http://www.inkscape.org/namespaces/inkscape"
   width="40"
   height="40"
   id="svg2193"
   sodipodi:version="0.32"
   inkscape:version="0.46"
   version="1.0"
   sodipodi:docbase="/home/jra/Desktop"
   sodipodi:docname="55.svg"
   inkscape:output_extension="org.inkscape.output.svg.inkscape">
  <defs
     id="defs2195">
    <linearGradient
       id="linearGradient3735">
      <stop
         style="stop-color:#000000;stop-opacity:1"
         offset="0"
         id="stop3737" />
      <stop
         id="stop3739"
         offset="0.26584578"
         style="stop-color:#2b2b2b;stop-opacity:1;" />
      <stop
         style="stop-color:#000000;stop-opacity:1;"
         offset="1"
         id="stop3741" />
    </linearGradient>
    <linearGradient
       id="linearGradient3469">
      <stop
         style="stop-color:#ffffff;stop-opacity:0.25"
         offset="0"
         id="stop3471" />
      <stop
         style="stop-color:#ffffff;stop-opacity:0;"
         offset="1"
         id="stop3473" />
    </linearGradient>
    <linearGradient
       id="linearGradient3239">
      <stop
         style="stop-color:#000000;stop-opacity:0;"
         offset="0"
         id="stop3241" />
      <stop
         id="stop3798"
         offset="0.25"
         style="stop-color:#ffffff;stop-opacity:1;" />
      <stop
         id="stop3796"
         offset="0.5"
         style="stop-color:#ffffff;stop-opacity:0.68711656;" />
      <stop
         style="stop-color:#000000;stop-opacity:1;"
         offset="1"
         id="stop3243" />
    </linearGradient>
    <linearGradient
       id="linearGradient3220">
      <stop
         id="stop3222"
         offset="0"
         style="stop-color:#000000;stop-opacity:1" />
      <stop
         style="stop-color:#e0e0e0;stop-opacity:1;"
         offset="0.5"
         id="stop3733" />
      <stop
         id="stop3224"
         offset="1"
         style="stop-color:#000000;stop-opacity:1;" />
    </linearGradient>
    <linearGradient
       id="linearGradient3250">
      <stop
         id="stop3252"
         offset="0"
         style="stop-color:#ffffff;stop-opacity:1;" />
      <stop
         id="stop3254"
         offset="1"
         style="stop-color:#ffffff;stop-opacity:0;" />
    </linearGradient>
    <linearGradient
       id="linearGradient3291">
      <stop
         id="stop3293"
         offset="0"
         style="stop-color:#000000;stop-opacity:1;" />
      <stop
         id="stop3295"
         offset="1"
         style="stop-color:#000000;stop-opacity:0;" />
    </linearGradient>
    <linearGradient
       id="linearGradient2308">
      <stop
         id="stop2310"
         offset="0"
         style="stop-color:#0e0000;stop-opacity:1;" />
      <stop
         id="stop2312"
         offset="1"
         style="stop-color:#0e0000;stop-opacity:0;" />
    </linearGradient>
    <radialGradient
       inkscape:collect="always"
       xlink:href="#linearGradient3291"
       id="radialGradient2595"
       gradientUnits="userSpaceOnUse"
       gradientTransform="matrix(1,0,0,0.197802,0,92.82166)"
       cx="63.912209"
       cy="115.70919"
       fx="75.857941"
       fy="115.70919"
       r="63.912209" />
    <linearGradient
       inkscape:collect="always"
       xlink:href="#linearGradient3239"
       id="linearGradient3571"
       x1="3.875"
       y1="30.015276"
       x2="8.375"
       y2="30.015276"
       gradientUnits="userSpaceOnUse" />
    <linearGradient
       inkscape:collect="always"
       xlink:href="#linearGradient3239"
       id="linearGradient3644"
       x1="3.7790291"
       y1="25.046875"
       x2="8.15625"
       y2="25.046875"
       gradientUnits="userSpaceOnUse" />
    <linearGradient
       inkscape:collect="always"
       xlink:href="#linearGradient3239"
       id="linearGradient3652"
       x1="5.2153401"
       y1="22.993605"
       x2="7.1527281"
       y2="25.578316"
       gradientUnits="userSpaceOnUse" />
    <linearGradient
       inkscape:collect="always"
       xlink:href="#linearGradient3239"
       id="linearGradient3660"
       x1="10.967022"
       y1="22.803617"
       x2="7.5219855"
       y2="24.129442"
       gradientUnits="userSpaceOnUse" />
    <linearGradient
       inkscape:collect="always"
       xlink:href="#linearGradient3239"
       id="linearGradient3668"
       x1="14.184258"
       y1="24.490063"
       x2="7.968554"
       y2="24.523207"
       gradientUnits="userSpaceOnUse" />
    <linearGradient
       inkscape:collect="always"
       xlink:href="#linearGradient3239"
       id="linearGradient3738"
       x1="4.375"
       y1="21.780012"
       x2="9.2084074"
       y2="22.177759"
       gradientUnits="userSpaceOnUse" />
    <linearGradient
       inkscape:collect="always"
       xlink:href="#linearGradient3239"
       id="linearGradient3746"
       x1="4.0656409"
       y1="24.34375"
       x2="7.75"
       y2="24.34375"
       gradientUnits="userSpaceOnUse" />
    <linearGradient
       inkscape:collect="always"
       xlink:href="#linearGradient3239"
       id="linearGradient3754"
       x1="5.3125"
       y1="19.75"
       x2="6.8125"
       y2="19.75"
       gradientUnits="userSpaceOnUse" />
    <linearGradient
       inkscape:collect="always"
       xlink:href="#linearGradient2308"
       id="linearGradient3802"
       gradientUnits="userSpaceOnUse"
       x1="7.8884373"
       y1="22.465023"
       x2="5.296875"
       y2="22.33466" />
    <linearGradient
       inkscape:collect="always"
       xlink:href="#linearGradient3239"
       id="linearGradient3459"
       x1="10.885337"
       y1="21.951536"
       x2="10.499411"
       y2="25.100372"
       gradientUnits="userSpaceOnUse" />
    <linearGradient
       inkscape:collect="always"
       xlink:href="#linearGradient3469"
       id="linearGradient3467"
       x1="11.108457"
       y1="24.669729"
       x2="9.7040977"
       y2="23.089453"
       gradientUnits="userSpaceOnUse" />
    <linearGradient
       inkscape:collect="always"
       xlink:href="#linearGradient3239"
       id="linearGradient3497"
       x1="21.797306"
       y1="16.444241"
       x2="22.59375"
       y2="19.265625"
       gradientUnits="userSpaceOnUse" />
    <linearGradient
       inkscape:collect="always"
       xlink:href="#linearGradient3291"
       id="linearGradient3525"
       x1="5.3125"
       y1="19.311346"
       x2="6.8125"
       y2="19.311346"
       gradientUnits="userSpaceOnUse" />
    <linearGradient
       inkscape:collect="always"
       xlink:href="#linearGradient3239"
       id="linearGradient3564"
       x1="9.2537909"
       y1="19.270035"
       x2="10.640109"
       y2="24.694868"
       gradientUnits="userSpaceOnUse" />
    <linearGradient
       inkscape:collect="always"
       xlink:href="#linearGradient3291"
       id="linearGradient3578"
       x1="9.3376036"
       y1="21.842773"
       x2="8.1738501"
       y2="23.706322"
       gradientUnits="userSpaceOnUse" />
    <linearGradient
       inkscape:collect="always"
       xlink:href="#linearGradient3250"
       id="linearGradient3606"
       x1="5.34375"
       y1="20.878906"
       x2="9.0625"
       y2="7.5976562"
       gradientUnits="userSpaceOnUse" />
    <linearGradient
       inkscape:collect="always"
       xlink:href="#linearGradient3250"
       id="linearGradient3614"
       x1="31.3125"
       y1="13.015625"
       x2="6.75"
       y2="13.640625"
       gradientUnits="userSpaceOnUse" />
    <linearGradient
       inkscape:collect="always"
       xlink:href="#linearGradient3250"
       id="linearGradient3622"
       x1="14.359375"
       y1="16.484375"
       x2="14.5625"
       y2="15.53125"
       gradientUnits="userSpaceOnUse" />
    <linearGradient
       inkscape:collect="always"
       xlink:href="#linearGradient3239"
       id="linearGradient3630"
       x1="5.84375"
       y1="11.484375"
       x2="21.875"
       y2="11.484375"
       gradientUnits="userSpaceOnUse" />
    <radialGradient
       inkscape:collect="always"
       xlink:href="#linearGradient3250"
       id="radialGradient3640"
       cx="11.275634"
       cy="10.278362"
       fx="11.275634"
       fy="10.278362"
       r="3.65625"
       gradientTransform="matrix(1.4743678,1.1655021e-3,-5.9457155e-4,0.7521349,-7.0089452,3.5530179)"
       gradientUnits="userSpaceOnUse" />
    <linearGradient
       inkscape:collect="always"
       xlink:href="#linearGradient3250"
       id="linearGradient3648"
       x1="31.375"
       y1="16.566593"
       x2="31.375"
       y2="1.4375"
       gradientUnits="userSpaceOnUse" />
    <linearGradient
       inkscape:collect="always"
       xlink:href="#linearGradient3250"
       id="linearGradient3656"
       x1="54.476173"
       y1="7.0866275"
       x2="26.436739"
       y2="7.3075986"
       gradientUnits="userSpaceOnUse" />
    <linearGradient
       inkscape:collect="always"
       xlink:href="#linearGradient3239"
       id="linearGradient3664"
       x1="28.814991"
       y1="5.7803302"
       x2="36.325825"
       y2="3.725301"
       gradientUnits="userSpaceOnUse" />
    <linearGradient
       inkscape:collect="always"
       xlink:href="#linearGradient3735"
       id="linearGradient3731"
       x1="15.62369"
       y1="19.182816"
       x2="16.035215"
       y2="20.871727"
       gradientUnits="userSpaceOnUse" />
    <linearGradient
       inkscape:collect="always"
       xlink:href="#linearGradient3735"
       id="linearGradient3747"
       gradientUnits="userSpaceOnUse"
       x1="15.62369"
       y1="19.182816"
       x2="16.035215"
       y2="20.871727"
       gradientTransform="matrix(0.8820235,0,0,0.8820235,8.8600827,0.37434)" />
    <linearGradient
       inkscape:collect="always"
       xlink:href="#linearGradient3735"
       id="linearGradient3753"
       gradientUnits="userSpaceOnUse"
       gradientTransform="matrix(0.764047,0,0,0.764047,18.186414,0.6287043)"
       x1="15.62369"
       y1="19.182816"
       x2="16.035215"
       y2="20.871727" />
    <linearGradient
       inkscape:collect="always"
       xlink:href="#linearGradient3735"
       id="linearGradient3781"
       x1="35.669899"
       y1="13.809954"
       x2="35.935169"
       y2="14.793274"
       gradientUnits="userSpaceOnUse" />
    <linearGradient
       inkscape:collect="always"
       xlink:href="#linearGradient3291"
       id="linearGradient3809"
       x1="10.225795"
       y1="22.619314"
       x2="8.512001"
       y2="21.834867"
       gradientUnits="userSpaceOnUse" />
    <linearGradient
       inkscape:collect="always"
       xlink:href="#linearGradient3291"
       id="linearGradient3832"
       x1="11.21875"
       y1="21.515625"
       x2="11.71875"
       y2="21.515625"
       gradientUnits="userSpaceOnUse" />
    <linearGradient
       inkscape:collect="always"
       xlink:href="#linearGradient3291"
       id="linearGradient3868"
       x1="8.03125"
       y1="25.84375"
       x2="3.96875"
       y2="25.84375"
       gradientUnits="userSpaceOnUse"
       gradientTransform="translate(0,-4.6875e-2)" />
    <radialGradient
       inkscape:collect="always"
       xlink:href="#linearGradient3291"
       id="radialGradient3898"
       gradientUnits="userSpaceOnUse"
       gradientTransform="matrix(1,0,0,0.197802,0,92.82166)"
       cx="63.912209"
       cy="115.70919"
       fx="75.857941"
       fy="115.70919"
       r="63.912209" />
    <linearGradient
       inkscape:collect="always"
       xlink:href="#linearGradient3735"
       id="linearGradient3936"
       x1="28.53125"
       y1="0.17968747"
       x2="28.53125"
       y2="0.7578125"
       gradientUnits="userSpaceOnUse" />
    <linearGradient
       inkscape:collect="always"
       xlink:href="#linearGradient3239"
       id="linearGradient4079"
       x1="16.038507"
       y1="10"
       x2="16.59375"
       y2="10"
       gradientUnits="userSpaceOnUse" />
    <linearGradient
       inkscape:collect="always"
       xlink:href="#linearGradient3239"
       id="linearGradient4087"
       x1="15.78125"
       y1="10.493987"
       x2="17.138269"
       y2="10.709435"
       gradientUnits="userSpaceOnUse" />
    <linearGradient
       inkscape:collect="always"
       xlink:href="#linearGradient3239"
       id="linearGradient4095"
       x1="15.714959"
       y1="11.5"
       x2="16.795765"
       y2="11.5"
       gradientUnits="userSpaceOnUse" />
    <linearGradient
       inkscape:collect="always"
       xlink:href="#linearGradient3239"
       id="linearGradient4145"
       gradientUnits="userSpaceOnUse"
       x1="7.359375"
       y1="21.665594"
       x2="8.2121553"
       y2="22.697803" />
    <linearGradient
       inkscape:collect="always"
       xlink:href="#linearGradient3291"
       id="linearGradient4147"
       gradientUnits="userSpaceOnUse"
       gradientTransform="matrix(0.3542302,0,0,0.2824786,10.122005,20.932242)"
       x1="-6.6962247"
       y1="4.392345"
       x2="-5.8238144"
       y2="8.0039511" />
    <linearGradient
       inkscape:collect="always"
       xlink:href="#linearGradient3220"
       id="linearGradient4188"
       gradientUnits="userSpaceOnUse"
       x1="13.043982"
       y1="7.25"
       x2="12.890054"
       y2="8.4473038"
       gradientTransform="matrix(0.5189512,0,0,0.5189512,5.269347,6.0921257)" />
    <linearGradient
       inkscape:collect="always"
       xlink:href="#linearGradient3220"
       id="linearGradient4192"
       gradientUnits="userSpaceOnUse"
       gradientTransform="matrix(0.531446,0,0,0.531446,10.188697,6.6318111)"
       x1="13.043982"
       y1="7.25"
       x2="12.890054"
       y2="8.4473038" />
    <linearGradient
       inkscape:collect="always"
       xlink:href="#linearGradient3220"
       id="linearGradient4200"
       gradientUnits="userSpaceOnUse"
       gradientTransform="matrix(-0.3879084,-6.5531947e-2,-6.5531947e-2,0.3879084,35.743051,2.9401422)"
       x1="13.043982"
       y1="7.25"
       x2="12.812368"
       y2="9.1985693" />
    <linearGradient
       inkscape:collect="always"
       xlink:href="#linearGradient3220"
       id="linearGradient4208"
       gradientUnits="userSpaceOnUse"
       gradientTransform="matrix(-0.4066962,-6.8705912e-2,-6.8705912e-2,0.4066962,38.399274,2.9284823)"
       x1="13.043982"
       y1="7.25"
       x2="12.812368"
       y2="9.1985693" />
    <linearGradient
       inkscape:collect="always"
       xlink:href="#linearGradient3239"
       id="linearGradient4245"
       gradientUnits="userSpaceOnUse"
       x1="16.038507"
       y1="10"
       x2="16.59375"
       y2="10"
       gradientTransform="matrix(0.7797748,0,0,0.7797748,20.317989,-3.546282)" />
    <linearGradient
       inkscape:collect="always"
       xlink:href="#linearGradient3239"
       id="linearGradient4248"
       gradientUnits="userSpaceOnUse"
       x1="15.78125"
       y1="10.493987"
       x2="17.138269"
       y2="10.709435"
       gradientTransform="matrix(0.7797748,0,0,0.7797748,20.317989,-3.546282)" />
    <linearGradient
       inkscape:collect="always"
       xlink:href="#linearGradient3239"
       id="linearGradient4251"
       gradientUnits="userSpaceOnUse"
       x1="15.714959"
       y1="11.5"
       x2="16.795765"
       y2="11.5"
       gradientTransform="matrix(0.7797748,0,0,0.7797748,20.317989,-3.546282)" />
    <linearGradient
       inkscape:collect="always"
       xlink:href="#linearGradient3291"
       id="linearGradient4290"
       x1="11.0625"
       y1="22.813272"
       x2="10.90625"
       y2="20.21875"
       gradientUnits="userSpaceOnUse" />
  </defs>
  <sodipodi:namedview
     id="base"
     pagecolor="#ffffff"
     bordercolor="#666666"
     borderopacity="1.0"
     inkscape:pageopacity="0.0"
     inkscape:pageshadow="2"
     inkscape:zoom="11.313709"
     inkscape:cx="16.244218"
     inkscape:cy="13.937648"
     inkscape:current-layer="layer1"
     showgrid="false"
     inkscape:grid-bbox="false"
     inkscape:document-units="px"
     width="40px"
     height="40px"
     inkscape:window-width="1700"
     inkscape:window-height="1093"
     inkscape:window-x="194"
     inkscape:window-y="39">
    <inkscape:grid
       id="GridFromPre046Settings"
       type="xygrid"
       originx="0px"
       originy="0px"
       spacingx="1px"
       spacingy="1px"
       color="#0000ff"
       empcolor="#0000ff"
       opacity="0.2"
       empopacity="0.4"
       empspacing="2" />
  </sodipodi:namedview>
  <metadata
     id="metadata2198">
    <rdf:RDF>
      <cc:Work
         rdf:about="">
        <dc:format>image/svg+xml</dc:format>
        <dc:type
           rdf:resource="http://purl.org/dc/dcmitype/StillImage" />
        <dc:creator>
          <cc:Agent>
            <dc:title>Jarle Akselsen</dc:title>
          </cc:Agent>
        </dc:creator>
        <cc:license
           rdf:resource="http://creativecommons.org/licenses/GPL/2.0/" />
      </cc:Work>
      <cc:License
         rdf:about="http://creativecommons.org/licenses/GPL/2.0/">
        <cc:permits
           rdf:resource="http://web.resource.org/cc/Reproduction" />
        <cc:permits
           rdf:resource="http://web.resource.org/cc/Distribution" />
        <cc:requires
           rdf:resource="http://web.resource.org/cc/Notice" />
        <cc:permits
           rdf:resource="http://web.resource.org/cc/DerivativeWorks" />
        <cc:requires
           rdf:resource="http://web.resource.org/cc/ShareAlike" />
        <cc:requires
           rdf:resource="http://web.resource.org/cc/SourceCode" />
      </cc:License>
    </rdf:RDF>
  </metadata>
  <g
     id="layer1"
     inkscape:label="Layer 1"
     inkscape:groupmode="layer">
    <path
       style="opacity:1;fill:url(#linearGradient4192);fill-opacity:1;fill-rule:nonzero;stroke:none;stroke-width:1;stroke-linecap:butt;stroke-linejoin:miter;marker:none;marker-start:none;marker-mid:none;marker-end:none;stroke-miterlimit:4;stroke-dasharray:none;stroke-dashoffset:0;stroke-opacity:1;visibility:visible;display:inline;overflow:visible;enable-background:accumulate"
       d="M 16.316901,10.484807 C 16.179841,10.519899 16.174379,10.686498 16.184029,11.13253 L 17.911231,11.381659 C 17.902214,10.955122 17.919312,10.7949 18.060697,10.71732 L 16.316901,10.484807 z M 16.532804,10.650884 C 16.672464,10.644638 16.854783,10.644791 17.064246,10.667494 C 17.483171,10.712893 17.818593,10.802344 17.811615,10.866794 C 17.804629,10.931244 17.466549,10.945413 17.04763,10.900013 C 16.628757,10.854612 16.293328,10.781768 16.300313,10.71732 C 16.303801,10.685095 16.393153,10.657132 16.532804,10.650884 z"
       id="path4190" />
    <path
       id="path4186"
       d="M 11.253473,9.8545341 C 11.119635,9.8888015 11.114301,10.051483 11.123723,10.487029 L 12.810317,10.730302 C 12.801512,10.313793 12.818208,10.157337 12.956269,10.081581 L 11.253473,9.8545341 z M 11.464298,10.016707 C 11.600676,10.010609 11.778707,10.010758 11.983246,10.032927 C 12.392323,10.077258 12.719857,10.164607 12.713045,10.227541 C 12.706223,10.290475 12.376091,10.304312 11.96702,10.25998 C 11.557997,10.215645 11.230454,10.144515 11.237275,10.081581 C 11.240681,10.050114 11.327931,10.022809 11.464298,10.016707 z"
       style="opacity:1;fill:url(#linearGradient4188);fill-opacity:1;fill-rule:nonzero;stroke:none;stroke-width:1;stroke-linecap:butt;stroke-linejoin:miter;marker:none;marker-start:none;marker-mid:none;marker-end:none;stroke-miterlimit:4;stroke-dasharray:none;stroke-dashoffset:0;stroke-opacity:1;visibility:visible;display:inline;overflow:visible;enable-background:accumulate" />
    <path
       transform="matrix(0.2648216,-8.1999444e-2,3.4166667e-2,0.1103431,2.0451708,22.319705)"
       d="M 127.82442,115.70919 A 63.912209,12.641975 0 1 1 0,115.70919 A 63.912209,12.641975 0 1 1 127.82442,115.70919 z"
       sodipodi:ry="12.641975"
       sodipodi:rx="63.912209"
       sodipodi:cy="115.70919"
       sodipodi:cx="63.912209"
       id="path2593"
       style="opacity:0.05;fill:url(#radialGradient2595);fill-opacity:1;fill-rule:nonzero;stroke:none;stroke-width:0;stroke-linecap:round;stroke-linejoin:round;stroke-miterlimit:4;stroke-dasharray:none;stroke-dashoffset:4;stroke-opacity:1"
       sodipodi:type="arc" />
    <path
       transform="matrix(6.5049844e-2,0,0,0.1393901,3.6414196,17.906435)"
       d="M 127.82442,115.70919 A 63.912209,12.641975 0 1 1 0,115.70919 A 63.912209,12.641975 0 1 1 127.82442,115.70919 z"
       sodipodi:ry="12.641975"
       sodipodi:rx="63.912209"
       sodipodi:cy="115.70919"
       sodipodi:cx="63.912209"
       id="path3896"
       style="opacity:0.15;fill:url(#radialGradient3898);fill-opacity:1;fill-rule:nonzero;stroke:none;stroke-width:0;stroke-linecap:round;stroke-linejoin:round;stroke-miterlimit:4;stroke-dasharray:none;stroke-dashoffset:4;stroke-opacity:1"
       sodipodi:type="arc" />
    <path
       style="opacity:1;fill:#000000;fill-opacity:1;fill-rule:nonzero;stroke:none;stroke-width:10;stroke-linecap:round;stroke-linejoin:round;stroke-miterlimit:4;stroke-dasharray:none;stroke-opacity:1"
       d="M 10.28125,22.9375 L 7.5625,23.78125 C 6.926515,23.902855 6.73506,23.93769 6.3125,23.96875 C 6.227215,23.966155 6.150428,23.9375 6.0625,23.9375 C 5.799554,23.9375 5.542925,23.978247 5.3125,24 C 5.078847,24.022058 4.870191,24.053834 4.6875,24.09375 C 4.270019,24.184965 4,24.291976 4,24.4375 C 4,24.450622 4,25.549727 4,25.683526 C 4,25.955534 4.923625,26.183527 6.0625,26.183526 C 7.201374,26.183526 8.15625,25.955535 8.15625,25.683526 C 8.15625,25.611236 8.15625,25.436532 8.15625,25.246026 C 8.228711,25.209202 8.284897,25.154665 8.375,25.121026 C 8.399425,25.111907 8.413454,25.099383 8.4375,25.089776 L 11.1875,24.214776 L 11.1875,23.0625 L 10.28125,22.9375 z"
       id="path3313"
       sodipodi:nodetypes="ccsssssssscscccc" />
    <path
       style="opacity:1;color:#000000;fill:#000000;fill-opacity:1.0;fill-rule:evenodd;stroke:none;stroke-width:1px;stroke-linecap:butt;stroke-linejoin:miter;marker:none;marker-start:none;marker-mid:none;marker-end:none;stroke-miterlimit:4;stroke-dasharray:none;stroke-dashoffset:0;stroke-opacity:1;visibility:visible;display:inline;overflow:visible;enable-background:accumulate"
       d="M 30.4375 5.15625 L 29.5 5.4375 L 29.5 9.5625 L 33.25 9.90625 L 33.25 9.9375 L 34.125 9.5625 L 34.125 5.3125 L 30.4375 5.15625 z "
       id="path3418" />
    <path
       style="opacity:1;fill:#dddddd;fill-opacity:1;fill-rule:nonzero;stroke:none;stroke-width:10;stroke-linecap:round;stroke-linejoin:round;stroke-miterlimit:4;stroke-dasharray:none;stroke-opacity:1"
       d="M 38.0625 13.25 C 23.035513 17.328474 7.7259768 21.46875 7.75 21.46875 C 7.4462983 21.46875 7.1874999 21.804487 7.1875 22.21875 C 7.1875 22.633014 7.4462981 22.96875 7.75 22.96875 C 7.8259254 22.96875 7.9029342 22.944243 7.96875 22.90625 L 38.15625 14.03125 C 38.266252 13.96775 38.343751 13.829346 38.34375 13.65625 C 38.34375 13.442765 38.214037 13.275241 38.0625 13.25 z "
       id="path2266" />
    <path
       style="opacity:1;fill:#dddddd;fill-opacity:1;fill-rule:nonzero;stroke:none;stroke-width:10;stroke-linecap:round;stroke-linejoin:round;stroke-miterlimit:4;stroke-dasharray:none;stroke-opacity:1"
       d="M 4.125,25.84375 C 4.125,27.382914 4.125,33.342797 4.125,33.46875 C 4.125,33.725572 4.987213,34.21875 6.0625,34.21875 C 7.137787,34.218748 8.03125,33.725572 8.03125,33.46875 C 8.03125,33.334409 8.03125,27.381495 8.03125,25.84375 C 7.7369041,26.027463 6.9565159,26.156251 6.0625,26.15625 C 5.1684831,26.156251 4.4110651,26.027463 4.125,25.84375 z"
       id="path3214"
       sodipodi:nodetypes="cssscsc" />
    <path
       style="opacity:0.25;fill:url(#linearGradient3571);fill-opacity:1;fill-rule:nonzero;stroke:none;stroke-width:10;stroke-linecap:round;stroke-linejoin:round;stroke-miterlimit:4;stroke-dasharray:none;stroke-opacity:1"
       d="M 8.03125,25.80853 C 7.7719272,26.012841 6.9963765,26.18353 6.0625,26.18353 C 5.1608906,26.183531 4.402606,26.033357 4.125,25.83978 C 4.125,27.354415 4.1249999,33.338827 4.125,33.46478 C 4.125,33.721601 4.9872135,34.222022 6.0625,34.222022 C 7.1377866,34.222021 8.03125,33.721602 8.03125,33.46478 C 8.03125,33.329888 8.03125,27.295426 8.03125,25.80853 z"
       id="path3225"
       sodipodi:nodetypes="cscsssc" />
    <path
       style="opacity:0.25;fill:url(#linearGradient3644);fill-opacity:1;fill-rule:nonzero;stroke:none;stroke-width:10;stroke-linecap:round;stroke-linejoin:round;stroke-miterlimit:4;stroke-dasharray:none;stroke-opacity:1"
       d="M 6.0625,23.9375 C 5.788667,23.9375 5.519432,23.976506 5.28125,24 C 5.528058,23.975054 5.777781,23.96875 6.0625,23.96875 C 6.347219,23.96875 6.628192,23.975054 6.875,24 C 6.62613,23.974707 6.347218,23.9375 6.0625,23.9375 z M 6.875,24 C 7.492019,24.062366 7.956259,24.183408 8.09375,24.34375 C 7.953251,24.182902 7.497174,24.063234 6.875,24 z M 8.09375,24.34375 C 8.121248,24.375818 8.125,24.434749 8.125,24.46875 C 8.125,24.740758 7.201375,24.9375 6.0625,24.9375 C 4.923625,24.937499 4,24.740758 4,24.46875 C 4,24.532373 4,25.557046 4,25.6875 C 4,25.959509 4.923625,26.156251 6.0625,26.15625 C 7.201374,26.156251 8.15625,25.959509 8.15625,25.6875 C 8.15625,25.553248 8.15625,24.451494 8.15625,24.4375 C 8.15625,24.403499 8.12185,24.37592 8.09375,24.34375 z M 5.25,24 C 4.737985,24.052695 4.355439,24.155768 4.15625,24.28125 C 4.360347,24.166064 4.772171,24.050738 5.25,24 z"
       id="path3321" />
    <path
       sodipodi:nodetypes="csssssssssc"
       id="path3333"
       d="M 6.0625,19.15625 C 5.6458822,19.15625 5.3125002,19.205513 5.3125,19.28125 C 5.3125,19.325711 5.3125001,20.045709 5.3125,20.09375 C 5.3125,20.141865 4.375,23.73157 4.375,23.90625 C 4.375,23.991187 4.375,24.283502 4.375,24.375 C 4.375,24.596862 5.133584,24.78125 6.0625,24.78125 C 6.991416,24.78125 7.7499998,24.596861 7.75,24.375 C 7.75,24.282095 7.7499999,23.992737 7.75,23.90625 C 7.75,23.73406 6.8124999,20.139465 6.8125,20.09375 C 6.8125,20.048083 6.8124999,19.323513 6.8125,19.28125 C 6.8125,19.205512 6.4791178,19.15625 6.0625,19.15625 z"
       style="opacity:1;fill:#dddddd;fill-opacity:1;fill-rule:nonzero;stroke:none;stroke-width:10;stroke-linecap:round;stroke-linejoin:round;stroke-miterlimit:4;stroke-dasharray:none;stroke-opacity:1" />
    <path
       style="opacity:0.66666667;fill:url(#linearGradient3497);fill-opacity:1;fill-rule:evenodd;stroke:none;stroke-width:1px;stroke-linecap:butt;stroke-linejoin:miter;marker:none;marker-start:none;marker-mid:none;marker-end:none;stroke-miterlimit:4;stroke-dasharray:none;stroke-dashoffset:0;stroke-opacity:1;visibility:visible;display:inline;overflow:visible;enable-background:accumulate"
       d="M 38.0625,13.25 C 23.035513,17.328474 7.7259768,21.46875 7.75,21.46875 C 8.0537015,21.46875 8.3125,21.804486 8.3125,22.21875 C 8.3124998,22.529448 8.1661974,22.792271 7.96875,22.90625 L 38.15625,14.03125 C 38.266252,13.96775 38.343751,13.829346 38.34375,13.65625 C 38.34375,13.442765 38.214037,13.275241 38.0625,13.25 z"
       id="path2258" />
    <path
       style="opacity:0.66000001;fill:#0057ae;fill-opacity:1;fill-rule:nonzero;stroke:none;stroke-width:10;stroke-linecap:round;stroke-linejoin:round;stroke-miterlimit:4;stroke-dasharray:none;stroke-opacity:1"
       d="M 11.565214,22.972963 L 10.189269,23.295214 C 10.125749,24.043347 10.071766,24.679165 10.062369,24.789836 L 11.438314,24.467586 C 11.452127,24.3049 11.501788,23.719989 11.565214,22.972963 z "
       id="path3409" />
    <path
       style="opacity:1;fill:#dddddd;fill-opacity:1;fill-rule:nonzero;stroke:none;stroke-width:10;stroke-linecap:round;stroke-linejoin:round;stroke-miterlimit:4;stroke-dasharray:none;stroke-opacity:1"
       d="M 10.59375 20.21875 C 10.59375 20.21875 9.1875 20.53125 9.1875 20.53125 C 8.805338 20.53125 8.4839454 20.860624 8.34375 21.3125 C 8.6346269 21.230837 8.826204 21.166683 9.09375 21.09375 C 9.114615 21.090275 9.1347 21.09375 9.15625 21.09375 C 9.443578 21.09375 9.6875 21.420573 9.6875 21.8125 C 9.6875 21.81918 9.6875 22.38457 9.6875 22.8125 C 9.6875 23.669521 9.6875 24.694035 9.6875 24.8125 L 10.125 24.90625 L 11.46875 24.46875 C 11.46875 24.451743 11.46875 21.40625 11.46875 21.40625 C 11.46875 20.743109 11.079908 20.218749 10.59375 20.21875 z M 9.90625 21.03125 C 10.017641 21.219655 10.11052 21.433035 10.125 21.6875 C 10.110477 21.436683 10.015202 21.218169 9.90625 21.03125 z M 8.65625 22.71875 L 8.28125 22.8125 C 8.28125 23.17464 8.28125 23.278035 8.28125 23.5625 L 8.65625 23.4375 C 8.65625 23.215264 8.65625 23.072845 8.65625 22.71875 z "
       id="path3566" />
    <path
       style="opacity:0.5;fill:url(#linearGradient3809);fill-opacity:1;fill-rule:nonzero;stroke:none;stroke-width:10;stroke-linecap:round;stroke-linejoin:round;stroke-miterlimit:4;stroke-dasharray:none;stroke-opacity:1"
       d="M 9.1875,20.53125 C 8.805338,20.53125 8.483945,20.860624 8.34375,21.3125 C 8.634627,21.230837 8.826204,21.166683 9.09375,21.09375 C 9.114615,21.090275 9.1347,21.09375 9.15625,21.09375 C 9.443578,21.09375 9.6875,21.420573 9.6875,21.8125 C 9.6875,21.81918 9.6875,22.38457 9.6875,22.8125 C 9.6875,23.669521 9.6875,24.694035 9.6875,24.8125 L 10.125,24.90625 C 10.125,24.796401 10.125,22.554063 10.125,21.78125 C 10.125,21.770557 10.125201,21.760625 10.125,21.75 C 10.112116,21.069985 9.689211,20.531249 9.1875,20.53125 z M 8.65625,22.71875 L 8.28125,22.8125 C 8.28125,23.17464 8.28125,23.278035 8.28125,23.5625 L 8.65625,23.4375 C 8.65625,23.215264 8.65625,23.072845 8.65625,22.71875 z"
       id="path3425" />
    <path
       style="opacity:0.5;fill:url(#linearGradient3564);fill-opacity:1;fill-rule:nonzero;stroke:none;stroke-width:10;stroke-linecap:round;stroke-linejoin:round;stroke-miterlimit:4;stroke-dasharray:none;stroke-opacity:1"
       d="M 10.59375,20.21875 C 10.59375,20.21875 9.1875,20.53125 9.1875,20.53125 C 9.69705,20.531249 10.125,21.086201 10.125,21.78125 C 10.125,21.78125 10.125,24.890052 10.125,24.90625 L 11.46875,24.46875 C 11.46875,24.451743 11.46875,21.40625 11.46875,21.40625 C 11.46875,20.743109 11.079908,20.218749 10.59375,20.21875 z "
       id="path3433"
       sodipodi:nodetypes="ccccccc" />
    <path
       style="opacity:1;fill:#000000;fill-opacity:1.0;fill-rule:nonzero;stroke:none;stroke-width:10;stroke-linecap:round;stroke-linejoin:round;stroke-miterlimit:4;stroke-dasharray:none;stroke-opacity:1"
       d="M 11.018536,22.393387 C 10.533909,22.35224 10.093191,22.949273 10.030348,23.689432 C 9.967506,24.429591 10.303903,25.061244 10.788531,25.10239 C 10.788531,25.10239 11.400715,25.279817 11.400715,25.279817 C 11.901706,25.322353 12.356849,24.730681 12.422685,23.955277 C 12.48852,23.179872 12.142287,22.488797 11.641296,22.446261 C 11.641296,22.446261 11.018536,22.393387 11.018536,22.393387 z"
       id="path3279"
       sodipodi:nodetypes="csssssc" />
    <path
       sodipodi:type="arc"
       style="opacity:1;fill:url(#linearGradient3467);fill-opacity:1;fill-rule:nonzero;stroke:none;stroke-width:10;stroke-linecap:round;stroke-linejoin:round;stroke-miterlimit:4;stroke-dasharray:none;stroke-opacity:1"
       id="path3277"
       sodipodi:cx="10.783379"
       sodipodi:cy="23.780739"
       sodipodi:rx="0.66291261"
       sodipodi:ry="0.83968931"
       d="M 11.446291,23.780739 A 0.66291261,0.83968931 0 1 1 10.120466,23.780739 A 0.66291261,0.83968931 0 1 1 11.446291,23.780739 z"
       transform="matrix(1.3690997,0.1162424,-0.1420365,1.6729018,0.1257001,-17.171918)" />
    <path
       transform="matrix(0.3959428,3.3617229e-2,-4.1076866e-2,0.4838021,8.2850163,11.952535)"
       d="M 11.446291 23.780739 A 0.66291261 0.83968931 0 1 1  10.120466,23.780739 A 0.66291261 0.83968931 0 1 1  11.446291 23.780739 z"
       sodipodi:ry="0.83968931"
       sodipodi:rx="0.66291261"
       sodipodi:cy="23.780739"
       sodipodi:cx="10.783379"
       id="path3286"
       style="opacity:1;fill:#000000;fill-opacity:1.0;fill-rule:nonzero;stroke:none;stroke-width:10;stroke-linecap:round;stroke-linejoin:round;stroke-miterlimit:4;stroke-dasharray:none;stroke-opacity:1"
       sodipodi:type="arc" />
    <path
       style="opacity:1;color:#000000;fill:#000000;fill-opacity:1.0;fill-rule:evenodd;stroke:none;stroke-width:1px;stroke-linecap:butt;stroke-linejoin:miter;marker:none;marker-start:none;marker-mid:none;marker-end:none;stroke-miterlimit:4;stroke-dasharray:none;stroke-dashoffset:0;stroke-opacity:1;visibility:visible;display:inline;overflow:visible;enable-background:accumulate"
       d="M 11.09375,10.46875 L 7.84375,11.4375 L 7.84375,14.15625 L 7.84375,14.1875 L 7.90625,14.15625 L 9.65625,14.53125 L 10.4375,15.46875 L 17.21875,17 L 17.90625,16.6875 L 17.90625,14.21875 L 17.90625,13.96875 L 17.90625,11.375 L 17.875,11.375 L 11.125,10.46875 L 11.09375,10.46875 z "
       id="path3364" />
    <path
       style="opacity:0.34999999999999998;color:#000000;fill:url(#linearGradient3622);fill-opacity:1;fill-rule:evenodd;stroke:none;stroke-width:1px;stroke-linecap:butt;stroke-linejoin:miter;marker:none;marker-start:none;marker-mid:none;marker-end:none;stroke-miterlimit:4;stroke-dasharray:none;stroke-dashoffset:0;stroke-opacity:1;visibility:visible;display:inline;overflow:visible;enable-background:accumulate"
       d="M 9.65625,14.53125 L 10.4375,15.46875 L 17.21875,17 L 15.84375,15.03125 L 14.625,15.5 L 9.65625,14.53125 z "
       id="path3374" />
    <path
       style="opacity:0.35;color:#000000;fill:url(#linearGradient3614);fill-opacity:1;fill-rule:evenodd;stroke:none;stroke-width:1px;stroke-linecap:butt;stroke-linejoin:miter;marker:none;marker-start:none;marker-mid:none;marker-end:none;stroke-miterlimit:4;stroke-dasharray:none;stroke-dashoffset:0;stroke-opacity:1;visibility:visible;display:inline;overflow:visible;enable-background:accumulate"
       d="M 17.90625,11.375 L 14.625,12.5 L 14.625,15.5 L 15.84375,15.03125 L 17.21875,17 L 17.90625,16.6875 L 17.90625,14.21875 L 17.90625,13.96875 L 17.90625,11.375 z "
       id="path3356" />
    <path
       style="opacity:0.6;color:#000000;fill:url(#linearGradient3606);fill-opacity:1;fill-rule:evenodd;stroke:none;stroke-width:1px;stroke-linecap:butt;stroke-linejoin:miter;marker:none;marker-start:none;marker-mid:none;marker-end:none;stroke-miterlimit:4;stroke-dasharray:none;stroke-dashoffset:0;stroke-opacity:1;visibility:visible;display:inline;overflow:visible;enable-background:accumulate"
       d="M 7.84375,11.4375 L 7.84375,14.15625 L 14.625,15.507813 L 14.625,12.5 L 7.84375,11.4375 z "
       id="path3302"
       sodipodi:nodetypes="ccccc" />
    <path
       style="opacity:0.75;fill:url(#linearGradient3630);fill-opacity:1;fill-rule:evenodd;stroke:none;stroke-width:1px;stroke-linecap:butt;stroke-linejoin:miter;marker:none;marker-start:none;marker-mid:none;marker-end:none;stroke-miterlimit:4;stroke-dasharray:none;stroke-dashoffset:0;stroke-opacity:1;visibility:visible;display:inline;overflow:visible;enable-background:accumulate"
       d="M 11.09375,10.46875 L 7.84375,11.4375 L 14.625,12.5 L 17.875,11.375 L 11.09375,10.46875 z"
       id="path3318"
       sodipodi:nodetypes="ccccc" />
    <path
       style="opacity:0.52427182999999999;color:#000000;fill:url(#linearGradient3664);fill-opacity:1;fill-rule:evenodd;stroke:none;stroke-width:1px;stroke-linecap:butt;stroke-linejoin:miter;marker:none;marker-start:none;marker-mid:none;marker-end:none;stroke-miterlimit:4;stroke-dasharray:none;stroke-dashoffset:0;stroke-opacity:1;visibility:visible;display:inline;overflow:visible;enable-background:accumulate"
       d="M 30.421875,5.15625 L 29.5,5.4375 L 33.25,5.625 L 34.125,5.328125 L 30.421875,5.15625 z"
       id="path3389"
       sodipodi:nodetypes="ccccc" />
    <path
       style="opacity:0.52427182999999999;color:#000000;fill:url(#linearGradient3656);fill-opacity:1;fill-rule:evenodd;stroke:none;stroke-width:1px;stroke-linecap:butt;stroke-linejoin:miter;marker:none;marker-start:none;marker-mid:none;marker-end:none;stroke-miterlimit:4;stroke-dasharray:none;stroke-dashoffset:0;stroke-opacity:1;visibility:visible;display:inline;overflow:visible;enable-background:accumulate"
       d="M 34.125,5.328125 L 33.25,5.625 L 33.25,9.9375 L 34.125,9.546875 L 34.125,5.328125 z"
       id="path3403"
       sodipodi:nodetypes="ccccc" />
    <path
       style="opacity:0.52427182999999999;color:#000000;fill:url(#linearGradient3648);fill-opacity:1;fill-rule:evenodd;stroke:none;stroke-width:1px;stroke-linecap:butt;stroke-linejoin:miter;marker:none;marker-start:none;marker-mid:none;marker-end:none;stroke-miterlimit:4;stroke-dasharray:none;stroke-dashoffset:0;stroke-opacity:1;visibility:visible;display:inline;overflow:visible;enable-background:accumulate"
       d="M 29.5 5.4375 L 29.5 9.5625 L 33.25 9.90625 L 33.25 5.625 L 29.5 5.4375 z "
       id="path3408" />
    <path
       style="opacity:0.52427182999999999;color:#000000;fill:#091609;fill-opacity:1;fill-rule:evenodd;stroke:none;stroke-width:1px;stroke-linecap:butt;stroke-linejoin:miter;marker:none;marker-start:none;marker-mid:none;marker-end:none;stroke-miterlimit:4;stroke-dasharray:none;stroke-dashoffset:0;stroke-opacity:1;visibility:visible;display:inline;overflow:visible;enable-background:accumulate"
       d="M 11.28125 10.625 L 8.6875 11.40625 L 13.40625 12.125 L 16 11.28125 L 11.28125 10.625 z "
       id="path2343" />
    <path
       style="opacity:0.52427182999999999;color:#000000;fill:#000000;fill-opacity:1.0;fill-rule:evenodd;stroke:none;stroke-width:1px;stroke-linecap:butt;stroke-linejoin:miter;marker:none;marker-start:none;marker-mid:none;marker-end:none;stroke-miterlimit:4;stroke-dasharray:none;stroke-dashoffset:0;stroke-opacity:1;visibility:visible;display:inline;overflow:visible;enable-background:accumulate"
       d="M 16.25 11.3125 L 15.4375 11.5625 L 16.46875 11.71875 L 17.25 11.4375 L 16.25 11.3125 z M 15.28125 11.625 L 14.5 11.875 L 15.53125 12.03125 L 16.28125 11.78125 L 15.28125 11.625 z M 14.34375 11.9375 L 13.65625 12.1875 L 14.65625 12.34375 L 15.34375 12.09375 L 14.34375 11.9375 z "
       id="path2348" />
    <path
       style="opacity:1;color:#000000;fill:#555555;fill-opacity:1;fill-rule:evenodd;stroke:none;stroke-width:1px;stroke-linecap:butt;stroke-linejoin:miter;marker:none;marker-start:none;marker-mid:none;marker-end:none;stroke-miterlimit:4;stroke-dasharray:none;stroke-dashoffset:0;stroke-opacity:1;visibility:visible;display:inline;overflow:visible;enable-background:accumulate"
       d="M 30.6875,0.03125 C 30.334946,0.036272194 29.965148,0.1220957 29.59375,0.15625 C 28.850957,0.2245603 28.951693,0.1813901 28.46875,0.34375 C 28.46875,0.34375 28.448549,0.58979612 28.448549,0.58979612 C 28.856999,0.59231867 28.859579,0.58983217 29.625,0.46875 C 30.394194,0.34707094 30.954146,0.16474659 31.59375,0.65625 C 32.233351,1.1477533 32.652202,1.3831216 33.21875,1.5625 C 33.785299,1.7418775 33.94308,1.860509 34.6875,2.40625 C 35.348131,2.8905638 35.506428,3.0401564 36.21875,3.4375 C 36.958059,3.8498974 37.050082,3.7212504 37.78125,4.25 C 38.55665,4.8107376 38.742171,5.3136685 38.875,5.90625 C 39.007854,6.498953 39.117203,6.9963599 39.25,7.84375 C 39.384135,8.6996892 39.4323,9.3437563 39.375,10.09375 C 39.317699,10.843745 39.30944,11.882894 38.96875,12.71875 C 38.723987,13.319257 38.33978,13.756019 37.9375,14.0625 C 37.743389,14.114099 37.541509,14.156367 37.4375,14.1875 C 36.91954,14.34254 36.327279,14.588506 35,15 C 33.662645,15.414618 33.622174,15.452023 32.59375,15.71875 C 31.568063,15.984767 31.05957,16.109375 29.84375,16.46875 C 28.627929,16.828125 28.236376,17.000234 27.4375,17.25 C 26.641833,17.498763 26.340821,17.546875 25.125,17.90625 C 23.90918,18.265625 23.623254,18.224398 22.65625,18.53125 C 21.699279,18.83492 21.601801,18.98831 20.4375,19.3125 C 19.265874,19.638729 19.120418,19.671951 18.09375,19.96875 C 17.07008,20.264682 16.84082,20.234375 15.625,20.59375 C 14.409179,20.953124 14.017828,21.190673 13.125,21.46875 C 12.217918,21.751267 11.86863,21.986655 11.21875,22.09375 C 10.566541,22.201229 10.757429,20.779586 10.625,20.09375 C 10.495478,19.422971 10.25954,18.676022 9.4375,18.1875 C 8.6270352,17.705857 8.1279975,17.365618 6.8125,17.75 C 5.5071784,18.131409 5.6875,19.375 5.6875,19.375 C 5.9218748,19.412134 6.140625,19.394973 6.375,19.34375 C 6.3749998,19.34375 6.2348452,18.448875 7.1875,18.21875 C 8.1253845,17.992193 8.3019611,18.137466 9.03125,18.5 C 9.74181,18.853223 10.128739,19.410133 10.21875,20.65625 C 10.30876,21.917992 10.458448,22.458984 11.03125,22.5 C 11.605376,22.541111 12.100075,22.190792 13.25,21.8125 C 14.385835,21.438843 14.540039,21.302734 15.75,20.9375 C 16.959961,20.572265 17.336857,20.558901 18.125,20.34375 C 18.910404,20.129348 19.477864,19.923943 20.5,19.625 C 21.532318,19.323079 21.690634,19.190591 22.75,18.84375 C 23.82259,18.49258 23.965544,18.560697 25.1875,18.1875 C 26.419559,17.811217 26.690491,17.790768 27.5,17.53125 C 28.312659,17.270723 28.653144,17.070003 29.875,16.71875 C 31.107057,16.364565 31.630749,16.247476 32.625,15.96875 C 33.62949,15.687154 33.821289,15.615234 35.03125,15.25 C 36.241211,14.884765 36.400415,14.7402 37.46875,14.4375 C 38.118059,14.192586 38.14662,14.126259 38.375,13.9375 C 38.678649,13.650735 38.941217,13.325728 39.125,12.875 C 39.514982,11.918576 39.535651,11.125132 39.59375,10.1875 C 39.652217,9.2438805 39.626642,8.7119953 39.46875,7.84375 C 39.310786,6.9751101 39.210446,6.639064 39.0625,5.875 C 38.918872,5.1312126 38.684493,4.6418871 37.9375,4.0625 C 37.190507,3.4831134 36.925704,3.5216521 36.28125,3.1875 C 35.629806,2.849724 35.517033,2.7833016 34.8125,2.21875 C 34.103536,1.6506459 33.975975,1.6032312 33.25,1.34375 C 32.565598,1.0991262 32.487987,1.000167 31.75,0.40625 C 31.384577,0.11216497 31.040054,0.026227806 30.6875,0.03125 z"
       id="path2414"
       sodipodi:nodetypes="csccsssssssssscsssssssssssssssccssssssssssssssccsssssssssc" />
    <path
       style="opacity:1;color:#000000;fill:#555555;fill-opacity:1;fill-rule:evenodd;stroke:none;stroke-width:1px;stroke-linecap:butt;stroke-linejoin:miter;marker:none;marker-start:none;marker-mid:none;marker-end:none;stroke-miterlimit:4;stroke-dasharray:none;stroke-dashoffset:0;stroke-opacity:1;visibility:visible;display:inline;overflow:visible;enable-background:accumulate"
       d="M 24.46875,0.15625 C 23.661743,0.14027195 23.093135,0.29501789 22.3125,0.96875 C 21.531865,1.6424814 21.501348,1.9118729 21,2.53125 C 20.493213,3.1573478 20.411312,3.2749792 19.65625,3.90625 C 18.896436,4.5414918 18.787042,4.6503638 18.34375,5.375 C 17.92584,6.0581413 17.824823,6.1518424 17.03125,6.8125 C 16.245356,7.4667642 16.388065,8.2442643 16.28125,9.0625 C 16.174437,9.8807357 16.134426,9.7533668 16.1875,10.3125 C 16.1875,10.3125 16.59375,10.4375 16.59375,10.4375 C 16.483545,9.887528 16.523541,9.952001 16.59375,9.09375 C 16.66396,8.2354992 16.586359,7.6091789 17.25,7.03125 C 17.913641,6.4533214 18.271823,6.0395741 18.59375,5.46875 C 18.915676,4.8979261 19.067432,4.7724438 19.8125,4.09375 C 20.473704,3.4914491 20.666767,3.3344109 21.25,2.65625 C 21.855329,1.9523952 21.775754,1.8245348 22.5,1.15625 C 23.26806,0.44753546 23.790147,0.38214934 24.4375,0.375 C 25.084986,0.3678492 25.650464,0.3547303 26.5625,0.40625 C 27.483737,0.45828942 28.172133,0.54676139 28.9375,0.78125 C 29.702867,1.0157386 30.775765,1.2833282 31.5625,1.84375 C 32.414089,2.450371 32.81305,3.3145039 32.9375,4 C 32.945044,4.0415533 32.934241,4.0831096 32.9375,4.125 C 32.97011,4.1153568 32.990971,4.140625 33.0625,4.140625 C 33.116861,4.140625 33.12165,4.1191825 33.15625,4.125 C 33.155673,4.0837914 33.16283,4.0408001 33.15625,4 C 33.00851,3.0839875 32.592594,2.2878831 31.75,1.6875 C 30.849817,1.046082 30.053842,0.84102862 29.09375,0.5625 C 28.127529,0.28219369 27.564706,0.21670554 26.625,0.1875 C 25.684867,0.15828118 25.297854,0.17222804 24.46875,0.15625 z"
       id="path2432"
       sodipodi:nodetypes="cssssssccssssssssssssssssssc" />
    <path
       style="opacity:0.5;fill:url(#linearGradient3668);fill-opacity:1;fill-rule:nonzero;stroke:none;stroke-width:10;stroke-linecap:round;stroke-linejoin:round;stroke-miterlimit:4;stroke-dasharray:none;stroke-opacity:1"
       d="M 9.6875 23.53125 L 8.4375 23.90625 C 8.4134541 23.915718 8.3994249 23.928513 8.375 23.9375 C 8.1669909 24.014035 7.9613084 24.071391 7.96875 24.25 C 8.0874119 24.308978 8.15625 24.366229 8.15625 24.4375 C 8.15625 24.446596 8.15625 24.892716 8.15625 25.25 C 8.228711 25.213177 8.284897 25.158639 8.375 25.125 C 8.399425 25.115882 8.413454 25.103357 8.4375 25.09375 L 9.6875 24.6875 C 9.6875 24.555961 9.6875 24.017572 9.6875 23.53125 z "
       id="path3583" />
    <path
       style="opacity:0.35;fill:url(#linearGradient3660);fill-opacity:1;fill-rule:nonzero;stroke:none;stroke-width:10;stroke-linecap:round;stroke-linejoin:round;stroke-miterlimit:4;stroke-dasharray:none;stroke-opacity:1"
       d="M 9.6875 23.125 L 8.65625 23.4375 L 8.28125 23.5625 L 7.71875 23.75 C 7.7215379 23.766944 7.75 23.899476 7.75 23.90625 C 7.7499999 23.958142 7.75 24.075795 7.75 24.1875 C 7.8146948 24.209439 7.9203183 24.225928 7.96875 24.25 C 7.9613084 24.071391 8.1669909 24.014035 8.375 23.9375 C 8.3994249 23.928513 8.4134541 23.915718 8.4375 23.90625 L 9.6875 23.53125 C 9.6875 23.36038 9.6875 23.30439 9.6875 23.125 z "
       id="path3588" />
    <path
       style="opacity:0.35;fill:url(#linearGradient3652);fill-opacity:1;fill-rule:nonzero;stroke:none;stroke-width:10;stroke-linecap:round;stroke-linejoin:round;stroke-miterlimit:4;stroke-dasharray:none;stroke-opacity:1"
       d="M 7.75,24.1875 C 7.75,24.26197 7.75,24.337838 7.75,24.375 C 7.7499998,24.596861 6.991416,24.78125 6.0625,24.78125 C 5.133584,24.78125 4.375,24.596862 4.375,24.375 C 4.375,24.344501 4.375,24.278757 4.375,24.21875 C 4.1632315,24.296135 3.9999999,24.369467 4,24.46875 C 4,24.740758 4.9236252,24.937499 6.0625,24.9375 C 7.2013746,24.9375 8.125,24.740758 8.125,24.46875 C 8.125,24.365978 7.9756158,24.266498 7.75,24.1875 z"
       id="path3616" />
    <path
       style="opacity:0.25;fill:url(#linearGradient3738);fill-opacity:1;fill-rule:nonzero;stroke:none;stroke-width:10;stroke-linecap:round;stroke-linejoin:round;stroke-miterlimit:4;stroke-dasharray:none;stroke-opacity:1"
       d="M 5.3125,20.09375 C 5.3125001,20.052832 5.3125,20.088207 5.3125,20.09375 z M 5.3125,20.09375 C 5.3125,20.141865 4.375,23.73157 4.375,23.90625 C 4.375,24.115914 5.133584,24.281249 6.0625,24.28125 C 6.991416,24.28125 7.7499998,24.115915 7.75,23.90625 C 7.75,23.73406 6.8124999,20.139465 6.8125,20.09375 C 6.8124998,20.175586 6.4791178,20.21875 6.0625,20.21875 C 5.6458822,20.218749 5.3125,20.175587 5.3125,20.09375 z M 6.8125,20.09375 C 6.8125,20.088481 6.8125,20.052831 6.8125,20.09375 z"
       id="path3689"
       sodipodi:nodetypes="cscsssssccc" />
    <path
       style="opacity:0.25;fill:url(#linearGradient3746);fill-opacity:1;fill-rule:nonzero;stroke:none;stroke-width:10;stroke-linecap:round;stroke-linejoin:round;stroke-miterlimit:4;stroke-dasharray:none;stroke-opacity:1"
       d="M 4.375,23.90625 C 4.375,23.991187 4.375,24.283502 4.375,24.375 C 4.375,24.596862 5.133584,24.78125 6.0625,24.78125 C 6.991416,24.78125 7.7499998,24.596861 7.75,24.375 C 7.75,24.282095 7.7499999,23.992737 7.75,23.90625 C 7.7499998,24.115915 6.991416,24.28125 6.0625,24.28125 C 5.133584,24.281249 4.375,24.115914 4.375,23.90625 z"
       id="path3672"
       sodipodi:nodetypes="csssssc" />
    <path
       style="opacity:0.35;fill:url(#linearGradient3525);fill-opacity:1;fill-rule:nonzero;stroke:none;stroke-width:10;stroke-linecap:round;stroke-linejoin:round;stroke-miterlimit:4;stroke-dasharray:none;stroke-opacity:1"
       d="M 5.53125,19.1875 C 5.3946416,19.212334 5.3125001,19.243381 5.3125,19.28125 C 5.3125,19.356988 5.6458822,19.437499 6.0625,19.4375 C 6.4791178,19.4375 6.8124998,19.356988 6.8125,19.28125 C 6.8125,19.227842 6.6202349,19.210166 6.375,19.1875 C 6.3749022,19.276089 6.3749999,19.34375 6.375,19.34375 C 6.140625,19.394973 5.9218748,19.412134 5.6875,19.375 C 5.6875,19.375 5.6880904,19.278732 5.6875,19.1875 C 5.639329,19.193004 5.5712904,19.180221 5.53125,19.1875 z"
       id="path3697" />
    <path
       style="opacity:0.35;fill:url(#linearGradient3754);fill-opacity:1;fill-rule:nonzero;stroke:none;stroke-width:10;stroke-linecap:round;stroke-linejoin:round;stroke-miterlimit:4;stroke-dasharray:none;stroke-opacity:1"
       d="M 5.3125,19.28125 C 5.3125,19.325711 5.3125001,20.045709 5.3125,20.09375 C 5.3125,20.175587 5.6458822,20.218749 6.0625,20.21875 C 6.4791178,20.21875 6.8124998,20.175586 6.8125,20.09375 C 6.8125,20.048083 6.8124999,19.323513 6.8125,19.28125 C 6.8124998,19.356988 6.4791178,19.4375 6.0625,19.4375 C 5.6458822,19.437499 5.3125,19.356988 5.3125,19.28125 z"
       id="path3704"
       sodipodi:nodetypes="csssssc" />
    <path
       sodipodi:nodetypes="cscsssssccc"
       id="path3800"
       d="M 5.3125,20.09375 C 5.3125001,20.052832 5.3125,20.088207 5.3125,20.09375 z M 5.3125,20.09375 C 5.3125,20.141865 4.375,23.73157 4.375,23.90625 C 4.375,24.115914 5.133584,24.281249 6.0625,24.28125 C 6.991416,24.28125 7.7499998,24.115915 7.75,23.90625 C 7.75,23.73406 6.8124999,20.139465 6.8125,20.09375 C 6.8124998,20.175586 6.4791178,20.21875 6.0625,20.21875 C 5.6458822,20.218749 5.3125,20.175587 5.3125,20.09375 z M 6.8125,20.09375 C 6.8125,20.088481 6.8125,20.052831 6.8125,20.09375 z"
       style="opacity:0.25;fill:url(#linearGradient3802);fill-opacity:1;fill-rule:nonzero;stroke:none;stroke-width:10;stroke-linecap:round;stroke-linejoin:round;stroke-miterlimit:4;stroke-dasharray:none;stroke-opacity:1" />
    <path
       style="opacity:0.25;fill:url(#linearGradient3459);fill-opacity:1;fill-rule:nonzero;stroke:none;stroke-width:10;stroke-linecap:round;stroke-linejoin:round;stroke-miterlimit:4;stroke-dasharray:none;stroke-opacity:1"
       d="M 10.84375,22.40625 C 10.433873,22.50308 10.086238,23.039861 10.03125,23.6875 C 9.968408,24.427659 10.296622,25.052604 10.78125,25.09375 C 10.78125,25.09375 11.038542,25.166521 11.21875,25.21875 C 10.816426,25.05259 10.536144,24.459729 10.59375,23.78125 C 10.659585,23.005846 11.124008,22.426214 11.625,22.46875 C 11.687624,22.474067 11.755025,22.476263 11.8125,22.5 C 11.755215,22.475518 11.718874,22.442817 11.65625,22.4375 C 11.65625,22.437501 11.03125,22.40625 11.03125,22.40625 C 10.970672,22.401107 10.902304,22.392417 10.84375,22.40625 z M 12.40625,23.40625 C 12.433854,23.570182 12.421794,23.754418 12.40625,23.9375 C 12.389791,24.131351 12.372714,24.304612 12.3125,24.46875 C 12.366913,24.312108 12.421958,24.151796 12.4375,23.96875 C 12.453959,23.774899 12.437279,23.580744 12.40625,23.40625 z M 12.0625,24.90625 C 11.969569,25.026403 11.864609,25.125604 11.75,25.1875 C 11.870297,25.12258 11.966769,25.035341 12.0625,24.90625 z M 11.75,25.1875 C 11.635391,25.249396 11.531498,25.291884 11.40625,25.28125 C 11.531498,25.291884 11.63585,25.249103 11.75,25.1875 z"
       id="path2678" />
    <path
       style="opacity:1;fill:url(#linearGradient3578);fill-opacity:1;stroke:none;stroke-width:0.60000001999999997;stroke-linecap:round;stroke-linejoin:round;stroke-miterlimit:4;stroke-dasharray:none;stroke-opacity:1"
       d="M 9.6875,22.40625 L 8.65625,22.71875 C 8.65625,23.072845 8.65625,23.215264 8.65625,23.4375 L 9.6875,23.125 C 9.6875,23.029009 9.6875,22.94641 9.6875,22.8125 C 9.6875,22.638653 9.6875,22.578793 9.6875,22.40625 z"
       id="rect3547"
       sodipodi:nodetypes="ccccsc" />
    <path
       id="path3632"
       d="M 11.28125 10.625 L 8.6875 11.40625 L 13.40625 12.125 L 16 11.28125 L 11.28125 10.625 z "
       style="opacity:0.52427182999999999;color:#000000;fill:url(#radialGradient3640);fill-opacity:1;fill-rule:evenodd;stroke:none;stroke-width:1px;stroke-linecap:butt;stroke-linejoin:miter;marker:none;marker-start:none;marker-mid:none;marker-end:none;stroke-miterlimit:4;stroke-dasharray:none;stroke-dashoffset:0;stroke-opacity:1;visibility:visible;display:inline;overflow:visible;enable-background:accumulate" />
    <path
       style="opacity:0.66666667000000002;fill:url(#linearGradient3832);fill-opacity:1.0;fill-rule:evenodd;stroke:none;stroke-width:1px;stroke-linecap:butt;stroke-linejoin:miter;marker:none;marker-start:none;marker-mid:none;marker-end:none;stroke-miterlimit:4;stroke-dasharray:none;stroke-dashoffset:0;stroke-opacity:1;visibility:visible;display:inline;overflow:visible;enable-background:accumulate"
       d="M 11.21875,20.5625 C 11.37673,20.776483 11.46875,21.074679 11.46875,21.40625 C 11.46875,21.40625 11.46875,21.754083 11.46875,21.875 L 11.71875,21.8125 C 11.71875,21.791062 11.71875,21.625 11.71875,21.625 C 11.71875,21.147082 11.51355,20.751924 11.21875,20.5625 z"
       id="path3818"
       sodipodi:nodetypes="cccccc" />
    <path
       style="opacity:0.5;fill:url(#linearGradient3868);fill-opacity:1;fill-rule:nonzero;stroke:none;stroke-width:10;stroke-linecap:round;stroke-linejoin:round;stroke-miterlimit:4;stroke-dasharray:none;stroke-opacity:1"
       d="M 8.03125,25.796875 C 7.98063,25.828469 7.8899874,25.863025 7.8125,25.890625 C 7.7264029,25.921291 7.6455735,25.959419 7.53125,25.984375 C 7.4576481,26.004022 7.3970044,25.998822 7.3125,26.015625 C 7.1705484,26.039435 7.0414492,26.062995 6.875,26.078125 C 6.6226726,26.107926 6.3578069,26.140625 6.0625,26.140625 C 5.3862929,26.140625 4.7788955,26.045776 4.40625,25.921875 C 4.5986082,26.141757 5.4409844,26.296876 6.4375,26.296875 C 7.0855245,26.296876 7.6531061,26.245643 8.03125,26.140625 C 8.03125,26.054991 8.03125,25.865293 8.03125,25.796875 z"
       id="path3854" />
    <rect
       style="opacity:0.61162792;fill:#555753;fill-opacity:1;fill-rule:nonzero;stroke:none;stroke-width:0.69999999;stroke-linecap:round;stroke-linejoin:miter;stroke-miterlimit:4;stroke-dasharray:none;stroke-opacity:1"
       id="rect1951"
       width="40.001965"
       height="10.004759"
       x="-0.0019644466"
       y="30" />
    <text
       xml:space="preserve"
       style="font-size:12px;font-style:normal;font-weight:normal;fill:#eeeeec;fill-opacity:1;stroke:none;stroke-width:1px;stroke-linecap:butt;stroke-linejoin:miter;stroke-opacity:1;font-family:Bitstream Vera Sans"
       x="12.638643"
       y="39.168156"
       id="text2840"><tspan
         sodipodi:role="line"
         id="tspan2842"
         x="12.638643"
         y="39.168156">Cs</tspan></text>
    <path
       style="opacity:0.25;fill:#ffffff;fill-opacity:1;fill-rule:evenodd;stroke:none;stroke-width:1px;stroke-linecap:butt;stroke-linejoin:miter;marker:none;marker-start:none;marker-mid:none;marker-end:none;stroke-miterlimit:4;stroke-dasharray:none;stroke-dashoffset:0;stroke-opacity:1;visibility:visible;display:inline;overflow:visible;enable-background:accumulate"
       d="M 30.643306,0.058708736 C 30.30598,0.063513736 29.930139,0.14870973 29.549556,0.18370873 C 29.176657,0.21800173 29.013081,0.22933073 28.893306,0.24620873 C 28.79161,0.26053873 28.686901,0.28419973 28.518306,0.33995873 C 28.515465,0.37455873 28.521857,0.39045873 28.518306,0.43370873 C 28.816903,0.43413973 28.894916,0.41720973 29.580806,0.30870873 C 29.961488,0.24848873 30.279795,0.15177873 30.612056,0.15245873 C 30.944317,0.15313873 31.276337,0.23822573 31.612056,0.49620873 C 32.050702,0.83328773 32.39094,1.0275587 32.737056,1.1837087 C 32.381934,1.0154617 32.195627,0.84695473 31.643306,0.40245873 C 31.294387,0.12165573 30.978687,0.053931739 30.643306,0.058708736 z M 33.205806,1.4024587 C 33.779357,1.5840537 33.961525,1.7005697 34.705806,2.2462087 C 35.037009,2.4890167 35.244357,2.6609997 35.455806,2.8087087 C 35.255299,2.6736597 35.049666,2.4904977 34.705806,2.2149587 C 34.016446,1.6625637 33.885131,1.6453127 33.205806,1.4024587 z M 35.487056,2.8087087 C 35.692725,2.9514887 35.893225,3.0856637 36.237056,3.2774587 C 36.601306,3.4806427 36.776433,3.5654037 36.987056,3.6524587 C 37.197679,3.7395137 37.429237,3.8221597 37.799556,4.0899587 C 37.447609,3.8199947 37.215596,3.6582187 36.987056,3.5587087 C 36.752289,3.4564867 36.534396,3.3853337 36.205806,3.2149587 C 35.8798,3.0459227 35.692353,2.9457727 35.487056,2.8087087 z M 38.987056,6.2149587 C 39.086831,6.6711687 39.19368,7.1018557 39.299556,7.7774587 C 39.434312,8.6373607 39.482512,9.2688847 39.424556,10.027459 C 39.39641,10.395849 39.316223,10.847585 39.237056,11.308709 C 39.211149,11.537718 39.161635,11.769528 39.112056,11.996209 C 39.263802,11.379269 39.414673,10.785039 39.455806,10.121209 C 39.514018,9.1816997 39.487752,8.6717507 39.330806,7.8087087 C 39.203117,7.1065497 39.095724,6.7324457 38.987056,6.2149587 z M 38.987056,12.714959 C 38.932813,12.842659 38.865148,12.977815 38.799556,13.089959 C 38.860156,12.984043 38.936804,12.900701 38.987056,12.777459 C 38.995799,12.756017 38.978686,12.736235 38.987056,12.714959 z M 38.799556,13.089959 C 38.602781,13.42639 38.367514,13.68043 38.112056,13.902459 C 38.144605,13.874727 38.225385,13.844183 38.268306,13.808709 C 38.481356,13.607505 38.646037,13.358279 38.799556,13.089959 z M 37.580806,14.183709 C 37.534045,14.195139 37.453516,14.206291 37.424556,14.214959 C 36.914369,14.367672 36.317064,14.615119 34.987056,15.027459 C 33.650781,15.441742 33.610812,15.479072 32.580806,15.746209 C 31.55469,16.012337 31.045383,16.137201 29.830806,16.496209 C 28.617711,16.854778 28.227037,17.026566 27.424556,17.277459 C 26.625538,17.52727 26.325901,17.574918 25.112056,17.933709 C 23.890155,18.294881 23.602432,18.254357 22.643306,18.558709 C 21.693722,18.860035 21.59532,19.013969 20.424556,19.339959 C 19.25256,19.666291 19.106966,19.699557 18.080806,19.996209 C 17.051559,20.293753 16.823133,20.263236 15.612056,20.621209 C 14.402129,20.978841 14.0124,21.215791 13.112056,21.496209 C 12.213072,21.776204 11.87321,22.011226 11.205806,22.121209 C 11.008628,22.153702 10.82657,22.054477 10.737056,21.902459 C 10.647542,21.750441 10.606674,21.559663 10.580806,21.339959 C 10.52907,20.900551 10.549136,20.380216 10.487056,20.058709 C 10.3592,19.396558 10.121586,18.684904 9.3308058,18.214959 C 8.9244318,17.973459 8.6082218,17.776112 8.2370558,17.683709 C 7.8658898,17.591306 7.4464128,17.588451 6.7995558,17.777459 C 6.1761688,17.95961 5.9099038,18.348628 5.7995558,18.683709 C 5.7055958,18.969025 5.7302288,19.14648 5.7370558,19.214959 C 5.9110388,19.234952 6.0591808,19.217755 6.2370558,19.183709 C 6.2299608,19.115598 6.2243248,19.003469 6.2995558,18.777459 C 6.3918198,18.500277 6.6058818,18.180981 7.1120558,18.058709 C 7.5871328,17.943949 7.9024458,17.907512 8.1745558,17.964959 C 8.4466658,18.022406 8.6555478,18.15963 9.0183058,18.339959 C 9.3858658,18.522675 9.6859968,18.76396 9.8933058,19.121209 C 10.100615,19.478458 10.222636,19.957698 10.268306,20.589959 C 10.313103,21.217917 10.375556,21.657362 10.487056,21.933709 C 10.598556,22.210056 10.731278,22.321644 10.987056,22.339959 C 11.251894,22.358923 11.495612,22.280661 11.830806,22.152459 C 12.166,22.024257 12.594933,21.843138 13.174556,21.652459 C 14.306096,21.280215 14.460265,21.144 15.674556,20.777459 C 16.889371,20.410759 17.268212,20.397004 18.049556,20.183709 C 18.831112,19.970358 19.400146,19.764567 20.424556,19.464959 C 21.451953,19.164477 21.610833,19.031976 22.674556,18.683709 C 23.753277,18.330532 23.895435,18.399027 25.112056,18.027459 C 26.347064,17.650275 26.61977,17.629213 27.424556,17.371209 C 28.230729,17.112761 28.572719,16.911394 29.799556,16.558709 C 31.03322,16.204062 31.557084,16.086936 32.549556,15.808709 C 33.552971,15.527415 33.745167,15.455398 34.955806,15.089959 C 36.161102,14.726132 36.319443,14.581725 37.393306,14.277459 C 37.529389,14.22613 37.493974,14.220771 37.580806,14.183709 z"
       id="path3964" />
    <path
       sodipodi:nodetypes="cssssss"
       id="path3717"
       d="M 14.933388,19.500331 C 15.176531,19.430071 15.45283,19.726876 15.576705,20.155492 C 15.700562,20.584124 15.625149,20.982567 15.382018,21.052827 C 15.433767,21.037875 15.965341,20.884254 16.080335,20.85102 C 16.323478,20.78076 16.426826,20.374253 16.302953,19.945632 C 16.179095,19.517006 15.871451,19.216507 15.628324,19.286768 C 15.508307,19.321454 14.903001,19.509107 14.933388,19.500331 z"
       style="opacity:0.67164175000000004;fill:#000000;fill-opacity:1.0;fill-rule:nonzero;stroke:none;stroke-width:10;stroke-linecap:round;stroke-linejoin:round;stroke-miterlimit:4;stroke-dasharray:none;stroke-opacity:1" />
    <path
       style="opacity:1;fill:url(#linearGradient3731);fill-opacity:1;fill-rule:nonzero;stroke:none;stroke-width:10;stroke-linecap:round;stroke-linejoin:round;stroke-miterlimit:4;stroke-dasharray:none;stroke-opacity:1"
       d="M 14.980263,19.488612 C 15.223406,19.418352 15.499705,19.715157 15.62358,20.143773 C 15.747437,20.572405 15.672024,20.970848 15.428893,21.041108 C 15.480642,21.026156 16.012216,20.872535 16.12721,20.839301 C 16.370353,20.769041 16.473701,20.362534 16.349828,19.933913 C 16.22597,19.505287 15.918326,19.204788 15.675199,19.275049 C 15.555182,19.309735 14.949876,19.497388 14.980263,19.488612 z"
       id="path3723"
       sodipodi:nodetypes="cssssss" />
    <path
       style="opacity:0.67164175;fill:#000000;fill-opacity:1;fill-rule:nonzero;stroke:none;stroke-width:10;stroke-linecap:round;stroke-linejoin:round;stroke-miterlimit:4;stroke-dasharray:none;stroke-opacity:1"
       d="M 22.031631,17.574104 C 22.2461,17.512133 22.489783,17.773924 22.599051,18.151991 C 22.708301,18.530052 22.641771,18.881488 22.427341,18.943459 C 22.472988,18.930262 22.941841,18.794758 23.043261,18.765466 C 23.257723,18.703495 23.348879,18.34494 23.239628,17.96689 C 23.130377,17.588817 22.859021,17.323779 22.64458,17.385745 C 22.538726,17.416341 22.004835,17.581854 22.031631,17.574104 z"
       id="path3743"
       sodipodi:nodetypes="cssssss" />
    <path
       sodipodi:nodetypes="cssssss"
       id="path3745"
       d="M 22.072971,17.563792 C 22.28744,17.501815 22.531134,17.763604 22.640391,18.141649 C 22.749641,18.51971 22.683135,18.871146 22.468681,18.933117 C 22.514328,18.91992 22.983181,18.784441 23.084621,18.755124 C 23.299063,18.693153 23.390234,18.334598 23.280968,17.956548 C 23.171717,17.578493 22.900361,17.313445 22.685935,17.375417 C 22.580066,17.405999 22.046175,17.571512 22.072971,17.563792 z"
       style="opacity:1;fill:url(#linearGradient3747);fill-opacity:1;fill-rule:nonzero;stroke:none;stroke-width:10;stroke-linecap:round;stroke-linejoin:round;stroke-miterlimit:4;stroke-dasharray:none;stroke-opacity:1" />
    <path
       sodipodi:nodetypes="cssssss"
       id="path3749"
       d="M 29.596186,15.527896 C 29.781978,15.474214 29.993048,15.701009 30.087709,16.028509 C 30.182352,16.355999 30.124706,16.660428 29.938976,16.71411 C 29.978521,16.702668 30.384653,16.585281 30.472504,16.559926 C 30.65828,16.506244 30.737244,16.195646 30.642615,15.868167 C 30.547971,15.540661 30.312903,15.311069 30.127154,15.364751 C 30.035457,15.391247 29.572981,15.53462 29.596186,15.527896 z"
       style="opacity:0.67164175;fill:#000000;fill-opacity:1;fill-rule:nonzero;stroke:none;stroke-width:10;stroke-linecap:round;stroke-linejoin:round;stroke-miterlimit:4;stroke-dasharray:none;stroke-opacity:1" />
    <path
       style="opacity:1;fill:url(#linearGradient3753);fill-opacity:1;fill-rule:nonzero;stroke:none;stroke-width:10;stroke-linecap:round;stroke-linejoin:round;stroke-miterlimit:4;stroke-dasharray:none;stroke-opacity:1"
       d="M 29.631991,15.518979 C 29.817786,15.465296 30.028882,15.69207 30.123514,16.019544 C 30.218157,16.347034 30.160552,16.651463 29.974781,16.705145 C 30.014326,16.693703 30.420458,16.576363 30.508344,16.550966 C 30.694085,16.497284 30.773079,16.186681 30.67842,15.859202 C 30.583776,15.531718 30.348708,15.302121 30.162983,15.355804 C 30.071262,15.382282 29.608786,15.525655 29.631991,15.518979 z"
       id="path3751"
       sodipodi:nodetypes="cssssss" />
    <path
       style="opacity:1;fill:url(#linearGradient3781);fill-opacity:1;fill-rule:evenodd;stroke:none;stroke-width:1px;stroke-linecap:butt;stroke-linejoin:miter;marker:none;marker-start:none;marker-mid:none;marker-end:none;stroke-miterlimit:4;stroke-dasharray:none;stroke-dashoffset:0;stroke-opacity:1;visibility:visible;display:inline;overflow:visible;enable-background:accumulate"
       d="M 38.0625,13.25 C 36.125609,13.775691 36.069089,13.793753 34.15625,14.3125 C 34.305918,14.3125 34.4375,14.504307 34.4375,14.75 C 34.4375,14.972069 34.317095,15.15412 34.1875,15.1875 L 38.15625,14.03125 C 38.266252,13.96775 38.343751,13.829346 38.34375,13.65625 C 38.34375,13.442765 38.214037,13.275241 38.0625,13.25 z"
       id="path3688"
       sodipodi:nodetypes="ccsccsc" />
    <path
       style="opacity:1;fill:url(#linearGradient3936);fill-opacity:1;fill-rule:nonzero;stroke:none;stroke-width:1;stroke-linecap:butt;stroke-linejoin:miter;marker:none;marker-start:none;marker-mid:none;marker-end:none;stroke-miterlimit:4;stroke-dasharray:none;stroke-dashoffset:0;stroke-opacity:1;visibility:visible;display:inline;overflow:visible;enable-background:accumulate"
       d="M 28.023438,0.26562497 L 29.156251,0.16406247 C 29.065551,0.37760414 29.062231,0.6458333 29.117188,0.85937497 L 27.992188,0.57031247 C 27.938891,0.43689328 28.000707,0.36103033 28.023438,0.26562497 z"
       id="path3928"
       sodipodi:nodetypes="ccccc" />
    <path
       style="fill:#2e3436;fill-opacity:1;fill-rule:nonzero;stroke:none;stroke-width:10;stroke-linecap:round;stroke-linejoin:round;stroke-miterlimit:4;stroke-dasharray:none;stroke-opacity:1"
       d="M 16.15625 9.8125 C 16.142408 9.8177354 16.09375 9.8371551 16.09375 9.84375 C 16.093749 9.8583759 16.09375 10.077947 16.09375 10.09375 C 16.093749 10.109578 15.78125 11.286289 15.78125 11.34375 C 15.78125 11.371691 15.78125 11.469902 15.78125 11.5 C 15.78125 11.572983 16.038179 11.65625 16.34375 11.65625 C 16.64932 11.65625 16.90625 11.572982 16.90625 11.5 C 16.90625 11.469439 16.90625 11.372201 16.90625 11.34375 C 16.90625 11.287108 16.59375 10.108789 16.59375 10.09375 C 16.59375 10.078728 16.59375 9.8576526 16.59375 9.84375 C 16.59375 9.8371551 16.545092 9.8177354 16.53125 9.8125 C 16.53125 9.8156503 16.504277 9.8095939 16.5 9.8125 C 16.4779 9.827515 16.433282 9.84375 16.34375 9.84375 C 16.254218 9.8437503 16.209599 9.8275149 16.1875 9.8125 C 16.183223 9.8154061 16.15625 9.8093498 16.15625 9.8125 z "
       id="path2398" />
    <path
       style="opacity:0.15;fill:url(#linearGradient4095);fill-opacity:1;fill-rule:nonzero;stroke:none;stroke-width:10;stroke-linecap:round;stroke-linejoin:round;stroke-miterlimit:4;stroke-opacity:1"
       d="M 15.78125,11.34375 C 15.78125,11.373164 15.78125,11.472095 15.78125,11.5 C 15.78125,11.572982 16.03818,11.65625 16.34375,11.65625 C 16.64932,11.65625 16.90625,11.572982 16.90625,11.5 C 16.90625,11.470807 16.90625,11.373637 16.90625,11.34375 C 16.90625,11.41272 16.64932,11.46875 16.34375,11.46875 C 16.03818,11.46875 15.78125,11.41272 15.78125,11.34375 z"
       id="path4001" />
    <path
       style="opacity:0.15;fill:url(#linearGradient4087);fill-opacity:1;fill-rule:nonzero;stroke:none;stroke-width:10;stroke-linecap:round;stroke-linejoin:round;stroke-miterlimit:4;stroke-dasharray:none;stroke-opacity:1"
       d="M 16.09375,10.09375 C 16.093749,10.109578 15.78125,11.286289 15.78125,11.34375 C 15.78125,11.41272 16.03818,11.46875 16.34375,11.46875 C 16.64932,11.46875 16.90625,11.41272 16.90625,11.34375 C 16.90625,11.287108 16.59375,10.108789 16.59375,10.09375 C 16.59375,10.12067 16.480798,10.15625 16.34375,10.15625 C 16.206703,10.15625 16.09375,10.12067 16.09375,10.09375 z"
       id="path4006" />
    <path
       style="opacity:0.15;fill:url(#linearGradient4079);fill-opacity:1;fill-rule:nonzero;stroke:none;stroke-width:10;stroke-linecap:round;stroke-linejoin:round;stroke-miterlimit:4;stroke-dasharray:none;stroke-opacity:1"
       d="M 16.09375,9.84375 C 16.093749,9.8583759 16.09375,10.077947 16.09375,10.09375 C 16.09375,10.12067 16.206703,10.15625 16.34375,10.15625 C 16.480798,10.15625 16.59375,10.12067 16.59375,10.09375 C 16.59375,10.078728 16.59375,9.8576526 16.59375,9.84375 C 16.59375,9.8686645 16.480798,9.875 16.34375,9.875 C 16.206703,9.8750002 16.09375,9.8686642 16.09375,9.84375 z"
       id="path4011" />
    <path
       style="opacity:1;fill:#555555;fill-opacity:1;fill-rule:nonzero;stroke:none;stroke-width:10;stroke-linecap:round;stroke-linejoin:round;stroke-miterlimit:4;stroke-dasharray:none;stroke-opacity:1"
       d="M 16.15625,9.8125 C 16.142408,9.8177354 16.09375,9.8371551 16.09375,9.84375 C 16.09375,9.8686642 16.206703,9.8750002 16.34375,9.875 C 16.480798,9.875 16.59375,9.8686645 16.59375,9.84375 C 16.59375,9.8371551 16.545092,9.8177354 16.53125,9.8125 C 16.53125,9.8156503 16.504009,9.8097676 16.5,9.8125 C 16.479286,9.8266173 16.433281,9.84375 16.34375,9.84375 C 16.254218,9.8437503 16.208213,9.8266173 16.1875,9.8125 C 16.183491,9.8152324 16.15625,9.8093498 16.15625,9.8125 z"
       id="path4054" />
    <path
       style="opacity:0.75;fill:url(#linearGradient4145);fill-opacity:1;fill-rule:nonzero;stroke:none;stroke-width:10;stroke-linecap:round;stroke-linejoin:round;stroke-miterlimit:4;stroke-dasharray:none;stroke-opacity:1"
       d="M 7.75,21.46875 C 7.5487976,21.46875 7.3495902,21.623826 7.25,21.84375 C 7.2734795,21.936355 7.289013,21.938298 7.3125,22.03125 C 7.3669544,21.7875 7.5184673,21.625 7.71875,21.625 C 7.965544,21.624999 8.1875,21.882111 8.1875,22.21875 C 8.1875,22.55539 7.9655438,22.84375 7.71875,22.84375 C 7.6262024,22.84375 7.538424,22.787191 7.46875,22.71875 C 7.484285,22.781784 7.4857313,22.816479 7.5,22.875 C 7.5116572,22.882923 7.5191734,22.899407 7.53125,22.90625 C 7.5982204,22.944198 7.6740745,22.96875 7.75,22.96875 C 8.053702,22.96875 8.3125,22.633015 8.3125,22.21875 C 8.3125,21.804486 8.053702,21.46875 7.75,21.46875 z"
       id="path4117" />
    <path
       style="opacity:1;fill:url(#linearGradient4147);fill-opacity:1;fill-rule:nonzero;stroke:none;stroke-width:10;stroke-linecap:round;stroke-linejoin:round;stroke-miterlimit:4;stroke-dasharray:none;stroke-opacity:1"
       d="M 7.71875,21.625 C 7.5184673,21.625 7.3669544,21.7875 7.3125,22.03125 C 7.3939525,22.353605 7.3999722,22.439683 7.46875,22.71875 C 7.538424,22.787191 7.6262024,22.84375 7.71875,22.84375 C 7.9655438,22.84375 8.1875,22.55539 8.1875,22.21875 C 8.1875,21.882111 7.965544,21.624999 7.71875,21.625 z"
       id="path4133" />
    <path
       sodipodi:nodetypes="ccccccssssc"
       style="opacity:1;fill:url(#linearGradient4200);fill-opacity:1;fill-rule:nonzero;stroke:none;stroke-width:1;stroke-linecap:butt;stroke-linejoin:miter;marker:none;marker-start:none;marker-mid:none;marker-end:none;stroke-miterlimit:4;stroke-dasharray:none;stroke-dashoffset:0;stroke-opacity:1;visibility:visible;display:inline;overflow:visible;enable-background:accumulate"
       d="M 30.794181,4.9794384 C 30.889915,5.0219552 30.874696,5.1789742 30.812633,5.5033313 L 29.519889,5.4374357 C 29.579076,5.1272325 29.587512,5.0385805 29.493891,4.9645218 L 30.794181,4.9794384 z M 30.594595,5.0792114 C 30.49343,5.0574317 30.382795,5.0386676 30.226841,5.037999 C 29.920482,5.0366899 29.660289,5.0607825 29.657437,5.1086832 C 29.654585,5.1565852 29.89895,5.1912384 30.210295,5.2097587 C 30.521636,5.228275 30.774782,5.199097 30.777633,5.1511958 C 30.779061,5.1272453 30.695744,5.1009914 30.594595,5.0792114 z"
       id="path4198" />
    <path
       id="path4210"
       d="M 32.916226,4.1052582 C 32.905432,4.1093407 32.86749,4.1244837 32.86749,4.1296262 C 32.867489,4.1410311 32.86749,4.3122471 32.86749,4.3245699 C 32.867489,4.3369122 32.62381,5.2544817 32.62381,5.2992884 C 32.62381,5.3210761 32.62381,5.3976585 32.62381,5.4211282 C 32.62381,5.4780385 32.824157,5.542968 33.062433,5.542968 C 33.300709,5.542968 33.501057,5.4780377 33.501057,5.4211282 C 33.501057,5.3972975 33.501057,5.3214738 33.501057,5.2992884 C 33.501057,5.2551204 33.257377,4.3362969 33.257377,4.3245699 C 33.257377,4.3128561 33.257377,4.1404671 33.257377,4.1296262 C 33.257377,4.1244837 33.219435,4.1093407 33.208641,4.1052582 C 33.208641,4.1077147 33.187608,4.1029921 33.184273,4.1052582 C 33.16704,4.1169665 33.132248,4.1296262 33.062433,4.1296262 C 32.992619,4.1296264 32.957826,4.1169665 32.940594,4.1052582 C 32.937258,4.1075243 32.916226,4.1028018 32.916226,4.1052582 z"
       style="fill:#2e3436;fill-opacity:1;fill-rule:nonzero;stroke:none;stroke-width:10;stroke-linecap:round;stroke-linejoin:round;stroke-miterlimit:4;stroke-dasharray:none;stroke-opacity:1" />
    <path
       id="path4212"
       d="M 32.62381,5.2992884 C 32.62381,5.3222247 32.62381,5.3993686 32.62381,5.4211282 C 32.62381,5.4780377 32.824158,5.542968 33.062433,5.542968 C 33.300709,5.542968 33.501057,5.4780377 33.501057,5.4211282 C 33.501057,5.3983642 33.501057,5.3225935 33.501057,5.2992884 C 33.501057,5.3530695 33.300709,5.3967602 33.062433,5.3967602 C 32.824158,5.3967602 32.62381,5.3530695 32.62381,5.2992884 z"
       style="opacity:0.15;fill:url(#linearGradient4251);fill-opacity:1;fill-rule:nonzero;stroke:none;stroke-width:10;stroke-linecap:round;stroke-linejoin:round;stroke-miterlimit:4;stroke-opacity:1" />
    <path
       id="path4214"
       d="M 32.86749,4.3245699 C 32.867489,4.3369122 32.62381,5.2544817 32.62381,5.2992884 C 32.62381,5.3530695 32.824158,5.3967602 33.062433,5.3967602 C 33.300709,5.3967602 33.501057,5.3530695 33.501057,5.2992884 C 33.501057,5.2551204 33.257377,4.3362969 33.257377,4.3245699 C 33.257377,4.3455614 33.1693,4.3733058 33.062433,4.3733058 C 32.955568,4.3733058 32.86749,4.3455614 32.86749,4.3245699 z"
       style="opacity:0.15;fill:url(#linearGradient4248);fill-opacity:1;fill-rule:nonzero;stroke:none;stroke-width:10;stroke-linecap:round;stroke-linejoin:round;stroke-miterlimit:4;stroke-dasharray:none;stroke-opacity:1" />
    <path
       id="path4216"
       d="M 32.86749,4.1296262 C 32.867489,4.1410311 32.86749,4.3122471 32.86749,4.3245699 C 32.86749,4.3455614 32.955568,4.3733058 33.062433,4.3733058 C 33.1693,4.3733058 33.257377,4.3455614 33.257377,4.3245699 C 33.257377,4.3128561 33.257377,4.1404671 33.257377,4.1296262 C 33.257377,4.1490539 33.1693,4.1539942 33.062433,4.1539942 C 32.955568,4.1539943 32.86749,4.1490537 32.86749,4.1296262 z"
       style="opacity:0.15;fill:url(#linearGradient4245);fill-opacity:1;fill-rule:nonzero;stroke:none;stroke-width:10;stroke-linecap:round;stroke-linejoin:round;stroke-miterlimit:4;stroke-dasharray:none;stroke-opacity:1" />
    <path
       id="path4218"
       d="M 32.916226,4.1052582 C 32.905432,4.1093407 32.86749,4.1244837 32.86749,4.1296262 C 32.86749,4.1490537 32.955568,4.1539943 33.062433,4.1539942 C 33.1693,4.1539942 33.257377,4.1490539 33.257377,4.1296262 C 33.257377,4.1244837 33.219435,4.1093407 33.208641,4.1052582 C 33.208641,4.1077147 33.187399,4.1031276 33.184273,4.1052582 C 33.168121,4.1162665 33.132247,4.1296262 33.062433,4.1296262 C 32.992619,4.1296264 32.956745,4.1162665 32.940594,4.1052582 C 32.937467,4.1073889 32.916226,4.1028018 32.916226,4.1052582 z"
       style="fill:#555555;fill-opacity:1;fill-rule:nonzero;stroke:none;stroke-width:10;stroke-linecap:round;stroke-linejoin:round;stroke-miterlimit:4;stroke-dasharray:none;stroke-opacity:1" />
    <path
       id="path4206"
       d="M 33.21071,5.0665496 C 33.311082,5.1111256 33.295125,5.2757496 33.230056,5.6158165 L 31.874699,5.5467295 C 31.936754,5.221502 31.945598,5.1285561 31.847441,5.0509106 L 33.21071,5.0665496 z M 33.001458,5.171155 C 32.895394,5.1483205 32.779398,5.1286474 32.615893,5.1279464 C 32.294696,5.126574 32.0219,5.1518336 32.01891,5.2020542 C 32.01592,5.2522764 32.27212,5.2886078 32.598546,5.3080251 C 32.924965,5.3274384 33.190372,5.2968471 33.193361,5.2466257 C 33.194858,5.2215154 33.107506,5.1939898 33.001458,5.171155 z"
       style="opacity:1;fill:url(#linearGradient4208);fill-opacity:1;fill-rule:nonzero;stroke:none;stroke-width:1;stroke-linecap:butt;stroke-linejoin:miter;marker:none;marker-start:none;marker-mid:none;marker-end:none;stroke-miterlimit:4;stroke-dasharray:none;stroke-dashoffset:0;stroke-opacity:1;visibility:visible;display:inline;overflow:visible;enable-background:accumulate"
       sodipodi:nodetypes="ccccccssssc" />
    <path
       style="opacity:0.25;fill:url(#linearGradient4290);fill-opacity:1;fill-rule:nonzero;stroke:none;stroke-width:10;stroke-linecap:round;stroke-linejoin:round;stroke-miterlimit:4;stroke-dasharray:none;stroke-opacity:1"
       d="M 10.625,20.21875 C 10.721356,20.921423 10.60619,22.144741 11.1875,22.09375 C 11.208986,21.628829 11.19205,21.210866 11.101563,20.890625 C 11.043512,20.685178 10.906242,20.449288 10.78125,20.28125 C 10.747949,20.23648 10.679977,20.228526 10.625,20.21875 z"
       id="path4274"
       sodipodi:nodetypes="ccssc" />
  </g>
</svg>
