<?xml version="1.0" encoding="UTF-8" standalone="no"?>
<!-- Created with Inkscape (http://www.inkscape.org/) -->
<svg
   xmlns:dc="http://purl.org/dc/elements/1.1/"
   xmlns:cc="http://web.resource.org/cc/"
   xmlns:rdf="http://www.w3.org/1999/02/22-rdf-syntax-ns#"
   xmlns:svg="http://www.w3.org/2000/svg"
   xmlns="http://www.w3.org/2000/svg"
   xmlns:xlink="http://www.w3.org/1999/xlink"
   xmlns:sodipodi="http://sodipodi.sourceforge.net/DTD/sodipodi-0.dtd"
   xmlns:inkscape="http://www.inkscape.org/namespaces/inkscape"
   width="40"
   height="40"
   id="svg2193"
   sodipodi:version="0.32"
   inkscape:version="0.45.1"
   version="1.0"
   sodipodi:docbase="/home/jra/Desktop/send-now"
   sodipodi:docname="56.svg"
   inkscape:output_extension="org.inkscape.output.svg.inkscape">
  <defs
     id="defs2195">
    <linearGradient
       id="linearGradient3511">
      <stop
         style="stop-color:#fcc94f;stop-opacity:1;"
         offset="0"
         id="stop3513" />
      <stop
         style="stop-color:#fce94f;stop-opacity:1;"
         offset="1"
         id="stop3515" />
    </linearGradient>
    <linearGradient
       id="linearGradient2400">
      <stop
         style="stop-color:#000000;stop-opacity:1;"
         offset="0"
         id="stop2402" />
      <stop
         id="stop2406"
         offset="0.5"
         style="stop-color:#dddddd;stop-opacity:1;" />
      <stop
         style="stop-color:#b1b1b1;stop-opacity:1;"
         offset="0.625"
         id="stop3408" />
      <stop
         style="stop-color:#fefefe;stop-opacity:1;"
         offset="0.75"
         id="stop2408" />
      <stop
         style="stop-color:#010101;stop-opacity:1;"
         offset="1"
         id="stop2404" />
    </linearGradient>
    <linearGradient
       id="linearGradient3292">
      <stop
         style="stop-color:#babdb6;stop-opacity:1;"
         offset="0"
         id="stop3294" />
      <stop
         style="stop-color:#333333;stop-opacity:1;"
         offset="1"
         id="stop3296" />
    </linearGradient>
    <linearGradient
       inkscape:collect="always"
       id="linearGradient3239">
      <stop
         style="stop-color:#eeeeec;stop-opacity:1;"
         offset="0"
         id="stop3241" />
      <stop
         style="stop-color:#eeeeec;stop-opacity:0;"
         offset="1"
         id="stop3243" />
    </linearGradient>
    <linearGradient
       id="linearGradient3291">
      <stop
         id="stop3293"
         offset="0"
         style="stop-color:#000000;stop-opacity:1;" />
      <stop
         id="stop3295"
         offset="1"
         style="stop-color:#000000;stop-opacity:0;" />
    </linearGradient>
    <linearGradient
       id="linearGradient3195">
      <stop
         id="stop3197"
         offset="0"
         style="stop-color:#ff7003;stop-opacity:1;" />
      <stop
         id="stop3199"
         offset="1"
         style="stop-color:#ffb92e;stop-opacity:0;" />
    </linearGradient>
    <linearGradient
       id="linearGradient3224">
      <stop
         id="stop3226"
         offset="0"
         style="stop-color:#000000;stop-opacity:1;" />
      <stop
         id="stop3228"
         offset="1"
         style="stop-color:#ffffff;stop-opacity:1;" />
    </linearGradient>
    <linearGradient
       id="linearGradient3236">
      <stop
         id="stop3238"
         offset="0"
         style="stop-color:#000000;stop-opacity:1;" />
      <stop
         id="stop3240"
         offset="1"
         style="stop-color:#a2a2a2;stop-opacity:1;" />
    </linearGradient>
    <linearGradient
       id="linearGradient3351">
      <stop
         id="stop3353"
         offset="0"
         style="stop-color:#ffffff;stop-opacity:1;" />
      <stop
         id="stop3355"
         offset="1"
         style="stop-color:#cacac3;stop-opacity:1;" />
    </linearGradient>
    <radialGradient
       inkscape:collect="always"
       xlink:href="#linearGradient3224"
       id="radialGradient2534"
       gradientUnits="userSpaceOnUse"
       gradientTransform="matrix(2.1129943,2.6398036e-2,-1.221105e-2,0.9774163,-19.335144,6.7518638)"
       cx="17.787594"
       cy="9.7594652"
       fx="17.787594"
       fy="9.7594652"
       r="6.7547455" />
    <linearGradient
       inkscape:collect="always"
       xlink:href="#linearGradient3351"
       id="linearGradient2542"
       gradientUnits="userSpaceOnUse"
       gradientTransform="matrix(1.1328079,0,0,0.8085902,-3.2606996,11.01823)"
       x1="23.504011"
       y1="10.047544"
       x2="25.125"
       y2="10.421875" />
    <linearGradient
       inkscape:collect="always"
       xlink:href="#linearGradient2400"
       id="linearGradient2560"
       gradientUnits="userSpaceOnUse"
       gradientTransform="matrix(1.1328079,0,0,0.8085902,-3.2968638,11.027974)"
       x1="10.973033"
       y1="-1.4466014"
       x2="20.453123"
       y2="19.167799" />
    <radialGradient
       inkscape:collect="always"
       xlink:href="#linearGradient3236"
       id="radialGradient2563"
       gradientUnits="userSpaceOnUse"
       gradientTransform="matrix(2.1418847,2.97273e-8,0,0.4655902,-23.899474,17.237432)"
       cx="20.453125"
       cy="6.5601015"
       fx="20.453125"
       fy="6.5601015"
       r="9.7253513" />
    <linearGradient
       inkscape:collect="always"
       xlink:href="#linearGradient2400"
       id="linearGradient3436"
       gradientUnits="userSpaceOnUse"
       gradientTransform="matrix(1.1328079,0,0,-1.1328079,-3.2607,40.118596)"
       x1="32.441921"
       y1="8.901804"
       x2="8.5702467"
       y2="8.901804" />
    <linearGradient
       inkscape:collect="always"
       xlink:href="#linearGradient2400"
       id="linearGradient3446"
       gradientUnits="userSpaceOnUse"
       x1="35.258274"
       y1="28.746511"
       x2="1.192795"
       y2="29.5"
       gradientTransform="matrix(0.9205176,0,0,0.9205176,1.587168,3.670374)" />
    <linearGradient
       inkscape:collect="always"
       xlink:href="#linearGradient3292"
       id="linearGradient3450"
       gradientUnits="userSpaceOnUse"
       gradientTransform="matrix(1.1328079,0,0,0.8085902,-3.2606996,11.01823)"
       x1="15.75"
       y1="10.421873"
       x2="25.125"
       y2="10.421875" />
    <radialGradient
       inkscape:collect="always"
       xlink:href="#linearGradient3239"
       id="radialGradient3507"
       gradientUnits="userSpaceOnUse"
       gradientTransform="matrix(1.0511209,2.5298255e-7,-9.4609698e-8,0.393095,-1.0098031,11.981586)"
       cx="19.88435"
       cy="12.853904"
       fx="19.88435"
       fy="12.853904"
       r="5.7685347" />
    <linearGradient
       inkscape:collect="always"
       xlink:href="#linearGradient3224"
       id="linearGradient3509"
       gradientUnits="userSpaceOnUse"
       gradientTransform="matrix(1.1328079,0,0,1.1328079,-3.2606996,6.063569)"
       x1="22.727272"
       y1="8.930481"
       x2="18.609625"
       y2="9.015625" />
    <radialGradient
       inkscape:collect="always"
       xlink:href="#linearGradient3511"
       id="radialGradient3527"
       gradientUnits="userSpaceOnUse"
       gradientTransform="matrix(1,0,0,0.8921533,0,1.0447751)"
       cx="62.266605"
       cy="6.3850236"
       fx="62.266605"
       fy="6.3850236"
       r="10.647583" />
    <radialGradient
       inkscape:collect="always"
       xlink:href="#linearGradient3195"
       id="radialGradient3529"
       gradientUnits="userSpaceOnUse"
       gradientTransform="matrix(2.0009015,3.2629602e-2,-2.2302921e-2,1.367652,23.509453,-4.3871528)"
       cx="17.744373"
       cy="10.617377"
       fx="17.744373"
       fy="10.617377"
       r="6.5521412" />
    <linearGradient
       inkscape:collect="always"
       xlink:href="#linearGradient3291"
       id="linearGradient3552"
       gradientUnits="userSpaceOnUse"
       gradientTransform="matrix(0.9205176,0,0,0.9205176,1.587168,3.6703736)"
       x1="36.857769"
       y1="30.384319"
       x2="3.7532206"
       y2="30.152828" />
    <linearGradient
       inkscape:collect="always"
       xlink:href="#linearGradient3236"
       id="linearGradient3563"
       x1="22.568459"
       y1="24.40122"
       x2="21.913704"
       y2="9.5873823"
       gradientUnits="userSpaceOnUse" />
  </defs>
  <sodipodi:namedview
     id="base"
     pagecolor="#ffffff"
     bordercolor="#666666"
     borderopacity="1.0"
     inkscape:pageopacity="0.0"
     inkscape:pageshadow="2"
     inkscape:zoom="20.930831"
     inkscape:cx="19.968324"
     inkscape:cy="16.468138"
     inkscape:current-layer="layer1"
     showgrid="false"
     inkscape:grid-bbox="true"
     inkscape:document-units="px"
     width="40px"
     height="40px"
     gridempspacing="2"
     inkscape:window-width="1167"
     inkscape:window-height="914"
     inkscape:window-x="56"
     inkscape:window-y="53" />
  <metadata
     id="metadata2198">
    <rdf:RDF>
      <cc:Work
         rdf:about="">
        <dc:format>image/svg+xml</dc:format>
        <dc:type
           rdf:resource="http://purl.org/dc/dcmitype/StillImage" />
        <dc:creator>
          <cc:Agent>
            <dc:title>Jarle Akselsen</dc:title>
          </cc:Agent>
        </dc:creator>
        <cc:license
           rdf:resource="http://creativecommons.org/licenses/GPL/2.0/" />
      </cc:Work>
      <cc:License
         rdf:about="http://creativecommons.org/licenses/GPL/2.0/">
        <cc:permits
           rdf:resource="http://web.resource.org/cc/Reproduction" />
        <cc:permits
           rdf:resource="http://web.resource.org/cc/Distribution" />
        <cc:requires
           rdf:resource="http://web.resource.org/cc/Notice" />
        <cc:permits
           rdf:resource="http://web.resource.org/cc/DerivativeWorks" />
        <cc:requires
           rdf:resource="http://web.resource.org/cc/ShareAlike" />
        <cc:requires
           rdf:resource="http://web.resource.org/cc/SourceCode" />
      </cc:License>
    </rdf:RDF>
  </metadata>
  <g
     id="layer1"
     inkscape:label="Layer 1"
     inkscape:groupmode="layer">
    <path
       style="fill:#000000;fill-opacity:1;fill-rule:nonzero;stroke:none;stroke-width:0.2;stroke-linecap:round;stroke-linejoin:round;stroke-miterlimit:4;stroke-dasharray:none;stroke-opacity:1"
       d="M 22.1875 10.15625 L 12.625 10.1875 C 9.5199469 10.392615 7.065833 13.260769 6.9375 16.875 L 6.9375 21.6875 C 6.617134 22.088891 6.42198 22.478713 6.4375 22.90625 C 6.4510921 23.280722 6.635753 23.628404 6.90625 23.96875 C 6.8927162 23.986327 6.888026 24.013599 6.875 24.03125 C 6.7511468 23.935926 6.649892 24.046891 6.75 24.1875 C 6.5411499 24.512621 6.42519 24.848391 6.4375 25.1875 C 6.4511881 25.564626 6.632124 25.907524 6.90625 26.25 C 6.8928822 26.267467 6.887889 26.29504 6.875 26.3125 C 6.7511468 26.217176 6.649892 26.328142 6.75 26.46875 C 6.5423429 26.786802 6.425269 27.100575 6.4375 27.4375 C 6.4511881 27.814619 6.632124 28.188769 6.90625 28.53125 C 6.8978332 28.542245 6.883228 28.551507 6.875 28.5625 C 6.7511468 28.466999 6.64433 28.573132 6.75 28.71875 C 6.5423429 29.036802 6.425269 29.381825 6.4375 29.71875 C 6.4510921 30.093224 6.635753 30.440904 6.90625 30.78125 C 6.8924552 30.798992 6.888242 30.794724 6.875 30.8125 C 6.7511468 30.717175 6.649892 30.828134 6.75 30.96875 C 6.5392729 31.294165 6.425066 31.626221 6.4375 31.96875 C 6.4510921 32.343224 6.635753 32.690904 6.90625 33.03125 C 6.8927162 33.048825 6.888026 33.076099 6.875 33.09375 C 6.7511468 32.998427 6.649892 33.109392 6.75 33.25 C 6.5411499 33.575119 6.42519 33.910892 6.4375 34.25 C 6.4510921 34.624472 6.635753 34.972154 6.90625 35.3125 C 6.8928822 35.329967 6.887889 35.357539 6.875 35.375 C 6.7511468 35.279674 6.649892 35.359392 6.75 35.5 C 6.5423429 35.818049 6.425269 36.163074 6.4375 36.5 C 6.4511881 36.877119 6.632124 37.251267 6.90625 37.59375 C 6.8977672 37.604823 6.883287 37.613936 6.875 37.625 C 6.7511468 37.529675 6.678817 37.584594 6.78125 37.71875 C 6.5510898 38.055352 6.424599 38.394547 6.4375 38.75 C 6.4513871 39.132579 6.643806 39.305388 6.9375 39.46875 L 6.9375 39.8125 C 6.8490483 39.792802 6.9638451 39.889655 7.15625 40.0625 L 8.59375 40.0625 L 9.4375 40.0625 L 10.4375 40.0625 L 14.3125 40.0625 L 24.125 40.0625 L 28.78125 40.0625 L 31.6875 40.0625 L 32.53125 40.0625 L 32.53125 39.96875 L 33 39.96875 L 33 39.125 C 33.328054 38.799988 33.515215 38.460071 33.5 38.03125 C 33.487033 37.666106 33.299564 37.304144 33.03125 36.96875 C 33.339257 36.575207 33.514828 36.199098 33.5 35.78125 C 33.487033 35.416099 33.299564 35.054147 33.03125 34.71875 C 33.333177 34.325658 33.483505 33.915651 33.46875 33.5 C 33.455711 33.132566 33.295935 32.769693 33.03125 32.4375 C 33.329832 32.046451 33.483423 31.632068 33.46875 31.21875 C 33.455539 30.846456 33.302415 30.492417 33.03125 30.15625 C 33.329832 29.765201 33.483423 29.38207 33.46875 28.96875 C 33.455539 28.596458 33.302415 28.242417 33.03125 27.90625 C 33.323756 27.51893 33.483267 27.096552 33.46875 26.6875 C 33.455539 26.315201 33.302415 25.961167 33.03125 25.625 C 33.323756 25.237674 33.483267 24.815302 33.46875 24.40625 C 33.455711 24.038822 33.295935 23.707192 33.03125 23.375 C 33.329832 22.983952 33.483423 22.56957 33.46875 22.15625 C 33.455134 21.772622 33.283297 21.408867 33 21.0625 L 33 20.71875 L 32.59375 19.9375 C 32.575828 19.898088 32.444914 19.697249 32.4375 19.6875 C 32.430086 19.677744 32.414013 19.66597 32.40625 19.65625 C 31.552142 18.586984 28.581985 17.74049 24.65625 17.34375 C 24.596505 17.255214 24.5625 17.145305 24.5625 17.0625 C 24.562496 16.762392 23.757611 16.503554 22.5625 16.34375 L 22.5625 14.78125 C 22.566035 14.772536 22.560661 14.758789 22.5625 14.75 C 22.482401 14.449463 21.366932 14.1875 20.03125 14.1875 C 18.69557 14.187501 17.611338 14.449463 17.53125 14.75 L 17.4375 14.75 L 17.4375 16.34375 C 16.164868 16.501249 15.281251 16.750981 15.28125 17.0625 L 15.09375 17.34375 C 13.989227 17.457959 12.955534 17.597858 12.03125 17.78125 C 12.148806 15.292164 13.765069 13.324338 15.875 13.0625 L 22.25 13.0625 L 23.6875 12.46875 L 23.71875 10.65625 L 22.25 10.28125 L 22.1875 10.28125 L 22.1875 10.15625 z "
       id="path4226" />
    <path
       sodipodi:nodetypes="csssc"
       id="path2217"
       d="M 19.926455,17.88395 C 25.976959,17.88395 30.925709,18.936101 30.925709,20.29175 C 30.925709,21.647392 25.976958,22.699549 19.926455,22.699549 C 13.875962,22.699549 8.891805,21.647392 8.891805,20.29175 C 8.891805,18.936101 13.875961,17.88395 19.926455,17.88395 z "
       style="fill:url(#radialGradient2563);fill-opacity:1;fill-rule:nonzero;stroke:none;stroke-width:1;stroke-linecap:round;stroke-linejoin:round;stroke-miterlimit:4;stroke-dasharray:none;stroke-opacity:1;opacity:0.5" />
    <path
       style="fill:url(#linearGradient2560);fill-opacity:1;fill-rule:nonzero;stroke:none;stroke-width:1;stroke-linecap:round;stroke-linejoin:round;stroke-miterlimit:4;stroke-dasharray:none;stroke-opacity:1"
       d="M 19.890301,17.092403 C 12.851381,17.092403 7.1108057,18.523283 7.1108057,20.301489 C 7.1108057,22.079696 12.851381,23.802212 19.890301,23.802212 C 26.929212,23.802212 32.634382,22.079696 32.634384,20.301489 C 32.634384,18.523283 26.929212,17.092403 19.890301,17.092403 z M 19.890301,17.893688 C 25.940797,17.893688 30.889547,18.945844 30.889547,20.301489 C 30.889547,21.657136 25.940795,22.709292 19.890301,22.709292 C 13.839799,22.709292 8.8556444,21.657136 8.8556444,20.301489 C 8.8556444,18.945844 13.839798,17.893688 19.890301,17.893688 z "
       id="path2186"
       sodipodi:nodetypes="csssccsssc" />
    <path
       id="path3448"
       d="M 19.926455,16.19826 C 17.368369,16.19826 15.289027,16.593351 15.289026,17.082658 L 14.581024,17.840707 L 14.581024,22.389026 C 16.174343,22.579763 17.985956,22.692251 19.926455,22.692251 C 21.839218,22.692251 23.628692,22.57468 25.201093,22.389026 L 25.201093,17.840707 C 25.201092,17.840707 24.563889,17.413856 24.563889,17.082658 C 24.563889,16.593351 22.484541,16.19826 19.926455,16.19826 z "
       style="fill:url(#linearGradient3450);fill-opacity:1;fill-rule:nonzero;stroke:none;stroke-width:1;stroke-linecap:round;stroke-linejoin:round;stroke-miterlimit:4;stroke-dasharray:none;stroke-opacity:1" />
    <path
       style="opacity:0.75;fill:url(#linearGradient2542);fill-opacity:1;fill-rule:nonzero;stroke:none;stroke-width:1;stroke-linecap:round;stroke-linejoin:round;stroke-miterlimit:4;stroke-dasharray:none;stroke-opacity:1"
       d="M 19.926455,16.19826 C 17.368369,16.19826 15.289027,16.593351 15.289026,17.082658 L 14.581024,17.840707 L 14.581024,22.389026 C 16.174343,22.579763 17.985956,22.692251 19.926455,22.692251 C 21.839218,22.692251 23.628692,22.57468 25.201093,22.389026 L 25.201093,17.840707 C 25.201092,17.840707 24.563889,17.413856 24.563889,17.082658 C 24.563889,16.593351 22.484541,16.19826 19.926455,16.19826 z "
       id="path3330" />
    <path
       style="fill:url(#linearGradient3509);fill-opacity:1;fill-rule:nonzero;stroke:none;stroke-width:1;stroke-linecap:round;stroke-linejoin:round;stroke-miterlimit:4;stroke-dasharray:none;stroke-opacity:1"
       d="M 17.448441,14.736629 L 17.448441,17.179247 L 17.519242,17.179247 C 17.516123,17.190982 17.519242,17.202734 17.519242,17.214643 C 17.519242,17.532319 18.644939,17.816448 20.032658,17.816448 C 21.420378,17.816448 22.546074,17.532319 22.546074,17.214643 C 22.546074,17.202734 22.549196,17.190982 22.546074,17.179247 L 22.546074,14.736629 C 22.482496,15.041375 21.379566,15.303035 20.032658,15.303035 C 18.68575,15.303035 17.582821,15.041374 17.519242,14.736629 L 17.448441,14.736629 z "
       id="path3196" />
    <path
       transform="matrix(1.1328079,0,0,0.8968062,-3.2606996,10.272727)"
       d="M 22.780748 5.0267382 A 2.2192514 0.64171124 0 1 1  18.342245,5.0267382 A 2.2192514 0.64171124 0 1 1  22.780748 5.0267382 z"
       sodipodi:ry="0.64171124"
       sodipodi:rx="2.2192514"
       sodipodi:cy="5.0267382"
       sodipodi:cx="20.561497"
       id="path3198"
       style="fill:#555753;fill-opacity:1;fill-rule:nonzero;stroke:none;stroke-width:1;stroke-linecap:round;stroke-linejoin:round;stroke-miterlimit:4;stroke-dasharray:none;stroke-opacity:1"
       sodipodi:type="arc" />
    <path
       style="opacity:0.76000001;fill:url(#linearGradient3436);fill-opacity:1;fill-rule:nonzero;stroke:none;stroke-width:1;stroke-linecap:round;stroke-linejoin:round;stroke-miterlimit:4;stroke-dasharray:none;stroke-opacity:1"
       d="M 7.25 19.5625 L 7.25 19.90625 C 7.2799838 19.845437 7.331689 19.778445 7.375 19.71875 C 7.3537582 19.673212 7.298606 19.608465 7.28125 19.5625 L 7.25 19.5625 z M 32.53125 19.5625 C 32.5139 19.608466 32.48996 19.673214 32.46875 19.71875 C 32.4953 19.755561 32.50971 19.806504 32.53125 19.84375 L 32.53125 19.5625 z M 7.125 20.3125 L 6.9375 20.71875 L 6.9375 21.6875 C 6.617134 22.088891 6.42198 22.478713 6.4375 22.90625 C 6.4510921 23.280722 6.635753 23.628404 6.90625 23.96875 C 6.8927162 23.986327 6.888026 24.013599 6.875 24.03125 C 6.7511468 23.935926 6.649892 24.046891 6.75 24.1875 C 6.5411499 24.512621 6.42519 24.848391 6.4375 25.1875 C 6.4511881 25.564626 6.632124 25.907524 6.90625 26.25 C 6.8928822 26.267467 6.887889 26.29504 6.875 26.3125 C 6.7511468 26.217176 6.649892 26.328142 6.75 26.46875 C 6.5423429 26.786802 6.425269 27.100575 6.4375 27.4375 C 6.4511881 27.814619 6.632124 28.188769 6.90625 28.53125 C 6.8978332 28.542245 6.883228 28.551507 6.875 28.5625 C 6.7511468 28.466999 6.64433 28.573132 6.75 28.71875 C 6.5423429 29.036802 6.425269 29.381825 6.4375 29.71875 C 6.4510921 30.093224 6.635753 30.440904 6.90625 30.78125 C 6.8924552 30.798992 6.888242 30.794724 6.875 30.8125 C 6.7511468 30.717175 6.649892 30.828134 6.75 30.96875 C 6.5392729 31.294165 6.425066 31.626221 6.4375 31.96875 C 6.4510921 32.343224 6.635753 32.690904 6.90625 33.03125 C 6.8927162 33.048825 6.649892 33.109392 6.75 33.25 C 6.5411499 33.575119 6.42519 33.910892 6.4375 34.25 C 6.4510921 34.624472 6.635753 34.972154 6.90625 35.3125 C 6.8928822 35.329967 6.887889 35.357539 6.875 35.375 C 6.7511468 35.279674 6.649892 35.359392 6.75 35.5 C 6.5423429 35.818049 6.425269 36.163074 6.4375 36.5 C 6.4511881 36.877119 6.632124 37.251267 6.90625 37.59375 C 6.8977672 37.604823 6.883287 37.613936 6.875 37.625 C 6.7511468 37.529675 6.678817 37.584594 6.78125 37.71875 C 6.5510898 38.055352 6.424599 38.394547 6.4375 38.75 C 6.4513871 39.132579 6.643806 39.305388 6.9375 39.46875 L 6.9375 39.8125 C 6.8490483 39.792802 6.9638451 39.889655 7.15625 40.0625 L 8.59375 40.0625 L 9.4375 40.0625 L 10.4375 40.0625 L 14.3125 40.0625 L 24.125 40.0625 L 28.78125 40.0625 L 31.6875 40.0625 L 32.53125 40.0625 L 32.53125 39.96875 L 33 39.96875 L 33 39.125 C 33.328054 38.799988 33.515215 38.460071 33.5 38.03125 C 33.487033 37.666106 33.299564 37.304144 33.03125 36.96875 C 33.339257 36.575207 33.514828 36.199098 33.5 35.78125 C 33.487033 35.416099 33.299564 35.054147 33.03125 34.71875 C 33.333177 34.325658 33.483505 33.915651 33.46875 33.5 C 33.455711 33.132566 33.295935 32.769693 33.03125 32.4375 C 33.329832 32.046451 33.483423 31.632068 33.46875 31.21875 C 33.455539 30.846456 33.302415 30.492417 33.03125 30.15625 C 33.329832 29.765201 33.483423 29.38207 33.46875 28.96875 C 33.455539 28.596458 33.302415 28.242417 33.03125 27.90625 C 33.323756 27.51893 33.483267 27.096552 33.46875 26.6875 C 33.455539 26.315201 33.302415 25.961167 33.03125 25.625 C 33.323756 25.237674 33.483267 24.815302 33.46875 24.40625 C 33.455711 24.038822 33.295935 23.707192 33.03125 23.375 C 33.329832 22.983952 33.483423 22.56957 33.46875 22.15625 C 33.455134 21.772622 33.283297 21.408867 33 21.0625 L 33 20.71875 L 32.625 20.34375 C 32.479741 21.883326 28.123771 23.440855 22.3125 23.71875 C 21.546613 23.755369 20.745107 23.78125 19.9375 23.78125 C 19.129903 23.781249 18.329212 23.755369 17.5625 23.71875 C 11.690921 23.438274 7.191587 21.871129 7.125 20.3125 z "
       id="path3415" />
    <path
       style="opacity:0.73631843;fill:url(#linearGradient3552);fill-opacity:1;fill-rule:nonzero;stroke:none;stroke-width:1;stroke-linecap:round;stroke-linejoin:round;stroke-miterlimit:4;stroke-dasharray:none;stroke-opacity:1"
       d="M 32.8125 20.875 C 32.864048 21.025116 32.90073 21.188132 32.90625 21.34375 C 32.994628 23.833563 27.023756 25.827062 19.5625 26.0625 C 13.844961 26.24292 8.909751 25.600406 6.875 24.03125 L 6.875 24.3125 C 8.403156 26.17103 13.785853 27.106284 20.125 26.90625 C 26.187273 26.714958 31.261335 25.425439 32.90625 23.53125 C 32.909074 23.559206 32.905251 23.565562 32.90625 23.59375 C 32.994628 26.083563 27.023756 28.108313 19.5625 28.34375 C 13.846238 28.52413 8.910595 27.880899 6.875 26.3125 L 6.875 26.5625 C 8.403156 28.421033 13.785853 29.387534 20.125 29.1875 C 26.187273 28.996209 31.261335 27.67544 32.90625 25.78125 C 32.907737 25.799939 32.905581 25.82496 32.90625 25.84375 C 32.994628 28.333566 27.023756 30.389567 19.5625 30.625 C 13.844961 30.805416 8.909751 30.103321 6.875 28.53125 L 6.875 28.8125 C 8.403156 30.671032 13.785853 31.60628 20.125 31.40625 C 26.187273 31.214961 31.261335 29.956682 32.90625 28.0625 C 32.907737 28.081182 32.905581 28.106202 32.90625 28.125 C 32.994628 30.614813 27.023756 32.639562 19.5625 32.875 C 13.844961 33.055414 8.909751 32.381654 6.875 30.8125 L 6.875 31.09375 C 8.403156 32.952277 13.785853 33.887534 20.125 33.6875 C 26.187273 33.49621 31.261335 32.20669 32.90625 30.3125 C 32.909074 30.340453 32.905251 30.378062 32.90625 30.40625 C 32.994628 32.896066 27.023756 34.889562 19.5625 35.125 C 13.844961 35.305423 8.909751 34.66291 6.875 33.09375 L 6.875 33.375 C 8.403156 35.233532 13.785853 36.168784 20.125 35.96875 C 26.187273 35.777459 31.261335 34.48794 32.90625 32.59375 C 32.909074 32.621706 32.905251 32.628062 32.90625 32.65625 C 32.994628 35.146066 27.023756 37.170818 19.5625 37.40625 C 13.846238 37.586627 8.910595 36.943399 6.875 35.375 L 6.875 35.625 C 8.403156 37.483534 13.785853 38.45003 20.125 38.25 C 26.187273 38.058704 31.261335 36.737939 32.90625 34.84375 C 32.908043 34.862021 32.9056 34.887941 32.90625 34.90625 C 32.994625 37.39606 27.023756 39.420812 19.5625 39.65625 C 13.84496 39.836661 8.909751 39.162908 6.875 37.59375 L 6.875 37.84375 C 7.904362 39.004209 10.692785 39.515669 14.3125 40.0625 L 24.125 40.0625 C 28.321865 39.488446 31.617537 38.599431 32.90625 37.15625 C 32.90687 37.165392 32.905929 37.17834 32.90625 37.1875 C 32.94823 38.370158 31.609859 39.183065 29.40625 40.0625 L 31.6875 40.0625 C 32.84969 39.351292 33.529645 38.866458 33.5 38.03125 C 33.487033 37.666097 33.299564 37.335394 33.03125 37 C 33.339257 36.606464 33.514828 36.199098 33.5 35.78125 C 33.487033 35.416097 33.299564 35.054144 33.03125 34.71875 C 33.333177 34.325661 33.483505 33.915659 33.46875 33.5 C 33.455711 33.132573 33.295935 32.769685 33.03125 32.4375 C 33.329832 32.046443 33.483423 31.63207 33.46875 31.21875 C 33.455539 30.846451 33.302415 30.492409 33.03125 30.15625 C 33.329832 29.765194 33.483423 29.38207 33.46875 28.96875 C 33.455539 28.596451 33.302415 28.242417 33.03125 27.90625 C 33.323756 27.518933 33.483267 27.096552 33.46875 26.6875 C 33.455539 26.3152 33.302415 25.961167 33.03125 25.625 C 33.323756 25.237682 33.483267 24.815302 33.46875 24.40625 C 33.455711 24.038825 33.295935 23.707184 33.03125 23.375 C 33.329832 22.983945 33.483423 22.56957 33.46875 22.15625 C 33.452497 21.698389 33.207925 21.27948 32.8125 20.875 z M 6.875 39.78125 L 6.875 40 C 6.8995719 40.016764 6.942451 40.045922 6.96875 40.0625 L 8.59375 40.0625 C 7.904339 39.748699 7.324656 39.917572 6.875 39.78125 z "
       id="path2380" />
    <path
       style="fill:url(#linearGradient3446);fill-opacity:1;fill-rule:nonzero;stroke:none;stroke-width:1;stroke-linecap:round;stroke-linejoin:round;stroke-miterlimit:4;stroke-dasharray:none;stroke-opacity:1"
       d="M 6.995207,21.591697 C 6.629691,22.020453 6.432029,22.457093 6.44865,22.914941 C 6.462242,23.289414 6.638412,23.638941 6.908909,23.979287 C 6.895375,23.996863 6.893168,24.019168 6.880142,24.036819 C 6.907248,24.057682 6.938312,24.073817 6.966441,24.094351 C 6.993207,24.113892 7.025055,24.132638 7.05274,24.151883 C 9.181996,25.63224 13.999721,26.254862 19.566024,26.079217 C 25.698378,25.885717 30.841387,24.499273 32.424496,22.627281 C 30.196341,24.115383 25.773923,25.222862 20.630372,25.388833 C 13.169311,25.629578 7.028042,24.541707 6.937675,22.051953 C 6.932027,21.896348 6.954537,21.744754 6.995207,21.591697 z M 6.765078,24.180653 C 6.556228,24.505774 6.43634,24.848358 6.44865,25.187467 C 6.462338,25.564594 6.634783,25.909337 6.908909,26.251813 C 6.895541,26.269281 6.893031,26.291885 6.880142,26.309345 C 6.907248,26.330208 6.938312,26.346343 6.966441,26.366877 C 6.969573,26.347999 6.963578,26.328316 6.966441,26.309345 C 7.016545,26.368189 7.08183,26.425711 7.139038,26.481949 C 9.309652,27.920748 14.072095,28.525102 19.566024,28.351743 C 25.698378,28.158243 30.841387,26.771799 32.424496,24.899807 C 30.196341,26.387909 25.773923,27.495388 20.630372,27.661359 C 13.259052,27.899214 7.198858,26.809235 6.966441,24.382018 C 6.903276,24.311896 6.816908,24.253453 6.765078,24.180653 z M 6.765078,26.453179 C 6.557421,26.77123 6.436419,27.094306 6.44865,27.431231 C 6.462338,27.80835 6.634783,28.181864 6.908909,28.524345 C 6.900492,28.53534 6.88837,28.542116 6.880142,28.553109 C 6.907248,28.574006 6.938312,28.590056 6.966441,28.610641 C 6.993207,28.63023 7.025055,28.648872 7.05274,28.668173 C 9.181996,30.152496 13.999721,30.799916 19.566024,30.624277 C 25.698378,30.430769 30.841387,29.022483 32.424496,27.14357 C 30.196341,28.631673 25.773923,29.739152 20.630372,29.905121 C 13.259052,30.14297 7.198858,29.081084 6.966441,26.654545 C 6.903276,26.584422 6.816908,26.525979 6.765078,26.453179 z M 6.765078,28.725705 C 6.557421,29.043756 6.436419,29.366832 6.44865,29.703757 C 6.462242,30.07823 6.638412,30.427757 6.908909,30.768103 C 6.895114,30.785845 6.893384,30.807859 6.880142,30.825635 C 6.907248,30.846498 6.938312,30.862633 6.966441,30.883167 C 6.993207,30.902708 7.025055,30.921454 7.05274,30.940699 C 9.181996,32.421055 13.999721,33.043673 19.566024,32.868033 C 25.698378,32.674533 30.841387,31.28809 32.424496,29.416097 C 30.196341,30.904199 25.773923,32.011678 20.630372,32.177649 C 13.225619,32.41658 7.117737,31.348297 6.937675,28.898301 C 6.88419,28.838047 6.810236,28.787937 6.765078,28.725705 z M 6.765078,30.969469 C 6.554351,31.294884 6.436216,31.633754 6.44865,31.976283 C 6.462242,32.350756 6.638412,32.700283 6.908909,33.040629 C 6.895375,33.058205 6.893168,33.08051 6.880142,33.098161 C 6.907248,33.119024 6.938312,33.135159 6.966441,33.155693 C 6.993207,33.175234 7.025055,33.19398 7.05274,33.213225 C 9.181996,34.693582 13.999721,35.316208 19.566024,35.140559 C 25.698378,34.947059 30.841387,33.560615 32.424496,31.688623 C 30.196341,33.176725 25.773923,34.284205 20.630372,34.450175 C 13.225619,34.689106 7.117737,33.620825 6.937675,31.170827 C 6.879555,31.105348 6.813355,31.037277 6.765078,30.969469 z M 6.765078,33.241995 C 6.556228,33.567116 6.43634,33.909701 6.44865,34.248809 C 6.462242,34.623282 6.638412,34.972809 6.908909,35.313155 C 6.895541,35.330623 6.893031,35.353227 6.880142,35.370688 C 6.907248,35.39155 6.938312,35.407685 6.966441,35.428224 C 6.993207,35.447768 7.025055,35.466506 7.05274,35.485759 C 9.181996,36.966108 13.999721,37.588732 19.566024,37.413085 C 25.698378,37.219585 30.841387,35.833141 32.424496,33.961149 C 30.196341,35.449256 25.773923,36.55673 20.630372,36.722701 C 13.259052,36.960556 7.198858,35.870578 6.966441,33.443361 C 6.903276,33.373238 6.816908,33.314794 6.765078,33.241995 z M 6.765078,35.514521 C 6.557421,35.832572 6.436419,36.155647 6.44865,36.492573 C 6.462338,36.869692 6.634783,37.243206 6.908909,37.585689 C 6.900426,37.596763 6.888429,37.603387 6.880142,37.614451 C 6.907248,37.635314 6.938312,37.651449 6.966441,37.671983 C 6.993207,37.691524 7.025055,37.71027 7.05274,37.729515 C 9.181995,39.209864 13.999721,39.832488 19.566024,39.656849 C 25.698378,39.463349 30.841386,38.076906 32.424496,36.204913 C 30.196341,37.693014 25.773923,38.800493 20.630372,38.966465 C 13.259052,39.204312 7.198858,38.142431 6.966441,35.715887 C 6.903276,35.645769 6.816908,35.587321 6.765078,35.514521 z M 6.793844,37.729515 C 6.563684,38.066117 6.435749,38.409646 6.44865,38.765099 C 6.472365,39.418439 6.942019,39.493466 7.714361,39.886977 C 7.991754,39.901784 8.283515,39.912735 8.606113,40.059573 L 10.447146,40.059573 C 8.309188,39.327674 6.979252,39.047618 6.937675,37.902111 C 6.885378,37.847394 6.837987,37.78733 6.793844,37.729515 z M 31.993006,38.736329 C 31.139311,39.236916 30.064192,39.682303 28.771194,40.059573 L 29.404054,40.059573 C 30.505859,39.619856 31.385844,39.196921 31.993006,38.736329 z "
       id="path3401" />
    <path
       style="opacity:1;fill:url(#radialGradient3507);fill-opacity:1;fill-rule:nonzero;stroke:none;stroke-width:1;stroke-linecap:round;stroke-linejoin:round;stroke-miterlimit:4;stroke-dasharray:none;stroke-opacity:1"
       d="M 17.437326,16.356253 C 16.178467,16.514218 15.279865,16.765901 15.279864,17.075407 L 14.589472,17.852093 L 14.589472,22.397153 C 16.182791,22.587882 17.999482,22.684813 19.93998,22.684813 C 21.852742,22.684813 23.631793,22.582807 25.204194,22.397153 L 25.204194,17.852093 C 25.204193,17.852093 24.571333,17.406612 24.571334,17.075407 C 24.571333,16.777992 23.73472,16.545249 22.557706,16.385023 L 22.557706,17.190471 C 22.560825,17.20221 22.557706,17.207324 22.557706,17.219241 C 22.557706,17.536909 21.414003,17.823331 20.026282,17.823331 C 18.638563,17.823331 17.523628,17.536909 17.523628,17.219241 C 17.523628,17.207324 17.520502,17.20221 17.523628,17.190471 L 17.437326,17.190471 L 17.437326,16.356253 z "
       id="path3452" />
    <g
       id="g3523"
       transform="matrix(1.7639667,0.1674412,-0.4172139,0.7079353,-80.86411,-3.0651873)"
       style="opacity:0.75">
      <path
         style="fill:url(#radialGradient3527);fill-opacity:1;fill-rule:nonzero;stroke:none;stroke-width:0.64224052;stroke-linecap:round;stroke-linejoin:miter;stroke-miterlimit:4;stroke-opacity:1"
         d="M 70.295166,10.957985 L 62.270109,11.974425 L 59.891183,19.18687 L 57.110473,12.643262 L 49,13.502933 L 55.306484,8.4423211 L 52.672861,1.7611826 L 59.351191,5.1771592 L 65.833998,0.18831751 L 63.654947,7.3601194 L 70.295166,10.957985 z "
         id="path3519" />
      <path
         id="path3521"
         d="M 66.232162,10.349621 L 61.287685,10.97588 L 59.821959,15.419682 L 58.108682,11.387971 L 53.111578,11.917639 L 56.99719,8.7996461 L 55.374537,4.6831979 L 59.489255,6.7878824 L 63.483504,3.714109 L 62.140926,8.1328691 L 66.232162,10.349621 z "
         style="fill:url(#radialGradient3529);fill-opacity:1;fill-rule:nonzero;stroke:none;stroke-width:0.64224052;stroke-linecap:round;stroke-linejoin:miter;stroke-miterlimit:4;stroke-opacity:1" />
    </g>
    <rect
       style="opacity:1;fill:#eeeeec;fill-opacity:1;fill-rule:nonzero;stroke:#59a6ff;stroke-width:0.18410344;stroke-linecap:round;stroke-linejoin:round;stroke-miterlimit:4;stroke-dasharray:none;stroke-opacity:0.79187814"
       id="rect3303"
       width="0.32009143"
       height="2.3826692"
       x="19.904846"
       y="12.416504"
       ry="0.18410344" />
    <path
       style="fill:url(#linearGradient3563);fill-opacity:1.0;fill-rule:nonzero;stroke:none;stroke-width:1;stroke-linecap:round;stroke-linejoin:round;stroke-miterlimit:4;stroke-dasharray:none;stroke-opacity:1"
       d="M 14.768029,10.42512 C 11.66298,10.630237 9.080715,13.211011 8.952383,16.825242 L 8.952383,20.471467 C 8.998005,20.609183 9.091037,20.731194 9.235586,20.860869 L 9.270985,20.896269 L 10.297594,21.462676 C 10.799267,21.662202 11.410227,21.834716 12.138402,21.993673 C 12.118323,20.440545 12.031224,17.879446 12.032207,17.851849 C 12.124584,15.244489 13.868127,13.149993 16.103231,13.002017 L 22.227474,13.037418 L 23.678887,12.471013 L 23.714281,10.665601 L 22.227474,10.276198 L 14.768029,10.42512 z "
       id="path3231"
       sodipodi:nodetypes="cccccccscccccc" />
    <path
       style="fill:url(#radialGradient2534);fill-opacity:1;fill-rule:nonzero;stroke:none;stroke-width:1;stroke-linecap:round;stroke-linejoin:round;stroke-miterlimit:4;stroke-dasharray:none;stroke-opacity:1"
       d="M 22.204365,10.159245 L 12.622656,10.192467 C 9.5176006,10.397585 7.0629024,13.255726 6.9345692,16.869957 L 6.9345692,20.790067 C 6.9345692,20.790067 7.8125752,21.283958 8.5743726,21.371114 C 9.3361692,21.458268 9.981758,21.138692 9.981758,21.138692 C 9.981572,19.721305 9.9806624,17.930714 9.981758,17.899812 C 10.074134,15.292452 11.843428,13.197481 14.078532,13.049505 L 22.238226,13.049505 L 22.204365,10.159245 z "
       id="rect3214"
       sodipodi:nodetypes="ccccscsccc" />
    <rect
       style="opacity:0.61162792;fill:#555753;fill-opacity:1;fill-rule:nonzero;stroke:none;stroke-width:0.69999999;stroke-linecap:round;stroke-linejoin:miter;stroke-miterlimit:4;stroke-dasharray:none;stroke-opacity:1"
       id="rect1951"
       width="40.001965"
       height="10.004759"
       x="-0.0019644466"
       y="30" />
    <text
       xml:space="preserve"
       style="font-size:12px;font-style:normal;font-weight:normal;fill:#eeeeec;fill-opacity:1;stroke:none;stroke-width:1px;stroke-linecap:butt;stroke-linejoin:miter;stroke-opacity:1;font-family:Bitstream Vera Sans"
       x="12.231838"
       y="39.168156"
       id="text2840"><tspan
         sodipodi:role="line"
         id="tspan2842"
         x="12.231838"
         y="39.168156">Ba</tspan></text>
  </g>
</svg>
