<?xml version="1.0" encoding="UTF-8" standalone="no"?>
<!-- Created with Inkscape (http://www.inkscape.org/) -->
<svg
   xmlns:dc="http://purl.org/dc/elements/1.1/"
   xmlns:cc="http://creativecommons.org/ns#"
   xmlns:rdf="http://www.w3.org/1999/02/22-rdf-syntax-ns#"
   xmlns:svg="http://www.w3.org/2000/svg"
   xmlns="http://www.w3.org/2000/svg"
   xmlns:xlink="http://www.w3.org/1999/xlink"
   xmlns:sodipodi="http://sodipodi.sourceforge.net/DTD/sodipodi-0.dtd"
   xmlns:inkscape="http://www.inkscape.org/namespaces/inkscape"
   width="40"
   height="40"
   id="svg2193"
   sodipodi:version="0.32"
   inkscape:version="0.46"
   version="1.0"
   sodipodi:docbase="/home/jra/Desktop"
   sodipodi:docname="57new2.svg"
   inkscape:output_extension="org.inkscape.output.svg.inkscape">
  <defs
     id="defs2195">
    <linearGradient
       id="linearGradient3313">
      <stop
         id="stop3315"
         offset="0"
         style="stop-color:#ffc516;stop-opacity:0.55624998;" />
      <stop
         style="stop-color:#000000;stop-opacity:0;"
         offset="0.5"
         id="stop3317" />
      <stop
         id="stop3319"
         offset="1"
         style="stop-color:#000000;stop-opacity:1;" />
    </linearGradient>
    <linearGradient
       id="linearGradient3529">
      <stop
         id="stop3531"
         offset="0"
         style="stop-color:#ce8900;stop-opacity:1;" />
      <stop
         style="stop-color:#c7c7c7;stop-opacity:1;"
         offset="0.16666667"
         id="stop3533" />
      <stop
         id="stop3535"
         offset="1"
         style="stop-color:#505050;stop-opacity:1;" />
    </linearGradient>
    <linearGradient
       id="linearGradient3503">
      <stop
         style="stop-color:#000000;stop-opacity:1;"
         offset="0"
         id="stop3505" />
      <stop
         id="stop3511"
         offset="0.5"
         style="stop-color:#a55a00;stop-opacity:0.49803922;" />
      <stop
         style="stop-color:#000000;stop-opacity:1;"
         offset="1"
         id="stop3507" />
    </linearGradient>
    <linearGradient
       id="linearGradient3493">
      <stop
         style="stop-color:#d9d9d9;stop-opacity:1;"
         offset="0"
         id="stop3495" />
      <stop
         id="stop3501"
         offset="0.5"
         style="stop-color:#ffae5f;stop-opacity:1;" />
      <stop
         style="stop-color:#b5b5b5;stop-opacity:1;"
         offset="1"
         id="stop3497" />
    </linearGradient>
    <linearGradient
       id="linearGradient3429">
      <stop
         id="stop3431"
         offset="0"
         style="stop-color:#000000;stop-opacity:1" />
      <stop
         style="stop-color:#b2b2b2;stop-opacity:1;"
         offset="0.5"
         id="stop3433" />
      <stop
         id="stop3435"
         offset="0.75"
         style="stop-color:#aaaaaa;stop-opacity:1;" />
      <stop
         id="stop3437"
         offset="1"
         style="stop-color:#000000;stop-opacity:1;" />
    </linearGradient>
    <linearGradient
       id="linearGradient3417">
      <stop
         style="stop-color:#000000;stop-opacity:0;"
         offset="0"
         id="stop3419" />
      <stop
         id="stop3425"
         offset="0.63802087"
         style="stop-color:#ffffff;stop-opacity:0.49803922;" />
      <stop
         style="stop-color:#000000;stop-opacity:0.74901962;"
         offset="0.72916669"
         id="stop3427" />
      <stop
         style="stop-color:#000000;stop-opacity:0.47474748;"
         offset="1"
         id="stop3421" />
    </linearGradient>
    <linearGradient
       id="linearGradient3358">
      <stop
         style="stop-color:#000000;stop-opacity:1"
         offset="0"
         id="stop3358" />
      <stop
         id="stop3362"
         offset="0.5"
         style="stop-color:#ffffff;stop-opacity:1;" />
      <stop
         style="stop-color:#ffffff;stop-opacity:1;"
         offset="0.75"
         id="stop3364" />
      <stop
         style="stop-color:#000000;stop-opacity:1;"
         offset="1"
         id="stop3360" />
    </linearGradient>
    <linearGradient
       id="linearGradient3326">
      <stop
         style="stop-color:#000000;stop-opacity:1;"
         offset="0"
         id="stop3328" />
      <stop
         id="stop3334"
         offset="0.5"
         style="stop-color:#ffffff;stop-opacity:0.49803922;" />
      <stop
         style="stop-color:#ffffff;stop-opacity:0.24705882;"
         offset="0.75"
         id="stop3336" />
      <stop
         style="stop-color:#000000;stop-opacity:1;"
         offset="1"
         id="stop3330" />
    </linearGradient>
    <linearGradient
       inkscape:collect="always"
       id="linearGradient3239">
      <stop
         style="stop-color:#eeeeec;stop-opacity:1;"
         offset="0"
         id="stop3241" />
      <stop
         style="stop-color:#eeeeec;stop-opacity:0;"
         offset="1"
         id="stop3243" />
    </linearGradient>
    <linearGradient
       id="linearGradient3220">
      <stop
         id="stop3222"
         offset="0"
         style="stop-color:#000000;stop-opacity:1" />
      <stop
         id="stop3224"
         offset="1"
         style="stop-color:#c2c2c2;stop-opacity:1;" />
    </linearGradient>
    <linearGradient
       id="linearGradient3293">
      <stop
         id="stop3293"
         offset="0"
         style="stop-color:#000000;stop-opacity:1;" />
      <stop
         id="stop3295"
         offset="1"
         style="stop-color:#000000;stop-opacity:0;" />
    </linearGradient>
    <radialGradient
       inkscape:collect="always"
       xlink:href="#linearGradient3293"
       id="radialGradient2595"
       gradientUnits="userSpaceOnUse"
       gradientTransform="matrix(1,0,0,0.197802,0,92.82166)"
       cx="63.912209"
       cy="115.70919"
       fx="75.857941"
       fy="115.70919"
       r="63.912209" />
    <linearGradient
       inkscape:collect="always"
       xlink:href="#linearGradient3220"
       id="linearGradient3336"
       x1="16.045559"
       y1="18.609375"
       x2="13.363585"
       y2="18.609375"
       gradientUnits="userSpaceOnUse"
       gradientTransform="matrix(0.885294,0,0,1.4973974,1.444002,-9.2308219)" />
    <linearGradient
       inkscape:collect="always"
       xlink:href="#linearGradient3326"
       id="linearGradient3332"
       x1="23.200914"
       y1="1.3465282"
       x2="23.751959"
       y2="2.4560382"
       gradientUnits="userSpaceOnUse"
       gradientTransform="matrix(1.0739115,0.1615221,-0.1942872,0.8928021,3.1907137,-1.3585741)" />
    <linearGradient
       inkscape:collect="always"
       xlink:href="#linearGradient3326"
       id="linearGradient3338"
       x1="10.558658"
       y1="29.768366"
       x2="8.1266174"
       y2="29.768366"
       gradientUnits="userSpaceOnUse"
       gradientTransform="matrix(0.9428114,0,0,0.9428114,2.6569219,1.8634784)" />
    <linearGradient
       inkscape:collect="always"
       xlink:href="#linearGradient3326"
       id="linearGradient3346"
       x1="9.8767357"
       y1="29.645582"
       x2="27.615789"
       y2="29.645582"
       gradientUnits="userSpaceOnUse"
       gradientTransform="matrix(0.9428114,0,0,0.9428114,2.6569219,1.8634784)" />
    <linearGradient
       inkscape:collect="always"
       xlink:href="#linearGradient3358"
       id="linearGradient3354"
       x1="7.0851598"
       y1="20.46693"
       x2="11.680017"
       y2="20.46693"
       gradientUnits="userSpaceOnUse"
       gradientTransform="matrix(0.9428114,0,0,0.9428114,2.6569219,1.8634784)" />
    <linearGradient
       inkscape:collect="always"
       xlink:href="#linearGradient3358"
       id="linearGradient3366"
       x1="5.6493235"
       y1="19.604305"
       x2="26.428026"
       y2="19.016918"
       gradientUnits="userSpaceOnUse"
       gradientTransform="matrix(0.9428114,0,0,0.9428114,2.6569219,1.8634784)" />
    <linearGradient
       inkscape:collect="always"
       xlink:href="#linearGradient3239"
       id="linearGradient3374"
       x1="10.16798"
       y1="13.646263"
       x2="13.012171"
       y2="15.185309"
       gradientUnits="userSpaceOnUse"
       gradientTransform="matrix(0.8021091,0,0,0.8021091,4.4822283,3.9621012)" />
    <radialGradient
       inkscape:collect="always"
       xlink:href="#linearGradient3220"
       id="radialGradient3382"
       cx="15.580079"
       cy="15.86268"
       fx="15.580079"
       fy="15.86268"
       r="2.3606181"
       gradientUnits="userSpaceOnUse"
       gradientTransform="matrix(1.4187157,-1.6008339e-7,1.7953791e-7,1.5911286,-6.5236271,-9.3768812)" />
    <linearGradient
       inkscape:collect="always"
       xlink:href="#linearGradient3429"
       id="linearGradient3390"
       x1="8.2295895"
       y1="16.421139"
       x2="27.620525"
       y2="16.421139"
       gradientUnits="userSpaceOnUse"
       gradientTransform="matrix(0.9428114,0,0,0.9428114,2.6569219,1.8634784)" />
    <linearGradient
       inkscape:collect="always"
       xlink:href="#linearGradient3417"
       id="linearGradient3423"
       x1="9.8545408"
       y1="15.213298"
       x2="16.5625"
       y2="15.213297"
       gradientUnits="userSpaceOnUse"
       gradientTransform="matrix(0.9428114,0,0,0.9428114,2.6569219,1.8634784)" />
    <linearGradient
       inkscape:collect="always"
       xlink:href="#linearGradient3358"
       id="linearGradient3491"
       x1="10.283946"
       y1="18.990162"
       x2="14.140387"
       y2="18.990162"
       gradientUnits="userSpaceOnUse"
       gradientTransform="matrix(0.9428114,0,0,0.9428114,2.6569219,1.8634784)" />
    <linearGradient
       inkscape:collect="always"
       xlink:href="#linearGradient3493"
       id="linearGradient3499"
       x1="13.546118"
       y1="16.350983"
       x2="22.338453"
       y2="16.350983"
       gradientUnits="userSpaceOnUse"
       gradientTransform="matrix(0.9428114,0,0,0.9428114,2.6569219,1.8634784)" />
    <linearGradient
       inkscape:collect="always"
       xlink:href="#linearGradient3503"
       id="linearGradient3509"
       x1="14.167801"
       y1="16.31992"
       x2="22.464567"
       y2="16.31992"
       gradientUnits="userSpaceOnUse"
       gradientTransform="matrix(0.9428114,0,0,0.9428114,2.6569219,1.8634784)" />
    <linearGradient
       inkscape:collect="always"
       xlink:href="#linearGradient3503"
       id="linearGradient3519"
       x1="26.954567"
       y1="12.001188"
       x2="15.53314"
       y2="4.6914754"
       gradientUnits="userSpaceOnUse"
       gradientTransform="matrix(1.0739115,0.1615221,-0.1942872,0.8928021,3.1907137,-1.3585741)" />
    <linearGradient
       inkscape:collect="always"
       xlink:href="#linearGradient3529"
       id="linearGradient3527"
       x1="22.494728"
       y1="3.0225284"
       x2="23.864639"
       y2="22.792866"
       gradientUnits="userSpaceOnUse"
       gradientTransform="matrix(1.0739115,0.1615221,-0.1942872,0.8928021,3.1907137,-1.3585741)" />
    <radialGradient
       inkscape:collect="always"
       xlink:href="#linearGradient3313"
       id="radialGradient3557"
       cx="21.475927"
       cy="3.5311544"
       fx="21.475927"
       fy="3.5311544"
       r="4.6627555"
       gradientTransform="matrix(1.8857922,-0.4106239,0.2332454,0.7403524,-17.061977,11.536753)"
       gradientUnits="userSpaceOnUse" />
    <linearGradient
       inkscape:collect="always"
       xlink:href="#linearGradient3326"
       id="linearGradient2302"
       gradientUnits="userSpaceOnUse"
       gradientTransform="matrix(1.0739115,-0.1615221,-0.1942872,-0.8928021,3.1907137,42.797998)"
       x1="32.527267"
       y1="20.127888"
       x2="24.770964"
       y2="37.398144" />
    <linearGradient
       inkscape:collect="always"
       xlink:href="#linearGradient3358"
       id="linearGradient2341"
       gradientUnits="userSpaceOnUse"
       gradientTransform="matrix(1.0739115,0.1615221,0.1942872,-0.8928021,-4.5807732,34.353517)"
       x1="30.823889"
       y1="21.164238"
       x2="22.577795"
       y2="39.53125" />
    <linearGradient
       id="linearGradient3180">
      <stop
         style="stop-color:#f57900;stop-opacity:1"
         offset="0"
         id="stop3182" />
      <stop
         style="stop-color:#f57900;stop-opacity:0"
         offset="1"
         id="stop3184" />
    </linearGradient>
    <linearGradient
       id="linearGradient3255">
      <stop
         id="stop3257"
         offset="0"
         style="stop-color:#cf4913;stop-opacity:0;" />
      <stop
         style="stop-color:#cf4913;stop-opacity:0.01169591;"
         offset="0.53848201"
         id="stop3263" />
      <stop
         id="stop3265"
         offset="0.72113848"
         style="stop-color:#cf4913;stop-opacity:1;" />
      <stop
         style="stop-color:#cf4913;stop-opacity:1;"
         offset="0.81727701"
         id="stop3267" />
      <stop
         id="stop3259"
         offset="1"
         style="stop-color:#cf4913;stop-opacity:0;" />
    </linearGradient>
    <linearGradient
       id="linearGradient3356">
      <stop
         id="stop3460"
         offset="0"
         style="stop-color:#ffd500;stop-opacity:0;" />
      <stop
         style="stop-color:#ffd500;stop-opacity:0;"
         offset="0.26767766"
         id="stop3368" />
      <stop
         style="stop-color:#ffd500;stop-opacity:1;"
         offset="0.6546796"
         id="stop3463" />
      <stop
         id="stop3366"
         offset="0.84575403"
         style="stop-color:#ffd500;stop-opacity:1;" />
      <stop
         style="stop-color:#ffd500;stop-opacity:0;"
         offset="0.91551131"
         id="stop3370" />
      <stop
         id="stop3467"
         offset="1"
         style="stop-color:#ffd500;stop-opacity:0;" />
    </linearGradient>
    <linearGradient
       id="linearGradient3444"
       inkscape:collect="always">
      <stop
         id="stop3446"
         offset="0"
         style="stop-color:#fff299;stop-opacity:1;" />
      <stop
         id="stop3448"
         offset="1"
         style="stop-color:#fff299;stop-opacity:0;" />
    </linearGradient>
    <linearGradient
       id="linearGradient3464"
       inkscape:collect="always">
      <stop
         id="stop3466"
         offset="0"
         style="stop-color:#ffaa00;stop-opacity:1;" />
      <stop
         id="stop3468"
         offset="1"
         style="stop-color:#ffaa00;stop-opacity:0;" />
    </linearGradient>
    <linearGradient
       id="linearGradient3737"
       inkscape:collect="always">
      <stop
         id="stop3739"
         offset="0"
         style="stop-color:#ffffff;stop-opacity:1;" />
      <stop
         id="stop3741"
         offset="1"
         style="stop-color:#ffffff;stop-opacity:0;" />
    </linearGradient>
    <linearGradient
       id="linearGradient3827">
      <stop
         id="stop3829"
         offset="0"
         style="stop-color:#ffaa00;stop-opacity:1" />
      <stop
         style="stop-color:#e77909;stop-opacity:1;"
         offset="0.88193333"
         id="stop3835" />
      <stop
         id="stop3831"
         offset="1"
         style="stop-color:#cf4913;stop-opacity:1;" />
    </linearGradient>
    <linearGradient
       id="linearGradient3703">
      <stop
         style="stop-color:#000000;stop-opacity:0;"
         offset="0"
         id="stop3705" />
      <stop
         id="stop3707"
         offset="0.70282739"
         style="stop-color:#1a206f;stop-opacity:0.49803922;" />
      <stop
         style="stop-color:#000000;stop-opacity:0;"
         offset="1"
         id="stop3709" />
    </linearGradient>
    <radialGradient
       inkscape:collect="always"
       xlink:href="#linearGradient3356"
       id="radialGradient3791"
       gradientUnits="userSpaceOnUse"
       gradientTransform="matrix(1,0,0,4.7851562,41.052817,12.10915)"
       cx="-49.09375"
       cy="6.5714288"
       fx="-49.09375"
       fy="6.5714288"
       r="4" />
    <radialGradient
       inkscape:collect="always"
       xlink:href="#linearGradient3737"
       id="radialGradient3793"
       gradientUnits="userSpaceOnUse"
       gradientTransform="matrix(1,0,0,0.2531646,0,12.159415)"
       cx="22.078125"
       cy="16.28125"
       fx="22.078125"
       fy="16.28125"
       r="1.234375" />
    <radialGradient
       inkscape:collect="always"
       xlink:href="#linearGradient3255"
       id="radialGradient3795"
       gradientUnits="userSpaceOnUse"
       gradientTransform="matrix(0.9390353,0,0,3.414083,-21.677663,2.3314357)"
       cx="14.517722"
       cy="11.515128"
       fx="14.517722"
       fy="11.515128"
       r="4.2596908" />
    <radialGradient
       inkscape:collect="always"
       xlink:href="#linearGradient3255"
       id="radialGradient3797"
       gradientUnits="userSpaceOnUse"
       gradientTransform="matrix(0.9390353,0,0,1.1380276,-21.677663,28.540507)"
       cx="14.517722"
       cy="11.515128"
       fx="14.517722"
       fy="11.515128"
       r="4.2596908" />
    <radialGradient
       inkscape:collect="always"
       xlink:href="#linearGradient3356"
       id="radialGradient3799"
       gradientUnits="userSpaceOnUse"
       gradientTransform="matrix(1,0,0,4.2416903,41.052817,16.178549)"
       cx="-49.09375"
       cy="6.5714288"
       fx="-49.09375"
       fy="6.5714288"
       r="4" />
    <radialGradient
       inkscape:collect="always"
       xlink:href="#linearGradient3464"
       id="radialGradient3801"
       gradientUnits="userSpaceOnUse"
       cx="22.406446"
       cy="12.643806"
       fx="22.406446"
       fy="12.643806"
       r="2.3864853" />
    <radialGradient
       inkscape:collect="always"
       xlink:href="#linearGradient3827"
       id="radialGradient3803"
       gradientUnits="userSpaceOnUse"
       gradientTransform="matrix(1.1237312,0,0,2.1445604,-42.508603,16.464343)"
       cx="30.379177"
       cy="7.8823738"
       fx="30.379177"
       fy="7.8823738"
       r="3.2214338" />
    <radialGradient
       inkscape:collect="always"
       xlink:href="#linearGradient3180"
       id="radialGradient3805"
       gradientUnits="userSpaceOnUse"
       gradientTransform="matrix(1.0697211,0.3552126,-1.2203018,3.9140196,51.416591,35.468193)"
       cx="-50.384651"
       cy="5.7798705"
       fx="-50.384651"
       fy="5.7798705"
       r="4" />
    <radialGradient
       inkscape:collect="always"
       xlink:href="#linearGradient3255"
       id="radialGradient3807"
       gradientUnits="userSpaceOnUse"
       gradientTransform="matrix(1.0552233,0,0,3.2670245,-23.593933,3.7123597)"
       cx="14.517722"
       cy="11.515128"
       fx="14.517722"
       fy="11.515128"
       r="4.2596908" />
    <radialGradient
       inkscape:collect="always"
       xlink:href="#linearGradient3356"
       id="radialGradient3809"
       gradientUnits="userSpaceOnUse"
       gradientTransform="matrix(1.0552233,0,0,3.2670245,-23.593933,3.7123597)"
       cx="14.517722"
       cy="11.515128"
       fx="14.517722"
       fy="11.515128"
       r="4.2596908" />
    <radialGradient
       inkscape:collect="always"
       xlink:href="#linearGradient3356"
       id="radialGradient3811"
       gradientUnits="userSpaceOnUse"
       gradientTransform="matrix(1.0552233,0,0,1.0890082,-23.589363,28.776854)"
       cx="14.517722"
       cy="11.515128"
       fx="14.517722"
       fy="11.515128"
       r="4.2596908" />
    <radialGradient
       inkscape:collect="always"
       xlink:href="#linearGradient3464"
       id="radialGradient3813"
       gradientUnits="userSpaceOnUse"
       gradientTransform="matrix(1.1237312,0,0,1.7395642,-43.000243,20.44215)"
       cx="30.90625"
       cy="8"
       fx="30.90625"
       fy="8"
       r="4" />
    <radialGradient
       inkscape:collect="always"
       xlink:href="#linearGradient3444"
       id="radialGradient3815"
       gradientUnits="userSpaceOnUse"
       gradientTransform="matrix(1.0552233,-5.1047371e-2,6.2533839e-2,1.3767644,-24.166963,21.774929)"
       cx="15.117693"
       cy="10.343732"
       fx="15.117693"
       fy="10.343732"
       r="4.2596908" />
    <radialGradient
       inkscape:collect="always"
       xlink:href="#linearGradient3255"
       id="radialGradient3817"
       gradientUnits="userSpaceOnUse"
       gradientTransform="matrix(0.7031248,0.7164116,-0.4061385,2.0949286,8.9866882,-23.008908)"
       cx="13.806311"
       cy="11.758413"
       fx="13.806311"
       fy="11.758413"
       r="4.2596908" />
    <radialGradient
       inkscape:collect="always"
       xlink:href="#linearGradient3255"
       id="radialGradient3819"
       gradientUnits="userSpaceOnUse"
       gradientTransform="matrix(1,0,0,2.2925172,0,-14.883501)"
       cx="14.517722"
       cy="11.515128"
       fx="14.517722"
       fy="11.515128"
       r="4.2596908" />
    <radialGradient
       inkscape:collect="always"
       xlink:href="#linearGradient3444"
       id="radialGradient3821"
       gradientUnits="userSpaceOnUse"
       gradientTransform="matrix(1.3430272,7.0943438e-2,-7.9433059e-2,2.0776846,-48.942233,16.540655)"
       cx="30.914183"
       cy="7.4553509"
       fx="30.914183"
       fy="7.4553509"
       r="2.6751472" />
    <radialGradient
       inkscape:collect="always"
       xlink:href="#linearGradient3737"
       id="radialGradient3823"
       gradientUnits="userSpaceOnUse"
       gradientTransform="matrix(1.2328998,-4.1277971e-2,9.4431859e-2,2.0400407,-47.290363,17.107283)"
       cx="31.368895"
       cy="8.385251"
       fx="31.368895"
       fy="8.385251"
       r="2.1924061" />
    <radialGradient
       inkscape:collect="always"
       xlink:href="#linearGradient3737"
       id="radialGradient3825"
       gradientUnits="userSpaceOnUse"
       gradientTransform="matrix(0.8556893,-2.8648815e-2,6.5540062e-2,1.4158823,-35.129313,22.04316)"
       cx="31.368895"
       cy="8.385251"
       fx="31.368895"
       fy="8.385251"
       r="2.1924061" />
    <radialGradient
       inkscape:collect="always"
       xlink:href="#linearGradient3356"
       id="radialGradient3827"
       gradientUnits="userSpaceOnUse"
       gradientTransform="matrix(1.4333408,1.5176937,-0.531564,0.7373314,-22.701493,10.843156)"
       cx="14.248451"
       cy="13.197035"
       fx="14.248451"
       fy="13.197035"
       r="4.2596908" />
    <radialGradient
       inkscape:collect="always"
       xlink:href="#linearGradient3703"
       id="radialGradient3829"
       gradientUnits="userSpaceOnUse"
       cx="22.406446"
       cy="12.643806"
       fx="22.406446"
       fy="12.643806"
       r="2.3864853" />
  </defs>
  <sodipodi:namedview
     id="base"
     pagecolor="#ffffff"
     bordercolor="#666666"
     borderopacity="1.0"
     inkscape:pageopacity="0.0"
     inkscape:pageshadow="2"
     inkscape:zoom="8.65"
     inkscape:cx="24.219653"
     inkscape:cy="31.907514"
     inkscape:current-layer="layer1"
     showgrid="false"
     inkscape:grid-bbox="false"
     inkscape:document-units="px"
     width="40px"
     height="40px"
     inkscape:window-width="1737"
     inkscape:window-height="1012"
     inkscape:window-x="172"
     inkscape:window-y="38"
     showguides="true"
     inkscape:guide-bbox="true">
    <inkscape:grid
       id="GridFromPre046Settings"
       type="xygrid"
       originx="0px"
       originy="0px"
       spacingx="1px"
       spacingy="1px"
       color="#0000ff"
       empcolor="#0000ff"
       opacity="0.2"
       empopacity="0.4"
       empspacing="2" />
  </sodipodi:namedview>
  <metadata
     id="metadata2198">
    <rdf:RDF>
      <cc:Work
         rdf:about="">
        <dc:format>image/svg+xml</dc:format>
        <dc:type
           rdf:resource="http://purl.org/dc/dcmitype/StillImage" />
        <dc:creator>
          <cc:Agent>
            <dc:title>Jarle Akselsen</dc:title>
          </cc:Agent>
        </dc:creator>
        <cc:license
           rdf:resource="http://creativecommons.org/licenses/GPL/2.0/" />
      </cc:Work>
      <cc:License
         rdf:about="http://creativecommons.org/licenses/GPL/2.0/">
        <cc:permits
           rdf:resource="http://web.resource.org/cc/Reproduction" />
        <cc:permits
           rdf:resource="http://web.resource.org/cc/Distribution" />
        <cc:requires
           rdf:resource="http://web.resource.org/cc/Notice" />
        <cc:permits
           rdf:resource="http://web.resource.org/cc/DerivativeWorks" />
        <cc:requires
           rdf:resource="http://web.resource.org/cc/ShareAlike" />
        <cc:requires
           rdf:resource="http://web.resource.org/cc/SourceCode" />
      </cc:License>
    </rdf:RDF>
  </metadata>
  <g
     id="layer1"
     inkscape:label="Layer 1"
     inkscape:groupmode="layer">
    <path
       style="opacity:1;fill:#000000;fill-opacity:0.7461929;fill-rule:nonzero;stroke:none;stroke-width:0.30000001;stroke-linecap:round;stroke-linejoin:round;stroke-miterlimit:4;stroke-opacity:1"
       d="M 27.582506,36.364495 C 27.54659,36.601962 27.405755,36.785637 27.17003,36.894823 L 13.204623,38.191194 C 13.204623,38.191194 12.507373,38.193444 11.790412,37.955493 C 11.4729,37.850108 11.132303,37.711782 10.877061,37.572473 C 10.587199,37.324634 10.393918,37.025027 10.31727,36.688586 L 10.31727,36.924292 C 10.393918,37.260734 10.587199,37.560333 10.877061,37.808178 C 11.132303,37.947487 11.4729,38.085814 11.790412,38.191194 C 12.507373,38.429148 13.204623,38.426893 13.204623,38.426893 L 27.17003,37.130529 C 27.405755,37.021342 27.54659,36.837668 27.582506,36.600194 L 27.582506,36.364495 z "
       id="path3476" />
    <path
       transform="matrix(0.203194,-1.7909117e-2,1.8215781e-2,0.1000607,7.1204575,26.690112)"
       d="M 127.82442 115.70919 A 63.912209 12.641975 0 1 1  0,115.70919 A 63.912209 12.641975 0 1 1  127.82442 115.70919 z"
       sodipodi:ry="12.641975"
       sodipodi:rx="63.912209"
       sodipodi:cy="115.70919"
       sodipodi:cx="63.912209"
       id="path2593"
       style="opacity:0.38139535;fill:url(#radialGradient2595);fill-opacity:1;fill-rule:nonzero;stroke:none;stroke-width:0;stroke-linecap:round;stroke-linejoin:round;stroke-miterlimit:4;stroke-dasharray:none;stroke-dashoffset:4;stroke-opacity:1"
       sodipodi:type="arc" />
    <path
       style="opacity:1;color:#000000;fill:#dddddd;fill-opacity:1;fill-rule:evenodd;stroke:none;stroke-width:1px;stroke-linecap:butt;stroke-linejoin:miter;marker:none;marker-start:none;marker-mid:none;marker-end:none;stroke-miterlimit:4;stroke-dasharray:none;stroke-dashoffset:0;stroke-opacity:1;visibility:visible;display:inline;overflow:visible;enable-background:accumulate"
       d="M 30.863204,3.2257694 C 30.055847,3.2479585 29.418861,3.3702038 29.418861,3.3702038 L 22.572677,5.0167568 C 22.691043,5.0013477 21.763834,5.3633999 21.763834,5.3633999 C 21.763835,5.3634 22.500022,9.1315825 23.294842,12.902871 C 24.089676,16.674173 24.941399,20.442349 24.941399,20.442349 L 28.205616,20.904545 L 35.398447,18.853573 C 35.412731,18.844944 35.413682,18.862749 35.427343,18.853573 C 35.607172,18.732721 35.755326,18.577113 35.802866,18.391387 C 35.81439,18.346382 35.8008,18.293684 35.802866,18.246947 C 35.802339,18.237663 35.803473,18.199556 35.802866,18.189176 C 35.759229,17.434863 35.552273,14.230264 34.907379,10.90968 C 34.206516,7.3009853 33.131955,3.9425485 33.058609,3.7168468 C 33.052084,3.7057332 33.03689,3.6987391 33.029725,3.6879602 C 32.943214,3.5577875 32.818992,3.4492746 32.654194,3.3990916 L 32.654194,3.3702038 C 32.569138,3.3445749 32.52396,3.3370165 32.394212,3.3124305 C 32.218713,3.2791733 31.980536,3.2839582 31.700931,3.2546569 C 31.409185,3.2235299 31.132332,3.2183739 30.863204,3.2257694 z "
       id="path3361" />
    <path
       style="opacity:1;fill:#dddddd;fill-opacity:1;fill-rule:nonzero;stroke:none;stroke-width:0.30000001;stroke-linecap:round;stroke-linejoin:round;stroke-miterlimit:4;stroke-opacity:1"
       d="M 15.382232,12.731971 L 15.382232,13.02962 L 15.481454,13.02962 L 15.481454,13.095763 L 15.481454,20.116626 L 13.497133,20.107032 L 13.199484,20.107032 C 13.199484,20.107031 12.495976,20.126839 11.777385,20.140103 C 11.540529,20.144484 11.383465,20.205052 11.182089,20.305471 C 11.149304,20.321816 11.118752,20.318859 11.082871,20.338544 C 10.943746,20.397638 10.847003,20.467745 10.818295,20.570045 C 10.814063,20.585132 10.786303,20.586945 10.785223,20.603119 C 10.778697,20.614996 10.789612,20.62694 10.785223,20.636192 C 10.774241,20.659312 10.75215,20.702327 10.75215,20.702327 L 10.75215,21.099196 L 10.719078,21.595272 L 10.75215,21.595272 L 10.75215,21.76064 C 10.50852,21.713514 10.322218,21.66142 10.322218,21.66142 L 10.322218,36.676128 C 10.398866,37.012565 10.594579,37.321235 10.88444,37.569074 C 11.139679,37.708389 11.459874,37.860555 11.777385,37.96594 C 12.494347,38.2039 13.199484,38.197442 13.199484,38.197442 L 27.155887,36.907638 C 27.391612,36.79845 27.549901,36.615949 27.585817,36.378481 L 27.585817,21.496065 C 27.629787,21.501116 27.802662,21.529134 27.817318,21.529134 C 27.934654,21.529134 28.045088,21.499798 28.114968,21.429919 C 28.18486,21.360039 28.214188,21.249603 28.214188,21.132269 C 28.214188,20.897608 28.05199,20.702327 27.817318,20.702327 C 27.785685,20.702327 27.288583,20.647209 26.891313,20.603119 C 26.852571,20.543984 26.82221,20.493737 26.759018,20.437751 C 26.701202,20.382486 26.621031,20.322503 26.527516,20.272397 C 26.511095,20.263598 26.480535,20.246512 26.461369,20.239324 C 26.449844,20.2298 26.448572,20.220085 26.428296,20.20625 C 26.417947,20.200708 26.406704,20.178093 26.395222,20.173176 C 26.287746,20.113231 26.097574,20.032627 25.832998,19.974748 C 25.303847,19.85899 24.80791,19.809384 24.410901,19.809384 C 23.851072,19.809384 23.392612,19.418176 23.187233,18.883374 L 23.187233,12.9304 L 23.088026,12.9304 L 23.088026,12.864253 L 22.195079,12.864253 L 21.070632,12.798117 L 16.308252,12.765046 L 15.97753,12.765046 L 15.382232,12.731971 z M 17.994923,13.790273 C 18.046148,13.909204 18.061071,14.042412 18.061071,14.187142 C 18.061071,14.309657 18.033697,14.416959 17.994923,14.517863 C 17.929738,14.399801 17.895716,14.261846 17.895716,14.120995 C 17.895716,13.994445 17.941528,13.895516 17.994923,13.790273 z M 19.483168,15.543091 C 19.563161,15.550361 19.64207,15.584237 19.714669,15.609238 C 19.967637,15.752486 20.177686,15.998978 20.177686,16.30375 C 20.177686,16.527836 20.09685,16.72357 19.946176,16.865978 C 19.558705,16.805469 19.251667,16.50826 19.251667,16.105314 C 19.251667,15.88122 19.332488,15.693771 19.483168,15.543091 z M 18.027998,17.990428 C 18.056983,18.085088 18.061071,18.180509 18.061071,18.288077 C 18.061071,18.428127 18.011322,18.539267 17.961851,18.651861 C 17.922659,18.558888 17.895716,18.457454 17.895716,18.354214 C 17.895716,18.209339 17.955612,18.102384 18.027998,17.990428 z M 16.242106,18.22193 C 16.244237,18.280784 16.242106,18.323456 16.242106,18.387284 C 16.242107,18.746573 16.208216,19.015655 16.142899,19.015655 C 16.077572,19.015654 16.010604,18.746573 16.010604,18.387284 C 16.010604,18.348984 16.009164,18.324781 16.010604,18.288077 C 16.085367,18.266417 16.169646,18.251163 16.242106,18.22193 z M 15.97753,19.379451 C 16.175684,19.405233 16.322175,19.411536 16.3744,19.412524 C 16.376346,19.438858 16.43176,19.459455 16.473607,19.47867 C 16.485836,19.585027 16.387315,19.81001 16.010604,20.007823 C 16.00203,20.012318 15.986466,20.003331 15.97753,20.007823 L 15.97753,19.379451 z M 13.397912,21.826782 L 13.430986,21.826782 L 13.430986,21.892922 C 13.430986,21.892922 13.411638,21.85119 13.397912,21.826782 z "
       id="path3338"
       sodipodi:nodetypes="cccccccssssssccccccccsccccsssscsssssssccccccccccsssccsscsccsssccssssccssscccccc" />
    <path
       style="opacity:1;color:#000000;fill:url(#linearGradient3509);fill-opacity:1;fill-rule:evenodd;stroke:none;stroke-width:1px;stroke-linecap:butt;stroke-linejoin:miter;marker:none;marker-start:none;marker-mid:none;marker-end:none;stroke-miterlimit:4;stroke-dasharray:none;stroke-dashoffset:0;stroke-opacity:1;visibility:visible;display:inline;overflow:visible;enable-background:accumulate"
       d="M 16.308252,12.765046 L 15.481454,12.798117 L 15.481454,13.095763 L 15.481454,14.253286 L 15.481454,14.319423 C 15.458753,14.318469 15.458939,17.561604 15.481454,17.560485 L 15.514526,19.181023 C 15.518683,19.403631 16.440545,19.412524 16.440545,19.412524 C 16.440545,19.412524 16.651094,19.833074 15.712955,20.140103 L 12.740057,20.147682 C 12.740057,20.147682 10.82559,20.06091 10.788804,20.610684 L 10.722664,21.602851 L 12.839266,21.536704 L 12.839266,21.735132 L 26.924374,21.462991 C 26.924374,21.462991 27.355281,20.715867 26.527516,20.272397 C 26.184216,20.088472 24.083326,20.076009 23.848678,20.073965 C 23.359182,19.829417 23.25407,19.313992 23.187233,19.247156 L 23.187233,12.9304 L 21.070632,12.798117 L 16.308252,12.765046 z M 17.994923,13.757198 C 18.077973,13.896707 18.160292,14.068406 18.160292,14.253286 C 18.160292,14.393339 18.110542,14.504479 18.061071,14.617071 C 17.957631,14.485455 17.895716,14.302281 17.895716,14.120995 C 17.895716,13.982506 17.931751,13.873288 17.994923,13.757198 z M 19.483168,15.543091 C 19.91714,15.560678 20.276893,15.932482 20.276893,16.36989 C 20.276893,16.577618 20.210361,16.759605 20.078465,16.899044 C 19.630275,16.899045 19.251667,16.553506 19.251667,16.105314 C 19.251667,15.88122 19.332488,15.693771 19.483168,15.543091 z M 16.142899,17.725852 C 16.208216,17.725853 16.242106,18.027996 16.242106,18.387284 C 16.242107,18.746573 16.208216,19.015655 16.142899,19.015655 C 16.077572,19.015654 16.010604,18.746573 16.010604,18.387284 C 16.010602,18.027996 16.077572,17.725852 16.142899,17.725852 z M 18.061071,17.924281 C 18.118238,18.047816 18.160292,18.202949 18.160292,18.354214 C 18.160292,18.522289 18.097603,18.657757 18.027998,18.784154 C 17.950356,18.663825 17.895716,18.509068 17.895716,18.354214 C 17.895716,18.183 17.967789,18.057965 18.061071,17.924281 z "
       id="path2262"
       sodipodi:nodetypes="cccccccccccccccsccccccscsccscsccsssccscsc" />
    <path
       sodipodi:nodetypes="ccc"
       id="path2276"
       d="M 10.956528,1.0198748 L 10.956528,-1.7748336 L 10.956528,1.0198748 z "
       style="fill:#ffffff;fill-opacity:0.75688076;fill-rule:nonzero;stroke:none;stroke-width:0.5;stroke-linecap:round;stroke-linejoin:round;stroke-miterlimit:4;stroke-dasharray:none;stroke-dashoffset:4;stroke-opacity:1" />
    <path
       style="opacity:1;fill:url(#linearGradient3354);fill-opacity:1;fill-rule:nonzero;stroke:none;stroke-width:0.30000001;stroke-linecap:round;stroke-linejoin:round;stroke-miterlimit:4;stroke-dasharray:none;stroke-opacity:1"
       d="M 11.248228,20.40468 C 11.152192,20.40468 11.051899,20.420808 10.968473,20.473533 C 10.885047,20.526258 10.818489,20.615592 10.75215,20.702327 L 10.75215,21.76064 C 11.02585,21.812967 11.394418,21.866165 11.777385,21.892922 C 12.494347,21.943031 13.199484,21.892923 13.199484,21.892922 L 13.430986,21.892922 C 13.430986,21.892922 13.411638,21.85119 13.397912,21.826782 L 13.430986,21.826782 L 13.497133,20.900768 C 13.506326,20.763322 13.70723,20.609851 13.662487,20.636192 L 13.034117,20.570045 L 11.413592,20.40468 L 11.248228,20.40468 z "
       id="path2250"
       sodipodi:nodetypes="csccsccccccccc" />
    <path
       sodipodi:type="arc"
       style="opacity:1;fill:url(#radialGradient3382);fill-opacity:1;fill-rule:nonzero;stroke:none;stroke-width:0.30000001;stroke-linecap:round;stroke-linejoin:round;stroke-miterlimit:4;stroke-dasharray:none;stroke-opacity:1"
       id="path2266"
       sodipodi:cx="15.580079"
       sodipodi:cy="15.86268"
       sodipodi:rx="2.3606181"
       sodipodi:ry="2.3606181"
       d="M 17.940697 15.86268 A 2.3606181 2.3606181 0 1 1  13.219461,15.86268 A 2.3606181 2.3606181 0 1 1  17.940697 15.86268 z"
       transform="matrix(0.9003669,0,0,0.9003669,1.2120825,1.6445229)" />
    <path
       style="opacity:0.53398061;fill:#888a85;fill-opacity:1;fill-rule:nonzero;stroke:none;stroke-width:0.30000001;stroke-linecap:round;stroke-linejoin:round;stroke-miterlimit:4;stroke-dasharray:none;stroke-opacity:1"
       d="M 14.548769,13.799473 C 13.375538,13.799473 12.410394,14.764617 12.410394,15.937848 C 12.410394,17.11108 13.375538,18.048086 14.548769,18.048086 C 14.637026,18.048086 14.716556,18.030411 14.801995,18.019948 C 13.833764,17.821655 13.113811,16.964427 13.113811,15.937848 C 13.113811,14.884189 13.880039,14.023244 14.886403,13.855748 C 14.773771,13.837275 14.666601,13.799473 14.548769,13.799473 z "
       id="path2268" />
    <path
       style="opacity:1;fill:#dddddd;fill-opacity:1;fill-rule:nonzero;stroke:none;stroke-width:0.30000001;stroke-linecap:round;stroke-linejoin:round;stroke-miterlimit:4;stroke-opacity:1"
       d="M 14.753862,19.181023 C 14.129307,19.181023 13.497133,19.313304 13.497133,19.313304 C 13.497133,19.313304 14.096236,19.379451 14.72079,19.379451 C 15.345355,19.379451 15.97753,19.313304 15.97753,19.313304 C 15.977531,19.313304 15.378428,19.181023 14.753862,19.181023 z "
       id="path3296"
       sodipodi:nodetypes="ccscc" />
    <path
       style="opacity:1;fill:url(#linearGradient3336);fill-opacity:1;fill-rule:nonzero;stroke:none;stroke-width:0.30000001;stroke-linecap:round;stroke-linejoin:round;stroke-miterlimit:4;stroke-opacity:1"
       d="M 14.142433,17.95629 L 14.142433,19.266517 C 14.142433,19.266517 14.459679,19.313305 14.778739,19.313304 C 15.097801,19.313304 15.415045,19.266517 15.415045,19.266517 L 15.415045,18.003082 C 15.358364,18.010796 15.306984,18.049881 15.249045,18.049881 C 15.104853,18.049881 14.64419,18.049881 14.557419,18.049881 C 14.413214,18.049881 14.278784,18.002705 14.142433,17.95629 z "
       id="path3301" />
    <path
       style="opacity:1;fill:#555555;fill-opacity:1;fill-rule:nonzero;stroke:none;stroke-width:0.30000001;stroke-linecap:round;stroke-linejoin:round;stroke-miterlimit:4;stroke-dasharray:none;stroke-opacity:1"
       d="M 14.548769,13.799473 C 13.375538,13.799473 12.410394,14.764617 12.410394,15.937848 C 12.410394,17.11108 13.375538,18.048086 14.548769,18.048086 C 14.637026,18.048086 15.105521,18.048086 15.252186,18.048086 C 16.425419,18.048086 17.362411,17.11108 17.362411,15.937848 C 17.362411,14.764617 16.425419,13.799473 15.252186,13.799473 C 15.132601,13.799473 14.637944,13.799473 14.548769,13.799473 z "
       id="path3307"
       sodipodi:nodetypes="csssssc" />
    <path
       style="opacity:0.53398061;fill:#2e3436;fill-opacity:1;fill-rule:nonzero;stroke:none;stroke-width:0.30000001;stroke-linecap:round;stroke-linejoin:round;stroke-miterlimit:4;stroke-dasharray:none;stroke-opacity:1"
       d="M 14.548769,13.799473 C 13.375538,13.799473 12.410394,14.764617 12.410394,15.937848 C 12.410394,17.11108 13.375538,18.048086 14.548769,18.048086 C 14.637026,18.048086 15.105521,18.048086 15.252186,18.048086 C 14.078942,18.048086 13.113811,17.11108 13.113811,15.937848 C 13.113811,14.764617 14.078942,13.799473 15.252186,13.799473 C 15.132601,13.799473 14.637944,13.799473 14.548769,13.799473 z "
       id="path3312" />
    <path
       style="opacity:1;color:#000000;fill:url(#linearGradient3332);fill-opacity:1;fill-rule:evenodd;stroke:none;stroke-width:1px;stroke-linecap:butt;stroke-linejoin:miter;marker:none;marker-start:none;marker-mid:none;marker-end:none;stroke-miterlimit:4;stroke-dasharray:none;stroke-dashoffset:0;stroke-opacity:1;visibility:visible;display:inline;overflow:visible;enable-background:accumulate"
       d="M 30.863204,3.1968828 C 30.056524,3.225831 29.418861,3.3990916 29.418861,3.3990916 L 22.54378,5.0167568 C 22.662214,4.9999181 22.841355,4.9817968 23.092641,4.9878702 C 23.896749,5.0073046 24.970283,5.421173 24.970283,5.4211731 L 32.914176,3.5435259 C 32.839784,3.4768248 32.757065,3.4304155 32.654194,3.3990916 C 32.456104,3.3466047 32.191436,3.2741442 31.729815,3.2257694 C 31.438069,3.1946433 31.132102,3.187233 30.863204,3.1968828 z "
       id="path3325" />
    <path
       style="opacity:0.52427183;color:#000000;fill:url(#linearGradient2302);fill-opacity:1;fill-rule:evenodd;stroke:none;stroke-width:1px;stroke-linecap:butt;stroke-linejoin:miter;marker:none;marker-start:none;marker-mid:none;marker-end:none;stroke-miterlimit:4;stroke-dasharray:none;stroke-dashoffset:0;stroke-opacity:1;visibility:visible;display:inline;overflow:visible;enable-background:accumulate"
       d="M 32.943062,3.5724125 L 24.970283,5.4211731 C 24.970284,5.421173 25.862467,9.2681376 26.674608,13.133969 C 27.48676,16.999802 28.2345,20.904544 28.2345,20.904545 L 35.398447,18.853573 C 35.412731,18.844943 35.413682,18.833865 35.427343,18.824689 C 35.607171,18.703827 35.755325,18.577112 35.802866,18.391387 C 35.814393,18.346381 35.8008,18.293685 35.802866,18.246947 C 35.802322,18.237664 35.803493,18.199554 35.802866,18.189176 C 35.757887,17.434927 35.558767,14.229927 34.907379,10.90968 C 34.199182,7.2999001 33.131333,3.9399658 33.058609,3.7168468 C 33.052084,3.7057332 33.03689,3.6987391 33.029725,3.6879602 C 33.004383,3.6498205 32.975969,3.6054302 32.943062,3.5724125 z "
       id="path3333" />
    <path
       style="opacity:1;color:#000000;fill:url(#linearGradient3527);fill-opacity:1;fill-rule:evenodd;stroke:none;stroke-width:1px;stroke-linecap:butt;stroke-linejoin:miter;marker:none;marker-start:none;marker-mid:none;marker-end:none;stroke-miterlimit:4;stroke-dasharray:none;stroke-dashoffset:0;stroke-opacity:1;visibility:visible;display:inline;overflow:visible;enable-background:accumulate"
       d="M 23.081884,4.98488 C 22.277778,4.9654461 21.753753,5.3672929 21.753753,5.3672929 L 24.93305,20.452477 L 28.217605,20.893776 C 28.217605,20.893776 27.468149,17.027931 26.655997,13.162098 C 25.843857,9.2962659 24.96902,5.4304294 24.96902,5.4304294 C 24.96902,5.4304292 23.885993,5.0043144 23.081884,4.98488 z "
       id="path3337"
       sodipodi:nodetypes="ccccscc" />
    <path
       style="opacity:1;color:#000000;fill:url(#radialGradient3557);fill-opacity:1;fill-rule:evenodd;stroke:none;stroke-width:1px;stroke-linecap:butt;stroke-linejoin:miter;marker:none;marker-start:none;marker-mid:none;marker-end:none;stroke-miterlimit:4;stroke-dasharray:none;stroke-dashoffset:0;stroke-opacity:1;visibility:visible;display:inline;overflow:visible;enable-background:accumulate"
       d="M 30.863204,3.1968828 C 30.056524,3.2258309 29.418861,3.3990916 29.418861,3.3990916 L 22.54378,5.0167568 C 22.662214,4.9999181 22.841355,4.9817968 23.092641,4.9878702 C 23.896749,5.0073046 24.970283,5.421173 24.970283,5.4211731 L 32.914176,3.5435259 C 32.839784,3.4768248 32.757065,3.4304155 32.654194,3.3990916 C 32.456104,3.3466047 32.191436,3.2741442 31.729815,3.2257694 C 31.438069,3.1946433 31.132102,3.187233 30.863204,3.1968828 z "
       id="path3537" />
    <path
       id="path3359"
       d="M 23.159804,5.2958395 C 22.387545,5.277176 22.07381,5.4832225 22.07381,5.4832225 C 22.07381,5.4832225 22.795602,9.1629967 23.580077,12.842772 C 24.364565,16.522547 25.211737,20.20232 25.211737,20.20232 L 27.818429,20.450216 C 27.818429,20.450216 27.096753,16.75764 26.31238,13.065079 C 25.528003,9.3725069 24.680938,5.6799367 24.680938,5.6799367 C 24.680938,5.6799365 23.932064,5.3145047 23.159804,5.2958395 z "
       style="opacity:1;color:#000000;fill:url(#linearGradient3519);fill-opacity:1;fill-rule:evenodd;stroke:none;stroke-width:1px;stroke-linecap:butt;stroke-linejoin:miter;marker:none;marker-start:none;marker-mid:none;marker-end:none;stroke-miterlimit:4;stroke-dasharray:none;stroke-dashoffset:0;stroke-opacity:1;visibility:visible;display:inline;overflow:visible;enable-background:accumulate"
       sodipodi:nodetypes="ccsccscc" />
    <rect
       style="opacity:1;fill:#57401e;fill-opacity:1;fill-rule:nonzero;stroke:none;stroke-width:0.30000001;stroke-linecap:round;stroke-linejoin:round;stroke-miterlimit:4;stroke-dasharray:none;stroke-opacity:1"
       id="rect3592"
       width="1.2922767"
       height="2.7958045"
       x="19.425144"
       y="17.760002"
       transform="matrix(0.9988777,-4.7363771e-2,-1.7605615e-2,0.999845,0,0)" />
    <g
       id="g3764"
       transform="matrix(0.5901189,0,0,0.7841278,24.612483,-18.082342)">
      <path
         id="path3538"
         d="M -8.040933,24.413837 C -10.248933,24.413837 -12.040933,31.763837 -12.040933,40.820087 C -12.040933,43.838837 -10.248933,46.288837 -8.040933,46.288837 C -5.832933,46.288837 -4.040933,43.838837 -4.040933,40.820087 C -4.040933,31.763837 -5.832933,24.413837 -8.040933,24.413837 z"
         style="opacity:0.5;fill:url(#radialGradient3791);fill-opacity:1;stroke:none;stroke-width:0.16;stroke-linecap:round;stroke-linejoin:miter;stroke-miterlimit:4;stroke-dasharray:none;stroke-opacity:1" />
      <path
         transform="matrix(0.8708705,0.4915125,-0.4915125,0.8708705,-16.218813,19.836427)"
         d="M 23.3125,16.28125 A 1.234375,0.3125 0 1 1 20.84375,16.28125 A 1.234375,0.3125 0 1 1 23.3125,16.28125 z"
         sodipodi:ry="0.3125"
         sodipodi:rx="1.234375"
         sodipodi:cy="16.28125"
         sodipodi:cx="22.078125"
         id="path3298"
         style="opacity:0.5;fill:url(#radialGradient3793);fill-opacity:1;stroke:none;stroke-width:0.16;stroke-linecap:round;stroke-linejoin:miter;stroke-miterlimit:4;stroke-dasharray:none;stroke-opacity:1"
         sodipodi:type="arc" />
      <path
         id="path3302"
         d="M -8.040933,27.085753 C -10.248933,27.085753 -12.040933,33.600989 -12.040933,41.628691 L -4.040933,41.628691 C -4.040933,33.600989 -5.832933,27.085753 -8.040933,27.085753 z"
         style="fill:url(#radialGradient3795);fill-opacity:1;stroke:none;stroke-width:0.16;stroke-linecap:round;stroke-linejoin:miter;stroke-miterlimit:4;stroke-dasharray:none;stroke-opacity:1" />
      <path
         id="path3304"
         d="M -12.040933,41.628691 C -12.040933,44.304591 -10.248933,46.476337 -8.040933,46.476337 C -5.832933,46.476337 -4.040933,44.304591 -4.040933,41.628691 L -12.040933,41.628691 z"
         style="fill:url(#radialGradient3797);fill-opacity:1;stroke:none;stroke-width:0.16;stroke-linecap:round;stroke-linejoin:miter;stroke-miterlimit:4;stroke-dasharray:none;stroke-opacity:1" />
      <path
         id="path3306"
         d="M -8.040933,27.085753 C -10.248933,27.085753 -12.040933,33.600989 -12.040933,41.628691 C -12.040933,44.304591 -10.248933,46.476337 -8.040933,46.476337 C -5.832933,46.476337 -4.040933,44.304591 -4.040933,41.628691 C -4.040933,33.600989 -5.832933,27.085753 -8.040933,27.085753 z"
         style="opacity:0.6;fill:url(#radialGradient3799);fill-opacity:1;stroke:none;stroke-width:0.16;stroke-linecap:round;stroke-linejoin:miter;stroke-miterlimit:4;stroke-dasharray:none;stroke-opacity:1" />
      <path
         transform="matrix(0.4743376,0.5159111,-0.8600541,1.1613959,-5.943113,16.78686)"
         d="M 24.792932,12.643806 A 2.3864853,2.3864853 0 1 1 20.019961,12.643806 A 2.3864853,2.3864853 0 1 1 24.792932,12.643806 z"
         sodipodi:ry="2.3864853"
         sodipodi:rx="2.3864853"
         sodipodi:cy="12.643806"
         sodipodi:cx="22.406446"
         id="path3309"
         style="fill:url(#radialGradient3801);fill-opacity:1;stroke:none;stroke-width:0.16;stroke-linecap:round;stroke-linejoin:miter;stroke-miterlimit:4;stroke-dasharray:none;stroke-opacity:1"
         sodipodi:type="arc" />
      <path
         style="opacity:0.5;fill:url(#radialGradient3803);fill-opacity:1;stroke:none;stroke-width:0.16;stroke-linecap:round;stroke-linejoin:miter;stroke-miterlimit:4;stroke-opacity:1"
         d="M -4.805793,37.88769 C -5.243733,42.801324 -6.541543,38.677777 -8.260643,38.285485 C -9.979773,37.893192 -13.279993,41.100841 -11.458213,38.281845 C -9.605703,35.415294 -10.877763,26.689546 -8.458503,26.463283 C -6.613163,26.290696 -4.368643,32.982634 -4.805793,37.88769 z"
         id="path3311"
         sodipodi:nodetypes="czzsz" />
      <path
         id="path3313"
         d="M -8.269923,27.400407 C -10.751123,27.400407 -12.764843,33.635005 -12.764843,41.316921 C -12.764843,43.877559 -10.751123,45.955759 -8.269923,45.955759 C -5.788723,45.955759 -3.774993,43.877559 -3.774993,41.316921 C -3.774993,33.635005 -5.788723,27.400407 -8.269923,27.400407 z"
         style="opacity:0.5;fill:url(#radialGradient3805);fill-opacity:1;stroke:none;stroke-width:0.16;stroke-linecap:round;stroke-linejoin:miter;stroke-miterlimit:4;stroke-dasharray:none;stroke-opacity:1" />
      <path
         id="path3315"
         d="M -8.259683,27.388731 C -8.469573,27.388731 -8.682423,27.453893 -8.884683,27.54022 C -8.967173,27.576013 -9.053673,27.604367 -9.134683,27.653836 C -9.147333,27.661503 -9.153323,27.683714 -9.165933,27.691708 C -9.294113,27.773481 -9.417003,27.880047 -9.540933,27.994686 C -9.656133,28.100529 -9.773543,28.202485 -9.884683,28.335537 C -9.906383,28.361525 -9.925653,28.384296 -9.947183,28.411281 C -9.948433,28.423641 -9.945923,28.436787 -9.947183,28.449153 C -11.260863,30.113567 -12.256813,33.659078 -12.603433,37.992956 C -12.611433,38.006432 -12.626663,38.017474 -12.634683,38.030829 C -12.645773,38.17063 -12.655893,38.306865 -12.665933,38.447423 C -12.669353,38.497661 -12.662693,38.548476 -12.665933,38.598912 C -12.726283,39.48144 -12.759683,40.383885 -12.759683,41.325713 C -12.759683,43.886351 -10.740883,45.946126 -8.259683,45.946126 C -5.778483,45.946126 -3.759683,43.886351 -3.759683,41.325713 C -3.759683,33.643798 -5.778483,27.388731 -8.259683,27.388731 z"
         style="opacity:0.15;fill:url(#radialGradient3807);fill-opacity:1;stroke:none;stroke-width:0.16;stroke-linecap:round;stroke-linejoin:miter;stroke-miterlimit:4;stroke-dasharray:none;stroke-opacity:1" />
      <path
         id="path3318"
         d="M -8.259683,27.388731 C -8.469573,27.388731 -8.682423,27.453893 -8.884683,27.54022 C -8.967173,27.576013 -9.053673,27.604367 -9.134683,27.653836 C -9.147333,27.661503 -9.153323,27.683714 -9.165933,27.691708 C -9.294113,27.773481 -9.417003,27.880047 -9.540933,27.994686 C -9.656133,28.100529 -9.773543,28.202485 -9.884683,28.335537 C -9.906383,28.361525 -9.925653,28.384296 -9.947183,28.411281 C -9.948433,28.423641 -9.945923,28.436787 -9.947183,28.449153 C -11.260863,30.113567 -12.256813,33.659078 -12.603433,37.992956 C -12.611433,38.006432 -12.626663,38.017474 -12.634683,38.030829 C -12.645773,38.17063 -12.655893,38.306865 -12.665933,38.447423 C -12.669353,38.497661 -12.662693,38.548476 -12.665933,38.598912 C -12.726283,39.48144 -12.759683,40.383885 -12.759683,41.325713 C -12.759683,43.886351 -10.740883,45.946126 -8.259683,45.946126 C -5.778483,45.946126 -3.759683,43.886351 -3.759683,41.325713 C -3.759683,33.643798 -5.778483,27.388731 -8.259683,27.388731 z"
         style="opacity:0.5;fill:url(#radialGradient3809);fill-opacity:1;stroke:none;stroke-width:0.16;stroke-linecap:round;stroke-linejoin:miter;stroke-miterlimit:4;stroke-dasharray:none;stroke-opacity:1" />
      <path
         style="opacity:0.1;fill:url(#radialGradient3811);fill-opacity:1;stroke:none;stroke-width:0.16;stroke-linecap:round;stroke-linejoin:miter;stroke-miterlimit:4;stroke-dasharray:none;stroke-opacity:1"
         d="M -8.269923,36.678082 C -10.751123,36.678082 -12.764843,38.756284 -12.764843,41.316921 C -12.764843,43.877559 -10.751123,45.955759 -8.269923,45.955759 C -8.090623,45.955759 -7.917003,45.904378 -7.743173,45.883276 C -6.682173,43.682772 -5.540583,41.637607 -3.845233,40.664584 C -4.152893,38.412578 -6.003333,36.678082 -8.269923,36.678082 z"
         id="path3320" />
      <path
         style="opacity:0.5;fill:url(#radialGradient3813);fill-opacity:1;stroke:none;stroke-width:0.16;stroke-linecap:round;stroke-linejoin:miter;stroke-miterlimit:4;stroke-dasharray:none;stroke-opacity:1"
         d="M -8.269923,27.400407 C -8.865453,27.400407 -9.435233,27.763024 -9.955513,28.415153 C -9.956763,28.427513 -9.954253,28.439028 -9.955513,28.451394 C -10.368473,32.502962 -11.394853,35.971745 -12.624383,38.018997 C -12.708943,39.085096 -12.764843,40.170432 -12.764843,41.316921 L -3.774993,41.316921 C -3.774993,33.635005 -5.788723,27.400407 -8.269923,27.400407 z"
         id="path3322" />
      <path
         id="path3324"
         d="M -8.269923,27.400407 C -8.865453,27.400407 -9.435233,27.763024 -9.955513,28.415153 C -9.956763,28.427513 -9.954253,28.439028 -9.955513,28.451394 C -10.368473,32.502962 -11.394853,35.971745 -12.624383,38.018997 C -12.708943,39.085096 -12.764843,40.170432 -12.764843,41.316921 L -3.774993,41.316921 C -3.774993,33.635005 -5.788723,27.400407 -8.269923,27.400407 z"
         style="opacity:0.5;fill:url(#radialGradient3815);fill-opacity:1;stroke:none;stroke-width:0.16;stroke-linecap:round;stroke-linejoin:miter;stroke-miterlimit:4;stroke-dasharray:none;stroke-opacity:1" />
      <path
         transform="matrix(1.0552233,0,0,0.4750273,-22.901863,35.846922)"
         d="M 18.777413,11.515128 A 4.2596908,9.7654142 0 1 1 10.258031,11.515128 A 4.2596908,9.7654142 0 1 1 18.777413,11.515128 z"
         sodipodi:ry="9.7654142"
         sodipodi:rx="4.2596908"
         sodipodi:cy="11.515128"
         sodipodi:cx="14.517722"
         id="path3552"
         style="opacity:0.5;fill:url(#radialGradient3817);fill-opacity:1;stroke:none;stroke-width:0.16;stroke-linecap:round;stroke-linejoin:miter;stroke-miterlimit:4;stroke-dasharray:none;stroke-opacity:1"
         sodipodi:type="arc" />
      <path
         sodipodi:type="arc"
         style="opacity:0.15;fill:url(#radialGradient3819);fill-opacity:1;stroke:none;stroke-width:0.16;stroke-linecap:round;stroke-linejoin:miter;stroke-miterlimit:4;stroke-dasharray:none;stroke-opacity:1"
         id="path3340"
         sodipodi:cx="14.517722"
         sodipodi:cy="11.515128"
         sodipodi:rx="4.2596908"
         sodipodi:ry="9.7654142"
         d="M 18.777413,11.515128 A 4.2596908,9.7654142 0 1 1 10.258031,11.515128 A 4.2596908,9.7654142 0 1 1 18.777413,11.515128 z"
         transform="matrix(0.8243936,0,0,0.3711157,-19.972133,37.115965)" />
      <path
         style="fill:url(#radialGradient3821);fill-opacity:1;stroke:none;stroke-width:0.16;stroke-linecap:round;stroke-linejoin:miter;stroke-miterlimit:4;stroke-opacity:1"
         d="M -5.357353,38.951526 C -5.695553,43.161537 -6.899113,39.699126 -8.438743,39.437406 C -9.978383,39.175686 -12.891413,42.051859 -11.294663,39.569919 C -9.670993,37.046114 -9.753073,29.719826 -8.213273,29.719826 C -7.425043,29.719826 -5.019743,34.748874 -5.357353,38.951526 z"
         id="path3342"
         sodipodi:nodetypes="czzsz" />
      <path
         sodipodi:nodetypes="czzsz"
         id="path3344"
         d="M -4.805793,37.88769 C -5.243733,42.801324 -6.541543,38.677777 -8.260643,38.285485 C -9.979773,37.893192 -13.279993,41.100841 -11.458213,38.281845 C -9.605703,35.415294 -9.594023,26.827238 -7.871073,26.912909 C -6.989063,26.956766 -4.368643,32.982634 -4.805793,37.88769 z"
         style="opacity:0.1;fill:#ffffff;fill-opacity:1;stroke:none;stroke-width:0.16;stroke-linecap:round;stroke-linejoin:miter;stroke-miterlimit:4;stroke-opacity:1" />
      <path
         style="opacity:0.1;fill:#ffffbf;fill-opacity:1;stroke:none;stroke-width:0.16;stroke-linecap:round;stroke-linejoin:miter;stroke-miterlimit:4;stroke-opacity:1"
         d="M -5.037503,37.599388 C -5.446563,42.188925 -6.658763,38.337366 -8.264473,37.970948 C -9.870203,37.604531 -12.952743,40.600598 -11.251133,37.967547 C -9.520813,35.290074 -9.509903,27.268484 -7.900603,27.348504 C -7.076763,27.389468 -4.629193,33.017872 -5.037503,37.599388 z"
         id="path3346"
         sodipodi:nodetypes="czzsz" />
      <path
         sodipodi:nodetypes="czzsz"
         id="path3348"
         d="M -5.269213,37.31109 C -5.649383,41.576522 -6.775983,37.996953 -8.268303,37.65641 C -9.760643,37.31587 -12.625493,40.10036 -11.044053,37.653253 C -9.435923,35.164853 -9.425783,27.709731 -7.930123,27.7841 C -7.164463,27.822171 -4.889733,33.053109 -5.269213,37.31109 z"
         style="opacity:0.1;fill:#ffff00;fill-opacity:1;stroke:none;stroke-width:0.16;stroke-linecap:round;stroke-linejoin:miter;stroke-miterlimit:4;stroke-opacity:1" />
      <path
         style="opacity:0.1;fill:#ffffff;fill-opacity:1;stroke:none;stroke-width:0.16;stroke-linecap:round;stroke-linejoin:miter;stroke-miterlimit:4;stroke-opacity:1"
         d="M -5.497413,36.731591 C -5.848703,40.672922 -6.889693,37.36534 -8.268613,37.050671 C -9.647563,36.736007 -11.019113,39.672136 -10.833453,37.04775 C -10.647793,34.423364 -9.541943,27.808829 -7.956143,27.928494 C -7.249783,27.981796 -5.146763,32.797146 -5.497413,36.731591 z"
         id="path3350"
         sodipodi:nodetypes="czzsz" />
      <path
         sodipodi:nodetypes="czzsz"
         id="path3352"
         d="M -5.727363,36.297694 C -6.049763,39.914918 -7.005153,36.879326 -8.270693,36.590535 C -9.536243,36.301745 -10.955323,39.150058 -10.624623,36.587855 C -10.293923,34.025652 -9.426833,28.079051 -7.983913,28.218489 C -7.336803,28.281023 -5.405553,32.686783 -5.727363,36.297694 z"
         style="opacity:0.15;fill:#ffffbf;fill-opacity:1;stroke:none;stroke-width:0.16;stroke-linecap:round;stroke-linejoin:miter;stroke-miterlimit:4;stroke-opacity:1" />
      <path
         style="opacity:0.75;fill:url(#radialGradient3823);fill-opacity:1;stroke:none;stroke-width:0.16;stroke-linecap:round;stroke-linejoin:miter;stroke-miterlimit:4;stroke-opacity:1"
         d="M -5.727363,36.465087 C -6.049763,39.738085 -7.005153,36.99137 -8.270693,36.730061 C -9.536243,36.468753 -10.416093,39.265972 -10.624623,36.727635 C -10.833153,34.189298 -9.594583,28.960735 -7.983913,29.154725 C -7.338603,29.232447 -5.405553,33.197802 -5.727363,36.465087 z"
         id="path3354"
         sodipodi:nodetypes="czzsz" />
      <path
         sodipodi:nodetypes="czzsz"
         id="path3356"
         d="M -6.282683,35.478368 C -6.506443,37.749979 -7.169523,35.843632 -8.047863,35.662272 C -8.926223,35.480912 -10.612393,36.96383 -9.681603,35.660589 C -8.735093,34.335359 -8.729133,30.365034 -7.848823,30.40464 C -7.398173,30.424915 -6.059333,33.210722 -6.282683,35.478368 z"
         style="opacity:0.75;fill:url(#radialGradient3825);fill-opacity:1;stroke:none;stroke-width:0.16;stroke-linecap:round;stroke-linejoin:miter;stroke-miterlimit:4;stroke-opacity:1" />
      <path
         style="opacity:0.39245282;fill:url(#radialGradient3827);fill-opacity:1;stroke:none;stroke-width:0.16;stroke-linecap:round;stroke-linejoin:miter;stroke-miterlimit:4;stroke-dasharray:none;stroke-opacity:1"
         d="M -10.340533,38.593188 C -11.464843,39.875873 -11.762773,41.95318 -10.972633,43.657615 C -10.042163,45.664768 -7.958313,46.402482 -6.302123,45.274827 C -6.184123,45.194481 -6.093073,45.070941 -5.986073,44.97692 C -7.416613,44.76908 -8.681433,43.915403 -9.778663,42.636218 C -9.781163,42.563838 -9.778713,42.494011 -9.778663,42.423427 C -10.335603,41.634109 -10.442233,40.590649 -10.094713,38.933654 C -10.118233,38.933127 -10.141413,38.934138 -10.164943,38.933654 C -10.231543,38.818604 -10.271173,38.708488 -10.340533,38.593188 z M -4.546293,41.955286 L -4.756993,42.040403 C -4.702303,42.102748 -4.635323,42.147348 -4.581413,42.210636 C -4.571613,42.127813 -4.551983,42.038826 -4.546293,41.955286 z"
         id="path3358" />
      <path
         sodipodi:type="arc"
         style="fill:url(#radialGradient3829);fill-opacity:1;stroke:none;stroke-width:0.16;stroke-linecap:round;stroke-linejoin:miter;stroke-miterlimit:4;stroke-dasharray:none;stroke-opacity:1"
         id="path3360"
         sodipodi:cx="22.406446"
         sodipodi:cy="12.643806"
         sodipodi:rx="2.3864853"
         sodipodi:ry="2.3864853"
         d="M 24.792932,12.643806 A 2.3864853,2.3864853 0 1 1 20.019961,12.643806 A 2.3864853,2.3864853 0 1 1 24.792932,12.643806 z"
         transform="matrix(1.009274,0.6985752,-0.6941963,1.4730577,-22.195073,7.4411157)" />
    </g>
    <path
       style="opacity:0.83495148;fill:#555753;fill-opacity:1;fill-rule:nonzero;stroke:none;stroke-width:0.30000001;stroke-linecap:round;stroke-linejoin:round;stroke-miterlimit:4;stroke-dasharray:none;stroke-opacity:1"
       d="M 25.039273,20.40468 C 24.83348,20.40468 24.642403,20.562681 24.642404,20.768475 C 24.642404,20.974266 24.833481,21.13227 25.039273,21.132269 C 25.161957,21.132269 27.641328,21.529134 27.817318,21.529134 C 28.05199,21.529134 28.21419,21.366927 28.214188,21.132269 C 28.214188,20.897608 28.05199,20.702327 27.817318,20.702327 C 27.72243,20.702327 25.167899,20.40468 25.039273,20.40468 z "
       id="path3432"
       sodipodi:nodetypes="csssssc" />
    <path
       transform="matrix(0.8715458,0,0,0.8715458,3.8711219,3.0875554)"
       d="M 27.946329 20.690062 A 0.4877696 0.4877696 0 1 1  26.970789,20.690062 A 0.4877696 0.4877696 0 1 1  27.946329 20.690062 z"
       sodipodi:ry="0.4877696"
       sodipodi:rx="0.4877696"
       sodipodi:cy="20.690062"
       sodipodi:cx="27.458559"
       id="path3438"
       style="opacity:0.83495148;fill:#babdb6;fill-opacity:1;fill-rule:nonzero;stroke:none;stroke-width:0.30000001;stroke-linecap:round;stroke-linejoin:round;stroke-miterlimit:4;stroke-dasharray:none;stroke-opacity:1"
       sodipodi:type="arc" />
    <path
       sodipodi:type="arc"
       style="opacity:0.83495148;fill:#2e3436;fill-opacity:1;fill-rule:nonzero;stroke:none;stroke-width:0.30000001;stroke-linecap:round;stroke-linejoin:round;stroke-miterlimit:4;stroke-dasharray:none;stroke-opacity:1"
       id="path3442"
       sodipodi:cx="27.458559"
       sodipodi:cy="20.690062"
       sodipodi:rx="0.4877696"
       sodipodi:ry="0.4877696"
       d="M 27.946329 20.690062 A 0.4877696 0.4877696 0 1 1  26.970789,20.690062 A 0.4877696 0.4877696 0 1 1  27.946329 20.690062 z"
       transform="matrix(0.5154276,0,0,0.5154276,13.649589,10.455646)" />
    <path
       style="opacity:1;color:#000000;fill:url(#linearGradient3390);fill-opacity:1;fill-rule:evenodd;stroke:none;stroke-width:1px;stroke-linecap:butt;stroke-linejoin:miter;marker:none;marker-start:none;marker-mid:none;marker-end:none;stroke-miterlimit:4;stroke-dasharray:none;stroke-dashoffset:0;stroke-opacity:1;visibility:visible;display:inline;overflow:visible;enable-background:accumulate"
       d="M 15.481454,12.798117 L 15.481454,13.095763 L 16.473607,13.161902 C 16.473607,13.161902 16.308589,14.049648 16.308252,14.253286 L 15.481454,14.253286 L 15.481454,14.319423 C 15.458753,14.318469 15.438169,14.319423 15.415306,14.319423 C 14.518936,14.319423 13.794781,15.043578 13.794781,15.93996 C 13.794781,16.83633 14.518936,17.560483 15.415306,17.560485 C 15.437958,17.560485 15.458939,17.561604 15.481454,17.560485 L 16.3744,17.560485 L 16.473607,19.47867 C 16.492063,19.727812 18.557147,19.544806 18.557148,19.544806 C 18.557148,19.544806 18.75127,19.965577 17.813131,20.272603 L 15.439037,20.437961 C 15.439037,20.437961 13.534733,20.342252 13.49795,20.892039 L 13.430986,21.892922 L 26.924374,21.462991 C 26.924374,21.462991 27.355281,20.715867 26.527516,20.272397 C 26.113626,20.050657 24.77431,20.342185 24.08018,20.173176 C 23.38605,20.004182 23.263617,19.323541 23.187233,19.247156 L 23.187233,12.9304 L 17.564995,12.963473 L 15.481454,12.798117 z M 17.498847,13.426477 C 17.878079,13.426477 18.160292,13.805097 18.160292,14.253286 C 18.160292,14.701467 17.878079,15.047014 17.498847,15.047014 C 17.119607,15.047014 16.80433,14.701467 16.80433,14.253286 C 16.80433,13.805097 17.119607,13.426477 17.498847,13.426477 z M 20.839117,13.426477 C 21.287306,13.426477 21.632856,13.805097 21.632856,14.253286 C 21.632855,14.701467 21.287309,15.047014 20.839117,15.047014 C 20.390939,15.047014 20.012318,14.701467 20.012318,14.253286 C 20.012318,13.805097 20.39094,13.426477 20.839117,13.426477 z M 22.195079,15.410809 C 22.643256,15.410809 23.021879,15.789418 23.021879,16.237608 C 23.021876,16.685787 22.643258,17.031334 22.195079,17.031334 C 21.746888,17.031335 21.368281,16.685787 21.368281,16.237608 C 21.36828,15.789419 21.746888,15.410809 22.195079,15.410809 z M 19.450094,15.543091 C 19.898284,15.543091 20.276893,15.921711 20.276893,16.36989 C 20.276893,16.81808 19.898285,17.163625 19.450094,17.163625 C 19.001913,17.163624 18.656368,16.818081 18.656368,16.36989 C 18.656367,15.92171 19.001913,15.543091 19.450094,15.543091 z M 17.498847,17.527412 C 17.878079,17.527412 18.160292,17.906032 18.160292,18.354214 C 18.160292,18.802402 17.878079,19.147949 17.498847,19.147949 C 17.119607,19.14795 16.80433,18.802402 16.80433,18.354214 C 16.80433,17.906033 17.119607,17.527412 17.498847,17.527412 z M 20.839117,17.659707 C 21.287306,17.659707 21.632856,18.038314 21.632856,18.486504 C 21.632855,18.934697 21.287309,19.28023 20.839117,19.28023 C 20.390939,19.280229 20.012318,18.934696 20.012318,18.486504 C 20.012318,18.038315 20.39094,17.659707 20.839117,17.659707 z "
       id="path5657"
       sodipodi:nodetypes="ccccccsssccccccsccsscccccsssccsssccsssccsssccsssccsssc" />
    <path
       style="opacity:1;color:#000000;fill:url(#linearGradient3423);fill-opacity:1;fill-rule:evenodd;stroke:none;stroke-width:1px;stroke-linecap:butt;stroke-linejoin:miter;marker:none;marker-start:none;marker-mid:none;marker-end:none;stroke-miterlimit:4;stroke-dasharray:none;stroke-dashoffset:0;stroke-opacity:1;visibility:visible;display:inline;overflow:visible;enable-background:accumulate"
       d="M 15.473263,12.794197 L 15.473263,13.088826 L 16.475009,13.147749 C 16.475009,13.147749 16.298564,14.063707 16.298227,14.267342 L 15.473263,14.267342 L 15.473263,14.326265 C 15.450562,14.325312 15.437202,14.326265 15.41434,14.326265 C 14.51797,14.326265 13.79388,15.050356 13.79388,15.946725 C 13.79388,16.843102 14.51797,17.567182 15.41434,17.567184 C 15.436992,17.567184 15.450753,17.568303 15.473263,17.567184 L 16.386618,17.567184 L 16.475009,19.482272 C 16.490815,19.69574 17.837718,19.604757 18.272238,19.570663 L 18.272238,12.97098 L 17.565134,12.97098 L 15.473263,12.794197 z M 17.506211,13.412923 C 17.885439,13.412923 18.154392,13.81915 18.154392,14.267342 C 18.154392,14.715534 17.885439,15.033383 17.506211,15.033383 C 17.12697,15.033383 16.799093,14.715534 16.799093,14.267342 C 16.799093,13.81915 17.12697,13.412923 17.506211,13.412923 z M 17.506211,17.537719 C 17.885439,17.537719 18.154392,17.914495 18.154392,18.362679 C 18.154392,18.810872 17.885439,19.158175 17.506211,19.158175 C 17.12697,19.158176 16.799093,18.810871 16.799093,18.362679 C 16.799093,17.914496 17.12697,17.537719 17.506211,17.537719 z "
       id="path3392"
       sodipodi:nodetypes="ccccccsssccccccccsssccsssc" />
    <path
       style="opacity:1;fill:url(#linearGradient3366);fill-opacity:1;fill-rule:nonzero;stroke:none;stroke-width:0.30000001;stroke-linecap:round;stroke-linejoin:round;stroke-miterlimit:4;stroke-opacity:1"
       d="M 23.187233,18.883374 L 23.187233,19.247156 C 23.218635,19.278559 23.271389,19.417943 23.352601,19.577879 C 23.373714,19.619375 23.35781,19.63301 23.385674,19.677099 C 23.403184,19.706287 23.430873,19.713925 23.451809,19.743247 C 23.58064,19.921238 23.773806,20.09859 24.08018,20.173176 C 24.253712,20.215426 24.480382,20.238611 24.70855,20.239324 C 25.397472,20.239025 26.217097,20.106088 26.527516,20.272397 C 26.527516,20.272397 26.362149,20.090498 25.832998,19.974748 C 25.303847,19.85899 24.80791,19.809384 24.410901,19.809384 C 23.851072,19.809384 23.392612,19.418176 23.187233,18.883374 z M 18.424867,19.941675 L 13.199484,20.107032 C 13.199484,20.107031 12.495976,20.126839 11.777385,20.140103 C 11.501975,20.145189 11.339179,20.197981 11.082871,20.338544 C 10.826564,20.479092 10.75215,20.702327 10.75215,20.702327 C 10.884822,20.528858 11.05615,20.40468 11.248228,20.40468 L 11.413592,20.40468 L 13.662487,20.636192 C 13.817925,20.544689 14.026559,20.508788 14.224711,20.503899 C 14.247032,20.500272 14.268191,20.507141 14.290859,20.503899 C 14.832709,20.426525 15.44838,20.437751 15.44838,20.437751 L 17.829569,20.272397 C 18.171712,20.160419 18.319577,20.057976 18.424867,19.941675 z "
       id="path2310" />
    <path
       style="opacity:1;fill:url(#linearGradient3491);fill-opacity:1;fill-rule:nonzero;stroke:none;stroke-width:0.30000001;stroke-linecap:round;stroke-linejoin:round;stroke-miterlimit:4;stroke-opacity:1"
       d="M 13.490387,19.299569 C 13.490387,19.299569 14.087357,19.382359 14.711914,19.382359 C 15.336481,19.382359 15.98864,19.299569 15.98864,19.299569 L 15.98864,20.111492 C 15.98864,20.111492 15.377883,20.235685 14.753316,20.235685 C 14.128749,20.235685 13.490387,20.111492 13.490387,20.111492 L 13.490387,19.299569 z "
       id="rect2307"
       sodipodi:nodetypes="csccscc" />
    <path
       transform="matrix(0.5154276,0,0,0.5154276,1.1866146,5.2756847)"
       d="M 27.946329 20.690062 A 0.4877696 0.4877696 0 1 1  26.970789,20.690062 A 0.4877696 0.4877696 0 1 1  27.946329 20.690062 z"
       sodipodi:ry="0.4877696"
       sodipodi:rx="0.4877696"
       sodipodi:cy="20.690062"
       sodipodi:cx="27.458559"
       id="path2288"
       style="opacity:1;fill:#020202;fill-opacity:1;fill-rule:nonzero;stroke:none;stroke-width:0.30000001;stroke-linecap:round;stroke-linejoin:round;stroke-miterlimit:4;stroke-dasharray:none;stroke-opacity:1"
       sodipodi:type="arc" />
    <path
       sodipodi:nodetypes="cssssscccccccsscccssssccsssssc"
       id="path2311"
       d="M 17.234272,13.492623 C 16.985614,13.620121 16.80433,13.917146 16.80433,14.253286 C 16.80433,14.701467 17.119607,15.047014 17.498847,15.047014 C 17.627846,15.047014 17.730302,14.985127 17.829569,14.914719 C 17.757339,14.945742 17.681714,14.980867 17.598067,14.980867 C 17.218828,14.980867 16.90355,14.635322 16.90355,14.187142 C 16.903551,13.897681 17.038966,13.640796 17.234272,13.492623 z M 15.580667,14.187142 L 15.580667,14.253286 L 16.308252,14.253286 C 16.308274,14.241217 16.307145,14.203684 16.308252,14.187142 L 15.580667,14.187142 z M 15.481454,14.253286 C 15.226891,14.258375 14.999517,14.34261 14.786935,14.451717 C 14.980883,14.369816 15.19121,14.319423 15.415306,14.319423 C 15.438169,14.319423 15.458753,14.318469 15.481454,14.319423 L 15.481454,14.253286 z M 19.152446,15.609238 C 18.86619,15.736735 18.656367,16.033754 18.656368,16.36989 C 18.656368,16.818081 19.001913,17.163624 19.450094,17.163625 C 19.604951,17.163625 19.661363,17.097482 19.549315,17.097482 C 19.101124,17.09748 18.755589,16.751935 18.755589,16.30375 C 18.755589,16.007945 18.921244,15.755581 19.152446,15.609238 z M 17.234272,17.593559 C 16.985614,17.721057 16.80433,18.01808 16.80433,18.354214 C 16.80433,18.802402 17.119607,19.14795 17.498847,19.147949 C 17.627846,19.147949 17.730302,19.086061 17.829569,19.015655 C 17.757339,19.046678 17.681714,19.081803 17.598067,19.081803 C 17.218828,19.081803 16.90355,18.736255 16.90355,18.288077 C 16.903551,17.998617 17.038966,17.741731 17.234272,17.593559 z "
       style="opacity:0.73300967;color:#000000;fill:#babdb6;fill-opacity:1;fill-rule:evenodd;stroke:none;stroke-width:1px;stroke-linecap:butt;stroke-linejoin:miter;marker:none;marker-start:none;marker-mid:none;marker-end:none;stroke-miterlimit:4;stroke-dasharray:none;stroke-dashoffset:0;stroke-opacity:1;visibility:visible;display:inline;overflow:visible;enable-background:accumulate" />
    <path
       id="path2313"
       d="M 15.382232,12.731971 L 15.382232,13.02962 L 15.481454,13.02962 L 15.481454,12.798117 L 17.564995,12.963473 L 23.088026,12.9304 L 23.088026,12.864253 L 17.465774,12.897326 L 15.382232,12.731971 z M 16.3744,13.161902 C 16.357093,13.255671 16.209346,13.995565 16.209031,14.187142 L 15.382232,14.187142 L 15.382232,14.253286 C 15.359532,14.252332 15.338958,14.253286 15.316086,14.253286 C 14.419715,14.253286 13.695561,14.977444 13.695561,15.873814 C 13.69556,16.365501 13.913105,16.800519 14.257785,17.097482 C 13.964695,16.804392 13.794781,16.38814 13.794781,15.93996 C 13.794781,15.043578 14.518936,14.319423 15.415306,14.319423 C 15.438169,14.319423 15.458753,14.318469 15.481454,14.319423 L 15.481454,14.253286 L 16.308252,14.253286 C 16.308589,14.049648 16.473607,13.161902 16.473607,13.161902 L 16.3744,13.161902 z M 14.257785,17.097482 C 14.330943,17.160502 14.405583,17.213555 14.489286,17.262836 C 14.416607,17.210867 14.320801,17.160489 14.257785,17.097482 z M 21.136766,13.492623 C 21.367972,13.638966 21.533635,13.891332 21.533635,14.187142 C 21.533633,14.635322 21.188087,14.980867 20.739909,14.980867 C 20.627861,14.980867 20.507708,14.954116 20.409187,14.914719 C 20.534679,14.987201 20.684273,15.047014 20.839117,15.047014 C 21.287309,15.047014 21.632855,14.701467 21.632856,14.253286 C 21.632856,13.917146 21.423033,13.620121 21.136766,13.492623 z M 22.459655,15.476943 C 22.712624,15.620204 22.922659,15.866697 22.922659,16.171462 C 22.922655,16.619653 22.54405,16.965188 22.095859,16.965188 C 21.983812,16.965188 21.863659,16.938446 21.765137,16.899044 C 21.890638,16.971522 22.040223,17.031334 22.195079,17.031334 C 22.643258,17.031334 23.021876,16.685787 23.021879,16.237608 C 23.021879,15.879922 22.784856,15.588922 22.459655,15.476943 z M 19.714669,15.609238 C 19.967637,15.752486 20.177686,15.998978 20.177686,16.30375 C 20.177684,16.751933 19.799064,17.097482 19.350886,17.097482 C 19.24961,17.097482 19.141223,17.063823 19.053237,17.031334 C 19.173554,17.103815 19.29525,17.163625 19.450094,17.163625 C 19.898285,17.163625 20.276893,16.81808 20.276893,16.36989 C 20.276893,16.012204 20.039883,15.721204 19.714669,15.609238 z M 16.275179,17.560485 L 16.3744,19.412524 C 16.377556,19.455162 16.437307,19.491331 16.539755,19.511736 C 16.515991,19.497412 16.475032,19.49783 16.473607,19.47867 L 16.3744,17.560485 L 16.275179,17.560485 z M 21.136766,17.725852 C 21.367972,17.872194 21.533635,18.124561 21.533635,18.420358 C 21.533633,18.868549 21.188087,19.21409 20.739909,19.21409 C 20.627861,19.21409 20.507708,19.187346 20.409187,19.147949 C 20.534679,19.220431 20.684273,19.28023 20.839117,19.28023 C 21.287309,19.28023 21.632855,18.934697 21.632856,18.486504 C 21.632856,18.150361 21.423033,17.853338 21.136766,17.725852 z M 18.45794,19.544806 C 18.468558,19.67754 18.400883,19.975978 17.697276,20.20625 L 15.316086,20.371612 C 15.316085,20.371612 13.434699,20.284842 13.397912,20.83462 L 13.331765,21.826782 L 13.430986,21.826782 L 13.497133,20.900768 C 13.533909,20.350981 15.44838,20.43775 15.44838,20.437751 L 17.829569,20.272397 C 18.767695,19.965368 18.557148,19.544806 18.557148,19.544806 C 18.557148,19.544806 18.467063,19.544025 18.45794,19.544806 z M 23.980972,20.107032 C 24.017589,20.120113 24.039787,20.163345 24.08018,20.173176 C 24.761295,20.339016 26.054801,20.073363 26.494443,20.272397 C 26.466383,20.254612 26.459947,20.223202 26.428296,20.20625 C 26.014418,19.984511 24.675101,20.276037 23.980972,20.107032 z "
       style="opacity:1;color:#000000;fill:url(#linearGradient3499);fill-opacity:1;fill-rule:evenodd;stroke:none;stroke-width:1px;stroke-linecap:butt;stroke-linejoin:miter;marker:none;marker-start:none;marker-mid:none;marker-end:none;stroke-miterlimit:4;stroke-dasharray:none;stroke-dashoffset:0;stroke-opacity:1;visibility:visible;display:inline;overflow:visible;enable-background:accumulate"
       sodipodi:nodetypes="cccccccccccccsscssccccccsccsssssccsssssccssssscccsccccssssscccccccccccccsssc" />
    <path
       style="opacity:0.53398061;fill:url(#linearGradient3374);fill-opacity:1;fill-rule:nonzero;stroke:none;stroke-width:0.30000001;stroke-linecap:round;stroke-linejoin:round;stroke-miterlimit:4;stroke-dasharray:none;stroke-opacity:1"
       d="M 13.704679,13.996434 C 13.684852,14.005239 13.667928,14.015198 13.648405,14.024571 L 14.239273,14.052709 L 14.267406,14.052709 C 14.278588,14.046916 14.284246,14.030165 14.295538,14.024571 L 13.704679,13.996434 z M 13.423307,14.165252 C 13.384804,14.189953 13.347757,14.222762 13.310759,14.249654 L 13.901627,14.277792 C 13.938822,14.247687 13.974978,14.22098 14.014175,14.193385 L 13.423307,14.165252 z M 13.141948,14.390342 C 13.091936,14.434257 13.047224,14.483294 13.001263,14.531026 L 13.620268,14.559165 C 13.659736,14.512245 13.689482,14.4618 13.732816,14.418478 L 13.141948,14.390342 z M 12.860576,14.671709 C 12.826972,14.713305 12.806455,14.768413 12.776168,14.812385 L 13.423307,14.840524 C 13.451384,14.793271 13.476181,14.744652 13.50772,14.699841 L 12.860576,14.671709 z M 12.663629,14.953072 C 12.639273,14.995889 12.628276,15.049294 12.607355,15.093758 L 13.282625,15.121896 C 13.301876,15.074707 13.316427,15.026634 13.338896,14.981208 L 12.663629,14.953072 z M 12.55108,15.234432 C 12.533181,15.281672 12.509924,15.327319 12.494807,15.375118 L 13.198223,15.403254 C 13.210124,15.355736 13.211309,15.308771 13.22636,15.26257 L 12.55108,15.234432 z M 12.466669,15.515802 C 12.45552,15.561155 12.446911,15.61022 12.438532,15.656489 L 13.141948,15.68462 C 13.145304,15.667009 13.138646,15.646455 13.141948,15.628351 C 13.145736,15.601187 13.165275,15.570765 13.170086,15.543939 L 12.466669,15.515802 z M 12.438532,15.797163 C 12.433804,15.845104 12.410394,15.887401 12.410394,15.937848 L 13.113811,15.965986 C 13.113685,15.956408 13.113811,15.947459 13.113811,15.937848 C 13.113811,15.90062 13.140056,15.862062 13.141948,15.8253 L 12.438532,15.797163 z M 12.438532,16.078533 C 12.441972,16.128195 12.459915,16.17057 12.466669,16.219211 L 13.141948,16.247344 C 13.135088,16.20122 13.145791,16.153719 13.141948,16.106671 L 12.438532,16.078533 z M 12.466669,16.359892 C 12.477294,16.411039 12.508682,16.450845 12.522943,16.500581 L 13.22636,16.528716 C 13.211742,16.479487 13.181155,16.438678 13.170086,16.388032 L 12.466669,16.359892 z M 12.55108,16.641265 C 12.573309,16.702381 12.607934,16.751623 12.635492,16.810074 L 13.338896,16.838211 C 13.31543,16.789365 13.274247,16.748372 13.254493,16.697535 L 12.55108,16.641265 z M 12.719904,16.95076 C 12.749174,17.002061 12.79934,17.042655 12.83244,17.091448 L 13.479582,17.119585 C 13.449441,17.074966 13.421936,17.025831 13.395171,16.978897 L 12.719904,16.95076 z M 12.944989,17.232125 C 12.98685,17.284537 13.039931,17.324165 13.085674,17.372806 L 13.732816,17.429079 C 13.67996,17.376238 13.63921,17.318411 13.592131,17.260259 L 12.944989,17.232125 z M 13.22636,17.541629 C 13.262655,17.573617 13.300537,17.596618 13.338896,17.626042 L 14.014175,17.65418 C 13.974978,17.626577 13.938822,17.599872 13.901627,17.569766 L 13.22636,17.541629 z M 13.620268,17.794852 C 13.66378,17.818115 13.715622,17.830206 13.760949,17.851124 L 14.408083,17.879263 C 14.369593,17.862981 14.332834,17.841443 14.295538,17.82299 L 13.620268,17.794852 z "
       id="path2329" />
    <path
       id="path3381"
       d="M 27.585817,21.429919 L 13.199484,21.892922 C 13.199484,21.892923 13.199484,38.197442 13.199484,38.197442 L 27.155887,36.907638 C 27.391612,36.79845 27.549901,36.615949 27.585817,36.378481 L 27.585817,21.429919 z "
       style="opacity:1;fill:url(#linearGradient3346);fill-opacity:1;fill-rule:nonzero;stroke:none;stroke-width:0.30000001;stroke-linecap:round;stroke-linejoin:round;stroke-miterlimit:4;stroke-opacity:1"
       sodipodi:nodetypes="cccccc" />
    <path
       id="path3383"
       d="M 13.199484,21.892922 C 13.199484,21.892923 12.494347,21.943031 11.777385,21.892922 C 11.06042,21.842823 10.322217,21.66142 10.322217,21.66142 L 10.322217,36.676128 C 10.398866,37.012565 10.594578,37.321235 10.884441,37.569074 C 11.139679,37.708389 11.459873,37.860555 11.777385,37.96594 C 12.494347,38.2039 13.199484,38.197442 13.199484,38.197442 L 13.199484,21.892922 z "
       style="opacity:1;fill:url(#linearGradient3338);fill-opacity:1;fill-rule:nonzero;stroke:none;stroke-width:0.30000001;stroke-linecap:round;stroke-linejoin:round;stroke-miterlimit:4;stroke-opacity:1"
       sodipodi:nodetypes="cscccscc" />
    <rect
       style="opacity:0.61162792;fill:#555753;fill-opacity:1;fill-rule:nonzero;stroke:none;stroke-width:0.69999999;stroke-linecap:round;stroke-linejoin:miter;stroke-miterlimit:4;stroke-dasharray:none;stroke-opacity:1"
       id="rect1951"
       width="40.001965"
       height="10.004759"
       x="-0.0019644466"
       y="30" />
    <text
       xml:space="preserve"
       style="font-size:12px;font-style:normal;font-weight:normal;fill:#eeeeec;fill-opacity:1;stroke:none;stroke-width:1px;stroke-linecap:butt;stroke-linejoin:miter;stroke-opacity:1;font-family:Bitstream Vera Sans"
       x="12.928415"
       y="39.168156"
       id="text2840"><tspan
         sodipodi:role="line"
         id="tspan2842"
         x="12.928415"
         y="39.168156">La</tspan></text>
    <path
       style="opacity:0.52427183;color:#000000;fill:url(#linearGradient2341);fill-opacity:1;fill-rule:evenodd;stroke:none;stroke-width:1px;stroke-linecap:butt;stroke-linejoin:miter;marker:none;marker-start:none;marker-mid:none;marker-end:none;stroke-miterlimit:4;stroke-dasharray:none;stroke-dashoffset:0;stroke-opacity:1;visibility:visible;display:inline;overflow:visible;enable-background:accumulate"
       d="M 32.535038,3.6337968 C 32.63928,3.6557798 32.72709,3.7308417 32.769743,3.8035079 C 32.899891,4.2133261 33.875431,7.3588329 34.560733,10.851907 C 35.212126,14.17215 35.41124,17.377158 35.456228,18.131405 C 35.456848,18.141773 35.426789,18.179886 35.427343,18.189176 C 35.425278,18.235917 35.467745,18.288602 35.456228,18.333609 C 35.408682,18.519331 35.260524,18.67494 35.080697,18.795805 C 35.067039,18.804982 35.066089,18.816058 35.051813,18.824689 L 28.176732,20.760112 L 28.2345,20.904545 L 35.398447,18.882457 C 35.412731,18.873837 35.413682,18.862749 35.427343,18.853573 C 35.607171,18.732719 35.755327,18.577112 35.802866,18.391387 C 35.814394,18.346384 35.8008,18.293684 35.802866,18.246947 C 35.802321,18.237664 35.803493,18.199555 35.802866,18.189176 C 35.757885,17.434926 35.558768,14.229927 34.907379,10.90968 C 34.203511,7.3219599 33.142753,3.9788382 33.058609,3.7168468 C 33.029007,3.6664084 33.00694,3.6328161 32.903341,3.5435259 L 32.535038,3.6337968 z "
       id="path3447"
       sodipodi:nodetypes="cssssssccccsssssscc" />
    <path
       style="opacity:1;fill:#bbbbbb;fill-opacity:1;fill-rule:nonzero;stroke:none;stroke-width:0.30000001;stroke-linecap:round;stroke-linejoin:round;stroke-miterlimit:4;stroke-dasharray:none;stroke-opacity:1"
       d="M 27.771218,21.363771 L 13.947096,21.824851 C 12.640525,21.823961 11.959599,21.76594 11.367478,21.595272 C 11.367478,21.595272 11.248545,21.621528 11.135976,21.628347 C 11.039163,21.634209 10.966377,21.652641 10.937543,21.66142 C 10.937543,21.66142 11.675748,21.842823 12.39271,21.892922 C 13.109677,21.943031 13.814814,21.892923 13.814814,21.892922 L 28.068866,21.429919 L 27.771218,21.363771 z "
       id="path3397"
       sodipodi:nodetypes="cccscsccc" />
  </g>
</svg>
