<?xml version="1.0" encoding="UTF-8" standalone="no"?>
<!-- Created with Inkscape (http://www.inkscape.org/) -->
<svg
   xmlns:dc="http://purl.org/dc/elements/1.1/"
   xmlns:cc="http://creativecommons.org/ns#"
   xmlns:rdf="http://www.w3.org/1999/02/22-rdf-syntax-ns#"
   xmlns:svg="http://www.w3.org/2000/svg"
   xmlns="http://www.w3.org/2000/svg"
   xmlns:xlink="http://www.w3.org/1999/xlink"
   xmlns:sodipodi="http://sodipodi.sourceforge.net/DTD/sodipodi-0.dtd"
   xmlns:inkscape="http://www.inkscape.org/namespaces/inkscape"
   width="40"
   height="40"
   id="svg2193"
   sodipodi:version="0.32"
   inkscape:version="0.46"
   version="1.0"
   sodipodi:docbase="/home/jra/Desktop"
   sodipodi:docname="sveisemaske-didymium-glasswithPraseodymium8sample.svg"
   inkscape:output_extension="org.inkscape.output.svg.inkscape">
  <defs
     id="defs2195">
    <linearGradient
       id="linearGradient3703">
      <stop
         id="stop3705"
         offset="0"
         style="stop-color:#ffffff;stop-opacity:0;" />
      <stop
         style="stop-color:#ffffff;stop-opacity:1;"
         offset="0.5"
         id="stop3709" />
      <stop
         id="stop3707"
         offset="1"
         style="stop-color:#ffffff;stop-opacity:0;" />
    </linearGradient>
    <linearGradient
       id="linearGradient3239">
      <stop
         style="stop-color:#ffffff;stop-opacity:1;"
         offset="0"
         id="stop3241" />
      <stop
         style="stop-color:#ffffff;stop-opacity:0;"
         offset="1"
         id="stop3243" />
    </linearGradient>
    <linearGradient
       id="linearGradient3220">
      <stop
         id="stop3222"
         offset="0"
         style="stop-color:#000000;stop-opacity:1" />
      <stop
         id="stop3224"
         offset="1"
         style="stop-color:#c1c3c0;stop-opacity:1" />
    </linearGradient>
    <linearGradient
       id="linearGradient3291">
      <stop
         id="stop3293"
         offset="0"
         style="stop-color:#000000;stop-opacity:1;" />
      <stop
         id="stop3295"
         offset="1"
         style="stop-color:#000000;stop-opacity:0;" />
    </linearGradient>
    <radialGradient
       inkscape:collect="always"
       xlink:href="#linearGradient3291"
       id="radialGradient2595"
       gradientUnits="userSpaceOnUse"
       gradientTransform="matrix(1,0,0,0.197802,0,92.82166)"
       cx="63.912209"
       cy="115.70919"
       fx="75.857941"
       fy="115.70919"
       r="63.912209" />
    <linearGradient
       inkscape:collect="always"
       xlink:href="#linearGradient3239"
       id="linearGradient3428"
       x1="21.841879"
       y1="34.649776"
       x2="21.138021"
       y2="23.457684"
       gradientUnits="userSpaceOnUse" />
    <radialGradient
       inkscape:collect="always"
       xlink:href="#linearGradient3239"
       id="radialGradient3436"
       cx="11.439474"
       cy="28.844543"
       fx="11.439474"
       fy="28.844543"
       r="4.78125"
       gradientTransform="matrix(1.2613762,-0.7686742,1.0846731,1.779923,-34.672653,-10.744928)"
       gradientUnits="userSpaceOnUse" />
    <linearGradient
       inkscape:collect="always"
       xlink:href="#linearGradient3239"
       id="linearGradient3444"
       x1="31.46489"
       y1="23.646936"
       x2="3.2012551"
       y2="-0.25414154"
       gradientUnits="userSpaceOnUse" />
    <linearGradient
       inkscape:collect="always"
       xlink:href="#linearGradient3239"
       id="linearGradient3469"
       x1="25.059847"
       y1="28.732904"
       x2="10.966019"
       y2="2.9562585"
       gradientUnits="userSpaceOnUse" />
    <linearGradient
       inkscape:collect="always"
       xlink:href="#linearGradient3703"
       id="linearGradient3473"
       gradientUnits="userSpaceOnUse"
       x1="28.480143"
       y1="11.897125"
       x2="12.566907"
       y2="11.66851" />
    <linearGradient
       inkscape:collect="always"
       xlink:href="#linearGradient3239"
       id="linearGradient3479"
       gradientUnits="userSpaceOnUse"
       x1="28.461962"
       y1="17.107035"
       x2="19.126883"
       y2="9.0105925" />
    <linearGradient
       inkscape:collect="always"
       xlink:href="#linearGradient3291"
       id="linearGradient3507"
       x1="26.903963"
       y1="10.15625"
       x2="20.949984"
       y2="19.089968"
       gradientUnits="userSpaceOnUse" />
    <linearGradient
       inkscape:collect="always"
       xlink:href="#linearGradient3291"
       id="linearGradient3528"
       x1="22.668777"
       y1="9.7673912"
       x2="22.668777"
       y2="8.6459312"
       gradientUnits="userSpaceOnUse" />
    <linearGradient
       inkscape:collect="always"
       xlink:href="#linearGradient3703"
       id="linearGradient3720"
       gradientUnits="userSpaceOnUse"
       x1="0.076843657"
       y1="13.125169"
       x2="15.017882"
       y2="13.493993" />
    <radialGradient
       inkscape:collect="always"
       xlink:href="#linearGradient3239"
       id="radialGradient3724"
       gradientUnits="userSpaceOnUse"
       gradientTransform="matrix(1.2033503,0,0,1.4885863,-3.9566151,-7.7363887)"
       cx="20.083241"
       cy="14.426461"
       fx="20.083241"
       fy="14.426461"
       r="9.8352518" />
    <linearGradient
       inkscape:collect="always"
       xlink:href="#linearGradient3220"
       id="linearGradient3733"
       x1="6.5210543"
       y1="11.8125"
       x2="12.219582"
       y2="11.8125"
       gradientUnits="userSpaceOnUse" />
  </defs>
  <sodipodi:namedview
     id="base"
     pagecolor="#ffffff"
     bordercolor="#666666"
     borderopacity="1.0"
     inkscape:pageopacity="0.0"
     inkscape:pageshadow="2"
     inkscape:zoom="6.1004836"
     inkscape:cx="12.324918"
     inkscape:cy="22.210112"
     inkscape:current-layer="layer1"
     showgrid="false"
     inkscape:grid-bbox="false"
     inkscape:document-units="px"
     width="40px"
     height="40px"
     inkscape:window-width="1761"
     inkscape:window-height="1056"
     inkscape:window-x="145"
     inkscape:window-y="40">
    <inkscape:grid
       id="GridFromPre046Settings"
       type="xygrid"
       originx="0px"
       originy="0px"
       spacingx="1px"
       spacingy="1px"
       color="#0000ff"
       empcolor="#0000ff"
       opacity="0.2"
       empopacity="0.4"
       empspacing="2"
       visible="true"
       enabled="true" />
  </sodipodi:namedview>
  <metadata
     id="metadata2198">
    <rdf:RDF>
      <cc:Work
         rdf:about="">
        <dc:format>image/svg+xml</dc:format>
        <dc:type
           rdf:resource="http://purl.org/dc/dcmitype/StillImage" />
        <dc:creator>
          <cc:Agent>
            <dc:title>Jarle Akselsen</dc:title>
          </cc:Agent>
        </dc:creator>
        <cc:license
           rdf:resource="http://creativecommons.org/licenses/GPL/2.0/" />
      </cc:Work>
      <cc:License
         rdf:about="http://creativecommons.org/licenses/GPL/2.0/">
        <cc:permits
           rdf:resource="http://web.resource.org/cc/Reproduction" />
        <cc:permits
           rdf:resource="http://web.resource.org/cc/Distribution" />
        <cc:requires
           rdf:resource="http://web.resource.org/cc/Notice" />
        <cc:permits
           rdf:resource="http://web.resource.org/cc/DerivativeWorks" />
        <cc:requires
           rdf:resource="http://web.resource.org/cc/ShareAlike" />
        <cc:requires
           rdf:resource="http://web.resource.org/cc/SourceCode" />
      </cc:License>
    </rdf:RDF>
  </metadata>
  <g
     id="layer1"
     inkscape:label="Layer 1"
     inkscape:groupmode="layer">
    <path
       transform="matrix(0.164375,0,0,0.23224,10.901833,6.1556687)"
       d="M 127.82442,115.70919 A 63.912209,12.641975 0 1 1 0,115.70919 A 63.912209,12.641975 0 1 1 127.82442,115.70919 z"
       sodipodi:ry="12.641975"
       sodipodi:rx="63.912209"
       sodipodi:cy="115.70919"
       sodipodi:cx="63.912209"
       id="path2593"
       style="opacity:0.38139535;fill:url(#radialGradient2595);fill-opacity:1;fill-rule:nonzero;stroke:none;stroke-width:0;stroke-linecap:round;stroke-linejoin:round;stroke-miterlimit:4;stroke-dasharray:none;stroke-dashoffset:4;stroke-opacity:1"
       sodipodi:type="arc" />
    <path
       style="opacity:1;fill:#000000;fill-opacity:1;stroke:none;stroke-width:0.5;stroke-linecap:round;stroke-linejoin:round;stroke-miterlimit:4;stroke-opacity:1"
       d="M 19.46875,4.5 C 12.283491,4.5000001 10.334335,6.8653854 9.8125,11.28125 C 7.853686,11.421019 6.53125,11.596681 6.53125,11.8125 C 6.5312502,11.934953 6.53125,13.690047 6.53125,13.8125 C 6.5312501,14.022815 7.7842388,14.204888 9.65625,14.34375 C 9.634033,15.734307 9.625,17.208873 9.625,18.875 C 9.625,24.350752 14.30394,33.21875 19.46875,33.21875 C 20.767798,33.218749 21.907611,33.04859 22.9375,32.6875 C 25.352488,29.88987 28.622652,23.289577 28.622652,19.6875 C 28.622652,11.209143 30.047697,4.5 19.46875,4.5 z M 18,10.5 L 26.3125,10.5 L 26.3125,15.40625 L 18,15.8125 L 18,10.5 z"
       id="path2556"
       sodipodi:nodetypes="ccsscsscscccccc" />
    <path
       style="opacity:0.3;fill:url(#linearGradient3444);fill-opacity:1;stroke:none;stroke-width:0.50000000000000000;stroke-linecap:round;stroke-linejoin:round;stroke-miterlimit:4;stroke-opacity:1"
       d="M 23.125 6.46875 C 16.147306 6.4687501 15.875001 10.063546 15.875 16.65625 C 15.875 19.974736 16.779752 22.523627 18.15625 24.25 L 27.5625 23.5 C 28.069809 22.433723 28.419397 21.21511 28.625 20 C 28.629732 19.898027 28.625 19.785198 28.625 19.6875 C 28.625 15.494313 28.95927 11.73006 28.03125 9 C 28.016166 8.9716283 28.015571 8.9342828 28 8.90625 C 27.196538 7.4597644 25.7281 6.46875 23.125 6.46875 z M 18 10.5 L 26.3125 10.5 L 26.3125 15.40625 L 18 15.8125 L 18 10.5 z "
       id="path2558" />
    <path
       id="path2562"
       d="M 9.623868,16.520183 C 9.627223,17.275382 9.623868,18.042318 9.623868,18.863933 C 9.623868,24.236713 14.138069,32.853428 19.186368,33.176433 C 18.449215,32.173388 17.845637,30.985763 17.342618,29.770183 C 12.989264,27.211983 9.623868,20.81747 9.623868,16.520183 z"
       style="opacity:0.5;fill:url(#radialGradient3436);fill-opacity:1;stroke:none;stroke-width:0.50000000000000000;stroke-linecap:round;stroke-linejoin:round;stroke-miterlimit:4;stroke-opacity:1" />
    <path
       style="opacity:0.45;fill:url(#radialGradient3724);fill-opacity:1;stroke:none;stroke-width:0.50000000000000000;stroke-linecap:round;stroke-linejoin:round;stroke-miterlimit:4;stroke-opacity:1"
       d="M 19.40625 4.5 C 12.312277 4.5143768 10.345415 6.8802879 9.8125 11.25 C 9.8227436 11.249897 9.834652 11.25064 9.84375 11.25 C 9.838545 11.29247 9.8174349 11.332147 9.8125 11.375 C 9.7996928 11.375922 9.7939868 11.374074 9.78125 11.375 C 9.7492996 11.653526 9.7090533 11.924158 9.6875 12.21875 C 9.9332544 12.23772 10.068582 12.263297 10.34375 12.28125 L 10.8125 12.4375 C 10.823821 12.438139 10.832397 12.436865 10.84375 12.4375 C 11.520161 12.545033 11.527616 14.467046 10.8125 14.4375 C 10.39149 14.413859 10.028681 14.371819 9.65625 14.34375 C 9.6450657 15.046244 9.6218098 15.758627 9.625 16.53125 C 9.625 20.828536 12.990396 27.22305 17.34375 29.78125 C 16.782713 26.959807 17.549804 24.004781 18.15625 24.25 C 16.779751 22.523626 15.875 19.974737 15.875 16.65625 C 15.875001 10.063545 16.147307 6.46875 23.125 6.46875 C 25.7281 6.4687501 27.196538 7.4597643 28 8.90625 C 27.395816 7.1955748 26.296962 5.919456 24.25 5.1875 C 23.84944 5.0442673 23.412065 4.9113526 22.9375 4.8125 C 22.928187 4.8106213 22.91559 4.8143619 22.90625 4.8125 C 21.932714 4.6124876 20.791118 4.5 19.46875 4.5 C 19.446857 4.5 19.428046 4.4999561 19.40625 4.5 z M 28.625 20 C 28.419398 21.21511 28.06981 22.433724 27.5625 23.5 L 27.84375 23.46875 C 28.260387 22.19707 28.578542 21.001086 28.625 20 z "
       id="path2564" />
    <path
       style="opacity:0.34999999999999998;fill:url(#linearGradient3428);fill-opacity:1;stroke:none;stroke-width:0.50000000000000000;stroke-linecap:round;stroke-linejoin:round;stroke-miterlimit:4;stroke-opacity:1"
       d="M 27.84375 23.46875 L 27.5625 23.5 L 22.65625 23.90625 L 18.15625 24.25 C 17.549803 24.00478 16.782714 26.959808 17.34375 29.78125 C 17.846768 30.996829 18.450347 32.184455 19.1875 33.1875 C 19.263015 33.192332 19.333067 33.211815 19.40625 33.21875 C 19.426833 33.2207 19.44743 33.21875 19.46875 33.21875 C 20.408708 33.218749 21.261924 33.101034 22.0625 32.90625 C 22.230616 32.865345 22.40061 32.829844 22.5625 32.78125 C 22.688103 32.751311 22.81885 32.7291 22.9375 32.6875 C 22.946104 32.677533 22.960125 32.666313 22.96875 32.65625 C 23.271702 32.303153 23.571642 31.892669 23.875 31.46875 C 25.366737 29.350505 26.933682 26.246502 27.84375 23.46875 z "
       id="path2566" />
    <path
       style="opacity:0.75;fill:#00892c;fill-opacity:1;stroke:none;stroke-width:0.5;stroke-linecap:round;stroke-linejoin:round;stroke-miterlimit:4;stroke-opacity:1"
       d="M 26.3125,10.5 L 26.3125,15.40625 L 18,15.8125 L 18,16.3125 L 27.625,15.8125 L 27.625,10.5 L 26.3125,10.5 z"
       id="path3378" />
    <path
       style="opacity:1;fill:#00142e;fill-opacity:1;stroke:none;stroke-width:0.50000000000000000;stroke-linecap:round;stroke-linejoin:round;stroke-miterlimit:4;stroke-opacity:1"
       d="M 16.9375,9.84375 L 16.9375,16.3125 L 17.4375,16.65625 L 28.21875,16.09375 L 28.21875,10.15625 L 27.71875,9.84375 L 16.9375,9.84375 z M 18,10.5 L 26.3125,10.5 L 26.3125,15.40625 L 18,15.8125 L 18,10.5 z"
       id="path3385" />
    <path
       style="opacity:0.2;fill:#ffffff;fill-opacity:1;stroke:none;stroke-width:0.50000000000000000;stroke-linecap:round;stroke-linejoin:round;stroke-miterlimit:4;stroke-opacity:1"
       d="M 16.9375,9.84375 L 16.9375,16.3125 L 17.4375,16.65625 L 17.4375,10.15625 L 16.9375,9.84375 z"
       id="path3392"
       sodipodi:nodetypes="ccccc" />
    <path
       id="path3446"
       d="M 16.9375,9.84375 L 17.4375,10.15625 L 28.21875,10.15625 L 27.71875,9.84375 L 16.9375,9.84375 z"
       style="opacity:0.25;fill:#ffffff;fill-opacity:1;stroke:none;stroke-width:0.50000000000000000;stroke-linecap:round;stroke-linejoin:round;stroke-miterlimit:4;stroke-opacity:1"
       sodipodi:nodetypes="ccccc" />
    <path
       sodipodi:nodetypes="ccccc"
       id="path2560"
       d="M 18.013467,10.504033 L 27.633993,10.513976 L 27.633993,15.811877 L 18.013467,16.299523 L 18.013467,10.504033 z"
       style="opacity:0.9;fill:#000000;fill-opacity:1;stroke:none;stroke-width:0.50000000000000000;stroke-linecap:round;stroke-linejoin:round;stroke-miterlimit:4;stroke-opacity:1" />
    <path
       style="opacity:0.5;fill:url(#linearGradient3469);fill-opacity:1;stroke:none;stroke-width:0.50000000000000000;stroke-linecap:round;stroke-linejoin:round;stroke-miterlimit:4;stroke-opacity:1"
       d="M 17.4375,10.15625 L 17.4375,16.65625 L 28.21875,16.09375 L 28.21875,10.15625 L 17.4375,10.15625 z M 18,10.5 L 27.625,10.5 L 27.625,15.8125 L 18,16.3125 L 18,10.5 z"
       id="path3456" />
    <path
       style="opacity:0.75;fill:#000000;fill-opacity:1;stroke:none;stroke-width:0.50000000000000000;stroke-linecap:round;stroke-linejoin:round;stroke-miterlimit:4;stroke-opacity:1"
       d="M 18.013467,10.504033 L 27.633993,10.513976 L 27.633993,15.811877 L 18.013467,16.299523 L 18.013467,10.504033 z"
       id="path3360"
       sodipodi:nodetypes="ccccc" />
    <path
       style="opacity:0.40000000000000002;fill:url(#linearGradient3473);fill-opacity:1;stroke:none;stroke-width:0.50000000000000000;stroke-linecap:round;stroke-linejoin:round;stroke-miterlimit:4;stroke-opacity:1"
       d="M 18.013467,10.504033 L 27.633993,10.513976 L 27.633993,15.811877 L 18.013467,16.299523 L 18.013467,10.504033 z"
       id="path3471"
       sodipodi:nodetypes="ccccc" />
    <path
       style="opacity:0.34999999999999998;fill:url(#linearGradient3479);fill-opacity:1;stroke:none;stroke-width:0.50000000000000000;stroke-linecap:round;stroke-linejoin:round;stroke-miterlimit:4;stroke-opacity:1"
       d="M 17.4375,10.15625 L 17.4375,16.65625 L 28.21875,16.09375 L 28.21875,10.15625 L 17.4375,10.15625 z"
       id="path3475" />
    <path
       style="opacity:0.50000000000000000;fill:url(#linearGradient3507);fill-opacity:1;stroke:none;stroke-width:0.50000000000000000;stroke-linecap:round;stroke-linejoin:round;stroke-miterlimit:4;stroke-opacity:1"
       d="M 28.21875 10.15625 L 28.21875 16.09375 L 17.4375 16.65625 L 18.21875 17.34375 L 28.65625 16.78125 C 28.701668 14.344608 28.738191 12.14158 28.375 10.28125 L 28.21875 10.15625 z "
       id="path3491" />
    <path
       sodipodi:nodetypes="cccc"
       id="path3524"
       d="M 23.375167,8.6970443 C 19.879924,8.6970443 18.034343,8.2910733 17.140337,9.7673913 L 28.197217,9.7673913 C 27.45578,8.4452239 26.105534,8.6970443 23.375167,8.6970443 z"
       style="opacity:0.50000000000000000;fill:url(#linearGradient3528);fill-opacity:1;stroke:none;stroke-width:0.50000000000000000;stroke-linecap:round;stroke-linejoin:round;stroke-miterlimit:4;stroke-opacity:1" />
    <rect
       style="opacity:0.61162792;fill:#555753;fill-opacity:1;fill-rule:nonzero;stroke:none;stroke-width:0.69999999;stroke-linecap:round;stroke-linejoin:miter;stroke-miterlimit:4;stroke-dasharray:none;stroke-opacity:1"
       id="rect1951"
       width="40.001965"
       height="10.004759"
       x="-0.0019644466"
       y="30" />
    <text
       xml:space="preserve"
       style="font-size:12px;font-style:normal;font-weight:normal;fill:#eeeeec;fill-opacity:1;stroke:none;stroke-width:1px;stroke-linecap:butt;stroke-linejoin:miter;stroke-opacity:1;font-family:Bitstream Vera Sans"
       x="13.428711"
       y="39.168156"
       id="text2840"><tspan
         sodipodi:role="line"
         id="tspan2842"
         x="13.428711"
         y="39.168156">Pr</tspan></text>
    <path
       style="opacity:0.25;fill:url(#linearGradient3720);fill-opacity:1;stroke:none;stroke-width:0.50000000000000000;stroke-linecap:round;stroke-linejoin:round;stroke-miterlimit:4;stroke-dasharray:none;stroke-opacity:1"
       d="M 6.53125,11.8125 C 6.5312502,11.934953 6.53125,13.690047 6.53125,13.8125 C 6.5312501,14.065219 8.265427,14.294476 10.8125,14.4375 C 11.53857,14.467499 11.520076,12.489461 10.8125,12.4375 C 8.2736582,12.294392 6.53125,12.064226 6.53125,11.8125 z"
       id="path3670"
       sodipodi:nodetypes="csccc" />
    <path
       style="opacity:0.50000000000000000;fill:url(#linearGradient3733);fill-opacity:1;stroke:none;stroke-width:0.50000000000000000;stroke-linecap:round;stroke-linejoin:round;stroke-miterlimit:4;stroke-dasharray:none;stroke-opacity:1"
       d="M 9.78125,11.375 C 8.2029685,11.493542 7.1562499,11.641712 7.15625,11.8125 C 7.15625,11.980666 8.1834998,12.132152 9.71875,12.25 C 9.7401903,11.951484 9.7493661,11.65708 9.78125,11.375 z"
       id="path3574"
       sodipodi:nodetypes="cscc" />
    <path
       style="opacity:0.35;fill:#ffffff;fill-opacity:1;stroke:none;stroke-width:0.50000000000000000;stroke-linecap:round;stroke-linejoin:round;stroke-miterlimit:4;stroke-dasharray:none;stroke-opacity:1"
       d="M 9.65625,11.25 C 7.727264,11.391587 6.53125,11.597599 6.53125,11.8125 C 6.53125,12.065219 8.2877742,12.294476 10.84375,12.4375 L 10.34375,12.28125 C 8.4045894,12.154732 7.15625,12.004181 7.15625,11.8125 C 7.1562499,11.640402 8.2095321,11.490347 9.8125,11.375 C 9.8174349,11.332147 9.838545,11.29247 9.84375,11.25 C 9.7891619,11.253841 9.7097183,11.246075 9.65625,11.25 z"
       id="path3678"
       sodipodi:nodetypes="csccscsc" />
  </g>
</svg>
