<?xml version="1.0" encoding="UTF-8" standalone="no"?>
<!-- Created with Inkscape (http://www.inkscape.org/) -->
<svg
   xmlns:dc="http://purl.org/dc/elements/1.1/"
   xmlns:cc="http://web.resource.org/cc/"
   xmlns:rdf="http://www.w3.org/1999/02/22-rdf-syntax-ns#"
   xmlns:svg="http://www.w3.org/2000/svg"
   xmlns="http://www.w3.org/2000/svg"
   xmlns:xlink="http://www.w3.org/1999/xlink"
   xmlns:sodipodi="http://sodipodi.sourceforge.net/DTD/sodipodi-0.dtd"
   xmlns:inkscape="http://www.inkscape.org/namespaces/inkscape"
   version="1.0"
   width="40"
   height="40"
   id="svg2193"
   sodipodi:version="0.32"
   inkscape:version="0.44.1"
   sodipodi:docname="60.svg"
   sodipodi:docbase="/home/carsten/svn/kalzium_www/files">
  <metadata
     id="metadata82">
    <rdf:RDF>
      <cc:Work
         rdf:about="">
        <dc:format>image/svg+xml</dc:format>
        <dc:type
           rdf:resource="http://purl.org/dc/dcmitype/StillImage" />
      </cc:Work>
    </rdf:RDF>
  </metadata>
  <sodipodi:namedview
     inkscape:window-height="637"
     inkscape:window-width="925"
     inkscape:pageshadow="2"
     inkscape:pageopacity="0.0"
     guidetolerance="10.0"
     gridtolerance="10.0"
     objecttolerance="10.0"
     borderopacity="1.0"
     bordercolor="#666666"
     pagecolor="#ffffff"
     id="base"
     inkscape:zoom="10.875"
     inkscape:cx="20"
     inkscape:cy="19.954023"
     inkscape:window-x="154"
     inkscape:window-y="153"
     inkscape:current-layer="svg2193" />
  <defs
     id="defs2195">
    <linearGradient
       id="linearGradient3409">
      <stop
         style="stop-color:#000000;stop-opacity:1"
         offset="0"
         id="stop3411" />
      <stop
         style="stop-color:#ebebeb;stop-opacity:1"
         offset="0.31834731"
         id="stop3413" />
      <stop
         style="stop-color:#afafaf;stop-opacity:1"
         offset="0.76403356"
         id="stop3415" />
      <stop
         style="stop-color:#454545;stop-opacity:1"
         offset="1"
         id="stop3417" />
    </linearGradient>
    <linearGradient
       id="linearGradient3380">
      <stop
         style="stop-color:#6a6a6a;stop-opacity:1"
         offset="0"
         id="stop3382" />
      <stop
         style="stop-color:#000000;stop-opacity:1"
         offset="1"
         id="stop3384" />
    </linearGradient>
    <linearGradient
       id="linearGradient3566">
      <stop
         style="stop-color:#000000;stop-opacity:1"
         offset="0"
         id="stop3568" />
      <stop
         style="stop-color:#525252;stop-opacity:1"
         offset="0.83333331"
         id="stop3570" />
      <stop
         style="stop-color:#191a19;stop-opacity:1"
         offset="1"
         id="stop3574" />
    </linearGradient>
    <linearGradient
       id="linearGradient3477">
      <stop
         style="stop-color:#ffffff;stop-opacity:1"
         offset="0"
         id="stop3479" />
      <stop
         style="stop-color:#000000;stop-opacity:0"
         offset="1"
         id="stop3481" />
    </linearGradient>
    <linearGradient
       id="linearGradient3443">
      <stop
         style="stop-color:#262626;stop-opacity:0.56565654"
         offset="0"
         id="stop3445" />
      <stop
         style="stop-color:#333532;stop-opacity:0.42352942"
         offset="0.26041666"
         id="stop3451" />
      <stop
         style="stop-color:#e3e4e3;stop-opacity:0.36363637"
         offset="0.72135419"
         id="stop3455" />
      <stop
         style="stop-color:#6f716c;stop-opacity:0.61616164"
         offset="0.875"
         id="stop3453" />
      <stop
         style="stop-color:#555753;stop-opacity:0.71717173"
         offset="1"
         id="stop3447" />
    </linearGradient>
    <linearGradient
       id="linearGradient3362">
      <stop
         style="stop-color:#000000;stop-opacity:1"
         offset="0"
         id="stop3364" />
      <stop
         style="stop-color:#d1d1d1;stop-opacity:1"
         offset="0.31834731"
         id="stop3368" />
      <stop
         style="stop-color:#ffffff;stop-opacity:1"
         offset="0.76403356"
         id="stop3370" />
      <stop
         style="stop-color:#8a8e88;stop-opacity:1"
         offset="1"
         id="stop3366" />
    </linearGradient>
    <linearGradient
       id="linearGradient3341">
      <stop
         style="stop-color:#d3d7cf;stop-opacity:1"
         offset="0"
         id="stop3343" />
      <stop
         style="stop-color:#d3d7cf;stop-opacity:0"
         offset="1"
         id="stop3345" />
    </linearGradient>
    <linearGradient
       id="linearGradient3320">
      <stop
         style="stop-color:#d3d7cf;stop-opacity:1"
         offset="0"
         id="stop3322" />
      <stop
         style="stop-color:#d3d7cf;stop-opacity:0"
         offset="1"
         id="stop3324" />
    </linearGradient>
    <linearGradient
       id="linearGradient3220">
      <stop
         style="stop-color:#000000;stop-opacity:1"
         offset="0"
         id="stop3222" />
      <stop
         style="stop-color:#c1c3c0;stop-opacity:1"
         offset="1"
         id="stop3224" />
    </linearGradient>
    <linearGradient
       id="linearGradient3291">
      <stop
         style="stop-color:#000000;stop-opacity:1"
         offset="0"
         id="stop3293" />
      <stop
         style="stop-color:#000000;stop-opacity:0"
         offset="1"
         id="stop3295" />
    </linearGradient>
    <radialGradient
       cx="63.912209"
       cy="115.70919"
       r="63.912209"
       fx="75.857941"
       fy="115.70919"
       id="radialGradient2595"
       xlink:href="#linearGradient3291"
       gradientUnits="userSpaceOnUse"
       gradientTransform="matrix(1,0,0,0.197802,0,92.82166)" />
    <radialGradient
       cx="4.8350296"
       cy="8.3411226"
       r="6.8594265"
       fx="4.8350296"
       fy="8.3411226"
       id="radialGradient3347"
       xlink:href="#linearGradient3341"
       gradientUnits="userSpaceOnUse"
       gradientTransform="matrix(1.606982,9.6071992e-3,-6.744574e-3,1.1281549,-3.2293489,-1.1687824)" />
    <linearGradient
       x1="13.639544"
       y1="2.9696138"
       x2="4.861567"
       y2="13.556895"
       id="linearGradient3396"
       xlink:href="#linearGradient3362"
       gradientUnits="userSpaceOnUse"
       gradientTransform="matrix(1.0201,0,0,1.0201,-2.81261e-2,-9.1803e-2)" />
    <linearGradient
       x1="12.818503"
       y1="35.950985"
       x2="4.888423"
       y2="24.045979"
       id="linearGradient3403"
       xlink:href="#linearGradient3409"
       gradientUnits="userSpaceOnUse"
       gradientTransform="matrix(1.0201,0,0,-1.0201,-2.81261e-2,40.091803)" />
    <linearGradient
       x1="13.193099"
       y1="16.691624"
       x2="17.413475"
       y2="9.223176"
       id="linearGradient3449"
       xlink:href="#linearGradient3443"
       gradientUnits="userSpaceOnUse" />
    <linearGradient
       x1="27.538462"
       y1="24.268595"
       x2="31.385452"
       y2="18.044889"
       id="linearGradient3465"
       xlink:href="#linearGradient3443"
       gradientUnits="userSpaceOnUse" />
    <radialGradient
       cx="10.983415"
       cy="11.298207"
       r="2.91155"
       fx="10.983415"
       fy="11.298207"
       id="radialGradient3475"
       xlink:href="#linearGradient3477"
       gradientUnits="userSpaceOnUse"
       gradientTransform="matrix(2.6129687,1.4446654,-2.622288,4.7429385,16.583825,-57.907536)" />
    <linearGradient
       x1="25.5625"
       y1="20.136465"
       x2="29.71875"
       y2="20.928574"
       id="linearGradient3556"
       xlink:href="#linearGradient3220"
       gradientUnits="userSpaceOnUse" />
    <linearGradient
       x1="29.891024"
       y1="25.396046"
       x2="33.481651"
       y2="19.334909"
       id="linearGradient3564"
       xlink:href="#linearGradient3566"
       gradientUnits="userSpaceOnUse" />
    <linearGradient
       x1="27.71875"
       y1="30.149527"
       x2="31.010849"
       y2="24.010687"
       id="linearGradient3582"
       xlink:href="#linearGradient3320"
       gradientUnits="userSpaceOnUse" />
    <linearGradient
       x1="23.03717"
       y1="32.584045"
       x2="33.00592"
       y2="32.584045"
       id="linearGradient3367"
       xlink:href="#linearGradient3566"
       gradientUnits="userSpaceOnUse" />
    <radialGradient
       cx="28.713917"
       cy="28.450138"
       r="1.2730309"
       fx="28.713917"
       fy="28.450138"
       id="radialGradient3378"
       xlink:href="#linearGradient3380"
       gradientUnits="userSpaceOnUse"
       gradientTransform="matrix(1.8000002,0,0,1.6444446,-22.971141,-18.326823)" />
  </defs>
  <g
     id="layer1">
    <path
       d="M 127.82442 115.70919 A 63.912209 12.641975 0 1 1  0,115.70919 A 63.912209 12.641975 0 1 1  127.82442 115.70919 z"
       transform="matrix(0.1564647,0,0,0.1155117,18,25.114856)"
       style="opacity:0.38139535;fill:url(#radialGradient2595);fill-opacity:1;fill-rule:nonzero;stroke:none;stroke-width:0;stroke-linecap:round;stroke-linejoin:round;stroke-miterlimit:4;stroke-dasharray:none;stroke-dashoffset:4;stroke-opacity:1"
       id="path2593" />
    <path
       d="M 28.53125,25.75 C 28.079507,25.791608 27.65939,25.889993 27.25,26.03125 C 24.872182,26.373017 23.031249,28.227994 23.03125,30.46875 C 23.03125,30.691245 23.03125,31.05594 23.03125,31.34375 C 23.03125,33.719151 23.031249,37.557756 23.03125,38.0625 C 23.031251,38.796445 25.282861,39.406249 28.03125,39.40625 C 28.203192,39.406251 28.363856,39.379655 28.53125,39.375 C 28.844418,39.366292 29.145187,39.363487 29.4375,39.34375 C 29.729813,39.324013 30.01367,39.287342 30.28125,39.25 C 30.547889,39.21279 30.795318,39.174111 31.03125,39.125 C 31.085403,39.113729 31.135139,39.105599 31.1875,39.09375 C 31.308029,39.067619 31.420573,39.028971 31.53125,39 C 31.599266,38.981518 31.654762,38.957007 31.71875,38.9375 C 31.911628,38.878701 32.097064,38.817152 32.25,38.75 C 32.394228,38.688916 32.519639,38.661144 32.625,38.59375 C 32.63972,38.584349 32.642308,38.572006 32.65625,38.5625 C 32.760774,38.492259 32.848145,38.419502 32.90625,38.34375 C 32.912858,38.335059 32.900273,38.321248 32.90625,38.3125 C 32.964755,38.23135 33,38.148504 33,38.0625 C 33,37.278045 33,33.56059 33,31.34375 C 33,31.0327 33,30.740619 33,30.46875 C 33,30.381364 33,30.259549 33,30.1875 C 33,30.122459 32.971782,30.064314 32.96875,30 C 32.863283,27.763028 30.969001,25.974841 28.53125,25.75 z "
       style="opacity:1;fill:#000000;fill-opacity:1;fill-rule:nonzero;stroke:none;stroke-width:0.30000001;stroke-linecap:round;stroke-linejoin:round;stroke-miterlimit:4;stroke-dasharray:none;stroke-opacity:1"
       id="path2316" />
    <path
       d="M 10.956528,1.0198748 L 10.956528,-1.7748336 L 10.956528,1.0198748 z "
       style="fill:#ffffff;fill-opacity:0.75688076;fill-rule:nonzero;stroke:none;stroke-width:0.5;stroke-linecap:round;stroke-linejoin:round;stroke-miterlimit:4;stroke-dasharray:none;stroke-dashoffset:4;stroke-opacity:1"
       id="path2276" />
    <path
       d="M 28.563701,23.001201 C 28.563702,23.001202 28.399638,23.313701 28.126201,23.563701 C 27.852764,23.813701 27.438701,24.094951 27.438701,24.094951 C 27.4387,24.094951 26.147487,27.003949 26.094951,27.251201 C 26.092728,27.261669 26.097024,27.271932 26.094951,27.282451 L 26.032451,27.438701 L 26.094951,27.469951 C 26.08685,27.546377 26.063701,27.610225 26.063701,27.688701 C 26.063702,28.93797 27.111336,29.969951 28.407451,29.969951 C 29.014605,29.969952 29.552997,29.741146 29.969951,29.376201 L 30.032451,29.407451 L 30.063701,29.313701 C 30.095261,29.283284 30.138657,29.259463 30.157451,29.219951 L 31.626201,26.157451 C 31.626201,26.157451 31.971258,25.912008 32.157451,25.688701 C 32.3659,25.438701 32.626201,25.001201 32.626201,25.001201 L 28.563701,23.001201 z M 28.344951,27.282451 C 28.643088,27.282451 28.876201,27.535773 28.876201,27.844951 C 28.876203,28.154129 28.643087,28.407451 28.344951,28.407451 C 28.046816,28.40745 27.813701,28.154129 27.813701,27.844951 C 27.813701,27.535774 28.046815,27.282451 28.344951,27.282451 z "
       style="opacity:0.52427183;color:#000000;fill:#000000;fill-opacity:1;fill-rule:evenodd;stroke:none;stroke-width:1px;stroke-linecap:butt;stroke-linejoin:miter;marker:none;marker-start:none;marker-mid:none;marker-end:none;stroke-miterlimit:4;stroke-dasharray:none;stroke-dashoffset:0;stroke-opacity:1;visibility:visible;display:inline;overflow:visible;enable-background:accumulate"
       id="path3495" />
    <path
       d="M 8.1875,2.4375 C 4.312059,2.4375 1.15625,5.4961419 1.15625,9.25 C 1.15625,13.003858 4.312059,16.0625 8.1875,16.0625 C 8.801051,16.0625 9.375573,15.957405 9.9375,15.8125 C 9.929634,15.821366 9.84375,15.9375 9.84375,15.9375 C 9.84375,15.9375 10.234179,15.795517 10.5625,15.75 C 10.890821,15.704483 11.146435,15.745382 11.15625,15.75 C 11.237448,15.788211 12.194239,16.232578 12.5625,16.40625 C 14.497741,17.321405 18.648502,19.294659 23.625,21.75 C 29.960645,24.875927 36.187499,28.125001 36.1875,28.125 C 36.1875,28.125 37.257655,28.456036 38.46875,26.625 C 39.68792,24.781753 39,23.46875 39,23.46875 C 39,23.46875 32.892485,19.741444 26.90625,15.84375 C 22.439734,12.935558 18.88107,10.49442 16.9375,9.15625 C 16.593245,8.9188549 15.793689,8.3765137 15.65625,8.28125 C 15.619853,8.256022 15.379366,8.0868497 15.21875,7.84375 C 15.058134,7.6006501 14.966898,7.2838426 14.9375,7.1875 C 14.935383,7.1936189 14.909527,7.2717968 14.90625,7.28125 C 14.037832,4.4804029 11.360669,2.4375 8.1875,2.4375 z M 10.03125,15.71875 C 10.000467,15.715677 9.9375,15.71875 9.9375,15.71875 C 9.9375,15.71875 10.151834,15.5817 10.03125,15.71875 z "
       style="opacity:1;fill:#000000;fill-opacity:1;fill-rule:evenodd;stroke:none;stroke-width:1px;stroke-linecap:butt;stroke-linejoin:miter;stroke-opacity:1"
       id="path2319" />
    <path
       d="M 15.65625,8.28125 C 14.950056,11.131678 13.361804,13.710172 11.15625,15.75 C 11.237448,15.788211 12.194239,16.232578 12.5625,16.40625 C 13.441379,16.821863 14.899907,17.51438 16.5625,18.3125 C 18.468094,16.433823 19.848609,14.114906 20.46875,11.5625 C 19.057941,10.607112 17.788454,9.7421418 16.9375,9.15625 C 16.593245,8.9188549 15.793689,8.3765137 15.65625,8.28125 z "
       style="opacity:1;fill:url(#linearGradient3449);fill-opacity:1;fill-rule:evenodd;stroke:none;stroke-width:1px;stroke-linecap:butt;stroke-linejoin:miter;stroke-opacity:1"
       id="path3306" />
    <path
       d="M 14.94799,7.1872804 C 14.872069,7.4066724 14.034756,9.80487 12.84375,11.84375 C 11.59375,13.98362 9.83315,15.927449 9.83315,15.927449 C 9.83315,15.927449 10.221628,15.797298 10.549949,15.751781 C 10.87827,15.706264 11.146435,15.745382 11.15625,15.75 C 13.361804,13.710172 14.950056,11.131678 15.65625,8.28125 C 15.619853,8.256022 15.394877,8.0933107 15.234261,7.850211 C 15.073645,7.6071112 14.977388,7.283623 14.94799,7.1872804 z "
       style="opacity:0.40291263;fill:url(#radialGradient3475);fill-opacity:1;fill-rule:evenodd;stroke:none;stroke-width:1px;stroke-linecap:butt;stroke-linejoin:miter;stroke-opacity:1"
       id="path3324" />
    <path
       d="M 20.46875,11.5625 C 19.848609,14.114906 18.468094,16.433823 16.5625,18.3125 C 18.560841,19.271794 20.908551,20.409738 23.625,21.75 C 29.960645,24.875927 36.187499,28.125001 36.1875,28.125 C 36.1875,28.125 37.257655,28.456036 38.46875,26.625 C 39.68792,24.781753 39,23.46875 39,23.46875 C 39,23.46875 32.892485,19.741444 26.90625,15.84375 C 24.395312,14.208854 22.280212,12.789207 20.46875,11.5625 z "
       style="opacity:0.87864075;fill:url(#linearGradient3465);fill-opacity:1;fill-rule:evenodd;stroke:none;stroke-width:1px;stroke-linecap:butt;stroke-linejoin:miter;stroke-opacity:1"
       id="path3335" />
    <path
       d="M 7.8125,2.4375 C 7.64341,2.4483017 7.480413,2.503251 7.3125,2.53125 C 7.347055,2.5184894 7.37135,2.4805414 7.40625,2.46875 C 7.255673,2.4849626 7.117123,2.5347855 6.96875,2.5625 C 6.706279,2.6115269 6.438312,2.6454562 6.1875,2.71875 C 6.167157,2.7159573 6.145369,2.7213631 6.125,2.71875 C 6.112596,2.7224591 6.106242,2.7462584 6.09375,2.75 C 5.887638,2.8117368 5.664536,2.8580803 5.46875,2.9375 C 5.563486,2.9429656 5.655992,2.9594955 5.75,2.96875 C 5.707681,2.9991497 5.667477,3.0310868 5.625,3.0625 C 5.538425,3.1265234 5.454712,3.183651 5.375,3.25 C 5.26052,3.2403729 5.146614,3.2229741 5.03125,3.21875 C 5.076058,3.1797082 5.109104,3.1311486 5.15625,3.09375 C 5.081657,3.1285663 5.010531,3.1797978 4.9375,3.21875 C 4.929479,3.223028 4.914252,3.2144277 4.90625,3.21875 C 4.885568,3.2293715 4.863799,3.2383611 4.84375,3.25 C 4.558254,3.4089881 4.291596,3.5950425 4.03125,3.78125 C 4.010788,3.7829716 3.989194,3.7794464 3.96875,3.78125 C 3.822335,3.887635 3.699812,4.008149 3.5625,4.125 C 3.62468,4.115246 3.687077,4.1010564 3.75,4.09375 C 3.669465,4.1916668 3.604706,4.3037366 3.53125,4.40625 C 3.427313,4.4254798 3.319737,4.4473198 3.21875,4.46875 C 3.144555,4.5408091 3.0736,4.6153449 3,4.6875 C 2.943069,4.7481779 2.900044,4.8136846 2.84375,4.875 C 2.736568,4.9917417 2.63225,5.097125 2.53125,5.21875 C 2.408199,5.380319 2.295739,5.546806 2.1875,5.71875 C 2.164169,5.7546741 2.11592,5.7757485 2.09375,5.8125 C 2.059451,5.9054646 2.030586,5.9998131 2,6.09375 C 1.978441,6.1110375 1.958329,6.1384342 1.9375,6.15625 C 1.924115,6.181417 1.88807,6.193404 1.875,6.21875 C 1.546447,6.855927 1.326866,7.551131 1.21875,8.28125 C 1.260759,8.233046 1.315225,8.173427 1.375,8.125 C 1.328324,8.324614 1.312162,8.520982 1.28125,8.71875 C 1.218739,9.118684 1.185289,9.531217 1.1875,9.9375 C 1.280147,10.817795 1.562126,11.656547 1.96875,12.40625 C 1.456762,11.08834 1.381968,9.64002 1.6875,8.28125 C 1.682507,8.514379 1.670909,8.7354 1.6875,8.96875 C 1.468196,10.346534 1.678588,11.784682 2.34375,13.0625 C 2.352037,13.074373 2.366638,13.081931 2.375,13.09375 C 3.643255,14.886368 5.781215,16.0625 8.1875,16.0625 C 8.914145,16.0625 9.590614,15.948794 10.25,15.75 C 10.168438,15.741786 9.9375,15.71875 9.9375,15.71875 C 9.9375,15.71875 10.139771,15.489124 10.1875,15.4375 C 10.016653,15.463556 9.859892,15.485326 9.6875,15.5 C 9.998106,15.375466 10.276753,15.192261 10.5625,15 C 11.103075,14.380292 11.86528,13.445379 12.6875,12.09375 C 12.720997,11.972897 12.756941,11.840895 12.78125,11.71875 C 12.860439,11.658122 12.923423,11.592468 13,11.53125 C 13.232565,11.115014 13.46011,10.689851 13.65625,10.28125 C 13.649817,10.16656 13.636595,10.05304 13.625,9.9375 C 13.795023,9.662101 13.926466,9.365366 14.03125,9.0625 C 14.049336,9.150063 14.073867,9.227334 14.09375,9.3125 C 14.462425,8.460961 14.642356,7.959682 14.75,7.65625 C 14.738507,7.636538 14.726729,7.614401 14.71875,7.59375 C 14.715889,7.586345 14.721638,7.569897 14.71875,7.5625 C 14.70285,7.097517 14.590853,6.63383 14.4375,6.1875 C 13.900234,5.1597915 13.100189,4.3021496 12.125,3.65625 C 12.120255,3.6531069 12.129754,3.6281321 12.125,3.625 L 11.8125,3.4375 C 11.549547,3.2828469 11.284082,3.1206359 11,3 C 10.557849,2.8122399 10.077874,2.6901091 9.59375,2.59375 C 9.583697,2.5917528 9.572541,2.5957698 9.5625,2.59375 C 9.510468,2.5832837 9.458135,2.5731383 9.40625,2.5625 C 9.480013,2.558768 9.550994,2.531646 9.625,2.53125 C 9.553467,2.531446 9.477763,2.528388 9.40625,2.53125 C 9.281094,2.5098988 9.157974,2.5135498 9.03125,2.5 C 8.755763,2.4705439 8.473381,2.4375 8.1875,2.4375 C 8.082388,2.4375 7.978834,2.4342651 7.875,2.4375 C 7.864617,2.4378235 7.854139,2.4370107 7.84375,2.4375 C 7.834442,2.4403746 7.821809,2.4346092 7.8125,2.4375 z M 7.125,2.59375 C 7.188193,2.6065634 7.249682,2.6112652 7.3125,2.625 C 7.260308,2.6460089 7.207634,2.6640033 7.15625,2.6875 C 6.988628,2.7174683 6.821684,2.7652863 6.65625,2.8125 C 6.811101,2.733313 6.966478,2.6602217 7.125,2.59375 z M 7.9375,2.875 C 7.81102,2.9227592 7.684446,2.9709447 7.5625,3.03125 C 7.49006,3.0094535 7.416936,2.989234 7.34375,2.96875 C 7.373998,2.9557561 7.40707,2.9502256 7.4375,2.9375 C 7.451776,2.935575 7.485716,2.939337 7.5,2.9375 C 7.642245,2.919196 7.794633,2.884697 7.9375,2.875 z M 9.15625,2.90625 C 9.317036,2.92273 9.496872,2.941691 9.65625,2.96875 C 9.16166,3.001864 8.655021,3.119403 8.1875,3.3125 C 8.016606,3.316089 7.857994,3.327488 7.6875,3.34375 C 8.168713,3.118582 8.639635,2.964018 9.15625,2.90625 z M 6.28125,3.1875 C 6.239095,3.216994 6.197796,3.250444 6.15625,3.28125 C 6.133258,3.2982991 6.116168,3.3257682 6.09375,3.34375 C 6.030892,3.332734 5.969483,3.3221243 5.90625,3.3125 C 6.032501,3.2718174 6.157712,3.226888 6.28125,3.1875 z M 6.875,3.1875 C 6.88347,3.1830253 6.897761,3.1919231 6.90625,3.1875 C 6.99987,3.2099423 7.094832,3.2252569 7.1875,3.25 C 7.072248,3.3197463 6.956361,3.3907834 6.84375,3.46875 C 6.820656,3.4738588 6.803839,3.4950754 6.78125,3.5 C 6.688365,3.4764417 6.593931,3.4584408 6.5,3.4375 C 6.625304,3.3537529 6.74497,3.2561948 6.875,3.1875 z M 9.6875,3.28125 C 10.125901,3.247863 10.545996,3.30742 10.96875,3.40625 C 10.964774,3.4349139 10.974168,3.467602 10.96875,3.5 C 10.512835,3.3980138 10.056479,3.3533644 9.59375,3.40625 C 9.438725,3.378088 9.281582,3.361439 9.125,3.34375 C 9.307513,3.309367 9.502691,3.295324 9.6875,3.28125 z M 4.71875,3.5 C 4.781009,3.5005955 4.842196,3.4987529 4.90625,3.5 C 4.755634,3.5737971 4.610936,3.6564386 4.46875,3.75 C 4.549773,3.6652607 4.636201,3.5832607 4.71875,3.5 z M 5.46875,3.53125 C 5.584927,3.5451076 5.697528,3.5746378 5.8125,3.59375 C 5.725998,3.6797351 5.645086,3.7578472 5.5625,3.84375 C 5.448255,3.8242537 5.3342,3.7952421 5.21875,3.78125 C 5.30135,3.6980326 5.380724,3.6081833 5.46875,3.53125 z M 8.28125,3.59375 C 8.456163,3.591868 8.638206,3.581894 8.8125,3.59375 C 8.466544,3.70539 8.156659,3.884083 7.84375,4.09375 C 7.675978,4.102914 7.510717,4.102456 7.34375,4.125 C 7.362418,4.110526 7.356034,4.076693 7.375,4.0625 C 7.659712,3.849438 7.965781,3.724423 8.28125,3.59375 z M 7.5625,3.625 C 7.442602,3.698419 7.302118,3.757976 7.1875,3.84375 C 7.04776,3.948325 6.936996,4.069608 6.8125,4.1875 C 6.614848,4.231164 6.443747,4.311714 6.25,4.375 C 6.437307,4.174873 6.617944,3.980593 6.84375,3.8125 C 6.891979,3.776597 6.950825,3.752543 7,3.71875 C 7.182723,3.680342 7.377918,3.647546 7.5625,3.625 z M 9.65625,3.71875 C 9.886537,3.764535 10.119359,3.805191 10.34375,3.875 C 9.864504,3.857975 9.361448,3.915909 8.90625,4.09375 C 8.73639,4.074204 8.577289,4.068448 8.40625,4.0625 C 8.800202,3.868487 9.229412,3.764557 9.65625,3.71875 z M 12.09375,3.8125 C 12.114672,3.823918 12.135808,3.831725 12.15625,3.84375 C 12.317271,3.938472 12.439995,4.048673 12.59375,4.15625 C 12.629507,4.181269 12.683418,4.193043 12.71875,4.21875 C 12.789351,4.275061 12.838767,4.345316 12.90625,4.40625 C 13.123631,4.602534 13.351907,4.819394 13.53125,5.0625 C 13.875974,5.529784 14.077705,6.058359 14.21875,6.59375 C 14.163175,6.501355 14.123018,6.402857 14.0625,6.3125 C 13.923742,5.874408 13.72454,5.448362 13.4375,5.0625 C 13.066527,4.5638113 12.586085,4.1876142 12.0625,3.90625 C 12.073334,3.8611478 12.087594,3.8417952 12.09375,3.8125 z M 6.25,3.9375 C 6.191252,3.9929338 6.149018,4.0644149 6.09375,4.125 C 6.122555,4.0732952 6.140197,4.019439 6.1875,3.96875 C 6.209177,3.9607783 6.228247,3.9450001 6.25,3.9375 z M 4.46875,4.0625 C 4.500037,4.0624361 4.53094,4.0622354 4.5625,4.0625 C 4.491734,4.1473922 4.409409,4.2246602 4.34375,4.3125 C 4.269365,4.3144898 4.198146,4.3378718 4.125,4.34375 C 4.180908,4.2953683 4.22223,4.2311766 4.28125,4.1875 C 4.341514,4.142902 4.404244,4.1015284 4.46875,4.0625 z M 4.9375,4.0625 C 5.011678,4.066529 5.082737,4.0875199 5.15625,4.09375 C 5.018216,4.1769367 4.882001,4.2581026 4.75,4.34375 C 4.73968,4.3431172 4.729074,4.3443269 4.71875,4.34375 C 4.792192,4.2525826 4.858198,4.1530364 4.9375,4.0625 z M 5.71875,4.15625 C 5.812037,4.1720552 5.907076,4.1987331 6,4.21875 C 5.927172,4.3036947 5.848573,4.3816515 5.78125,4.46875 C 5.677214,4.4456397 5.574546,4.4249335 5.46875,4.40625 C 5.532007,4.3341849 5.588607,4.2592932 5.65625,4.1875 C 5.677363,4.1777481 5.697574,4.1659861 5.71875,4.15625 z M 10.125,4.15625 C 10.349256,4.1479981 10.561509,4.1789827 10.78125,4.21875 C 10.76156,4.2830798 10.74205,4.3670044 10.71875,4.4375 C 10.565649,4.4147081 10.404211,4.4067664 10.25,4.40625 C 10.230218,4.406184 10.238536,4.374676 10.21875,4.375 C 9.997989,4.301629 9.758466,4.298955 9.53125,4.25 C 9.728743,4.208412 9.925662,4.163585 10.125,4.15625 z M 11.96875,4.1875 C 12.44277,4.4444596 12.884902,4.8012171 13.21875,5.25 C 13.23683,5.274307 13.232574,5.287893 13.25,5.3125 C 13.043635,5.10442 12.822364,4.927004 12.59375,4.75 C 12.533075,4.69667 12.469992,4.642434 12.40625,4.59375 C 12.28067,4.503364 12.162128,4.424991 12.03125,4.34375 C 11.999788,4.3242207 11.969575,4.3002033 11.9375,4.28125 C 11.9453,4.2551009 11.961742,4.211769 11.96875,4.1875 z M 7.90625,4.375 C 8.055448,4.368447 8.22594,4.370645 8.375,4.375 C 8.279531,4.433793 8.184644,4.493377 8.09375,4.5625 C 7.969658,4.656869 7.857827,4.766963 7.75,4.875 C 7.746339,4.878668 7.722391,4.871317 7.71875,4.875 C 7.569659,4.881664 7.429736,4.919205 7.28125,4.9375 C 7.441901,4.754316 7.643864,4.556872 7.84375,4.40625 C 7.868221,4.387811 7.881448,4.392726 7.90625,4.375 z M 7.375,4.40625 C 7.185231,4.577315 7.024744,4.768743 6.875,4.96875 C 6.741922,4.994747 6.600175,5.026808 6.46875,5.0625 C 6.609902,4.857903 6.790826,4.678974 6.96875,4.5 C 7.11096,4.470524 7.231486,4.425297 7.375,4.40625 z M 8.875,4.40625 C 9.05393,4.426413 9.22984,4.464289 9.40625,4.5 C 9.111228,4.58624 8.856484,4.722112 8.59375,4.90625 C 8.456104,4.891902 8.325934,4.879522 8.1875,4.875 C 8.223859,4.844564 8.24322,4.810171 8.28125,4.78125 C 8.45815,4.64672 8.649901,4.529042 8.84375,4.4375 C 8.85732,4.431094 8.861364,4.41245 8.875,4.40625 z M 11.84375,4.59375 C 12.209397,4.806732 12.545063,5.081868 12.8125,5.4375 C 13.128372,5.857541 13.281882,6.350716 13.375,6.84375 C 13.306166,6.739765 13.263466,6.631993 13.1875,6.53125 C 13.151033,6.482892 13.1002,6.422001 13.0625,6.375 C 12.959573,6.085333 12.851861,5.819006 12.65625,5.5625 C 12.41158,5.2416638 12.086917,5.0002699 11.75,4.8125 C 11.781316,4.7232777 11.818097,4.6717011 11.84375,4.59375 z M 4.125,4.65625 C 4.076063,4.7316125 4.014377,4.7975837 3.96875,4.875 C 3.850584,4.8844738 3.738501,4.8878828 3.625,4.90625 C 3.668948,4.8347243 3.703244,4.7584293 3.75,4.6875 C 3.872565,4.6710954 3.998441,4.6640271 4.125,4.65625 z M 4.8125,4.65625 C 4.822745,4.6568592 4.83352,4.6555958 4.84375,4.65625 C 4.79644,4.7262054 4.76223,4.8031892 4.71875,4.875 C 4.657533,4.8699514 4.593003,4.8465304 4.53125,4.84375 C 4.628992,4.7711487 4.720235,4.7201346 4.8125,4.65625 z M 6.40625,4.65625 C 6.282877,4.8104606 6.168956,4.9876178 6.0625,5.15625 C 5.964587,5.1223747 5.850035,5.0913766 5.75,5.0625 C 5.79839,4.9933336 5.826162,4.9114356 5.875,4.84375 C 5.896942,4.834462 5.915776,4.8212104 5.9375,4.8125 C 6.022096,4.8336871 6.103853,4.8497794 6.1875,4.875 C 6.157487,4.8318429 6.14718,4.7906632 6.125,4.75 C 6.217143,4.7178373 6.30983,4.6862487 6.40625,4.65625 z M 5.25,4.6875 C 5.313192,4.6954374 5.374856,4.7088964 5.4375,4.71875 C 5.323325,4.7699954 5.204974,4.810988 5.09375,4.875 C 5.139333,4.8064454 5.201114,4.7518653 5.25,4.6875 z M 10.125,4.6875 C 10.135069,4.690883 10.146199,4.684065 10.15625,4.6875 C 10.288349,4.7326347 10.42257,4.8114111 10.5625,4.875 C 10.553514,4.8989773 10.5406,4.9129627 10.53125,4.9375 C 10.168136,4.8982014 9.781768,4.9325483 9.4375,5.0625 C 9.303232,5.027887 9.16761,4.993721 9.03125,4.96875 C 9.372564,4.792131 9.750862,4.702675 10.125,4.6875 z M 3.21875,4.78125 C 3.131615,4.869617 3.051499,4.9709657 2.96875,5.0625 C 2.958708,5.0736082 2.947464,5.0825881 2.9375,5.09375 C 2.884875,5.1111997 2.832705,5.1371868 2.78125,5.15625 C 2.829868,5.0552893 2.852612,4.9421351 2.90625,4.84375 C 3.004986,4.8152412 3.115808,4.8053078 3.21875,4.78125 z M 4.1875,5.15625 C 4.250075,5.1545332 4.311185,5.1553859 4.375,5.15625 C 4.426828,5.1569519 4.479646,5.1539722 4.53125,5.15625 C 4.509441,5.1972423 4.489826,5.2397816 4.46875,5.28125 C 4.43244,5.3083196 4.409613,5.3469607 4.375,5.375 C 4.368911,5.3799328 4.349794,5.3700394 4.34375,5.375 C 4.24593,5.3740211 4.15832,5.4009767 4.0625,5.40625 C 4.103243,5.3231387 4.140757,5.2389575 4.1875,5.15625 z M 3.6875,5.1875 C 3.592797,5.2812248 3.494593,5.3702805 3.40625,5.46875 C 3.36426,5.4777608 3.3225,5.4897538 3.28125,5.5 C 3.321329,5.4160297 3.36248,5.3318122 3.40625,5.25 C 3.501034,5.2300483 3.588839,5.2012502 3.6875,5.1875 z M 7.8125,5.1875 C 7.941001,5.183312 8.059182,5.213993 8.1875,5.21875 C 8.045424,5.36036 7.951109,5.523187 7.84375,5.6875 C 7.714414,5.686484 7.598061,5.678752 7.46875,5.6875 C 7.566187,5.520887 7.683975,5.335069 7.8125,5.1875 z M 5.125,5.21875 C 5.167674,5.2255247 5.207616,5.2422134 5.25,5.25 C 5.212676,5.3201476 5.190322,5.3970944 5.15625,5.46875 C 5.062113,5.4505635 4.970648,5.4187287 4.875,5.40625 C 4.960913,5.3462783 5.036777,5.27416 5.125,5.21875 z M 7.4375,5.21875 C 7.316162,5.3783275 7.214316,5.5139262 7.125,5.6875 C 7.041874,5.6431273 6.95924,5.5834924 6.875,5.53125 C 6.921745,5.4465422 6.973584,5.3650303 7.03125,5.28125 C 7.169189,5.256928 7.298493,5.232337 7.4375,5.21875 z M 8.625,5.21875 C 8.749852,5.232935 8.876434,5.289922 9,5.3125 C 8.951194,5.344978 8.890577,5.338244 8.84375,5.375 C 8.72321,5.469615 8.59633,5.604584 8.5,5.71875 C 8.392069,5.704201 8.296199,5.726484 8.1875,5.71875 C 8.316719,5.542429 8.448696,5.359496 8.625,5.21875 z M 10,5.25 C 10.131627,5.2325802 10.274159,5.2437891 10.40625,5.25 C 10.387143,5.2971073 10.364095,5.3573328 10.34375,5.40625 C 10.228793,5.3574696 10.120414,5.2946995 10,5.25 z M 5.5625,5.3125 C 5.616137,5.3256594 5.665734,5.3602827 5.71875,5.375 C 5.635194,5.4088842 5.546883,5.430082 5.46875,5.46875 C 5.49592,5.4153505 5.531317,5.3644849 5.5625,5.3125 z M 9.4375,5.40625 C 9.57956,5.444835 9.736375,5.481422 9.875,5.53125 C 9.631837,5.591683 9.425536,5.707409 9.21875,5.875 C 9.108044,5.844044 8.987469,5.804771 8.875,5.78125 C 8.924951,5.732423 8.944149,5.700089 9,5.65625 C 9.132284,5.552416 9.289399,5.472008 9.4375,5.40625 z M 6.1875,5.5 C 6.293216,5.5396442 6.397922,5.5795114 6.5,5.625 C 6.464571,5.7101388 6.410266,5.7870221 6.375,5.875 C 6.230624,5.917642 6.078617,5.975208 5.9375,6.03125 C 5.953281,5.9877487 5.98157,5.9489841 6,5.90625 C 6.126183,5.8984312 6.255438,5.8744714 6.375,5.875 C 6.278574,5.8281874 6.194328,5.7596384 6.09375,5.71875 C 6.129331,5.6475386 6.150865,5.5700777 6.1875,5.5 z M 11.46875,5.5625 C 11.656632,5.6838234 11.825253,5.8466456 11.96875,6.03125 C 12.173558,6.29473 12.308058,6.595923 12.375,6.90625 C 12.251496,6.756636 12.136531,6.633841 12,6.5 C 11.990131,6.480057 11.948146,6.457173 11.9375,6.4375 C 11.885793,6.341946 11.851593,6.244122 11.78125,6.15625 C 11.663416,6.0090504 11.531187,5.8847916 11.375,5.78125 C 11.403288,5.7128616 11.4427,5.6272564 11.46875,5.5625 z M 3.9375,5.71875 C 3.957757,5.7168728 3.979593,5.7203171 4,5.71875 C 3.962907,5.754741 3.912277,5.7760172 3.875,5.8125 C 3.889355,5.7775614 3.922893,5.7530718 3.9375,5.71875 z M 4.625,5.71875 C 4.729409,5.726396 4.834365,5.7352698 4.9375,5.75 C 4.846727,5.8126653 4.750263,5.8663451 4.65625,5.9375 C 4.61461,5.9326793 4.572991,5.9409828 4.53125,5.9375 C 4.559879,5.8636579 4.593123,5.7911996 4.625,5.71875 z M 3.53125,5.75 C 3.49517,5.8406787 3.467951,5.9365247 3.4375,6.03125 C 3.374317,6.0489124 3.310569,6.0723428 3.25,6.09375 C 3.33785,5.9758755 3.434624,5.8617317 3.53125,5.75 z M 10,5.78125 C 10.061624,5.7708088 10.12444,5.7820059 10.1875,5.78125 C 10.140518,5.8880543 10.11503,5.9792705 10.0625,6.09375 C 10.021354,6.1030104 9.9775333,6.1115128 9.9375,6.125 C 9.812881,6.068549 9.690951,6.014966 9.5625,5.96875 C 9.700645,5.887812 9.845941,5.807353 10,5.78125 z M 5.40625,5.84375 C 5.499568,5.8674608 5.597253,5.8768559 5.6875,5.90625 C 5.642616,6.0001299 5.59166,6.0919095 5.5625,6.1875 C 5.406465,6.26438 5.274491,6.342979 5.125,6.4375 C 5.155228,6.322926 5.149078,6.205946 5.1875,6.09375 C 5.211199,6.024545 5.25446,5.974386 5.28125,5.90625 C 5.320165,5.8834735 5.365447,5.8668946 5.40625,5.84375 z M 7.5625,5.96875 C 7.585081,5.9729095 7.638025,5.9970457 7.65625,6 C 7.593228,6.1336701 7.54373,6.2646049 7.5,6.40625 C 7.3941,6.410053 7.293114,6.457533 7.1875,6.46875 C 7.20663,6.396921 7.194651,6.320425 7.21875,6.25 C 7.24624,6.169663 7.278627,6.109317 7.3125,6.03125 C 7.396587,6.022354 7.47809,5.9842363 7.5625,5.96875 z M 12.28125,5.96875 C 12.469328,6.143596 12.678161,6.329009 12.84375,6.53125 C 12.973536,6.923897 12.985134,7.343605 12.9375,7.75 C 12.869504,7.628754 12.796681,7.492275 12.71875,7.375 C 12.719878,6.879421 12.58001,6.398068 12.28125,5.96875 z M 7.96875,6 C 8.078445,6.003388 8.203383,5.989292 8.3125,6 C 8.224874,6.147585 8.146503,6.306726 8.09375,6.46875 C 7.999383,6.459781 7.907323,6.440618 7.8125,6.4375 C 7.859945,6.291546 7.895793,6.136146 7.96875,6 z M 2.75,6.03125 C 2.704104,6.1550366 2.662542,6.2801251 2.625,6.40625 C 2.54986,6.4580303 2.473748,6.5040027 2.40625,6.5625 C 2.317953,6.6390227 2.227468,6.7249595 2.15625,6.8125 C 2.254279,6.6064705 2.34302,6.3845315 2.46875,6.1875 C 2.557056,6.1317409 2.652131,6.0788731 2.75,6.03125 z M 8.625,6.03125 C 8.739568,6.050188 8.855817,6.097999 8.96875,6.125 C 8.854297,6.262377 8.755151,6.400258 8.6875,6.5625 C 8.583793,6.538533 8.480116,6.516717 8.375,6.5 C 8.43515,6.343429 8.526119,6.169632 8.625,6.03125 z M 13.5,6.03125 C 13.537623,6.078613 13.557312,6.10758 13.59375,6.15625 C 13.656926,6.240635 13.722864,6.319682 13.78125,6.40625 C 13.922601,6.867345 13.996608,7.367215 13.96875,7.84375 C 13.916612,7.719152 13.842005,7.621795 13.78125,7.5 C 13.784131,6.994225 13.703652,6.505751 13.5,6.03125 z M 6.9375,6.0625 C 6.886136,6.199138 6.877552,6.358477 6.84375,6.5 C 6.723255,6.521945 6.618881,6.530557 6.5,6.5625 C 6.531427,6.42064 6.546269,6.293842 6.59375,6.15625 C 6.599737,6.154664 6.587757,6.126559 6.59375,6.125 C 6.70513,6.096005 6.824793,6.083308 6.9375,6.0625 z M 4.125,6.15625 C 4.088854,6.2592561 4.057856,6.3641862 4.03125,6.46875 C 4.025083,6.474904 4.006133,6.49382 4,6.5 C 3.806549,6.694927 3.659332,6.906762 3.5,7.125 C 3.526231,6.965906 3.524021,6.812359 3.5625,6.65625 C 3.569773,6.626744 3.586042,6.591884 3.59375,6.5625 C 3.680106,6.4528275 3.778531,6.3511517 3.875,6.25 C 3.879947,6.2448127 3.90128,6.2551705 3.90625,6.25 C 3.980821,6.2204142 4.048915,6.1784729 4.125,6.15625 z M 4.875,6.15625 C 4.8213,6.329261 4.785454,6.510134 4.75,6.6875 C 4.560806,6.832349 4.381471,6.958087 4.21875,7.125 C 4.22017,7.115001 4.217276,7.103741 4.21875,7.09375 C 4.241242,6.941267 4.277168,6.775042 4.3125,6.625 C 4.46415,6.479523 4.609483,6.347283 4.78125,6.21875 C 4.810801,6.196638 4.845111,6.177645 4.875,6.15625 z M 9.3125,6.1875 C 9.413198,6.219296 9.495239,6.27418 9.59375,6.3125 C 9.581707,6.322138 9.543024,6.333545 9.53125,6.34375 C 9.403325,6.45462 9.317309,6.599031 9.25,6.75 C 9.161847,6.716957 9.089933,6.6525 9,6.625 C 9.070642,6.463135 9.185324,6.314293 9.3125,6.1875 z M 11.1875,6.21875 C 11.348118,6.3369751 11.508727,6.4583604 11.65625,6.59375 C 11.66314,6.606757 11.680999,6.611845 11.6875,6.625 C 11.834417,6.922315 11.886258,7.270074 11.84375,7.59375 C 11.775903,7.50614 11.69773,7.42569 11.625,7.34375 C 11.617156,7.049515 11.515486,6.739905 11.3125,6.5 C 11.258138,6.4357508 11.190083,6.3942673 11.125,6.34375 C 11.145207,6.2980819 11.168146,6.2631381 11.1875,6.21875 z M 6.21875,6.25 C 6.176986,6.394828 6.181765,6.539073 6.15625,6.6875 C 6.021489,6.735693 5.880787,6.781927 5.75,6.84375 C 5.773835,6.69717 5.805267,6.549811 5.84375,6.40625 C 5.965977,6.351061 6.093356,6.294174 6.21875,6.25 z M 3.34375,6.375 C 3.33764,6.3970189 3.318495,6.415637 3.3125,6.4375 C 3.076333,6.744392 2.860423,7.096176 2.6875,7.4375 C 2.718406,7.216533 2.759783,6.998235 2.8125,6.78125 C 2.822377,6.76383 2.833705,6.736086 2.84375,6.71875 C 2.874213,6.6661822 2.905512,6.6143696 2.9375,6.5625 C 3.064712,6.4905715 3.195538,6.4254844 3.34375,6.375 z M 9.875,6.5 C 9.8138085,6.6279779 9.724149,6.7694415 9.65625,6.90625 C 9.6120314,6.8995403 9.5682595,6.89182 9.53125,6.875 C 9.578768,6.760376 9.652194,6.647267 9.75,6.5625 C 9.7880513,6.5295213 9.8321282,6.5167849 9.875,6.5 z M 5.46875,6.59375 C 5.435293,6.751704 5.423235,6.902026 5.40625,7.0625 C 5.261642,7.147476 5.105489,7.209234 4.96875,7.3125 C 4.976949,7.204548 4.953528,7.075883 4.96875,6.96875 C 4.973267,6.936957 4.994868,6.937945 5,6.90625 C 5.15033,6.79548 5.309695,6.684046 5.46875,6.59375 z M 11,6.65625 C 11.009858,6.6671879 11.021583,6.6760751 11.03125,6.6875 C 11.079332,6.744327 11.122775,6.811837 11.15625,6.875 C 11.098767,6.825598 11.02727,6.7976028 10.96875,6.75 C 10.984993,6.7148744 10.984213,6.6907251 11,6.65625 z M 14.6875,6.71875 C 14.744675,6.99767 14.798258,7.279504 14.8125,7.5625 C 14.828981,7.51558 14.900677,7.297337 14.90625,7.28125 C 14.845559,7.085508 14.765411,6.90665 14.6875,6.71875 z M 1.8125,6.75 C 1.80075,6.8017064 1.791904,6.8542065 1.78125,6.90625 C 1.718021,7.051758 1.678564,7.194693 1.625,7.34375 C 1.567834,7.5028317 1.51459,7.6771331 1.46875,7.84375 C 1.463344,7.4419544 1.570795,7.0651307 1.8125,6.75 z M 7.40625,6.75 C 7.382566,6.877225 7.381307,6.99585 7.375,7.125 C 7.268874,7.129178 7.168178,7.143427 7.0625,7.15625 C 7.06707,7.050941 7.078805,6.948101 7.09375,6.84375 C 7.096713,6.823067 7.121634,6.801877 7.125,6.78125 C 7.228167,6.767867 7.302603,6.755733 7.40625,6.75 z M 7.75,6.75 C 7.847956,6.752113 7.933728,6.741208 8.03125,6.75 C 8.005213,6.882326 7.971668,7.021457 7.96875,7.15625 C 7.872745,7.145025 7.784106,7.129221 7.6875,7.125 C 7.691337,7.048592 7.676934,6.982038 7.6875,6.90625 C 7.694514,6.855937 7.740056,6.799849 7.75,6.75 z M 8.28125,6.75 C 8.387514,6.766014 8.488947,6.788609 8.59375,6.8125 C 8.558738,6.956099 8.560017,7.134317 8.5625,7.28125 C 8.462829,7.254149 8.351385,7.206811 8.25,7.1875 C 8.251722,7.043975 8.248866,6.890113 8.28125,6.75 z M 6.78125,6.84375 C 6.765559,6.958293 6.754153,7.071958 6.75,7.1875 C 6.625895,7.213042 6.496747,7.274478 6.375,7.3125 C 6.377943,7.19337 6.392113,7.055793 6.40625,6.9375 C 6.528576,6.898696 6.656603,6.870843 6.78125,6.84375 z M 8.90625,6.90625 C 8.996871,6.934165 9.067569,6.966114 9.15625,7 C 9.124435,7.171499 9.16875,7.332832 9.21875,7.5 C 9.113991,7.450876 9.014602,7.383455 8.90625,7.34375 C 8.89694,7.240659 8.861945,7.13427 8.875,7.03125 C 8.881307,6.981481 8.89489,6.95522 8.90625,6.90625 z M 6.09375,7.03125 C 6.084067,7.146741 6.062299,7.290223 6.0625,7.40625 C 5.941322,7.456026 5.835579,7.499418 5.71875,7.5625 C 5.718055,7.445611 5.710098,7.335255 5.71875,7.21875 C 5.843755,7.152444 5.96415,7.083514 6.09375,7.03125 z M 3.90625,7.09375 C 3.882583,7.25609 3.885002,7.398723 3.875,7.5625 C 3.868959,7.570312 3.88099,7.585907 3.875,7.59375 C 3.691794,7.833628 3.510519,8.109306 3.375,8.375 C 3.367729,8.180367 3.395445,7.974946 3.40625,7.78125 C 3.411468,7.772266 3.400977,7.758958 3.40625,7.75 C 3.543352,7.517103 3.732514,7.305144 3.90625,7.09375 z M 12.15625,7.09375 C 12.203251,7.150507 12.236425,7.222111 12.28125,7.28125 C 12.330471,7.346189 12.39178,7.433476 12.4375,7.5 C 12.426191,7.760996 12.346571,8.00581 12.25,8.25 C 12.197378,8.154052 12.12199,8.061956 12.0625,7.96875 C 12.150884,7.692086 12.191439,7.380564 12.15625,7.09375 z M 9.46875,7.125 C 9.4898525,7.1348712 9.5102479,7.1462027 9.53125,7.15625 C 9.511533,7.1951423 9.5202501,7.2416745 9.5,7.28125 C 9.4917663,7.2254681 9.4655353,7.1795476 9.46875,7.125 z M 10.96875,7.125 C 11.078922,7.219341 11.148164,7.33201 11.25,7.4375 C 11.235478,7.634745 11.178432,7.802414 11.0625,7.96875 C 11.007649,7.904968 10.932948,7.841234 10.875,7.78125 C 11.00066,7.574027 11.053181,7.352388 10.96875,7.125 z M 13.25,7.15625 C 13.330279,7.286368 13.431058,7.4281 13.5,7.5625 C 13.493039,7.911043 13.419508,8.261257 13.3125,8.59375 C 13.264814,8.458799 13.245941,8.319446 13.1875,8.1875 C 13.270342,7.85171 13.278463,7.501113 13.25,7.15625 z M 4.6875,7.1875 C 4.673848,7.324237 4.659028,7.456263 4.65625,7.59375 C 4.485915,7.75175 4.327916,7.914235 4.1875,8.09375 C 4.181789,7.940498 4.211729,7.809121 4.21875,7.65625 C 4.360211,7.486677 4.519728,7.337511 4.6875,7.1875 z M 14.25,7.21875 C 14.302023,7.327106 14.329444,7.452086 14.375,7.5625 C 14.375616,7.57622 14.405753,7.580029 14.40625,7.59375 C 14.421938,8.027361 14.352373,8.421958 14.25,8.84375 C 14.22339,8.727855 14.189567,8.614602 14.15625,8.5 C 14.243753,8.076032 14.288801,7.650943 14.25,7.21875 z M 3.125,7.25 C 3.101029,7.420052 3.103994,7.578501 3.09375,7.75 C 3.088944,7.758908 3.098506,7.772317 3.09375,7.78125 C 2.909049,8.128139 2.733374,8.468514 2.625,8.84375 C 2.613183,8.689072 2.625932,8.561129 2.625,8.40625 C 2.756247,8.001953 2.909098,7.619639 3.125,7.25 z M 10.71875,7.28125 C 10.726616,7.3752582 10.693907,7.4765665 10.65625,7.5625 C 10.633592,7.542243 10.613618,7.5215491 10.59375,7.5 C 10.629562,7.4273853 10.684596,7.3516386 10.71875,7.28125 z M 2.15625,7.375 C 2.085857,7.540993 2.026569,7.7012489 1.96875,7.875 C 1.978903,7.7493722 2.013444,7.6258483 2.03125,7.5 C 2.075802,7.4601087 2.111422,7.4150665 2.15625,7.375 z M 5.375,7.40625 C 5.371048,7.539228 5.367432,7.648248 5.375,7.78125 C 5.325785,7.815096 5.266768,7.838493 5.21875,7.875 C 5.132662,7.940451 5.04767,8.022085 4.96875,8.09375 C 4.958025,7.967814 4.938508,7.844885 4.9375,7.71875 C 5.01008,7.655134 5.078297,7.590121 5.15625,7.53125 C 5.222249,7.481405 5.306907,7.451443 5.375,7.40625 z M 7.375,7.40625 C 7.382453,7.531735 7.381717,7.657276 7.40625,7.78125 C 7.3033,7.782795 7.1964,7.801295 7.09375,7.8125 C 7.072706,7.692271 7.038035,7.590205 7.03125,7.46875 C 7.146087,7.452164 7.259397,7.411813 7.375,7.40625 z M 7.6875,7.4375 C 7.799031,7.442037 7.889379,7.454217 8,7.46875 C 8.015953,7.610571 8.019437,7.737633 8.0625,7.875 C 7.950492,7.854275 7.86354,7.790457 7.75,7.78125 C 7.724599,7.666743 7.696657,7.553854 7.6875,7.4375 z M 6.75,7.5 C 6.75653,7.611956 6.763537,7.732625 6.78125,7.84375 C 6.66572,7.868677 6.550563,7.930934 6.4375,7.96875 C 6.419681,7.855175 6.382167,7.73945 6.375,7.625 C 6.49449,7.584397 6.627693,7.52748 6.75,7.5 z M 8.28125,7.5 C 8.379761,7.520356 8.497148,7.534226 8.59375,7.5625 C 8.633522,7.748158 8.703295,7.928631 8.8125,8.09375 C 8.677023,8.033195 8.547971,7.94813 8.40625,7.90625 C 8.353439,7.775393 8.303601,7.637241 8.28125,7.5 z M 2.375,7.71875 C 2.358087,7.912404 2.313311,8.117922 2.3125,8.3125 C 2.167598,8.753262 2.107764,9.195943 2.0625,9.65625 C 2.048928,9.575362 2.010774,9.487436 2,9.40625 C 1.998685,9.396341 2.001273,9.384913 2,9.375 C 2.048708,8.874135 2.119777,8.383781 2.28125,7.90625 C 2.301534,7.846259 2.352966,7.778164 2.375,7.71875 z M 6.09375,7.71875 C 6.103718,7.83551 6.104745,7.946666 6.125,8.0625 C 5.992191,8.121891 5.907316,8.233767 5.78125,8.3125 C 5.758557,8.187666 5.730215,8.063506 5.71875,7.9375 C 5.840719,7.864652 5.965831,7.775291 6.09375,7.71875 z M 8.96875,7.71875 C 9.0410159,7.7487569 9.1147899,7.7795403 9.1875,7.8125 C 9.1631127,7.8583366 9.1500469,7.9220927 9.125,7.96875 C 9.0716552,7.8847487 9.0040568,7.8045337 8.96875,7.71875 z M 11.5625,7.75 C 11.586439,7.779885 11.601714,7.781892 11.625,7.8125 C 11.666198,7.866652 11.711537,7.944609 11.75,8 C 11.682644,8.173626 11.558622,8.354853 11.4375,8.5 C 11.38931,8.423034 11.334706,8.355928 11.28125,8.28125 C 11.409253,8.121862 11.511351,7.944209 11.5625,7.75 z M 12.65625,7.875 C 12.723464,7.993274 12.786581,8.096923 12.84375,8.21875 C 12.77774,8.446585 12.682455,8.667472 12.5625,8.875 C 12.526123,8.778812 12.48003,8.688104 12.4375,8.59375 C 12.564156,8.357975 12.605999,8.134951 12.65625,7.875 z M 4.65625,8 C 4.662642,8.114597 4.704625,8.229584 4.71875,8.34375 C 4.544211,8.536387 4.379107,8.716964 4.25,8.9375 C 4.22634,8.814544 4.233816,8.686405 4.21875,8.5625 C 4.350059,8.359813 4.487926,8.178692 4.65625,8 z M 10.6875,8 C 10.752386,8.06733 10.814355,8.146396 10.875,8.21875 C 10.745153,8.326841 10.590088,8.391521 10.4375,8.4375 C 10.376078,8.3684586 10.315183,8.2868714 10.25,8.21875 C 10.256886,8.2054563 10.274414,8.2007304 10.28125,8.1875 C 10.425597,8.1622121 10.566061,8.0921185 10.6875,8 z M 7.1875,8.09375 C 7.297646,8.083584 7.389617,8.091734 7.5,8.09375 C 7.538518,8.213831 7.569072,8.322145 7.625,8.4375 C 7.507647,8.429121 7.398959,8.430664 7.28125,8.4375 C 7.240329,8.33497 7.216708,8.1992 7.1875,8.09375 z M 7.84375,8.09375 C 7.969268,8.109351 8.095923,8.156513 8.21875,8.1875 C 8.287176,8.32977 8.335726,8.434259 8.4375,8.5625 C 8.467246,8.599982 8.499396,8.652514 8.53125,8.6875 C 8.36738,8.61425 8.205278,8.539908 8.03125,8.5 C 7.94951,8.364168 7.896474,8.239236 7.84375,8.09375 z M 5.40625,8.125 C 5.421151,8.239269 5.413797,8.355578 5.4375,8.46875 C 5.299248,8.577833 5.177914,8.716549 5.0625,8.84375 C 5.032097,8.720329 5.051755,8.593658 5.03125,8.46875 C 5.1483,8.348783 5.269708,8.228808 5.40625,8.125 z M 13.71875,8.125 C 13.763535,8.241834 13.838004,8.349964 13.875,8.46875 C 13.804039,8.799344 13.712282,9.100437 13.5625,9.40625 C 13.538091,9.279952 13.501861,9.156124 13.46875,9.03125 C 13.595431,8.742559 13.665861,8.434128 13.71875,8.125 z M 3.84375,8.15625 C 3.848801,8.284067 3.89267,8.403844 3.90625,8.53125 C 3.754148,8.782495 3.598781,9.070183 3.5,9.34375 C 3.475686,9.219996 3.485298,9.093409 3.46875,8.96875 C 3.472428,8.959296 3.465011,8.946933 3.46875,8.9375 C 3.57258,8.675566 3.69317,8.39744 3.84375,8.15625 z M 6.84375,8.15625 C 6.871979,8.264247 6.898045,8.394518 6.9375,8.5 C 6.820262,8.522397 6.676759,8.524078 6.5625,8.5625 C 6.528457,8.46221 6.493685,8.38354 6.46875,8.28125 C 6.594248,8.236055 6.714559,8.183562 6.84375,8.15625 z M 11.9375,8.3125 C 11.989546,8.402188 12.07949,8.470447 12.125,8.5625 C 12.022762,8.739244 11.899423,8.885392 11.75,9.03125 C 11.707902,8.936485 11.642868,8.842376 11.59375,8.75 C 11.725748,8.614049 11.849392,8.475615 11.9375,8.3125 z M 6.1875,8.375 C 6.214842,8.481724 6.276005,8.582784 6.3125,8.6875 C 6.178038,8.749015 6.031723,8.789102 5.90625,8.875 C 5.872582,8.774617 5.838298,8.695889 5.8125,8.59375 C 5.925491,8.516206 6.06757,8.434342 6.1875,8.375 z M 8.65625,8.375 C 8.7211259,8.4029991 8.7805087,8.4364689 8.84375,8.46875 C 8.8323003,8.4894608 8.8240714,8.510391 8.8125,8.53125 C 8.7599842,8.4787229 8.7022129,8.4329163 8.65625,8.375 z M 3.09375,8.4375 C 3.10181,8.593348 3.105328,8.751042 3.125,8.90625 C 2.990328,9.273093 2.891321,9.644909 2.84375,10.03125 C 2.808708,9.899561 2.776552,9.789361 2.75,9.65625 C 2.748229,9.647378 2.751733,9.633878 2.75,9.625 C 2.802018,9.30449 2.891013,8.993648 3,8.6875 C 3.028123,8.608506 3.061905,8.51517 3.09375,8.4375 z M 11.09375,8.46875 C 11.144866,8.541293 11.172962,8.643975 11.21875,8.71875 C 11.097504,8.815337 10.980142,8.878624 10.84375,8.9375 C 10.793725,8.857323 10.74405,8.796093 10.6875,8.71875 C 10.82929,8.663752 10.971363,8.57063 11.09375,8.46875 z M 13,8.625 C 13.040924,8.736008 13.091813,8.85588 13.125,8.96875 C 13.019323,9.200341 12.905629,9.419828 12.75,9.625 C 12.724733,9.507299 12.721217,9.397364 12.6875,9.28125 C 12.829976,9.080446 12.908266,8.849777 13,8.625 z M 7.03125,8.75 C 7.078282,8.848202 7.161153,8.936792 7.21875,9.03125 C 7.080016,9.042277 6.915988,9.055435 6.78125,9.09375 C 6.735738,9.008746 6.725547,8.931301 6.6875,8.84375 C 6.806672,8.805175 6.908555,8.768959 7.03125,8.75 z M 7.40625,8.75 C 7.541586,8.750063 7.678938,8.758945 7.8125,8.78125 C 7.849452,8.836616 7.895909,8.884122 7.9375,8.9375 C 8.011534,9.032511 8.102933,9.104854 8.1875,9.1875 C 8.000412,9.11489 7.792721,9.051319 7.59375,9.03125 C 7.524158,8.931988 7.462198,8.854812 7.40625,8.75 z M 4.75,8.78125 C 4.775519,8.900657 4.809385,9.007176 4.84375,9.125 C 4.701274,9.325803 4.591734,9.556472 4.5,9.78125 C 4.458975,9.670004 4.408311,9.550622 4.375,9.4375 C 4.481911,9.208299 4.593569,8.984867 4.75,8.78125 z M 10.40625,8.78125 C 10.415123,8.792535 10.42875,8.801083 10.4375,8.8125 C 10.487364,8.877568 10.517855,8.963811 10.5625,9.03125 C 10.411601,9.067867 10.248183,9.065376 10.09375,9.0625 C 10.037961,8.9901516 9.975241,8.9293931 9.90625,8.875 C 9.9169784,8.8550465 9.9268743,8.8323278 9.9375,8.8125 C 10.093397,8.8267655 10.253602,8.807009 10.40625,8.78125 z M 5.53125,8.8125 C 5.559556,8.9104 5.621016,8.997493 5.65625,9.09375 C 5.519461,9.217214 5.38657,9.354093 5.28125,9.5 C 5.239155,9.396279 5.221949,9.293252 5.1875,9.1875 C 5.294178,9.053247 5.39942,8.927794 5.53125,8.8125 z M 8.34375,8.90625 C 8.4147556,8.9352397 8.4638619,8.9950341 8.53125,9.03125 C 8.5263214,9.0398954 8.5361981,9.0538313 8.53125,9.0625 C 8.4714146,9.0090635 8.3995045,8.9656189 8.34375,8.90625 z M 12.25,8.90625 C 12.291744,9.009861 12.309724,9.113132 12.34375,9.21875 C 12.231537,9.359968 12.108768,9.504881 11.96875,9.625 C 11.93925,9.520702 11.880978,9.446221 11.84375,9.34375 C 11.993949,9.212742 12.136372,9.063667 12.25,8.90625 z M 6.375,8.9375 C 6.41247,9.024911 6.455763,9.133566 6.5,9.21875 C 6.371312,9.27881 6.24168,9.348554 6.125,9.4375 C 6.080802,9.350983 6.037625,9.276209 6,9.1875 C 6.119276,9.098286 6.245186,9.000227 6.375,8.9375 z M 11.375,8.96875 C 11.423395,9.061746 11.459247,9.123275 11.5,9.21875 C 11.380725,9.307963 11.254814,9.406023 11.125,9.46875 C 11.084519,9.37431 11.048382,9.279319 11,9.1875 C 11.127789,9.12715 11.258412,9.057725 11.375,8.96875 z M 3.96875,9.03125 C 3.991314,9.147856 4.032482,9.259654 4.0625,9.375 C 3.93404,9.674297 3.830753,9.992245 3.78125,10.3125 C 3.733538,10.187253 3.695083,10.06507 3.65625,9.9375 C 3.693178,9.76546 3.72277,9.572729 3.78125,9.40625 C 3.831612,9.26288 3.902714,9.168772 3.96875,9.03125 z M 2.40625,9.28125 C 2.425038,9.419235 2.441519,9.550529 2.46875,9.6875 C 2.401771,10.181511 2.436608,10.691462 2.5,11.1875 C 2.471237,11.117705 2.432649,11.039202 2.40625,10.96875 C 2.323877,10.421499 2.288795,9.892046 2.375,9.34375 C 2.378177,9.323541 2.40287,9.301426 2.40625,9.28125 z M 9.65625,9.3125 C 9.7360654,9.3317066 9.8222056,9.3669485 9.90625,9.375 C 9.975877,9.474153 10.068931,9.583065 10.125,9.6875 C 9.978692,9.687432 9.831581,9.651031 9.6875,9.625 C 9.65044,9.569599 9.604092,9.522128 9.5625,9.46875 C 9.5931799,9.4134629 9.6262988,9.3669201 9.65625,9.3125 z M 6.96875,9.34375 C 7.107676,9.313246 7.264648,9.341114 7.40625,9.34375 C 7.498038,9.46278 7.582307,9.553061 7.6875,9.65625 C 7.494753,9.615637 7.319482,9.590625 7.125,9.625 C 7.116127,9.613713 7.1025,9.605168 7.09375,9.59375 C 7.039642,9.523147 7.016716,9.417134 6.96875,9.34375 z M 5.78125,9.40625 C 5.818038,9.487392 5.864204,9.545622 5.90625,9.625 C 5.77545,9.760256 5.679091,9.932251 5.59375,10.09375 C 5.541541,10.004014 5.452,9.93588 5.40625,9.84375 C 5.504082,9.674625 5.640168,9.547337 5.78125,9.40625 z M 7.90625,9.40625 C 8.0203196,9.4400103 8.1109798,9.5114666 8.21875,9.5625 C 8.2064053,9.5836566 8.1997769,9.6040079 8.1875,9.625 C 8.0952817,9.549742 7.9909245,9.4928166 7.90625,9.40625 z M 6.6875,9.46875 C 6.737525,9.54893 6.787201,9.641406 6.84375,9.71875 C 6.703662,9.77429 6.559886,9.835619 6.4375,9.9375 C 6.381812,9.858389 6.330581,9.76934 6.28125,9.6875 C 6.409232,9.585543 6.542861,9.52873 6.6875,9.46875 z M 13.28125,9.46875 C 13.305094,9.593255 13.297525,9.718247 13.3125,9.84375 C 13.185899,10.039168 13.036028,10.201782 12.875,10.375 C 12.867959,10.256293 12.827702,10.149443 12.8125,10.03125 C 12.980185,9.846181 13.155473,9.67973 13.28125,9.46875 z M 4.96875,9.5 C 5.009359,9.607198 5.045369,9.707532 5.09375,9.8125 C 4.967093,10.048279 4.894001,10.302548 4.84375,10.5625 C 4.776483,10.444066 4.744752,10.309551 4.6875,10.1875 C 4.756275,9.950125 4.841477,9.715055 4.96875,9.5 z M 12.46875,9.5625 C 12.49859,9.68574 12.480125,9.812794 12.5,9.9375 C 12.383261,10.058067 12.261542,10.177441 12.125,10.28125 C 12.112869,10.290475 12.105971,10.30346 12.09375,10.3125 C 12.078925,10.197962 12.054811,10.082216 12.03125,9.96875 C 12.182506,9.852667 12.344103,9.699877 12.46875,9.5625 z M 3.25,9.625 C 3.274568,9.727334 3.313856,9.80493 3.34375,9.90625 C 3.253354,10.329965 3.244683,10.755508 3.28125,11.1875 C 3.232335,11.087375 3.19955,10.976881 3.15625,10.875 C 3.14727,10.853873 3.133739,10.833697 3.125,10.8125 C 3.110073,10.399929 3.157941,10.027493 3.25,9.625 z M 4.1875,9.84375 C 4.237926,9.984846 4.281422,10.112347 4.34375,10.25 C 4.266964,10.575715 4.253705,10.916252 4.28125,11.25 C 4.201234,11.119396 4.099759,10.978962 4.03125,10.84375 C 4.037852,10.50197 4.082548,10.170523 4.1875,9.84375 z M 10.96875,9.84375 C 11.002792,9.944038 11.037564,10.02271 11.0625,10.125 C 10.932847,10.17169 10.821063,10.253638 10.6875,10.28125 C 10.658465,10.166664 10.60389,10.049334 10.5625,9.9375 C 10.694956,9.914937 10.840158,9.886383 10.96875,9.84375 z M 9.34375,9.875 C 9.3947611,9.8887066 9.448219,9.8946201 9.5,9.90625 C 9.58174,10.04208 9.634776,10.167014 9.6875,10.3125 C 9.561983,10.296902 9.435327,10.280987 9.3125,10.25 C 9.2857327,10.194278 9.2440567,10.14781 9.21875,10.09375 C 9.2627278,10.017052 9.2991374,9.9537708 9.34375,9.875 z M 6.03125,9.90625 C 6.087243,9.995847 6.15551,10.069752 6.21875,10.15625 C 6.101225,10.309677 6.017187,10.503585 5.96875,10.6875 C 5.944811,10.657617 5.929536,10.624358 5.90625,10.59375 C 5.855988,10.527683 5.796249,10.442913 5.75,10.375 C 5.815971,10.211285 5.91508,10.04464 6.03125,9.90625 z M 7.375,9.90625 C 7.5713652,9.9082163 7.7534959,9.9483354 7.9375,10.03125 C 7.890241,10.110782 7.8586867,10.204257 7.8125,10.28125 C 7.657039,10.168794 7.511931,10.044751 7.375,9.90625 z M 7.03125,9.9375 C 7.115934,10.036091 7.188209,10.130657 7.28125,10.21875 C 7.118457,10.236197 6.981382,10.301849 6.84375,10.40625 C 6.768968,10.328652 6.694119,10.240519 6.625,10.15625 C 6.74846,10.053475 6.885059,9.980696 7.03125,9.9375 z M 9.875,9.96875 C 10.0065,9.980335 10.118032,9.975918 10.25,9.96875 C 10.29485,10.080914 10.34422,10.197089 10.375,10.3125 C 10.255722,10.324631 10.119611,10.314685 10,10.3125 C 9.962029,10.193621 9.929607,10.083045 9.875,9.96875 z M 11.75,10.09375 C 11.772915,10.217892 11.80079,10.343513 11.8125,10.46875 C 11.690531,10.541596 11.565419,10.630958 11.4375,10.6875 C 11.427531,10.570739 11.395256,10.459585 11.375,10.34375 C 11.508419,10.284556 11.62366,10.172395 11.75,10.09375 z M 5.28125,10.15625 C 5.327648,10.239122 5.38587,10.325383 5.4375,10.40625 C 5.348292,10.684505 5.336148,10.991038 5.375,11.28125 C 5.33153,11.228398 5.260373,11.179915 5.21875,11.125 C 5.169529,11.060063 5.13948,11.00406 5.09375,10.9375 C 5.103227,10.718787 5.149128,10.48966 5.21875,10.28125 C 5.23221,10.240956 5.265604,10.195812 5.28125,10.15625 z M 12.5625,10.28125 C 12.573899,10.414241 12.562032,10.554266 12.5625,10.6875 C 12.493443,10.747568 12.448882,10.819202 12.375,10.875 C 12.297059,10.933863 12.205837,10.978869 12.125,11.03125 C 12.129032,10.897163 12.132588,10.759162 12.125,10.625 C 12.193835,10.579427 12.245961,10.550588 12.3125,10.5 C 12.398588,10.434551 12.483579,10.352915 12.5625,10.28125 z M 13.375,10.3125 C 13.379224,10.458547 13.319886,10.604246 13.3125,10.75 C 13.171039,10.919576 13.011522,11.068739 12.84375,11.21875 C 12.857661,11.081076 12.871941,10.950954 12.875,10.8125 C 13.047275,10.652261 13.233938,10.49496 13.375,10.3125 z M 6.40625,10.40625 C 6.472628,10.484357 6.553941,10.55248 6.625,10.625 C 6.494406,10.830651 6.453246,11.055913 6.53125,11.28125 C 6.415425,11.180785 6.325169,11.050391 6.21875,10.9375 C 6.219671,10.927384 6.217564,10.916348 6.21875,10.90625 C 6.239238,10.731788 6.310656,10.555832 6.40625,10.40625 z M 11.09375,10.4375 C 11.111569,10.551078 11.149083,10.6668 11.15625,10.78125 C 11.03676,10.821852 10.903557,10.87877 10.78125,10.90625 C 10.773996,10.789524 10.738005,10.678317 10.71875,10.5625 C 10.84253,10.537144 10.972888,10.47746 11.09375,10.4375 z M 7.40625,10.46875 C 7.4950175,10.473461 7.5771082,10.487659 7.65625,10.53125 C 7.6086041,10.609869 7.5464606,10.705379 7.5,10.78125 C 7.4526553,10.764179 7.395047,10.745314 7.34375,10.75 C 7.312066,10.752893 7.285463,10.766799 7.25,10.78125 C 7.173188,10.720814 7.072766,10.691212 7,10.625 C 7.065537,10.573165 7.141477,10.518426 7.21875,10.5 C 7.276705,10.486181 7.347072,10.465609 7.40625,10.46875 z M 9,10.46875 C 9.0290048,10.482869 9.061888,10.490823 9.09375,10.5 C 9.143049,10.625643 9.197351,10.743607 9.21875,10.875 C 9.120402,10.853854 9.00263,10.841555 8.90625,10.8125 C 8.8970679,10.772094 8.8866393,10.727171 8.875,10.6875 C 8.9172119,10.616328 8.9571333,10.541931 9,10.46875 z M 3.5625,10.5625 C 3.617763,10.691938 3.685268,10.811078 3.75,10.9375 C 3.754843,11.438013 3.855065,11.938613 4.0625,12.40625 C 4.009853,12.341472 3.956611,12.286018 3.90625,12.21875 C 3.851931,12.146196 3.800752,12.07413 3.75,12 C 3.608649,11.538904 3.534643,11.039035 3.5625,10.5625 z M 9.46875,10.5625 C 9.575366,10.581149 9.7046,10.585328 9.8125,10.59375 C 9.841352,10.717175 9.83386,10.843088 9.84375,10.96875 C 9.732219,10.964212 9.641872,10.983283 9.53125,10.96875 C 9.517913,10.838896 9.505692,10.68913 9.46875,10.5625 z M 2.71875,10.59375 C 2.744906,10.669395 2.783555,10.737584 2.8125,10.8125 C 2.815361,10.819904 2.778362,10.836353 2.78125,10.84375 C 2.799709,11.383552 2.927491,11.925229 3.125,12.4375 C 3.063248,12.345986 3.025619,12.249782 2.96875,12.15625 C 2.953676,12.13146 2.952232,12.087425 2.9375,12.0625 C 2.790035,11.603044 2.704647,11.132515 2.6875,10.65625 C 2.686768,10.635921 2.719247,10.614081 2.71875,10.59375 z M 10.40625,10.59375 C 10.42596,10.707679 10.493238,10.822587 10.5,10.9375 C 10.385164,10.954084 10.271854,10.994438 10.15625,11 C 10.147557,10.872638 10.119772,10.750759 10.09375,10.625 C 10.206059,10.62384 10.29438,10.60624 10.40625,10.59375 z M 4.59375,10.6875 C 4.661945,10.80735 4.703152,10.946677 4.78125,11.0625 C 4.78592,11.547881 4.957404,12.017039 5.25,12.4375 C 5.061922,12.262652 4.853089,12.077241 4.6875,11.875 C 4.560946,11.492127 4.551451,11.084187 4.59375,10.6875 z M 5.65625,10.8125 C 5.726562,10.900706 5.832283,10.979966 5.90625,11.0625 C 5.90752,11.367447 6.00845,11.657701 6.21875,11.90625 C 6.3210134,12.027113 6.4591432,12.11771 6.59375,12.1875 C 6.5611908,12.236637 6.5629916,12.265083 6.53125,12.3125 C 6.3053856,12.160587 6.0811809,12.002068 5.875,11.8125 C 5.695215,11.498388 5.611919,11.158745 5.65625,10.8125 z M 11.8125,10.8125 C 11.814308,10.943126 11.822508,11.057388 11.8125,11.1875 C 11.687495,11.253806 11.53585,11.322736 11.40625,11.375 C 11.416985,11.246955 11.438923,11.097404 11.4375,10.96875 C 11.566653,10.916199 11.688284,10.879852 11.8125,10.8125 z M 6.8125,10.84375 C 6.878957,10.903035 6.961676,10.976419 7.03125,11.03125 C 7.025558,11.087436 7.066773,11.101346 7.09375,11.15625 C 7.111389,11.192149 7.124304,11.225454 7.1875,11.25 C 7.1408903,11.324277 7.1077918,11.397414 7.0625,11.46875 C 7.0193627,11.451001 6.9720165,11.409813 6.9375,11.375 C 6.84052,11.277187 6.772118,11.13758 6.78125,11 C 6.784511,10.950864 6.796985,10.890709 6.8125,10.84375 z M 11.15625,11.09375 C 11.154093,11.22299 11.140332,11.340447 11.125,11.46875 C 10.998285,11.50895 10.879189,11.597366 10.75,11.625 C 10.768498,11.489687 10.747523,11.324191 10.75,11.1875 C 10.88407,11.160206 11.024916,11.135371 11.15625,11.09375 z M 12.5625,11.09375 C 12.550149,11.242444 12.494457,11.384281 12.46875,11.53125 C 12.323574,11.636139 12.184386,11.7265 12.03125,11.8125 C 12.061042,11.667049 12.077862,11.522628 12.09375,11.375 C 12.245723,11.287049 12.419401,11.20182 12.5625,11.09375 z M 8.625,11.125 C 8.6378361,11.261431 8.6555836,11.399418 8.625,11.53125 C 8.5633404,11.512258 8.5019003,11.468816 8.4375,11.4375 C 8.49857,11.339001 8.5623346,11.228044 8.625,11.125 z M 8.96875,11.125 C 9.058668,11.148717 9.127416,11.201353 9.21875,11.21875 C 9.217028,11.362276 9.219884,11.516137 9.1875,11.65625 C 9.091887,11.641117 9.000656,11.615271 8.90625,11.59375 C 8.938336,11.451348 8.973065,11.270683 8.96875,11.125 z M 10.46875,11.21875 C 10.463739,11.359678 10.430126,11.48605 10.40625,11.625 C 10.298563,11.638972 10.201951,11.681864 10.09375,11.6875 C 10.084252,11.687993 10.072,11.687069 10.0625,11.6875 C 10.088184,11.549034 10.119802,11.422056 10.125,11.28125 C 10.244137,11.276884 10.350151,11.23389 10.46875,11.21875 z M 9.5625,11.25 C 9.660435,11.260711 9.7452,11.246528 9.84375,11.25 C 9.838474,11.387351 9.808159,11.521346 9.78125,11.65625 C 9.683293,11.654135 9.597522,11.665042 9.5,11.65625 C 9.530208,11.520842 9.55744,11.388324 9.5625,11.25 z M 6.34375,11.46875 C 6.4986878,11.603938 6.6509409,11.732841 6.8125,11.84375 C 6.7932754,11.873384 6.7689648,11.908427 6.75,11.9375 C 6.6321256,11.887218 6.524465,11.821532 6.4375,11.71875 C 6.379802,11.650558 6.380113,11.546895 6.34375,11.46875 z M 4.09375,11.5625 C 4.159283,11.660791 4.240516,11.748288 4.3125,11.84375 C 4.357619,11.903585 4.390509,11.973467 4.4375,12.03125 C 4.540427,12.320915 4.679388,12.587243 4.875,12.84375 C 5.0879864,13.123039 5.3447645,13.346979 5.625,13.53125 C 5.594698,13.571222 5.5602249,13.649906 5.53125,13.6875 C 5.2149534,13.486286 4.922819,13.250422 4.6875,12.9375 C 4.376794,12.52433 4.186584,12.04258 4.09375,11.5625 z M 5.15625,11.5625 C 5.324206,11.759495 5.528342,11.925126 5.71875,12.09375 C 5.729165,12.102972 5.708273,12.115863 5.71875,12.125 C 5.736107,12.148826 5.76263,12.19549 5.78125,12.21875 C 5.9219915,12.394566 6.0951881,12.546925 6.28125,12.65625 C 6.2242451,12.738685 6.1789726,12.798604 6.125,12.875 C 5.9162861,12.74789 5.7215766,12.579647 5.5625,12.375 C 5.373448,12.131787 5.227554,11.847163 5.15625,11.5625 z M 11.78125,11.59375 C 11.757701,11.733826 11.724634,11.862759 11.6875,12 C 11.565272,12.055187 11.437893,12.112077 11.3125,12.15625 C 11.354264,12.011426 11.349485,11.867176 11.375,11.71875 C 11.510312,11.670731 11.650065,11.655446 11.78125,11.59375 z M 8.25,11.6875 C 8.2531537,11.682508 8.2780917,11.692505 8.28125,11.6875 C 8.3629451,11.716883 8.4505623,11.75707 8.53125,11.78125 C 8.460607,11.943117 8.345927,12.091957 8.21875,12.21875 C 8.1408907,12.194167 8.0717889,12.158862 8,12.125 C 8.0487645,12.050119 8.075015,11.953057 8.125,11.875 C 8.171964,11.811735 8.216571,11.757471 8.25,11.6875 z M 8.84375,11.84375 C 8.934491,11.864471 9.033181,11.890998 9.125,11.90625 C 9.064849,12.062822 8.973881,12.205367 8.875,12.34375 C 8.770896,12.325857 8.66523,12.305812 8.5625,12.28125 C 8.675647,12.143455 8.778719,12.006828 8.84375,11.84375 z M 11.03125,11.84375 C 10.999824,11.985609 10.984982,12.112408 10.9375,12.25 C 10.933988,12.260179 10.941099,12.2711 10.9375,12.28125 C 10.817111,12.312592 10.684414,12.321971 10.5625,12.34375 C 10.612988,12.206169 10.623559,12.048781 10.65625,11.90625 C 10.786805,11.883666 10.902628,11.87795 11.03125,11.84375 z M 10.34375,11.9375 C 10.301751,12.089453 10.283377,12.230357 10.21875,12.375 C 10.104502,12.387091 9.989565,12.433529 9.875,12.4375 C 9.944859,12.294797 9.986144,12.15144 10.03125,12 C 10.137799,11.996408 10.237521,11.948521 10.34375,11.9375 z M 9.40625,11.96875 C 9.503799,11.978329 9.620724,11.965349 9.71875,11.96875 C 9.671304,12.114706 9.604207,12.270104 9.53125,12.40625 C 9.408565,12.402458 9.309428,12.450441 9.1875,12.4375 C 9.280281,12.293993 9.347847,12.126871 9.40625,11.96875 z M 12.375,12 C 12.326671,12.174267 12.286025,12.331695 12.21875,12.5 C 12.077147,12.583072 11.928034,12.650154 11.78125,12.71875 C 11.851653,12.554252 11.886582,12.389845 11.9375,12.21875 C 12.082203,12.1482 12.23597,12.085887 12.375,12 z M 7.84375,12.375 C 7.8843479,12.398897 7.9261401,12.422198 7.96875,12.4375 C 7.8939355,12.482211 7.7997357,12.501741 7.71875,12.53125 C 7.7521654,12.481464 7.8096892,12.426371 7.84375,12.375 z M 11.59375,12.40625 C 11.527488,12.584465 11.433388,12.737531 11.34375,12.90625 C 11.195787,12.9602 11.057305,12.990931 10.90625,13.03125 C 10.993765,12.878423 11.058593,12.724616 11.125,12.5625 C 11.273314,12.51992 11.44893,12.463042 11.59375,12.40625 z M 8.34375,12.5 C 8.441414,12.5275 8.525971,12.571961 8.625,12.59375 C 8.57505,12.642578 8.524602,12.706161 8.46875,12.75 C 8.336467,12.853835 8.209513,12.902645 8.0625,12.96875 C 7.932319,12.932632 7.783514,12.920696 7.65625,12.875 C 7.898723,12.817689 8.105484,12.699026 8.3125,12.53125 C 8.319567,12.525523 8.336795,12.505829 8.34375,12.5 z M 10.78125,12.625 C 10.696782,12.802548 10.612332,12.961799 10.5,13.125 C 10.366388,13.149294 10.228356,13.142115 10.09375,13.15625 C 10.212228,12.995903 10.318519,12.864051 10.40625,12.6875 C 10.533144,12.670938 10.655563,12.651253 10.78125,12.625 z M 8.96875,12.6875 C 8.978768,12.689039 8.989973,12.686018 9,12.6875 C 9.118292,12.704984 9.224525,12.709407 9.34375,12.71875 C 9.214532,12.895069 9.082554,13.046753 8.90625,13.1875 C 8.760867,13.171145 8.612312,13.152849 8.46875,13.125 C 8.537238,13.081961 8.622583,13.019706 8.6875,12.96875 C 8.796982,12.882816 8.878746,12.788841 8.96875,12.6875 z M 3.65625,12.71875 C 3.765227,12.937216 3.90995,13.138681 4.0625,13.34375 C 4.3399293,13.716691 4.6928183,13.997748 5.0625,14.25 C 5.0433659,14.2719 5.0180075,14.292285 5,14.3125 C 4.9570868,14.284049 4.9170729,14.248621 4.875,14.21875 C 4.792346,14.160067 4.705297,14.093696 4.625,14.03125 C 4.617484,14.024595 4.601225,14.006714 4.59375,14 C 4.376109,13.804528 4.179343,13.586855 4,13.34375 C 3.856365,13.149048 3.756188,12.930793 3.65625,12.71875 z M 9.6875,12.71875 C 9.807752,12.720567 9.911018,12.725342 10.03125,12.71875 C 9.938688,12.872131 9.838542,13.050414 9.71875,13.1875 C 9.712862,13.194236 9.724703,13.212057 9.71875,13.21875 C 9.590903,13.223145 9.44014,13.19204 9.3125,13.1875 C 9.453998,13.045703 9.581462,12.883485 9.6875,12.71875 z M 5.34375,12.90625 C 5.4941169,13.028632 5.6513834,13.163959 5.8125,13.28125 C 5.6466543,13.165969 5.4850885,13.047782 5.34375,12.90625 z M 12.03125,12.9375 C 11.912892,13.167269 11.748899,13.383971 11.59375,13.59375 C 11.435401,13.658646 11.28718,13.699541 11.125,13.75 C 11.27844,13.556945 11.412428,13.369331 11.53125,13.15625 C 11.691407,13.09487 11.875885,13.01439 12.03125,12.9375 z M 7.3125,13.0625 C 7.3767227,13.089779 7.4345303,13.131946 7.5,13.15625 C 7.4152714,13.167932 7.3348934,13.154763 7.25,13.15625 C 7.2732812,13.123817 7.2888043,13.095835 7.3125,13.0625 z M 4.28125,13.09375 C 4.5995222,13.414671 4.947414,13.693405 5.3125,13.9375 C 5.2815487,13.97594 5.2790728,13.995925 5.25,14.03125 C 4.9000277,13.796086 4.5760053,13.510473 4.3125,13.15625 C 4.29442,13.131946 4.298675,13.118358 4.28125,13.09375 z M 8,13.3125 C 8.164697,13.356892 8.332101,13.40769 8.5,13.4375 C 8.158686,13.614122 7.749138,13.703575 7.375,13.71875 C 7.364837,13.719163 7.353916,13.718453 7.34375,13.71875 C 7.2178533,13.675733 7.0961649,13.6119 6.96875,13.5625 C 6.9901775,13.533916 7.0093951,13.498196 7.03125,13.46875 C 7.3530288,13.478003 7.6875587,13.423593 8,13.3125 z M 11.0625,13.3125 C 10.91659,13.523408 10.748051,13.722409 10.5625,13.90625 C 10.42029,13.935728 10.299765,13.980953 10.15625,14 C 10.353637,13.822067 10.502191,13.615341 10.65625,13.40625 C 10.790279,13.379057 10.930212,13.349563 11.0625,13.3125 z M 8.9375,13.5 C 9.074935,13.513602 9.205573,13.527438 9.34375,13.53125 C 9.314163,13.555545 9.280684,13.570416 9.25,13.59375 C 9.041257,13.752494 8.826396,13.870073 8.59375,13.96875 C 8.435127,13.949294 8.281582,13.937946 8.125,13.90625 C 8.420022,13.820008 8.674766,13.684138 8.9375,13.5 z M 10.25,13.5 C 10.089348,13.683186 9.887386,13.849378 9.6875,14 C 9.663029,14.018438 9.649801,14.013523 9.625,14.03125 C 9.475801,14.037801 9.305309,14.035605 9.15625,14.03125 C 9.251657,13.972649 9.346607,13.912872 9.4375,13.84375 C 9.561592,13.749379 9.673809,13.639411 9.78125,13.53125 C 9.784898,13.527577 9.808871,13.534937 9.8125,13.53125 C 9.961576,13.523848 10.101578,13.519045 10.25,13.5 z M 6.65625,13.96875 C 6.665893,13.970744 6.6778381,13.966852 6.6875,13.96875 C 6.9215806,14.014741 7.1666205,14.042938 7.40625,14.03125 C 7.576761,14.085064 7.763277,14.148103 7.9375,14.1875 C 7.4767921,14.270226 6.9891831,14.238705 6.53125,14.125 C 6.5643869,14.083532 6.6217093,14.012764 6.65625,13.96875 z M 11.25,14.03125 C 11.062083,14.231182 10.882056,14.425656 10.65625,14.59375 C 10.626577,14.61584 10.592534,14.63496 10.5625,14.65625 C 10.372034,14.697487 10.192647,14.725962 10,14.75 C 10.107101,14.683209 10.241158,14.639275 10.34375,14.5625 C 10.510409,14.43778 10.605449,14.299811 10.75,14.15625 C 10.758601,14.154253 10.772656,14.158284 10.78125,14.15625 C 10.940345,14.11858 11.093521,14.08184 11.25,14.03125 z M 8.625,14.28125 C 8.792534,14.300371 8.956373,14.337903 9.125,14.34375 C 8.761727,14.522653 8.361324,14.634878 7.96875,14.6875 C 7.752662,14.648059 7.523823,14.591583 7.3125,14.53125 C 7.751177,14.533519 8.20904,14.44467 8.625,14.28125 z M 9.71875,14.3125 C 9.859395,14.303866 10.016198,14.330612 10.15625,14.3125 C 9.872492,14.524848 9.564687,14.680891 9.25,14.8125 C 9.106651,14.813846 8.955513,14.820323 8.8125,14.8125 C 9.134993,14.699191 9.427569,14.51207 9.71875,14.3125 z M 6.25,14.46875 C 6.3756675,14.526494 6.4956949,14.57462 6.625,14.625 C 6.4849907,14.594998 6.3548148,14.544607 6.21875,14.5 C 6.2291379,14.487917 6.2394005,14.481167 6.25,14.46875 z M 6,14.75 C 6.6120553,14.971513 7.2612394,15.070347 7.90625,15 C 8.059534,15.028543 8.220147,15.075455 8.375,15.09375 C 7.6577,15.22457 6.912603,15.158367 6.21875,14.9375 C 6.132593,14.900813 6.0543026,14.851239 5.96875,14.8125 C 5.9817027,14.798389 5.9865288,14.764841 6,14.75 z M 9.84375,15.0625 C 9.36061,15.293488 8.863643,15.438917 8.34375,15.5 C 8.220569,15.488178 8.09115,15.455569 7.96875,15.4375 C 8.424438,15.398945 8.881499,15.297989 9.3125,15.125 C 9.496572,15.122185 9.660106,15.080017 9.84375,15.0625 z M 8.4375,15.78125 C 8.617353,15.79612 8.788131,15.841837 8.96875,15.84375 C 8.302801,15.961945 7.605509,15.934132 6.9375,15.8125 C 7.430128,15.887821 7.944663,15.846559 8.4375,15.78125 z "
       style="opacity:1;fill:url(#radialGradient3347);fill-opacity:1;fill-rule:evenodd;stroke:none;stroke-width:0.30000001;stroke-linecap:butt;stroke-linejoin:miter;stroke-miterlimit:4;stroke-opacity:1"
       id="path3332" />
    <path
       d="M 11.1875,3.09375 C 11.205359,3.3727798 11.150654,4.8011693 8.53125,9.34375 C 5.7172947,14.223726 4.5625,15.0625 4.5625,15.0625 C 4.5745375,15.069585 4.5816656,15.086734 4.59375,15.09375 C 4.8916131,15.266695 5.2071016,15.433132 5.53125,15.5625 C 5.5312501,15.5625 7.1937771,14.298252 9.6414908,9.9764182 C 11.962449,5.8783916 12.251654,4.0625617 12.3125,3.75 C 11.960706,3.5005918 11.584754,3.2769876 11.1875,3.09375 z "
       style="opacity:1;color:#000000;fill:url(#linearGradient3403);fill-opacity:1;fill-rule:evenodd;stroke:none;stroke-width:1px;stroke-linecap:butt;stroke-linejoin:miter;marker:none;marker-start:none;marker-mid:none;marker-end:none;stroke-miterlimit:4;stroke-dasharray:none;stroke-dashoffset:0;stroke-opacity:1;visibility:visible;display:inline;overflow:visible;enable-background:accumulate"
       id="path3374" />
    <path
       d="M 10.96875,2.9375 C 10.96875,2.9375 11.259329,4.2020967 8.3125,9.3125 C 5.4985451,14.192475 4.3125,15.03125 4.3125,15.03125 L 4.5625,15.0625 C 4.5625,15.0625 5.717295,14.223726 8.53125,9.34375 C 11.23251,4.6592136 11.208779,3.2728569 11.1875,3.0625 L 10.96875,2.9375 z "
       style="opacity:1;color:#000000;fill:url(#linearGradient3396);fill-opacity:1;fill-rule:evenodd;stroke:none;stroke-width:1px;stroke-linecap:butt;stroke-linejoin:miter;marker:none;marker-start:none;marker-mid:none;marker-end:none;stroke-miterlimit:4;stroke-dasharray:none;stroke-dashoffset:0;stroke-opacity:1;visibility:visible;display:inline;overflow:visible;enable-background:accumulate"
       id="path3378" />
    <path
       d="M 12.3125,3.75 C 12.251654,4.0625617 11.977208,5.8707231 9.65625,9.96875 C 7.245849,14.224702 5.612213,15.524133 5.5625,15.5625 C 5.7426491,15.633507 5.9065821,15.693428 6.09375,15.75 C 6.1353011,15.714821 7.617532,14.418058 10.03125,10.15625 C 12.1106,6.4848226 12.642991,4.7229508 12.78125,4.15625 C 12.626326,4.0247483 12.479012,3.8680504 12.3125,3.75 z "
       style="opacity:1;color:#000000;fill:#010101;fill-opacity:0.45685281;fill-rule:evenodd;stroke:none;stroke-width:1px;stroke-linecap:butt;stroke-linejoin:miter;marker:none;marker-start:none;marker-mid:none;marker-end:none;stroke-miterlimit:4;stroke-dasharray:none;stroke-dashoffset:0;stroke-opacity:1;visibility:visible;display:inline;overflow:visible;enable-background:accumulate"
       id="path3410" />
    <path
       d="M 29.282896,16.773683 C 29.282896,16.773683 29.098687,18.867764 28.235529,20.509212 C 27.372371,22.15066 25.830263,23.339475 25.830263,23.339475 L 32.886842,26.817058 C 32.886842,26.817058 34.495289,26.441773 35.518424,24.615768 C 36.640892,22.612485 36,21.056579 36,21.056579 L 29.282896,16.773683 z "
       style="opacity:1;color:#000000;fill:url(#linearGradient3564);fill-opacity:1;fill-rule:evenodd;stroke:none;stroke-width:1px;stroke-linecap:butt;stroke-linejoin:miter;marker:none;marker-start:none;marker-mid:none;marker-end:none;stroke-miterlimit:4;stroke-dasharray:none;stroke-dashoffset:0;stroke-opacity:1;visibility:visible;display:inline;overflow:visible;enable-background:accumulate"
       id="path3483" />
    <path
       d="M 28.84375,23.28125 C 28.843751,23.281251 28.679687,23.59375 28.40625,23.84375 C 28.132813,24.09375 27.71875,24.375 27.71875,24.375 C 27.718749,24.375 26.427536,27.283998 26.375,27.53125 C 26.372777,27.541718 26.377073,27.551981 26.375,27.5625 L 26.3125,27.71875 L 26.375,27.75 C 26.366899,27.826426 26.34375,27.890274 26.34375,27.96875 C 26.343751,29.218019 27.391385,30.25 28.6875,30.25 C 29.294654,30.250001 29.833046,30.021195 30.25,29.65625 L 30.3125,29.6875 L 30.34375,29.59375 C 30.37531,29.563333 30.418706,29.539512 30.4375,29.5 L 31.90625,26.4375 C 31.90625,26.4375 32.251307,26.192057 32.4375,25.96875 C 32.645949,25.71875 32.90625,25.28125 32.90625,25.28125 L 28.84375,23.28125 z M 28.625,27.5625 C 28.923137,27.5625 29.15625,27.815822 29.15625,28.125 C 29.156252,28.434178 28.923136,28.6875 28.625,28.6875 C 28.326865,28.687499 28.09375,28.434178 28.09375,28.125 C 28.09375,27.815823 28.326864,27.5625 28.625,27.5625 z "
       style="opacity:1;color:#000000;fill:#000000;fill-opacity:1;fill-rule:evenodd;stroke:none;stroke-width:1px;stroke-linecap:butt;stroke-linejoin:miter;marker:none;marker-start:none;marker-mid:none;marker-end:none;stroke-miterlimit:4;stroke-dasharray:none;stroke-dashoffset:0;stroke-opacity:1;visibility:visible;display:inline;overflow:visible;enable-background:accumulate"
       id="path3490" />
    <path
       d="M 27.4375,24.125 C 27.415309,24.175 26.145827,27.00491 26.09375,27.25 C 26.091526,27.260467 26.095823,27.270731 26.09375,27.28125 L 26.03125,27.4375 L 26.09375,27.46875 C 26.085648,27.545175 26.0625,27.609024 26.0625,27.6875 C 26.0625,28.385571 26.391456,29.017263 26.90625,29.4375 C 26.558256,29.038482 26.34375,28.527815 26.34375,27.96875 C 26.34375,27.890274 26.366899,27.826426 26.375,27.75 L 26.3125,27.71875 L 26.375,27.5625 C 26.377073,27.551981 26.372777,27.541718 26.375,27.53125 C 26.427536,27.283998 27.718749,24.375 27.71875,24.375 C 27.71875,24.375 27.799842,24.321237 27.8125,24.3125 L 27.4375,24.125 z M 28.84375,27.59375 C 28.876357,27.666995 28.875,27.757537 28.875,27.84375 C 28.875001,28.152927 28.641886,28.40625 28.34375,28.40625 C 28.279651,28.40625 28.212667,28.396457 28.15625,28.375 C 28.243315,28.556331 28.415732,28.687499 28.625,28.6875 C 28.923136,28.6875 29.156252,28.434178 29.15625,28.125 C 29.15625,27.893116 29.03509,27.67949 28.84375,27.59375 z "
       style="opacity:0.52427183;color:#000000;fill:#000000;fill-opacity:1;fill-rule:evenodd;stroke:none;stroke-width:1px;stroke-linecap:butt;stroke-linejoin:miter;marker:none;marker-start:none;marker-mid:none;marker-end:none;stroke-miterlimit:4;stroke-dasharray:none;stroke-dashoffset:0;stroke-opacity:1;visibility:visible;display:inline;overflow:visible;enable-background:accumulate"
       id="path3499" />
    <path
       d="M 26.6875,25.84375 L 26.03125,26.0625 C 24.27051,26.754088 23.031249,28.312697 23.03125,30.15625 C 23.03125,30.235712 23.03125,30.36276 23.03125,30.46875 C 23.03125,30.617136 23.03125,30.752445 23.03125,30.90625 C 23.03125,31.017306 23.03125,31.108889 23.03125,31.21875 L 24.03125,31.125 C 24.03125,31.015607 24.03125,30.924901 24.03125,30.8125 C 24.03125,30.593713 24.03125,30.392349 24.03125,30.1875 C 24.03125,29.969354 24.059596,29.771482 24.09375,29.5625 C 24.096986,29.542562 24.090215,29.519843 24.09375,29.5 C 24.104659,29.439338 24.111344,29.372262 24.125,29.3125 C 24.1628,29.147073 24.223312,28.97035 24.28125,28.8125 C 24.338349,28.656935 24.393371,28.522243 24.46875,28.375 C 24.496414,28.320754 24.532465,28.271773 24.5625,28.21875 C 24.675781,28.020102 24.824405,27.8049 24.96875,27.625 C 24.978053,27.613406 24.990575,27.605261 25,27.59375 C 25.098347,27.475136 25.201663,27.359216 25.3125,27.25 C 25.385602,27.177287 25.453026,27.099571 25.53125,27.03125 C 25.642477,26.934804 25.785434,26.868365 25.90625,26.78125 C 25.972555,26.733148 26.024739,26.670124 26.09375,26.625 C 26.156617,26.584048 26.216248,26.538421 26.28125,26.5 C 26.435511,26.408697 26.584719,26.32619 26.75,26.25 C 26.835755,26.21047 26.923104,26.171193 27.011746,26.134093 L 26.6875,25.875 C 26.69307,25.862211 26.681931,25.856548 26.6875,25.84375 z "
       style="opacity:1;fill:#2e3436;fill-opacity:1;fill-rule:nonzero;stroke:none;stroke-width:0.30000001;stroke-linecap:round;stroke-linejoin:round;stroke-miterlimit:4;stroke-dasharray:none;stroke-opacity:1"
       id="path2315" />
    <path
       d="M 28.114225,23.990275 C 27.798259,24.183754 27.484376,24.164062 27.5625,24.234375 C 27.640625,24.304688 27.718749,24.375 27.71875,24.375 C 27.71875,24.375 28.132813,24.09375 28.40625,23.84375 C 28.679687,23.59375 28.843751,23.281251 28.84375,23.28125 C 28.84375,23.28125 28.430097,23.796855 28.114225,23.990275 z "
       style="opacity:0.52427183;color:#000000;fill:#babdb6;fill-opacity:1;fill-rule:evenodd;stroke:none;stroke-width:1px;stroke-linecap:butt;stroke-linejoin:miter;marker:none;marker-start:none;marker-mid:none;marker-end:none;stroke-miterlimit:4;stroke-dasharray:none;stroke-dashoffset:0;stroke-opacity:1;visibility:visible;display:inline;overflow:visible;enable-background:accumulate"
       id="path3505" />
    <path
       d="M 29.125,16.78125 C 29.01755,16.79997 28.851448,16.856132 28.65625,16.96875 C 28.847953,17.092134 29.028286,17.221572 29.21875,17.34375 C 29.190256,17.543509 29.152236,17.754411 29.09375,18.03125 C 29.019138,18.391829 28.890723,18.795283 28.75,19.21875 C 28.611349,19.645899 28.465789,20.089638 28.25,20.5 C 28.163778,20.663966 28.069508,20.819028 27.96875,20.96875 C 27.921445,21.043838 27.861733,21.114968 27.8125,21.1875 C 27.760512,21.260285 27.708498,21.334552 27.65625,21.40625 C 27.603716,21.47834 27.553442,21.555991 27.5,21.625 C 27.494891,21.631612 27.505115,21.649668 27.5,21.65625 C 27.304517,21.907923 27.094135,22.139381 26.90625,22.34375 C 26.84822,22.405536 26.774431,22.474558 26.71875,22.53125 C 26.600073,22.654081 26.476526,22.777963 26.375,22.875 C 26.273475,22.968825 26.267905,22.960396 26.1875,23.03125 C 25.969723,22.922231 25.78253,22.859805 25.5625,22.75 C 25.617947,23.219035 25.84375,23.34375 25.84375,23.34375 L 26.28125,23.5 C 26.28125,23.5 27.824341,22.328948 28.6875,20.6875 C 29.471247,19.197065 29.684171,17.39279 29.71875,17.0625 L 29.28125,16.78125 C 29.28125,16.78125 29.23245,16.76253 29.125,16.78125 z "
       style="opacity:1;color:#000000;fill:url(#linearGradient3556);fill-opacity:1;fill-rule:evenodd;stroke:none;stroke-width:1px;stroke-linecap:butt;stroke-linejoin:miter;marker:none;marker-start:none;marker-mid:none;marker-end:none;stroke-miterlimit:4;stroke-dasharray:none;stroke-dashoffset:0;stroke-opacity:1;visibility:visible;display:inline;overflow:visible;enable-background:accumulate"
       id="path3513" />
    <path
       d="M 28.84375,23.28125 C 28.843751,23.281251 28.679687,23.59375 28.40625,23.84375 C 28.132813,24.09375 27.71875,24.375 27.71875,24.375 L 31.90625,26.4375 C 31.90625,26.4375 32.251307,26.192057 32.4375,25.96875 C 32.645949,25.71875 32.90625,25.28125 32.90625,25.28125 L 28.84375,23.28125 z "
       style="opacity:1;color:#000000;fill:url(#linearGradient3582);fill-opacity:1;fill-rule:evenodd;stroke:none;stroke-width:1px;stroke-linecap:butt;stroke-linejoin:miter;marker:none;marker-start:none;marker-mid:none;marker-end:none;stroke-miterlimit:4;stroke-dasharray:none;stroke-dashoffset:0;stroke-opacity:1;visibility:visible;display:inline;overflow:visible;enable-background:accumulate"
       id="path3524" />
    <path
       d="M 36.125,21.71875 C 36.218165,22.351355 36.233511,23.371664 35.53125,24.625 C 34.818011,25.89793 33.845219,26.440661 33.3125,26.65625 C 33.503666,26.754757 33.549026,26.756111 33.71875,26.84375 C 34.246795,26.621359 35.240085,26.08171 35.96875,24.78125 C 36.623522,23.612668 36.665445,22.645018 36.59375,22 C 36.396531,21.87816 36.351724,21.859226 36.125,21.71875 z "
       style="opacity:1;color:#000000;fill:#000000;fill-opacity:0.36040614;fill-rule:evenodd;stroke:none;stroke-width:1px;stroke-linecap:butt;stroke-linejoin:miter;marker:none;marker-start:none;marker-mid:none;marker-end:none;stroke-miterlimit:4;stroke-dasharray:none;stroke-dashoffset:0;stroke-opacity:1;visibility:visible;display:inline;overflow:visible;enable-background:accumulate"
       id="path3533" />
    <path
       d="M 28.537171,25.755921 C 26.025891,25.987226 24.03717,27.866135 24.037171,30.193421 C 24.037171,30.606626 24.037171,31.196028 24.037171,31.818421 C 23.627342,31.676606 23.320114,31.532218 23.162171,31.349671 L 23.037171,31.349671 C 23.037171,33.725071 23.03717,37.563677 23.037171,38.068421 C 23.037172,38.802365 25.288782,39.41217 28.037171,39.412171 C 28.209113,39.412171 28.369777,39.385576 28.537171,39.380921 C 29.163507,39.363505 29.752011,39.330606 30.287171,39.255921 C 30.55381,39.21871 30.801239,39.180032 31.037171,39.130921 C 31.091324,39.119649 31.14106,39.11152 31.193421,39.099671 C 31.31395,39.073539 31.426494,39.034892 31.537171,39.005921 C 31.605187,38.987438 31.660683,38.962928 31.724671,38.943421 C 31.917549,38.884621 32.102985,38.823073 32.255921,38.755921 C 32.400149,38.694836 32.52556,38.667065 32.630921,38.599671 C 32.645641,38.590269 32.648229,38.577927 32.662171,38.568421 C 32.766695,38.498179 32.854066,38.425423 32.912171,38.349671 C 32.918779,38.340979 32.906194,38.327169 32.912171,38.318421 C 32.970676,38.23727 33.005921,38.154425 33.005921,38.068421 C 33.005922,37.559647 33.005922,33.738096 33.005921,31.349671 C 33.005921,30.93864 33.005921,30.489623 33.005921,30.193421 C 33.005922,27.866136 31.045009,25.987226 28.537171,25.755921 z "
       style="opacity:0.6747573;fill:url(#linearGradient3367);fill-opacity:1;fill-rule:nonzero;stroke:none;stroke-width:0.30000001;stroke-linecap:round;stroke-linejoin:round;stroke-miterlimit:4;stroke-dasharray:none;stroke-opacity:1"
       id="path2334" />
    <path
       d="M 24.037171,31.130921 L 23.099671,31.224671 C 23.153995,31.323409 23.239288,31.410487 23.380921,31.505921 C 23.404418,31.521754 23.417737,31.552893 23.443421,31.568421 C 23.489284,31.594591 23.546799,31.60588 23.599671,31.630921 C 23.7309,31.693073 23.867419,31.759681 24.037171,31.818421 C 24.037171,31.555101 24.037171,31.370059 24.037171,31.130921 z "
       style="opacity:1;fill:#888a85;fill-opacity:1;fill-rule:nonzero;stroke:none;stroke-width:0.30000001;stroke-linecap:round;stroke-linejoin:round;stroke-miterlimit:4;stroke-dasharray:none;stroke-opacity:1"
       id="path2314" />
    <rect
       width="40.001965"
       height="10.004759"
       x="-0.0019644466"
       y="30"
       style="opacity:0.61162792;fill:#555753;fill-opacity:1;fill-rule:nonzero;stroke:none;stroke-width:0.69999999;stroke-linecap:round;stroke-linejoin:miter;stroke-miterlimit:4;stroke-dasharray:none;stroke-opacity:1"
       id="rect1951" />
    <text
       x="11.652289"
       y="39.168156"
       style="font-size:12px;font-style:normal;font-weight:normal;fill:#eeeeec;fill-opacity:1;stroke:none;stroke-width:1px;stroke-linecap:butt;stroke-linejoin:miter;stroke-opacity:1;font-family:Bitstream Vera Sans"
       id="text2840"
       xml:space="preserve"><tspan
         x="11.652289"
         y="39.168156"
         id="tspan2842">Nd</tspan></text>
    <path
       d="M 30.326423 28.797329 A 1.2730309 1.2447412 0 1 1  27.780362,28.797329 A 1.2730309 1.2447412 0 1 1  30.326423 28.797329 z"
       transform="translate(-0.4526329,-0.1131583)"
       style="opacity:0.6747573;fill:url(#radialGradient3378);fill-opacity:1;fill-rule:nonzero;stroke:none;stroke-width:0.30000001;stroke-linecap:round;stroke-linejoin:round;stroke-miterlimit:4;stroke-dasharray:none;stroke-opacity:1"
       id="path3370" />
  </g>
</svg>
