<?xml version="1.0" encoding="UTF-8" standalone="no"?>
<!-- Created with Inkscape (http://www.inkscape.org/) -->
<svg
   xmlns:dc="http://purl.org/dc/elements/1.1/"
   xmlns:cc="http://creativecommons.org/ns#"
   xmlns:rdf="http://www.w3.org/1999/02/22-rdf-syntax-ns#"
   xmlns:svg="http://www.w3.org/2000/svg"
   xmlns="http://www.w3.org/2000/svg"
   xmlns:xlink="http://www.w3.org/1999/xlink"
   xmlns:sodipodi="http://sodipodi.sourceforge.net/DTD/sodipodi-0.dtd"
   xmlns:inkscape="http://www.inkscape.org/namespaces/inkscape"
   width="40"
   height="40"
   id="svg2193"
   sodipodi:version="0.32"
   inkscape:version="0.46"
   version="1.0"
   sodipodi:docbase="/home/jra/Desktop"
   sodipodi:docname="66.svg"
   inkscape:output_extension="org.inkscape.output.svg.inkscape">
  <defs
     id="defs2195">
    <linearGradient
       id="linearGradient3388">
      <stop
         style="stop-color:#000000;stop-opacity:0;"
         offset="0"
         id="stop3390" />
      <stop
         id="stop3392"
         offset="0.25"
         style="stop-color:#000000;stop-opacity:0;" />
      <stop
         id="stop3394"
         offset="0.5"
         style="stop-color:#50ff34;stop-opacity:1;" />
      <stop
         style="stop-color:#0000ef;stop-opacity:0;"
         offset="0.75"
         id="stop3396" />
      <stop
         id="stop3398"
         offset="0.875"
         style="stop-color:#000000;stop-opacity:0;" />
      <stop
         style="stop-color:#000000;stop-opacity:0;"
         offset="1"
         id="stop3400" />
    </linearGradient>
    <linearGradient
       id="linearGradient3354">
      <stop
         style="stop-color:#000000;stop-opacity:0;"
         offset="0"
         id="stop3356" />
      <stop
         id="stop3358"
         offset="0.25"
         style="stop-color:#000000;stop-opacity:0;" />
      <stop
         id="stop3360"
         offset="0.5"
         style="stop-color:#ffffff;stop-opacity:1;" />
      <stop
         style="stop-color:#ef6400;stop-opacity:0;"
         offset="0.57743013"
         id="stop3362" />
      <stop
         id="stop3364"
         offset="0.62096328"
         style="stop-color:#000000;stop-opacity:0;" />
      <stop
         style="stop-color:#000000;stop-opacity:0;"
         offset="1"
         id="stop3366" />
    </linearGradient>
    <linearGradient
       inkscape:collect="always"
       id="linearGradient3514">
      <stop
         style="stop-color:#ff00bf;stop-opacity:1;"
         offset="0"
         id="stop3516" />
      <stop
         style="stop-color:#ff00bf;stop-opacity:0;"
         offset="1"
         id="stop3518" />
    </linearGradient>
    <linearGradient
       id="linearGradient3487">
      <stop
         id="stop3489"
         offset="0"
         style="stop-color:#000000;stop-opacity:0;" />
      <stop
         style="stop-color:#ffff85;stop-opacity:1;"
         offset="0.5"
         id="stop3491" />
      <stop
         id="stop3493"
         offset="1"
         style="stop-color:#000000;stop-opacity:0;" />
    </linearGradient>
    <linearGradient
       id="linearGradient3475">
      <stop
         style="stop-color:#000000;stop-opacity:0;"
         offset="0"
         id="stop3477" />
      <stop
         id="stop3479"
         offset="0.5"
         style="stop-color:#0000ff;stop-opacity:1" />
      <stop
         style="stop-color:#000000;stop-opacity:0;"
         offset="1"
         id="stop3481" />
    </linearGradient>
    <linearGradient
       id="linearGradient3463">
      <stop
         style="stop-color:#00ff00;stop-opacity:1"
         offset="0"
         id="stop3465" />
      <stop
         style="stop-color:#e5ff00;stop-opacity:1"
         offset="1"
         id="stop3467" />
    </linearGradient>
    <linearGradient
       id="linearGradient3455">
      <stop
         id="stop3457"
         offset="0"
         style="stop-color:#0000ff;stop-opacity:1" />
      <stop
         id="stop3459"
         offset="1"
         style="stop-color:#eeeeec;stop-opacity:0;" />
    </linearGradient>
    <linearGradient
       id="linearGradient3391">
      <stop
         style="stop-color:#ffffff;stop-opacity:0;"
         offset="0"
         id="stop3393" />
      <stop
         id="stop3395"
         offset="0.5"
         style="stop-color:#000000;stop-opacity:1;" />
      <stop
         style="stop-color:#ffffff;stop-opacity:0;"
         offset="1"
         id="stop3397" />
    </linearGradient>
    <linearGradient
       id="linearGradient3378">
      <stop
         id="stop3380"
         offset="0"
         style="stop-color:#000000;stop-opacity:0;" />
      <stop
         style="stop-color:#000000;stop-opacity:0;"
         offset="0.25"
         id="stop3348" />
      <stop
         style="stop-color:#ffffff;stop-opacity:1;"
         offset="0.5"
         id="stop3382" />
      <stop
         id="stop3350"
         offset="0.75"
         style="stop-color:#ef6400;stop-opacity:0;" />
      <stop
         style="stop-color:#000000;stop-opacity:0;"
         offset="0.875"
         id="stop3352" />
      <stop
         id="stop3384"
         offset="1"
         style="stop-color:#000000;stop-opacity:0;" />
    </linearGradient>
    <linearGradient
       id="linearGradient3308">
      <stop
         style="stop-color:#ffff00;stop-opacity:0;"
         offset="0"
         id="stop3310" />
      <stop
         id="stop3324"
         offset="0.63396978"
         style="stop-color:#ffee00;stop-opacity:0;" />
      <stop
         id="stop3322"
         offset="0.72328198"
         style="stop-color:#ffdd00;stop-opacity:1" />
      <stop
         id="stop3316"
         offset="0.79007196"
         style="stop-color:#ff0000;stop-opacity:1" />
      <stop
         style="stop-color:#ff00bf;stop-opacity:1"
         offset="0.86227649"
         id="stop3318" />
      <stop
         id="stop3320"
         offset="0.93822527"
         style="stop-color:#0000ff;stop-opacity:1" />
      <stop
         style="stop-color:#00ff00;stop-opacity:1"
         offset="0.96911263"
         id="stop3326" />
      <stop
         style="stop-color:#00ff00;stop-opacity:0;"
         offset="1"
         id="stop3312" />
    </linearGradient>
    <linearGradient
       id="linearGradient3300">
      <stop
         style="stop-color:#000000;stop-opacity:1;"
         offset="0"
         id="stop3302" />
      <stop
         id="stop3306"
         offset="0.5"
         style="stop-color:#ffffff;stop-opacity:1;" />
      <stop
         style="stop-color:#000000;stop-opacity:1;"
         offset="1"
         id="stop3304" />
    </linearGradient>
    <linearGradient
       inkscape:collect="always"
       id="linearGradient3239">
      <stop
         style="stop-color:#eeeeec;stop-opacity:1;"
         offset="0"
         id="stop3241" />
      <stop
         style="stop-color:#eeeeec;stop-opacity:0;"
         offset="1"
         id="stop3243" />
    </linearGradient>
    <linearGradient
       id="linearGradient3220">
      <stop
         id="stop3222"
         offset="0"
         style="stop-color:#000000;stop-opacity:1" />
      <stop
         id="stop3224"
         offset="1"
         style="stop-color:#ffffff;stop-opacity:1;" />
    </linearGradient>
    <linearGradient
       id="linearGradient3291">
      <stop
         id="stop3293"
         offset="0"
         style="stop-color:#000000;stop-opacity:1;" />
      <stop
         id="stop3295"
         offset="1"
         style="stop-color:#000000;stop-opacity:0;" />
    </linearGradient>
    <radialGradient
       inkscape:collect="always"
       xlink:href="#linearGradient3291"
       id="radialGradient2595"
       gradientUnits="userSpaceOnUse"
       gradientTransform="matrix(1,0,0,0.197802,0,92.82166)"
       cx="63.912209"
       cy="115.70919"
       fx="75.857941"
       fy="115.70919"
       r="63.912209" />
    <radialGradient
       inkscape:collect="always"
       xlink:href="#linearGradient3308"
       id="radialGradient3346"
       gradientUnits="userSpaceOnUse"
       gradientTransform="matrix(-1.2585945,-1.1665004,2.4199604,-2.6110135,14.764734,77.190752)"
       cx="19.311003"
       cy="20.634579"
       fx="19.311003"
       fy="20.634579"
       r="13.28125" />
    <radialGradient
       inkscape:collect="always"
       xlink:href="#linearGradient3308"
       id="radialGradient3350"
       gradientUnits="userSpaceOnUse"
       gradientTransform="matrix(1.2920331,0.1539822,-0.421293,3.5349842,-0.4656214,-28.212957)"
       cx="21.939308"
       cy="0.75112426"
       fx="21.939308"
       fy="0.75112426"
       r="13.28125" />
    <linearGradient
       inkscape:collect="always"
       xlink:href="#linearGradient3300"
       id="linearGradient3368"
       x1="6.4358521"
       y1="20"
       x2="33.564148"
       y2="20"
       gradientUnits="userSpaceOnUse"
       gradientTransform="matrix(0.9870434,-0.1604536,0.1604536,0.9870434,-2.9508159,3.4681708)" />
    <linearGradient
       inkscape:collect="always"
       xlink:href="#linearGradient3391"
       id="linearGradient3443"
       gradientUnits="userSpaceOnUse"
       gradientTransform="matrix(-0.3581975,-0.9336458,0.9336458,-0.3581975,8.491182,85.844156)"
       x1="6.4358521"
       y1="20"
       x2="33.564148"
       y2="20" />
    <linearGradient
       inkscape:collect="always"
       xlink:href="#linearGradient3391"
       id="linearGradient3445"
       gradientUnits="userSpaceOnUse"
       gradientTransform="matrix(-0.5692258,-0.8221812,0.8221812,-0.5692258,14.941064,87.835427)"
       x1="6.4358521"
       y1="20"
       x2="33.564148"
       y2="20" />
    <linearGradient
       inkscape:collect="always"
       xlink:href="#linearGradient3391"
       id="linearGradient3447"
       gradientUnits="userSpaceOnUse"
       gradientTransform="matrix(-0.7261379,-0.687549,0.687549,-0.7261379,20.771942,88.280941)"
       x1="6.4358521"
       y1="20"
       x2="33.564148"
       y2="20" />
    <linearGradient
       inkscape:collect="always"
       xlink:href="#linearGradient3378"
       id="linearGradient3449"
       gradientUnits="userSpaceOnUse"
       gradientTransform="matrix(-0.2684866,0.9632834,-0.9632834,-0.2684866,44.634183,6.1040474)"
       x1="6.4358521"
       y1="20"
       x2="33.564148"
       y2="20" />
    <linearGradient
       inkscape:collect="always"
       xlink:href="#linearGradient3455"
       id="linearGradient3453"
       gradientUnits="userSpaceOnUse"
       gradientTransform="matrix(-0.3545648,0.9350314,-0.9350314,-0.3545648,45.791049,8.3906343)"
       x1="36.487686"
       y1="11.072533"
       x2="6.4085717"
       y2="26.403551" />
    <linearGradient
       inkscape:collect="always"
       xlink:href="#linearGradient3463"
       id="linearGradient3469"
       gradientUnits="userSpaceOnUse"
       gradientTransform="matrix(-0.3545648,0.9350314,-0.9350314,-0.3545648,45.791049,8.3906343)"
       x1="30.639898"
       y1="31.10541"
       x2="13.115371"
       y2="2.940881" />
    <linearGradient
       inkscape:collect="always"
       xlink:href="#linearGradient3475"
       id="linearGradient3473"
       gradientUnits="userSpaceOnUse"
       gradientTransform="matrix(0.9870434,-0.1604536,0.1604536,0.9870434,-2.9529223,3.4737263)"
       x1="6.4358521"
       y1="20"
       x2="33.564148"
       y2="20" />
    <linearGradient
       inkscape:collect="always"
       xlink:href="#linearGradient3487"
       id="linearGradient3485"
       gradientUnits="userSpaceOnUse"
       gradientTransform="matrix(-0.6324786,-0.7745778,0.7745778,-0.6324786,17.158751,48.148061)"
       x1="6.4358521"
       y1="20"
       x2="33.564148"
       y2="20" />
    <radialGradient
       inkscape:collect="always"
       xlink:href="#linearGradient3514"
       id="radialGradient3522"
       cx="20.000372"
       cy="20.007133"
       fx="20.000372"
       fy="20.007133"
       r="13.574189"
       gradientTransform="matrix(1.4233319,-0.2313766,0.2313778,1.4233393,-13.095736,-3.8423719)"
       gradientUnits="userSpaceOnUse" />
    <linearGradient
       inkscape:collect="always"
       xlink:href="#linearGradient3300"
       id="linearGradient3530"
       x1="-3.5731311"
       y1="20.002884"
       x2="43.573181"
       y2="20.002884"
       gradientUnits="userSpaceOnUse"
       gradientTransform="matrix(-0.5912127,-0.8065157,0.8065157,-0.5912127,15.69056,47.957302)" />
    <linearGradient
       inkscape:collect="always"
       xlink:href="#linearGradient3378"
       id="linearGradient3534"
       gradientUnits="userSpaceOnUse"
       gradientTransform="matrix(-0.4989827,0.8666119,-0.8666119,-0.4989827,47.311563,12.647339)"
       x1="6.4358521"
       y1="20"
       x2="33.564148"
       y2="20" />
    <linearGradient
       inkscape:collect="always"
       xlink:href="#linearGradient3354"
       id="linearGradient3538"
       gradientUnits="userSpaceOnUse"
       gradientTransform="matrix(-0.6545313,0.7560349,-0.7560349,-0.6545313,48.21146,17.96982)"
       x1="6.4358521"
       y1="20"
       x2="33.564148"
       y2="20" />
    <linearGradient
       inkscape:collect="always"
       xlink:href="#linearGradient3391"
       id="linearGradient3555"
       gradientUnits="userSpaceOnUse"
       gradientTransform="matrix(-0.8809448,-0.4732189,0.4732189,-0.8809448,28.154945,47.090006)"
       x1="6.4358521"
       y1="20"
       x2="33.564148"
       y2="20" />
    <linearGradient
       inkscape:collect="always"
       xlink:href="#linearGradient3391"
       id="linearGradient3558"
       gradientUnits="userSpaceOnUse"
       gradientTransform="matrix(-0.6937725,-0.7201942,0.7201942,-0.6937725,19.472028,48.286465)"
       x1="6.4358521"
       y1="20"
       x2="33.564148"
       y2="20" />
    <linearGradient
       inkscape:collect="always"
       xlink:href="#linearGradient3391"
       id="linearGradient3561"
       gradientUnits="userSpaceOnUse"
       gradientTransform="matrix(-0.4346253,-0.9006113,0.9006113,-0.4346253,10.680717,46.71188)"
       x1="6.4358521"
       y1="20"
       x2="33.564148"
       y2="20" />
    <linearGradient
       inkscape:collect="always"
       xlink:href="#linearGradient3354"
       id="linearGradient3370"
       gradientUnits="userSpaceOnUse"
       gradientTransform="matrix(-0.6087977,0.7933256,-0.7933256,-0.6087977,48.043414,16.31353)"
       x1="-3.5731311"
       y1="20.002884"
       x2="43.573181"
       y2="20.002884" />
    <linearGradient
       inkscape:collect="always"
       xlink:href="#linearGradient3391"
       id="linearGradient3398"
       x1="14.841619"
       y1="19.999968"
       x2="25.156628"
       y2="19.999968"
       gradientUnits="userSpaceOnUse"
       gradientTransform="matrix(0.9936473,0.1125396,-0.1125396,0.9936473,2.3778384,-2.1236388)" />
    <linearGradient
       inkscape:collect="always"
       xlink:href="#linearGradient3354"
       id="linearGradient3402"
       gradientUnits="userSpaceOnUse"
       gradientTransform="matrix(-0.4519413,0.8920477,-0.8920477,-0.4519413,46.878478,11.198607)"
       x1="14.841619"
       y1="19.999968"
       x2="25.156628"
       y2="19.999968" />
    <radialGradient
       inkscape:collect="always"
       xlink:href="#linearGradient3239"
       id="radialGradient3438"
       cx="19.99785"
       cy="20.002079"
       fx="19.99785"
       fy="20.002079"
       r="13.573785"
       gradientTransform="matrix(1,0,0,1.0000052,0,-1.0344447e-4)"
       gradientUnits="userSpaceOnUse" />
    <linearGradient
       inkscape:collect="always"
       xlink:href="#linearGradient3300"
       id="linearGradient3460"
       x1="13.101892"
       y1="25.152027"
       x2="28.627319"
       y2="15.570709"
       gradientUnits="userSpaceOnUse" />
    <linearGradient
       inkscape:collect="always"
       xlink:href="#linearGradient3291"
       id="linearGradient3464"
       gradientUnits="userSpaceOnUse"
       x1="22.404434"
       y1="26.135555"
       x2="15.185761"
       y2="6.0222859" />
    <radialGradient
       inkscape:collect="always"
       xlink:href="#linearGradient3308"
       id="radialGradient3475"
       gradientUnits="userSpaceOnUse"
       gradientTransform="matrix(1.1741612,0.5607187,-1.5341183,3.2124884,16.104176,-32.23096)"
       cx="20"
       cy="1.5319011"
       fx="20"
       fy="1.5319011"
       r="13.28125" />
    <linearGradient
       inkscape:collect="always"
       xlink:href="#linearGradient3300"
       id="linearGradient3501"
       gradientUnits="userSpaceOnUse"
       x1="13.101892"
       y1="25.152027"
       x2="28.627319"
       y2="15.570709"
       gradientTransform="matrix(0.1813728,0.9834144,-0.9834144,0.1813728,36.03907,-3.2963324)" />
    <linearGradient
       inkscape:collect="always"
       xlink:href="#linearGradient3388"
       id="linearGradient2608"
       gradientUnits="userSpaceOnUse"
       gradientTransform="matrix(-0.9017645,0.4322279,-0.4322279,-0.9017645,46.680262,29.390191)"
       x1="6.4358521"
       y1="20"
       x2="33.564148"
       y2="20" />
    <linearGradient
       inkscape:collect="always"
       xlink:href="#linearGradient3388"
       id="linearGradient2612"
       gradientUnits="userSpaceOnUse"
       gradientTransform="matrix(-0.9807835,0.1950995,-0.1950995,-0.9807835,43.518702,35.713764)"
       x1="6.4358521"
       y1="20"
       x2="33.564148"
       y2="20" />
    <linearGradient
       inkscape:collect="always"
       xlink:href="#linearGradient3388"
       id="linearGradient2616"
       gradientUnits="userSpaceOnUse"
       gradientTransform="matrix(-0.9999864,5.2209631e-3,-5.2209631e-3,-0.9999864,40.105522,39.895728)"
       x1="6.4358521"
       y1="20"
       x2="33.564148"
       y2="20" />
    <linearGradient
       inkscape:collect="always"
       xlink:href="#linearGradient3220"
       id="linearGradient4240"
       x1="3.2174239"
       y1="6.3281565"
       x2="33.613888"
       y2="36.257294"
       gradientUnits="userSpaceOnUse" />
    <linearGradient
       inkscape:collect="always"
       xlink:href="#linearGradient3300"
       id="linearGradient4244"
       gradientUnits="userSpaceOnUse"
       x1="3.2174239"
       y1="6.3281565"
       x2="33.613888"
       y2="36.257294" />
    <linearGradient
       inkscape:collect="always"
       xlink:href="#linearGradient3220"
       id="linearGradient4250"
       gradientUnits="userSpaceOnUse"
       x1="3.2174239"
       y1="6.3281565"
       x2="33.613888"
       y2="36.257294" />
    <linearGradient
       inkscape:collect="always"
       xlink:href="#linearGradient3300"
       id="linearGradient4252"
       gradientUnits="userSpaceOnUse"
       x1="3.2174239"
       y1="6.3281565"
       x2="33.613888"
       y2="36.257294" />
    <linearGradient
       inkscape:collect="always"
       xlink:href="#linearGradient3220"
       id="linearGradient4262"
       x1="26.702946"
       y1="34.001659"
       x2="33.297054"
       y2="34.001659"
       gradientUnits="userSpaceOnUse"
       gradientTransform="translate(-60,0)" />
    <linearGradient
       inkscape:collect="always"
       xlink:href="#linearGradient3220"
       id="linearGradient4270"
       gradientUnits="userSpaceOnUse"
       gradientTransform="matrix(1,0,0,5.611308,-68.001661,-210.79378)"
       x1="26.702946"
       y1="34.001659"
       x2="33.297054"
       y2="34.001659" />
    <linearGradient
       inkscape:collect="always"
       xlink:href="#linearGradient3300"
       id="linearGradient4274"
       gradientUnits="userSpaceOnUse"
       gradientTransform="matrix(0.7619048,0,0,5.611308,-60.800849,-210.79378)"
       x1="29.593451"
       y1="37.565891"
       x2="29.999996"
       y2="30.437428" />
    <linearGradient
       inkscape:collect="always"
       xlink:href="#linearGradient3220"
       id="linearGradient4294"
       gradientUnits="userSpaceOnUse"
       gradientTransform="translate(-40,0)"
       x1="26.702946"
       y1="34.001659"
       x2="33.297054"
       y2="34.001659" />
    <linearGradient
       inkscape:collect="always"
       xlink:href="#linearGradient3220"
       id="linearGradient4298"
       gradientUnits="userSpaceOnUse"
       gradientTransform="matrix(3.2445232,0,0,1.8418073,-117.3357,-30.262067)"
       x1="26.702946"
       y1="34.001659"
       x2="33.297054"
       y2="34.001659" />
    <linearGradient
       inkscape:collect="always"
       xlink:href="#linearGradient3300"
       id="linearGradient4302"
       gradientUnits="userSpaceOnUse"
       gradientTransform="matrix(2.9246416,0,0,1.8418073,-107.67778,-30.262067)"
       x1="28.782948"
       y1="33.623409"
       x2="33.745441"
       y2="39.141426" />
  </defs>
  <sodipodi:namedview
     id="base"
     pagecolor="#ffffff"
     bordercolor="#666666"
     borderopacity="1.0"
     inkscape:pageopacity="0.0"
     inkscape:pageshadow="2"
     inkscape:zoom="12.200967"
     inkscape:cx="15.592698"
     inkscape:cy="16.82988"
     inkscape:current-layer="layer1"
     showgrid="false"
     inkscape:grid-bbox="false"
     inkscape:document-units="px"
     width="40px"
     height="40px"
     inkscape:window-width="1742"
     inkscape:window-height="1053"
     inkscape:window-x="100"
     inkscape:window-y="54">
    <inkscape:grid
       id="GridFromPre046Settings"
       type="xygrid"
       originx="0px"
       originy="0px"
       spacingx="1px"
       spacingy="1px"
       color="#0000ff"
       empcolor="#0000ff"
       opacity="0.2"
       empopacity="0.4"
       empspacing="2"
       visible="true"
       enabled="true" />
  </sodipodi:namedview>
  <metadata
     id="metadata2198">
    <rdf:RDF>
      <cc:Work
         rdf:about="">
        <dc:format>image/svg+xml</dc:format>
        <dc:type
           rdf:resource="http://purl.org/dc/dcmitype/StillImage" />
        <dc:creator>
          <cc:Agent>
            <dc:title>Jarle Akselsen</dc:title>
          </cc:Agent>
        </dc:creator>
        <cc:license
           rdf:resource="http://creativecommons.org/licenses/GPL/2.0/" />
      </cc:Work>
      <cc:License
         rdf:about="http://creativecommons.org/licenses/GPL/2.0/">
        <cc:permits
           rdf:resource="http://web.resource.org/cc/Reproduction" />
        <cc:permits
           rdf:resource="http://web.resource.org/cc/Distribution" />
        <cc:requires
           rdf:resource="http://web.resource.org/cc/Notice" />
        <cc:permits
           rdf:resource="http://web.resource.org/cc/DerivativeWorks" />
        <cc:requires
           rdf:resource="http://web.resource.org/cc/ShareAlike" />
        <cc:requires
           rdf:resource="http://web.resource.org/cc/SourceCode" />
      </cc:License>
    </rdf:RDF>
  </metadata>
  <g
     id="layer1"
     inkscape:label="Layer 1"
     inkscape:groupmode="layer">
    <rect
       style="opacity:1;fill:url(#linearGradient4298);fill-opacity:1;stroke:none;stroke-width:0.16;stroke-linecap:round;stroke-linejoin:miter;stroke-miterlimit:4;stroke-dasharray:none;stroke-opacity:1"
       id="rect4296"
       width="7.8975258"
       height="13.129253"
       x="-23.948759"
       y="25.797819"
       transform="scale(-1,1)" />
    <rect
       transform="scale(-1,1)"
       y="25.797819"
       x="-23.497974"
       height="13.129253"
       width="7.1188993"
       id="rect4300"
       style="opacity:0.50000000000000000;fill:url(#linearGradient4302);fill-opacity:1;stroke:none;stroke-width:0.16000000000000000;stroke-linecap:round;stroke-linejoin:miter;stroke-miterlimit:4;stroke-dasharray:none;stroke-opacity:1" />
    <rect
       style="opacity:0.5;fill:#000000;fill-opacity:1;stroke:none;stroke-width:0.16;stroke-linecap:round;stroke-linejoin:miter;stroke-miterlimit:4;stroke-dasharray:none;stroke-opacity:1"
       id="rect4304"
       width="0.87856573"
       height="12.391607"
       x="-17.939482"
       y="26.166651"
       transform="scale(-1,1)" />
    <rect
       transform="scale(-1,1)"
       y="26.166651"
       x="-17.652618"
       height="12.391607"
       width="0.38680145"
       id="rect4308"
       style="opacity:0.5;fill:#000000;fill-opacity:1;stroke:none;stroke-width:0.16;stroke-linecap:round;stroke-linejoin:miter;stroke-miterlimit:4;stroke-dasharray:none;stroke-opacity:1" />
    <path
       sodipodi:nodetypes="cssssccssssc"
       id="path3499"
       d="M 25.04063,18.910549 C 24.759767,17.621096 23.988593,16.440478 22.790773,15.671135 C 20.395134,14.132447 17.208647,14.811238 15.669962,17.206878 C 14.131275,19.602518 14.810065,22.789003 17.205704,24.327689 C 19.601344,25.866375 22.787829,25.187587 24.326515,22.791946 C 25.095858,21.594127 25.321492,20.200005 25.04063,18.910549 z M 23.877609,18.807278 C 24.032501,19.311773 24.070163,19.844549 24.013014,20.402933 C 23.784416,22.636472 21.797526,24.248453 19.563985,24.019856 C 17.330448,23.791258 15.749197,21.798699 15.977795,19.565159 C 16.206394,17.331622 18.198952,15.750372 20.432491,15.978969 C 22.107645,16.150419 23.412933,17.29379 23.877609,18.807278 z"
       style="opacity:1;fill:url(#linearGradient3501);fill-opacity:1;stroke:none;stroke-width:0.16;stroke-linecap:round;stroke-linejoin:miter;stroke-miterlimit:4;stroke-dasharray:none;stroke-opacity:1" />
    <path
       style="opacity:0.25;fill:url(#radialGradient3475);fill-opacity:1;stroke:none;stroke-width:0.16;stroke-linecap:round;stroke-linejoin:miter;stroke-miterlimit:4;stroke-dasharray:none;stroke-opacity:1"
       d="M 20.625,6.71875 C 15.454864,6.48642 10.367748,9.32312 8,14.28125 C 4.843002,20.8921 7.670406,28.843 14.28125,32 C 20.892092,35.157003 28.843003,32.32959 32,25.71875 C 35.156994,19.1079 32.329593,11.15699 25.71875,8 C 24.066038,7.21075 22.348379,6.796193 20.625,6.71875 z M 20,15.9375 C 22.245205,15.9375 24.0625,17.754793 24.0625,20 C 24.0625,22.245205 22.245207,24.0625 20,24.0625 C 17.754792,24.0625 15.9375,22.245207 15.9375,20 C 15.9375,17.754791 17.754793,15.9375 20,15.9375 z"
       id="path3468" />
    <path
       style="opacity:0.5;fill:url(#linearGradient3460);fill-opacity:1;stroke:none;stroke-width:0.16000000000000000;stroke-linecap:round;stroke-linejoin:miter;stroke-miterlimit:4;stroke-dasharray:none;stroke-opacity:1"
       d="M 19.84375,14.84375 C 18.524741,14.886082 17.223834,15.430334 16.25,16.46875 C 14.302328,18.545579 14.391919,21.80233 16.46875,23.75 C 18.545581,25.69767 21.80233,25.608081 23.75,23.53125 C 25.69767,21.45442 25.608082,18.197671 23.53125,16.25 C 22.492835,15.276165 21.162759,14.801418 19.84375,14.84375 z M 19.53125,15.96875 C 20.055471,15.907929 20.586242,15.967522 21.125,16.125 C 23.280032,16.754909 24.504909,19.001216 23.875,21.15625 C 23.24509,23.311282 20.998783,24.50491 18.84375,23.875 C 16.688718,23.24509 15.495091,20.998784 16.125,18.84375 C 16.597433,17.227476 17.958585,16.151213 19.53125,15.96875 z"
       id="path3440"
       sodipodi:nodetypes="cssssccssssc" />
    <path
       style="opacity:0.25;fill:url(#radialGradient3438);fill-opacity:1;stroke:none;stroke-width:0.16000000000000000;stroke-linecap:round;stroke-linejoin:miter;stroke-miterlimit:4;stroke-dasharray:none;stroke-opacity:1"
       d="M 19.5,6.4375 C 18.599228,6.4709327 17.690343,6.590778 16.78125,6.8125 C 9.508504,8.5862784 5.038722,15.946004 6.8125,23.21875 C 8.586278,30.491497 15.946005,34.961277 23.21875,33.1875 C 27.764218,32.078887 31.204872,28.770346 32.71875,24.6875 C 33.627077,22.237792 33.852667,19.50853 33.1875,16.78125 C 31.635443,10.417597 25.805405,6.2034709 19.5,6.4375 z M 20,18.3125 C 20.927721,18.3125 21.6875,19.072279 21.6875,20 C 21.6875,20.927721 20.927721,21.6875 20,21.6875 C 19.072278,21.6875 18.3125,20.927721 18.3125,20 C 18.3125,19.072279 19.072279,18.3125 20,18.3125 z"
       id="path3426" />
    <path
       style="opacity:1;fill:url(#linearGradient3368);fill-opacity:1;stroke:none;stroke-width:0.16;stroke-linecap:round;stroke-linejoin:miter;stroke-miterlimit:4;stroke-dasharray:none;stroke-opacity:1"
       d="M 18.439874,6.5129074 C 13.19026,7.1245922 8.5453684,10.808534 6.9701915,16.197488 C 4.8699552,23.382761 9.0113734,30.928662 16.196645,33.028899 C 23.381918,35.129137 30.927818,30.987717 33.028056,23.802445 C 35.128294,16.617173 30.986874,9.0712709 23.801602,6.9710346 C 22.005284,6.4459755 20.189746,6.3090124 18.439874,6.5129074 z M 19.418546,14.870411 C 20.083847,14.792998 20.758798,14.848337 21.442014,15.04804 C 24.174879,15.846849 25.74986,18.709993 24.951051,21.442857 C 24.152243,24.175722 21.289098,25.750703 18.556233,24.951894 C 15.823369,24.153086 14.248386,21.289941 15.047196,18.557076 C 15.646303,16.507428 17.422642,15.102651 19.418546,14.870411 z"
       id="path2485" />
    <g
       transform="matrix(-0.3545648,0.9350314,-0.9350314,-0.3545648,83.199035,22.586684)"
       id="g3435">
      <path
         style="opacity:0.35;fill:url(#linearGradient3443);fill-opacity:1;stroke:none;stroke-width:0.16;stroke-linecap:round;stroke-linejoin:miter;stroke-miterlimit:4;stroke-dasharray:none;stroke-opacity:1"
         d="M 30.617315,68.447242 C 32.246887,66.405032 33.310106,63.874398 33.532175,61.075972 C 34.124357,53.613503 28.531299,47.067447 21.068831,46.475263 C 13.606362,45.88308 7.0603047,51.476137 6.4681221,58.938606 C 5.8759393,66.401076 11.468997,72.947131 18.931465,73.539315 C 23.59551,73.909428 27.901362,71.850925 30.617315,68.447242 z M 23.849349,63.447212 C 23.4046,63.948027 22.864243,64.356239 22.22158,64.66226 C 19.650929,65.88635 16.569267,64.799371 15.345177,62.228721 C 14.121086,59.658071 15.208066,56.576408 17.778717,55.352318 C 20.349367,54.128227 23.43103,55.215206 24.655119,57.785857 C 25.573187,59.713846 25.183597,61.944765 23.849349,63.447212 z M 20.522398,61.596655 C 20.418478,61.631406 20.330344,61.659039 20.21934,61.672888 C 20.32377,61.65956 20.419875,61.630448 20.522398,61.596655 z M 21.665747,59.788098 C 21.652418,59.683668 21.623307,59.587562 21.589514,59.485039 C 21.624264,59.588959 21.651898,59.677094 21.665747,59.788098 z M 18.410782,60.529539 C 18.376033,60.425619 18.348399,60.337485 18.334549,60.22648 C 18.347877,60.330911 18.376989,60.427016 18.410782,60.529539 z M 19.780957,58.34169 C 19.676527,58.355019 19.580422,58.38413 19.477898,58.417923 C 19.581819,58.383173 19.669952,58.355539 19.780957,58.34169 z"
         id="path3437" />
      <path
         id="path3439"
         d="M 32.314842,65.691122 C 33.4141,63.320941 33.847401,60.610444 33.400053,57.839094 C 32.207124,50.448827 25.222247,45.41448 17.831981,46.607407 C 10.441714,47.800336 5.4073656,54.785211 6.6002945,62.175478 C 7.7932234,69.565746 14.778099,74.600092 22.168366,73.407165 C 26.787284,72.661583 30.482745,69.641423 32.314842,65.691122 z M 24.554851,62.437169 C 24.241437,63.029106 23.813195,63.553731 23.261347,64.003317 C 21.053955,65.801668 17.802493,65.47585 16.004142,63.268459 C 14.205791,61.061069 14.531609,57.809605 16.739001,56.011255 C 18.946392,54.212904 22.197855,54.538721 23.996204,56.746113 C 25.344968,58.401657 25.495094,60.661357 24.554851,62.437169 z M 20.884154,61.427641 C 20.791428,61.486026 20.712351,61.533756 20.60779,61.573513 C 20.706088,61.53582 20.792558,61.484765 20.884154,61.427641 z M 21.566401,59.39967 C 21.528706,59.301373 21.477652,59.214902 21.420528,59.123306 C 21.478913,59.216032 21.526643,59.295109 21.566401,59.39967 z M 18.579818,60.891267 C 18.521435,60.79854 18.473704,60.719464 18.433946,60.614902 C 18.47164,60.713201 18.522695,60.799671 18.579818,60.891267 z M 19.392558,58.441059 C 19.29426,58.478753 19.20779,58.529807 19.116193,58.586931 C 19.20892,58.528547 19.287995,58.480816 19.392558,58.441059 z"
         style="opacity:0.47999998;fill:url(#linearGradient3445);fill-opacity:1;stroke:none;stroke-width:0.16;stroke-linecap:round;stroke-linejoin:miter;stroke-miterlimit:4;stroke-dasharray:none;stroke-opacity:1" />
      <path
         style="opacity:0.35;fill:url(#linearGradient3447);fill-opacity:1;stroke:none;stroke-width:0.16;stroke-linecap:round;stroke-linejoin:miter;stroke-miterlimit:4;stroke-dasharray:none;stroke-opacity:1"
         d="M 33.220484,63.037086 C 33.808828,60.491506 33.675464,57.749835 32.667759,55.129714 C 29.980546,48.142726 22.109666,44.652395 15.122678,47.339606 C 8.1356894,50.026819 4.6453573,57.897698 7.3325703,64.884686 C 10.019784,71.871676 17.890662,75.362006 24.877651,72.674795 C 29.24452,70.995285 32.239911,67.279719 33.220484,63.037086 z M 24.957189,61.448495 C 24.772203,62.092233 24.461001,62.693711 24.013404,63.247173 C 22.223016,65.461029 18.974047,65.810826 16.760191,64.02044 C 14.546336,62.230054 14.196538,58.981082 15.986926,56.767227 C 17.777313,54.553372 21.026283,54.203573 23.240137,55.993961 C 24.90053,57.336752 25.512146,59.517281 24.957189,61.448495 z M 21.157342,61.21541 C 21.078605,61.291616 21.011033,61.354588 20.916883,61.414997 C 21.005329,61.357895 21.079451,61.290149 21.157342,61.21541 z M 21.407962,59.090482 C 21.350858,59.002038 21.283113,58.927914 21.208374,58.850024 C 21.28458,58.928761 21.347551,58.996332 21.407962,59.090482 z M 18.791955,61.164378 C 18.715751,61.08564 18.652778,61.018069 18.592367,60.923918 C 18.64947,61.012365 18.717216,61.086487 18.791955,61.164378 z M 19.083447,58.599403 C 18.995002,58.656506 18.920879,58.724251 18.842987,58.798991 C 18.921726,58.722786 18.989295,58.659814 19.083447,58.599403 z"
         id="path3441" />
    </g>
    <path
       style="opacity:0.25;fill:url(#radialGradient3346);fill-opacity:1;stroke:none;stroke-width:0.16;stroke-linecap:round;stroke-linejoin:miter;stroke-miterlimit:4;stroke-dasharray:none;stroke-opacity:1"
       d="M 17.436268,6.9609953 C 14.924875,7.4520198 12.532245,8.6910346 10.593816,10.63778 C 5.4246716,15.829103 5.4456157,24.236128 10.636937,29.405274 C 15.82826,34.574419 24.235284,34.553475 29.404431,29.362154 C 34.573576,24.170832 34.552631,15.763806 29.361311,10.594659 C 26.116733,7.363944 21.621922,6.1426211 17.436268,6.9609953 z M 19.418546,14.870411 C 20.083847,14.792998 20.758798,14.848337 21.442014,15.04804 C 24.174879,15.846849 25.74986,18.709993 24.951051,21.442857 C 24.152243,24.175722 21.289098,25.750703 18.556233,24.951894 C 15.823369,24.153086 14.248386,21.289941 15.047196,18.557076 C 15.646303,16.507428 17.422642,15.102651 19.418546,14.870411 z"
       id="path3344" />
    <path
       style="opacity:0.25;fill:url(#radialGradient3350);fill-opacity:1;stroke:none;stroke-width:0.16;stroke-linecap:round;stroke-linejoin:miter;stroke-miterlimit:4;stroke-dasharray:none;stroke-opacity:1"
       d="M 10.824743,10.421379 C 8.6704578,12.477366 7.1897429,15.262111 6.8104472,18.444703 C 5.9434859,25.719197 11.165385,32.319478 18.439879,33.18644 C 25.714371,34.053399 32.314654,28.831503 33.181617,21.557009 C 34.048576,14.282517 28.826679,7.682233 21.552185,6.8152714 C 17.460283,6.3276055 13.594539,7.7779671 10.824743,10.421379 z M 16.779163,15.963385 C 17.301699,15.544369 17.902933,15.232697 18.58786,15.038944 C 21.327568,14.263928 24.182928,15.852977 24.957944,18.592683 C 25.73296,21.33239 24.143911,24.187752 21.404204,24.962767 C 18.664497,25.737783 15.809135,24.148735 15.03412,21.409027 C 14.452858,19.354247 15.211555,17.220434 16.779163,15.963385 z"
       id="path3348" />
    <path
       style="opacity:0.5;fill:url(#linearGradient3561);fill-opacity:1;stroke:none;stroke-width:0.16;stroke-linecap:round;stroke-linejoin:miter;stroke-miterlimit:4;stroke-dasharray:none;stroke-opacity:1"
       d="M 31.282918,27.534609 C 32.736952,25.363915 33.585964,22.753604 33.574464,19.946405 C 33.543795,12.460539 27.425562,6.402456 19.939698,6.4331226 C 12.453832,6.4637901 6.3957472,12.582023 6.4264152,20.067888 C 6.457083,27.553755 12.575316,33.611837 20.061181,33.58117 C 24.739849,33.562001 28.85953,31.152433 31.282918,27.534609 z M 24.122463,23.114934 C 23.720918,23.65101 23.216393,24.10276 22.601415,24.461182 C 20.141505,25.89488 16.980101,25.068031 15.546403,22.608122 C 14.112704,20.148214 14.939554,16.986808 17.399464,15.55311 C 19.859372,14.119411 23.020779,14.946261 24.454475,17.40617 C 25.529749,19.251104 25.327098,21.506698 24.122463,23.114934 z M 20.653097,21.547558 C 20.552428,21.590833 20.466898,21.625702 20.357432,21.648738 C 20.460391,21.626768 20.553741,21.589762 20.653097,21.547558 z M 21.64203,19.650155 C 21.62006,19.547196 21.583055,19.453845 21.540851,19.354489 C 21.584125,19.455157 21.618995,19.540688 21.64203,19.650155 z M 18.460028,20.659804 C 18.416754,20.559136 18.381884,20.473605 18.358848,20.364138 C 18.380817,20.467098 18.417823,20.560448 18.460028,20.659804 z M 19.643448,18.365555 C 19.540489,18.387526 19.447138,18.424531 19.34778,18.466735 C 19.448451,18.42346 19.533979,18.388591 19.643448,18.365555 z"
       id="path3423" />
    <path
       id="path3425"
       d="M 33.067568,23.641391 C 33.772279,21.125539 33.765057,18.380636 32.878832,15.716972 C 30.515565,8.6138678 22.813409,4.7654975 15.710305,7.1287629 C 8.6072008,9.4920304 4.7588287,17.194184 7.1220962,24.297289 C 9.4853638,31.400394 17.187518,35.248764 24.290623,32.885498 C 28.730064,31.408454 31.893049,27.834476 33.067568,23.641391 z M 24.886012,21.674716 C 24.671637,22.309272 24.333121,22.895813 23.860561,23.42812 C 21.970321,25.557354 18.708709,25.757466 16.579474,23.867227 C 14.45024,21.97699 14.250128,18.715375 16.140368,16.586141 C 18.030606,14.456907 21.29222,14.256794 23.421452,16.147034 C 25.018379,17.564714 25.529137,19.771047 24.886012,21.674716 z M 21.100892,21.267245 C 21.018736,21.339751 20.948342,21.399551 20.851515,21.45557 C 20.942491,21.402593 21.019649,21.338325 21.100892,21.267245 z M 21.448904,19.15608 C 21.395926,19.065105 21.331658,18.987946 21.260578,18.906703 C 21.333084,18.988859 21.392884,19.059253 21.448904,19.15608 z M 18.740349,21.107559 C 18.667844,21.025401 18.608044,20.955009 18.552024,20.858181 C 18.605002,20.949158 18.66927,21.026316 18.740349,21.107559 z M 19.149414,18.558691 C 19.058438,18.611669 18.98128,18.675935 18.900036,18.747016 C 18.982193,18.67451 19.052585,18.61471 19.149414,18.558691 z"
       style="opacity:0.6;fill:url(#linearGradient3558);fill-opacity:1;stroke:none;stroke-width:0.16;stroke-linecap:round;stroke-linejoin:miter;stroke-miterlimit:4;stroke-dasharray:none;stroke-opacity:1" />
    <path
       style="opacity:0.5;fill:url(#linearGradient3555);fill-opacity:1;stroke:none;stroke-width:0.16;stroke-linecap:round;stroke-linejoin:miter;stroke-miterlimit:4;stroke-dasharray:none;stroke-opacity:1"
       d="M 33.552721,19.466059 C 33.45338,16.855263 32.606166,14.244368 30.947024,11.979913 C 26.522648,5.9413693 18.012152,4.6357566 11.973609,9.0601304 C 5.9350636,13.484507 4.6294495,21.995002 9.053825,28.033545 C 13.478202,34.072092 21.988695,35.377704 28.027241,30.95333 C 31.801333,28.188092 33.71829,23.817386 33.552721,19.466059 z M 25.161915,20.098558 C 25.1521,20.768276 25.009405,21.430289 24.722498,22.081709 C 23.574873,24.687395 20.531131,25.876426 17.925445,24.728803 C 15.31976,23.58118 14.130727,20.537436 15.278352,17.93175 C 16.425976,15.326064 19.469719,14.137031 22.075404,15.284657 C 24.02967,16.145375 25.191362,18.089406 25.161915,20.098558 z M 21.433793,20.869449 C 21.37778,20.963626 21.329073,21.042105 21.254045,21.125077 C 21.324435,21.046791 21.378212,20.961988 21.433793,20.869449 z M 21.118773,18.75311 C 21.040486,18.682722 20.955683,18.628942 20.863143,18.573362 C 20.957321,18.629376 21.0358,18.678083 21.118773,18.75311 z M 19.137706,21.440099 C 19.043531,21.384084 18.96505,21.335378 18.882077,21.26035 C 18.960362,21.33074 19.045166,21.384517 19.137706,21.440099 z M 18.746805,18.888382 C 18.676417,18.966667 18.622638,19.05147 18.567056,19.144012 C 18.623072,19.049834 18.671776,18.971355 18.746805,18.888382 z"
       id="path3427" />
    <path
       id="path3451"
       d="M 17.699591,6.6332476 C 15.123919,7.0714672 12.645464,8.2512149 10.616153,10.190906 C 5.2046596,15.363416 5.0175539,23.971443 10.190063,29.382937 C 15.362572,34.794431 23.9706,34.981539 29.382094,29.809028 C 34.793588,24.636518 34.980693,16.02849 29.808185,10.616996 C 26.575365,7.2348131 21.992378,5.9028804 17.699591,6.6332476 z M 19.418546,14.870411 C 20.083847,14.792998 20.758798,14.848337 21.442014,15.04804 C 24.174879,15.846849 25.74986,18.709993 24.951051,21.442857 C 24.152243,24.175722 21.289098,25.750703 18.556233,24.951894 C 15.823369,24.153086 14.248386,21.289941 15.047196,18.557076 C 15.646303,16.507428 17.422642,15.102651 19.418546,14.870411 z M 20.667994,18.466526 C 20.768659,18.50981 20.852809,18.54789 20.94484,18.611483 C 20.85806,18.551879 20.76698,18.509593 20.667994,18.466526 z M 18.61064,19.054251 C 18.551036,19.141031 18.50875,19.232111 18.465683,19.331097 C 18.508966,19.230431 18.547047,19.146282 18.61064,19.054251 z M 21.532564,20.668837 C 21.489281,20.769502 21.4512,20.853652 21.387607,20.945683 C 21.447211,20.858903 21.489497,20.767823 21.532564,20.668837 z M 19.053407,21.38845 C 19.140188,21.448054 19.231268,21.49034 19.330253,21.533408 C 19.229588,21.490124 19.145439,21.452044 19.053407,21.38845 z"
       style="opacity:0.35;fill:url(#linearGradient3453);fill-opacity:1;stroke:none;stroke-width:0.16;stroke-linecap:round;stroke-linejoin:miter;stroke-miterlimit:4;stroke-dasharray:none;stroke-opacity:1" />
    <path
       style="opacity:0.25;fill:url(#linearGradient3469);fill-opacity:1;stroke:none;stroke-width:0.16;stroke-linecap:round;stroke-linejoin:miter;stroke-miterlimit:4;stroke-dasharray:none;stroke-opacity:1"
       d="M 17.699591,6.6332476 C 15.123919,7.0714672 12.645464,8.2512149 10.616153,10.190906 C 5.2046596,15.363416 5.0175539,23.971443 10.190063,29.382937 C 15.362572,34.794431 23.9706,34.981539 29.382094,29.809028 C 34.793588,24.636518 34.980693,16.02849 29.808185,10.616996 C 26.575365,7.2348131 21.992378,5.9028804 17.699591,6.6332476 z M 19.418546,14.870411 C 20.083847,14.792998 20.758798,14.848337 21.442014,15.04804 C 24.174879,15.846849 25.74986,18.709993 24.951051,21.442857 C 24.152243,24.175722 21.289098,25.750703 18.556233,24.951894 C 15.823369,24.153086 14.248386,21.289941 15.047196,18.557076 C 15.646303,16.507428 17.422642,15.102651 19.418546,14.870411 z M 20.667994,18.466526 C 20.768659,18.50981 20.852809,18.54789 20.94484,18.611483 C 20.85806,18.551879 20.76698,18.509593 20.667994,18.466526 z M 18.61064,19.054251 C 18.551036,19.141031 18.50875,19.232111 18.465683,19.331097 C 18.508966,19.230431 18.547047,19.146282 18.61064,19.054251 z M 21.532564,20.668837 C 21.489281,20.769502 21.4512,20.853652 21.387607,20.945683 C 21.447211,20.858903 21.489497,20.767823 21.532564,20.668837 z M 19.053407,21.38845 C 19.140188,21.448054 19.231268,21.49034 19.330253,21.533408 C 19.229588,21.490124 19.145439,21.452044 19.053407,21.38845 z"
       id="path3461" />
    <path
       id="path3471"
       d="M 9.5708649,28.680335 C 11.238211,30.691823 13.499129,32.248355 16.193606,33.035944 C 23.378878,35.136179 30.927201,30.994204 33.027439,23.808933 C 35.127675,16.623661 30.9857,9.0753369 23.800428,6.9751009 C 16.615156,4.8748646 9.0668331,9.0168404 6.9665957,16.202111 C 5.6539493,20.692908 6.7919551,25.327856 9.5708649,28.680335 z M 15.84498,23.073095 C 15.445288,22.535635 15.155737,21.92344 14.987078,21.231906 C 14.312434,18.465772 16.004499,15.670226 18.770633,14.995583 C 21.536767,14.320938 24.332314,16.013004 25.006957,18.779138 C 25.681601,21.545273 23.989536,24.34082 21.223401,25.015462 C 19.1488,25.521445 17.044058,24.685478 15.84498,23.073095 z M 18.334583,20.192984 C 18.321735,20.084164 18.312639,19.992248 18.321697,19.88075 C 18.313468,19.985706 18.322388,20.085726 18.334583,20.192984 z M 19.872245,21.680842 C 19.9772,21.689071 20.077221,21.680151 20.184479,21.667956 C 20.075659,21.680803 19.983742,21.689901 19.872245,21.680842 z M 19.809555,18.343088 C 19.918376,18.330241 20.010291,18.321144 20.121789,18.330202 C 20.016834,18.321973 19.916813,18.330893 19.809555,18.343088 z M 21.672337,20.130294 C 21.680565,20.025339 21.671646,19.925318 21.659451,19.81806 C 21.672298,19.926881 21.681395,20.018796 21.672337,20.130294 z"
       style="opacity:0.1;fill:url(#linearGradient3473);fill-opacity:1;stroke:none;stroke-width:0.16;stroke-linecap:round;stroke-linejoin:miter;stroke-miterlimit:4;stroke-dasharray:none;stroke-opacity:1" />
    <path
       style="opacity:0.15;fill:url(#linearGradient3485);fill-opacity:1;stroke:none;stroke-width:0.16;stroke-linecap:round;stroke-linejoin:miter;stroke-miterlimit:4;stroke-dasharray:none;stroke-opacity:1"
       d="M 32.726421,24.698839 C 33.634748,22.249131 33.852284,19.512852 33.187117,16.785572 C 31.413339,9.5128262 24.052121,5.0467744 16.779376,6.8205505 C 9.5066289,8.5943288 5.0405763,15.955546 6.8143547,23.228292 C 8.5881327,30.501039 15.949351,34.96709 23.222096,33.193313 C 27.767563,32.084701 31.212543,28.781685 32.726421,24.698839 z M 24.73335,22.068915 C 24.467742,22.683789 24.082342,23.240645 23.567786,23.732475 C 21.509565,25.699801 18.242518,25.632202 16.275194,23.573982 C 14.307867,21.515762 14.375466,18.248714 16.433686,16.281389 C 18.491908,14.314063 21.758954,14.381661 23.726279,16.439883 C 25.201774,17.983548 25.530176,20.224292 24.73335,22.068915 z M 20.9943,21.352912 C 20.906482,21.418449 20.83143,21.472283 20.730341,21.520188 C 20.825349,21.474837 20.90751,21.417101 20.9943,21.352912 z M 21.513992,19.277328 C 21.46864,19.18232 21.410905,19.100159 21.346715,19.013368 C 21.412251,19.101186 21.466087,19.176239 21.513992,19.277328 z M 18.654757,21.000496 C 18.589221,20.912678 18.535385,20.837625 18.48748,20.736537 C 18.532831,20.831545 18.590567,20.913705 18.654757,21.000496 z M 19.271132,18.493676 C 19.176123,18.539028 19.093963,18.596762 19.007173,18.660953 C 19.09499,18.595417 19.170042,18.541581 19.271132,18.493676 z"
       id="path3483" />
    <path
       id="path3512"
       d="M 32.726421,24.698839 C 33.634748,22.249131 33.852284,19.512852 33.187117,16.785572 C 31.413339,9.5128262 24.052121,5.0467744 16.779376,6.8205505 C 9.5066289,8.5943288 5.0405763,15.955546 6.8143547,23.228292 C 8.5881327,30.501039 15.949351,34.96709 23.222096,33.193313 C 27.767563,32.084701 31.212543,28.781685 32.726421,24.698839 z M 24.73335,22.068915 C 24.467742,22.683789 24.082342,23.240645 23.567786,23.732475 C 21.509565,25.699801 18.242518,25.632202 16.275194,23.573982 C 14.307867,21.515762 14.375466,18.248714 16.433686,16.281389 C 18.491908,14.314063 21.758954,14.381661 23.726279,16.439883 C 25.201774,17.983548 25.530176,20.224292 24.73335,22.068915 z M 20.9943,21.352912 C 20.906482,21.418449 20.83143,21.472283 20.730341,21.520188 C 20.825349,21.474837 20.90751,21.417101 20.9943,21.352912 z M 21.513992,19.277328 C 21.46864,19.18232 21.410905,19.100159 21.346715,19.013368 C 21.412251,19.101186 21.466087,19.176239 21.513992,19.277328 z M 18.654757,21.000496 C 18.589221,20.912678 18.535385,20.837625 18.48748,20.736537 C 18.532831,20.831545 18.590567,20.913705 18.654757,21.000496 z M 19.271132,18.493676 C 19.176123,18.539028 19.093963,18.596762 19.007173,18.660953 C 19.09499,18.595417 19.170042,18.541581 19.271132,18.493676 z"
       style="opacity:0.15;fill:url(#radialGradient3522);fill-opacity:1;stroke:none;stroke-width:0.16;stroke-linecap:round;stroke-linejoin:miter;stroke-miterlimit:4;stroke-dasharray:none;stroke-opacity:1" />
    <path
       style="opacity:0.1;fill:url(#linearGradient3449);fill-opacity:1;stroke:none;stroke-width:0.16;stroke-linecap:round;stroke-linejoin:miter;stroke-miterlimit:4;stroke-dasharray:none;stroke-opacity:1"
       d="M 16.498958,6.8962321 C 13.973516,7.5657596 11.612003,8.9649729 9.766568,11.080362 C 4.8454095,16.721401 5.4381233,25.311036 11.079161,30.232195 C 16.7202,35.153354 25.309836,34.560643 30.230994,28.919603 C 35.152153,23.278564 34.559439,14.688928 28.918402,9.7677686 C 25.392751,6.6920453 20.708028,5.7803527 16.498958,6.8962321 z M 18.956346,14.944021 C 19.611911,14.806714 20.2891,14.800741 20.987586,14.937791 C 23.781531,15.48599 25.609171,18.194844 25.060973,20.988787 C 24.512775,23.782732 21.80392,25.610372 19.009976,25.062174 C 16.216033,24.513976 14.38839,21.805121 14.93659,19.011177 C 15.347739,16.915719 16.989652,15.355943 18.956346,14.944021 z M 20.526126,18.4123 C 20.630295,18.446296 20.717546,18.476604 20.814955,18.531606 C 20.723137,18.480101 20.628603,18.446231 20.526126,18.4123 z M 18.530406,19.183809 C 18.4789,19.275628 18.445031,19.370161 18.411099,19.472638 C 18.445094,19.368468 18.475403,19.281218 18.530406,19.183809 z M 21.586463,20.527327 C 21.552468,20.631496 21.52216,20.718747 21.467157,20.816156 C 21.518662,20.724337 21.552532,20.629804 21.586463,20.527327 z M 19.182607,21.468358 C 19.274427,21.519863 19.36896,21.553733 19.471436,21.587665 C 19.367267,21.553669 19.280017,21.523361 19.182607,21.468358 z"
       id="path3370" />
    <path
       id="path3532"
       d="M 19.858745,6.4375784 C 17.246155,6.4599126 14.611419,7.2297917 12.299039,8.821457 C 6.1326916,13.065899 4.576764,21.534206 8.8212046,27.700554 C 13.065647,33.866902 21.533955,35.422831 27.700302,31.178388 C 33.866649,26.933946 35.422576,18.465638 31.178136,12.299291 C 28.525358,8.4453242 24.21306,6.4003549 19.858745,6.4375784 z M 20.243615,14.843382 C 20.912753,14.872937 21.57027,15.035085 22.212951,15.34107 C 24.783674,16.565009 25.882462,19.64248 24.658522,22.213204 C 23.434584,24.783926 20.357112,25.882714 17.786389,24.658774 C 15.215666,23.434836 14.116877,20.357364 15.340818,17.786641 C 16.258772,15.8586 18.236202,14.75472 20.243615,14.843382 z M 20.904268,18.59261 C 20.996753,18.651375 21.073762,18.702374 21.154489,18.779815 C 21.078311,18.707149 20.99513,18.650895 20.904268,18.59261 z M 18.779563,18.845104 C 18.706897,18.921281 18.650642,19.004463 18.592357,19.095324 C 18.651123,19.002839 18.702122,18.92583 18.779563,18.845104 z M 21.406984,20.904521 C 21.348217,20.997005 21.297218,21.074015 21.219777,21.154741 C 21.292443,21.078563 21.348697,20.995382 21.406984,20.904521 z M 18.844852,21.22003 C 18.921029,21.292696 19.00421,21.34895 19.095071,21.407236 C 19.002587,21.348469 18.925578,21.29747 18.844852,21.22003 z"
       style="opacity:0.2;fill:url(#linearGradient3534);fill-opacity:1;stroke:none;stroke-width:0.16;stroke-linecap:round;stroke-linejoin:miter;stroke-miterlimit:4;stroke-dasharray:none;stroke-opacity:1" />
    <path
       style="opacity:0.1;fill:url(#linearGradient3538);fill-opacity:1;stroke:none;stroke-width:0.16;stroke-linecap:round;stroke-linejoin:miter;stroke-miterlimit:4;stroke-dasharray:none;stroke-opacity:1"
       d="M 22.438301,6.6577633 C 19.869048,6.1833604 17.136034,6.4386818 14.563387,7.5620633 C 7.7029935,10.557749 4.5666241,18.576247 7.562308,25.43664 C 10.557994,32.297035 18.576492,35.433406 25.436886,32.437719 C 32.297279,29.442034 35.433648,21.423534 32.437965,14.563142 C 30.56566,10.275397 26.720391,7.4484344 22.438301,6.6577633 z M 21.219259,14.983602 C 21.870596,15.139739 22.485336,15.423847 23.058182,15.846353 C 25.349569,17.53638 25.8437,20.76655 24.153673,23.057937 C 22.463648,25.349324 19.233478,25.843455 16.942091,24.153429 C 14.650704,22.463404 14.156572,19.233233 15.846599,16.941846 C 17.114118,15.223306 19.265248,14.515194 21.219259,14.983602 z M 21.155616,18.79006 C 21.235253,18.865326 21.301171,18.930025 21.365715,19.021392 C 21.30473,18.935577 21.233751,18.864544 21.155616,18.79006 z M 19.021638,18.634313 C 18.935822,18.695297 18.864789,18.766277 18.790303,18.844411 C 18.86557,18.764773 18.93027,18.698856 19.021638,18.634313 z M 21.209968,21.155371 C 21.134702,21.235008 21.070003,21.300926 20.978635,21.365471 C 21.064449,21.304484 21.135482,21.233506 21.209968,21.155371 z M 18.634557,20.97839 C 18.695543,21.064206 18.766522,21.135238 18.844656,21.209724 C 18.76502,21.134456 18.699101,21.069757 18.634557,20.97839 z"
       id="path3536" />
    <path
       style="opacity:0.15;fill:url(#linearGradient3398);fill-opacity:1;stroke:none;stroke-width:0.16000000000000000;stroke-linecap:round;stroke-linejoin:miter;stroke-miterlimit:4;stroke-dasharray:none;stroke-opacity:1"
       d="M 21.993537,15.245051 C 19.367931,14.14376 16.345497,15.379947 15.244207,18.005554 C 14.142916,20.631159 15.379104,23.653595 18.004711,24.754883 C 20.630316,25.856174 23.65275,24.619985 24.75404,21.99438 C 25.85533,19.368774 24.619143,16.34634 21.993537,15.245051 z M 20.65184,18.443811 C 21.507353,18.80265 21.914116,19.797171 21.555279,20.652684 C 21.19644,21.508196 20.201919,21.914959 19.346407,21.556121 C 18.490893,21.197282 18.084131,20.202761 18.442969,19.347249 C 18.801807,18.491737 19.796328,18.084974 20.65184,18.443811 z"
       id="path2489" />
    <path
       style="opacity:0.36326533;fill:#bbbbbb;fill-opacity:1;stroke:none;stroke-width:0.16;stroke-linecap:round;stroke-linejoin:miter;stroke-miterlimit:4;stroke-dasharray:none;stroke-opacity:1"
       d="M 19.532352,15.960018 C 17.959687,16.142481 16.581885,17.243025 16.109452,18.859299 C 15.479542,21.014333 16.703424,23.259728 18.858456,23.889638 C 21.013489,24.519549 23.258885,23.295666 23.888795,21.140634 C 24.518705,18.985601 23.294823,16.740205 21.139791,16.110296 C 20.601033,15.952818 20.056573,15.899197 19.532352,15.960018 z M 19.572465,16.206779 C 20.064483,16.149916 20.576165,16.193296 21.082355,16.341254 C 23.107111,16.933085 24.249668,19.05844 23.657836,21.083198 C 23.066005,23.107955 20.940651,24.250511 18.915892,23.65868 C 16.891134,23.066849 15.748579,20.941494 16.340411,18.916735 C 16.784284,17.398167 18.096411,16.377367 19.572465,16.206779 z"
       id="path3261" />
    <path
       style="opacity:0.36326533000000000;fill:none;fill-opacity:1;stroke:#888888;stroke-width:0.16000000000000000;stroke-linecap:round;stroke-linejoin:miter;stroke-miterlimit:4;stroke-dasharray:none;stroke-opacity:1"
       d="M 20.691751,17.630369 C 19.386745,17.248919 18.010976,18.002334 17.629526,19.307339 C 17.248076,20.612346 18.001492,21.988115 19.306496,22.369564 C 20.611502,22.751015 21.987273,21.9976 22.368721,20.692594 C 22.750171,19.387588 21.996757,18.011819 20.691751,17.630369 z M 20.472565,18.380241 C 21.363026,18.640521 21.879128,19.582947 21.618849,20.473408 C 21.358569,21.363869 20.416143,21.879971 19.525682,21.619692 C 18.63522,21.359412 18.119119,20.416986 18.379398,19.526525 C 18.639678,18.636064 19.582104,18.119963 20.472565,18.380241 z"
       id="path3263" />
    <path
       id="path3400"
       d="M 23.760219,23.527157 C 25.70789,21.450327 25.603145,18.186542 23.526313,16.238871 C 21.449484,14.2912 18.185696,14.395946 16.238027,16.472778 C 14.290356,18.549607 14.395103,21.813393 16.471934,23.761063 C 18.548764,25.708733 21.812549,25.603988 23.760219,23.527157 z M 21.230029,21.154321 C 20.59541,21.831023 19.521474,21.865489 18.84477,21.230871 C 18.168068,20.596253 18.133602,19.522316 18.768219,18.845614 C 19.402839,18.168911 20.476775,18.134446 21.153477,18.769063 C 21.83018,19.40368 21.864645,20.477617 21.230029,21.154321 z"
       style="opacity:0.1;fill:url(#linearGradient3402);fill-opacity:1;stroke:none;stroke-width:0.16000000000000000;stroke-linecap:round;stroke-linejoin:miter;stroke-miterlimit:4;stroke-dasharray:none;stroke-opacity:1" />
    <path
       sodipodi:nodetypes="cssssccssssc"
       id="path3462"
       d="M 19.84375,14.84375 C 18.524741,14.886082 17.223834,15.430334 16.25,16.46875 C 14.302328,18.545579 14.391919,21.80233 16.46875,23.75 C 18.545581,25.69767 21.80233,25.608081 23.75,23.53125 C 25.69767,21.45442 25.608082,18.197671 23.53125,16.25 C 22.492835,15.276165 21.162759,14.801418 19.84375,14.84375 z M 19.53125,15.96875 C 20.055471,15.907929 20.586242,15.967522 21.125,16.125 C 23.280032,16.754909 24.504909,19.001216 23.875,21.15625 C 23.24509,23.311282 20.998783,24.50491 18.84375,23.875 C 16.688718,23.24509 15.495091,20.998784 16.125,18.84375 C 16.597433,17.227476 17.958585,16.151213 19.53125,15.96875 z"
       style="opacity:0.25000000000000000;fill:url(#linearGradient3464);fill-opacity:1;stroke:none;stroke-width:0.16000000000000000;stroke-linecap:round;stroke-linejoin:miter;stroke-miterlimit:4;stroke-dasharray:none;stroke-opacity:1" />
    <path
       id="path2606"
       d="M 27.55787,8.7370455 C 25.39105,7.2772429 22.783007,6.4212898 19.975787,6.4253212 C 12.489866,6.4360735 6.415527,12.538168 6.4262792,20.024088 C 6.4370311,27.510009 12.539127,33.584352 20.025042,33.573592 C 27.510964,33.562841 33.585308,27.460751 33.574557,19.974829 C 33.567834,15.296127 31.169228,11.17005 27.55787,8.7370455 z M 23.119159,15.885718 C 23.65417,16.288689 24.104565,16.794412 24.461357,17.410344 C 25.888509,19.874058 25.053244,23.033248 22.589534,24.460397 C 20.125813,25.887545 16.966625,25.05229 15.539475,22.588576 C 14.112326,20.124862 14.947584,16.965666 17.4113,15.538518 C 19.259085,14.468156 21.514135,14.676808 23.119159,15.885718 z M 21.542564,19.350906 C 21.585566,19.451689 21.620209,19.537311 21.642958,19.64684 C 21.621256,19.54382 21.584498,19.450368 21.542564,19.350906 z M 19.647794,18.356923 C 19.544775,18.378619 19.451327,18.415377 19.351859,18.457317 C 19.452643,18.414309 19.538266,18.379668 19.647794,18.356923 z M 20.648972,21.541597 C 20.548191,21.584609 20.462572,21.61925 20.353039,21.641996 C 20.456053,21.620296 20.549504,21.583539 20.648972,21.541597 z M 18.357879,20.352081 C 18.379577,20.455099 18.416334,20.548548 18.458274,20.648015 C 18.415266,20.547232 18.380626,20.46161 18.357879,20.352081 z"
       style="opacity:0.1;fill:url(#linearGradient2608);fill-opacity:1;stroke:none;stroke-width:0.16;stroke-linecap:round;stroke-linejoin:miter;stroke-miterlimit:4;stroke-dasharray:none;stroke-opacity:1" />
    <path
       style="opacity:0.2;fill:url(#linearGradient2612);fill-opacity:1;stroke:none;stroke-width:0.16;stroke-linecap:round;stroke-linejoin:miter;stroke-miterlimit:4;stroke-dasharray:none;stroke-opacity:1"
       d="M 30.115372,10.963636 C 28.378247,9.0120872 26.063941,7.5361086 23.34341,6.8438571 C 16.08866,4.9978551 8.6908188,9.4029748 6.8448157,16.657725 C 4.9988126,23.912476 9.4039352,31.310322 16.658685,33.156319 C 23.913437,35.002323 31.311276,30.597203 33.157276,23.342454 C 34.311029,18.808233 33.010573,14.216215 30.115372,10.963636 z M 24.042526,16.78826 C 24.460886,17.311314 24.771811,17.912938 24.964714,18.598107 C 25.736309,21.338776 24.143701,24.192154 21.403027,24.963752 C 18.662352,25.735347 15.808978,24.14274 15.037382,21.402068 C 14.265784,18.661398 15.858393,15.80802 18.599066,15.036423 C 20.654568,14.457725 22.787437,15.219083 24.042526,16.78826 z M 21.655852,19.754225 C 21.672517,19.86252 21.684851,19.95406 21.679722,20.065811 C 21.684252,19.960629 21.671814,19.860986 21.655852,19.754225 z M 20.066769,18.321413 C 19.961588,18.316885 19.861942,18.32932 19.755181,18.345284 C 19.863481,18.328613 19.955021,18.316286 20.066769,18.321413 z M 20.246909,21.654891 C 20.138612,21.671565 20.047074,21.683891 19.935326,21.678764 C 20.0405,21.683288 20.140154,21.670858 20.246909,21.654891 z M 18.322372,19.934367 C 18.317844,20.039547 18.330278,20.139191 18.346241,20.245954 C 18.329572,20.137653 18.317245,20.046114 18.322372,19.934367 z"
       id="path2610" />
    <path
       id="path2614"
       d="M 31.648212,13.050011 C 30.313484,10.803996 28.32172,8.9152306 25.782244,7.7187497 C 19.010307,4.5281346 10.910324,7.4476171 7.7197081,14.219551 C 4.5290923,20.991488 7.4485746,29.091473 14.220513,32.28209 C 20.992443,35.472702 29.092434,32.553221 32.283052,25.78129 C 34.277181,21.548825 33.872782,16.793379 31.648212,13.050011 z M 24.579432,17.614867 C 24.890804,18.20788 25.081777,18.857616 25.140991,19.566946 C 25.377873,22.404294 23.272194,24.903149 20.434843,25.140028 C 17.597503,25.376916 15.098647,23.271234 14.861764,20.433889 C 14.624881,17.596545 16.73056,15.097689 19.567907,14.860806 C 21.695919,14.683145 23.645296,15.835829 24.579432,17.614867 z M 21.672753,20.073406 C 21.668548,20.182899 21.663262,20.275113 21.636993,20.383848 C 21.661423,20.281446 21.668142,20.181253 21.672753,20.073406 z M 20.38481,18.364801 C 20.282406,18.340372 20.182213,18.33365 20.074361,18.329041 C 20.183859,18.333248 20.276071,18.338537 20.38481,18.364801 z M 19.92839,21.671796 C 19.818896,21.667586 19.726682,21.662298 19.617941,21.636033 C 19.720349,21.660463 19.820537,21.667184 19.92839,21.671796 z M 18.36576,19.616985 C 18.341331,19.71939 18.334609,19.819583 18.329999,19.927434 C 18.334208,19.817937 18.339495,19.725724 18.36576,19.616985 z"
       style="opacity:0.1;fill:url(#linearGradient2616);fill-opacity:1;stroke:none;stroke-width:0.16;stroke-linecap:round;stroke-linejoin:miter;stroke-miterlimit:4;stroke-dasharray:none;stroke-opacity:1" />
    <path
       style="opacity:0.25;fill:url(#linearGradient3530);fill-opacity:1;stroke:none;stroke-width:0.16000000000000000;stroke-linecap:round;stroke-linejoin:miter;stroke-miterlimit:4;stroke-dasharray:none;stroke-opacity:1"
       d="M 8.873499,27.76902 C 9.135697,28.144781 9.406421,28.504883 9.711619,28.859503 C 14.594804,34.533447 23.179448,35.170922 28.853392,30.287737 C 34.527335,25.404552 35.164807,16.81991 30.281624,11.145966 C 27.229633,7.5997511 22.731538,6.0165889 18.406497,6.522033 C 15.81147,6.8252996 13.267581,7.8865378 11.139853,9.7177319 C 5.8205315,14.295717 4.9405184,22.132605 8.873499,27.76902 z M 9.642845,28.289967 C 7.255016,25.297032 6.1525735,21.318069 7.0005702,17.285404 C 8.508121,10.116222 15.544772,5.4991341 22.713953,7.0066825 C 29.883135,8.5142345 34.500222,15.550885 32.992673,22.720064 C 31.485122,29.889248 24.448474,34.506338 17.279291,32.998786 C 14.142775,32.339233 11.500047,30.617805 9.642845,28.289967 z M 15.801074,23.000767 C 15.664141,22.810026 15.554629,22.616247 15.445023,22.409337 C 15.523394,22.557405 15.597444,22.710152 15.690222,22.849545 C 15.724955,22.901727 15.76453,22.950021 15.801074,23.000767 z M 16.158835,23.435958 C 16.282271,23.572859 16.411594,23.686328 16.548527,23.808992 C 16.339347,23.619484 16.147858,23.402665 15.97408,23.183921 C 16.038891,23.265194 16.089402,23.358949 16.158835,23.435958 z M 15.340899,22.214436 C 15.203241,21.925289 15.095685,21.602627 15.01347,21.29205 C 15.096612,21.622032 15.200503,21.91834 15.340899,22.214436 z M 15.01347,21.29205 C 14.938418,21.008532 14.87975,20.735217 14.854028,20.440254 C 14.868983,20.613859 14.896442,20.791264 14.92953,20.966111 C 14.949926,21.073887 14.987184,21.187723 15.01347,21.29205 z M 18.988368,21.323034 C 19.07192,21.387083 19.158857,21.427792 19.255461,21.475965 C 19.157192,21.427488 19.076957,21.391341 18.988368,21.323034 z M 21.637078,24.883473 C 21.828435,24.819433 22.003765,24.761396 22.183121,24.676933 C 22.003292,24.761184 21.82563,24.820304 21.637078,24.883473 z M 22.403224,24.554333 C 22.600378,24.44933 22.814998,24.326446 22.994655,24.198282 C 22.809143,24.329958 22.603849,24.448354 22.403224,24.554333 z M 18.504916,19.23637 C 18.553393,19.138102 18.589541,19.057866 18.657847,18.969278 C 18.593798,19.052831 18.553089,19.139766 18.504916,19.23637 z M 16.998588,15.807187 C 17.176078,15.680019 17.373399,15.573349 17.564816,15.469611 C 17.377023,15.571023 17.170356,15.684652 16.998588,15.807187 z M 21.3606,21.017717 C 21.42465,20.934165 21.465358,20.847228 21.513532,20.750624 C 21.465056,20.848892 21.428907,20.929128 21.3606,21.017717 z M 20.762986,18.511029 C 20.861258,18.559505 20.94149,18.595653 21.030079,18.66396 C 20.946528,18.59991 20.85959,18.559201 20.762986,18.511029 z M 24.877359,18.362279 C 24.813321,18.170921 24.755283,17.995591 24.670821,17.816236 C 24.755071,17.996065 24.814192,18.173726 24.877359,18.362279 z M 24.548222,17.596132 C 24.443218,17.398978 24.320333,17.184358 24.19217,17.004701 C 24.323844,17.190214 24.442242,17.395508 24.548222,17.596132 z"
       id="path3507" />
    <path
       id="path3368"
       d="M 30.570178,28.508817 C 30.85753,28.151924 31.127463,27.791229 31.382483,27.39897 C 35.462828,21.122832 33.671976,12.702895 27.395836,8.6225497 C 21.119698,4.5422059 12.699764,6.3330604 8.619418,12.609198 C 6.0692029,16.531785 5.8083405,21.293216 7.5041629,25.303905 C 8.521657,27.710322 10.252512,29.855489 12.606064,31.385617 C 18.489944,35.210939 26.2599,33.862228 30.570178,28.508817 z M 30.854962,27.62441 C 28.650012,30.754519 25.138667,32.926609 21.029836,33.241253 C 13.72525,33.800618 7.3231487,28.337554 6.7637812,21.032969 C 6.2044168,13.728382 11.66748,7.3262821 18.972064,6.7669154 C 26.276653,6.2075502 32.678755,11.67061 33.238119,18.975199 C 33.482841,22.170954 32.569922,25.189878 30.854962,27.62441 z M 24.053484,23.19278 C 23.908695,23.37763 23.753315,23.537003 23.585354,23.700142 C 23.705567,23.583458 23.831483,23.469614 23.939334,23.341529 C 23.979709,23.293579 24.014996,23.242069 24.053484,23.19278 z M 24.371143,22.727509 C 24.468023,22.570689 24.540759,22.414774 24.620193,22.248982 C 24.496808,22.502843 24.342253,22.747367 24.180894,22.975425 C 24.240777,22.890457 24.316647,22.815722 24.371143,22.727509 z M 23.427387,23.854656 C 23.188328,24.067745 22.908669,24.261315 22.633518,24.427174 C 22.927038,24.254993 23.182424,24.072318 23.427387,23.854656 z M 22.633518,24.427174 C 22.382339,24.578583 22.13637,24.711407 21.860397,24.818661 C 22.022876,24.755712 22.185504,24.679695 22.344101,24.598989 C 22.441861,24.549242 22.540718,24.481611 22.633518,24.427174 z M 21.550687,20.602485 C 21.58879,20.504344 21.603538,20.409488 21.622746,20.303262 C 21.603712,20.411172 21.591468,20.498318 21.550687,20.602485 z M 24.227437,17.063077 C 24.112396,16.897294 24.007604,16.745216 23.876314,16.596671 C 24.007532,16.74573 24.114016,16.899743 24.227437,17.063077 z M 23.697008,16.419682 C 23.541019,16.259798 23.362974,16.088153 23.189647,15.951549 C 23.367985,16.09279 23.53911,16.256739 23.697008,16.419682 z M 19.682748,21.65067 C 19.574839,21.631637 19.487692,21.619392 19.383526,21.578612 C 19.481667,21.616714 19.576521,21.631463 19.682748,21.65067 z M 16.812254,24.056619 C 16.64049,23.921818 16.482853,23.762241 16.329684,23.607512 C 16.479606,23.759413 16.646539,23.926015 16.812254,24.056619 z M 20.593585,18.410532 C 20.495445,18.372427 20.400589,18.35768 20.294361,18.338472 C 20.402271,18.357504 20.489418,18.369751 20.593585,18.410532 z M 18.354364,19.685881 C 18.373396,19.577969 18.385642,19.490826 18.426423,19.386659 C 18.388319,19.484798 18.373572,19.579655 18.354364,19.685881 z M 17.059944,15.777599 C 16.89416,15.892638 16.742082,15.997431 16.593538,16.12872 C 16.742597,15.997502 16.896608,15.891017 17.059944,15.777599 z M 16.416547,16.308024 C 16.256664,16.464015 16.085018,16.642061 15.948415,16.815387 C 16.089657,16.637051 16.253606,16.465925 16.416547,16.308024 z"
       style="opacity:0.25;fill:url(#linearGradient3370);fill-opacity:1;stroke:none;stroke-width:0.16000000000000000;stroke-linecap:round;stroke-linejoin:miter;stroke-miterlimit:4;stroke-dasharray:none;stroke-opacity:1" />
    <path
       transform="matrix(0.2772262,0,0,0.133849,2.70576,21.939765)"
       d="M 127.82442,115.70919 A 63.912209,12.641975 0 1 1 0,115.70919 A 63.912209,12.641975 0 1 1 127.82442,115.70919 z"
       sodipodi:ry="12.641975"
       sodipodi:rx="63.912209"
       sodipodi:cy="115.70919"
       sodipodi:cx="63.912209"
       id="path2593"
       style="opacity:0.38139535;fill:url(#radialGradient2595);fill-opacity:1;fill-rule:nonzero;stroke:none;stroke-width:0;stroke-linecap:round;stroke-linejoin:round;stroke-miterlimit:4;stroke-dasharray:none;stroke-dashoffset:4;stroke-opacity:1"
       sodipodi:type="arc" />
    <rect
       style="opacity:1;fill:url(#linearGradient4262);fill-opacity:1;stroke:none;stroke-width:0.16000000000000000;stroke-linecap:round;stroke-linejoin:miter;stroke-miterlimit:4;stroke-dasharray:none;stroke-opacity:1"
       id="rect4254"
       width="2.4341092"
       height="7.1284623"
       x="-31.217054"
       y="30.437429"
       transform="scale(-1,1)" />
    <path
       transform="matrix(0,-0.1239287,-0.1239287,0,32.464895,32.485071)"
       sodipodi:type="arc"
       style="opacity:1;fill:url(#linearGradient4240);fill-opacity:1;stroke:none;stroke-width:0.16;stroke-linecap:round;stroke-linejoin:miter;stroke-miterlimit:4;stroke-dasharray:none;stroke-opacity:1"
       id="path4230"
       sodipodi:cx="20.052423"
       sodipodi:cy="19.889622"
       sodipodi:rx="13.561465"
       sodipodi:ry="13.561465"
       d="M 33.613889,19.889622 A 13.561465,13.561465 0 1 1 6.4909582,19.889622 A 13.561465,13.561465 0 1 1 33.613889,19.889622 z" />
    <path
       d="M 33.613889,19.889622 A 13.561465,13.561465 0 1 1 6.4909582,19.889622 A 13.561465,13.561465 0 1 1 33.613889,19.889622 z"
       sodipodi:ry="13.561465"
       sodipodi:rx="13.561465"
       sodipodi:cy="19.889622"
       sodipodi:cx="20.052423"
       id="path4242"
       style="opacity:0.5;fill:url(#linearGradient4244);fill-opacity:1;stroke:none;stroke-width:0.16;stroke-linecap:round;stroke-linejoin:miter;stroke-miterlimit:4;stroke-dasharray:none;stroke-opacity:1"
       sodipodi:type="arc"
       transform="matrix(-2.3372744e-2,-9.9862478e-2,9.9862478e-2,-2.3372744e-2,28.482453,32.467361)" />
    <rect
       transform="scale(-1,1)"
       y="30.437429"
       x="-11.217054"
       height="7.1284623"
       width="2.4341092"
       id="rect4292"
       style="opacity:1;fill:url(#linearGradient4294);fill-opacity:1;stroke:none;stroke-width:0.16;stroke-linecap:round;stroke-linejoin:miter;stroke-miterlimit:4;stroke-dasharray:none;stroke-opacity:1" />
    <path
       d="M 33.613889,19.889622 A 13.561465,13.561465 0 1 1 6.4909582,19.889622 A 13.561465,13.561465 0 1 1 33.613889,19.889622 z"
       sodipodi:ry="13.561465"
       sodipodi:rx="13.561465"
       sodipodi:cy="19.889622"
       sodipodi:cx="20.052423"
       id="path4246"
       style="opacity:1;fill:url(#linearGradient4250);fill-opacity:1;stroke:none;stroke-width:0.16;stroke-linecap:round;stroke-linejoin:miter;stroke-miterlimit:4;stroke-dasharray:none;stroke-opacity:1"
       sodipodi:type="arc"
       transform="matrix(0,-0.1239287,-0.1239287,0,12.464895,32.485071)" />
    <path
       transform="matrix(-2.3372744e-2,-9.9862478e-2,9.9862478e-2,-2.3372744e-2,8.482453,32.467361)"
       sodipodi:type="arc"
       style="opacity:0.5;fill:url(#linearGradient4252);fill-opacity:1;stroke:none;stroke-width:0.16;stroke-linecap:round;stroke-linejoin:miter;stroke-miterlimit:4;stroke-dasharray:none;stroke-opacity:1"
       id="path4248"
       sodipodi:cx="20.052423"
       sodipodi:cy="19.889622"
       sodipodi:rx="13.561465"
       sodipodi:ry="13.561465"
       d="M 33.613889,19.889622 A 13.561465,13.561465 0 1 1 6.4909582,19.889622 A 13.561465,13.561465 0 1 1 33.613889,19.889622 z" />
    <rect
       transform="matrix(0,-1,-1,0,0,0)"
       y="-40"
       x="-39.218716"
       height="40"
       width="2.4341092"
       id="rect4268"
       style="opacity:1;fill:url(#linearGradient4270);fill-opacity:1;stroke:none;stroke-width:0.16;stroke-linecap:round;stroke-linejoin:miter;stroke-miterlimit:4;stroke-dasharray:none;stroke-opacity:1" />
    <rect
       style="opacity:0.50000000000000000;fill:url(#linearGradient4274);fill-opacity:1.0;stroke:none;stroke-width:0.16000000000000000;stroke-linecap:round;stroke-linejoin:miter;stroke-miterlimit:4;stroke-dasharray:none;stroke-opacity:1"
       id="rect4272"
       width="1.8545594"
       height="40"
       x="-38.870987"
       y="-40"
       transform="matrix(0,-1,-1,0,0,0)" />
    <rect
       style="opacity:0.61162792;fill:#555753;fill-opacity:1;fill-rule:nonzero;stroke:none;stroke-width:0.69999999;stroke-linecap:round;stroke-linejoin:miter;stroke-miterlimit:4;stroke-dasharray:none;stroke-opacity:1"
       id="rect1951"
       width="40.001965"
       height="10.004759"
       x="-0.0019644466"
       y="30" />
    <text
       xml:space="preserve"
       style="font-size:12px;font-style:normal;font-weight:normal;fill:#eeeeec;fill-opacity:1;stroke:none;stroke-width:1px;stroke-linecap:butt;stroke-linejoin:miter;stroke-opacity:1;font-family:Bitstream Vera Sans"
       x="11.039062"
       y="39.168156"
       id="text2840"><tspan
         sodipodi:role="line"
         id="tspan2842"
         x="11.039062"
         y="39.168156">D</tspan></text>
    <text
       id="text2450"
       y="37.399982"
       x="21.039062"
       style="font-size:12px;font-style:normal;font-weight:normal;fill:#eeeeec;fill-opacity:1;stroke:none;stroke-width:1px;stroke-linecap:butt;stroke-linejoin:miter;stroke-opacity:1;font-family:Bitstream Vera Sans"
       xml:space="preserve"><tspan
         y="37.399982"
         x="21.039062"
         id="tspan2452"
         sodipodi:role="line">y</tspan></text>
  </g>
</svg>
