<?xml version="1.0" encoding="UTF-8" standalone="no"?>
<!-- Created with Inkscape (http://www.inkscape.org/) -->
<svg
   xmlns:dc="http://purl.org/dc/elements/1.1/"
   xmlns:cc="http://web.resource.org/cc/"
   xmlns:rdf="http://www.w3.org/1999/02/22-rdf-syntax-ns#"
   xmlns:svg="http://www.w3.org/2000/svg"
   xmlns="http://www.w3.org/2000/svg"
   xmlns:xlink="http://www.w3.org/1999/xlink"
   xmlns:sodipodi="http://sodipodi.sourceforge.net/DTD/sodipodi-0.dtd"
   xmlns:inkscape="http://www.inkscape.org/namespaces/inkscape"
   width="40"
   height="40"
   id="svg2193"
   sodipodi:version="0.32"
   inkscape:version="0.45.1"
   version="1.0"
   sodipodi:docbase="/home/jra/Desktop"
   sodipodi:docname="tnt-edited2.svg"
   inkscape:output_extension="org.inkscape.output.svg.inkscape">
  <defs
     id="defs2195">
    <linearGradient
       inkscape:collect="always"
       id="linearGradient3204">
      <stop
         style="stop-color:#000000;stop-opacity:1;"
         offset="0"
         id="stop3206" />
      <stop
         style="stop-color:#000000;stop-opacity:0;"
         offset="1"
         id="stop3208" />
    </linearGradient>
    <linearGradient
       id="linearGradient4431">
      <stop
         id="stop4433"
         offset="0"
         style="stop-color:#000000;stop-opacity:0.55624998;" />
      <stop
         style="stop-color:#7f7f7f;stop-opacity:0.17647059;"
         offset="0.25"
         id="stop7404" />
      <stop
         id="stop7406"
         offset="0.375"
         style="stop-color:#bfbfbf;stop-opacity:0.26666667;" />
      <stop
         style="stop-color:#ffffff;stop-opacity:0.35624999;"
         offset="0.5"
         id="stop4435" />
      <stop
         id="stop4437"
         offset="1"
         style="stop-color:#000000;stop-opacity:0.48750001;" />
    </linearGradient>
    <linearGradient
       id="linearGradient3388">
      <stop
         style="stop-color:#000000;stop-opacity:1"
         offset="0"
         id="stop3390" />
      <stop
         id="stop3394"
         offset="0.5"
         style="stop-color:#ffffff;stop-opacity:1;" />
      <stop
         style="stop-color:#7e7e7e;stop-opacity:1;"
         offset="1"
         id="stop3392" />
    </linearGradient>
    <linearGradient
       inkscape:collect="always"
       id="linearGradient3239">
      <stop
         style="stop-color:#eeeeec;stop-opacity:1;"
         offset="0"
         id="stop3241" />
      <stop
         style="stop-color:#eeeeec;stop-opacity:0;"
         offset="1"
         id="stop3243" />
    </linearGradient>
    <linearGradient
       id="linearGradient3291">
      <stop
         id="stop3293"
         offset="0"
         style="stop-color:#000000;stop-opacity:0.73124999;" />
      <stop
         id="stop3295"
         offset="1"
         style="stop-color:#030303;stop-opacity:0.13124999;" />
    </linearGradient>
    <radialGradient
       inkscape:collect="always"
       xlink:href="#linearGradient3291"
       id="radialGradient2595"
       gradientUnits="userSpaceOnUse"
       gradientTransform="matrix(1,0,0,0.197802,0,92.82166)"
       cx="63.912209"
       cy="115.70919"
       fx="75.857941"
       fy="115.70919"
       r="63.912209" />
    <linearGradient
       inkscape:collect="always"
       xlink:href="#linearGradient3388"
       id="linearGradient3386"
       x1="27.704737"
       y1="32.74987"
       x2="27.471092"
       y2="32.273239"
       gradientUnits="userSpaceOnUse"
       gradientTransform="matrix(0.8386093,0,0,0.8386093,1.9527326,3.7379385)" />
    <linearGradient
       inkscape:collect="always"
       xlink:href="#linearGradient3388"
       id="linearGradient3398"
       gradientUnits="userSpaceOnUse"
       x1="27.704737"
       y1="32.74987"
       x2="27.471092"
       y2="32.273239"
       gradientTransform="matrix(0.8348906,7.8887816e-2,-7.8887816e-2,0.8348906,4.9841697,1.9811514)" />
    <linearGradient
       inkscape:collect="always"
       xlink:href="#linearGradient3388"
       id="linearGradient3402"
       gradientUnits="userSpaceOnUse"
       gradientTransform="matrix(0.8385504,-9.941987e-3,9.941987e-3,0.8385504,2.7091375,4.6318573)"
       x1="27.704737"
       y1="32.74987"
       x2="27.471092"
       y2="32.273239" />
    <linearGradient
       inkscape:collect="always"
       xlink:href="#linearGradient3388"
       id="linearGradient3406"
       gradientUnits="userSpaceOnUse"
       gradientTransform="matrix(0.8380124,3.1636088e-2,-3.1636088e-2,0.8380124,4.4373883,3.7051458)"
       x1="27.704737"
       y1="32.74987"
       x2="27.471092"
       y2="32.273239" />
    <linearGradient
       inkscape:collect="always"
       xlink:href="#linearGradient3388"
       id="linearGradient3410"
       gradientUnits="userSpaceOnUse"
       gradientTransform="matrix(0.8382052,-2.6028219e-2,2.6028219e-2,0.8382052,1.2373917,5.2117818)"
       x1="27.704737"
       y1="32.74987"
       x2="27.471092"
       y2="32.273239" />
    <linearGradient
       inkscape:collect="always"
       xlink:href="#linearGradient3388"
       id="linearGradient3414"
       gradientUnits="userSpaceOnUse"
       gradientTransform="matrix(0.8382052,-2.6028219e-2,2.6028219e-2,0.8382052,-0.1682441,4.8986781)"
       x1="27.704737"
       y1="32.74987"
       x2="27.471092"
       y2="32.273239" />
    <linearGradient
       inkscape:collect="always"
       xlink:href="#linearGradient4431"
       id="linearGradient4429"
       x1="22.487413"
       y1="8.2399206"
       x2="24.278887"
       y2="16.087183"
       gradientUnits="userSpaceOnUse"
       gradientTransform="matrix(0.8386093,0,0,0.8386093,1.9527326,3.7379385)" />
    <linearGradient
       inkscape:collect="always"
       xlink:href="#linearGradient4431"
       id="linearGradient4445"
       x1="23.283073"
       y1="16.175579"
       x2="25.040688"
       y2="22.730017"
       gradientUnits="userSpaceOnUse"
       gradientTransform="matrix(0.8386093,0,0,0.8386093,1.9527326,3.7379385)" />
    <linearGradient
       inkscape:collect="always"
       xlink:href="#linearGradient4431"
       id="linearGradient4453"
       x1="6.0625"
       y1="17.375"
       x2="8.823638"
       y2="23.981478"
       gradientUnits="userSpaceOnUse"
       gradientTransform="matrix(0.8386093,0,0,0.8386093,1.9527326,3.7379385)" />
    <linearGradient
       inkscape:collect="always"
       xlink:href="#linearGradient3291"
       id="linearGradient7373"
       x1="7.9290709"
       y1="12.5625"
       x2="9.7185049"
       y2="19.419222"
       gradientUnits="userSpaceOnUse"
       gradientTransform="matrix(0.8386093,0,0,0.8386093,1.9527326,3.7379385)" />
    <linearGradient
       inkscape:collect="always"
       xlink:href="#linearGradient3291"
       id="linearGradient7381"
       x1="4.6265626"
       y1="18.21875"
       x2="7.3083797"
       y2="24.829348"
       gradientUnits="userSpaceOnUse"
       gradientTransform="matrix(0.8386093,0,0,0.8386093,1.9527326,3.7379385)" />
    <linearGradient
       inkscape:collect="always"
       xlink:href="#linearGradient3291"
       id="linearGradient7389"
       x1="10.185824"
       y1="19.8125"
       x2="13.03125"
       y2="26.375"
       gradientUnits="userSpaceOnUse"
       gradientTransform="matrix(0.8386093,0,0,0.8386093,1.9527326,3.7379385)" />
    <linearGradient
       inkscape:collect="always"
       xlink:href="#linearGradient3239"
       id="linearGradient7402"
       x1="1.0403181"
       y1="-8.9208126"
       x2="18.216799"
       y2="11.121162"
       gradientUnits="userSpaceOnUse" />
    <linearGradient
       inkscape:collect="always"
       xlink:href="#linearGradient3239"
       id="linearGradient2289"
       gradientUnits="userSpaceOnUse"
       x1="1.0403181"
       y1="-8.9208126"
       x2="18.216799"
       y2="11.121162" />
    <linearGradient
       inkscape:collect="always"
       xlink:href="#linearGradient3239"
       id="linearGradient2291"
       gradientUnits="userSpaceOnUse"
       x1="1.0403181"
       y1="-8.9208126"
       x2="18.216799"
       y2="11.121162" />
    <linearGradient
       inkscape:collect="always"
       xlink:href="#linearGradient3239"
       id="linearGradient2293"
       gradientUnits="userSpaceOnUse"
       x1="1.0403181"
       y1="-8.9208126"
       x2="18.216799"
       y2="11.121162" />
    <linearGradient
       inkscape:collect="always"
       xlink:href="#linearGradient3204"
       id="linearGradient3219"
       gradientUnits="userSpaceOnUse"
       x1="8.6506472"
       y1="1.3307773"
       x2="14.742552"
       y2="7.3095479"
       gradientTransform="matrix(0.8386093,0,0,0.8386093,1.9527326,20.510115)" />
    <linearGradient
       inkscape:collect="always"
       xlink:href="#linearGradient3204"
       id="linearGradient3222"
       gradientUnits="userSpaceOnUse"
       x1="4.8142695"
       y1="-1.3201653"
       x2="10.059181"
       y2="4.9678626"
       gradientTransform="matrix(0.8386093,0,0,0.8386093,1.9527326,20.510115)" />
    <linearGradient
       inkscape:collect="always"
       xlink:href="#linearGradient3204"
       id="linearGradient3225"
       gradientUnits="userSpaceOnUse"
       x1="7.0563078"
       y1="-5.146224"
       x2="13.198035"
       y2="-2.4557774"
       gradientTransform="matrix(0.8386093,0,0,0.8386093,1.9527326,20.510115)" />
  </defs>
  <sodipodi:namedview
     id="base"
     pagecolor="#ffffff"
     bordercolor="#666666"
     borderopacity="1.0"
     inkscape:pageopacity="0.0"
     inkscape:pageshadow="2"
     inkscape:zoom="17.3"
     inkscape:cx="20"
     inkscape:cy="20"
     inkscape:current-layer="layer1"
     showgrid="false"
     inkscape:grid-bbox="false"
     inkscape:document-units="px"
     width="40px"
     height="40px"
     gridempspacing="2"
     inkscape:window-width="1167"
     inkscape:window-height="914"
     inkscape:window-x="71"
     inkscape:window-y="59" />
  <metadata
     id="metadata2198">
    <rdf:RDF>
      <cc:Work
         rdf:about="">
        <dc:format>image/svg+xml</dc:format>
        <dc:type
           rdf:resource="http://purl.org/dc/dcmitype/StillImage" />
        <dc:creator>
          <cc:Agent>
            <dc:title>Jarle Akselsen</dc:title>
          </cc:Agent>
        </dc:creator>
        <cc:license
           rdf:resource="http://creativecommons.org/licenses/GPL/2.0/" />
      </cc:Work>
      <cc:License
         rdf:about="http://creativecommons.org/licenses/GPL/2.0/">
        <cc:permits
           rdf:resource="http://web.resource.org/cc/Reproduction" />
        <cc:permits
           rdf:resource="http://web.resource.org/cc/Distribution" />
        <cc:requires
           rdf:resource="http://web.resource.org/cc/Notice" />
        <cc:permits
           rdf:resource="http://web.resource.org/cc/DerivativeWorks" />
        <cc:requires
           rdf:resource="http://web.resource.org/cc/ShareAlike" />
        <cc:requires
           rdf:resource="http://web.resource.org/cc/SourceCode" />
      </cc:License>
    </rdf:RDF>
  </metadata>
  <g
     id="layer1"
     inkscape:label="Layer 1"
     inkscape:groupmode="layer">
    <path
       transform="matrix(0.2272272,-5.574026e-2,4.1878301e-2,0.2194725,3.422602,1.2313824)"
       d="M 127.82442 115.70919 A 63.912209 12.641975 0 1 1  0,115.70919 A 63.912209 12.641975 0 1 1  127.82442 115.70919 z"
       sodipodi:ry="12.641975"
       sodipodi:rx="63.912209"
       sodipodi:cy="115.70919"
       sodipodi:cx="63.912209"
       id="path2593"
       style="opacity:0.38139535;fill:url(#radialGradient2595);fill-opacity:1;fill-rule:nonzero;stroke:none;stroke-width:0;stroke-linecap:round;stroke-linejoin:round;stroke-miterlimit:4;stroke-dasharray:none;stroke-dashoffset:4;stroke-opacity:1"
       sodipodi:type="arc" />
    <path
       style="opacity:1;fill:#e3ad00;fill-opacity:1;fill-rule:nonzero;stroke:none;stroke-width:0.5;stroke-linecap:round;stroke-linejoin:round;stroke-miterlimit:4;stroke-dasharray:none;stroke-opacity:1"
       d="M 24.584116,31.393851 L 23.483442,31.420057 C 23.466037,31.417864 23.448431,31.417866 23.431028,31.420057 C 23.150256,31.506864 22.798157,31.605778 22.540006,31.891776 C 22.530904,31.901855 22.522675,31.907382 22.513799,31.917982 C 22.278567,32.102934 22.033153,32.260255 21.780017,32.363494 C 21.764076,32.36834 21.768718,32.3852 21.75381,32.389701 C 21.583989,32.440954 21.466644,32.465837 21.386918,32.494526 C 21.322699,32.506516 21.195735,32.528389 21.098647,32.54694 C 21.090077,32.548575 21.080879,32.545286 21.07244,32.54694 C 20.970814,32.554608 20.347643,32.920331 20.122299,32.938514 C 19.885216,32.957645 19.624252,32.955358 19.545755,32.938514 C 19.52835,32.936321 19.510744,32.936323 19.493341,32.938514 C 18.465649,32.926244 14.679166,33.093792 15.553927,33.246492 C 15.440786,33.234924 15.327299,33.223791 15.213242,33.220286 L 15.265656,33.298906 C 15.265656,33.298906 16.235092,33.314828 16.838049,33.456145 C 17.441003,33.597463 17.676658,33.849244 17.676658,33.849244 C 17.685374,33.849494 17.694149,33.848998 17.702865,33.849244 C 17.712048,33.850037 17.719904,33.848504 17.729071,33.849244 C 17.884969,33.861808 18.023741,33.850955 18.174582,33.849244 C 18.103854,33.87291 18.036114,33.905351 17.964929,33.927862 C 17.955438,33.935807 17.946668,33.944577 17.938722,33.954069 C 16.799078,34.380818 16.020827,34.61474 15.213242,34.766472 C 14.016135,34.903178 11.123839,35.091736 10.574684,35.080951 C 10.692594,35.104786 11.84664,35.323802 13.064307,35.39543 C 13.952679,35.447685 14.673318,35.423848 15.134624,35.39543 C 16.518476,35.152445 18.591454,34.653749 19.912647,34.170222 C 20.745565,33.897742 21.960376,33.161527 22.749658,32.861418 C 22.758385,32.861963 22.767139,32.861965 22.775865,32.861418 C 22.824313,32.836151 23.013499,32.780694 23.221376,32.730386 C 23.420625,32.682162 23.644909,32.631319 23.79792,32.599352 C 23.806376,32.598182 23.81567,32.600528 23.824127,32.599352 C 24.432797,32.514706 25.05674,32.399196 25.658584,32.284873 C 25.675309,32.281695 25.694288,32.288066 25.710998,32.284873 C 25.72961,32.278634 25.747252,32.269813 25.76341,32.258667 C 25.796215,32.240011 25.823376,32.212852 25.84203,32.180048 C 25.85591,32.155844 25.864818,32.129117 25.868237,32.101427 C 25.87468,32.030926 25.845112,31.961938 25.789617,31.917982 C 25.753309,31.885894 25.707007,31.867375 25.658584,31.86557 L 25.606171,31.86557 C 25.59767,31.867193 25.588471,31.86395 25.579965,31.86557 L 25.213073,31.891776 C 25.208957,31.885531 25.213081,31.865575 25.213073,31.86557 C 25.213033,31.865533 25.160729,31.839393 25.16066,31.839363 C 25.160524,31.8393 25.108499,31.839409 25.108247,31.839363 C 25.107742,31.839269 25.088506,31.813359 25.08204,31.813156 C 25.075575,31.812951 25.059791,31.81307 25.055834,31.813156 C 25.047921,31.813328 25.03625,31.812722 25.029628,31.813156 C 25.016383,31.814023 25.022042,31.837599 25.003421,31.839363 C 24.997214,31.839948 24.98425,31.838666 24.977214,31.839363 C 24.942039,31.842851 24.904163,31.832939 24.846182,31.839363 C 24.740608,31.851059 24.54417,31.868088 24.348258,31.891776 C 24.452217,31.865561 24.56261,31.845536 24.688943,31.813156 C 24.718793,31.801893 24.745685,31.783968 24.767562,31.760742 C 24.823054,31.716786 24.852625,31.647798 24.846182,31.577297 C 24.84276,31.549607 24.833854,31.522879 24.819975,31.498678 C 24.801319,31.465871 24.774159,31.438713 24.741355,31.420057 C 24.725194,31.40891 24.707554,31.40009 24.688943,31.393851 C 24.671537,31.391657 24.653932,31.391659 24.636529,31.393851 L 24.584116,31.393851 z M 23.535855,31.839363 L 23.614474,31.839363 C 23.507353,31.929015 23.380358,31.993752 23.273789,32.075221 C 23.131712,32.100879 22.996581,32.124305 22.854484,32.153841 C 23.013963,31.985171 23.245854,31.929023 23.535855,31.839363 z "
       id="path2372"
       sodipodi:nodetypes="ccssssssssssscccscsssscccsccsssssssssssccccssssssssssssssssccccccc" />
    <path
       style="opacity:1;fill:#b3925d;fill-opacity:1;fill-rule:nonzero;stroke:none;stroke-width:0.2;stroke-linecap:round;stroke-linejoin:round;stroke-miterlimit:4;stroke-dasharray:none;stroke-opacity:1"
       d="M 31.539917,9.2937249 L 9.3953899,13.722621 L 9.3429768,13.722621 C 8.1831517,13.722621 7.411637,15.141267 7.6133452,16.893612 C 7.672177,17.404713 7.8153546,17.88136 8.0064433,18.308766 C 7.8824884,18.337773 6.8050381,18.595603 6.8009424,18.597037 C 5.9366828,18.899636 5.4024263,20.109225 5.569235,21.558377 C 5.762237,23.23508 6.818063,24.572128 7.9278237,24.572128 C 7.9692,24.572128 9.1329323,24.254343 9.8146945,24.074204 C 10.253532,25.393132 11.176505,26.354173 12.147077,26.354174 C 12.3182,26.354174 12.491593,26.331685 12.645001,26.275553 C 12.645001,26.275553 33.852316,20.012191 33.898506,20.012191 C 34.924946,20.012191 35.623202,18.758908 35.444692,17.20809 C 35.266181,15.657272 34.295989,14.403991 33.269549,14.403991 L 32.561973,14.587436 C 33.306826,14.292577 33.781479,13.226806 33.63644,11.966782 C 33.465315,10.480141 32.523886,9.2937251 31.539917,9.2937249 z "
       id="path3313" />
    <path
       id="path3679"
       d="M 29.598197,15.955245 L 28.664884,16.200854 L 27.584205,16.471024 L 26.552649,16.692074 C 26.847144,16.887193 27.120911,17.18743 27.338598,17.551701 L 28.345596,17.306094 C 28.621751,17.756058 28.81617,18.296477 28.885932,18.90255 C 28.94117,19.38243 28.913683,19.820161 28.812253,20.204277 L 29.942052,19.884986 C 30.033957,19.508402 30.068325,19.089259 30.015732,18.632381 C 29.944925,18.017235 29.737445,17.458741 29.450833,17.01136 L 30.408709,16.765753 C 30.185194,16.414191 29.919318,16.131931 29.62276,15.955245 C 29.616311,15.951404 29.604668,15.958987 29.598197,15.955245 z M 25.987749,16.839437 L 25.029873,17.085045 C 25.594094,17.481069 26.017344,18.248984 26.208799,19.148158 C 25.948453,18.861582 25.528832,18.363389 25.226363,18.141164 C 24.397878,17.532482 23.795097,17.457188 23.752708,17.428895 L 22.622909,17.699067 C 23.293,18.163936 23.820743,19.112897 23.949195,20.228839 C 24.004302,20.707562 23.9885,21.155407 23.900074,21.555126 L 25.054436,21.235835 C 25.147992,20.845973 25.182777,20.408968 25.128116,19.934108 C 25.098468,19.676528 25.053952,19.433 24.980751,19.197279 C 25.033927,19.241116 25.074101,19.270268 25.128116,19.320085 C 25.66513,19.81533 26.159088,20.548311 26.25792,20.695496 C 26.245809,20.758115 26.249011,20.832045 26.233357,20.891984 L 27.289476,20.59725 C 27.382356,20.21367 27.416912,19.787086 27.363157,19.320085 C 27.234597,18.203174 26.675617,17.261513 25.987749,16.839437 z M 22.033446,17.846431 L 18.5458,18.755187 C 18.85368,18.965016 19.12592,19.284008 19.356313,19.663936 L 20.387868,19.369207 C 20.682912,19.857154 20.902234,20.460647 20.977327,21.113029 C 21.029276,21.564333 21.007411,21.985111 20.928206,22.365634 L 22.254496,21.997221 C 22.338036,21.60994 22.3814,21.182427 22.328175,20.720056 C 22.255086,20.085086 22.047634,19.506779 21.763276,19.025356 L 22.843954,18.730622 C 22.617448,18.345726 22.342691,18.054366 22.033446,17.846431 z "
       style="opacity:0.35436892;color:#000000;fill:#590000;fill-opacity:1;fill-rule:evenodd;stroke:none;stroke-width:1px;stroke-linecap:butt;stroke-linejoin:miter;marker:none;marker-start:none;marker-mid:none;marker-end:none;stroke-miterlimit:4;stroke-dasharray:none;stroke-dashoffset:0;stroke-opacity:1;visibility:visible;display:inline;overflow:visible;enable-background:accumulate" />
    <path
       sodipodi:nodetypes="ccc"
       id="path2276"
       d="M 10.956528,1.0198748 L 10.956528,-1.7748336 L 10.956528,1.0198748 z "
       style="fill:#ffffff;fill-opacity:0.75688076;fill-rule:nonzero;stroke:none;stroke-width:0.5;stroke-linecap:round;stroke-linejoin:round;stroke-miterlimit:4;stroke-dasharray:none;stroke-dashoffset:4;stroke-opacity:1" />
    <g
       id="g7391"
       transform="matrix(0.8386093,0,0,0.8386093,1.9527326,20.510115)"
       style="fill:url(#linearGradient7402);fill-opacity:1">
      <path
         style="opacity:0.76699033;fill:url(#linearGradient2289);fill-opacity:1;fill-rule:nonzero;stroke:none;stroke-width:0.2;stroke-linecap:round;stroke-linejoin:round;stroke-miterlimit:4;stroke-dasharray:none;stroke-opacity:1"
         d="M 6.28125,-2.375 C 4.957915,-2.375 4.082354,-0.749386 4.3125,1.25 C 4.542645,3.249386 5.801666,4.84375 7.125,4.84375 C 8.448335,4.84375 9.323894,3.249386 9.09375,1.25 C 8.863605,-0.749386 7.604584,-2.375 6.28125,-2.375 z M 6.3125,-1.78125 C 7.409781,-1.78125 8.434168,-0.407848 8.625,1.25 C 8.815832,2.907848 8.097281,4.25 7,4.25 C 5.90272,4.25 4.847082,2.907848 4.65625,1.25 C 4.465417,-0.407848 5.215219,-1.78125 6.3125,-1.78125 z "
         id="path3373" />
      <path
         style="opacity:0.76699033;fill:url(#linearGradient2291);fill-opacity:1;fill-rule:nonzero;stroke:none;stroke-width:0.2;stroke-linecap:round;stroke-linejoin:round;stroke-miterlimit:4;stroke-dasharray:none;stroke-opacity:1"
         d="M 11.25,-0.90625 C 9.807267,-0.90625 8.842841,0.851468 9.09375,3.03125 C 9.34466,5.211032 10.713517,6.968751 12.15625,6.96875 C 13.598983,6.96875 14.56341,5.211032 14.3125,3.03125 C 14.06159,0.851468 12.692733,-0.906249 11.25,-0.90625 z M 11.28125,-0.1875 C 12.47803,-0.1875 13.604365,1.285572 13.8125,3.09375 C 14.020636,4.901928 13.22803,6.375 12.03125,6.375 C 10.83447,6.375 9.708135,4.901928 9.5,3.09375 C 9.291864,1.285572 10.08447,-0.1875 11.28125,-0.1875 z "
         id="path3375" />
      <path
         style="opacity:0.76699033;fill:url(#linearGradient2293);fill-opacity:1;fill-rule:nonzero;stroke:none;stroke-width:0.2;stroke-linecap:round;stroke-linejoin:round;stroke-miterlimit:4;stroke-dasharray:none;stroke-opacity:1"
         d="M 8.8125,-8.09375 C 7.429466,-8.09375 6.509472,-6.402084 6.75,-4.3125 C 6.990528,-2.222916 8.304465,-0.53125 9.6875,-0.53125 C 11.070534,-0.53125 11.990527,-2.222916 11.75,-4.3125 C 11.509472,-6.402084 10.195534,-8.09375 8.8125,-8.09375 z M 8.78125,-7.4375 C 9.938229,-7.4375 11.048786,-5.998046 11.25,-4.25 C 11.451214,-2.501955 10.65698,-1.09375 9.5,-1.09375 C 8.343021,-1.093751 7.263714,-2.501954 7.0625,-4.25 C 6.861286,-5.998046 7.62427,-7.4375 8.78125,-7.4375 z "
         id="path3377" />
    </g>
    <path
       id="path3379"
       d="M 9.3167703,14.272957 C 8.3465161,14.272957 7.7066715,15.480099 7.8754106,16.946026 C 8.0441505,18.411952 8.9492674,19.592884 9.9195207,19.592885 C 10.206978,19.592885 10.487382,19.489717 10.705718,19.304614 C 9.8438178,19.120811 9.0757196,18.031076 8.9236722,16.710166 C 8.8007203,15.64202 9.1244915,14.735487 9.6836619,14.325371 C 9.5651991,14.289976 9.4380525,14.272957 9.3167703,14.272957 z "
       style="opacity:0.76699033;fill:url(#linearGradient7373);fill-opacity:1;fill-rule:nonzero;stroke:none;stroke-width:0.2;stroke-linecap:round;stroke-linejoin:round;stroke-miterlimit:4;stroke-dasharray:none;stroke-opacity:1" />
    <path
       id="path3381"
       d="M 11.413294,20.352876 C 10.409663,20.352876 9.7449767,21.588207 9.9195207,23.104563 C 10.094065,24.620916 11.03862,25.856248 12.042252,25.856248 C 12.362097,25.856248 12.644921,25.70875 12.880861,25.489358 C 11.948537,25.368125 11.104894,24.235116 10.941576,22.816289 C 10.819354,21.754483 11.11238,20.825735 11.649153,20.379083 C 11.569847,20.363813 11.493585,20.352876 11.413294,20.352876 z "
       style="opacity:0.76699033;fill:url(#linearGradient7389);fill-opacity:1;fill-rule:nonzero;stroke:none;stroke-width:0.2;stroke-linecap:round;stroke-linejoin:round;stroke-miterlimit:4;stroke-dasharray:none;stroke-opacity:1" />
    <path
       id="path3383"
       d="M 7.2464536,19.016342 C 6.3262635,19.016342 5.6974735,20.168089 5.8575069,21.558377 C 6.0175405,22.948663 6.9028075,24.074205 7.8229975,24.074204 C 8.1297272,24.074204 8.3873983,23.925966 8.6091937,23.707312 C 7.8005353,23.519429 7.0748993,22.51176 6.9319751,21.270103 C 6.8220821,20.315409 7.0866759,19.486711 7.5609321,19.068754 C 7.4567542,19.039932 7.3528337,19.016342 7.2464536,19.016342 z "
       style="opacity:0.76699033;fill:url(#linearGradient7381);fill-opacity:1;fill-rule:nonzero;stroke:none;stroke-width:0.2;stroke-linecap:round;stroke-linejoin:round;stroke-miterlimit:4;stroke-dasharray:none;stroke-opacity:1" />
    <path
       style="opacity:0.5;fill:url(#linearGradient4429);fill-opacity:1;fill-rule:nonzero;stroke:none;stroke-width:0.2;stroke-linecap:round;stroke-linejoin:round;stroke-miterlimit:4;stroke-dasharray:none;stroke-opacity:1"
       d="M 31.539917,9.2937249 L 9.39539,13.722621 C 10.536648,13.763055 11.607609,15.166686 11.806392,16.893612 C 11.975683,18.364329 11.45826,19.573579 10.600891,19.93357 C 11.795173,19.689381 32.02259,14.666056 32.142667,14.666056 C 33.126636,14.666056 33.807566,13.453429 33.63644,11.966782 C 33.465315,10.480141 32.523886,9.2937251 31.539917,9.2937249 z M 7.6133453,16.893612 C 7.6637725,17.331699 7.7780347,17.745899 7.9278238,18.12532 C 7.7777412,17.745565 7.6637725,17.331699 7.6133453,16.893612 z M 7.9278238,18.12532 C 8.0747322,18.497445 8.2607491,18.837773 8.4781611,19.121168 C 8.2549384,18.833872 8.0779063,18.505073 7.9278238,18.12532 z M 9.2381508,19.802538 C 9.5077041,19.962917 9.7868034,20.064602 10.07676,20.064602 C 9.7868042,20.064602 9.5079976,19.963248 9.2381508,19.802538 z "
       id="path3405" />
    <path
       style="opacity:0.5;fill:url(#linearGradient4445);fill-opacity:1;fill-rule:nonzero;stroke:none;stroke-width:0.2;stroke-linecap:round;stroke-linejoin:round;stroke-miterlimit:4;stroke-dasharray:none;stroke-opacity:1"
       d="M 33.269549,14.403991 L 11.413294,19.750124 C 12.61354,19.771429 13.74644,21.237421 13.955329,23.052149 C 14.135984,24.621591 13.576236,25.934811 12.645001,26.275553 C 12.645001,26.275553 33.852316,20.012191 33.898506,20.012191 C 34.924946,20.012191 35.623202,18.758908 35.444692,17.20809 C 35.266181,15.657272 34.295989,14.403991 33.269549,14.403991 z M 9.8933142,24.336268 C 10.049427,24.731521 10.263804,25.086026 10.496065,25.38453 C 10.263207,25.084834 10.049875,24.732416 9.8933142,24.336268 z "
       id="path3415" />
    <path
       style="opacity:0.43689348;fill:url(#linearGradient4453);fill-opacity:1;fill-rule:nonzero;stroke:none;stroke-width:0.2;stroke-linecap:round;stroke-linejoin:round;stroke-miterlimit:4;stroke-dasharray:none;stroke-opacity:1"
       d="M 8.0326498,18.308766 C 7.9319236,18.332344 7.0599838,18.538889 7.0368013,18.544623 C 7.0990093,18.535548 7.1554301,18.518417 7.2202471,18.518417 C 7.6671923,18.518417 8.1015525,18.747507 8.478161,19.121168 C 8.2951186,18.885586 8.1681179,18.60858 8.0326498,18.308766 z M 8.7402264,19.409439 C 9.1670282,19.959842 9.4823344,20.720024 9.5788357,21.558377 C 9.5910995,21.664917 9.6001389,21.769493 9.6050423,21.872855 C 9.7390982,20.915026 10.164814,20.170709 10.784337,19.881157 L 10.784337,19.854952 C 10.569243,19.984664 10.334971,20.064602 10.07676,20.064602 C 9.601879,20.064602 9.1384895,19.811321 8.7402264,19.409439 z M 9.5526292,22.65905 C 9.4331324,23.491096 9.0696204,24.132651 8.5305741,24.414889 C 8.6795447,24.379499 9.4768448,24.162745 9.8146945,24.074204 C 9.707958,23.751359 9.6200182,23.409919 9.5788357,23.052149 C 9.5630379,22.914903 9.5571735,22.791931 9.5526292,22.65905 z "
       id="path3420" />
    <path
       id="path3515"
       d="M 9.6836619,14.325371 C 9.1244916,14.735487 8.8007204,15.64202 8.9236722,16.710166 C 9.0757197,18.031076 9.8438179,19.120811 10.705717,19.304614 C 11.224328,18.864936 11.505834,17.977641 11.387088,16.946026 C 11.239439,15.663338 10.5129,14.573137 9.6836619,14.325371 z M 10.600891,16.159828 C 10.805931,16.159826 10.984536,16.400378 11.020196,16.710166 C 11.055855,17.019956 10.936963,17.260504 10.731923,17.260504 C 10.526884,17.260501 10.322072,17.019954 10.286412,16.710166 C 10.250753,16.400379 10.395851,16.159828 10.600891,16.159828 z M 10.338825,19.514267 C 10.205501,19.563196 10.06325,19.592885 9.9195208,19.592885 C 10.061016,19.592885 10.21248,19.562038 10.338825,19.514267 z "
       style="opacity:0.75;fill:url(#linearGradient3225);fill-opacity:1;fill-rule:nonzero;stroke:none;stroke-width:0.2;stroke-linecap:round;stroke-linejoin:round;stroke-miterlimit:4;stroke-dasharray:none;stroke-opacity:1" />
    <path
       id="path3517"
       d="M 7.5609322,19.068754 C 7.086676,19.486711 6.8220822,20.315409 6.9319752,21.270103 C 7.0748994,22.51176 7.8005354,23.519429 8.6091938,23.707312 C 9.0527846,23.270003 9.2924264,22.485234 9.1857377,21.558377 C 9.0442056,20.328816 8.3578919,19.289243 7.5609322,19.068754 z M 8.6091938,23.707312 C 8.4982961,23.81664 8.3727856,23.904986 8.2423022,23.969378 C 8.3766265,23.910703 8.4982961,23.816641 8.6091938,23.707312 z M 8.5305742,20.772179 C 8.7097095,20.772176 8.8663122,20.999455 8.8974657,21.270103 C 8.92862,21.540753 8.8145348,21.768027 8.6354003,21.768027 C 8.4562658,21.768031 8.2996623,21.540753 8.2685088,21.270103 C 8.2373544,20.999455 8.3514397,20.772179 8.5305742,20.772179 z M 6.4078444,23.104563 C 6.4592428,23.184509 6.5086293,23.268828 6.5650837,23.34042 C 6.509104,23.268915 6.4588,23.184227 6.4078444,23.104563 z "
       style="opacity:0.75;fill:url(#linearGradient3222);fill-opacity:1;fill-rule:nonzero;stroke:none;stroke-width:0.2;stroke-linecap:round;stroke-linejoin:round;stroke-miterlimit:4;stroke-dasharray:none;stroke-opacity:1" />
    <path
       id="path3519"
       d="M 11.649152,20.379083 C 11.11238,20.825735 10.819354,21.754483 10.941576,22.816289 C 11.104894,24.235116 11.948537,25.368125 12.88086,25.489358 C 13.385264,25.020326 13.654942,24.137671 13.536023,23.104563 C 13.375442,21.709515 12.561188,20.554671 11.649152,20.379083 z M 12.88086,25.489358 C 12.762891,25.599054 12.627942,25.687124 12.487761,25.751422 C 12.630795,25.692712 12.761439,25.600403 12.88086,25.489358 z M 12.671207,22.21354 C 12.885651,22.213542 13.079424,22.492296 13.116719,22.816289 C 13.154013,23.140287 13.016683,23.392834 12.802239,23.392834 C 12.587798,23.392836 12.394024,23.140285 12.356729,22.816289 C 12.319434,22.492297 12.456766,22.21354 12.671207,22.21354 z "
       style="opacity:0.75;fill:url(#linearGradient3219);fill-opacity:1;fill-rule:nonzero;stroke:none;stroke-width:0.2;stroke-linecap:round;stroke-linejoin:round;stroke-miterlimit:4;stroke-dasharray:none;stroke-opacity:1" />
    <g
       id="g7708"
       transform="matrix(0.8386093,0,0,0.8386093,-31.591638,-46.578628)">
      <path
         sodipodi:type="arc"
         style="opacity:1;fill:#000000;fill-opacity:1;fill-rule:nonzero;stroke:none;stroke-width:0.2;stroke-linecap:round;stroke-linejoin:round;stroke-miterlimit:4;stroke-dasharray:none;stroke-opacity:1"
         id="path6733"
         sodipodi:cx="11.329201"
         sodipodi:cy="15.789281"
         sodipodi:rx="2.5054963"
         sodipodi:ry="3.7854781"
         d="M 13.834697 15.789281 A 2.5054963 3.7854781 0 1 1  8.8237045,15.789281 A 2.5054963 3.7854781 0 1 1  13.834697 15.789281 z"
         transform="matrix(0.176785,0,2.0349345e-2,0.176785,48.059853,72.677062)" />
      <path
         transform="matrix(0.1848922,0,2.1282545e-2,0.1848922,50.430785,79.820029)"
         d="M 13.834697 15.789281 A 2.5054963 3.7854781 0 1 1  8.8237045,15.789281 A 2.5054963 3.7854781 0 1 1  13.834697 15.789281 z"
         sodipodi:ry="3.7854781"
         sodipodi:rx="2.5054963"
         sodipodi:cy="15.789281"
         sodipodi:cx="11.329201"
         id="path6735"
         style="opacity:1;fill:#000000;fill-opacity:1;fill-rule:nonzero;stroke:none;stroke-width:0.2;stroke-linecap:round;stroke-linejoin:round;stroke-miterlimit:4;stroke-dasharray:none;stroke-opacity:1"
         sodipodi:type="arc" />
      <path
         transform="matrix(0.1544499,0,1.7778415e-2,0.1544499,45.875969,78.469482)"
         d="M 13.834697 15.789281 A 2.5054963 3.7854781 0 1 1  8.8237045,15.789281 A 2.5054963 3.7854781 0 1 1  13.834697 15.789281 z"
         sodipodi:ry="3.7854781"
         sodipodi:rx="2.5054963"
         sodipodi:cy="15.789281"
         sodipodi:cx="11.329201"
         id="path6737"
         style="opacity:1;fill:#000000;fill-opacity:1;fill-rule:nonzero;stroke:none;stroke-width:0.2;stroke-linecap:round;stroke-linejoin:round;stroke-miterlimit:4;stroke-dasharray:none;stroke-opacity:1"
         sodipodi:type="arc" />
    </g>
    <path
       sodipodi:nodetypes="cccssssccccsssccsssssssssssccccssssssssscssccsssccccssscccsssc"
       id="path6703"
       d="M 8.4023507,20.789959 C 8.3599071,20.804293 8.3231701,20.831847 8.2975246,20.868577 L 7.5637414,21.733393 C 7.5525955,21.749553 7.5437741,21.767196 7.5375349,21.785807 C 7.3970033,22.061194 7.1171979,22.25091 6.908578,22.624416 C 6.6964701,23.033661 6.5050098,23.460898 6.332034,23.882331 C 6.3290453,23.889612 6.3350119,23.901257 6.332034,23.908536 C 6.0037277,24.551601 5.6152319,25.178276 5.2575658,25.821613 C 4.8872512,26.426106 4.6068077,27.054032 4.4189565,27.734691 C 4.2668547,28.339306 4.4219866,28.914081 4.4975763,29.438116 C 4.5872035,30.371269 4.9707649,31.18046 5.4148051,31.953944 C 6.0113574,32.94771 6.8885612,33.674224 7.7733938,34.338739 C 8.5187103,34.896459 9.3408358,35.278134 10.236809,35.491828 C 10.245535,35.492375 10.254289,35.492375 10.263015,35.491828 C 11.60422,35.712733 12.971571,35.661531 14.298822,35.518034 C 15.966794,35.273924 17.614551,34.892567 19.199447,34.312534 C 20.032364,34.040054 20.794959,33.642999 21.584242,33.34289 C 21.592968,33.343437 21.601721,33.343437 21.610448,33.34289 C 21.658896,33.317625 21.848081,33.262169 22.055959,33.211858 C 22.255206,33.163637 22.479491,33.112791 22.632503,33.080826 C 22.640958,33.079658 22.650253,33.082001 22.658709,33.080826 C 23.267378,32.996182 23.891323,32.880669 24.493168,32.766348 C 24.509892,32.76317 24.528871,32.76954 24.54558,32.766348 C 24.564192,32.760108 24.581836,32.751287 24.597993,32.740141 C 24.630798,32.721487 24.657959,32.694325 24.676613,32.66152 C 24.690492,32.637319 24.699402,32.61059 24.70282,32.582902 C 24.709262,32.5124 24.679695,32.44341 24.6242,32.399456 C 24.58789,32.367368 24.541589,32.348847 24.493168,32.347042 L 24.440754,32.347042 C 24.432252,32.348667 24.423054,32.345422 24.414547,32.347042 L 24.047656,32.373249 C 24.043539,32.367006 24.047665,32.34705 24.047656,32.347042 C 24.047616,32.347007 23.995311,32.320865 23.995243,32.320835 C 23.995105,32.320774 23.943083,32.320881 23.94283,32.320835 C 23.942324,32.320743 23.923089,32.294832 23.916623,32.294629 C 23.910158,32.294426 23.894373,32.294542 23.890416,32.294629 C 23.882504,32.294802 23.870833,32.294194 23.86421,32.294629 C 23.850965,32.295499 23.856625,32.319072 23.838004,32.320835 C 23.831797,32.321424 23.818832,32.320138 23.811798,32.320835 C 23.776621,32.324326 23.738746,32.314411 23.680765,32.320835 C 23.541609,32.336252 23.317734,32.365166 23.025601,32.399456 C 22.1309,32.553529 21.213539,32.676329 20.326327,33.028412 C 19.528132,33.339596 18.763676,33.667735 17.967739,33.919435 C 17.958247,33.927379 17.949477,33.93615 17.941532,33.945642 C 16.801886,34.372393 16.023635,34.606313 15.216052,34.758044 C 13.945766,34.903107 10.581756,35.111418 10.341635,35.072522 C 10.333653,35.070618 10.323395,35.074451 10.315428,35.072522 C 9.4774428,34.869699 8.7265915,34.541434 8.0354592,34.02426 C 7.1630111,33.369046 6.3313288,32.659898 5.7816968,31.744293 C 5.3491353,30.990801 4.9978,30.228188 4.9168808,29.385703 C 4.8370864,28.832514 4.7187327,28.314653 4.8382613,27.839518 C 5.0156062,27.196926 5.2730199,26.604945 5.6244575,26.031266 C 5.981456,25.389128 6.3594029,24.75937 6.6989256,24.091981 C 6.6994724,24.083255 6.6994724,24.074503 6.6989256,24.065777 C 6.8705864,23.646126 7.0669023,23.236484 7.2754695,22.834069 C 7.4230958,22.569763 7.6826361,22.355433 7.8782199,21.99546 L 7.9044265,21.969253 L 8.5071769,21.235469 C 8.518161,21.244474 8.5180092,21.240377 8.5333834,21.261676 C 8.5733566,21.317053 8.9649687,21.151741 8.8740684,21.025816 C 8.7831682,20.899892 8.6329977,20.789956 8.4547638,20.789959 C 8.4373618,20.787765 8.4197527,20.787765 8.4023507,20.789959 z "
       style="fill:#00892c;fill-opacity:1;fill-rule:nonzero;stroke:none;stroke-width:0.5;stroke-linecap:round;stroke-linejoin:round;stroke-miterlimit:4;stroke-dasharray:none;stroke-opacity:1" />
    <path
       sodipodi:nodetypes="cssssssscccccccssscccccssscsss"
       id="path6705"
       d="M 8.4224774,21.298458 C 8.4339671,21.399845 8.4187682,21.493967 8.3962708,21.53802 C 8.3737734,21.582074 8.3709666,21.564638 8.3700643,21.564638 C 8.3526623,21.562412 8.3350532,21.562412 8.3176512,21.564638 C 8.2612857,21.580056 8.2138003,21.618642 8.1866185,21.671111 C 8.0739388,21.872187 7.9574526,22.079151 7.8459335,22.283322 C 7.6119816,22.695772 7.4455101,23.119668 7.2693896,23.534366 C 7.2663043,23.541631 7.2724815,23.553723 7.2693896,23.560983 C 6.9456931,24.225124 6.514736,24.858793 6.1425083,25.53071 C 5.7879301,26.137332 5.5247217,26.797693 5.3563121,27.473818 C 5.2352748,28.0523 5.3118029,28.616021 5.3825187,29.150748 C 5.4875343,30.072085 5.8421352,30.899917 6.2735411,31.679451 C 6.8601692,32.693351 7.7333376,33.406221 8.6321296,34.048448 C 9.2844898,34.542498 10.033125,34.827141 10.807273,35.033311 C 11.552637,35.011183 12.855913,34.928055 14.083092,34.820367 C 13.128855,34.887828 12.164606,34.890087 11.226577,34.740514 C 11.218615,34.738761 11.208324,34.742293 11.200371,34.740514 C 10.364564,34.553412 9.5802093,34.221952 8.8941951,33.702414 C 8.8947418,33.69355 8.8947418,33.68466 8.8941951,33.675796 C 8.0075712,33.042264 7.1765815,32.393161 6.6404326,31.466508 C 6.2232396,30.712656 5.8977451,29.939065 5.8018233,29.097512 C 5.7313056,28.564276 5.6734247,28.068705 5.7756168,27.58029 C 5.9348436,26.94103 6.1774607,26.311545 6.5093999,25.743653 C 6.8744734,25.084652 7.294537,24.453325 7.6362811,23.747307 C 7.6368279,23.738445 7.6368279,23.729553 7.6362811,23.720691 C 7.8187877,23.292078 7.9940528,22.881955 8.212825,22.496266 C 8.3225562,22.295368 8.4405754,22.085584 8.55351,21.884052 C 8.6317003,21.834508 8.7235406,21.801934 8.7631624,21.724347 C 8.8347025,21.584255 8.8614457,21.418734 8.841782,21.245222 C 8.8224042,21.074233 8.4107016,21.194551 8.4224774,21.298458 z "
       style="fill:#e3ad00;fill-opacity:1;fill-rule:nonzero;stroke:none;stroke-width:0.5;stroke-linecap:round;stroke-linejoin:round;stroke-miterlimit:4;stroke-dasharray:none;stroke-opacity:1" />
    <path
       id="path6707"
       d="M 8.4519545,21.086657 C 8.4118899,21.100188 8.3713398,21.130609 8.3471283,21.165278 L 7.6395517,21.97768 C 7.6290213,21.99294 7.6192322,22.012515 7.6133452,22.030094 C 7.4806621,22.290083 7.2337604,22.463651 7.0368013,22.816289 C 6.8365439,23.202664 6.6497789,23.623907 6.4864639,24.02179 C 6.4836496,24.028674 6.4892783,24.041132 6.4864639,24.047997 C 6.1765089,24.655131 5.8020866,25.222656 5.4644088,25.830043 C 5.114786,26.400745 4.8555727,26.995672 4.6782126,27.638293 C 4.5346143,28.20912 4.6854691,28.768348 4.7568324,29.263099 C 4.8414522,30.14411 5.2024264,30.891424 5.6216481,31.621688 C 5.9335203,32.141215 6.3441411,32.586725 6.7747359,32.984428 C 6.3890553,32.610789 6.0537039,32.210523 5.7788874,31.75272 C 5.3463268,30.999229 4.9949907,30.236615 4.9140715,29.394132 C 4.8342778,28.840939 4.7159233,28.323081 4.8354519,27.847946 C 5.0127976,27.205351 5.2702105,26.613373 5.6216481,26.039693 C 5.9786474,25.397556 6.3565936,24.7678 6.6961163,24.100411 C 6.6966639,24.091683 6.696663,24.08293 6.6961163,24.074204 C 6.8677779,23.654554 7.064093,23.244911 7.2726602,22.842496 C 7.4202873,22.578192 7.6798268,22.363863 7.8754106,22.003887 L 7.9016171,21.97768 L 8.5043675,21.243897 C 8.5153525,21.252903 8.5151999,21.248807 8.5305741,21.270103 C 8.5527545,21.300831 8.6702285,21.252222 8.766433,21.191485 C 8.6896566,21.133193 8.5820932,21.086657 8.478161,21.086657 C 8.4617326,21.08458 8.4683878,21.08458 8.4519545,21.086657 z M 6.7747359,32.984428 C 7.1036183,33.288187 7.4436803,33.556496 7.796791,33.823037 C 7.4486675,33.553768 7.0861258,33.286096 6.7747359,32.984428 z M 23.677956,32.329265 C 23.538801,32.34468 23.314924,32.373595 23.022792,32.407883 C 22.128092,32.561955 21.21073,32.684759 20.323518,33.036841 C 19.525324,33.348021 18.760867,33.676163 17.964929,33.927862 C 17.955438,33.935807 17.946668,33.944577 17.938722,33.954069 C 16.799078,34.380818 16.020827,34.61474 15.213242,34.766472 C 14.113926,34.89201 11.742887,35.035684 10.889163,35.054745 C 11.932316,35.154123 12.981013,35.113331 14.007741,35.002331 C 15.582499,34.771857 17.149975,34.396862 18.646299,33.849244 C 19.432676,33.591987 20.128676,33.215343 20.873855,32.932014 C 20.882093,32.932523 20.891825,32.932523 20.900062,32.932014 C 20.945805,32.908158 21.123111,32.87468 21.319367,32.827189 C 21.507483,32.78166 21.725246,32.726335 21.869703,32.696155 C 21.877682,32.695048 21.887924,32.697268 21.89591,32.696155 C 22.470568,32.616238 23.057335,32.515814 23.625542,32.407883 C 23.641335,32.404884 23.662177,32.410901 23.677956,32.407883 C 23.695522,32.401998 23.715116,32.392207 23.730368,32.381676 C 23.751022,32.369937 23.767672,32.347341 23.782781,32.329265 C 23.75322,32.328719 23.72434,32.324124 23.677956,32.329265 z "
       style="opacity:0.50485439;fill:#2e3436;fill-opacity:1;fill-rule:nonzero;stroke:none;stroke-width:0.5;stroke-linecap:round;stroke-linejoin:round;stroke-miterlimit:4;stroke-dasharray:none;stroke-opacity:1" />
    <path
       style="opacity:0.5533981;fill:#2e3436;fill-opacity:1;fill-rule:nonzero;stroke:none;stroke-width:0.5;stroke-linecap:round;stroke-linejoin:round;stroke-miterlimit:4;stroke-dasharray:none;stroke-opacity:1"
       d="M 8.7402264,21.401138 C 8.6415397,21.421747 8.5511871,21.456603 8.5567806,21.505963 C 8.5676951,21.602284 8.5519486,21.699968 8.5305741,21.741823 C 8.5092005,21.783678 8.5052246,21.768027 8.5043675,21.768027 C 8.4878344,21.765916 8.4684885,21.765917 8.4519545,21.768027 C 8.3984043,21.782679 8.3729516,21.823007 8.3471283,21.872855 C 8.2400807,22.063888 8.1123924,22.281635 8.0064433,22.475604 C 7.7841741,22.867458 7.6234337,23.234709 7.4561059,23.628693 C 7.45318,23.635588 7.4590469,23.648001 7.4561059,23.654898 C 7.1485845,24.28587 6.7614825,24.903416 6.4078443,25.541769 C 6.07098,26.118087 5.8078562,26.760078 5.6478547,27.402434 C 5.5328646,27.952019 5.6068776,28.493014 5.6740612,29.001033 C 5.7738323,29.876353 6.1028127,30.645231 6.5126705,31.385828 C 7.070001,32.34909 7.9125409,33.003239 8.766433,33.613384 C 8.8081487,33.644977 8.8549414,33.662176 8.8974656,33.692005 C 8.8980116,33.68314 8.8980124,33.67466 8.8974656,33.665798 C 8.0108409,33.032263 7.1798521,32.391101 6.6437032,31.464449 C 6.2265094,30.710596 5.9010157,29.947414 5.8050939,29.105859 C 5.7345752,28.572625 5.6766952,28.074295 5.7788874,27.585879 C 5.9381132,26.946619 6.1807313,26.319315 6.5126705,25.751422 C 6.8777431,25.09242 7.2978075,24.465744 7.6395517,23.759726 C 7.6400977,23.750861 7.6400985,23.742381 7.6395517,23.733519 C 7.8220574,23.304906 7.9973234,22.8875 8.2160956,22.501811 C 8.325826,22.300915 8.443846,22.074386 8.5567806,21.872855 C 8.63497,21.823309 8.7268112,21.793203 8.766433,21.715616 C 8.8141255,21.622222 8.8376552,21.511969 8.8450526,21.401138 C 8.814923,21.399399 8.7731217,21.394265 8.7402264,21.401138 z M 24.85725,31.543067 C 24.280306,31.576734 23.750779,31.623344 23.573129,31.6741 C 23.045542,31.824839 23.198544,31.716229 22.944172,31.857546 C 22.6898,31.998864 22.57728,32.224437 22.57728,32.224437 L 21.738671,32.643743 C 21.738671,32.643743 21.523589,32.841381 20.637997,33.246492 C 19.752405,33.651603 18.502267,34.193177 18.200789,34.268547 C 17.899311,34.343918 17.580798,34.59072 16.497364,34.845092 C 15.413927,35.099466 15.320206,35.224655 13.850502,35.290602 C 12.595582,35.346915 11.345809,35.186367 10.941576,35.133363 C 11.351143,35.205847 12.112461,35.339438 13.064307,35.39543 C 13.952679,35.447685 14.673318,35.423848 15.134624,35.39543 C 16.518476,35.152445 18.583021,34.647248 19.904214,34.163722 C 20.737132,33.891242 21.971444,33.153504 22.760726,32.853395 C 22.769454,32.85394 22.778207,32.853941 22.786933,32.853395 C 22.835382,32.828127 23.024567,32.772672 23.232444,32.722361 C 23.431693,32.67414 23.655977,32.623295 23.808988,32.591329 C 23.817445,32.590159 23.826737,32.592506 23.835195,32.591329 C 24.443865,32.506683 25.067808,32.391172 25.669652,32.276851 C 25.686378,32.273673 25.705356,32.280043 25.722066,32.276851 C 25.740679,32.270609 25.75832,32.26179 25.774478,32.250644 C 25.807284,32.231989 25.834444,32.204828 25.853098,32.172025 C 25.866979,32.14782 25.875886,32.121095 25.879305,32.093405 C 25.885749,32.022904 25.85618,31.953913 25.800685,31.909959 C 25.764377,31.877871 25.718075,31.859352 25.669652,31.857546 L 25.617239,31.857546 C 25.608739,31.859168 25.599539,31.855925 25.591033,31.857546 L 25.224141,31.883752 C 25.220026,31.877509 25.224149,31.857553 25.224141,31.857546 C 25.224102,31.857511 25.171797,31.83137 25.171728,31.83134 C 25.171593,31.831277 25.119567,31.831386 25.119315,31.83134 C 25.118811,31.831246 25.099574,31.805337 25.093108,31.805134 C 25.086644,31.804929 25.070859,31.805045 25.066902,31.805134 C 25.05899,31.805306 25.047318,31.804699 25.040696,31.805134 C 25.027452,31.806 25.03311,31.829577 25.014489,31.83134 C 25.008283,31.831926 24.995318,31.830641 24.988282,31.83134 C 24.953108,31.834829 24.915231,31.824917 24.85725,31.83134 C 24.751677,31.843034 24.555238,31.860066 24.359326,31.883752 C 24.463286,31.857539 24.573678,31.837513 24.700011,31.805134 C 24.729862,31.793869 24.756753,31.775945 24.778629,31.75272 C 24.834123,31.708764 24.863693,31.639774 24.85725,31.569274 C 24.856224,31.560967 24.85925,31.551159 24.85725,31.543067 z M 23.546922,31.83134 L 23.625542,31.83134 C 23.518422,31.920991 23.391425,31.985728 23.284857,32.067198 C 23.142781,32.092855 23.007649,32.116281 22.865552,32.145819 C 23.025032,31.977149 23.256922,31.921001 23.546922,31.83134 z "
       id="path6709" />
    <path
       sodipodi:nodetypes="cccccccsccccccsssssssssccsscsscccccsccssc"
       id="path6711"
       d="M 12.656701,22.231317 C 12.604687,22.240108 12.557901,22.268182 12.525668,22.309938 L 11.922917,23.174754 L 11.949124,23.174754 C 11.3628,23.895052 10.669084,24.585478 10.036045,25.297482 C 9.3006799,26.144087 8.7576762,27.074174 8.2540008,28.049169 C 7.7216574,28.994991 7.4779148,30.022173 7.3367718,31.062923 C 7.1725109,32.046944 7.3498365,32.847811 7.9133157,33.657369 C 7.9220423,33.657916 7.9307957,33.657916 7.9395223,33.657369 C 8.678119,34.563352 9.6207049,35.171593 10.717416,35.518034 C 12.157238,35.870022 13.646352,35.866859 15.093909,35.753892 C 17.148537,35.510052 19.103107,34.848983 21.016587,34.1815 C 21.017134,34.172773 21.017134,34.164021 21.016587,34.155294 C 22.522697,33.581285 24.005805,33.026519 25.524112,32.504281 C 25.524658,32.495555 25.524658,32.486802 25.524112,32.478074 C 25.63485,32.436604 25.737653,32.38738 25.83859,32.347042 C 25.863103,32.337247 25.89381,32.329598 25.917209,32.320835 C 25.925936,32.321382 25.93469,32.321382 25.943416,32.320835 C 25.995074,32.293654 26.033063,32.246168 26.048242,32.189803 C 26.053199,32.163831 26.053199,32.137155 26.048242,32.111184 C 26.044825,32.083495 26.035914,32.056766 26.022036,32.032564 C 26.003381,31.999759 25.97622,31.972599 25.943416,31.953944 C 25.919214,31.940066 25.892485,31.931155 25.864797,31.927738 C 25.85607,31.927192 25.847317,31.927192 25.83859,31.927738 L 24.737915,31.98015 C 24.710226,31.983569 24.683498,31.992478 24.659296,32.006357 C 24.553416,32.048118 24.424185,32.085415 24.292405,32.137389 C 22.797522,32.681284 21.342564,33.267584 19.863499,33.814609 C 18.431019,34.310711 16.955824,34.841111 16.037344,35.02011 C 16.028561,35.020863 16.019923,35.019366 16.011137,35.02011 C 14.609957,35.138566 11.078761,35.161439 10.822242,35.098729 C 9.7977371,34.775096 8.9643791,34.228304 8.2802073,33.395304 C 7.7627359,32.651846 7.6054446,32.017712 7.7560765,31.115334 C 7.8935262,30.101819 8.1252834,29.139376 8.6208923,28.258822 C 9.1186354,27.29531 9.649315,26.366828 10.350524,25.559549 C 10.971687,24.860899 11.65811,24.180668 12.263602,23.436818 C 12.272328,23.437365 12.281083,23.437365 12.289809,23.436818 L 12.787733,22.729241 C 12.803916,22.743158 12.821444,22.729662 12.840147,22.755448 C 12.894916,22.830971 12.907177,22.231319 12.709113,22.231317 C 12.691712,22.229126 12.674102,22.229126 12.656701,22.231317 z "
       style="fill:#00892c;fill-opacity:1;fill-rule:nonzero;stroke:none;stroke-width:0.5;stroke-linecap:round;stroke-linejoin:round;stroke-miterlimit:4;stroke-dasharray:none;stroke-opacity:1" />
    <path
       sodipodi:nodetypes="csssssssssccscsscccccsccs"
       id="path6713"
       d="M 12.793352,22.886022 C 12.792806,22.894906 12.792806,22.903816 12.793352,22.912701 C 12.78386,22.92079 12.77509,22.929716 12.767146,22.939379 C 12.749683,22.997082 12.733036,23.024237 12.714732,23.046094 C 12.70558,23.057021 12.717516,23.070877 12.714732,23.072774 C 12.711949,23.07467 12.688738,23.072753 12.688525,23.072774 C 12.671364,23.07402 12.63671,23.072645 12.636112,23.072774 C 12.635663,23.07287 12.610268,23.099271 12.609907,23.099451 C 12.609544,23.099633 12.531548,23.125852 12.531286,23.126131 C 11.996589,23.695491 11.470232,24.286315 10.958893,24.886927 C 10.231218,25.744212 9.6702316,26.683867 9.1506418,27.661513 C 8.6352551,28.610939 8.3782919,29.652187 8.2596194,30.702886 C 8.1099931,31.657811 8.2728451,32.472387 8.8099568,33.264042 C 8.8186833,33.2646 8.8274368,33.2646 8.8361633,33.264042 C 9.5187099,34.10716 10.39391,34.654951 11.378199,34.99816 C 11.391765,34.998348 11.39053,34.997984 11.404406,34.99816 C 12.272342,35.009114 13.684348,34.99141 14.811256,34.944802 C 13.760754,34.972941 12.711759,34.903216 11.692677,34.651336 C 10.684731,34.33464 9.8490868,33.820591 9.1768484,32.997256 C 8.6892969,32.278647 8.5422006,31.628825 8.6789241,30.756243 C 8.7933749,29.74292 9.0365045,28.761074 9.5175334,27.874942 C 10.031164,26.908509 10.576408,25.974817 11.273372,25.153712 C 11.776474,24.562775 12.311765,24.014895 12.845764,23.446276 L 12.871971,23.446276 C 12.932527,23.415217 12.792806,22.877139 12.793352,22.886022 z "
       style="fill:#e3ad00;fill-opacity:1;fill-rule:nonzero;stroke:none;stroke-width:0.5;stroke-linecap:round;stroke-linejoin:round;stroke-miterlimit:4;stroke-dasharray:none;stroke-opacity:1" />
    <path
       id="path6715"
       d="M 12.80224,23.188538 C 12.793291,23.196163 12.783527,23.206106 12.776034,23.215216 C 12.759576,23.269616 12.740876,23.274649 12.723622,23.295253 C 12.714999,23.305556 12.726246,23.320141 12.723622,23.32193 C 12.720996,23.323721 12.697613,23.321913 12.697415,23.32193 C 12.681234,23.323108 12.64557,23.32181 12.645001,23.32193 C 12.644582,23.322019 12.619142,23.348436 12.618795,23.34861 C 12.618456,23.348785 12.540424,23.375024 12.540176,23.375287 C 12.036131,23.912003 11.554629,24.463195 11.072609,25.029369 C 10.38665,25.837514 9.8589832,26.748963 9.3691833,27.670562 C 8.8833434,28.565552 8.6424462,29.534724 8.5305741,30.525185 C 8.3895301,31.42537 8.5221804,32.180006 9.0284983,32.92627 C 9.0367276,32.926797 9.0464764,32.926795 9.0547049,32.92627 C 9.2490602,33.166349 9.4845416,33.374924 9.7098684,33.566558 C 9.5212442,33.397636 9.3537975,33.212139 9.1857376,33.006304 C 8.698187,32.287693 8.5510899,31.637873 8.6878133,30.765293 C 8.802265,29.751968 9.0453938,28.770122 9.5264226,27.883991 C 10.040054,26.917555 10.585297,25.983868 11.282261,25.162763 C 11.785365,24.571823 12.320654,24.023943 12.854654,23.455324 C 12.830908,23.322644 12.808748,23.210999 12.80224,23.188538 z M 9.7098684,33.566558 C 9.9033213,33.731083 10.099312,33.888052 10.312619,34.020096 C 10.103152,33.884587 9.8984926,33.735481 9.7098684,33.566558 z "
       style="opacity:0.46601945;fill:#2e3436;fill-opacity:1;fill-rule:nonzero;stroke:none;stroke-width:0.5;stroke-linecap:round;stroke-linejoin:round;stroke-miterlimit:4;stroke-dasharray:none;stroke-opacity:1" />
    <path
       id="path6717"
       d="M 12.80224,22.449397 C 12.752122,22.457863 12.702271,22.487778 12.671208,22.528018 L 12.094664,23.34042 L 12.12087,23.34042 C 11.555861,24.034538 10.896446,24.698404 10.286412,25.38453 C 9.5777715,26.200372 9.0421535,27.118038 8.5567806,28.057599 C 8.0437882,28.969047 7.8017689,29.937395 7.6657583,30.940318 C 7.5074666,31.888579 7.6992993,32.676013 8.2423021,33.456145 C 8.2507126,33.456674 8.2600991,33.456675 8.2685087,33.456145 C 8.980259,34.329202 9.8847235,34.904337 10.941576,35.23819 C 12.329071,35.577386 13.765885,35.582911 15.16083,35.474048 C 17.140791,35.239068 19.003711,34.597295 20.847648,33.954069 C 20.848181,33.945662 20.84818,33.936273 20.847648,33.927862 C 22.299024,33.374717 23.734808,32.832519 25.197935,32.329265 C 25.198466,32.320855 25.198467,32.311466 25.197935,32.303058 C 25.304649,32.263094 25.415144,32.237105 25.512413,32.198231 C 25.536037,32.188791 25.568479,32.180471 25.591033,32.172025 C 25.599442,32.172555 25.60883,32.172556 25.617239,32.172025 C 25.667025,32.14583 25.681231,32.095313 25.695859,32.040991 C 25.700636,32.015965 25.700635,31.9874 25.695859,31.962373 C 25.69487,31.954366 25.697786,31.943964 25.695859,31.936166 L 24.726217,31.98858 C 24.698528,31.991995 24.671799,32.000907 24.647597,32.014785 C 24.541716,32.056545 24.412486,32.093842 24.280705,32.145819 C 22.785822,32.68971 21.330866,33.276013 19.8518,33.823037 C 18.419321,34.319138 16.944126,34.84954 16.025645,35.028538 C 16.016863,35.02929 16.008223,35.027795 15.99944,35.028538 C 14.598259,35.146992 11.067062,35.169868 10.810543,35.107157 C 9.7860384,34.783523 8.9526806,34.236731 8.2685087,33.403731 C 7.7510373,32.660272 7.593746,32.026139 7.7443779,31.123764 C 7.8818276,30.110245 8.1135849,29.147806 8.6091937,28.267249 C 9.1069368,27.303738 9.6376163,26.375255 10.338825,25.567976 C 10.959988,24.869327 11.646411,24.189097 12.251904,23.445248 C 12.260631,23.445794 12.269383,23.445794 12.278109,23.445248 L 12.776034,22.737671 C 12.792216,22.751587 12.809746,22.738089 12.828447,22.763878 C 12.861068,22.808858 12.887647,22.614089 12.854654,22.449397 C 12.837888,22.44728 12.81901,22.447281 12.80224,22.449397 z "
       style="opacity:0.50970878;fill:#2e3436;fill-opacity:1;fill-rule:nonzero;stroke:none;stroke-width:0.5;stroke-linecap:round;stroke-linejoin:round;stroke-miterlimit:4;stroke-dasharray:none;stroke-opacity:1" />
    <path
       sodipodi:nodetypes="cccsssssssccsscsscssssccsccccsssccsc"
       id="path6697"
       d="M 10.583112,16.704954 L 10.556906,16.786185 L 10.556906,16.813261 C 10.528605,16.853833 10.47882,16.880977 10.452079,16.921569 C 10.375782,17.037395 10.296533,17.177734 10.216221,17.300645 C 9.919161,17.792242 9.7129175,18.326644 9.5086441,18.844021 C 9.4999175,18.843455 9.4911642,18.843455 9.4824376,18.844021 C 9.3775921,19.160231 9.2767501,19.487778 9.1417526,19.791708 C 9.133026,19.791143 9.1242726,19.791143 9.115546,19.791708 C 8.9757079,20.192396 9.0211597,20.611049 9.0107198,20.95601 C 8.9883282,21.706837 8.9588435,22.444937 8.9583067,23.20338 C 8.9274434,24.326558 8.9382849,25.435378 9.0893395,26.560901 C 9.2078542,27.241761 9.388406,27.939642 9.6396768,28.591659 C 9.9515849,29.395329 10.443864,30.086173 10.950005,30.730724 C 11.496391,31.429473 12.168585,31.9553 12.863081,32.436561 C 13.623888,33.00543 14.477943,33.199399 15.352704,33.357171 C 14.477943,33.199399 17.548417,33.182035 18.576108,33.19471 C 17.548417,33.182035 16.522509,33.124762 15.509943,32.978097 C 14.616889,32.823818 13.814464,32.619574 13.098941,32.084562 C 13.090997,32.074755 13.082226,32.065696 13.072734,32.057485 C 12.39047,31.584702 11.769412,31.105689 11.264484,30.459957 C 10.766498,29.82579 10.291874,29.164323 10.006568,28.429197 C 9.7692336,27.813345 9.6237558,27.168058 9.5086441,26.506748 C 9.3623429,25.416639 9.3470667,24.314974 9.3776114,23.20338 C 9.3781397,22.4564 9.4075472,21.70973 9.4300245,20.95601 C 9.4414002,20.580113 9.4349672,20.24037 9.5348507,19.954169 L 9.5086441,19.954169 C 9.6493041,19.63749 9.7923012,19.336552 9.9017422,19.006481 L 9.8755357,19.006481 C 10.077991,18.493709 10.309549,17.969972 10.583112,17.517259 C 10.658562,17.401793 10.738365,17.314704 10.818971,17.192338 C 10.860607,17.129129 10.88122,17.060445 10.923798,17.0028 C 10.947023,16.980197 10.964949,16.952414 10.97621,16.921569 L 11.002417,16.786185 C 11.002964,16.77717 11.002964,16.768125 11.002417,16.759108 C 11.017751,16.663094 10.589934,16.662242 10.583112,16.704954 z "
       style="fill:#e3ad00;fill-opacity:1;fill-rule:nonzero;stroke:none;stroke-width:0.5;stroke-linecap:round;stroke-linejoin:round;stroke-miterlimit:4;stroke-dasharray:none;stroke-opacity:1" />
    <path
       sodipodi:nodetypes="ccccsssscccscccccsssssssccsssssssssscccssssssssssscssscscccccccccsssccccccssc"
       id="path6695"
       d="M 10.510573,16.177608 C 10.468129,16.191942 10.431392,16.219496 10.405746,16.256226 L 9.7243764,17.121042 C 9.5579576,17.34663 9.392947,17.613817 9.2526586,17.828619 C 8.9936004,18.315705 8.7830442,18.821627 8.5712886,19.322391 C 8.562562,19.321844 8.5538086,19.321844 8.5450821,19.322391 C 8.4362574,19.628007 8.3220279,19.941295 8.1781905,20.239621 C 8.1686982,20.247565 8.1599289,20.256336 8.1519839,20.265828 C 8.0502313,20.651521 8.0619894,21.038479 8.0471578,21.392708 C 8.0536503,22.12066 8.0715881,22.844989 8.0733643,23.567851 C 8.0648617,24.659045 8.0800321,25.748004 8.2306035,26.843668 C 8.3469992,27.492896 8.4411465,28.184371 8.7285278,28.835367 C 9.067689,29.60383 9.5495062,30.284972 10.038855,30.931889 C 10.591458,31.606053 11.252596,32.157558 11.951934,32.635314 L 11.951934,32.609108 L 11.97814,32.609108 C 12.780756,33.206217 13.722996,33.451738 14.651207,33.604957 C 15.663567,33.754281 16.677476,33.812267 17.691165,33.840815 C 17.700352,33.84161 17.708205,33.840077 17.717372,33.840815 C 18.597738,33.911769 19.386569,33.730027 20.206993,33.57875 C 20.234948,33.573482 20.339044,33.567438 20.416645,33.552543 C 20.448708,33.546284 20.513381,33.510952 20.573884,33.50013 C 20.591287,33.502323 20.608895,33.502323 20.626298,33.50013 C 20.662258,33.493741 20.68892,33.502995 20.704918,33.50013 C 20.7143,33.49826 20.721716,33.502026 20.731124,33.50013 C 20.731124,33.50013 20.75733,33.473924 20.75733,33.473924 C 21.186082,33.38641 21.643213,33.294916 21.884212,33.211858 C 21.884759,33.203132 21.884759,33.194378 21.884212,33.185651 C 22.242818,33.035401 22.51682,32.799966 22.775234,32.582902 C 22.784726,32.574956 22.793496,32.566187 22.80144,32.556695 C 22.940117,32.395609 23.196633,32.374695 23.509017,32.294629 C 23.53887,32.283368 23.565759,32.265442 23.587637,32.242217 C 23.643132,32.198261 23.6727,32.12927 23.666256,32.058771 C 23.662838,32.031081 23.653929,32.004354 23.64005,31.98015 C 23.621396,31.947348 23.594234,31.920185 23.561431,31.901532 C 23.545272,31.890386 23.527628,31.881565 23.509017,31.875325 C 23.491615,31.873133 23.474006,31.873133 23.456604,31.875325 L 23.404192,31.875325 L 22.303516,31.901532 C 22.286115,31.899338 22.268505,31.899338 22.251103,31.901532 C 21.970333,31.988338 21.618231,32.087253 21.360082,32.373249 C 21.350982,32.383329 21.34275,32.388857 21.333875,32.399456 C 21.098645,32.584408 20.853228,32.741727 20.600091,32.844966 C 20.584154,32.849814 20.588793,32.866675 20.573884,32.871173 C 20.404066,32.922428 20.286719,32.947311 20.206993,32.975999 C 20.142776,32.98799 20.015811,33.009861 19.918721,33.028412 C 19.910155,33.030049 19.900954,33.026758 19.892514,33.028412 C 19.790892,33.036082 19.619934,33.062641 19.39459,33.080826 C 19.157511,33.099958 18.896544,33.097668 18.818047,33.080826 C 18.800645,33.078633 18.783036,33.078633 18.765634,33.080826 C 17.737942,33.068558 14.667469,33.085365 15.54223,33.238065 C 15.26398,33.209618 14.980638,33.226512 14.70362,33.185651 C 13.787192,33.034378 12.933789,32.836971 12.213998,32.294629 C 12.214545,32.285902 12.214545,32.27715 12.213998,32.268423 C 11.531831,31.802394 10.868575,31.298404 10.353333,30.669824 C 9.8686692,30.0291 9.4117989,29.394972 9.0954193,28.678128 C 8.8406902,28.101099 8.7689924,27.455479 8.6499082,26.791257 C 8.5038836,25.728678 8.4842183,24.652401 8.492669,23.567851 C 8.4908777,22.838763 8.4729147,22.116232 8.4664624,21.392708 C 8.4818727,21.024677 8.4882872,20.685273 8.5712886,20.370653 C 8.7125338,20.076368 8.85207,19.795053 8.9643867,19.47963 L 8.9381802,19.47963 C 9.1483272,18.98267 9.3700773,18.507334 9.6195502,18.038272 C 9.7682952,17.810518 9.8918751,17.582345 10.038855,17.383109 L 10.615399,16.649325 C 10.631929,16.660816 10.646969,16.647961 10.667812,16.675532 C 10.715181,16.738189 11.110605,16.54853 11.008497,16.413465 C 10.906389,16.278403 10.747494,16.177606 10.562986,16.177608 C 10.545584,16.175414 10.527975,16.175414 10.510573,16.177608 z M 22.35593,32.320835 L 22.434549,32.320835 C 22.201405,32.515961 21.978492,32.713378 21.726973,32.81876 L 21.726973,32.792554 C 21.640089,32.822498 21.416501,32.881771 21.255254,32.923587 C 21.375055,32.84103 21.513218,32.773907 21.622146,32.687727 C 21.631638,32.679783 21.640408,32.671012 21.648353,32.66152 C 21.807971,32.470919 22.050666,32.415216 22.35593,32.320835 z "
       style="fill:#00892c;fill-opacity:1;fill-rule:nonzero;stroke:none;stroke-width:0.5;stroke-linecap:round;stroke-linejoin:round;stroke-miterlimit:4;stroke-dasharray:none;stroke-opacity:1" />
    <path
       id="path6701"
       d="M 10.889163,16.954928 C 10.788244,16.948375 10.708964,16.961648 10.705718,16.982005 L 10.679511,17.063236 L 10.679511,17.090313 C 10.652544,17.128976 10.600175,17.132855 10.574684,17.171543 C 10.501975,17.281927 10.415364,17.433478 10.338825,17.550617 C 10.055719,18.019135 9.8521377,18.51968 9.6574554,19.012763 C 9.5575334,19.314123 9.445428,19.616637 9.3167703,19.906297 C 9.3084546,19.905758 9.2988794,19.905756 9.2905637,19.906297 C 9.1572928,20.288168 9.1956826,20.687687 9.1857376,21.016445 C 9.1643941,21.732018 9.1338361,22.459752 9.1333245,23.182585 C 9.1039128,24.253014 9.1203898,25.304978 9.2643573,26.377646 C 9.3773028,27.026534 9.5490164,27.678694 9.788488,28.300095 C 10.085747,29.066026 10.564028,29.743645 11.046403,30.357931 C 11.567128,31.023867 12.192771,31.523883 12.854654,31.982537 C 13.035924,32.118076 13.2399,32.211538 13.431199,32.307459 C 13.314029,32.238441 13.203345,32.175211 13.090514,32.090844 C 13.082566,32.081036 13.073799,32.071978 13.064307,32.063767 C 12.382039,31.590983 11.760985,31.111971 11.256054,30.466238 C 10.758067,29.83207 10.283446,29.170604 9.9981404,28.435479 C 9.7608038,27.819626 9.6153277,27.17434 9.5002161,26.513029 C 9.3539131,25.422918 9.3386387,24.321256 9.3691833,23.209662 C 9.3697101,22.462684 9.3991193,21.716012 9.4215964,20.962292 C 9.4329705,20.586397 9.4265393,20.246652 9.5264226,19.96045 L 9.5002161,19.96045 C 9.6408743,19.643774 9.7838731,19.342833 9.8933142,19.012763 L 9.8671076,19.012763 C 10.069561,18.499991 10.301121,17.976254 10.574684,17.523541 C 10.650131,17.408076 10.729937,17.320986 10.810543,17.19862 C 10.852178,17.135413 10.872792,17.066727 10.915369,17.009082 C 10.929662,16.995173 10.931615,16.972267 10.941576,16.954928 C 10.925789,16.95297 10.905529,16.955989 10.889163,16.954928 z "
       style="opacity:0.54368932;fill:#555753;fill-opacity:1;fill-rule:nonzero;stroke:none;stroke-width:0.5;stroke-linecap:round;stroke-linejoin:round;stroke-miterlimit:4;stroke-dasharray:none;stroke-opacity:1" />
    <path
       id="path6699"
       d="M 10.600891,16.448101 C 10.560449,16.461761 10.546708,16.491722 10.522271,16.52672 L 9.8671076,17.339122 C 9.70853,17.554074 9.5552708,17.815829 9.4215964,18.020492 C 9.1747619,18.484608 8.9682074,18.958496 8.766433,19.435646 C 8.7581206,19.435125 8.7485471,19.435126 8.7402264,19.435646 C 8.6365399,19.726842 8.5365987,20.016202 8.3995414,20.300462 C 8.3905003,20.308028 8.3809058,20.317629 8.3733349,20.326669 C 8.2763799,20.694171 8.2826392,21.063614 8.2685087,21.401138 C 8.274696,22.094754 8.2930221,22.782686 8.2947152,23.471452 C 8.2866193,24.511183 8.2822795,25.572251 8.4257479,26.616238 C 8.5366549,27.234842 8.6498512,27.882823 8.9236722,28.503109 C 9.2468387,29.235328 9.6891111,29.878405 10.15538,30.494805 C 10.338942,30.71875 10.552268,30.926254 10.75813,31.123764 C 10.612835,30.980837 10.493842,30.835396 10.365032,30.678251 C 9.8803677,30.037526 9.4234976,29.403399 9.107118,28.686555 C 8.8523887,28.109525 8.780691,27.463906 8.6616068,26.799684 C 8.5155823,25.737106 8.4959169,24.660831 8.5043675,23.57628 C 8.5025763,22.847192 8.4846132,22.124659 8.478161,21.401138 C 8.4935713,21.033106 8.4999858,20.693703 8.5829871,20.379083 C 8.7242324,20.084797 8.8637687,19.80348 8.9760852,19.48806 L 8.9498787,19.48806 C 9.1600258,18.991099 9.3817759,18.515764 9.6312488,18.046699 C 9.7799937,17.818948 9.9035737,17.590772 10.050553,17.391536 L 10.627097,16.657752 C 10.643628,16.669245 10.658668,16.65639 10.679511,16.683959 C 10.712078,16.727039 10.880971,16.648637 10.967783,16.552927 C 10.881073,16.48634 10.770504,16.448101 10.653304,16.448101 C 10.636724,16.44601 10.617472,16.446011 10.600891,16.448101 z M 10.75813,31.123764 C 10.911148,31.270572 11.067246,31.408962 11.229848,31.543067 C 11.072103,31.411655 10.903426,31.266688 10.75813,31.123764 z M 11.229848,31.543067 C 11.475975,31.746059 11.728467,31.941053 11.989838,32.119612 L 11.989838,32.093405 C 11.733562,31.912701 11.469157,31.742426 11.229848,31.543067 z M 22.262802,31.909959 C 21.982031,31.996765 21.629931,32.09568 21.371779,32.381676 C 21.362681,32.391757 21.354449,32.397284 21.345573,32.407883 C 21.110343,32.592835 20.864927,32.750155 20.61179,32.853395 C 20.595852,32.858242 20.600491,32.875102 20.585584,32.879601 C 20.915629,32.811679 21.265634,32.733624 21.4504,32.66995 C 21.450918,32.661631 21.450918,32.652056 21.4504,32.643743 C 21.792087,32.500581 22.042779,32.274029 22.289009,32.067198 C 22.298058,32.059632 22.307648,32.050042 22.315216,32.040991 C 22.370272,31.97704 22.461301,31.941275 22.551074,31.909959 L 22.315216,31.909959 C 22.297813,31.907766 22.280204,31.907768 22.262802,31.909959 z M 16.44495,33.089253 C 16.051583,33.100131 15.708623,33.118808 15.527721,33.141667 C 16.168439,33.201671 16.799772,33.254645 17.440798,33.272699 C 17.449552,33.273456 17.458271,33.271989 17.467005,33.272699 C 18.147431,33.327535 18.778016,33.207261 19.40629,33.089253 C 19.169209,33.108384 18.908242,33.106098 18.829745,33.089253 C 18.812343,33.08706 18.794734,33.087062 18.777332,33.089253 C 18.263487,33.083119 17.231685,33.067498 16.44495,33.089253 z "
       style="opacity:0.39805824;fill:#2e3436;fill-opacity:1;fill-rule:nonzero;stroke:none;stroke-width:0.5;stroke-linecap:round;stroke-linejoin:round;stroke-miterlimit:4;stroke-dasharray:none;stroke-opacity:1" />
    <path
       style="opacity:1;color:#000000;fill:url(#linearGradient3386);fill-opacity:1;fill-rule:evenodd;stroke:none;stroke-width:1px;stroke-linecap:butt;stroke-linejoin:miter;marker:none;marker-start:none;marker-mid:none;marker-end:none;stroke-miterlimit:4;stroke-dasharray:none;stroke-dashoffset:0;stroke-opacity:1;visibility:visible;display:inline;overflow:visible;enable-background:accumulate"
       d="M 26.036544,30.337566 C 25.942332,30.309302 25.695859,30.4686 25.695859,30.4686 L 23.992434,31.412035 L 24.595184,31.385828 L 24.647597,31.385828 C 24.665,31.383637 24.682606,31.383635 24.700011,31.385828 L 26.14137,30.652045 C 26.14137,30.652045 26.130754,30.36583 26.036544,30.337566 z "
       id="path2409" />
    <path
       style="opacity:1;color:#000000;fill:url(#linearGradient3398);fill-opacity:1;fill-rule:evenodd;stroke:none;stroke-width:1px;stroke-linecap:butt;stroke-linejoin:miter;marker:none;marker-start:none;marker-mid:none;marker-end:none;stroke-miterlimit:4;stroke-dasharray:none;stroke-dashoffset:0;stroke-opacity:1;visibility:visible;display:inline;overflow:visible;enable-background:accumulate"
       d="M 26.455848,30.730665 C 26.364713,30.693665 26.115163,30.835491 26.115163,30.83549 L 24.752423,31.412035 C 24.785227,31.430688 24.812388,31.457849 24.831043,31.490655 C 24.844922,31.514857 24.853829,31.541583 24.85725,31.569274 C 24.862454,31.626216 24.841304,31.683936 24.804836,31.726513 L 26.534468,31.045143 C 26.534468,31.045143 26.546982,30.767665 26.455848,30.730665 z "
       id="path3396" />
    <path
       style="opacity:1;color:#000000;fill:url(#linearGradient3402);fill-opacity:1;fill-rule:evenodd;stroke:none;stroke-width:1px;stroke-linecap:butt;stroke-linejoin:miter;marker:none;marker-start:none;marker-mid:none;marker-end:none;stroke-miterlimit:4;stroke-dasharray:none;stroke-dashoffset:0;stroke-opacity:1;visibility:visible;display:inline;overflow:visible;enable-background:accumulate"
       d="M 27.111012,30.940318 C 27.01647,30.913172 26.770327,31.097555 26.770327,31.097557 L 25.328967,31.883752 L 25.591033,31.857546 C 25.599539,31.855925 25.608739,31.859168 25.617239,31.857546 L 25.669652,31.857546 C 25.718075,31.859352 25.764377,31.877871 25.800685,31.909959 C 25.817761,31.923484 25.81502,31.944793 25.826891,31.962373 L 27.215838,31.254796 C 27.215838,31.254796 27.205551,30.967461 27.111012,30.940318 z "
       id="path3400" />
    <path
       style="opacity:1;color:#000000;fill:url(#linearGradient3406);fill-opacity:1;fill-rule:evenodd;stroke:none;stroke-width:1px;stroke-linecap:butt;stroke-linejoin:miter;marker:none;marker-start:none;marker-mid:none;marker-end:none;stroke-miterlimit:4;stroke-dasharray:none;stroke-dashoffset:0;stroke-opacity:1;visibility:visible;display:inline;overflow:visible;enable-background:accumulate"
       d="M 27.50411,31.202382 C 27.41103,31.170585 27.163425,31.333414 27.163425,31.333415 L 25.905511,31.962373 C 25.913184,31.965627 25.924457,31.95821 25.931718,31.962373 C 25.964521,31.981026 25.991684,32.00819 26.010337,32.040991 C 26.024217,32.065195 26.033125,32.091924 26.036544,32.119612 C 26.041501,32.145584 26.041501,32.17226 26.036544,32.198231 L 27.58273,31.490655 C 27.58273,31.490655 27.597187,31.234179 27.50411,31.202382 z "
       id="path3404" />
    <path
       style="opacity:1;color:#000000;fill:url(#linearGradient3410);fill-opacity:1;fill-rule:evenodd;stroke:none;stroke-width:1px;stroke-linecap:butt;stroke-linejoin:miter;marker:none;marker-start:none;marker-mid:none;marker-end:none;stroke-miterlimit:4;stroke-dasharray:none;stroke-dashoffset:0;stroke-opacity:1;visibility:visible;display:inline;overflow:visible;enable-background:accumulate"
       d="M 26.14137,31.045143 C 26.046325,31.019818 25.800685,31.202381 25.800685,31.202382 L 24.071053,32.224437 C 24.141559,32.198542 24.210028,32.171533 24.280705,32.145819 C 24.412486,32.093842 24.541716,32.056545 24.647597,32.014785 C 24.671799,32.000907 24.698528,31.991995 24.726217,31.98858 L 25.145521,31.962373 L 26.246196,31.359621 C 26.246196,31.359621 26.236412,31.070468 26.14137,31.045143 z "
       id="path3408" />
    <path
       style="opacity:1;color:#000000;fill:url(#linearGradient3414);fill-opacity:1;fill-rule:evenodd;stroke:none;stroke-width:1px;stroke-linecap:butt;stroke-linejoin:miter;marker:none;marker-start:none;marker-mid:none;marker-end:none;stroke-miterlimit:4;stroke-dasharray:none;stroke-dashoffset:0;stroke-opacity:1;visibility:visible;display:inline;overflow:visible;enable-background:accumulate"
       d="M 24.726217,30.756872 C 24.631173,30.731546 24.385532,30.887906 24.385532,30.887904 L 22.655901,31.909959 L 23.284857,31.883752 L 24.831043,31.045143 C 24.831043,31.045143 24.821259,30.782196 24.726217,30.756872 z "
       id="path3412" />
    <rect
       style="opacity:0.61162792;fill:#555753;fill-opacity:1;fill-rule:nonzero;stroke:none;stroke-width:0.69999999;stroke-linecap:round;stroke-linejoin:miter;stroke-miterlimit:4;stroke-dasharray:none;stroke-opacity:1"
       id="rect1951"
       width="40.001965"
       height="10.004759"
       x="-0.0019644466"
       y="30" />
    <text
       xml:space="preserve"
       style="font-size:12px;font-style:normal;font-weight:normal;fill:#eeeeec;fill-opacity:1;stroke:none;stroke-width:1px;stroke-linecap:butt;stroke-linejoin:miter;stroke-opacity:1;font-family:Bitstream Vera Sans"
       x="16.000019"
       y="39.168156"
       id="text2840"><tspan
         sodipodi:role="line"
         id="tspan2842"
         x="16.000019"
         y="39.168156">N</tspan></text>
  </g>
</svg>
