<?xml version="1.0" encoding="UTF-8" standalone="no"?>
<!-- Created with Inkscape (http://www.inkscape.org/) -->
<svg
   xmlns:dc="http://purl.org/dc/elements/1.1/"
   xmlns:cc="http://creativecommons.org/ns#"
   xmlns:rdf="http://www.w3.org/1999/02/22-rdf-syntax-ns#"
   xmlns:svg="http://www.w3.org/2000/svg"
   xmlns="http://www.w3.org/2000/svg"
   xmlns:xlink="http://www.w3.org/1999/xlink"
   xmlns:sodipodi="http://sodipodi.sourceforge.net/DTD/sodipodi-0.dtd"
   xmlns:inkscape="http://www.inkscape.org/namespaces/inkscape"
   width="40"
   height="40"
   id="svg2193"
   sodipodi:version="0.32"
   inkscape:version="0.46"
   version="1.0"
   sodipodi:docbase="/home/jra/Desktop"
   sodipodi:docname="70.svg"
   inkscape:output_extension="org.inkscape.output.svg.inkscape">
  <defs
     id="defs2195">
    <linearGradient
       id="linearGradient3582">
      <stop
         style="stop-color:#ffffff;stop-opacity:1;"
         offset="0"
         id="stop3584" />
      <stop
         style="stop-color:#ffffff;stop-opacity:0;"
         offset="1"
         id="stop3586" />
    </linearGradient>
    <linearGradient
       inkscape:collect="always"
       id="linearGradient3537">
      <stop
         style="stop-color:#803f00;stop-opacity:1;"
         offset="0"
         id="stop3539" />
      <stop
         style="stop-color:#803f00;stop-opacity:0;"
         offset="1"
         id="stop3541" />
    </linearGradient>
    <linearGradient
       id="linearGradient3380">
      <stop
         style="stop-color:#000000;stop-opacity:1"
         offset="0"
         id="stop3382" />
      <stop
         id="stop3386"
         offset="0.5"
         style="stop-color:#ffffff;stop-opacity:1;" />
      <stop
         style="stop-color:#000000;stop-opacity:1;"
         offset="1"
         id="stop3384" />
    </linearGradient>
    <linearGradient
       inkscape:collect="always"
       id="linearGradient3239">
      <stop
         style="stop-color:#eeeeec;stop-opacity:1;"
         offset="0"
         id="stop3241" />
      <stop
         style="stop-color:#eeeeec;stop-opacity:0;"
         offset="1"
         id="stop3243" />
    </linearGradient>
    <linearGradient
       id="linearGradient3220">
      <stop
         id="stop3222"
         offset="0"
         style="stop-color:#000000;stop-opacity:1" />
      <stop
         id="stop3224"
         offset="1"
         style="stop-color:#ffffff;stop-opacity:1;" />
    </linearGradient>
    <linearGradient
       id="linearGradient3291">
      <stop
         id="stop3293"
         offset="0"
         style="stop-color:#000000;stop-opacity:1;" />
      <stop
         id="stop3295"
         offset="1"
         style="stop-color:#000000;stop-opacity:0;" />
    </linearGradient>
    <radialGradient
       inkscape:collect="always"
       xlink:href="#linearGradient3291"
       id="radialGradient2595"
       gradientUnits="userSpaceOnUse"
       gradientTransform="matrix(1,0,0,0.197802,0,92.82166)"
       cx="63.912209"
       cy="115.70919"
       fx="75.857941"
       fy="115.70919"
       r="63.912209" />
    <linearGradient
       id="linearGradient3318">
      <stop
         offset="0"
         style="stop-color:#000000;stop-opacity:1;"
         id="stop3320" />
      <stop
         offset="1"
         style="stop-color:#000000;stop-opacity:0;"
         id="stop3322" />
    </linearGradient>
    <linearGradient
       inkscape:collect="always"
       xlink:href="#linearGradient3318"
       id="linearGradient3591"
       gradientUnits="userSpaceOnUse"
       x1="75.59375"
       y1="33.308052"
       x2="75.566406"
       y2="33.843208"
       gradientTransform="translate(-40,-20)" />
    <linearGradient
       inkscape:collect="always"
       xlink:href="#linearGradient3220"
       id="linearGradient3795"
       x1="6.8500977"
       y1="1.0649332"
       x2="5.3033009"
       y2="22.410719"
       gradientUnits="userSpaceOnUse" />
    <linearGradient
       inkscape:collect="always"
       xlink:href="#linearGradient3380"
       id="linearGradient3523"
       gradientUnits="userSpaceOnUse"
       x1="19.309097"
       y1="13.257936"
       x2="21.210779"
       y2="21.418766" />
    <linearGradient
       inkscape:collect="always"
       xlink:href="#linearGradient3537"
       id="linearGradient3543"
       x1="21.03125"
       y1="18.296875"
       x2="25.265625"
       y2="16.96875"
       gradientUnits="userSpaceOnUse" />
    <linearGradient
       inkscape:collect="always"
       xlink:href="#linearGradient3537"
       id="linearGradient3551"
       x1="24.095295"
       y1="20.774839"
       x2="24.095295"
       y2="14.727964"
       gradientUnits="userSpaceOnUse" />
    <linearGradient
       inkscape:collect="always"
       xlink:href="#linearGradient3318"
       id="linearGradient3556"
       gradientUnits="userSpaceOnUse"
       x1="21.828165"
       y1="17.920422"
       x2="23.24371"
       y2="17.286612" />
    <linearGradient
       inkscape:collect="always"
       xlink:href="#linearGradient3318"
       id="linearGradient3569"
       x1="15.952665"
       y1="26.460899"
       x2="17.03125"
       y2="27.28125"
       gradientUnits="userSpaceOnUse" />
    <linearGradient
       inkscape:collect="always"
       xlink:href="#linearGradient3582"
       id="linearGradient3579"
       x1="24.013502"
       y1="30.726635"
       x2="22.381216"
       y2="22.484421"
       gradientUnits="userSpaceOnUse" />
    <linearGradient
       inkscape:collect="always"
       xlink:href="#linearGradient3220"
       id="linearGradient3619"
       x1="15.04648"
       y1="29.734608"
       x2="9.9791384"
       y2="28.011034"
       gradientUnits="userSpaceOnUse" />
    <linearGradient
       inkscape:collect="always"
       xlink:href="#linearGradient3380"
       id="linearGradient3642"
       x1="7.5776653"
       y1="26.240736"
       x2="13.587087"
       y2="28.141085"
       gradientUnits="userSpaceOnUse" />
    <linearGradient
       inkscape:collect="always"
       xlink:href="#linearGradient3582"
       id="linearGradient3666"
       x1="13.193939"
       y1="31.272053"
       x2="18.073111"
       y2="23.491117"
       gradientUnits="userSpaceOnUse" />
    <linearGradient
       inkscape:collect="always"
       xlink:href="#linearGradient3582"
       id="linearGradient3676"
       x1="-15.119612"
       y1="0.65242577"
       x2="49.182941"
       y2="26.152466"
       gradientUnits="userSpaceOnUse" />
    <linearGradient
       inkscape:collect="always"
       xlink:href="#linearGradient3582"
       id="linearGradient3886"
       x1="40.431824"
       y1="18.75222"
       x2="2.9159877"
       y2="20.283852"
       gradientUnits="userSpaceOnUse" />
    <linearGradient
       inkscape:collect="always"
       xlink:href="#linearGradient3582"
       id="linearGradient3888"
       gradientUnits="userSpaceOnUse"
       x1="47.169613"
       y1="12.133936"
       x2="2.4821301"
       y2="29.723217" />
    <linearGradient
       inkscape:collect="always"
       xlink:href="#linearGradient3582"
       id="linearGradient3890"
       gradientUnits="userSpaceOnUse"
       x1="39.93449"
       y1="15.597767"
       x2="11.690983"
       y2="37.739048" />
    <linearGradient
       inkscape:collect="always"
       xlink:href="#linearGradient3318"
       id="linearGradient3894"
       gradientUnits="userSpaceOnUse"
       x1="18.6875"
       y1="19.921875"
       x2="21.90625"
       y2="15.21875" />
    <linearGradient
       inkscape:collect="always"
       xlink:href="#linearGradient3380"
       id="linearGradient3898"
       gradientUnits="userSpaceOnUse"
       x1="23.689045"
       y1="18.368589"
       x2="22.39217"
       y2="14.446714" />
    <linearGradient
       inkscape:collect="always"
       xlink:href="#linearGradient3318"
       id="linearGradient3902"
       gradientUnits="userSpaceOnUse"
       x1="15.952665"
       y1="26.460899"
       x2="16.359375"
       y2="26.607288" />
    <linearGradient
       inkscape:collect="always"
       xlink:href="#linearGradient3582"
       id="linearGradient2765"
       gradientUnits="userSpaceOnUse"
       x1="12.724139"
       y1="5.7305508"
       x2="12.87044"
       y2="5.1837149" />
    <linearGradient
       inkscape:collect="always"
       xlink:href="#linearGradient3291"
       id="linearGradient2771"
       gradientUnits="userSpaceOnUse"
       x1="18.603144"
       y1="24.26372"
       x2="10.624934"
       y2="19.386921"
       gradientTransform="translate(0,2)" />
    <linearGradient
       inkscape:collect="always"
       xlink:href="#linearGradient3220"
       id="linearGradient3554"
       x1="2.7539425"
       y1="-68.470261"
       x2="1.808623"
       y2="25.560108"
       gradientUnits="userSpaceOnUse" />
    <linearGradient
       inkscape:collect="always"
       xlink:href="#linearGradient3318"
       id="linearGradient3828"
       x1="19.875"
       y1="30.046875"
       x2="23.625"
       y2="27.078125"
       gradientUnits="userSpaceOnUse" />
    <radialGradient
       inkscape:collect="always"
       xlink:href="#linearGradient3239"
       id="radialGradient2849"
       gradientUnits="userSpaceOnUse"
       gradientTransform="matrix(3.3735128,-3.3198928e-2,1.3516829e-2,1.3735139,-20.533012,-5.8546359)"
       cx="8.1512337"
       cy="11.657774"
       fx="8.1512337"
       fy="11.657774"
       r="6.671875" />
  </defs>
  <sodipodi:namedview
     id="base"
     pagecolor="#ffffff"
     bordercolor="#666666"
     borderopacity="1.0"
     inkscape:pageopacity="0.0"
     inkscape:pageshadow="2"
     inkscape:zoom="11.313708"
     inkscape:cx="26.566372"
     inkscape:cy="21.650278"
     inkscape:current-layer="layer1"
     showgrid="false"
     inkscape:grid-bbox="false"
     inkscape:document-units="px"
     width="40px"
     height="40px"
     inkscape:window-width="1742"
     inkscape:window-height="1053"
     inkscape:window-x="107"
     inkscape:window-y="18">
    <inkscape:grid
       id="GridFromPre046Settings"
       type="xygrid"
       originx="0px"
       originy="0px"
       spacingx="1px"
       spacingy="1px"
       color="#0000ff"
       empcolor="#0000ff"
       opacity="0.2"
       empopacity="0.4"
       empspacing="2"
       visible="true"
       enabled="true" />
  </sodipodi:namedview>
  <metadata
     id="metadata2198">
    <rdf:RDF>
      <cc:Work
         rdf:about="">
        <dc:format>image/svg+xml</dc:format>
        <dc:type
           rdf:resource="http://purl.org/dc/dcmitype/StillImage" />
        <dc:creator>
          <cc:Agent>
            <dc:title>Jarle Akselsen</dc:title>
          </cc:Agent>
        </dc:creator>
        <cc:license
           rdf:resource="http://creativecommons.org/licenses/GPL/2.0/" />
      </cc:Work>
      <cc:License
         rdf:about="http://creativecommons.org/licenses/GPL/2.0/">
        <cc:permits
           rdf:resource="http://web.resource.org/cc/Reproduction" />
        <cc:permits
           rdf:resource="http://web.resource.org/cc/Distribution" />
        <cc:requires
           rdf:resource="http://web.resource.org/cc/Notice" />
        <cc:permits
           rdf:resource="http://web.resource.org/cc/DerivativeWorks" />
        <cc:requires
           rdf:resource="http://web.resource.org/cc/ShareAlike" />
        <cc:requires
           rdf:resource="http://web.resource.org/cc/SourceCode" />
      </cc:License>
    </rdf:RDF>
  </metadata>
  <g
     id="layer1"
     inkscape:label="Layer 1"
     inkscape:groupmode="layer">
    <path
       id="path3588"
       d="M 15.40625,23.59375 L 14.09375,27.28125 L 16.625,27.28125 L 16.96875,26.15625 L 17.03125,24.21875 L 15.40625,23.59375 z"
       style="opacity:1;fill:#000000;fill-opacity:1.0;fill-rule:nonzero;stroke:none;stroke-width:1;stroke-linecap:butt;stroke-linejoin:miter;marker:none;marker-start:none;marker-mid:none;marker-end:none;stroke-miterlimit:4;stroke-dasharray:none;stroke-dashoffset:0;stroke-opacity:1;visibility:visible;display:inline;overflow:visible;enable-background:accumulate" />
    <path
       style="opacity:1;fill:#e3ad00;fill-opacity:1;stroke:none;stroke-width:0.1;stroke-linecap:round;stroke-linejoin:round;stroke-miterlimit:4;stroke-dasharray:none;stroke-opacity:1"
       d="M 21.625,15.40625 C 21.421169,15.398437 21.093866,15.505705 21.03125,15.53125 L 21.03125,21.3125 L 21.03125,21.65625 C 21.484723,21.787574 21.677321,21.797758 22.09375,21.71875 L 22.84375,21.46875 C 23.581442,20.933593 24.093751,19.813661 24.09375,18.53125 C 24.093748,16.73405 23.196585,15.429418 21.96875,15.40625 C 21.96875,15.40625 21.689982,15.40625 21.625,15.40625 z"
       id="path3513"
       sodipodi:nodetypes="ccccccscc" />
    <path
       style="opacity:1;fill:#000000;fill-opacity:1;stroke:none;stroke-width:0.1;stroke-linecap:round;stroke-linejoin:round;stroke-miterlimit:4;stroke-dasharray:none;stroke-opacity:1"
       d="M 5.875,2.1875 L 3,2.71875 L 3,18.75 L 11.125,21.90625 L 7.3125,33.84375 C 9.5043884,35.20315 11.704584,36.419744 13.59375,33.84375 L 14.375,31.375 L 20.40625,30.09375 C 36.359011,26.921119 37.213197,23.947329 37.21875,19.71875 L 37.21875,12.78125 L 36.125,12.46875 L 35.125,12.8125 L 35.09375,20.59375 C 35.079677,24.104296 28.374855,26.880702 24.6875,26.28125 C 22.607971,25.316381 21.522982,23.29878 21.03125,22.09375 L 21.03125,21.65625 L 21.9375,21.375 C 22.826668,21.109278 23.5,19.969399 23.5,18.59375 C 23.5,17.021579 22.639932,15.75 21.5625,15.75 L 21.03125,15.90625 L 21.03125,6.0625 L 21.03125,6.03125 L 5.875,2.1875 z M 16.71875,24.09375 L 17.4375,24.375 C 17.430145,25.298532 17.264927,26.252596 16.90625,27.25 L 15.625,27.5 L 16.71875,24.09375 z M 21.53125,26.28125 C 22.21194,26.854433 23.011509,27.242114 23.9375,27.40625 C 23.959221,27.41563 23.978105,27.428416 24,27.4375 C 24.123835,27.488876 24.245524,27.552088 24.375,27.59375 L 21.125,28.28125 L 21.53125,26.28125 z"
       id="path3517" />
    <path
       style="opacity:1;fill:url(#linearGradient3888);fill-opacity:1;stroke:none;stroke-width:0.10000000000000001;stroke-linecap:round;stroke-linejoin:round;stroke-miterlimit:4;stroke-dasharray:none;stroke-opacity:1"
       d="M 37.21875 12.78125 L 36.21875 13.125 L 36.1875 20.90625 C 36.171971 24.779955 28.017598 27.779324 24.75 26.3125 C 22.635574 25.363334 21.529865 23.344507 21.03125 22.125 L 21.03125 23.65625 L 20.34375 23.875 C 20.738298 24.551888 21.118929 24.906536 21.6875 25.59375 C 22.696694 26.906172 24.032645 27.786318 25.8125 27.84375 C 25.8125 27.84375 28.457098 28.199942 30.53125 27.4375 C 32.605401 26.675058 34.039861 25.90029 35.03125 25.09375 C 37.014028 23.480669 37.216084 21.749359 37.21875 19.71875 L 37.21875 12.78125 z "
       id="path3519" />
    <path
       id="path3521"
       d="M 21.6875,25.59375 L 21.5625,26.28125 C 22.251546,26.861931 23.051772,27.278967 24,27.4375 C 23.767383,27.340993 23.556944,27.222399 23.34375,27.09375 C 23.138722,26.970028 22.937634,26.838423 22.75,26.6875 C 22.559436,26.534221 22.360703,26.366262 22.1875,26.1875 C 22.147813,26.146419 22.101294,26.104858 22.0625,26.0625 C 21.925397,25.913231 21.813649,25.757803 21.6875,25.59375 z"
       style="opacity:1;fill:#323232;fill-opacity:1;stroke:none;stroke-width:0.10000000000000001;stroke-linecap:round;stroke-linejoin:round;stroke-miterlimit:4;stroke-dasharray:none;stroke-opacity:1" />
    <path
       sodipodi:nodetypes="cccsccc"
       style="opacity:1;fill:url(#linearGradient3890);fill-opacity:1;stroke:none;stroke-width:0.10000000000000001;stroke-linecap:round;stroke-linejoin:round;stroke-miterlimit:4;stroke-dasharray:none;stroke-opacity:1"
       d="M 35.125,12.8125 L 35.09375,20.59375 C 35.079677,24.104296 28.37538,26.880265 24.6875,26.28125 C 24.70892,26.291188 24.728371,26.302791 24.75,26.3125 C 28.017598,27.779324 36.171971,24.779955 36.1875,20.90625 L 36.21875,13.125 L 35.125,12.8125 z"
       id="path3523" />
    <path
       sodipodi:nodetypes="ccccc"
       id="path3525"
       d="M 36.125,12.46875 L 35.125,12.8125 L 36.21875,13.125 L 37.21875,12.78125 L 36.125,12.46875 z"
       style="opacity:1;fill:#dddddd;fill-opacity:1;stroke:none;stroke-width:0.10000000000000001;stroke-linecap:round;stroke-linejoin:round;stroke-miterlimit:4;stroke-dasharray:none;stroke-opacity:1" />
    <path
       style="opacity:0.50000000000000000;fill:url(#linearGradient3666);fill-opacity:1;stroke:none;stroke-width:0.10000000000000001;stroke-linecap:round;stroke-linejoin:round;stroke-miterlimit:4;stroke-dasharray:none;stroke-opacity:1"
       d="M 17.4375,24.375 C 17.430145,25.298532 17.264927,26.252596 16.90625,27.25 L 18,27.5625 C 18.387536,26.484845 18.551167,25.460983 18.53125,24.46875 L 18.09375,24.625 L 17.4375,24.375 z"
       id="path3527" />
    <path
       style="opacity:1;fill:#555555;fill-opacity:1;stroke:none;stroke-width:0.10000000000000001;stroke-linecap:round;stroke-linejoin:round;stroke-miterlimit:4;stroke-dasharray:none;stroke-opacity:1"
       d="M 16.90625 27.25 L 15.625 27.5 L 15.4375 28.0625 L 18 27.5625 C 18 27.5625 16.90625 27.25 16.90625 27.25 z "
       id="path3529" />
    <path
       style="opacity:0.35;fill:#000000;fill-opacity:1;stroke:none;stroke-width:0.10000000000000001;stroke-linecap:round;stroke-linejoin:round;stroke-miterlimit:4;stroke-dasharray:none;stroke-opacity:1"
       d="M 36.875,15.1875 L 36.5625,15.28125 L 36.5625,16.40625 L 36.875,16.375 L 36.875,15.1875 z M 36.875,17.09375 L 36.5625,17.15625 L 36.53125,18.53125 L 36.875,18.5 L 36.875,17.09375 z M 36.875,19.21875 L 36.53125,19.25 L 36.53125,20.71875 L 36.84375,20.78125 C 36.865104,20.437567 36.874513,20.089354 36.875,19.71875 L 36.875,19.21875 z M 36.46875,21.4375 C 36.39111,21.886444 36.212472,22.310977 35.96875,22.71875 L 36.3125,23.0625 C 36.565328,22.560626 36.6693,22.048481 36.75,21.5 L 36.46875,21.4375 z M 35.5625,23.34375 C 35.419551,23.518551 35.260276,23.680218 35.09375,23.84375 C 34.926027,24.008458 34.751829,24.158294 34.5625,24.3125 L 34.875,24.78125 C 35.314346,24.41509 35.669904,24.063211 35.9375,23.6875 L 35.5625,23.34375 z M 21.4375,23.75 L 20.9375,24.09375 C 21.230771,24.509122 21.547016,24.865263 21.96875,25.375 C 21.977968,25.386987 21.990737,25.394343 22,25.40625 L 22.40625,25.03125 C 22.02021,24.612401 21.693005,24.17162 21.4375,23.75 z M 33.96875,24.75 C 33.533572,25.050844 33.057331,25.345249 32.5625,25.59375 L 32.78125,26.125 C 33.366876,25.831096 33.853359,25.515859 34.28125,25.21875 L 33.96875,24.75 z M 23,25.59375 L 22.5625,26.03125 C 23.030929,26.502944 23.558969,26.873757 24.15625,27.125 L 24.375,26.5 C 23.850502,26.239886 23.399498,25.938163 23,25.59375 z M 31.875,25.90625 C 31.853261,25.915704 31.834295,25.928149 31.8125,25.9375 C 31.306582,26.154557 30.774975,26.340731 30.25,26.5 L 30.34375,27.125 C 30.362583,27.118313 30.387531,27.131881 30.40625,27.125 C 31.03661,26.893284 31.579705,26.669961 32.09375,26.4375 L 31.875,25.90625 z M 29.46875,26.71875 C 28.87773,26.86122 28.286631,26.949571 27.71875,27 L 27.71875,27.59375 C 28.301969,27.577786 28.952274,27.48599 29.59375,27.34375 L 29.46875,26.71875 z M 25.125,26.8125 L 24.9375,27.375 C 25.219682,27.436616 25.49932,27.489894 25.8125,27.5 C 25.833292,27.498136 25.854208,27.498136 25.875,27.5 C 25.875,27.5 26.322625,27.541158 26.90625,27.5625 L 26.90625,27.0625 C 26.259344,27.063873 25.663678,26.971336 25.125,26.8125 z"
       id="path3533"
       sodipodi:nodetypes="ccccccccccccccccccccccsccccccsccccccccccccccsccscccccccccscccc" />
    <path
       style="opacity:0.5;fill:#000000;fill-opacity:1;stroke:none;stroke-width:0.10000000000000001;stroke-linecap:round;stroke-linejoin:round;stroke-miterlimit:4;stroke-dasharray:none;stroke-opacity:1"
       d="M 36.6875,15.25 L 36.5625,15.28125 L 36.5625,16.3125 L 36.6875,16.3125 L 36.6875,15.25 z M 36.6875,17.125 L 36.5625,17.15625 L 36.53125,18.4375 L 36.6875,18.4375 L 36.6875,17.125 z M 36.53125,19.25 L 36.53125,20.6875 L 36.65625,20.71875 C 36.677601,20.375066 36.687013,20.026854 36.6875,19.65625 L 36.6875,19.25 L 36.53125,19.25 z M 36.46875,21.4375 C 36.39111,21.886444 36.212472,22.310977 35.96875,22.71875 L 36.15625,22.90625 C 36.372366,22.443364 36.487438,21.972018 36.5625,21.46875 L 36.46875,21.4375 z M 35.5,23.40625 C 35.371942,23.555787 35.238811,23.701297 35.09375,23.84375 C 34.926027,24.008458 34.751829,24.158294 34.5625,24.3125 L 34.78125,24.625 C 35.162869,24.2968 35.477296,23.964007 35.71875,23.625 L 35.5,23.40625 z M 21.3125,23.84375 L 20.9375,24.09375 C 21.187257,24.447491 21.478453,24.788222 21.8125,25.1875 L 22.125,24.90625 C 21.804714,24.558744 21.54444,24.197982 21.3125,23.84375 z M 33.84375,24.84375 C 33.443256,25.114397 33.010031,25.369003 32.5625,25.59375 L 32.71875,25.9375 C 33.218397,25.673119 33.651938,25.388378 34.03125,25.125 L 33.84375,24.84375 z M 22.9375,25.65625 L 22.5625,26.03125 C 22.957319,26.428821 23.389719,26.756953 23.875,27 L 24.09375,26.375 C 23.663598,26.161675 23.280917,25.926144 22.9375,25.65625 z M 31.6875,26 C 31.220133,26.194213 30.731103,26.354041 30.25,26.5 L 30.3125,26.9375 C 30.858395,26.732301 31.354093,26.519801 31.8125,26.3125 L 31.6875,26 z M 29.21875,26.78125 C 28.713173,26.890171 28.204912,26.956828 27.71875,27 L 27.71875,27.4375 C 28.227286,27.404611 28.770851,27.338854 29.3125,27.21875 L 29.21875,26.78125 z M 25.125,26.8125 L 24.96875,27.3125 C 25.145185,27.343499 25.337712,27.368755 25.53125,27.375 C 25.552042,27.373137 25.572958,27.373136 25.59375,27.375 C 25.59375,27.375001 26.041375,27.416158 26.625,27.4375 L 26.625,27.03125 C 26.088625,27.008942 25.582638,26.94744 25.125,26.8125 z"
       id="path3535"
       sodipodi:nodetypes="ccccccccccccccccccccccscccccccccccccccccccccccccccccccssccc" />
    <path
       style="opacity:0.25000000000000000;fill:url(#linearGradient3579);fill-opacity:1;stroke:none;stroke-width:0.10000000000000001;stroke-linecap:round;stroke-linejoin:round;stroke-miterlimit:4;stroke-dasharray:none;stroke-opacity:1"
       d="M 20.34375 23.875 L 18.53125 24.46875 C 18.551167 25.460983 18.387536 26.484845 18 27.5625 L 15.4375 28.0625 L 14.375 31.375 L 20.40625 30.09375 C 24.832946 29.213384 28.062748 28.349554 30.46875 27.46875 C 28.404647 28.200974 25.8125 27.84375 25.8125 27.84375 C 25.294767 27.827044 24.820495 27.740072 24.375 27.59375 L 21.125 28.28125 L 21.6875 25.59375 C 21.116001 24.902997 20.736058 24.554585 20.34375 23.875 z "
       id="path3537" />
    <path
       style="opacity:1;fill:#ffaa00;fill-opacity:1;fill-rule:nonzero;stroke:none;stroke-width:1;stroke-linecap:butt;stroke-linejoin:miter;marker:none;marker-start:none;marker-mid:none;marker-end:none;stroke-miterlimit:4;stroke-dasharray:none;stroke-dashoffset:0;stroke-opacity:1;visibility:visible;display:inline;overflow:visible;enable-background:accumulate"
       d="M 16.71875 24.09375 L 15.6875 27.28125 L 16.625 27.28125 L 16.96875 26.15625 L 17.03125 24.21875 L 16.71875 24.09375 z "
       id="path3394" />
    <path
       style="opacity:0.5;fill:url(#linearGradient3551);fill-opacity:1;stroke:none;stroke-width:0.10000000000000001;stroke-linecap:round;stroke-linejoin:round;stroke-miterlimit:4;stroke-opacity:1"
       d="M 21.21875,15.46875 C 21.351503,15.432078 21.484457,15.40625 21.625,15.40625 C 22.833975,15.40625 23.8125,16.829633 23.8125,18.59375 C 23.812501,20.123369 23.077971,21.405555 22.09375,21.71875 L 22.834534,21.45799 C 23.572226,20.922834 24.095295,19.813661 24.095294,18.53125 C 24.095293,16.73405 23.196585,15.416599 21.96875,15.393431 L 21.21875,15.46875 z"
       id="path3367"
       sodipodi:nodetypes="cssccscc" />
    <path
       style="opacity:0.25;fill:url(#linearGradient3523);fill-opacity:1;stroke:none;stroke-width:0.1;stroke-linecap:round;stroke-linejoin:round;stroke-miterlimit:4;stroke-opacity:1"
       d="M 21.5625,15.75 L 21.03125,15.90625 L 21.03125,21.65625 L 21.9375,21.375 C 22.826668,21.109278 23.5,19.969399 23.5,18.59375 C 23.5,17.021579 22.639932,15.75 21.5625,15.75 z"
       id="path3347" />
    <path
       transform="matrix(0.2686252,-6.8518989e-2,5.8790682e-2,0.2304859,-1.5471552,11.822215)"
       d="M 127.82442,115.70919 A 63.912209,12.641975 0 1 1 0,115.70919 A 63.912209,12.641975 0 1 1 127.82442,115.70919 z"
       sodipodi:ry="12.641975"
       sodipodi:rx="63.912209"
       sodipodi:cy="115.70919"
       sodipodi:cx="63.912209"
       id="path2593"
       style="opacity:0.38139535;fill:url(#radialGradient2595);fill-opacity:1;fill-rule:nonzero;stroke:none;stroke-width:0;stroke-linecap:round;stroke-linejoin:round;stroke-miterlimit:4;stroke-dasharray:none;stroke-dashoffset:4;stroke-opacity:1"
       sodipodi:type="arc" />
    <path
       style="fill:url(#linearGradient3619);fill-opacity:1;stroke:none;stroke-width:0.10000000000000001;stroke-linecap:round;stroke-linejoin:round;stroke-miterlimit:4;stroke-opacity:1;opacity:0.35"
       d="M 11.125,21.90625 L 7.3125,33.84375 C 9.5043884,35.20315 11.704584,36.419744 13.59375,33.84375 L 16.71875,24.09375 L 11.125,21.90625 z"
       id="rect3224" />
    <path
       style="opacity:1;fill:url(#linearGradient3676);fill-opacity:1;stroke:none;stroke-width:0.10000000000000001;stroke-linecap:round;stroke-linejoin:round;stroke-miterlimit:4;stroke-opacity:1"
       d="M 5.875 2.1875 L 3 2.71875 L 18.09375 6.71875 L 21.03125 6.03125 L 5.875 2.1875 z "
       id="path2483" />
    <path
       style="opacity:0.50000000000000000;fill:url(#linearGradient3554);fill-opacity:1;stroke:none;stroke-width:0.10000000000000001;stroke-linecap:round;stroke-linejoin:round;stroke-miterlimit:4;stroke-opacity:1"
       d="M 3,2.71875 L 3,18.75 L 18.09375,24.625 L 18.09375,6.71875 L 3,2.71875 z"
       id="path2488" />
    <path
       id="path3686"
       d="M 3.90625,3.78125 L 3.90625,17.96875 L 17.25,23.15625 L 17.25,7.34375 L 3.90625,3.78125 z"
       style="opacity:1;fill:#2c72c7;fill-opacity:1;stroke:none;stroke-width:0.10000000000000001;stroke-linecap:round;stroke-linejoin:round;stroke-miterlimit:4;stroke-opacity:1" />
    <path
       style="opacity:0.50000000000000000;fill:url(#linearGradient3886);fill-opacity:1;stroke:none;stroke-width:0.10000000000000001;stroke-linecap:round;stroke-linejoin:round;stroke-miterlimit:4;stroke-opacity:1"
       d="M 21.03125,6.0625 L 18.09375,6.71875 L 18.09375,24.625 L 21.03125,23.65625 L 21.03125,6.0625 z"
       id="path2508" />
    <path
       style="opacity:1;fill:#bb8e00;fill-opacity:1;stroke:none;stroke-width:0.10000000000000001;stroke-linecap:round;stroke-linejoin:round;stroke-miterlimit:4;stroke-dasharray:none;stroke-opacity:1"
       d="M 35.125 12.8125 L 35.125 14.5625 L 36.21875 14.875 L 36.5625 14.46875 L 36.5625 13.3125 L 36.21875 13.125 L 35.125 12.8125 z "
       id="path3579" />
    <path
       style="opacity:1;fill:#f3c300;fill-opacity:1;stroke:none;stroke-width:0.10000000000000001;stroke-linecap:round;stroke-linejoin:round;stroke-miterlimit:4;stroke-dasharray:none;stroke-opacity:1"
       d="M 35.13707,13.015346 L 35.13707,14.494889 L 36.06179,14.759088 L 36.06179,13.279545 L 35.13707,13.015346 z"
       id="path3581" />
    <path
       transform="translate(-40.010087,-19.913068)"
       d="M 75.689205,33.501797 A 0.10142121,0.13764307 0 1 1 75.486363,33.501797 A 0.10142121,0.13764307 0 1 1 75.689205,33.501797 z"
       sodipodi:ry="0.13764307"
       sodipodi:rx="0.10142121"
       sodipodi:cy="33.501797"
       sodipodi:cx="75.587784"
       id="path3583"
       style="opacity:1;fill:#000000;fill-opacity:1;stroke:none;stroke-width:0.69999999;stroke-linecap:round;stroke-linejoin:round;stroke-miterlimit:4;stroke-dasharray:none;stroke-opacity:1"
       sodipodi:type="arc" />
    <path
       sodipodi:type="arc"
       style="opacity:1;fill:#000000;fill-opacity:1;stroke:none;stroke-width:0.69999999;stroke-linecap:round;stroke-linejoin:round;stroke-miterlimit:4;stroke-dasharray:none;stroke-opacity:1"
       id="path3585"
       sodipodi:cx="75.587784"
       sodipodi:cy="33.501797"
       sodipodi:rx="0.10142121"
       sodipodi:ry="0.13764307"
       d="M 75.689205,33.501797 A 0.10142121,0.13764307 0 1 1 75.486363,33.501797 A 0.10142121,0.13764307 0 1 1 75.689205,33.501797 z"
       transform="matrix(0.6842104,0,0,0.6842104,-16.451763,-9.463948)" />
    <path
       transform="matrix(0.736842,0,0,0.736842,-19.770864,-11.0461)"
       d="M 75.689205,33.501797 A 0.10142121,0.13764307 0 1 1 75.486363,33.501797 A 0.10142121,0.13764307 0 1 1 75.689205,33.501797 z"
       sodipodi:ry="0.13764307"
       sodipodi:rx="0.10142121"
       sodipodi:cy="33.501797"
       sodipodi:cx="75.587784"
       id="path3587"
       style="opacity:1;fill:#000000;fill-opacity:1;stroke:none;stroke-width:0.69999999;stroke-linecap:round;stroke-linejoin:round;stroke-miterlimit:4;stroke-dasharray:none;stroke-opacity:1"
       sodipodi:type="arc" />
    <path
       sodipodi:nodetypes="csssssz"
       id="path3589"
       d="M 35.26416,13.336982 C 35.196269,13.372651 35.136721,13.397149 35.136722,13.455633 C 35.136722,13.514119 35.196314,13.605027 35.303711,13.67976 C 35.393346,13.742131 35.730192,13.834723 35.835452,13.811585 C 35.955665,13.785173 36.050777,13.6944 36.050778,13.631409 C 36.050778,13.568431 36.006843,13.55419 35.980465,13.525946 C 35.930727,13.472668 35.332052,13.301313 35.26416,13.336982 z"
       style="opacity:0.5;fill:url(#linearGradient3591);fill-opacity:1;stroke:none;stroke-width:0.69999999;stroke-linecap:round;stroke-linejoin:round;stroke-miterlimit:4;stroke-dasharray:none;stroke-opacity:1" />
    <path
       style="opacity:1;fill:#e3ad00;fill-opacity:1;stroke:none;stroke-width:0.10000000000000001;stroke-linecap:round;stroke-linejoin:round;stroke-miterlimit:4;stroke-dasharray:none;stroke-opacity:1"
       d="M 35.125,12.8125 L 35.125,13 L 36.0625,13.28125 L 36.21875,13.125 L 35.125,12.8125 z"
       id="path3593"
       sodipodi:nodetypes="ccccc" />
    <path
       style="opacity:0.2;fill:url(#linearGradient3642);fill-opacity:1;stroke:none;stroke-width:0.10000000000000001;stroke-linecap:round;stroke-linejoin:round;stroke-miterlimit:4;stroke-opacity:1"
       d="M 11.125,21.90625 L 7.3125,33.84375 C 7.9649787,34.248415 8.6044726,34.623169 9.25,34.90625 C 9.8314658,34.645542 10.426214,34.177282 10.96875,33.4375 L 14.25,23.125 L 11.125,21.90625 z"
       id="path3747" />
    <path
       style="opacity:1;fill:#555555;fill-opacity:1;stroke:none;stroke-width:0.10000000000000001;stroke-linecap:round;stroke-linejoin:round;stroke-miterlimit:4;stroke-opacity:1"
       d="M 17.25,7.34375 L 17.25,23.15625 L 17.34375,23.5625 L 17.34375,7.28125 L 17.25,7.34375 z"
       id="path3752"
       sodipodi:nodetypes="ccccc" />
    <path
       style="opacity:1;fill:#888888;fill-opacity:1;stroke:none;stroke-width:0.10000000000000001;stroke-linecap:round;stroke-linejoin:round;stroke-miterlimit:4;stroke-opacity:1"
       d="M 17.25,23.15625 L 3.90625,17.96875 L 3.625,18.21875 L 17.34375,23.5625 L 17.25,23.15625 z"
       id="path3757"
       sodipodi:nodetypes="ccccc" />
    <path
       style="opacity:1;fill:#323232;fill-opacity:1;stroke:none;stroke-width:0.10000000000000001;stroke-linecap:round;stroke-linejoin:round;stroke-miterlimit:4;stroke-opacity:1"
       d="M 3.625,3.65625 L 3.625,18.21875 L 3.90625,17.96875 L 3.90625,3.78125 L 3.625,3.65625 z"
       id="path3759"
       sodipodi:nodetypes="ccccc" />
    <path
       style="opacity:1;fill:#323232;fill-opacity:1;stroke:none;stroke-width:0.10000000000000001;stroke-linecap:round;stroke-linejoin:round;stroke-miterlimit:4;stroke-opacity:1"
       d="M 3.625,3.65625 L 3.90625,3.78125 L 17.25,7.34375 L 17.34375,7.28125 L 3.625,3.65625 z"
       id="path3761"
       sodipodi:nodetypes="ccccc" />
    <path
       id="path3797"
       d="M 4.78125,6.1331419 L 4.78125,9.1484009 L 16.125,12.694984 L 16.125,9.3343641 L 4.78125,6.1331419 z"
       style="opacity:1;fill:#6193cf;fill-opacity:1;stroke:none;stroke-width:0.10000000000000001;stroke-linecap:round;stroke-linejoin:round;stroke-miterlimit:4;stroke-opacity:1"
       sodipodi:nodetypes="ccccc" />
    <path
       style="opacity:1;fill:#00583f;fill-opacity:1;stroke:none;stroke-width:0.10000000000000001;stroke-linecap:round;stroke-linejoin:round;stroke-miterlimit:4;stroke-opacity:1"
       d="M 4.84375,14.943355 L 4.84375,16.43106 L 8.85524,17.945331 L 8.85524,16.377927 L 4.84375,14.943355 z"
       id="path3810" />
    <path
       style="opacity:1;fill:#590000;fill-opacity:1;stroke:none;stroke-width:0.10000000000000001;stroke-linecap:round;stroke-linejoin:round;stroke-miterlimit:4;stroke-opacity:1"
       d="M 11.83065,17.440574 L 11.83065,19.061109 L 16.1875,20.681645 L 16.1875,18.981411 L 11.83065,17.440574 z"
       id="path3803" />
    <path
       style="fill:#ffffff;fill-opacity:1;fill-rule:nonzero;stroke:none;stroke-width:1px;stroke-linecap:butt;stroke-linejoin:miter;stroke-opacity:1"
       d="M 6.0769567,15.917513 C 6.2552949,16.076285 6.3766763,16.288976 6.4653991,16.508142 C 6.4862841,16.57069 6.5317891,16.511194 6.631663,16.378298 C 6.7636151,16.185161 6.9421452,16.019801 7.1564985,15.9228 C 7.1368053,15.967662 7.1413052,15.967455 7.1932989,15.940005 C 6.9598776,16.089352 6.6002823,16.695372 6.5512875,16.751612 C 6.490879,16.791908 6.4233234,16.840561 6.3484704,16.839797 C 6.2864942,16.812081 6.0325973,16.188095 5.9247764,16.080428 C 5.8565641,16.047156 6.042638,15.938543 6.0769567,15.917513 z"
       id="path3812"
       sodipodi:nodetypes="csssssssc" />
    <path
       style="opacity:1;fill:#ffffff;fill-opacity:1;fill-rule:nonzero;stroke:none;stroke-width:1;stroke-linecap:butt;stroke-linejoin:miter;marker:none;marker-start:none;marker-mid:none;marker-end:none;stroke-miterlimit:4;stroke-dasharray:none;stroke-dashoffset:0;stroke-opacity:1;visibility:visible;display:inline;overflow:visible;enable-background:accumulate"
       d="M 13.46875 18.25 L 13.28125 18.4375 L 13.625 18.9375 L 13.15625 19.25 L 13.40625 19.5 L 13.84375 19.21875 L 14.25 19.78125 L 14.53125 19.6875 L 14.09375 19.0625 L 14.59375 18.75 L 14.3125 18.5 L 13.875 18.78125 L 13.46875 18.25 z "
       id="path3824" />
    <path
       style="opacity:0.5;fill:url(#linearGradient3795);fill-opacity:1;stroke:none;stroke-width:0.1;stroke-linecap:round;stroke-linejoin:round;stroke-miterlimit:4;stroke-opacity:1"
       d="M 3.90625,3.78125 L 3.90625,17.96875 L 17.25,23.15625 L 17.25,7.34375 L 3.90625,3.78125 z"
       id="path3784" />
    <path
       sodipodi:nodetypes="ccccc"
       id="path3531"
       d="M 24.375,27.59375 L 21.125,28.28125 L 21,28.90625 L 25.8125,27.84375 C 25.294767,27.827044 24.822749,27.737824 24.375,27.59375 z"
       style="opacity:1;fill:#555555;fill-opacity:1;fill-rule:nonzero;stroke:none;stroke-width:1;stroke-linecap:butt;stroke-linejoin:miter;marker:none;marker-start:none;marker-mid:none;marker-end:none;stroke-miterlimit:4;stroke-dasharray:none;stroke-dashoffset:0;stroke-opacity:1;visibility:visible;display:inline;overflow:visible;enable-background:accumulate" />
    <path
       style="opacity:1;fill:url(#linearGradient3543);fill-opacity:1;stroke:none;stroke-width:0.1;stroke-linecap:round;stroke-linejoin:round;stroke-miterlimit:4;stroke-dasharray:none;stroke-opacity:1"
       d="M 21.625,15.40625 C 21.420464,15.40625 21.219098,15.454614 21.03125,15.53125 L 21.03125,15.908146 C 21.03125,15.908146 21.5625,15.75 21.5625,15.75 C 22.639932,15.75 23.537906,17.022036 23.5,18.59375 C 23.462017,20.168654 22.771926,21.254908 21.5625,21.487218 L 21.03125,21.65625 C 21.219098,21.732886 21.420464,21.78125 21.625,21.78125 C 22.833975,21.78125 23.812501,20.357868 23.8125,18.59375 C 23.8125,16.829633 22.833975,15.40625 21.625,15.40625 z"
       id="path3526"
       sodipodi:nodetypes="cccssscssc" />
    <path
       id="path3554"
       d="M 21.5625,15.75 L 21.03125,15.90625 L 21.03125,21.65625 L 21.9375,21.375 C 22.826668,21.109278 23.5,19.969399 23.5,18.59375 C 23.5,17.021579 22.639932,15.75 21.5625,15.75 z"
       style="opacity:0.5;fill:url(#linearGradient3556);fill-opacity:1;stroke:none;stroke-width:0.10000000000000001;stroke-linecap:round;stroke-linejoin:round;stroke-miterlimit:4;stroke-opacity:1" />
    <path
       style="opacity:0.25;fill:url(#linearGradient3569);fill-opacity:1;fill-rule:nonzero;stroke:none;stroke-width:1;stroke-linecap:butt;stroke-linejoin:miter;marker:none;marker-start:none;marker-mid:none;marker-end:none;stroke-miterlimit:4;stroke-dasharray:none;stroke-dashoffset:0;stroke-opacity:1;visibility:visible;display:inline;overflow:visible;enable-background:accumulate"
       d="M 16.71875,24.09375 L 15.6875,27.28125 L 16.625,27.28125 L 16.96875,26.15625 L 17.03125,24.21875 L 16.71875,24.09375 z"
       id="path3558" />
    <path
       style="opacity:0.25;fill:#2c72c7;fill-opacity:1;stroke:none;stroke-width:0.10000000000000001;stroke-linecap:round;stroke-linejoin:round;stroke-miterlimit:4;stroke-opacity:1"
       d="M 3.625,3.65625 L 3.625,18.21875 L 17.34375,23.5625 L 17.34375,7.28125 L 3.625,3.65625 z M 3.90625,3.78125 L 17.25,7.34375 L 17.25,23.15625 L 3.90625,17.96875 L 3.90625,3.78125 z"
       id="path3869" />
    <rect
       style="opacity:0.61162792;fill:#555753;fill-opacity:1;fill-rule:nonzero;stroke:none;stroke-width:0.69999999;stroke-linecap:round;stroke-linejoin:miter;stroke-miterlimit:4;stroke-dasharray:none;stroke-opacity:1"
       id="rect1951"
       width="40.001965"
       height="10.004759"
       x="-0.0019644466"
       y="30" />
    <text
       xml:space="preserve"
       style="font-size:12px;font-style:normal;font-weight:normal;fill:#eeeeec;fill-opacity:1;stroke:none;stroke-width:1px;stroke-linecap:butt;stroke-linejoin:miter;stroke-opacity:1;font-family:Bitstream Vera Sans"
       x="12.863281"
       y="39.168156"
       id="text2840"><tspan
         sodipodi:role="line"
         id="tspan2842"
         x="12.863281"
         y="39.168156">Yb</tspan></text>
    <path
       sodipodi:nodetypes="cccssscssc"
       id="path3892"
       d="M 21.625,15.40625 C 21.420464,15.40625 21.219098,15.454614 21.03125,15.53125 L 21.03125,15.908146 C 21.03125,15.908146 21.5625,15.75 21.5625,15.75 C 22.639932,15.75 23.537906,17.022036 23.5,18.59375 C 23.462017,20.168654 22.771926,21.254908 21.5625,21.487218 L 21.03125,21.65625 C 21.219098,21.732886 21.420464,21.78125 21.625,21.78125 C 22.833975,21.78125 23.812501,20.357868 23.8125,18.59375 C 23.8125,16.829633 22.833975,15.40625 21.625,15.40625 z"
       style="opacity:0.5;fill:url(#linearGradient3894);fill-opacity:1;stroke:none;stroke-width:0.10000000000000001;stroke-linecap:round;stroke-linejoin:round;stroke-miterlimit:4;stroke-dasharray:none;stroke-opacity:1" />
    <path
       sodipodi:nodetypes="cssccscc"
       id="path3896"
       d="M 21.21875,15.46875 C 21.351503,15.432078 21.484457,15.40625 21.625,15.40625 C 22.833975,15.40625 23.8125,16.829633 23.8125,18.59375 C 23.812501,20.123369 23.077971,21.405555 22.09375,21.71875 L 22.834534,21.45799 C 23.572226,20.922834 24.095295,19.813661 24.095294,18.53125 C 24.095293,16.73405 23.196585,15.416599 21.96875,15.393431 L 21.21875,15.46875 z"
       style="opacity:0.50000000000000000;fill:url(#linearGradient3898);fill-opacity:1;stroke:none;stroke-width:0.10000000000000001;stroke-linecap:round;stroke-linejoin:round;stroke-miterlimit:4;stroke-opacity:1" />
    <path
       id="path3900"
       d="M 16.71875,24.09375 L 15.6875,27.28125 L 16.15625,27.28125 L 17.03125,24.21875 L 16.71875,24.09375 z"
       style="opacity:0.50000000000000000;fill:url(#linearGradient3902);fill-opacity:1;fill-rule:nonzero;stroke:none;stroke-width:1;stroke-linecap:butt;stroke-linejoin:miter;marker:none;marker-start:none;marker-mid:none;marker-end:none;stroke-miterlimit:4;stroke-dasharray:none;stroke-dashoffset:0;stroke-opacity:1;visibility:visible;display:inline;overflow:visible;enable-background:accumulate"
       sodipodi:nodetypes="ccccc" />
    <path
       style="opacity:1;fill:url(#linearGradient2765);fill-opacity:1;stroke:none;stroke-width:0.10000000000000001;stroke-linecap:round;stroke-linejoin:round;stroke-miterlimit:4;stroke-opacity:1"
       d="M 3.125 2.6875 L 3 2.71875 L 18.09375 6.71875 L 18.21875 6.6875 L 3.15625 2.6875 L 3.125 2.6875 z "
       id="path2758" />
    <path
       style="opacity:0.6;fill:url(#linearGradient2771);fill-opacity:1;stroke:none;stroke-width:0.10000000000000001;stroke-linecap:round;stroke-linejoin:round;stroke-miterlimit:4;stroke-opacity:1"
       d="M 11.125 21.90625 L 11.03125 22.21875 C 12.452902 22.819882 14.144989 23.776902 16.3125 25.3125 L 16.71875 24.09375 L 11.125 21.90625 z "
       id="path2769" />
    <path
       style="opacity:0.15;fill:#000000;fill-opacity:1;stroke:none;stroke-width:0.10000000000000001;stroke-linecap:round;stroke-linejoin:round;stroke-miterlimit:4;stroke-dasharray:none;stroke-opacity:1"
       d="M 36.554687,13.3125 L 36.21875,13.125 L 36.21875,14.859375 L 36.554687,14.460938 L 36.554687,13.3125 z"
       id="path3763"
       sodipodi:nodetypes="ccccc" />
    <path
       style="opacity:0.25000000000000000;fill:url(#radialGradient2849);fill-opacity:1;stroke:none;stroke-width:0.10000000000000001;stroke-linecap:round;stroke-linejoin:round;stroke-miterlimit:4;stroke-opacity:1"
       d="M 3.90625,5.78125 L 3.90625,9.96875 C 3.8303853,18.024973 4.6138067,18.397974 10.578125,20.5625 L 17.25,23.15625 L 17.25,7.34375 L 10.578125,5.5625 C 6.7103817,4.5726657 3.9020568,3.7189739 3.90625,5.78125 z"
       id="path3788"
       sodipodi:nodetypes="ccccccc" />
    <path
       style="opacity:0.4;fill:url(#linearGradient3828);fill-opacity:1;fill-rule:nonzero;stroke:none;stroke-width:1;stroke-linecap:butt;stroke-linejoin:miter;marker:none;marker-start:none;marker-mid:none;marker-end:none;stroke-miterlimit:4;stroke-dasharray:none;stroke-dashoffset:0;stroke-opacity:1;visibility:visible;display:inline;overflow:visible;enable-background:accumulate"
       d="M 22.4375 28 L 21.125 28.28125 L 21 28.90625 L 23.84375 28.28125 L 22.4375 28 z "
       id="path3817" />
    <path
       style="opacity:1;fill:#323232;fill-opacity:1;stroke:none;stroke-width:0.10000000000000001;stroke-linecap:round;stroke-linejoin:round;stroke-miterlimit:4;stroke-dasharray:none;stroke-opacity:1"
       d="M 15.59375 27.59375 L 15.4375 28.0625 L 16.46875 27.875 L 15.59375 27.59375 z "
       id="path3830" />
  </g>
</svg>
