<?xml version="1.0" encoding="UTF-8" standalone="no"?>
<!-- Created with Inkscape (http://www.inkscape.org/) -->
<svg
   xmlns:dc="http://purl.org/dc/elements/1.1/"
   xmlns:cc="http://creativecommons.org/ns#"
   xmlns:rdf="http://www.w3.org/1999/02/22-rdf-syntax-ns#"
   xmlns:svg="http://www.w3.org/2000/svg"
   xmlns="http://www.w3.org/2000/svg"
   xmlns:xlink="http://www.w3.org/1999/xlink"
   xmlns:sodipodi="http://sodipodi.sourceforge.net/DTD/sodipodi-0.dtd"
   xmlns:inkscape="http://www.inkscape.org/namespaces/inkscape"
   width="40"
   height="40"
   id="svg2193"
   sodipodi:version="0.32"
   inkscape:version="0.46"
   version="1.0"
   sodipodi:docbase="/home/jra/Desktop"
   sodipodi:docname="71.svg"
   inkscape:output_extension="org.inkscape.output.svg.inkscape">
  <defs
     id="defs2195">
    <linearGradient
       id="linearGradient3939">
      <stop
         offset="0"
         style="stop-color:#ffffff;stop-opacity:1"
         id="stop3941" />
      <stop
         offset="0.75"
         style="stop-color:#ffffff;stop-opacity:0.969697;"
         id="stop3943" />
      <stop
         offset="1"
         style="stop-color:#e0e0e0;stop-opacity:0;"
         id="stop3945" />
    </linearGradient>
    <linearGradient
       id="linearGradient4785">
      <stop
         offset="0"
         style="stop-color:#000000;stop-opacity:0;"
         id="stop4787" />
      <stop
         offset="1"
         style="stop-color:#000000;stop-opacity:1;"
         id="stop4789" />
    </linearGradient>
    <linearGradient
       id="linearGradient3239">
      <stop
         style="stop-color:#ffffff;stop-opacity:1;"
         offset="0"
         id="stop3241" />
      <stop
         style="stop-color:#ffffff;stop-opacity:0;"
         offset="1"
         id="stop3243" />
    </linearGradient>
    <linearGradient
       id="linearGradient3220">
      <stop
         id="stop3222"
         offset="0"
         style="stop-color:#000000;stop-opacity:1" />
      <stop
         id="stop3224"
         offset="1"
         style="stop-color:#c1c3c0;stop-opacity:1" />
    </linearGradient>
    <linearGradient
       id="linearGradient3291">
      <stop
         id="stop3293"
         offset="0"
         style="stop-color:#000000;stop-opacity:1;" />
      <stop
         id="stop3295"
         offset="1"
         style="stop-color:#000000;stop-opacity:0;" />
    </linearGradient>
    <linearGradient
       id="linearGradient3318">
      <stop
         id="stop3320"
         style="stop-color:#000000;stop-opacity:1;"
         offset="0" />
      <stop
         id="stop3322"
         style="stop-color:#000000;stop-opacity:0;"
         offset="1" />
    </linearGradient>
    <linearGradient
       id="linearGradient3343">
      <stop
         id="stop3345"
         style="stop-color:#ffffff;stop-opacity:1;"
         offset="0" />
      <stop
         id="stop3353"
         style="stop-color:#ffffff;stop-opacity:0.969697;"
         offset="0.75" />
      <stop
         id="stop3347"
         style="stop-color:#e0e0e0;stop-opacity:0;"
         offset="1" />
    </linearGradient>
    <linearGradient
       id="linearGradient3560"
       inkscape:collect="always">
      <stop
         id="stop3562"
         offset="0"
         style="stop-color:#000000;stop-opacity:1;" />
      <stop
         id="stop3564"
         offset="1"
         style="stop-color:#000000;stop-opacity:0;" />
    </linearGradient>
    <radialGradient
       inkscape:collect="always"
       xlink:href="#linearGradient3291"
       id="radialGradient3860"
       gradientUnits="userSpaceOnUse"
       gradientTransform="matrix(1,0,0,0.197802,0,92.82166)"
       cx="63.912209"
       cy="115.70919"
       fx="75.857941"
       fy="115.70919"
       r="63.912209" />
    <radialGradient
       inkscape:collect="always"
       xlink:href="#linearGradient3239"
       id="radialGradient3929"
       gradientUnits="userSpaceOnUse"
       gradientTransform="matrix(1,0,0,0.2307692,0,6.9951923)"
       cx="14.34375"
       cy="9.09375"
       fx="14.34375"
       fy="9.09375"
       r="2.84375" />
    <radialGradient
       inkscape:collect="always"
       xlink:href="#linearGradient3239"
       id="radialGradient3931"
       gradientUnits="userSpaceOnUse"
       gradientTransform="matrix(1,0,0,0.2307692,0,6.9951923)"
       cx="14.34375"
       cy="9.09375"
       fx="14.34375"
       fy="9.09375"
       r="2.84375" />
    <linearGradient
       inkscape:collect="always"
       xlink:href="#linearGradient3239"
       id="linearGradient3974"
       gradientUnits="userSpaceOnUse"
       x1="37.267326"
       y1="23.375565"
       x2="35.314785"
       y2="23.375565" />
    <radialGradient
       inkscape:collect="always"
       xlink:href="#linearGradient3343"
       id="radialGradient3980"
       gradientUnits="userSpaceOnUse"
       gradientTransform="matrix(1.4725435,1.2015369e-2,-5.1986372e-3,0.6371193,-8.7688282,8.6393633)"
       cx="20.757772"
       cy="23.651443"
       fx="20.757772"
       fy="23.651443"
       r="7.40625" />
    <linearGradient
       inkscape:collect="always"
       xlink:href="#linearGradient3939"
       id="linearGradient3983"
       gradientUnits="userSpaceOnUse"
       x1="6.8555512"
       y1="13.751274"
       x2="6.8545356"
       y2="14.40625" />
    <linearGradient
       inkscape:collect="always"
       xlink:href="#linearGradient3318"
       id="linearGradient3990"
       gradientUnits="userSpaceOnUse"
       x1="25.343834"
       y1="32.828125"
       x2="27"
       y2="33.030968" />
    <radialGradient
       inkscape:collect="always"
       xlink:href="#linearGradient3239"
       id="radialGradient3993"
       gradientUnits="userSpaceOnUse"
       gradientTransform="matrix(1,0,0,0.57438,0,13.710362)"
       cx="20"
       cy="28.730665"
       fx="20"
       fy="28.730665"
       r="6.59375" />
    <linearGradient
       inkscape:collect="always"
       xlink:href="#linearGradient3318"
       id="linearGradient3996"
       gradientUnits="userSpaceOnUse"
       x1="19.461403"
       y1="35.494053"
       x2="19.465853"
       y2="36.65625" />
    <linearGradient
       inkscape:collect="always"
       xlink:href="#linearGradient3318"
       id="linearGradient3999"
       gradientUnits="userSpaceOnUse"
       x1="12.443212"
       y1="32.663921"
       x2="16.252813"
       y2="32.643433" />
    <linearGradient
       inkscape:collect="always"
       xlink:href="#linearGradient3318"
       id="linearGradient4002"
       gradientUnits="userSpaceOnUse"
       x1="20.228586"
       y1="36.956257"
       x2="20.198191"
       y2="34.728973" />
    <linearGradient
       inkscape:collect="always"
       xlink:href="#linearGradient3318"
       id="linearGradient4005"
       gradientUnits="userSpaceOnUse"
       x1="27.805693"
       y1="32.5"
       x2="23.668627"
       y2="32.5" />
    <radialGradient
       inkscape:collect="always"
       xlink:href="#linearGradient4785"
       id="radialGradient4008"
       gradientUnits="userSpaceOnUse"
       gradientTransform="matrix(3.4265404,0,0,0.5049766,-48.53081,14.730719)"
       cx="20"
       cy="32.390793"
       fx="20"
       fy="32.390793"
       r="6.59375" />
    <radialGradient
       inkscape:collect="always"
       xlink:href="#linearGradient4785"
       id="radialGradient4011"
       gradientUnits="userSpaceOnUse"
       gradientTransform="matrix(2.2132701,0,0,1.4407581,-24.265403,-14.324641)"
       cx="20"
       cy="32.5"
       fx="20"
       fy="32.5"
       r="6.59375" />
    <radialGradient
       inkscape:collect="always"
       xlink:href="#linearGradient4785"
       id="radialGradient4014"
       gradientUnits="userSpaceOnUse"
       gradientTransform="matrix(2.516588,0,0,0.5743798,-30.33176,13.710367)"
       cx="20"
       cy="32.212681"
       fx="20"
       fy="32.212681"
       r="6.59375" />
    <linearGradient
       inkscape:collect="always"
       xlink:href="#linearGradient4785"
       id="linearGradient4018"
       gradientUnits="userSpaceOnUse"
       x1="25.874939"
       y1="34.786861"
       x2="27.8125"
       y2="34.5" />
    <linearGradient
       inkscape:collect="always"
       xlink:href="#linearGradient4785"
       id="linearGradient4021"
       gradientUnits="userSpaceOnUse"
       x1="13.610222"
       y1="34.991764"
       x2="11.543298"
       y2="34.827843" />
    <linearGradient
       inkscape:collect="always"
       xlink:href="#linearGradient3343"
       id="linearGradient4025"
       gradientUnits="userSpaceOnUse"
       x1="20.586582"
       y1="4.96068"
       x2="20.586582"
       y2="6.8460469" />
    <linearGradient
       inkscape:collect="always"
       xlink:href="#linearGradient3343"
       id="linearGradient4028"
       gradientUnits="userSpaceOnUse"
       x1="4.0391898"
       y1="6.8707294"
       x2="6.0841737"
       y2="8.9157133" />
    <linearGradient
       inkscape:collect="always"
       xlink:href="#linearGradient3343"
       id="linearGradient4031"
       gradientUnits="userSpaceOnUse"
       x1="2.3663981"
       y1="24.03125"
       x2="4.375"
       y2="24.03125" />
    <linearGradient
       inkscape:collect="always"
       xlink:href="#linearGradient3560"
       id="linearGradient4034"
       gradientUnits="userSpaceOnUse"
       x1="21.542233"
       y1="37.90625"
       x2="21.542233"
       y2="37.312336" />
    <linearGradient
       inkscape:collect="always"
       xlink:href="#linearGradient3343"
       id="linearGradient4037"
       gradientUnits="userSpaceOnUse"
       x1="37.389622"
       y1="23.375565"
       x2="35.623722"
       y2="23.375565" />
    <linearGradient
       inkscape:collect="always"
       xlink:href="#linearGradient3239"
       id="linearGradient4040"
       gradientUnits="userSpaceOnUse"
       x1="35.587784"
       y1="6.9757743"
       x2="33.784916"
       y2="8.7786446" />
    <radialGradient
       inkscape:collect="always"
       xlink:href="#linearGradient3239"
       id="radialGradient4043"
       gradientUnits="userSpaceOnUse"
       gradientTransform="matrix(1.642571,0,0,2.080322,-13.028921,-18.689575)"
       cx="18.696068"
       cy="15.407565"
       fx="18.696068"
       fy="15.407565"
       r="15.5625" />
    <radialGradient
       inkscape:collect="always"
       xlink:href="#linearGradient3291"
       id="radialGradient4048"
       gradientUnits="userSpaceOnUse"
       gradientTransform="matrix(1.5400844,0,0,0.6371308,-10.801687,8.076196)"
       cx="18.510345"
       cy="22.842564"
       fx="18.510345"
       fy="22.842564"
       r="7.40625" />
    <radialGradient
       inkscape:collect="always"
       xlink:href="#linearGradient3291"
       id="radialGradient4051"
       gradientUnits="userSpaceOnUse"
       gradientTransform="matrix(2.0987125,0,0,1.0879828,-21.316678,-1.8627611)"
       cx="18.803013"
       cy="19.627094"
       fx="18.803013"
       fy="19.627094"
       r="7.28125" />
    <linearGradient
       inkscape:collect="always"
       xlink:href="#linearGradient3318"
       id="linearGradient4054"
       gradientUnits="userSpaceOnUse"
       x1="17.019629"
       y1="19.278177"
       x2="27.40625"
       y2="22.515625" />
    <linearGradient
       inkscape:collect="always"
       xlink:href="#linearGradient3220"
       id="linearGradient4060"
       gradientUnits="userSpaceOnUse"
       x1="8.1875"
       y1="15.554292"
       x2="5.3125"
       y2="11.866059" />
    <linearGradient
       inkscape:collect="always"
       xlink:href="#linearGradient4785"
       id="linearGradient4066"
       gradientUnits="userSpaceOnUse"
       x1="4.9375"
       y1="19.700851"
       x2="9.8795452"
       y2="19.700851" />
    <radialGradient
       inkscape:collect="always"
       xlink:href="#linearGradient3343"
       id="radialGradient4070"
       gradientUnits="userSpaceOnUse"
       gradientTransform="matrix(1.2156311,0,0,1.1904404,-4.2494221,-3.8283165)"
       cx="19.71203"
       cy="20.193699"
       fx="19.71203"
       fy="20.193699"
       r="11.40625" />
    <linearGradient
       inkscape:collect="always"
       xlink:href="#linearGradient3239"
       id="linearGradient4073"
       gradientUnits="userSpaceOnUse"
       x1="12.30855"
       y1="12.621782"
       x2="30.314196"
       y2="-19.097015" />
    <radialGradient
       inkscape:collect="always"
       xlink:href="#linearGradient3318"
       id="radialGradient4078"
       gradientUnits="userSpaceOnUse"
       gradientTransform="matrix(0.9595774,-5.6637769e-2,9.1974572e-3,0.1558265,0.6140824,27.682757)"
       cx="22.017424"
       cy="28.692648"
       fx="22.017424"
       fy="28.692648"
       r="14.484375" />
    <linearGradient
       inkscape:collect="always"
       xlink:href="#linearGradient3239"
       id="linearGradient4081"
       gradientUnits="userSpaceOnUse"
       x1="5.6312623"
       y1="5.2822604"
       x2="44.584702"
       y2="45.968773" />
    <radialGradient
       inkscape:collect="always"
       xlink:href="#linearGradient4785"
       id="radialGradient4085"
       gradientUnits="userSpaceOnUse"
       gradientTransform="matrix(2.965451,0,0,2.3147794,-38.786568,-26.10824)"
       cx="19.82382"
       cy="18.28554"
       fx="19.82382"
       fy="18.28554"
       r="16.28125" />
    <linearGradient
       inkscape:collect="always"
       xlink:href="#linearGradient3318"
       id="linearGradient4093"
       gradientUnits="userSpaceOnUse"
       x1="9.7498322"
       y1="16.232063"
       x2="28.379683"
       y2="28.59375" />
    <linearGradient
       inkscape:collect="always"
       xlink:href="#linearGradient3239"
       id="linearGradient4097"
       gradientUnits="userSpaceOnUse"
       x1="32.28125"
       y1="5.3773279"
       x2="3.7093029"
       y2="2.7974927" />
    <linearGradient
       inkscape:collect="always"
       xlink:href="#linearGradient3318"
       id="linearGradient3682"
       x1="20"
       y1="40"
       x2="20"
       y2="28.427933"
       gradientUnits="userSpaceOnUse" />
  </defs>
  <sodipodi:namedview
     id="base"
     pagecolor="#ffffff"
     bordercolor="#666666"
     borderopacity="1.0"
     inkscape:pageopacity="0.0"
     inkscape:pageshadow="2"
     inkscape:zoom="8"
     inkscape:cx="11.215876"
     inkscape:cy="10.13895"
     inkscape:current-layer="layer1"
     showgrid="false"
     inkscape:grid-bbox="false"
     inkscape:document-units="px"
     width="40px"
     height="40px"
     inkscape:window-width="1742"
     inkscape:window-height="1053"
     inkscape:window-x="62"
     inkscape:window-y="130"
     showguides="true"
     inkscape:guide-bbox="true">
    <inkscape:grid
       id="GridFromPre046Settings"
       type="xygrid"
       originx="0px"
       originy="0px"
       spacingx="1px"
       spacingy="1px"
       color="#0000ff"
       empcolor="#0000ff"
       opacity="0.2"
       empopacity="0.4"
       empspacing="2"
       visible="true"
       enabled="true" />
  </sodipodi:namedview>
  <metadata
     id="metadata2198">
    <rdf:RDF>
      <cc:Work
         rdf:about="">
        <dc:format>image/svg+xml</dc:format>
        <dc:type
           rdf:resource="http://purl.org/dc/dcmitype/StillImage" />
        <dc:creator>
          <cc:Agent>
            <dc:title>Jarle Akselsen</dc:title>
          </cc:Agent>
        </dc:creator>
        <cc:license
           rdf:resource="http://creativecommons.org/licenses/GPL/2.0/" />
      </cc:Work>
      <cc:License
         rdf:about="http://creativecommons.org/licenses/GPL/2.0/">
        <cc:permits
           rdf:resource="http://web.resource.org/cc/Reproduction" />
        <cc:permits
           rdf:resource="http://web.resource.org/cc/Distribution" />
        <cc:requires
           rdf:resource="http://web.resource.org/cc/Notice" />
        <cc:permits
           rdf:resource="http://web.resource.org/cc/DerivativeWorks" />
        <cc:requires
           rdf:resource="http://web.resource.org/cc/ShareAlike" />
        <cc:requires
           rdf:resource="http://web.resource.org/cc/SourceCode" />
      </cc:License>
    </rdf:RDF>
  </metadata>
  <g
     id="layer1"
     inkscape:label="Layer 1"
     inkscape:groupmode="layer">
    <path
       sodipodi:type="arc"
       style="opacity:0.38139535;fill:url(#radialGradient3860);fill-opacity:1;fill-rule:nonzero;stroke:none;stroke-width:0;stroke-linecap:round;stroke-linejoin:round;stroke-miterlimit:4;stroke-dasharray:none;stroke-dashoffset:4;stroke-opacity:1"
       id="path3666"
       sodipodi:cx="63.912209"
       sodipodi:cy="115.70919"
       sodipodi:rx="63.912209"
       sodipodi:ry="12.641975"
       d="M 127.82442,115.70919 A 63.912209,12.641975 0 1 1 0,115.70919 A 63.912209,12.641975 0 1 1 127.82442,115.70919 z"
       transform="matrix(0.2772262,0,0,0.1155117,2.70576,24.293381)" />
    <path
       sodipodi:nodetypes="cccccccccccccscc"
       id="path3668"
       d="M 8.90625,2.53125 L 5.28125,6.15625 L 3.71875,10.15625 L 3.71875,37.90625 L 7.71875,37.90625 L 32.28125,37.90625 L 36.28125,37.90625 L 36.28125,10.15625 L 34.71875,6.15625 L 31.09375,2.53125 L 8.90625,2.53125 z M 20,12.96875 C 22.972752,12.96875 25.53558,14.723321 26.71875,17.25 C 26.183966,20.484786 23.385583,22.96875 20,22.96875 C 16.614417,22.96875 13.816034,20.484786 13.28125,17.25 C 14.46442,14.723321 17.027248,12.96875 20,12.96875 z"
       style="fill:#99dcc6;fill-opacity:1;stroke:none;stroke-width:0.10000000000000001;stroke-linecap:round;stroke-linejoin:round;stroke-miterlimit:4;stroke-dasharray:none;stroke-opacity:1" />
    <path
       id="path3670"
       d="M 20,7.65625 C 7.3211217,7.6562498 4.4375,10.59375 4.4375,10.59375 L 4.4375,29.46875 C 4.4374999,29.46875 7.3211217,32.40625 20,32.40625 C 32.678876,32.406252 35.5625,29.46875 35.5625,29.46875 L 35.5625,10.59375 C 35.562499,10.59375 32.678876,7.65625 20,7.65625 z M 20,10.96875 C 25.198868,10.96875 29.40625,15.176133 29.40625,20.375 C 29.40625,25.573866 25.198867,29.78125 20,29.78125 C 14.801134,29.78125 10.59375,25.573867 10.59375,20.375 C 10.59375,15.176132 14.801133,10.96875 20,10.96875 z"
       style="fill:#ffffff;fill-opacity:1;stroke:none;stroke-width:0.1;stroke-linecap:round;stroke-linejoin:round;stroke-miterlimit:4;stroke-dasharray:none;stroke-opacity:1" />
    <path
       sodipodi:nodetypes="csscssc"
       id="path3672"
       d="M 30.5,15.9375 C 31.076924,17.302283 31.40625,18.799283 31.40625,20.375 C 31.406249,26.677867 26.302867,31.78125 20,31.78125 C 16.060708,31.781251 12.580345,29.783918 10.53125,26.75 C 12.557618,29.91501 16.085295,32.031251 20.125,32.03125 C 26.427867,32.03125 31.531249,26.927867 31.53125,20.625 C 31.53125,18.949618 31.147852,17.370059 30.5,15.9375 z"
       style="opacity:0.15;fill:#000000;fill-opacity:1;stroke:none;stroke-width:0.1;stroke-linecap:round;stroke-linejoin:round;stroke-miterlimit:4;stroke-dasharray:none;stroke-opacity:1" />
    <path
       style="fill:url(#radialGradient4085);fill-opacity:1;stroke:none;stroke-width:0.1;stroke-linecap:round;stroke-linejoin:round;stroke-miterlimit:4;stroke-dasharray:none;stroke-opacity:1"
       d="M 8.90625,2.53125 L 5.28125,6.15625 L 3.71875,10.15625 L 3.71875,37.90625 L 36.28125,37.90625 L 36.28125,10.15625 L 34.71875,6.15625 L 31.09375,2.53125 L 8.90625,2.53125 z M 20,12.96875 C 22.972752,12.96875 25.53558,14.723321 26.71875,17.25 C 26.183966,20.484786 23.385583,22.96875 20,22.96875 C 16.614417,22.96875 13.816034,20.484786 13.28125,17.25 C 14.46442,14.723321 17.027248,12.96875 20,12.96875 z"
       id="path3674"
       sodipodi:nodetypes="cccccccccccscc" />
    <path
       id="path3676"
       d="M 20,8.96875 C 13.697133,8.96875 8.59375,14.072133 8.59375,20.375 C 8.59375,26.677867 13.697133,31.781251 20,31.78125 C 26.302867,31.78125 31.406249,26.677867 31.40625,20.375 C 31.40625,14.072133 26.302867,8.9687499 20,8.96875 z M 20,12.96875 C 22.987417,12.96875 25.54693,14.737896 26.71875,17.28125 C 26.171452,20.501115 23.374919,22.96875 20,22.96875 C 16.625081,22.96875 13.828548,20.501115 13.28125,17.28125 C 14.45307,14.737896 17.012583,12.96875 20,12.96875 z"
       style="fill:#bbbbbb;fill-opacity:1;stroke:none;stroke-width:0.1;stroke-linecap:round;stroke-linejoin:round;stroke-miterlimit:4;stroke-dasharray:none;stroke-opacity:1" />
    <path
       id="path3680"
       d="M 7.71875,6.15625 L 3.71875,10.15625 L 3.71875,37.90625 L 36.28125,37.90625 L 36.28125,10.15625 L 32.28125,6.15625 L 7.71875,6.15625 z M 20,7.65625 C 32.678876,7.65625 35.562499,10.59375 35.5625,10.59375 C 35.562499,10.59375 32.171621,9.5719039 22.96875,9.375 C 22.023286,9.1214514 21.025845,8.96875 20,8.96875 C 18.974155,8.96875 17.976714,9.1214514 17.03125,9.375 C 7.8283777,9.5719039 4.4375,10.59375 4.4375,10.59375 C 4.4375,10.59375 7.3211217,7.6562498 20,7.65625 z M 20,12.96875 C 22.972752,12.96875 25.53558,14.723321 26.71875,17.25 C 26.183966,20.484786 23.385583,22.96875 20,22.96875 C 16.614417,22.96875 13.816034,20.484786 13.28125,17.25 C 14.46442,14.723321 17.027248,12.96875 20,12.96875 z M 4.4375,29.46875 C 4.4374999,29.46875 8.4789949,31.8125 20,31.8125 C 31.521003,31.812501 35.5625,29.46875 35.5625,29.46875 C 35.5625,29.46875 32.678876,32.406252 20,32.40625 C 7.3211217,32.40625 4.4374999,29.46875 4.4375,29.46875 z"
       style="opacity:0.4;fill:url(#linearGradient4081);fill-opacity:1;stroke:none;stroke-width:0.1;stroke-linecap:round;stroke-linejoin:round;stroke-miterlimit:4;stroke-dasharray:none;stroke-opacity:1" />
    <path
       id="path3684"
       d="M 35.5625,29.46875 C 35.5625,29.46875 32.678876,32.406252 20,32.40625 C 12.69976,32.40625 8.7186188,31.451251 6.59375,30.625 C 9.081178,31.701703 13.888201,33.15625 21.8125,33.15625 C 34.491375,33.156254 35.5625,29.46875 35.5625,29.46875 z"
       style="fill:url(#radialGradient4078);fill-opacity:1;stroke:none;stroke-width:0.1;stroke-linecap:round;stroke-linejoin:round;stroke-miterlimit:4;stroke-dasharray:none;stroke-opacity:1" />
    <path
       sodipodi:nodetypes="ccccc"
       style="opacity:0.2;fill:#ffffff;fill-opacity:1;stroke:none;stroke-width:0.10000000000000001;stroke-linecap:round;stroke-linejoin:round;stroke-miterlimit:4;stroke-dasharray:none;stroke-opacity:1"
       d="M 32.28125,6.15625 L 36.28125,10.15625 L 34.71875,6.15625 L 31.09375,2.53125 L 32.28125,6.15625 z"
       id="path3687" />
    <path
       sodipodi:nodetypes="ccccc"
       id="path3689"
       d="M 8.90625,2.53125 L 5.28125,6.15625 L 3.71875,10.15625 L 7.71875,6.15625 L 8.90625,2.53125 z"
       style="opacity:0.35;fill:#ffffff;fill-opacity:1;stroke:none;stroke-width:0.1;stroke-linecap:round;stroke-linejoin:round;stroke-miterlimit:4;stroke-dasharray:none;stroke-opacity:1" />
    <path
       sodipodi:nodetypes="ccccc"
       style="opacity:0.5;fill:url(#linearGradient4073);fill-opacity:1;stroke:none;stroke-width:0.1;stroke-linecap:round;stroke-linejoin:round;stroke-miterlimit:4;stroke-dasharray:none;stroke-opacity:1"
       d="M 8.90625,2.53125 L 7.71875,6.15625 L 32.28125,6.15625 L 31.09375,2.53125 L 8.90625,2.53125 z"
       id="path3692" />
    <path
       id="path3694"
       d="M 20,8.96875 C 13.697133,8.96875 8.59375,14.072133 8.59375,20.375 C 8.59375,26.677867 13.697133,31.781251 20,31.78125 C 26.302867,31.78125 31.406249,26.677867 31.40625,20.375 C 31.40625,14.072133 26.302867,8.9687499 20,8.96875 z M 20,12.96875 C 24.094867,12.96875 27.40625,16.280133 27.40625,20.375 C 27.406249,24.469867 24.094867,27.78125 20,27.78125 C 15.905133,27.781249 12.59375,24.469867 12.59375,20.375 C 12.59375,16.280133 15.905133,12.96875 20,12.96875 z"
       style="opacity:0.5;fill:url(#radialGradient4070);fill-opacity:1;stroke:none;stroke-width:0.1;stroke-linecap:round;stroke-linejoin:round;stroke-miterlimit:4;stroke-dasharray:none;stroke-opacity:1" />
    <path
       sodipodi:nodetypes="cccccccccccccccccccc"
       id="path3698"
       d="M 4.71875,12.34375 L 4.71875,14.65625 L 4.9375,14.65625 L 4.9375,12.53125 L 4.71875,12.34375 z M 4.71875,16.34375 L 4.71875,18.65625 L 4.9375,18.65625 L 4.9375,16.53125 L 4.71875,16.34375 z M 4.71875,20.34375 L 4.71875,22.65625 L 4.9375,22.65625 L 4.9375,20.53125 L 4.71875,20.34375 z M 4.71875,24.34375 L 4.71875,26.65625 L 4.9375,26.65625 L 4.9375,24.53125 L 4.71875,24.34375 z"
       style="opacity:0.2;fill:#eeeeee;fill-opacity:1;stroke:none;stroke-width:0.1;stroke-linecap:round;stroke-linejoin:round;stroke-miterlimit:4;stroke-dasharray:none;stroke-opacity:1" />
    <path
       sodipodi:nodetypes="cccccccccccccccccccccccccccccc"
       id="path3702"
       d="M 9.71875,12.53125 L 9.71875,13.21875 L 8.8125,14.65625 L 4.9375,14.65625 L 4.9375,14.870455 L 8.973295,14.725568 L 9.879545,13.288068 L 9.879545,12.53125 L 9.71875,12.53125 z M 7.8125,16.53125 L 7.8125,18.65625 L 4.9375,18.65625 L 4.9375,18.870455 L 7.973295,18.725568 L 7.973295,16.53125 L 7.8125,16.53125 z M 7.8125,20.53125 L 7.8125,22.65625 L 4.9375,22.65625 L 4.9375,22.870455 L 7.973295,22.725568 L 7.973295,20.53125 L 7.8125,20.53125 z M 7.8125,24.53125 L 7.8125,26.65625 L 4.9375,26.65625 L 4.9375,26.870455 L 7.973295,26.725568 L 7.973295,24.53125 L 7.8125,24.53125 z"
       style="opacity:0.15;fill:url(#linearGradient4066);fill-opacity:1;stroke:none;stroke-width:0.1;stroke-linecap:round;stroke-linejoin:round;stroke-miterlimit:4;stroke-dasharray:none;stroke-opacity:1" />
    <path
       sodipodi:nodetypes="cccccc"
       style="fill:#323232;fill-opacity:1;stroke:none;stroke-width:0.1;stroke-linecap:round;stroke-linejoin:round;stroke-miterlimit:4;stroke-dasharray:none;stroke-opacity:1"
       d="M 4.9375,12.53125 L 4.9375,14.65625 L 8.8125,14.65625 L 9.71875,13.21875 L 9.71875,12.53125 L 4.9375,12.53125 z"
       id="path3705" />
    <rect
       y="14.120904"
       x="5.3069563"
       height="0.28686252"
       width="0.88107771"
       id="rect3707"
       style="fill:#003300;fill-opacity:1;stroke:none;stroke-width:0.1;stroke-linecap:round;stroke-linejoin:round;stroke-miterlimit:4;stroke-dasharray:none;stroke-opacity:1" />
    <rect
       style="fill:#734c00;fill-opacity:1;stroke:none;stroke-width:0.1;stroke-linecap:round;stroke-linejoin:round;stroke-miterlimit:4;stroke-dasharray:none;stroke-opacity:1"
       id="rect3709"
       width="0.88107771"
       height="0.28686252"
       x="7.3069563"
       y="14.120904" />
    <path
       id="path3713"
       d="M 5.3125,12.801169 L 5.3125,13.963497 L 7.3125,13.963497 L 7.875,13.963497 L 8.1875,13.963497 L 8.1875,12.801169 L 7.875,12.801169 L 7.3125,12.801169 L 5.3125,12.801169 z"
       style="fill:url(#linearGradient4060);fill-opacity:1;stroke:none;stroke-width:0.1;stroke-linecap:round;stroke-linejoin:round;stroke-miterlimit:4;stroke-dasharray:none;stroke-opacity:1" />
    <path
       style="opacity:0.75;fill:url(#linearGradient4054);fill-opacity:1;stroke:none;stroke-width:0.1;stroke-linecap:round;stroke-linejoin:round;stroke-miterlimit:4;stroke-dasharray:none;stroke-opacity:1"
       d="M 13.28125,17.25 C 12.834643,18.203737 12.59375,19.252885 12.59375,20.375 C 12.59375,24.469867 15.905133,27.781249 20,27.78125 C 24.094867,27.78125 27.40625,24.469867 27.40625,20.375 C 27.40625,19.252885 27.165357,18.203737 26.71875,17.25 C 26.183966,20.484786 23.385583,22.96875 20,22.96875 C 16.614417,22.96875 13.816034,20.484786 13.28125,17.25 z"
       id="path3719" />
    <path
       id="path3728"
       d="M 13.28125,17.25 C 13.00666,17.836392 12.829634,18.47169 12.71875,19.125 C 13.387725,22.533945 16.395992,25.09375 20,25.09375 C 23.604008,25.09375 26.612274,22.533945 27.28125,19.125 C 27.170366,18.47169 26.99334,17.836392 26.71875,17.25 C 26.183966,20.484786 23.385583,22.96875 20,22.96875 C 16.614417,22.96875 13.816034,20.484786 13.28125,17.25 z"
       style="opacity:0.34980989;fill:url(#radialGradient4051);fill-opacity:1;stroke:none;stroke-width:0.1;stroke-linecap:round;stroke-linejoin:round;stroke-miterlimit:4;stroke-dasharray:none;stroke-opacity:1" />
    <path
       id="path3730"
       d="M 12.90625,18.34375 C 12.834984,18.594708 12.763074,18.86385 12.71875,19.125 C 12.763598,18.860765 12.837684,18.600048 12.90625,18.34375 z M 12.71875,19.125 C 12.649287,19.534266 12.59375,19.942802 12.59375,20.375 C 12.59375,24.469867 15.905133,27.781249 20,27.78125 C 24.094867,27.78125 27.40625,24.469867 27.40625,20.375 C 27.40625,19.942802 27.350713,19.534266 27.28125,19.125 C 26.612274,22.533945 23.604008,25.09375 20,25.09375 C 16.395992,25.09375 13.387725,22.533945 12.71875,19.125 z M 27.28125,19.125 C 27.236926,18.86385 27.165016,18.594708 27.09375,18.34375 C 27.162316,18.600048 27.236402,18.860765 27.28125,19.125 z"
       style="opacity:0.3536122;fill:url(#radialGradient4048);fill-opacity:1;stroke:none;stroke-width:0.1;stroke-linecap:round;stroke-linejoin:round;stroke-miterlimit:4;stroke-dasharray:none;stroke-opacity:1" />
    <path
       sodipodi:nodetypes="cccccccccccccccccccc"
       id="path3732"
       d="M 4.71875,12.33402 L 4.9375,12.53125 L 9.71875,12.53125 L 9.71875,12.41598 C 8.0563263,12.409875 6.4006497,12.437505 4.71875,12.33402 z M 4.71875,16.33402 L 4.9375,16.53125 L 7.8125,16.53125 L 7.8125,16.41598 C 6.7999545,16.426069 5.7728742,16.407088 4.71875,16.33402 z M 4.71875,20.33402 L 4.9375,20.53125 L 7.8125,20.53125 L 7.8125,20.41598 C 6.7882561,20.416684 5.7633873,20.414889 4.71875,20.33402 z M 4.71875,24.33402 L 4.9375,24.53125 L 7.8125,24.53125 L 7.8125,24.41598 C 6.7883991,24.417256 5.7632796,24.414459 4.71875,24.33402 z"
       style="opacity:0.3;fill:#ffffff;fill-opacity:1;stroke:none;stroke-width:0.1;stroke-linecap:round;stroke-linejoin:round;stroke-miterlimit:4;stroke-dasharray:none;stroke-opacity:1" />
    <path
       sodipodi:nodetypes="cccccccccccccccccccccccccccccccc"
       style="opacity:0.1;fill:#ffffff;fill-opacity:1;stroke:none;stroke-width:0.1;stroke-linecap:round;stroke-linejoin:round;stroke-miterlimit:4;stroke-dasharray:none;stroke-opacity:1"
       d="M 9.71875,12.414062 L 9.71875,12.53125 L 9.8789062,12.53125 L 9.71875,12.414062 z M 4.71875,14.65625 L 4.9375,14.863281 L 4.9375,14.65625 L 4.71875,14.65625 z M 7.8125,16.414062 L 7.8125,16.53125 L 7.9726562,16.53125 L 7.8125,16.414062 z M 4.71875,18.65625 L 4.9375,18.863281 L 4.9375,18.65625 L 4.71875,18.65625 z M 7.8125,20.414062 L 7.8125,20.53125 L 7.9726562,20.53125 L 7.8125,20.414062 z M 4.71875,22.65625 L 4.9375,22.8125 L 4.9375,22.65625 L 4.71875,22.65625 z M 7.8125,24.414062 L 7.8125,24.53125 L 7.9726562,24.53125 L 7.8125,24.414062 z M 4.71875,26.65625 L 4.9375,26.8125 L 4.9375,26.65625 L 4.71875,26.65625 z"
       id="path3734" />
    <path
       id="path3736"
       d="M 20,7.65625 C 7.3211217,7.65625 4.4375,10.59375 4.4375,10.59375 C 4.4375,10.59375 7.8283777,9.571904 17.03125,9.375 C 17.976714,9.121451 18.974155,8.96875 20,8.96875 C 21.025845,8.96875 22.023286,9.121451 22.96875,9.375 C 32.171621,9.571904 35.562499,10.59375 35.5625,10.59375 C 35.562499,10.59375 32.678876,7.65625 20,7.65625 z M 4.4375,29.46875 C 4.4374999,29.46875 7.3211217,32.40625 20,32.40625 C 32.678876,32.406252 35.5625,29.46875 35.5625,29.46875 C 35.5625,29.46875 31.521003,31.812501 20,31.8125 C 8.478995,31.8125 4.4374999,29.46875 4.4375,29.46875 z"
       style="opacity:0.65;fill:url(#radialGradient4043);fill-opacity:1;stroke:none;stroke-width:0.1;stroke-linecap:round;stroke-linejoin:round;stroke-miterlimit:4;stroke-dasharray:none;stroke-opacity:1" />
    <path
       sodipodi:nodetypes="ccccc"
       id="path3738"
       d="M 36.28125,10.15625 L 32.28125,6.15625 L 31.78125,6.84375 L 35.625,10.6875 L 36.28125,10.15625 z"
       style="opacity:0.15;fill:url(#linearGradient4040);fill-opacity:1;stroke:none;stroke-width:0.1;stroke-linecap:round;stroke-linejoin:round;stroke-miterlimit:4;stroke-dasharray:none;stroke-opacity:1" />
    <path
       sodipodi:nodetypes="ccccc"
       id="path3740"
       d="M 35.625,10.6875 L 35.625,37.3125 L 36.28125,37.90625 L 36.28125,10.15625 L 35.625,10.6875 z"
       style="opacity:0.1;fill:url(#linearGradient4037);fill-opacity:1;stroke:none;stroke-width:0.1;stroke-linecap:round;stroke-linejoin:round;stroke-miterlimit:4;stroke-dasharray:none;stroke-opacity:1" />
    <path
       sodipodi:nodetypes="ccccc"
       id="path3742"
       d="M 35.625,37.3125 L 4.375,37.3125 L 3.71875,37.90625 L 36.28125,37.90625 L 35.625,37.3125 z"
       style="opacity:0.4;fill:url(#linearGradient4034);fill-opacity:1;stroke:none;stroke-width:0.1;stroke-linecap:round;stroke-linejoin:round;stroke-miterlimit:4;stroke-dasharray:none;stroke-opacity:1" />
    <path
       sodipodi:nodetypes="ccccc"
       id="path3744"
       d="M 3.71875,10.15625 L 3.71875,37.90625 L 4.375,37.3125 L 4.375,10.6875 L 3.71875,10.15625 z"
       style="opacity:0.3;fill:url(#linearGradient4031);fill-opacity:1;stroke:none;stroke-width:0.1;stroke-linecap:round;stroke-linejoin:round;stroke-miterlimit:4;stroke-dasharray:none;stroke-opacity:1" />
    <path
       id="path3746"
       d="M 7.71875,6.15625 L 3.71875,10.15625 L 4.375,10.6875 L 8.21875,6.84375 L 7.71875,6.15625 z"
       style="opacity:0.15;fill:url(#linearGradient4028);fill-opacity:1;stroke:none;stroke-width:0.1;stroke-linecap:round;stroke-linejoin:round;stroke-miterlimit:4;stroke-dasharray:none;stroke-opacity:1" />
    <path
       sodipodi:nodetypes="ccccc"
       id="path3748"
       d="M 7.71875,6.15625 L 8.21875,6.84375 L 31.78125,6.84375 L 32.28125,6.15625 L 7.71875,6.15625 z"
       style="opacity:0.2;fill:url(#linearGradient4025);fill-opacity:1;stroke:none;stroke-width:0.1;stroke-linecap:round;stroke-linejoin:round;stroke-miterlimit:4;stroke-dasharray:none;stroke-opacity:1" />
    <path
       id="path3789"
       d="M 5.3125,14.125 L 5.3125,14.40625 L 6.1875,14.40625 L 6.1875,14.125 L 5.3125,14.125 z M 7.3125,14.125 L 7.3125,14.40625 L 8.1875,14.40625 L 8.1875,14.125 L 7.3125,14.125 z"
       style="opacity:0.26996233;fill:url(#linearGradient3983);fill-opacity:1;stroke:none;stroke-width:0.1;stroke-linecap:round;stroke-linejoin:round;stroke-miterlimit:4;stroke-dasharray:none;stroke-opacity:1" />
    <path
       id="path3791"
       d="M 13.28125,17.25 C 12.834643,18.203737 12.59375,19.252885 12.59375,20.375 C 12.59375,24.469867 15.905133,27.781249 20,27.78125 C 24.094867,27.78125 27.40625,24.469867 27.40625,20.375 C 27.40625,19.252885 27.165357,18.203737 26.71875,17.25 C 26.183966,20.484786 23.385583,22.96875 20,22.96875 C 16.614417,22.96875 13.816034,20.484786 13.28125,17.25 z"
       style="opacity:0.2;fill:url(#radialGradient3980);fill-opacity:1;stroke:none;stroke-width:0.1;stroke-linecap:round;stroke-linejoin:round;stroke-miterlimit:4;stroke-dasharray:none;stroke-opacity:1" />
    <path
       style="opacity:0.1;fill:url(#linearGradient3974);fill-opacity:1;stroke:none;stroke-width:0.10000000000000001;stroke-linecap:round;stroke-linejoin:round;stroke-miterlimit:4;stroke-dasharray:none;stroke-opacity:1"
       d="M 35.625,10.6875 L 35.625,37.3125 L 36.28125,37.90625 L 36.28125,10.15625 L 35.625,10.6875 z"
       id="path3795"
       sodipodi:nodetypes="ccccc" />
    <path
       transform="matrix(0.9515839,-0.3073892,0.3073892,0.9515839,0.5569689,5.9166077)"
       d="M 17.1875,9.09375 A 2.84375,0.65625 0 1 1 11.5,9.09375 A 2.84375,0.65625 0 1 1 17.1875,9.09375 z"
       sodipodi:ry="0.65625"
       sodipodi:rx="2.84375"
       sodipodi:cy="9.09375"
       sodipodi:cx="14.34375"
       id="path3797"
       style="opacity:0.5;fill:url(#radialGradient3929);fill-opacity:1;stroke:none;stroke-width:0.1;stroke-linecap:round;stroke-linejoin:round;stroke-miterlimit:4;stroke-dasharray:none;stroke-opacity:1"
       sodipodi:type="arc" />
    <path
       sodipodi:type="arc"
       style="opacity:0.5;fill:url(#radialGradient3931);fill-opacity:1;stroke:none;stroke-width:0.1;stroke-linecap:round;stroke-linejoin:round;stroke-miterlimit:4;stroke-dasharray:none;stroke-opacity:1"
       id="path3799"
       sodipodi:cx="14.34375"
       sodipodi:cy="9.09375"
       sodipodi:rx="2.84375"
       sodipodi:ry="0.65625"
       d="M 17.1875,9.09375 A 2.84375,0.65625 0 1 1 11.5,9.09375 A 2.84375,0.65625 0 1 1 17.1875,9.09375 z"
       transform="matrix(0.809024,-0.5877755,0.5877755,0.809024,-2.9646877,12.712708)" />
    <path
       id="path4091"
       d="M 20,10.96875 C 14.801133,10.96875 10.593752,15.176132 10.59375,20.375 C 10.59375,25.573867 14.801132,29.78125 20,29.78125 C 25.198867,29.78125 29.40625,25.573866 29.40625,20.375 C 29.40625,15.176133 25.198866,10.96875 20,10.96875 z M 20,12.96875 C 24.094867,12.96875 27.40625,16.280133 27.40625,20.375 C 27.406251,24.469867 24.094867,27.78125 20,27.78125 C 15.905133,27.781249 12.59375,24.469867 12.59375,20.375 C 12.593748,16.280133 15.905133,12.96875 20,12.96875 z"
       style="opacity:0.35;fill:url(#linearGradient4093);fill-opacity:1;stroke:none;stroke-width:0.1;stroke-linecap:round;stroke-linejoin:round;stroke-miterlimit:4;stroke-dasharray:none;stroke-opacity:1" />
    <path
       id="path4095"
       d="M 8.90625,2.53125 L 7.71875,6.15625 L 16.28125,6.15625 C 5.5744249,6.2335493 8.8704395,6.1452704 8.90625,2.53125 z"
       style="opacity:0.25;fill:url(#linearGradient4097);fill-opacity:1;stroke:none;stroke-width:0.10000000000000001;stroke-linecap:round;stroke-linejoin:round;stroke-miterlimit:4;stroke-dasharray:none;stroke-opacity:1"
       sodipodi:nodetypes="cccc" />
    <path
       id="path3751"
       d="M 13.40625,29 L 12.1875,40 L 27.8125,40 L 26.59375,29 L 13.40625,29 z"
       style="fill:#eeeeee;fill-opacity:1;stroke:none;stroke-width:0.1;stroke-linecap:round;stroke-linejoin:round;stroke-miterlimit:4;stroke-opacity:1" />
    <path
       id="path3753"
       d="M 13.40625,29 L 12.1875,40 L 13.625,40 L 14.59375,29 L 13.40625,29 z"
       style="fill:url(#linearGradient4021);fill-opacity:1;stroke:none;stroke-width:0.1;stroke-linecap:round;stroke-linejoin:round;stroke-miterlimit:4;stroke-opacity:1" />
    <path
       id="path3756"
       d="M 25.40625,29 L 26.375,40 L 27.8125,40 L 26.59375,29 L 25.40625,29 z"
       style="fill:url(#linearGradient4018);fill-opacity:1;stroke:none;stroke-width:0.1;stroke-linecap:round;stroke-linejoin:round;stroke-miterlimit:4;stroke-opacity:1" />
    <path
       sodipodi:nodetypes="ccccc"
       style="fill:#dddddd;fill-opacity:1;stroke:none;stroke-width:0.1;stroke-linecap:round;stroke-linejoin:round;stroke-miterlimit:4;stroke-opacity:1"
       d="M 13.40625,29 C 14.023067,31.404613 14.637547,33.808759 14.1875,36 C 17.910914,35.77262 21.660073,35.583859 25.8125,36 C 25.109818,32.864084 26.073283,31.116625 26.59375,29 C 22.061962,28.048321 17.722729,28.444518 13.40625,29 z"
       id="path3758" />
    <path
       id="path3760"
       d="M 13.40625,29 C 14.023067,31.404613 14.637547,33.808759 14.1875,36 C 17.910914,35.77262 21.660073,35.583859 25.8125,36 C 25.109818,32.864084 26.073283,31.116625 26.59375,29 C 22.061962,28.048321 17.722729,28.444518 13.40625,29 z"
       style="opacity:0.3;fill:url(#radialGradient4014);fill-opacity:1;stroke:none;stroke-width:0.1;stroke-linecap:round;stroke-linejoin:round;stroke-miterlimit:4;stroke-opacity:1"
       sodipodi:nodetypes="ccccc" />
    <path
       id="path3762"
       d="M 13.40625,29 C 15.031894,31.559817 16.42274,34.083404 14.1875,36 C 17.759351,35.317931 21.382628,34.751523 25.8125,36 C 23.228249,32.350929 25.78868,31.039006 26.59375,29 C 22.929117,30.823215 19.022542,32.603921 13.40625,29 z"
       style="opacity:0.35;fill:url(#radialGradient4011);fill-opacity:1;stroke:none;stroke-width:0.1;stroke-linecap:round;stroke-linejoin:round;stroke-miterlimit:4;stroke-opacity:1"
       sodipodi:nodetypes="ccccc" />
    <path
       id="path3764"
       d="M 19.90625,28.4375 C 17.715408,28.487025 15.564489,28.722259 13.40625,29 C 19.022542,32.603921 22.929117,30.823215 26.59375,29 C 24.327856,28.524161 22.097092,28.387975 19.90625,28.4375 z"
       style="opacity:0.35;fill:url(#radialGradient4008);fill-opacity:1;stroke:none;stroke-width:0.1;stroke-linecap:round;stroke-linejoin:round;stroke-miterlimit:4;stroke-opacity:1" />
    <path
       id="path3766"
       d="M 26.59375,29 C 25.78868,31.039006 23.228249,32.350929 25.8125,36 C 25.109818,32.864084 26.073283,31.116625 26.59375,29 z"
       style="opacity:0.5;fill:url(#linearGradient4005);fill-opacity:1;stroke:none;stroke-width:0.1;stroke-linecap:round;stroke-linejoin:round;stroke-miterlimit:4;stroke-opacity:1" />
    <path
       id="path3768"
       d="M 25.8125,36 C 21.382628,34.751523 17.759351,35.317931 14.1875,36 C 17.910914,35.77262 21.660073,35.583859 25.8125,36 z"
       style="opacity:0.5;fill:url(#linearGradient4002);fill-opacity:1;stroke:none;stroke-width:0.1;stroke-linecap:round;stroke-linejoin:round;stroke-miterlimit:4;stroke-opacity:1" />
    <path
       id="path3771"
       d="M 14.1875,36 C 16.42274,34.083404 15.031894,31.559817 13.40625,29 C 14.023067,31.404613 14.637547,33.808759 14.1875,36 z"
       style="opacity:0.4;fill:url(#linearGradient3999);fill-opacity:1;stroke:none;stroke-width:0.1;stroke-linecap:round;stroke-linejoin:round;stroke-miterlimit:4;stroke-opacity:1" />
    <path
       sodipodi:nodetypes="csccc"
       id="path3775"
       d="M 25.8125,36 C 21.660073,35.583859 17.910914,35.77262 14.1875,36 C 14.353049,35.98989 14.63951,36.433449 14.59375,36.65625 C 18.317164,36.428869 22.066323,36.240109 26.21875,36.65625 C 26.21875,36.65625 25.8125,36 25.8125,36 z"
       style="opacity:0.20152091;fill:url(#linearGradient3996);fill-opacity:1;stroke:none;stroke-width:0.1;stroke-linecap:round;stroke-linejoin:round;stroke-miterlimit:4;stroke-opacity:1" />
    <path
       id="path3777"
       d="M 13.40625,29 C 14.023067,31.404613 14.637547,33.808759 14.1875,36 C 17.910914,35.77262 21.660073,35.583859 25.8125,36 C 25.109818,32.864084 26.073283,31.116625 26.59375,29 C 22.061962,28.048321 17.722729,28.444518 13.40625,29 z"
       style="fill:url(#radialGradient3993);fill-opacity:1;stroke:none;stroke-width:0.1;stroke-linecap:round;stroke-linejoin:round;stroke-miterlimit:4;stroke-opacity:1"
       sodipodi:nodetypes="ccccc" />
    <path
       sodipodi:nodetypes="ccccc"
       style="opacity:0.20152091;fill:url(#linearGradient3990);fill-opacity:1;stroke:none;stroke-width:0.1;stroke-linecap:round;stroke-linejoin:round;stroke-miterlimit:4;stroke-opacity:1"
       d="M 26.59375,29 C 26.073283,31.116625 25.109818,32.864084 25.8125,36 C 25.8125,36 26.21875,36.65625 26.21875,36.65625 C 25.516068,33.520333 26.479533,31.772875 27,29.65625 C 26.811175,29.616597 26.546052,29.193976 26.59375,29 z"
       id="path3779" />
    <path
       sodipodi:nodetypes="ccccc"
       style="opacity:0.3;fill:#bfd9ff;fill-opacity:1;stroke:none;stroke-width:0.1;stroke-linecap:round;stroke-linejoin:round;stroke-miterlimit:4;stroke-opacity:1"
       d="M 13.40625,29 C 14.023067,31.404613 14.637547,33.808759 14.1875,36 C 17.910914,35.77262 21.660073,35.583859 25.8125,36 C 25.109818,32.864084 26.073283,31.116625 26.59375,29 C 22.061962,28.048321 17.722729,28.444518 13.40625,29 z"
       id="path3781" />
    <rect
       y="30"
       x="-0.0019644466"
       height="10.004759"
       width="40.001965"
       id="rect3783"
       style="opacity:0.61162792;fill:#555753;fill-opacity:1;fill-rule:nonzero;stroke:none;stroke-width:0.69999999;stroke-linecap:round;stroke-linejoin:miter;stroke-miterlimit:4;stroke-dasharray:none;stroke-opacity:1" />
    <path
       style="opacity:0.5;fill:url(#linearGradient3682);fill-opacity:1;stroke:none;stroke-width:0.1;stroke-linecap:round;stroke-linejoin:round;stroke-miterlimit:4;stroke-opacity:1"
       d="M 19.90625,28.4375 C 17.715408,28.487025 15.564489,28.722259 13.40625,29 L 12.1875,40 L 27.8125,40 L 26.59375,29 C 24.327856,28.524161 22.097092,28.387975 19.90625,28.4375 z"
       id="path2901" />
    <text
       id="text3785"
       y="39.168156"
       x="12.918945"
       style="font-size:12px;font-style:normal;font-weight:normal;fill:#eeeeec;fill-opacity:1;stroke:none;stroke-width:1px;stroke-linecap:butt;stroke-linejoin:miter;stroke-opacity:1;font-family:Bitstream Vera Sans"
       xml:space="preserve"><tspan
         y="39.168156"
         x="12.918945"
         id="tspan3787"
         sodipodi:role="line">Lu</tspan></text>
  </g>
</svg>
