<?xml version="1.0" encoding="UTF-8" standalone="no"?>
<!-- Created with Inkscape (http://www.inkscape.org/) -->
<svg
   xmlns:dc="http://purl.org/dc/elements/1.1/"
   xmlns:cc="http://creativecommons.org/ns#"
   xmlns:rdf="http://www.w3.org/1999/02/22-rdf-syntax-ns#"
   xmlns:svg="http://www.w3.org/2000/svg"
   xmlns="http://www.w3.org/2000/svg"
   xmlns:xlink="http://www.w3.org/1999/xlink"
   xmlns:sodipodi="http://sodipodi.sourceforge.net/DTD/sodipodi-0.dtd"
   xmlns:inkscape="http://www.inkscape.org/namespaces/inkscape"
   width="40"
   height="40"
   id="svg2193"
   sodipodi:version="0.32"
   inkscape:version="0.46"
   version="1.0"
   sodipodi:docbase="/home/jra/Desktop"
   sodipodi:docname="73.svg"
   inkscape:output_extension="org.inkscape.output.svg.inkscape">
  <defs
     id="defs2195">
    <inkscape:perspective
       sodipodi:type="inkscape:persp3d"
       inkscape:vp_x="0 : 20 : 1"
       inkscape:vp_y="0 : 1000 : 0"
       inkscape:vp_z="40 : 20 : 1"
       inkscape:persp3d-origin="20 : 13.333333 : 1"
       id="perspective52" />
    <linearGradient
       id="linearGradient3321">
      <stop
         id="stop3323"
         offset="0"
         style="stop-color:#000000;stop-opacity:0;" />
      <stop
         id="stop3327"
         offset="1"
         style="stop-color:#000000;stop-opacity:1;" />
    </linearGradient>
    <linearGradient
       id="linearGradient3309">
      <stop
         style="stop-color:#000000;stop-opacity:0;"
         offset="0"
         id="stop3311" />
      <stop
         id="stop3315"
         offset="0.88508391"
         style="stop-color:#000000;stop-opacity:0.33742332;" />
      <stop
         style="stop-color:#000000;stop-opacity:1;"
         offset="1"
         id="stop3313" />
    </linearGradient>
    <linearGradient
       id="linearGradient3253">
      <stop
         style="stop-color:#000000;stop-opacity:1"
         offset="0"
         id="stop3255" />
      <stop
         id="stop3259"
         offset="0.5"
         style="stop-color:#ffffff;stop-opacity:1;" />
      <stop
         style="stop-color:#000000;stop-opacity:1;"
         offset="1"
         id="stop3257" />
    </linearGradient>
    <linearGradient
       id="linearGradient3239">
      <stop
         style="stop-color:#ffffff;stop-opacity:1;"
         offset="0"
         id="stop3241" />
      <stop
         style="stop-color:#eeeeec;stop-opacity:0;"
         offset="1"
         id="stop3243" />
    </linearGradient>
    <linearGradient
       id="linearGradient3291">
      <stop
         id="stop3293"
         offset="0"
         style="stop-color:#000000;stop-opacity:1;" />
      <stop
         id="stop3295"
         offset="1"
         style="stop-color:#000000;stop-opacity:0;" />
    </linearGradient>
    <radialGradient
       inkscape:collect="always"
       xlink:href="#linearGradient3291"
       id="radialGradient2595"
       gradientUnits="userSpaceOnUse"
       gradientTransform="matrix(1,0,0,0.197802,0,92.82166)"
       cx="63.912209"
       cy="115.70919"
       fx="75.857941"
       fy="115.70919"
       r="63.912209" />
    <linearGradient
       inkscape:collect="always"
       xlink:href="#linearGradient3253"
       id="linearGradient3248"
       x1="17.554829"
       y1="20.796875"
       x2="18.375"
       y2="20.796875"
       gradientUnits="userSpaceOnUse"
       gradientTransform="translate(0,6)" />
    <linearGradient
       inkscape:collect="always"
       xlink:href="#linearGradient3253"
       id="linearGradient3251"
       x1="21.554829"
       y1="19.75"
       x2="22.375"
       y2="19.75"
       gradientUnits="userSpaceOnUse"
       gradientTransform="translate(0,6)" />
    <linearGradient
       inkscape:collect="always"
       xlink:href="#linearGradient3291"
       id="linearGradient3277"
       x1="21.225027"
       y1="12.229586"
       x2="21.230389"
       y2="12.809135"
       gradientUnits="userSpaceOnUse"
       gradientTransform="translate(0,6)" />
    <radialGradient
       inkscape:collect="always"
       xlink:href="#linearGradient3309"
       id="radialGradient3307"
       cx="19.776451"
       cy="8.4646368"
       fx="19.776451"
       fy="8.4646368"
       r="3.3787229"
       gradientTransform="matrix(0.9576133,1.5035951e-4,-2.8022552e-4,1.784803,0.8797681,-0.1253042)"
       gradientUnits="userSpaceOnUse" />
    <radialGradient
       inkscape:collect="always"
       xlink:href="#linearGradient3321"
       id="radialGradient3319"
       gradientUnits="userSpaceOnUse"
       gradientTransform="matrix(1.0606447,-4.7707994e-3,1.0183649e-2,2.2640243,-1.2251599,-3.2152662)"
       cx="19.754522"
       cy="6.6507421"
       fx="19.754522"
       fy="6.6507421"
       r="3.3787229" />
    <radialGradient
       inkscape:collect="always"
       xlink:href="#linearGradient3239"
       id="radialGradient3333"
       gradientUnits="userSpaceOnUse"
       gradientTransform="matrix(0.5117621,-3.4222179e-3,7.5050504e-3,1.1223127,9.6343088,4.3982013)"
       cx="16.653097"
       cy="7.0741997"
       fx="16.653097"
       fy="7.0741997"
       r="3.3787229" />
    <radialGradient
       inkscape:collect="always"
       xlink:href="#linearGradient3239"
       id="radialGradient3337"
       gradientUnits="userSpaceOnUse"
       gradientTransform="matrix(1.2817569,-1.32073e-2,2.0793637e-2,2.0180023,-3.3532412,-2.5504574)"
       cx="18.215439"
       cy="8.5257063"
       fx="18.215439"
       fy="8.5257063"
       r="3.3787229" />
    <linearGradient
       inkscape:collect="always"
       xlink:href="#linearGradient3291"
       id="linearGradient3357"
       x1="26.074207"
       y1="12.58362"
       x2="15.428447"
       y2="7.34834"
       gradientUnits="userSpaceOnUse"
       gradientTransform="translate(0,6)" />
    <linearGradient
       inkscape:collect="always"
       xlink:href="#linearGradient3291"
       id="linearGradient3269"
       x1="23.515625"
       y1="7.09375"
       x2="18.875"
       y2="7.15625"
       gradientUnits="userSpaceOnUse"
       gradientTransform="translate(0,6)" />
  </defs>
  <sodipodi:namedview
     id="base"
     pagecolor="#ffffff"
     bordercolor="#666666"
     borderopacity="1.0"
     inkscape:pageopacity="0.0"
     inkscape:pageshadow="2"
     inkscape:zoom="16"
     inkscape:cx="24.054737"
     inkscape:cy="13.023548"
     inkscape:current-layer="layer1"
     showgrid="true"
     inkscape:grid-bbox="false"
     inkscape:document-units="px"
     width="40px"
     height="40px"
     inkscape:window-width="1503"
     inkscape:window-height="1051"
     inkscape:window-x="413"
     inkscape:window-y="54" />
  <metadata
     id="metadata2198">
    <rdf:RDF>
      <cc:Work
         rdf:about="">
        <dc:format>image/svg+xml</dc:format>
        <dc:type
           rdf:resource="http://purl.org/dc/dcmitype/StillImage" />
        <dc:creator>
          <cc:Agent>
            <dc:title>Jarle Akselsen</dc:title>
          </cc:Agent>
        </dc:creator>
        <cc:license
           rdf:resource="http://creativecommons.org/licenses/GPL/2.0/" />
      </cc:Work>
      <cc:License
         rdf:about="http://creativecommons.org/licenses/GPL/2.0/">
        <cc:permits
           rdf:resource="http://web.resource.org/cc/Reproduction" />
        <cc:permits
           rdf:resource="http://web.resource.org/cc/Distribution" />
        <cc:requires
           rdf:resource="http://web.resource.org/cc/Notice" />
        <cc:permits
           rdf:resource="http://web.resource.org/cc/DerivativeWorks" />
        <cc:requires
           rdf:resource="http://web.resource.org/cc/ShareAlike" />
        <cc:requires
           rdf:resource="http://web.resource.org/cc/SourceCode" />
      </cc:License>
    </rdf:RDF>
  </metadata>
  <g
     id="layer1"
     inkscape:label="Layer 1"
     inkscape:groupmode="layer">
    <path
       style="opacity:1;fill:#000000;fill-opacity:1;stroke:none;stroke-width:0.2;stroke-miterlimit:4;stroke-opacity:1"
       d="M 17.727842,16.037276 L 18.365347,16.037276 L 18.365347,29.133994 C 18.365347,29.133994 18.244671,29.195465 18.046594,29.195465 C 17.848518,29.195465 17.727842,29.133994 17.727842,29.133994 L 17.727842,16.037276 z"
       id="rect2454"
       sodipodi:nodetypes="ccczcc" />
    <path
       style="opacity:1;fill:#000000;fill-opacity:1;stroke:none;stroke-width:0.2;stroke-miterlimit:4;stroke-opacity:1"
       d="M 21.727842,16.037276 L 22.365347,16.037276 L 22.365347,27.133994 C 22.365347,27.133994 22.244671,27.195465 22.046594,27.195465 C 21.848518,27.195465 21.727842,27.133994 21.727842,27.133994 L 21.727842,16.037276 z"
       id="rect2456"
       sodipodi:nodetypes="ccczcc" />
    <path
       style="fill:#e3ad00;fill-opacity:1;stroke:none;stroke-width:0.2;stroke-miterlimit:4;stroke-opacity:1"
       d="M 23.291521,17.312286 C 23.552707,19.159293 23.389349,18.29752 20.480705,18.29752 C 17.572061,18.29752 16.184565,19.368229 16.742608,17.312286 C 17.285986,15.310372 16.836642,14.872332 16.818211,12.626104 C 16.799782,10.380149 18.283154,9.140634 20.017065,9.140634 C 21.750976,9.140634 22.999764,10.188524 23.042844,12.626104 C 23.085918,15.063349 23.038372,15.522114 23.291521,17.312286 z"
       id="path2458"
       sodipodi:nodetypes="czzzzzz" />
    <path
       style="opacity:0.75;fill:#ffffff;fill-opacity:1;stroke:none;stroke-width:0.2;stroke-miterlimit:4;stroke-dasharray:none;stroke-opacity:1"
       d="M 19.625,11.875 L 19.625,12.0625 L 20.65625,12.5625 L 19.625,13.0625 L 19.625,13.25 L 21,12.59375 L 21,12.5 L 19.625,11.875 z M 21.9375,11.9375 C 21.957584,12.109765 21.955198,12.265235 21.9375,12.4375 L 21.4375,12.4375 L 21.4375,12.59375 L 21.9375,12.59375 L 21.9375,13.09375 L 22.09375,13.09375 L 22.09375,12.59375 C 22.269152,12.586257 22.436088,12.560709 22.59375,12.5 L 22.59375,12.34375 C 22.465089,12.418791 22.275764,12.433596 22.09375,12.4375 C 22.107318,12.27564 22.11877,12.118653 22.09375,11.9375 L 21.9375,11.9375 z M 20.4375,14.03125 C 20.224339,14.03125 20.036418,14.14325 19.9375,14.3125 C 19.844113,14.189429 19.699661,14.09375 19.53125,14.09375 C 19.248486,14.09375 19.03125,14.316641 19.03125,14.59375 C 19.03125,14.870859 19.248486,15.09375 19.53125,15.09375 C 19.705621,15.09375 19.84497,15.005552 19.9375,14.875 C 20.036418,15.04425 20.224339,15.15625 20.4375,15.15625 C 20.754196,15.15625 21.03125,14.904112 21.03125,14.59375 C 21.03125,14.283388 20.754196,14.03125 20.4375,14.03125 z M 20.28125,14.21875 C 20.326501,14.200082 20.383662,14.21875 20.4375,14.21875 C 20.652853,14.21875 20.84375,14.382704 20.84375,14.59375 C 20.84375,14.804796 20.652853,14.96875 20.4375,14.96875 C 20.222147,14.96875 20.0625,14.804796 20.0625,14.59375 C 20.0625,14.435465 20.145497,14.274755 20.28125,14.21875 z M 19.375,14.25 C 19.41624,14.232495 19.48318,14.25 19.53125,14.25 C 19.72353,14.25 19.875,14.405316 19.875,14.59375 C 19.875,14.782184 19.72353,14.9375 19.53125,14.9375 C 19.33897,14.9375 19.1875,14.782184 19.1875,14.59375 C 19.1875,14.452424 19.251281,14.302516 19.375,14.25 z M 21.96875,14.4375 C 21.96875,14.4375 21.986448,14.765234 21.96875,14.9375 L 21.46875,14.9375 L 21.46875,15.09375 L 21.96875,15.09375 L 21.96875,15.625 L 22.125,15.625 L 22.125,15.09375 C 22.300402,15.086257 22.467338,15.060708 22.625,15 L 22.625,14.84375 C 22.496339,14.918791 22.307014,14.933595 22.125,14.9375 C 22.125001,14.9375 22.125,14.4375 22.125,14.4375 L 21.96875,14.4375 z M 19.0625,15.5 L 19.0625,15.6875 L 21,15.6875 L 21,15.5 L 19.0625,15.5 z"
       id="path2534"
       sodipodi:nodetypes="cccccccccccccccccccccccssscssccssssccsssscccccccccccsccccccc" />
    <path
       style="opacity:1;fill:url(#linearGradient3248);fill-opacity:1;stroke:none;stroke-width:0.2;stroke-miterlimit:4;stroke-opacity:1"
       d="M 18.375,18.46875 C 18.121361,18.502949 17.917564,18.511055 17.71875,18.53125 L 17.71875,29.125 C 17.71875,29.125 17.80355,29.211932 18.046875,29.211932 C 18.2902,29.211932 18.375,29.125 18.375,29.125 L 18.375,18.46875 z"
       id="path2462"
       sodipodi:nodetypes="ccczcc" />
    <path
       style="opacity:1;fill:url(#linearGradient3251);fill-opacity:1;stroke:none;stroke-width:0.2;stroke-miterlimit:4;stroke-opacity:1"
       d="M 21.71875,18.375 L 21.71875,27.125 C 21.71875,27.125 21.80355,27.211932 22.046875,27.211932 C 22.2902,27.211932 22.375,27.125 22.375,27.125 L 22.375,18.4375 C 22.183132,18.411903 21.986957,18.400173 21.71875,18.375 z"
       id="path2464"
       sodipodi:nodetypes="cczccc" />
    <path
       style="opacity:0.44672134;fill:url(#linearGradient3277);fill-opacity:1;stroke:none;stroke-width:0.2;stroke-miterlimit:4;stroke-opacity:1"
       d="M 21.71875,18.375 L 21.71875,18.5 C 21.963564,18.512927 22.179432,18.511104 22.375,18.53125 L 22.375,18.4375 C 22.183132,18.411903 21.986957,18.400173 21.71875,18.375 z M 18.375,18.46875 C 18.121361,18.502949 17.917564,18.511055 17.71875,18.53125 L 17.71875,18.71875 C 17.882123,18.728054 18.141669,18.714501 18.375,18.6875 L 18.375,18.46875 z"
       id="path3261" />
    <path
       sodipodi:nodetypes="czzzzzz"
       id="path3299"
       d="M 23.291521,17.312286 C 23.552707,19.159293 23.389349,18.29752 20.480705,18.29752 C 17.572061,18.29752 16.184565,19.368229 16.742608,17.312286 C 17.285986,15.310372 16.836642,14.872332 16.818211,12.626104 C 16.799782,10.380149 18.283154,9.140634 20.017065,9.140634 C 21.750976,9.140634 22.999764,10.188524 23.042844,12.626104 C 23.085918,15.063349 23.038372,15.522114 23.291521,17.312286 z"
       style="opacity:0.15;fill:url(#radialGradient3307);fill-opacity:1;stroke:none;stroke-width:0.2;stroke-miterlimit:4;stroke-opacity:1" />
    <path
       style="opacity:0.35;fill:url(#radialGradient3319);fill-opacity:1;stroke:none;stroke-width:0.2;stroke-miterlimit:4;stroke-opacity:1"
       d="M 23.291521,17.312286 C 23.552707,19.159293 23.389349,18.29752 20.480705,18.29752 C 17.572061,18.29752 16.184565,19.368229 16.742608,17.312286 C 17.285986,15.310372 16.836642,14.872332 16.818211,12.626104 C 16.799782,10.380149 18.283154,9.140634 20.017065,9.140634 C 21.750976,9.140634 22.999764,10.188524 23.042844,12.626104 C 23.085918,15.063349 23.038372,15.522114 23.291521,17.312286 z"
       id="path3317"
       sodipodi:nodetypes="czzzzzz" />
    <path
       sodipodi:nodetypes="czzzzzz"
       id="path3331"
       d="M 23.291521,17.312286 C 23.552707,19.159293 23.389349,18.29752 20.480705,18.29752 C 17.572061,18.29752 16.184565,19.368229 16.742608,17.312286 C 17.285986,15.310372 16.836642,14.872332 16.818211,12.626104 C 16.799782,10.380149 18.283154,9.140634 20.017065,9.140634 C 21.750976,9.140634 22.999764,10.188524 23.042844,12.626104 C 23.085918,15.063349 23.038372,15.522114 23.291521,17.312286 z"
       style="opacity:0.5;fill:url(#radialGradient3333);fill-opacity:1;stroke:none;stroke-width:0.2;stroke-miterlimit:4;stroke-opacity:1" />
    <path
       style="opacity:0.25;fill:url(#radialGradient3337);fill-opacity:1;stroke:none;stroke-width:0.2;stroke-miterlimit:4;stroke-opacity:1"
       d="M 20.03125,9.15625 C 18.514078,9.15625 17.170287,10.101884 16.875,11.84375 C 16.845196,12.057344 16.810563,12.263889 16.8125,12.5 C 16.812807,12.537363 16.811962,12.557372 16.8125,12.59375 C 16.812518,12.604859 16.812408,12.613842 16.8125,12.625 C 16.820894,13.118844 16.841986,13.552469 16.875,13.90625 C 16.878125,13.941677 16.871786,13.996809 16.875,14.03125 C 16.907607,14.361068 16.979432,14.655494 17,14.9375 C 17.003254,14.976066 16.99721,15.024242 17,15.0625 C 17.016294,15.341781 17.029749,15.624527 17,15.9375 C 16.972555,16.328148 16.902825,16.749462 16.75,17.3125 C 16.690305,17.532427 16.640689,17.690241 16.625,17.84375 C 16.622356,17.869622 16.626411,17.913344 16.625,17.9375 C 16.625814,17.980482 16.619407,18.025678 16.625,18.0625 C 16.752249,18.900197 18.105477,18.1875 20.46875,18.1875 C 22.650233,18.1875 23.302901,18.661833 23.375,18.125 C 23.383739,18.059929 23.381124,17.972772 23.375,17.875 C 23.372592,17.850157 23.377976,17.807982 23.375,17.78125 C 23.359625,17.643133 23.308604,17.505937 23.28125,17.3125 C 23.274487,17.264676 23.287591,17.233487 23.28125,17.1875 C 23.223172,16.776797 23.187399,16.466767 23.15625,16.15625 C 23.121371,15.791354 23.106207,15.451082 23.09375,15.09375 C 23.068609,14.450631 23.052787,13.718622 23.03125,12.5 C 23.021951,12.24564 23.004268,12.004594 22.96875,11.78125 C 22.677158,9.947689 21.548422,9.15625 20.03125,9.15625 z"
       id="path3335" />
    <path
       style="opacity:0.5;fill:url(#linearGradient3357);fill-opacity:1;stroke:none;stroke-width:0.2;stroke-miterlimit:4;stroke-opacity:1"
       d="M 20.03125,9.15625 C 18.297339,9.15625 16.794071,10.379045 16.8125,12.625 C 16.830931,14.871228 17.293379,15.310586 16.75,17.3125 C 16.191957,19.368443 17.560106,18.3125 20.46875,18.3125 C 23.377394,18.3125 23.542436,19.159507 23.28125,17.3125 C 23.028101,15.522328 23.074323,15.062245 23.03125,12.625 C 22.98817,10.18742 21.765161,9.15625 20.03125,9.15625 z M 20.03125,9.25 C 20.87806,9.25 21.580734,9.487174 22.09375,10.03125 C 22.606766,10.575326 22.916257,11.423026 22.9375,12.625 C 22.980546,15.060723 22.933776,15.518264 23.1875,17.3125 C 23.252745,17.773888 23.301482,18.068111 23.28125,18.21875 C 23.271134,18.294069 23.24245,18.32413 23.21875,18.34375 C 23.19505,18.36337 23.144384,18.402851 23.0625,18.40625 C 22.898732,18.413048 22.610056,18.364715 22.1875,18.3125 C 21.764944,18.260285 21.200849,18.1875 20.46875,18.1875 C 19.002157,18.1875 17.927221,18.458499 17.3125,18.46875 C 17.15882,18.471313 17.024561,18.468665 16.9375,18.4375 C 16.850439,18.406335 16.818168,18.353045 16.78125,18.28125 C 16.707415,18.137659 16.706409,17.849743 16.84375,17.34375 C 17.117748,16.334288 17.14098,15.710049 17.09375,15.0625 C 17.04652,14.414951 16.915411,13.7415 16.90625,12.625 C 16.897218,11.524187 17.278405,10.695508 17.84375,10.125 C 18.409095,9.554492 19.188123,9.25 20.03125,9.25 z"
       id="path3342" />
    <path
       id="path3322"
       d="M 19.625,11.875 L 19.625,12.0625 L 20.65625,12.5625 L 19.625,13.0625 L 19.625,13.25 L 21,12.59375 L 21,12.5 L 19.625,11.875 z M 21.9375,11.9375 C 21.957584,12.109765 21.955198,12.265235 21.9375,12.4375 L 21.4375,12.4375 L 21.4375,12.59375 L 21.9375,12.59375 L 21.9375,13.09375 L 22.09375,13.09375 L 22.09375,12.59375 C 22.269152,12.586257 22.436088,12.560709 22.59375,12.5 L 22.59375,12.34375 C 22.465089,12.418791 22.275764,12.433596 22.09375,12.4375 C 22.107318,12.27564 22.11877,12.118653 22.09375,11.9375 L 21.9375,11.9375 z M 20.4375,14.03125 C 20.224339,14.03125 20.036418,14.14325 19.9375,14.3125 C 19.844113,14.189429 19.699661,14.09375 19.53125,14.09375 C 19.248486,14.09375 19.03125,14.316641 19.03125,14.59375 C 19.03125,14.870859 19.248486,15.09375 19.53125,15.09375 C 19.705621,15.09375 19.84497,15.005552 19.9375,14.875 C 20.036418,15.04425 20.224339,15.15625 20.4375,15.15625 C 20.754196,15.15625 21.03125,14.904112 21.03125,14.59375 C 21.03125,14.283388 20.754196,14.03125 20.4375,14.03125 z M 20.28125,14.21875 C 20.326501,14.200082 20.383662,14.21875 20.4375,14.21875 C 20.652853,14.21875 20.84375,14.382704 20.84375,14.59375 C 20.84375,14.804796 20.652853,14.96875 20.4375,14.96875 C 20.222147,14.96875 20.0625,14.804796 20.0625,14.59375 C 20.0625,14.435465 20.145497,14.274755 20.28125,14.21875 z M 19.375,14.25 C 19.41624,14.232495 19.48318,14.25 19.53125,14.25 C 19.72353,14.25 19.875,14.405316 19.875,14.59375 C 19.875,14.782184 19.72353,14.9375 19.53125,14.9375 C 19.33897,14.9375 19.1875,14.782184 19.1875,14.59375 C 19.1875,14.452424 19.251281,14.302516 19.375,14.25 z M 21.96875,14.4375 C 21.96875,14.4375 21.986448,14.765234 21.96875,14.9375 L 21.46875,14.9375 L 21.46875,15.09375 L 21.96875,15.09375 L 21.96875,15.625 L 22.125,15.625 L 22.125,15.09375 C 22.300402,15.086257 22.467338,15.060708 22.625,15 L 22.625,14.84375 C 22.496339,14.918791 22.307014,14.933595 22.125,14.9375 C 22.125001,14.9375 22.125,14.4375 22.125,14.4375 L 21.96875,14.4375 z M 19.0625,15.5 L 19.0625,15.6875 L 21,15.6875 L 21,15.5 L 19.0625,15.5 z"
       style="opacity:0.15;fill:url(#linearGradient3269);fill-opacity:1;stroke:none;stroke-width:0.2;stroke-miterlimit:4;stroke-dasharray:none;stroke-opacity:1"
       sodipodi:nodetypes="cccccccccccccccccccccccssscssccssssccsssscccccccccccsccccccc" />
    <path
       transform="matrix(0.1037632,0,0,0.1994679,15.70576,7.864383)"
       d="M 127.82442,115.70919 A 63.912209,12.641975 0 1 1 0,115.70919 A 63.912209,12.641975 0 1 1 127.82442,115.70919 z"
       sodipodi:ry="12.641975"
       sodipodi:rx="63.912209"
       sodipodi:cy="115.70919"
       sodipodi:cx="63.912209"
       id="path2593"
       style="opacity:0.15;fill:url(#radialGradient2595);fill-opacity:1;fill-rule:nonzero;stroke:none;stroke-width:0;stroke-linecap:round;stroke-linejoin:round;stroke-miterlimit:4;stroke-dasharray:none;stroke-dashoffset:4;stroke-opacity:1"
       sodipodi:type="arc" />
    <rect
       style="opacity:0.61162792;fill:#555753;fill-opacity:1;fill-rule:nonzero;stroke:none;stroke-width:0.69999999;stroke-linecap:round;stroke-linejoin:miter;stroke-miterlimit:4;stroke-dasharray:none;stroke-opacity:1"
       id="rect1951"
       width="40.001965"
       height="10.004759"
       x="-0.0019644466"
       y="30" />
    <text
       xml:space="preserve"
       style="font-size:12px;font-style:normal;font-weight:normal;fill:#eeeeec;fill-opacity:1;stroke:none;stroke-width:1px;stroke-linecap:butt;stroke-linejoin:miter;stroke-opacity:1;font-family:Bitstream Vera Sans"
       x="14.261379"
       y="39.168156"
       id="text2840"><tspan
         sodipodi:role="line"
         id="tspan2842"
         x="14.261379"
         y="39.168156">Ta</tspan></text>
  </g>
</svg>
