<?xml version="1.0" encoding="UTF-8" standalone="no"?>
<!-- Created with Inkscape (http://www.inkscape.org/) -->
<svg
   xmlns:dc="http://purl.org/dc/elements/1.1/"
   xmlns:cc="http://creativecommons.org/ns#"
   xmlns:rdf="http://www.w3.org/1999/02/22-rdf-syntax-ns#"
   xmlns:svg="http://www.w3.org/2000/svg"
   xmlns="http://www.w3.org/2000/svg"
   xmlns:xlink="http://www.w3.org/1999/xlink"
   xmlns:sodipodi="http://sodipodi.sourceforge.net/DTD/sodipodi-0.dtd"
   xmlns:inkscape="http://www.inkscape.org/namespaces/inkscape"
   width="40"
   height="40"
   id="svg2193"
   sodipodi:version="0.32"
   inkscape:version="0.46"
   version="1.0"
   sodipodi:docbase="/home/jra/Desktop"
   sodipodi:docname="74.svg"
   inkscape:output_extension="org.inkscape.output.svg.inkscape">
  <defs
     id="defs2195">
    <linearGradient
       inkscape:collect="always"
       id="linearGradient3422">
      <stop
         style="stop-color:#ffffff;stop-opacity:1;"
         offset="0"
         id="stop3424" />
      <stop
         style="stop-color:#ffffff;stop-opacity:0;"
         offset="1"
         id="stop3426" />
    </linearGradient>
    <linearGradient
       id="linearGradient3291">
      <stop
         id="stop3293"
         offset="0"
         style="stop-color:#000000;stop-opacity:1;" />
      <stop
         id="stop3295"
         offset="1"
         style="stop-color:#000000;stop-opacity:0;" />
    </linearGradient>
    <radialGradient
       inkscape:collect="always"
       xlink:href="#linearGradient3291"
       id="radialGradient2595"
       gradientUnits="userSpaceOnUse"
       gradientTransform="matrix(1,0,0,0.197802,0,92.82166)"
       cx="63.912209"
       cy="115.70919"
       fx="75.857941"
       fy="115.70919"
       r="63.912209" />
    <linearGradient
       id="linearGradient2400">
      <stop
         id="stop2402"
         offset="0"
         style="stop-color:#000000;stop-opacity:1;" />
      <stop
         style="stop-color:#dddddd;stop-opacity:1;"
         offset="0.5"
         id="stop2406" />
      <stop
         id="stop3408"
         offset="0.625"
         style="stop-color:#b1b1b1;stop-opacity:1;" />
      <stop
         id="stop2408"
         offset="0.75"
         style="stop-color:#fefefe;stop-opacity:1;" />
      <stop
         id="stop2404"
         offset="1"
         style="stop-color:#010101;stop-opacity:1;" />
    </linearGradient>
    <linearGradient
       inkscape:collect="always"
       xlink:href="#linearGradient2400"
       id="linearGradient2691"
       gradientUnits="userSpaceOnUse"
       gradientTransform="matrix(-0.2063139,-0.3357131,-0.3357131,0.2063139,51.510105,35.440683)"
       x1="76.686829"
       y1="53.546875"
       x2="81.28125"
       y2="53.546875" />
    <linearGradient
       inkscape:collect="always"
       xlink:href="#linearGradient2400"
       id="linearGradient2694"
       gradientUnits="userSpaceOnUse"
       gradientTransform="matrix(-0.2063139,-0.3357131,-0.3357131,0.2063139,51.510105,35.440683)"
       x1="76.294899"
       y1="64.586235"
       x2="82.293739"
       y2="63.953125" />
    <linearGradient
       inkscape:collect="always"
       xlink:href="#linearGradient2400"
       id="linearGradient2697"
       gradientUnits="userSpaceOnUse"
       gradientTransform="matrix(-0.2063139,-0.3357131,-0.3357131,0.2063139,51.510105,35.440683)"
       x1="76.294899"
       y1="45.446991"
       x2="81.901802"
       y2="46.067547" />
    <linearGradient
       inkscape:collect="always"
       xlink:href="#linearGradient3422"
       id="linearGradient2700"
       gradientUnits="userSpaceOnUse"
       gradientTransform="matrix(0.2063139,0.3357131,-0.3357131,0.2063139,18.919094,-17.591271)"
       x1="67.268044"
       y1="77.921837"
       x2="81.405403"
       y2="85.629799" />
    <linearGradient
       inkscape:collect="always"
       xlink:href="#linearGradient3291"
       id="linearGradient2703"
       gradientUnits="userSpaceOnUse"
       gradientTransform="matrix(-0.2009121,-0.3269233,-0.3730211,0.2292417,34.338947,8.7625686)"
       x1="-8.0817165"
       y1="3.4493706"
       x2="4.2786193"
       y2="-2.6667099" />
    <linearGradient
       inkscape:collect="always"
       xlink:href="#linearGradient3291"
       id="linearGradient2706"
       gradientUnits="userSpaceOnUse"
       gradientTransform="matrix(0.2063139,0.3357131,-0.3357131,0.2063139,18.919094,-17.591271)"
       x1="55.056664"
       y1="83.078873"
       x2="148.20204"
       y2="58.188515" />
    <linearGradient
       inkscape:collect="always"
       xlink:href="#linearGradient3291"
       id="linearGradient2709"
       gradientUnits="userSpaceOnUse"
       gradientTransform="matrix(0.2063139,0.3357131,-0.3357131,0.2063139,18.919094,-17.591271)"
       x1="78.53125"
       y1="83.671875"
       x2="61.718319"
       y2="83.671875" />
    <linearGradient
       inkscape:collect="always"
       xlink:href="#linearGradient3291"
       id="linearGradient2712"
       gradientUnits="userSpaceOnUse"
       gradientTransform="matrix(0.2063139,0.3357131,-0.3357131,0.2063139,18.919094,-17.591271)"
       x1="76.186699"
       y1="82.439667"
       x2="102.02719"
       y2="82.972435" />
    <linearGradient
       inkscape:collect="always"
       xlink:href="#linearGradient2400"
       id="linearGradient2715"
       gradientUnits="userSpaceOnUse"
       gradientTransform="matrix(0.2063139,0.3357131,-0.3357131,0.2063139,18.919094,-17.591271)"
       x1="81.286102"
       y1="71.657196"
       x2="76.479744"
       y2="71.657196" />
    <linearGradient
       inkscape:collect="always"
       xlink:href="#linearGradient2400"
       id="linearGradient2719"
       gradientUnits="userSpaceOnUse"
       gradientTransform="matrix(-0.2669786,-0.4344265,-0.3357131,0.2063139,33.198174,5.6435871)"
       x1="-9.3125"
       y1="23.109375"
       x2="-5.78125"
       y2="23.109375" />
    <linearGradient
       inkscape:collect="always"
       xlink:href="#linearGradient2400"
       id="linearGradient2724"
       gradientUnits="userSpaceOnUse"
       gradientTransform="matrix(-0.2009121,-0.3269233,-0.3730211,0.2292417,34.338947,8.7625686)"
       x1="-2.328125"
       y1="-2.735786"
       x2="-0.765625"
       y2="-2.735786" />
  </defs>
  <sodipodi:namedview
     id="base"
     pagecolor="#ffffff"
     bordercolor="#666666"
     borderopacity="1.0"
     inkscape:pageopacity="0.0"
     inkscape:pageshadow="2"
     inkscape:zoom="11.313708"
     inkscape:cx="63.336884"
     inkscape:cy="14.845442"
     inkscape:current-layer="layer1"
     showgrid="false"
     inkscape:grid-bbox="true"
     inkscape:document-units="px"
     width="40px"
     height="40px"
     inkscape:window-width="1696"
     inkscape:window-height="1091"
     inkscape:window-x="214"
     inkscape:window-y="30">
    <inkscape:grid
       id="GridFromPre046Settings"
       type="xygrid"
       originx="0px"
       originy="0px"
       spacingx="1px"
       spacingy="1px"
       color="#0000ff"
       empcolor="#0000ff"
       opacity="0.2"
       empopacity="0.4"
       empspacing="2" />
  </sodipodi:namedview>
  <metadata
     id="metadata2198">
    <rdf:RDF>
      <cc:Work
         rdf:about="">
        <dc:format>image/svg+xml</dc:format>
        <dc:type
           rdf:resource="http://purl.org/dc/dcmitype/StillImage" />
        <dc:creator>
          <cc:Agent>
            <dc:title>Jarle Akselsen</dc:title>
          </cc:Agent>
        </dc:creator>
        <cc:license
           rdf:resource="http://creativecommons.org/licenses/GPL/2.0/" />
      </cc:Work>
      <cc:License
         rdf:about="http://creativecommons.org/licenses/GPL/2.0/">
        <cc:permits
           rdf:resource="http://web.resource.org/cc/Reproduction" />
        <cc:permits
           rdf:resource="http://web.resource.org/cc/Distribution" />
        <cc:requires
           rdf:resource="http://web.resource.org/cc/Notice" />
        <cc:permits
           rdf:resource="http://web.resource.org/cc/DerivativeWorks" />
        <cc:requires
           rdf:resource="http://web.resource.org/cc/ShareAlike" />
        <cc:requires
           rdf:resource="http://web.resource.org/cc/SourceCode" />
      </cc:License>
    </rdf:RDF>
  </metadata>
  <g
     id="layer1"
     inkscape:label="Layer 1"
     inkscape:groupmode="layer">
    <path
       sodipodi:nodetypes="cccczc"
       id="path3622"
       d="M 36.707991,8.3552387 L 31.705944,11.429268 L 31.392019,10.91845 L 36.394065,7.844421 C 36.394065,7.844421 39.693207,5.9484511 39.791499,6.1083915 C 39.889789,6.2683286 36.707991,8.3552387 36.707991,8.3552387 z"
       style="fill:url(#linearGradient2724);fill-opacity:1;stroke:none;stroke-width:1.20000005;stroke-linecap:round;stroke-linejoin:round;stroke-miterlimit:4;stroke-dasharray:none;stroke-opacity:1" />
    <path
       id="path3624"
       d="M 33.140667,10.206631 C 32.878756,9.7804501 32.635147,9.7368249 32.635147,9.7368249 C 32.635147,9.7368249 32.219816,9.7779615 32.120436,9.7929841 C 32.141301,9.7959467 32.167907,9.8057091 32.194637,9.81965 C 32.19391,9.8200965 32.122931,9.8637172 32.1212,9.8647812 C 32.098038,9.853952 32.07001,9.8229467 32.051043,9.8211769 C 32.056692,9.8136165 32.057885,9.8025185 32.065577,9.7977912 C 32.062187,9.7998748 32.00668,9.8339871 32.002631,9.8364751 C 31.935832,9.877527 31.189925,10.335927 30.964019,10.474759 C 30.994921,10.455768 31.03962,10.468739 31.093078,10.496617 C 31.076728,10.506665 31.026533,10.537513 31.00915,10.548196 C 30.985989,10.537367 30.957961,10.506362 30.938993,10.504592 C 30.945869,10.491939 30.952908,10.481587 30.964019,10.474759 C 30.948046,10.484575 30.907185,10.509686 30.890582,10.51989 C 30.819424,10.56362 30.657971,10.662842 30.575851,10.713309 C 30.61038,10.692089 30.667874,10.694112 30.725892,10.722273 C 30.705182,10.735001 30.663614,10.760547 30.641964,10.773852 C 30.616325,10.762496 30.582554,10.737818 30.561316,10.736695 C 30.567646,10.728716 30.567479,10.718454 30.575851,10.713309 C 30.556689,10.725085 30.52213,10.746323 30.502413,10.75844 C 30.22356,10.929811 29.836125,11.167911 29.463801,11.396724 C 29.499265,11.374929 29.554565,11.378301 29.613842,11.405688 C 29.582406,11.425008 29.562009,11.437543 29.529914,11.457267 C 29.50371,11.446258 29.470909,11.420985 29.449266,11.42011 C 29.454795,11.41409 29.456929,11.400947 29.463801,11.396724 C 29.437475,11.412903 29.417062,11.425448 29.390364,11.441855 C 29.291199,11.502797 29.221547,11.545602 29.117597,11.609485 C 29.14941,11.589934 29.193063,11.603549 29.246656,11.631344 C 29.216767,11.649713 29.203543,11.65784 29.173219,11.676475 C 29.147975,11.664877 29.113002,11.640938 29.092571,11.639318 C 29.099831,11.626429 29.106158,11.616515 29.117597,11.609485 C 29.08961,11.626684 29.072472,11.637217 29.04416,11.654616 C 28.934954,11.721729 28.874577,11.758834 28.760902,11.828694 C 28.790894,11.810262 28.837727,11.821922 28.889961,11.850552 C 28.853545,11.872932 28.842924,11.87946 28.806033,11.902131 C 28.783068,11.891181 28.754461,11.860532 28.735876,11.858527 C 28.742541,11.846004 28.750118,11.835321 28.760902,11.828694 C 28.73143,11.846806 28.717219,11.855539 28.687464,11.873825 C 28.122132,12.221253 27.91866,12.346297 27.292157,12.731317 C 27.321238,12.713445 27.358626,12.730909 27.410725,12.759623 C 27.374256,12.782035 27.373835,12.782294 27.337288,12.804754 C 27.314852,12.793479 27.285334,12.76339 27.267131,12.76115 C 27.273411,12.748864 27.281701,12.737743 27.292157,12.731317 C 27.259183,12.751581 27.251872,12.756074 27.21872,12.776448 C 27.081373,12.860855 27.054374,12.877447 26.91448,12.96342 C 26.945382,12.944429 26.990081,12.957401 27.043539,12.985279 C 27.001576,13.011068 27.001582,13.011064 26.959611,13.036857 C 26.936449,13.026028 26.908421,12.995023 26.889454,12.993253 C 26.89633,12.980601 26.903368,12.970249 26.91448,12.96342 C 26.880712,12.984172 26.874959,12.987708 26.841042,13.008551 C 26.710222,13.088948 26.69038,13.101141 26.557784,13.182629 C 26.585955,13.165316 26.624389,13.182138 26.676353,13.210935 C 26.639742,13.233434 26.639463,13.233606 26.602916,13.256066 C 26.580676,13.24467 26.550579,13.214936 26.532759,13.212462 C 26.538654,13.200412 26.547656,13.188853 26.557784,13.182629 C 26.528319,13.200737 26.524396,13.203148 26.494838,13.221313 C 26.351975,13.30911 26.335029,13.319524 26.190598,13.408284 C 26.21968,13.390412 26.258157,13.407208 26.309167,13.436591 C 26.273018,13.458806 26.271743,13.459589 26.235729,13.481722 C 26.213293,13.470447 26.183775,13.440357 26.165572,13.438117 C 26.171853,13.425831 26.180142,13.414711 26.190598,13.408284 C 26.155736,13.429709 26.152127,13.431927 26.117161,13.453416 C 25.452805,13.861698 25.356128,13.921112 24.721853,14.310908 C 24.749114,14.294155 24.789682,14.309665 24.840422,14.339214 C 24.809679,14.358107 24.797308,14.36571 24.766985,14.384345 C 24.745273,14.372625 24.714266,14.343451 24.696828,14.340741 C 24.702512,14.32882 24.712052,14.316931 24.721853,14.310908 C 24.68847,14.331423 24.68207,14.335357 24.648416,14.356039 C 24.513801,14.438768 24.492209,14.452037 24.354667,14.536564 C 24.381928,14.519811 24.422496,14.53532 24.473236,14.56487 C 24.444733,14.582386 24.42781,14.592786 24.399798,14.610001 C 24.378087,14.598281 24.347079,14.569106 24.329641,14.566397 C 24.335326,14.554476 24.344866,14.542587 24.354667,14.536564 C 24.320282,14.557695 24.315819,14.560438 24.28123,14.581695 C 24.142872,14.666723 24.12752,14.676158 23.987481,14.762219 C 24.014742,14.745466 24.05531,14.760976 24.106049,14.790526 C 24.080143,14.806447 24.057957,14.820081 24.032612,14.835657 C 24.010901,14.823936 23.979893,14.794762 23.962455,14.792052 C 23.96814,14.780132 23.977679,14.768243 23.987481,14.762219 C 23.952471,14.783735 23.949213,14.785737 23.914044,14.807351 C 23.43172,15.103765 23.333063,15.164395 22.906904,15.426292 C 22.930603,15.411728 22.967825,15.428906 23.014982,15.461046 C 23.001187,15.469524 22.965263,15.4916 22.952036,15.49973 C 22.931992,15.486624 22.897814,15.461128 22.881879,15.456125 C 22.885902,15.439412 22.895799,15.433117 22.906904,15.426292 C 22.87583,15.445389 22.865506,15.451734 22.833467,15.471423 C 22.705311,15.550182 22.674708,15.56899 22.539718,15.651948 C 22.563417,15.637384 22.600639,15.654562 22.647796,15.686702 C 22.63571,15.694129 22.5856,15.724924 22.574358,15.731833 C 22.557064,15.7207 22.528933,15.686252 22.514692,15.681781 C 22.519003,15.664892 22.528613,15.658773 22.539718,15.651948 C 22.505971,15.672688 22.5006,15.675988 22.466281,15.697079 C 21.961303,16.007416 21.385704,16.361152 21.385704,16.361152 C 21.381948,16.362624 21.378403,16.365103 21.375213,16.367599 L 19.185528,18.190237 L 14.768802,20.904555 L 12.153594,22.034784 C 12.153594,22.034784 8.8634575,24.230455 9.2630731,24.880707 C 9.6626886,25.53096 13.171955,23.533575 13.101349,23.576966 C 13.171955,23.533575 15.291034,21.754329 15.291034,21.754329 L 19.70776,19.040011 C 19.70776,19.040011 22.252362,17.953173 22.322968,17.909782 C 22.330047,17.905431 22.333112,17.89463 22.337503,17.886396 C 22.34851,17.879631 22.907513,17.536094 23.407588,17.22877 C 23.441907,17.207679 23.447278,17.204379 23.481025,17.183639 C 23.46992,17.190464 23.459893,17.195904 23.443105,17.19249 C 23.44361,17.189446 23.436338,17.185295 23.436658,17.181999 C 23.437941,17.16882 23.433364,17.143878 23.431851,17.12714 C 23.443092,17.120232 23.493202,17.089437 23.505288,17.082009 C 23.51192,17.137522 23.504812,17.169021 23.481025,17.183639 C 23.616015,17.100681 23.646618,17.081873 23.774774,17.003115 C 23.806813,16.983425 23.817138,16.97708 23.848212,16.957983 C 23.837107,16.964808 23.826793,16.970425 23.810291,16.966834 C 23.813301,16.948705 23.812705,16.921492 23.809528,16.895037 C 23.822756,16.886908 23.858679,16.864831 23.872474,16.856353 C 23.879107,16.911866 23.871999,16.943365 23.848212,16.957983 C 24.27437,16.696086 24.373027,16.635456 24.855351,16.339042 C 24.89052,16.317428 24.893778,16.315426 24.928788,16.29391 C 24.918987,16.299934 24.903934,16.302853 24.890868,16.302761 C 24.896327,16.28598 24.890489,16.255199 24.890104,16.230964 C 24.915449,16.215388 24.937635,16.201754 24.963542,16.185833 C 24.966215,16.243326 24.956132,16.277106 24.928788,16.29391 C 25.068828,16.207849 25.084179,16.198414 25.222537,16.113386 C 25.257127,16.092129 25.261589,16.089386 25.295974,16.068255 C 25.286173,16.074278 25.27112,16.077197 25.258054,16.077106 C 25.263513,16.060324 25.257675,16.029543 25.25729,16.005308 C 25.289304,15.985634 25.308565,15.973797 25.341219,15.95373 C 25.344893,16.01415 25.324173,16.050925 25.295974,16.068255 C 25.433516,15.983728 25.455108,15.970459 25.589723,15.88773 C 25.623377,15.867048 25.629778,15.863114 25.663161,15.842599 C 25.653359,15.848622 25.638307,15.851541 25.62524,15.85145 C 25.6307,15.834668 25.624861,15.803887 25.624477,15.779653 C 25.6548,15.761017 25.667171,15.753415 25.697914,15.734521 C 25.700588,15.792014 25.690504,15.825795 25.663161,15.842599 C 26.297435,15.452803 26.394112,15.39339 27.058468,14.985107 C 27.093434,14.963618 27.097043,14.9614 27.131905,14.939976 C 27.121449,14.946401 27.107647,14.948552 27.093985,14.948826 C 27.100209,14.931575 27.092881,14.901709 27.093222,14.877029 C 27.129235,14.854897 27.13051,14.854113 27.166659,14.831898 C 27.169064,14.889556 27.161076,14.922049 27.131905,14.939976 C 27.276336,14.851215 27.293282,14.840801 27.436145,14.753004 C 27.465703,14.734839 27.469626,14.732428 27.499092,14.71432 C 27.488963,14.720544 27.474449,14.723132 27.461171,14.723171 C 27.467013,14.706154 27.460264,14.675933 27.460408,14.651373 C 27.502176,14.625705 27.502486,14.625514 27.544336,14.599795 C 27.546741,14.660996 27.528232,14.696411 27.499092,14.71432 C 27.631687,14.632832 27.651529,14.620639 27.782349,14.540242 C 27.816266,14.519399 27.822019,14.515863 27.855787,14.495111 C 27.844676,14.50194 27.832124,14.503321 27.817866,14.503962 C 27.824855,14.48624 27.816038,14.457291 27.817103,14.432165 C 27.859074,14.406372 27.859068,14.406375 27.901031,14.380586 C 27.900981,14.439753 27.886783,14.476062 27.855787,14.495111 C 27.995681,14.409138 28.02268,14.392546 28.160027,14.308139 C 28.193179,14.287765 28.20049,14.283272 28.233464,14.263008 C 28.223008,14.269434 28.209206,14.271584 28.195544,14.271859 C 28.201768,14.254607 28.19444,14.224742 28.19478,14.200062 C 28.236548,14.174393 28.237044,14.174088 28.278708,14.148483 C 28.280994,14.209757 28.263546,14.244521 28.233464,14.263008 C 28.859967,13.877988 29.063439,13.752944 29.628772,13.405516 C 29.658526,13.38723 29.672737,13.378497 29.702209,13.360385 C 29.691425,13.367012 29.678335,13.368725 29.664288,13.369236 C 29.670895,13.351749 29.662656,13.322444 29.663525,13.297439 C 29.700416,13.274767 29.711037,13.26824 29.747453,13.24586 C 29.748631,13.304272 29.732292,13.341897 29.702209,13.360385 C 29.815885,13.290525 29.876261,13.25342 29.985467,13.186307 C 30.013779,13.168908 30.030918,13.158375 30.058904,13.141176 C 30.047466,13.148206 30.035626,13.14915 30.020984,13.150027 C 30.028768,13.131068 30.029363,13.099067 30.030711,13.071783 C 30.061035,13.053147 30.074259,13.04502 30.104148,13.026652 C 30.103964,13.085901 30.090814,13.121566 30.058904,13.141176 C 30.162854,13.077293 30.232506,13.034488 30.331671,12.973546 C 30.358369,12.957139 30.378782,12.944594 30.405108,12.928415 C 30.398236,12.932638 30.385504,12.928535 30.377679,12.930819 C 30.386674,12.911115 30.385098,12.880448 30.387406,12.852574 C 30.419501,12.83285 30.439898,12.820315 30.471335,12.800996 C 30.468262,12.865396 30.44079,12.906486 30.405108,12.928415 C 30.777432,12.699602 31.164867,12.461502 31.44372,12.290131 C 31.463437,12.278014 31.497996,12.256776 31.517158,12.245 C 31.508786,12.250145 31.499638,12.24525 31.489728,12.247404 C 31.49832,12.227948 31.497712,12.196686 31.499456,12.169159 C 31.521106,12.155854 31.562674,12.130308 31.583384,12.117581 C 31.581579,12.181202 31.551899,12.22365 31.517158,12.245 C 31.599278,12.194533 31.760731,12.095311 31.831889,12.051581 C 31.848492,12.041377 31.889353,12.016266 31.905326,12.00645 C 31.894215,12.013278 31.881664,12.01466 31.867406,12.015301 C 31.874395,11.997579 31.865577,11.968629 31.866642,11.943504 C 31.884025,11.932821 31.934221,11.901973 31.95057,11.891925 C 31.95052,11.951092 31.936323,11.987401 31.905326,12.00645 C 32.131232,11.867618 32.877139,11.409218 32.943938,11.368166 C 32.947987,11.365678 33.003494,11.331566 33.006885,11.329482 C 32.999192,11.33421 32.988684,11.33015 32.979455,11.331886 C 32.986444,11.314164 32.977627,11.285214 32.978692,11.260089 C 32.980671,11.258873 33.061955,11.208919 33.06262,11.20851 C 33.062871,11.225936 33.064004,11.238426 33.06098,11.252878 C 33.137887,11.138501 33.318562,10.848875 33.318562,10.848875 C 33.318562,10.848875 33.402579,10.632812 33.140667,10.206631 z M 33.06098,11.252878 C 33.045938,11.275248 33.009565,11.327835 33.006885,11.329482 C 33.029884,11.315348 33.053221,11.289948 33.06098,11.252878 z M 22.34723,17.808151 C 22.3518,17.839351 22.34765,17.853034 22.341546,17.869458 C 22.346031,17.852364 22.349338,17.834056 22.34723,17.808151 z"
       style="fill:#000000;fill-opacity:1;fill-rule:nonzero;stroke:none;stroke-width:12;stroke-linecap:round;stroke-linejoin:round;stroke-miterlimit:4;stroke-dasharray:none;stroke-opacity:1" />
    <path
       id="path3626"
       d="M 12.258165,22.534197 L 11.707174,22.554839 L 11.409494,22.564341 C 11.562899,22.452568 11.563209,22.452142 11.679858,22.369281 L 8.2194017,21.865426 C 6.0798053,21.334863 6.209162,21.064926 4.0330846,22.414689 C 1.8879401,23.745267 1.9594242,23.622433 1.7772564,25.564315 L 2.03246,29.107512 L 5.4955166,30.650403 C 7.303898,31.354689 7.5606524,31.117936 9.7167003,29.805101 C 11.903838,28.473335 11.615129,28.460456 12.114709,26.322392 L 12.509044,23.883157 C 11.509229,24.405124 9.5560264,25.3574 9.2630731,24.880707 C 9.230232,24.827268 9.2266227,24.750389 9.2398007,24.678211 L 12.37662,22.750465 C 12.334824,22.674206 12.289854,22.603907 12.258165,22.534197 z"
       style="fill:#b54a4a;fill-opacity:1;fill-rule:nonzero;stroke:none;stroke-width:1;stroke-linecap:butt;stroke-linejoin:miter;marker:none;marker-start:none;marker-mid:none;marker-end:none;stroke-miterlimit:4;stroke-dasharray:none;stroke-dashoffset:0;stroke-opacity:1;visibility:visible;display:inline;overflow:visible;enable-background:accumulate" />
    <path
       sodipodi:nodetypes="ccssscccsssssssssccsssssssssccsssssssssccsssssssssccsssssssssccsssssssssccsssssssssccsssssssssccsssssssssccsssssssssccsssssssssccsssssssssccssssssssscccscsssssscccssssscscsc"
       id="path3628"
       d="M 33.138281,10.206544 C 33.400192,10.632725 33.319701,10.849215 33.319701,10.849215 C 33.319701,10.849215 33.025584,11.323175 33.009197,11.333246 C 33.125436,11.261811 33.013717,10.870235 32.751806,10.444054 C 32.489894,10.017873 32.182668,9.727743 32.06643,9.7991777 C 32.082816,9.7891071 32.638525,9.740808 32.638525,9.740808 C 32.638525,9.740808 32.876369,9.7803627 33.138281,10.206544 z M 32.06643,9.7991777 C 32.058737,9.803905 32.05944,9.8180882 32.053791,9.8256486 C 32.193985,9.8387266 32.459686,10.109827 32.68886,10.482737 C 32.918033,10.855648 33.031533,11.201581 32.979872,11.332564 C 32.989101,11.330828 33.001505,11.337973 33.009197,11.333246 C 33.005807,11.335329 32.9503,11.369441 32.946251,11.371929 C 32.879452,11.412981 32.133545,11.871381 31.907639,12.010213 C 32.023877,11.938778 31.912159,11.547202 31.650247,11.121021 C 31.388336,10.69484 31.081109,10.40471 30.964871,10.476145 C 31.190777,10.337314 31.936684,9.8789135 32.003483,9.8378616 C 32.007532,9.8353736 32.063039,9.8012613 32.06643,9.7991777 z M 30.964871,10.476145 C 30.95376,10.482974 30.948617,10.496411 30.941741,10.509063 C 31.081935,10.522141 31.347636,10.793242 31.57681,11.166152 C 31.805983,11.539062 31.919483,11.884995 31.867822,12.015979 C 31.88208,12.015338 31.896528,12.017041 31.907639,12.010213 C 31.891666,12.02003 31.850805,12.04514 31.834202,12.055344 C 31.763043,12.099075 31.601591,12.198296 31.519471,12.248764 C 31.645983,12.171015 31.544972,11.772858 31.283061,11.346677 C 31.02115,10.920496 30.703215,10.636947 30.576703,10.714696 C 30.658823,10.664228 30.820276,10.565007 30.891434,10.521276 C 30.908037,10.511073 30.948898,10.485962 30.964871,10.476145 z M 30.576703,10.714696 C 30.568331,10.719841 30.570394,10.733188 30.564064,10.741167 C 30.712737,10.749034 30.98045,11.018898 31.209624,11.391808 C 31.438797,11.764718 31.550285,12.111888 31.490145,12.248082 C 31.500055,12.245928 31.511098,12.253909 31.519471,12.248764 C 31.500309,12.260539 31.46575,12.281778 31.446033,12.293895 C 31.16718,12.465265 30.779745,12.703365 30.407421,12.932178 C 30.537358,12.852325 30.443414,12.449825 30.181502,12.023644 C 29.919591,11.597463 29.59459,11.318257 29.464653,11.39811 C 29.836977,11.169297 30.224412,10.931197 30.503265,10.759827 C 30.522982,10.74771 30.557541,10.726471 30.576703,10.714696 z M 29.464653,11.39811 C 29.457781,11.402334 29.457543,11.418561 29.452014,11.424581 C 29.603513,11.430712 29.878892,11.695865 30.108065,12.068776 C 30.337239,12.441686 30.441061,12.793566 30.378095,12.931497 C 30.38592,12.929213 30.400549,12.936401 30.407421,12.932178 C 30.381095,12.948357 30.360682,12.960902 30.333984,12.97731 C 30.234819,13.038252 30.165167,13.081057 30.061217,13.14494 C 30.18088,13.0714 30.065737,12.681929 29.803825,12.255748 C 29.541914,11.829566 29.238112,11.537332 29.118449,11.610872 C 29.222399,11.546989 29.292051,11.504184 29.391216,11.443242 C 29.417914,11.426834 29.438327,11.414289 29.464653,11.39811 z M 29.118449,11.610872 C 29.10701,11.617901 29.102579,11.630901 29.095319,11.64379 C 29.23834,11.655131 29.511705,11.921521 29.740879,12.294431 C 29.970052,12.667342 30.075887,13.017985 30.0214,13.150705 C 30.036043,13.149828 30.049778,13.151969 30.061217,13.14494 C 30.03323,13.162139 30.016092,13.172671 29.987779,13.190071 C 29.878574,13.257184 29.818197,13.294288 29.704522,13.364148 C 29.817335,13.294818 29.69855,12.907584 29.436639,12.481403 C 29.174728,12.055222 28.874567,11.76075 28.761754,11.83008 C 28.87543,11.76022 28.935806,11.723116 29.045012,11.656003 C 29.073324,11.638603 29.090462,11.628071 29.118449,11.610872 z M 28.761754,11.83008 C 28.75097,11.836707 28.745289,11.850476 28.738624,11.862998 C 28.875992,11.877813 29.144519,12.147177 29.373693,12.520087 C 29.602866,12.892997 29.71354,13.240667 29.664705,13.369914 C 29.678752,13.369403 29.693738,13.370775 29.704522,13.364148 C 29.67505,13.38226 29.660839,13.390994 29.631084,13.409279 C 29.065752,13.756707 28.86228,13.881751 28.235777,14.266771 C 28.345166,14.199546 28.229806,13.810208 27.967894,13.384027 C 27.705983,12.957845 27.402398,12.665478 27.293009,12.732704 C 27.919512,12.347683 28.122984,12.222639 28.688316,11.875211 C 28.718071,11.856926 28.732282,11.848192 28.761754,11.83008 z M 27.293009,12.732704 C 27.282553,12.739129 27.276159,12.753335 27.269879,12.765622 C 27.404421,12.782173 27.665283,13.056248 27.894457,13.429158 C 28.12363,13.802068 28.241969,14.145028 28.19596,14.272537 C 28.209622,14.272263 28.225321,14.273197 28.235777,14.266771 C 28.202803,14.287036 28.195492,14.291528 28.16234,14.311903 C 28.024993,14.39631 27.997994,14.412902 27.8581,14.498875 C 27.974337,14.42744 27.862619,14.035864 27.600708,13.609683 C 27.338797,13.183501 27.03157,12.893372 26.915332,12.964807 C 27.055226,12.878834 27.082225,12.862242 27.219572,12.777835 C 27.252724,12.757461 27.260035,12.752968 27.293009,12.732704 z M 26.915332,12.964807 C 26.904221,12.971635 26.899078,12.985072 26.892202,12.997725 C 27.032396,13.010803 27.298097,13.281904 27.527271,13.654814 C 27.756444,14.027724 27.869944,14.373657 27.818283,14.50464 C 27.832541,14.504 27.846988,14.505703 27.8581,14.498875 C 27.824332,14.519627 27.818579,14.523162 27.784662,14.544006 C 27.653842,14.624402 27.634,14.636596 27.501404,14.718083 C 27.607368,14.652962 27.495433,14.261519 27.233522,13.835338 C 26.97161,13.409157 26.664601,13.118894 26.558636,13.184015 C 26.691232,13.102528 26.711074,13.090334 26.841894,13.009938 C 26.875811,12.989094 26.881564,12.985559 26.915332,12.964807 z M 26.558636,13.184015 C 26.548508,13.19024 26.541402,13.204883 26.535507,13.216933 C 26.667222,13.235222 26.930911,13.50756 27.160084,13.88047 C 27.389258,14.25338 27.50477,14.598076 27.461588,14.723849 C 27.474866,14.72381 27.491276,14.724308 27.501404,14.718083 C 27.471938,14.736191 27.468016,14.738602 27.438458,14.756767 C 27.295595,14.844564 27.278649,14.854978 27.134218,14.943739 C 27.243607,14.876514 27.117756,14.493623 26.855844,14.067441 C 26.593933,13.64126 26.300839,13.342446 26.19145,13.409671 C 26.335881,13.320911 26.352827,13.310496 26.49569,13.222699 C 26.525248,13.204534 26.529171,13.202124 26.558636,13.184015 z M 26.19145,13.409671 C 26.180994,13.416097 26.174601,13.430303 26.16832,13.442589 C 26.302862,13.459141 26.563724,13.733215 26.792898,14.106125 C 27.022072,14.479035 27.14041,14.821995 27.094402,14.949505 C 27.108064,14.94923 27.123762,14.950165 27.134218,14.943739 C 27.099356,14.965164 27.095747,14.967381 27.060781,14.98887 C 26.396425,15.397153 26.299748,15.456566 25.665473,15.846362 C 25.768013,15.783346 25.649011,15.396246 25.3871,14.970065 C 25.125189,14.543884 24.825245,14.249278 24.722705,14.312294 C 25.35698,13.922498 25.453657,13.863085 26.118013,13.454802 C 26.152979,13.433314 26.156588,13.431096 26.19145,13.409671 z M 24.722705,14.312294 C 24.712904,14.318318 24.70526,14.333292 24.699576,14.345212 C 24.828465,14.365238 25.084489,14.642286 25.313662,15.015196 C 25.542836,15.388106 25.666013,15.728092 25.625657,15.852128 C 25.638723,15.852219 25.655672,15.852386 25.665473,15.846362 C 25.63209,15.866878 25.62569,15.870811 25.592036,15.891493 C 25.457421,15.974222 25.435829,15.987491 25.298287,16.072018 C 25.400827,16.009002 25.281825,15.621902 25.019913,15.195721 C 24.758002,14.76954 24.458059,14.474934 24.355519,14.53795 C 24.493061,14.453423 24.514653,14.440154 24.649268,14.357425 C 24.682922,14.336743 24.689322,14.33281 24.722705,14.312294 z M 24.355519,14.53795 C 24.345718,14.543974 24.338074,14.558948 24.332389,14.570868 C 24.461278,14.590894 24.717303,14.867942 24.946476,15.240852 C 25.17565,15.613762 25.298826,15.953748 25.258471,16.077784 C 25.271537,16.077875 25.288486,16.078042 25.298287,16.072018 C 25.263902,16.09315 25.259439,16.095892 25.22485,16.117149 C 25.086492,16.202178 25.07114,16.211612 24.931101,16.297674 C 25.03364,16.234658 24.914639,15.847558 24.652727,15.421376 C 24.390816,14.995195 24.090873,14.70059 23.988333,14.763606 C 24.128372,14.677544 24.143724,14.66811 24.282082,14.583081 C 24.316672,14.561824 24.321134,14.559082 24.355519,14.53795 z M 23.988333,14.763606 C 23.978532,14.76963 23.970888,14.784604 23.965203,14.796524 C 24.094092,14.81655 24.350116,15.093598 24.57929,15.466508 C 24.808464,15.839418 24.93164,16.179404 24.891284,16.30344 C 24.904351,16.303531 24.921299,16.303697 24.931101,16.297674 C 24.896091,16.319189 24.892833,16.321192 24.857664,16.342805 C 24.37534,16.639219 24.276683,16.699849 23.850524,16.961747 C 23.939365,16.907149 23.802589,16.530972 23.540678,16.104791 C 23.278767,15.67861 22.996597,15.373081 22.907757,15.427679 C 23.333915,15.165781 23.432572,15.105151 23.914896,14.808737 C 23.950065,14.787124 23.953323,14.785121 23.988333,14.763606 z M 22.907757,15.427679 C 22.896651,15.434503 22.888651,15.443884 22.884627,15.460597 C 23.005328,15.498489 23.254015,15.779444 23.477731,16.143475 C 23.701448,16.507506 23.831425,16.842711 23.810708,16.967512 C 23.82721,16.971103 23.839419,16.968571 23.850524,16.961747 C 23.81945,16.980843 23.809126,16.987188 23.777087,17.006878 C 23.648931,17.085637 23.618328,17.104444 23.483338,17.187403 C 23.572178,17.132805 23.435403,16.756628 23.173491,16.330447 C 22.91158,15.904266 22.629411,15.598737 22.54057,15.653335 C 22.67556,15.570376 22.706163,15.551569 22.834319,15.47281 C 22.866358,15.45312 22.876683,15.446775 22.907757,15.427679 z M 22.54057,15.653335 C 22.529465,15.660159 22.521751,15.669363 22.517441,15.686253 C 22.638141,15.724145 22.876338,16.011548 23.100054,16.375578 C 23.318314,16.730729 23.448013,17.047809 23.43518,17.179595 C 23.434858,17.182887 23.444027,17.190124 23.443522,17.193168 C 23.46031,17.196583 23.472233,17.194227 23.483338,17.187403 C 23.449591,17.208142 23.44422,17.211443 23.409901,17.232534 C 22.904923,17.54287 22.329324,17.896607 22.329324,17.896607 C 22.404467,17.850428 22.260407,17.478727 21.998496,17.052546 C 21.736584,16.626365 21.461698,16.31636 21.386557,16.362539 C 21.386557,16.362539 21.962155,16.008802 22.467133,15.698466 C 22.501452,15.677375 22.506823,15.674074 22.54057,15.653335 z"
       style="fill:url(#linearGradient2719);fill-opacity:1;fill-rule:nonzero;stroke:none;stroke-width:12;stroke-linecap:round;stroke-linejoin:round;stroke-miterlimit:4;stroke-dasharray:none;stroke-opacity:1" />
    <path
       style="opacity:0.25;fill:#000000;fill-opacity:1;fill-rule:nonzero;stroke:none;stroke-width:12;stroke-linecap:round;stroke-linejoin:round;stroke-miterlimit:4;stroke-dasharray:none;stroke-opacity:1"
       d="M 33.061902,11.207342 C 33.062798,11.26947 33.041163,11.313601 33.009197,11.333246 C 33.001505,11.337973 32.989101,11.330828 32.979872,11.332564 C 32.986861,11.314842 32.976909,11.284046 32.977974,11.25892 C 32.979953,11.257704 33.061237,11.207751 33.061902,11.207342 z M 32.192074,9.8154805 C 32.191348,9.8159269 32.120369,9.8595476 32.118637,9.8606116 C 32.095476,9.8497824 32.072759,9.8274184 32.053791,9.8256486 C 32.05944,9.8180882 32.058737,9.803905 32.06643,9.7991777 C 32.097332,9.7801866 32.138614,9.7875986 32.192074,9.8154805 z M 31.949852,11.890757 C 31.949802,11.949924 31.938636,11.991164 31.907639,12.010213 C 31.896528,12.017041 31.88208,12.015338 31.867822,12.015979 C 31.874811,11.998257 31.864859,11.967461 31.865924,11.942335 C 31.883307,11.931653 31.933503,11.900805 31.949852,11.890757 z M 31.090516,10.492448 C 31.074166,10.502496 31.02397,10.533344 31.006588,10.544026 C 30.983426,10.533197 30.960709,10.510833 30.941741,10.509063 C 30.948617,10.496411 30.95376,10.482974 30.964871,10.476145 C 30.995773,10.457154 31.037055,10.464566 31.090516,10.492448 z M 31.582666,12.116413 C 31.580861,12.180034 31.554212,12.227413 31.519471,12.248764 C 31.511098,12.253909 31.500055,12.245928 31.490145,12.248082 C 31.498737,12.228626 31.496994,12.195518 31.498738,12.167991 C 31.520388,12.154686 31.561956,12.12914 31.582666,12.116413 z M 30.72333,10.718104 C 30.70262,10.730831 30.661051,10.756377 30.639401,10.769682 C 30.613762,10.758327 30.585302,10.74229 30.564064,10.741167 C 30.570394,10.733188 30.568331,10.719841 30.576703,10.714696 C 30.611232,10.693475 30.66531,10.689939 30.72333,10.718104 z M 30.470617,12.799827 C 30.467544,12.864228 30.443103,12.91025 30.407421,12.932178 C 30.400549,12.936401 30.38592,12.929213 30.378095,12.931497 C 30.387091,12.911793 30.38438,12.87928 30.386688,12.851406 C 30.418783,12.831682 30.43918,12.819147 30.470617,12.799827 z M 29.61128,11.401519 C 29.579843,11.420838 29.559447,11.433373 29.527352,11.453097 C 29.501148,11.442089 29.473657,11.425457 29.452014,11.424581 C 29.457543,11.418561 29.457781,11.402334 29.464653,11.39811 C 29.500117,11.376316 29.552001,11.374128 29.61128,11.401519 z M 30.10343,13.025483 C 30.103246,13.084732 30.093127,13.125329 30.061217,13.14494 C 30.049778,13.151969 30.036043,13.149828 30.0214,13.150705 C 30.029184,13.131746 30.028645,13.097898 30.029993,13.070614 C 30.060317,13.051979 30.073541,13.043852 30.10343,13.025483 z M 29.244094,11.627174 C 29.214204,11.645543 29.20098,11.65367 29.170657,11.672306 C 29.145413,11.660707 29.11575,11.64541 29.095319,11.64379 C 29.102579,11.630901 29.10701,11.617901 29.118449,11.610872 C 29.150262,11.591321 29.190498,11.599376 29.244094,11.627174 z M 29.746735,13.244692 C 29.747913,13.303104 29.734605,13.34566 29.704522,13.364148 C 29.693738,13.370775 29.678752,13.369403 29.664705,13.369914 C 29.671312,13.352427 29.661938,13.321275 29.662807,13.29627 C 29.699698,13.273599 29.710319,13.267071 29.746735,13.244692 z M 28.887399,11.846383 C 28.850983,11.868762 28.840361,11.87529 28.80347,11.897961 C 28.780505,11.887012 28.757209,11.865003 28.738624,11.862998 C 28.745289,11.850476 28.75097,11.836707 28.761754,11.83008 C 28.791746,11.811649 28.835162,11.817749 28.887399,11.846383 z M 28.27799,14.147315 C 28.280276,14.208589 28.265859,14.248284 28.235777,14.266771 C 28.225321,14.273197 28.209622,14.272263 28.19596,14.272537 C 28.202185,14.255285 28.193722,14.223574 28.194062,14.198894 C 28.23583,14.173225 28.236326,14.17292 28.27799,14.147315 z M 27.408163,12.755454 C 27.371694,12.777866 27.371273,12.778125 27.334726,12.800585 C 27.312289,12.78931 27.288082,12.767862 27.269879,12.765622 C 27.276159,12.753335 27.282553,12.739129 27.293009,12.732704 C 27.32209,12.714831 27.356062,12.726736 27.408163,12.755454 z M 27.900313,14.379418 C 27.900263,14.438585 27.889096,14.479825 27.8581,14.498875 C 27.846988,14.505703 27.832541,14.504 27.818283,14.50464 C 27.825272,14.486919 27.81532,14.456122 27.816385,14.430997 C 27.858356,14.405203 27.85835,14.405207 27.900313,14.379418 z M 27.040977,12.981109 C 26.999013,13.006898 26.999019,13.006894 26.957048,13.032688 C 26.933887,13.021859 26.911169,12.999495 26.892202,12.997725 C 26.899078,12.985072 26.904221,12.971635 26.915332,12.964807 C 26.946234,12.945815 26.987516,12.953228 27.040977,12.981109 z M 27.543618,14.598627 C 27.546023,14.659827 27.530545,14.700175 27.501404,14.718083 C 27.491276,14.724308 27.474866,14.72381 27.461588,14.723849 C 27.46743,14.706832 27.459546,14.674765 27.45969,14.650205 C 27.501458,14.624536 27.501768,14.624346 27.543618,14.598627 z M 26.67379,13.206765 C 26.63718,13.229265 26.6369,13.229436 26.600353,13.251896 C 26.578113,13.240501 26.553327,13.219408 26.535507,13.216933 C 26.541402,13.204883 26.548508,13.19024 26.558636,13.184015 C 26.586807,13.166703 26.621825,13.177965 26.67379,13.206765 z M 27.165941,14.83073 C 27.168346,14.888387 27.163389,14.925812 27.134218,14.943739 C 27.123762,14.950165 27.108064,14.94923 27.094402,14.949505 C 27.100626,14.932253 27.092163,14.900541 27.092504,14.875861 C 27.128517,14.853729 27.129792,14.852945 27.165941,14.83073 z M 26.306604,13.432421 C 26.270456,13.454636 26.269181,13.45542 26.233167,13.477552 C 26.210731,13.466277 26.186523,13.444829 26.16832,13.442589 C 26.174601,13.430303 26.180994,13.416097 26.19145,13.409671 C 26.220532,13.391799 26.255592,13.403035 26.306604,13.432421 z M 25.697196,15.733353 C 25.69987,15.790846 25.692817,15.829558 25.665473,15.846362 C 25.655672,15.852386 25.638723,15.852219 25.625657,15.852128 C 25.631116,15.835346 25.624143,15.802719 25.623759,15.778484 C 25.654082,15.759849 25.666453,15.752247 25.697196,15.733353 z M 24.837859,14.335044 C 24.807116,14.353938 24.794746,14.36154 24.764422,14.380175 C 24.742711,14.368455 24.717014,14.347922 24.699576,14.345212 C 24.70526,14.333292 24.712904,14.318318 24.722705,14.312294 C 24.749966,14.295541 24.787118,14.305492 24.837859,14.335044 z M 25.340501,15.952562 C 25.344175,16.012982 25.326485,16.054689 25.298287,16.072018 C 25.288486,16.078042 25.271537,16.077875 25.258471,16.077784 C 25.26393,16.061002 25.256957,16.028375 25.256573,16.00414 C 25.288586,15.984466 25.307847,15.972629 25.340501,15.952562 z M 24.470673,14.5607 C 24.44217,14.578217 24.425248,14.588616 24.397236,14.605831 C 24.375524,14.594111 24.349828,14.573578 24.332389,14.570868 C 24.338074,14.558948 24.345718,14.543974 24.355519,14.53795 C 24.38278,14.521197 24.419932,14.531147 24.470673,14.5607 z M 24.962824,16.184665 C 24.965497,16.242158 24.958445,16.28087 24.931101,16.297674 C 24.921299,16.303697 24.904351,16.303531 24.891284,16.30344 C 24.896744,16.286658 24.889771,16.254031 24.889386,16.229796 C 24.914731,16.21422 24.936917,16.200586 24.962824,16.184665 z M 24.103487,14.786356 C 24.07758,14.802277 24.055395,14.815911 24.03005,14.831487 C 24.008338,14.819767 23.982641,14.799234 23.965203,14.796524 C 23.970888,14.784604 23.978532,14.76963 23.988333,14.763606 C 24.015594,14.746853 24.052746,14.756803 24.103487,14.786356 z M 23.871756,16.855185 C 23.878389,16.910698 23.874312,16.947128 23.850524,16.961747 C 23.839419,16.968571 23.82721,16.971103 23.810708,16.967512 C 23.813718,16.949383 23.811987,16.920324 23.80881,16.893869 C 23.822038,16.88574 23.857961,16.863663 23.871756,16.855185 z M 23.012419,15.456876 C 22.998624,15.465354 22.962701,15.487431 22.949473,15.49556 C 22.929427,15.482451 22.900562,15.465599 22.884627,15.460597 C 22.888651,15.443884 22.896651,15.434503 22.907757,15.427679 C 22.931455,15.413115 22.965261,15.424733 23.012419,15.456876 z M 23.50457,17.080841 C 23.511203,17.136354 23.507125,17.172784 23.483338,17.187403 C 23.472233,17.194227 23.46031,17.196583 23.443522,17.193168 C 23.444027,17.190124 23.434858,17.182887 23.43518,17.179595 C 23.436464,17.166416 23.432646,17.14271 23.431133,17.125972 C 23.442374,17.119063 23.492484,17.088268 23.50457,17.080841 z M 22.645233,15.682532 C 22.633147,15.689959 22.583038,15.720755 22.571796,15.727663 C 22.554502,15.716531 22.531681,15.690724 22.517441,15.686253 C 22.521751,15.669363 22.529465,15.660159 22.54057,15.653335 C 22.564269,15.638771 22.598074,15.650389 22.645233,15.682532 z"
       id="path3630" />
    <path
       style="opacity:0.35;fill:url(#linearGradient2715);fill-opacity:1;fill-rule:nonzero;stroke:none;stroke-width:12;stroke-linecap:round;stroke-linejoin:round;stroke-miterlimit:4;stroke-dasharray:none;stroke-opacity:1"
       d="M 12.153594,22.034784 C 12.153594,22.034784 11.829755,22.258138 11.409494,22.564341 L 12.258165,22.534197 C 12.139093,22.276159 12.090567,22.073518 12.153594,22.034784 z M 13.101349,23.576966 C 13.089018,23.586624 13.077276,23.580463 13.056981,23.575326 C 12.937236,23.549542 12.690176,23.281672 12.462839,22.914278 C 12.428933,22.859107 12.406182,22.803976 12.37662,22.750465 L 9.239801,24.678211 C 9.226623,24.750389 9.230232,24.827268 9.263073,24.880707 C 9.662689,25.53096 13.171955,23.533575 13.101349,23.576966 z"
       id="path3632" />
    <path
       sodipodi:nodetypes="cscccscc"
       id="path3634"
       d="M 12.509044,23.883157 C 11.508033,24.403787 9.5560264,25.3574 9.2630731,24.880707 C 9.230232,24.827268 9.2266227,24.750389 9.2398007,24.678211 L 2.03246,29.107512 L 5.4955166,30.650403 C 7.303898,31.354689 7.5606524,31.117936 9.7167003,29.805101 C 11.903838,28.473335 11.615129,28.460456 12.114709,26.322392 L 12.509044,23.883157 z"
       style="opacity:0.59999999999999998;fill:url(#linearGradient2712);fill-opacity:1;fill-rule:nonzero;stroke:none;stroke-width:1;stroke-linecap:butt;stroke-linejoin:miter;marker:none;marker-start:none;marker-mid:none;marker-end:none;stroke-miterlimit:4;stroke-dasharray:none;stroke-dashoffset:0;stroke-opacity:1;visibility:visible;display:inline;overflow:visible;enable-background:accumulate" />
    <path
       id="path3636"
       d="M 11.669366,22.375728 L 8.2194017,21.865426 C 6.0798053,21.334863 6.209162,21.064926 4.0330846,22.414689 C 1.8879401,23.745267 1.9594242,23.622433 1.7772564,25.564315 L 2.03246,29.107512 L 9.2398007,24.678211 C 9.2456909,24.645943 9.2606993,24.605422 9.274554,24.570133 L 2.3294893,28.838252 L 3.2658508,26.528416 C 3.8190847,25.330793 4.1165002,25.18756 6.1295927,23.944656 C 8.1717152,22.683829 8.0037972,22.784325 9.6233824,22.653913 L 11.386657,22.569518 C 11.539703,22.456375 11.543753,22.464899 11.669366,22.375728 z"
       style="opacity:0.5;fill:url(#linearGradient2709);fill-opacity:1;fill-rule:nonzero;stroke:none;stroke-width:1;stroke-linecap:butt;stroke-linejoin:miter;marker:none;marker-start:none;marker-mid:none;marker-end:none;stroke-miterlimit:4;stroke-dasharray:none;stroke-dashoffset:0;stroke-opacity:1;visibility:visible;display:inline;overflow:visible;enable-background:accumulate"
       sodipodi:nodetypes="ccsccccccsccc" />
    <path
       style="opacity:0.75000000000000000;fill:url(#linearGradient2706);fill-opacity:1;fill-rule:nonzero;stroke:none;stroke-width:1;stroke-linecap:butt;stroke-linejoin:miter;marker:none;marker-start:none;marker-mid:none;marker-end:none;stroke-miterlimit:4;stroke-dasharray:none;stroke-dashoffset:0;stroke-opacity:1;visibility:visible;display:inline;overflow:visible;enable-background:accumulate"
       d="M 12.264612,22.544688 L 9.8259143,22.598075 C 8.0978905,22.73722 8.2592721,22.542913 6.0804178,23.888157 C 3.9325385,25.214284 3.6229217,25.36502 3.0326444,26.642828 L 2.03246,29.107512 L 12.37662,22.750465 C 12.336627,22.678072 12.295639,22.611139 12.264612,22.544688 z"
       id="path3638" />
    <path
       sodipodi:nodetypes="cccsccc"
       id="path3640"
       d="M 39.796027,6.1020987 C 39.697735,5.9421582 36.399562,7.8425324 36.399562,7.8425324 L 32.958502,9.9572499 C 33.015723,10.019844 33.077692,10.104158 33.140667,10.206631 C 33.203544,10.308943 33.24516,10.393263 33.274421,10.471311 L 36.71548,8.3565931 C 36.71548,8.3565931 39.894317,6.2620357 39.796027,6.1020987 z"
       style="fill:url(#linearGradient2703);fill-opacity:1;stroke:none;stroke-width:1.20000005;stroke-linecap:round;stroke-linejoin:round;stroke-miterlimit:4;stroke-dasharray:none;stroke-opacity:1" />
    <path
       style="opacity:0.5;fill:url(#linearGradient2700);fill-opacity:1;fill-rule:nonzero;stroke:none;stroke-width:1;stroke-linecap:butt;stroke-linejoin:miter;marker:none;marker-start:none;marker-mid:none;marker-end:none;stroke-miterlimit:4;stroke-dasharray:none;stroke-dashoffset:0;stroke-opacity:1;visibility:visible;display:inline;overflow:visible;enable-background:accumulate"
       d="M 12.264612,22.544688 L 9.8259143,22.598075 C 8.0978917,22.737222 8.2592701,22.542909 6.0804178,23.888157 C 3.9325379,25.214283 3.6229196,25.365017 3.0326444,26.642828 L 2.03246,29.107512 L 2.4206283,28.868962 L 3.2624572,26.805114 C 3.8527324,25.527302 4.1623514,25.376569 6.3102306,24.050443 C 8.4890829,22.705195 8.3172121,22.905952 10.045236,22.766808 L 12.350831,22.708501 C 12.320045,22.651072 12.289537,22.59807 12.264612,22.544688 z"
       id="path3642" />
    <path
       style="opacity:0.35;fill:url(#linearGradient2697);fill-opacity:1;fill-rule:nonzero;stroke:none;stroke-width:12;stroke-linecap:round;stroke-linejoin:round;stroke-miterlimit:4;stroke-dasharray:none;stroke-opacity:1"
       d="M 22.020171,17.040779 C 21.758257,16.614595 21.467242,16.311043 21.375213,16.367599 C 21.30461,16.410994 19.18553,18.190241 19.185528,18.190237 L 19.70776,19.040011 L 22.322968,17.909782 C 22.420805,17.864002 22.282082,17.46696 22.020171,17.040779 z"
       id="path3644" />
    <path
       style="opacity:0.35;fill:url(#linearGradient2694);fill-opacity:1;fill-rule:nonzero;stroke:none;stroke-width:12;stroke-linecap:round;stroke-linejoin:round;stroke-miterlimit:4;stroke-dasharray:none;stroke-opacity:1"
       d="M 14.768802,20.904555 C 14.768804,20.904558 12.224202,21.991396 12.153594,22.034784 C 12.061566,22.091341 12.200925,22.488094 12.462839,22.914278 C 12.72475,23.340459 13.016311,23.643573 13.101349,23.576966 L 15.291034,21.754329 C 15.291035,21.754329 14.768804,20.904558 14.768802,20.904555 z"
       id="path3646" />
    <path
       sodipodi:nodetypes="ccccc"
       id="path3648"
       d="M 19.707622,19.039786 L 15.290896,21.754104 C 15.290896,21.754104 14.768664,20.90433 14.768662,20.904326 L 19.185387,18.190009 L 19.707622,19.039786 z"
       style="opacity:0.35;fill:url(#linearGradient2691);fill-opacity:1;fill-rule:nonzero;stroke:none;stroke-width:12;stroke-linecap:round;stroke-linejoin:round;stroke-miterlimit:4;stroke-dasharray:none;stroke-opacity:1" />
    <path
       transform="matrix(0.2158921,-5.0410498e-2,6.3765792e-2,0.2173362,-4.9889326,12.467274)"
       d="M 127.82442,115.70919 A 63.912209,12.641975 0 1 1 0,115.70919 A 63.912209,12.641975 0 1 1 127.82442,115.70919 z"
       sodipodi:ry="12.641975"
       sodipodi:rx="63.912209"
       sodipodi:cy="115.70919"
       sodipodi:cx="63.912209"
       id="path2593"
       style="opacity:0.2;fill:url(#radialGradient2595);fill-opacity:1;fill-rule:nonzero;stroke:none;stroke-width:0;stroke-linecap:round;stroke-linejoin:round;stroke-miterlimit:4;stroke-dasharray:none;stroke-dashoffset:4;stroke-opacity:1"
       sodipodi:type="arc" />
    <rect
       style="opacity:0.61162792;fill:#555753;fill-opacity:1;fill-rule:nonzero;stroke:none;stroke-width:0.69999999;stroke-linecap:round;stroke-linejoin:miter;stroke-miterlimit:4;stroke-dasharray:none;stroke-opacity:1"
       id="rect1951"
       width="40.001965"
       height="10.004759"
       x="-0.0019683838"
       y="30" />
    <text
       xml:space="preserve"
       style="font-size:12px;font-style:normal;font-weight:normal;fill:#eeeeec;fill-opacity:1;stroke:none;stroke-width:1px;stroke-linecap:butt;stroke-linejoin:miter;stroke-opacity:1;font-family:Bitstream Vera Sans"
       x="14.057968"
       y="39.168156"
       id="text2840"><tspan
         sodipodi:role="line"
         id="tspan2842"
         x="14.057968"
         y="39.168156">W</tspan></text>
  </g>
</svg>
