<?xml version="1.0" encoding="UTF-8" standalone="no"?>
<!-- Created with Inkscape (http://www.inkscape.org/) -->
<svg
   xmlns:dc="http://purl.org/dc/elements/1.1/"
   xmlns:cc="http://creativecommons.org/ns#"
   xmlns:rdf="http://www.w3.org/1999/02/22-rdf-syntax-ns#"
   xmlns:svg="http://www.w3.org/2000/svg"
   xmlns="http://www.w3.org/2000/svg"
   xmlns:xlink="http://www.w3.org/1999/xlink"
   xmlns:sodipodi="http://sodipodi.sourceforge.net/DTD/sodipodi-0.dtd"
   xmlns:inkscape="http://www.inkscape.org/namespaces/inkscape"
   width="40"
   height="40"
   id="svg2193"
   sodipodi:version="0.32"
   inkscape:version="0.46"
   version="1.0"
   sodipodi:docbase="/home/jra/Desktop"
   sodipodi:docname="75.svg"
   inkscape:output_extension="org.inkscape.output.svg.inkscape">
  <defs
     id="defs2195">
    <linearGradient
       id="linearGradient3272">
      <stop
         style="stop-color:#000000;stop-opacity:1"
         offset="0"
         id="stop3274" />
      <stop
         id="stop3278"
         offset="0.5"
         style="stop-color:#ffffff;stop-opacity:1;" />
      <stop
         style="stop-color:#000000;stop-opacity:1;"
         offset="1"
         id="stop3276" />
    </linearGradient>
    <linearGradient
       id="linearGradient3220">
      <stop
         id="stop3222"
         offset="0"
         style="stop-color:#000000;stop-opacity:1" />
      <stop
         id="stop3224"
         offset="1"
         style="stop-color:#ffffff;stop-opacity:1;" />
    </linearGradient>
    <linearGradient
       id="linearGradient3291">
      <stop
         id="stop3293"
         offset="0"
         style="stop-color:#000000;stop-opacity:1;" />
      <stop
         id="stop3295"
         offset="1"
         style="stop-color:#000000;stop-opacity:0;" />
    </linearGradient>
    <radialGradient
       inkscape:collect="always"
       xlink:href="#linearGradient3291"
       id="radialGradient2595"
       gradientUnits="userSpaceOnUse"
       gradientTransform="matrix(1,0,0,0.197802,0,92.82166)"
       cx="63.912209"
       cy="115.70919"
       fx="75.857941"
       fy="115.70919"
       r="63.912209" />
    <linearGradient
       id="linearGradient2660">
      <stop
         style="stop-color:#000000;stop-opacity:1;"
         offset="0"
         id="stop2662" />
      <stop
         style="stop-color:#000000;stop-opacity:0;"
         offset="1"
         id="stop2664" />
    </linearGradient>
    <linearGradient
       id="linearGradient4444">
      <stop
         style="stop-color:#000000;stop-opacity:1;"
         offset="0"
         id="stop4446" />
      <stop
         id="stop4450"
         offset="0.5"
         style="stop-color:#ffffff;stop-opacity:1;" />
      <stop
         style="stop-color:#000000;stop-opacity:1;"
         offset="1"
         id="stop4448" />
    </linearGradient>
    <linearGradient
       id="linearGradient3522">
      <stop
         id="stop3524"
         offset="0"
         style="stop-color:#000000;stop-opacity:1;" />
      <stop
         style="stop-color:#000000;stop-opacity:0;"
         offset="0.5"
         id="stop3526" />
      <stop
         id="stop3528"
         offset="1"
         style="stop-color:#000000;stop-opacity:1;" />
    </linearGradient>
    <linearGradient
       inkscape:collect="always"
       xlink:href="#linearGradient3272"
       id="linearGradient3631"
       gradientUnits="userSpaceOnUse"
       gradientTransform="matrix(0,0.4224689,-0.4224689,0,1.48486,40.141618)"
       x1="-30.328239"
       y1="-48.489784"
       x2="-30.328239"
       y2="-45.894058" />
    <linearGradient
       inkscape:collect="always"
       xlink:href="#linearGradient3272"
       id="linearGradient3634"
       gradientUnits="userSpaceOnUse"
       gradientTransform="matrix(0,0.4224689,-0.4224689,0,-1.440159,40.141618)"
       x1="-30.328239"
       y1="-48.489784"
       x2="-30.328239"
       y2="-45.894058" />
    <linearGradient
       inkscape:collect="always"
       xlink:href="#linearGradient3272"
       id="linearGradient3642"
       gradientUnits="userSpaceOnUse"
       gradientTransform="matrix(0,5.4289852e-2,-3.6321299,0,-152.09818,23.102894)"
       x1="-30.328239"
       y1="-47.93914"
       x2="-30.328239"
       y2="-45.713268" />
    <linearGradient
       inkscape:collect="always"
       xlink:href="#linearGradient3272"
       id="linearGradient3668"
       gradientUnits="userSpaceOnUse"
       gradientTransform="matrix(0,0.4224689,-0.4224689,0,-1.440159,29.257738)"
       x1="-30.328239"
       y1="-48.489784"
       x2="-30.328239"
       y2="-45.894058" />
    <linearGradient
       inkscape:collect="always"
       xlink:href="#linearGradient3220"
       id="linearGradient3698"
       x1="-20.21105"
       y1="13.930157"
       x2="-29.080759"
       y2="22.149513"
       gradientUnits="userSpaceOnUse" />
    <linearGradient
       inkscape:collect="always"
       xlink:href="#linearGradient4444"
       id="linearGradient3714"
       x1="13.09375"
       y1="24.078125"
       x2="20.90625"
       y2="24.078125"
       gradientUnits="userSpaceOnUse" />
    <radialGradient
       inkscape:collect="always"
       xlink:href="#linearGradient2660"
       id="radialGradient3745"
       cx="21"
       cy="24.015625"
       fx="21"
       fy="24.015625"
       r="6.90625"
       gradientTransform="matrix(1,0,0,0.3642534,0.875,15.392852)"
       gradientUnits="userSpaceOnUse" />
    <radialGradient
       inkscape:collect="always"
       xlink:href="#linearGradient3291"
       id="radialGradient3762"
       cx="22.78125"
       cy="21.341307"
       fx="22.78125"
       fy="21.341307"
       r="2.53125"
       gradientTransform="matrix(1.5802486,0,0,2.9999997,-13.218792,-43.273913)"
       gradientUnits="userSpaceOnUse" />
    <linearGradient
       inkscape:collect="always"
       xlink:href="#linearGradient3220"
       id="linearGradient3764"
       gradientUnits="userSpaceOnUse"
       x1="-18.450132"
       y1="16.081085"
       x2="-25.652765"
       y2="23.353798" />
    <radialGradient
       inkscape:collect="always"
       xlink:href="#linearGradient2660"
       id="radialGradient3774"
       cx="18.904058"
       cy="17.913961"
       fx="18.904058"
       fy="17.913961"
       r="0.56347573"
       gradientTransform="matrix(1.2745099,0,0,0.574779,-5.1893492,7.5952975)"
       gradientUnits="userSpaceOnUse" />
    <radialGradient
       inkscape:collect="always"
       xlink:href="#linearGradient2660"
       id="radialGradient3778"
       gradientUnits="userSpaceOnUse"
       gradientTransform="matrix(1.2745099,0,0,0.574779,-2.261271,7.5952975)"
       cx="18.904058"
       cy="17.913961"
       fx="18.904058"
       fy="17.913961"
       r="0.56347573" />
    <linearGradient
       inkscape:collect="always"
       xlink:href="#linearGradient3272"
       id="linearGradient3953"
       gradientUnits="userSpaceOnUse"
       gradientTransform="matrix(0,0.4224689,-0.4224689,0,1.48486,25.257738)"
       x1="-30.328239"
       y1="-48.489784"
       x2="-30.328239"
       y2="-45.894058" />
    <radialGradient
       inkscape:collect="always"
       xlink:href="#linearGradient3272"
       id="radialGradient3955"
       gradientUnits="userSpaceOnUse"
       gradientTransform="matrix(2.7908041,0,0,3.0645161,-37.749697,-14)"
       cx="20.713982"
       cy="6.1225572"
       fx="20.713982"
       fy="6.1225572"
       r="0.96875" />
    <linearGradient
       inkscape:collect="always"
       xlink:href="#linearGradient3272"
       id="linearGradient3959"
       gradientUnits="userSpaceOnUse"
       gradientTransform="matrix(0.4224689,0,0,-0.4224689,33.5334,-16.704865)"
       x1="-30.328239"
       y1="-48.489784"
       x2="-30.328239"
       y2="-45.894058" />
    <radialGradient
       inkscape:collect="always"
       xlink:href="#linearGradient3522"
       id="radialGradient3961"
       gradientUnits="userSpaceOnUse"
       gradientTransform="matrix(2.7908041,0,0,3.0645161,-37.749697,-14)"
       cx="20.713982"
       cy="6.1225572"
       fx="20.713982"
       fy="6.1225572"
       r="0.96875" />
    <linearGradient
       inkscape:collect="always"
       xlink:href="#linearGradient4444"
       id="linearGradient3976"
       gradientUnits="userSpaceOnUse"
       x1="18.021278"
       y1="9.151638"
       x2="18.394024"
       y2="9.151638"
       gradientTransform="matrix(0.9996695,-2.5708373e-2,2.5708373e-2,0.9996695,-0.1030343,0.5973765)" />
    <radialGradient
       inkscape:collect="always"
       xlink:href="#linearGradient3272"
       id="radialGradient3986"
       cx="18.313959"
       cy="3.3369317"
       fx="18.313959"
       fy="3.3369317"
       r="0.0625"
       gradientTransform="matrix(8.9316578,-1.0313498e-5,5.857095e-5,50.181035,-145.21483,-162.79425)"
       gradientUnits="userSpaceOnUse" />
  </defs>
  <sodipodi:namedview
     id="base"
     pagecolor="#ffffff"
     bordercolor="#666666"
     borderopacity="1.0"
     inkscape:pageopacity="0.0"
     inkscape:pageshadow="2"
     inkscape:zoom="8"
     inkscape:cx="20.163021"
     inkscape:cy="20.882409"
     inkscape:current-layer="layer1"
     showgrid="false"
     inkscape:grid-bbox="false"
     inkscape:document-units="px"
     width="40px"
     height="40px"
     inkscape:window-width="1608"
     inkscape:window-height="1053"
     inkscape:window-x="266"
     inkscape:window-y="38"
     showguides="true"
     inkscape:guide-bbox="true">
    <inkscape:grid
       id="GridFromPre046Settings"
       type="xygrid"
       originx="0px"
       originy="0px"
       spacingx="1px"
       spacingy="1px"
       color="#0000ff"
       empcolor="#0000ff"
       opacity="0.2"
       empopacity="0.4"
       empspacing="2"
       visible="true"
       enabled="true" />
  </sodipodi:namedview>
  <metadata
     id="metadata2198">
    <rdf:RDF>
      <cc:Work
         rdf:about="">
        <dc:format>image/svg+xml</dc:format>
        <dc:type
           rdf:resource="http://purl.org/dc/dcmitype/StillImage" />
        <dc:creator>
          <cc:Agent>
            <dc:title>Jarle Akselsen</dc:title>
          </cc:Agent>
        </dc:creator>
        <cc:license
           rdf:resource="http://creativecommons.org/licenses/GPL/2.0/" />
      </cc:Work>
      <cc:License
         rdf:about="http://creativecommons.org/licenses/GPL/2.0/">
        <cc:permits
           rdf:resource="http://web.resource.org/cc/Reproduction" />
        <cc:permits
           rdf:resource="http://web.resource.org/cc/Distribution" />
        <cc:requires
           rdf:resource="http://web.resource.org/cc/Notice" />
        <cc:permits
           rdf:resource="http://web.resource.org/cc/DerivativeWorks" />
        <cc:requires
           rdf:resource="http://web.resource.org/cc/ShareAlike" />
        <cc:requires
           rdf:resource="http://web.resource.org/cc/SourceCode" />
      </cc:License>
    </rdf:RDF>
  </metadata>
  <g
     id="layer1"
     inkscape:label="Layer 1"
     inkscape:groupmode="layer">
    <path
       id="path3724"
       d="M 18.5625,20.125 C 18.076679,20.125 18.125,20.218749 18.125,20.21875 L 18.125,34.75 C 18.125,34.75 18.093995,35.09375 18.5625,35.09375 C 19.031005,35.09375 19.03125,34.749999 19.03125,34.75 L 19.03125,20.21875 C 19.03125,20.21875 19.048321,20.124999 18.5625,20.125 z M 21.5,20.125 C 21.014179,20.125 21.031251,20.218749 21.03125,20.21875 L 21.03125,34.75 C 21.03125,34.75 21.031493,35.09375 21.5,35.09375 C 21.968505,35.09375 21.968751,34.749999 21.96875,34.75 L 21.96875,20.21875 C 21.96875,20.21875 21.985819,20.124999 21.5,20.125 z"
       style="fill:#ffaa00;fill-opacity:1;stroke:none;stroke-width:0.25000000000000000;stroke-linecap:round;stroke-linejoin:miter;stroke-miterlimit:4;stroke-opacity:1" />
    <path
       style="fill:url(#linearGradient3634);fill-opacity:1;stroke:none;stroke-width:0.25000000000000000;stroke-linecap:round;stroke-linejoin:miter;stroke-miterlimit:4;stroke-opacity:1;opacity:0.5"
       d="M 19.040146,20.211507 L 19.040146,34.755103 C 19.040146,34.755103 19.043453,35.080383 18.574948,35.080383 C 18.106442,35.080383 18.109749,34.755103 18.109749,34.755103 L 18.109749,20.211507 C 18.109749,20.211507 18.089127,20.124942 18.574948,20.124942 C 19.060768,20.124942 19.040146,20.211507 19.040146,20.211507 z"
       id="path2501"
       sodipodi:nodetypes="cczcczc" />
    <path
       sodipodi:nodetypes="cczcczc"
       id="path2505"
       d="M 21.965165,20.211507 L 21.965165,34.755103 C 21.965165,34.755103 21.968472,35.080383 21.499967,35.080383 C 21.031461,35.080383 21.034768,34.755103 21.034768,34.755103 L 21.034768,20.211507 C 21.034768,20.211507 21.014146,20.124942 21.499967,20.124942 C 21.985787,20.124942 21.965165,20.211507 21.965165,20.211507 z"
       style="fill:url(#linearGradient3631);fill-opacity:1;stroke:none;stroke-width:0.25000000000000000;stroke-linecap:round;stroke-linejoin:miter;stroke-miterlimit:4;stroke-opacity:1;opacity:0.5" />
    <path
       sodipodi:nodetypes="csssssc"
       id="path3726"
       d="M 20,20.375 C 16.189449,20.375 13.09375,21.437694 13.09375,22.75 C 13.09375,22.75 13.09375,23.03125 13.09375,23.03125 C 13.09375,24.343553 16.18945,25.40625 20,25.40625 C 23.810551,25.40625 26.90625,24.343553 26.90625,23.03125 C 26.90625,23.03125 26.90625,22.75 26.90625,22.75 C 26.90625,21.437695 23.810552,20.374999 20,20.375 z"
       style="opacity:1;fill:#ffaa00;fill-opacity:1;stroke:none;stroke-width:1;stroke-linecap:round;stroke-linejoin:round;stroke-miterlimit:4;stroke-opacity:1" />
    <path
       transform="matrix(0.1364077,0,0,0.303661,11.70576,-2.92174e-2)"
       d="M 127.82442,115.70919 A 63.912209,12.641975 0 1 1 0,115.70919 A 63.912209,12.641975 0 1 1 127.82442,115.70919 z"
       sodipodi:ry="12.641975"
       sodipodi:rx="63.912209"
       sodipodi:cy="115.70919"
       sodipodi:cx="63.912209"
       id="path2593"
       style="opacity:0.38139535;fill:url(#radialGradient2595);fill-opacity:1;fill-rule:nonzero;stroke:none;stroke-width:0;stroke-linecap:round;stroke-linejoin:round;stroke-miterlimit:4;stroke-dasharray:none;stroke-dashoffset:4;stroke-opacity:1"
       sodipodi:type="arc" />
    <rect
       style="opacity:0.61162792;fill:#555753;fill-opacity:1;fill-rule:nonzero;stroke:none;stroke-width:0.69999999;stroke-linecap:round;stroke-linejoin:miter;stroke-miterlimit:4;stroke-dasharray:none;stroke-opacity:1"
       id="rect1951"
       width="40.001965"
       height="10.004759"
       x="-0.0019644466"
       y="30" />
    <text
       xml:space="preserve"
       style="font-size:12px;font-style:normal;font-weight:normal;fill:#eeeeec;fill-opacity:1;stroke:none;stroke-width:1px;stroke-linecap:butt;stroke-linejoin:miter;stroke-opacity:1;font-family:Bitstream Vera Sans"
       x="12.136719"
       y="39.168156"
       id="text2840"><tspan
         sodipodi:role="line"
         id="tspan2842"
         x="12.136719"
         y="39.168156">Re</tspan></text>
    <path
       transform="matrix(1.3535532,0,0,1.7835149,47.069128,-9.0121156)"
       d="M -14.894429,17.803244 A 5.1000381,1.3329645 0 1 1 -25.094505,17.803244 A 5.1000381,1.3329645 0 1 1 -14.894429,17.803244 z"
       sodipodi:ry="1.3329645"
       sodipodi:rx="5.1000381"
       sodipodi:cy="17.803244"
       sodipodi:cx="-19.994467"
       id="path3609"
       style="opacity:0.50000000000000000;fill:url(#linearGradient3764);fill-opacity:1;stroke:none;stroke-width:1;stroke-linecap:round;stroke-linejoin:round;stroke-miterlimit:4;stroke-dasharray:none;stroke-opacity:1"
       sodipodi:type="arc" />
    <path
       style="opacity:0.45081967000000001;fill:url(#linearGradient3714);fill-opacity:1;stroke:none;stroke-width:1;stroke-linecap:round;stroke-linejoin:round;stroke-miterlimit:4;stroke-opacity:1"
       d="M 13.09375 22.75 C 13.09375 22.75 13.09375 23.03125 13.09375 23.03125 C 13.09375 24.343553 16.18945 25.40625 20 25.40625 C 23.810551 25.40625 26.90625 24.343553 26.90625 23.03125 C 26.90625 23.03125 26.90625 22.75 26.90625 22.75 C 26.906251 24.062304 23.810551 25.125 20 25.125 C 16.189448 25.124999 13.09375 24.062304 13.09375 22.75 z "
       id="path3655" />
    <path
       sodipodi:nodetypes="csssssc"
       id="path3728"
       d="M 20,16.375 C 17.184779,16.375 14.90625,17.134756 14.90625,18.0625 C 14.90625,18.427399 14.90625,22.275293 14.90625,22.65625 C 14.90625,23.625774 17.184779,24.40625 20,24.40625 C 22.815221,24.40625 25.093749,23.625774 25.09375,22.65625 C 25.09375,22.213564 25.09375,18.485382 25.09375,18.0625 C 25.09375,17.134756 22.815221,16.374999 20,16.375 z"
       style="opacity:1;fill:#ffaa00;fill-opacity:1;stroke:none;stroke-width:1;stroke-linecap:round;stroke-linejoin:round;stroke-miterlimit:4;stroke-opacity:1" />
    <path
       transform="matrix(1,0,0,1.2608695,40,-4.3835267)"
       d="M -14.894429,17.803244 A 5.1000381,1.3329645 0 1 1 -25.094505,17.803244 A 5.1000381,1.3329645 0 1 1 -14.894429,17.803244 z"
       sodipodi:ry="1.3329645"
       sodipodi:rx="5.1000381"
       sodipodi:cy="17.803244"
       sodipodi:cx="-19.994467"
       id="path3605"
       style="opacity:0.50000000000000000;fill:url(#linearGradient3698);fill-opacity:1;stroke:none;stroke-width:1;stroke-linecap:round;stroke-linejoin:round;stroke-miterlimit:4;stroke-dasharray:none;stroke-opacity:1"
       sodipodi:type="arc" />
    <path
       style="fill:url(#linearGradient3642);fill-opacity:1;stroke:none;stroke-width:0.25000000000000000;stroke-linecap:round;stroke-linejoin:miter;stroke-miterlimit:4;stroke-opacity:1;opacity:0.50000000000000000"
       d="M 14.90625,18.0625 C 14.90625,18.427399 14.90625,22.275293 14.90625,22.65625 C 14.90625,23.625774 17.184779,24.40625 20,24.40625 C 22.815221,24.40625 25.093749,23.625774 25.09375,22.65625 C 25.09375,22.231633 25.09375,18.903897 25.09375,18.25 C 24.832422,19.097158 22.63927,19.75 20,19.75 C 17.184779,19.750001 14.90625,18.990243 14.90625,18.0625 z"
       id="path3295" />
    <path
       style="fill:#ffaa00;fill-opacity:1;stroke:none;stroke-width:0.25000000000000000;stroke-linecap:round;stroke-linejoin:miter;stroke-miterlimit:4;stroke-opacity:1"
       d="M 19.040146,15.327623 L 19.040146,17.871223 C 19.040146,17.871223 19.043453,18.051302 18.574948,18.051302 C 18.106442,18.051302 18.109749,17.871223 18.109749,17.871223 L 18.109749,15.327623 C 18.109749,15.327623 18.089127,15.241058 18.574948,15.241058 C 19.060768,15.241058 19.040146,15.327623 19.040146,15.327623 z"
       id="path3730"
       sodipodi:nodetypes="cczcczc" />
    <path
       sodipodi:nodetypes="cczcczc"
       id="path3664"
       d="M 19.040146,15.327623 L 19.040146,17.871223 C 19.040146,17.871223 19.043453,18.051302 18.574948,18.051302 C 18.106442,18.051302 18.109749,17.871223 18.109749,17.871223 L 18.109749,15.327623 C 18.109749,15.327623 18.089127,15.241058 18.574948,15.241058 C 19.060768,15.241058 19.040146,15.327623 19.040146,15.327623 z"
       style="fill:url(#linearGradient3668);fill-opacity:1;stroke:none;stroke-width:0.25000000000000000;stroke-linecap:round;stroke-linejoin:miter;stroke-miterlimit:4;stroke-opacity:1;opacity:0.5" />
    <path
       style="fill:#ffaa00;fill-opacity:1;stroke:none;stroke-width:0.25000000000000000;stroke-linecap:round;stroke-linejoin:miter;stroke-miterlimit:4;stroke-opacity:1"
       d="M 18.4375,2.84375 C 18.4375,2.8437498 18.375,2.826679 18.375,3.3125 C 18.375,3.7983198 18.4375,3.78125 18.4375,3.78125 L 20.0625,3.78125 C 20.605292,3.7812499 21.03125,4.2384585 21.03125,4.78125 C 21.03125,4.78125 21.03125,4.8125001 21.03125,4.8125 L 21.03125,17.875 C 21.03125,17.875 21.031493,18.0625 21.5,18.0625 C 21.968505,18.0625 21.968751,17.875 21.96875,17.875 L 21.96875,4.8125 C 21.96875,4.8125 22,4.78125 22,4.78125 C 22,3.7470835 21.177935,2.8954584 20.15625,2.84375 L 20.0625,2.84375 L 18.4375,2.84375 z"
       id="path3940"
       sodipodi:nodetypes="cscccccscccccc" />
    <path
       style="opacity:0.5;fill:url(#linearGradient3959);fill-opacity:1;stroke:none;stroke-width:0.25;stroke-linecap:round;stroke-linejoin:miter;stroke-miterlimit:4;stroke-opacity:1"
       d="M 18.453125,2.84375 C 18.453125,2.8437498 18.390625,2.826679 18.390625,3.3125 C 18.390625,3.7983198 18.453125,3.78125 18.453125,3.78125 L 20.0625,3.78125 L 20.0625,2.84375 L 18.453125,2.84375 z"
       id="path3805"
       sodipodi:nodetypes="cscccc" />
    <path
       style="opacity:0.5;fill:url(#linearGradient3953);fill-opacity:1;stroke:none;stroke-width:0.25;stroke-linecap:round;stroke-linejoin:miter;stroke-miterlimit:4;stroke-opacity:1"
       d="M 21.965165,4.7768418 L 21.965165,17.871223 C 21.965165,17.871223 21.968472,18.051302 21.499967,18.051302 C 21.031461,18.051302 21.034768,17.871223 21.034768,17.871223 L 21.034768,4.7768418 C 21.034768,4.7768418 21.965165,4.7768418 21.965165,4.7768418 z"
       id="path3666"
       sodipodi:nodetypes="cczccc" />
    <path
       style="opacity:1;fill:url(#radialGradient3745);fill-opacity:1;stroke:none;stroke-width:1;stroke-linecap:round;stroke-linejoin:round;stroke-miterlimit:4;stroke-opacity:1"
       d="M 21.96875 25.28125 C 21.661662 25.312711 21.354541 25.358402 21.03125 25.375 L 21.03125 26.625 C 21.307907 26.636605 21.589303 26.65625 21.875 26.65625 C 21.906692 26.65625 21.937158 26.656397 21.96875 26.65625 L 21.96875 25.28125 z M 18.125 25.3125 L 18.125 26.28125 C 18.408868 26.344303 18.720873 26.389079 19.03125 26.4375 L 19.03125 25.375 C 18.721034 25.360047 18.420634 25.341149 18.125 25.3125 z "
       id="path3734" />
    <path
       style="opacity:0.5;fill:url(#radialGradient3762);fill-opacity:1;stroke:none;stroke-width:0.25000000000000000;stroke-linecap:round;stroke-linejoin:miter;stroke-miterlimit:4;stroke-opacity:1"
       d="M 25.09375 21.15625 C 25.09375 21.70949 25.09375 22.511699 25.09375 22.65625 C 25.093749 23.464187 23.500366 24.140642 21.34375 24.34375 C 24.144245 24.337874 26.406249 23.559605 26.40625 22.59375 C 26.40625 22.521475 26.40625 22.056743 26.40625 21.84375 C 26.100073 21.584529 25.630493 21.360486 25.09375 21.15625 z "
       id="path3750" />
    <path
       style="opacity:0.50000000000000000;fill:url(#radialGradient3774);fill-opacity:1;stroke:none;stroke-width:1;stroke-linecap:round;stroke-linejoin:round;stroke-miterlimit:4;stroke-dasharray:none;stroke-opacity:1"
       d="M 19.03125 17.5625 L 19.03125 17.875 C 19.03125 17.875 19.031005 18.0625 18.5625 18.0625 C 18.396908 18.0625 18.318688 18.02909 18.25 18 C 18.345049 18.128679 18.589113 18.21875 18.90625 18.21875 C 19.302672 18.21875 19.625001 18.085028 19.625 17.90625 C 19.625 17.747094 19.366917 17.58966 19.03125 17.5625 z "
       id="path3766" />
    <path
       style="opacity:0.50000000000000000;fill:url(#radialGradient3778);fill-opacity:1;stroke:none;stroke-width:1;stroke-linecap:round;stroke-linejoin:round;stroke-miterlimit:4;stroke-dasharray:none;stroke-opacity:1"
       d="M 21.96875 17.5625 L 21.96875 17.875 C 21.968751 17.875 21.968505 18.0625 21.5 18.0625 C 21.32431 18.0625 21.224297 18.031655 21.15625 18 C 21.248445 18.13089 21.523115 18.21875 21.84375 18.21875 C 22.240172 18.21875 22.562499 18.085028 22.5625 17.90625 C 22.5625 17.747094 22.304417 17.58966 21.96875 17.5625 z "
       id="path3776" />
    <path
       sodipodi:nodetypes="ccsccc"
       id="path3812"
       d="M 20.0625,3.78125 C 20.605292,3.7812499 21.03125,4.2384585 21.03125,4.78125 C 21.03125,4.78125 22,4.78125 22,4.78125 C 22,3.7470835 21.177935,2.8954584 20.15625,2.84375 L 20.0625,2.84375 L 20.0625,3.78125 z"
       style="opacity:0.5;fill:url(#radialGradient3955);fill-opacity:1;stroke:none;stroke-width:0.25;stroke-linecap:round;stroke-linejoin:miter;stroke-miterlimit:4;stroke-opacity:1" />
    <path
       style="opacity:1;fill:url(#radialGradient3961);fill-opacity:1;stroke:none;stroke-width:0.25;stroke-linecap:round;stroke-linejoin:miter;stroke-miterlimit:4;stroke-opacity:1"
       d="M 20.0625,3.78125 C 20.605292,3.7812499 21.03125,4.2384585 21.03125,4.78125 C 21.03125,4.78125 22,4.78125 22,4.78125 C 22,3.7470835 21.177935,2.8954584 20.15625,2.84375 L 20.0625,2.84375 L 20.0625,3.78125 z"
       id="path3949"
       sodipodi:nodetypes="ccsccc" />
    <path
       sodipodi:nodetypes="ccccc"
       id="path3974"
       d="M 18.04648,3.2462579 C 18.176756,3.1041393 18.310099,3.0944717 18.422006,3.2366006 L 18.730043,15.214624 C 18.881052,15.346908 18.169669,15.372211 18.354517,15.224281 L 18.04648,3.2462579 z"
       style="opacity:0.98999999;fill:url(#linearGradient3976);fill-opacity:1;stroke:none;stroke-width:1;stroke-linecap:round;stroke-linejoin:round;stroke-miterlimit:4;stroke-opacity:1" />
    <path
       style="opacity:1;fill:url(#radialGradient3986);fill-opacity:1;stroke:none;stroke-width:0.25000000000000000;stroke-linecap:round;stroke-linejoin:miter;stroke-miterlimit:4;stroke-opacity:1"
       d="M 18.4375,2.84375 C 18.4375,2.8437498 18.070313,2.826679 18.070313,3.3125 C 18.070313,3.7983198 18.4375,3.78125 18.4375,3.78125 C 18.4375,3.78125 18.500001,3.7983198 18.5,3.3125 C 18.5,2.826679 18.4375,2.8437498 18.4375,2.84375 z"
       id="path3838"
       sodipodi:nodetypes="cscsc" />
  </g>
</svg>
