<?xml version="1.0" encoding="UTF-8" standalone="no"?>
<!-- Created with Inkscape (http://www.inkscape.org/) -->
<svg
   xmlns:dc="http://purl.org/dc/elements/1.1/"
   xmlns:cc="http://creativecommons.org/ns#"
   xmlns:rdf="http://www.w3.org/1999/02/22-rdf-syntax-ns#"
   xmlns:svg="http://www.w3.org/2000/svg"
   xmlns="http://www.w3.org/2000/svg"
   xmlns:xlink="http://www.w3.org/1999/xlink"
   xmlns:sodipodi="http://sodipodi.sourceforge.net/DTD/sodipodi-0.dtd"
   xmlns:inkscape="http://www.inkscape.org/namespaces/inkscape"
   width="40"
   height="40"
   id="svg2193"
   sodipodi:version="0.32"
   inkscape:version="0.46"
   version="1.0"
   sodipodi:docbase="/home/jra/Desktop"
   sodipodi:docname="77.svg"
   inkscape:output_extension="org.inkscape.output.svg.inkscape">
  <defs
     id="defs2195">
    <inkscape:perspective
       sodipodi:type="inkscape:persp3d"
       inkscape:vp_x="0 : 20 : 1"
       inkscape:vp_y="0 : 1000 : 0"
       inkscape:vp_z="40 : 20 : 1"
       inkscape:persp3d-origin="20 : 13.333333 : 1"
       id="perspective111" />
    <linearGradient
       id="linearGradient3794">
      <stop
         id="stop3796"
         offset="0"
         style="stop-color:#ffffff;stop-opacity:0.5" />
      <stop
         id="stop3798"
         offset="1"
         style="stop-color:#000000;stop-opacity:1;" />
    </linearGradient>
    <linearGradient
       id="linearGradient3760">
      <stop
         style="stop-color:#ffffff;stop-opacity:1;"
         offset="0"
         id="stop3762" />
      <stop
         style="stop-color:#000000;stop-opacity:1;"
         offset="1"
         id="stop3764" />
    </linearGradient>
    <linearGradient
       id="linearGradient3715">
      <stop
         style="stop-color:#000000;stop-opacity:0;"
         offset="0"
         id="stop3717" />
      <stop
         style="stop-color:#000000;stop-opacity:1;"
         offset="1"
         id="stop3719" />
    </linearGradient>
    <linearGradient
       id="linearGradient3703">
      <stop
         id="stop3705"
         offset="0"
         style="stop-color:#ffffff;stop-opacity:1;" />
      <stop
         style="stop-color:#b7b7b7;stop-opacity:0;"
         offset="0.5"
         id="stop3709" />
      <stop
         id="stop3707"
         offset="1"
         style="stop-color:#000000;stop-opacity:0.19018404;" />
    </linearGradient>
    <linearGradient
       id="linearGradient3647">
      <stop
         id="stop3649"
         offset="0"
         style="stop-color:#000000;stop-opacity:0.42331287;" />
      <stop
         style="stop-color:#ffffff;stop-opacity:1;"
         offset="0.21253186"
         id="stop3651" />
      <stop
         id="stop3657"
         offset="1"
         style="stop-color:#000000;stop-opacity:0.93865031;" />
    </linearGradient>
    <linearGradient
       id="linearGradient3446">
      <stop
         style="stop-color:#000000;stop-opacity:1"
         offset="0"
         id="stop3448" />
      <stop
         id="stop3452"
         offset="0.21253186"
         style="stop-color:#ffffff;stop-opacity:1;" />
      <stop
         style="stop-color:#6d6d6d;stop-opacity:1;"
         offset="0.43346205"
         id="stop3454" />
      <stop
         id="stop3456"
         offset="0.70058113"
         style="stop-color:#8b8b8b;stop-opacity:1;" />
      <stop
         style="stop-color:#000000;stop-opacity:1;"
         offset="1"
         id="stop3450" />
    </linearGradient>
    <linearGradient
       id="linearGradient3239">
      <stop
         style="stop-color:#ffffff;stop-opacity:1;"
         offset="0"
         id="stop3241" />
      <stop
         style="stop-color:#ffffff;stop-opacity:0;"
         offset="1"
         id="stop3243" />
    </linearGradient>
    <linearGradient
       id="linearGradient3291">
      <stop
         id="stop3293"
         offset="0"
         style="stop-color:#000000;stop-opacity:1;" />
      <stop
         id="stop3295"
         offset="1"
         style="stop-color:#000000;stop-opacity:0;" />
    </linearGradient>
    <radialGradient
       inkscape:collect="always"
       xlink:href="#linearGradient3291"
       id="radialGradient2595"
       gradientUnits="userSpaceOnUse"
       gradientTransform="matrix(1,0,0,0.197802,0,92.82166)"
       cx="63.912209"
       cy="115.70919"
       fx="75.857941"
       fy="115.70919"
       r="63.912209" />
    <linearGradient
       id="linearGradient2779">
      <stop
         style="stop-color:#0e0000;stop-opacity:1;"
         offset="0"
         id="stop2781" />
      <stop
         style="stop-color:#0e0000;stop-opacity:0;"
         offset="1"
         id="stop2783" />
    </linearGradient>
    <linearGradient
       inkscape:collect="always"
       xlink:href="#linearGradient3446"
       id="linearGradient3780"
       x1="6.53125"
       y1="29.359375"
       x2="33.46875"
       y2="29.359375"
       gradientUnits="userSpaceOnUse" />
    <radialGradient
       inkscape:collect="always"
       xlink:href="#linearGradient3794"
       id="radialGradient4580"
       gradientUnits="userSpaceOnUse"
       gradientTransform="matrix(1.842102,0,0,1.7711352,-16.84203,-2.978661)"
       cx="20"
       cy="3.8626959"
       fx="20"
       fy="3.8626959"
       r="2.375" />
    <radialGradient
       inkscape:collect="always"
       xlink:href="#linearGradient3715"
       id="radialGradient4582"
       gradientUnits="userSpaceOnUse"
       gradientTransform="matrix(1.7293327,0,0,1.3162171,-10.210568,-11.339853)"
       cx="13.999876"
       cy="22.504725"
       fx="13.999876"
       fy="22.504725"
       r="10.968934" />
    <radialGradient
       inkscape:collect="always"
       xlink:href="#linearGradient3703"
       id="radialGradient4584"
       gradientUnits="userSpaceOnUse"
       gradientTransform="matrix(1.5469997,0,0,2.4102158,-7.657929,-32.635317)"
       cx="13.999876"
       cy="19.465712"
       fx="13.999876"
       fy="19.465712"
       r="10.968934" />
    <radialGradient
       inkscape:collect="always"
       xlink:href="#linearGradient3794"
       id="radialGradient4586"
       gradientUnits="userSpaceOnUse"
       gradientTransform="matrix(1.3446571,0,0,1.2928543,-6.8931305,5.059624)"
       cx="20"
       cy="3.8626959"
       fx="20"
       fy="3.8626959"
       r="2.375" />
    <radialGradient
       inkscape:collect="always"
       xlink:href="#linearGradient3715"
       id="radialGradient4588"
       gradientUnits="userSpaceOnUse"
       gradientTransform="matrix(1.2623402,0,0,0.9607832,-2.0524418,-1.043695)"
       cx="13.999876"
       cy="22.504725"
       fx="13.999876"
       fy="22.504725"
       r="10.968934" />
    <radialGradient
       inkscape:collect="always"
       xlink:href="#linearGradient3703"
       id="radialGradient4590"
       gradientUnits="userSpaceOnUse"
       gradientTransform="matrix(1.1292448,0,0,1.7593563,-0.1891225,-16.58849)"
       cx="13.999876"
       cy="19.465712"
       fx="13.999876"
       fy="19.465712"
       r="10.968934" />
    <linearGradient
       inkscape:collect="always"
       xlink:href="#linearGradient3647"
       id="linearGradient4592"
       gradientUnits="userSpaceOnUse"
       gradientTransform="matrix(0.729958,0,0,0.729958,5.400844,7.233921)"
       x1="9.03125"
       y1="18.3125"
       x2="30.96875"
       y2="18.3125" />
    <radialGradient
       inkscape:collect="always"
       xlink:href="#linearGradient3647"
       id="radialGradient4594"
       gradientUnits="userSpaceOnUse"
       gradientTransform="matrix(5.0328668,0,0,1.2928543,-80.657328,5.059624)"
       cx="20"
       cy="4.9919152"
       fx="20"
       fy="4.9919152"
       r="2.375" />
    <linearGradient
       inkscape:collect="always"
       xlink:href="#linearGradient3647"
       id="linearGradient4596"
       gradientUnits="userSpaceOnUse"
       gradientTransform="matrix(-0.729958,0,0,0.729958,34.598484,21.833081)"
       x1="9.03125"
       y1="18.3125"
       x2="30.96875"
       y2="18.3125" />
    <radialGradient
       inkscape:collect="always"
       xlink:href="#linearGradient3760"
       id="radialGradient4598"
       gradientUnits="userSpaceOnUse"
       gradientTransform="matrix(0.729958,0,0,0.3455225,5.400844,11.473926)"
       cx="24.796343"
       cy="17.02858"
       fx="24.796343"
       fy="17.02858"
       r="10.95483" />
    <linearGradient
       inkscape:collect="always"
       xlink:href="#linearGradient3647"
       id="linearGradient4600"
       gradientUnits="userSpaceOnUse"
       x1="9.03125"
       y1="18.3125"
       x2="30.96875"
       y2="18.3125" />
    <radialGradient
       inkscape:collect="always"
       xlink:href="#linearGradient3647"
       id="radialGradient4602"
       gradientUnits="userSpaceOnUse"
       gradientTransform="matrix(6.8947348,0,0,1.7711352,-117.89469,-2.978661)"
       cx="20"
       cy="4.9919152"
       fx="20"
       fy="4.9919152"
       r="2.375" />
    <linearGradient
       inkscape:collect="always"
       xlink:href="#linearGradient3647"
       id="linearGradient4604"
       gradientUnits="userSpaceOnUse"
       gradientTransform="matrix(-1,0,0,1,39.999069,20)"
       x1="9.03125"
       y1="18.3125"
       x2="30.96875"
       y2="18.3125" />
    <radialGradient
       inkscape:collect="always"
       xlink:href="#linearGradient3760"
       id="radialGradient4606"
       gradientUnits="userSpaceOnUse"
       gradientTransform="matrix(1,0,0,0.4733457,0,5.80856)"
       cx="24.796343"
       cy="17.02858"
       fx="24.796343"
       fy="17.02858"
       r="10.95483" />
    <radialGradient
       inkscape:collect="always"
       xlink:href="#linearGradient3647"
       id="radialGradient4610"
       cx="-18.472391"
       cy="22.343313"
       fx="-18.472391"
       fy="22.343313"
       r="4.0568485"
       gradientTransform="matrix(1,0,0,0.2357143,0,17.216738)"
       gradientUnits="userSpaceOnUse" />
    <linearGradient
       inkscape:collect="always"
       xlink:href="#linearGradient2779"
       id="linearGradient4650"
       x1="21.645464"
       y1="27.13694"
       x2="24.731684"
       y2="30.164385"
       gradientUnits="userSpaceOnUse" />
    <radialGradient
       inkscape:collect="always"
       xlink:href="#linearGradient3446"
       id="radialGradient4652"
       cx="-19.540558"
       cy="23.368876"
       fx="-19.540558"
       fy="23.368876"
       r="4.0568485"
       gradientTransform="matrix(1.2972204,0,0,0.4955449,5.8078519,11.144788)"
       gradientUnits="userSpaceOnUse" />
    <linearGradient
       inkscape:collect="always"
       xlink:href="#linearGradient3446"
       id="linearGradient4655"
       gradientUnits="userSpaceOnUse"
       gradientTransform="matrix(0.5453352,0,0,0.5453352,9.093298,10.870082)"
       x1="13.65625"
       y1="22.171875"
       x2="26.34375"
       y2="22.171875" />
    <linearGradient
       inkscape:collect="always"
       xlink:href="#linearGradient3239"
       id="linearGradient4661"
       gradientUnits="userSpaceOnUse"
       x1="-26.256922"
       y1="29.876959"
       x2="-15.370496"
       y2="20.990757" />
    <linearGradient
       inkscape:collect="always"
       xlink:href="#linearGradient3239"
       id="linearGradient4691"
       x1="9.59375"
       y1="-15.062497"
       x2="7.1886182"
       y2="-12.882666"
       gradientUnits="userSpaceOnUse"
       gradientTransform="matrix(0.9148575,0,0,1.0488041,11.276091,17.799593)" />
    <linearGradient
       inkscape:collect="always"
       xlink:href="#linearGradient3239"
       id="linearGradient4695"
       gradientUnits="userSpaceOnUse"
       gradientTransform="matrix(0.5145254,0,0,0.5898585,14.865285,17.741838)"
       x1="9.59375"
       y1="-15.062497"
       x2="7.1886182"
       y2="-12.882666" />
    <linearGradient
       inkscape:collect="always"
       xlink:href="#linearGradient3239"
       id="linearGradient4721"
       x1="-22.059814"
       y1="23.790091"
       x2="-15.243215"
       y2="21.36025"
       gradientUnits="userSpaceOnUse" />
    <radialGradient
       inkscape:collect="always"
       xlink:href="#linearGradient3239"
       id="radialGradient3748"
       cx="15.531935"
       cy="16.875963"
       fx="15.531935"
       fy="16.875963"
       r="2.550019"
       gradientTransform="matrix(1.4850372,-8.0943331e-2,7.7031456e-3,3.06262,-7.6635642,-33.551493)"
       gradientUnits="userSpaceOnUse" />
    <radialGradient
       inkscape:collect="always"
       xlink:href="#linearGradient3239"
       id="radialGradient3756"
       gradientUnits="userSpaceOnUse"
       gradientTransform="matrix(1.4850372,-8.0943331e-2,7.7031456e-3,3.06262,-7.6635642,-33.551493)"
       cx="15.531935"
       cy="16.875963"
       fx="15.531935"
       fy="16.875963"
       r="2.550019" />
  </defs>
  <sodipodi:namedview
     id="base"
     pagecolor="#ffffff"
     bordercolor="#666666"
     borderopacity="1.0"
     inkscape:pageopacity="0.0"
     inkscape:pageshadow="2"
     inkscape:zoom="8.6273865"
     inkscape:cx="-1.7034868"
     inkscape:cy="8.0984663"
     inkscape:current-layer="layer1"
     showgrid="false"
     inkscape:grid-bbox="false"
     inkscape:document-units="px"
     width="40px"
     height="40px"
     inkscape:window-width="1725"
     inkscape:window-height="1058"
     inkscape:window-x="168"
     inkscape:window-y="41"
     showguides="true"
     inkscape:guide-bbox="true">
    <inkscape:grid
       id="GridFromPre046Settings"
       type="xygrid"
       originx="0px"
       originy="0px"
       spacingx="1px"
       spacingy="1px"
       color="#0000ff"
       empcolor="#0000ff"
       opacity="0.2"
       empopacity="0.4"
       empspacing="2" />
  </sodipodi:namedview>
  <metadata
     id="metadata2198">
    <rdf:RDF>
      <cc:Work
         rdf:about="">
        <dc:format>image/svg+xml</dc:format>
        <dc:type
           rdf:resource="http://purl.org/dc/dcmitype/StillImage" />
        <dc:creator>
          <cc:Agent>
            <dc:title>Jarle Akselsen</dc:title>
          </cc:Agent>
        </dc:creator>
        <cc:license
           rdf:resource="http://creativecommons.org/licenses/GPL/2.0/" />
      </cc:Work>
      <cc:License
         rdf:about="http://creativecommons.org/licenses/GPL/2.0/">
        <cc:permits
           rdf:resource="http://web.resource.org/cc/Reproduction" />
        <cc:permits
           rdf:resource="http://web.resource.org/cc/Distribution" />
        <cc:requires
           rdf:resource="http://web.resource.org/cc/Notice" />
        <cc:permits
           rdf:resource="http://web.resource.org/cc/DerivativeWorks" />
        <cc:requires
           rdf:resource="http://web.resource.org/cc/ShareAlike" />
        <cc:requires
           rdf:resource="http://web.resource.org/cc/SourceCode" />
      </cc:License>
    </rdf:RDF>
  </metadata>
  <g
     id="layer1"
     inkscape:label="Layer 1"
     inkscape:groupmode="layer">
    <path
       style="opacity:1;fill:#803f00;fill-opacity:1;stroke:none;stroke-width:0.10000000000000001;stroke-linecap:round;stroke-linejoin:round;stroke-miterlimit:4;stroke-opacity:1"
       d="M 20,24.71875 C 12.571171,24.71875 6.5312498,26.371938 6.53125,28.375 C 6.53125,28.682288 6.53125,29.867304 6.53125,30.1875 C 6.53125,32.292357 12.571172,33.999998 20,34 C 27.428832,34 33.468748,32.292356 33.46875,30.1875 C 33.46875,29.867304 33.46875,28.682288 33.46875,28.375 C 33.46875,26.371939 27.428832,24.71875 20,24.71875 z"
       id="path2712"
       sodipodi:nodetypes="csssssc" />
    <path
       transform="matrix(0.2528606,0,0,0.4572073,5.4924238,-22.25156)"
       d="M 127.82442,115.70919 A 63.912209,12.641975 0 1 1 0,115.70919 A 63.912209,12.641975 0 1 1 127.82442,115.70919 z"
       sodipodi:ry="12.641975"
       sodipodi:rx="63.912209"
       sodipodi:cy="115.70919"
       sodipodi:cx="63.912209"
       id="path2593"
       style="opacity:0.38139535;fill:url(#radialGradient2595);fill-opacity:1;fill-rule:nonzero;stroke:none;stroke-width:0;stroke-linecap:round;stroke-linejoin:round;stroke-miterlimit:4;stroke-dasharray:none;stroke-dashoffset:4;stroke-opacity:1"
       sodipodi:type="arc" />
    <path
       sodipodi:type="arc"
       style="opacity:0.25;fill:url(#radialGradient4652);fill-opacity:1;stroke:none;stroke-width:0.10000000000000001;stroke-linecap:round;stroke-linejoin:round;stroke-miterlimit:4;stroke-dasharray:none;stroke-opacity:1"
       id="path2706"
       sodipodi:cx="-18.719458"
       sodipodi:cy="22.526573"
       sodipodi:rx="4.0568485"
       sodipodi:ry="0.95625716"
       d="M -14.662609,22.526573 A 4.0568485,0.95625716 0 1 1 -22.776306,22.526573 A 4.0568485,0.95625716 0 1 1 -14.662609,22.526573 z"
       transform="matrix(3.3173595,0,0,3.794726,82.099178,-57.122409)" />
    <path
       sodipodi:type="arc"
       style="opacity:0.25000000000000000;fill:url(#linearGradient4721);fill-opacity:1;stroke:none;stroke-width:0.10000000000000001;stroke-linecap:round;stroke-linejoin:round;stroke-miterlimit:4;stroke-dasharray:none;stroke-opacity:1"
       id="path4719"
       sodipodi:cx="-18.719458"
       sodipodi:cy="22.526573"
       sodipodi:rx="4.0568485"
       sodipodi:ry="0.95625716"
       d="M -14.662609,22.526573 A 4.0568485,0.95625716 0 1 1 -22.776306,22.526573 A 4.0568485,0.95625716 0 1 1 -14.662609,22.526573 z"
       transform="matrix(3.3173595,0,0,3.794726,82.099178,-57.122409)" />
    <path
       transform="matrix(3.3173595,0,0,3.794726,82.099178,-57.122409)"
       d="M -14.662609,22.526573 A 4.0568485,0.95625716 0 1 1 -22.776306,22.526573 A 4.0568485,0.95625716 0 1 1 -14.662609,22.526573 z"
       sodipodi:ry="0.95625716"
       sodipodi:rx="4.0568485"
       sodipodi:cy="22.526573"
       sodipodi:cx="-18.719458"
       id="path4608"
       style="opacity:0.25;fill:url(#radialGradient4610);fill-opacity:1;stroke:none;stroke-width:0.1;stroke-linecap:round;stroke-linejoin:round;stroke-miterlimit:4;stroke-dasharray:none;stroke-opacity:1"
       sodipodi:type="arc" />
    <path
       style="opacity:0.6;fill:url(#linearGradient3780);fill-opacity:1;stroke:none;stroke-width:0.10000000000000001;stroke-linecap:round;stroke-linejoin:round;stroke-miterlimit:4;stroke-opacity:1"
       d="M 6.53125,28.375 C 6.53125,28.174694 6.53125,28.16733 6.53125,28.375 z M 6.53125,28.375 C 6.53125,28.682288 6.53125,29.867304 6.53125,30.1875 C 6.53125,32.292357 12.571172,33.999998 20,34 C 27.428832,34 33.468748,32.292356 33.46875,30.1875 C 33.46875,29.867304 33.46875,28.682288 33.46875,28.375 C 33.468752,30.378061 27.42883,32 20,32 C 12.57117,31.999999 6.53125,30.378061 6.53125,28.375 z M 33.46875,28.375 C 33.46875,28.16733 33.46875,28.174694 33.46875,28.375 z"
       id="path2719"
       sodipodi:nodetypes="cscsssssccc" />
    <path
       style="opacity:0.06000001;fill:#888888;fill-opacity:1;stroke:none;stroke-width:0.1;stroke-linecap:round;stroke-linejoin:round;stroke-miterlimit:4;stroke-opacity:1"
       d="M 20,5.34375 C 19.380108,5.34375 18.780974,5.40917 18.1875,5.5 C 18.326088,5.665245 18.481679,5.814633 18.65625,5.9375 C 19.096532,5.8862 19.545056,5.84375 20,5.84375 C 20.454945,5.84375 20.903468,5.8862 21.34375,5.9375 C 21.518321,5.814633 21.673912,5.665245 21.8125,5.5 C 21.219026,5.40917 20.619892,5.34375 20,5.34375 z"
       id="path3802" />
    <path
       style="opacity:0.1;fill:url(#radialGradient4606);fill-opacity:1;stroke:none;stroke-width:0.1;stroke-linecap:round;stroke-linejoin:round;stroke-miterlimit:4;stroke-opacity:1"
       d="M 20,5.84375 C 14.022972,5.84375 9.172056,10.405925 9.03125,16.0625 C 9.059378,16.016113 9.096633,15.98474 9.15625,15.90625 C 9.257339,15.773158 9.429079,15.664651 9.6875,15.5 C 10.204345,15.170702 10.957622,14.772634 11.96875,14.5 C 13.991006,13.954733 16.867397,13.6875 20,13.6875 C 23.132604,13.6875 26.008996,13.954733 28.03125,14.5 C 29.042382,14.772634 29.826905,15.170702 30.34375,15.5 C 30.602172,15.664651 30.742661,15.773158 30.84375,15.90625 C 30.894294,15.972796 30.926698,16.016291 30.9375,16.0625 C 30.79568,10.406785 25.976376,5.84375 20,5.84375 z M 30.9375,16.1875 C 30.937501,16.217367 30.94517,16.229386 30.9375,16.1875 z"
       id="path3723"
       sodipodi:nodetypes="ccssssssscccc" />
    <path
       style="opacity:0.12000002;fill:url(#linearGradient4604);fill-opacity:1;stroke:none;stroke-width:0.1;stroke-linecap:round;stroke-linejoin:round;stroke-miterlimit:4;stroke-opacity:1"
       d="M 19.999069,13.6875 C 23.131672,13.6875 26.008063,13.954733 28.030319,14.5 C 29.041447,14.772634 29.794724,15.170702 30.311569,15.5 C 30.56999,15.664651 30.74173,15.773158 30.842819,15.90625 C 30.889349,15.967511 30.91099,15.997853 30.936569,16.03125 C 30.943763,16.040643 30.961645,16.052317 30.967819,16.0625 C 30.969913,16.146631 30.967819,16.227895 30.967819,16.3125 C 30.967819,19.937255 30.967819,25.550785 30.967819,27.3125 C 29.549428,26.038379 25.179489,25.09375 19.999069,25.09375 C 14.818649,25.093749 10.44871,26.038379 9.0303193,27.3125 C 9.0303193,25.550786 9.0303193,19.937255 9.0303193,16.3125 C 9.0303193,16.227273 9.0594443,16.147246 9.0615693,16.0625 C 9.0723713,16.016291 9.1047753,15.972796 9.1553193,15.90625 C 9.2564083,15.773158 9.3968973,15.664651 9.6553193,15.5 C 10.172164,15.170702 10.956687,14.772634 11.967819,14.5 C 13.990073,13.954733 16.866465,13.6875 19.999069,13.6875 z"
       id="path3742" />
    <path
       style="opacity:0.25;fill:#888888;fill-opacity:1;stroke:none;stroke-width:0.1;stroke-linecap:round;stroke-linejoin:round;stroke-miterlimit:4;stroke-opacity:1"
       d="M 18.1875,5.5 C 12.725693,6.335921 8.53125,10.849879 8.53125,16.3125 C 8.53125,20.225588 8.53125,27.087471 8.53125,28.1875 C 8.53125,29.892886 13.675171,31.28125 20,31.28125 C 26.324831,31.28125 31.468751,29.892886 31.46875,28.1875 C 31.46875,27.087472 31.46875,20.225588 31.46875,16.3125 C 31.46875,10.84988 27.274308,6.335921 21.8125,5.5 C 21.673912,5.665245 21.518321,5.814633 21.34375,5.9375 C 26.773894,6.5702 30.96875,10.97242 30.96875,16.3125 C 30.96875,20.225588 30.96875,27.087472 30.96875,28.1875 C 30.96875,28.36249 30.824077,28.643018 30.3125,28.96875 C 29.800923,29.294482 28.976237,29.634429 27.96875,29.90625 C 25.953777,30.449892 23.12583,30.78125 20,30.78125 C 16.874171,30.78125 14.046224,30.449892 12.03125,29.90625 C 11.023763,29.634429 10.199077,29.294482 9.6875,28.96875 C 9.175923,28.643018 9.03125,28.36249 9.03125,28.1875 C 9.03125,27.087471 9.03125,20.225588 9.03125,16.3125 C 9.03125,10.972419 13.226108,6.5702 18.65625,5.9375 C 18.481679,5.814633 18.326088,5.665245 18.1875,5.5 z"
       id="path3562" />
    <path
       style="opacity:0.25;fill:#888888;fill-opacity:1;stroke:none;stroke-width:0.1;stroke-linecap:round;stroke-linejoin:round;stroke-miterlimit:4;stroke-dasharray:none;stroke-opacity:1"
       d="M 20,25.09375 C 13.67517,25.09375 8.531249,26.482114 8.53125,28.1875 C 8.53125,29.892886 13.675171,31.281249 20,31.28125 C 26.32483,31.28125 31.468749,29.892886 31.46875,28.1875 C 31.46875,26.482114 26.32483,25.093749 20,25.09375 z M 20,25.6875 C 23.132604,25.6875 26.008996,25.954733 28.03125,26.5 C 29.042382,26.772634 29.826905,27.170702 30.34375,27.5 C 30.602172,27.664651 30.742661,27.773158 30.84375,27.90625 C 30.944837,28.039342 30.9375,28.127766 30.9375,28.1875 C 30.937503,28.247234 30.94484,28.366908 30.84375,28.5 C 30.742658,28.633092 30.602171,28.741599 30.34375,28.90625 C 29.826906,29.235549 29.042379,29.539867 28.03125,29.8125 C 26.008999,30.357768 23.132603,30.71875 20,30.71875 C 16.867398,30.71875 13.991005,30.357767 11.96875,29.8125 C 10.957623,29.539868 10.204345,29.235549 9.6875,28.90625 C 9.429079,28.741599 9.25734,28.633093 9.15625,28.5 C 9.05516,28.366907 8.96875,28.247234 8.96875,28.1875 C 8.968748,28.127766 9.055161,28.039342 9.15625,27.90625 C 9.257339,27.773158 9.429079,27.664651 9.6875,27.5 C 10.204345,27.170702 10.957622,26.772634 11.96875,26.5 C 13.991006,25.954733 16.867397,25.6875 20,25.6875 z"
       id="path3567" />
    <path
       style="opacity:0.2;fill:url(#radialGradient4602);fill-opacity:1;stroke:none;stroke-width:1;stroke-linecap:round;stroke-linejoin:round;stroke-miterlimit:4;stroke-dasharray:none;stroke-opacity:1"
       d="M 20,1.65625 C 18.697065,1.65625 17.625,2.697065 17.625,4 C 17.625,4.798209 18.049199,5.510244 18.65625,5.9375 C 18.65625,5.9375 19.135252,6.069142 20,6.069142 C 20.864748,6.069142 21.34375,5.9375 21.34375,5.9375 C 21.950801,5.510244 22.375,4.798209 22.375,4 C 22.375,2.697065 21.302934,1.65625 20,1.65625 z"
       id="path3634"
       sodipodi:nodetypes="csczcsc" />
    <path
       style="opacity:0.12000002;fill:url(#linearGradient4600);fill-opacity:1;stroke:none;stroke-width:0.1;stroke-linecap:round;stroke-linejoin:round;stroke-miterlimit:4;stroke-opacity:1"
       d="M 9.03125,16.15625 C 9.0304302,16.208945 9.03125,16.259622 9.03125,16.3125 C 9.03125,20.225588 9.03125,27.087471 9.03125,28.1875 C 9.03125,28.36249 9.175923,28.643018 9.6875,28.96875 C 10.199077,29.294482 11.023763,29.634429 12.03125,29.90625 C 14.046224,30.449892 16.874171,30.78125 20,30.78125 C 23.12583,30.78125 25.953777,30.449892 27.96875,29.90625 C 28.976237,29.634429 29.800923,29.294482 30.3125,28.96875 C 30.824077,28.643018 30.96875,28.36249 30.96875,28.1875 C 30.96875,27.087472 30.96875,20.225588 30.96875,16.3125 C 30.96875,16.259622 30.96957,16.208945 30.96875,16.15625 C 30.955019,16.332354 30.799482,16.596178 30.3125,16.90625 C 29.800923,17.231982 28.976237,17.571929 27.96875,17.84375 C 25.953777,18.387392 23.12583,18.71875 20,18.71875 C 16.874171,18.71875 14.046224,18.387392 12.03125,17.84375 C 11.023763,17.571929 10.199077,17.231982 9.6875,16.90625 C 9.200518,16.596178 9.044981,16.332354 9.03125,16.15625 z"
       id="path3673" />
    <path
       id="path3831"
       d="M 20.000004,11.134634 C 19.547509,11.134634 19.110166,11.182388 18.676955,11.24869 C 18.778119,11.369312 18.891693,11.478359 19.019123,11.568047 C 19.34051,11.5306 19.667914,11.499613 20.000004,11.499613 C 20.332095,11.499613 20.659498,11.5306 20.980885,11.568047 C 21.108315,11.478359 21.221889,11.369312 21.323053,11.24869 C 20.889842,11.182388 20.452499,11.134634 20.000004,11.134634 z"
       style="opacity:0.06000001;fill:#888888;fill-opacity:1;stroke:none;stroke-width:0.1;stroke-linecap:round;stroke-linejoin:round;stroke-miterlimit:4;stroke-opacity:1" />
    <path
       sodipodi:nodetypes="ccssssssscccc"
       id="path3833"
       d="M 20.000004,11.499613 C 15.637025,11.499613 12.09606,14.829809 11.993277,18.958871 C 12.013809,18.925011 12.041004,18.90211 12.084522,18.844815 C 12.158313,18.747664 12.283676,18.668458 12.472312,18.54827 C 12.849587,18.307896 13.399448,18.017323 14.137529,17.818312 C 15.613691,17.42029 17.713335,17.225221 20.000004,17.225221 C 22.286673,17.225221 24.386319,17.42029 25.862479,17.818312 C 26.600563,18.017323 27.173232,18.307896 27.550507,18.54827 C 27.739144,18.668458 27.841695,18.747664 27.915486,18.844815 C 27.952381,18.893391 27.976035,18.925141 27.98392,18.958871 C 27.880397,14.830437 24.362507,11.499613 20.000004,11.499613 z M 27.98392,19.050116 C 27.98392,19.071918 27.989518,19.080691 27.98392,19.050116 z"
       style="opacity:0.1;fill:url(#radialGradient4598);fill-opacity:1;stroke:none;stroke-width:0.1;stroke-linecap:round;stroke-linejoin:round;stroke-miterlimit:4;stroke-opacity:1" />
    <path
       id="path3835"
       d="M 19.999324,17.225221 C 22.285993,17.225221 24.385638,17.42029 25.8618,17.818312 C 26.599881,18.017323 27.149741,18.307896 27.527016,18.54827 C 27.715653,18.668458 27.841016,18.747664 27.914806,18.844815 C 27.948771,18.889533 27.964568,18.911682 27.98324,18.93606 C 27.988491,18.942917 28.001544,18.951438 28.006051,18.958871 C 28.00758,19.020283 28.006051,19.079603 28.006051,19.141361 C 28.006051,21.78728 28.006051,25.884921 28.006051,27.170899 C 26.970685,26.240844 23.780813,25.551305 19.999324,25.551305 C 16.217835,25.551304 13.027963,26.240844 11.992598,27.170899 C 11.992598,25.884922 11.992598,21.78728 11.992598,19.141361 C 11.992598,19.079149 12.013858,19.020732 12.015409,18.958871 C 12.023294,18.925141 12.046948,18.893391 12.083843,18.844815 C 12.157633,18.747664 12.260184,18.668458 12.448822,18.54827 C 12.826096,18.307896 13.398765,18.017323 14.136849,17.818312 C 15.61301,17.42029 17.712655,17.225221 19.999324,17.225221 z"
       style="opacity:0.12000002;fill:url(#linearGradient4596);fill-opacity:1;stroke:none;stroke-width:0.1;stroke-linecap:round;stroke-linejoin:round;stroke-miterlimit:4;stroke-opacity:1" />
    <path
       id="path3837"
       d="M 18.676955,11.24869 C 14.690065,11.858877 11.628298,15.153877 11.628298,19.141361 C 11.628298,21.997751 11.628298,27.006637 11.628298,27.809612 C 11.628298,29.054472 15.383144,30.06792 20.000004,30.06792 C 24.616865,30.06792 28.371711,29.054472 28.37171,27.809612 C 28.37171,27.006638 28.37171,21.997751 28.37171,19.141361 C 28.37171,15.153878 25.309943,11.858877 21.323053,11.24869 C 21.221889,11.369312 21.108315,11.478359 20.980885,11.568047 C 24.944662,12.029891 28.006731,15.243327 28.006731,19.141361 C 28.006731,21.997751 28.006731,27.006638 28.006731,27.809612 C 28.006731,27.937347 27.901126,28.142121 27.527696,28.379892 C 27.154266,28.617662 26.55228,28.86581 25.816857,29.064227 C 24.346011,29.461063 22.281729,29.702941 20.000004,29.702941 C 17.71828,29.702941 15.653998,29.461063 14.183151,29.064227 C 13.447728,28.86581 12.845742,28.617662 12.472312,28.379892 C 12.098882,28.142121 11.993277,27.937347 11.993277,27.809612 C 11.993277,27.006637 11.993277,21.997751 11.993277,19.141361 C 11.993277,15.243326 15.055347,12.029891 19.019123,11.568047 C 18.891693,11.478359 18.778119,11.369312 18.676955,11.24869 z"
       style="opacity:0.25;fill:#888888;fill-opacity:1;stroke:none;stroke-width:0.1;stroke-linecap:round;stroke-linejoin:round;stroke-miterlimit:4;stroke-opacity:1" />
    <path
       id="path3839"
       d="M 20.000004,25.551305 C 15.383144,25.551305 11.628297,26.564752 11.628298,27.809612 C 11.628298,29.054472 15.383144,30.067919 20.000004,30.06792 C 24.616864,30.06792 28.371709,29.054472 28.37171,27.809612 C 28.37171,26.564752 24.616864,25.551304 20.000004,25.551305 z M 20.000004,25.984717 C 22.286673,25.984717 24.386319,26.179786 25.862479,26.577808 C 26.600563,26.776819 27.173232,27.067392 27.550507,27.307766 C 27.739144,27.427954 27.841695,27.50716 27.915486,27.604311 C 27.989275,27.701463 27.98392,27.766009 27.98392,27.809612 C 27.983922,27.853215 27.989278,27.940572 27.915486,28.037724 C 27.841693,28.134876 27.739144,28.214081 27.550507,28.334269 C 27.173233,28.574644 26.600561,28.796783 25.862479,28.995794 C 24.386321,29.393817 22.286673,29.657318 20.000004,29.657318 C 17.713336,29.657318 15.61369,29.393816 14.137529,28.995794 C 13.399449,28.796784 12.849587,28.574644 12.472312,28.334269 C 12.283676,28.214081 12.158313,28.134876 12.084522,28.037724 C 12.01073,27.940572 11.947655,27.853215 11.947655,27.809612 C 11.947653,27.766009 12.010731,27.701463 12.084522,27.604311 C 12.158313,27.50716 12.283676,27.427954 12.472312,27.307766 C 12.849587,27.067392 13.399448,26.776819 14.137529,26.577808 C 15.613691,26.179786 17.713335,25.984717 20.000004,25.984717 z"
       style="opacity:0.25;fill:#888888;fill-opacity:1;stroke:none;stroke-width:0.1;stroke-linecap:round;stroke-linejoin:round;stroke-miterlimit:4;stroke-dasharray:none;stroke-opacity:1" />
    <path
       style="opacity:0.50000000000000000;fill:url(#linearGradient4650);fill-opacity:1;stroke:none;stroke-width:1;stroke-linecap:round;stroke-linejoin:round;stroke-miterlimit:4;stroke-dasharray:none;stroke-opacity:1"
       d="M 23.46875,26.09375 C 23.46875,26.778508 23.46875,27.900863 23.46875,27.96875 C 23.46875,28.478215 22.067659,28.889705 20.3125,28.9375 C 20.847078,29.016208 21.426643,29.039949 22.0625,29 C 24.119181,28.870784 25.734302,28.097602 25.65625,27.28125 C 25.600963,26.703 24.711468,26.260239 23.46875,26.09375 z"
       id="path4639" />
    <path
       transform="matrix(0.3422781,0,0,0.2943789,13.176854,17.321973)"
       d="M 28.919535,9.8344336 A 9.0119991,2.7528615 0 1 1 10.895536,9.8344336 A 9.0119991,2.7528615 0 1 1 28.919535,9.8344336 z"
       sodipodi:ry="2.7528615"
       sodipodi:rx="9.0119991"
       sodipodi:cy="9.8344336"
       sodipodi:cx="19.907536"
       id="path3810"
       style="fill:#6193cf;fill-opacity:1;fill-rule:nonzero;stroke:none;stroke-width:0.30000001;stroke-linecap:round;stroke-linejoin:round;stroke-miterlimit:4;stroke-dasharray:none;stroke-opacity:1"
       sodipodi:type="arc" />
    <path
       transform="matrix(0.3422781,0,0,0.2943789,13.176854,17.321973)"
       sodipodi:type="arc"
       style="fill:#eeeeec;fill-opacity:1;fill-rule:nonzero;stroke:none;stroke-width:0.30000001;stroke-linecap:round;stroke-linejoin:round;stroke-miterlimit:4;stroke-dasharray:none;stroke-opacity:1"
       id="path3812"
       sodipodi:cx="19.907536"
       sodipodi:cy="9.8344336"
       sodipodi:rx="9.0119991"
       sodipodi:ry="2.7528615"
       d="M 28.919535,9.8344336 A 9.0119991,2.7528615 0 1 1 10.895536,9.8344336 A 9.0119991,2.7528615 0 1 1 28.919535,9.8344336 z" />
    <path
       sodipodi:nodetypes="csssssc"
       id="path3814"
       d="M 20.000002,19.356861 C 18.091173,19.356861 16.540531,19.754528 16.540531,20.243031 C 16.540531,20.433575 16.540531,27.751973 16.540531,27.962932 C 16.540531,28.503773 18.091173,28.951352 20.000002,28.951352 C 21.908831,28.951352 23.459472,28.503773 23.459472,27.962932 C 23.459472,27.683465 23.459472,20.495503 23.459472,20.243031 C 23.459472,19.754528 21.908831,19.356861 20.000002,19.356861 z"
       style="opacity:0.87016398;fill:#888888;fill-opacity:1;stroke:none;stroke-width:0.1;stroke-linecap:round;stroke-linejoin:round;stroke-miterlimit:4;stroke-opacity:1" />
    <path
       transform="matrix(0.8523915,0,0,0.9254504,35.956318,-0.6062859)"
       d="M -14.662609,22.526573 A 4.0568485,0.95625716 0 1 1 -22.776306,22.526573 A 4.0568485,0.95625716 0 1 1 -14.662609,22.526573 z"
       sodipodi:ry="0.95625716"
       sodipodi:rx="4.0568485"
       sodipodi:cy="22.526573"
       sodipodi:cx="-18.719458"
       id="path3816"
       style="fill:url(#linearGradient4661);fill-opacity:1;stroke:none;stroke-width:0.10000000000000001;stroke-linecap:round;stroke-linejoin:round;stroke-miterlimit:4;stroke-dasharray:none;stroke-opacity:1"
       sodipodi:type="arc" />
    <path
       sodipodi:nodetypes="csssssc"
       id="path3818"
       d="M 16.540531,20.243031 C 16.540531,20.433575 16.540531,27.751973 16.540531,27.962932 C 16.540531,28.503773 18.091173,28.951352 20.000002,28.951352 C 21.908831,28.951352 23.459472,28.503773 23.459472,27.962932 C 23.459472,27.683465 23.459472,20.495503 23.459472,20.243031 C 23.459472,20.731534 21.90883,21.129201 20.000002,21.129201 C 18.091173,21.129201 16.540531,20.731533 16.540531,20.243031 z"
       style="opacity:0.87016398;fill:url(#linearGradient4655);fill-opacity:1;stroke:none;stroke-width:0.1;stroke-linecap:round;stroke-linejoin:round;stroke-miterlimit:4;stroke-opacity:1" />
    <path
       sodipodi:nodetypes="csczcsc"
       id="path3843"
       d="M 20.000004,8.442914 C 19.048916,8.442914 18.266354,9.202665 18.266354,10.153753 C 18.266354,10.736412 18.576001,11.256168 19.019123,11.568047 C 19.019123,11.568047 19.368774,11.66414 20.000004,11.66414 C 20.631234,11.66414 20.980885,11.568047 20.980885,11.568047 C 21.424007,11.256168 21.733654,10.736412 21.733654,10.153753 C 21.733654,9.202665 20.951091,8.442914 20.000004,8.442914 z"
       style="opacity:0.2;fill:url(#radialGradient4594);fill-opacity:1;stroke:none;stroke-width:1;stroke-linecap:round;stroke-linejoin:round;stroke-miterlimit:4;stroke-dasharray:none;stroke-opacity:1" />
    <path
       id="path3845"
       d="M 11.993277,19.027305 C 11.992679,19.06577 11.993277,19.102762 11.993277,19.141361 C 11.993277,21.997751 11.993277,27.006637 11.993277,27.809612 C 11.993277,27.937347 12.098882,28.142121 12.472312,28.379892 C 12.845742,28.617662 13.447728,28.86581 14.183151,29.064227 C 15.653998,29.461063 17.71828,29.702941 20.000004,29.702941 C 22.281729,29.702941 24.346011,29.461063 25.816857,29.064227 C 26.55228,28.86581 27.154266,28.617662 27.527696,28.379892 C 27.901126,28.142121 28.006731,27.937347 28.006731,27.809612 C 28.006731,27.006638 28.006731,21.997751 28.006731,19.141361 C 28.006731,19.102762 28.007329,19.06577 28.006731,19.027305 C 27.996708,19.155853 27.883172,19.348434 27.527696,19.574773 C 27.154266,19.812544 26.55228,20.060691 25.816857,20.259109 C 24.346011,20.655945 22.281729,20.897822 20.000004,20.897822 C 17.71828,20.897822 15.653998,20.655945 14.183151,20.259109 C 13.447728,20.060691 12.845742,19.812544 12.472312,19.574773 C 12.116836,19.348434 12.0033,19.155853 11.993277,19.027305 z"
       style="opacity:0.12000002;fill:url(#linearGradient4592);fill-opacity:1;stroke:none;stroke-width:0.1;stroke-linecap:round;stroke-linejoin:round;stroke-miterlimit:4;stroke-opacity:1" />
    <path
       id="path3847"
       d="M 20.000004,11.499613 C 15.620802,11.499613 12.070759,14.854134 11.993277,19.004494 C 11.993277,19.010635 11.992771,19.020813 11.993277,19.027305 C 12.0033,19.155853 12.116836,19.348434 12.472312,19.574773 C 12.845742,19.812544 13.447728,20.060691 14.183151,20.259109 C 15.653998,20.655945 17.71828,20.897822 20.000004,20.897822 C 22.281729,20.897822 24.346011,20.655945 25.816857,20.259109 C 26.55228,20.060691 27.154266,19.812544 27.527696,19.574773 C 27.883172,19.348434 27.996708,19.155853 28.006731,19.027305 C 28.006611,19.019612 28.006875,19.012181 28.006731,19.004494 C 27.929249,14.854134 24.379207,11.499613 20.000004,11.499613 z"
       style="opacity:0.2;fill:url(#radialGradient4590);fill-opacity:1;stroke:none;stroke-width:0.1;stroke-linecap:round;stroke-linejoin:round;stroke-miterlimit:4;stroke-opacity:1" />
    <path
       style="opacity:0.12000002;fill:url(#radialGradient4588);fill-opacity:1;stroke:none;stroke-width:0.1;stroke-linecap:round;stroke-linejoin:round;stroke-miterlimit:4;stroke-opacity:1"
       d="M 20.000004,11.499613 C 15.620802,11.499613 12.070759,14.854134 11.993277,19.004494 C 11.993277,19.010635 11.992771,19.020813 11.993277,19.027305 C 12.0033,19.155853 12.116836,19.348434 12.472312,19.574773 C 12.845742,19.812544 13.447728,20.060691 14.183151,20.259109 C 15.653998,20.655945 17.71828,20.897822 20.000004,20.897822 C 22.281729,20.897822 24.346011,20.655945 25.816857,20.259109 C 26.55228,20.060691 27.154266,19.812544 27.527696,19.574773 C 27.883172,19.348434 27.996708,19.155853 28.006731,19.027305 C 28.006611,19.019612 28.006875,19.012181 28.006731,19.004494 C 27.929249,14.854134 24.379207,11.499613 20.000004,11.499613 z"
       id="path3849" />
    <path
       style="opacity:0.4;fill:url(#radialGradient4586);fill-opacity:1;stroke:none;stroke-width:1;stroke-linecap:round;stroke-linejoin:round;stroke-miterlimit:4;stroke-dasharray:none;stroke-opacity:1"
       d="M 20.000004,8.442914 C 19.048916,8.442914 18.266354,9.202665 18.266354,10.153753 C 18.266354,10.736412 18.576001,11.256168 19.019123,11.568047 C 19.019123,11.568047 19.368774,11.66414 20.000004,11.66414 C 20.631234,11.66414 20.980885,11.568047 20.980885,11.568047 C 21.424007,11.256168 21.733654,10.736412 21.733654,10.153753 C 21.733654,9.202665 20.951091,8.442914 20.000004,8.442914 z"
       id="path3851"
       sodipodi:nodetypes="csczcsc" />
    <path
       style="opacity:0.2;fill:url(#radialGradient4584);fill-opacity:1;stroke:none;stroke-width:0.1;stroke-linecap:round;stroke-linejoin:round;stroke-miterlimit:4;stroke-opacity:1"
       d="M 20,5.84375 C 14.000748,5.84375 9.1373962,10.439248 9.03125,16.125 C 9.03125,16.133413 9.0305565,16.147356 9.03125,16.15625 C 9.044981,16.332354 9.200518,16.596178 9.6875,16.90625 C 10.199077,17.231982 11.023763,17.571929 12.03125,17.84375 C 14.046224,18.387392 16.874171,18.71875 20,18.71875 C 23.12583,18.71875 25.953777,18.387392 27.96875,17.84375 C 28.976237,17.571929 29.800923,17.231982 30.3125,16.90625 C 30.799482,16.596178 30.955019,16.332354 30.96875,16.15625 C 30.968586,16.145711 30.968947,16.135531 30.96875,16.125 C 30.862604,10.439249 25.999254,5.84375 20,5.84375 z"
       id="path3682" />
    <path
       id="path3711"
       d="M 20,5.84375 C 14.000748,5.84375 9.137396,10.439248 9.03125,16.125 C 9.03125,16.133413 9.030557,16.147356 9.03125,16.15625 C 9.044981,16.332354 9.200518,16.596178 9.6875,16.90625 C 10.199077,17.231982 11.023763,17.571929 12.03125,17.84375 C 14.046224,18.387392 16.874171,18.71875 20,18.71875 C 23.12583,18.71875 25.953777,18.387392 27.96875,17.84375 C 28.976237,17.571929 29.800923,17.231982 30.3125,16.90625 C 30.799482,16.596178 30.955019,16.332354 30.96875,16.15625 C 30.968586,16.145711 30.968947,16.135531 30.96875,16.125 C 30.862604,10.439249 25.999254,5.84375 20,5.84375 z"
       style="opacity:0.12000002;fill:url(#radialGradient4582);fill-opacity:1;stroke:none;stroke-width:0.1;stroke-linecap:round;stroke-linejoin:round;stroke-miterlimit:4;stroke-opacity:1" />
    <path
       sodipodi:nodetypes="csczcsc"
       id="path3790"
       d="M 20,1.65625 C 18.697065,1.65625 17.625,2.697065 17.625,4 C 17.625,4.798209 18.049199,5.510244 18.65625,5.9375 C 18.65625,5.9375 19.135252,6.069142 20,6.069142 C 20.864748,6.069142 21.34375,5.9375 21.34375,5.9375 C 21.950801,5.510244 22.375,4.798209 22.375,4 C 22.375,2.697065 21.302934,1.65625 20,1.65625 z"
       style="opacity:0.4;fill:url(#radialGradient4580);fill-opacity:1;stroke:none;stroke-width:1;stroke-linecap:round;stroke-linejoin:round;stroke-miterlimit:4;stroke-dasharray:none;stroke-opacity:1" />
    <rect
       style="opacity:0.61162792;fill:#555753;fill-opacity:1;fill-rule:nonzero;stroke:none;stroke-width:0.69999999;stroke-linecap:round;stroke-linejoin:miter;stroke-miterlimit:4;stroke-dasharray:none;stroke-opacity:1"
       id="rect1951"
       width="40.001965"
       height="10.004759"
       x="-0.0019644466"
       y="30" />
    <text
       xml:space="preserve"
       style="font-size:12px;font-style:normal;font-weight:normal;fill:#eeeeec;fill-opacity:1;stroke:none;stroke-width:1px;stroke-linecap:butt;stroke-linejoin:miter;stroke-opacity:1;font-family:Bitstream Vera Sans"
       x="15.188651"
       y="39.168156"
       id="text2840"><tspan
         sodipodi:role="line"
         id="tspan2842"
         x="15.188651"
         y="39.168156">Ir</tspan></text>
    <path
       id="path4693"
       d="M 19.447783,8.8570956 C 19.040414,8.8570956 18.708148,9.2481816 18.708148,9.7418838 C 18.708148,10.151045 18.929088,10.501985 19.238755,10.608229 C 19.215488,10.494007 19.2066,10.362471 19.2066,10.239575 C 19.2066,9.694107 19.439448,9.2256463 19.801518,8.9676939 C 19.693538,8.8926568 19.581094,8.8570956 19.447783,8.8570956 z"
       style="opacity:0.5;fill:url(#linearGradient4695);fill-opacity:1;stroke:none;stroke-width:1;stroke-linecap:round;stroke-linejoin:round;stroke-miterlimit:4;stroke-dasharray:none;stroke-opacity:1" />
    <path
       transform="matrix(0.9867362,0.3237819,-0.3730452,0.8564308,7.748095,-1.0407518)"
       d="M 19.431493,16.875963 A 3.8995585,7.7659674 0 1 1 11.632376,16.875963 A 3.8995585,7.7659674 0 1 1 19.431493,16.875963 z"
       sodipodi:ry="7.7659674"
       sodipodi:rx="3.8995585"
       sodipodi:cy="16.875963"
       sodipodi:cx="15.531935"
       id="path3754"
       style="opacity:0.15;fill:url(#radialGradient3756);fill-opacity:1;stroke:none;stroke-width:0.10000000000000001;stroke-linecap:round;stroke-linejoin:round;stroke-miterlimit:4;stroke-dasharray:none;stroke-opacity:1"
       sodipodi:type="arc" />
    <path
       sodipodi:nodetypes="csssssc"
       id="path4466"
       d="M 20,5.34375 C 13.675171,5.34375 8.53125,10.256317 8.53125,16.3125 C 8.53125,20.225588 8.53125,27.087471 8.53125,28.1875 C 8.53125,29.892886 13.675171,31.28125 20,31.28125 C 26.324831,31.28125 31.468751,29.892886 31.46875,28.1875 C 31.46875,27.087472 31.46875,20.225588 31.46875,16.3125 C 31.46875,10.256318 26.324831,5.34375 20,5.34375 z"
       style="opacity:0.05;fill:#00316e;fill-opacity:1;stroke:none;stroke-width:0.1;stroke-linecap:round;stroke-linejoin:round;stroke-miterlimit:4;stroke-opacity:1" />
    <path
       id="path4468"
       d="M 20,1.65625 C 18.697065,1.65625 17.625,2.697065 17.625,4 C 17.625,4.568666 17.844163,5.090624 18.1875,5.5 C 12.725693,6.335921 8.53125,10.849879 8.53125,16.3125 C 8.53125,20.225588 8.53125,27.087471 8.53125,28.1875 C 8.53125,29.892886 13.675171,31.28125 20,31.28125 C 26.324831,31.28125 31.468751,29.892886 31.46875,28.1875 C 31.46875,27.087472 31.46875,20.225588 31.46875,16.3125 C 31.46875,10.84988 27.274308,6.335921 21.8125,5.5 C 22.155837,5.090624 22.375,4.568666 22.375,4 C 22.375,2.697065 21.302934,1.65625 20,1.65625 z M 20,19.34375 C 21.908829,19.34375 23.468749,19.761497 23.46875,20.25 C 23.46875,20.431943 23.46875,23.608095 23.46875,25.8125 C 25.21038,25.940362 26.7929,26.166098 28.03125,26.5 C 29.042382,26.77263 29.826905,27.1707 30.34375,27.5 C 30.602172,27.66465 30.742661,27.77316 30.84375,27.90625 C 30.944837,28.03934 30.9375,28.12777 30.9375,28.1875 C 30.937501,28.21737 30.948302,28.25848 30.9375,28.3125 C 30.93606,28.3197 30.939424,28.33624 30.9375,28.34375 C 30.915944,28.39975 30.893808,28.46489 30.84375,28.53125 C 30.795849,28.59138 30.729639,28.62852 30.65625,28.6875 C 30.644071,28.69877 30.638077,28.7073 30.625,28.71875 C 30.549985,28.77667 30.458218,28.83332 30.34375,28.90625 C 30.214539,28.98857 30.068279,29.07715 29.90625,29.15625 C 29.420162,29.39354 28.789597,29.60802 28.03125,29.8125 C 26.008999,30.35777 23.132603,30.71875 20,30.71875 C 16.867398,30.71875 13.991005,30.35777 11.96875,29.8125 C 10.957623,29.53987 10.204345,29.23555 9.6875,28.90625 C 9.429079,28.7416 9.25734,28.63309 9.15625,28.5 C 9.116508,28.44359 9.081182,28.39228 9.0625,28.34375 C 9.040943,28.28775 9.03125,28.23125 9.03125,28.1875 C 9.03125,28.17882 9.03125,28.10315 9.03125,28.09375 C 9.064341,28.03999 9.088857,27.99498 9.15625,27.90625 C 9.257339,27.77316 9.429079,27.66465 9.6875,27.5 C 10.204345,27.1707 10.957622,26.77263 11.96875,26.5 C 13.207101,26.166098 14.78962,25.940362 16.53125,25.8125 C 16.53125,23.599371 16.53125,20.387315 16.53125,20.25 C 16.53125,19.761497 18.091171,19.34375 20,19.34375 z"
       style="opacity:0.05000000000000000;fill:#00316e;fill-opacity:1;stroke:none;stroke-width:0.10000000000000001;stroke-linecap:round;stroke-linejoin:round;stroke-miterlimit:4;stroke-opacity:1" />
    <path
       style="opacity:0.25000000000000000;fill:#000000;fill-opacity:1.0;stroke:none;stroke-width:0.10000000000000001;stroke-linecap:round;stroke-linejoin:round;stroke-miterlimit:4;stroke-dasharray:none;stroke-opacity:1"
       d="M 15.78125 25.78125 C 14.417795 25.909896 13.198628 26.115135 12.1875 26.375 C 11.830532 26.466743 11.53027 26.599389 11.25 26.71875 C 11.467515 26.640447 11.715968 26.568158 11.96875 26.5 C 12.979878 26.227366 14.199045 26.009967 15.5625 25.875 C 15.727386 25.846194 15.858418 25.807166 16.03125 25.78125 C 15.951562 25.788249 15.860026 25.773817 15.78125 25.78125 z M 24.40625 25.78125 C 24.961406 25.864495 25.471215 25.982163 25.9375 26.09375 C 25.994186 26.107316 26.069794 26.111051 26.125 26.125 C 26.814509 26.232146 27.464535 26.347195 28.03125 26.5 C 29.042382 26.772634 29.826905 27.170702 30.34375 27.5 C 30.602172 27.664651 30.742661 27.773158 30.84375 27.90625 C 30.944837 28.039342 30.9375 28.127766 30.9375 28.1875 C 30.937503 28.241261 30.947506 28.351801 30.875 28.46875 C 30.955061 28.407419 31.011954 28.344679 31.0625 28.28125 C 31.16359 28.154391 31.156254 28.056937 31.15625 28 C 31.15625 27.943064 31.163588 27.845609 31.0625 27.71875 C 30.961411 27.591891 30.820923 27.50069 30.5625 27.34375 C 30.045655 27.029873 29.261133 26.634867 28.25 26.375 C 27.180453 26.100121 25.865183 25.909392 24.40625 25.78125 z M 23.46875 26.03125 C 23.46875 26.077816 23.46875 26.111544 23.46875 26.15625 C 24.374523 26.247239 25.194398 26.378987 25.875 26.5625 C 26.613085 26.761511 27.185225 27.072126 27.5625 27.3125 C 27.751137 27.432688 27.832459 27.496599 27.90625 27.59375 C 27.98004 27.690902 27.96875 27.768897 27.96875 27.8125 C 27.968753 27.856103 27.980042 27.934098 27.90625 28.03125 C 28.001815 27.958267 28.072648 27.909447 28.125 27.84375 C 28.198792 27.751148 28.187504 27.666561 28.1875 27.625 C 28.1875 27.583439 28.198791 27.498851 28.125 27.40625 C 28.051209 27.313649 27.969888 27.270808 27.78125 27.15625 C 27.403975 26.927133 26.831836 26.627191 26.09375 26.4375 C 25.35567 26.247809 24.467146 26.11664 23.46875 26.03125 z M 16.53125 26.09375 C 15.71658 26.178499 14.966618 26.277419 14.34375 26.4375 C 14.051063 26.512722 13.826514 26.62088 13.59375 26.71875 C 13.754146 26.657888 13.94048 26.612253 14.125 26.5625 C 14.805603 26.378987 15.625477 26.247239 16.53125 26.15625 C 16.53125 26.13387 16.53125 26.116616 16.53125 26.09375 z M 10.65625 26.96875 C 10.386351 27.098312 10.105004 27.223048 9.90625 27.34375 C 9.8112423 27.401449 9.7598719 27.452944 9.6875 27.5 C 9.9459225 27.335351 10.276934 27.143508 10.65625 26.96875 z M 12.96875 27.03125 C 12.882991 27.075383 12.757095 27.113985 12.6875 27.15625 C 12.575044 27.224545 12.535039 27.264255 12.46875 27.3125 C 12.610228 27.222359 12.783018 27.134329 12.96875 27.03125 z M 12.15625 27.0625 C 11.827832 27.301222 11.625 27.541707 11.625 27.8125 C 11.625 29.05736 15.38314 30.062499 20 30.0625 C 24.039753 30.062499 27.436297 29.307599 28.21875 28.28125 C 27.156512 29.154871 23.969949 29.781249 20.21875 29.78125 C 15.60189 29.781249 11.84375 28.81156 11.84375 27.625 C 11.84375 27.426754 11.958248 27.243629 12.15625 27.0625 z M 9.21875 27.15625 C 8.7858037 27.481881 8.5312498 27.822263 8.53125 28.1875 C 8.53125 29.892886 13.675171 31.281249 20 31.28125 C 25.409739 31.28125 29.954091 30.267253 31.15625 28.90625 C 29.670374 30.092059 25.319665 30.937501 20.21875 30.9375 C 13.893921 30.937499 8.7499999 29.625519 8.75 28 C 8.7499998 27.716545 8.9269328 27.415914 9.21875 27.15625 z "
       id="path4663" />
    <path
       style="opacity:0.5;fill:url(#linearGradient4691);fill-opacity:1;stroke:none;stroke-width:1;stroke-linecap:round;stroke-linejoin:round;stroke-miterlimit:4;stroke-dasharray:none;stroke-opacity:1"
       d="M 19.424041,2.0019831 C 18.699711,2.0019831 18.108936,2.6973581 18.108936,3.5751894 C 18.108936,4.3027071 18.501785,4.9267055 19.052381,5.1156204 C 19.011009,4.9125196 18.995201,4.6786332 18.995201,4.460118 C 18.995201,3.4902394 19.409225,2.6572884 20.053006,2.1986339 C 19.861022,2.0652135 19.661076,2.0019831 19.424041,2.0019831 z"
       id="path4680" />
    <path
       sodipodi:type="arc"
       style="opacity:0.15;fill:url(#radialGradient3748);fill-opacity:1;stroke:none;stroke-width:0.10000000000000001;stroke-linecap:round;stroke-linejoin:round;stroke-miterlimit:4;stroke-dasharray:none;stroke-opacity:1"
       id="path2970"
       sodipodi:cx="15.531935"
       sodipodi:cy="16.875963"
       sodipodi:rx="3.8995585"
       sodipodi:ry="7.7659674"
       d="M 19.431493,16.875963 A 3.8995585,7.7659674 0 1 1 11.632376,16.875963 A 3.8995585,7.7659674 0 1 1 19.431493,16.875963 z"
       transform="matrix(1.2782016,0.4194217,-0.4832365,1.109406,2.7329284,-10.302254)" />
    <rect
       y="30"
       x="-0.0019644466"
       height="10.004759"
       width="40.001965"
       id="rect4674"
       style="opacity:0.61162792;fill:#555753;fill-opacity:1;fill-rule:nonzero;stroke:none;stroke-width:0.69999999;stroke-linecap:round;stroke-linejoin:miter;stroke-miterlimit:4;stroke-dasharray:none;stroke-opacity:1" />
    <text
       id="text4676"
       y="39.168156"
       x="15.188651"
       style="font-size:12px;font-style:normal;font-weight:normal;fill:#eeeeec;fill-opacity:1;stroke:none;stroke-width:1px;stroke-linecap:butt;stroke-linejoin:miter;stroke-opacity:1;font-family:Bitstream Vera Sans"
       xml:space="preserve"><tspan
         y="39.168156"
         x="15.188651"
         id="tspan4678"
         sodipodi:role="line">Ir</tspan></text>
  </g>
</svg>
