<?xml version="1.0" encoding="UTF-8" standalone="no"?>
<!-- Created with Inkscape (http://www.inkscape.org/) -->
<svg
   xmlns:dc="http://purl.org/dc/elements/1.1/"
   xmlns:cc="http://creativecommons.org/ns#"
   xmlns:rdf="http://www.w3.org/1999/02/22-rdf-syntax-ns#"
   xmlns:svg="http://www.w3.org/2000/svg"
   xmlns="http://www.w3.org/2000/svg"
   xmlns:xlink="http://www.w3.org/1999/xlink"
   xmlns:sodipodi="http://sodipodi.sourceforge.net/DTD/sodipodi-0.dtd"
   xmlns:inkscape="http://www.inkscape.org/namespaces/inkscape"
   width="40"
   height="40"
   id="svg2193"
   sodipodi:version="0.32"
   inkscape:version="0.46"
   version="1.0"
   sodipodi:docbase="/home/jra/Desktop"
   sodipodi:docname="78.svg"
   inkscape:output_extension="org.inkscape.output.svg.inkscape">
  <defs
     id="defs2195">
    <inkscape:perspective
       sodipodi:type="inkscape:persp3d"
       inkscape:vp_x="0 : 20 : 1"
       inkscape:vp_y="0 : 1000 : 0"
       inkscape:vp_z="40 : 20 : 1"
       inkscape:persp3d-origin="20 : 13.333333 : 1"
       id="perspective164" />
    <linearGradient
       id="linearGradient3979">
      <stop
         id="stop3981"
         offset="0"
         style="stop-color:#000000;stop-opacity:1" />
      <stop
         style="stop-color:#ffffff;stop-opacity:1;"
         offset="0.48823315"
         id="stop3983" />
      <stop
         id="stop3985"
         offset="1"
         style="stop-color:#000000;stop-opacity:1;" />
    </linearGradient>
    <linearGradient
       id="linearGradient3688">
      <stop
         id="stop3690"
         offset="0"
         style="stop-color:#000000;stop-opacity:0.00584795;" />
      <stop
         style="stop-color:#000000;stop-opacity:0;"
         offset="0.66625601"
         id="stop3694" />
      <stop
         id="stop3692"
         offset="1"
         style="stop-color:#000000;stop-opacity:1;" />
    </linearGradient>
    <linearGradient
       id="linearGradient4017">
      <stop
         style="stop-color:#000000;stop-opacity:0;"
         offset="0"
         id="stop4019" />
      <stop
         id="stop4025"
         offset="0.25"
         style="stop-color:#000000;stop-opacity:0;" />
      <stop
         id="stop4023"
         offset="0.5"
         style="stop-color:#000000;stop-opacity:0.98773009;" />
      <stop
         style="stop-color:#000000;stop-opacity:0;"
         offset="1"
         id="stop4021" />
    </linearGradient>
    <linearGradient
       id="linearGradient3765">
      <stop
         style="stop-color:#000000;stop-opacity:0.00613497;"
         offset="0"
         id="stop3767" />
      <stop
         id="stop3769"
         offset="0.25"
         style="stop-color:#000000;stop-opacity:0;" />
      <stop
         id="stop3771"
         offset="0.5"
         style="stop-color:#ffffff;stop-opacity:1;" />
      <stop
         style="stop-color:#000000;stop-opacity:0;"
         offset="0.75"
         id="stop3773" />
      <stop
         style="stop-color:#000000;stop-opacity:0;"
         offset="1"
         id="stop3775" />
    </linearGradient>
    <linearGradient
       id="linearGradient3699">
      <stop
         id="stop3701"
         offset="0"
         style="stop-color:#000000;stop-opacity:0.00613497;" />
      <stop
         style="stop-color:#000000;stop-opacity:1;"
         offset="0.25"
         id="stop3709" />
      <stop
         style="stop-color:#ffffff;stop-opacity:1;"
         offset="0.5"
         id="stop3703" />
      <stop
         id="stop3707"
         offset="0.75"
         style="stop-color:#000000;stop-opacity:1;" />
      <stop
         id="stop3705"
         offset="1"
         style="stop-color:#000000;stop-opacity:0;" />
    </linearGradient>
    <linearGradient
       id="linearGradient3256">
      <stop
         style="stop-color:#000000;stop-opacity:0.498"
         offset="0"
         id="stop3258" />
      <stop
         style="stop-color:#000000;stop-opacity:0;"
         offset="1"
         id="stop3260" />
    </linearGradient>
    <linearGradient
       id="linearGradient3272">
      <stop
         style="stop-color:#000000;stop-opacity:1"
         offset="0"
         id="stop3274" />
      <stop
         id="stop3278"
         offset="0.5"
         style="stop-color:#ffffff;stop-opacity:1;" />
      <stop
         style="stop-color:#000000;stop-opacity:1;"
         offset="1"
         id="stop3276" />
    </linearGradient>
    <linearGradient
       id="linearGradient3239">
      <stop
         style="stop-color:#ffffff;stop-opacity:1;"
         offset="0"
         id="stop3241" />
      <stop
         style="stop-color:#ffffff;stop-opacity:0;"
         offset="1"
         id="stop3243" />
    </linearGradient>
    <linearGradient
       id="linearGradient3220">
      <stop
         id="stop3222"
         offset="0"
         style="stop-color:#000000;stop-opacity:1" />
      <stop
         id="stop3224"
         offset="1"
         style="stop-color:#ffffff;stop-opacity:1;" />
    </linearGradient>
    <linearGradient
       id="linearGradient3291">
      <stop
         id="stop3293"
         offset="0"
         style="stop-color:#000000;stop-opacity:1;" />
      <stop
         id="stop3295"
         offset="1"
         style="stop-color:#000000;stop-opacity:0;" />
    </linearGradient>
    <radialGradient
       inkscape:collect="always"
       xlink:href="#linearGradient3291"
       id="radialGradient2595"
       gradientUnits="userSpaceOnUse"
       gradientTransform="matrix(1,0,0,0.197802,0,92.82166)"
       cx="63.912209"
       cy="115.70919"
       fx="75.857941"
       fy="115.70919"
       r="63.912209" />
    <linearGradient
       inkscape:collect="always"
       xlink:href="#linearGradient3239"
       id="linearGradient4791"
       gradientUnits="userSpaceOnUse"
       x1="18.038067"
       y1="15.523783"
       x2="18.125"
       y2="18.442125"
       gradientTransform="matrix(1.2412597,0,0,1.2412597,-7.6288115,-2.3129428)" />
    <linearGradient
       inkscape:collect="always"
       xlink:href="#linearGradient3220"
       id="linearGradient4794"
       gradientUnits="userSpaceOnUse"
       x1="27.508307"
       y1="18.093018"
       x2="27.413849"
       y2="16.395773"
       gradientTransform="matrix(1.2412597,0,0,1.2412597,-7.6288115,-2.3129428)" />
    <linearGradient
       inkscape:collect="always"
       xlink:href="#linearGradient3220"
       id="linearGradient4797"
       gradientUnits="userSpaceOnUse"
       x1="18.125"
       y1="19.059036"
       x2="18.125"
       y2="17.080183"
       gradientTransform="matrix(1.2412597,0,0,1.2412597,-7.6288115,-2.3129428)" />
    <radialGradient
       inkscape:collect="always"
       xlink:href="#linearGradient3256"
       id="radialGradient4800"
       gradientUnits="userSpaceOnUse"
       gradientTransform="matrix(0.9164249,-2.3835797e-2,9.0057378e-3,0.5742683,-18.427938,9.4912731)"
       cx="31.621368"
       cy="14.795067"
       fx="31.621368"
       fy="14.795067"
       r="3.8523686" />
    <radialGradient
       inkscape:collect="always"
       xlink:href="#linearGradient3291"
       id="radialGradient4803"
       gradientUnits="userSpaceOnUse"
       gradientTransform="matrix(0.501989,-4.5483646e-2,1.6834129e-2,0.3081471,-5.4836057,13.984252)"
       cx="30.302967"
       cy="16.127483"
       fx="30.302967"
       fy="16.127483"
       r="3.8523686" />
    <linearGradient
       inkscape:collect="always"
       xlink:href="#linearGradient3239"
       id="linearGradient4806"
       gradientUnits="userSpaceOnUse"
       gradientTransform="matrix(0.963826,0,0,1.2412597,-19.916294,1.8382189)"
       x1="27.594801"
       y1="15.56899"
       x2="35.761875"
       y2="15.56899" />
    <linearGradient
       inkscape:collect="always"
       xlink:href="#linearGradient3239"
       id="linearGradient4809"
       gradientUnits="userSpaceOnUse"
       gradientTransform="matrix(0.963826,0,0,1.2412597,-19.916294,1.8382189)"
       x1="28.474127"
       y1="15.055593"
       x2="26.056616"
       y2="12.619905" />
    <radialGradient
       inkscape:collect="always"
       xlink:href="#linearGradient3256"
       id="radialGradient4815"
       gradientUnits="userSpaceOnUse"
       gradientTransform="matrix(1.2771168,-2.5792848e-2,1.2550266e-2,0.6214192,-19.485795,8.4805501)"
       cx="31.621368"
       cy="14.795067"
       fx="31.621368"
       fy="14.795067"
       r="3.8523686" />
    <radialGradient
       inkscape:collect="always"
       xlink:href="#linearGradient3291"
       id="radialGradient4818"
       gradientUnits="userSpaceOnUse"
       gradientTransform="matrix(0.6995642,-4.9218109e-2,2.34598e-2,0.3334479,-1.4467536,13.342429)"
       cx="30.302967"
       cy="16.127483"
       fx="30.302967"
       fy="16.127483"
       r="3.8523686" />
    <linearGradient
       inkscape:collect="always"
       xlink:href="#linearGradient3239"
       id="linearGradient4821"
       gradientUnits="userSpaceOnUse"
       gradientTransform="matrix(1.3431736,0,0,1.3431736,-21.559968,0.1991374)"
       x1="27.594801"
       y1="15.56899"
       x2="35.761875"
       y2="15.56899" />
    <linearGradient
       inkscape:collect="always"
       xlink:href="#linearGradient3239"
       id="linearGradient4824"
       gradientUnits="userSpaceOnUse"
       gradientTransform="matrix(1.3431736,0,0,1.3431736,-21.559968,0.1991374)"
       x1="27.521828"
       y1="15.491468"
       x2="19.497925"
       y2="9.7028456" />
    <radialGradient
       inkscape:collect="always"
       xlink:href="#linearGradient3239"
       id="radialGradient4827"
       gradientUnits="userSpaceOnUse"
       gradientTransform="matrix(1.3431736,0,0,1.1397144,-21.559968,3.3667905)"
       cx="34.505981"
       cy="13.443962"
       fx="34.505981"
       fy="13.443962"
       r="4.0835366" />
    <radialGradient
       inkscape:collect="always"
       xlink:href="#linearGradient3256"
       id="radialGradient4830"
       gradientUnits="userSpaceOnUse"
       gradientTransform="matrix(1.1802144,-2.3835797e-2,1.1598006e-2,0.5742683,-5.7120186,7.8226303)"
       cx="31.621368"
       cy="14.795067"
       fx="31.621368"
       fy="14.795067"
       r="3.8523686" />
    <radialGradient
       inkscape:collect="always"
       xlink:href="#linearGradient3291"
       id="radialGradient4833"
       gradientUnits="userSpaceOnUse"
       gradientTransform="matrix(0.6464847,-4.5483646e-2,2.167977e-2,0.3081471,10.958295,12.315602)"
       cx="30.302967"
       cy="16.127483"
       fx="30.302967"
       fy="16.127483"
       r="3.8523686" />
    <linearGradient
       inkscape:collect="always"
       xlink:href="#linearGradient3239"
       id="linearGradient4836"
       gradientUnits="userSpaceOnUse"
       gradientTransform="matrix(1.2412597,0,0,1.2412597,-7.6288115,0.1695766)"
       x1="27.594801"
       y1="15.56899"
       x2="35.761875"
       y2="15.56899" />
    <linearGradient
       inkscape:collect="always"
       xlink:href="#linearGradient3239"
       id="linearGradient4839"
       gradientUnits="userSpaceOnUse"
       gradientTransform="matrix(1.2412597,0,0,1.2412597,-7.6288115,0.1695766)"
       x1="32.142086"
       y1="10.568244"
       x2="33.33976"
       y2="21.840487" />
    <radialGradient
       inkscape:collect="always"
       xlink:href="#linearGradient3239"
       id="radialGradient4842"
       gradientUnits="userSpaceOnUse"
       gradientTransform="matrix(1.2412597,0,0,1.0532381,-7.6288115,3.0968817)"
       cx="34.505981"
       cy="13.443962"
       fx="34.505981"
       fy="13.443962"
       r="4.0835366" />
    <linearGradient
       inkscape:collect="always"
       xlink:href="#linearGradient3239"
       id="linearGradient4845"
       gradientUnits="userSpaceOnUse"
       gradientTransform="matrix(0.963826,0,0,1.2412597,-19.916294,1.8382189)"
       x1="26.781279"
       y1="15.671232"
       x2="37.034107"
       y2="9.9561825" />
    <radialGradient
       inkscape:collect="always"
       xlink:href="#linearGradient4017"
       id="radialGradient4851"
       gradientUnits="userSpaceOnUse"
       gradientTransform="matrix(3.9674592,0.2418943,-8.8707925e-2,1.454954,-93.882944,-12.666653)"
       cx="31.510618"
       cy="17.000393"
       fx="31.510618"
       fy="17.000393"
       r="4.0547137" />
    <linearGradient
       inkscape:collect="always"
       xlink:href="#linearGradient3239"
       id="linearGradient4854"
       gradientUnits="userSpaceOnUse"
       gradientTransform="matrix(1.2412597,0,0,1.2412597,-7.6288115,0.1695766)"
       x1="27.594801"
       y1="15.56899"
       x2="35.761875"
       y2="15.56899" />
    <radialGradient
       inkscape:collect="always"
       xlink:href="#linearGradient4017"
       id="radialGradient4857"
       gradientUnits="userSpaceOnUse"
       gradientTransform="matrix(3.7798,0.64932,-0.2528038,1.4716127,-59.899342,-23.176077)"
       cx="22.029301"
       cy="19.837889"
       fx="22.029301"
       fy="19.837889"
       r="4.421875" />
    <linearGradient
       inkscape:collect="always"
       xlink:href="#linearGradient3239"
       id="linearGradient4860"
       gradientUnits="userSpaceOnUse"
       gradientTransform="matrix(1.3431736,0,0,1.3431736,-21.559968,0.1991374)"
       x1="27.594801"
       y1="15.56899"
       x2="35.761875"
       y2="15.56899" />
    <radialGradient
       inkscape:collect="always"
       xlink:href="#linearGradient4017"
       id="radialGradient4863"
       gradientUnits="userSpaceOnUse"
       gradientTransform="matrix(4.1382167,4.5582169e-2,-2.0914989e-2,1.8987849,-50.458331,-17.203069)"
       cx="14.394866"
       cy="19.496937"
       fx="14.394866"
       fy="19.496937"
       r="3.15625" />
    <linearGradient
       inkscape:collect="always"
       xlink:href="#linearGradient3239"
       id="linearGradient4866"
       gradientUnits="userSpaceOnUse"
       gradientTransform="matrix(0.963826,0,0,1.2412597,-19.916294,1.8382189)"
       x1="27.594801"
       y1="15.56899"
       x2="35.761875"
       y2="15.56899" />
    <radialGradient
       inkscape:collect="always"
       xlink:href="#linearGradient3239"
       id="radialGradient4869"
       gradientUnits="userSpaceOnUse"
       gradientTransform="matrix(1.8535967,-1.8525422e-2,6.1298327e-3,0.6133322,-25.826865,10.355477)"
       cx="29.914276"
       cy="21.365448"
       fx="29.914276"
       fy="21.365448"
       r="4.0541811" />
    <radialGradient
       inkscape:collect="always"
       xlink:href="#linearGradient3239"
       id="radialGradient4872"
       gradientUnits="userSpaceOnUse"
       gradientTransform="matrix(2.3640955,0,0,0.9605508,-29.015328,3.0775455)"
       cx="19.046875"
       cy="24.372074"
       fx="19.046875"
       fy="24.372074"
       r="4.421875" />
    <radialGradient
       inkscape:collect="always"
       xlink:href="#linearGradient3239"
       id="radialGradient4875"
       gradientUnits="userSpaceOnUse"
       gradientTransform="matrix(3.600882,0,0,1.2058493,-37.089192,-1.4183198)"
       cx="12.554942"
       cy="21.728403"
       fx="12.554942"
       fy="21.728403"
       r="3.15625" />
    <radialGradient
       inkscape:collect="always"
       xlink:href="#linearGradient3765"
       id="radialGradient4878"
       gradientUnits="userSpaceOnUse"
       gradientTransform="matrix(6.1393026,-4.1857787e-8,1.9201278e-8,2.8162604,-162.95048,-29.281643)"
       cx="32.696941"
       cy="15.968399"
       fx="32.696941"
       fy="15.968399"
       r="4.0547137" />
    <radialGradient
       inkscape:collect="always"
       xlink:href="#linearGradient3765"
       id="radialGradient4881"
       gradientUnits="userSpaceOnUse"
       gradientTransform="matrix(4.6097661,0,0,3.2988815,-85.262356,-41.146508)"
       cx="24.106203"
       cy="17.019365"
       fx="24.106203"
       fy="17.019365"
       r="4.421875" />
    <radialGradient
       inkscape:collect="always"
       xlink:href="#linearGradient3765"
       id="radialGradient4884"
       gradientUnits="userSpaceOnUse"
       gradientTransform="matrix(5.960504,0,0,5.2975157,-76.942712,-78.994777)"
       cx="15.52049"
       cy="17.498726"
       fx="15.52049"
       fy="17.498726"
       r="3.15625" />
    <linearGradient
       inkscape:collect="always"
       xlink:href="#linearGradient3291"
       id="linearGradient4887"
       gradientUnits="userSpaceOnUse"
       x1="23.335812"
       y1="23.058592"
       x2="22.988081"
       y2="15.742311"
       gradientTransform="matrix(1.2412597,0,0,1.2412597,-7.6288115,-2.3129428)" />
    <radialGradient
       inkscape:collect="always"
       xlink:href="#linearGradient3699"
       id="radialGradient4890"
       gradientUnits="userSpaceOnUse"
       gradientTransform="matrix(8.0994462,0,0,5.4124864,-211.21943,-75.563167)"
       cx="29.436617"
       cy="16.158766"
       fx="29.436617"
       fy="16.158766"
       r="2.171875" />
    <radialGradient
       inkscape:collect="always"
       xlink:href="#linearGradient3699"
       id="radialGradient4893"
       gradientUnits="userSpaceOnUse"
       gradientTransform="matrix(7.4718973,-8.3128578e-8,7.2327412e-8,5.0634131,-138.56956,-75.089059)"
       cx="21.015625"
       cy="17.258732"
       fx="21.015625"
       fy="17.258732"
       r="2.390625" />
    <radialGradient
       inkscape:collect="always"
       xlink:href="#linearGradient3699"
       id="radialGradient4896"
       gradientUnits="userSpaceOnUse"
       gradientTransform="matrix(8.5293906,0,0,9.8174138,-104.08267,-165.49011)"
       cx="12.94332"
       cy="19.264257"
       fx="12.94332"
       fy="19.264257"
       r="1.703125" />
    <radialGradient
       inkscape:collect="always"
       xlink:href="#linearGradient3699"
       id="radialGradient4899"
       gradientUnits="userSpaceOnUse"
       gradientTransform="matrix(8.3819017,0,0,4.4378098,-251.38687,-58.48724)"
       cx="33.927509"
       cy="18.003136"
       fx="33.927509"
       fy="18.003136"
       r="2.085964" />
    <radialGradient
       inkscape:collect="always"
       xlink:href="#linearGradient3699"
       id="radialGradient4902"
       gradientUnits="userSpaceOnUse"
       gradientTransform="matrix(6.7579702,0,0,5.3776399,-146.75336,-80.395756)"
       cx="25.21875"
       cy="19.338726"
       fx="25.21875"
       fy="19.338726"
       r="2.25" />
    <radialGradient
       inkscape:collect="always"
       xlink:href="#linearGradient3699"
       id="radialGradient4905"
       gradientUnits="userSpaceOnUse"
       gradientTransform="matrix(7.9477917,0,0,8.8370627,-116.50517,-146.52896)"
       cx="16.234375"
       cy="17.852884"
       fx="16.234375"
       fy="17.852884"
       r="1.609375" />
    <radialGradient
       inkscape:collect="always"
       xlink:href="#linearGradient3256"
       id="radialGradient4908"
       gradientUnits="userSpaceOnUse"
       gradientTransform="matrix(0.9164249,-2.3835797e-2,9.0057378e-3,0.5742683,-18.427938,9.4912731)"
       cx="31.621368"
       cy="14.795067"
       fx="31.621368"
       fy="14.795067"
       r="3.8523686" />
    <radialGradient
       inkscape:collect="always"
       xlink:href="#linearGradient3291"
       id="radialGradient4911"
       gradientUnits="userSpaceOnUse"
       gradientTransform="matrix(0.501989,-4.5483646e-2,1.6834129e-2,0.3081471,-5.4836058,13.984252)"
       cx="30.302967"
       cy="16.127483"
       fx="30.302967"
       fy="16.127483"
       r="3.8523686" />
    <linearGradient
       inkscape:collect="always"
       xlink:href="#linearGradient3239"
       id="linearGradient4914"
       gradientUnits="userSpaceOnUse"
       gradientTransform="matrix(0.963826,0,0,1.2412597,-19.916294,1.8382189)"
       x1="26.781279"
       y1="15.671232"
       x2="37.034107"
       y2="9.9561825" />
    <radialGradient
       inkscape:collect="always"
       xlink:href="#linearGradient3239"
       id="radialGradient4917"
       gradientUnits="userSpaceOnUse"
       gradientTransform="matrix(1.7990428,-1.5958089e-2,4.2562217e-3,0.4798272,-45.836656,12.497871)"
       cx="30.969963"
       cy="12.622929"
       fx="30.969963"
       fy="12.622929"
       r="4.0835366" />
    <radialGradient
       inkscape:collect="always"
       xlink:href="#linearGradient3256"
       id="radialGradient4920"
       gradientUnits="userSpaceOnUse"
       gradientTransform="matrix(1.2771168,-2.5792848e-2,1.2550266e-2,0.6214192,-19.485794,8.4805501)"
       cx="31.621368"
       cy="14.795067"
       fx="31.621368"
       fy="14.795067"
       r="3.8523686" />
    <radialGradient
       inkscape:collect="always"
       xlink:href="#linearGradient3291"
       id="radialGradient4923"
       gradientUnits="userSpaceOnUse"
       gradientTransform="matrix(0.6995642,-4.9218109e-2,2.34598e-2,0.3334479,-1.4467541,13.342429)"
       cx="30.302967"
       cy="16.127483"
       fx="30.302967"
       fy="16.127483"
       r="3.8523686" />
    <linearGradient
       inkscape:collect="always"
       xlink:href="#linearGradient3239"
       id="linearGradient4926"
       gradientUnits="userSpaceOnUse"
       gradientTransform="matrix(1.3431736,0,0,1.3431736,-21.559968,0.1991374)"
       x1="32.142086"
       y1="10.568244"
       x2="33.33976"
       y2="21.840487" />
    <radialGradient
       inkscape:collect="always"
       xlink:href="#linearGradient3239"
       id="radialGradient4929"
       gradientUnits="userSpaceOnUse"
       gradientTransform="matrix(2.1138025,-9.8000071e-2,2.6836544e-2,0.5788481,-45.748359,13.514226)"
       cx="31.415127"
       cy="11.973739"
       fx="31.415127"
       fy="11.973739"
       r="4.0835366" />
    <radialGradient
       inkscape:collect="always"
       xlink:href="#linearGradient3256"
       id="radialGradient4932"
       gradientUnits="userSpaceOnUse"
       gradientTransform="matrix(1.1802144,-2.3835797e-2,1.1598006e-2,0.5742683,-5.7120189,7.8226303)"
       cx="31.621368"
       cy="14.795067"
       fx="31.621368"
       fy="14.795067"
       r="3.8523686" />
    <radialGradient
       inkscape:collect="always"
       xlink:href="#linearGradient3291"
       id="radialGradient4935"
       gradientUnits="userSpaceOnUse"
       gradientTransform="matrix(0.6464847,-4.5483646e-2,2.167977e-2,0.3081471,10.958295,12.315602)"
       cx="30.302967"
       cy="16.127483"
       fx="30.302967"
       fy="16.127483"
       r="3.8523686" />
    <linearGradient
       inkscape:collect="always"
       xlink:href="#linearGradient3239"
       id="linearGradient4938"
       gradientUnits="userSpaceOnUse"
       gradientTransform="matrix(1.2412597,0,0,1.2412597,-7.6288115,0.1695766)"
       x1="32.142086"
       y1="10.568244"
       x2="33.33976"
       y2="21.840487" />
    <radialGradient
       inkscape:collect="always"
       xlink:href="#linearGradient3239"
       id="radialGradient4941"
       gradientUnits="userSpaceOnUse"
       gradientTransform="matrix(1.2395029,-6.6015048e-2,2.4913342e-2,0.4677746,-7.8907674,12.60789)"
       cx="32.046059"
       cy="12.829251"
       fx="32.046059"
       fy="12.829251"
       r="4.0835366" />
    <linearGradient
       inkscape:collect="always"
       xlink:href="#linearGradient3291"
       id="linearGradient4959"
       gradientUnits="userSpaceOnUse"
       gradientTransform="matrix(1.2412597,0,0,1.2412597,-7.6288115,-0.3129428)"
       x1="22.906952"
       y1="22.796394"
       x2="22.764839"
       y2="20.489904" />
    <linearGradient
       inkscape:collect="always"
       xlink:href="#linearGradient3272"
       id="linearGradient3680"
       gradientUnits="userSpaceOnUse"
       gradientTransform="matrix(1.2412597,0,0,1.2412597,-7.6288115,-2.3129428)"
       x1="15.577591"
       y1="22.381853"
       x2="12.364505"
       y2="22.381853" />
    <radialGradient
       inkscape:collect="always"
       xlink:href="#linearGradient3688"
       id="radialGradient3686"
       cx="20.854622"
       cy="22.479139"
       fx="20.854622"
       fy="22.479139"
       r="4.875"
       gradientTransform="matrix(1.2437806,1.2322789e-8,0,0.5479032,-5.1803379,11.039711)"
       gradientUnits="userSpaceOnUse" />
    <radialGradient
       inkscape:collect="always"
       xlink:href="#linearGradient3239"
       id="radialGradient3975"
       gradientUnits="userSpaceOnUse"
       gradientTransform="matrix(0.963826,0,0,1.0532381,-19.916294,4.765524)"
       cx="34.505981"
       cy="13.443962"
       fx="34.505981"
       fy="13.443962"
       r="4.0835366" />
    <linearGradient
       inkscape:collect="always"
       xlink:href="#linearGradient3979"
       id="linearGradient3977"
       gradientUnits="userSpaceOnUse"
       gradientTransform="matrix(1.2412597,0,0,1.2412597,-7.6288115,-2.3129428)"
       x1="33.108627"
       y1="20.205332"
       x2="30.323606"
       y2="20.225784" />
  </defs>
  <sodipodi:namedview
     id="base"
     pagecolor="#ffffff"
     bordercolor="#666666"
     borderopacity="1.0"
     inkscape:pageopacity="0.0"
     inkscape:pageshadow="2"
     inkscape:zoom="8.6273865"
     inkscape:cx="24.115328"
     inkscape:cy="17.01498"
     inkscape:current-layer="layer1"
     showgrid="false"
     inkscape:grid-bbox="false"
     inkscape:document-units="px"
     width="40px"
     height="40px"
     inkscape:window-width="1552"
     inkscape:window-height="1053"
     inkscape:window-x="347"
     inkscape:window-y="38">
    <inkscape:grid
       id="GridFromPre046Settings"
       type="xygrid"
       originx="0px"
       originy="0px"
       spacingx="1px"
       spacingy="1px"
       color="#0000ff"
       empcolor="#0000ff"
       opacity="0.2"
       empopacity="0.4"
       empspacing="2"
       visible="true"
       enabled="true" />
  </sodipodi:namedview>
  <metadata
     id="metadata2198">
    <rdf:RDF>
      <cc:Work
         rdf:about="">
        <dc:format>image/svg+xml</dc:format>
        <dc:type
           rdf:resource="http://purl.org/dc/dcmitype/StillImage" />
        <dc:creator>
          <cc:Agent>
            <dc:title>Jarle Akselsen</dc:title>
          </cc:Agent>
        </dc:creator>
        <cc:license
           rdf:resource="http://creativecommons.org/licenses/GPL/2.0/" />
      </cc:Work>
      <cc:License
         rdf:about="http://creativecommons.org/licenses/GPL/2.0/">
        <cc:permits
           rdf:resource="http://web.resource.org/cc/Reproduction" />
        <cc:permits
           rdf:resource="http://web.resource.org/cc/Distribution" />
        <cc:requires
           rdf:resource="http://web.resource.org/cc/Notice" />
        <cc:permits
           rdf:resource="http://web.resource.org/cc/DerivativeWorks" />
        <cc:requires
           rdf:resource="http://web.resource.org/cc/ShareAlike" />
        <cc:requires
           rdf:resource="http://web.resource.org/cc/SourceCode" />
      </cc:License>
    </rdf:RDF>
  </metadata>
  <g
     id="layer1"
     inkscape:label="Layer 1"
     inkscape:groupmode="layer">
    <path
       transform="matrix(0.276805,-1.5275671e-2,1.9761307e-2,0.3580876,1.511603,-16.248968)"
       d="M 127.82442,115.70919 A 63.912209,12.641975 0 1 1 0,115.70919 A 63.912209,12.641975 0 1 1 127.82442,115.70919 z"
       sodipodi:ry="12.641975"
       sodipodi:rx="63.912209"
       sodipodi:cy="115.70919"
       sodipodi:cx="63.912209"
       id="path2593"
       style="opacity:0.38139535;fill:url(#radialGradient2595);fill-opacity:1;fill-rule:nonzero;stroke:none;stroke-width:0;stroke-linecap:round;stroke-linejoin:round;stroke-miterlimit:4;stroke-dasharray:none;stroke-dashoffset:4;stroke-opacity:1"
       sodipodi:type="arc" />
    <rect
       style="opacity:0.61162792;fill:#555753;fill-opacity:1;fill-rule:nonzero;stroke:none;stroke-width:0.69999999;stroke-linecap:round;stroke-linejoin:miter;stroke-miterlimit:4;stroke-dasharray:none;stroke-opacity:1"
       id="rect1951"
       width="40.001965"
       height="10.004759"
       x="-0.0019644466"
       y="30" />
    <text
       xml:space="preserve"
       style="font-size:12px;font-style:normal;font-weight:normal;fill:#eeeeec;fill-opacity:1;stroke:none;stroke-width:1px;stroke-linecap:butt;stroke-linejoin:miter;stroke-opacity:1;font-family:Bitstream Vera Sans"
       x="13.581055"
       y="39.168156"
       id="text2840"><tspan
         sodipodi:role="line"
         id="tspan2842"
         x="13.581055"
         y="39.168156">Pt</tspan></text>
    <path
       style="fill:#000000;fill-opacity:1;stroke:none;stroke-width:0.1;stroke-linecap:round;stroke-linejoin:round;stroke-miterlimit:4;stroke-opacity:1"
       d="M 32.673339,13.978591 C 31.85394,13.977692 31.150744,14.153494 31.082975,14.560431 C 30.989772,14.140776 30.273158,14.013249 29.453822,14.01738 C 28.634486,14.021511 27.698822,14.157088 27.204039,14.405274 C 26.434757,14.791152 25.929815,15.434668 25.730043,16.422321 L 25.574885,16.422321 C 25.2866,16.079503 24.893894,15.810959 24.488783,15.607744 C 23.417965,15.070618 20.484986,14.882199 20.338321,15.762902 C 20.237465,15.308783 19.44062,15.176584 18.55401,15.181061 C 17.667412,15.185527 16.684483,15.339181 16.14907,15.607744 C 15.554069,15.906206 15.087305,16.349744 14.791442,16.965372 L 13.976865,17.004161 C 13.760217,16.607623 13.463278,16.292712 13.123499,16.073217 C 12.355108,15.576843 10.241962,15.414499 10.136718,16.228374 C 10.064346,15.808719 9.5316647,15.681192 8.8954583,15.685323 C 8.2592518,15.689454 7.5341278,15.82503 7.1499368,16.073217 C 6.3815486,16.569591 5.9086759,17.482472 5.9086771,19.021208 C 5.9086771,20.688173 6.4599491,22.14974 7.3438836,23.17167 C 7.9997342,24.555943 9.1009054,25.460244 10.524612,25.460243 C 12.70071,25.460243 14.304151,23.812574 14.519916,21.115834 L 14.869021,21.077045 C 15.219431,21.928694 15.744496,22.681099 16.420595,23.288039 C 17.334588,24.785968 18.897323,25.770559 20.881372,25.770558 C 24.147073,25.770558 26.46704,23.708982 26.467041,20.378836 L 26.54462,20.378836 C 26.81337,20.786882 27.112289,21.177612 27.475564,21.503728 C 28.320206,22.888 29.753722,23.792302 31.587237,23.7923 C 34.605145,23.7923 36.746222,21.904734 36.746223,18.827261 C 36.746223,17.400083 36.928806,16.107069 36.164382,15.530165 C 35.886971,15.033058 35.432835,14.66095 34.923123,14.405274 C 34.428338,14.157086 33.492738,13.979489 32.673339,13.978591 z"
       id="path3394" />
    <path
       sodipodi:nodetypes="cssscsc"
       id="path2526"
       d="M 36.744077,18.830949 C 36.744077,21.908422 34.599963,23.795673 31.582055,23.795673 C 28.564147,23.795673 26.623503,21.399749 26.623503,18.322276 C 26.623503,16.78354 27.235832,15.902481 28.225399,15.406106 C 29.214968,14.909733 31.904322,15.332147 32.090728,16.171457 C 32.226266,15.357582 34.966488,14.909733 35.956057,15.406106 C 36.945624,15.902481 36.744077,17.292213 36.744077,18.830949 z"
       style="fill:url(#radialGradient4941);fill-opacity:1;stroke:none;stroke-width:0.1;stroke-linecap:round;stroke-linejoin:round;stroke-miterlimit:4;stroke-opacity:1" />
    <path
       style="fill:url(#linearGradient4938);fill-opacity:1;stroke:none;stroke-width:0.1;stroke-linecap:round;stroke-linejoin:round;stroke-miterlimit:4;stroke-opacity:1"
       d="M 32.673339,13.978591 C 31.85394,13.977692 31.150744,14.153493 31.082975,14.560431 C 30.989772,14.140776 30.273158,14.013249 29.453822,14.01738 C 28.634486,14.021511 27.698822,14.157088 27.204039,14.405274 C 26.42566,14.795715 25.924157,15.453386 25.730043,16.46111 C 26.274509,16.619201 26.566888,17.05541 26.699777,17.624791 C 26.861757,16.520492 27.387923,15.827443 28.212562,15.413797 C 29.202131,14.917424 31.905093,15.350275 32.091499,16.189585 C 32.227038,15.375709 34.980867,14.917424 35.970435,15.413797 C 36.042179,15.449784 36.104629,15.48507 36.164382,15.530165 C 35.886971,15.033058 35.432835,14.66095 34.923123,14.405274 C 34.428338,14.157086 33.492738,13.979489 32.673339,13.978591 z M 26.738566,19.52547 C 26.704707,19.844002 26.668837,20.163207 26.622198,20.456415 C 26.601648,20.425968 27.112289,21.177612 27.475564,21.503728 C 27.118458,20.91847 26.87229,20.253278 26.738566,19.52547 z"
       id="path3327"
       sodipodi:nodetypes="ccssccscscsccscc" />
    <path
       style="opacity:0.90983605;fill:url(#radialGradient4935);fill-opacity:1;stroke:none;stroke-width:0.1;stroke-linecap:round;stroke-linejoin:round;stroke-miterlimit:4;stroke-opacity:1"
       d="M 31.238133,14.676799 L 31.276922,15.181061 L 29.841716,15.21985 C 30.26166,15.251608 30.67444,15.337348 31.044186,15.452587 L 31.082975,15.491376 L 31.509658,15.530165 L 31.703605,15.762902 C 31.884293,15.883069 32.047603,16.000486 32.091499,16.150795 C 32.100182,16.116771 32.151565,16.105893 32.169078,16.073217 L 32.130288,15.491376 L 33.87581,15.21985 L 32.05271,15.181061 L 31.238133,14.676799 z"
       id="path2528" />
    <path
       sodipodi:nodetypes="ccccscscc"
       id="path3247"
       d="M 29.453822,14.01738 C 28.634486,14.021511 27.698822,14.157088 27.204039,14.405274 C 25.7821,15.181419 26.994092,16.266244 28.212562,15.413797 C 29.202131,14.917424 31.905093,15.350275 32.091499,16.189585 C 32.227038,15.375709 34.980867,14.917424 35.970435,15.413797 C 36.024741,15.441038 36.073598,15.461773 36.125593,15.491376 C 35.848814,15.016722 35.417906,14.653461 34.923123,14.405274 C 33.933554,13.9089 31.218514,13.746556 31.082975,14.560431 C 30.989772,14.140776 30.273158,14.013249 29.453822,14.01738 z"
       style="fill:url(#radialGradient4932);fill-opacity:1;stroke:none;stroke-width:0.1;stroke-linecap:round;stroke-linejoin:round;stroke-miterlimit:4;stroke-opacity:1" />
    <path
       style="fill:url(#radialGradient4929);fill-opacity:1;stroke:none;stroke-width:0.1;stroke-linecap:round;stroke-linejoin:round;stroke-miterlimit:4;stroke-opacity:1"
       d="M 18.321274,16.46111 C 17.89471,16.4796 17.502876,16.559564 17.235172,16.693846 C 16.164356,17.230974 15.489652,18.170712 15.48965,19.835785 C 15.48965,23.165931 17.615684,25.770558 20.881372,25.770558 C 24.147072,25.770558 26.467041,23.708983 26.467041,20.378836 C 26.335116,19.254092 26.326317,17.806168 25.846411,16.849004 C 25.774206,16.791283 25.702909,16.738607 25.613675,16.693846 C 24.542857,16.15672 21.571088,16.627732 21.424423,17.508423 C 21.27314,16.827262 19.600964,16.405642 18.321274,16.46111 z"
       id="path3264" />
    <path
       style="fill:url(#linearGradient4926);fill-opacity:1;stroke:none;stroke-width:0.1;stroke-linecap:round;stroke-linejoin:round;stroke-miterlimit:4;stroke-opacity:1"
       d="M 22.045053,15.142272 C 21.158377,15.141301 20.411653,15.32255 20.338321,15.762902 C 20.237465,15.308783 19.44062,15.176584 18.55401,15.181061 C 17.667412,15.185527 16.684483,15.339181 16.14907,15.607744 C 15.554069,15.906205 15.087305,16.349744 14.791442,16.965372 C 14.739213,18.374974 14.730745,19.762695 14.869021,21.077045 C 15.219431,21.928694 15.744496,22.681099 16.420595,23.288039 C 15.830186,22.320423 15.48965,21.142722 15.48965,19.835785 C 15.48965,18.170713 16.164356,17.230974 17.235172,16.693846 C 18.305989,16.15672 21.222712,16.638998 21.424423,17.547212 C 21.571102,16.666521 24.542857,16.15672 25.613675,16.693846 C 25.691316,16.732782 25.781754,16.761422 25.846411,16.810214 C 25.546222,16.272287 25.040343,15.884422 24.488783,15.607744 C 23.953375,15.33918 22.93173,15.143242 22.045053,15.142272 z"
       id="path3266" />
    <path
       id="path3270"
       d="M 20.498185,15.897494 L 20.540159,16.443157 L 18.987106,16.48513 C 19.441536,16.519502 19.888209,16.612279 20.288308,16.73698 L 20.330281,16.778953 L 20.791998,16.820927 L 21.001875,17.072764 C 21.197398,17.202809 21.374114,17.329867 21.421607,17.492509 C 21.431005,17.455692 21.48661,17.44392 21.505564,17.408562 L 21.463591,16.778953 L 23.35243,16.48513 L 21.379634,16.443157 L 20.498185,15.897494 z"
       style="opacity:0.90983605;fill:url(#radialGradient4923);fill-opacity:1;stroke:none;stroke-width:0.1;stroke-linecap:round;stroke-linejoin:round;stroke-miterlimit:4;stroke-opacity:1" />
    <path
       style="fill:url(#radialGradient4920);fill-opacity:1;stroke:none;stroke-width:0.1;stroke-linecap:round;stroke-linejoin:round;stroke-miterlimit:4;stroke-opacity:1"
       d="M 18.567363,15.183938 C 17.680764,15.188404 16.668275,15.335108 16.132861,15.60367 C 14.594182,16.443548 15.905677,17.617442 17.224198,16.695007 C 18.295015,16.15788 21.219896,16.626267 21.421607,17.534482 C 21.568284,16.653791 24.54821,16.15788 25.619027,16.695007 C 25.67779,16.724482 25.730669,16.746915 25.786931,16.778953 C 25.487419,16.265323 25.021131,15.872234 24.485728,15.60367 C 23.414911,15.066544 20.476946,14.890872 20.330281,15.771574 C 20.229425,15.317456 19.453972,15.179461 18.567363,15.183938 z"
       id="path3272"
       sodipodi:nodetypes="ccccscscc" />
    <path
       style="fill:url(#radialGradient4917);fill-opacity:1;stroke:none;stroke-width:0.1;stroke-linecap:round;stroke-linejoin:round;stroke-miterlimit:4;stroke-opacity:1"
       d="M 8.7015114,16.849004 C 8.3954205,16.866091 8.1178215,16.957646 7.9257241,17.08174 C 7.1573422,17.578115 6.6844644,18.452206 6.6844644,19.990942 C 6.6844644,23.068415 8.1812349,25.460244 10.524612,25.460243 C 12.742609,25.460243 14.353967,23.751058 14.519916,20.960677 C 13.955839,19.703983 13.928048,18.418083 13.976865,17.120529 C 13.96165,17.10942 13.954084,17.092081 13.938076,17.08174 C 13.169685,16.585366 11.017749,17.043652 10.912505,17.857527 C 10.803948,17.228045 9.6197829,16.797742 8.7015114,16.849004 z"
       id="path3286" />
    <path
       style="fill:url(#linearGradient4914);fill-opacity:1;stroke:none;stroke-width:0.1;stroke-linecap:round;stroke-linejoin:round;stroke-miterlimit:4;stroke-opacity:1"
       d="M 8.878026,15.68603 C 8.2418196,15.690161 7.5152892,15.825738 7.1310982,16.073924 C 6.36271,16.570299 5.8961962,17.48318 5.8961975,19.021916 C 5.8961975,20.68888 6.4579991,22.150448 7.3419336,23.172378 C 6.9182743,22.278182 6.6793057,21.199419 6.6793057,19.99165 C 6.6793057,18.452914 7.1458171,17.578822 7.9142003,17.082448 C 8.6825897,16.586074 10.781413,17.018925 10.926157,17.858235 C 11.031401,17.044359 13.169722,16.586074 13.938112,17.082448 C 13.993821,17.118434 14.042313,17.153721 14.08871,17.198816 C 13.873303,16.701708 13.520671,16.3296 13.124884,16.073924 C 12.356494,15.57755 10.248291,15.415206 10.143047,16.229081 C 10.070675,15.809426 9.5142324,15.681899 8.878026,15.68603 z"
       id="path3288" />
    <path
       style="opacity:0.90983605;fill:url(#radialGradient4911);fill-opacity:1;stroke:none;stroke-width:0.1;stroke-linecap:round;stroke-linejoin:round;stroke-miterlimit:4;stroke-opacity:1"
       d="M 10.263526,16.34545 L 10.293645,16.849711 L 9.1792214,16.888501 C 9.505304,16.920258 9.8258234,17.005998 10.112928,17.121237 L 10.143047,17.160026 L 10.474363,17.198816 L 10.62496,17.431552 C 10.765263,17.551719 10.892072,17.669136 10.926157,17.819445 C 10.932898,17.785421 10.972797,17.774543 10.986395,17.741867 L 10.956276,17.160026 L 12.311656,16.888501 L 10.896036,16.849711 L 10.263526,16.34545 z"
       id="path3292" />
    <path
       sodipodi:nodetypes="ccccscscc"
       id="path3294"
       d="M 8.878026,15.68603 C 8.2418196,15.690161 7.5152892,15.825738 7.1310982,16.073924 C 6.0269778,16.850069 6.9680774,17.934894 7.9142003,17.082448 C 8.6825897,16.586074 10.781413,17.018925 10.926157,17.858235 C 11.031401,17.044359 13.169722,16.586074 13.938112,17.082448 C 13.98028,17.109688 14.018216,17.130423 14.058591,17.160026 C 13.843674,16.685372 13.509079,16.322111 13.124884,16.073924 C 12.356494,15.57755 10.248291,15.415206 10.143047,16.229081 C 10.070675,15.809426 9.5142324,15.681899 8.878026,15.68603 z"
       style="fill:url(#radialGradient4908);fill-opacity:1;stroke:none;stroke-width:0.1;stroke-linecap:round;stroke-linejoin:round;stroke-miterlimit:4;stroke-opacity:1" />
    <path
       id="path3657"
       d="M 10.524612,25.460243 C 12.742609,25.460243 14.353967,23.751058 14.519916,20.960677 C 13.955839,19.703983 13.928048,18.418083 13.976865,17.120529 C 13.96165,17.10942 13.954084,17.092081 13.938076,17.08174 C 13.169685,16.585366 11.017749,17.043652 10.912505,17.857527 C 10.912505,17.857527 10.524612,25.460243 10.524612,25.460243 z"
       style="opacity:0.25;fill:url(#radialGradient4905);fill-opacity:1;stroke:none;stroke-width:0.1;stroke-linecap:round;stroke-linejoin:round;stroke-miterlimit:4;stroke-opacity:1"
       sodipodi:nodetypes="cccscs" />
    <path
       id="path3659"
       d="M 20.881372,25.770558 C 24.147072,25.770558 26.467041,23.708983 26.467041,20.378836 C 26.335116,19.254092 26.326317,17.806168 25.846411,16.849004 C 25.774206,16.791283 25.702909,16.738607 25.613675,16.693846 C 24.542857,16.15672 21.571088,16.627732 21.424423,17.508423 C 21.424423,17.508423 20.881372,25.770558 20.881372,25.770558 z"
       style="opacity:0.25;fill:url(#radialGradient4902);fill-opacity:1;stroke:none;stroke-width:0.1;stroke-linecap:round;stroke-linejoin:round;stroke-miterlimit:4;stroke-opacity:1"
       sodipodi:nodetypes="cccscs" />
    <path
       id="path3661"
       d="M 31.587237,23.7923 C 34.605145,23.7923 36.746222,21.904733 36.746223,18.827261 C 36.746223,17.288525 36.960004,15.910172 35.970435,15.413797 C 34.980867,14.917424 32.227038,15.375709 32.091499,16.189585 C 32.091499,16.189585 31.587237,23.7923 31.587237,23.7923 z"
       style="opacity:0.25;fill:url(#radialGradient4899);fill-opacity:1;stroke:none;stroke-width:0.1;stroke-linecap:round;stroke-linejoin:round;stroke-miterlimit:4;stroke-opacity:1"
       sodipodi:nodetypes="csscs" />
    <path
       style="opacity:0.25;fill:url(#radialGradient4896);fill-opacity:1;stroke:none;stroke-width:0.1;stroke-linecap:round;stroke-linejoin:round;stroke-miterlimit:4;stroke-opacity:1"
       d="M 8.7015114,16.849004 C 8.3954205,16.866091 8.1178215,16.957646 7.9257241,17.08174 C 7.1573422,17.578115 6.6844644,18.452206 6.6844644,19.990942 C 6.6844644,23.068415 8.1812349,25.460244 10.524612,25.460243 C 10.524612,25.460243 10.912505,17.857527 10.912505,17.857527 C 10.803948,17.228045 9.6197829,16.797742 8.7015114,16.849004 z"
       id="path3663"
       sodipodi:nodetypes="cssscc" />
    <path
       style="opacity:0.25;fill:url(#radialGradient4893);fill-opacity:1;stroke:none;stroke-width:0.1;stroke-linecap:round;stroke-linejoin:round;stroke-miterlimit:4;stroke-opacity:1"
       d="M 18.321274,16.46111 C 17.89471,16.4796 17.502876,16.559564 17.235172,16.693846 C 16.164356,17.230974 15.489652,18.170712 15.48965,19.835785 C 15.48965,23.165931 17.615684,25.770558 20.881372,25.770558 C 20.881372,25.770558 21.424423,17.508423 21.424423,17.508423 C 21.27314,16.827262 19.600964,16.405642 18.321274,16.46111 z"
       id="path3665"
       sodipodi:nodetypes="cssscc" />
    <path
       style="opacity:0.25;fill:url(#radialGradient4890);fill-opacity:1;stroke:none;stroke-width:0.1;stroke-linecap:round;stroke-linejoin:round;stroke-miterlimit:4;stroke-opacity:1"
       d="M 29.221086,15.181061 C 28.826888,15.198148 28.459954,15.289704 28.212562,15.413797 C 27.387923,15.827443 26.864426,16.51888 26.699777,17.624791 C 26.83354,18.197915 26.812946,18.88445 26.738566,19.564259 C 27.190422,22.019402 28.990796,23.792302 31.587237,23.7923 C 31.587237,23.7923 32.091499,16.189585 32.091499,16.189585 C 31.951695,15.560102 30.403679,15.129801 29.221086,15.181061 z"
       id="path3667"
       sodipodi:nodetypes="csccscc" />
    <path
       style="fill:url(#linearGradient4887);fill-opacity:1;stroke:none;stroke-width:0.1;stroke-linecap:round;stroke-linejoin:round;stroke-miterlimit:4;stroke-opacity:1"
       d="M 35.621331,14.870746 C 35.559524,15.003378 35.536541,15.128083 35.466174,15.25864 C 34.263273,15.054306 32.207847,15.490948 32.091499,16.189585 C 31.951695,15.560102 30.403679,15.129801 29.221086,15.181061 C 28.989494,15.1911 28.794515,15.244487 28.600456,15.297429 C 26.69083,15.414486 26.567746,15.855297 25.730043,16.383531 C 25.712711,16.394461 25.709232,16.411324 25.691254,16.422321 L 25.652464,16.422321 L 25.574885,16.422321 C 25.585872,16.435443 25.60298,16.447445 25.613675,16.46111 C 25.537715,16.505689 25.432302,16.57121 25.342149,16.616268 C 24.117336,16.249381 21.560546,16.691031 21.424423,17.508423 C 21.339897,17.127842 20.769214,16.834469 20.066796,16.655057 C 18.448151,15.917476 15.973382,15.438666 14.869021,16.849004 C 14.846952,16.889919 14.811892,16.922822 14.791442,16.965372 L 14.752652,16.965372 L 13.976865,17.004161 C 13.975342,17.04264 13.978312,17.082055 13.976865,17.120529 C 13.96165,17.10942 13.954084,17.092081 13.938076,17.08174 C 13.181277,16.592855 11.076215,17.027842 10.912505,17.818738 C 10.897012,17.808516 10.889206,17.790103 10.873716,17.779949 C 10.72408,17.322666 10.009329,16.990422 9.2833519,16.887793 C 8.3552136,16.436309 7.4946582,16.191193 6.9172006,16.305953 C 6.9027648,16.308821 6.8925107,16.302615 6.8784112,16.305953 C 6.2796052,16.835122 5.9086759,17.682803 5.9086771,19.021208 C 5.9086771,20.688173 6.4599491,22.14974 7.3438836,23.17167 C 7.9997342,24.555943 9.1009054,25.460244 10.524612,25.460243 C 12.70071,25.460243 14.304151,23.812574 14.519916,21.115834 L 14.869021,21.077045 C 15.219431,21.928694 15.744496,22.681099 16.420595,23.288039 C 17.334588,24.785968 18.897323,25.770559 20.881372,25.770558 C 24.147073,25.770558 26.46704,23.708982 26.467041,20.378836 L 26.54462,20.378836 C 26.81337,20.786882 27.112289,21.177612 27.475564,21.503728 C 28.320206,22.888 29.753722,23.792302 31.587237,23.7923 C 34.605145,23.7923 36.746222,21.904734 36.746223,18.827261 C 36.746223,17.400083 36.928806,16.107069 36.164382,15.530165 C 36.025676,15.281612 35.833255,15.057871 35.621331,14.870746 z"
       id="path3464" />
    <path
       id="path3757"
       d="M 8.7015114,16.849004 C 8.3954205,16.866091 8.1178215,16.957646 7.9257241,17.08174 C 7.1573422,17.578115 6.6844644,18.452206 6.6844644,19.990942 C 6.6844644,23.068415 8.1812349,25.460244 10.524612,25.460243 C 12.742609,25.460243 14.353967,23.751058 14.519916,20.960677 C 13.955839,19.703983 13.928048,18.418083 13.976865,17.120529 C 13.96165,17.10942 13.954084,17.092081 13.938076,17.08174 C 13.169685,16.585366 11.017749,17.043652 10.912505,17.857527 C 10.803948,17.228045 9.6197829,16.797742 8.7015114,16.849004 z"
       style="opacity:0.25;fill:url(#radialGradient4884);fill-opacity:1;stroke:none;stroke-width:0.1;stroke-linecap:round;stroke-linejoin:round;stroke-miterlimit:4;stroke-opacity:1" />
    <path
       id="path3759"
       d="M 18.321274,16.46111 C 17.89471,16.4796 17.502876,16.559564 17.235172,16.693846 C 16.164356,17.230974 15.489652,18.170712 15.48965,19.835785 C 15.48965,23.165931 17.615684,25.770558 20.881372,25.770558 C 24.147072,25.770558 26.467041,23.708983 26.467041,20.378836 C 26.335116,19.254092 26.326317,17.806168 25.846411,16.849004 C 25.774206,16.791283 25.702909,16.738607 25.613675,16.693846 C 24.542857,16.15672 21.571088,16.627732 21.424423,17.508423 C 21.27314,16.827262 19.600964,16.405642 18.321274,16.46111 z"
       style="opacity:0.25;fill:url(#radialGradient4881);fill-opacity:1;stroke:none;stroke-width:0.1;stroke-linecap:round;stroke-linejoin:round;stroke-miterlimit:4;stroke-opacity:1" />
    <path
       id="path3761"
       d="M 29.221086,15.181061 C 28.826888,15.198148 28.459954,15.289704 28.212562,15.413797 C 27.387923,15.827443 26.864426,16.51888 26.699777,17.624791 C 26.83354,18.197915 26.812946,18.88445 26.738566,19.564259 C 27.190422,22.019402 28.990796,23.792302 31.587237,23.7923 C 34.605145,23.7923 36.746222,21.904733 36.746223,18.827261 C 36.746223,17.288525 36.960004,15.910172 35.970435,15.413797 C 34.980867,14.917424 32.227038,15.375709 32.091499,16.189585 C 31.951695,15.560102 30.403679,15.129801 29.221086,15.181061 z"
       style="opacity:0.25;fill:url(#radialGradient4878);fill-opacity:1;stroke:none;stroke-width:0.1;stroke-linecap:round;stroke-linejoin:round;stroke-miterlimit:4;stroke-opacity:1" />
    <path
       style="fill:url(#radialGradient4875);fill-opacity:1;stroke:none;stroke-width:0.1;stroke-linecap:round;stroke-linejoin:round;stroke-miterlimit:4;stroke-opacity:1"
       d="M 7.0335687,18.206632 C 6.8364033,18.670029 6.6844644,19.254548 6.6844644,19.990942 C 6.6844644,23.068415 8.1812349,25.460244 10.524612,25.460243 C 12.742609,25.460243 14.353967,23.751058 14.519916,20.960677 C 14.333338,20.545001 14.217889,20.140848 14.132023,19.719417 C 13.354149,20.296565 12.411117,20.820074 11.455556,21.426149 C 9.7610594,20.744926 7.8705538,19.697185 7.0335687,18.206632 z"
       id="path3783" />
    <path
       style="fill:url(#radialGradient4872);fill-opacity:1;stroke:none;stroke-width:0.1;stroke-linecap:round;stroke-linejoin:round;stroke-miterlimit:4;stroke-opacity:1"
       d="M 16.381806,17.275687 C 15.815825,17.841128 15.489652,18.669866 15.48965,19.835785 C 15.48965,23.165931 17.615684,25.770558 20.881372,25.770558 C 24.147072,25.770558 26.467041,23.708983 26.467041,20.378836 C 26.39666,19.778801 26.324825,19.099779 26.234305,18.439368 C 25.267803,19.716037 23.551903,20.608499 21.773528,21.736464 C 19.552773,20.843668 17.071636,19.38633 16.381806,17.275687 z"
       id="path3785" />
    <path
       style="fill:url(#radialGradient4869);fill-opacity:1;stroke:none;stroke-width:0.1;stroke-linecap:round;stroke-linejoin:round;stroke-miterlimit:4;stroke-opacity:1"
       d="M 36.31954,15.685323 C 36.0643,17.973715 33.775903,19.061555 31.39329,20.572783 C 29.658397,19.875307 27.756015,18.788606 26.777356,17.314476 C 26.752246,17.421544 26.717053,17.508757 26.699777,17.624791 C 26.83354,18.197915 26.812946,18.88445 26.738566,19.564259 C 27.190422,22.019402 28.990796,23.792302 31.587237,23.7923 C 34.605145,23.7923 36.746222,21.904733 36.746223,18.827261 C 36.746223,17.507795 36.898687,16.313944 36.31954,15.685323 z"
       id="path3787" />
    <path
       style="fill:url(#linearGradient4866);fill-opacity:1;stroke:none;stroke-width:0.1;stroke-linecap:round;stroke-linejoin:round;stroke-miterlimit:4;stroke-opacity:1"
       d="M 8.7015114,16.849004 C 8.3954205,16.866091 8.1178215,16.957646 7.9257241,17.08174 C 7.1573422,17.578115 6.6844644,18.452206 6.6844644,19.990942 C 6.6844644,23.068415 8.1812349,25.460244 10.524612,25.460243 C 12.742609,25.460243 14.353967,23.751058 14.519916,20.960677 C 13.955839,19.703983 13.928048,18.418083 13.976865,17.120529 C 13.96165,17.10942 13.954084,17.092081 13.938076,17.08174 C 13.169685,16.585366 11.017749,17.043652 10.912505,17.857527 C 10.803948,17.228045 9.6197829,16.797742 8.7015114,16.849004 z"
       id="path3290" />
    <path
       style="opacity:0.35;fill:url(#radialGradient4863);fill-opacity:1;stroke:none;stroke-width:0.1;stroke-linecap:round;stroke-linejoin:round;stroke-miterlimit:4;stroke-opacity:1"
       d="M 8.7015114,16.849004 C 8.3954205,16.866091 8.1178215,16.957646 7.9257241,17.08174 C 7.5250678,17.340564 7.248391,17.701737 7.0335687,18.206632 C 7.8705538,19.697185 9.7610594,20.744926 11.455556,21.426149 C 12.411117,20.820074 13.354149,20.296565 14.132023,19.719417 C 13.958293,18.866753 13.944195,17.988892 13.976865,17.120529 C 13.96165,17.10942 13.954084,17.092081 13.938076,17.08174 C 13.169685,16.585366 11.017749,17.043652 10.912505,17.857527 C 10.803948,17.228045 9.6197829,16.797742 8.7015114,16.849004 z M 7.0335687,18.206632 C 6.8364033,18.670029 6.6844644,19.254548 6.6844644,19.990942 C 6.6844644,19.254548 6.8364033,18.670029 7.0335687,18.206632 z"
       id="path3990" />
    <path
       style="fill:url(#linearGradient4860);fill-opacity:1;stroke:none;stroke-width:0.1;stroke-linecap:round;stroke-linejoin:round;stroke-miterlimit:4;stroke-opacity:1"
       d="M 18.321274,16.46111 C 17.89471,16.4796 17.502876,16.559564 17.235172,16.693846 C 16.164356,17.230974 15.489652,18.170712 15.48965,19.835785 C 15.48965,23.165931 17.615684,25.770558 20.881372,25.770558 C 24.147072,25.770558 26.467041,23.708983 26.467041,20.378836 C 26.335116,19.254092 26.326317,17.806168 25.846411,16.849004 C 25.774206,16.791283 25.702909,16.738607 25.613675,16.693846 C 24.542857,16.15672 21.571088,16.627732 21.424423,17.508423 C 21.27314,16.827262 19.600964,16.405642 18.321274,16.46111 z"
       id="path3268" />
    <path
       style="opacity:0.35;fill:url(#radialGradient4857);fill-opacity:1;stroke:none;stroke-width:0.1;stroke-linecap:round;stroke-linejoin:round;stroke-miterlimit:4;stroke-opacity:1"
       d="M 18.321274,16.46111 C 17.89471,16.4796 17.502876,16.559564 17.235172,16.693846 C 16.914163,16.854866 16.624113,17.03361 16.381806,17.275687 C 17.071636,19.38633 19.552773,20.843668 21.773528,21.736464 C 23.551903,20.608499 25.267803,19.716037 26.234305,18.439368 C 26.155148,17.861863 26.070293,17.295533 25.846411,16.849004 C 25.774206,16.791283 25.702909,16.738607 25.613675,16.693846 C 24.542857,16.15672 21.571088,16.627732 21.424423,17.508423 C 21.27314,16.827262 19.600964,16.405642 18.321274,16.46111 z M 26.234305,18.439368 C 26.324825,19.099779 26.39666,19.778801 26.467041,20.378836 C 26.39666,19.778801 26.324825,19.099779 26.234305,18.439368 z M 15.683597,18.439368 C 15.625563,18.615637 15.600478,18.818532 15.567229,19.021208 C 15.599926,18.813451 15.625479,18.620377 15.683597,18.439368 z"
       id="path3997" />
    <path
       style="fill:url(#linearGradient4854);fill-opacity:1;stroke:none;stroke-width:0.1;stroke-linecap:round;stroke-linejoin:round;stroke-miterlimit:4;stroke-opacity:1"
       d="M 29.221086,15.181061 C 28.826888,15.198148 28.459954,15.289704 28.212562,15.413797 C 27.387923,15.827443 26.864426,16.51888 26.699777,17.624791 C 26.83354,18.197915 26.812946,18.88445 26.738566,19.564259 C 27.190422,22.019402 28.990796,23.792302 31.587237,23.7923 C 34.605145,23.7923 36.746222,21.904733 36.746223,18.827261 C 36.746223,17.288525 36.960004,15.910172 35.970435,15.413797 C 34.980867,14.917424 32.227038,15.375709 32.091499,16.189585 C 31.951695,15.560102 30.403679,15.129801 29.221086,15.181061 z"
       id="path3348" />
    <path
       style="opacity:0.35;fill:url(#radialGradient4851);fill-opacity:1;stroke:none;stroke-width:0.1;stroke-linecap:round;stroke-linejoin:round;stroke-miterlimit:4;stroke-opacity:1"
       d="M 29.221086,15.181061 C 28.826888,15.198148 28.459954,15.289704 28.212562,15.413797 C 27.474446,15.784043 26.991562,16.401103 26.777356,17.314476 C 27.756015,18.788606 29.658397,19.875307 31.39329,20.572783 C 33.775903,19.061555 36.0643,17.973715 36.31954,15.685323 C 36.223296,15.580858 36.111449,15.48453 35.970435,15.413797 C 34.980867,14.917424 32.227038,15.375709 32.091499,16.189585 C 31.951695,15.560102 30.403679,15.129801 29.221086,15.181061 z M 36.629855,16.267163 C 36.697003,16.488104 36.729085,16.733174 36.746223,17.004161 C 36.729669,16.73579 36.69534,16.486475 36.629855,16.267163 z"
       id="path4004" />
    <path
       style="fill:url(#linearGradient4959);fill-opacity:1;stroke:none;stroke-width:0.1;stroke-linecap:round;stroke-linejoin:round;stroke-miterlimit:4;stroke-opacity:1"
       d="M 26.75,22.1875 C 26.74084,22.327337 26.70479,22.459402 26.6875,22.59375 C 26.700702,22.612431 26.705369,22.637687 26.71875,22.65625 C 26.730017,22.500314 26.749098,22.349296 26.75,22.1875 z"
       id="path2908" />
    <path
       style="fill:url(#linearGradient3977);fill-opacity:1;stroke:none;stroke-width:0.1;stroke-linecap:round;stroke-linejoin:round;stroke-miterlimit:4;stroke-opacity:1"
       d="M 36.40625,20.6875 C 35.589719,22.523307 33.835085,22.938064 32.462008,23.101986 C 31.139305,23.259894 29.526564,23.35452 28.78125,22.90625 C 29.550532,23.452315 30.501743,23.78125 31.59375,23.78125 C 33.931063,23.781251 35.708125,22.627804 36.40625,20.6875 z"
       id="path2906"
       sodipodi:nodetypes="czcsc" />
    <path
       style="opacity:0.75;fill:url(#radialGradient3686);fill-opacity:1;stroke:none;stroke-width:0.1;stroke-linecap:round;stroke-linejoin:round;stroke-miterlimit:4;stroke-opacity:1"
       d="M 26.125,22.40625 C 25.201042,24.177622 23.324937,25.15625 20.9375,25.15625 C 18.933291,25.156249 17.346779,24.392901 16.375,22.90625 C 16.542545,23.298745 16.734979,23.691469 16.96875,24.03125 C 17.943983,25.084446 19.286657,25.78125 20.9375,25.78125 C 21.774504,25.78125 22.522801,25.622779 23.21875,25.375 C 23.227499,25.371657 23.241278,25.378383 23.25,25.375 C 24.616617,24.844872 25.627546,23.805451 26.125,22.40625 z"
       id="path2904" />
    <path
       style="fill:url(#linearGradient3680);fill-opacity:1;stroke:none;stroke-width:0.1;stroke-linecap:round;stroke-linejoin:round;stroke-miterlimit:4;stroke-opacity:1"
       d="M 7.71875,23.875 C 8.3858648,24.857641 9.359561,25.46875 10.53125,25.46875 C 11.751633,25.46875 12.755392,24.930272 13.46875,24 C 12.728071,24.822512 11.790451,24.953408 10.613211,24.953408 C 9.4832613,24.953408 8.4210847,24.747088 7.71875,23.875 z"
       id="path4045"
       sodipodi:nodetypes="cscsc" />
    <path
       id="path4068"
       d="M 8.878026,15.68603 C 8.2418196,15.690161 7.5152892,15.825738 7.1310982,16.073924 C 6.36271,16.570299 5.8961962,17.48318 5.8961975,19.021916 C 5.8961975,20.68888 6.4579991,22.150448 7.3419336,23.172378 C 6.9182743,22.278182 6.6793057,21.199419 6.6793057,19.99165 C 6.6793057,18.452914 7.1458171,17.578822 7.9142003,17.082448 C 8.6825897,16.586074 10.781413,17.018925 10.926157,17.858235 C 11.031401,17.044359 13.169722,16.586074 13.938112,17.082448 C 13.993821,17.118434 14.042313,17.153721 14.08871,17.198816 C 13.873303,16.701708 13.520671,16.3296 13.124884,16.073924 C 12.356494,15.57755 10.248291,15.415206 10.143047,16.229081 C 10.070675,15.809426 9.5142324,15.681899 8.878026,15.68603 z"
       style="opacity:0.5;fill:url(#linearGradient4845);fill-opacity:1;stroke:none;stroke-width:0.1;stroke-linecap:round;stroke-linejoin:round;stroke-miterlimit:4;stroke-opacity:1" />
    <path
       sodipodi:nodetypes="cssscsc"
       id="path4074"
       d="M 36.744077,18.830949 C 36.744077,21.908422 34.599963,23.795673 31.582055,23.795673 C 28.564147,23.795673 26.623503,21.399749 26.623503,18.322276 C 26.623503,16.78354 27.235832,15.902481 28.225399,15.406106 C 29.214968,14.909733 31.904322,15.332147 32.090728,16.171457 C 32.226266,15.357582 34.966488,14.909733 35.956057,15.406106 C 36.945624,15.902481 36.744077,17.292213 36.744077,18.830949 z"
       style="opacity:0.85;fill:url(#radialGradient4842);fill-opacity:1;stroke:none;stroke-width:0.1;stroke-linecap:round;stroke-linejoin:round;stroke-miterlimit:4;stroke-opacity:1" />
    <path
       style="opacity:0.85;fill:url(#linearGradient4839);fill-opacity:1;stroke:none;stroke-width:0.1;stroke-linecap:round;stroke-linejoin:round;stroke-miterlimit:4;stroke-opacity:1"
       d="M 32.673339,13.978591 C 31.85394,13.977692 31.150744,14.153493 31.082975,14.560431 C 30.989772,14.140776 30.273158,14.013249 29.453822,14.01738 C 28.634486,14.021511 27.698822,14.157088 27.204039,14.405274 C 26.42566,14.795715 25.924157,15.453386 25.730043,16.46111 C 26.274509,16.619201 26.566888,17.05541 26.699777,17.624791 C 26.861757,16.520492 27.387923,15.827443 28.212562,15.413797 C 29.202131,14.917424 31.905093,15.350275 32.091499,16.189585 C 32.227038,15.375709 34.980867,14.917424 35.970435,15.413797 C 36.042179,15.449784 36.104629,15.48507 36.164382,15.530165 C 35.886971,15.033058 35.432835,14.66095 34.923123,14.405274 C 34.428338,14.157086 33.492738,13.979489 32.673339,13.978591 z M 26.738566,19.52547 C 26.704707,19.844002 26.668837,20.163207 26.622198,20.456415 C 26.601648,20.425968 27.112289,21.177612 27.475564,21.503728 C 27.118458,20.91847 26.87229,20.253278 26.738566,19.52547 z"
       id="path4076"
       sodipodi:nodetypes="ccssccscscsccscc" />
    <path
       style="opacity:0.85;fill:url(#linearGradient4836);fill-opacity:1;stroke:none;stroke-width:0.1;stroke-linecap:round;stroke-linejoin:round;stroke-miterlimit:4;stroke-opacity:1"
       d="M 29.221086,15.181061 C 28.826888,15.198148 28.459954,15.289704 28.212562,15.413797 C 27.387923,15.827443 26.864426,16.51888 26.699777,17.624791 C 26.83354,18.197915 26.812946,18.88445 26.738566,19.564259 C 27.190422,22.019402 28.990796,23.792302 31.587237,23.7923 C 34.605145,23.7923 36.746222,21.904733 36.746223,18.827261 C 36.746223,17.288525 36.960004,15.910172 35.970435,15.413797 C 34.980867,14.917424 32.227038,15.375709 32.091499,16.189585 C 31.951695,15.560102 30.403679,15.129801 29.221086,15.181061 z"
       id="path4078" />
    <path
       style="opacity:0.77336067;fill:url(#radialGradient4833);fill-opacity:1;stroke:none;stroke-width:0.1;stroke-linecap:round;stroke-linejoin:round;stroke-miterlimit:4;stroke-opacity:1"
       d="M 31.238133,14.676799 L 31.276922,15.181061 L 29.841716,15.21985 C 30.26166,15.251608 30.67444,15.337348 31.044186,15.452587 L 31.082975,15.491376 L 31.509658,15.530165 L 31.703605,15.762902 C 31.884293,15.883069 32.047603,16.000486 32.091499,16.150795 C 32.100182,16.116771 32.151565,16.105893 32.169078,16.073217 L 32.130288,15.491376 L 33.87581,15.21985 L 32.05271,15.181061 L 31.238133,14.676799 z"
       id="path4080" />
    <path
       sodipodi:nodetypes="ccccscscc"
       id="path4082"
       d="M 29.453822,14.01738 C 28.634486,14.021511 27.698822,14.157088 27.204039,14.405274 C 25.7821,15.181419 26.994092,16.266244 28.212562,15.413797 C 29.202131,14.917424 31.905093,15.350275 32.091499,16.189585 C 32.227038,15.375709 34.980867,14.917424 35.970435,15.413797 C 36.024741,15.441038 36.073598,15.461773 36.125593,15.491376 C 35.848814,15.016722 35.417906,14.653461 34.923123,14.405274 C 33.933554,13.9089 31.218514,13.746556 31.082975,14.560431 C 30.989772,14.140776 30.273158,14.013249 29.453822,14.01738 z"
       style="opacity:0.85;fill:url(#radialGradient4830);fill-opacity:1;stroke:none;stroke-width:0.1;stroke-linecap:round;stroke-linejoin:round;stroke-miterlimit:4;stroke-opacity:1" />
    <path
       style="opacity:0.85;fill:url(#radialGradient4827);fill-opacity:1;stroke:none;stroke-width:0.1;stroke-linecap:round;stroke-linejoin:round;stroke-miterlimit:4;stroke-opacity:1"
       d="M 18.321274,16.46111 C 17.89471,16.4796 17.502876,16.559564 17.235172,16.693846 C 16.164356,17.230974 15.489652,18.170712 15.48965,19.835785 C 15.48965,23.165931 17.615684,25.770558 20.881372,25.770558 C 24.147072,25.770558 26.467041,23.708983 26.467041,20.378836 C 26.335116,19.254092 26.326317,17.806168 25.846411,16.849004 C 25.774206,16.791283 25.702909,16.738607 25.613675,16.693846 C 24.542857,16.15672 21.571088,16.627732 21.424423,17.508423 C 21.27314,16.827262 19.600964,16.405642 18.321274,16.46111 z"
       id="path4086" />
    <path
       style="opacity:0.85;fill:url(#linearGradient4824);fill-opacity:1;stroke:none;stroke-width:0.1;stroke-linecap:round;stroke-linejoin:round;stroke-miterlimit:4;stroke-opacity:1"
       d="M 22.045053,15.142272 C 21.158377,15.141301 20.411653,15.32255 20.338321,15.762902 C 20.237465,15.308783 19.44062,15.176584 18.55401,15.181061 C 17.667412,15.185527 16.684483,15.339181 16.14907,15.607744 C 15.554069,15.906205 15.087305,16.349744 14.791442,16.965372 C 14.739213,18.374974 14.730745,19.762695 14.869021,21.077045 C 15.219431,21.928694 15.744496,22.681099 16.420595,23.288039 C 15.830186,22.320423 15.48965,21.142722 15.48965,19.835785 C 15.48965,18.170713 16.164356,17.230974 17.235172,16.693846 C 18.305989,16.15672 21.222712,16.638998 21.424423,17.547212 C 21.571102,16.666521 24.542857,16.15672 25.613675,16.693846 C 25.691316,16.732782 25.781754,16.761422 25.846411,16.810214 C 25.546222,16.272287 25.040343,15.884422 24.488783,15.607744 C 23.953375,15.33918 22.93173,15.143242 22.045053,15.142272 z"
       id="path4088" />
    <path
       style="opacity:0.85;fill:url(#linearGradient4821);fill-opacity:1;stroke:none;stroke-width:0.1;stroke-linecap:round;stroke-linejoin:round;stroke-miterlimit:4;stroke-opacity:1"
       d="M 18.321274,16.46111 C 17.89471,16.4796 17.502876,16.559564 17.235172,16.693846 C 16.164356,17.230974 15.489652,18.170712 15.48965,19.835785 C 15.48965,23.165931 17.615684,25.770558 20.881372,25.770558 C 24.147072,25.770558 26.467041,23.708983 26.467041,20.378836 C 26.335116,19.254092 26.326317,17.806168 25.846411,16.849004 C 25.774206,16.791283 25.702909,16.738607 25.613675,16.693846 C 24.542857,16.15672 21.571088,16.627732 21.424423,17.508423 C 21.27314,16.827262 19.600964,16.405642 18.321274,16.46111 z"
       id="path4090" />
    <path
       id="path4092"
       d="M 20.498185,15.897494 L 20.540159,16.443157 L 18.987106,16.48513 C 19.441536,16.519502 19.888209,16.612279 20.288308,16.73698 L 20.330281,16.778953 L 20.791998,16.820927 L 21.001875,17.072764 C 21.197398,17.202809 21.374114,17.329867 21.421607,17.492509 C 21.431005,17.455692 21.48661,17.44392 21.505564,17.408562 L 21.463591,16.778953 L 23.35243,16.48513 L 21.379634,16.443157 L 20.498185,15.897494 z"
       style="opacity:0.77336067;fill:url(#radialGradient4818);fill-opacity:1;stroke:none;stroke-width:0.1;stroke-linecap:round;stroke-linejoin:round;stroke-miterlimit:4;stroke-opacity:1" />
    <path
       style="opacity:0.85;fill:url(#radialGradient4815);fill-opacity:1;stroke:none;stroke-width:0.1;stroke-linecap:round;stroke-linejoin:round;stroke-miterlimit:4;stroke-opacity:1"
       d="M 18.567363,15.183938 C 17.680764,15.188404 16.668275,15.335108 16.132861,15.60367 C 14.594182,16.443548 15.905677,17.617442 17.224198,16.695007 C 18.295015,16.15788 21.219896,16.626267 21.421607,17.534482 C 21.568284,16.653791 24.54821,16.15788 25.619027,16.695007 C 25.67779,16.724482 25.730669,16.746915 25.786931,16.778953 C 25.487419,16.265323 25.021131,15.872234 24.485728,15.60367 C 23.414911,15.066544 20.476946,14.890872 20.330281,15.771574 C 20.229425,15.317456 19.453972,15.179461 18.567363,15.183938 z"
       id="path4094"
       sodipodi:nodetypes="ccccscscc" />
    <path
       style="opacity:0.85;fill:url(#radialGradient3975);fill-opacity:1;stroke:none;stroke-width:0.1;stroke-linecap:round;stroke-linejoin:round;stroke-miterlimit:4;stroke-opacity:1"
       d="M 8.7015114,16.849004 C 8.3954205,16.866091 8.1178215,16.957646 7.9257241,17.08174 C 7.1573422,17.578115 6.6844644,18.452206 6.6844644,19.990942 C 6.6844644,23.068415 8.1812349,25.460244 10.524612,25.460243 C 12.742609,25.460243 14.353967,23.751058 14.519916,20.960677 C 13.955839,19.703983 13.928048,18.418083 13.976865,17.120529 C 13.96165,17.10942 13.954084,17.092081 13.938076,17.08174 C 13.169685,16.585366 11.017749,17.043652 10.912505,17.857527 C 10.803948,17.228045 9.6197829,16.797742 8.7015114,16.849004 z"
       id="path4098" />
    <path
       style="opacity:0.85;fill:url(#linearGradient4809);fill-opacity:1;stroke:none;stroke-width:0.1;stroke-linecap:round;stroke-linejoin:round;stroke-miterlimit:4;stroke-opacity:1"
       d="M 8.878026,15.68603 C 8.2418196,15.690161 7.5152892,15.825738 7.1310982,16.073924 C 6.36271,16.570299 5.8961962,17.48318 5.8961975,19.021916 C 5.8961975,20.68888 6.4579991,22.150448 7.3419336,23.172378 C 6.9182743,22.278182 6.6793057,21.199419 6.6793057,19.99165 C 6.6793057,18.452914 7.1458171,17.578822 7.9142003,17.082448 C 8.6825897,16.586074 10.781413,17.018925 10.926157,17.858235 C 11.031401,17.044359 13.169722,16.586074 13.938112,17.082448 C 13.993821,17.118434 14.042313,17.153721 14.08871,17.198816 C 13.873303,16.701708 13.520671,16.3296 13.124884,16.073924 C 12.356494,15.57755 10.248291,15.415206 10.143047,16.229081 C 10.070675,15.809426 9.5142324,15.681899 8.878026,15.68603 z"
       id="path4100" />
    <path
       style="opacity:0.85;fill:url(#linearGradient4806);fill-opacity:1;stroke:none;stroke-width:0.1;stroke-linecap:round;stroke-linejoin:round;stroke-miterlimit:4;stroke-opacity:1"
       d="M 8.7015114,16.849004 C 8.3954205,16.866091 8.1178215,16.957646 7.9257241,17.08174 C 7.1573422,17.578115 6.6844644,18.452206 6.6844644,19.990942 C 6.6844644,23.068415 8.1812349,25.460244 10.524612,25.460243 C 12.742609,25.460243 14.353967,23.751058 14.519916,20.960677 C 13.955839,19.703983 13.928048,18.418083 13.976865,17.120529 C 13.96165,17.10942 13.954084,17.092081 13.938076,17.08174 C 13.169685,16.585366 11.017749,17.043652 10.912505,17.857527 C 10.803948,17.228045 9.6197829,16.797742 8.7015114,16.849004 z"
       id="path4102" />
    <path
       style="opacity:0.77336067;fill:url(#radialGradient4803);fill-opacity:1;stroke:none;stroke-width:0.1;stroke-linecap:round;stroke-linejoin:round;stroke-miterlimit:4;stroke-opacity:1"
       d="M 10.263526,16.34545 L 10.293645,16.849711 L 9.1792214,16.888501 C 9.505304,16.920258 9.8258234,17.005998 10.112928,17.121237 L 10.143047,17.160026 L 10.474363,17.198816 L 10.62496,17.431552 C 10.765263,17.551719 10.892072,17.669136 10.926157,17.819445 C 10.932898,17.785421 10.972797,17.774543 10.986395,17.741867 L 10.956276,17.160026 L 12.311656,16.888501 L 10.896036,16.849711 L 10.263526,16.34545 z"
       id="path4104" />
    <path
       sodipodi:nodetypes="ccccscscc"
       id="path4106"
       d="M 8.878026,15.68603 C 8.2418196,15.690161 7.5152892,15.825738 7.1310982,16.073924 C 6.0269778,16.850069 6.9680774,17.934894 7.9142003,17.082448 C 8.6825897,16.586074 10.781413,17.018925 10.926157,17.858235 C 11.031401,17.044359 13.169722,16.586074 13.938112,17.082448 C 13.98028,17.109688 14.018216,17.130423 14.058591,17.160026 C 13.843674,16.685372 13.509079,16.322111 13.124884,16.073924 C 12.356494,15.57755 10.248291,15.415206 10.143047,16.229081 C 10.070675,15.809426 9.5142324,15.681899 8.878026,15.68603 z"
       style="opacity:0.85;fill:url(#radialGradient4800);fill-opacity:1;stroke:none;stroke-width:0.1;stroke-linecap:round;stroke-linejoin:round;stroke-miterlimit:4;stroke-opacity:1" />
    <path
       style="opacity:0.75;fill:url(#linearGradient4797);fill-opacity:1;stroke:none;stroke-width:0.1;stroke-linecap:round;stroke-linejoin:round;stroke-miterlimit:4;stroke-opacity:1"
       d="M 14.791442,16.965372 L 13.976865,17.004161 C 13.921944,18.39131 13.907743,19.775744 14.558706,21.115834 L 14.869021,21.077045 C 14.730745,19.762695 14.739213,18.374974 14.791442,16.965372 z"
       id="rect3403"
       sodipodi:nodetypes="ccccc" />
    <path
       style="opacity:0.75;fill:url(#linearGradient4794);fill-opacity:1;stroke:none;stroke-width:0.1;stroke-linecap:round;stroke-linejoin:round;stroke-miterlimit:4;stroke-opacity:1"
       d="M 25.536096,16.383531 C 26.334783,17.28282 26.302432,19.126018 26.467041,20.456415 C 26.467336,20.42997 26.467041,20.405442 26.467041,20.378836 L 26.54462,20.378836 C 26.564815,20.409499 26.601648,20.425968 26.622198,20.456415 C 26.870943,18.89264 27.090626,16.742041 25.652464,16.422321 L 25.574885,16.422321 C 25.563373,16.40863 25.547936,16.396985 25.536096,16.383531 z"
       id="rect3409"
       sodipodi:nodetypes="cccccccc" />
    <path
       style="opacity:0.75;fill:url(#linearGradient4791);fill-opacity:1;stroke:none;stroke-width:0.1;stroke-linecap:round;stroke-linejoin:round;stroke-miterlimit:4;stroke-opacity:1"
       d="M 25.574885,16.422321 C 26.325571,17.318966 26.313955,19.073689 26.467041,20.378836 L 26.54462,20.378836 C 26.564815,20.409499 26.601648,20.425968 26.622198,20.456415 C 26.870943,18.89264 27.090626,16.742041 25.652464,16.422321 L 25.574885,16.422321 z M 14.791442,16.965372 L 13.976865,17.004161 C 13.921944,18.39131 13.907743,19.775744 14.558706,21.115834 L 14.869021,21.077045 C 14.730745,19.762695 14.739213,18.374974 14.791442,16.965372 z"
       id="path4325" />
    <path
       id="path2901"
       d="M 32.673339,13.978591 C 31.85394,13.977692 31.150744,14.153494 31.082975,14.560431 C 30.989772,14.140776 30.273158,14.013249 29.453822,14.01738 C 28.634486,14.021511 27.698822,14.157088 27.204039,14.405274 C 26.434757,14.791152 25.929815,15.434668 25.730043,16.422321 L 25.574885,16.422321 C 25.2866,16.079503 24.893894,15.810959 24.488783,15.607744 C 23.417965,15.070618 20.484986,14.882199 20.338321,15.762902 C 20.237465,15.308783 19.44062,15.176584 18.55401,15.181061 C 17.667412,15.185527 16.684483,15.339181 16.14907,15.607744 C 15.554069,15.906206 15.087305,16.349744 14.791442,16.965372 L 13.976865,17.004161 C 13.760217,16.607623 13.463278,16.292712 13.123499,16.073217 C 12.355108,15.576843 10.241962,15.414499 10.136718,16.228374 C 10.064346,15.808719 9.5316647,15.681192 8.8954583,15.685323 C 8.2592518,15.689454 7.5341278,15.82503 7.1499368,16.073217 C 6.3815486,16.569591 5.9086759,17.482472 5.9086771,19.021208 C 5.9086771,20.688173 6.4599491,22.14974 7.3438836,23.17167 C 7.9997342,24.555943 9.1009054,25.460244 10.524612,25.460243 C 12.70071,25.460243 14.304151,23.812574 14.519916,21.115834 L 14.869021,21.077045 C 15.219431,21.928694 15.744496,22.681099 16.420595,23.288039 C 17.334588,24.785968 18.897323,25.770559 20.881372,25.770558 C 24.147073,25.770558 26.46704,23.708982 26.467041,20.378836 L 26.54462,20.378836 C 26.81337,20.786882 27.112289,21.177612 27.475564,21.503728 C 28.320206,22.888 29.753722,23.792302 31.587237,23.7923 C 34.605145,23.7923 36.746222,21.904734 36.746223,18.827261 C 36.746223,17.400083 36.928806,16.107069 36.164382,15.530165 C 35.886971,15.033058 35.432835,14.66095 34.923123,14.405274 C 34.428338,14.157086 33.492738,13.979489 32.673339,13.978591 z"
       style="opacity:0.07000002;fill:#ffaa00;fill-opacity:1;stroke:none;stroke-width:0.1;stroke-linecap:round;stroke-linejoin:round;stroke-miterlimit:4;stroke-opacity:1" />
  </g>
</svg>
