<?xml version="1.0" encoding="UTF-8" standalone="no"?>
<!-- Created with Inkscape (http://www.inkscape.org/) -->
<svg
   xmlns:dc="http://purl.org/dc/elements/1.1/"
   xmlns:cc="http://web.resource.org/cc/"
   xmlns:rdf="http://www.w3.org/1999/02/22-rdf-syntax-ns#"
   xmlns:svg="http://www.w3.org/2000/svg"
   xmlns="http://www.w3.org/2000/svg"
   xmlns:xlink="http://www.w3.org/1999/xlink"
   xmlns:sodipodi="http://sodipodi.sourceforge.net/DTD/sodipodi-0.dtd"
   xmlns:inkscape="http://www.inkscape.org/namespaces/inkscape"
   width="40"
   height="40"
   id="svg2193"
   sodipodi:version="0.32"
   inkscape:version="0.45.1"
   version="1.0"
   sodipodi:docbase="/home/jra/Desktop/send-now"
   sodipodi:docname="79.svg"
   inkscape:output_extension="org.inkscape.output.svg.inkscape">
  <defs
     id="defs2195">
    <linearGradient
       id="linearGradient4698">
      <stop
         style="stop-color:#000000;stop-opacity:0;"
         offset="0"
         id="stop4700" />
      <stop
         id="stop4704"
         offset="0.75714284"
         style="stop-color:#000000;stop-opacity:0;" />
      <stop
         style="stop-color:#000000;stop-opacity:1;"
         offset="1"
         id="stop4702" />
    </linearGradient>
    <linearGradient
       id="linearGradient3500">
      <stop
         style="stop-color:#452c14;stop-opacity:1;"
         offset="0"
         id="stop3502" />
      <stop
         style="stop-color:#f57900;stop-opacity:0"
         offset="1"
         id="stop3504" />
    </linearGradient>
    <linearGradient
       id="linearGradient3505">
      <stop
         id="stop3507"
         offset="0"
         style="stop-color:#ffffff;stop-opacity:1;" />
      <stop
         style="stop-color:#211000;stop-opacity:1;"
         offset="0.5"
         id="stop3509" />
      <stop
         id="stop3511"
         offset="1"
         style="stop-color:#ffffff;stop-opacity:1;" />
    </linearGradient>
    <linearGradient
       id="linearGradient3357">
      <stop
         style="stop-color:#ffea88;stop-opacity:1;"
         offset="0"
         id="stop3359" />
      <stop
         style="stop-color:#eeeeec;stop-opacity:0;"
         offset="1"
         id="stop3361" />
    </linearGradient>
    <linearGradient
       id="linearGradient3334">
      <stop
         id="stop3336"
         offset="0"
         style="stop-color:#593000;stop-opacity:0;" />
      <stop
         style="stop-color:#311500;stop-opacity:1;"
         offset="0.69571429"
         id="stop3338" />
      <stop
         id="stop3340"
         offset="1"
         style="stop-color:#381c00;stop-opacity:0;" />
    </linearGradient>
    <linearGradient
       id="linearGradient3304">
      <stop
         style="stop-color:#000000;stop-opacity:0;"
         offset="0"
         id="stop3306" />
      <stop
         id="stop3310"
         offset="0.8142857"
         style="stop-color:#fffd95;stop-opacity:0.74025977;" />
      <stop
         style="stop-color:#5d2700;stop-opacity:1;"
         offset="1"
         id="stop3308" />
    </linearGradient>
    <linearGradient
       inkscape:collect="always"
       id="linearGradient3239">
      <stop
         style="stop-color:#eeeeec;stop-opacity:1;"
         offset="0"
         id="stop3241" />
      <stop
         style="stop-color:#eeeeec;stop-opacity:0;"
         offset="1"
         id="stop3243" />
    </linearGradient>
    <linearGradient
       id="linearGradient3180">
      <stop
         id="stop3182"
         offset="0"
         style="stop-color:#7b3c00;stop-opacity:1;" />
      <stop
         id="stop3184"
         offset="1"
         style="stop-color:#f57900;stop-opacity:0" />
    </linearGradient>
    <linearGradient
       id="linearGradient3291">
      <stop
         id="stop3293"
         offset="0"
         style="stop-color:#000000;stop-opacity:1;" />
      <stop
         id="stop3295"
         offset="1"
         style="stop-color:#000000;stop-opacity:0;" />
    </linearGradient>
    <radialGradient
       inkscape:collect="always"
       xlink:href="#linearGradient3291"
       id="radialGradient2595"
       gradientUnits="userSpaceOnUse"
       gradientTransform="matrix(1,0,0,0.197802,0,92.82166)"
       cx="63.912209"
       cy="115.70919"
       fx="75.857941"
       fy="115.70919"
       r="63.912209" />
    <linearGradient
       id="linearGradient3191">
      <stop
         id="stop3193"
         offset="0"
         style="stop-color:#ffffff;stop-opacity:1" />
      <stop
         id="stop3195"
         offset="1"
         style="stop-color:#eeeeec;stop-opacity:0;" />
    </linearGradient>
    <linearGradient
       id="linearGradient3246"
       inkscape:collect="always">
      <stop
         id="stop3248"
         offset="0"
         style="stop-color:#000000;stop-opacity:1;" />
      <stop
         id="stop3250"
         offset="1"
         style="stop-color:#000000;stop-opacity:0;" />
    </linearGradient>
    <linearGradient
       id="linearGradient3177">
      <stop
         id="stop3179"
         offset="0"
         style="stop-color:#ffffff;stop-opacity:0.5151515;" />
      <stop
         id="stop3181"
         offset="1"
         style="stop-color:#ffffff;stop-opacity:0;" />
    </linearGradient>
    <linearGradient
       inkscape:collect="always"
       xlink:href="#linearGradient3239"
       id="linearGradient3422"
       x1="20.15625"
       y1="26.5625"
       x2="21.84375"
       y2="23.650551"
       gradientUnits="userSpaceOnUse" />
    <radialGradient
       inkscape:collect="always"
       xlink:href="#linearGradient3500"
       id="radialGradient3549"
       gradientUnits="userSpaceOnUse"
       gradientTransform="matrix(1.6297054,1.1014529e-8,-2.3151835e-8,3.425537,-10.518048,-44.379747)"
       cx="16.703125"
       cy="18.296875"
       fx="16.703125"
       fy="18.296875"
       r="7.546875" />
    <radialGradient
       inkscape:collect="always"
       xlink:href="#linearGradient3177"
       id="radialGradient3551"
       gradientUnits="userSpaceOnUse"
       gradientTransform="matrix(-2.0387343e-3,0.9329191,-0.5254632,-1.1483102e-3,13.190404,34.054985)"
       cx="-23.990734"
       cy="-5.7544041"
       fx="-23.990734"
       fy="-5.7544041"
       r="14.609375" />
    <radialGradient
       inkscape:collect="always"
       xlink:href="#linearGradient3304"
       id="radialGradient3553"
       gradientUnits="userSpaceOnUse"
       gradientTransform="matrix(0,0.9480632,-0.5845888,0,19.112252,27.088831)"
       cx="-9.3106842"
       cy="2.5886683"
       fx="-9.3106842"
       fy="2.5886683"
       r="14.609375" />
    <radialGradient
       inkscape:collect="always"
       xlink:href="#linearGradient3357"
       id="radialGradient3555"
       gradientUnits="userSpaceOnUse"
       gradientTransform="matrix(-0.1999496,0.9313755,-0.2715212,-5.8290771e-2,11.613297,28.287185)"
       cx="-13.284406"
       cy="10.95405"
       fx="-13.284406"
       fy="10.95405"
       r="14.609375" />
    <radialGradient
       inkscape:collect="always"
       xlink:href="#linearGradient3191"
       id="radialGradient3557"
       gradientUnits="userSpaceOnUse"
       gradientTransform="matrix(-7.7913874e-2,0.3386911,-8.081671e-2,-1.8591395e-2,11.566019,19.77339)"
       cx="-16.790789"
       cy="14.002168"
       fx="-16.790789"
       fy="14.002168"
       r="14.609375" />
    <linearGradient
       inkscape:collect="always"
       xlink:href="#linearGradient3246"
       id="linearGradient3559"
       gradientUnits="userSpaceOnUse"
       gradientTransform="matrix(0.7881795,0,0,0.7881795,6.33875,6.628505)"
       x1="37.182556"
       y1="26.350586"
       x2="1.4822909"
       y2="14.75959" />
    <linearGradient
       inkscape:collect="always"
       xlink:href="#linearGradient3180"
       id="linearGradient3561"
       gradientUnits="userSpaceOnUse"
       x1="14.402605"
       y1="18.0233"
       x2="9.186657"
       y2="6.3163939" />
    <linearGradient
       inkscape:collect="always"
       xlink:href="#linearGradient3180"
       id="linearGradient3563"
       gradientUnits="userSpaceOnUse"
       x1="9.8378162"
       y1="15.275124"
       x2="12.375"
       y2="15.275124" />
    <radialGradient
       inkscape:collect="always"
       xlink:href="#linearGradient3334"
       id="radialGradient3565"
       gradientUnits="userSpaceOnUse"
       gradientTransform="matrix(-8.4858932e-8,0.7572022,-0.4220769,-4.8586722e-8,18.355361,25.311782)"
       cx="-9.190033"
       cy="0.49344119"
       fx="-9.190033"
       fy="0.49344119"
       r="14.609375" />
    <radialGradient
       inkscape:collect="always"
       xlink:href="#linearGradient3180"
       id="radialGradient3567"
       gradientUnits="userSpaceOnUse"
       gradientTransform="matrix(2.0081714,0.3877906,-0.3138316,1.6251756,-5.0330645,-14.598581)"
       cx="10.5669"
       cy="17.908268"
       fx="10.5669"
       fy="17.908268"
       r="1.828125" />
    <radialGradient
       inkscape:collect="always"
       xlink:href="#linearGradient3291"
       id="radialGradient3569"
       gradientUnits="userSpaceOnUse"
       gradientTransform="matrix(0.296846,6.9988072e-2,-0.3366478,1.427851,13.820093,-9.745715)"
       cx="10.504943"
       cy="19.110477"
       fx="10.504943"
       fy="19.110477"
       r="7.5473003" />
    <linearGradient
       inkscape:collect="always"
       xlink:href="#linearGradient3505"
       id="linearGradient3571"
       gradientUnits="userSpaceOnUse"
       gradientTransform="matrix(0,0.7571722,-0.7571722,0,11.725383,28.329736)"
       x1="-15.872897"
       y1="-11.328125"
       x2="-9.4219007"
       y2="-11.328125" />
    <linearGradient
       inkscape:collect="always"
       xlink:href="#linearGradient3180"
       id="linearGradient3576"
       gradientUnits="userSpaceOnUse"
       gradientTransform="matrix(-6.117236e-2,0.7546971,-0.7546971,-6.117236e-2,10.743791,29.659961)"
       x1="-14.833546"
       y1="-12.965155"
       x2="-12.496126"
       y2="-13.111792" />
    <linearGradient
       inkscape:collect="always"
       xlink:href="#linearGradient3180"
       id="linearGradient3578"
       gradientUnits="userSpaceOnUse"
       gradientTransform="matrix(0,0.7571722,-0.7571722,0,11.725383,28.329736)"
       x1="0.32992998"
       y1="-8.3026781"
       x2="-5.3892217"
       y2="-8.3855782" />
    <radialGradient
       inkscape:collect="always"
       xlink:href="#linearGradient3191"
       id="radialGradient3580"
       gradientUnits="userSpaceOnUse"
       gradientTransform="matrix(0.7224027,0.1482355,-0.5387298,2.6254178,18.75727,-41.743128)"
       cx="23.028278"
       cy="23.197269"
       fx="23.028278"
       fy="23.197269"
       r="3.015625" />
    <linearGradient
       inkscape:collect="always"
       xlink:href="#linearGradient3180"
       id="linearGradient3582"
       gradientUnits="userSpaceOnUse"
       gradientTransform="matrix(0.7881795,0,0,0.7881795,6.33875,6.628505)"
       x1="4.7384958"
       y1="-1.1020806"
       x2="20.620398"
       y2="15.58813" />
    <linearGradient
       inkscape:collect="always"
       xlink:href="#linearGradient3291"
       id="linearGradient3588"
       gradientUnits="userSpaceOnUse"
       x1="17.890625"
       y1="30.23978"
       x2="17.890625"
       y2="24.17099" />
    <radialGradient
       inkscape:collect="always"
       xlink:href="#linearGradient3291"
       id="radialGradient4684"
       gradientUnits="userSpaceOnUse"
       gradientTransform="matrix(4.4373936,0.5554082,-1.2214052,7.8906368,-54.976357,-123.47013)"
       cx="21.549845"
       cy="16.66239"
       fx="21.549845"
       fy="16.66239"
       r="1.46875" />
    <radialGradient
       inkscape:collect="always"
       xlink:href="#linearGradient4698"
       id="radialGradient4696"
       cx="36.732437"
       cy="58.261711"
       fx="36.732437"
       fy="58.261711"
       r="7.5809345"
       gradientTransform="matrix(1,0,0,1.4591625,-20,-66.751591)"
       gradientUnits="userSpaceOnUse" />
    <radialGradient
       inkscape:collect="always"
       xlink:href="#linearGradient3191"
       id="radialGradient2589"
       gradientUnits="userSpaceOnUse"
       gradientTransform="matrix(0.5421772,0.1214493,-0.4043271,2.1510024,25.959476,-28.930849)"
       cx="23.028278"
       cy="23.197269"
       fx="23.028278"
       fy="23.197269"
       r="3.015625" />
    <radialGradient
       inkscape:collect="always"
       xlink:href="#linearGradient3291"
       id="radialGradient2592"
       gradientUnits="userSpaceOnUse"
       gradientTransform="matrix(3.3303498,0.4550454,-0.9166883,6.4647916,-29.37904,-95.889708)"
       cx="21.549845"
       cy="16.66239"
       fx="21.549845"
       fy="16.66239"
       r="1.46875" />
    <linearGradient
       inkscape:collect="always"
       xlink:href="#linearGradient3291"
       id="linearGradient2595"
       gradientUnits="userSpaceOnUse"
       gradientTransform="matrix(0.7505194,0,0,0.8192991,11.881781,5.269258)"
       x1="17.890625"
       y1="30.23978"
       x2="17.890625"
       y2="24.17099" />
    <linearGradient
       inkscape:collect="always"
       xlink:href="#linearGradient3180"
       id="linearGradient2601"
       gradientUnits="userSpaceOnUse"
       gradientTransform="matrix(0.5915439,0,0,0.6457547,16.639135,10.699985)"
       x1="4.7384958"
       y1="-1.1020806"
       x2="20.620398"
       y2="15.58813" />
    <linearGradient
       inkscape:collect="always"
       xlink:href="#linearGradient3180"
       id="linearGradient2604"
       gradientUnits="userSpaceOnUse"
       gradientTransform="matrix(0,0.6203505,-0.5682724,0,20.681908,28.479785)"
       x1="0.32992998"
       y1="-8.3026781"
       x2="-5.3892217"
       y2="-8.3855782" />
    <linearGradient
       inkscape:collect="always"
       xlink:href="#linearGradient3180"
       id="linearGradient2607"
       gradientUnits="userSpaceOnUse"
       gradientTransform="matrix(-4.5911041e-2,0.6183227,-0.5664148,-5.011846e-2,19.945204,29.569637)"
       x1="-14.833546"
       y1="-12.965155"
       x2="-12.496126"
       y2="-13.111792" />
    <linearGradient
       inkscape:collect="always"
       xlink:href="#linearGradient3505"
       id="linearGradient2610"
       gradientUnits="userSpaceOnUse"
       gradientTransform="matrix(0,0.6203505,-0.5682724,0,20.681908,28.479785)"
       x1="-15.872897"
       y1="-11.328125"
       x2="-9.4219007"
       y2="-11.328125" />
    <radialGradient
       inkscape:collect="always"
       xlink:href="#linearGradient3291"
       id="radialGradient2613"
       gradientUnits="userSpaceOnUse"
       gradientTransform="matrix(0.2227886,5.7341164e-2,-0.2526607,1.169837,22.254028,-2.715397)"
       cx="10.504943"
       cy="19.110477"
       fx="10.504943"
       fy="19.110477"
       r="7.5473003" />
    <radialGradient
       inkscape:collect="always"
       xlink:href="#linearGradient3180"
       id="radialGradient2616"
       gradientUnits="userSpaceOnUse"
       gradientTransform="matrix(1.386955,0.2687772,-0.2595924,1.4327859,9.8054803,-7.9879779)"
       cx="10.5669"
       cy="17.908268"
       fx="10.5669"
       fy="17.908268"
       r="1.828125" />
    <radialGradient
       inkscape:collect="always"
       xlink:href="#linearGradient3334"
       id="radialGradient2619"
       gradientUnits="userSpaceOnUse"
       gradientTransform="matrix(-6.3688271e-8,0.620375,-0.316777,-3.9807058e-8,25.657835,26.007178)"
       cx="-9.190033"
       cy="0.49344119"
       fx="-9.190033"
       fy="0.49344119"
       r="14.609375" />
    <linearGradient
       inkscape:collect="always"
       xlink:href="#linearGradient3180"
       id="linearGradient2622"
       gradientUnits="userSpaceOnUse"
       gradientTransform="matrix(0.7505194,0,0,0.8192991,11.881781,5.269258)"
       x1="9.8378162"
       y1="15.275124"
       x2="12.375"
       y2="15.275124" />
    <linearGradient
       inkscape:collect="always"
       xlink:href="#linearGradient3180"
       id="linearGradient2625"
       gradientUnits="userSpaceOnUse"
       gradientTransform="matrix(0.7505194,0,0,0.8192991,11.881781,5.269258)"
       x1="14.402605"
       y1="18.0233"
       x2="9.186657"
       y2="6.3163939" />
    <linearGradient
       inkscape:collect="always"
       xlink:href="#linearGradient3246"
       id="linearGradient2628"
       gradientUnits="userSpaceOnUse"
       gradientTransform="matrix(0.5915439,0,0,0.6457547,16.639135,10.699985)"
       x1="37.182556"
       y1="26.350586"
       x2="1.4822909"
       y2="14.75959" />
    <radialGradient
       inkscape:collect="always"
       xlink:href="#linearGradient3191"
       id="radialGradient2631"
       gradientUnits="userSpaceOnUse"
       gradientTransform="matrix(-5.847587e-2,0.2774893,-6.0654506e-2,-1.5231913e-2,20.562303,21.469578)"
       cx="-16.790789"
       cy="14.002168"
       fx="-16.790789"
       fy="14.002168"
       r="14.609375" />
    <radialGradient
       inkscape:collect="always"
       xlink:href="#linearGradient3357"
       id="radialGradient2634"
       gradientUnits="userSpaceOnUse"
       gradientTransform="matrix(-0.1500661,0.7630751,-0.2037818,-4.7757577e-2,20.597785,28.444923)"
       cx="-13.284406"
       cy="10.95405"
       fx="-13.284406"
       fy="10.95405"
       r="14.609375" />
    <radialGradient
       inkscape:collect="always"
       xlink:href="#linearGradient4698"
       id="radialGradient2637"
       gradientUnits="userSpaceOnUse"
       gradientTransform="matrix(0.7505194,0,0,1.1954905,-3.1286056,-49.420261)"
       cx="36.732437"
       cy="58.261711"
       fx="36.732437"
       fy="58.261711"
       r="7.5809345" />
    <radialGradient
       inkscape:collect="always"
       xlink:href="#linearGradient3304"
       id="radialGradient2640"
       gradientUnits="userSpaceOnUse"
       gradientTransform="matrix(0,0.7767474,-0.4387451,0,26.225896,27.463113)"
       cx="-9.3106842"
       cy="2.5886683"
       fx="-9.3106842"
       fy="2.5886683"
       r="14.609375" />
    <radialGradient
       inkscape:collect="always"
       xlink:href="#linearGradient3177"
       id="radialGradient2643"
       gradientUnits="userSpaceOnUse"
       gradientTransform="matrix(-1.5301095e-3,0.7643397,-0.3943704,-9.4080955e-4,21.781435,33.170477)"
       cx="-23.990734"
       cy="-5.7544041"
       fx="-23.990734"
       fy="-5.7544041"
       r="14.609375" />
    <radialGradient
       inkscape:collect="always"
       xlink:href="#linearGradient3500"
       id="radialGradient2646"
       gradientUnits="userSpaceOnUse"
       gradientTransform="matrix(1.2231255,0,-1.73759e-8,2.8065394,3.9877822,-31.091029)"
       cx="16.703125"
       cy="18.296875"
       fx="16.703125"
       fy="18.296875"
       r="7.546875" />
    <radialGradient
       inkscape:collect="always"
       xlink:href="#linearGradient4698"
       id="radialGradient3624"
       cx="28.278469"
       cy="20.77486"
       fx="28.278469"
       fy="20.77486"
       r="2.49507"
       gradientTransform="matrix(1,0,0,3.1972337,0,-44.452372)"
       gradientUnits="userSpaceOnUse" />
    <radialGradient
       inkscape:collect="always"
       xlink:href="#linearGradient3246"
       id="radialGradient3562"
       cx="30.928581"
       cy="14.818315"
       fx="30.928581"
       fy="14.818315"
       r="7.5473003"
       gradientTransform="matrix(1.4453766,-0.9489368,0.4617961,0.7033864,-40.723935,33.82)"
       gradientUnits="userSpaceOnUse" />
    <radialGradient
       inkscape:collect="always"
       xlink:href="#linearGradient3246"
       id="radialGradient3568"
       cx="17.416973"
       cy="17.20392"
       fx="17.416973"
       fy="17.20392"
       r="5.6643953"
       gradientTransform="matrix(0.5561322,0.2089995,-0.5117152,1.3616368,17.893912,-10.448637)"
       gradientUnits="userSpaceOnUse" />
  </defs>
  <sodipodi:namedview
     id="base"
     pagecolor="#ffffff"
     bordercolor="#666666"
     borderopacity="1.0"
     inkscape:pageopacity="0.0"
     inkscape:pageshadow="2"
     inkscape:zoom="17.3"
     inkscape:cx="20"
     inkscape:cy="20"
     inkscape:current-layer="layer1"
     showgrid="false"
     inkscape:grid-bbox="true"
     inkscape:document-units="px"
     width="40px"
     height="40px"
     gridempspacing="2"
     inkscape:window-width="1167"
     inkscape:window-height="914"
     inkscape:window-x="101"
     inkscape:window-y="46"
     showguides="true" />
  <metadata
     id="metadata2198">
    <rdf:RDF>
      <cc:Work
         rdf:about="">
        <dc:format>image/svg+xml</dc:format>
        <dc:type
           rdf:resource="http://purl.org/dc/dcmitype/StillImage" />
        <dc:creator>
          <cc:Agent>
            <dc:title>Jarle Akselsen</dc:title>
          </cc:Agent>
        </dc:creator>
        <cc:license
           rdf:resource="http://creativecommons.org/licenses/GPL/2.0/" />
      </cc:Work>
      <cc:License
         rdf:about="http://creativecommons.org/licenses/GPL/2.0/">
        <cc:permits
           rdf:resource="http://web.resource.org/cc/Reproduction" />
        <cc:permits
           rdf:resource="http://web.resource.org/cc/Distribution" />
        <cc:requires
           rdf:resource="http://web.resource.org/cc/Notice" />
        <cc:permits
           rdf:resource="http://web.resource.org/cc/DerivativeWorks" />
        <cc:requires
           rdf:resource="http://web.resource.org/cc/ShareAlike" />
        <cc:requires
           rdf:resource="http://web.resource.org/cc/SourceCode" />
      </cc:License>
    </rdf:RDF>
  </metadata>
  <g
     id="layer1"
     inkscape:label="Layer 1"
     inkscape:groupmode="layer">
    <path
       transform="matrix(0.2037762,0,0,0.2986967,12.094466,-4.3380734)"
       d="M 127.82442 115.70919 A 63.912209 12.641975 0 1 1  0,115.70919 A 63.912209 12.641975 0 1 1  127.82442 115.70919 z"
       sodipodi:ry="12.641975"
       sodipodi:rx="63.912209"
       sodipodi:cy="115.70919"
       sodipodi:cx="63.912209"
       id="path2593"
       style="opacity:0.38139535;fill:url(#radialGradient2595);fill-opacity:1;fill-rule:nonzero;stroke:none;stroke-width:0;stroke-linecap:round;stroke-linejoin:round;stroke-miterlimit:4;stroke-dasharray:none;stroke-dashoffset:4;stroke-opacity:1"
       sodipodi:type="arc" />
    <path
       sodipodi:nodetypes="cssssssscccssscc"
       style="fill:#ffa40b;fill-opacity:1;fill-rule:nonzero;stroke:none;stroke-width:1;stroke-linecap:round;stroke-linejoin:round;stroke-miterlimit:4;stroke-dasharray:none;stroke-opacity:1"
       d="M 24.313371,18.273544 C 24.313371,12.859672 22.142284,8.540068 19.439075,7.649468 C 18.214609,7.246054 17.77153,7.199897 17.001927,7.199897 C 16.15,7.199897 15.448635,7.211043 14.389936,7.602145 C 11.583472,8.638902 9.151505,12.780282 9.151502,18.273544 C 9.151504,23.766805 11.629333,28.105765 14.389936,28.921279 C 15.469704,29.240253 16.218409,29.323527 17.001927,29.323527 C 17.624135,29.323527 17.918383,29.298386 19.439075,28.873954 C 22.186874,28.107035 24.313371,23.687417 24.313371,18.273544 z M 20.971915,18.273544 C 20.971915,22.639722 19.069344,26.339386 16.978266,27.572566 C 16.972011,27.568927 16.960847,27.576248 16.954604,27.572566 C 14.863527,26.339386 13.358036,22.639722 13.358036,18.273544 C 13.358037,13.907364 14.863527,10.207698 16.954604,8.974519 C 16.960847,8.970837 16.972011,8.978158 16.978266,8.974519 C 19.069344,10.207698 20.971915,13.907364 20.971915,18.273544 z "
       id="path3506" />
    <path
       sodipodi:nodetypes="csccsccssssssccsssssscssccssscccccccsccsssssssssccsccscsc"
       id="path3508"
       d="M 18.0625,7.28125 C 18.422616,7.348011 18.825267,7.454543 19.4375,7.65625 C 18.825267,7.454543 18.422528,7.343216 18.0625,7.28125 z M 19.4375,7.65625 C 19.944352,7.823237 20.447577,8.107248 20.90625,8.5 C 20.447617,8.107301 19.944352,7.823238 19.4375,7.65625 z M 18.4375,8.03125 C 17.03774,8.03125 15.763169,8.955863 14.78125,10.46875 C 14.617597,10.720898 14.459466,10.965741 14.3125,11.25 C 14.165534,11.534259 14.035076,11.842712 13.90625,12.15625 C 13.881597,12.232202 13.869244,12.264409 13.84375,12.34375 C 13.647596,12.954211 13.403331,13.737491 13.15625,14.59375 C 13.154102,14.603889 13.158381,14.614845 13.15625,14.625 C 13.011315,15.315586 12.911227,16.057125 12.84375,16.8125 L 12.96875,16.8125 C 12.916323,17.213246 12.895388,17.616591 12.875,18.03125 C 12.873525,18.066163 12.876831,18.090739 12.875,18.125 C 12.729597,20.846499 11.456356,21.515701 10.03125,20.21875 C 9.667032,19.887286 9.453936,19.212987 9.34375,18.375 C 9.33889,18.355328 9.348432,18.33249 9.34375,18.3125 C 9.339068,18.29251 9.348254,18.270301 9.34375,18.25 C 9.281255,17.968321 9.216873,17.676706 9.1875,17.34375 C 9.172084,17.646844 9.15625,17.969104 9.15625,18.28125 C 9.156251,23.774511 11.645646,28.090736 14.40625,28.90625 C 14.529344,28.942613 14.635182,28.969538 14.75,29 C 15.210342,28.312956 15.74754,27.773816 16.3125,27.375 C 16.524587,27.562547 16.742241,27.74142 16.96875,27.875 C 16.975191,27.878796 16.993551,27.871247 17,27.875 C 17.492084,28.161266 18.021102,28.3125 18.5625,28.3125 C 19.280473,28.3125 19.969447,28.052437 20.59375,27.5625 C 20.745275,27.685023 20.885128,27.831219 21.03125,27.96875 C 22.805741,26.406857 24.045648,23.185368 24.25,19.34375 C 24.235466,19.053965 24.234842,18.757214 24.21875,18.28125 L 24.125,18.28125 C 24.125,12.599994 21.578357,8.03125 18.4375,8.03125 z M 14.75,29 C 15.191635,29.11717 15.577469,29.203933 15.9375,29.25 C 15.572069,29.201057 15.193162,29.116727 14.75,29 z M 18.5,8.53125 C 21.28081,8.53125 23.537713,12.739326 23.625,17.96875 C 23.626737,18.072818 23.625,18.176396 23.625,18.28125 C 23.625,18.61711 23.611277,18.954192 23.59375,19.28125 C 23.587082,19.405235 23.571793,19.532777 23.5625,19.65625 C 23.558467,19.709858 23.566992,19.759178 23.5625,19.8125 C 23.171756,24.450781 21.058495,28 18.5,28 C 17.975101,28.000002 17.445837,27.840042 16.96875,27.5625 C 14.877673,26.329319 13.34375,22.647428 13.34375,18.28125 C 13.343751,13.915071 14.877673,10.201928 16.96875,8.96875 C 17.445837,8.691208 17.975101,8.53125 18.5,8.53125 z M 22.875,11.28125 C 23.095212,11.748298 23.293979,12.24809 23.46875,12.78125 C 23.297029,12.257322 23.090662,11.741395 22.875,11.28125 z M 9.1875,17.25 C 9.216055,16.739882 9.254016,16.06173 9.1875,17.25 z M 17.875,29.25 C 17.533488,29.306321 17.311104,29.3125 17,29.3125 C 17.311104,29.312499 17.533576,29.309339 17.875,29.25 z "
       style="opacity:1;fill:url(#radialGradient3549);fill-opacity:1;fill-rule:nonzero;stroke:none;stroke-width:1;stroke-linecap:round;stroke-linejoin:round;stroke-miterlimit:4;stroke-dasharray:none;stroke-opacity:1" />
    <path
       id="path3510"
       d="M 24.313371,18.273544 C 24.313371,12.859672 22.142284,8.540068 19.439075,7.649468 C 18.214609,7.246054 17.77153,7.199897 17.001927,7.199897 C 16.15,7.199897 15.457845,7.211043 14.399148,7.602145 C 11.592686,8.638902 9.146266,12.780282 9.146265,18.273544 C 9.146266,23.766805 11.638544,28.105765 14.399148,28.921279 C 15.478917,29.240253 16.218409,29.323527 17.001927,29.323527 C 17.624135,29.323527 17.918383,29.298386 19.439075,28.873954 C 22.186874,28.107035 24.313371,23.687417 24.313371,18.273544 z M 23.627183,18.273544 C 23.627183,23.647303 21.32876,27.998476 18.492611,27.998476 C 17.967712,27.998476 17.455353,27.850108 16.978266,27.572566 C 16.972011,27.568927 16.960847,27.576248 16.954604,27.572566 C 14.863527,26.339386 13.358036,22.639722 13.358036,18.273544 C 13.358037,13.907364 14.863527,10.207698 16.954604,8.974519 C 16.960847,8.970837 16.972011,8.978158 16.978266,8.974519 C 17.455353,8.696978 17.967712,8.524948 18.492611,8.524948 C 21.32876,8.524948 23.627183,12.899784 23.627183,18.273544 z "
       style="fill:url(#radialGradient3551);fill-opacity:1;fill-rule:nonzero;stroke:none;stroke-width:1;stroke-linecap:round;stroke-linejoin:round;stroke-miterlimit:4;stroke-dasharray:none;stroke-opacity:1" />
    <path
       style="opacity:0.5;fill:url(#radialGradient3553);fill-opacity:1;fill-rule:nonzero;stroke:none;stroke-width:1;stroke-linecap:round;stroke-linejoin:round;stroke-miterlimit:4;stroke-dasharray:none;stroke-opacity:1"
       d="M 24.313371,18.273544 C 24.313371,12.859672 22.142284,8.540068 19.439075,7.649468 C 18.214609,7.246054 17.77153,7.199897 17.001927,7.199897 C 16.15,7.199897 15.457845,7.211042 14.399148,7.602145 C 11.592686,8.638902 9.146266,12.780282 9.146265,18.273544 C 9.146266,23.766805 11.638544,28.105765 14.399148,28.921279 C 15.478917,29.240253 16.218409,29.323527 17.001927,29.323527 C 17.624135,29.323527 17.918383,29.298386 19.439075,28.873954 C 22.186874,28.107035 24.313371,23.687417 24.313371,18.273544 z M 23.627183,18.273544 C 23.627183,23.647303 21.32876,27.998476 18.492611,27.998476 C 17.967712,27.998476 17.455353,27.850108 16.978266,27.572566 C 16.972011,27.568927 16.960847,27.576248 16.954604,27.572566 C 14.863527,26.339386 13.358036,22.639722 13.358036,18.273544 C 13.358037,13.907365 14.863527,10.207698 16.954604,8.97452 C 16.960847,8.970837 16.972011,8.978157 16.978266,8.97452 C 17.455353,8.696978 17.967712,8.524948 18.492611,8.524948 C 21.32876,8.524948 23.627183,12.899784 23.627183,18.273544 z "
       id="path3512" />
    <path
       sodipodi:nodetypes="cssssssscccssscc"
       style="opacity:0.2;fill:url(#radialGradient4696);fill-opacity:1;fill-rule:nonzero;stroke:none;stroke-width:1;stroke-linecap:round;stroke-linejoin:round;stroke-miterlimit:4;stroke-dasharray:none;stroke-opacity:1"
       d="M 24.313371,18.273544 C 24.313371,12.859672 22.142284,8.540068 19.439075,7.649468 C 18.214609,7.246054 17.77153,7.199897 17.001927,7.199897 C 16.15,7.199897 15.448635,7.211043 14.389936,7.602145 C 11.583472,8.638902 9.151505,12.780282 9.151502,18.273544 C 9.151504,23.766805 11.629333,28.105765 14.389936,28.921279 C 15.469704,29.240253 16.218409,29.323527 17.001927,29.323527 C 17.624135,29.323527 17.918383,29.298386 19.439075,28.873954 C 22.186874,28.107035 24.313371,23.687417 24.313371,18.273544 z M 20.971915,18.273544 C 20.971915,22.639722 19.069344,26.339386 16.978266,27.572566 C 16.972011,27.568927 16.960847,27.576248 16.954604,27.572566 C 14.863527,26.339386 13.358036,22.639722 13.358036,18.273544 C 13.358037,13.907364 14.863527,10.207698 16.954604,8.974519 C 16.960847,8.970837 16.972011,8.978158 16.978266,8.974519 C 19.069344,10.207698 20.971915,13.907364 20.971915,18.273544 z "
       id="path4686" />
    <path
       id="path3514"
       d="M 16.38804,7.195009 C 15.78207,7.22111 15.186984,7.320403 14.392959,7.613729 C 11.586497,8.650487 9.146641,12.785521 9.146639,18.278785 C 9.14664,22.742058 10.794407,26.439726 12.890493,28.106398 C 12.740017,27.44413 12.639919,26.76199 12.570295,26.086688 C 12.392143,24.358763 12.52244,22.864818 12.890493,21.653177 C 12.690727,20.597882 12.570295,19.465304 12.570295,18.278785 C 12.570295,15.097131 13.340074,12.259118 14.565374,10.44625 C 14.563826,10.43849 14.566819,10.429427 14.565374,10.421619 C 14.344401,9.227387 15.44686,7.914953 17.003804,7.490576 C 17.569291,7.336442 18.097839,7.316997 18.580162,7.416685 C 18.507498,7.394072 18.431949,7.365244 18.358488,7.342793 C 17.856146,7.228496 17.488444,7.195009 17.003804,7.195009 C 16.790822,7.195009 16.590029,7.186309 16.38804,7.195009 z "
       style="fill:url(#radialGradient3555);fill-opacity:1;fill-rule:nonzero;stroke:none;stroke-width:1;stroke-linecap:round;stroke-linejoin:round;stroke-miterlimit:4;stroke-dasharray:none;stroke-opacity:1" />
    <path
       style="fill:url(#radialGradient3557);fill-opacity:1;fill-rule:nonzero;stroke:none;stroke-width:1;stroke-linecap:round;stroke-linejoin:round;stroke-miterlimit:4;stroke-dasharray:none;stroke-opacity:1"
       d="M 24.313371,18.273544 C 24.313371,12.859672 22.142284,8.540068 19.439075,7.649468 C 18.214609,7.246054 17.77153,7.199897 17.001927,7.199897 C 16.15,7.199897 15.457845,7.211042 14.399148,7.602145 C 11.592686,8.638902 9.146266,12.780282 9.146265,18.273544 C 9.146266,23.766805 11.638544,28.105765 14.399148,28.921279 C 15.478917,29.240253 16.218409,29.323527 17.001927,29.323527 C 17.624135,29.323527 17.918383,29.298386 19.439075,28.873954 C 22.186874,28.107035 24.313371,23.687417 24.313371,18.273544 z M 23.627183,18.273544 C 23.627183,23.647303 21.32876,27.998476 18.492611,27.998476 C 17.967712,27.998476 17.455353,27.850108 16.978266,27.572566 C 16.972011,27.568927 16.960847,27.576248 16.954604,27.572566 C 14.863527,26.339386 13.358036,22.639722 13.358036,18.273544 C 13.358037,13.907365 14.863527,10.207698 16.954604,8.97452 C 16.960847,8.970837 16.972011,8.978157 16.978266,8.97452 C 17.455353,8.696978 17.967712,8.524948 18.492611,8.524948 C 21.32876,8.524948 23.627183,12.899784 23.627183,18.273544 z "
       id="path3516" />
    <path
       sodipodi:nodetypes="cssssssscccssscc"
       style="opacity:0.5;fill:url(#linearGradient3559);fill-opacity:1;fill-rule:nonzero;stroke:none;stroke-width:1;stroke-linecap:round;stroke-linejoin:round;stroke-miterlimit:4;stroke-dasharray:none;stroke-opacity:1"
       d="M 24.313371,18.273544 C 24.313371,12.859672 22.142284,8.540068 19.439075,7.649468 C 18.214609,7.246054 17.77153,7.199897 17.001927,7.199897 C 16.15,7.199897 15.448635,7.211042 14.389936,7.602145 C 11.583472,8.638902 9.151505,12.780282 9.151502,18.273544 C 9.151504,23.766805 11.629333,28.105765 14.389936,28.921279 C 15.469704,29.240253 16.218409,29.323527 17.001927,29.323527 C 17.624135,29.323527 17.918383,29.298386 19.439075,28.873954 C 22.186874,28.107035 24.313371,23.687417 24.313371,18.273544 z M 20.971915,18.273544 C 20.971915,22.639722 19.069344,26.339386 16.978266,27.572566 C 16.972011,27.568927 16.960847,27.576248 16.954604,27.572566 C 14.863527,26.339386 13.358036,22.639722 13.358036,18.273544 C 13.358037,13.907365 14.863527,10.207698 16.954604,8.97452 C 16.960847,8.970837 16.972011,8.978157 16.978266,8.97452 C 19.069344,10.207698 20.971915,13.907365 20.971915,18.273544 z "
       id="path3518" />
    <path
       style="opacity:0.75;fill:url(#linearGradient3561);fill-opacity:1;fill-rule:nonzero;stroke:none;stroke-width:1;stroke-linecap:round;stroke-linejoin:miter;stroke-miterlimit:4;stroke-opacity:1"
       d="M 14.71875,7.5 C 14.61178,7.533975 14.521186,7.55129 14.40625,7.59375 C 12.404728,8.333148 10.593703,10.670731 9.71875,13.9375 C 9.716173,13.94706 9.721312,13.959176 9.71875,13.96875 C 9.62478,14.322462 9.539925,14.687706 9.46875,15.0625 C 9.426466,15.279583 9.37772,15.494687 9.34375,15.71875 C 9.340681,15.739572 9.346747,15.760372 9.34375,15.78125 C 9.273361,16.257658 9.216055,16.739882 9.1875,17.25 C 9.189974,17.282115 9.184703,17.31205 9.1875,17.34375 C 9.277471,18.363614 9.518364,19.181056 9.9375,19.5625 C 11.362606,20.85945 12.635847,20.190249 12.78125,17.46875 C 12.783081,17.434488 12.779775,17.409913 12.78125,17.375 C 12.828348,16.417083 12.974993,15.488656 13.15625,14.625 C 13.158381,14.614845 13.154102,14.603889 13.15625,14.59375 C 13.403331,13.737491 13.647596,12.954211 13.84375,12.34375 C 13.869244,12.264409 13.881597,12.232202 13.90625,12.15625 C 14.93686,9.647945 16.571153,8.03125 18.4375,8.03125 C 21.578357,8.03125 24.125,12.599994 24.125,18.28125 L 24.28125,18.28125 C 24.281268,18.270523 24.28125,18.26073 24.28125,18.25 C 24.28125,12.407082 21.600855,7.6875 18.28125,7.6875 C 16.69775,7.6875 15.261924,8.766499 14.1875,10.53125 C 14.182795,10.538978 14.192191,10.554746 14.1875,10.5625 C 13.585544,11.402222 12.875525,12.558629 12.40625,14.125 C 11.738999,16.352186 10.828547,17.483648 10.1875,16.78125 C 9.878987,16.443211 9.773988,15.785569 9.875,14.9375 C 9.900691,14.721805 9.944943,14.490928 10,14.25 C 10.824284,10.809199 12.660975,8.330914 14.71875,7.5 z "
       id="path3520" />
    <path
       id="path3522"
       d="M 10.1875,13.5625 C 10.121561,13.789607 10.056637,14.013582 10,14.25 C 9.944943,14.490928 9.900691,14.721805 9.875,14.9375 C 9.773988,15.785569 9.878987,16.443211 10.1875,16.78125 C 10.821802,17.476257 11.709762,16.368353 12.375,14.1875 C 11.470686,15.747908 10.581889,16.419069 10.21875,15.65625 C 10.022754,15.244537 10.035654,14.47995 10.1875,13.5625 z "
       style="opacity:0.51741297;fill:url(#linearGradient3563);fill-opacity:1;fill-rule:nonzero;stroke:none;stroke-width:1;stroke-linecap:round;stroke-linejoin:miter;stroke-miterlimit:4;stroke-dasharray:none;stroke-opacity:1" />
    <path
       id="path3524"
       d="M 24.313371,18.273544 C 24.313371,12.859672 22.142284,8.540068 19.439075,7.649468 C 18.214609,7.246054 17.77153,7.199897 17.001927,7.199897 C 16.15,7.199897 15.457845,7.211042 14.399148,7.602145 C 11.592686,8.638902 9.146266,12.780282 9.146265,18.273544 C 9.146266,23.766805 11.638544,28.105765 14.399148,28.921279 C 15.478917,29.240253 16.218409,29.323527 17.001927,29.323527 C 17.624135,29.323527 17.918383,29.298386 19.439075,28.873954 C 22.186874,28.107035 24.313371,23.687417 24.313371,18.273544 z M 23.627183,18.273544 C 23.627183,23.647303 21.32876,27.998476 18.492611,27.998476 C 17.967712,27.998476 17.455353,27.850108 16.978266,27.572566 C 16.972011,27.568927 16.960847,27.576248 16.954604,27.572566 C 14.863527,26.339386 13.358036,22.639722 13.358036,18.273544 C 13.358037,13.907365 14.863527,10.207698 16.954604,8.97452 C 16.960847,8.970837 16.972011,8.978157 16.978266,8.97452 C 17.455353,8.696978 17.967712,8.524948 18.492611,8.524948 C 21.32876,8.524948 23.627183,12.899784 23.627183,18.273544 z "
       style="opacity:0.75;fill:url(#radialGradient3565);fill-opacity:1;fill-rule:nonzero;stroke:none;stroke-width:1;stroke-linecap:round;stroke-linejoin:round;stroke-miterlimit:4;stroke-dasharray:none;stroke-opacity:1" />
    <path
       id="path3526"
       d="M 10.1875,13.5625 C 10.121561,13.789607 10.056637,14.013582 10,14.25 C 9.944943,14.490928 9.900691,14.721805 9.875,14.9375 C 9.773988,15.785569 9.878987,16.443211 10.1875,16.78125 C 10.821802,17.476257 11.709762,16.368353 12.375,14.1875 C 11.470686,15.747908 10.581889,16.419069 10.21875,15.65625 C 10.022754,15.244537 10.035654,14.47995 10.1875,13.5625 z M 12.84375,16.8125 C 12.826839,17.001807 12.790688,17.183041 12.78125,17.375 C 12.779775,17.409913 12.783081,17.434488 12.78125,17.46875 C 12.635847,20.190249 11.362606,20.85945 9.9375,19.5625 C 9.634243,19.286514 9.439487,18.769001 9.3125,18.125 C 9.411287,19.082325 9.630617,19.854145 10.03125,20.21875 C 11.456356,21.515701 12.729597,20.846499 12.875,18.125 C 12.876831,18.090739 12.873525,18.066163 12.875,18.03125 C 12.895388,17.616591 12.916323,17.213246 12.96875,16.8125 L 12.84375,16.8125 z "
       style="opacity:0.75;fill:url(#radialGradient3567);fill-opacity:1;fill-rule:nonzero;stroke:none;stroke-width:1;stroke-linecap:round;stroke-linejoin:miter;stroke-miterlimit:4;stroke-dasharray:none;stroke-opacity:1" />
    <path
       id="path3528"
       d="M 14.71875,7.5 C 14.61178,7.533975 14.521186,7.55129 14.40625,7.59375 C 12.404728,8.333148 10.593703,10.670731 9.71875,13.9375 C 9.716173,13.94706 9.721312,13.959176 9.71875,13.96875 C 9.62478,14.322462 9.539925,14.687706 9.46875,15.0625 C 9.426466,15.279583 9.37772,15.494687 9.34375,15.71875 C 9.340681,15.739572 9.346747,15.760372 9.34375,15.78125 C 9.273361,16.257658 9.216055,16.739882 9.1875,17.25 C 9.189974,17.282115 9.184703,17.31205 9.1875,17.34375 C 9.277471,18.363614 9.518364,19.181056 9.9375,19.5625 C 11.362606,20.85945 12.635847,20.190249 12.78125,17.46875 C 12.783081,17.434488 12.779775,17.409913 12.78125,17.375 C 12.828348,16.417083 12.974993,15.488656 13.15625,14.625 C 13.158381,14.614845 13.154102,14.603889 13.15625,14.59375 C 13.403331,13.737491 13.647596,12.954211 13.84375,12.34375 C 13.869244,12.264409 13.881597,12.232202 13.90625,12.15625 C 14.93686,9.647945 16.571153,8.03125 18.4375,8.03125 C 21.578357,8.03125 24.125,12.599994 24.125,18.28125 L 24.28125,18.28125 C 24.281268,18.270523 24.28125,18.26073 24.28125,18.25 C 24.28125,12.407082 21.600855,7.6875 18.28125,7.6875 C 16.69775,7.6875 15.261924,8.766499 14.1875,10.53125 C 14.182795,10.538978 14.192191,10.554746 14.1875,10.5625 C 13.585544,11.402222 12.875525,12.558629 12.40625,14.125 C 11.738999,16.352186 10.828547,17.483648 10.1875,16.78125 C 9.878987,16.443211 9.773988,15.785569 9.875,14.9375 C 9.900691,14.721805 9.944943,14.490928 10,14.25 C 10.824284,10.809199 12.660975,8.330914 14.71875,7.5 z "
       style="opacity:0.4;fill:url(#radialGradient3569);fill-opacity:1;fill-rule:nonzero;stroke:none;stroke-width:1;stroke-linecap:round;stroke-linejoin:miter;stroke-miterlimit:4;stroke-opacity:1" />
    <path
       id="path3530"
       d="M 23.627183,18.273544 C 23.627183,12.899784 21.32876,8.524948 18.492611,8.524948 C 17.967712,8.524948 17.455353,8.696978 16.978266,8.974519 C 19.069344,10.207698 20.971915,13.907364 20.971915,18.273544 C 20.971915,22.639722 19.069344,26.339386 16.978266,27.572566 C 17.455353,27.850108 17.967712,27.998476 18.492611,27.998476 C 21.32876,27.998476 23.627183,23.647303 23.627183,18.273544 z "
       style="opacity:0.4;fill:url(#linearGradient3571);fill-opacity:1;fill-rule:nonzero;stroke:none;stroke-width:1;stroke-linecap:round;stroke-linejoin:round;stroke-miterlimit:4;stroke-dasharray:none;stroke-opacity:1"
       sodipodi:nodetypes="cscscsc" />
    <path
       id="path3535"
       d="M 20.875,19.75 C 20.852826,19.97343 20.812867,20.188066 20.78125,20.40625 C 20.735948,20.718867 20.719638,21.043268 20.65625,21.34375 C 21.247066,20.32073 22.009437,19.866141 22.5625,20.28125 C 22.986456,20.599454 23.173828,21.378499 23.15625,22.3125 C 23.176708,22.227788 23.199549,22.148499 23.21875,22.0625 C 23.23682,21.981565 23.264313,21.894539 23.28125,21.8125 C 23.293311,21.729189 23.301565,21.646528 23.3125,21.5625 C 23.353786,21.245252 23.379566,20.922957 23.40625,20.59375 C 23.427455,20.332142 23.428359,20.070045 23.4375,19.8125 L 20.875,19.75 z "
       style="opacity:0.65;fill:url(#linearGradient3576);fill-opacity:1;fill-rule:nonzero;stroke:none;stroke-width:1;stroke-linecap:round;stroke-linejoin:round;stroke-miterlimit:4;stroke-dasharray:none;stroke-opacity:1" />
    <path
       id="path3537"
       d="M 17.65625,27.0625 C 17.432337,27.256298 17.199562,27.426382 16.96875,27.5625 C 17.445837,27.840043 17.975101,28 18.5,28 C 19.285006,28 20.02222,27.658608 20.6875,27.0625 L 17.65625,27.0625 z "
       style="opacity:0.5;fill:url(#linearGradient3578);fill-opacity:1.0;fill-rule:nonzero;stroke:none;stroke-width:1;stroke-linecap:round;stroke-linejoin:round;stroke-miterlimit:4;stroke-dasharray:none;stroke-opacity:1" />
    <path
       id="path3541"
       d="M 17,7.1875 C 16.245193,7.187499 15.590421,7.22599 14.71875,7.5 C 12.802365,8.273822 11.081234,10.484309 10.1875,13.5625 C 10.035654,14.47995 10.022754,15.244537 10.21875,15.65625 C 10.348572,15.928958 10.540372,16.006446 10.78125,15.9375 C 10.610937,14.902768 11.030885,13.136153 11.90625,11.5625 C 12.977285,9.637089 14.290437,8.723762 14.84375,9.53125 C 14.855618,9.54857 14.864024,9.575149 14.875,9.59375 C 15.845637,8.405116 17.009258,7.6875 18.28125,7.6875 C 21.600855,7.6875 24.28125,12.407082 24.28125,18.25 C 24.28125,18.26073 24.281268,18.270523 24.28125,18.28125 L 24.21875,18.28125 C 24.264209,19.625835 24.3125,20.908693 24.3125,18.28125 C 24.312499,12.867378 22.140709,8.54685 19.4375,7.65625 C 18.213034,7.252837 17.769603,7.1875 17,7.1875 z M 24.21875,18.28125 C 24.17054,16.855303 24.125,15.357202 24.125,18.28125 L 24.21875,18.28125 z M 13.53125,8.03125 C 13.371837,8.128935 13.217424,8.226148 13.0625,8.34375 C 13.213365,8.228553 13.376113,8.1274 13.53125,8.03125 z M 12.84375,8.53125 C 12.65485,8.689122 12.461153,8.875794 12.28125,9.0625 C 12.468413,8.865716 12.646786,8.696532 12.84375,8.53125 z M 9.34375,15.78125 C 9.274763,16.262981 9.273361,16.257658 9.34375,15.78125 z "
       style="opacity:0.5;fill:url(#linearGradient3582);fill-opacity:1;fill-rule:nonzero;stroke:none;stroke-width:1;stroke-linecap:round;stroke-linejoin:round;stroke-miterlimit:4;stroke-dasharray:none;stroke-opacity:1" />
    <path
       id="path3547"
       d="M 16.3125,27.375 C 15.74754,27.773816 15.210342,28.312956 14.75,29 C 15.636325,29.233454 16.309772,29.3125 17,29.3125 C 17.622209,29.312501 17.916808,29.299432 19.4375,28.875 C 19.995865,28.719159 20.536825,28.40394 21.03125,27.96875 C 20.885128,27.831219 20.745275,27.685023 20.59375,27.5625 C 19.969447,28.052437 19.280473,28.3125 18.5625,28.3125 C 18.021102,28.3125 17.492084,28.161266 17,27.875 C 16.993551,27.871247 16.975191,27.878796 16.96875,27.875 C 16.742241,27.74142 16.524587,27.562547 16.3125,27.375 z "
       style="opacity:0.4;fill:url(#linearGradient3588);fill-opacity:1;fill-rule:nonzero;stroke:none;stroke-width:1;stroke-linecap:round;stroke-linejoin:round;stroke-miterlimit:4;stroke-dasharray:none;stroke-opacity:1" />
    <path
       style="opacity:0.3;fill:url(#radialGradient4684);fill-opacity:1;fill-rule:nonzero;stroke:none;stroke-width:1;stroke-linecap:round;stroke-linejoin:round;stroke-miterlimit:4;stroke-dasharray:none;stroke-opacity:1"
       d="M 20.9375,17.78125 C 20.943034,17.947151 20.96875,18.113274 20.96875,18.28125 C 20.96875,18.537797 20.955536,18.782547 20.9375,19.03125 C 20.920166,19.270278 20.898476,19.513457 20.875,19.75 C 20.504738,23.448417 18.816798,26.472643 16.96875,27.5625 C 17.445837,27.840043 17.975101,28 18.5,28 C 18.799777,28 19.089318,27.937043 19.375,27.84375 C 19.202372,27.876931 19.021009,27.875 18.84375,27.875 C 18.318851,27.875 17.789587,27.746292 17.3125,27.46875 C 19.141083,26.390373 20.796079,23.401129 21.1875,19.75 L 23.5625,19.8125 C 23.604904,19.309143 23.625,18.807332 23.625,18.28125 C 23.625,18.176396 23.626737,18.072818 23.625,17.96875 L 20.9375,17.78125 z "
       id="path4677" />
    <path
       sodipodi:nodetypes="cscssscc"
       id="path3539"
       d="M 23.3125,21.09886 C 23.396314,20.654101 23.353786,20.781612 23.3125,21.09886 z M 23.09375,20.94261 C 22.38176,24.708723 20.482605,27.41136 18.25,27.41136 C 17.987551,27.41136 17.753338,27.389395 17.5,27.31761 C 17.824345,27.43771 18.158816,27.53636 18.5,27.53636 C 20.575441,27.53636 22.348582,25.20125 23.15625,21.84886 C 23.162485,21.517542 23.140506,21.221277 23.09375,20.94261 z "
       style="opacity:1;fill:url(#radialGradient3580);fill-opacity:1;fill-rule:nonzero;stroke:none;stroke-width:1;stroke-linecap:round;stroke-linejoin:round;stroke-miterlimit:4;stroke-dasharray:none;stroke-opacity:1" />
    <path
       style="opacity:0.52427183;color:#000000;fill:url(#linearGradient3422);fill-opacity:1;fill-rule:evenodd;stroke:none;stroke-width:1px;stroke-linecap:butt;stroke-linejoin:miter;marker:none;marker-start:none;marker-mid:none;marker-end:none;stroke-miterlimit:4;stroke-dasharray:none;stroke-dashoffset:0;stroke-opacity:1;visibility:visible;display:inline;overflow:visible;enable-background:accumulate"
       d="M 19.0625,25.375 C 18.865601,25.689158 18.683802,25.985339 18.46875,26.25 L 21.15625,26.5625 C 21.400473,26.280452 21.628599,25.977913 21.84375,25.625 L 19.0625,25.375 z "
       id="path3411" />
    <path
       id="path4706"
       d="M 30.129437,20.240756 C 30.129437,15.805176 28.499993,12.266128 26.471182,11.53646 C 25.552198,11.205944 25.219659,11.168127 24.642057,11.168127 C 24.002669,11.168127 23.476281,11.177259 22.681706,11.497689 C 20.575402,12.347102 18.750163,15.740132 18.750161,20.240756 C 18.750162,24.741379 20.60982,28.296285 22.681706,28.964435 C 23.492094,29.225771 24.054011,29.293997 24.642057,29.293997 C 25.109035,29.293997 25.329875,29.273399 26.471182,28.925662 C 28.53346,28.297327 30.129437,24.676337 30.129437,20.240756 z M 27.62161,20.240756 C 27.62161,23.817962 26.193693,26.849093 24.624299,27.859436 C 24.619604,27.856455 24.611224,27.862452 24.60654,27.859436 C 23.037145,26.849093 21.907246,23.817962 21.907246,20.240756 C 21.907246,16.663548 23.037145,13.632416 24.60654,12.622073 C 24.611224,12.619057 24.619604,12.625054 24.624299,12.622073 C 26.193693,13.632416 27.62161,16.663548 27.62161,20.240756 z "
       style="fill:#ffa40b;fill-opacity:1;fill-rule:nonzero;stroke:none;stroke-width:1;stroke-linecap:round;stroke-linejoin:round;stroke-miterlimit:4;stroke-dasharray:none;stroke-opacity:1"
       sodipodi:nodetypes="cssssssscccssscc" />
    <path
       style="fill:url(#radialGradient2646);fill-opacity:1;fill-rule:nonzero;stroke:none;stroke-width:1;stroke-linecap:round;stroke-linejoin:round;stroke-miterlimit:4;stroke-dasharray:none;stroke-opacity:1"
       d="M 25.438038,11.23478 C 25.708311,11.289477 26.010508,11.376758 26.470002,11.542016 C 26.010508,11.376758 25.708245,11.285548 25.438038,11.23478 z M 26.470002,11.542016 C 26.850403,11.678829 27.228084,11.911518 27.572326,12.2333 C 27.228113,11.911563 26.850403,11.67883 26.470002,11.542016 z M 25.719481,11.849254 C 24.668934,11.849254 23.712344,12.606789 22.975395,13.846296 C 22.85257,14.05288 22.73389,14.253479 22.62359,14.486372 C 22.513288,14.719265 22.415377,14.971981 22.318691,15.228862 C 22.300188,15.29109 22.290917,15.317477 22.271784,15.382481 C 22.124566,15.882631 21.941241,16.524371 21.755801,17.225904 C 21.75419,17.234211 21.757401,17.243187 21.755801,17.251507 C 21.647024,17.817304 21.571906,18.424845 21.521264,19.043724 L 21.615079,19.043724 C 21.575731,19.372054 21.560019,19.702515 21.544719,20.042244 C 21.543611,20.070849 21.546092,20.090983 21.544719,20.119054 C 21.43559,22.348775 20.479999,22.897053 19.410429,21.834462 C 19.137076,21.562894 18.977143,21.010441 18.894447,20.323878 C 18.890799,20.307762 18.897961,20.28905 18.894447,20.272672 C 18.890933,20.256294 18.897827,20.238099 18.894447,20.221466 C 18.847542,19.990687 18.799223,19.751767 18.777178,19.478976 C 18.765607,19.727302 18.753724,19.991328 18.753724,20.24707 C 18.753724,24.747693 20.622063,28.283972 22.69395,28.952122 C 22.786335,28.981915 22.865768,29.003974 22.951942,29.028932 C 23.297436,28.466037 23.700614,28.02432 24.124628,27.69757 C 24.283804,27.851227 24.447158,27.997778 24.617156,28.10722 C 24.621991,28.11033 24.635771,28.104145 24.64061,28.10722 C 25.009929,28.341758 25.406967,28.465664 25.813296,28.465664 C 26.352149,28.465664 26.869237,28.252595 27.337789,27.85119 C 27.451512,27.951573 27.556474,28.071351 27.666142,28.18403 C 28.997932,26.904371 29.928505,24.265008 30.081875,21.117574 C 30.070967,20.880155 30.0705,20.637026 30.058422,20.24707 L 29.988061,20.24707 C 29.988061,15.592422 28.076755,11.849254 25.719481,11.849254 z M 22.951942,29.028932 C 23.283397,29.124928 23.572973,29.196013 23.843183,29.233756 C 23.56892,29.193657 23.284544,29.124566 22.951942,29.028932 z M 25.766389,12.258904 C 27.853441,12.258904 29.547291,15.706576 29.6128,19.991038 C 29.614104,20.076302 29.6128,20.161162 29.6128,20.24707 C 29.6128,20.52224 29.602501,20.79841 29.589348,21.066368 C 29.584342,21.167949 29.572868,21.272445 29.565893,21.373606 C 29.562867,21.417526 29.569264,21.457934 29.565893,21.501622 C 29.272632,25.301761 27.686589,28.209632 25.766389,28.209632 C 25.372442,28.209634 24.975219,28.078579 24.617156,27.85119 C 23.047762,26.840845 21.896524,23.824276 21.896524,20.24707 C 21.896525,16.669863 23.047762,13.627688 24.617156,12.617346 C 24.975219,12.389956 25.372442,12.258904 25.766389,12.258904 z M 29.049911,14.511976 C 29.215185,14.894628 29.364363,15.304106 29.495532,15.740924 C 29.366653,15.31167 29.21177,14.888972 29.049911,14.511976 z M 18.777178,19.402168 C 18.798609,18.984228 18.827099,18.428618 18.777178,19.402168 z M 25.297314,29.233756 C 25.041003,29.279901 24.8741,29.284962 24.64061,29.284962 C 24.8741,29.284961 25.041069,29.282373 25.297314,29.233756 z "
       id="path4708"
       sodipodi:nodetypes="csccsccssssssccsssssscssccssscccccccsccsssssssssccsccscsc" />
    <path
       style="fill:url(#radialGradient2643);fill-opacity:1;fill-rule:nonzero;stroke:none;stroke-width:1;stroke-linecap:round;stroke-linejoin:round;stroke-miterlimit:4;stroke-dasharray:none;stroke-opacity:1"
       d="M 30.129437,20.240756 C 30.129437,15.805176 28.499993,12.266128 26.471182,11.53646 C 25.552198,11.205944 25.219659,11.168127 24.642057,11.168127 C 24.002669,11.168127 23.483192,11.177259 22.68862,11.497689 C 20.582316,12.347102 18.746231,15.740132 18.74623,20.240756 C 18.746231,24.741379 20.616734,28.296285 22.68862,28.964435 C 23.499008,29.225771 24.054011,29.293997 24.642057,29.293997 C 25.109035,29.293997 25.329875,29.273399 26.471182,28.925662 C 28.53346,28.297327 30.129437,24.676337 30.129437,20.240756 z M 29.614439,20.240756 C 29.614439,24.643471 27.889428,28.208384 25.760844,28.208384 C 25.366897,28.208384 24.982362,28.086826 24.624299,27.859436 C 24.619604,27.856455 24.611224,27.862452 24.60654,27.859436 C 23.037145,26.849093 21.907246,23.817962 21.907246,20.240756 C 21.907246,16.663548 23.037145,13.632416 24.60654,12.622073 C 24.611224,12.619057 24.619604,12.625054 24.624299,12.622073 C 24.982362,12.394684 25.366897,12.25374 25.760844,12.25374 C 27.889428,12.25374 29.614439,15.83804 29.614439,20.240756 z "
       id="path4710" />
    <path
       id="path4712"
       d="M 30.129437,20.240756 C 30.129437,15.805176 28.499993,12.266128 26.471182,11.53646 C 25.552198,11.205944 25.219659,11.168127 24.642057,11.168127 C 24.002669,11.168127 23.483192,11.177258 22.68862,11.497689 C 20.582316,12.347102 18.746231,15.740132 18.74623,20.240756 C 18.746231,24.741379 20.616734,28.296285 22.68862,28.964435 C 23.499008,29.225771 24.054011,29.293997 24.642057,29.293997 C 25.109035,29.293997 25.329875,29.273399 26.471182,28.925662 C 28.53346,28.297327 30.129437,24.676337 30.129437,20.240756 z M 29.614439,20.240756 C 29.614439,24.643471 27.889428,28.208384 25.760844,28.208384 C 25.366897,28.208384 24.982362,28.086826 24.624299,27.859436 C 24.619604,27.856455 24.611224,27.862452 24.60654,27.859436 C 23.037145,26.849093 21.907246,23.817962 21.907246,20.240756 C 21.907246,16.663549 23.037145,13.632416 24.60654,12.622074 C 24.611224,12.619057 24.619604,12.625053 24.624299,12.622074 C 24.982362,12.394684 25.366897,12.25374 25.760844,12.25374 C 27.889428,12.25374 29.614439,15.83804 29.614439,20.240756 z "
       style="opacity:0.5;fill:url(#radialGradient2640);fill-opacity:1;fill-rule:nonzero;stroke:none;stroke-width:1;stroke-linecap:round;stroke-linejoin:round;stroke-miterlimit:4;stroke-dasharray:none;stroke-opacity:1" />
    <path
       id="path4714"
       d="M 30.129437,20.240756 C 30.129437,15.805176 28.499993,12.266128 26.471182,11.53646 C 25.552198,11.205944 25.219659,11.168127 24.642057,11.168127 C 24.002669,11.168127 23.476281,11.177259 22.681706,11.497689 C 20.575402,12.347102 18.750163,15.740132 18.750161,20.240756 C 18.750162,24.741379 20.60982,28.296285 22.681706,28.964435 C 23.492094,29.225771 24.054011,29.293997 24.642057,29.293997 C 25.109035,29.293997 25.329875,29.273399 26.471182,28.925662 C 28.53346,28.297327 30.129437,24.676337 30.129437,20.240756 z M 27.62161,20.240756 C 27.62161,23.817962 26.193693,26.849093 24.624299,27.859436 C 24.619604,27.856455 24.611224,27.862452 24.60654,27.859436 C 23.037145,26.849093 21.907246,23.817962 21.907246,20.240756 C 21.907246,16.663548 23.037145,13.632416 24.60654,12.622073 C 24.611224,12.619057 24.619604,12.625054 24.624299,12.622073 C 26.193693,13.632416 27.62161,16.663548 27.62161,20.240756 z "
       style="opacity:0.2;fill:url(#radialGradient2637);fill-opacity:1;fill-rule:nonzero;stroke:none;stroke-width:1;stroke-linecap:round;stroke-linejoin:round;stroke-miterlimit:4;stroke-dasharray:none;stroke-opacity:1"
       sodipodi:nodetypes="cssssssscccssscc" />
    <path
       style="fill:url(#radialGradient2634);fill-opacity:1;fill-rule:nonzero;stroke:none;stroke-width:1;stroke-linecap:round;stroke-linejoin:round;stroke-miterlimit:4;stroke-dasharray:none;stroke-opacity:1"
       d="M 24.181323,11.164123 C 23.72653,11.185506 23.279907,11.266857 22.683975,11.507179 C 20.577671,12.356594 18.746512,15.744423 18.74651,20.245049 C 18.746511,23.901806 19.983192,26.931302 21.556346,28.296804 C 21.44341,27.754208 21.368284,27.195332 21.316031,26.642058 C 21.182324,25.226371 21.280115,24.002382 21.556346,23.009687 C 21.406418,22.145084 21.316031,21.217164 21.316031,20.245049 C 21.316031,17.638323 21.893765,15.313142 22.813376,13.827861 C 22.812214,13.821504 22.814461,13.814077 22.813376,13.807681 C 22.647532,12.829247 23.474949,11.753971 24.643465,11.40628 C 25.067874,11.279998 25.46456,11.264067 25.826553,11.345741 C 25.772017,11.327214 25.715316,11.303596 25.660182,11.285201 C 25.283165,11.191558 25.007197,11.164123 24.643465,11.164123 C 24.483617,11.164123 24.332919,11.156995 24.181323,11.164123 z "
       id="path4716" />
    <path
       id="path4718"
       d="M 30.129437,20.240756 C 30.129437,15.805176 28.499993,12.266128 26.471182,11.53646 C 25.552198,11.205944 25.219659,11.168127 24.642057,11.168127 C 24.002669,11.168127 23.483192,11.177258 22.68862,11.497689 C 20.582316,12.347102 18.746231,15.740132 18.74623,20.240756 C 18.746231,24.741379 20.616734,28.296285 22.68862,28.964435 C 23.499008,29.225771 24.054011,29.293997 24.642057,29.293997 C 25.109035,29.293997 25.329875,29.273399 26.471182,28.925662 C 28.53346,28.297327 30.129437,24.676337 30.129437,20.240756 z M 29.614439,20.240756 C 29.614439,24.643471 27.889428,28.208384 25.760844,28.208384 C 25.366897,28.208384 24.982362,28.086826 24.624299,27.859436 C 24.619604,27.856455 24.611224,27.862452 24.60654,27.859436 C 23.037145,26.849093 21.907246,23.817962 21.907246,20.240756 C 21.907246,16.663549 23.037145,13.632416 24.60654,12.622074 C 24.611224,12.619057 24.619604,12.625053 24.624299,12.622074 C 24.982362,12.394684 25.366897,12.25374 25.760844,12.25374 C 27.889428,12.25374 29.614439,15.83804 29.614439,20.240756 z "
       style="fill:url(#radialGradient2631);fill-opacity:1;fill-rule:nonzero;stroke:none;stroke-width:1;stroke-linecap:round;stroke-linejoin:round;stroke-miterlimit:4;stroke-dasharray:none;stroke-opacity:1" />
    <path
       id="path4720"
       d="M 30.129437,20.240756 C 30.129437,15.805176 28.499993,12.266128 26.471182,11.53646 C 25.552198,11.205944 25.219659,11.168127 24.642057,11.168127 C 24.002669,11.168127 23.476281,11.177258 22.681706,11.497689 C 20.575402,12.347102 18.750163,15.740132 18.750161,20.240756 C 18.750162,24.741379 20.60982,28.296285 22.681706,28.964435 C 23.492094,29.225771 24.054011,29.293997 24.642057,29.293997 C 25.109035,29.293997 25.329875,29.273399 26.471182,28.925662 C 28.53346,28.297327 30.129437,24.676337 30.129437,20.240756 z M 27.62161,20.240756 C 27.62161,23.817962 26.193693,26.849093 24.624299,27.859436 C 24.619604,27.856455 24.611224,27.862452 24.60654,27.859436 C 23.037145,26.849093 21.907246,23.817962 21.907246,20.240756 C 21.907246,16.663549 23.037145,13.632416 24.60654,12.622074 C 24.611224,12.619057 24.619604,12.625053 24.624299,12.622074 C 26.193693,13.632416 27.62161,16.663549 27.62161,20.240756 z "
       style="opacity:0.5;fill:url(#linearGradient2628);fill-opacity:1;fill-rule:nonzero;stroke:none;stroke-width:1;stroke-linecap:round;stroke-linejoin:round;stroke-miterlimit:4;stroke-dasharray:none;stroke-opacity:1"
       sodipodi:nodetypes="cssssssscccssscc" />
    <path
       id="path4722"
       d="M 22.928488,11.414001 C 22.848205,11.441837 22.780212,11.456022 22.69395,11.49081 C 21.19177,12.096598 19.832561,14.011778 19.175891,16.688239 C 19.173957,16.696072 19.177814,16.705998 19.175891,16.713842 C 19.105364,17.003638 19.041679,17.302882 18.988262,17.60995 C 18.956526,17.787807 18.919941,17.964041 18.894447,18.147616 C 18.892143,18.164674 18.896696,18.181716 18.894447,18.198822 C 18.841617,18.589142 18.798609,18.984228 18.777178,19.402168 C 18.779035,19.428479 18.775078,19.453004 18.777178,19.478976 C 18.844703,20.31455 19.025497,20.98428 19.340067,21.296796 C 20.409637,22.359386 21.365229,21.811111 21.474357,19.581388 C 21.475731,19.553318 21.473249,19.533183 21.474357,19.50458 C 21.509705,18.719759 21.619764,17.9591 21.755801,17.251507 C 21.757401,17.243187 21.75419,17.234211 21.755801,17.225904 C 21.941241,16.524371 22.124566,15.882631 22.271784,15.382481 C 22.290917,15.317477 22.300188,15.29109 22.318691,15.228862 C 23.092184,13.173811 24.318752,11.849254 25.719481,11.849254 C 28.076755,11.849254 29.988061,15.592422 29.988061,20.24707 L 30.10533,20.24707 C 30.105343,20.238281 30.10533,20.230258 30.10533,20.221466 C 30.10533,15.434368 28.093642,11.56762 25.602212,11.56762 C 24.413765,11.56762 23.336151,12.451643 22.529775,13.897502 C 22.526244,13.903832 22.533296,13.916752 22.529775,13.923104 C 22.077996,14.611088 21.545112,15.558531 21.192911,16.841858 C 20.692127,18.666589 20.008815,19.593594 19.527696,19.01812 C 19.296153,18.741165 19.217347,18.202361 19.29316,17.507538 C 19.312442,17.330819 19.345653,17.141662 19.386974,16.94427 C 20.005616,14.125225 21.384088,12.094768 22.928488,11.414001 z "
       style="opacity:0.75;fill:url(#linearGradient2625);fill-opacity:1;fill-rule:nonzero;stroke:none;stroke-width:1;stroke-linecap:round;stroke-linejoin:miter;stroke-miterlimit:4;stroke-opacity:1" />
    <path
       style="opacity:0.51741297;fill:url(#linearGradient2622);fill-opacity:1;fill-rule:nonzero;stroke:none;stroke-width:1;stroke-linecap:round;stroke-linejoin:miter;stroke-miterlimit:4;stroke-dasharray:none;stroke-opacity:1"
       d="M 19.527696,16.381002 C 19.478208,16.567071 19.429482,16.750572 19.386974,16.94427 C 19.345653,17.141662 19.312442,17.330819 19.29316,17.507538 C 19.217347,18.202361 19.296153,18.741165 19.527696,19.01812 C 20.003753,19.587539 20.670183,18.679835 21.169458,16.893064 C 20.490753,18.171504 19.823693,18.721387 19.551151,18.09641 C 19.404051,17.759093 19.413734,17.132668 19.527696,16.381002 z "
       id="path4724" />
    <path
       style="opacity:0.75;fill:url(#radialGradient2619);fill-opacity:1;fill-rule:nonzero;stroke:none;stroke-width:1;stroke-linecap:round;stroke-linejoin:round;stroke-miterlimit:4;stroke-dasharray:none;stroke-opacity:1"
       d="M 30.129437,20.240756 C 30.129437,15.805176 28.499993,12.266128 26.471182,11.53646 C 25.552198,11.205944 25.219659,11.168127 24.642057,11.168127 C 24.002669,11.168127 23.483192,11.177258 22.68862,11.497689 C 20.582316,12.347102 18.746231,15.740132 18.74623,20.240756 C 18.746231,24.741379 20.616734,28.296285 22.68862,28.964435 C 23.499008,29.225771 24.054011,29.293997 24.642057,29.293997 C 25.109035,29.293997 25.329875,29.273399 26.471182,28.925662 C 28.53346,28.297327 30.129437,24.676337 30.129437,20.240756 z M 29.614439,20.240756 C 29.614439,24.643471 27.889428,28.208384 25.760844,28.208384 C 25.366897,28.208384 24.982362,28.086826 24.624299,27.859436 C 24.619604,27.856455 24.611224,27.862452 24.60654,27.859436 C 23.037145,26.849093 21.907246,23.817962 21.907246,20.240756 C 21.907246,16.663549 23.037145,13.632416 24.60654,12.622074 C 24.611224,12.619057 24.619604,12.625053 24.624299,12.622074 C 24.982362,12.394684 25.366897,12.25374 25.760844,12.25374 C 27.889428,12.25374 29.614439,15.83804 29.614439,20.240756 z "
       id="path4726" />
    <path
       style="opacity:0.5;fill:url(#radialGradient2616);fill-opacity:1;fill-rule:nonzero;stroke:none;stroke-width:1;stroke-linecap:round;stroke-linejoin:miter;stroke-miterlimit:4;stroke-dasharray:none;stroke-opacity:1"
       d="M 19.527696,16.381002 C 19.478208,16.567071 19.429482,16.750572 19.386974,16.94427 C 19.345653,17.141662 19.312442,17.330819 19.29316,17.507538 C 19.217347,18.202361 19.296153,18.741165 19.527696,19.01812 C 20.003753,19.587539 20.670183,18.679835 21.169458,16.893064 C 20.490753,18.171504 19.823693,18.721387 19.551151,18.09641 C 19.404051,17.759093 19.413734,17.132668 19.527696,16.381002 z M 21.521264,19.043724 C 21.508572,19.198823 21.48144,19.347307 21.474357,19.50458 C 21.473249,19.533183 21.475731,19.553318 21.474357,19.581388 C 21.365229,21.811111 20.409637,22.359386 19.340067,21.296796 C 19.112466,21.070682 18.966299,20.646683 18.870992,20.119054 C 18.945135,20.903389 19.109745,21.535741 19.410429,21.834462 C 20.479999,22.897053 21.43559,22.348775 21.544719,20.119054 C 21.546092,20.090983 21.543611,20.070849 21.544719,20.042244 C 21.560019,19.702515 21.575731,19.372054 21.615079,19.043724 L 21.521264,19.043724 z "
       id="path4728" />
    <path
       style="opacity:0.4;fill:url(#radialGradient2613);fill-opacity:1;fill-rule:nonzero;stroke:none;stroke-width:1;stroke-linecap:round;stroke-linejoin:miter;stroke-miterlimit:4;stroke-opacity:1"
       d="M 22.928488,11.414001 C 22.848205,11.441837 22.780212,11.456022 22.69395,11.49081 C 21.19177,12.096598 19.832561,14.011778 19.175891,16.688239 C 19.173957,16.696072 19.177814,16.705998 19.175891,16.713842 C 19.105364,17.003638 19.041679,17.302882 18.988262,17.60995 C 18.956526,17.787807 18.919941,17.964041 18.894447,18.147616 C 18.892143,18.164674 18.896696,18.181716 18.894447,18.198822 C 18.841617,18.589142 18.798609,18.984228 18.777178,19.402168 C 18.779035,19.428479 18.775078,19.453004 18.777178,19.478976 C 18.844703,20.31455 19.025497,20.98428 19.340067,21.296796 C 20.409637,22.359386 21.365229,21.811111 21.474357,19.581388 C 21.475731,19.553318 21.473249,19.533183 21.474357,19.50458 C 21.509705,18.719759 21.619764,17.9591 21.755801,17.251507 C 21.757401,17.243187 21.75419,17.234211 21.755801,17.225904 C 21.941241,16.524371 22.124566,15.882631 22.271784,15.382481 C 22.290917,15.317477 22.300188,15.29109 22.318691,15.228862 C 23.092184,13.173811 24.318752,11.849254 25.719481,11.849254 C 28.076755,11.849254 29.988061,15.592422 29.988061,20.24707 L 30.10533,20.24707 C 30.105343,20.238281 30.10533,20.230258 30.10533,20.221466 C 30.10533,15.434368 28.093642,11.56762 25.602212,11.56762 C 24.413765,11.56762 23.336151,12.451643 22.529775,13.897502 C 22.526244,13.903832 22.533296,13.916752 22.529775,13.923104 C 22.077996,14.611088 21.545112,15.558531 21.192911,16.841858 C 20.692127,18.666589 20.008815,19.593594 19.527696,19.01812 C 19.296153,18.741165 19.217347,18.202361 19.29316,17.507538 C 19.312442,17.330819 19.345653,17.141662 19.386974,16.94427 C 20.005616,14.125225 21.384088,12.094768 22.928488,11.414001 z "
       id="path4730" />
    <path
       sodipodi:nodetypes="cscscsc"
       style="opacity:0.4;fill:url(#linearGradient2610);fill-opacity:1;fill-rule:nonzero;stroke:none;stroke-width:1;stroke-linecap:round;stroke-linejoin:round;stroke-miterlimit:4;stroke-dasharray:none;stroke-opacity:1"
       d="M 29.614439,20.240756 C 29.614439,15.83804 27.889428,12.25374 25.760844,12.25374 C 25.366897,12.25374 24.982362,12.394684 24.624299,12.622073 C 26.193693,13.632416 27.62161,16.663548 27.62161,20.240756 C 27.62161,23.817962 26.193693,26.849093 24.624299,27.859436 C 24.982362,28.086826 25.366897,28.208384 25.760844,28.208384 C 27.889428,28.208384 29.614439,24.643471 29.614439,20.240756 z "
       id="path4732" />
    <path
       style="opacity:0.65;fill:url(#linearGradient2607);fill-opacity:1;fill-rule:nonzero;stroke:none;stroke-width:1;stroke-linecap:round;stroke-linejoin:round;stroke-miterlimit:4;stroke-dasharray:none;stroke-opacity:1"
       d="M 27.548873,21.450415 C 27.53223,21.633471 27.502241,21.809322 27.478511,21.98808 C 27.444511,22.244207 27.43227,22.509988 27.384696,22.756172 C 27.828116,21.918014 28.400289,21.545569 28.815375,21.885668 C 29.133561,22.146372 29.274188,22.784643 29.260995,23.549868 C 29.27635,23.480464 29.293492,23.415503 29.307902,23.345044 C 29.321464,23.278735 29.342097,23.207433 29.354809,23.14022 C 29.363862,23.071963 29.370057,23.004238 29.378264,22.935394 C 29.409249,22.675474 29.428597,22.411417 29.448624,22.141698 C 29.46454,21.927364 29.465218,21.712627 29.472079,21.501622 L 27.548873,21.450415 z "
       id="path4734" />
    <path
       style="opacity:0.5;fill:url(#linearGradient2604);fill-opacity:1;fill-rule:nonzero;stroke:none;stroke-width:1;stroke-linecap:round;stroke-linejoin:round;stroke-miterlimit:4;stroke-dasharray:none;stroke-opacity:1"
       d="M 25.133138,27.44154 C 24.965087,27.600318 24.790384,27.739668 24.617156,27.85119 C 24.975219,28.078579 25.372442,28.209632 25.766389,28.209632 C 26.355552,28.209632 26.908845,27.92993 27.408151,27.44154 L 25.133138,27.44154 z "
       id="path4736" />
    <path
       style="opacity:0.5;fill:url(#linearGradient2601);fill-opacity:1;fill-rule:nonzero;stroke:none;stroke-width:1;stroke-linecap:round;stroke-linejoin:round;stroke-miterlimit:4;stroke-dasharray:none;stroke-opacity:1"
       d="M 24.64061,11.15797 C 24.074113,11.157969 23.582694,11.189504 22.928488,11.414001 C 21.490203,12.047992 20.198461,13.859043 19.527696,16.381002 C 19.413734,17.132668 19.404051,17.759093 19.551151,18.09641 C 19.648585,18.319838 19.792534,18.383324 19.973318,18.326838 C 19.845495,17.479082 20.160673,16.031696 20.817653,14.742404 C 21.621484,13.164916 22.60703,12.416628 23.022303,13.078202 C 23.03121,13.092392 23.037518,13.114169 23.045757,13.129408 C 23.774238,12.155562 24.647558,11.56762 25.602212,11.56762 C 28.093642,11.56762 30.10533,15.434368 30.10533,20.221466 C 30.10533,20.230258 30.105343,20.238281 30.10533,20.24707 L 30.058422,20.24707 C 30.092539,21.348687 30.128782,22.399731 30.128782,20.24707 C 30.128781,15.811489 28.498813,12.271684 26.470002,11.542016 C 25.551016,11.211501 25.218212,11.15797 24.64061,11.15797 z M 30.058422,20.24707 C 30.022238,19.078793 29.988061,17.8514 29.988061,20.24707 L 30.058422,20.24707 z M 22.037246,11.849254 C 21.917603,11.929287 21.801713,12.008934 21.68544,12.105284 C 21.798667,12.010903 21.920813,11.92803 22.037246,11.849254 z M 21.521264,12.258904 C 21.37949,12.388248 21.234118,12.541188 21.099097,12.694156 C 21.239567,12.53293 21.373439,12.394318 21.521264,12.258904 z M 18.894447,18.198822 C 18.84267,18.593503 18.841617,18.589142 18.894447,18.198822 z "
       id="path4738" />
    <path
       style="opacity:0.4;fill:url(#linearGradient2595);fill-opacity:1;fill-rule:nonzero;stroke:none;stroke-width:1;stroke-linecap:round;stroke-linejoin:round;stroke-miterlimit:4;stroke-dasharray:none;stroke-opacity:1"
       d="M 24.124628,27.69757 C 23.700614,28.02432 23.297436,28.466037 22.951942,29.028932 C 23.617146,29.2202 24.12258,29.284962 24.64061,29.284962 C 25.10759,29.284963 25.328692,29.274256 26.470002,28.92652 C 26.889064,28.798839 27.295065,28.54058 27.666142,28.18403 C 27.556474,28.071351 27.451512,27.951573 27.337789,27.85119 C 26.869237,28.252595 26.352149,28.465664 25.813296,28.465664 C 25.406967,28.465664 25.009929,28.341758 24.64061,28.10722 C 24.635771,28.104145 24.621991,28.11033 24.617156,28.10722 C 24.447158,27.997778 24.283804,27.851227 24.124628,27.69757 z "
       id="path4742" />
    <path
       id="path4744"
       d="M 27.59578,19.83742 C 27.599933,19.973343 27.619235,20.109446 27.619235,20.24707 C 27.619235,20.457259 27.609316,20.657781 27.59578,20.861544 C 27.58277,21.05738 27.566492,21.256615 27.548873,21.450415 C 27.270983,24.480525 26.004151,26.958271 24.617156,27.85119 C 24.975219,28.078579 25.372442,28.209632 25.766389,28.209632 C 25.991377,28.209632 26.208683,28.158051 26.423094,28.081617 C 26.293534,28.108803 26.157417,28.10722 26.02438,28.10722 C 25.630433,28.10722 25.23321,28.00177 24.875147,27.77438 C 26.247534,26.890867 27.489641,24.441781 27.783409,21.450415 L 29.565893,21.501622 C 29.597719,21.089221 29.6128,20.678088 29.6128,20.24707 C 29.6128,20.161162 29.614104,20.076302 29.6128,19.991038 L 27.59578,19.83742 z "
       style="opacity:0.3;fill:url(#radialGradient2592);fill-opacity:1;fill-rule:nonzero;stroke:none;stroke-width:1;stroke-linecap:round;stroke-linejoin:round;stroke-miterlimit:4;stroke-dasharray:none;stroke-opacity:1" />
    <path
       style="fill:url(#radialGradient2589);fill-opacity:1;fill-rule:nonzero;stroke:none;stroke-width:1;stroke-linecap:round;stroke-linejoin:round;stroke-miterlimit:4;stroke-dasharray:none;stroke-opacity:1"
       d="M 29.378264,22.555534 C 29.441167,22.191144 29.409249,22.295614 29.378264,22.555534 z M 29.214088,22.42752 C 28.679725,25.513093 27.254373,27.72736 25.578759,27.72736 C 25.381786,27.72736 25.206005,27.709365 25.01587,27.650551 C 25.259297,27.748948 25.510323,27.829772 25.766389,27.829772 C 27.324047,27.829772 28.654824,25.91662 29.260995,23.170009 C 29.265675,22.89856 29.249179,22.655831 29.214088,22.42752 z "
       id="path4746"
       sodipodi:nodetypes="cscssscc" />
    <path
       id="path2651"
       d="M 29.614439,20.240756 C 29.614439,15.83804 27.889428,12.25374 25.760844,12.25374 C 25.366897,12.25374 24.982362,12.394684 24.624299,12.622073 C 26.193693,13.632416 27.62161,16.663548 27.62161,20.240756 C 27.62161,23.817962 26.193693,26.849093 24.624299,27.859436 C 24.982362,28.086826 25.366897,28.208384 25.760844,28.208384 C 27.889428,28.208384 29.614439,24.643471 29.614439,20.240756 z "
       style="opacity:0.25;fill:url(#radialGradient3624);fill-opacity:1.0;fill-rule:nonzero;stroke:none;stroke-width:1;stroke-linecap:round;stroke-linejoin:round;stroke-miterlimit:4;stroke-dasharray:none;stroke-opacity:1"
       sodipodi:nodetypes="cscscsc" />
    <rect
       style="opacity:0.61162792;fill:#555753;fill-opacity:1;fill-rule:nonzero;stroke:none;stroke-width:0.69999999;stroke-linecap:round;stroke-linejoin:miter;stroke-miterlimit:4;stroke-dasharray:none;stroke-opacity:1"
       id="rect1951"
       width="40.001965"
       height="10.004759"
       x="-0.0019644466"
       y="30" />
    <text
       xml:space="preserve"
       style="font-size:12px;font-style:normal;font-weight:normal;fill:#eeeeec;fill-opacity:1;stroke:none;stroke-width:1px;stroke-linecap:butt;stroke-linejoin:miter;stroke-opacity:1;font-family:Bitstream Vera Sans"
       x="12.609105"
       y="39.168156"
       id="text2840"><tspan
         sodipodi:role="line"
         id="tspan2842"
         x="12.609105"
         y="39.168156">Au</tspan></text>
    <path
       id="path2589"
       d="M 14.71875,7.5 C 14.61178,7.533975 14.521186,7.55129 14.40625,7.59375 C 12.404728,8.333148 10.593703,10.670731 9.71875,13.9375 C 9.716173,13.94706 9.721312,13.959176 9.71875,13.96875 C 9.62478,14.322462 9.539925,14.687706 9.46875,15.0625 C 9.426466,15.279583 9.37772,15.494687 9.34375,15.71875 C 9.340681,15.739572 9.346747,15.760372 9.34375,15.78125 C 9.273361,16.257658 9.216055,16.739882 9.1875,17.25 C 9.189974,17.282115 9.184703,17.31205 9.1875,17.34375 C 9.277471,18.363614 9.518364,19.181056 9.9375,19.5625 C 11.362606,20.85945 12.635847,20.190249 12.78125,17.46875 C 12.783081,17.434488 12.779775,17.409913 12.78125,17.375 C 12.828348,16.417083 12.974993,15.488656 13.15625,14.625 C 13.158381,14.614845 13.154102,14.603889 13.15625,14.59375 C 13.403331,13.737491 13.647596,12.954211 13.84375,12.34375 C 13.869244,12.264409 13.881597,12.232202 13.90625,12.15625 C 14.93686,9.647945 16.571153,8.03125 18.4375,8.03125 C 21.578357,8.03125 24.125,12.599994 24.125,18.28125 L 24.28125,18.28125 C 24.281268,18.270523 24.28125,18.26073 24.28125,18.25 C 24.28125,12.407082 21.600855,7.6875 18.28125,7.6875 C 16.69775,7.6875 15.261924,8.766499 14.1875,10.53125 C 14.182795,10.538978 14.192191,10.554746 14.1875,10.5625 C 13.585544,11.402222 12.875525,12.558629 12.40625,14.125 C 11.738999,16.352186 10.828547,17.483648 10.1875,16.78125 C 9.878987,16.443211 9.773988,15.785569 9.875,14.9375 C 9.900691,14.721805 9.944943,14.490928 10,14.25 C 10.824284,10.809199 12.660975,8.330914 14.71875,7.5 z "
       style="opacity:0.4;fill:url(#radialGradient3562);fill-opacity:1;fill-rule:nonzero;stroke:none;stroke-width:1;stroke-linecap:round;stroke-linejoin:miter;stroke-miterlimit:4;stroke-opacity:1" />
    <path
       style="opacity:0.4;fill:url(#radialGradient3568);fill-opacity:1.0;fill-rule:nonzero;stroke:none;stroke-width:1;stroke-linecap:round;stroke-linejoin:miter;stroke-miterlimit:4;stroke-opacity:1"
       d="M 22.928488,11.414001 C 22.848205,11.441837 22.780212,11.456022 22.69395,11.49081 C 21.19177,12.096598 19.832561,14.011778 19.175891,16.688239 C 19.173957,16.696072 19.177814,16.705998 19.175891,16.713842 C 19.105364,17.003638 19.041679,17.302882 18.988262,17.60995 C 18.956526,17.787807 18.919941,17.964041 18.894447,18.147616 C 18.892143,18.164674 18.896696,18.181716 18.894447,18.198822 C 18.841617,18.589142 18.798609,18.984228 18.777178,19.402168 C 18.779035,19.428479 18.775078,19.453004 18.777178,19.478976 C 18.844703,20.31455 19.025497,20.98428 19.340067,21.296796 C 20.409637,22.359386 21.365229,21.811111 21.474357,19.581388 C 21.475731,19.553318 21.473249,19.533183 21.474357,19.50458 C 21.509705,18.719759 21.619764,17.9591 21.755801,17.251507 C 21.757401,17.243187 21.75419,17.234211 21.755801,17.225904 C 21.941241,16.524371 22.124566,15.882631 22.271784,15.382481 C 22.290917,15.317477 22.300188,15.29109 22.318691,15.228862 C 23.092184,13.173811 24.318752,11.849254 25.719481,11.849254 C 28.076755,11.849254 29.988061,15.592422 29.988061,20.24707 L 30.10533,20.24707 C 30.105343,20.238281 30.10533,20.230258 30.10533,20.221466 C 30.10533,15.434368 28.093642,11.56762 25.602212,11.56762 C 24.413765,11.56762 23.336151,12.451643 22.529775,13.897502 C 22.526244,13.903832 22.533296,13.916752 22.529775,13.923104 C 22.077996,14.611088 21.545112,15.558531 21.192911,16.841858 C 20.692127,18.666589 20.008815,19.593594 19.527696,19.01812 C 19.296153,18.741165 19.217347,18.202361 19.29316,17.507538 C 19.312442,17.330819 19.345653,17.141662 19.386974,16.94427 C 20.005616,14.125225 21.384088,12.094768 22.928488,11.414001 z "
       id="path3564" />
  </g>
</svg>
