<?xml version="1.0" encoding="UTF-8" standalone="no"?>
<!-- Created with Inkscape (http://www.inkscape.org/) -->
<svg
   xmlns:dc="http://purl.org/dc/elements/1.1/"
   xmlns:cc="http://creativecommons.org/ns#"
   xmlns:rdf="http://www.w3.org/1999/02/22-rdf-syntax-ns#"
   xmlns:svg="http://www.w3.org/2000/svg"
   xmlns="http://www.w3.org/2000/svg"
   xmlns:xlink="http://www.w3.org/1999/xlink"
   xmlns:sodipodi="http://sodipodi.sourceforge.net/DTD/sodipodi-0.dtd"
   xmlns:inkscape="http://www.inkscape.org/namespaces/inkscape"
   width="40"
   height="40"
   id="svg2193"
   sodipodi:version="0.32"
   inkscape:version="0.46"
   version="1.0"
   sodipodi:docbase="/home/jra/Desktop"
   sodipodi:docname="8.svg"
   inkscape:output_extension="org.inkscape.output.svg.inkscape">
  <defs
     id="defs2195">
    <inkscape:perspective
       sodipodi:type="inkscape:persp3d"
       inkscape:vp_x="0 : 20 : 1"
       inkscape:vp_y="0 : 1000 : 0"
       inkscape:vp_z="40 : 20 : 1"
       inkscape:persp3d-origin="20 : 13.333333 : 1"
       id="perspective165" />
    <linearGradient
       id="linearGradient7280">
      <stop
         style="stop-color:#000000;stop-opacity:0.8"
         offset="0"
         id="stop7282" />
      <stop
         style="stop-color:#ffffff;stop-opacity:1"
         offset="1"
         id="stop7284" />
    </linearGradient>
    <linearGradient
       inkscape:collect="always"
       id="linearGradient3239">
      <stop
         style="stop-color:#eeeeec;stop-opacity:1;"
         offset="0"
         id="stop3241" />
      <stop
         style="stop-color:#eeeeec;stop-opacity:0;"
         offset="1"
         id="stop3243" />
    </linearGradient>
    <linearGradient
       id="linearGradient3220">
      <stop
         id="stop3222"
         offset="0"
         style="stop-color:#000000;stop-opacity:1" />
      <stop
         id="stop3224"
         offset="1"
         style="stop-color:#c1c3c0;stop-opacity:1" />
    </linearGradient>
    <linearGradient
       id="linearGradient3291">
      <stop
         id="stop3293"
         offset="0"
         style="stop-color:#000000;stop-opacity:1;" />
      <stop
         id="stop3295"
         offset="1"
         style="stop-color:#000000;stop-opacity:0;" />
    </linearGradient>
    <linearGradient
       id="linearGradient2308">
      <stop
         id="stop2310"
         offset="0"
         style="stop-color:#0e0000;stop-opacity:1;" />
      <stop
         id="stop2312"
         offset="1"
         style="stop-color:#0e0000;stop-opacity:0;" />
    </linearGradient>
    <linearGradient
       id="linearGradient2898">
      <stop
         style="stop-color:#000000;stop-opacity:1"
         offset="0"
         id="stop2900" />
      <stop
         style="stop-color:#ffffff;stop-opacity:1;"
         offset="1"
         id="stop2902" />
    </linearGradient>
    <linearGradient
       id="linearGradient2872">
      <stop
         id="stop2874"
         offset="0"
         style="stop-color:#ffffff;stop-opacity:1;" />
      <stop
         id="stop2876"
         offset="1"
         style="stop-color:#ffffff;stop-opacity:0;" />
    </linearGradient>
    <linearGradient
       id="linearGradient3388">
      <stop
         style="stop-color:#ffffff;stop-opacity:0.19480519;"
         offset="0"
         id="stop3390" />
      <stop
         id="stop3394"
         offset="0.6526531"
         style="stop-color:#030303;stop-opacity:0;" />
      <stop
         style="stop-color:#ffffff;stop-opacity:0.24705882;"
         offset="0.87857145"
         id="stop3396" />
      <stop
         style="stop-color:#000000;stop-opacity:0;"
         offset="1"
         id="stop3392" />
    </linearGradient>
    <linearGradient
       id="linearGradient3779">
      <stop
         id="stop3781"
         offset="0"
         style="stop-color:#ffffff;stop-opacity:0;" />
      <stop
         style="stop-color:#ffffff;stop-opacity:1;"
         offset="0.72907513"
         id="stop3785" />
      <stop
         id="stop3783"
         offset="1"
         style="stop-color:#000000;stop-opacity:0;" />
    </linearGradient>
    <linearGradient
       id="linearGradient3795">
      <stop
         id="stop3797"
         offset="0"
         style="stop-color:#0e0000;stop-opacity:0;" />
      <stop
         style="stop-color:#0e0000;stop-opacity:0.49803922;"
         offset="0.5"
         id="stop3801" />
      <stop
         id="stop3799"
         offset="1"
         style="stop-color:#0e0000;stop-opacity:0;" />
    </linearGradient>
    <linearGradient
       id="linearGradient3882">
      <stop
         id="stop3884"
         offset="0"
         style="stop-color:#0e0000;stop-opacity:0;" />
      <stop
         id="stop3886"
         offset="1"
         style="stop-color:#000000;stop-opacity:1;" />
    </linearGradient>
    <linearGradient
       inkscape:collect="always"
       xlink:href="#linearGradient3220"
       id="linearGradient8059"
       gradientUnits="userSpaceOnUse"
       x1="-19.524696"
       y1="7.9432464"
       x2="-17.663088"
       y2="7.8764281" />
    <radialGradient
       inkscape:collect="always"
       xlink:href="#linearGradient3291"
       id="radialGradient8061"
       gradientUnits="userSpaceOnUse"
       gradientTransform="matrix(1,0,0,0.197802,0,92.82166)"
       cx="63.912209"
       cy="115.70919"
       fx="75.857941"
       fy="115.70919"
       r="63.912209" />
    <radialGradient
       inkscape:collect="always"
       xlink:href="#linearGradient3239"
       id="radialGradient8091"
       gradientUnits="userSpaceOnUse"
       gradientTransform="matrix(1.7602789,4.0126613e-2,-6.0413151e-2,2.8805599,15.150087,-14.507795)"
       cx="-19.379539"
       cy="8.0567083"
       fx="-19.379539"
       fy="8.0567083"
       r="0.40449196" />
    <linearGradient
       inkscape:collect="always"
       xlink:href="#linearGradient3220"
       id="linearGradient8144"
       gradientUnits="userSpaceOnUse"
       gradientTransform="translate(30,-2)"
       x1="3.28125"
       y1="15.506552"
       x2="-22.931511"
       y2="16.537802" />
    <linearGradient
       inkscape:collect="always"
       xlink:href="#linearGradient2898"
       id="linearGradient8147"
       gradientUnits="userSpaceOnUse"
       gradientTransform="translate(30,-2)"
       x1="-18.78125"
       y1="18.624029"
       x2="-7.328125"
       y2="10.155279" />
    <linearGradient
       inkscape:collect="always"
       xlink:href="#linearGradient3220"
       id="linearGradient8154"
       gradientUnits="userSpaceOnUse"
       gradientTransform="matrix(0,-1,1,0,6.71231,40.655172)"
       x1="13.34375"
       y1="18.135984"
       x2="18.744247"
       y2="18.135984" />
    <linearGradient
       inkscape:collect="always"
       xlink:href="#linearGradient3220"
       id="linearGradient8157"
       gradientUnits="userSpaceOnUse"
       gradientTransform="matrix(0,-1,1,0,6.71231,40.655172)"
       x1="13.34375"
       y1="18.135984"
       x2="18.744247"
       y2="18.135984" />
    <radialGradient
       inkscape:collect="always"
       xlink:href="#linearGradient3239"
       id="radialGradient8160"
       gradientUnits="userSpaceOnUse"
       gradientTransform="matrix(1,-3.6301891e-6,4.0901647e-7,0.1124998,-11.43449,7.083048)"
       cx="19.87945"
       cy="10.872603"
       fx="19.87945"
       fy="10.872603"
       r="1.390625" />
    <radialGradient
       inkscape:collect="always"
       xlink:href="#linearGradient3239"
       id="radialGradient8163"
       gradientUnits="userSpaceOnUse"
       gradientTransform="matrix(1,-3.6301891e-6,4.0901647e-7,0.1124998,-9.46785,6.30965)"
       cx="19.87945"
       cy="10.872603"
       fx="19.87945"
       fy="10.872603"
       r="1.390625" />
    <radialGradient
       inkscape:collect="always"
       xlink:href="#linearGradient3291"
       id="radialGradient8166"
       gradientUnits="userSpaceOnUse"
       gradientTransform="matrix(2.3861404,-3.3414086e-2,6.5842337e-3,0.4701884,59.17152,2.358463)"
       cx="-20.65625"
       cy="6.7473946"
       fx="-20.65625"
       fy="6.7473946"
       r="2.34375" />
    <radialGradient
       inkscape:collect="always"
       xlink:href="#linearGradient3882"
       id="radialGradient8169"
       gradientUnits="userSpaceOnUse"
       gradientTransform="matrix(1.4432474,4.7983613e-2,-1.5423577e-2,0.4639084,-16.58612,0.374279)"
       cx="15.394781"
       cy="15.591656"
       fx="15.394781"
       fy="15.591656"
       r="4.859375" />
    <linearGradient
       inkscape:collect="always"
       xlink:href="#linearGradient3291"
       id="linearGradient8172"
       gradientUnits="userSpaceOnUse"
       gradientTransform="translate(-9.41652,1.932157)"
       x1="19.59375"
       y1="36.625"
       x2="19.65625"
       y2="38" />
    <radialGradient
       inkscape:collect="always"
       xlink:href="#linearGradient3239"
       id="radialGradient8175"
       gradientUnits="userSpaceOnUse"
       gradientTransform="matrix(0.9621951,8.9206056e-3,-1.4361358e-3,0.1549044,-8.45529,6.191077)"
       cx="17.359055"
       cy="16.29215"
       fx="17.359055"
       fy="16.29215"
       r="4.859375" />
    <radialGradient
       inkscape:collect="always"
       xlink:href="#linearGradient2308"
       id="radialGradient8178"
       gradientUnits="userSpaceOnUse"
       gradientTransform="matrix(-4.1572437,-1.3249964e-2,-3.7732857e-2,11.838861,71.16304,-224.10335)"
       cx="13.129578"
       cy="20.846994"
       fx="13.129578"
       fy="20.846994"
       r="1.75" />
    <radialGradient
       inkscape:collect="always"
       xlink:href="#linearGradient3779"
       id="radialGradient8181"
       gradientUnits="userSpaceOnUse"
       gradientTransform="matrix(1.3375865,-4.4275966e-7,1.1834115e-7,0.3575111,-15.87287,24.451794)"
       cx="19.125"
       cy="32.482777"
       fx="19.125"
       fy="32.482777"
       r="4.84375" />
    <linearGradient
       inkscape:collect="always"
       xlink:href="#linearGradient3220"
       id="linearGradient8185"
       gradientUnits="userSpaceOnUse"
       gradientTransform="matrix(-1,0,0,1,28.80223,-4.067843)"
       x1="18.018181"
       y1="8.8498821"
       x2="18.043999"
       y2="7.8300462" />
    <linearGradient
       inkscape:collect="always"
       xlink:href="#linearGradient3388"
       id="linearGradient8188"
       gradientUnits="userSpaceOnUse"
       gradientTransform="translate(10.58348,-4.067843)"
       x1="-5.75"
       y1="23.84375"
       x2="3.96875"
       y2="23.84375" />
    <radialGradient
       inkscape:collect="always"
       xlink:href="#linearGradient3239"
       id="radialGradient8191"
       gradientUnits="userSpaceOnUse"
       gradientTransform="matrix(2.1020449,4.0074247e-2,-7.609536e-3,0.3991488,-30.40963,2.384803)"
       cx="20.617935"
       cy="11.867081"
       fx="20.617935"
       fy="11.867081"
       r="4.859375" />
    <linearGradient
       inkscape:collect="always"
       xlink:href="#linearGradient3220"
       id="linearGradient8194"
       gradientUnits="userSpaceOnUse"
       gradientTransform="matrix(-1,0,0,1,28.80223,-4.067843)"
       x1="21.164062"
       y1="7.53125"
       x2="21.195312"
       y2="9.2109375" />
    <linearGradient
       inkscape:collect="always"
       xlink:href="#linearGradient3220"
       id="linearGradient8201"
       gradientUnits="userSpaceOnUse"
       gradientTransform="matrix(-1,0,0,1,28.80223,-4.067843)"
       x1="19.726555"
       y1="8.8759851"
       x2="19.637127"
       y2="7.6875" />
    <linearGradient
       inkscape:collect="always"
       xlink:href="#linearGradient3220"
       id="linearGradient8204"
       gradientUnits="userSpaceOnUse"
       gradientTransform="matrix(-1,0,0,1,28.80223,-4.067843)"
       x1="20.4375"
       y1="9.1333857"
       x2="20.303619"
       y2="7.8919415" />
    <linearGradient
       inkscape:collect="always"
       xlink:href="#linearGradient3220"
       id="linearGradient8212"
       gradientUnits="userSpaceOnUse"
       gradientTransform="matrix(-1,0,0,1,28.80223,-4.067843)"
       x1="13.34375"
       y1="18.135984"
       x2="18.744247"
       y2="18.135984" />
    <linearGradient
       inkscape:collect="always"
       xlink:href="#linearGradient3220"
       id="linearGradient8215"
       gradientUnits="userSpaceOnUse"
       gradientTransform="matrix(-1,0,0,1,28.80223,-4.067843)"
       x1="13.34375"
       y1="18.135984"
       x2="18.744247"
       y2="18.135984" />
    <linearGradient
       inkscape:collect="always"
       xlink:href="#linearGradient3220"
       id="linearGradient8218"
       gradientUnits="userSpaceOnUse"
       gradientTransform="matrix(-1,0,0,1,28.80223,-4.067843)"
       x1="13.34375"
       y1="18.135984"
       x2="18.744247"
       y2="18.135984" />
    <linearGradient
       inkscape:collect="always"
       xlink:href="#linearGradient3239"
       id="linearGradient8221"
       gradientUnits="userSpaceOnUse"
       gradientTransform="translate(-9.41652,-4.067843)"
       x1="20.25"
       y1="9.546875"
       x2="20.394531"
       y2="9.546875" />
    <linearGradient
       inkscape:collect="always"
       xlink:href="#linearGradient3239"
       id="linearGradient8224"
       gradientUnits="userSpaceOnUse"
       gradientTransform="translate(-9.41652,-4.067843)"
       x1="18.53125"
       y1="9.5103617"
       x2="19.3125"
       y2="9.5103617" />
    <linearGradient
       inkscape:collect="always"
       xlink:href="#linearGradient2308"
       id="linearGradient8231"
       gradientUnits="userSpaceOnUse"
       gradientTransform="matrix(-1,0,0,1,28.80223,-4.067843)"
       x1="19.121929"
       y1="9.9935503"
       x2="18.78125"
       y2="10.99355" />
    <radialGradient
       inkscape:collect="always"
       xlink:href="#linearGradient3795"
       id="radialGradient8234"
       gradientUnits="userSpaceOnUse"
       gradientTransform="matrix(2.2796614,-6.9979102e-3,2.8669459e-3,0.9339452,-35.40835,3.65704)"
       cx="18.806574"
       cy="36.130188"
       fx="18.806574"
       fy="36.130188"
       r="4.859375" />
    <linearGradient
       inkscape:collect="always"
       xlink:href="#linearGradient2308"
       id="linearGradient8238"
       gradientUnits="userSpaceOnUse"
       gradientTransform="translate(10.58348,-4.067843)"
       x1="6.125"
       y1="21.90625"
       x2="-5.75"
       y2="21.78125" />
    <linearGradient
       inkscape:collect="always"
       xlink:href="#linearGradient3291"
       id="linearGradient8245"
       gradientUnits="userSpaceOnUse"
       gradientTransform="translate(30,-2)"
       x1="-22.669596"
       y1="4.7187381"
       x2="-22.561947"
       y2="7.9642167" />
    <linearGradient
       inkscape:collect="always"
       xlink:href="#linearGradient3779"
       id="linearGradient8248"
       gradientUnits="userSpaceOnUse"
       gradientTransform="matrix(2.8546631,0,0,2.8546631,-48.02393,-19.16482)"
       x1="19.779161"
       y1="8.6205759"
       x2="19.762094"
       y2="7.5758395" />
    <radialGradient
       inkscape:collect="always"
       xlink:href="#linearGradient2872"
       id="radialGradient8295"
       gradientUnits="userSpaceOnUse"
       gradientTransform="matrix(1.4961735,-0.2071144,0.1300469,0.9394452,12.340066,-5.0459132)"
       cx="-33.069187"
       cy="28.350771"
       fx="-33.069187"
       fy="28.350771"
       r="2.28125" />
    <radialGradient
       inkscape:collect="always"
       xlink:href="#linearGradient3779"
       id="radialGradient8300"
       gradientUnits="userSpaceOnUse"
       gradientTransform="matrix(1.8264441,-0.3902141,8.9422548e-2,0.418553,54.736841,9.7132366)"
       cx="-12.241069"
       cy="19.647743"
       fx="-12.241069"
       fy="19.647743"
       r="2.046875" />
    <linearGradient
       inkscape:collect="always"
       xlink:href="#linearGradient2898"
       id="linearGradient8304"
       gradientUnits="userSpaceOnUse"
       gradientTransform="matrix(1.2320849,-0.1853726,0.1853726,1.2320849,45.284419,-5.3839097)"
       x1="-11.53125"
       y1="27.03125"
       x2="-18.59375"
       y2="21.625" />
    <linearGradient
       inkscape:collect="always"
       xlink:href="#linearGradient2898"
       id="linearGradient8308"
       gradientUnits="userSpaceOnUse"
       gradientTransform="matrix(1.2320849,-0.1853726,0.1853726,1.2320849,45.284419,-5.3839097)"
       x1="-11.3125"
       y1="25.0625"
       x2="-22.40625"
       y2="19.078125" />
    <linearGradient
       inkscape:collect="always"
       xlink:href="#linearGradient3779"
       id="linearGradient8316"
       gradientUnits="userSpaceOnUse"
       gradientTransform="matrix(1.2320849,-0.1853726,0.1853726,1.2320849,45.284419,-5.3839097)"
       x1="-17.9375"
       y1="21.5"
       x2="-17.375"
       y2="25.375" />
    <radialGradient
       inkscape:collect="always"
       xlink:href="#linearGradient2308"
       id="radialGradient2539"
       gradientUnits="userSpaceOnUse"
       gradientTransform="matrix(2.043038,0,0,0.4043513,-96.146835,20.592402)"
       cx="61.5"
       cy="-6.3504462"
       fx="61.5"
       fy="-6.3504462"
       r="2.5" />
    <linearGradient
       inkscape:collect="always"
       xlink:href="#linearGradient3779"
       id="linearGradient2542"
       gradientUnits="userSpaceOnUse"
       gradientTransform="matrix(0.9102982,0,0,0.9102982,-26.483356,24.764636)"
       x1="49.625"
       y1="-9.390625"
       x2="65.75"
       y2="-9.453125" />
    <radialGradient
       inkscape:collect="always"
       xlink:href="#linearGradient2872"
       id="radialGradient2547"
       gradientUnits="userSpaceOnUse"
       gradientTransform="matrix(2.0854322,-2.1095094e-2,6.8732686e-3,0.679482,-97.092522,24.129899)"
       cx="59.212265"
       cy="-17.220287"
       fx="59.212265"
       fy="-17.220287"
       r="6.34375" />
    <radialGradient
       inkscape:collect="always"
       xlink:href="#linearGradient2872"
       id="radialGradient2550"
       gradientUnits="userSpaceOnUse"
       gradientTransform="matrix(1.1350211,0,0,0.5020857,-40.303797,19.774253)"
       cx="59.5625"
       cy="-16.040998"
       fx="59.5625"
       fy="-16.040998"
       r="6.90625" />
    <linearGradient
       inkscape:collect="always"
       xlink:href="#linearGradient2308"
       id="linearGradient2553"
       gradientUnits="userSpaceOnUse"
       x1="61.969082"
       y1="-6.5718956"
       x2="53.287422"
       y2="-24.779522"
       gradientTransform="matrix(1.1350211,0,0,1.1350211,-40.303797,27.512658)" />
    <linearGradient
       inkscape:collect="always"
       xlink:href="#linearGradient7280"
       id="linearGradient2556"
       gradientUnits="userSpaceOnUse"
       x1="67.71875"
       y1="-3.0757322"
       x2="62"
       y2="-16.125"
       gradientTransform="matrix(1.1350211,0,0,1.1350211,-40.303797,27.512658)" />
    <linearGradient
       inkscape:collect="always"
       xlink:href="#linearGradient3779"
       id="linearGradient2559"
       gradientUnits="userSpaceOnUse"
       x1="49.625"
       y1="-9.390625"
       x2="65.75"
       y2="-9.453125"
       gradientTransform="matrix(1.1350211,0,0,1.1350211,-40.303797,27.512658)" />
    <radialGradient
       inkscape:collect="always"
       xlink:href="#linearGradient2872"
       id="radialGradient2562"
       gradientUnits="userSpaceOnUse"
       gradientTransform="matrix(1.4927295,-2.2698225e-2,1.1182118e-2,0.7353826,-62.212992,23.142023)"
       cx="62.307796"
       cy="-8.024826"
       fx="62.307796"
       fy="-8.024826"
       r="6.34375" />
    <linearGradient
       inkscape:collect="always"
       xlink:href="#linearGradient3291"
       id="linearGradient2567"
       gradientUnits="userSpaceOnUse"
       gradientTransform="translate(10.58348,-4.067843)"
       x1="-5.75"
       y1="23.84375"
       x2="-2.5719874"
       y2="23.84375" />
    <radialGradient
       inkscape:collect="always"
       xlink:href="#linearGradient3779"
       id="radialGradient3351"
       cx="27.968519"
       cy="6.3994527"
       fx="27.968519"
       fy="6.3994527"
       r="8.3905544"
       gradientTransform="matrix(1.4837569,0.2226039,-0.1145888,0.7637869,-13.061982,-4.7163217)"
       gradientUnits="userSpaceOnUse" />
    <linearGradient
       inkscape:collect="always"
       xlink:href="#linearGradient3779"
       id="linearGradient3371"
       x1="32.054646"
       y1="3.6323936"
       x2="32.908306"
       y2="3.7870731"
       gradientUnits="userSpaceOnUse" />
    <linearGradient
       inkscape:collect="always"
       xlink:href="#linearGradient3779"
       id="linearGradient3373"
       x1="33.203693"
       y1="3.9748983"
       x2="34.057354"
       y2="4.1406264"
       gradientUnits="userSpaceOnUse" />
  </defs>
  <sodipodi:namedview
     id="base"
     pagecolor="#ffffff"
     bordercolor="#666666"
     borderopacity="1.0"
     inkscape:pageopacity="0.0"
     inkscape:pageshadow="2"
     inkscape:zoom="8.0000004"
     inkscape:cx="6.3561264"
     inkscape:cy="15.440909"
     inkscape:current-layer="layer1"
     showgrid="false"
     inkscape:grid-bbox="false"
     inkscape:document-units="px"
     width="40px"
     height="40px"
     inkscape:window-width="1704"
     inkscape:window-height="1027"
     inkscape:window-x="193"
     inkscape:window-y="39">
    <inkscape:grid
       id="GridFromPre046Settings"
       type="xygrid"
       originx="0px"
       originy="0px"
       spacingx="1px"
       spacingy="1px"
       color="#0000ff"
       empcolor="#0000ff"
       opacity="0.2"
       empopacity="0.4"
       empspacing="2" />
  </sodipodi:namedview>
  <metadata
     id="metadata2198">
    <rdf:RDF>
      <cc:Work
         rdf:about="">
        <dc:format>image/svg+xml</dc:format>
        <dc:type
           rdf:resource="http://purl.org/dc/dcmitype/StillImage" />
        <dc:creator>
          <cc:Agent>
            <dc:title>Jarle Akselsen</dc:title>
          </cc:Agent>
        </dc:creator>
        <cc:license
           rdf:resource="http://creativecommons.org/licenses/GPL/2.0/" />
      </cc:Work>
      <cc:License
         rdf:about="http://creativecommons.org/licenses/GPL/2.0/">
        <cc:permits
           rdf:resource="http://web.resource.org/cc/Reproduction" />
        <cc:permits
           rdf:resource="http://web.resource.org/cc/Distribution" />
        <cc:requires
           rdf:resource="http://web.resource.org/cc/Notice" />
        <cc:permits
           rdf:resource="http://web.resource.org/cc/DerivativeWorks" />
        <cc:requires
           rdf:resource="http://web.resource.org/cc/ShareAlike" />
        <cc:requires
           rdf:resource="http://web.resource.org/cc/SourceCode" />
      </cc:License>
    </rdf:RDF>
  </metadata>
  <g
     id="layer1"
     inkscape:label="Layer 1"
     inkscape:groupmode="layer">
    <path
       style="opacity:1;fill:#000000;fill-opacity:1;fill-rule:nonzero;stroke:none;stroke-width:1;stroke-linecap:butt;stroke-linejoin:miter;marker:none;marker-start:none;marker-mid:none;marker-end:none;stroke-miterlimit:4;stroke-dasharray:none;stroke-dashoffset:0;stroke-opacity:1;visibility:visible;display:inline;overflow:visible;enable-background:accumulate"
       d="M 22.062499,12.437501 C 23.344265,4.6880182 19.657158,3.1884101 20.374999,2.7500016 C 21.94207,0.29579713 27.846105,1.7971571 34.499998,3.9375016 C 36.831138,4.4164689 36.363677,9.4749664 37.062498,12.625001 L 36.312498,12.312501 C 35.503548,9.786344 35.975821,5.3383505 33.874999,4.7500016 C 30.560316,3.954168 23.309444,0.32560925 20.749999,3.3125016 C 24.324965,6.2871902 23.149666,8.9100074 22.374999,11.562501 L 22.062499,12.437501 z"
       id="path3339"
       sodipodi:nodetypes="ccccccccc" />
    <path
       sodipodi:nodetypes="ccccccccc"
       id="path3341"
       d="M 22.062499,12.437501 C 23.344265,4.6880182 19.657158,3.1884101 20.374999,2.7500016 C 21.94207,0.29579713 27.846105,1.7971571 34.499998,3.9375016 C 36.831138,4.4164689 36.363677,9.4749664 37.062498,12.625001 L 36.312498,12.312501 C 35.503548,9.786344 35.975821,5.3383505 33.874999,4.7500016 C 30.560316,3.954168 23.309444,0.32560925 20.749999,3.3125016 C 24.324965,6.2871902 23.149666,8.9100074 22.374999,11.562501 L 22.062499,12.437501 z"
       style="opacity:0.35;fill:url(#radialGradient3351);fill-opacity:1;fill-rule:nonzero;stroke:none;stroke-width:1;stroke-linecap:butt;stroke-linejoin:miter;marker:none;marker-start:none;marker-mid:none;marker-end:none;stroke-miterlimit:4;stroke-dasharray:none;stroke-dashoffset:0;stroke-opacity:1;visibility:visible;display:inline;overflow:visible;enable-background:accumulate" />
    <path
       sodipodi:nodetypes="ccccssc"
       id="path6734"
       d="M 9.46875,2.71875 L 7.375,2.78125 C 6.31753,3.2680433 6.26567,5.1288224 7.28125,5.8125 L 9.4375,5.8125 C 9.44785,5.813063 9.45832,5.8125 9.46875,5.8125 C 9.98337,5.8125 10.40625,5.1319555 10.40625,4.28125 C 10.40625,3.4305446 9.98337,2.7187501 9.46875,2.71875 z"
       style="fill:#000000;fill-opacity:1;fill-rule:evenodd;stroke:none;stroke-width:1px;stroke-linecap:butt;stroke-linejoin:miter;marker:none;marker-start:none;marker-mid:none;marker-end:none;stroke-miterlimit:4;stroke-dasharray:none;stroke-dashoffset:0;stroke-opacity:1;visibility:visible;display:inline;overflow:visible;enable-background:accumulate" />
    <path
       style="opacity:0.3;fill:url(#linearGradient8248);fill-opacity:1;fill-rule:evenodd;stroke:none;stroke-width:1px;stroke-linecap:butt;stroke-linejoin:miter;marker:none;marker-start:none;marker-mid:none;marker-end:none;stroke-miterlimit:4;stroke-dasharray:none;stroke-dashoffset:0;stroke-opacity:1;visibility:visible;display:inline;overflow:visible;enable-background:accumulate"
       d="M 7.3744,2.7804006 C 6.31693,3.2671941 6.26961,5.1298049 7.28519,5.8134825 L 9.42619,5.8134825 C 8.91154,5.8134825 8.53408,5.1476471 8.53408,4.2969383 C 8.53408,3.5525715 8.82304,2.9241852 9.24776,2.7804006 L 7.3744,2.7804006 z"
       id="path6736" />
    <path
       id="path6738"
       d="M 9.21875,2.8125 L 7.28125,2.84375 C 7.21566,2.8818306 7.15045,2.9200881 7.09375,2.96875 L 8.96875,2.96875 C 8.97543,2.9617683 8.99319,2.9754388 9,2.96875 C 9.07033,2.8996327 9.13611,2.8471703 9.21875,2.8125 z M 8.875,3.09375 L 6.96875,3.125 C 6.9349,3.1644209 6.90454,3.2067235 6.875,3.25 L 8.78125,3.21875 C 8.80681,3.1732776 8.84615,3.1334527 8.875,3.09375 z M 8.6875,3.4375 L 6.75,3.46875 C 6.73038,3.5108865 6.70384,3.5496548 6.6875,3.59375 L 8.65625,3.5625 C 8.66897,3.5220368 8.67278,3.4756397 8.6875,3.4375 z M 8.59375,3.84375 L 6.625,3.875 C 6.61636,3.9177593 6.59968,3.9564406 6.59375,4 L 8.5625,3.96875 C 8.56783,3.927098 8.58657,3.8840719 8.59375,3.84375 z M 6.5625,4.3125 C 6.56324,4.3640876 6.58934,4.417229 6.59375,4.46875 L 8.53125,4.4375 C 8.52924,4.3942863 8.53125,4.3567835 8.53125,4.3125 L 6.5625,4.3125 z M 8.5625,4.75 L 6.625,4.78125 C 6.63499,4.8235172 6.64364,4.8648223 6.65625,4.90625 L 8.59375,4.875 C 8.58491,4.8356756 8.56947,4.790957 8.5625,4.75 z M 8.6875,5.15625 L 6.78125,5.1875 C 6.80194,5.2292701 6.81995,5.2726553 6.84375,5.3125 L 8.75,5.3125 C 8.72505,5.2646369 8.70862,5.2095122 8.6875,5.15625 z M 8.875,5.46875 L 6.96875,5.5 C 7.00628,5.5469246 7.05093,5.5826926 7.09375,5.625 L 8.96875,5.59375 C 8.93187,5.5580489 8.90798,5.5127662 8.875,5.46875 z M 9.09375,5.71875 L 7.21875,5.75 C 7.24281,5.7685257 7.25586,5.7954081 7.28125,5.8125 L 9.4375,5.8125 C 9.3217,5.8125 9.19292,5.7806873 9.09375,5.71875 z"
       style="opacity:0.40163933;fill:url(#linearGradient8245);fill-opacity:1;fill-rule:evenodd;stroke:none;stroke-width:1px;stroke-linecap:butt;stroke-linejoin:miter;marker:none;marker-start:none;marker-mid:none;marker-end:none;stroke-miterlimit:4;stroke-dasharray:none;stroke-dashoffset:0;stroke-opacity:1;visibility:visible;display:inline;overflow:visible;enable-background:accumulate" />
    <path
       sodipodi:type="arc"
       style="opacity:0.98999999;fill:url(#linearGradient8059);fill-opacity:1;fill-rule:nonzero;stroke:none;stroke-width:0.2;stroke-linecap:round;stroke-linejoin:miter;stroke-miterlimit:4;stroke-dasharray:none;stroke-opacity:1"
       id="path6740"
       sodipodi:cx="-19.045546"
       sodipodi:cy="8.2344732"
       sodipodi:rx="0.40449196"
       sodipodi:ry="0.69710314"
       d="M -18.641054,8.2344732 A 0.40449196,0.69710314 0 1 1 -19.450038,8.2344732 A 0.40449196,0.69710314 0 1 1 -18.641054,8.2344732 z"
       transform="matrix(2.304841,0,0,2.2107675,53.35693,-13.933068)" />
    <path
       id="path6742"
       d="M 7.875,3.375 C 7.75286,3.375 7.64134,3.433288 7.5625,3.5625 C 7.55739,3.5701911 7.56738,3.5856764 7.5625,3.59375 C 7.49119,3.7210301 7.4375,3.9029111 7.4375,4.09375 C 7.4375,4.497553 7.63072,4.84375 7.875,4.84375 C 7.94947,4.84375 8.25047,4.84375 8.34375,4.84375 C 8.35469,4.84375 8.36422,4.8447085 8.375,4.84375 L 8.375,4.875 L 8.125,4.875 L 8.03125,4.9375 L 8.03125,6 L 8.28125,6.09375 L 11.03125,6.09375 L 11.125,5.96875 L 11.125,4.875 L 11.03125,4.875 L 11.03125,4.84375 L 10.75,4.84375 L 10.75,3.4375 L 9.90625,3.4375 L 9.90625,3.46875 L 9.75,3.46875 L 8.75,3.625 C 8.6523,3.4646665 8.50862,3.375 8.34375,3.375 C 8.2445,3.375 7.95692,3.375 7.875,3.375 z"
       style="fill:#000000;fill-opacity:1;fill-rule:evenodd;stroke:none;stroke-width:1px;stroke-linecap:butt;stroke-linejoin:miter;marker:none;marker-start:none;marker-mid:none;marker-end:none;stroke-miterlimit:4;stroke-dasharray:none;stroke-dashoffset:0;stroke-opacity:1;visibility:visible;display:inline;overflow:visible;enable-background:accumulate" />
    <path
       sodipodi:type="arc"
       style="opacity:0.38139535;fill:url(#radialGradient8061);fill-opacity:1;fill-rule:nonzero;stroke:none;stroke-width:0;stroke-linecap:round;stroke-linejoin:round;stroke-miterlimit:4;stroke-dasharray:none;stroke-dashoffset:4;stroke-opacity:1"
       id="path6744"
       sodipodi:cx="63.912209"
       sodipodi:cy="115.70919"
       sodipodi:rx="63.912209"
       sodipodi:ry="12.641975"
       d="M 127.82442,115.70919 A 63.912209,12.641975 0 1 1 0,115.70919 A 63.912209,12.641975 0 1 1 127.82442,115.70919 z"
       transform="matrix(0.1824931,0,0,0.2203865,2.89064,11.792459)" />
    <path
       sodipodi:nodetypes="csccsssssccscc"
       id="path6746"
       d="M 8.42723,6.088407 C 8.22289,6.375687 8.27098,6.452324 8.27098,6.463407 C 8.27098,6.475043 8.3143,6.484021 8.33348,6.494657 C 6.92531,6.679304 5.76201,7.130538 5.20848,7.713407 C 4.96116,7.949545 4.83348,8.21963 4.83348,8.494657 C 4.83348,8.956976 4.83348,36.541999 4.83348,36.807157 C 4.83348,38.259299 7.02422,39.463408 9.70848,39.463407 C 12.39274,39.463407 14.55223,38.259299 14.55223,36.807157 C 14.55223,36.541999 14.55223,9.062566 14.55223,8.494657 C 14.55223,8.21963 14.42162,7.949545 14.17723,7.713407 C 13.61978,7.126405 12.49686,6.676735 11.08348,6.494657 C 11.10266,6.484021 11.14598,6.475043 11.14598,6.463407 C 11.14598,6.452324 11.12361,6.312159 10.98973,6.088407 L 8.42723,6.088407 z"
       style="fill:#e3ad00;fill-opacity:1;fill-rule:nonzero;stroke:none;stroke-width:0.2;stroke-linecap:round;stroke-linejoin:miter;stroke-miterlimit:4;stroke-dasharray:none;stroke-opacity:1" />
    <path
       sodipodi:nodetypes="cssssssscccsssssccsssc"
       id="path6748"
       d="M 8.42723,6.088407 C 8.22289,6.375687 8.27098,6.452324 8.27098,6.463407 C 8.27098,6.475043 8.3143,6.484021 8.33348,6.494657 C 8.4006,6.531882 8.56197,6.566463 8.80223,6.588407 C 9.04249,6.610351 9.36162,6.619657 9.70848,6.619657 C 10.05534,6.619657 10.37447,6.610351 10.61473,6.588407 C 10.85499,6.566463 11.01636,6.531882 11.08348,6.494657 C 11.10266,6.484021 11.14598,6.475043 11.14598,6.463407 C 11.14598,6.452324 11.12361,6.312159 10.98973,6.088407 L 8.42723,6.088407 z M 4.92723,8.150907 C 4.8813,8.264275 4.83348,8.37723 4.83348,8.494657 C 4.83348,8.956976 4.86473,35.576981 4.86473,35.619657 C 4.86473,35.729668 4.89419,35.828416 4.95848,35.932157 C 5.02277,36.035898 5.11753,36.149323 5.23973,36.244657 C 5.97291,36.816661 7.69528,37.213406 9.70848,37.213407 C 12.29116,37.213407 14.39589,36.547357 14.55223,35.713407 C 14.55223,33.607914 14.55223,9.797232 14.55223,8.775907 C 14.40625,9.114049 12.29879,9.400907 9.70848,9.400907 C 7.02422,9.400907 4.86473,9.099047 4.86473,8.744657 C 4.86473,8.690311 4.86473,8.527984 4.86473,8.494657 C 4.86473,8.375685 4.88312,8.264119 4.92723,8.150907 z"
       style="opacity:0.48770525;fill:url(#linearGradient8238);fill-opacity:1;fill-rule:nonzero;stroke:none;stroke-width:0.2;stroke-linecap:round;stroke-linejoin:miter;stroke-miterlimit:4;stroke-dasharray:none;stroke-opacity:1" />
    <path
       id="path6750"
       d="M 4.86473,35.932157 C 4.8558,36.248198 4.83348,36.79265 4.83348,36.807157 C 4.83348,37.511309 5.37176,38.141156 6.20848,38.619657 C 6.23453,38.634552 6.24432,38.66759 6.27098,38.682157 C 6.53081,38.888407 6.77011,39.088139 6.89598,39.369657 L 7.42723,39.650907 C 7.8587,39.513344 8.27014,39.403195 8.58348,39.369657 C 8.60378,39.372342 8.62558,39.367113 8.64598,39.369657 C 8.99277,39.412907 9.33849,39.463407 9.70848,39.463407 C 10.29896,39.463407 10.84244,39.382263 11.36473,39.275907 C 11.5883,39.350485 11.79665,39.452843 11.98973,39.588407 L 12.58348,39.400907 C 12.74848,39.112397 13.04154,38.845667 13.36473,38.557157 C 14.10887,38.088636 14.55223,37.469868 14.55223,36.807157 C 14.55223,36.797873 14.55223,36.34977 14.55223,36.025907 C 14.39589,36.859858 12.29116,37.619657 9.70848,37.619657 C 7.02422,37.619656 4.86473,36.812243 4.86473,35.932157 z"
       style="fill:#e3ad00;fill-opacity:1;fill-rule:evenodd;stroke:none;stroke-width:1px;stroke-linecap:butt;stroke-linejoin:miter;marker:none;marker-start:none;marker-mid:none;marker-end:none;stroke-miterlimit:4;stroke-dasharray:none;stroke-dashoffset:0;stroke-opacity:1;visibility:visible;display:inline;overflow:visible;enable-background:accumulate" />
    <path
       style="opacity:0.65;fill:url(#radialGradient8234);fill-opacity:1;fill-rule:nonzero;stroke:none;stroke-width:0.2;stroke-linecap:round;stroke-linejoin:miter;stroke-miterlimit:4;stroke-dasharray:none;stroke-opacity:1"
       d="M 4.83348,36.807157 C 4.83348,38.259299 7.02422,39.463408 9.70848,39.463407 C 12.39274,39.463407 14.55223,38.259299 14.55223,36.807157 C 14.55223,36.794159 14.55223,35.823395 14.55223,35.713407 C 14.39589,36.547357 12.29116,37.213407 9.70848,37.213407 C 7.02422,37.213406 4.86473,36.499743 4.86473,35.619657 C 4.86473,35.457376 4.83348,36.787474 4.83348,36.807157 z"
       id="path6752"
       sodipodi:nodetypes="csscsss" />
    <path
       sodipodi:nodetypes="cssscc"
       id="path6754"
       d="M 10.96324,6.075506 C 11.16758,6.362786 11.11473,6.452324 11.11473,6.463407 C 11.11473,6.556493 10.47004,6.619657 9.67723,6.619657 C 8.88441,6.619657 8.23973,6.556493 8.23973,6.463407 C 8.23973,6.452324 8.25734,6.299258 8.39122,6.075506 L 10.96324,6.075506 z"
       style="opacity:0.35;fill:url(#linearGradient8231);fill-opacity:1;fill-rule:nonzero;stroke:none;stroke-width:0.2;stroke-linecap:round;stroke-linejoin:miter;stroke-miterlimit:4;stroke-dasharray:none;stroke-opacity:1" />
    <path
       sodipodi:nodetypes="ccccc"
       id="path6756"
       d="M 8.15737,4.902587 C 8.48238,4.884993 8.86437,4.840319 9.12987,5.010038 L 9.12987,5.949592 C 8.86988,6.157301 8.48161,6.060649 8.15737,6.029748 L 8.15737,4.902587 z"
       style="fill:#dddddd;fill-opacity:1;fill-rule:nonzero;stroke:none;stroke-width:0.2;stroke-linecap:round;stroke-linejoin:miter;stroke-miterlimit:4;stroke-opacity:1" />
    <path
       sodipodi:nodetypes="ccccc"
       id="path6758"
       d="M 10.89414,5.010038 L 11.07487,5.058722 L 11.07487,5.948115 L 10.89414,5.948115 L 10.89414,5.010038 z"
       style="fill:#bbbbbb;fill-opacity:1;fill-rule:nonzero;stroke:none;stroke-width:0.2;stroke-linecap:round;stroke-linejoin:miter;stroke-miterlimit:4;stroke-opacity:1" />
    <path
       sodipodi:nodetypes="ccccc"
       id="path6760"
       d="M 9.52098,5.029082 C 9.42967,5.041042 9.33104,5.014519 9.23973,5.025907 L 9.23973,5.963407 C 9.33095,5.965594 9.42976,5.951666 9.52098,5.954801 L 9.52098,5.029082 z"
       style="fill:#bbbbbb;fill-opacity:1;fill-rule:nonzero;stroke:none;stroke-width:0.2;stroke-linecap:round;stroke-linejoin:miter;stroke-miterlimit:4;stroke-opacity:1" />
    <path
       sodipodi:nodetypes="cccccc"
       id="path6762"
       d="M 10.05223,4.932157 C 9.87962,4.944209 9.69359,5.015079 9.52098,5.037688 L 9.52098,5.946195 C 9.99577,6.037525 10.39879,6.033942 10.83348,5.963407 L 10.83348,4.994657 C 10.56956,4.939668 10.31615,4.913729 10.05223,4.932157 z"
       style="fill:#888888;fill-opacity:1;fill-rule:nonzero;stroke:none;stroke-width:0.2;stroke-linecap:round;stroke-linejoin:miter;stroke-miterlimit:4;stroke-opacity:1" />
    <path
       sodipodi:nodetypes="ccccccsccc"
       id="path6764"
       d="M 9.11473,4.869657 L 9.11473,4.994657 L 9.11473,5.963407 L 9.11473,6.015381 C 9.11473,6.015381 9.33095,5.965594 9.23973,5.963407 L 9.23973,5.025907 C 9.33104,5.014519 9.42967,5.037866 9.52098,5.025907 C 9.64262,5.009974 9.77041,4.986344 9.89598,4.963407 L 9.89598,4.869657 L 9.11473,4.869657 z"
       style="fill:url(#linearGradient8224);fill-opacity:1;fill-rule:nonzero;stroke:none;stroke-width:0.2;stroke-linecap:round;stroke-linejoin:miter;stroke-miterlimit:4;stroke-dasharray:none;stroke-opacity:1" />
    <path
       id="path6766"
       d="M 10.83348,4.994657 L 10.83348,5.963407 L 10.89598,5.963407 L 10.89598,4.994657 L 10.83348,4.994657 z"
       style="fill:url(#linearGradient8221);fill-opacity:1;fill-rule:nonzero;stroke:none;stroke-width:0.2;stroke-linecap:round;stroke-linejoin:miter;stroke-miterlimit:4;stroke-opacity:1" />
    <path
       id="path6768"
       d="M 12.08348,3.525907 C 12.50796,3.534663 12.90133,3.573435 13.27098,3.619657 C 12.90106,3.573437 12.50723,3.534648 12.08348,3.525907 z"
       style="fill:url(#linearGradient8218);fill-opacity:1;fill-rule:evenodd;stroke:none;stroke-width:1.10000002;stroke-linecap:butt;stroke-linejoin:miter;marker:none;stroke-miterlimit:4;stroke-dasharray:none;stroke-dashoffset:0;stroke-opacity:1;visibility:visible;display:inline;overflow:visible;enable-background:accumulate" />
    <path
       id="path6770"
       d="M 14.30223,3.807157 C 14.60114,3.886641 14.88701,3.973678 15.14598,4.088407 C 14.88834,3.974982 14.59928,3.886054 14.30223,3.807157 z"
       style="fill:url(#linearGradient8215);fill-opacity:1;fill-rule:evenodd;stroke:none;stroke-width:1.10000002;stroke-linecap:butt;stroke-linejoin:miter;marker:none;stroke-miterlimit:4;stroke-dasharray:none;stroke-dashoffset:0;stroke-opacity:1;visibility:visible;display:inline;overflow:visible;enable-background:accumulate" />
    <path
       id="path6772"
       d="M 15.05223,19.713407 C 14.71881,20.82516 14.43997,21.980839 14.36473,23.213407 C 14.44029,21.975618 14.71041,20.82853 15.05223,19.713407 z"
       style="fill:url(#linearGradient8212);fill-opacity:1;fill-rule:evenodd;stroke:none;stroke-width:1.10000002;stroke-linecap:butt;stroke-linejoin:miter;marker:none;stroke-miterlimit:4;stroke-dasharray:none;stroke-dashoffset:0;stroke-opacity:1;visibility:visible;display:inline;overflow:visible;enable-background:accumulate" />
    <path
       id="path6774"
       d="M 9.89598,3.463407 L 9.89598,4.869657 L 8.36473,4.869657 L 8.39598,3.650907 L 9.73973,3.463407 L 9.89598,3.463407 z"
       style="opacity:0.52427183;fill:#dddddd;fill-opacity:1;fill-rule:evenodd;stroke:none;stroke-width:1px;stroke-linecap:butt;stroke-linejoin:miter;marker:none;marker-start:none;marker-mid:none;marker-end:none;stroke-miterlimit:4;stroke-dasharray:none;stroke-dashoffset:0;stroke-opacity:1;visibility:visible;display:inline;overflow:visible;enable-background:accumulate" />
    <path
       id="path6776"
       d="M 10.73973,3.432157 L 10.73973,4.869657 L 9.89598,4.869657 L 9.89598,3.432157 L 10.73973,3.432157 z"
       style="opacity:0.52427183;fill:#888888;fill-opacity:1;fill-rule:evenodd;stroke:none;stroke-width:1px;stroke-linecap:butt;stroke-linejoin:miter;marker:none;marker-start:none;marker-mid:none;marker-end:none;stroke-miterlimit:4;stroke-dasharray:none;stroke-dashoffset:0;stroke-opacity:1;visibility:visible;display:inline;overflow:visible;enable-background:accumulate" />
    <path
       style="fill:#000000;fill-opacity:1;fill-rule:nonzero;stroke:none;stroke-width:0.2;stroke-linecap:round;stroke-linejoin:miter;stroke-miterlimit:4;stroke-dasharray:none;stroke-opacity:1"
       d="M 8.33348,3.369657 C 8.62526,3.369657 8.86473,3.684603 8.86473,4.088407 C 8.86473,4.492211 8.62526,4.838407 8.33348,4.838407 C 8.2402,4.838407 7.9392,4.838407 7.86473,4.838407 C 7.62045,4.838407 7.42723,4.49221 7.42723,4.088407 C 7.42723,3.684603 7.62045,3.369657 7.86473,3.369657 C 7.94665,3.369657 8.23423,3.369657 8.33348,3.369657 z"
       id="path6778"
       sodipodi:nodetypes="csssssc" />
    <path
       transform="matrix(-1.0940374,0,0,1.0493828,-12.97155,-4.543333)"
       d="M -18.641054,8.2344732 A 0.40449196,0.69710314 0 1 1 -19.450038,8.2344732 A 0.40449196,0.69710314 0 1 1 -18.641054,8.2344732 z"
       sodipodi:ry="0.69710314"
       sodipodi:rx="0.40449196"
       sodipodi:cy="8.2344732"
       sodipodi:cx="-19.045546"
       id="path6780"
       style="fill:#888a85;fill-opacity:1;fill-rule:nonzero;stroke:none;stroke-width:0.2;stroke-linecap:round;stroke-linejoin:miter;stroke-miterlimit:4;stroke-dasharray:none;stroke-opacity:1"
       sodipodi:type="arc" />
    <path
       sodipodi:type="arc"
       style="opacity:0.98999999;fill:#ffffff;fill-opacity:1;fill-rule:nonzero;stroke:none;stroke-width:0.2;stroke-linecap:round;stroke-linejoin:miter;stroke-miterlimit:4;stroke-dasharray:none;stroke-opacity:1"
       id="path6782"
       sodipodi:cx="-19.045546"
       sodipodi:cy="8.2344732"
       sodipodi:rx="0.40449196"
       sodipodi:ry="0.69710314"
       d="M -18.641054,8.2344732 A 0.40449196,0.69710314 0 1 1 -19.450038,8.2344732 A 0.40449196,0.69710314 0 1 1 -18.641054,8.2344732 z"
       transform="matrix(-0.9395848,0,0,0.9012344,-10.04714,-3.323412)" />
    <path
       style="opacity:0.67661689;fill:url(#linearGradient8204);fill-opacity:1;fill-rule:nonzero;stroke:none;stroke-width:0.2;stroke-linecap:round;stroke-linejoin:miter;stroke-miterlimit:4;stroke-dasharray:none;stroke-opacity:1"
       d="M 8.33348,3.369657 C 8.62526,3.369657 8.86473,3.684603 8.86473,4.088407 C 8.86473,4.492211 8.62526,4.838407 8.33348,4.838407 C 8.2402,4.838407 7.9392,4.838407 7.86473,4.838407 C 8.10901,4.838407 8.30223,4.492211 8.30223,4.088407 C 8.30223,3.684603 8.10901,3.369657 7.86473,3.369657 C 7.94665,3.369657 8.23423,3.369657 8.33348,3.369657 z"
       id="path6784" />
    <path
       id="path6786"
       d="M 9.39598,3.619657 C 9.76642,3.790183 9.78299,4.442662 9.42723,4.682157 L 8.64598,4.682157 C 8.77721,4.549007 8.86473,4.330689 8.86473,4.088407 C 8.86473,3.903589 8.82151,3.748473 8.73973,3.619657 L 9.39598,3.619657 z"
       style="opacity:0.52427183;fill:url(#linearGradient8201);fill-opacity:1;fill-rule:evenodd;stroke:none;stroke-width:1px;stroke-linecap:butt;stroke-linejoin:miter;marker:none;marker-start:none;marker-mid:none;marker-end:none;stroke-miterlimit:4;stroke-dasharray:none;stroke-dashoffset:0;stroke-opacity:1;visibility:visible;display:inline;overflow:visible;enable-background:accumulate" />
    <path
       id="path6788"
       d="M 7.86473,3.369657 C 8.10901,3.369657 8.30223,3.684604 8.30223,4.088407 C 8.30223,4.49221 8.10901,4.838407 7.86473,4.838407 C 7.62045,4.838407 7.42723,4.49221 7.42723,4.088407 C 7.42723,3.684604 7.62045,3.369657 7.86473,3.369657 z M 7.83348,3.463407 C 7.62369,3.463407 7.45848,3.741611 7.45848,4.088407 C 7.45848,4.435203 7.62369,4.713407 7.83348,4.713407 C 8.04327,4.713407 8.23973,4.435203 8.23973,4.088407 C 8.23973,3.741611 8.04327,3.463407 7.83348,3.463407 z"
       style="fill:#d3d7cf;fill-opacity:1;fill-rule:nonzero;stroke:none;stroke-width:0.2;stroke-linecap:round;stroke-linejoin:miter;stroke-miterlimit:4;stroke-dasharray:none;stroke-opacity:1" />
    <path
       id="path6790"
       d="M 8.05223,3.775907 C 8.09457,3.775907 8.14028,3.793213 8.17723,3.807157 C 8.18175,3.821564 8.20463,3.823376 8.20848,3.838407 C 8.22298,3.895062 8.23587,3.962219 8.23973,4.025907 C 8.18705,3.992434 8.14426,3.963407 8.08348,3.963407 C 7.93856,3.963407 7.81203,4.066118 7.73973,4.213407 L 7.67723,4.150907 C 7.71699,3.932979 7.86176,3.775907 8.05223,3.775907 z"
       style="opacity:0.52238805;fill:#bf0303;fill-opacity:1;fill-rule:nonzero;stroke:none;stroke-width:0.2;stroke-linecap:round;stroke-linejoin:miter;stroke-miterlimit:4;stroke-dasharray:none;stroke-opacity:1" />
    <path
       id="path6792"
       d="M 8.11473,3.775907 L 8.11473,3.963407 C 8.10518,3.961807 8.09396,3.963407 8.08348,3.963407 C 7.99083,3.963407 7.93298,4.019631 7.86473,4.088407 L 7.77098,3.963407 C 7.83983,3.854287 7.92656,3.775907 8.05223,3.775907 C 8.07215,3.775907 8.09458,3.770396 8.11473,3.775907 z"
       style="fill:#00892c;fill-opacity:1;fill-rule:nonzero;stroke:none;stroke-width:0.2;stroke-linecap:round;stroke-linejoin:miter;stroke-miterlimit:4;stroke-dasharray:none;stroke-opacity:1" />
    <path
       id="path6794"
       d="M 7.89598,3.678982 L 7.98973,4.428982 C 8.03724,4.428982 8.05223,4.465725 8.05223,4.522732 C 8.05223,4.541735 8.05621,4.566714 8.05223,4.585232 C 8.05024,4.594492 8.05546,4.608441 8.05223,4.616482 C 8.03656,4.632229 8.00678,4.635805 7.98973,4.647732 C 7.94222,4.647732 7.89598,4.57974 7.89598,4.522732 C 7.89598,4.482827 7.93085,4.477426 7.95848,4.460232 L 7.86473,3.710232 L 7.89598,3.678982 z"
       style="fill:#2e3436;fill-opacity:1;fill-rule:nonzero;stroke:none;stroke-width:0.2;stroke-linecap:round;stroke-linejoin:miter;stroke-miterlimit:4;stroke-dasharray:none;stroke-opacity:1" />
    <path
       id="path6796"
       d="M 7.83348,3.463407 C 7.86422,3.463407 7.89859,3.483247 7.92723,3.494657 C 7.75575,3.57487 7.61473,3.807383 7.61473,4.088407 C 7.61473,4.348504 7.74414,4.586741 7.89598,4.682157 C 7.87483,4.688199 7.85567,4.713407 7.83348,4.713407 C 7.62369,4.713407 7.45848,4.435203 7.45848,4.088407 C 7.45848,3.741611 7.62369,3.463407 7.83348,3.463407 z"
       style="opacity:0.98999999;fill:url(#linearGradient8194);fill-opacity:1;fill-rule:nonzero;stroke:none;stroke-width:0.2;stroke-linecap:round;stroke-linejoin:miter;stroke-miterlimit:4;stroke-dasharray:none;stroke-opacity:1" />
    <path
       sodipodi:nodetypes="cssssscsc"
       id="path6798"
       d="M 8.33348,6.494657 C 6.3351,6.752161 4.86473,7.542882 4.86473,8.494657 C 4.86473,8.527984 4.86473,8.690311 4.86473,8.744657 C 4.86473,9.099047 7.02422,9.400907 9.70848,9.400907 C 12.39274,9.400907 14.58348,9.099046 14.58348,8.744657 C 14.58348,8.694421 14.58348,8.525072 14.58348,8.494657 C 14.58348,7.54074 13.09638,6.750305 11.08348,6.494657 C 10.94925,6.569107 10.4022,6.619657 9.70848,6.619657 C 9.01477,6.619657 8.46772,6.569107 8.33348,6.494657 z"
       style="opacity:0.25;fill:url(#radialGradient8191);fill-opacity:1;fill-rule:nonzero;stroke:none;stroke-width:0.2;stroke-linecap:round;stroke-linejoin:miter;stroke-miterlimit:4;stroke-dasharray:none;stroke-opacity:1" />
    <path
       sodipodi:nodetypes="cssssssscccsssssccsssc"
       id="path6800"
       d="M 8.42723,6.088407 C 8.22289,6.375687 8.27098,6.452324 8.27098,6.463407 C 8.27098,6.475043 8.3143,6.484021 8.33348,6.494657 C 8.4006,6.531882 8.56197,6.566463 8.80223,6.588407 C 9.04249,6.610351 9.36162,6.619657 9.70848,6.619657 C 10.05534,6.619657 10.37447,6.610351 10.61473,6.588407 C 10.85499,6.566463 11.01636,6.531882 11.08348,6.494657 C 11.10266,6.484021 11.14598,6.475043 11.14598,6.463407 C 11.14598,6.452324 11.12361,6.312159 10.98973,6.088407 L 8.42723,6.088407 z M 4.92723,8.150907 C 4.8813,8.264275 4.83348,8.37723 4.83348,8.494657 C 4.83348,8.956976 4.86473,35.576981 4.86473,35.619657 C 4.86473,35.729668 4.89419,35.828416 4.95848,35.932157 C 5.02277,36.035898 5.11753,36.149323 5.23973,36.244657 C 5.97291,36.816661 7.69528,37.213406 9.70848,37.213407 C 12.29116,37.213407 14.39589,36.547357 14.55223,35.713407 C 14.55223,33.607914 14.55223,9.797232 14.55223,8.775907 C 14.40625,9.114049 12.29879,9.400907 9.70848,9.400907 C 7.02422,9.400907 4.86473,9.099047 4.86473,8.744657 C 4.86473,8.690311 4.86473,8.527984 4.86473,8.494657 C 4.86473,8.375685 4.88312,8.264119 4.92723,8.150907 z"
       style="fill:url(#linearGradient8188);fill-opacity:1;fill-rule:nonzero;stroke:none;stroke-width:0.2;stroke-linecap:round;stroke-linejoin:miter;stroke-miterlimit:4;stroke-dasharray:none;stroke-opacity:1" />
    <path
       id="path6802"
       d="M 11.45848,3.557157 C 11.0688,3.684944 11.08028,4.588769 11.45848,4.650907 C 11.09451,4.657898 10.75367,4.649793 10.33348,4.682157 C 9.92684,4.396603 10.03682,4.002288 10.23973,3.588407 C 10.68367,3.554214 11.06199,3.563917 11.45848,3.557157 z"
       style="fill:url(#linearGradient8185);fill-opacity:1;fill-rule:evenodd;stroke:none;stroke-width:1.10000002;stroke-linecap:butt;stroke-linejoin:miter;marker:none;stroke-miterlimit:4;stroke-dasharray:none;stroke-dashoffset:0;stroke-opacity:1;visibility:visible;display:inline;overflow:visible;enable-background:accumulate" />
    <path
       transform="matrix(-0.9395848,0,0,0.9012344,-10.04714,-3.323412)"
       d="M -18.641054,8.2344732 A 0.40449196,0.69710314 0 1 1 -19.450038,8.2344732 A 0.40449196,0.69710314 0 1 1 -18.641054,8.2344732 z"
       sodipodi:ry="0.69710314"
       sodipodi:rx="0.40449196"
       sodipodi:cy="8.2344732"
       sodipodi:cx="-19.045546"
       id="path6804"
       style="opacity:0.5;fill:url(#radialGradient8091);fill-opacity:1;fill-rule:nonzero;stroke:none;stroke-width:0.2;stroke-linecap:round;stroke-linejoin:miter;stroke-miterlimit:4;stroke-dasharray:none;stroke-opacity:1"
       sodipodi:type="arc" />
    <path
       id="path6806"
       d="M 4.86473,35.619657 C 4.86473,35.576981 4.86792,35.819391 4.86473,35.932157 C 4.86473,36.812243 7.02422,37.619656 9.70848,37.619657 C 12.29116,37.619657 14.39589,36.859858 14.55223,36.025907 C 14.55223,35.896362 14.55223,35.744832 14.55223,35.713407 C 14.39589,36.547357 12.29116,37.213407 9.70848,37.213407 C 7.02422,37.213406 4.86473,36.499743 4.86473,35.619657 z"
       style="opacity:0.12295083;fill:url(#radialGradient8181);fill-opacity:1;fill-rule:nonzero;stroke:none;stroke-width:0.2;stroke-linecap:round;stroke-linejoin:miter;stroke-miterlimit:4;stroke-dasharray:none;stroke-opacity:1" />
    <path
       sodipodi:nodetypes="ccccccccc"
       id="path6808"
       d="M 10.55223,6.213407 L 10.67723,6.713407 C 11.49421,7.170422 12.50955,6.80098 12.86473,9.182157 C 12.6602,13.103633 13.76837,21.260255 13.42723,24.479032 L 14.05223,27.213407 C 14.04291,22.195262 13.72134,15.215232 13.73973,10.150907 C 13.81305,8.403368 13.33998,6.979616 11.17723,6.557157 L 10.89598,6.182157 L 10.55223,6.213407 z"
       style="opacity:0.3;fill:url(#radialGradient8178);fill-opacity:1;fill-rule:nonzero;stroke:none;stroke-width:1;stroke-linecap:butt;stroke-linejoin:miter;marker:none;marker-start:none;marker-mid:none;marker-end:none;stroke-miterlimit:4;stroke-dasharray:none;stroke-dashoffset:0;stroke-opacity:1;visibility:visible;display:inline;overflow:visible;enable-background:accumulate" />
    <path
       style="opacity:0.25;fill:url(#radialGradient8175);fill-opacity:1;fill-rule:nonzero;stroke:none;stroke-width:0.2;stroke-linecap:round;stroke-linejoin:miter;stroke-miterlimit:4;stroke-dasharray:none;stroke-opacity:1"
       d="M 8.33348,6.494657 C 6.3351,6.752161 4.86473,7.542882 4.86473,8.494657 C 4.86473,8.527984 4.86473,8.690311 4.86473,8.744657 C 4.86473,9.099047 7.02422,9.400907 9.70848,9.400907 C 12.39274,9.400907 14.58348,9.099046 14.58348,8.744657 C 14.58348,8.694421 14.58348,8.525072 14.58348,8.494657 C 14.58348,7.54074 13.09638,6.750305 11.08348,6.494657 C 10.94925,6.569107 10.4022,6.619657 9.70848,6.619657 C 9.01477,6.619657 8.46772,6.569107 8.33348,6.494657 z"
       id="path6810"
       sodipodi:nodetypes="cssssscsc" />
    <path
       id="path6812"
       d="M 13.36473,38.557157 C 12.83698,38.889431 12.13318,39.119424 11.36473,39.275907 C 11.5883,39.350485 11.79665,39.452843 11.98973,39.588407 L 12.58348,39.400907 C 12.74848,39.112397 13.04154,38.845667 13.36473,38.557157 z M 6.27098,38.682157 C 6.53081,38.888407 6.77011,39.088139 6.89598,39.369657 L 7.42723,39.650907 C 7.8587,39.513344 8.27014,39.403195 8.58348,39.369657 C 7.69691,39.252428 6.89639,39.023851 6.27098,38.682157 z"
       style="fill:url(#linearGradient8172);fill-opacity:1;fill-rule:evenodd;stroke:none;stroke-width:1px;stroke-linecap:butt;stroke-linejoin:miter;marker:none;marker-start:none;marker-mid:none;marker-end:none;stroke-miterlimit:4;stroke-dasharray:none;stroke-dashoffset:0;stroke-opacity:1;visibility:visible;display:inline;overflow:visible;enable-background:accumulate" />
    <path
       sodipodi:nodetypes="cssssscsc"
       id="path6814"
       d="M 8.33348,6.494657 C 6.3351,6.752161 4.86473,7.542882 4.86473,8.494657 C 4.86473,8.527984 4.86473,8.690311 4.86473,8.744657 C 4.86473,9.099047 7.02422,9.400907 9.70848,9.400907 C 12.39274,9.400907 14.58348,9.099046 14.58348,8.744657 C 14.58348,8.694421 14.58348,8.525072 14.58348,8.494657 C 14.58348,7.54074 13.09638,6.750305 11.08348,6.494657 C 10.94925,6.569107 10.4022,6.619657 9.70848,6.619657 C 9.01477,6.619657 8.46772,6.569107 8.33348,6.494657 z"
       style="opacity:0.3;fill:url(#radialGradient8169);fill-opacity:1;fill-rule:nonzero;stroke:none;stroke-width:0.2;stroke-linecap:round;stroke-linejoin:miter;stroke-miterlimit:4;stroke-dasharray:none;stroke-opacity:1" />
    <path
       sodipodi:nodetypes="ccccccccc"
       id="path6816"
       d="M 8.33348,6.619657 L 8.19286,6.775907 C 8.74621,6.79142 9.28779,6.75981 9.88036,6.932157 C 10.01511,7.005407 10.21257,7.0473 10.19286,7.197782 C 11.10632,7.12206 12.00836,7.092007 12.88036,7.182157 C 12.81473,6.928369 12.02697,6.838703 11.05223,6.791532 L 11.16161,6.619657 L 11.00536,6.494657 C 10.26353,6.714878 9.27229,6.635814 8.33348,6.619657 z"
       style="opacity:0.36475411;fill:url(#radialGradient8166);fill-opacity:1;fill-rule:nonzero;stroke:none;stroke-width:1;stroke-linecap:butt;stroke-linejoin:miter;marker:none;marker-start:none;marker-mid:none;marker-end:none;stroke-miterlimit:4;stroke-dasharray:none;stroke-dashoffset:0;stroke-opacity:1;visibility:visible;display:inline;overflow:visible;enable-background:accumulate" />
    <path
       sodipodi:nodetypes="cccc"
       id="path6818"
       d="M 8.92723,7.460143 C 9.39254,7.456598 9.82515,7.518476 10.20333,7.689189 C 10.67448,7.622585 11.19575,7.656255 11.70848,7.672828 C 11.21653,7.336019 10.20243,7.318302 8.92723,7.460143 z"
       style="opacity:0.5;fill:url(#radialGradient8163);fill-opacity:1;fill-rule:nonzero;stroke:none;stroke-width:1;stroke-linecap:butt;stroke-linejoin:miter;marker:none;marker-start:none;marker-mid:none;marker-end:none;stroke-miterlimit:4;stroke-dasharray:none;stroke-dashoffset:0;stroke-opacity:1;visibility:visible;display:inline;overflow:visible;enable-background:accumulate" />
    <path
       style="opacity:0.35;fill:url(#radialGradient8160);fill-opacity:1;fill-rule:nonzero;stroke:none;stroke-width:1;stroke-linecap:butt;stroke-linejoin:miter;marker:none;marker-start:none;marker-mid:none;marker-end:none;stroke-miterlimit:4;stroke-dasharray:none;stroke-dashoffset:0;stroke-opacity:1;visibility:visible;display:inline;overflow:visible;enable-background:accumulate"
       d="M 6.81996,8.116354 C 7.09314,8.223056 7.35906,8.505922 8.23669,8.462587 C 8.51252,8.484042 8.65098,8.495427 9.06215,8.336851 C 8.5077,8.320354 8.26704,8.380762 6.81996,8.116354 z"
       id="path6820"
       sodipodi:nodetypes="cccc" />
    <path
       style="fill:url(#linearGradient8157);fill-opacity:1;fill-rule:evenodd;stroke:none;stroke-width:1.10000002;stroke-linecap:butt;stroke-linejoin:miter;marker:none;stroke-miterlimit:4;stroke-dasharray:none;stroke-dashoffset:0;stroke-opacity:1;visibility:visible;display:inline;overflow:visible;enable-background:accumulate"
       d="M 14.30606,23.936422 C 14.31482,24.360902 14.35359,24.754272 14.39981,25.123922 C 14.35359,24.754002 14.3148,24.360172 14.30606,23.936422 z"
       id="path6822" />
    <path
       style="fill:url(#linearGradient8154);fill-opacity:1;fill-rule:evenodd;stroke:none;stroke-width:1.10000002;stroke-linecap:butt;stroke-linejoin:miter;marker:none;stroke-miterlimit:4;stroke-dasharray:none;stroke-dashoffset:0;stroke-opacity:1;visibility:visible;display:inline;overflow:visible;enable-background:accumulate"
       d="M 14.58731,26.155172 C 14.6668,26.454082 14.75383,26.739952 14.86856,26.998922 C 14.75514,26.741282 14.66621,26.452222 14.58731,26.155172 z"
       id="path6824" />
    <path
       id="path6828"
       d="M 12.09375,3.53125 C 11.90212,3.527297 11.67225,3.55903 11.46875,3.5625 C 11.42925,3.5754515 11.40364,3.5970638 11.375,3.625 C 11.36367,3.6342167 11.35405,3.6454991 11.34375,3.65625 C 11.32141,3.6844208 11.29701,3.7140739 11.28125,3.75 C 11.27357,3.7640112 11.25666,3.7662372 11.25,3.78125 C 11.22553,3.8469054 11.2295,3.9241029 11.21875,4 C 11.20979,4.0632173 11.18362,4.1237631 11.1875,4.1875 C 11.19488,4.308724 11.22934,4.4142281 11.28125,4.5 C 11.30787,4.5465844 11.33617,4.5659033 11.375,4.59375 C 11.41613,4.6269261 11.44347,4.6536757 11.5,4.65625 C 13.34332,4.624212 14.54158,4.885904 15.3125,5.4375 C 16.23923,6.100576 16.74816,7.1954 17.15625,8.84375 C 17.8372,11.594229 17.09303,13.960995 16.1875,16.4375 C 15.41527,18.549437 14.52678,20.732386 14.375,23.21875 C 14.3362,23.445646 14.30855,23.74587 14.3125,23.9375 C 14.34746,25.63252 14.67689,26.88049 15.34375,27.8125 C 16.23289,29.05518 17.63825,29.63253 19.375,30.0625 C 22.44545,30.822662 25.0825,29.98074 27.59375,29.0625 C 29.74247,28.27682 31.82021,27.44399 34.09375,27.3125 C 34.12899,27.282661 34.14283,27.20405 34.15625,27.125 C 34.15715,27.115776 34.15561,27.103415 34.15625,27.09375 C 34.16584,27.016154 34.16193,26.937758 34.15625,26.84375 C 34.15222,26.777004 34.13556,26.722204 34.125,26.65625 C 34.09465,26.46675 34.06873,26.28137 34,26.21875 C 31.51364,26.37053 29.33069,27.25902 27.21875,28.03125 C 24.74225,28.93678 22.37548,29.68095 19.625,29 C 17.97665,28.59191 16.88183,28.08298 16.21875,27.15625 C 15.66715,26.38533 15.40546,25.18707 15.4375,23.34375 C 15.43706,23.334003 15.43896,23.321786 15.4375,23.3125 C 15.44359,23.307792 15.46411,23.317982 15.46875,23.3125 C 15.60024,21.038963 16.43307,18.961223 17.21875,16.8125 C 18.13699,14.301249 18.97891,11.664199 18.21875,8.59375 C 17.78878,6.857003 17.21143,5.451645 15.96875,4.5625 C 15.03674,3.895642 13.78877,3.566213 12.09375,3.53125 z"
       style="opacity:0.98999999;fill:#000000;fill-opacity:1;fill-rule:evenodd;stroke:none;stroke-width:1.10000002;stroke-linecap:butt;stroke-linejoin:miter;marker:none;stroke-miterlimit:4;stroke-dasharray:none;stroke-dashoffset:0;stroke-opacity:1;visibility:visible;display:inline;overflow:visible;enable-background:accumulate" />
    <path
       style="opacity:0.4262295;fill:url(#linearGradient8147);fill-opacity:1;fill-rule:evenodd;stroke:none;stroke-width:1.10000002;stroke-linecap:butt;stroke-linejoin:miter;marker:none;stroke-miterlimit:4;stroke-dasharray:none;stroke-dashoffset:0;stroke-opacity:1;visibility:visible;display:inline;overflow:visible;enable-background:accumulate"
       d="M 12.09375,3.53125 C 11.90212,3.527297 11.67225,3.55903 11.46875,3.5625 C 11.31077,3.614306 11.24688,3.8015 11.21875,4 C 13.30099,3.938776 14.71804,4.243851 15.6875,4.9375 C 16.80093,5.734162 17.36023,6.986916 17.78125,8.6875 C 18.50901,11.627052 17.71053,14.153775 16.8125,16.65625 C 15.96755,19.010826 14.71472,22.813111 14.96875,23.03125 C 14.95927,23.33348 14.9306,23.66516 14.9375,23.9375 C 14.97816,25.54338 15.30833,26.64551 15.875,27.4375 C 16.63056,28.49348 17.84674,29.02046 19.53125,29.4375 C 22.41263,30.15085 24.88428,29.37948 27.375,28.46875 C 27.384181,28.465393 27.397068,28.472111 27.40625,28.46875 C 27.368801,28.342621 27.327097,28.185366 27.25,28.03125 C 27.247824,28.026901 27.22096,28.035624 27.21875,28.03125 C 24.74225,28.93678 22.37548,29.68095 19.625,29 C 17.97665,28.59191 16.88183,28.08298 16.21875,27.15625 C 15.66715,26.38533 15.40546,25.18707 15.4375,23.34375 C 15.43706,23.334003 15.43896,23.321786 15.4375,23.3125 C 15.44359,23.307792 15.46411,23.317982 15.46875,23.3125 C 15.60024,21.038963 16.43307,18.961223 17.21875,16.8125 C 18.13699,14.301249 18.97891,11.664199 18.21875,8.59375 C 17.78878,6.857003 17.21143,5.451645 15.96875,4.5625 C 15.03674,3.895642 13.78877,3.566213 12.09375,3.53125 z M 32.65625,26.375 C 31.896353,26.501081 31.153214,26.690359 30.4375,26.90625 C 30.418711,27.066225 30.412952,27.243093 30.4375,27.40625 C 31.188833,27.171117 31.957902,26.944951 32.75,26.8125 C 32.732476,26.686068 32.706745,26.532984 32.65625,26.375 z"
       id="path6830" />
    <path
       style="opacity:0.4262295;fill:url(#linearGradient8144);fill-opacity:1;fill-rule:evenodd;stroke:none;stroke-width:1.10000002;stroke-linecap:butt;stroke-linejoin:miter;marker:none;stroke-miterlimit:4;stroke-dasharray:none;stroke-dashoffset:0;stroke-opacity:1;visibility:visible;display:inline;overflow:visible;enable-background:accumulate"
       d="M 12.09375,4.15625 C 11.82141,4.149354 11.48973,4.178019 11.1875,4.1875 C 11.20226,4.429948 11.30507,4.647373 11.5,4.65625 C 13.34332,4.624212 14.54158,4.885904 15.3125,5.4375 C 16.23923,6.100576 16.74816,7.1954 17.15625,8.84375 C 17.8372,11.594229 17.09303,13.960995 16.1875,16.4375 C 15.41527,18.549437 14.52678,20.732386 14.375,23.21875 C 14.3362,23.445646 14.30855,23.74587 14.3125,23.9375 C 14.34746,25.63252 14.67689,26.88049 15.34375,27.8125 C 16.23289,29.05518 17.63825,29.63253 19.375,30.0625 C 22.396575,30.810562 24.993456,29.994602 27.46875,29.09375 C 27.492727,28.960398 27.499289,28.822357 27.46875,28.65625 C 27.459537,28.659622 27.446713,28.652881 27.4375,28.65625 C 24.94046,29.56929 22.4083,30.35276 19.46875,29.625 C 17.76817,29.20398 16.51541,28.64468 15.71875,27.53125 C 14.70605,26.121247 14.74146,23.746749 14.8125,23.34375 C 14.94128,20.911023 15.83808,18.745868 16.625,16.59375 C 17.53573,14.103032 18.3071,11.631376 17.59375,8.75 C 17.17671,7.065488 16.64973,5.849308 15.59375,5.09375 C 14.80176,4.527081 13.69963,4.196913 12.09375,4.15625 z M 32.78125,27 C 31.999478,27.132018 31.245704,27.358843 30.5,27.59375 C 30.537428,27.731393 30.587655,27.877527 30.65625,28 C 31.326717,27.796921 31.996381,27.622785 32.6875,27.5 C 32.744973,27.355887 32.787721,27.19606 32.78125,27 z"
       id="path6832" />
    <path
       id="path7434"
       d="M 29.500001,9.6006063 C 23.076491,9.6006063 22.157833,10.239056 22.157833,10.239056 C 22.157833,10.239056 21.093751,12.007206 21.093751,13.785997 C 21.093751,15.564787 21.406817,16.253838 22.902691,17.368407 C 22.902691,17.368407 23.461776,17.595141 24.179589,17.652162 L 25.95306,19.993143 C 25.95306,19.993143 27.302935,19.106408 29.500001,19.106408 C 31.697066,19.106408 33.04694,19.993144 33.046942,19.993143 L 34.820412,17.652162 C 35.531134,17.591089 36.097311,17.368407 36.097311,17.368407 C 37.593185,16.253838 37.906251,15.564787 37.906251,13.785997 C 37.906251,12.007206 36.842168,10.239056 36.842168,10.239056 C 36.842168,10.239056 35.923511,9.6006063 29.500001,9.6006063 z M 29.500001,10.877505 C 32.41552,10.877503 34.82811,11.492873 35.246045,16.268855 C 35.230833,16.280304 35.226092,16.292763 35.210576,16.304325 C 35.210576,16.304325 34.064233,16.81024 33.046942,16.268855 C 33.032139,16.260977 33.026106,16.241724 33.011472,16.233386 C 32.658016,15.747595 32.293382,15.008821 31.91192,14.318038 C 31.657614,13.857515 31.385982,13.407709 31.060655,13.041139 C 30.735328,12.674569 30.237611,12.118933 29.500001,12.118934 C 28.76239,12.118934 28.267829,12.675513 27.939347,13.041139 C 27.610864,13.406764 27.346953,13.857478 27.088081,14.318038 C 26.699772,15.008877 26.314635,15.747373 25.95306,16.233386 C 25.941607,16.24878 25.928988,16.253975 25.91759,16.268855 C 24.904631,16.81024 23.789426,16.304326 23.789426,16.304325 C 23.773909,16.292763 23.769168,16.280305 23.753956,16.268855 C 24.171892,11.492874 26.584481,10.877505 29.500001,10.877505 z"
       style="fill:#000000;fill-opacity:1;stroke:none;stroke-width:0.2;stroke-linecap:round;stroke-linejoin:miter;stroke-miterlimit:4;stroke-opacity:1" />
    <path
       id="path7436"
       d="M 29.500001,10.522811 C 24.271801,10.522813 23.186446,11.054852 23.186446,11.054852 C 23.186446,11.054852 22.299711,12.018989 22.299711,13.466772 C 22.299708,14.914551 22.571916,15.468105 23.789426,16.375263 C 23.789426,16.375265 24.904631,16.881179 25.91759,16.339794 C 25.928988,16.324914 25.941607,16.319719 25.95306,16.304325 C 26.314635,15.818312 26.699772,15.079816 27.088081,14.388977 C 27.346953,13.928417 27.610864,13.477703 27.939347,13.112078 C 28.267829,12.746452 28.76239,12.189873 29.500001,12.189873 C 30.237611,12.189873 30.735328,12.745508 31.060655,13.112078 C 31.385982,13.478648 31.657614,13.928454 31.91192,14.388977 C 32.293382,15.079759 32.658016,15.818533 33.011472,16.304325 C 33.026106,16.312663 33.032139,16.331916 33.046942,16.339794 C 34.064233,16.881179 35.210576,16.375263 35.210576,16.375263 C 36.428085,15.468106 36.700291,14.914554 36.700291,13.466772 C 36.700293,12.018987 35.813556,11.054852 35.813556,11.054852 C 35.813556,11.054852 34.728201,10.522811 29.500001,10.522811 z M 29.500001,10.877505 C 32.41552,10.877503 34.82811,11.492873 35.246045,16.268855 C 35.230833,16.280304 35.226092,16.292763 35.210576,16.304325 C 35.210576,16.304325 34.064233,16.81024 33.046942,16.268855 C 33.032139,16.260977 33.026106,16.241724 33.011472,16.233386 C 32.658016,15.747595 32.293382,15.008821 31.91192,14.318038 C 31.657614,13.857515 31.385982,13.407709 31.060655,13.041139 C 30.735328,12.674569 30.237611,12.118933 29.500001,12.118934 C 28.76239,12.118934 28.267829,12.675513 27.939347,13.041139 C 27.610864,13.406764 27.346953,13.857478 27.088081,14.318038 C 26.699772,15.008877 26.314635,15.747373 25.95306,16.233386 C 25.941607,16.24878 25.928988,16.253975 25.91759,16.268855 C 24.904631,16.81024 23.789426,16.304326 23.789426,16.304325 C 23.773909,16.292763 23.769168,16.280305 23.753956,16.268855 C 24.171892,11.492874 26.584481,10.877505 29.500001,10.877505 z"
       style="fill:url(#radialGradient2562);fill-opacity:1;stroke:none;stroke-width:0.2;stroke-linecap:round;stroke-linejoin:miter;stroke-miterlimit:4;stroke-opacity:1" />
    <path
       id="path7438"
       d="M 29.500001,13.00567 C 28.188132,13.00567 27.44702,16.078352 26.201346,17.120121 C 25.60965,17.614961 24.829039,17.703753 24.179589,17.652162 L 25.95306,19.993143 C 25.95306,19.993143 27.302935,19.106408 29.500001,19.106408 C 31.697066,19.106408 33.04694,19.993143 33.046942,19.993143 L 34.820412,17.652162 C 34.155543,17.709295 33.365262,17.623643 32.763186,17.120121 C 31.517513,16.078352 30.811869,13.00567 29.500001,13.00567 z"
       style="opacity:0.24590167;fill:url(#linearGradient2559);fill-opacity:1;stroke:none;stroke-width:0.2;stroke-linecap:round;stroke-linejoin:miter;stroke-miterlimit:4;stroke-opacity:1" />
    <path
       style="fill:url(#linearGradient2556);fill-opacity:1;stroke:none;stroke-width:0.2;stroke-linecap:round;stroke-linejoin:miter;stroke-miterlimit:4;stroke-opacity:1"
       d="M 29.500001,9.6006063 C 23.076491,9.6006063 22.157833,10.239056 22.157833,10.239056 C 22.157833,10.239056 21.093751,12.007206 21.093751,13.785997 C 21.093751,15.564787 21.406817,16.253838 22.902691,17.368407 C 22.902691,17.368407 24.955671,18.16189 26.201346,17.120121 C 27.44702,16.078352 28.188132,13.00567 29.500001,13.00567 C 30.811869,13.00567 31.517513,16.078352 32.763186,17.120121 C 34.008859,18.16189 36.097311,17.368407 36.097311,17.368407 C 37.593185,16.253838 37.906251,15.564787 37.906251,13.785997 C 37.906251,12.007206 36.842168,10.239056 36.842168,10.239056 C 36.842168,10.239056 35.923511,9.6006063 29.500001,9.6006063 z M 29.500001,10.168117 C 32.692953,10.168117 34.50562,10.334513 35.494331,10.487341 C 35.988687,10.563756 36.267654,10.616904 36.416535,10.664689 C 36.531935,10.871115 37.33874,12.338351 37.33874,13.785997 C 37.33874,14.642098 37.262526,15.1417 37.054985,15.559467 C 36.852977,15.966095 36.459234,16.358547 35.778086,16.871835 C 35.694814,16.901545 35.39038,17.030912 34.855881,17.084652 C 34.258264,17.144737 33.566597,17.069756 33.11788,16.694488 C 32.665219,16.315923 32.172248,15.310021 31.663635,14.388977 C 31.409329,13.928454 31.137695,13.478648 30.812369,13.112078 C 30.487042,12.745508 30.049506,12.438159 29.500001,12.438159 C 28.950495,12.438159 28.516116,12.746452 28.187633,13.112078 C 27.859149,13.477703 27.59524,13.928417 27.336367,14.388977 C 26.818621,15.310096 26.301347,16.314222 25.846651,16.694488 C 24.992948,17.408448 23.398196,16.926853 23.221915,16.871835 C 22.540767,16.358547 22.147024,15.966095 21.945016,15.559467 C 21.737476,15.1417 21.661261,14.642098 21.661261,13.785997 C 21.661261,12.338351 22.468066,10.871115 22.583466,10.664689 C 22.732348,10.616904 23.011314,10.563756 23.50567,10.487341 C 24.494382,10.334513 26.307048,10.168117 29.500001,10.168117 z"
       id="path7440" />
    <path
       id="path7442"
       d="M 29.500001,9.6006063 C 23.076491,9.6006063 22.157833,10.239056 22.157833,10.239056 C 22.157833,10.239056 21.093751,12.007206 21.093751,13.785997 C 21.093751,15.564787 21.406817,16.253838 22.902691,17.368407 C 22.902691,17.368407 24.955671,18.16189 26.201346,17.120121 C 27.44702,16.078352 28.188132,13.00567 29.500001,13.00567 C 30.811869,13.00567 31.517513,16.078352 32.763186,17.120121 C 34.008859,18.16189 36.097311,17.368407 36.097311,17.368407 C 37.593185,16.253838 37.906251,15.564787 37.906251,13.785997 C 37.906251,12.007206 36.842168,10.239056 36.842168,10.239056 C 36.842168,10.239056 35.923511,9.6006063 29.500001,9.6006063 z M 29.500001,9.8134227 C 32.705175,9.8134227 34.548029,9.9754095 35.56527,10.132647 C 36.07389,10.211266 36.349616,10.289834 36.522944,10.345464 C 36.592942,10.367929 36.633571,10.367469 36.664821,10.380933 C 36.672263,10.384139 36.694726,10.378353 36.700291,10.380933 C 36.740076,10.448634 37.693434,12.120412 37.693434,13.785997 C 37.693434,14.663739 37.619262,15.24354 37.37421,15.736814 C 37.135199,16.217926 36.730703,16.660792 36.026372,17.19106 C 36.026372,17.19106 35.541102,17.374018 34.891351,17.439346 C 34.2416,17.504673 33.466958,17.448161 32.905064,16.978243 C 32.341789,16.507171 31.844892,15.472644 31.34441,14.566324 C 31.09417,14.113163 30.818043,13.686485 30.528614,13.360364 C 30.239184,13.034243 29.905506,12.792853 29.500001,12.792853 C 29.094495,12.792853 28.764082,13.034573 28.471388,13.360364 C 28.178693,13.686154 27.910313,14.113151 27.655591,14.566324 C 27.14615,15.47267 26.623455,16.506575 26.059468,16.978243 C 24.934253,17.91927 22.973629,17.19106 22.973629,17.19106 C 22.269299,16.660792 21.864802,16.217926 21.625792,15.736814 C 21.38074,15.24354 21.306567,14.663739 21.306567,13.785997 C 21.306567,12.120412 22.259926,10.448634 22.299711,10.380933 C 22.299981,10.380472 22.334998,10.381241 22.33518,10.380933 C 22.36643,10.367469 22.40706,10.367929 22.477058,10.345464 C 22.650386,10.289834 22.926112,10.211266 23.434732,10.132647 C 24.451973,9.9754095 26.294826,9.8134227 29.500001,9.8134227 z M 29.500001,9.9553004 C 26.300147,9.9553004 24.473622,10.119423 23.470201,10.274525 C 22.973252,10.35134 22.689346,10.43059 22.512527,10.487341 L 22.441588,10.487341 L 22.406119,10.55828 C 22.287515,10.770437 21.448445,12.264551 21.448445,13.785997 C 21.448445,14.653886 21.540677,15.173483 21.767669,15.630406 C 21.992776,16.083531 22.424878,16.493281 23.115507,17.013713 L 23.115507,17.049182 L 23.150976,17.049182 C 23.244387,17.078336 23.697625,17.222131 24.250528,17.261999 C 24.803431,17.301866 25.498127,17.246493 25.988529,16.836366 C 26.253442,16.614816 26.478495,16.263554 26.733387,15.843222 C 26.988278,15.422891 27.256103,14.953701 27.513714,14.495385 C 27.771455,14.036839 28.019915,13.598558 28.32951,13.253955 C 28.636911,12.911797 29.024787,12.650975 29.500001,12.650975 C 29.975442,12.650975 30.367266,12.912288 30.670491,13.253955 C 30.978707,13.601246 31.234457,14.039346 31.486288,14.495385 C 31.73893,14.952894 31.983781,15.422559 32.231145,15.843222 C 32.478509,16.263886 32.710479,16.614306 32.976003,16.836366 C 33.491786,17.267721 34.262191,17.360725 34.891351,17.297468 C 35.17065,17.269387 35.366644,17.201105 35.5298,17.15559 C 35.692956,17.110076 35.821172,17.059119 35.849025,17.049182 L 35.884494,17.049182 L 35.884494,17.013713 C 36.575123,16.493281 37.007225,16.083531 37.232332,15.630406 C 37.459325,15.173483 37.551557,14.653886 37.551557,13.785997 C 37.551557,12.264551 36.712487,10.770437 36.593883,10.55828 L 36.558413,10.487341 L 36.487474,10.487341 C 36.310655,10.43059 36.026749,10.35134 35.5298,10.274525 C 34.526379,10.119423 32.699854,9.9553004 29.500001,9.9553004 z M 29.500001,10.168117 C 32.692953,10.168117 34.50562,10.334513 35.494331,10.487341 C 35.988687,10.563756 36.267654,10.616904 36.416535,10.664689 C 36.531935,10.871115 37.33874,12.338351 37.33874,13.785997 C 37.33874,14.642098 37.262526,15.1417 37.054985,15.559467 C 36.852977,15.966095 36.459234,16.358547 35.778086,16.871835 C 35.694814,16.901545 35.39038,17.030912 34.855881,17.084652 C 34.258264,17.144737 33.566597,17.069756 33.11788,16.694488 C 32.665219,16.315923 32.172248,15.310021 31.663635,14.388977 C 31.409329,13.928454 31.137695,13.478648 30.812369,13.112078 C 30.487042,12.745508 30.049506,12.438159 29.500001,12.438159 C 28.950495,12.438159 28.516116,12.746452 28.187633,13.112078 C 27.859149,13.477703 27.59524,13.928417 27.336367,14.388977 C 26.818621,15.310096 26.301347,16.314222 25.846651,16.694488 C 24.992948,17.408448 23.398196,16.926853 23.221915,16.871835 C 22.540767,16.358547 22.147024,15.966095 21.945016,15.559467 C 21.737476,15.1417 21.661261,14.642098 21.661261,13.785997 C 21.661261,12.338351 22.468066,10.871115 22.583466,10.664689 C 22.732348,10.616904 23.011314,10.563756 23.50567,10.487341 C 24.494382,10.334513 26.307048,10.168117 29.500001,10.168117 z"
       style="fill:url(#linearGradient2553);fill-opacity:1;stroke:none;stroke-width:0.2;stroke-linecap:round;stroke-linejoin:miter;stroke-miterlimit:4;stroke-opacity:1" />
    <path
       id="path7444"
       d="M 29.500001,10.168117 C 26.307048,10.168117 24.494382,10.334513 23.50567,10.487341 C 23.011314,10.563756 22.732348,10.616904 22.583466,10.664689 C 22.468066,10.871115 21.661261,12.338351 21.661261,13.785997 C 21.661261,14.642098 21.737476,15.1417 21.945016,15.559467 C 22.147024,15.966095 22.540767,16.358547 23.221915,16.871835 C 23.398196,16.926853 24.992948,17.408448 25.846651,16.694488 C 26.301347,16.314222 26.818621,15.310096 27.336367,14.388977 C 27.59524,13.928417 27.859149,13.477703 28.187633,13.112078 C 28.516116,12.746452 28.950495,12.438159 29.500001,12.438159 C 30.049506,12.438159 30.487042,12.745508 30.812369,13.112078 C 31.137695,13.478648 31.409329,13.928454 31.663635,14.388977 C 32.172248,15.310021 32.665219,16.315923 33.11788,16.694488 C 33.566597,17.069756 34.258264,17.144737 34.855881,17.084652 C 35.39038,17.030912 35.694814,16.901545 35.778086,16.871835 C 36.459234,16.358547 36.852977,15.966095 37.054985,15.559467 C 37.262526,15.1417 37.33874,14.642098 37.33874,13.785997 C 37.33874,12.338351 36.531935,10.871115 36.416535,10.664689 C 36.267654,10.616904 35.988687,10.563756 35.494331,10.487341 C 34.50562,10.334513 32.692953,10.168117 29.500001,10.168117 z"
       style="opacity:0.3;fill:url(#radialGradient2550);fill-opacity:1;stroke:none;stroke-width:0.2;stroke-linecap:round;stroke-linejoin:miter;stroke-miterlimit:4;stroke-opacity:1" />
    <path
       style="opacity:0.3;fill:url(#radialGradient2547);fill-opacity:1;stroke:none;stroke-width:0.2;stroke-linecap:round;stroke-linejoin:miter;stroke-miterlimit:4;stroke-opacity:1"
       d="M 29.500001,10.522811 C 24.271801,10.522813 23.186446,11.054852 23.186446,11.054852 C 23.186446,11.054852 22.299711,12.018989 22.299711,13.466772 C 22.299708,14.914551 22.571916,15.468105 23.789426,16.375263 C 23.789426,16.375265 24.90211,16.881179 25.915069,16.339794 C 25.926468,16.324914 25.939086,16.319719 25.950539,16.304325 C 26.312116,15.818312 26.697251,15.079816 27.08556,14.388977 C 27.344433,13.928417 27.608343,13.477703 27.936826,13.112078 C 28.265309,12.746452 28.76239,12.187352 29.500001,12.187352 C 30.237611,12.187352 30.737849,12.745508 31.063176,13.112078 C 31.388502,13.478648 31.660135,13.928454 31.914441,14.388977 C 32.295902,15.079759 32.660537,15.818533 33.013993,16.304325 C 33.028626,16.312663 33.03466,16.331916 33.049462,16.339794 C 34.066752,16.881179 35.210576,16.375263 35.210576,16.375263 C 36.428085,15.468106 36.700291,14.914554 36.700291,13.466772 C 36.700293,12.018987 35.813556,11.054852 35.813556,11.054852 C 35.813556,11.054852 34.728201,10.522811 29.500001,10.522811 z"
       id="path7446"
       sodipodi:nodetypes="ccscsssszsssscscc" />
    <path
       id="path7448"
       d="M 31.628165,10.771097 C 31.500828,10.931774 30.87503,11.675976 30.812369,12.047996 C 30.749707,12.420015 31.147483,13.085521 31.202532,13.147547 C 31.509056,13.492933 31.778721,13.919601 32.018329,14.353507 C 32.377742,15.004365 32.713912,15.704734 33.046942,16.162447 C 33.060726,16.170308 33.068468,16.190499 33.082411,16.197916 C 34.040898,16.708014 35.104167,16.197916 35.104167,16.197916 C 36.25131,15.343188 36.522944,14.830875 36.522944,13.466772 C 36.522943,12.102664 35.671678,11.19673 35.671678,11.19673 C 35.671677,11.19673 34.726153,10.883018 31.628165,10.771097 z M 31.770043,11.054852 C 33.195679,11.112341 34.201648,11.214643 34.784943,11.303138 C 35.344812,11.388079 35.497939,11.470035 35.5298,11.480485 C 35.609259,11.57151 36.239187,12.29216 36.239188,13.466772 C 36.239188,14.131041 36.169031,14.571009 35.990903,14.921018 C 35.818811,15.259164 35.522174,15.553482 34.997759,15.949631 C 34.997759,15.949631 34.068026,16.318342 33.259758,15.914161 C 32.961623,15.488603 32.616376,14.84501 32.266615,14.211629 C 32.023469,13.771317 31.746315,13.307658 31.415349,12.934731 C 31.45388,12.978146 31.385466,12.933976 31.34441,12.863792 C 31.303354,12.793608 31.284214,12.68077 31.238002,12.580037 C 31.145577,12.378572 31.086344,12.141531 31.096124,12.083465 C 31.105903,12.025402 31.23754,11.719766 31.415349,11.480485 C 31.555249,11.292219 31.677429,11.166817 31.770043,11.054852 z"
       style="opacity:0.38766521;fill:#ffdd00;fill-opacity:1;stroke:none;stroke-width:0.2;stroke-linecap:round;stroke-linejoin:miter;stroke-miterlimit:4;stroke-opacity:1" />
    <path
       id="path7450"
       d="M 27.336367,10.771097 C 24.239934,10.882964 23.292854,11.19673 23.292854,11.19673 C 23.292854,11.19673 22.477058,12.103355 22.477058,13.466772 C 22.477056,14.830189 22.749274,15.343617 23.895834,16.197916 C 23.895834,16.197919 24.928186,16.672289 25.882121,16.162447 C 25.892859,16.148442 25.906805,16.176943 25.91759,16.162447 C 26.258095,15.704752 26.615991,15.004089 26.981673,14.353507 C 27.225458,13.919786 27.488125,13.491864 27.797469,13.147547 C 27.797471,13.147548 28.206122,12.431617 28.152163,12.047996 C 28.098203,11.664367 27.458755,10.925529 27.336367,10.771097 z M 27.229958,11.054852 C 27.314679,11.1617 27.417887,11.289362 27.549183,11.480485 C 27.717407,11.725361 27.858611,12.049285 27.868408,12.118934 C 27.878203,12.188577 27.815044,12.412575 27.72653,12.615506 C 27.654386,12.780908 27.610419,12.889855 27.584653,12.934731 C 27.578806,12.944913 27.549183,13.00567 27.549183,13.00567 C 27.237725,13.367237 26.966205,13.797422 26.733387,14.211629 C 26.378889,14.842315 26.047525,15.486422 25.740243,15.914161 C 24.927476,16.348554 24.002242,15.949631 24.002242,15.949631 C 23.478102,15.553686 23.18109,15.258968 23.009099,14.921018 C 22.831074,14.571213 22.760812,14.130697 22.760813,13.466772 C 22.760813,12.29281 23.390787,11.57146 23.470201,11.480485 C 23.502043,11.47004 23.655477,11.388036 24.215059,11.303138 C 24.798053,11.214688 25.805043,11.112312 27.229958,11.054852 z"
       style="opacity:0.38766521;fill:#ffdd00;fill-opacity:1;stroke:none;stroke-width:0.2;stroke-linecap:round;stroke-linejoin:miter;stroke-miterlimit:4;stroke-opacity:1" />
    <path
       id="path7452"
       d="M 29.500001,13.129887 C 28.447867,13.129887 27.853486,15.594208 26.854437,16.429715 L 26.655323,17.315133 C 26.655323,17.315133 27.459799,17.432993 27.923396,17.466397 C 28.386993,17.499801 28.783597,16.781003 29.500001,16.781003 C 30.216404,16.781003 30.613007,17.499801 31.076604,17.466397 C 31.540201,17.432993 32.344677,17.315133 32.344678,17.315133 C 32.344678,17.315133 32.599977,16.833545 32.117103,16.429715 C 31.118064,15.594208 30.552135,13.129887 29.500001,13.129887 z"
       style="opacity:0.1;fill:url(#linearGradient2542);fill-opacity:1;stroke:none;stroke-width:0.2;stroke-linecap:round;stroke-linejoin:miter;stroke-miterlimit:4;stroke-opacity:1"
       sodipodi:nodetypes="cccszscsc" />
    <path
       id="path7454"
       d="M 29.500001,16.765427 C 28.783597,16.765427 28.402944,17.508219 27.939347,17.474815 C 27.47575,17.441411 26.662446,17.297468 26.662448,17.297468 C 26.662446,17.297468 27.737931,18.006856 29.500001,18.006856 C 31.262069,18.006856 32.337552,17.297468 32.337553,17.297468 C 32.337552,17.297468 31.524251,17.441411 31.060655,17.474815 C 30.597058,17.508219 30.216404,16.765427 29.500001,16.765427 z"
       style="fill:url(#radialGradient2539);fill-opacity:1;stroke:none;stroke-width:0.2;stroke-linecap:round;stroke-linejoin:miter;stroke-miterlimit:4;stroke-opacity:1" />
    <path
       style="fill:#000000;fill-opacity:1;stroke:none;stroke-width:0.2;stroke-linecap:round;stroke-linejoin:miter;stroke-miterlimit:4;stroke-dasharray:none;stroke-opacity:1"
       d="M 36.927607,22.293512 C 35.472693,22.832565 34.004333,23.374684 32.376803,23.450691 L 32.011203,23.899439 L 32.281071,24.646321 C 31.698629,24.905107 31.218302,25.280461 30.951207,25.752012 C 30.919889,25.807301 30.660243,26.245957 30.608778,26.354771 C 30.570179,26.436383 30.554192,26.517384 30.528028,26.603165 L 27.122765,27.784864 C 26.823453,28.496474 27.369512,28.96305 27.431487,29.313384 L 30.989062,28.620634 L 31.181575,28.59167 C 31.773589,29.045687 32.659875,29.274859 33.586468,29.13545 C 34.507797,28.996832 35.258387,28.522659 35.686386,27.913901 L 36.159653,27.13396 C 36.320429,26.813772 36.371039,26.445323 36.317059,26.086548 C 36.247421,25.623694 36.008024,25.232429 35.631152,24.929771 L 35.848535,24.542696 L 37.024738,24.247609 L 37.378753,23.721855 L 36.927607,22.293512 z"
       id="path7838"
       sodipodi:nodetypes="ccccsscccccsccsccccc" />
    <path
       style="opacity:0.4;fill:url(#linearGradient8316);fill-opacity:1;fill-rule:nonzero;stroke:none;stroke-width:1;stroke-linecap:butt;stroke-linejoin:miter;marker:none;marker-start:none;marker-mid:none;marker-end:none;stroke-miterlimit:4;stroke-dasharray:none;stroke-dashoffset:0;stroke-opacity:1;visibility:visible;display:inline;overflow:visible;enable-background:accumulate"
       d="M 30.522235,26.564663 L 27.128558,27.823366 C 27.532557,28.517405 27.542535,28.920079 27.425694,29.274881 L 31.033357,28.653344 L 31.225871,28.62438 C 30.799946,28.31481 30.526397,27.900834 30.451372,27.402183 C 30.408534,27.117459 30.428798,26.833259 30.522235,26.564663 z"
       id="path7840" />
    <path
       style="fill:#555555;fill-opacity:0.60416667;fill-rule:nonzero;stroke:none;stroke-width:1;stroke-linecap:butt;stroke-linejoin:miter;marker:none;marker-start:none;marker-mid:none;marker-end:none;stroke-miterlimit:4;stroke-dasharray:none;stroke-dashoffset:0;stroke-opacity:1;visibility:visible;display:inline;overflow:visible;enable-background:accumulate"
       d="M 36.927607,22.293512 C 35.472693,22.832565 34.004333,23.374684 32.376803,23.450691 L 32.011203,23.899439 L 33.071898,23.62173 L 32.352284,24.596232 C 32.611715,24.489004 32.880991,24.398563 33.181963,24.353281 C 33.672958,24.279408 34.142734,24.310529 34.570107,24.420048 L 35.403182,23.152856 L 36.579385,22.857768 L 36.927607,22.293512 z"
       id="path7842"
       sodipodi:nodetypes="cccccscccc" />
    <path
       style="fill:#000000;fill-opacity:1;fill-rule:nonzero;stroke:none;stroke-width:1;stroke-linecap:butt;stroke-linejoin:miter;marker:none;marker-start:none;marker-mid:none;marker-end:none;stroke-miterlimit:4;stroke-dasharray:none;stroke-dashoffset:0;stroke-opacity:1;visibility:visible;display:inline;overflow:visible;enable-background:accumulate"
       d="M 35.403182,23.152856 L 34.570107,24.420048 C 34.968018,24.522016 35.34561,24.700457 35.631152,24.929771 L 35.848535,24.542696 L 35.403182,23.152856 z"
       id="path7844"
       sodipodi:nodetypes="ccccc" />
    <path
       sodipodi:nodetypes="ccccc"
       id="path7846"
       d="M 36.579385,22.857768 L 35.403182,23.152856 L 35.848535,24.542696 L 37.024738,24.247609 L 36.579385,22.857768 z"
       style="fill:#323232;fill-opacity:0.60416667;fill-rule:nonzero;stroke:none;stroke-width:1;stroke-linecap:butt;stroke-linejoin:miter;marker:none;marker-start:none;marker-mid:none;marker-end:none;stroke-miterlimit:4;stroke-dasharray:none;stroke-dashoffset:0;stroke-opacity:1;visibility:visible;display:inline;overflow:visible;enable-background:accumulate" />
    <path
       style="fill:#000000;fill-opacity:1;fill-rule:nonzero;stroke:none;stroke-width:1;stroke-linecap:butt;stroke-linejoin:miter;marker:none;marker-start:none;marker-mid:none;marker-end:none;stroke-miterlimit:4;stroke-dasharray:none;stroke-dashoffset:0;stroke-opacity:1;visibility:visible;display:inline;overflow:visible;enable-background:accumulate"
       d="M 36.927607,22.293512 L 36.579385,22.857768 L 37.024738,24.247609 L 37.378753,23.721855 L 36.927607,22.293512 z"
       id="path7848"
       sodipodi:nodetypes="ccccc" />
    <path
       style="fill:#323232;fill-opacity:0.60416667;fill-rule:nonzero;stroke:none;stroke-width:1;stroke-linecap:butt;stroke-linejoin:miter;marker:none;marker-start:none;marker-mid:none;marker-end:none;stroke-miterlimit:4;stroke-dasharray:none;stroke-dashoffset:0;stroke-opacity:1;visibility:visible;display:inline;overflow:visible;enable-background:accumulate"
       d="M 33.071898,23.62173 L 32.011203,23.899439 L 32.281071,24.646321 C 32.30789,24.634405 32.324938,24.607534 32.352284,24.596232 L 33.071898,23.62173 z"
       id="path7850"
       sodipodi:nodetypes="ccccc" />
    <path
       sodipodi:nodetypes="csssscsc"
       style="opacity:0.65;fill:url(#linearGradient8308);fill-opacity:1;stroke:none;stroke-width:0.2;stroke-linecap:round;stroke-linejoin:miter;stroke-miterlimit:4;stroke-dasharray:none;stroke-opacity:1"
       d="M 33.181963,24.353281 C 32.160285,24.506997 31.347277,25.052759 30.951207,25.752012 C 30.937474,25.776257 30.858185,25.900459 30.793451,26.011992 C 31.226285,25.406153 32.01345,24.962205 32.937664,24.823153 C 34.489167,24.589721 35.89369,25.366227 36.07276,26.55642 L 36.15386,27.095457 C 36.314636,26.77527 36.371039,26.445323 36.317059,26.086548 C 36.137989,24.896354 34.733466,24.11985 33.181963,24.353281 z"
       id="path7852" />
    <path
       transform="matrix(1.2320849,-0.1853726,0.1853726,1.2320849,68.527641,-14.645901)"
       d="M -30.6875,28.8125 A 2.28125,1.75 0 1 1 -35.25,28.8125 A 2.28125,1.75 0 1 1 -30.6875,28.8125 z"
       sodipodi:ry="1.75"
       sodipodi:rx="2.28125"
       sodipodi:cy="28.8125"
       sodipodi:cx="-32.96875"
       id="path7854"
       style="opacity:0.65;fill:#000000;fill-opacity:1;stroke:none;stroke-width:0.2;stroke-linecap:round;stroke-linejoin:miter;stroke-miterlimit:4;stroke-dasharray:none;stroke-opacity:1"
       sodipodi:type="arc" />
    <path
       id="path7856"
       d="M 32.937664,24.823153 C 31.386161,25.056583 30.272302,26.211987 30.451372,27.402183 C 30.630442,28.592377 32.034965,29.36888 33.586468,29.13545 C 35.137971,28.90202 36.25183,27.746614 36.07276,26.55642 C 35.89369,25.366227 34.489167,24.589721 32.937664,24.823153 z M 32.980262,25.367983 C 34.170457,25.188915 35.248136,25.786169 35.385505,26.699195 C 35.522874,27.612222 34.668646,28.500141 33.478451,28.679211 C 32.288255,28.85828 31.210577,28.261026 31.073208,27.347999 C 30.935839,26.434974 31.790067,25.547053 32.980262,25.367983 z"
       style="opacity:0.65;fill:url(#linearGradient8304);fill-opacity:1;stroke:none;stroke-width:0.2;stroke-linecap:round;stroke-linejoin:miter;stroke-miterlimit:4;stroke-dasharray:none;stroke-opacity:1" />
    <path
       transform="matrix(0.9451616,-0.1422037,0.1422037,0.9451616,60.279209,-4.9113828)"
       d="M -30.6875,28.8125 A 2.28125,1.75 0 1 1 -35.25,28.8125 A 2.28125,1.75 0 1 1 -30.6875,28.8125 z"
       sodipodi:ry="1.75"
       sodipodi:rx="2.28125"
       sodipodi:cy="28.8125"
       sodipodi:cx="-32.96875"
       id="path7858"
       style="opacity:0.2;fill:url(#radialGradient8295);fill-opacity:1;stroke:none;stroke-width:0.2;stroke-linecap:round;stroke-linejoin:miter;stroke-miterlimit:4;stroke-dasharray:none;stroke-opacity:1"
       sodipodi:type="arc" />
    <path
       sodipodi:nodetypes="cccccscccc"
       id="path7860"
       d="M 36.927607,22.293512 C 35.472693,22.832565 34.004333,23.374684 32.376803,23.450691 L 32.011203,23.899439 L 33.071898,23.62173 L 32.352284,24.596232 C 32.611715,24.489004 32.880991,24.398563 33.181963,24.353281 C 33.672958,24.279408 34.142734,24.310529 34.570107,24.420048 L 35.403182,23.152856 L 36.579385,22.857768 L 36.927607,22.293512 z"
       style="opacity:0.23348018;fill:url(#radialGradient8300);fill-opacity:1;fill-rule:nonzero;stroke:none;stroke-width:1;stroke-linecap:butt;stroke-linejoin:miter;marker:none;marker-start:none;marker-mid:none;marker-end:none;stroke-miterlimit:4;stroke-dasharray:none;stroke-dashoffset:0;stroke-opacity:1;visibility:visible;display:inline;overflow:visible;enable-background:accumulate" />
    <path
       style="opacity:0.18852461;fill:url(#linearGradient2567);fill-opacity:1;fill-rule:nonzero;stroke:none;stroke-width:0.2;stroke-linecap:round;stroke-linejoin:miter;stroke-miterlimit:4;stroke-dasharray:none;stroke-opacity:1"
       d="M 8.42723,6.088407 C 8.22289,6.375687 8.27098,6.452324 8.27098,6.463407 C 8.27098,6.475043 8.3143,6.484021 8.33348,6.494657 C 8.4006,6.531882 8.56197,6.566463 8.80223,6.588407 C 9.04249,6.610351 9.36162,6.619657 9.70848,6.619657 C 10.05534,6.619657 10.37447,6.610351 10.61473,6.588407 C 10.85499,6.566463 11.01636,6.531882 11.08348,6.494657 C 11.10266,6.484021 11.14598,6.475043 11.14598,6.463407 C 11.14598,6.452324 11.12361,6.312159 10.98973,6.088407 L 8.42723,6.088407 z M 4.92723,8.150907 C 4.8813,8.264275 4.83348,8.37723 4.83348,8.494657 C 4.83348,8.956976 4.86473,35.576981 4.86473,35.619657 C 4.86473,35.729668 4.89419,35.828416 4.95848,35.932157 C 5.02277,36.035898 5.11753,36.149323 5.23973,36.244657 C 5.97291,36.816661 7.69528,37.213406 9.70848,37.213407 C 12.29116,37.213407 14.39589,36.547357 14.55223,35.713407 C 14.55223,33.607914 14.55223,9.797232 14.55223,8.775907 C 14.40625,9.114049 12.29879,9.400907 9.70848,9.400907 C 7.02422,9.400907 4.86473,9.099047 4.86473,8.744657 C 4.86473,8.690311 4.86473,8.527984 4.86473,8.494657 C 4.86473,8.375685 4.88312,8.264119 4.92723,8.150907 z"
       id="path2565"
       sodipodi:nodetypes="cssssssscccsssssccsssc" />
    <path
       style="opacity:1;fill:#323232;fill-opacity:1;fill-rule:nonzero;stroke:none;stroke-width:1;stroke-linecap:butt;stroke-linejoin:miter;marker:none;marker-start:none;marker-mid:none;marker-end:none;stroke-miterlimit:4;stroke-dasharray:none;stroke-dashoffset:0;stroke-opacity:1;visibility:visible;display:inline;overflow:visible;enable-background:accumulate"
       d="M 33.167298,4.6745573 L 33.374999,3.4375016 L 34.093749,3.6562516 L 33.812499,4.8437515 L 33.167298,4.6745573 z"
       id="path3353"
       sodipodi:nodetypes="ccccc" />
    <path
       id="path3355"
       d="M 32.01825,4.3210039 L 32.225951,3.0839482 L 32.944701,3.3026982 L 32.663451,4.4901981 L 32.01825,4.3210039 z"
       style="opacity:1;fill:#323232;fill-opacity:1;fill-rule:nonzero;stroke:none;stroke-width:1;stroke-linecap:butt;stroke-linejoin:miter;marker:none;marker-start:none;marker-mid:none;marker-end:none;stroke-miterlimit:4;stroke-dasharray:none;stroke-dashoffset:0;stroke-opacity:1;visibility:visible;display:inline;overflow:visible;enable-background:accumulate"
       sodipodi:nodetypes="ccccc" />
    <path
       sodipodi:nodetypes="ccccc"
       id="path3357"
       d="M 33.203693,4.6326078 L 33.395074,3.4927441 L 34.057354,3.6943076 L 33.798204,4.788509 L 33.203693,4.6326078 z"
       style="opacity:0.28278689;fill:url(#linearGradient3373);fill-opacity:1;fill-rule:nonzero;stroke:none;stroke-width:1;stroke-linecap:butt;stroke-linejoin:miter;marker:none;marker-start:none;marker-mid:none;marker-end:none;stroke-miterlimit:4;stroke-dasharray:none;stroke-dashoffset:0;stroke-opacity:1;visibility:visible;display:inline;overflow:visible;enable-background:accumulate" />
    <path
       sodipodi:nodetypes="ccccc"
       style="opacity:0.28278689;fill:url(#linearGradient3371);fill-opacity:1;fill-rule:nonzero;stroke:none;stroke-width:1;stroke-linecap:butt;stroke-linejoin:miter;marker:none;marker-start:none;marker-mid:none;marker-end:none;stroke-miterlimit:4;stroke-dasharray:none;stroke-dashoffset:0;stroke-opacity:1;visibility:visible;display:inline;overflow:visible;enable-background:accumulate"
       d="M 32.054645,4.2790544 L 32.246026,3.1391907 L 32.908306,3.3407542 L 32.649156,4.4349556 L 32.054645,4.2790544 z"
       id="path3359" />
    <rect
       style="opacity:0.61162792;fill:#555753;fill-opacity:1;fill-rule:nonzero;stroke:none;stroke-width:0.69999999;stroke-linecap:round;stroke-linejoin:miter;stroke-miterlimit:4;stroke-dasharray:none;stroke-opacity:1"
       id="rect1951"
       width="40.001965"
       height="10.004759"
       x="-0.001953125"
       y="30" />
    <text
       xml:space="preserve"
       style="font-size:12px;font-style:normal;font-weight:normal;fill:#eeeeec;fill-opacity:1;stroke:none;stroke-width:1px;stroke-linecap:butt;stroke-linejoin:miter;stroke-opacity:1;font-family:Bitstream Vera Sans"
       x="15.304573"
       y="39.168156"
       id="text2840"><tspan
         sodipodi:role="line"
         id="tspan2842"
         x="15.304573"
         y="39.168156">O</tspan></text>
  </g>
</svg>
