<?xml version="1.0" encoding="UTF-8" standalone="no"?>
<!-- Created with Inkscape (http://www.inkscape.org/) -->
<svg
   xmlns:dc="http://purl.org/dc/elements/1.1/"
   xmlns:cc="http://web.resource.org/cc/"
   xmlns:rdf="http://www.w3.org/1999/02/22-rdf-syntax-ns#"
   xmlns:svg="http://www.w3.org/2000/svg"
   xmlns="http://www.w3.org/2000/svg"
   xmlns:xlink="http://www.w3.org/1999/xlink"
   xmlns:sodipodi="http://sodipodi.sourceforge.net/DTD/sodipodi-0.dtd"
   xmlns:inkscape="http://www.inkscape.org/namespaces/inkscape"
   width="40"
   height="40"
   id="svg2193"
   sodipodi:version="0.32"
   inkscape:version="0.45.1"
   version="1.0"
   sodipodi:docbase="/home/jra/Desktop/ikoner-sendt"
   sodipodi:docname="termometer-edited.svg"
   inkscape:output_extension="org.inkscape.output.svg.inkscape">
  <defs
     id="defs2195">
    <linearGradient
       id="linearGradient3381">
      <stop
         id="stop3383"
         offset="0"
         style="stop-color:#ffffff;stop-opacity:1;" />
      <stop
         style="stop-color:#ffffff;stop-opacity:0.3131313;"
         offset="0.5"
         id="stop3385" />
      <stop
         id="stop3387"
         offset="0.75"
         style="stop-color:#ffffff;stop-opacity:0.46464646;" />
      <stop
         id="stop3389"
         offset="1"
         style="stop-color:#ffffff;stop-opacity:0.72941178;" />
    </linearGradient>
    <linearGradient
       id="linearGradient4445">
      <stop
         id="stop4447"
         offset="0"
         style="stop-color:#000000;stop-opacity:1;" />
      <stop
         style="stop-color:#2e3436;stop-opacity:0;"
         offset="0.5"
         id="stop4451" />
      <stop
         id="stop4449"
         offset="1"
         style="stop-color:#000000;stop-opacity:1;" />
    </linearGradient>
    <linearGradient
       inkscape:collect="always"
       id="linearGradient3489">
      <stop
         style="stop-color:#000000;stop-opacity:1;"
         offset="0"
         id="stop3491" />
      <stop
         style="stop-color:#000000;stop-opacity:0;"
         offset="1"
         id="stop3493" />
    </linearGradient>
    <linearGradient
       id="linearGradient3465">
      <stop
         id="stop3467"
         offset="0"
         style="stop-color:#ffffff;stop-opacity:0;" />
      <stop
         style="stop-color:#ffffff;stop-opacity:0.72727275;"
         offset="0.5"
         id="stop3471" />
      <stop
         id="stop3469"
         offset="1"
         style="stop-color:#ffffff;stop-opacity:0;" />
    </linearGradient>
    <linearGradient
       id="linearGradient3513">
      <stop
         id="stop3515"
         offset="0"
         style="stop-color:#ffffff;stop-opacity:1;" />
      <stop
         style="stop-color:#575757;stop-opacity:0.49803922;"
         offset="0.70833331"
         id="stop3519" />
      <stop
         id="stop3517"
         offset="1"
         style="stop-color:#ffffff;stop-opacity:0.44444445;" />
    </linearGradient>
    <linearGradient
       id="linearGradient3505">
      <stop
         style="stop-color:#000000;stop-opacity:1;"
         offset="0"
         id="stop3507" />
      <stop
         id="stop3419"
         offset="0.5"
         style="stop-color:#000000;stop-opacity:0;" />
      <stop
         style="stop-color:#000000;stop-opacity:0.16161616;"
         offset="0.75"
         id="stop3421" />
      <stop
         style="stop-color:#000000;stop-opacity:0.72727275;"
         offset="1"
         id="stop3509" />
    </linearGradient>
    <linearGradient
       id="linearGradient3431">
      <stop
         style="stop-color:#ffffff;stop-opacity:1;"
         offset="0"
         id="stop3433" />
      <stop
         id="stop4455"
         offset="0.5"
         style="stop-color:#ffffff;stop-opacity:0.30303031;" />
      <stop
         style="stop-color:#000000;stop-opacity:0;"
         offset="1"
         id="stop3435" />
    </linearGradient>
    <linearGradient
       id="linearGradient3919">
      <stop
         id="stop3921"
         offset="0"
         style="stop-color:#000000;stop-opacity:1" />
      <stop
         style="stop-color:#ffffff;stop-opacity:1;"
         offset="0.57552081"
         id="stop3925" />
      <stop
         id="stop4453"
         offset="0.8125"
         style="stop-color:#e3e3e3;stop-opacity:1;" />
      <stop
         id="stop3923"
         offset="1"
         style="stop-color:#575a55;stop-opacity:1;" />
    </linearGradient>
    <linearGradient
       inkscape:collect="always"
       id="linearGradient3884">
      <stop
         style="stop-color:#2e3436;stop-opacity:1;"
         offset="0"
         id="stop3886" />
      <stop
         style="stop-color:#2e3436;stop-opacity:0;"
         offset="1"
         id="stop3888" />
    </linearGradient>
    <linearGradient
       id="linearGradient3291">
      <stop
         id="stop3293"
         offset="0"
         style="stop-color:#000000;stop-opacity:1;" />
      <stop
         id="stop3295"
         offset="1"
         style="stop-color:#000000;stop-opacity:0;" />
    </linearGradient>
    <radialGradient
       inkscape:collect="always"
       xlink:href="#linearGradient3291"
       id="radialGradient2595"
       gradientUnits="userSpaceOnUse"
       gradientTransform="matrix(1,0,0,0.197802,0,92.82166)"
       cx="63.912209"
       cy="115.70919"
       fx="75.857941"
       fy="115.70919"
       r="63.912209" />
    <linearGradient
       inkscape:collect="always"
       xlink:href="#linearGradient3884"
       id="linearGradient3890"
       x1="22.285744"
       y1="16.933451"
       x2="21.828497"
       y2="15.903016"
       gradientUnits="userSpaceOnUse" />
    <linearGradient
       inkscape:collect="always"
       xlink:href="#linearGradient3919"
       id="linearGradient3917"
       x1="5.29773"
       y1="25.968639"
       x2="3.5732744"
       y2="21.814873"
       gradientUnits="userSpaceOnUse" />
    <radialGradient
       inkscape:collect="always"
       xlink:href="#linearGradient3431"
       id="radialGradient3437"
       cx="1.4802423"
       cy="24.704357"
       fx="1.4802423"
       fy="24.704357"
       r="1.8884098"
       gradientTransform="matrix(0.8908678,0,0,1.0085314,0.2304423,-0.2107637)"
       gradientUnits="userSpaceOnUse" />
    <radialGradient
       inkscape:collect="always"
       xlink:href="#linearGradient3513"
       id="radialGradient3503"
       cx="35.727623"
       cy="10.23747"
       fx="35.727623"
       fy="10.23747"
       r="2.2624049"
       gradientTransform="matrix(1.2560438,-3.9337717e-2,4.5285339e-2,1.4459497,-9.6493331,-3.1541488)"
       gradientUnits="userSpaceOnUse" />
    <linearGradient
       inkscape:collect="always"
       xlink:href="#linearGradient3505"
       id="linearGradient3511"
       x1="25.821041"
       y1="22.977346"
       x2="19.644989"
       y2="8.8453846"
       gradientUnits="userSpaceOnUse" />
    <linearGradient
       inkscape:collect="always"
       xlink:href="#linearGradient3465"
       id="linearGradient3463"
       gradientUnits="userSpaceOnUse"
       gradientTransform="translate(0,-20)"
       x1="29.607899"
       y1="32.929985"
       x2="28.383892"
       y2="29.91585" />
    <linearGradient
       inkscape:collect="always"
       xlink:href="#linearGradient3884"
       id="linearGradient3475"
       gradientUnits="userSpaceOnUse"
       gradientTransform="matrix(0.6893313,-0.7244462,-0.7244462,-0.6893313,33.206596,57.032677)"
       x1="29.607899"
       y1="32.929985"
       x2="28.383892"
       y2="29.91585" />
    <linearGradient
       inkscape:collect="always"
       xlink:href="#linearGradient3489"
       id="linearGradient3496"
       x1="27.851274"
       y1="18.844292"
       x2="26.790468"
       y2="16.513916"
       gradientUnits="userSpaceOnUse" />
    <linearGradient
       inkscape:collect="always"
       xlink:href="#linearGradient4445"
       id="linearGradient4443"
       x1="23.332714"
       y1="14.969295"
       x2="23.793234"
       y2="16.037382"
       gradientUnits="userSpaceOnUse" />
    <linearGradient
       inkscape:collect="always"
       xlink:href="#linearGradient3884"
       id="linearGradient5474"
       gradientUnits="userSpaceOnUse"
       x1="25.821041"
       y1="22.977346"
       x2="19.644989"
       y2="8.8453846" />
    <linearGradient
       inkscape:collect="always"
       xlink:href="#linearGradient3381"
       id="linearGradient2410"
       gradientUnits="userSpaceOnUse"
       x1="25.821041"
       y1="22.977346"
       x2="19.644989"
       y2="8.8453846" />
  </defs>
  <sodipodi:namedview
     id="base"
     pagecolor="#ffffff"
     bordercolor="#666666"
     borderopacity="1.0"
     inkscape:pageopacity="0.0"
     inkscape:pageshadow="2"
     inkscape:zoom="14.453323"
     inkscape:cx="25.854378"
     inkscape:cy="16.997887"
     inkscape:current-layer="layer1"
     showgrid="false"
     inkscape:grid-bbox="false"
     inkscape:document-units="px"
     width="40px"
     height="40px"
     gridempspacing="2"
     inkscape:window-width="1167"
     inkscape:window-height="914"
     inkscape:window-x="18"
     inkscape:window-y="61" />
  <metadata
     id="metadata2198">
    <rdf:RDF>
      <cc:Work
         rdf:about="">
        <dc:format>image/svg+xml</dc:format>
        <dc:type
           rdf:resource="http://purl.org/dc/dcmitype/StillImage" />
        <dc:creator>
          <cc:Agent>
            <dc:title>Jarle Akselsen</dc:title>
          </cc:Agent>
        </dc:creator>
        <cc:license
           rdf:resource="http://creativecommons.org/licenses/GPL/2.0/" />
      </cc:Work>
      <cc:License
         rdf:about="http://creativecommons.org/licenses/GPL/2.0/">
        <cc:permits
           rdf:resource="http://web.resource.org/cc/Reproduction" />
        <cc:permits
           rdf:resource="http://web.resource.org/cc/Distribution" />
        <cc:requires
           rdf:resource="http://web.resource.org/cc/Notice" />
        <cc:permits
           rdf:resource="http://web.resource.org/cc/DerivativeWorks" />
        <cc:requires
           rdf:resource="http://web.resource.org/cc/ShareAlike" />
        <cc:requires
           rdf:resource="http://web.resource.org/cc/SourceCode" />
      </cc:License>
    </rdf:RDF>
  </metadata>
  <g
     id="layer1"
     inkscape:label="Layer 1"
     inkscape:groupmode="layer">
    <path
       sodipodi:nodetypes="ccscsscscss"
       id="path3259"
       d="M 10.38221,16.424497 C 10.455179,16.379298 35.544137,6.3956551 35.544137,6.3956551 C 35.544137,6.3956551 38.203239,5.8313473 39.279385,8.4849985 C 40.558869,11.640059 38.727041,13.012026 38.727041,13.012026 C 38.727041,13.012026 13.250154,24.677171 13.239044,24.67987 C 9.889324,25.493517 10.464296,23.94779 7.35509,24.62071 C 7.301457,24.632318 2.759185,26.694449 2.759185,26.694449 C 2.759185,26.694449 1.260391,26.791088 0.629942,25.30138 C -0.041342,23.715179 1.197751,22.921935 1.197751,22.921935 C 1.197751,22.921935 5.840985,20.981937 5.909566,20.933237 C 8.331083,19.213676 6.853973,18.609963 10.38221,16.424497 z "
       style="opacity:0.5;fill:#888a85;fill-opacity:1;fill-rule:evenodd;stroke:none;stroke-width:1px;stroke-linecap:butt;stroke-linejoin:miter;stroke-opacity:1" />
    <path
       transform="matrix(0.2743506,-6.4063535e-2,1.6594254e-2,0.1838833,4.3096403,6.0023796)"
       d="M 127.82442 115.70919 A 63.912209 12.641975 0 1 1  0,115.70919 A 63.912209 12.641975 0 1 1  127.82442 115.70919 z"
       sodipodi:ry="12.641975"
       sodipodi:rx="63.912209"
       sodipodi:cy="115.70919"
       sodipodi:cx="63.912209"
       id="path2593"
       style="opacity:0.38139535;fill:url(#radialGradient2595);fill-opacity:1;fill-rule:nonzero;stroke:none;stroke-width:0;stroke-linecap:round;stroke-linejoin:round;stroke-miterlimit:4;stroke-dasharray:none;stroke-dashoffset:4;stroke-opacity:1"
       sodipodi:type="arc" />
    <path
       sodipodi:nodetypes="ccscsscscss"
       id="path2408"
       d="M 10.38221,16.424497 C 10.455179,16.379298 35.544137,6.395655 35.544137,6.395655 C 35.544137,6.395655 38.203239,5.831347 39.279385,8.484998 C 40.558869,11.640059 38.727041,13.012026 38.727041,13.012026 C 38.727041,13.012026 13.250154,24.677171 13.239044,24.67987 C 9.8893243,25.493517 10.464296,23.94779 7.3550897,24.62071 C 7.3014565,24.632318 2.759185,26.694449 2.759185,26.694449 C 2.759185,26.694449 1.2603906,26.791088 0.62994223,25.30138 C -0.041342325,23.715179 1.1977512,22.921935 1.1977512,22.921935 C 1.1977512,22.921935 5.8409854,20.981937 5.9095658,20.933237 C 8.3310835,19.213676 6.8539732,18.609963 10.38221,16.424497 z "
       style="fill:url(#linearGradient2410);fill-opacity:1;fill-rule:evenodd;stroke:none;stroke-width:1px;stroke-linecap:butt;stroke-linejoin:miter;stroke-opacity:1" />
    <path
       sodipodi:nodetypes="csccsczcc"
       id="path3473"
       d="M 38.370836,12.670941 C 38.370836,12.670941 39.604313,11.885385 38.521348,10.943128 C 37.185255,9.780629 35.413933,10.292392 35.413933,10.292392 L 12.941493,20.633952 C 12.941493,20.633952 12.597008,21.305229 11.673361,22.162593 C 10.749714,23.019955 8.9655326,23.795672 8.9655326,23.795672 C 8.9655326,23.795672 10.333939,24.318238 11.621658,24.324935 C 12.909376,24.331634 14.116407,23.822464 14.116407,23.822464 L 38.370836,12.670941 z "
       style="fill:url(#linearGradient3475);fill-opacity:1.0;fill-rule:evenodd;stroke:none;stroke-width:1px;stroke-linecap:butt;stroke-linejoin:miter;stroke-opacity:1;opacity:0.30097087" />
    <path
       sodipodi:nodetypes="ccc"
       id="path2276"
       d="M 10.956528,1.0198748 L 10.956528,-1.7748336 L 10.956528,1.0198748 z "
       style="fill:#ffffff;fill-opacity:0.75688076;fill-rule:nonzero;stroke:none;stroke-width:0.5;stroke-linecap:round;stroke-linejoin:round;stroke-miterlimit:4;stroke-dasharray:none;stroke-dashoffset:4;stroke-opacity:1" />
    <rect
       style="opacity:0.61162792;fill:#555753;fill-opacity:1;fill-rule:nonzero;stroke:none;stroke-width:0.69999999;stroke-linecap:round;stroke-linejoin:miter;stroke-miterlimit:4;stroke-dasharray:none;stroke-opacity:1"
       id="rect1951"
       width="40.001965"
       height="10.004759"
       x="-0.0019644466"
       y="30" />
    <text
       xml:space="preserve"
       style="font-size:12px;font-style:normal;font-weight:normal;fill:#eeeeec;fill-opacity:1;stroke:none;stroke-width:1px;stroke-linecap:butt;stroke-linejoin:miter;stroke-opacity:1;font-family:Bitstream Vera Sans"
       x="15.208133"
       y="39.168156"
       id="text2840"><tspan
         sodipodi:role="line"
         id="tspan2842"
         x="15.208133"
         y="39.168156">Tl</tspan></text>
    <path
       style="opacity:0.5;fill:url(#linearGradient3511);fill-opacity:1;fill-rule:evenodd;stroke:none;stroke-width:1px;stroke-linecap:butt;stroke-linejoin:miter;stroke-opacity:1"
       d="M 10.38221,16.424497 C 10.455179,16.379298 35.544137,6.3956551 35.544137,6.3956551 C 35.544137,6.3956551 38.203239,5.8313473 39.279385,8.4849985 C 40.558869,11.640059 38.727041,13.012026 38.727041,13.012026 C 38.727041,13.012026 13.250154,24.677171 13.239044,24.67987 C 9.889324,25.493517 10.464296,23.94779 7.35509,24.62071 C 7.301457,24.632318 2.759185,26.694449 2.759185,26.694449 C 2.759185,26.694449 1.260391,26.791088 0.629942,25.30138 C -0.041342,23.715179 1.197751,22.921935 1.197751,22.921935 C 1.197751,22.921935 5.840985,20.981937 5.909566,20.933237 C 8.331083,19.213676 6.853973,18.609963 10.38221,16.424497 z "
       id="path2245"
       sodipodi:nodetypes="ccscsscscss" />
    <path
       style="opacity:1;fill:#eeeeec;fill-opacity:1;fill-rule:evenodd;stroke:none;stroke-width:1px;stroke-linecap:butt;stroke-linejoin:miter;stroke-opacity:1"
       d="M 32.6875,8.34375 L 35.0625,13.84375 L 13.875,23.4375 L 11.09375,17.0625 L 32.6875,8.34375 z "
       id="path3221"
       sodipodi:nodetypes="ccccc" />
    <path
       sodipodi:nodetypes="ccc"
       id="path2613"
       d="M 10.930514,0.97064476 L 10.930514,-1.8240636 L 10.930514,0.97064476 z "
       style="fill:#ffffff;fill-opacity:0.75688076;fill-rule:nonzero;stroke:none;stroke-width:0.5;stroke-linecap:round;stroke-linejoin:round;stroke-miterlimit:4;stroke-dasharray:none;stroke-dashoffset:4;stroke-opacity:1" />
    <g
       id="g3566">
      <rect
         transform="matrix(0.3947283,0.9187979,-0.9187979,0.3947283,0,0)"
         y="-20.000921"
         x="22.136108"
         height="0.13056244"
         width="2.6786425"
         id="rect2315"
         style="opacity:1;fill:#2e3436;fill-opacity:1;fill-rule:nonzero;stroke:none;stroke-width:0.2;stroke-linecap:round;stroke-linejoin:round;stroke-miterlimit:4;stroke-dasharray:none;stroke-opacity:0.79187814" />
      <path
         id="rect3286"
         d="M 26.71875,12.90625 L 26.625,12.9375 L 27.53125,15.0625 L 27.65625,15.03125 L 26.71875,12.90625 z "
         style="opacity:1;fill:#2e3436;fill-opacity:1;fill-rule:nonzero;stroke:none;stroke-width:0.2;stroke-linecap:round;stroke-linejoin:round;stroke-miterlimit:4;stroke-dasharray:none;stroke-opacity:0.79187814" />
      <path
         id="rect3288"
         d="M 26.25,13.09375 L 26.125,13.15625 L 27.0625,15.28125 L 27.1875,15.21875 L 26.25,13.09375 z "
         style="opacity:1;fill:#2e3436;fill-opacity:1;fill-rule:nonzero;stroke:none;stroke-width:0.2;stroke-linecap:round;stroke-linejoin:round;stroke-miterlimit:4;stroke-dasharray:none;stroke-opacity:0.79187814" />
      <path
         id="rect3290"
         d="M 25.78125,13.28125 L 25.65625,13.34375 L 26.59375,15.46875 L 26.71875,15.4375 L 25.78125,13.28125 z "
         style="opacity:1;fill:#2e3436;fill-opacity:1;fill-rule:nonzero;stroke:none;stroke-width:0.2;stroke-linecap:round;stroke-linejoin:round;stroke-miterlimit:4;stroke-dasharray:none;stroke-opacity:0.79187814" />
      <path
         id="rect3294"
         d="M 24.8125,13.6875 L 24.6875,13.75 L 25.625,15.90625 L 25.75,15.84375 L 24.8125,13.6875 z "
         style="opacity:1;fill:#2e3436;fill-opacity:1;fill-rule:nonzero;stroke:none;stroke-width:0.2;stroke-linecap:round;stroke-linejoin:round;stroke-miterlimit:4;stroke-dasharray:none;stroke-opacity:0.79187814" />
      <path
         id="rect3296"
         d="M 24.34375,13.90625 L 24.21875,13.9375 L 25.15625,16.125 L 25.28125,16.0625 L 24.34375,13.90625 z "
         style="opacity:1;fill:#2e3436;fill-opacity:1;fill-rule:nonzero;stroke:none;stroke-width:0.2;stroke-linecap:round;stroke-linejoin:round;stroke-miterlimit:4;stroke-dasharray:none;stroke-opacity:0.79187814" />
      <path
         id="rect3298"
         d="M 23.875,14.09375 L 23.75,14.15625 L 24.6875,16.3125 L 24.78125,16.28125 L 23.875,14.09375 z "
         style="opacity:1;fill:#2e3436;fill-opacity:1;fill-rule:nonzero;stroke:none;stroke-width:0.2;stroke-linecap:round;stroke-linejoin:round;stroke-miterlimit:4;stroke-dasharray:none;stroke-opacity:0.79187814" />
      <path
         id="rect3300"
         d="M 23.375,14.3125 L 23.28125,14.34375 L 24.1875,16.53125 L 24.3125,16.46875 L 23.375,14.3125 z "
         style="opacity:1;fill:#2e3436;fill-opacity:1;fill-rule:nonzero;stroke:none;stroke-width:0.2;stroke-linecap:round;stroke-linejoin:round;stroke-miterlimit:4;stroke-dasharray:none;stroke-opacity:0.79187814" />
      <path
         id="rect3304"
         d="M 22.4375,14.6875 L 22.3125,14.75 L 23.25,16.9375 L 23.375,16.90625 L 22.4375,14.6875 z "
         style="opacity:1;fill:#2e3436;fill-opacity:1;fill-rule:nonzero;stroke:none;stroke-width:0.2;stroke-linecap:round;stroke-linejoin:round;stroke-miterlimit:4;stroke-dasharray:none;stroke-opacity:0.79187814" />
      <path
         id="rect3306"
         d="M 21.96875,14.90625 L 21.84375,14.9375 L 22.78125,17.15625 L 22.875,17.09375 L 21.96875,14.90625 z "
         style="opacity:1;fill:#2e3436;fill-opacity:1;fill-rule:nonzero;stroke:none;stroke-width:0.2;stroke-linecap:round;stroke-linejoin:round;stroke-miterlimit:4;stroke-dasharray:none;stroke-opacity:0.79187814" />
      <path
         id="rect3308"
         d="M 21.46875,15.09375 L 21.34375,15.15625 L 22.28125,17.375 L 22.40625,17.3125 L 21.46875,15.09375 z "
         style="opacity:1;fill:#2e3436;fill-opacity:1;fill-rule:nonzero;stroke:none;stroke-width:0.2;stroke-linecap:round;stroke-linejoin:round;stroke-miterlimit:4;stroke-dasharray:none;stroke-opacity:0.79187814" />
      <path
         id="rect3310"
         d="M 20.96875,15.3125 L 20.875,15.34375 L 21.8125,17.5625 L 21.9375,17.53125 L 20.96875,15.3125 z "
         style="opacity:1;fill:#2e3436;fill-opacity:1;fill-rule:nonzero;stroke:none;stroke-width:0.2;stroke-linecap:round;stroke-linejoin:round;stroke-miterlimit:4;stroke-dasharray:none;stroke-opacity:0.79187814" />
      <path
         id="rect3314"
         d="M 20,15.71875 L 19.90625,15.75 L 20.875,18 L 21,17.9375 L 20,15.71875 z "
         style="opacity:1;fill:#2e3436;fill-opacity:1;fill-rule:nonzero;stroke:none;stroke-width:0.2;stroke-linecap:round;stroke-linejoin:round;stroke-miterlimit:4;stroke-dasharray:none;stroke-opacity:0.79187814" />
      <path
         id="rect3316"
         d="M 19.53125,15.90625 L 19.40625,15.9375 L 20.375,18.21875 L 20.5,18.15625 L 19.53125,15.90625 z "
         style="opacity:1;fill:#2e3436;fill-opacity:1;fill-rule:nonzero;stroke:none;stroke-width:0.2;stroke-linecap:round;stroke-linejoin:round;stroke-miterlimit:4;stroke-dasharray:none;stroke-opacity:0.79187814" />
      <path
         id="rect3318"
         d="M 19.0625,16.09375 L 18.9375,16.15625 L 19.9375,18.40625 L 20.03125,18.34375 L 19.0625,16.09375 z "
         style="opacity:1;fill:#2e3436;fill-opacity:1;fill-rule:nonzero;stroke:none;stroke-width:0.2;stroke-linecap:round;stroke-linejoin:round;stroke-miterlimit:4;stroke-dasharray:none;stroke-opacity:0.79187814" />
      <path
         id="rect3320"
         d="M 18.59375,16.28125 L 18.46875,16.34375 L 19.4375,18.625 L 19.5625,18.5625 L 18.59375,16.28125 z "
         style="opacity:1;fill:#2e3436;fill-opacity:1;fill-rule:nonzero;stroke:none;stroke-width:0.2;stroke-linecap:round;stroke-linejoin:round;stroke-miterlimit:4;stroke-dasharray:none;stroke-opacity:0.79187814" />
      <path
         id="rect3324"
         d="M 17.625,16.6875 L 17.5,16.75 L 18.5,19.03125 L 18.625,19 L 18.625,18.96875 L 17.625,16.6875 z "
         style="opacity:1;fill:#2e3436;fill-opacity:1;fill-rule:nonzero;stroke:none;stroke-width:0.2;stroke-linecap:round;stroke-linejoin:round;stroke-miterlimit:4;stroke-dasharray:none;stroke-opacity:0.79187814" />
      <path
         id="rect3326"
         d="M 17.15625,16.90625 L 17.03125,16.9375 L 18.03125,19.25 L 18.125,19.21875 L 18.125,19.1875 L 17.15625,16.90625 z "
         style="opacity:1;fill:#2e3436;fill-opacity:1;fill-rule:nonzero;stroke:none;stroke-width:0.2;stroke-linecap:round;stroke-linejoin:round;stroke-miterlimit:4;stroke-dasharray:none;stroke-opacity:0.79187814" />
      <path
         id="rect3328"
         d="M 16.65625,17.09375 L 16.5625,17.15625 L 17.53125,19.46875 L 17.65625,19.40625 L 16.65625,17.09375 z "
         style="opacity:1;fill:#2e3436;fill-opacity:1;fill-rule:nonzero;stroke:none;stroke-width:0.2;stroke-linecap:round;stroke-linejoin:round;stroke-miterlimit:4;stroke-dasharray:none;stroke-opacity:0.79187814" />
      <path
         id="rect3330"
         d="M 16.1875,17.3125 L 16.0625,17.34375 L 17.0625,19.65625 L 17.1875,19.625 L 16.1875,17.3125 z "
         style="opacity:1;fill:#2e3436;fill-opacity:1;fill-rule:nonzero;stroke:none;stroke-width:0.2;stroke-linecap:round;stroke-linejoin:round;stroke-miterlimit:4;stroke-dasharray:none;stroke-opacity:0.79187814" />
      <path
         id="rect3332"
         d="M 15.28125,16.5625 L 15.1875,16.59375 L 15.9375,18.40625 L 16.15625,18.90625 L 16.96875,20.78125 L 17.09375,20.75 L 16.28125,18.84375 L 16.0625,18.34375 L 15.28125,16.5625 z "
         style="opacity:1;fill:#2e3436;fill-opacity:1;fill-rule:nonzero;stroke:none;stroke-width:0.2;stroke-linecap:round;stroke-linejoin:round;stroke-miterlimit:4;stroke-dasharray:none;stroke-opacity:0.79187814" />
      <path
         id="rect3334"
         d="M 15.25,17.6875 L 15.125,17.75 L 16.125,20.09375 L 16.21875,20.03125 L 15.25,17.6875 z "
         style="opacity:1;fill:#2e3436;fill-opacity:1;fill-rule:nonzero;stroke:none;stroke-width:0.2;stroke-linecap:round;stroke-linejoin:round;stroke-miterlimit:4;stroke-dasharray:none;stroke-opacity:0.79187814" />
      <path
         id="rect3336"
         d="M 14.75,17.90625 L 14.625,17.96875 L 15.625,20.28125 L 15.71875,20.25 L 15.75,20.25 L 14.75,17.90625 z "
         style="opacity:1;fill:#2e3436;fill-opacity:1;fill-rule:nonzero;stroke:none;stroke-width:0.2;stroke-linecap:round;stroke-linejoin:round;stroke-miterlimit:4;stroke-dasharray:none;stroke-opacity:0.79187814" />
      <path
         id="rect3338"
         d="M 14.25,18.09375 L 14.15625,18.15625 L 15.15625,20.5 L 15.28125,20.4375 L 14.25,18.09375 z "
         style="opacity:1;fill:#2e3436;fill-opacity:1;fill-rule:nonzero;stroke:none;stroke-width:0.2;stroke-linecap:round;stroke-linejoin:round;stroke-miterlimit:4;stroke-dasharray:none;stroke-opacity:0.79187814" />
      <path
         id="rect3340"
         d="M 13.78125,18.28125 L 13.65625,18.34375 L 14.6875,20.6875 L 14.78125,20.65625 L 13.78125,18.28125 z "
         style="opacity:1;fill:#2e3436;fill-opacity:1;fill-rule:nonzero;stroke:none;stroke-width:0.2;stroke-linecap:round;stroke-linejoin:round;stroke-miterlimit:4;stroke-dasharray:none;stroke-opacity:0.79187814" />
      <path
         id="rect3344"
         d="M 27.03125,10.875 L 26.875,10.9375 L 29.1875,16.28125 L 29.34375,16.21875 L 27.03125,10.875 z "
         style="opacity:1;fill:#2e3436;fill-opacity:1;fill-rule:nonzero;stroke:none;stroke-width:0.2;stroke-linecap:round;stroke-linejoin:round;stroke-miterlimit:4;stroke-dasharray:none;stroke-opacity:0.79187814" />
      <path
         id="rect3350"
         d="M 27.25,12.6875 L 27.09375,12.75 L 28,14.84375 L 28.15625,14.8125 L 27.25,12.6875 z "
         style="opacity:1;fill:#2e3436;fill-opacity:1;fill-rule:nonzero;stroke:none;stroke-width:0.2;stroke-linecap:round;stroke-linejoin:round;stroke-miterlimit:4;stroke-dasharray:none;stroke-opacity:0.79187814" />
      <path
         id="path3373"
         d="M 22.1875,12.84375 L 22.0625,12.875 L 24.4375,18.4375 L 24.59375,18.34375 L 22.1875,12.84375 z "
         style="opacity:1;fill:#2e3436;fill-opacity:1;fill-rule:nonzero;stroke:none;stroke-width:0.2;stroke-linecap:round;stroke-linejoin:round;stroke-miterlimit:4;stroke-dasharray:none;stroke-opacity:0.79187814" />
      <path
         id="path3375"
         d="M 17.375,14.78125 L 17.25,14.84375 L 19.6875,20.5625 L 19.84375,20.5 L 17.375,14.78125 z "
         style="opacity:1;fill:#2e3436;fill-opacity:1;fill-rule:nonzero;stroke:none;stroke-width:0.2;stroke-linecap:round;stroke-linejoin:round;stroke-miterlimit:4;stroke-dasharray:none;stroke-opacity:0.79187814" />
      <path
         id="path3377"
         d="M 12.5625,16.71875 L 12.40625,16.78125 L 14.96875,22.71875 L 15.125,22.65625 L 12.5625,16.71875 z "
         style="opacity:1;fill:#2e3436;fill-opacity:1;fill-rule:nonzero;stroke:none;stroke-width:0.2;stroke-linecap:round;stroke-linejoin:round;stroke-miterlimit:4;stroke-dasharray:none;stroke-opacity:0.79187814" />
      <path
         id="path3382"
         d="M 20.09375,14.5625 L 19.96875,14.625 L 20.71875,16.34375 L 20.9375,16.84375 L 21.71875,18.6875 L 21.875,18.65625 L 21.0625,16.8125 L 20.84375,16.28125 L 20.09375,14.5625 z "
         style="opacity:1;fill:#2e3436;fill-opacity:1;fill-rule:nonzero;stroke:none;stroke-width:0.2;stroke-linecap:round;stroke-linejoin:round;stroke-miterlimit:4;stroke-dasharray:none;stroke-opacity:0.79187814" />
      <path
         id="path3384"
         d="M 24.90625,12.5625 L 24.78125,12.625 L 25.5,14.28125 L 25.71875,14.8125 L 26.5,16.59375 L 26.625,16.5625 L 25.84375,14.75 L 25.625,14.25 L 24.90625,12.5625 z "
         style="opacity:1;fill:#2e3436;fill-opacity:1;fill-rule:nonzero;stroke:none;stroke-width:0.2;stroke-linecap:round;stroke-linejoin:round;stroke-miterlimit:4;stroke-dasharray:none;stroke-opacity:0.79187814" />
      <path
         id="rect3388"
         d="M 31.53125,10.90625 L 31.40625,10.96875 L 32.28125,12.96875 L 32.40625,12.9375 L 31.53125,10.90625 z "
         style="opacity:1;fill:#2e3436;fill-opacity:1;fill-rule:nonzero;stroke:none;stroke-width:0.2;stroke-linecap:round;stroke-linejoin:round;stroke-miterlimit:4;stroke-dasharray:none;stroke-opacity:0.79187814" />
      <path
         id="rect3390"
         d="M 31.0625,11.09375 L 30.9375,11.15625 L 31.8125,13.1875 L 31.9375,13.125 L 31.0625,11.09375 z "
         style="opacity:1;fill:#2e3436;fill-opacity:1;fill-rule:nonzero;stroke:none;stroke-width:0.2;stroke-linecap:round;stroke-linejoin:round;stroke-miterlimit:4;stroke-dasharray:none;stroke-opacity:0.79187814" />
      <path
         id="rect3392"
         d="M 30.59375,11.28125 L 30.46875,11.34375 L 31.34375,13.375 L 31.46875,13.34375 L 30.59375,11.28125 z "
         style="opacity:1;fill:#2e3436;fill-opacity:1;fill-rule:nonzero;stroke:none;stroke-width:0.2;stroke-linecap:round;stroke-linejoin:round;stroke-miterlimit:4;stroke-dasharray:none;stroke-opacity:0.79187814" />
      <path
         id="rect3394"
         d="M 29.625,11.6875 L 29.5,11.75 L 30.375,13.8125 L 30.5,13.75 L 29.625,11.6875 z "
         style="opacity:1;fill:#2e3436;fill-opacity:1;fill-rule:nonzero;stroke:none;stroke-width:0.2;stroke-linecap:round;stroke-linejoin:round;stroke-miterlimit:4;stroke-dasharray:none;stroke-opacity:0.79187814" />
      <path
         id="rect3396"
         d="M 29.15625,11.90625 L 29.03125,11.9375 L 29.90625,14.03125 L 30.03125,13.96875 L 29.15625,11.90625 z "
         style="opacity:1;fill:#2e3436;fill-opacity:1;fill-rule:nonzero;stroke:none;stroke-width:0.2;stroke-linecap:round;stroke-linejoin:round;stroke-miterlimit:4;stroke-dasharray:none;stroke-opacity:0.79187814" />
      <path
         id="rect3398"
         d="M 28.6875,12.09375 L 28.5625,12.15625 L 29.4375,14.21875 L 29.5625,14.1875 L 28.6875,12.09375 z "
         style="opacity:1;fill:#2e3436;fill-opacity:1;fill-rule:nonzero;stroke:none;stroke-width:0.2;stroke-linecap:round;stroke-linejoin:round;stroke-miterlimit:4;stroke-dasharray:none;stroke-opacity:0.79187814" />
      <path
         id="rect3400"
         d="M 28.1875,12.3125 L 28.0625,12.34375 L 28.96875,14.4375 L 29.0625,14.375 L 28.1875,12.3125 z "
         style="opacity:1;fill:#2e3436;fill-opacity:1;fill-rule:nonzero;stroke:none;stroke-width:0.2;stroke-linecap:round;stroke-linejoin:round;stroke-miterlimit:4;stroke-dasharray:none;stroke-opacity:0.79187814" />
      <path
         id="path3402"
         d="M 31.84375,8.9375 L 31.6875,9 L 33.90625,14.125 L 34.03125,14.09375 L 31.84375,8.9375 z "
         style="opacity:1;fill:#2e3436;fill-opacity:1;fill-rule:nonzero;stroke:none;stroke-width:0.2;stroke-linecap:round;stroke-linejoin:round;stroke-miterlimit:4;stroke-dasharray:none;stroke-opacity:0.79187814" />
      <path
         id="rect3404"
         d="M 32.03125,10.6875 L 31.90625,10.75 L 32.78125,12.75 L 32.875,12.71875 L 32.03125,10.6875 z "
         style="opacity:1;fill:#2e3436;fill-opacity:1;fill-rule:nonzero;stroke:none;stroke-width:0.2;stroke-linecap:round;stroke-linejoin:round;stroke-miterlimit:4;stroke-dasharray:none;stroke-opacity:0.79187814" />
      <path
         id="path3406"
         d="M 29.6875,10.5625 L 29.59375,10.625 L 30.28125,12.25 L 30.5,12.75 L 31.28125,14.5 L 31.375,14.46875 L 30.625,12.6875 L 30.40625,12.1875 L 29.6875,10.5625 z "
         style="opacity:1;fill:#2e3436;fill-opacity:1;fill-rule:nonzero;stroke:none;stroke-width:0.2;stroke-linecap:round;stroke-linejoin:round;stroke-miterlimit:4;stroke-dasharray:none;stroke-opacity:0.79187814" />
    </g>
    <path
       style="opacity:1;fill:url(#linearGradient3890);fill-opacity:1.0;fill-rule:evenodd;stroke:none;stroke-width:1px;stroke-linecap:butt;stroke-linejoin:miter;stroke-opacity:1"
       d="M 33.65625 10.5625 L 12.1875 19.5625 L 12.78125 20.96875 L 34.125 11.6875 L 33.65625 10.5625 z "
       id="path3877" />
    <g
       transform="matrix(3.5398914e-2,8.5345473e-2,-8.5642125e-2,3.5521956e-2,11.728765,17.377963)"
       id="g3788">
      <path
         style="font-size:12px;font-style:normal;font-weight:normal;fill:#000000;fill-opacity:1;stroke:none;stroke-width:1px;stroke-linecap:butt;stroke-linejoin:miter;stroke-opacity:1;font-family:Bitstream Vera Sans"
         d="M 3.1778026,-22.748098 L 5.1113963,-22.748098 L 5.1113963,-29.421926 L 3.0078807,-29.000051 L 3.0078807,-30.078176 L 5.0996776,-30.500051 L 6.2832713,-30.500051 L 6.2832713,-22.748098 L 8.2168651,-22.748098 L 8.2168651,-21.752005 L 3.1778026,-21.752005 L 3.1778026,-22.748098 M 13.121162,-29.720755 C 12.511784,-29.720747 12.0528,-29.419966 11.744209,-28.818411 C 11.439519,-28.220748 11.287176,-27.320358 11.287178,-26.117239 C 11.287176,-24.918017 11.439519,-24.017627 11.744209,-23.416067 C 12.0528,-22.81841 12.511784,-22.519582 13.121162,-22.519583 C 13.734439,-22.519582 14.193423,-22.81841 14.498115,-23.416067 C 14.806703,-24.017627 14.961,-24.918017 14.961006,-26.117239 C 14.961,-27.320358 14.806703,-28.220748 14.498115,-28.818411 C 14.193423,-29.419966 13.734439,-29.720747 13.121162,-29.720755 M 13.121162,-30.658255 C 14.101626,-30.658246 14.849672,-30.269574 15.365303,-29.492239 C 15.884827,-28.718795 16.144593,-27.593796 16.144599,-26.117239 C 16.144593,-24.64458 15.884827,-23.519581 15.365303,-22.742239 C 14.849672,-21.968801 14.101626,-21.582083 13.121162,-21.582083 C 12.14069,-21.582083 11.390691,-21.968801 10.871162,-22.742239 C 10.355536,-23.519581 10.097724,-24.64458 10.097724,-26.117239 C 10.097724,-27.593796 10.355536,-28.718795 10.871162,-29.492239 C 11.390691,-30.269574 12.14069,-30.658246 13.121162,-30.658255"
         id="text3790" />
      <path
         style="font-size:12px;font-style:normal;font-weight:normal;fill:#000000;fill-opacity:1;stroke:none;stroke-width:1px;stroke-linecap:butt;stroke-linejoin:miter;stroke-opacity:1;font-family:Bitstream Vera Sans"
         d="M 3.9922557,-74.7481 L 8.1231151,-74.7481 L 8.1231151,-73.752007 L 2.5684276,-73.752007 L 2.5684276,-74.7481 C 3.017645,-75.212943 3.6289725,-75.835989 4.4024119,-76.617241 C 5.1797522,-77.402394 5.668033,-77.908252 5.8672557,-78.134819 C 6.2461574,-78.560595 6.509829,-78.91997 6.6582713,-79.212944 C 6.8106099,-79.509813 6.8867817,-79.800829 6.8867869,-80.085991 C 6.8867817,-80.550828 6.7227194,-80.929734 6.3945994,-81.22271 C 6.0703763,-81.515671 5.6465486,-81.662155 5.1231151,-81.662163 C 4.7520183,-81.662155 4.3594405,-81.597702 3.9453807,-81.468803 C 3.5352226,-81.33989 3.0957699,-81.144577 2.6270213,-80.882866 L 2.6270213,-82.078178 C 3.1035824,-82.269576 3.5488945,-82.414107 3.9629588,-82.511772 C 4.3770186,-82.60942 4.7559245,-82.658248 5.0996776,-82.658257 C 6.0059232,-82.658248 6.7285788,-82.431685 7.2676463,-81.978569 C 7.8067027,-81.525436 8.0762337,-80.919968 8.0762401,-80.162163 C 8.0762337,-79.802782 8.0078744,-79.460985 7.8711619,-79.136772 C 7.7383434,-78.816455 7.494203,-78.437549 7.1387401,-78.000053 C 7.0410785,-77.886768 6.7305319,-77.558643 6.2070994,-77.015678 C 5.6836579,-76.476613 4.9453774,-75.720755 3.9922557,-74.7481 M 13.121162,-81.720757 C 12.511784,-81.720749 12.0528,-81.419968 11.744209,-80.818413 C 11.439519,-80.22075 11.287176,-79.32036 11.287178,-78.117241 C 11.287176,-76.918019 11.439519,-76.017629 11.744209,-75.416069 C 12.0528,-74.818412 12.511784,-74.519584 13.121162,-74.519585 C 13.734439,-74.519584 14.193423,-74.818412 14.498115,-75.416069 C 14.806703,-76.017629 14.961,-76.918019 14.961006,-78.117241 C 14.961,-79.32036 14.806703,-80.22075 14.498115,-80.818413 C 14.193423,-81.419968 13.734439,-81.720749 13.121162,-81.720757 M 13.121162,-82.658257 C 14.101626,-82.658248 14.849672,-82.269576 15.365303,-81.492241 C 15.884827,-80.718796 16.144593,-79.593798 16.144599,-78.117241 C 16.144593,-76.644582 15.884827,-75.519583 15.365303,-74.742241 C 14.849672,-73.968803 14.101626,-73.582085 13.121162,-73.582085 C 12.14069,-73.582085 11.390691,-73.968803 10.871162,-74.742241 C 10.355536,-75.519583 10.097724,-76.644582 10.097724,-78.117241 C 10.097724,-79.593798 10.355536,-80.718796 10.871162,-81.492241 C 11.390691,-82.269576 12.14069,-82.658248 13.121162,-82.658257"
         id="text3794" />
      <text
         xml:space="preserve"
         style="font-size:12px;font-style:normal;font-weight:normal;fill:#000000;fill-opacity:1;stroke:none;stroke-width:1px;stroke-linecap:butt;stroke-linejoin:miter;stroke-opacity:1;font-family:Bitstream Vera Sans"
         x="44.604359"
         y="-22.953568"
         id="use3798"><tspan
           sodipodi:role="line"
           id="tspan4463"
           x="44.604359"
           y="-22.953568">10</tspan></text>
      <text
         id="use3800"
         y="-73.584801"
         x="44.03466"
         style="font-size:12px;font-style:normal;font-weight:normal;fill:#000000;fill-opacity:1;stroke:none;stroke-width:1px;stroke-linecap:butt;stroke-linejoin:miter;stroke-opacity:1;font-family:Bitstream Vera Sans"
         xml:space="preserve"><tspan
           y="-73.584801"
           x="44.03466"
           id="tspan4471"
           sodipodi:role="line">20</tspan></text>
      <path
         style="font-size:12px;font-style:normal;font-weight:normal;fill:#000000;fill-opacity:1;stroke:none;stroke-width:1px;stroke-linecap:butt;stroke-linejoin:miter;stroke-opacity:1;font-family:Bitstream Vera Sans"
         d="M 6.5586619,-136.46881 C 7.1250628,-136.34771 7.5664686,-136.09576 7.8828807,-135.71295 C 8.2031867,-135.33014 8.3633428,-134.85748 8.3633494,-134.29498 C 8.3633428,-133.4317 8.0664681,-132.76373 7.4727244,-132.29108 C 6.8789692,-131.81842 6.0352201,-131.58209 4.9414744,-131.58209 C 4.5742841,-131.58209 4.1953782,-131.6192 3.8047557,-131.69342 C 3.4180352,-131.76373 3.017645,-131.87115 2.6035838,-132.01569 L 2.6035838,-133.15826 C 2.9317076,-132.96686 3.2910822,-132.82233 3.6817088,-132.72467 C 4.0723314,-132.62701 4.4805341,-132.57819 4.9063182,-132.57819 C 5.6485017,-132.57819 6.2129543,-132.72467 6.5996776,-133.01764 C 6.9902973,-133.31061 7.1856096,-133.73639 7.1856151,-134.29498 C 7.1856096,-134.8106 7.0039691,-135.21295 6.6406932,-135.50201 C 6.2813136,-135.79498 5.779361,-135.94146 5.1348338,-135.94147 L 4.1153026,-135.94147 L 4.1153026,-136.91412 L 5.1817088,-136.91412 C 5.763736,-136.91412 6.209048,-137.02935 6.5176463,-137.25983 C 6.8262349,-137.4942 6.9805316,-137.83013 6.9805369,-138.26764 C 6.9805316,-138.71685 6.8203756,-139.0606 6.5000682,-139.29889 C 6.1836574,-139.54107 5.7285798,-139.66216 5.1348338,-139.66217 C 4.8106119,-139.66216 4.462956,-139.62701 4.0918651,-139.5567 C 3.7207693,-139.48638 3.3125666,-139.37701 2.8672557,-139.22858 L 2.8672557,-140.28326 C 3.3164728,-140.40826 3.7363943,-140.50201 4.1270213,-140.56451 C 4.5215497,-140.62701 4.8926431,-140.65826 5.2403026,-140.65826 C 6.1387356,-140.65826 6.8496724,-140.45318 7.3731151,-140.04303 C 7.8965464,-139.63677 8.1582648,-139.08599 8.1582713,-138.39069 C 8.1582648,-137.9063 8.0195931,-137.49615 7.7422557,-137.16022 C 7.4649062,-136.82818 7.0703753,-136.59771 6.5586619,-136.46881 M 13.121162,-139.72076 C 12.511784,-139.72076 12.0528,-139.41998 11.744209,-138.81842 C 11.439519,-138.22076 11.287176,-137.32037 11.287178,-136.11725 C 11.287176,-134.91803 11.439519,-134.01764 11.744209,-133.41608 C 12.0528,-132.81842 12.511784,-132.51959 13.121162,-132.51959 C 13.734439,-132.51959 14.193423,-132.81842 14.498115,-133.41608 C 14.806703,-134.01764 14.961,-134.91803 14.961006,-136.11725 C 14.961,-137.32037 14.806703,-138.22076 14.498115,-138.81842 C 14.193423,-139.41998 13.734439,-139.72076 13.121162,-139.72076 M 13.121162,-140.65826 C 14.101626,-140.65826 14.849672,-140.26958 15.365303,-139.49225 C 15.884827,-138.7188 16.144593,-137.59381 16.144599,-136.11725 C 16.144593,-134.64459 15.884827,-133.51959 15.365303,-132.74225 C 14.849672,-131.96881 14.101626,-131.58209 13.121162,-131.58209 C 12.14069,-131.58209 11.390691,-131.96881 10.871162,-132.74225 C 10.355536,-133.51959 10.097724,-134.64459 10.097724,-136.11725 C 10.097724,-137.59381 10.355536,-138.7188 10.871162,-139.49225 C 11.390691,-140.26958 12.14069,-140.65826 13.121162,-140.65826"
         id="text3802" />
      <text
         xml:space="preserve"
         style="font-size:12px;font-style:normal;font-weight:normal;fill:#000000;fill-opacity:1;stroke:none;stroke-width:1px;stroke-linecap:butt;stroke-linejoin:miter;stroke-opacity:1;font-family:Bitstream Vera Sans"
         x="42.945984"
         y="-132.83691"
         id="use3806"><tspan
           sodipodi:role="line"
           id="tspan4479"
           x="42.945984"
           y="-132.83691">30</tspan></text>
      <path
         style="font-size:12px;font-style:normal;font-weight:normal;fill:#000000;fill-opacity:1;stroke:none;stroke-width:1px;stroke-linecap:butt;stroke-linejoin:miter;stroke-opacity:1;font-family:Bitstream Vera Sans"
         d="M 6.2246776,-197.46881 L 3.2363963,-192.79889 L 6.2246776,-192.79889 L 6.2246776,-197.46881 M 5.9141307,-198.50006 L 7.4024119,-198.50006 L 7.4024119,-192.79889 L 8.6504588,-192.79889 L 8.6504588,-191.81451 L 7.4024119,-191.81451 L 7.4024119,-189.75201 L 6.2246776,-189.75201 L 6.2246776,-191.81451 L 2.2754588,-191.81451 L 2.2754588,-192.95709 L 5.9141307,-198.50006 M 13.121162,-197.72076 C 12.511784,-197.72076 12.0528,-197.41998 11.744209,-196.81842 C 11.439519,-196.22076 11.287176,-195.32037 11.287178,-194.11725 C 11.287176,-192.91803 11.439519,-192.01764 11.744209,-191.41608 C 12.0528,-190.81842 12.511784,-190.51959 13.121162,-190.51959 C 13.734439,-190.51959 14.193423,-190.81842 14.498115,-191.41608 C 14.806703,-192.01764 14.961,-192.91803 14.961006,-194.11725 C 14.961,-195.32037 14.806703,-196.22076 14.498115,-196.81842 C 14.193423,-197.41998 13.734439,-197.72076 13.121162,-197.72076 M 13.121162,-198.65826 C 14.101626,-198.65826 14.849672,-198.26958 15.365303,-197.49225 C 15.884827,-196.7188 16.144593,-195.59381 16.144599,-194.11725 C 16.144593,-192.64459 15.884827,-191.51959 15.365303,-190.74225 C 14.849672,-189.96881 14.101626,-189.58209 13.121162,-189.58209 C 12.14069,-189.58209 11.390691,-189.96881 10.871162,-190.74225 C 10.355536,-191.51959 10.097724,-192.64459 10.097724,-194.11725 C 10.097724,-195.59381 10.355536,-196.7188 10.871162,-197.49225 C 11.390691,-198.26958 12.14069,-198.65826 13.121162,-198.65826"
         id="text3808" />
      <text
         id="use3812"
         y="-190.15254"
         x="42.661133"
         style="font-size:12px;font-style:normal;font-weight:normal;fill:#000000;fill-opacity:1;stroke:none;stroke-width:1px;stroke-linecap:butt;stroke-linejoin:miter;stroke-opacity:1;font-family:Bitstream Vera Sans"
         xml:space="preserve"><tspan
           y="-190.15254"
           x="42.661133"
           id="tspan4487"
           sodipodi:role="line">40</tspan></text>
    </g>
    <path
       sodipodi:nodetypes="ccccc"
       id="path4489"
       d="M 11.01881,17.442734 L 13.551816,23.273607 L 13.875,23.4375 L 11.09375,17.0625 L 11.01881,17.442734 z "
       style="opacity:1;fill:#d3d7cf;fill-opacity:1;fill-rule:evenodd;stroke:none;stroke-width:1px;stroke-linecap:butt;stroke-linejoin:miter;stroke-opacity:1" />
    <path
       style="opacity:0.98000004;fill:#204a87;fill-opacity:1;fill-rule:evenodd;stroke:none;stroke-width:1px;stroke-linecap:butt;stroke-linejoin:miter;stroke-opacity:1"
       d="M 26.78125,13.8125 L 6.5,22.375 C 6.2161166,21.950509 5.7745129,21.65625 5.25,21.65625 C 4.396335,21.65625 3.0116115,22.84375 2.59375,22.84375 C 1.7303544,22.84375 1.03125,23.60726 1.03125,24.53125 C 1.03125,25.455241 1.7303543,26.21875 2.59375,26.21875 C 3.447415,26.218751 4.8315851,25 5.25,25 C 6.1133957,24.999999 6.8125,24.26774 6.8125,23.34375 C 6.8125,23.291681 6.8168557,23.238362 6.8125,23.1875 L 27.03125,14.40625 C 27.03125,14.40625 27.0625,14.242188 27,14.09375 C 26.9375,13.945313 26.78125,13.8125 26.78125,13.8125 z "
       id="path3447" />
    <path
       sodipodi:type="arc"
       style="opacity:0.75242716;fill:url(#radialGradient3503);fill-opacity:1.0;fill-rule:nonzero;stroke:none;stroke-width:0.2;stroke-linecap:round;stroke-linejoin:round;stroke-miterlimit:4;stroke-dasharray:none;stroke-opacity:0.79187814"
       id="path3462"
       sodipodi:cx="36.650959"
       sodipodi:cy="10.098547"
       sodipodi:rx="2.2624049"
       sodipodi:ry="2.828006"
       d="M 38.913364 10.098547 A 2.2624049 2.828006 0 1 1  34.388554,10.098547 A 2.2624049 2.828006 0 1 1  38.913364 10.098547 z"
       transform="matrix(0.9436,-0.3310877,0.3310877,0.9436,-1.2763901,12.553414)" />
    <path
       style="opacity:0.54368932;fill:#eeeeec;fill-opacity:1;fill-rule:evenodd;stroke:none;stroke-width:1px;stroke-linecap:butt;stroke-linejoin:miter;stroke-opacity:1"
       d="M 35.4375,9.5 C 35.331362,9.4911152 35.226756,9.5214611 35.125,9.5625 C 34.893963,9.6556787 34.774015,9.8721825 34.71875,10.125 L 6.15625,22.09375 C 6.5125165,22.387578 6.75,22.810486 6.75,23.3125 C 6.75,23.403112 6.7330076,23.507229 6.71875,23.59375 L 35.1875,11.21875 C 35.393586,11.340847 35.627713,11.399629 35.84375,11.3125 C 36.250776,11.148344 36.414261,10.609772 36.21875,10.125 C 36.072116,9.7614209 35.755914,9.5266545 35.4375,9.5 z "
       id="path3219"
       sodipodi:nodetypes="csccsccssc" />
    <path
       style="opacity:0.53398061;fill:url(#linearGradient4443);fill-opacity:1.0;fill-rule:evenodd;stroke:none;stroke-width:1px;stroke-linecap:butt;stroke-linejoin:miter;stroke-opacity:1"
       d="M 35.03125,10.34375 L 6.4375,22.40625 C 6.6062221,22.632351 6.7262889,22.886556 6.75,23.1875 L 35.25,10.84375 C 35.25,10.84375 35.335937,10.65625 35.28125,10.53125 C 35.226561,10.40625 35.03125,10.34375 35.03125,10.34375 z "
       id="path3463" />
    <path
       id="path3909"
       d="M 5.7026561,20.921838 C 5.1255769,21.180429 1.0432811,22.890589 1.0432811,22.890588 C 1.0432811,22.890588 -0.25219317,23.718827 0.45265608,25.384338 C 1.1146265,26.948531 2.6839061,26.828089 2.6839061,26.828088 C 2.6839061,26.828088 7.4510287,24.674651 7.5073436,24.662463 C 7.5315209,24.657231 7.5492123,24.667442 7.5729686,24.662463 C 7.7756225,24.299121 7.9010936,23.888126 7.9010936,23.448401 C 7.9010936,22.197931 6.9834582,21.163996 5.7354686,20.921838 C 5.7251244,20.91983 5.7130446,20.923734 5.7026561,20.921838 z "
       style="opacity:1;fill:url(#linearGradient3917);fill-opacity:1.0;fill-rule:evenodd;stroke:none;stroke-width:1px;stroke-linecap:butt;stroke-linejoin:miter;stroke-opacity:1" />
    <path
       style="fill:url(#linearGradient3463);fill-opacity:1;fill-rule:evenodd;stroke:none;stroke-width:1px;stroke-linecap:butt;stroke-linejoin:miter;stroke-opacity:1"
       d="M 35.697567,6.838717 C 35.697567,6.838717 37.116934,6.486637 37.053028,7.920715 C 36.974185,9.68999 35.382412,10.620442 35.382412,10.620442 L 12.399552,19.771758 C 12.399552,19.771758 11.675784,19.558586 10.417971,19.636711 C 9.160159,19.714836 7.368302,20.472654 7.368302,20.472654 C 7.368302,20.472654 7.933016,19.121096 8.815829,18.183596 C 9.698641,17.246096 10.899552,16.722654 10.899552,16.722654 L 35.697567,6.838717 z "
       id="path3443"
       sodipodi:nodetypes="csccsczcc" />
    <path
       style="fill:url(#linearGradient3496);fill-opacity:1;fill-rule:evenodd;stroke:none;stroke-width:1px;stroke-linecap:butt;stroke-linejoin:miter;stroke-opacity:1"
       d="M 38.370836,12.670941 C 38.370836,12.670941 40.023291,10.545327 38.715546,11.137326 L 13.23279,22.673029 C 13.23279,22.673029 13.616547,22.616065 12.6929,23.473429 C 11.769253,24.330791 8.965533,23.795672 8.965533,23.795672 C 8.965533,23.795672 10.333939,24.318238 11.621658,24.324935 C 12.909376,24.331634 14.116407,23.822464 14.116407,23.822464 L 38.370836,12.670941 z "
       id="path3487"
       sodipodi:nodetypes="cscsczcc" />
    <path
       style="fill:url(#linearGradient5474);fill-opacity:1.0;fill-rule:evenodd;stroke:none;stroke-width:1px;stroke-linecap:butt;stroke-linejoin:miter;stroke-opacity:1"
       d="M 5.9375 20.90625 C 5.9238644 20.916041 5.9201408 20.927636 5.90625 20.9375 C 7.0732465 21.232801 7.9062501 22.240141 7.90625 23.4375 C 7.90625 23.852292 7.7765105 24.24597 7.59375 24.59375 C 7.6784819 24.577846 7.733423 24.574988 7.8125 24.5625 C 7.9866962 24.221829 8.09375 23.841269 8.09375 23.4375 C 8.0937504 22.187031 7.1854896 21.148408 5.9375 20.90625 z "
       id="path5460" />
    <path
       style="opacity:1;fill:url(#radialGradient3437);fill-opacity:1.0;fill-rule:evenodd;stroke:none;stroke-width:1px;stroke-linecap:butt;stroke-linejoin:miter;stroke-opacity:1"
       d="M 2.03125 22.59375 C 1.89562 22.59375 1.752921 22.595997 1.625 22.625 C 1.5386383 22.661204 1.2122937 22.802112 1.1875 22.8125 C 1.1048419 22.857197 1.0131659 22.912143 0.9375 22.96875 C 0.6866087 23.162625 -0.17202128 23.934743 0.4375 25.375 C 1.0994704 26.939193 2.6875 26.812501 2.6875 26.8125 C 2.6875 26.8125 2.8877073 26.727125 2.90625 26.71875 C 3.5566365 26.363779 4 25.606564 4 24.75 C 4 23.548796 3.11629 22.593751 2.03125 22.59375 z "
       id="path2435" />
  </g>
</svg>
