<?xml version="1.0" encoding="UTF-8" standalone="no"?>
<!-- Created with Inkscape (http://www.inkscape.org/) -->
<svg
   xmlns:dc="http://purl.org/dc/elements/1.1/"
   xmlns:cc="http://web.resource.org/cc/"
   xmlns:rdf="http://www.w3.org/1999/02/22-rdf-syntax-ns#"
   xmlns:svg="http://www.w3.org/2000/svg"
   xmlns="http://www.w3.org/2000/svg"
   xmlns:xlink="http://www.w3.org/1999/xlink"
   xmlns:sodipodi="http://sodipodi.sourceforge.net/DTD/sodipodi-0.dtd"
   xmlns:inkscape="http://www.inkscape.org/namespaces/inkscape"
   width="40"
   height="40"
   id="svg2193"
   sodipodi:version="0.32"
   inkscape:version="0.44.1"
   version="1.0"
   sodipodi:docbase="/home/carsten/svn/kalzium_www/files"
   sodipodi:docname="82.svg">
  <defs
     id="defs2195">
    <linearGradient
       id="linearGradient3606">
      <stop
         style="stop-color:#000000;stop-opacity:1;"
         offset="0"
         id="stop3608" />
      <stop
         style="stop-color:#000000;stop-opacity:0;"
         offset="1"
         id="stop3610" />
    </linearGradient>
    <linearGradient
       id="linearGradient3545">
      <stop
         style="stop-color:#ffffff;stop-opacity:1;"
         offset="0"
         id="stop3547" />
      <stop
         style="stop-color:#000000;stop-opacity:1;"
         offset="1"
         id="stop3549" />
    </linearGradient>
    <linearGradient
       id="linearGradient3534">
      <stop
         style="stop-color:#ffffff;stop-opacity:1;"
         offset="0"
         id="stop3536" />
      <stop
         style="stop-color:#d3d7cf;stop-opacity:0;"
         offset="1"
         id="stop3538" />
    </linearGradient>
    <linearGradient
       id="linearGradient3291">
      <stop
         id="stop3293"
         offset="0"
         style="stop-color:#000000;stop-opacity:1;" />
      <stop
         id="stop3295"
         offset="1"
         style="stop-color:#000000;stop-opacity:0;" />
    </linearGradient>
    <radialGradient
       inkscape:collect="always"
       xlink:href="#linearGradient3291"
       id="radialGradient2595"
       gradientUnits="userSpaceOnUse"
       gradientTransform="matrix(1,0,0,0.197802,0,92.82166)"
       cx="63.912209"
       cy="115.70919"
       fx="75.857941"
       fy="115.70919"
       r="63.912209" />
    <linearGradient
       inkscape:collect="always"
       xlink:href="#linearGradient3534"
       id="linearGradient3540"
       x1="7.7169724"
       y1="16.922779"
       x2="33.929001"
       y2="30.871609"
       gradientUnits="userSpaceOnUse" />
    <radialGradient
       inkscape:collect="always"
       xlink:href="#linearGradient3545"
       id="radialGradient3551"
       cx="26.783073"
       cy="17.034861"
       fx="26.783073"
       fy="17.034861"
       r="2.4318487"
       gradientTransform="matrix(1.8458941,-6.0335285e-2,2.3222179e-2,0.7104589,-23.240024,6.5794016)"
       gradientUnits="userSpaceOnUse" />
    <linearGradient
       inkscape:collect="always"
       xlink:href="#linearGradient3545"
       id="linearGradient3559"
       x1="34.034714"
       y1="18.606863"
       x2="35.550365"
       y2="20.805992"
       gradientUnits="userSpaceOnUse" />
    <linearGradient
       inkscape:collect="always"
       xlink:href="#linearGradient3545"
       id="linearGradient3567"
       x1="34.302174"
       y1="18.606863"
       x2="35.312626"
       y2="20.627714"
       gradientUnits="userSpaceOnUse" />
    <linearGradient
       inkscape:collect="always"
       xlink:href="#linearGradient3545"
       id="linearGradient3575"
       x1="34.210491"
       y1="18.236874"
       x2="35.991936"
       y2="21.227823"
       gradientUnits="userSpaceOnUse" />
    <linearGradient
       inkscape:collect="always"
       xlink:href="#linearGradient3545"
       id="linearGradient3583"
       x1="34.167908"
       y1="18.477991"
       x2="36.241749"
       y2="21.2335"
       gradientUnits="userSpaceOnUse" />
    <linearGradient
       inkscape:collect="always"
       xlink:href="#linearGradient3545"
       id="linearGradient3591"
       x1="34.114918"
       y1="18.43825"
       x2="36.056282"
       y2="22.001865"
       gradientUnits="userSpaceOnUse" />
    <linearGradient
       inkscape:collect="always"
       xlink:href="#linearGradient3606"
       id="linearGradient3604"
       x1="28.80373"
       y1="29.796377"
       x2="10.890912"
       y2="3.08465"
       gradientUnits="userSpaceOnUse" />
    <radialGradient
       inkscape:collect="always"
       xlink:href="#linearGradient3545"
       id="radialGradient3618"
       cx="26.594282"
       cy="16.62254"
       fx="26.594282"
       fy="16.62254"
       r="2.3333001"
       gradientTransform="matrix(1.6503373,5.152398e-7,-1.9224783e-7,0.6157789,-17.295251,6.3867172)"
       gradientUnits="userSpaceOnUse" />
    <linearGradient
       inkscape:collect="always"
       xlink:href="#linearGradient3545"
       id="linearGradient3626"
       x1="27.684698"
       y1="22.15826"
       x2="11.207633"
       y2="13.29326"
       gradientUnits="userSpaceOnUse" />
    <radialGradient
       inkscape:collect="always"
       xlink:href="#linearGradient3606"
       id="radialGradient3630"
       gradientUnits="userSpaceOnUse"
       gradientTransform="matrix(0.7427458,-0.269284,0.1300814,0.3587939,3.449346,18.519426)"
       cx="27.063572"
       cy="17.319582"
       fx="27.063572"
       fy="17.319582"
       r="2.4318488" />
    <radialGradient
       inkscape:collect="always"
       xlink:href="#linearGradient3534"
       id="radialGradient3634"
       gradientUnits="userSpaceOnUse"
       gradientTransform="matrix(0.5316766,5.0953841e-2,-2.3222379e-2,0.2423132,11.272399,11.495913)"
       cx="27.031815"
       cy="15.036349"
       fx="27.031815"
       fy="15.036349"
       r="2.4318488" />
  </defs>
  <sodipodi:namedview
     id="base"
     pagecolor="#ffffff"
     bordercolor="#666666"
     borderopacity="1.0"
     inkscape:pageopacity="0.0"
     inkscape:pageshadow="2"
     inkscape:zoom="17.707579"
     inkscape:cx="19.999018"
     inkscape:cy="19.619608"
     inkscape:current-layer="layer1"
     showgrid="false"
     inkscape:grid-bbox="false"
     inkscape:document-units="px"
     width="40px"
     height="40px"
     gridempspacing="2"
     inkscape:window-width="1167"
     inkscape:window-height="914"
     inkscape:window-x="52"
     inkscape:window-y="40" />
  <metadata
     id="metadata2198">
    <rdf:RDF>
      <cc:Work
         rdf:about="">
        <dc:format>image/svg+xml</dc:format>
        <dc:type
           rdf:resource="http://purl.org/dc/dcmitype/StillImage" />
        <dc:creator>
          <cc:Agent>
            <dc:title>Jarle Akselsen</dc:title>
          </cc:Agent>
        </dc:creator>
        <cc:license
           rdf:resource="http://creativecommons.org/licenses/GPL/2.0/" />
      </cc:Work>
      <cc:License
         rdf:about="http://creativecommons.org/licenses/GPL/2.0/">
        <cc:permits
           rdf:resource="http://web.resource.org/cc/Reproduction" />
        <cc:permits
           rdf:resource="http://web.resource.org/cc/Distribution" />
        <cc:requires
           rdf:resource="http://web.resource.org/cc/Notice" />
        <cc:permits
           rdf:resource="http://web.resource.org/cc/DerivativeWorks" />
        <cc:requires
           rdf:resource="http://web.resource.org/cc/ShareAlike" />
        <cc:requires
           rdf:resource="http://web.resource.org/cc/SourceCode" />
      </cc:License>
    </rdf:RDF>
  </metadata>
  <g
     id="layer1"
     inkscape:label="Layer 1"
     inkscape:groupmode="layer">
    <path
       transform="matrix(0.2772262,0,0,0.1155117,3.2262317,25.111264)"
       d="M 127.82442 115.70919 A 63.912209 12.641975 0 1 1  0,115.70919 A 63.912209 12.641975 0 1 1  127.82442 115.70919 z"
       sodipodi:ry="12.641975"
       sodipodi:rx="63.912209"
       sodipodi:cy="115.70919"
       sodipodi:cx="63.912209"
       id="path2593"
       style="opacity:0.38139535;fill:url(#radialGradient2595);fill-opacity:1;fill-rule:nonzero;stroke:none;stroke-width:0;stroke-linecap:round;stroke-linejoin:round;stroke-miterlimit:4;stroke-dasharray:none;stroke-dashoffset:4;stroke-opacity:1"
       sodipodi:type="arc" />
    <path
       id="path3432"
       d="M 25.679803,15.825018 C 25.558893,15.821848 25.437936,15.840535 25.280954,15.853506 C 24.020623,15.957653 24.283828,17.107034 24.283828,17.107034 C 24.283829,17.107035 24.573463,16.713401 25.651313,16.708186 C 26.497683,16.704091 27.50137,16.957708 27.958946,17.078546 C 28.019265,17.287424 28.215046,17.420418 28.443262,17.420418 C 28.719732,17.420418 28.927581,17.21257 28.927582,16.9361 C 28.927582,16.659632 28.719732,16.423293 28.443262,16.423294 C 28.374146,16.423294 28.303754,16.454915 28.243838,16.48027 C 28.233918,16.480061 28.228221,16.48084 28.215348,16.48027 C 28.097668,16.475069 27.902589,16.480566 27.44614,16.394804 C 26.614064,16.238465 26.526164,15.847211 25.679803,15.825018 z "
       style="opacity:1;color:#000000;fill:url(#radialGradient3618);fill-opacity:1.0;fill-rule:evenodd;stroke:none;stroke-width:1px;stroke-linecap:butt;stroke-linejoin:miter;marker:none;marker-start:none;marker-mid:none;marker-end:none;stroke-miterlimit:4;stroke-dasharray:none;stroke-dashoffset:0;stroke-opacity:1;visibility:visible;display:inline;overflow:visible;enable-background:accumulate" />
    <path
       style="opacity:1;fill:#555753;fill-opacity:1;fill-rule:nonzero;stroke:none;stroke-width:0.09727067;stroke-linecap:round;stroke-linejoin:round;stroke-miterlimit:4;stroke-dasharray:none;stroke-opacity:1"
       d="M 12.09375,3.5 L 12.03125,3.65625 L 12.03125,29.28125 L 27.4375,29.28125 L 27.4375,3.65625 L 27.375,3.5 L 12.09375,3.5 z M 12.96875,4.40625 L 26.53125,4.40625 L 26.53125,28.09375 L 12.96875,28.09375 L 12.96875,4.40625 z "
       id="rect4546" />
    <path
       style="opacity:1;fill:#000000;fill-opacity:1;fill-rule:nonzero;stroke:none;stroke-width:0.09727067;stroke-linecap:round;stroke-linejoin:round;stroke-miterlimit:4;stroke-dasharray:none;stroke-opacity:1"
       d="M 10.09375 0.8125 L 9.75 1.34375 L 9.75 38.375 L 29.75 38.375 L 29.75 1.34375 L 29.375 0.8125 L 10.09375 0.8125 z M 12.09375 3.5 L 27.375 3.5 L 27.4375 3.65625 L 27.4375 29.28125 L 12.03125 29.28125 L 12.03125 3.65625 L 12.09375 3.5 z "
       id="rect3293" />
    <path
       sodipodi:nodetypes="ccc"
       id="path2276"
       d="M 10.956528,1.0198748 L 10.956528,-1.7748336 L 10.956528,1.0198748 z "
       style="fill:#ffffff;fill-opacity:0.75688076;fill-rule:nonzero;stroke:none;stroke-width:0.5;stroke-linecap:round;stroke-linejoin:round;stroke-miterlimit:4;stroke-dasharray:none;stroke-dashoffset:4;stroke-opacity:1" />
    <path
       sodipodi:nodetypes="ccc"
       id="path2661"
       d="M 25.380055,73.929998 L 25.380055,71.13529 L 25.380055,73.929998 z "
       style="fill:#ffffff;fill-opacity:0.75688076;fill-rule:nonzero;stroke:none;stroke-width:0.5;stroke-linecap:round;stroke-linejoin:round;stroke-miterlimit:4;stroke-dasharray:none;stroke-dashoffset:4;stroke-opacity:1" />
    <path
       style="opacity:0.25;fill:url(#linearGradient3540);fill-opacity:1.0;fill-rule:nonzero;stroke:none;stroke-width:0.09727067;stroke-linecap:round;stroke-linejoin:round;stroke-miterlimit:4;stroke-dasharray:none;stroke-opacity:1"
       d="M 9.75 1.34375 L 9.75 38.375 L 29.75 38.375 L 29.75 1.34375 L 9.75 1.34375 z M 12.03125 3.65625 L 27.4375 3.65625 L 27.4375 29.28125 L 12.03125 29.28125 L 12.03125 3.65625 z "
       id="rect2293" />
    <rect
       style="opacity:0.61162792;fill:#555753;fill-opacity:1;fill-rule:nonzero;stroke:none;stroke-width:0.69999999;stroke-linecap:round;stroke-linejoin:miter;stroke-miterlimit:4;stroke-dasharray:none;stroke-opacity:1"
       id="rect1951"
       width="40.001965"
       height="10.004759"
       x="-0.0019644466"
       y="30" />
    <text
       xml:space="preserve"
       style="font-size:12px;font-style:normal;font-weight:normal;fill:#eeeeec;fill-opacity:1;stroke:none;stroke-width:1px;stroke-linecap:butt;stroke-linejoin:miter;stroke-opacity:1;font-family:Bitstream Vera Sans"
       x="12.290912"
       y="39.168156"
       id="text2840"><tspan
         sodipodi:role="line"
         id="tspan2842"
         x="12.290912"
         y="39.168156">Pb</tspan></text>
    <path
       style="opacity:0.4;fill:#000000;fill-opacity:1;fill-rule:nonzero;stroke:none;stroke-width:0.09727067;stroke-linecap:round;stroke-linejoin:round;stroke-miterlimit:4;stroke-dasharray:none;stroke-opacity:1"
       d="M 12.4375,4.09375 L 12.96875,4.40625 L 26.53125,4.40625 L 27.03125,4.09375 L 12.4375,4.09375 z "
       id="path3314" />
    <path
       style="opacity:0.15;fill:#000000;fill-opacity:1;fill-rule:nonzero;stroke:none;stroke-width:0.09727067;stroke-linecap:round;stroke-linejoin:round;stroke-miterlimit:4;stroke-dasharray:none;stroke-opacity:1"
       d="M 12.4375,28.90625 L 27.03125,28.90625 L 26.53125,28.09375 L 12.96875,28.09375 L 12.4375,28.90625 z "
       id="path3307" />
    <path
       style="opacity:0.35;fill:#000000;fill-opacity:1;fill-rule:nonzero;stroke:none;stroke-width:0.09727067;stroke-linecap:round;stroke-linejoin:round;stroke-miterlimit:4;stroke-dasharray:none;stroke-opacity:1"
       d="M 12.4375,4.09375 L 12.4375,28.90625 L 12.96875,28.09375 L 12.96875,4.40625 L 12.4375,4.09375 z "
       id="path3323" />
    <path
       style="opacity:0.1;fill:#000000;fill-opacity:1;fill-rule:nonzero;stroke:none;stroke-width:0.09727067;stroke-linecap:round;stroke-linejoin:round;stroke-miterlimit:4;stroke-dasharray:none;stroke-opacity:1"
       d="M 26.53125,4.40625 L 26.53125,28.09375 L 27.03125,28.90625 L 27.03125,4.09375 L 26.53125,4.40625 z "
       id="path3316" />
    <path
       style="opacity:0.1;fill:url(#linearGradient3604);fill-opacity:1.0;fill-rule:nonzero;stroke:none;stroke-width:0.09727067;stroke-linecap:round;stroke-linejoin:round;stroke-miterlimit:4;stroke-dasharray:none;stroke-opacity:1"
       d="M 12.03125,3.65625 L 12.03125,29.28125 L 27.4375,29.28125 L 27.4375,3.65625 L 12.03125,3.65625 z M 12.4375,4.09375 L 27.03125,4.09375 L 27.03125,28.90625 L 12.4375,28.90625 L 12.4375,4.09375 z "
       id="rect3329" />
    <rect
       style="opacity:0.5;fill:#00892c;fill-opacity:1;fill-rule:nonzero;stroke:none;stroke-width:0.09727067;stroke-linecap:round;stroke-linejoin:round;stroke-miterlimit:4;stroke-dasharray:none;stroke-opacity:1"
       id="rect5520"
       width="3.948257"
       height="7.5945392"
       x="17.766371"
       y="4.7024803" />
    <rect
       y="4.7024803"
       x="22.050358"
       height="7.5945392"
       width="3.948257"
       id="rect5522"
       style="opacity:0.5;fill:#ffeb55;fill-opacity:1;fill-rule:nonzero;stroke:none;stroke-width:0.09727067;stroke-linecap:round;stroke-linejoin:round;stroke-miterlimit:4;stroke-dasharray:none;stroke-opacity:1" />
    <rect
       y="4.7024803"
       x="13.408474"
       height="7.5945392"
       width="3.948257"
       id="rect5524"
       style="opacity:0.5;fill:#ffeb55;fill-opacity:1;fill-rule:nonzero;stroke:none;stroke-width:0.09727067;stroke-linecap:round;stroke-linejoin:round;stroke-miterlimit:4;stroke-dasharray:none;stroke-opacity:1" />
    <rect
       y="12.483973"
       x="17.766371"
       height="7.5945392"
       width="3.948257"
       id="rect5526"
       style="opacity:0.5;fill:#bf0303;fill-opacity:1;fill-rule:nonzero;stroke:none;stroke-width:0.09727067;stroke-linecap:round;stroke-linejoin:round;stroke-miterlimit:4;stroke-dasharray:none;stroke-opacity:1" />
    <rect
       style="opacity:0.5;fill:#00892c;fill-opacity:1;fill-rule:nonzero;stroke:none;stroke-width:0.09727067;stroke-linecap:round;stroke-linejoin:round;stroke-miterlimit:4;stroke-dasharray:none;stroke-opacity:1"
       id="rect5528"
       width="3.948257"
       height="7.5945392"
       x="22.050358"
       y="12.483973" />
    <rect
       style="opacity:0.5;fill:#00892c;fill-opacity:1;fill-rule:nonzero;stroke:none;stroke-width:0.09727067;stroke-linecap:round;stroke-linejoin:round;stroke-miterlimit:4;stroke-dasharray:none;stroke-opacity:1"
       id="rect5530"
       width="3.948257"
       height="7.5945392"
       x="13.408474"
       y="12.483973" />
    <rect
       style="opacity:0.5;fill:#ffeb55;fill-opacity:1;fill-rule:nonzero;stroke:none;stroke-width:0.09727067;stroke-linecap:round;stroke-linejoin:round;stroke-miterlimit:4;stroke-dasharray:none;stroke-opacity:1"
       id="rect5532"
       width="3.948257"
       height="7.5945392"
       x="17.766371"
       y="20.265715" />
    <rect
       y="20.265715"
       x="22.050358"
       height="7.5945392"
       width="3.948257"
       id="rect5534"
       style="opacity:0.5;fill:#bf0303;fill-opacity:1;fill-rule:nonzero;stroke:none;stroke-width:0.09727067;stroke-linecap:round;stroke-linejoin:round;stroke-miterlimit:4;stroke-dasharray:none;stroke-opacity:1" />
    <rect
       y="20.265715"
       x="13.408474"
       height="7.5945392"
       width="3.948257"
       id="rect5536"
       style="opacity:0.5;fill:#bf0303;fill-opacity:1;fill-rule:nonzero;stroke:none;stroke-width:0.09727067;stroke-linecap:round;stroke-linejoin:round;stroke-miterlimit:4;stroke-dasharray:none;stroke-opacity:1" />
    <path
       id="path5538"
       d="M 12.96875,4.40625 L 12.96875,28.09375 L 26.53125,28.09375 L 26.53125,4.40625 L 12.96875,4.40625 z M 13.4375,4.78125 L 17.3125,4.78125 L 17.3125,12.21875 L 13.4375,12.21875 L 13.4375,4.78125 z M 17.8125,4.78125 L 21.6875,4.78125 L 21.6875,12.21875 L 17.8125,12.21875 L 17.8125,4.78125 z M 22.09375,4.78125 L 25.96875,4.78125 L 25.96875,12.21875 L 22.09375,12.21875 L 22.09375,4.78125 z M 13.4375,12.5625 L 17.3125,12.5625 L 17.3125,20 L 13.4375,20 L 13.4375,12.5625 z M 17.8125,12.5625 L 21.6875,12.5625 L 21.6875,20 L 17.8125,20 L 17.8125,12.5625 z M 22.09375,12.5625 L 25.96875,12.5625 L 25.96875,20 L 22.09375,20 L 22.09375,12.5625 z M 13.4375,20.34375 L 17.3125,20.34375 L 17.3125,27.78125 L 13.4375,27.78125 L 13.4375,20.34375 z M 17.8125,20.34375 L 21.6875,20.34375 L 21.6875,27.78125 L 17.8125,27.78125 L 17.8125,20.34375 z M 22.09375,20.34375 L 25.96875,20.34375 L 25.96875,27.78125 L 22.09375,27.78125 L 22.09375,20.34375 z "
       style="opacity:1;fill:#2e3436;fill-opacity:1;fill-rule:nonzero;stroke:none;stroke-width:0.09727067;stroke-linecap:round;stroke-linejoin:round;stroke-miterlimit:4;stroke-dasharray:none;stroke-opacity:1" />
    <path
       sodipodi:type="arc"
       style="opacity:1;fill:url(#linearGradient3567);fill-opacity:1.0;fill-rule:nonzero;stroke:none;stroke-width:0.1;stroke-linecap:round;stroke-linejoin:round;stroke-miterlimit:4;stroke-dasharray:none;stroke-opacity:1"
       id="path5540"
       sodipodi:cx="34.8074"
       sodipodi:cy="19.617289"
       sodipodi:rx="1.010425"
       sodipodi:ry="1.010425"
       d="M 35.817825 19.617289 A 1.010425 1.010425 0 1 1  33.796975,19.617289 A 1.010425 1.010425 0 1 1  35.817825 19.617289 z"
       transform="matrix(0.9501616,0,0,0.9501616,-4.5561882,0.9134435)" />
    <path
       d="M 35.817825 19.617289 A 1.010425 1.010425 0 1 1  33.796975,19.617289 A 1.010425 1.010425 0 1 1  35.817825 19.617289 z"
       sodipodi:ry="1.010425"
       sodipodi:rx="1.010425"
       sodipodi:cy="19.617289"
       sodipodi:cx="34.8074"
       id="path5542"
       style="opacity:1;fill:url(#linearGradient3591);fill-opacity:1.0;fill-rule:nonzero;stroke:none;stroke-width:0.1;stroke-linecap:round;stroke-linejoin:round;stroke-miterlimit:4;stroke-dasharray:none;stroke-opacity:1"
       sodipodi:type="arc"
       transform="matrix(0.7535765,0,0,0.7535765,2.2864304,4.9023347)" />
    <path
       style="opacity:1;fill:#2e3436;fill-opacity:1;fill-rule:nonzero;stroke:none;stroke-width:0.1;stroke-linecap:round;stroke-linejoin:round;stroke-miterlimit:4;stroke-dasharray:none;stroke-opacity:1"
       d="M 28.521356,19.352518 C 28.398251,19.352518 28.283814,19.466953 28.283816,19.590058 C 28.283816,19.677082 28.359525,19.731471 28.432278,19.768214 L 28.432278,20.18391 L 28.610434,20.18391 L 28.610434,19.768214 C 28.683187,19.731471 28.729205,19.677082 28.729204,19.590058 C 28.729204,19.466953 28.644463,19.352518 28.521356,19.352518 z "
       id="path5548" />
    <path
       d="M 35.817825 19.617289 A 1.010425 1.010425 0 1 1  33.796975,19.617289 A 1.010425 1.010425 0 1 1  35.817825 19.617289 z"
       sodipodi:ry="1.010425"
       sodipodi:rx="1.010425"
       sodipodi:cy="19.617289"
       sodipodi:cx="34.8074"
       id="path5561"
       style="opacity:1;fill:url(#linearGradient3559);fill-opacity:1.0;fill-rule:nonzero;stroke:none;stroke-width:0.1;stroke-linecap:round;stroke-linejoin:round;stroke-miterlimit:4;stroke-dasharray:none;stroke-opacity:1"
       sodipodi:type="arc"
       transform="matrix(0.9501616,0,0,0.9501616,-4.5561882,-1.5363834)" />
    <path
       transform="matrix(0.7535765,0,0,0.7535765,2.28643,2.4525078)"
       sodipodi:type="arc"
       style="opacity:1;fill:url(#linearGradient3583);fill-opacity:1.0;fill-rule:nonzero;stroke:none;stroke-width:0.1;stroke-linecap:round;stroke-linejoin:round;stroke-miterlimit:4;stroke-dasharray:none;stroke-opacity:1"
       id="path5563"
       sodipodi:cx="34.8074"
       sodipodi:cy="19.617289"
       sodipodi:rx="1.010425"
       sodipodi:ry="1.010425"
       d="M 35.817825 19.617289 A 1.010425 1.010425 0 1 1  33.796975,19.617289 A 1.010425 1.010425 0 1 1  35.817825 19.617289 z" />
    <path
       d="M 35.817825 19.617289 A 1.010425 1.010425 0 1 1  33.796975,19.617289 A 1.010425 1.010425 0 1 1  35.817825 19.617289 z"
       sodipodi:ry="1.010425"
       sodipodi:rx="1.010425"
       sodipodi:cy="19.617289"
       sodipodi:cx="34.8074"
       id="path5565"
       style="opacity:1;fill:url(#linearGradient3575);fill-opacity:1.0;fill-rule:nonzero;stroke:none;stroke-width:0.1;stroke-linecap:round;stroke-linejoin:round;stroke-miterlimit:4;stroke-dasharray:none;stroke-opacity:1"
       sodipodi:type="arc"
       transform="matrix(0.4586985,0,0,0.4586985,12.550405,8.2372095)" />
    <path
       transform="matrix(0.3776112,0,0,0.3776112,15.372841,9.8864447)"
       sodipodi:type="arc"
       style="opacity:1;fill:#d3d7cf;fill-opacity:1;fill-rule:nonzero;stroke:none;stroke-width:0.1;stroke-linecap:round;stroke-linejoin:round;stroke-miterlimit:4;stroke-dasharray:none;stroke-opacity:1"
       id="path5583"
       sodipodi:cx="34.8074"
       sodipodi:cy="19.617289"
       sodipodi:rx="1.010425"
       sodipodi:ry="1.010425"
       d="M 35.817825 19.617289 A 1.010425 1.010425 0 1 1  33.796975,19.617289 A 1.010425 1.010425 0 1 1  35.817825 19.617289 z" />
    <path
       transform="matrix(0.5166179,0,0,0.5166179,10.534379,7.2531473)"
       sodipodi:type="arc"
       style="opacity:1;fill:#2e3436;fill-opacity:1;fill-rule:nonzero;stroke:none;stroke-width:0.1;stroke-linecap:round;stroke-linejoin:round;stroke-miterlimit:4;stroke-dasharray:none;stroke-opacity:1"
       id="path5588"
       sodipodi:cx="34.8074"
       sodipodi:cy="19.617289"
       sodipodi:rx="1.010425"
       sodipodi:ry="1.010425"
       d="M 35.817825 19.617289 A 1.010425 1.010425 0 1 1  33.796975,19.617289 A 1.010425 1.010425 0 1 1  35.817825 19.617289 z" />
    <path
       style="opacity:0.35;fill:#ffffff;fill-opacity:1;fill-rule:nonzero;stroke:none;stroke-width:0.09727067;stroke-linecap:round;stroke-linejoin:round;stroke-miterlimit:4;stroke-dasharray:none;stroke-opacity:1"
       d="M 10.09375 0.8125 L 9.75 1.34375 L 29.75 1.34375 L 29.375 0.8125 L 10.09375 0.8125 z "
       id="path6580" />
    <path
       style="opacity:0.1;fill:#ffffff;fill-opacity:1;fill-rule:nonzero;stroke:none;stroke-width:0.09727067;stroke-linecap:round;stroke-linejoin:round;stroke-miterlimit:4;stroke-dasharray:none;stroke-opacity:1"
       d="M 12.09375 3.5 L 12.03125 3.65625 L 27.4375 3.65625 L 27.375 3.5 L 12.09375 3.5 z "
       id="path2411" />
    <path
       style="opacity:0.22380952;fill:#2e3436;fill-opacity:1;fill-rule:nonzero;stroke:none;stroke-width:0.09727067;stroke-linecap:round;stroke-linejoin:round;stroke-miterlimit:4;stroke-dasharray:none;stroke-opacity:1"
       d="M 27.4375,3.65625 L 27.4375,29.28125 L 12.03125,29.28125 L 12.21875,29.4375 L 27.625,29.4375 L 27.625,3.8125 L 27.4375,3.65625 z "
       id="path2452"
       sodipodi:nodetypes="ccccccc" />
    <path
       style="opacity:0.5;fill:url(#linearGradient3626);fill-opacity:1.0;fill-rule:nonzero;stroke:none;stroke-width:0.09727067;stroke-linecap:round;stroke-linejoin:round;stroke-miterlimit:4;stroke-dasharray:none;stroke-opacity:1"
       d="M 13.46875,4.75 L 13.46875,4.78125 L 17.3125,4.78125 L 17.3125,12.21875 L 13.46875,12.21875 L 13.46875,12.34375 L 17.40625,12.34375 L 17.40625,4.75 L 13.46875,4.75 z M 17.8125,4.75 L 17.8125,4.78125 L 21.6875,4.78125 L 21.6875,12.21875 L 17.8125,12.21875 L 17.8125,12.34375 L 21.75,12.34375 L 21.75,4.75 L 17.8125,4.75 z M 22.09375,4.75 L 22.09375,4.78125 L 25.96875,4.78125 L 25.96875,12.21875 L 22.09375,12.21875 L 22.09375,12.34375 L 26.0625,12.34375 L 26.0625,4.75 L 22.09375,4.75 z M 13.46875,12.53125 L 13.46875,12.5625 L 17.3125,12.5625 L 17.3125,20 L 13.46875,20 L 13.46875,20.125 L 17.40625,20.125 L 17.40625,12.53125 L 13.46875,12.53125 z M 17.8125,12.53125 L 17.8125,12.5625 L 21.6875,12.5625 L 21.6875,20 L 17.8125,20 L 17.8125,20.125 L 21.75,20.125 L 21.75,12.53125 L 17.8125,12.53125 z M 22.09375,12.53125 L 22.09375,12.5625 L 25.96875,12.5625 L 25.96875,20 L 22.09375,20 L 22.09375,20.125 L 26.0625,20.125 L 26.0625,12.53125 L 22.09375,12.53125 z M 13.46875,20.3125 L 13.46875,20.34375 L 17.3125,20.34375 L 17.3125,27.78125 L 13.46875,27.78125 L 13.46875,27.90625 L 17.40625,27.90625 L 17.40625,20.3125 L 13.46875,20.3125 z M 17.8125,20.3125 L 17.8125,20.34375 L 21.6875,20.34375 L 21.6875,27.78125 L 17.8125,27.78125 L 17.8125,27.90625 L 21.75,27.90625 L 21.75,20.3125 L 17.8125,20.3125 z M 22.09375,20.3125 L 22.09375,20.34375 L 25.96875,20.34375 L 25.96875,27.78125 L 22.09375,27.78125 L 22.09375,27.90625 L 26.0625,27.90625 L 26.0625,20.3125 L 22.09375,20.3125 z "
       id="path3529" />
    <path
       style="opacity:1;color:#000000;fill:url(#radialGradient3551);fill-opacity:1.0;fill-rule:evenodd;stroke:none;stroke-width:1px;stroke-linecap:butt;stroke-linejoin:miter;marker:none;marker-start:none;marker-mid:none;marker-end:none;stroke-miterlimit:4;stroke-dasharray:none;stroke-dashoffset:0;stroke-opacity:1;visibility:visible;display:inline;overflow:visible;enable-background:accumulate"
       d="M 25.641179,16.2348 C 25.515163,16.231496 25.389096,16.250973 25.225484,16.264492 C 23.911923,16.373037 24.186244,17.570964 24.186244,17.570964 C 24.186245,17.570965 24.488113,17.160705 25.611486,17.15527 C 26.493603,17.151001 27.539682,17.41533 28.016584,17.541272 C 28.079451,17.758972 28.2835,17.897583 28.521356,17.897583 C 28.809502,17.897583 29.026129,17.680956 29.02613,17.39281 C 29.02613,17.104664 28.809502,16.858343 28.521356,16.858344 C 28.44932,16.858344 28.375954,16.891301 28.313508,16.917728 C 28.30317,16.917509 28.297231,16.918322 28.283816,16.917728 C 28.161164,16.912307 27.957847,16.918036 27.482118,16.828652 C 26.6149,16.665709 26.523286,16.257931 25.641179,16.2348 z "
       id="path5567" />
    <path
       id="path3628"
       d="M 25.641179,16.2348 C 25.515163,16.231496 25.389096,16.250973 25.225484,16.264492 C 23.911923,16.373037 24.186244,17.570964 24.186244,17.570964 C 24.186245,17.570965 24.488113,17.160705 25.611486,17.15527 C 26.493603,17.151001 27.539682,17.41533 28.016584,17.541272 C 28.079451,17.758972 28.2835,17.897583 28.521356,17.897583 C 28.809502,17.897583 29.026129,17.680956 29.02613,17.39281 C 29.02613,17.104664 28.809502,16.858343 28.521356,16.858344 C 28.44932,16.858344 28.375954,16.891301 28.313508,16.917728 C 28.30317,16.917509 28.297231,16.918322 28.283816,16.917728 C 28.161164,16.912307 27.957847,16.918036 27.482118,16.828652 C 26.6149,16.665709 26.523286,16.257931 25.641179,16.2348 z "
       style="opacity:0.5;color:#000000;fill:url(#radialGradient3630);fill-opacity:1.0;fill-rule:evenodd;stroke:none;stroke-width:1px;stroke-linecap:butt;stroke-linejoin:miter;marker:none;marker-start:none;marker-mid:none;marker-end:none;stroke-miterlimit:4;stroke-dasharray:none;stroke-dashoffset:0;stroke-opacity:1;visibility:visible;display:inline;overflow:visible;enable-background:accumulate" />
    <path
       style="opacity:0.75;color:#000000;fill:url(#radialGradient3634);fill-opacity:1.0;fill-rule:evenodd;stroke:none;stroke-width:1px;stroke-linecap:butt;stroke-linejoin:miter;marker:none;marker-start:none;marker-mid:none;marker-end:none;stroke-miterlimit:4;stroke-dasharray:none;stroke-dashoffset:0;stroke-opacity:1;visibility:visible;display:inline;overflow:visible;enable-background:accumulate"
       d="M 25.641179,16.2348 C 25.515163,16.231496 25.389096,16.250973 25.225484,16.264492 C 23.911923,16.373037 24.186244,17.570964 24.186244,17.570964 C 24.186245,17.570965 24.488113,17.160705 25.611486,17.15527 C 26.493603,17.151001 27.539682,17.41533 28.016584,17.541272 C 28.079451,17.758972 28.2835,17.897583 28.521356,17.897583 C 28.809502,17.897583 29.026129,17.680956 29.02613,17.39281 C 29.02613,17.104664 28.809502,16.858343 28.521356,16.858344 C 28.44932,16.858344 28.375954,16.891301 28.313508,16.917728 C 28.30317,16.917509 28.297231,16.918322 28.283816,16.917728 C 28.161164,16.912307 27.957847,16.918036 27.482118,16.828652 C 26.6149,16.665709 26.523286,16.257931 25.641179,16.2348 z "
       id="path3632" />
    <path
       style="opacity:0.15;color:#000000;fill:#000000;fill-opacity:1;fill-rule:evenodd;stroke:none;stroke-width:1px;stroke-linecap:butt;stroke-linejoin:miter;marker:none;marker-start:none;marker-mid:none;marker-end:none;stroke-miterlimit:4;stroke-dasharray:none;stroke-dashoffset:0;stroke-opacity:1;visibility:visible;display:inline;overflow:visible;enable-background:accumulate"
       d="M 25.625 17.15625 C 25.266639 17.157984 24.989281 17.192333 24.78125 17.25 C 24.696005 17.519573 24.75 17.78125 24.75 17.78125 C 24.750001 17.781252 25.001899 17.442179 25.96875 17.4375 C 26.622344 17.434336 27.321075 17.571493 27.78125 17.6875 C 27.722129 17.613291 27.663252 17.52663 27.625 17.4375 C 27.084898 17.304932 26.337648 17.152801 25.625 17.15625 z "
       id="path3212" />
  </g>
</svg>
