<?xml version="1.0" encoding="UTF-8" standalone="no"?>
<!-- Created with Inkscape (http://www.inkscape.org/) -->
<svg
   xmlns:dc="http://purl.org/dc/elements/1.1/"
   xmlns:cc="http://creativecommons.org/ns#"
   xmlns:rdf="http://www.w3.org/1999/02/22-rdf-syntax-ns#"
   xmlns:svg="http://www.w3.org/2000/svg"
   xmlns="http://www.w3.org/2000/svg"
   xmlns:xlink="http://www.w3.org/1999/xlink"
   xmlns:sodipodi="http://sodipodi.sourceforge.net/DTD/sodipodi-0.dtd"
   xmlns:inkscape="http://www.inkscape.org/namespaces/inkscape"
   version="1.0"
   width="40"
   height="40"
   id="svg2193"
   sodipodi:version="0.32"
   inkscape:version="0.46"
   sodipodi:docname="83new2.svg"
   inkscape:output_extension="org.inkscape.output.svg.inkscape">
  <metadata
     id="metadata120">
    <rdf:RDF>
      <cc:Work
         rdf:about="">
        <dc:format>image/svg+xml</dc:format>
        <dc:type
           rdf:resource="http://purl.org/dc/dcmitype/StillImage" />
      </cc:Work>
    </rdf:RDF>
  </metadata>
  <sodipodi:namedview
     inkscape:window-height="1035"
     inkscape:window-width="1472"
     inkscape:pageshadow="2"
     inkscape:pageopacity="0.0"
     guidetolerance="10.0"
     gridtolerance="10.0"
     objecttolerance="10.0"
     borderopacity="1.0"
     bordercolor="#666666"
     pagecolor="#ffffff"
     id="base"
     showgrid="false"
     inkscape:zoom="8.131728"
     inkscape:cx="8.8695652"
     inkscape:cy="17.962482"
     inkscape:window-x="0"
     inkscape:window-y="0"
     inkscape:current-layer="svg2193" />
  <defs
     id="defs2195">
    <linearGradient
       id="linearGradient3390">
      <stop
         style="stop-color:#2e3436;stop-opacity:1"
         offset="0"
         id="stop3392" />
      <stop
         style="stop-color:#2e3436;stop-opacity:0"
         offset="1"
         id="stop3394" />
    </linearGradient>
    <linearGradient
       id="linearGradient3331">
      <stop
         style="stop-color:#ff0000;stop-opacity:1"
         offset="0"
         id="stop3333" />
      <stop
         style="stop-color:#ff0000;stop-opacity:0"
         offset="1"
         id="stop3335" />
    </linearGradient>
    <linearGradient
       id="linearGradient3293">
      <stop
         style="stop-color:#d3d3d3;stop-opacity:0"
         offset="0"
         id="stop3296" />
      <stop
         style="stop-color:#d3d3d3;stop-opacity:1"
         offset="1"
         id="stop3298" />
    </linearGradient>
    <linearGradient
       id="linearGradient3263">
      <stop
         style="stop-color:#0e0000;stop-opacity:1"
         offset="0"
         id="stop3265" />
      <stop
         style="stop-color:#000000;stop-opacity:0.64646465"
         offset="0.49000001"
         id="stop3269" />
      <stop
         style="stop-color:#000000;stop-opacity:0"
         offset="1"
         id="stop3267" />
    </linearGradient>
    <linearGradient
       id="linearGradient3262">
      <stop
         style="stop-color:#c4c4c4;stop-opacity:1"
         offset="0"
         id="stop3264" />
      <stop
         style="stop-color:#d6d6d6;stop-opacity:1"
         offset="0.95833331"
         id="stop3270" />
      <stop
         style="stop-color:#f0f0f0;stop-opacity:1"
         offset="1"
         id="stop3266" />
    </linearGradient>
    <linearGradient
       id="linearGradient3211">
      <stop
         style="stop-color:#070707;stop-opacity:0.28282827"
         offset="0"
         id="stop3213" />
      <stop
         style="stop-color:#c1c1c1;stop-opacity:0.47474748"
         offset="0.5"
         id="stop3261" />
      <stop
         style="stop-color:#ffffff;stop-opacity:0"
         offset="1"
         id="stop3215" />
    </linearGradient>
    <linearGradient
       id="linearGradient3239">
      <stop
         style="stop-color:#eeeeec;stop-opacity:1"
         offset="0"
         id="stop3241" />
      <stop
         style="stop-color:#eeeeec;stop-opacity:0"
         offset="1"
         id="stop3243" />
    </linearGradient>
    <linearGradient
       id="linearGradient3180">
      <stop
         style="stop-color:#f57900;stop-opacity:1"
         offset="0"
         id="stop3182" />
      <stop
         style="stop-color:#f57900;stop-opacity:0"
         offset="1"
         id="stop3184" />
    </linearGradient>
    <linearGradient
       id="linearGradient3291">
      <stop
         style="stop-color:#000000;stop-opacity:0.41414142"
         offset="0"
         id="stop3293" />
      <stop
         style="stop-color:#000000;stop-opacity:0.19607843"
         offset="0.33333334"
         id="stop3272" />
      <stop
         style="stop-color:#000000;stop-opacity:0"
         offset="1"
         id="stop3295" />
    </linearGradient>
    <linearGradient
       id="linearGradient2308">
      <stop
         style="stop-color:#0e0000;stop-opacity:1"
         offset="0"
         id="stop2310" />
      <stop
         style="stop-color:#0e0000;stop-opacity:0"
         offset="1"
         id="stop2312" />
    </linearGradient>
    <linearGradient
       id="linearGradient3692">
      <stop
         style="stop-color:#0e0000;stop-opacity:1"
         offset="0"
         id="stop3694" />
      <stop
         style="stop-color:#0e0000;stop-opacity:0"
         offset="1"
         id="stop3696" />
    </linearGradient>
    <linearGradient
       id="linearGradient3255">
      <stop
         id="stop3257"
         offset="0"
         style="stop-color:#cf4913;stop-opacity:0;" />
      <stop
         style="stop-color:#cf4913;stop-opacity:0.01169591;"
         offset="0.53848201"
         id="stop3263" />
      <stop
         id="stop2688"
         offset="0.72113848"
         style="stop-color:#cf4913;stop-opacity:1;" />
      <stop
         style="stop-color:#cf4913;stop-opacity:1;"
         offset="0.81727701"
         id="stop2690" />
      <stop
         id="stop3259"
         offset="1"
         style="stop-color:#cf4913;stop-opacity:0;" />
    </linearGradient>
    <linearGradient
       id="linearGradient3342">
      <stop
         style="stop-color:#cf4913;stop-opacity:0;"
         offset="0"
         id="stop3344" />
      <stop
         id="stop3346"
         offset="0.53848201"
         style="stop-color:#cf4913;stop-opacity:0.01169591;" />
      <stop
         style="stop-color:#cf4913;stop-opacity:1;"
         offset="0.72113848"
         id="stop3348" />
      <stop
         id="stop3350"
         offset="0.81727701"
         style="stop-color:#cf4913;stop-opacity:1;" />
      <stop
         style="stop-color:#cf4913;stop-opacity:0;"
         offset="1"
         id="stop3352" />
    </linearGradient>
    <linearGradient
       id="linearGradient3356">
      <stop
         id="stop3358"
         offset="0"
         style="stop-color:#ffd500;stop-opacity:0;" />
      <stop
         style="stop-color:#ffd500;stop-opacity:0;"
         offset="0.26767766"
         id="stop3368" />
      <stop
         style="stop-color:#ffd500;stop-opacity:1;"
         offset="0.6546796"
         id="stop3364" />
      <stop
         id="stop3366"
         offset="0.84575403"
         style="stop-color:#ffd500;stop-opacity:1;" />
      <stop
         style="stop-color:#ffd500;stop-opacity:0;"
         offset="0.91551131"
         id="stop3370" />
      <stop
         id="stop3360"
         offset="1"
         style="stop-color:#ffd500;stop-opacity:0;" />
    </linearGradient>
    <linearGradient
       id="linearGradient3444"
       inkscape:collect="always">
      <stop
         id="stop3446"
         offset="0"
         style="stop-color:#fff299;stop-opacity:1;" />
      <stop
         id="stop3448"
         offset="1"
         style="stop-color:#fff299;stop-opacity:0;" />
    </linearGradient>
    <linearGradient
       id="linearGradient3464"
       inkscape:collect="always">
      <stop
         id="stop3466"
         offset="0"
         style="stop-color:#ffaa00;stop-opacity:1;" />
      <stop
         id="stop3468"
         offset="1"
         style="stop-color:#ffaa00;stop-opacity:0;" />
    </linearGradient>
    <linearGradient
       id="linearGradient3502">
      <stop
         id="stop3504"
         offset="0"
         style="stop-color:#000000;stop-opacity:0.72514617;" />
      <stop
         style="stop-color:#000044;stop-opacity:0.93567252;"
         offset="0.5"
         id="stop3510" />
      <stop
         id="stop3506"
         offset="1"
         style="stop-color:#000080;stop-opacity:0;" />
    </linearGradient>
    <linearGradient
       id="linearGradient3737"
       inkscape:collect="always">
      <stop
         id="stop3739"
         offset="0"
         style="stop-color:#ffffff;stop-opacity:1;" />
      <stop
         id="stop3741"
         offset="1"
         style="stop-color:#ffffff;stop-opacity:0;" />
    </linearGradient>
    <linearGradient
       id="linearGradient3827">
      <stop
         id="stop3829"
         offset="0"
         style="stop-color:#ffaa00;stop-opacity:1" />
      <stop
         style="stop-color:#e77909;stop-opacity:1;"
         offset="0.88193333"
         id="stop3835" />
      <stop
         id="stop3831"
         offset="1"
         style="stop-color:#cf4913;stop-opacity:1;" />
    </linearGradient>
    <linearGradient
       id="linearGradient3703">
      <stop
         style="stop-color:#000000;stop-opacity:0;"
         offset="0"
         id="stop3705" />
      <stop
         id="stop3707"
         offset="0.70282739"
         style="stop-color:#1a206f;stop-opacity:0.49803922;" />
      <stop
         style="stop-color:#000000;stop-opacity:0;"
         offset="1"
         id="stop3709" />
    </linearGradient>
    <radialGradient
       inkscape:collect="always"
       xlink:href="#linearGradient3356"
       id="radialGradient2993"
       gradientUnits="userSpaceOnUse"
       gradientTransform="matrix(1.1416734,0,0.5619174,4.8398437,33.910405,1.699e-3)"
       cx="-49.09375"
       cy="6.5714288"
       fx="-49.09375"
       fy="6.5714288"
       r="4" />
    <radialGradient
       inkscape:collect="always"
       xlink:href="#linearGradient3827"
       id="radialGradient2995"
       gradientUnits="userSpaceOnUse"
       gradientTransform="matrix(1.7504121,0,0,2.7564191,-73.463127,1.770681)"
       cx="30.379177"
       cy="7.8823738"
       fx="30.379177"
       fy="7.8823738"
       r="3.2214338" />
    <radialGradient
       inkscape:collect="always"
       xlink:href="#linearGradient3180"
       id="radialGradient2997"
       gradientUnits="userSpaceOnUse"
       gradientTransform="matrix(1.6662817,0.4565573,-1.9008381,5.0307178,72.842143,26.196467)"
       cx="-50.384651"
       cy="5.7798705"
       fx="-50.384651"
       fy="5.7798705"
       r="4" />
    <radialGradient
       inkscape:collect="always"
       xlink:href="#linearGradient3255"
       id="radialGradient2999"
       gradientUnits="userSpaceOnUse"
       gradientTransform="matrix(1.6436988,0,0,4.1991303,-44.000147,-14.619536)"
       cx="14.517722"
       cy="11.515128"
       fx="14.517722"
       fy="11.515128"
       r="4.2596908" />
    <radialGradient
       inkscape:collect="always"
       xlink:href="#linearGradient3356"
       id="radialGradient3001"
       gradientUnits="userSpaceOnUse"
       gradientTransform="matrix(1.6436988,0,0,4.1991303,-44.000147,-14.619536)"
       cx="14.517722"
       cy="11.515128"
       fx="14.517722"
       fy="11.515128"
       r="4.2596908" />
    <radialGradient
       inkscape:collect="always"
       xlink:href="#linearGradient3255"
       id="radialGradient3003"
       gradientUnits="userSpaceOnUse"
       gradientTransform="matrix(1.6436988,0,0,4.1991303,-44.000147,-14.619536)"
       cx="14.517722"
       cy="11.515128"
       fx="14.517722"
       fy="11.515128"
       r="4.2596908" />
    <radialGradient
       inkscape:collect="always"
       xlink:href="#linearGradient3356"
       id="radialGradient3005"
       gradientUnits="userSpaceOnUse"
       gradientTransform="matrix(1.7504121,0,0,5.2170408,65.804033,2.411635)"
       cx="-49.09375"
       cy="6.5714288"
       fx="-49.09375"
       fy="6.5714288"
       r="4" />
    <radialGradient
       inkscape:collect="always"
       xlink:href="#linearGradient3356"
       id="radialGradient3007"
       gradientUnits="userSpaceOnUse"
       gradientTransform="matrix(1.6436988,0,0,1.3997101,-43.993027,17.596041)"
       cx="14.517722"
       cy="11.515128"
       fx="14.517722"
       fy="11.515128"
       r="4.2596908" />
    <radialGradient
       inkscape:collect="always"
       xlink:href="#linearGradient3464"
       id="radialGradient3009"
       gradientUnits="userSpaceOnUse"
       gradientTransform="matrix(1.7504121,0,0,2.2358745,-74.228937,6.883384)"
       cx="30.90625"
       cy="8"
       fx="30.90625"
       fy="8"
       r="4" />
    <radialGradient
       inkscape:collect="always"
       xlink:href="#linearGradient3444"
       id="radialGradient3011"
       gradientUnits="userSpaceOnUse"
       gradientTransform="matrix(1.6436988,-6.5611558e-2,9.7407627e-2,1.7695653,-44.892737,8.596415)"
       cx="15.117693"
       cy="10.343732"
       fx="15.117693"
       fy="10.343732"
       r="4.2596908" />
    <radialGradient
       inkscape:collect="always"
       xlink:href="#linearGradient3502"
       id="radialGradient3013"
       gradientUnits="userSpaceOnUse"
       gradientTransform="matrix(1.20621,0.5294911,-0.7971683,1.3168755,-29.446807,9.744957)"
       cx="14.517722"
       cy="11.515128"
       fx="14.517722"
       fy="11.515128"
       r="4.2596908" />
    <radialGradient
       inkscape:collect="always"
       xlink:href="#linearGradient3502"
       id="radialGradient3015"
       gradientUnits="userSpaceOnUse"
       gradientTransform="matrix(0.7661033,0.4275239,-0.5063063,1.0632775,-27.610167,14.005756)"
       cx="14.517722"
       cy="11.515128"
       fx="14.517722"
       fy="11.515128"
       r="4.2596908" />
    <radialGradient
       inkscape:collect="always"
       xlink:href="#linearGradient3502"
       id="radialGradient3017"
       gradientUnits="userSpaceOnUse"
       gradientTransform="matrix(1.0017981,0.4397601,-0.6620737,1.0937095,-28.034827,13.617432)"
       cx="14.517722"
       cy="11.515128"
       fx="14.517722"
       fy="11.515128"
       r="4.2596908" />
    <radialGradient
       inkscape:collect="always"
       xlink:href="#linearGradient3255"
       id="radialGradient3019"
       gradientUnits="userSpaceOnUse"
       gradientTransform="matrix(1.6436988,0,0,4.1991305,-43.993027,-14.639643)"
       cx="14.517722"
       cy="11.515128"
       fx="14.517722"
       fy="11.515128"
       r="4.2596908" />
    <radialGradient
       inkscape:collect="always"
       xlink:href="#linearGradient3342"
       id="radialGradient3021"
       gradientUnits="userSpaceOnUse"
       gradientTransform="matrix(1.1300438,2.1870475e-2,-2.9177477e-2,1.0932431,-36.901197,20.914466)"
       cx="13.976506"
       cy="11.513368"
       fx="13.976506"
       fy="11.513368"
       r="4.2596908" />
    <radialGradient
       inkscape:collect="always"
       xlink:href="#linearGradient3342"
       id="radialGradient3023"
       gradientUnits="userSpaceOnUse"
       gradientTransform="matrix(1.1300438,2.1870475e-2,-2.9177477e-2,1.0932431,-36.901197,20.914466)"
       cx="13.897338"
       cy="12.196677"
       fx="13.897338"
       fy="12.196677"
       r="4.2596908" />
    <radialGradient
       inkscape:collect="always"
       xlink:href="#linearGradient3255"
       id="radialGradient3025"
       gradientUnits="userSpaceOnUse"
       gradientTransform="matrix(1.1557254,0.4374094,-0.6675694,1.2790712,-29.221617,12.635023)"
       cx="13.806311"
       cy="11.758413"
       fx="13.806311"
       fy="11.758413"
       r="4.2596908" />
    <radialGradient
       inkscape:collect="always"
       xlink:href="#linearGradient3255"
       id="radialGradient3027"
       gradientUnits="userSpaceOnUse"
       gradientTransform="matrix(1.2841403,0,0,1.0935254,-39.429447,21.214964)"
       cx="14.517722"
       cy="11.515128"
       fx="14.517722"
       fy="11.515128"
       r="4.2596908" />
    <radialGradient
       inkscape:collect="always"
       xlink:href="#linearGradient3444"
       id="radialGradient3029"
       gradientUnits="userSpaceOnUse"
       gradientTransform="matrix(2.0920048,9.1184116e-2,-0.1237312,2.6704631,-83.484657,1.868765)"
       cx="30.914183"
       cy="7.4553509"
       fx="30.914183"
       fy="7.4553509"
       r="2.6751472" />
    <radialGradient
       inkscape:collect="always"
       xlink:href="#linearGradient3737"
       id="radialGradient3031"
       gradientUnits="userSpaceOnUse"
       gradientTransform="matrix(1.9204617,-5.3054876e-2,0.1470945,2.6220791,-80.911567,2.597056)"
       cx="31.368895"
       cy="8.385251"
       fx="31.368895"
       fy="8.385251"
       r="2.1924061" />
    <radialGradient
       inkscape:collect="always"
       xlink:href="#linearGradient3737"
       id="radialGradient3033"
       gradientUnits="userSpaceOnUse"
       gradientTransform="matrix(1.332889,-3.682253e-2,0.1020904,1.8198438,-61.968557,8.941175)"
       cx="31.368895"
       cy="8.385251"
       fx="31.368895"
       fy="8.385251"
       r="2.1924061" />
    <radialGradient
       inkscape:collect="always"
       xlink:href="#linearGradient3291"
       id="radialGradient3035"
       gradientUnits="userSpaceOnUse"
       gradientTransform="matrix(2.691677,1.7624446,-1.1874399,1.8135065,-64.145527,-26.951644)"
       cx="22.406446"
       cy="12.643806"
       fx="22.406446"
       fy="12.643806"
       r="2.3864853" />
    <radialGradient
       inkscape:collect="always"
       xlink:href="#linearGradient3342"
       id="radialGradient3037"
       gradientUnits="userSpaceOnUse"
       gradientTransform="matrix(1.478374,0.4831136,-0.9024924,2.7617129,-30.101567,-9.148243)"
       cx="19.015724"
       cy="14.827939"
       fx="19.015724"
       fy="14.827939"
       r="4" />
    <radialGradient
       inkscape:collect="always"
       xlink:href="#linearGradient3180"
       id="radialGradient3039"
       gradientUnits="userSpaceOnUse"
       gradientTransform="matrix(0.4745808,0.339837,-1.6068429,2.1696216,12.597453,42.761065)"
       cx="-47.197994"
       cy="4.0448375"
       fx="-47.197994"
       fy="4.0448375"
       r="4" />
    <radialGradient
       inkscape:collect="always"
       xlink:href="#linearGradient3703"
       id="radialGradient3041"
       gradientUnits="userSpaceOnUse"
       gradientTransform="matrix(1.5721246,0.8978838,-1.0813348,1.8933318,-43.573557,-9.826939)"
       cx="22.406446"
       cy="12.643806"
       fx="22.406446"
       fy="12.643806"
       r="2.3864853" />
    <radialGradient
       inkscape:collect="always"
       xlink:href="#linearGradient3692"
       id="radialGradient3044"
       gradientUnits="userSpaceOnUse"
       gradientTransform="matrix(0.8202533,-0.1002405,0.6635351,5.4296066,-12.284827,-88.892839)"
       cx="1.5677574"
       cy="19.58757"
       fx="1.5677574"
       fy="19.58757"
       r="2.2605245" />
    <radialGradient
       inkscape:collect="always"
       xlink:href="#linearGradient3390"
       id="radialGradient3056"
       gradientUnits="userSpaceOnUse"
       gradientTransform="matrix(1,0,0,1.8094839,0,-21.621926)"
       cx="2.4089344"
       cy="23.567286"
       fx="2.4089344"
       fy="23.567286"
       r="7.9153924" />
    <linearGradient
       inkscape:collect="always"
       xlink:href="#linearGradient3239"
       id="linearGradient3060"
       gradientUnits="userSpaceOnUse"
       x1="20.486217"
       y1="11.803617"
       x2="21.700607"
       y2="11.803617" />
    <radialGradient
       inkscape:collect="always"
       xlink:href="#linearGradient3331"
       id="radialGradient3063"
       gradientUnits="userSpaceOnUse"
       gradientTransform="matrix(1.3353067,0,0,0.5484971,-10.331021,3.5249465)"
       cx="23.756071"
       cy="15.061376"
       fx="23.756071"
       fy="15.061376"
       r="1.9506613" />
    <radialGradient
       inkscape:collect="always"
       xlink:href="#linearGradient3239"
       id="radialGradient3066"
       gradientUnits="userSpaceOnUse"
       gradientTransform="matrix(1,-1.10115e-6,3.5329746e-7,0.3208441,-4.3894917e-6,8.4496158)"
       cx="21.489124"
       cy="12.152575"
       fx="21.489124"
       fy="12.152575"
       r="0.84375" />
    <linearGradient
       inkscape:collect="always"
       xlink:href="#linearGradient3211"
       id="linearGradient3069"
       gradientUnits="userSpaceOnUse"
       gradientTransform="matrix(1,0,0,-1,-2.167126,43.712006)"
       x1="13.25"
       y1="42.774506"
       x2="14.376935"
       y2="34.399506" />
    <linearGradient
       inkscape:collect="always"
       xlink:href="#linearGradient2308"
       id="linearGradient3089"
       gradientUnits="userSpaceOnUse"
       x1="21.80541"
       y1="15.061376"
       x2="26.338999"
       y2="15.061376"
       gradientTransform="translate(-2.3218525,-3.3259545)" />
    <linearGradient
       inkscape:collect="always"
       xlink:href="#linearGradient3291"
       id="linearGradient3093"
       gradientUnits="userSpaceOnUse"
       gradientTransform="translate(-2.1671258,0)"
       x1="27.926222"
       y1="9.2050457"
       x2="19.981405"
       y2="10.959867" />
    <radialGradient
       inkscape:collect="always"
       xlink:href="#linearGradient3293"
       id="radialGradient3098"
       gradientUnits="userSpaceOnUse"
       gradientTransform="matrix(2.6645651,-6.2165181e-3,2.5778595e-3,1.1049379,-31.307438,-6.3032942)"
       cx="17.491077"
       cy="20.906595"
       fx="17.491077"
       fy="20.906595"
       r="4.8520994" />
    <linearGradient
       inkscape:collect="always"
       xlink:href="#linearGradient3211"
       id="linearGradient3101"
       gradientUnits="userSpaceOnUse"
       gradientTransform="translate(-2.1671258,-3.3370064)"
       x1="19.679306"
       y1="9.7909231"
       x2="18.320284"
       y2="20.3125" />
    <linearGradient
       inkscape:collect="always"
       xlink:href="#linearGradient3211"
       id="linearGradient3104"
       gradientUnits="userSpaceOnUse"
       gradientTransform="translate(-2.1671258,-3.3370064)"
       x1="37"
       y1="8.5726156"
       x2="2.603617"
       y2="14.801926" />
    <linearGradient
       inkscape:collect="always"
       xlink:href="#linearGradient3211"
       id="linearGradient3107"
       gradientUnits="userSpaceOnUse"
       gradientTransform="translate(-2.1671258,-3.3370064)"
       x1="20.125"
       y1="9.4618626"
       x2="17.376936"
       y2="2.5920854" />
    <radialGradient
       inkscape:collect="always"
       xlink:href="#linearGradient3262"
       id="radialGradient3110"
       gradientUnits="userSpaceOnUse"
       gradientTransform="matrix(0.9667783,0,0,0.3853255,-1.8276197,8.8202266)"
       cx="20.54504"
       cy="17.919151"
       fx="20.54504"
       fy="17.919151"
       r="16.024551" />
    <radialGradient
       inkscape:collect="always"
       xlink:href="#linearGradient3291"
       id="radialGradient3114"
       gradientUnits="userSpaceOnUse"
       gradientTransform="matrix(0.2772262,0,0,2.2848445e-2,2.70576,35.015369)"
       cx="63.912209"
       cy="115.70919"
       fx="75.857941"
       fy="115.70919"
       r="63.912209" />
    <radialGradient
       inkscape:collect="always"
       xlink:href="#linearGradient3263"
       id="radialGradient3118"
       gradientUnits="userSpaceOnUse"
       gradientTransform="matrix(0.8862661,0,0,0.2510729,-0.2333442,1.4056449)"
       cx="23.982553"
       cy="14.764003"
       fx="23.982553"
       fy="14.764003"
       r="19.470156" />
    <radialGradient
       inkscape:collect="always"
       xlink:href="#linearGradient3263"
       id="radialGradient3121"
       gradientUnits="userSpaceOnUse"
       gradientTransform="matrix(1.0182669,0,0,0.5677291,-3.9636256,2.7708774)"
       cx="23.982553"
       cy="14.764003"
       fx="23.982553"
       fy="14.764003"
       r="19.470156" />
  </defs>
  <path
     id="path3386"
     style="opacity:0.42233013;fill:#2e3436;fill-opacity:1;fill-rule:nonzero;stroke:none;stroke-width:0.30000001;stroke-linecap:round;stroke-linejoin:round;stroke-miterlimit:4;stroke-dasharray:none;stroke-opacity:1"
     d="M 3.75,11.3125 C 2.8827804,11.3125 2.165733,11.76416 1.8125,12.40625 C 1.8027507,12.404314 2.1763979,11.793799 2.1665404,11.795198 C 1.3264624,11.914431 0.3084726,12.833712 0,13.185062 L 0,38.78125 C 0.2575933,39.212355 0.5480442,39.620939 0.875,40 L 12.78125,40 L 14.3125,40 C 15.62351,38.479608 15.594312,36.693396 15.594312,34.548987 C 15.594313,31.131205 14.439936,28.552359 11.522522,27.137951 C 11.536895,26.974903 11.210022,26.898015 11.210022,26.731701 C 11.210022,23.540364 9.2342236,20.424626 6.3212278,19.736768 C 6.2778243,18.853996 5.2586869,18.594431 3.9375,18.3125 C 3.8431733,17.997774 3.8169044,17.359977 3.5,17.15625 C 4.1154419,16.646865 4.0937501,16.004235 4.09375,15.15625 C 4.0937498,15.145683 4.093871,15.13554 4.09375,15.125 C 4.7203563,15.032299 5.2649274,14.699807 5.59375,14.25 C 5.6490863,14.254237 5.6928614,14.28125 5.75,14.28125 C 6.0486757,14.28125 6.3296911,14.196671 6.5625,14.09375 C 6.543361,14.178146 6.53125,14.253488 6.53125,14.34375 C 6.5312498,15.065843 7.1744477,15.656251 7.96875,15.65625 C 8.69686,15.65625 9.467162,15.513269 9.5625,14.875 C 9.734754,14.923504 9.748853,14.625 9.9375,14.625 C 10.996567,14.625 11.875,13.79218 11.875,12.78125 C 11.875,11.77032 11.96532,11.84375 10.90625,11.84375 C 9.847184,11.84375 8.990553,12.293576 8.03125,12.78125 C 7.9465706,12.824298 8.047869,12.971394 8.0625,13.0625 C 8.03316,13.060875 7.9985363,13.0625 7.96875,13.0625 C 7.7039824,13.0625 7.462963,13.140418 7.25,13.25 C 7.2273136,12.709774 6.5540506,12.25 5.75,12.25 C 5.7039203,12.25 5.6699282,12.278293 5.625,12.28125 C 5.2489785,11.704107 4.5596999,11.3125 3.75,11.3125 z" />
  <path
     id="path3302"
     style="fill:url(#radialGradient3121);fill-opacity:1;fill-rule:nonzero;stroke:none;stroke-width:0.30000001;stroke-linecap:round;stroke-linejoin:round;stroke-miterlimit:4;stroke-dasharray:none;stroke-opacity:1"
     d="M 40.28283,11.152833 C 40.28505,17.258539 31.40808,22.208848 20.457014,22.208848 C 9.5059499,22.208848 0.6289799,17.258539 0.63119972,11.152833 C 0.6289799,5.0471261 9.5059499,0.096816697 20.457014,0.096816697 C 31.40808,0.096816697 40.28505,5.0471261 40.28283,11.152833 L 40.28283,11.152833 z" />
  <path
     id="path3271"
     style="fill:url(#radialGradient3118);fill-opacity:1;fill-rule:nonzero;stroke:none;stroke-width:0.30000001;stroke-linecap:round;stroke-linejoin:round;stroke-miterlimit:4;stroke-dasharray:none;stroke-opacity:1"
     d="M 38.277319,5.1124865 C 38.279251,7.8126783 30.553028,10.001906 21.02158,10.001906 C 11.490132,10.001906 3.7639089,7.8126783 3.765841,5.1124865 C 3.7639089,2.4122947 11.490132,0.22306648 21.02158,0.22306648 C 30.553028,0.22306648 38.279251,2.4122947 38.277319,5.1124865 L 38.277319,5.1124865 z" />
  <path
     id="path3206"
     style="fill:#ffffff;fill-opacity:1;fill-rule:nonzero;stroke:none;stroke-width:0.30000001;stroke-linecap:round;stroke-linejoin:round;stroke-miterlimit:4;stroke-dasharray:none;stroke-opacity:1"
     d="M 17.957874,1.3192436 C 9.6772321,1.3192436 2.9578741,4.1752171 2.9578742,7.6942436 C 2.9578742,7.8542846 2.9578742,8.2439076 2.9578742,8.6317436 C 2.1175026,9.4277798 1.6453742,10.308085 1.6453742,11.225492 C 1.6453742,11.740224 1.6453742,13.665338 1.6453742,14.162992 C 1.6453742,14.923978 2.0048403,15.639819 2.6141242,16.319242 C 2.6166174,16.329529 2.6115043,16.34022 2.6141242,16.350492 C 3.4079475,19.46285 10.003166,21.912991 18.020374,21.912992 C 25.503101,21.912992 31.7625,19.788343 33.207874,16.975492 C 33.212324,16.966832 33.203515,16.952915 33.207874,16.944242 C 34.231285,16.096406 34.832874,15.163246 34.832874,14.162992 C 34.832874,13.665338 34.832874,11.740224 34.832874,11.225492 C 34.832874,10.11904 34.153481,9.0821132 32.957874,8.1629936 C 32.957874,8.0008996 32.957874,7.7742636 32.957874,7.6942436 C 32.957874,4.1752173 26.238516,1.3192434 17.957874,1.3192436 z M 22.176624,4.7567436 C 22.512805,4.7900327 22.848821,4.8403313 23.176624,4.8817436 C 22.850444,4.8409639 22.511055,4.7895131 22.176624,4.7567436 z M 24.707874,5.1004936 C 25.115606,5.1702406 25.505072,5.2370648 25.895374,5.3192436 C 25.503837,5.2372449 25.116903,5.1700101 24.707874,5.1004936 z M 31.239124,7.1004936 C 31.498618,7.2322716 31.754535,7.3672656 31.989124,7.5067436 C 31.749593,7.3645816 31.50458,7.2345766 31.239124,7.1004936 z M 4.4891242,7.5067436 C 4.1907434,7.6838326 3.9010076,7.8806316 3.6453742,8.0692436 C 3.9053562,7.8764886 4.1846205,7.6874366 4.4891242,7.5067436 z" />
  <path
     id="path2593"
     style="opacity:0.38139535;fill:url(#radialGradient3114);fill-opacity:1;fill-rule:nonzero;stroke:none;stroke-width:0;stroke-linecap:round;stroke-linejoin:round;stroke-miterlimit:4;stroke-dasharray:none;stroke-dashoffset:4;stroke-opacity:1"
     d="M 38.142038,37.659146 C 38.142038,38.465645 30.209357,39.119443 20.423899,39.119443 C 10.638441,39.119443 2.70576,38.465645 2.70576,37.659146 C 2.70576,36.852647 10.638441,36.19885 20.423899,36.19885 C 30.209357,36.19885 38.142038,36.852647 38.142038,37.659146 L 38.142038,37.659146 z" />
  <path
     id="path2276"
     style="fill:#ffffff;fill-opacity:0.75688076;fill-rule:nonzero;stroke:none;stroke-width:0.5;stroke-linecap:round;stroke-linejoin:round;stroke-miterlimit:4;stroke-dasharray:none;stroke-dashoffset:4;stroke-opacity:1"
     d="M 10.956528,1.0198748 L 10.956528,-1.7748336 L 10.956528,1.0198748 z" />
  <path
     id="path2229"
     style="opacity:0.30582527;fill:url(#radialGradient3110);fill-opacity:1;fill-rule:nonzero;stroke:none;stroke-width:0.30000001;stroke-linecap:round;stroke-linejoin:round;stroke-miterlimit:4;stroke-dasharray:none;stroke-opacity:1"
     d="M 33.527068,15.724933 C 33.527068,19.135108 26.590979,21.899602 18.034879,21.899602 C 9.47878,21.899602 2.5426907,19.135108 2.5426907,15.724933 C 2.5426907,12.314758 9.47878,9.5502643 18.034879,9.5502643 C 26.590979,9.5502643 33.527068,12.314758 33.527068,15.724933 L 33.527068,15.724933 z" />
  <path
     id="path3277"
     style="fill:url(#linearGradient3107);fill-opacity:1;fill-rule:nonzero;stroke:none;stroke-width:0.30000001;stroke-linecap:round;stroke-linejoin:round;stroke-miterlimit:4;stroke-dasharray:none;stroke-opacity:1"
     d="M 17.957874,1.3192436 C 9.6772321,1.3192436 2.9578741,4.1752171 2.9578742,7.6942436 C 2.9578742,7.8542846 2.9578742,8.2439076 2.9578742,8.6317436 C 5.4789891,6.2436317 11.372317,4.5692436 18.239124,4.5692436 C 24.634263,4.5692437 30.188164,6.0337861 32.957874,8.1629936 C 32.957874,8.0008996 32.957874,7.7742636 32.957874,7.6942436 C 32.957874,4.1752173 26.238516,1.3192434 17.957874,1.3192436 z" />
  <path
     id="path3213"
     style="fill:url(#linearGradient3104);fill-opacity:1;fill-rule:nonzero;stroke:none;stroke-width:0.30000001;stroke-linecap:round;stroke-linejoin:round;stroke-miterlimit:4;stroke-dasharray:none;stroke-opacity:1"
     d="M 18.239124,4.5692436 C 9.0833811,4.5692436 1.6453741,7.5558646 1.6453742,11.225492 C 1.6453742,11.740224 1.6453742,13.665338 1.6453742,14.162992 C 1.6453742,12.591837 3.0753098,11.133777 5.4266242,10.006742 C 5.7649592,9.8454282 6.1448782,9.6857764 6.5203742,9.5379926 C 6.8868022,9.3937418 7.2773932,9.26206 7.6766242,9.1317432 C 8.0864881,8.9985882 8.5164351,8.8741714 8.9578741,8.7567436 C 9.3991011,8.6393646 9.8628481,8.5135516 10.332874,8.4129936 C 11.743537,8.1111846 13.27595,7.8873526 14.895374,7.7567436 C 15.974792,7.6697166 17.094656,7.6317436 18.239124,7.6317436 C 19.383592,7.6317436 20.503456,7.6697166 21.582874,7.7567436 C 23.202298,7.8873526 24.734711,8.1111846 26.145374,8.4129936 C 31.315662,9.5191306 34.832874,11.685018 34.832874,14.162992 C 34.832874,13.665338 34.832874,11.740224 34.832874,11.225492 C 34.832874,7.5558646 27.394867,4.5692437 18.239124,4.5692436 z" />
  <path
     id="path3241"
     style="fill:url(#linearGradient3101);fill-opacity:1;fill-rule:nonzero;stroke:none;stroke-width:0.30000001;stroke-linecap:round;stroke-linejoin:round;stroke-miterlimit:4;stroke-dasharray:none;stroke-opacity:1"
     d="M 18.239124,7.6317436 C 17.094656,7.6317436 15.974792,7.6697166 14.895374,7.7567436 C 13.27595,7.8873526 11.743537,8.1111846 10.332874,8.4129936 C 9.8628481,8.5135516 9.3991011,8.6393646 8.9578741,8.7567436 C 8.5164351,8.8741714 8.0864881,8.9985882 7.6766242,9.1317432 C 7.2773932,9.26206 6.8868022,9.3937418 6.5203742,9.5379926 C 6.1448782,9.6857764 5.7649592,9.8454282 5.4266242,10.006742 C 4.9958596,10.213217 4.602447,10.435739 4.2391242,10.662992 C 4.2070557,10.68305 4.176897,10.705283 4.1453742,10.725492 C 3.7961407,10.949384 3.4876928,11.171934 3.2078742,11.412992 C 3.0469033,11.551665 2.8759577,11.706777 2.7391242,11.850492 C 2.3554789,12.253431 2.0765481,12.664903 1.8953742,13.100492 L 1.8328742,13.194242 C 1.7398717,13.439755 1.6978809,13.691328 1.6766242,13.944242 L 2.5828742,16.412992 L 2.6141242,16.381742 C 2.6117473,16.37281 2.6164053,16.359436 2.6141242,16.350492 C 2.5612026,16.143001 2.5516242,15.938518 2.5516242,15.725492 C 2.5516242,14.964784 2.9194362,14.242361 3.5516242,13.569242 C 3.6250864,13.490683 3.6892958,13.39628 3.7703742,13.319242 C 3.8168408,13.27548 3.8777142,13.237483 3.9266242,13.194242 C 4.0181381,13.112859 4.1079879,13.02374 4.2078742,12.944242 C 4.3076641,12.865348 4.4124544,12.802405 4.5203742,12.725492 C 4.7194776,12.582548 4.9508921,12.423759 5.1766242,12.287992 C 5.3685505,12.174795 5.5917869,12.051931 5.8016242,11.944242 C 6.2007592,11.739404 6.6234082,11.53362 7.0828742,11.350492 C 7.1427862,11.326613 7.2094932,11.311479 7.2703742,11.287992 C 7.5540802,11.177388 7.8724882,11.077194 8.1766241,10.975492 C 8.4802101,10.875621 8.7917961,10.753569 9.1141241,10.662992 C 9.1929141,10.640586 9.2842501,10.622318 9.3641241,10.600492 C 9.7762401,10.489493 10.206358,10.383084 10.645374,10.287992 C 10.921394,10.227265 11.203127,10.185764 11.489124,10.131742 C 12.067892,10.02368 12.655333,9.9297812 13.270374,9.8504922 C 13.321425,9.8438522 13.375339,9.8256734 13.426624,9.8192424 C 13.911632,9.7590754 14.422523,9.7041404 14.926624,9.6629926 C 14.989298,9.6578406 15.051171,9.6678384 15.114124,9.6629926 C 15.475308,9.6351906 15.838056,9.5867346 16.207874,9.5692426 C 16.290309,9.5653436 16.375038,9.5726176 16.457874,9.5692426 C 16.978466,9.5481496 17.485893,9.5379926 18.020374,9.5379926 C 18.882196,9.5379926 19.727984,9.5777276 20.551624,9.6317426 C 21.260387,9.6782234 21.9724,9.7357574 22.645374,9.8192424 C 22.752244,9.8325004 22.852008,9.8363422 22.957874,9.8504922 C 23.731978,9.9542182 24.462282,10.076443 25.176624,10.225492 C 25.258261,10.24243 25.345845,10.270495 25.426624,10.287992 C 26.039809,10.42081 26.616923,10.593293 27.176624,10.756742 C 27.185908,10.75947 27.198605,10.754006 27.207874,10.756742 C 27.230042,10.763247 27.248297,10.781441 27.270374,10.787992 C 28.208589,11.068191 29.07574,11.36936 29.832874,11.725492 C 29.882389,11.748698 29.940459,11.764492 29.989124,11.787992 C 30.192288,11.886586 30.395031,11.996949 30.582874,12.100492 C 30.653925,12.139492 30.732825,12.185812 30.801624,12.225492 C 31.18114,12.446182 31.526396,12.673022 31.832874,12.912992 C 31.976256,13.024937 32.112706,13.140985 32.239124,13.256742 C 32.271157,13.286279 32.301969,13.320719 32.332874,13.350492 C 32.388134,13.403358 32.437477,13.453146 32.489124,13.506742 C 32.584373,13.606074 32.687801,13.71754 32.770374,13.819242 C 33.25694,14.418329 33.520374,15.062088 33.520374,15.725492 C 33.520374,16.151544 33.414356,16.573656 33.207874,16.975492 L 34.832874,14.162992 C 34.832874,14.157698 34.832874,14.137356 34.832874,14.131742 C 34.82753,13.677878 34.71894,13.247305 34.489124,12.819242 C 34.472155,12.787636 34.444749,12.756931 34.426624,12.725492 C 34.292754,12.493598 34.121418,12.260296 33.926624,12.037992 C 33.903434,12.011527 33.888147,11.970558 33.864124,11.944242 C 33.688965,11.752256 33.488608,11.565 33.270374,11.381742 C 33.177216,11.303687 33.058496,11.239368 32.957874,11.162992 C 32.513547,10.82628 32.006939,10.493603 31.426624,10.194242 C 31.346876,10.152926 31.258761,10.109783 31.176624,10.069242 C 31.137282,10.049982 31.091505,10.025822 31.051624,10.006742 C 30.626683,9.8034464 30.159693,9.6258586 29.676624,9.4442428 C 29.215737,9.270967 28.716725,9.0957992 28.207874,8.9442434 C 28.133875,8.9221544 28.064074,8.9033424 27.989124,8.8817434 C 27.878454,8.8499224 27.758087,8.8187456 27.645374,8.7879936 C 27.163818,8.6567796 26.661594,8.5234346 26.145374,8.4129936 C 24.734711,8.1111846 23.202298,7.8873526 21.582874,7.7567436 C 20.503456,7.6697166 19.383592,7.6317436 18.239124,7.6317436 z M 34.832874,14.131742 L 34.864124,14.069242 L 34.864124,13.506742 L 34.832874,13.444242 C 34.832874,13.68444 34.832874,14.008237 34.832874,14.131742 z" />
  <path
     id="path3274"
     style="fill:url(#radialGradient3098);fill-opacity:1;fill-rule:nonzero;stroke:none;stroke-width:0.30000001;stroke-linecap:round;stroke-linejoin:round;stroke-miterlimit:4;stroke-dasharray:none;stroke-opacity:1"
     d="M 22.682356,15.936396 C 22.682356,17.005194 20.597896,17.871626 18.026583,17.871626 C 15.455272,17.871626 13.370812,17.005194 13.370812,15.936396 C 13.370812,14.867598 15.455272,14.001166 18.026583,14.001166 C 20.597896,14.001166 22.682356,14.867598 22.682356,15.936396 z" />
  <path
     id="path3278"
     style="opacity:0.79126216;fill:#2e3436;fill-opacity:1;fill-rule:nonzero;stroke:none;stroke-width:0.30000001;stroke-linecap:round;stroke-linejoin:round;stroke-miterlimit:4;stroke-dasharray:none;stroke-opacity:1"
     d="M 13.426624,15.600492 C 13.322156,15.761446 13.270374,15.925875 13.270374,16.100492 C 13.270374,17.168739 15.356638,18.037993 17.926624,18.037992 C 20.251162,18.037992 22.17323,17.338951 22.520374,16.412992 C 22.006516,17.249424 20.192012,17.881742 18.020374,17.881742 C 15.450389,17.881741 13.364124,17.012489 13.364124,15.944242 C 13.364124,15.832466 13.382787,15.707098 13.426624,15.600492 z" />
  <path
     id="path2335"
     style="opacity:0.44174757;fill:#eeeeee;fill-opacity:1;fill-rule:nonzero;stroke:none;stroke-width:0.30000001;stroke-linecap:round;stroke-linejoin:round;stroke-miterlimit:4;stroke-dasharray:none;stroke-opacity:1"
     d="M 24.533444,11.729373 C 24.533444,12.457396 23.164732,13.047574 21.476341,13.047574 C 19.787949,13.047574 18.419237,12.457396 18.419237,11.729373 C 18.419237,11.001351 19.787949,10.411173 21.476341,10.411173 C 23.164732,10.411173 24.533444,11.001351 24.533444,11.729373 L 24.533444,11.729373 z" />
  <path
     id="path2339"
     style="fill:url(#linearGradient3093);fill-opacity:1;fill-rule:nonzero;stroke:none;stroke-width:0.30000001;stroke-linecap:round;stroke-linejoin:round;stroke-miterlimit:4;stroke-dasharray:none;stroke-opacity:1"
     d="M 21.520374,10.194242 C 19.877523,10.194242 18.558995,10.743232 18.489124,11.444242 C 18.794598,10.855262 20.031504,10.412992 21.489124,10.412992 C 23.176644,10.412992 24.520374,10.997845 24.520374,11.725492 C 24.552284,11.649181 24.582874,11.586997 24.582874,11.506742 C 24.582874,10.779095 23.207894,10.194242 21.520374,10.194242 z" />
  <path
     id="path2345"
     style="opacity:0.11621357;fill:#e20071;fill-opacity:1;fill-rule:nonzero;stroke:none;stroke-width:0.30000001;stroke-linecap:round;stroke-linejoin:round;stroke-miterlimit:4;stroke-dasharray:none;stroke-opacity:1"
     d="M 22.345791,12.29031 C 22.345791,12.491678 21.969081,12.654919 21.504387,12.654919 C 21.039692,12.654919 20.662982,12.491678 20.662982,12.29031 C 20.662982,12.088942 21.039692,11.925701 21.504387,11.925701 C 21.969081,11.925701 22.345791,12.088942 22.345791,12.29031 L 22.345791,12.29031 z" />
  <path
     id="path2347"
     style="fill:url(#linearGradient3089);fill-opacity:1;fill-rule:nonzero;stroke:none;stroke-width:0.30000001;stroke-linecap:round;stroke-linejoin:round;stroke-miterlimit:4;stroke-dasharray:none;stroke-opacity:1"
     d="M 23.384879,11.735421 C 23.385478,12.17812 22.511962,12.53713 21.434219,12.53713 C 20.356476,12.53713 19.48296,12.17812 19.483557,11.735421 C 19.48296,11.292722 20.356476,10.933713 21.434219,10.933713 C 22.511962,10.933713 23.385478,11.292722 23.384879,11.735421 L 23.384879,11.735421 z" />
  <path
     d="M 17.801624,13.162994 C 15.480974,13.193828 13.47152,13.70213 12.332874,14.475494 L 12.864124,14.631744 C 13.899841,13.929718 15.73196,13.441477 17.832874,13.412994 L 17.801624,13.162994 z M 23.145374,17.287994 C 22.08889,17.984178 20.242579,18.430706 18.114124,18.444244 L 18.145374,18.725494 C 20.456991,18.707401 22.476912,18.200793 23.645374,17.444244 L 23.145374,17.287994 z"
     style="opacity:0.98999999;fill:#dddddd;fill-opacity:1;fill-rule:nonzero;stroke:none;stroke-width:0.30000001;stroke-linecap:round;stroke-linejoin:round;stroke-miterlimit:4;stroke-dasharray:none;stroke-opacity:1"
     id="path2244" />
  <path
     d="M 17.770374,12.475494 C 14.923513,12.510047 12.422043,13.130152 10.989124,14.069244 L 11.520374,14.256744 C 12.843674,13.383645 15.151849,12.788533 17.801624,12.756744 L 17.770374,12.475494 z M 24.426624,17.694244 C 23.075382,18.535876 20.782885,19.109914 18.176624,19.131744 L 18.207874,19.381744 C 21.023312,19.355748 23.501319,18.757121 24.957874,17.850494 L 24.426624,17.694244 z"
     style="opacity:0.98999999;fill:#dddddd;fill-opacity:1;fill-rule:nonzero;stroke:none;stroke-width:0.30000001;stroke-linecap:round;stroke-linejoin:round;stroke-miterlimit:4;stroke-dasharray:none;stroke-opacity:1"
     id="path2248" />
  <path
     d="M 17.739124,11.787994 C 14.378013,11.828944 11.434346,12.592425 9.7078742,13.694244 L 10.332874,13.881744 C 11.924915,12.87071 14.63705,12.172087 17.739124,12.131744 L 17.739124,11.787994 z M 25.614124,18.069244 C 23.998474,19.055658 21.308351,19.726172 18.239124,19.756744 L 18.270374,20.069244 C 21.590542,20.034469 24.49537,19.324434 26.239124,18.256744 L 25.614124,18.069244 z"
     style="opacity:0.98999999;fill:#dddddd;fill-opacity:1;fill-rule:nonzero;stroke:none;stroke-width:0.30000001;stroke-linecap:round;stroke-linejoin:round;stroke-miterlimit:4;stroke-dasharray:none;stroke-opacity:1"
     id="path2252" />
  <path
     d="M 17.707874,11.100494 C 13.780682,11.143177 10.335179,11.981365 8.3016242,13.256744 L 9.0516242,13.475494 C 10.919947,12.30061 14.088918,11.518835 17.707874,11.475494 L 17.707874,11.100494 z M 26.895374,18.475494 C 24.997356,19.614839 21.860795,20.374016 18.301624,20.412994 L 18.332874,20.787994 C 22.166511,20.74546 25.531502,19.919783 27.582874,18.694244 L 26.895374,18.475494 z"
     style="opacity:0.98999999;fill:#dddddd;fill-opacity:1;fill-rule:nonzero;stroke:none;stroke-width:0.30000001;stroke-linecap:round;stroke-linejoin:round;stroke-miterlimit:4;stroke-dasharray:none;stroke-opacity:1"
     id="path2256" />
  <path
     id="path3329"
     style="opacity:0.42233013;fill:#ff0000;fill-opacity:1;fill-rule:nonzero;stroke:none;stroke-width:0.30000001;stroke-linecap:round;stroke-linejoin:round;stroke-miterlimit:4;stroke-dasharray:none;stroke-opacity:1"
     d="M 23.384879,11.735421 C 23.385478,12.17812 22.511962,12.53713 21.434219,12.53713 C 20.356476,12.53713 19.48296,12.17812 19.483557,11.735421 C 19.48296,11.292722 20.356476,10.933713 21.434219,10.933713 C 22.511962,10.933713 23.385478,11.292722 23.384879,11.735421 L 23.384879,11.735421 z" />
  <path
     id="rect2349"
     style="opacity:0.64563108;fill:#ff0000;fill-opacity:1;fill-rule:nonzero;stroke:none;stroke-width:0.30000001;stroke-linecap:round;stroke-linejoin:round;stroke-miterlimit:4;stroke-dasharray:none;stroke-opacity:1"
     d="M 21.426624,10.944242 C 21.144765,10.944242 20.886064,10.964517 20.645374,11.006742 L 20.645374,12.287992 L 20.676624,12.287992 C 20.676624,12.489256 21.024669,12.662992 21.489124,12.662992 C 21.953579,12.662992 22.332875,12.489256 22.332874,12.287992 L 22.332874,11.037992 C 22.054527,10.979241 21.762321,10.944242 21.426624,10.944242 z" />
  <path
     d="M 17.739124,13.162994 C 15.556271,13.200365 13.671376,13.676831 12.520374,14.381744 L 12.770374,14.444244 C 13.806091,13.742218 15.63821,13.253977 17.739124,13.225494 L 17.739124,13.162994 z M 23.145374,17.287994 C 22.08889,17.984178 20.242579,18.430706 18.114124,18.444244 L 18.114124,18.537994 C 20.284877,18.512355 22.186479,18.038895 23.364124,17.350494 L 23.145374,17.287994 z"
     style="fill:#555555;fill-opacity:1;fill-rule:nonzero;stroke:none;stroke-width:0.30000001;stroke-linecap:round;stroke-linejoin:round;stroke-miterlimit:4;stroke-dasharray:none;stroke-opacity:1"
     id="path3284" />
  <path
     d="M 17.707874,12.475494 C 14.981336,12.516887 12.587501,13.095075 11.145374,13.975494 L 11.426624,14.069244 C 12.749924,13.196145 15.058099,12.601033 17.707874,12.569244 L 17.707874,12.475494 z M 24.426624,17.694244 C 23.075382,18.535876 20.782885,19.109914 18.176624,19.131744 L 18.176624,19.194244 C 20.855986,19.161232 23.21288,18.597812 24.676624,17.756744 L 24.426624,17.694244 z"
     style="fill:#555555;fill-opacity:1;fill-rule:nonzero;stroke:none;stroke-width:0.30000001;stroke-linecap:round;stroke-linejoin:round;stroke-miterlimit:4;stroke-dasharray:none;stroke-opacity:1"
     id="path3286" />
  <path
     d="M 17.645374,11.787994 C 14.433262,11.840133 11.624699,12.566657 9.8953742,13.600494 L 10.239124,13.694244 C 11.831164,12.68321 14.5433,11.984587 17.645374,11.944244 L 17.645374,11.787994 z M 25.614124,18.069244 C 23.998474,19.055658 21.308351,19.726172 18.239124,19.756744 L 18.239124,19.881744 C 21.425629,19.840027 24.21023,19.166811 25.957874,18.162994 L 25.614124,18.069244 z"
     style="fill:#555555;fill-opacity:1;fill-rule:nonzero;stroke:none;stroke-width:0.30000001;stroke-linecap:round;stroke-linejoin:round;stroke-miterlimit:4;stroke-dasharray:none;stroke-opacity:1"
     id="path3288" />
  <path
     d="M 17.614124,11.100494 C 13.836015,11.154096 10.524638,11.95733 8.4891242,13.162994 L 8.9578742,13.287994 C 10.826196,12.11311 13.995168,11.331335 17.614124,11.287994 L 17.614124,11.100494 z M 26.895374,18.475494 C 24.997356,19.614839 21.860795,20.374016 18.301624,20.412994 L 18.301624,20.600494 C 22.003271,20.550983 25.24877,19.763855 27.301624,18.600494 L 26.895374,18.475494 z"
     style="fill:#555555;fill-opacity:1;fill-rule:nonzero;stroke:none;stroke-width:0.30000001;stroke-linecap:round;stroke-linejoin:round;stroke-miterlimit:4;stroke-dasharray:none;stroke-opacity:1"
     id="path3290" />
  <path
     d="M 12.770374,14.444244 L 12.520374,14.381744 C 12.462036,14.417472 12.387295,14.438532 12.332874,14.475494 L 12.864124,14.631744 L 12.770374,14.444244 z M 12.520374,14.381744 C 13.0671,14.04691 13.07234,14.043701 12.520374,14.381744 z"
     style="fill:#323232;fill-opacity:1;fill-rule:nonzero;stroke:none;stroke-width:0.30000001;stroke-linecap:round;stroke-linejoin:round;stroke-miterlimit:4;stroke-dasharray:none;stroke-opacity:1"
     id="path3344" />
  <path
     d="M 11.426624,14.069244 L 11.145374,13.975494 C 11.09548,14.005954 11.03669,14.038071 10.989124,14.069244 L 11.520374,14.256744 L 11.426624,14.069244 z"
     style="fill:#323232;fill-opacity:1;fill-rule:nonzero;stroke:none;stroke-width:0.30000001;stroke-linecap:round;stroke-linejoin:round;stroke-miterlimit:4;stroke-dasharray:none;stroke-opacity:1"
     id="path3346" />
  <path
     d="M 10.239124,13.694244 L 9.895374,13.600494 C 9.83628,13.635822 9.764388,13.658178 9.707874,13.694244 L 10.332874,13.881744 L 10.239124,13.694244 z M 9.895374,13.600494 C 10.11154,13.471264 10.112342,13.470785 9.895374,13.600494 z"
     style="fill:#323232;fill-opacity:1;fill-rule:nonzero;stroke:none;stroke-width:0.30000001;stroke-linecap:round;stroke-linejoin:round;stroke-miterlimit:4;stroke-dasharray:none;stroke-opacity:1"
     id="path3348" />
  <path
     d="M 8.957874,13.287994 L 8.489124,13.162994 C 8.430241,13.197871 8.358331,13.221179 8.301624,13.256744 L 9.051624,13.475494 L 8.957874,13.287994 z M 8.489124,13.162994 C 8.743563,13.012286 8.743708,13.0122 8.489124,13.162994 z"
     style="fill:#323232;fill-opacity:1;fill-rule:nonzero;stroke:none;stroke-width:0.30000001;stroke-linecap:round;stroke-linejoin:round;stroke-miterlimit:4;stroke-dasharray:none;stroke-opacity:1"
     id="path3350" />
  <path
     id="path3312"
     style="fill:url(#linearGradient3069);fill-opacity:1;fill-rule:nonzero;stroke:none;stroke-width:0.30000001;stroke-linecap:round;stroke-linejoin:round;stroke-miterlimit:4;stroke-dasharray:none;stroke-opacity:1"
     d="M 17.96875,0.9375 C 9.688108,0.93749999 2.96875,3.7934735 2.96875,7.3125 C 2.96875,7.3765165 2.96875,7.564825 2.96875,7.6875 C 2.96875,4.1684735 9.688108,1.3125 17.96875,1.3125 C 26.249392,1.3124998 32.96875,4.1684739 32.96875,7.6875 C 32.96875,7.5439285 32.96875,7.376516 32.96875,7.3125 C 32.96875,3.7934739 26.249392,0.9374998 17.96875,0.9375 z" />
  <path
     id="path3319"
     style="opacity:0.64563108;fill:url(#radialGradient3066);fill-opacity:1;fill-rule:nonzero;stroke:none;stroke-width:0.30000001;stroke-linecap:round;stroke-linejoin:round;stroke-miterlimit:4;stroke-dasharray:none;stroke-opacity:1"
     d="M 21.426624,10.944242 C 21.144765,10.944242 20.886064,10.964517 20.645374,11.006742 L 20.645374,12.287992 L 20.676624,12.287992 C 20.676624,12.489256 21.024669,12.662992 21.489124,12.662992 C 21.953579,12.662992 22.332875,12.489256 22.332874,12.287992 L 22.332874,11.037992 C 22.054527,10.979241 21.762321,10.944242 21.426624,10.944242 z" />
  <path
     id="path3339"
     style="opacity:0.59708737;fill:url(#radialGradient3063);fill-opacity:1;fill-rule:nonzero;stroke:none;stroke-width:0.30000001;stroke-linecap:round;stroke-linejoin:round;stroke-miterlimit:4;stroke-dasharray:none;stroke-opacity:1"
     d="M 23.99535,11.786068 C 23.996149,12.377207 22.829737,12.856594 21.39062,12.856594 C 19.951502,12.856594 18.785091,12.377207 18.785889,11.786068 C 18.785091,11.194929 19.951502,10.715542 21.39062,10.715542 C 22.829737,10.715542 23.996149,11.194929 23.99535,11.786068 L 23.99535,11.786068 z" />
  <path
     id="path3353"
     style="opacity:0.64563108;fill:url(#linearGradient3060);fill-opacity:1;fill-rule:nonzero;stroke:none;stroke-width:0.30000001;stroke-linecap:round;stroke-linejoin:round;stroke-miterlimit:4;stroke-dasharray:none;stroke-opacity:1"
     d="M 21.426624,10.944242 C 21.144765,10.944242 20.886064,10.964517 20.645374,11.006742 L 20.645374,12.287992 L 20.676624,12.287992 C 20.676624,12.489256 21.024669,12.662992 21.489124,12.662992 C 21.953579,12.662992 22.332875,12.489256 22.332874,12.287992 L 22.332874,11.037992 C 22.054527,10.979241 21.762321,10.944242 21.426624,10.944242 z" />
  <path
     id="path3360"
     style="opacity:0.42233013;fill:#2e3436;fill-opacity:1;fill-rule:nonzero;stroke:none;stroke-width:0.30000001;stroke-linecap:round;stroke-linejoin:round;stroke-miterlimit:4;stroke-dasharray:none;stroke-opacity:1"
     d="M 2.875,12.1875 C 2.0077804,12.1875 1.290733,12.63916 0.9375,13.28125 C 0.92775072,13.279314 0.72853483,12.93934 0.71875,12.9375 C 0.54056312,12.903989 0.53198877,13.21875 0.34375,13.21875 C 0.22895699,13.21875 0.11126567,13.237095 0,13.25 L 0,40 L 12.78125,40 L 14.03125,40 C 14.962223,38.634281 15.53125,37.018599 15.53125,35.25 C 15.53125,31.832219 13.854914,28.789408 10.9375,27.375 C 10.951873,27.211953 10.625,27.135064 10.625,26.96875 C 10.625,24.009396 8.3012285,21.531608 5.15625,20.84375 C 5.1128467,19.960979 4.3836869,19.469431 3.0625,19.1875 C 2.9681733,18.872775 2.9419044,18.234977 2.625,18.03125 C 3.2404419,17.521866 3.2187501,16.879235 3.21875,16.03125 C 3.21875,16.020683 3.218871,16.01054 3.21875,16 C 3.8453565,15.907299 4.3899274,15.574807 4.71875,15.125 C 4.7740865,15.129237 4.8178614,15.15625 4.875,15.15625 C 5.1736759,15.15625 5.4546911,15.071671 5.6875,14.96875 C 5.6683612,15.053146 5.65625,15.128488 5.65625,15.21875 C 5.65625,15.940843 6.2994477,16.531251 7.09375,16.53125 C 7.8218605,16.53125 8.6234128,16.388269 8.71875,15.75 C 8.891005,15.798504 8.8738532,15.5 9.0625,15.5 C 10.12157,15.5 11,14.66718 11,13.65625 C 11,12.64532 11.09032,12.71875 10.03125,12.71875 C 8.9721807,12.71875 8.1155525,13.168576 7.15625,13.65625 C 7.0715708,13.699298 7.172869,13.846394 7.1875,13.9375 C 7.1581607,13.935875 7.1235363,13.9375 7.09375,13.9375 C 6.8289826,13.9375 6.587963,14.015418 6.375,14.125 C 6.3523138,13.584774 5.6790506,13.125 4.875,13.125 C 4.8289205,13.125 4.7949282,13.153293 4.75,13.15625 C 4.3739787,12.579107 3.6846999,12.1875 2.875,12.1875 z" />
  <path
     id="path3388"
     style="fill:url(#radialGradient3056);fill-opacity:1;fill-rule:nonzero;stroke:none;stroke-width:0.30000001;stroke-linecap:round;stroke-linejoin:round;stroke-miterlimit:4;stroke-dasharray:none;stroke-opacity:1"
     d="M 3.40625,12.375 C 2.6976684,12.375 2.132367,12.795691 1.84375,13.375 C 1.8357841,13.373252 1.6642448,13.064161 1.65625,13.0625 C 1.5106584,13.032266 1.4975549,13.3125 1.34375,13.3125 C 0.8415804,13.3125 0.3807082,13.491279 0,13.78125 L 0,17.875 C 0.101925,17.953496 0.2000335,18.033309 0.3125,18.09375 C 0.1698103,18.290573 0.0625,18.506341 0.0625,18.75 C 0.0625,18.874596 0.0845366,19.011124 0.125,19.125 C 0.0815347,19.164128 0.0391509,19.208458 0,19.25 L 0,21.21875 C 0.0304606,21.250259 0.0605312,21.281753 0.09375,21.3125 C 0.0587163,21.34039 0.034355,21.377597 0,21.40625 L 0,36.40625 C 0.6332921,37.923862 1.6806319,39.179249 3,40 L 10.125,40 C 12.297065,38.648804 13.75,36.099952 13.75,33.1875 C 13.75,30.103901 12.383738,27.369859 10,26.09375 C 10.011743,25.946644 9.75,25.868805 9.75,25.71875 C 9.75,23.048757 7.8509264,20.808099 5.28125,20.1875 C 5.2457863,19.391044 4.5572648,17.46523 3.4777589,17.210866 C 3.4006872,16.926915 3.6875,16.608819 3.6875,15.84375 C 3.6875001,15.834215 3.6875988,15.822007 3.6875,15.8125 C 4.1994831,15.728863 4.668828,15.437078 4.9375,15.03125 C 4.9827142,15.035075 5.0158135,15.0625 5.0625,15.0625 C 5.30654,15.0625 5.5285283,14.999108 5.71875,14.90625 C 5.7031125,14.982394 5.6875,15.043561 5.6875,15.125 C 5.6875,15.776486 6.2259973,16.3125 6.875,16.3125 C 7.4699195,16.3125 8.109603,16.169609 8.1875,15.59375 C 8.328244,15.637511 8.314612,15.375 8.46875,15.375 C 9.334087,15.375 10.0625,14.630832 10.0625,13.71875 C 10.0625,12.806669 10.115336,12.875 9.25,12.875 C 8.384663,12.875 7.69007,13.278762 6.90625,13.71875 C 6.8370606,13.757591 6.9255456,13.886553 6.9375,13.96875 C 6.9135278,13.967282 6.8993377,13.96875 6.875,13.96875 C 6.6586659,13.96875 6.4552564,14.026135 6.28125,14.125 C 6.2627138,13.637596 5.7194677,13.21875 5.0625,13.21875 C 5.0248496,13.21875 4.9742097,13.247331 4.9375,13.25 C 4.6302631,12.729289 4.0678338,12.375 3.40625,12.375 z" />
  <path
     id="path3830"
     style="opacity:0.52427183;fill:url(#radialGradient3044);fill-opacity:1;fill-rule:evenodd;stroke:none;stroke-width:1px;stroke-linecap:butt;stroke-linejoin:miter;marker:none;marker-start:none;marker-mid:none;marker-end:none;stroke-miterlimit:4;stroke-dasharray:none;stroke-dashoffset:0;stroke-opacity:1;visibility:visible;display:inline;overflow:visible;enable-background:accumulate"
     d="M 6.7225257,25.972904 C 6.679029,24.928984 5.1711814,24.493611 3.8519297,21.999802 C 2.6004481,19.634101 2.0542884,18.998625 2.3442662,17.316754 C 2.6342439,15.634883 2.9387206,15.243413 3.6781639,14.416976 C 4.4176073,13.590539 5.2875407,14.141497 5.1280529,13.953011 C 4.9685651,13.764525 4.069634,13.184569 3.3301906,13.663033 C 2.5907472,14.141496 1.9527962,13.953011 1.4743328,15.518892 C 0.99586951,17.084772 1.4163373,17.925707 1.4163373,19.926554 C 1.4163373,21.9274 2.0105708,22.406011 2.4020408,23.754407 C 2.7935108,25.102804 1.9960536,25.479867 2.9674791,26.320803 C 3.9389047,27.161739 6.7660224,27.016824 6.7225257,25.972904 z"
     sodipodi:nodetypes="csssssssssc" />
  <g
     id="g2960"
     transform="translate(24.538537,9.490489)">
    <path
       id="path4171"
       d="M -20.694787,12.447011 C -23.215587,12.447011 -24.383257,19.881011 -23.319787,29.040761 C -23.260707,29.549636 -23.136777,30.041403 -22.976037,30.509511 L -14.226037,30.509511 C -14.173827,30.040934 -14.135637,29.550207 -14.194787,29.040761 C -15.258247,19.881011 -18.173967,12.447011 -20.694787,12.447011 z"
       style="opacity:0.5;fill:url(#radialGradient2993);fill-opacity:1;stroke:none;stroke-width:0.16;stroke-linecap:round;stroke-linejoin:miter;stroke-miterlimit:4;stroke-dasharray:none;stroke-opacity:1" />
    <path
       id="path4016"
       d="M -20.413537,14.634511 C -23.907187,14.904124 -22.469017,24.541565 -24.538537,28.884511 L -24.538537,30.509511 L -23.538537,30.509511 C -22.411657,30.061743 -21.079687,29.637739 -20.101037,29.822011 C -19.605477,29.915322 -19.141067,30.191721 -18.694787,30.509511 L -14.913537,30.509511 C -14.848087,30.161043 -14.776887,29.761498 -14.726037,29.290761 C -14.045107,22.986257 -17.539097,14.412683 -20.413537,14.634511 z"
       style="opacity:0.5;fill:url(#radialGradient2995);fill-opacity:1;stroke:none;stroke-width:0.16;stroke-linecap:round;stroke-linejoin:miter;stroke-miterlimit:4;stroke-opacity:1" />
    <path
       id="path4018"
       d="M -20.132287,15.822011 C -21.808637,15.822011 -23.332697,17.340283 -24.538537,19.853261 L -24.538537,30.509511 L -13.226037,30.509511 C -13.817507,22.162603 -16.695317,15.822013 -20.132287,15.822011 z"
       style="opacity:0.5;fill:url(#radialGradient2997);fill-opacity:1;stroke:none;stroke-width:0.16;stroke-linecap:round;stroke-linejoin:miter;stroke-miterlimit:4;stroke-dasharray:none;stroke-opacity:1" />
    <path
       id="path4020"
       d="M -20.132287,15.822011 C -21.059917,15.822011 -21.946857,16.296324 -22.757287,17.134511 C -22.759237,17.150397 -22.755327,17.149867 -22.757287,17.165761 C -23.105717,19.986495 -23.730967,22.580908 -24.538537,24.790761 L -24.538537,30.509511 L -13.226037,30.509511 C -13.817507,22.162602 -16.695317,15.822011 -20.132287,15.822011 z"
       style="opacity:0.15;fill:url(#radialGradient2999);fill-opacity:1;stroke:none;stroke-width:0.16;stroke-linecap:round;stroke-linejoin:miter;stroke-miterlimit:4;stroke-dasharray:none;stroke-opacity:1" />
    <path
       id="path4024"
       d="M -20.476037,14.853261 C -22.483877,15.270547 -22.943677,21.757756 -24.538537,26.009511 L -24.538537,29.040761 C -24.336157,28.506197 -24.083567,28.011217 -23.788537,27.634511 C -21.664247,24.9222 -21.670477,16.7722 -19.694787,16.853261 C -18.683357,16.894759 -15.693507,22.618381 -16.194787,27.259511 C -16.305257,28.282191 -16.638007,29.392461 -17.101037,30.509511 L -16.444787,30.509511 C -16.171357,29.692504 -15.820437,28.87025 -15.382287,28.072011 C -12.511377,22.841683 -18.826137,14.906245 -20.226037,14.853261 C -20.311487,14.850027 -20.395727,14.83657 -20.476037,14.853261 z"
       style="opacity:0.15;fill:#cf4913;fill-opacity:1;stroke:none;stroke-width:0.16;stroke-linecap:round;stroke-linejoin:miter;stroke-miterlimit:4;stroke-opacity:1" />
    <path
       id="path4026"
       d="M -20.132287,15.822011 C -21.059917,15.822011 -21.946857,16.296324 -22.757287,17.134511 C -22.759237,17.150397 -22.755327,17.149867 -22.757287,17.165761 C -23.105717,19.986496 -23.730967,22.580908 -24.538537,24.790761 L -24.538537,30.509511 L -13.226037,30.509511 C -13.817507,22.162602 -16.695317,15.822011 -20.132287,15.822011 z"
       style="opacity:0.5;fill:url(#radialGradient3001);fill-opacity:1;stroke:none;stroke-width:0.16;stroke-linecap:round;stroke-linejoin:miter;stroke-miterlimit:4;stroke-dasharray:none;stroke-opacity:1" />
    <path
       id="path4028"
       d="M -20.132287,15.822011 C -21.059917,15.822011 -21.946857,16.296324 -22.757287,17.134511 C -22.759237,17.150397 -22.755327,17.149867 -22.757287,17.165761 C -23.105717,19.986495 -23.730967,22.580908 -24.538537,24.790761 L -24.538537,30.509511 L -13.226037,30.509511 C -13.817507,22.162602 -16.695317,15.822011 -20.132287,15.822011 z"
       style="opacity:0.6;fill:url(#radialGradient3003);fill-opacity:1;stroke:none;stroke-width:0.16;stroke-linecap:round;stroke-linejoin:miter;stroke-miterlimit:4;stroke-dasharray:none;stroke-opacity:1" />
    <path
       id="path4034"
       d="M -20.132287,15.822011 C -20.703227,15.822011 -21.237367,16.069912 -21.726037,16.478261 C -21.757177,16.778217 -21.719917,17.05083 -21.757287,17.353261 C -22.259807,21.421494 -23.263037,25.091612 -24.538537,27.978261 L -24.538537,30.509511 L -14.476037,30.509511 C -14.969427,23.216288 -16.843637,15.822011 -20.132287,15.822011 z"
       style="opacity:0.5;fill:url(#radialGradient3005);fill-opacity:1;stroke:none;stroke-width:0.16;stroke-linecap:round;stroke-linejoin:miter;stroke-miterlimit:4;stroke-dasharray:none;stroke-opacity:1" />
    <path
       id="path4036"
       d="M -20.132287,27.759511 C -21.806687,27.759511 -23.333327,28.236102 -24.538537,29.072011 L -24.538537,30.509511 L -14.288537,30.509511 C -15.522667,28.860792 -17.660437,27.759511 -20.132287,27.759511 z"
       style="opacity:0.1;fill:url(#radialGradient3007);fill-opacity:1;stroke:none;stroke-width:0.16;stroke-linecap:round;stroke-linejoin:miter;stroke-miterlimit:4;stroke-dasharray:none;stroke-opacity:1" />
    <path
       id="path4038"
       d="M -20.132287,15.822011 C -21.059917,15.822011 -21.946857,16.296324 -22.757287,17.134511 C -22.759237,17.150397 -22.755327,17.149867 -22.757287,17.165761 C -23.105717,19.986495 -23.730967,22.580908 -24.538537,24.790761 L -24.538537,30.509511 L -13.226037,30.509511 C -13.817507,22.162602 -16.695317,15.822011 -20.132287,15.822011 z"
       style="opacity:0.5;fill:url(#radialGradient3009);fill-opacity:1;stroke:none;stroke-width:0.16;stroke-linecap:round;stroke-linejoin:miter;stroke-miterlimit:4;stroke-dasharray:none;stroke-opacity:1" />
    <path
       id="path4040"
       d="M -20.132287,15.822011 C -21.059917,15.822011 -21.946857,16.296324 -22.757287,17.134511 C -22.759237,17.150397 -22.755327,17.149867 -22.757287,17.165761 C -23.105717,19.986495 -23.730967,22.580908 -24.538537,24.790761 L -24.538537,30.509511 L -13.226037,30.509511 C -13.817507,22.162602 -16.695317,15.822011 -20.132287,15.822011 z"
       style="opacity:0.5;fill:url(#radialGradient3011);fill-opacity:1;stroke:none;stroke-width:0.16;stroke-linecap:round;stroke-linejoin:miter;stroke-miterlimit:4;stroke-dasharray:none;stroke-opacity:1" />
    <path
       id="path4042"
       d="M -19.976037,26.540761 C -21.549137,26.569101 -23.205887,27.208309 -24.538537,28.322011 L -24.538537,30.509511 L -15.007287,30.509511 C -15.259557,28.959687 -16.213347,27.642288 -17.726037,26.978261 C -18.435097,26.667006 -19.189487,26.526591 -19.976037,26.540761 z"
       style="opacity:0.15;fill:url(#radialGradient3013);fill-opacity:1;stroke:none;stroke-width:0.16;stroke-linecap:round;stroke-linejoin:miter;stroke-miterlimit:4;stroke-dasharray:none;stroke-opacity:1" />
    <path
       id="path4044"
       d="M -21.601037,27.572011 C -22.629487,27.595564 -23.679147,28.154785 -24.538537,29.103261 L -24.538537,30.509511 L -18.476037,30.509511 C -18.681187,29.373745 -19.270927,28.413884 -20.163537,27.915761 C -20.613877,27.664446 -21.101477,27.56057 -21.601037,27.572011 z"
       style="opacity:0.15;fill:url(#radialGradient3015);fill-opacity:1;stroke:none;stroke-width:0.16;stroke-linecap:round;stroke-linejoin:miter;stroke-miterlimit:4;stroke-dasharray:none;stroke-opacity:1" />
    <path
       id="path4046"
       d="M -20.163537,27.572011 C -21.716717,27.599992 -23.348907,28.364546 -24.538537,29.634511 L -24.538537,30.509511 L -16.132287,30.509511 C -16.418727,29.383628 -17.153277,28.445355 -18.288537,27.947011 C -18.877427,27.688504 -19.510277,27.560243 -20.163537,27.572011 z"
       style="opacity:0.15;fill:url(#radialGradient3017);fill-opacity:1;stroke:none;stroke-width:0.16;stroke-linecap:round;stroke-linejoin:miter;stroke-miterlimit:4;stroke-dasharray:none;stroke-opacity:1" />
    <path
       id="path4048"
       d="M -20.132287,15.822011 C -21.059917,15.822011 -21.946857,16.296324 -22.757287,17.134511 C -22.759237,17.150397 -22.755327,17.149867 -22.757287,17.165761 C -23.105717,19.986495 -23.730967,22.580908 -24.538537,24.790761 L -24.538537,30.509511 L -13.226037,30.509511 C -13.817507,22.162602 -16.695317,15.822011 -20.132287,15.822011 z"
       style="opacity:0.25;fill:url(#radialGradient3019);fill-opacity:1;stroke:none;stroke-width:0.16;stroke-linecap:round;stroke-linejoin:miter;stroke-miterlimit:4;stroke-dasharray:none;stroke-opacity:1" />
    <path
       id="path4050"
       d="M -20.788537,29.134511 C -22.238637,29.134511 -23.559277,29.63064 -24.538537,30.415761 L -24.538537,30.509511 L -16.913537,30.509511 C -17.903617,29.666399 -19.278807,29.134511 -20.788537,29.134511 z"
       style="opacity:0.25;fill:url(#radialGradient3021);fill-opacity:1;stroke:none;stroke-width:0.16;stroke-linecap:round;stroke-linejoin:miter;stroke-miterlimit:4;stroke-dasharray:none;stroke-opacity:1" />
    <path
       id="path4052"
       d="M -20.788537,29.134511 C -22.238637,29.134511 -23.559277,29.63064 -24.538537,30.415761 L -24.538537,30.509511 L -16.913537,30.509511 C -17.903617,29.666399 -19.278807,29.134511 -20.788537,29.134511 z"
       style="opacity:0.25;fill:url(#radialGradient3023);fill-opacity:1;stroke:none;stroke-width:0.16;stroke-linecap:round;stroke-linejoin:miter;stroke-miterlimit:4;stroke-dasharray:none;stroke-opacity:1" />
    <path
       id="path4054"
       d="M -20.132287,27.759511 C -21.806687,27.759511 -23.333327,28.236102 -24.538537,29.072011 L -24.538537,30.509511 L -14.226037,30.509511 C -15.470627,28.854325 -17.654567,27.75951 -20.132287,27.759511 z"
       style="opacity:0.5;fill:url(#radialGradient3025);fill-opacity:1;stroke:none;stroke-width:0.16;stroke-linecap:round;stroke-linejoin:miter;stroke-miterlimit:4;stroke-dasharray:none;stroke-opacity:1" />
    <path
       id="path4056"
       d="M -20.788537,29.134511 C -22.238637,29.134511 -23.559277,29.63064 -24.538537,30.415761 L -24.538537,30.509511 L -16.913537,30.509511 C -17.903617,29.666399 -19.278807,29.134511 -20.788537,29.134511 z"
       style="opacity:0.15;fill:url(#radialGradient3027);fill-opacity:1;stroke:none;stroke-width:0.16;stroke-linecap:round;stroke-linejoin:miter;stroke-miterlimit:4;stroke-dasharray:none;stroke-opacity:1" />
    <path
       id="path4058"
       d="M -20.257287,18.822011 C -22.244167,19.32925 -22.382147,26.819356 -24.257287,30.509511 L -15.601037,30.509511 C -15.161937,25.140598 -18.822667,18.822011 -20.038537,18.822011 C -20.113487,18.822011 -20.187107,18.804095 -20.257287,18.822011 z"
       style="fill:url(#radialGradient3029);fill-opacity:1;stroke:none;stroke-width:0.16;stroke-linecap:round;stroke-linejoin:miter;stroke-miterlimit:4;stroke-opacity:1" />
    <path
       id="path4060"
       d="M -19.507287,15.197011 C -22.000387,15.094724 -22.210577,24.609096 -24.538537,28.915761 L -24.538537,30.509511 L -23.538537,30.509511 C -22.411657,30.061743 -21.079687,29.637739 -20.101037,29.822011 C -19.605477,29.915322 -19.141067,30.191721 -18.694787,30.509511 L -14.913537,30.509511 C -14.848087,30.161043 -14.776887,29.761498 -14.726037,29.290761 C -14.045107,22.986257 -18.133407,15.253379 -19.507287,15.197011 z"
       style="opacity:0.1;fill:#ffffff;fill-opacity:1;stroke:none;stroke-width:0.16;stroke-linecap:round;stroke-linejoin:miter;stroke-miterlimit:4;stroke-opacity:1" />
    <path
       id="path4062"
       d="M -19.569787,15.759511 C -22.000527,15.659781 -22.077967,25.346364 -24.538537,29.072011 L -24.538537,30.509511 L -24.382287,30.509511 C -23.200557,30.028699 -21.382897,29.180281 -20.132287,29.415761 C -19.432207,29.547583 -18.784837,30.011945 -18.194787,30.509511 L -15.351037,30.509511 C -15.249177,30.099479 -15.172407,29.6077 -15.101037,28.947011 C -14.465027,23.058354 -18.286527,15.81216 -19.569787,15.759511 z"
       style="opacity:0.1;fill:#ffffbf;fill-opacity:1;stroke:none;stroke-width:0.16;stroke-linecap:round;stroke-linejoin:miter;stroke-miterlimit:4;stroke-opacity:1" />
    <path
       id="path4064"
       d="M -19.601037,16.322011 C -21.930787,16.226424 -21.939837,25.811152 -24.444787,29.009511 C -24.489517,29.066626 -24.498317,29.081767 -24.538537,29.134511 L -24.538537,30.165761 C -23.522507,29.815184 -21.483237,28.755139 -20.132287,29.009511 C -19.260577,29.17365 -18.468747,29.925762 -17.788537,30.509511 L -15.851037,30.509511 C -15.688987,30.090081 -15.544157,29.492001 -15.444787,28.572011 C -14.853677,23.099197 -18.408387,16.370944 -19.601037,16.322011 z"
       style="opacity:0.1;fill:#ffff00;fill-opacity:1;stroke:none;stroke-width:0.16;stroke-linecap:round;stroke-linejoin:miter;stroke-miterlimit:4;stroke-opacity:1" />
    <path
       id="path4066"
       d="M -19.851037,16.509511 C -21.811227,16.951338 -21.890017,25.365286 -24.132287,28.228261 C -24.339427,28.492734 -24.431077,28.652963 -24.538537,28.822011 L -24.538537,29.415761 C -23.809017,29.303964 -21.550747,27.961179 -20.132287,28.228261 C -17.984367,28.632708 -16.366967,32.887833 -15.819787,27.822011 C -15.273587,22.76504 -18.530237,16.554728 -19.632287,16.509511 C -19.699557,16.506751 -19.787807,16.495259 -19.851037,16.509511 z"
       style="opacity:0.1;fill:#ffffff;fill-opacity:1;stroke:none;stroke-width:0.16;stroke-linecap:round;stroke-linejoin:miter;stroke-miterlimit:4;stroke-opacity:1" />
    <path
       sodipodi:nodetypes="czzsz"
       id="path4068"
       d="M -16.169767,27.26263 C -16.671967,31.911875 -18.160157,28.010207 -20.131467,27.639021 C -22.102787,27.267839 -25.887147,30.302884 -23.798127,27.635577 C -21.673847,24.923264 -21.660447,16.79731 -19.684747,16.87837 C -18.673317,16.919868 -15.668497,22.621501 -16.169767,27.26263 z"
       style="opacity:0.15;fill:#ffffbf;fill-opacity:1;stroke:none;stroke-width:0.16;stroke-linecap:round;stroke-linejoin:miter;stroke-miterlimit:4;stroke-opacity:1" />
    <path
       style="opacity:0.75;fill:url(#radialGradient3031);fill-opacity:1;stroke:none;stroke-width:0.16;stroke-linecap:round;stroke-linejoin:miter;stroke-miterlimit:4;stroke-opacity:1"
       d="M -16.169767,27.477783 C -16.671967,31.68459 -18.160157,28.154217 -20.131467,27.818355 C -22.102787,27.482495 -25.887147,30.228715 -23.798127,27.815237 C -21.673847,25.361038 -21.660447,18.008374 -19.684747,18.08172 C -18.673317,18.11927 -15.668497,23.278317 -16.169767,27.477783 z"
       id="path4070"
       sodipodi:nodetypes="czzsz" />
    <path
       sodipodi:nodetypes="czzsz"
       id="path4072"
       d="M -17.034777,26.209546 C -17.383327,29.129263 -18.416197,26.679022 -19.784367,26.445919 C -21.152567,26.212815 -23.779077,28.11882 -22.329207,26.443755 C -20.854847,24.740427 -20.845567,19.63734 -19.474327,19.688246 C -18.772357,19.714306 -16.686877,23.294923 -17.034777,26.209546 z"
       style="opacity:0.75;fill:url(#radialGradient3033);fill-opacity:1;stroke:none;stroke-width:0.16;stroke-linecap:round;stroke-linejoin:miter;stroke-miterlimit:4;stroke-opacity:1" />
    <path
       id="path4076"
       d="M -21.382287,29.447011 C -22.622007,29.46333 -23.731217,29.788149 -24.538537,30.447011 L -24.538537,30.509511 L -17.101037,30.509511 C -18.549907,29.776075 -20.046577,29.429429 -21.382287,29.447011 z"
       style="opacity:0.5;fill:url(#radialGradient3035);fill-opacity:1;stroke:none;stroke-width:0.16;stroke-linecap:round;stroke-linejoin:miter;stroke-miterlimit:4;stroke-dasharray:none;stroke-opacity:1" />
    <path
       id="path4090"
       d="M -20.132287,15.822011 C -21.059917,15.822013 -21.946857,16.296324 -22.757287,17.134511 C -22.759237,17.150397 -22.755327,17.181118 -22.757287,17.197011 C -23.105717,20.017746 -23.730967,22.609394 -24.538537,24.822011 L -24.538537,30.509511 L -13.226037,30.509511 C -13.817507,22.1626 -16.695317,15.822011 -20.132287,15.822011 z"
       style="opacity:0.5;fill:url(#radialGradient3037);fill-opacity:1;stroke:none;stroke-width:0.16;stroke-linecap:round;stroke-linejoin:miter;stroke-miterlimit:4;stroke-dasharray:none;stroke-opacity:1" />
    <path
       id="path4092"
       d="M -20.132287,15.822011 C -21.808637,15.822011 -23.332697,17.340283 -24.538537,19.853261 L -24.538537,30.509511 L -13.226037,30.509511 C -13.817507,22.162603 -16.695317,15.822013 -20.132287,15.822011 z"
       style="opacity:0.5;fill:url(#radialGradient3039);fill-opacity:1;stroke:none;stroke-width:0.16;stroke-linecap:round;stroke-linejoin:miter;stroke-miterlimit:4;stroke-dasharray:none;stroke-opacity:1" />
    <path
       id="path4094"
       d="M -21.101037,29.228261 C -22.259947,29.173088 -23.478757,29.645439 -24.476037,30.509511 L -18.476037,30.509511 C -18.747127,30.191115 -19.070057,29.911029 -19.444787,29.697011 C -19.962547,29.401306 -20.521577,29.255847 -21.101037,29.228261 z"
       style="fill:url(#radialGradient3041);fill-opacity:1;stroke:none;stroke-width:0.16;stroke-linecap:round;stroke-linejoin:miter;stroke-miterlimit:4;stroke-dasharray:none;stroke-opacity:1" />
  </g>
  <path
     id="rect1951"
     style="opacity:0.61162792;fill:#555753;fill-opacity:1;fill-rule:nonzero;stroke:none;stroke-width:0.69999999;stroke-linecap:round;stroke-linejoin:miter;stroke-miterlimit:4;stroke-dasharray:none;stroke-opacity:1"
     d="M 0,30 L 0,40 L 18.84375,40 L 40,40 L 40,30 L 0,30 z" />
  <text
     xml:space="preserve"
     id="text2840"
     style="font-size:12px;font-style:normal;font-weight:normal;fill:#eeeeec;fill-opacity:1;stroke:none;stroke-width:1px;stroke-linecap:butt;stroke-linejoin:miter;stroke-opacity:1;font-family:Bitstream Vera Sans"
     y="39.168156"
     x="14.20342"><tspan
       id="tspan2842"
       y="39.168156"
       x="14.20342">Bi</tspan></text>
</svg>
