<?xml version="1.0" encoding="UTF-8" standalone="no"?>
<!-- Created with Inkscape (http://www.inkscape.org/) -->
<svg
   xmlns:svg="http://www.w3.org/2000/svg"
   xmlns="http://www.w3.org/2000/svg"
   xmlns:xlink="http://www.w3.org/1999/xlink"
   version="1.0"
   width="40"
   height="40"
   id="svg2193">
  <defs
     id="defs2195">
    <linearGradient
       id="linearGradient3354">
      <stop
         style="stop-color:#000000;stop-opacity:1"
         offset="0"
         id="stop3356" />
      <stop
         style="stop-color:#000000;stop-opacity:0.49803922"
         offset="0.125"
         id="stop3360" />
      <stop
         style="stop-color:#000000;stop-opacity:0"
         offset="1"
         id="stop3358" />
    </linearGradient>
    <linearGradient
       id="linearGradient3542">
      <stop
         style="stop-color:#ffffff;stop-opacity:1"
         offset="0"
         id="stop3544" />
      <stop
         style="stop-color:#c1c1c1;stop-opacity:1"
         offset="1"
         id="stop3546" />
    </linearGradient>
    <linearGradient
       id="linearGradient3536">
      <stop
         style="stop-color:#000000;stop-opacity:1"
         offset="0"
         id="stop3538" />
      <stop
         style="stop-color:#c1c1c1;stop-opacity:1"
         offset="1"
         id="stop3540" />
    </linearGradient>
    <linearGradient
       id="linearGradient3522">
      <stop
         style="stop-color:#ffffff;stop-opacity:1"
         offset="0"
         id="stop3524" />
      <stop
         style="stop-color:#b5b5b5;stop-opacity:1"
         offset="1"
         id="stop3526" />
    </linearGradient>
    <linearGradient
       id="linearGradient3484">
      <stop
         style="stop-color:#ffffff;stop-opacity:1"
         offset="0"
         id="stop3486" />
      <stop
         style="stop-color:#646464;stop-opacity:1"
         offset="1"
         id="stop3488" />
    </linearGradient>
    <linearGradient
       id="linearGradient3453">
      <stop
         style="stop-color:#2e3436;stop-opacity:1"
         offset="0"
         id="stop3455" />
      <stop
         style="stop-color:#2e3436;stop-opacity:0"
         offset="1"
         id="stop3457" />
    </linearGradient>
    <linearGradient
       id="linearGradient3439">
      <stop
         style="stop-color:#ffffff;stop-opacity:1"
         offset="0"
         id="stop3441" />
      <stop
         style="stop-color:#eeeeec;stop-opacity:0"
         offset="1"
         id="stop3443" />
    </linearGradient>
    <linearGradient
       id="linearGradient3427">
      <stop
         style="stop-color:#ffffff;stop-opacity:1"
         offset="0"
         id="stop3429" />
      <stop
         style="stop-color:#ffffff;stop-opacity:0"
         offset="1"
         id="stop3431" />
    </linearGradient>
    <linearGradient
       id="linearGradient3361">
      <stop
         style="stop-color:#eeeeec;stop-opacity:1"
         offset="0"
         id="stop3363" />
      <stop
         style="stop-color:#eeeeec;stop-opacity:0"
         offset="1"
         id="stop3365" />
    </linearGradient>
    <linearGradient
       id="linearGradient3279">
      <stop
         style="stop-color:#2e3436;stop-opacity:0"
         offset="0"
         id="stop3281" />
      <stop
         style="stop-color:#2e3436;stop-opacity:0.61616164"
         offset="1"
         id="stop3283" />
    </linearGradient>
    <linearGradient
       id="linearGradient3265">
      <stop
         style="stop-color:#babdb6;stop-opacity:1"
         offset="0"
         id="stop3267" />
      <stop
         style="stop-color:#babdb6;stop-opacity:0"
         offset="1"
         id="stop3269" />
    </linearGradient>
    <linearGradient
       id="linearGradient3316">
      <stop
         style="stop-color:#ffffff;stop-opacity:1"
         offset="0"
         id="stop3318" />
      <stop
         style="stop-color:#eeeeec;stop-opacity:0"
         offset="1"
         id="stop3320" />
    </linearGradient>
    <linearGradient
       id="linearGradient3332">
      <stop
         style="stop-color:#ffffff;stop-opacity:1"
         offset="0"
         id="stop3334" />
      <stop
         style="stop-color:#eeeeec;stop-opacity:0.63636363"
         offset="1"
         id="stop3336" />
    </linearGradient>
    <linearGradient
       id="linearGradient3280">
      <stop
         style="stop-color:#888a85;stop-opacity:1"
         offset="0"
         id="stop3282" />
      <stop
         style="stop-color:#e6e6e5;stop-opacity:1"
         offset="1"
         id="stop3284" />
    </linearGradient>
    <linearGradient
       id="linearGradient3291">
      <stop
         style="stop-color:#000000;stop-opacity:1"
         offset="0"
         id="stop3293" />
      <stop
         style="stop-color:#000000;stop-opacity:0"
         offset="1"
         id="stop3295" />
    </linearGradient>
    <radialGradient
       cx="63.912209"
       cy="115.7093"
       r="63.912209"
       fx="76.178238"
       fy="115.40531"
       id="radialGradient2595"
       xlink:href="#linearGradient3291"
       gradientUnits="userSpaceOnUse"
       gradientTransform="matrix(1,0,0,0.197802,0,92.82166)" />
    <linearGradient
       x1="25.165131"
       y1="10.480453"
       x2="23.921013"
       y2="5.1081214"
       id="linearGradient3338"
       xlink:href="#linearGradient3332"
       gradientUnits="userSpaceOnUse"
       gradientTransform="matrix(1,0,0,-1,0,40)" />
    <radialGradient
       cx="3.3934019"
       cy="17.942888"
       r="1.5270308"
       fx="3.3934019"
       fy="17.942888"
       id="radialGradient3322"
       xlink:href="#linearGradient3316"
       gradientUnits="userSpaceOnUse"
       gradientTransform="matrix(1,0,0,0.962963,0,0.6645515)" />
    <radialGradient
       cx="3.3934019"
       cy="17.942888"
       r="1.5270308"
       fx="3.3934019"
       fy="17.942888"
       id="radialGradient3326"
       xlink:href="#linearGradient3316"
       gradientUnits="userSpaceOnUse"
       gradientTransform="matrix(2.1851852,6.1626726e-7,-2.7157535e-7,0.9629628,-4.0218048,0.6645513)" />
    <linearGradient
       x1="3.4148307"
       y1="24.515484"
       x2="1.671875"
       y2="27.887878"
       id="linearGradient3257"
       xlink:href="#linearGradient3265"
       gradientUnits="userSpaceOnUse"
       gradientTransform="translate(2,0)" />
    <radialGradient
       cx="9.53125"
       cy="29.574095"
       r="2.875"
       fx="9.53125"
       fy="29.574095"
       id="radialGradient3277"
       xlink:href="#linearGradient3279"
       gradientUnits="userSpaceOnUse"
       gradientTransform="matrix(1.1982547,1.6521211e-2,-8.4365853e-3,0.6118902,-1.6401106,10.905799)" />
    <linearGradient
       x1="21.269617"
       y1="25.023291"
       x2="19.929319"
       y2="31.863079"
       id="linearGradient3367"
       xlink:href="#linearGradient3361"
       gradientUnits="userSpaceOnUse"
       gradientTransform="translate(-0.189994,-0.2374925)" />
    <linearGradient
       x1="21.712084"
       y1="39.409218"
       x2="32.400238"
       y2="29.38703"
       id="linearGradient3375"
       xlink:href="#linearGradient3439"
       gradientUnits="userSpaceOnUse" />
    <linearGradient
       x1="26.940796"
       y1="27.588799"
       x2="26.725132"
       y2="29.15625"
       id="linearGradient3433"
       xlink:href="#linearGradient3427"
       gradientUnits="userSpaceOnUse" />
    <linearGradient
       x1="19.721022"
       y1="27.398804"
       x2="19.742849"
       y2="28.87126"
       id="linearGradient3437"
       xlink:href="#linearGradient3427"
       gradientUnits="userSpaceOnUse" />
    <radialGradient
       cx="9.15625"
       cy="22.485043"
       r="1.96875"
       fx="9.15625"
       fy="22.485043"
       id="radialGradient3459"
       xlink:href="#linearGradient3453"
       gradientUnits="userSpaceOnUse"
       gradientTransform="matrix(1.4807375,0.3238277,-0.2183954,0.9986368,0.508876,-2.9632228)" />
    <radialGradient
       cx="3.3934019"
       cy="17.942888"
       r="1.5270308"
       fx="3.3934019"
       fy="17.942888"
       id="radialGradient3463"
       xlink:href="#linearGradient3316"
       gradientUnits="userSpaceOnUse"
       gradientTransform="matrix(2.1851852,6.1626726e-7,-2.7157535e-7,0.9629628,-4.0218048,0.6645513)" />
    <linearGradient
       x1="9.813467"
       y1="11.560322"
       x2="10.724103"
       y2="15.469938"
       id="linearGradient3482"
       xlink:href="#linearGradient3484"
       gradientUnits="userSpaceOnUse" />
    <radialGradient
       cx="12.022071"
       cy="13.554236"
       r="2.6110654"
       fx="12.022071"
       fy="13.554236"
       id="radialGradient3508"
       xlink:href="#linearGradient3453"
       gradientUnits="userSpaceOnUse"
       gradientTransform="matrix(1,0,0,0.9839572,0,0.2174475)" />
    <linearGradient
       x1="4.7975359"
       y1="6.0735126"
       x2="2.6224594"
       y2="16.807049"
       id="linearGradient3520"
       xlink:href="#linearGradient3522"
       gradientUnits="userSpaceOnUse" />
    <linearGradient
       x1="2.6465182"
       y1="9.0678253"
       x2="3.3026595"
       y2="15.085531"
       id="linearGradient3534"
       xlink:href="#linearGradient3536"
       gradientUnits="userSpaceOnUse" />
    <radialGradient
       cx="3.007319"
       cy="11.435756"
       r="2.3290203"
       fx="3.007319"
       fy="11.435756"
       id="radialGradient3548"
       xlink:href="#linearGradient3542"
       gradientUnits="userSpaceOnUse"
       gradientTransform="matrix(1,0,0,1.2142858,0,-2.5785589)" />
    <linearGradient
       x1="23.565296"
       y1="36.265244"
       x2="24.376604"
       y2="23.393499"
       id="linearGradient3565"
       xlink:href="#linearGradient3484"
       gradientUnits="userSpaceOnUse"
       gradientTransform="matrix(1,0,0,-1,0,40)" />
    <linearGradient
       x1="27.336601"
       y1="10.985254"
       x2="38.007664"
       y2="7.3380923"
       id="linearGradient3567"
       xlink:href="#linearGradient3280"
       gradientUnits="userSpaceOnUse" />
    <linearGradient
       x1="39.30191"
       y1="14.054431"
       x2="32.564018"
       y2="1.75"
       id="linearGradient3352"
       xlink:href="#linearGradient3354"
       gradientUnits="userSpaceOnUse" />
  </defs>
  <g
     id="layer1">
    <path
       d="M 34.125,1.09375 C 34.125,1.09375 29.233882,3.2717542 23.5625,4.71875 C 17.891119,6.1657456 11.4375,6.875 11.4375,6.875 L 13.4375,17.6875 C 13.4375,17.6875 19.784007,16.472671 26.125,15.59375 C 32.465994,14.71483 38.812499,14.15625 38.8125,14.15625 C 38.8125,14.15625 38.655545,13.791061 38.625,13.71875 C 38.045893,13.826455 37.432942,13.875 36.8125,13.875 C 32.473466,13.875 28.96875,11.090018 28.96875,7.65625 C 28.96875,4.9035379 31.210566,2.5687356 34.34375,1.75 C 34.29667,1.5911897 34.125,1.09375 34.125,1.09375 z "
       style="fill:url(#linearGradient3565);fill-opacity:1;fill-rule:nonzero;stroke:none;stroke-width:1;stroke-linecap:round;stroke-linejoin:round;stroke-miterlimit:4;stroke-opacity:1"
       id="rect2157" />
    <path
       d="M 127.82442 115.70919 A 63.912209 12.641975 0 1 1  0,115.70919 A 63.912209 12.641975 0 1 1  127.82442 115.70919 z"
       transform="matrix(0.3045988,8.1700545e-2,-3.7862213e-2,0.2556391,5.4040691,-2.2192795)"
       style="opacity:0.38139535;fill:url(#radialGradient2595);fill-opacity:1;fill-rule:nonzero;stroke:none;stroke-width:0;stroke-linecap:round;stroke-linejoin:round;stroke-miterlimit:4;stroke-dasharray:none;stroke-dashoffset:4;stroke-opacity:1"
       id="path2593" />
    <path
       d="M 10.956528,1.0198748 L 10.956528,-1.7748336 L 10.956528,1.0198748 z "
       style="fill:#ffffff;fill-opacity:0.75688076;fill-rule:nonzero;stroke:none;stroke-width:0.5;stroke-linecap:round;stroke-linejoin:round;stroke-miterlimit:4;stroke-dasharray:none;stroke-dashoffset:4;stroke-opacity:1"
       id="path2276" />
    <path
       d="M 34.125,1.09375 C 34.125,1.09375 29.233882,3.2717542 23.5625,4.71875 C 18.460085,6.0205796 12.973501,6.6814735 11.875,6.8125 C 13.711939,6.8938308 15.48932,8.5756994 16.21875,10.96875 L 29.0625,8.71875 C 28.99102,8.3725685 28.96875,8.0203808 28.96875,7.65625 C 28.96875,4.9035379 31.210566,2.5687356 34.34375,1.75 C 34.296381,1.591152 34.125,1.09375 34.125,1.09375 z "
       style="opacity:0.53883493;fill:url(#linearGradient3338);fill-opacity:1;fill-rule:nonzero;stroke:none;stroke-width:1;stroke-linecap:round;stroke-linejoin:round;stroke-miterlimit:4;stroke-opacity:1"
       id="path3288" />
    <path
       d="M 8.8170056 11.561922 A 4.6025877 5.51756 0 1 1  -0.38816977,11.561922 A 4.6025877 5.51756 0 1 1  8.8170056 11.561922 z"
       transform="matrix(0.8604332,-0.2327816,0.2611517,0.9652978,5.716446,2.0773594)"
       style="fill:url(#linearGradient3520);fill-opacity:1;fill-rule:nonzero;stroke:#babdb6;stroke-width:0.21183711;stroke-linecap:round;stroke-linejoin:round;stroke-miterlimit:4;stroke-dasharray:none;stroke-opacity:1"
       id="path3510" />
    <path
       d="M 14.633136 13.554236 A 2.6110654 2.5691767 0 1 1  9.4110055,13.554236 A 2.6110654 2.5691767 0 1 1  14.633136 13.554236 z"
       transform="matrix(1.0785543,0,0,1.4350449,-1.3983108,-6.1272273)"
       style="opacity:1;fill:url(#radialGradient3508);fill-opacity:1;fill-rule:nonzero;stroke:none;stroke-width:0.40000001;stroke-linecap:round;stroke-linejoin:round;stroke-miterlimit:4;stroke-dasharray:none;stroke-opacity:1"
       id="path3500" />
    <path
       d="M 5.1571164 12.033272 A 2.3290203 2.8280962 0 1 1  0.49907589,12.033272 A 2.3290203 2.8280962 0 1 1  5.1571164 12.033272 z"
       transform="matrix(0.9551964,-0.2521094,0.2359477,0.8508422,2.8638939,3.7404741)"
       style="fill:url(#radialGradient3548);fill-opacity:1;fill-rule:nonzero;stroke:none;stroke-width:1;stroke-linecap:round;stroke-linejoin:round;stroke-miterlimit:4;stroke-dasharray:none;stroke-opacity:1"
       id="path3149" />
    <path
       d="M 7.7469549,10.849313 C 8.9749738,10.525197 10.257185,11.357978 10.625526,12.686235 C 10.993865,14.014494 10.309553,15.337773 9.081534,15.661889 C 9.5686867,15.533313 11.225665,15.420139 11.743867,15.283367 C 12.971886,14.959251 13.614042,13.396279 13.245702,12.068022 C 12.877363,10.739766 11.614711,9.7080219 10.386693,10.032138 C 9.8938973,10.162204 8.2607534,10.713704 7.7469549,10.849313 z "
       style="opacity:0.78640777;fill:url(#linearGradient3482);fill-opacity:1;fill-rule:nonzero;stroke:none;stroke-width:1;stroke-linecap:round;stroke-linejoin:round;stroke-miterlimit:4;stroke-dasharray:none;stroke-opacity:1"
       id="path3151" />
    <path
       d="M 0.59375,24.1875 C 0.44589057,24.229118 0.15625,24.394116 0.15625,25.0625 C 0.15625,25.660871 0.6875,25.96875 0.6875,25.96875 L 7.1875,29.96875 C 7.1875,29.96875 9.449172,30.3125 9.90625,30.3125 C 10.341617,30.3125 10.366866,30.247306 11,30.15625 C 11.748772,30.029317 15.069021,30.03276 18.25,30.3125 C 22.623846,30.697142 27,31.53125 27,31.53125 L 33.5,35.625 L 40,39 L 40,35 L 36.25,32.8125 L 31,29 C 31,29 26.133501,28.3125 21.28125,28.3125 C 16.835945,28.312499 13.118222,28.366196 12.40625,28.375 C 12.249177,27.950066 11.9375,27.875 11.9375,27.875 L 4.3125,24.1875 L 0.6875,24.1875 C 0.6875,24.1875 0.64303648,24.173627 0.59375,24.1875 z "
       style="fill:#4e9a06;fill-opacity:1;fill-rule:nonzero;stroke:none;stroke-width:1;stroke-linecap:round;stroke-linejoin:round;stroke-miterlimit:4;stroke-opacity:1"
       id="path2267" />
    <path
       d="M 7.1875,27.875 C 7.1875,27.875 6.65625,27.997329 6.65625,28.9375 C 6.65625,29.460937 7.1875,29.96875 7.1875,29.96875 L 8.78125,29.96875 C 8.558244,29.804916 8.40625,29.605522 8.40625,29.375 C 8.40625,28.859882 9.08564,28.448837 9.90625,28.34375 C 10.516083,28.265656 11.59375,28.375001 11.59375,28.375 C 11.59375,28.375 12.341072,28.375806 12.40625,28.375 C 12.24681,27.945671 11.9375,27.875 11.9375,27.875 L 7.1875,27.875 z "
       style="opacity:0.57281554;fill:url(#radialGradient3277);fill-opacity:1;fill-rule:nonzero;stroke:none;stroke-width:1;stroke-linecap:round;stroke-linejoin:round;stroke-miterlimit:4;stroke-opacity:1"
       id="path3263" />
    <path
       d="M 0.697687,24.185973 L 4.318335,24.187413 L 11.938506,27.88969 L 7.174017,27.88825 L 0.697687,24.185973 z "
       style="opacity:0.14077669;fill:#eeeeec;fill-opacity:1;fill-rule:nonzero;stroke:none;stroke-width:1;stroke-linecap:round;stroke-linejoin:round;stroke-miterlimit:4;stroke-opacity:1"
       id="path3320" />
    <path
       d="M 1.1601724,20.440418 L 4.1966492,20.441741 L 11.127136,23.090059 L 7.1923536,23.088735 L 1.1601724,20.440418 z "
       style="fill:#eeeeec;fill-opacity:1;fill-rule:nonzero;stroke:none;stroke-width:1;stroke-linecap:round;stroke-linejoin:round;stroke-miterlimit:4;stroke-opacity:1"
       id="path3250" />
    <path
       d="M 34.34375,1.75 C 31.210566,2.5687356 28.96875,4.9035379 28.96875,7.65625 C 28.96875,11.090018 32.473466,13.875 36.8125,13.875 C 37.432942,13.875 38.045893,13.826455 38.625,13.71875 C 38.373229,13.122725 37.29354,10.536921 36.25,7.625 C 35.27024,4.8910565 34.586032,2.5672665 34.34375,1.75 z "
       style="opacity:1;fill:url(#linearGradient3567);fill-opacity:1;fill-rule:nonzero;stroke:none;stroke-width:0.40000001;stroke-linecap:round;stroke-linejoin:round;stroke-miterlimit:4;stroke-dasharray:none;stroke-opacity:1"
       id="path2296" />
    <path
       d="M 0.59375,24.1875 C 0.4458906,24.229118 0.15625,24.394116 0.15625,25.0625 C 0.15625,25.660871 0.6875,25.96875 0.6875,25.96875 L 7.1875,29.96875 C 7.1875,29.96875 6.65625,29.460937 6.65625,28.9375 C 6.65625,27.997329 7.1875,27.875 7.1875,27.875 L 0.6875,24.1875 C 0.6875,24.1875 0.6430365,24.173627 0.59375,24.1875 z "
       style="fill:url(#linearGradient3257);fill-opacity:1;fill-rule:nonzero;stroke:none;stroke-width:1;stroke-linecap:round;stroke-linejoin:round;stroke-miterlimit:4;stroke-opacity:1"
       id="path2286" />
    <path
       d="M 31,29 C 31,29 30.219584,28.922412 29.469584,29.042525 C 28.719584,29.162639 28,29.480454 28,29.480454 L 34.499586,33 C 34.499586,33 34.984104,32.989673 35.331752,32.872891 C 35.679399,32.756109 35.890175,32.532872 35.890175,32.532872 L 31,29 z "
       style="opacity:0.35922331;fill:#2e3436;fill-opacity:1;fill-rule:evenodd;stroke:none;stroke-width:1px;stroke-linecap:butt;stroke-linejoin:miter;stroke-opacity:1"
       id="path2292" />
    <path
       d="M 7.21875,27.65625 L 11.125,27.65625 L 11.125,23.09375 L 7.1875,23.09375 L 7.21875,27.65625 z "
       style="fill:#888a85;fill-opacity:1;fill-rule:nonzero;stroke:none;stroke-width:1;stroke-linecap:round;stroke-linejoin:round;stroke-miterlimit:4;stroke-opacity:1"
       id="path3278" />
    <path
       d="M 6.546585,14.878071 C 5.3914711,14.878071 3.4913711,16.042933 2.2471237,17.084934 C 1.4897214,17.719224 1.7471237,18.781032 1.7471237,19.397434 C 1.7471237,20.599377 2.757196,21.247639 3.9033737,21.553684 C 7.0805594,22.402034 7.3956297,23.709934 8.8096237,23.709934 C 10.245712,23.709934 11.434627,22.630504 11.434627,21.303684 C 11.434627,19.976864 10.245712,18.897434 8.8096237,18.897434 C 8.009984,18.897434 5.3600463,17.468169 5.3600464,16.915264 C 5.3600464,15.76015 7.701699,14.878071 6.546585,14.878071 z "
       style="opacity:1;fill:#729fcf;fill-opacity:1;fill-rule:nonzero;stroke:none;stroke-width:0.40000001;stroke-linecap:round;stroke-linejoin:round;stroke-miterlimit:4;stroke-dasharray:none;stroke-opacity:1"
       id="path3280" />
    <path
       d="M 5.1571164 12.033272 A 2.3290203 2.8280962 0 1 1  0.49907589,12.033272 A 2.3290203 2.8280962 0 1 1  5.1571164 12.033272 z"
       transform="matrix(0.602012,-0.1588918,0.1487059,0.5362428,4.6863111,7.262506)"
       style="fill:url(#linearGradient3534);fill-opacity:1;fill-rule:nonzero;stroke:none;stroke-width:1;stroke-linecap:round;stroke-linejoin:round;stroke-miterlimit:4;stroke-dasharray:none;stroke-opacity:1"
       id="path3291" />
    <path
       d="M 4.9204327 17.942888 A 1.5270308 1.4704741 0 1 1  1.866371,17.942888 A 1.5270308 1.4704741 0 1 1  4.9204327 17.942888 z"
       transform="matrix(1.3148148,0,0,1.3732089,-0.7367157,-6.1676122)"
       style="opacity:1;fill:url(#radialGradient3322);fill-opacity:1;fill-rule:nonzero;stroke:none;stroke-width:0.40000001;stroke-linecap:round;stroke-linejoin:round;stroke-miterlimit:4;stroke-dasharray:none;stroke-opacity:1"
       id="path3298" />
    <path
       d="M 6.730247 17.942888 A 3.3368452 1.4704741 0 1 1  0.056556702,17.942888 A 3.3368452 1.4704741 0 1 1  6.730247 17.942888 z"
       transform="matrix(0.9099091,0.4148078,-0.4148078,0.9099091,10.018318,1.7364681)"
       style="opacity:1;fill:url(#radialGradient3326);fill-opacity:1;fill-rule:nonzero;stroke:none;stroke-width:0.40000001;stroke-linecap:round;stroke-linejoin:round;stroke-miterlimit:4;stroke-dasharray:none;stroke-opacity:1"
       id="path3324" />
    <use
       transform="matrix(1,0,0,0.9874066,4.2827834,2.5973913)"
       id="use3328"
       x="0"
       y="0"
       width="40"
       height="40"
       xlink:href="#path3298" />
    <path
       d="M 9.810006,28.680012 C 9.810006,28.680012 9.0432744,28.902452 8.872506,29.273762 C 8.9149736,29.400128 9.0136335,29.547735 9.153756,29.680012 C 9.3339278,29.698899 9.6324177,29.742512 9.716256,29.742512 C 10.151621,29.742512 10.17687,29.677318 10.810004,29.586262 C 11.558776,29.459329 14.879025,29.462772 18.060004,29.742512 C 22.385551,30.122906 26.652449,30.943198 26.747504,30.961262 C 26.747504,30.514521 26.874345,30.10768 27.091254,29.805012 C 23.930573,28.720406 21.341254,28.680012 21.341254,28.680012 L 9.810006,28.680012 z "
       style="opacity:1;fill:url(#linearGradient3367);fill-opacity:1;fill-rule:nonzero;stroke:none;stroke-width:1;stroke-linecap:round;stroke-linejoin:round;stroke-miterlimit:4;stroke-opacity:1"
       id="path3305" />
    <path
       d="M 27.375,30.15625 C 27.096705,30.465902 26.9375,30.926939 26.9375,31.4375 C 26.9375,31.468971 26.936194,31.500199 26.9375,31.53125 C 26.938561,31.531452 27,31.53125 27,31.53125 L 33.5,35.625 L 40,39 L 40,36.59375 L 35,34 C 35,34 31.120792,31.531251 27.75,30.28125 C 27.623286,30.23426 27.500113,30.199858 27.375,30.15625 z "
       style="opacity:0.14077669;fill:#eeeeec;fill-opacity:1;fill-rule:nonzero;stroke:none;stroke-width:0.40000001;stroke-linecap:round;stroke-linejoin:round;stroke-miterlimit:4;stroke-dasharray:none;stroke-opacity:1"
       id="path3308" />
    <path
       d="M 27.375,30 C 27.096705,30.309652 26.9375,30.770689 26.9375,31.28125 C 26.9375,31.312721 26.936194,31.343949 26.9375,31.375 C 26.938561,31.375202 27.189994,30.995012 27.189994,30.995012 L 34.164979,34.993765 L 40.047499,38.083774 L 40,36.4375 L 35,33.84375 C 35,33.84375 31.120792,31.375001 27.75,30.125 C 27.623286,30.07801 27.500113,30.043608 27.375,30 z "
       style="opacity:1;fill:url(#linearGradient3375);fill-opacity:1;fill-rule:nonzero;stroke:none;stroke-width:0.40000001;stroke-linecap:round;stroke-linejoin:round;stroke-miterlimit:4;stroke-dasharray:none;stroke-opacity:1"
       id="path3318" />
    <path
       d="M 21.28125,28.3125 C 16.835945,28.312499 13.118222,28.366196 12.40625,28.375 L 12.40625,28.6875 L 21.34375,28.6875 C 21.34375,28.6875 23.93307,28.727894 27.09375,29.8125 C 27.055038,29.866517 27.032765,29.939712 27,30 L 27.375,30 L 28,29.46875 C 28,29.46875 28.71875,29.151363 29.46875,29.03125 C 30.21875,28.911137 31,29 31,29 C 31,29 26.133501,28.3125 21.28125,28.3125 z "
       style="fill:url(#linearGradient3433);fill-opacity:1;fill-rule:nonzero;stroke:none;stroke-width:1;stroke-linecap:round;stroke-linejoin:round;stroke-miterlimit:4;stroke-opacity:1"
       id="path3425" />
    <path
       d="M 21.28125,28.3125 C 16.835945,28.312499 13.118222,28.366196 12.40625,28.375 C 12.40625,28.375 11.720755,28.341662 11.079845,28.397495 C 10.438935,28.453327 9.8426104,28.59833 9.8426104,28.59833 L 21.34375,28.6875 C 21.34375,28.6875 23.93307,28.727894 27.09375,29.8125 C 27.055038,29.866517 27.032765,29.939712 27,30 L 27.375,30 L 28,29.46875 C 28,29.46875 28.71875,29.151363 29.46875,29.03125 C 30.21875,28.911137 31,29 31,29 C 31,29 26.133501,28.3125 21.28125,28.3125 z "
       style="fill:url(#linearGradient3437);fill-opacity:1;fill-rule:nonzero;stroke:none;stroke-width:1;stroke-linecap:round;stroke-linejoin:round;stroke-miterlimit:4;stroke-opacity:1"
       id="path3435" />
    <rect
       width="40.001965"
       height="10.004759"
       x="-0.0019644466"
       y="30"
       style="opacity:0.61162792;fill:#555753;fill-opacity:1;fill-rule:nonzero;stroke:none;stroke-width:0.69999999;stroke-linecap:round;stroke-linejoin:miter;stroke-miterlimit:4;stroke-dasharray:none;stroke-opacity:1"
       id="rect1951" />
    <text
       x="16.339359"
       y="39.168156"
       style="font-size:12px;font-style:normal;font-weight:normal;fill:#eeeeec;fill-opacity:1;stroke:none;stroke-width:1px;stroke-linecap:butt;stroke-linejoin:miter;stroke-opacity:1;font-family:Bitstream Vera Sans"
       id="text2840"
       xml:space="preserve"><tspan
         x="16.339359"
         y="39.168156"
         id="tspan2842">F</tspan></text>
    <path
       d="M 7.1875,23.09375 C 7.569266,23.911602 8.455323,24.46875 9.46875,24.46875 C 10.110245,24.46875 10.686329,24.218588 11.125,23.84375 L 11.125,23.09375 L 10.53125,23.09375 C 10.066904,23.469637 9.473159,23.71875 8.8125,23.71875 C 8.197586,23.71875 7.776074,23.444317 7.25,23.09375 L 7.1875,23.09375 z "
       style="opacity:1;fill:url(#radialGradient3459);fill-opacity:1;fill-rule:nonzero;stroke:none;stroke-width:0.40000001;stroke-linecap:round;stroke-linejoin:round;stroke-miterlimit:4;stroke-dasharray:none;stroke-opacity:1"
       id="path3447" />
    <path
       d="M 6.730247 17.942888 A 3.3368452 1.4704741 0 1 1  0.056556702,17.942888 A 3.3368452 1.4704741 0 1 1  6.730247 17.942888 z"
       transform="matrix(-0.4927055,0.3521786,-0.3423626,-0.4980751,11.818655,24.451739)"
       style="opacity:1;fill:url(#radialGradient3463);fill-opacity:1;fill-rule:nonzero;stroke:none;stroke-width:0.40000001;stroke-linecap:round;stroke-linejoin:round;stroke-miterlimit:4;stroke-dasharray:none;stroke-opacity:1"
       id="path3461" />
    <path
       d="M 10.498551,11.27926 C 11.039095,11.61732 11.377833,12.319721 11.33383,13.213267 C 11.292209,14.05843 10.902494,14.883876 10.366488,15.472755 C 10.641823,15.288592 10.896298,15.075342 11.113175,14.775938 C 11.919803,13.662362 11.879864,12.199414 11.022664,11.520708 C 10.867708,11.398019 10.679612,11.336127 10.498551,11.27926 z "
       style="fill:#888a85;fill-opacity:1;fill-rule:nonzero;stroke:none;stroke-width:1;stroke-linecap:round;stroke-linejoin:round;stroke-miterlimit:4;stroke-dasharray:none;stroke-opacity:1"
       id="path3469" />
    <use
       transform="translate(0.8377741,-0.2234065)"
       id="use3474"
       x="0"
       y="0"
       width="40"
       height="40"
       xlink:href="#path3469" />
    <path
       d="M 1.15625,20.4375 L 1.15625,24.25 L 2.0625,24.75 C 2.0892651,24.72083 2.1318409,24.709166 2.15625,24.65625 C 2.2303811,24.495542 2.28125,24.21875 2.28125,24.21875 C 2.28125,24.21875 2.2713386,24.477213 2.34375,24.71875 C 2.3724648,24.814531 2.3989393,24.893253 2.4375,24.96875 L 3.625,25.625 C 3.6559115,25.594832 3.6898208,25.562715 3.71875,25.5 C 3.7928814,25.339293 3.84375,25.0625 3.84375,25.0625 C 3.8437498,25.062501 3.8338386,25.320963 3.90625,25.5625 C 3.9424557,25.683268 3.9851782,25.791303 4.03125,25.875 L 5.21875,26.53125 L 5.25,26.53125 C 5.286398,26.501941 5.3066844,26.455354 5.34375,26.375 C 5.4178813,26.214293 5.46875,25.9375 5.46875,25.9375 C 5.4687499,25.9375 5.4588386,26.195963 5.53125,26.4375 C 5.5824373,26.60824 5.6709751,26.735139 5.71875,26.8125 L 7.21875,27.65625 L 7.1875,23.09375 L 1.15625,20.4375 z "
       style="fill:#babdb6;fill-opacity:1;fill-rule:nonzero;stroke:none;stroke-width:1;stroke-linecap:round;stroke-linejoin:round;stroke-miterlimit:4;stroke-opacity:1"
       id="path3300" />
    <path
       d="M 34.34375,1.75 C 34.027168,1.8327264 33.734488,1.9499501 33.4375,2.0625 C 33.765575,3.1527542 34.43529,5.3466262 35.375,8.03125 C 36.271519,10.592482 37.063076,12.666994 37.53125,13.84375 C 37.899491,13.819506 38.27561,13.783731 38.625,13.71875 C 38.373229,13.122725 37.29354,10.536921 36.25,7.625 C 35.27024,4.8910565 34.586032,2.5672665 34.34375,1.75 z "
       style="opacity:0.5;fill:url(#linearGradient3352);fill-opacity:1;fill-rule:evenodd;stroke:none;stroke-width:1px;stroke-linecap:butt;stroke-linejoin:miter;stroke-opacity:1"
       id="path3341" />
  </g>
</svg>
