<?xml version="1.0" encoding="UTF-8" standalone="no"?>
<!-- Created with Inkscape (http://www.inkscape.org/) -->
<svg
   xmlns:dc="http://purl.org/dc/elements/1.1/"
   xmlns:cc="http://web.resource.org/cc/"
   xmlns:rdf="http://www.w3.org/1999/02/22-rdf-syntax-ns#"
   xmlns:svg="http://www.w3.org/2000/svg"
   xmlns="http://www.w3.org/2000/svg"
   xmlns:xlink="http://www.w3.org/1999/xlink"
   xmlns:sodipodi="http://inkscape.sourceforge.net/DTD/sodipodi-0.dtd"
   xmlns:inkscape="http://www.inkscape.org/namespaces/inkscape"
   sodipodi:docname="icons.svg"
   sodipodi:docbase="d:\files\www\test\kalzium"
   inkscape:version="0.40+cvs"
   sodipodi:version="0.32"
   id="svg2"
   height="297mm"
   width="210mm">
  <defs
     id="defs3">
    <marker
       inkscape:stockid="DistanceIn"
       orient="auto"
       refY="0.0"
       refX="0.0"
       id="DistanceIn"
       style="overflow:visible">
      <g
         transform="scale(0.6,0.6) translate(8,0)"
         id="g987">
        <path
           sodipodi:nodetypes="ccccc"
           id="path974"
           d="M 0.0,0.0 L 5.0,-5.0 L -12.5,0.0 L 5.0,5.0 L 0.0,0.0 z "
           style="fill-rule:evenodd;stroke:#000000;stroke-width:1.0pt;marker-start:none" />
        <path
           id="path976"
           d="M -14.759949,-7 L -14.759949,65"
           style="fill:none;fill-opacity:0.75000000;fill-rule:evenodd;stroke:#000000;stroke-width:1.2pt;marker-start:none" />
      </g>
    </marker>
    <marker
       inkscape:stockid="DistanceOut"
       orient="auto"
       refY="0.0"
       refX="0.0"
       id="DistanceOut"
       style="overflow:visible">
      <g
         transform="scale(-0.6,0.6) translate(8,0)"
         id="g990">
        <path
           sodipodi:nodetypes="ccccc"
           id="path991"
           d="M 0.0,0.0 L 5.0,-5.0 L -12.5,0.0 L 5.0,5.0 L 0.0,0.0 z "
           style="fill-rule:evenodd;stroke:#000000;stroke-width:1.0pt;marker-start:none" />
        <path
           id="path992"
           d="M -14.759949,-7 L -14.759949,65"
           style="fill:none;fill-opacity:0.75000000;fill-rule:evenodd;stroke:#000000;stroke-width:1.2pt;marker-start:none" />
      </g>
    </marker>
    <linearGradient
       id="linearGradient2426">
      <stop
         id="stop2428"
         offset="0.00000000"
         style="stop-color:#005fd6;stop-opacity:1.0000000;" />
      <stop
         id="stop2430"
         offset="1.0000000"
         style="stop-color:#b4d2de;stop-opacity:0.00000000;" />
    </linearGradient>
    <marker
       inkscape:stockid="Arrow2Lstart"
       orient="auto"
       refY="0.0"
       refX="0.0"
       id="Arrow2Lstart"
       style="overflow:visible">
      <path
         sodipodi:nodetypes="cccc"
         id="path2379"
         style="font-size:12.0;fill-rule:evenodd;stroke-width:0.62500000;stroke-linejoin:round"
         d="M 8.7185878,4.0337352 L -2.2072895,0.016013256 L 8.7185884,-4.0017078 C 6.9730900,-1.6296469 6.9831476,1.6157441 8.7185878,4.0337352 z "
         transform="scale(1.1) translate(-5,0)" />
    </marker>
    <marker
       inkscape:stockid="Arrow1Mstart"
       orient="auto"
       refY="0.0"
       refX="0.0"
       id="Arrow1Mstart"
       style="overflow:visible">
      <path
         sodipodi:nodetypes="ccccc"
         id="path2393"
         d="M 0.0,0.0 L 5.0,-5.0 L -12.5,0.0 L 5.0,5.0 L 0.0,0.0 z "
         style="fill-rule:evenodd;stroke:#000000;stroke-width:1.0pt;marker-start:none"
         transform="scale(0.4)" />
    </marker>
    <marker
       inkscape:stockid="Arrow2Lend"
       orient="auto"
       refY="0.0"
       refX="0.0"
       id="Arrow2Lend"
       style="overflow:visible;">
      <path
         sodipodi:nodetypes="cccc"
         id="path2388"
         style="font-size:12.0;fill-rule:evenodd;stroke-width:0.62500000;stroke-linejoin:round;"
         d="M 8.7185878,4.0337352 L -2.2072895,0.016013256 L 8.7185884,-4.0017078 C 6.9730900,-1.6296469 6.9831476,1.6157441 8.7185878,4.0337352 z "
         transform="scale(1.1) rotate(180) translate(-5,0)" />
    </marker>
    <marker
       inkscape:stockid="Arrow1Lstart"
       orient="auto"
       refY="0.0"
       refX="0.0"
       id="Arrow1Lstart"
       style="overflow:visible">
      <path
         sodipodi:nodetypes="ccccc"
         id="path2396"
         d="M 0.0,0.0 L 5.0,-5.0 L -12.5,0.0 L 5.0,5.0 L 0.0,0.0 z "
         style="fill-rule:evenodd;stroke:#000000;stroke-width:1.0pt;marker-start:none"
         transform="scale(0.8)" />
    </marker>
    <linearGradient
       id="linearGradient2084"
       inkscape:collect="always">
      <stop
         id="stop2086"
         offset="0"
         style="stop-color:#ffffff;stop-opacity:1;" />
      <stop
         id="stop2088"
         offset="1"
         style="stop-color:#ffffff;stop-opacity:0;" />
    </linearGradient>
    <linearGradient
       y2="565.07660"
       x2="183.94415"
       y1="555.78204"
       x1="183.94418"
       gradientTransform="scale(1.123903,0.889757)"
       gradientUnits="userSpaceOnUse"
       id="linearGradient2134"
       xlink:href="#linearGradient2084"
       inkscape:collect="always" />
    <linearGradient
       y2="565.07660"
       x2="183.94415"
       y1="555.78204"
       x1="183.94418"
       gradientTransform="scale(1.123903,0.889757)"
       gradientUnits="userSpaceOnUse"
       id="linearGradient2181"
       xlink:href="#linearGradient2084"
       inkscape:collect="always" />
    <linearGradient
       y2="565.07660"
       x2="183.94415"
       y1="555.78204"
       x1="183.94418"
       gradientTransform="scale(1.123903,0.889757)"
       gradientUnits="userSpaceOnUse"
       id="linearGradient2189"
       xlink:href="#linearGradient2084"
       inkscape:collect="always" />
    <linearGradient
       y2="565.07660"
       x2="183.94415"
       y1="555.78204"
       x1="183.94418"
       gradientTransform="scale(1.123903,0.889757)"
       gradientUnits="userSpaceOnUse"
       id="linearGradient2197"
       xlink:href="#linearGradient2084"
       inkscape:collect="always" />
    <linearGradient
       y2="565.07660"
       x2="183.94415"
       y1="555.78204"
       x1="183.94418"
       gradientTransform="scale(1.123903,0.889757)"
       gradientUnits="userSpaceOnUse"
       id="linearGradient2205"
       xlink:href="#linearGradient2084"
       inkscape:collect="always" />
    <linearGradient
       y2="565.07660"
       x2="183.94415"
       y1="555.78204"
       x1="183.94418"
       gradientTransform="scale(1.123903,0.889757)"
       gradientUnits="userSpaceOnUse"
       id="linearGradient2213"
       xlink:href="#linearGradient2084"
       inkscape:collect="always" />
    <linearGradient
       y2="565.07660"
       x2="183.94415"
       y1="555.78204"
       x1="183.94418"
       gradientTransform="scale(1.123903,0.889757)"
       gradientUnits="userSpaceOnUse"
       id="linearGradient2221"
       xlink:href="#linearGradient2084"
       inkscape:collect="always" />
    <linearGradient
       y2="565.07660"
       x2="183.94415"
       y1="555.78204"
       x1="183.94418"
       gradientTransform="scale(1.123903,0.889757)"
       gradientUnits="userSpaceOnUse"
       id="linearGradient2229"
       xlink:href="#linearGradient2084"
       inkscape:collect="always" />
    <linearGradient
       y2="565.07660"
       x2="183.94415"
       y1="555.78204"
       x1="183.94418"
       gradientTransform="scale(1.123903,0.889757)"
       gradientUnits="userSpaceOnUse"
       id="linearGradient2237"
       xlink:href="#linearGradient2084"
       inkscape:collect="always" />
    <linearGradient
       y2="565.07660"
       x2="183.94415"
       y1="555.78204"
       x1="183.94418"
       gradientTransform="scale(1.123903,0.889757)"
       gradientUnits="userSpaceOnUse"
       id="linearGradient2245"
       xlink:href="#linearGradient2084"
       inkscape:collect="always" />
    <linearGradient
       y2="565.07660"
       x2="183.94415"
       y1="555.78204"
       x1="183.94418"
       gradientTransform="scale(1.123903,0.889757)"
       gradientUnits="userSpaceOnUse"
       id="linearGradient2259"
       xlink:href="#linearGradient2084"
       inkscape:collect="always" />
    <linearGradient
       y2="565.07660"
       x2="183.94415"
       y1="555.78204"
       x1="183.94418"
       gradientTransform="scale(1.123903,0.889757)"
       gradientUnits="userSpaceOnUse"
       id="linearGradient2267"
       xlink:href="#linearGradient2084"
       inkscape:collect="always" />
    <radialGradient
       gradientUnits="userSpaceOnUse"
       r="38.120567"
       fy="543.75037"
       fx="257.08383"
       cy="543.75037"
       cx="257.08383"
       id="radialGradient2432"
       xlink:href="#linearGradient2426"
       inkscape:collect="always" />
    <linearGradient
       gradientUnits="userSpaceOnUse"
       y2="515.60339"
       x2="289.12891"
       y1="515.60339"
       x1="277.50262"
       gradientTransform="scale(0.775088,1.290176)"
       id="linearGradient2476"
       xlink:href="#linearGradient2084"
       inkscape:collect="always" />
    <linearGradient
       gradientUnits="userSpaceOnUse"
       y2="704.73254"
       x2="241.40240"
       y1="704.73254"
       x1="201.22742"
       gradientTransform="matrix(0.965609,0.000000,0.000000,1.065867,9.125532,-55.93254)"
       id="linearGradient2486"
       xlink:href="#linearGradient2084"
       inkscape:collect="always" />
  </defs>
  <sodipodi:namedview
     inkscape:window-y="-4"
     inkscape:window-x="-4"
     inkscape:window-height="952"
     inkscape:window-width="1280"
     inkscape:current-layer="layer1"
     inkscape:document-units="px"
     inkscape:cy="431.38817"
     inkscape:cx="196.65108"
     inkscape:zoom="0.56447325"
     inkscape:pageshadow="2"
     inkscape:pageopacity="0.0"
     borderopacity="1.0"
     bordercolor="#666666"
     pagecolor="#ffffff"
     id="base" />
  <metadata
     id="metadata4">
    <rdf:RDF
       id="RDF5">
      <cc:Work
         id="Work6"
         rdf:about="">
        <dc:format
           id="format7">image/svg+xml</dc:format>
        <dc:type
           rdf:resource="http://purl.org/dc/dcmitype/StillImage"
           id="type9" />
      </cc:Work>
    </rdf:RDF>
  </metadata>
  <g
     id="layer1"
     inkscape:groupmode="layer"
     inkscape:label="Layer 1">
    <g
       id="g2528">
      <path
         transform="matrix(1.085299,-0.707420,0.626598,1.225287,-234.3469,19.42315)"
         d="M 262.85714 363.79074 A 29.285715 10.000000 0 1 1  204.28571,363.79074 A 29.285715 10.000000 0 1 1  262.85714 363.79074 z"
         sodipodi:ry="10.000000"
         sodipodi:rx="29.285715"
         sodipodi:cy="363.79074"
         sodipodi:cx="233.57143"
         id="path1291"
         style="stroke-opacity:1.0000000;stroke-dashoffset:0.00000000;stroke-miterlimit:4.0000000;stroke-linejoin:miter;stroke-linecap:butt;stroke-width:2.5000000;stroke:#001fb4;fill-opacity:1.0000000;fill:none"
         sodipodi:type="arc" />
      <path
         transform="matrix(1.085299,0.707420,-0.626598,1.225287,222.4493,-311.0432)"
         d="M 262.85714 363.79074 A 29.285715 10.000000 0 1 1  204.28571,363.79074 A 29.285715 10.000000 0 1 1  262.85714 363.79074 z"
         sodipodi:ry="10.000000"
         sodipodi:rx="29.285715"
         sodipodi:cy="363.79074"
         sodipodi:cx="233.57143"
         id="path2054"
         style="stroke-opacity:1.0000000;stroke-dashoffset:0.00000000;stroke-miterlimit:4.0000000;stroke-linejoin:miter;stroke-linecap:butt;stroke-width:2.5000000;stroke:#001fb4;fill-opacity:1.0000000;fill:none"
         sodipodi:type="arc" />
      <g
         id="g2249">
        <path
           transform="matrix(0.636364,0.000000,0.000000,0.636364,112.6623,13.19668)"
           d="M 221.42857 448.79074 A 7.8571429 7.8571429 0 1 1  205.71428,448.79074 A 7.8571429 7.8571429 0 1 1  221.42857 448.79074 z"
           sodipodi:ry="7.8571429"
           sodipodi:rx="7.8571429"
           sodipodi:cy="448.79074"
           sodipodi:cx="213.57143"
           id="path2241"
           style="fill:#1fcb71;fill-opacity:1.0000000;stroke:none;stroke-width:2.5000000;stroke-linecap:butt;stroke-linejoin:miter;stroke-miterlimit:4.0000000;stroke-dashoffset:0.00000000;stroke-opacity:1.0000000"
           sodipodi:type="arc" />
        <path
           transform="matrix(0.442094,0.000000,0.000000,0.427089,157.9942,84.07187)"
           d="M 213.57143 498.43362 A 8.5714283 6.7857141 0 1 1  196.42857,498.43362 A 8.5714283 6.7857141 0 1 1  213.57143 498.43362 z"
           sodipodi:ry="6.7857141"
           sodipodi:rx="8.5714283"
           sodipodi:cy="498.43362"
           sodipodi:cx="205.00000"
           id="path2243"
           style="stroke-opacity:1.0000000;stroke-dashoffset:0.00000000;stroke-miterlimit:4.0000000;stroke-linejoin:miter;stroke-linecap:butt;stroke-width:2.5000000;stroke:none;fill-opacity:1.0000000;fill:url(#linearGradient2245);opacity:0.76363635"
           sodipodi:type="arc" />
      </g>
      <g
         transform="translate(-32.85718,-18.21448)"
         id="g2253">
        <path
           transform="matrix(0.636364,0.000000,0.000000,0.636364,112.6623,13.19668)"
           d="M 221.42857 448.79074 A 7.8571429 7.8571429 0 1 1  205.71428,448.79074 A 7.8571429 7.8571429 0 1 1  221.42857 448.79074 z"
           sodipodi:ry="7.8571429"
           sodipodi:rx="7.8571429"
           sodipodi:cy="448.79074"
           sodipodi:cx="213.57143"
           id="path2255"
           style="fill:#1fcb71;fill-opacity:1.0000000;stroke:none;stroke-width:2.5000000;stroke-linecap:butt;stroke-linejoin:miter;stroke-miterlimit:4.0000000;stroke-dashoffset:0.00000000;stroke-opacity:1.0000000"
           sodipodi:type="arc" />
        <path
           transform="matrix(0.442094,0.000000,0.000000,0.427089,157.9942,84.07187)"
           d="M 213.57143 498.43362 A 8.5714283 6.7857141 0 1 1  196.42857,498.43362 A 8.5714283 6.7857141 0 1 1  213.57143 498.43362 z"
           sodipodi:ry="6.7857141"
           sodipodi:rx="8.5714283"
           sodipodi:cy="498.43362"
           sodipodi:cx="205.00000"
           id="path2257"
           style="opacity:0.76363635;fill:url(#linearGradient2259);fill-opacity:1.0000000;stroke:none;stroke-width:2.5000000;stroke-linecap:butt;stroke-linejoin:miter;stroke-miterlimit:4.0000000;stroke-dashoffset:0.00000000;stroke-opacity:1.0000000"
           sodipodi:type="arc" />
      </g>
      <g
         transform="translate(13.00068,6.284792)"
         id="g2261">
        <path
           transform="matrix(0.636364,0.000000,0.000000,0.636364,112.6623,13.19668)"
           d="M 221.42857 448.79074 A 7.8571429 7.8571429 0 1 1  205.71428,448.79074 A 7.8571429 7.8571429 0 1 1  221.42857 448.79074 z"
           sodipodi:ry="7.8571429"
           sodipodi:rx="7.8571429"
           sodipodi:cy="448.79074"
           sodipodi:cx="213.57143"
           id="path2263"
           style="fill:#1fcb71;fill-opacity:1.0000000;stroke:none;stroke-width:2.5000000;stroke-linecap:butt;stroke-linejoin:miter;stroke-miterlimit:4.0000000;stroke-dashoffset:0.00000000;stroke-opacity:1.0000000"
           sodipodi:type="arc" />
        <path
           transform="matrix(0.442094,0.000000,0.000000,0.427089,157.9942,84.07187)"
           d="M 213.57143 498.43362 A 8.5714283 6.7857141 0 1 1  196.42857,498.43362 A 8.5714283 6.7857141 0 1 1  213.57143 498.43362 z"
           sodipodi:ry="6.7857141"
           sodipodi:rx="8.5714283"
           sodipodi:cy="498.43362"
           sodipodi:cx="205.00000"
           id="path2265"
           style="opacity:0.76363635;fill:url(#linearGradient2267);fill-opacity:1.0000000;stroke:none;stroke-width:2.5000000;stroke-linecap:butt;stroke-linejoin:miter;stroke-miterlimit:4.0000000;stroke-dashoffset:0.00000000;stroke-opacity:1.0000000"
           sodipodi:type="arc" />
      </g>
    </g>
    <g
       id="g2499">
      <g
         id="g2171">
        <path
           transform="translate(1.519153,-9.101242)"
           d="M 221.42857 448.79074 A 7.8571429 7.8571429 0 1 1  205.71428,448.79074 A 7.8571429 7.8571429 0 1 1  221.42857 448.79074 z"
           sodipodi:ry="7.8571429"
           sodipodi:rx="7.8571429"
           sodipodi:cy="448.79074"
           sodipodi:cx="213.57143"
           id="path2130"
           style="stroke-opacity:1.0000000;stroke-dashoffset:0.00000000;stroke-miterlimit:4.0000000;stroke-linejoin:miter;stroke-linecap:butt;stroke-width:2.5000000;stroke:none;fill-opacity:1.0000000;fill:#1f47c8"
           sodipodi:type="arc" />
        <path
           transform="matrix(0.694719,0.000000,0.000000,0.671140,72.75487,102.2740)"
           d="M 213.57143 498.43362 A 8.5714283 6.7857141 0 1 1  196.42857,498.43362 A 8.5714283 6.7857141 0 1 1  213.57143 498.43362 z"
           sodipodi:ry="6.7857141"
           sodipodi:rx="8.5714283"
           sodipodi:cy="498.43362"
           sodipodi:cx="205.00000"
           id="path2132"
           style="stroke-opacity:1.0000000;stroke-dashoffset:0.00000000;stroke-miterlimit:4.0000000;stroke-linejoin:miter;stroke-linecap:butt;stroke-width:2.5000000;stroke:none;fill-opacity:1.0000000;fill:url(#linearGradient2134);opacity:0.76363635"
           sodipodi:type="arc" />
      </g>
      <g
         transform="translate(6.337991,-22.32732)"
         id="g2175">
        <path
           transform="translate(1.519153,-9.101242)"
           d="M 221.42857 448.79074 A 7.8571429 7.8571429 0 1 1  205.71428,448.79074 A 7.8571429 7.8571429 0 1 1  221.42857 448.79074 z"
           sodipodi:ry="7.8571429"
           sodipodi:rx="7.8571429"
           sodipodi:cy="448.79074"
           sodipodi:cx="213.57143"
           id="path2177"
           style="fill:#1f47c8;fill-opacity:1.0000000;stroke:none;stroke-width:2.5000000;stroke-linecap:butt;stroke-linejoin:miter;stroke-miterlimit:4.0000000;stroke-dashoffset:0.00000000;stroke-opacity:1.0000000"
           sodipodi:type="arc" />
        <path
           transform="matrix(0.694719,0.000000,0.000000,0.671140,72.75487,102.2740)"
           d="M 213.57143 498.43362 A 8.5714283 6.7857141 0 1 1  196.42857,498.43362 A 8.5714283 6.7857141 0 1 1  213.57143 498.43362 z"
           sodipodi:ry="6.7857141"
           sodipodi:rx="8.5714283"
           sodipodi:cy="498.43362"
           sodipodi:cx="205.00000"
           id="path2179"
           style="opacity:0.76363635;fill:url(#linearGradient2181);fill-opacity:1.0000000;stroke:none;stroke-width:2.5000000;stroke-linecap:butt;stroke-linejoin:miter;stroke-miterlimit:4.0000000;stroke-dashoffset:0.00000000;stroke-opacity:1.0000000"
           sodipodi:type="arc" />
      </g>
      <g
         transform="translate(17.05228,-0.184457)"
         id="g2183">
        <path
           transform="translate(1.519153,-9.101242)"
           d="M 221.42857 448.79074 A 7.8571429 7.8571429 0 1 1  205.71428,448.79074 A 7.8571429 7.8571429 0 1 1  221.42857 448.79074 z"
           sodipodi:ry="7.8571429"
           sodipodi:rx="7.8571429"
           sodipodi:cy="448.79074"
           sodipodi:cx="213.57143"
           id="path2185"
           style="fill:#1f47c8;fill-opacity:1.0000000;stroke:none;stroke-width:2.5000000;stroke-linecap:butt;stroke-linejoin:miter;stroke-miterlimit:4.0000000;stroke-dashoffset:0.00000000;stroke-opacity:1.0000000"
           sodipodi:type="arc" />
        <path
           transform="matrix(0.694719,0.000000,0.000000,0.671140,72.75487,102.2740)"
           d="M 213.57143 498.43362 A 8.5714283 6.7857141 0 1 1  196.42857,498.43362 A 8.5714283 6.7857141 0 1 1  213.57143 498.43362 z"
           sodipodi:ry="6.7857141"
           sodipodi:rx="8.5714283"
           sodipodi:cy="498.43362"
           sodipodi:cx="205.00000"
           id="path2187"
           style="opacity:0.76363635;fill:url(#linearGradient2189);fill-opacity:1.0000000;stroke:none;stroke-width:2.5000000;stroke-linecap:butt;stroke-linejoin:miter;stroke-miterlimit:4.0000000;stroke-dashoffset:0.00000000;stroke-opacity:1.0000000"
           sodipodi:type="arc" />
      </g>
      <g
         transform="translate(29.90942,-10.89874)"
         id="g2191">
        <path
           transform="translate(1.519153,-9.101242)"
           d="M 221.42857 448.79074 A 7.8571429 7.8571429 0 1 1  205.71428,448.79074 A 7.8571429 7.8571429 0 1 1  221.42857 448.79074 z"
           sodipodi:ry="7.8571429"
           sodipodi:rx="7.8571429"
           sodipodi:cy="448.79074"
           sodipodi:cx="213.57143"
           id="path2193"
           style="fill:#1f47c8;fill-opacity:1.0000000;stroke:none;stroke-width:2.5000000;stroke-linecap:butt;stroke-linejoin:miter;stroke-miterlimit:4.0000000;stroke-dashoffset:0.00000000;stroke-opacity:1.0000000"
           sodipodi:type="arc" />
        <path
           transform="matrix(0.694719,0.000000,0.000000,0.671140,72.75487,102.2740)"
           d="M 213.57143 498.43362 A 8.5714283 6.7857141 0 1 1  196.42857,498.43362 A 8.5714283 6.7857141 0 1 1  213.57143 498.43362 z"
           sodipodi:ry="6.7857141"
           sodipodi:rx="8.5714283"
           sodipodi:cy="498.43362"
           sodipodi:cx="205.00000"
           id="path2195"
           style="opacity:0.76363635;fill:url(#linearGradient2197);fill-opacity:1.0000000;stroke:none;stroke-width:2.5000000;stroke-linecap:butt;stroke-linejoin:miter;stroke-miterlimit:4.0000000;stroke-dashoffset:0.00000000;stroke-opacity:1.0000000"
           sodipodi:type="arc" />
      </g>
      <g
         transform="translate(39.19514,-0.898746)"
         id="g2199">
        <path
           transform="translate(1.519153,-9.101242)"
           d="M 221.42857 448.79074 A 7.8571429 7.8571429 0 1 1  205.71428,448.79074 A 7.8571429 7.8571429 0 1 1  221.42857 448.79074 z"
           sodipodi:ry="7.8571429"
           sodipodi:rx="7.8571429"
           sodipodi:cy="448.79074"
           sodipodi:cx="213.57143"
           id="path2201"
           style="fill:#1f47c8;fill-opacity:1.0000000;stroke:none;stroke-width:2.5000000;stroke-linecap:butt;stroke-linejoin:miter;stroke-miterlimit:4.0000000;stroke-dashoffset:0.00000000;stroke-opacity:1.0000000"
           sodipodi:type="arc" />
        <path
           transform="matrix(0.694719,0.000000,0.000000,0.671140,72.75487,102.2740)"
           d="M 213.57143 498.43362 A 8.5714283 6.7857141 0 1 1  196.42857,498.43362 A 8.5714283 6.7857141 0 1 1  213.57143 498.43362 z"
           sodipodi:ry="6.7857141"
           sodipodi:rx="8.5714283"
           sodipodi:cy="498.43362"
           sodipodi:cx="205.00000"
           id="path2203"
           style="opacity:0.76363635;fill:url(#linearGradient2205);fill-opacity:1.0000000;stroke:none;stroke-width:2.5000000;stroke-linecap:butt;stroke-linejoin:miter;stroke-miterlimit:4.0000000;stroke-dashoffset:0.00000000;stroke-opacity:1.0000000"
           sodipodi:type="arc" />
      </g>
      <g
         transform="translate(39.90942,-18.75589)"
         id="g2207">
        <path
           transform="translate(1.519153,-9.101242)"
           d="M 221.42857 448.79074 A 7.8571429 7.8571429 0 1 1  205.71428,448.79074 A 7.8571429 7.8571429 0 1 1  221.42857 448.79074 z"
           sodipodi:ry="7.8571429"
           sodipodi:rx="7.8571429"
           sodipodi:cy="448.79074"
           sodipodi:cx="213.57143"
           id="path2209"
           style="fill:#1f47c8;fill-opacity:1.0000000;stroke:none;stroke-width:2.5000000;stroke-linecap:butt;stroke-linejoin:miter;stroke-miterlimit:4.0000000;stroke-dashoffset:0.00000000;stroke-opacity:1.0000000"
           sodipodi:type="arc" />
        <path
           transform="matrix(0.694719,0.000000,0.000000,0.671140,72.75487,102.2740)"
           d="M 213.57143 498.43362 A 8.5714283 6.7857141 0 1 1  196.42857,498.43362 A 8.5714283 6.7857141 0 1 1  213.57143 498.43362 z"
           sodipodi:ry="6.7857141"
           sodipodi:rx="8.5714283"
           sodipodi:cy="498.43362"
           sodipodi:cx="205.00000"
           id="path2211"
           style="opacity:0.76363635;fill:url(#linearGradient2213);fill-opacity:1.0000000;stroke:none;stroke-width:2.5000000;stroke-linecap:butt;stroke-linejoin:miter;stroke-miterlimit:4.0000000;stroke-dashoffset:0.00000000;stroke-opacity:1.0000000"
           sodipodi:type="arc" />
      </g>
      <g
         transform="translate(22.76657,-29.47017)"
         id="g2215">
        <path
           transform="translate(1.519153,-9.101242)"
           d="M 221.42857 448.79074 A 7.8571429 7.8571429 0 1 1  205.71428,448.79074 A 7.8571429 7.8571429 0 1 1  221.42857 448.79074 z"
           sodipodi:ry="7.8571429"
           sodipodi:rx="7.8571429"
           sodipodi:cy="448.79074"
           sodipodi:cx="213.57143"
           id="path2217"
           style="fill:#1f47c8;fill-opacity:1.0000000;stroke:none;stroke-width:2.5000000;stroke-linecap:butt;stroke-linejoin:miter;stroke-miterlimit:4.0000000;stroke-dashoffset:0.00000000;stroke-opacity:1.0000000"
           sodipodi:type="arc" />
        <path
           transform="matrix(0.694719,0.000000,0.000000,0.671140,72.75487,102.2740)"
           d="M 213.57143 498.43362 A 8.5714283 6.7857141 0 1 1  196.42857,498.43362 A 8.5714283 6.7857141 0 1 1  213.57143 498.43362 z"
           sodipodi:ry="6.7857141"
           sodipodi:rx="8.5714283"
           sodipodi:cy="498.43362"
           sodipodi:cx="205.00000"
           id="path2219"
           style="opacity:0.76363635;fill:url(#linearGradient2221);fill-opacity:1.0000000;stroke:none;stroke-width:2.5000000;stroke-linecap:butt;stroke-linejoin:miter;stroke-miterlimit:4.0000000;stroke-dashoffset:0.00000000;stroke-opacity:1.0000000"
           sodipodi:type="arc" />
      </g>
      <g
         transform="translate(-4.376296,-35.18446)"
         id="g2223">
        <path
           transform="translate(1.519153,-9.101242)"
           d="M 221.42857 448.79074 A 7.8571429 7.8571429 0 1 1  205.71428,448.79074 A 7.8571429 7.8571429 0 1 1  221.42857 448.79074 z"
           sodipodi:ry="7.8571429"
           sodipodi:rx="7.8571429"
           sodipodi:cy="448.79074"
           sodipodi:cx="213.57143"
           id="path2225"
           style="fill:#1f47c8;fill-opacity:1.0000000;stroke:none;stroke-width:2.5000000;stroke-linecap:butt;stroke-linejoin:miter;stroke-miterlimit:4.0000000;stroke-dashoffset:0.00000000;stroke-opacity:1.0000000"
           sodipodi:type="arc" />
        <path
           transform="matrix(0.694719,0.000000,0.000000,0.671140,72.75487,102.2740)"
           d="M 213.57143 498.43362 A 8.5714283 6.7857141 0 1 1  196.42857,498.43362 A 8.5714283 6.7857141 0 1 1  213.57143 498.43362 z"
           sodipodi:ry="6.7857141"
           sodipodi:rx="8.5714283"
           sodipodi:cy="498.43362"
           sodipodi:cx="205.00000"
           id="path2227"
           style="opacity:0.76363635;fill:url(#linearGradient2229);fill-opacity:1.0000000;stroke:none;stroke-width:2.5000000;stroke-linecap:butt;stroke-linejoin:miter;stroke-miterlimit:4.0000000;stroke-dashoffset:0.00000000;stroke-opacity:1.0000000"
           sodipodi:type="arc" />
      </g>
      <g
         transform="translate(-10.09058,-18.75589)"
         id="g2231">
        <path
           transform="translate(1.519153,-9.101242)"
           d="M 221.42857 448.79074 A 7.8571429 7.8571429 0 1 1  205.71428,448.79074 A 7.8571429 7.8571429 0 1 1  221.42857 448.79074 z"
           sodipodi:ry="7.8571429"
           sodipodi:rx="7.8571429"
           sodipodi:cy="448.79074"
           sodipodi:cx="213.57143"
           id="path2233"
           style="fill:#1f47c8;fill-opacity:1.0000000;stroke:none;stroke-width:2.5000000;stroke-linecap:butt;stroke-linejoin:miter;stroke-miterlimit:4.0000000;stroke-dashoffset:0.00000000;stroke-opacity:1.0000000"
           sodipodi:type="arc" />
        <path
           transform="matrix(0.694719,0.000000,0.000000,0.671140,72.75487,102.2740)"
           d="M 213.57143 498.43362 A 8.5714283 6.7857141 0 1 1  196.42857,498.43362 A 8.5714283 6.7857141 0 1 1  213.57143 498.43362 z"
           sodipodi:ry="6.7857141"
           sodipodi:rx="8.5714283"
           sodipodi:cy="498.43362"
           sodipodi:cx="205.00000"
           id="path2235"
           style="opacity:0.76363635;fill:url(#linearGradient2237);fill-opacity:1.0000000;stroke:none;stroke-width:2.5000000;stroke-linecap:butt;stroke-linejoin:miter;stroke-miterlimit:4.0000000;stroke-dashoffset:0.00000000;stroke-opacity:1.0000000"
           sodipodi:type="arc" />
      </g>
    </g>
    <g
       id="g2495">
      <path
         d="M 293.95440 543.75037 A 36.870567 36.870567 0 1 1  220.21326,543.75037 A 36.870567 36.870567 0 1 1  293.95440 543.75037 z"
         sodipodi:ry="36.870567"
         sodipodi:rx="36.870567"
         sodipodi:cy="543.75037"
         sodipodi:cx="257.08383"
         id="path2269"
         style="opacity:0.76363635;fill:url(#radialGradient2432);fill-opacity:1.0;stroke:#001fb4;stroke-width:2.5000000;stroke-linecap:butt;stroke-linejoin:miter;stroke-miterlimit:4.0000000;stroke-dashoffset:0.00000000;stroke-opacity:1.0000000"
         sodipodi:type="arc" />
      <path
         sodipodi:nodetypes="cc"
         id="path2442"
         d="M 261.07143,540.93361 L 276.42857,515.93361"
         style="marker-end:url(#DistanceOut);fill:none;fill-opacity:0.75000000;fill-rule:evenodd;stroke:#000000;stroke-width:1.0000000px;stroke-linecap:butt;stroke-linejoin:miter;stroke-opacity:1.0000000;marker-start:url(#DistanceIn)" />
    </g>
    <g
       id="g2488">
      <rect
         ry="6.0537443"
         rx="7.9696589"
         y="672.68982"
         x="201.78572"
         height="45.416256"
         width="44.285713"
         id="rect2444"
         style="opacity:1.0000000;fill:#1f47c8;fill-opacity:1.0000000;stroke:none;stroke-width:0.87994725;stroke-linecap:butt;stroke-linejoin:miter;stroke-miterlimit:4.0000000;stroke-dashoffset:0.00000000;stroke-opacity:1.0000000" />
      <rect
         ry="6.0537443"
         rx="7.9696589"
         y="651.69122"
         x="211.50781"
         height="6.4285712"
         width="25.000000"
         id="rect2446"
         style="fill:#1f47c8;fill-opacity:1.0000000;stroke:none;stroke-width:0.91000003;stroke-linecap:butt;stroke-linejoin:miter;stroke-miterlimit:4.0000000;stroke-dashoffset:0.00000000;stroke-opacity:1.0000000" />
      <path
         sodipodi:nodetypes="ccccc"
         id="path2454"
         d="M 218.88524,657.59303 C 218.84041,666.53450 214.92091,669.21346 210.82587,673.54990 C 216.54681,673.22940 226.97201,673.48269 237.17251,673.46581 C 231.87967,668.64134 229.48501,665.82943 229.15320,657.44266 C 225.55877,657.39538 223.28625,657.54354 218.88524,657.59303 z "
         style="stroke-opacity:1.0000000;stroke-linejoin:miter;stroke-linecap:butt;stroke-width:1.0000000px;stroke:none;fill-rule:evenodd;fill-opacity:1.0000000;fill:#1f47c8" />
      <path
         sodipodi:nodetypes="ccccc"
         id="path2468"
         d="M 219.64286,657.71932 C 219.13487,659.27039 220.79034,664.65615 212.76677,672.30090 C 211.35354,673.71413 220.76401,671.95767 225.44380,672.63639 C 226.08367,672.38044 225.63525,659.27435 224.28943,657.92853 C 223.81797,657.45707 219.89778,657.77031 219.64286,657.71932 z "
         style="opacity:0.69090909;fill:url(#linearGradient2476);fill-opacity:1.0;fill-rule:evenodd;stroke:none;stroke-width:1.0000000px;stroke-linecap:butt;stroke-linejoin:miter;stroke-opacity:1.0000000" />
      <rect
         ry="6.0537443"
         rx="7.9696593"
         y="673.80872"
         x="203.43246"
         height="42.821247"
         width="38.793331"
         id="rect2478"
         style="opacity:0.69090909;fill:url(#linearGradient2486);fill-opacity:1.0000000;stroke:none;stroke-width:0.91000003;stroke-linecap:butt;stroke-linejoin:miter;stroke-miterlimit:4.0000000;stroke-dashoffset:0.00000000;stroke-opacity:1.0000000" />
    </g>
  </g>
</svg>
